<svg xmlns="http://www.w3.org/2000/svg" width="719pt" height="445pt" viewBox="0 0 719 445"><defs><clipPath id="a"><path d="M150 62h440v303.934H150zm0 0"/></clipPath><clipPath id="b"><path d="M180 112h440v253.934H180zm0 0"/></clipPath><clipPath id="c"><path d="M210 136h440v229.934H210zm0 0"/></clipPath></defs><path fill="#fff" d="M0 0h719v445H0z"/><path d="M85.5 305.499h496" transform="scale(1.19833 1.19946)" fill="none" stroke="#333" stroke-miterlimit="10"/><path d="M85.5 235.5h496m-496-70h496m-496-70h496m-496.001-70H581.5" transform="scale(1.19833 1.19946)" fill="none" stroke="#ccc" stroke-miterlimit="10"/><g clip-path="url(#a)"><path d="M179.75 365.836h-28.762v-92.36a2.399 2.399 0 0 1 2.399-2.398h23.965a2.399 2.399 0 0 1 2.398 2.399zm136.61 0h-28.758V255.484a2.396 2.396 0 0 1 2.394-2.398h23.969a2.398 2.398 0 0 1 2.394 2.398zm136.609 0H424.21V77.965a2.396 2.396 0 0 1 2.394-2.399h23.97a2.396 2.396 0 0 1 2.394 2.399zm136.61 0H560.82V64.77a2.398 2.398 0 0 1 2.395-2.399h23.969a2.396 2.396 0 0 1 2.394 2.399zm0 0" fill="#0b5394"/></g><g clip-path="url(#b)"><path d="M209.707 365.836h-28.758v-82.762a2.393 2.393 0 0 1 2.395-2.398h23.969a2.393 2.393 0 0 1 2.394 2.398zm136.61 0h-28.758v-88.762a2.398 2.398 0 0 1 2.394-2.398h23.969a2.396 2.396 0 0 1 2.394 2.398zm136.613 0h-28.762v-220.7a2.4 2.4 0 0 1 2.398-2.402h23.965a2.4 2.4 0 0 1 2.399 2.403zm136.61 0h-28.763V115.148a2.399 2.399 0 0 1 2.399-2.398h23.965a2.399 2.399 0 0 1 2.398 2.398zm0 0" fill="#3d85c6"/></g><g clip-path="url(#c)"><path d="M239.668 365.836h-28.762v-82.762a2.396 2.396 0 0 1 2.399-2.398h23.965a2.396 2.396 0 0 1 2.398 2.398zm136.61 0h-28.762v-64.77a2.4 2.4 0 0 1 2.398-2.402h23.965a2.4 2.4 0 0 1 2.398 2.402zm136.609 0h-28.762v-218.3a2.396 2.396 0 0 1 2.398-2.4h23.965a2.396 2.396 0 0 1 2.399 2.4zm136.61 0h-28.759v-226.7a2.396 2.396 0 0 1 2.395-2.398h23.969a2.398 2.398 0 0 1 2.394 2.399zm0 0" fill="#6fa8dc"/></g><path d="M34.324 281.129c-.011.789-.3 1.406-.86 1.855-.573.438-1.3.625-2.171.563l-.266-.04a4.141 4.141 0 0 1-1.703-.542c-.523-.313-.914-.688-1.18-1.125a2.69 2.69 0 0 1-.374-1.442c.015-.652.234-1.156.656-1.52.414-.374.976-.581 1.687-.616a4.94 4.94 0 0 1 .766.02l.469.073v4.141c.574.063 1.066-.031 1.48-.281.399-.262.606-.656.617-1.18.012-.625-.27-1.2-.843-1.723l.523-.62c.375.277.676.624.902 1.05.211.414.309.875.297 1.387zm-5.672-.676c-.011.438.137.82.45 1.145.296.324.753.586 1.367.785v-3.09l-.094-.02c-.488-.062-.895.02-1.219.243-.324.214-.492.527-.504.937zm1.535-5.305l-2.304-1.722v-1.293l3.183 2.531 3.145-1.539v1.145l-2.36 1.046 2.36 1.801v1.293l-3.258-2.62-3.07 1.495v-1.16zm4.137-6.015c-.011.789-.3 1.406-.86 1.855-.573.438-1.3.625-2.171.563l-.266-.035a4.145 4.145 0 0 1-1.703-.547c-.523-.309-.914-.684-1.18-1.121a2.712 2.712 0 0 1-.374-1.446c.015-.648.234-1.156.656-1.515.414-.375.976-.582 1.687-.621.25-.012.504-.004.766.02l.469.073v4.145c.574.062 1.066-.031 1.48-.285.399-.262.606-.653.617-1.18.012-.625-.27-1.2-.843-1.723l.523-.617c.375.274.676.625.902 1.047.211.414.309.875.297 1.387zm-5.672-.672c-.011.437.137.816.45 1.14.296.325.753.59 1.367.79v-3.094l-.094-.02c-.488-.062-.895.02-1.219.246-.324.211-.492.524-.504.938zm4.793-5.27a1.55 1.55 0 0 0-.32-1.011 1.541 1.541 0 0 0-.898-.598l-.02-1.012c.402.063.77.223 1.105.489a2.725 2.725 0 0 1 1.012 2.191c0 .523-.129.973-.39 1.348a2.451 2.451 0 0 1-1.125.808c-.489.16-1.032.215-1.63.168l-.28-.039a4.233 4.233 0 0 1-1.63-.523 3.087 3.087 0 0 1-1.124-1.106 2.607 2.607 0 0 1-.375-1.5c.015-.664.238-1.191.675-1.594.426-.398.961-.597 1.61-.597v.992c-.41.012-.742.129-.992.356-.262.21-.399.503-.41.878-.012.563.19 1.028.617 1.387.41.363 1 .59 1.761.676l.149.02c.25.023.504.03.765.019.465-.027.825-.148 1.09-.375.262-.238.399-.563.41-.977zm.149-7.328c.511.489.758 1.121.73 1.895-.011.601-.222 1.05-.636 1.351-.422.286-1 .391-1.723.317l-4.082-.696v-1.046l4.101.675c.176.024.344.028.508.016.285-.023.508-.105.672-.242.148-.149.23-.363.242-.637.028-.75-.281-1.332-.914-1.742l-4.61-.809v-1.047l6.329 1.086v1.012zm-7.246-4.777l1.535.262v-1.141l.844.148v1.145l3.93.652a.872.872 0 0 0 .284 0c.297-.023.45-.183.45-.484 0-.125-.02-.3-.059-.527l.879.093c.078.25.113.508.113.77-.011.426-.168.742-.465.957-.3.2-.707.281-1.218.242l-3.914-.656v1.125l-.844-.149v-1.105l-1.535-.281zm7.863-1.95v1.052l-6.328-1.09v-1.067zm-8.648-.878c0-.176.054-.32.167-.434a.575.575 0 0 1 .45-.187c.187 0 .343.062.468.187a.658.658 0 0 1 .02.902.66.66 0 0 1-.898-.02.633.633 0 0 1-.207-.448zm2.207-3.899c0-.527.144-.976.433-1.351.274-.387.66-.668 1.16-.844a3.42 3.42 0 0 1 1.61-.187l.132.02c.61.073 1.168.257 1.665.542.5.29.894.668 1.18 1.145.277.46.402.968.374 1.515 0 .528-.136.98-.41 1.371a2.496 2.496 0 0 1-1.164.825 3.668 3.668 0 0 1-1.59.187 4.163 4.163 0 0 1-1.777-.527 3.368 3.368 0 0 1-1.219-1.14 2.707 2.707 0 0 1-.394-1.556zm3.39 2.153c.25.039.504.039.766 0 .465-.035.832-.168 1.11-.39.26-.24.398-.56.41-.958a1.777 1.777 0 0 0-.247-.976c-.183-.297-.465-.547-.84-.75a3.71 3.71 0 0 0-1.254-.391 7.345 7.345 0 0 0-.898-.02c-.477.051-.852.192-1.125.43s-.418.559-.43.957c-.011.54.2 1 .637 1.387.438.387 1.016.625 1.742.71zm-3.277-7.926l.789.148c-.625-.562-.926-1.21-.902-1.949.015-.586.222-1.023.62-1.312.4-.286.954-.391 1.665-.317l4.156.692v1.05l-4.172-.695a1.984 1.984 0 0 0-.527 0c-.547.063-.828.383-.84.957-.016.637.328 1.2 1.027 1.688l4.512.785v1.05l-6.328-1.085zm-1.535-9.09l1.535.262v-1.145l.844.153v1.14l3.93.656a.872.872 0 0 0 .284 0c.297-.023.45-.187.45-.484 0-.125-.02-.3-.059-.527l.879.094c.078.25.113.507.113.77-.011.425-.168.741-.465.956-.3.2-.707.281-1.218.242l-3.914-.656v1.125l-.844-.148v-1.106l-1.535-.285zm7.863-1.95v1.048l-6.328-1.086v-1.067zm-8.648-.882c0-.172.054-.316.167-.43a.575.575 0 0 1 .45-.187c.187 0 .343.062.468.187a.667.667 0 0 1 .188.45.642.642 0 0 1-.168.449.604.604 0 0 1-.45.168.675.675 0 0 1-.448-.184.635.635 0 0 1-.207-.453zm2.32-2.453l.695.133c-.562-.54-.832-1.184-.808-1.934 0-.398.09-.734.265-1.012.172-.289.422-.48.746-.582-.699-.597-1.035-1.296-1.011-2.097.015-.637.226-1.106.636-1.406.403-.301.95-.41 1.649-.336l4.156.691v1.07l-4.172-.695a2.287 2.287 0 0 0-.566 0c-.524.078-.79.422-.801 1.031a1.61 1.61 0 0 0 .355 1.07c.246.313.575.512.973.598l4.21.715v1.066l-4.17-.691c-.427-.062-.759 0-.993.188-.238.183-.36.464-.36.84-.023.663.278 1.187.903 1.577l4.62.805v1.067l-6.327-1.106zm6.441-11.453c-.011.789-.3 1.406-.86 1.855-.573.438-1.3.625-2.171.563l-.266-.035a4.145 4.145 0 0 1-1.703-.547c-.523-.309-.914-.684-1.18-1.121a2.712 2.712 0 0 1-.374-1.446c.015-.648.234-1.156.656-1.515.414-.375.976-.582 1.687-.621.25-.012.504-.004.766.02l.469.073v4.145c.574.062 1.066-.031 1.48-.281.399-.266.606-.657.617-1.184.012-.621-.27-1.2-.843-1.723l.523-.617c.375.274.676.625.902 1.047.211.414.309.875.297 1.387zm-5.672-.672c-.011.437.137.816.45 1.14.296.329.753.59 1.367.79v-3.094l-.094-.02c-.488-.062-.895.02-1.219.246-.324.211-.492.524-.504.938zm2.133-5.586a10.87 10.87 0 0 1-2.64-.71c-.86-.352-1.59-.778-2.192-1.278-.598-.512-1.055-1.078-1.363-1.703l.73-.168a6.028 6.028 0 0 0 1.797 1.59c.723.437 1.598.777 2.621 1.015 1.012.234 2.004.348 2.977.336.812 0 1.523-.102 2.133-.3.613-.212 1.101-.52 1.46-.919l.657.262c-.45.664-1.117 1.168-2.004 1.52-.887.335-1.902.484-3.05.449-.376 0-.731-.024-1.067-.074zm3.426-4.14v1.046l-8.984-1.554V200.8zm-6.441-4.782c0-.523.144-.973.433-1.348.274-.386.66-.667 1.16-.843.489-.188 1.024-.25 1.61-.188l.132.02a4.31 4.31 0 0 1 1.665.543c.5.285.894.668 1.18 1.14.277.465.402.97.374 1.52 0 .523-.136.98-.41 1.367a2.467 2.467 0 0 1-1.164.824 3.668 3.668 0 0 1-1.59.188 4.106 4.106 0 0 1-1.777-.524c-.524-.3-.93-.68-1.219-1.144a2.7 2.7 0 0 1-.394-1.555zm3.39 2.156c.25.04.504.04.766 0 .465-.039.832-.168 1.11-.394.26-.238.398-.555.41-.953a1.777 1.777 0 0 0-.247-.977c-.183-.3-.465-.55-.84-.75a3.715 3.715 0 0 0-1.254-.394 7.232 7.232 0 0 0-.898-.016c-.477.047-.852.191-1.125.43-.273.238-.418.554-.43.957-.011.535.2.996.637 1.386.438.387 1.016.622 1.742.711zm1.555-11.507l-4.832-2.024v-1.09l6.328 2.89v.86l-4.793.657 4.793 2.265v.863l-6.328.696v-1.012l4.719-.394-4.72-2.25v-.844zm1.61-5.454c-.013.786-.302 1.407-.86 1.856-.574.437-1.3.625-2.172.562l-.266-.039a4.141 4.141 0 0 1-1.703-.543c-.523-.312-.914-.687-1.18-1.125a2.69 2.69 0 0 1-.374-1.441c.015-.652.234-1.156.656-1.52.414-.375.976-.582 1.687-.617.25-.011.504-.008.766.02l.469.074v4.14c.574.063 1.066-.03 1.48-.28.399-.262.606-.657.617-1.18.012-.625-.27-1.2-.843-1.723l.523-.621c.375.277.676.625.902 1.05.211.41.309.876.297 1.387zm-5.673-.675c-.011.437.137.82.45 1.144.296.324.753.586 1.367.785v-3.09l-.094-.019c-.488-.063-.895.02-1.219.242-.324.215-.492.528-.504.938zm.188-6.524l-.04.508c0 .676.305 1.207.919 1.594l4.492.785v1.05l-6.328-1.085v-1.031l.73.148c-.586-.45-.875-.973-.86-1.574 0-.137.032-.305.095-.504zm5.37-3.203v1.05l-6.327-1.089v-1.066zm-8.648-.879c0-.176.055-.32.168-.433a.575.575 0 0 1 .45-.188c.187 0 .343.063.468.188a.658.658 0 0 1 .02.902.66.66 0 0 1-.898-.02.633.633 0 0 1-.207-.449zm6.93-4.293c-.437-.062-.746.176-.918.711l-.32 1.106c-.324.925-.856 1.375-1.59 1.351-.562-.027-1.02-.277-1.367-.75-.363-.488-.54-1.062-.527-1.726 0-.637.187-1.157.562-1.555.363-.399.836-.594 1.422-.578l-.016 1.066c-.312-.012-.57.086-.77.301-.198.2-.304.473-.316.824 0 .363.094.672.282.938.175.25.406.394.691.43.363.05.625-.176.785-.676l.152-.524c.188-.726.43-1.238.731-1.535.297-.312.672-.457 1.121-.434.398.028.742.157 1.031.395.285.223.512.535.672.937.153.387.219.801.207 1.235 0 .676-.191 1.23-.582 1.668-.387.437-.879.644-1.476.62v-1.05c.347 0 .636-.113.859-.336.215-.226.32-.539.32-.937 0-.387-.082-.72-.246-.993-.172-.289-.41-.453-.707-.488zm-1.426-10.234c.649.09 1.239.27 1.762.543.512.277.899.613 1.16 1.012.25.39.367.828.356 1.312-.024.762-.313 1.332-.86 1.707l.727.207v.973l-8.984-1.555v-1.07l3.351.64c-.562-.5-.832-1.113-.808-1.84.015-.609.238-1.085.675-1.421.426-.352 1.016-.532 1.778-.543.25 0 .496.011.734.035zm-.597 1.012c-.574-.012-1.012.09-1.313.3-.3.2-.46.508-.484.918-.016.664.316 1.227.992 1.688l2.77.469c.636-.239.96-.676.972-1.313a1.446 1.446 0 0 0-.355-1.086c-.262-.312-.625-.55-1.086-.715a4.99 4.99 0 0 0-1.496-.261zm3.855-5.192c-.011.79-.3 1.406-.86 1.856-.573.437-1.3.625-2.171.562l-.266-.035a4.145 4.145 0 0 1-1.703-.547c-.523-.309-.914-.684-1.18-1.121a2.712 2.712 0 0 1-.374-1.445c.015-.649.234-1.157.656-1.516.414-.375.976-.582 1.687-.621.25-.012.504-.004.766.02l.469.074v4.144c.574.063 1.066-.031 1.48-.285.399-.262.606-.652.617-1.18.012-.625-.27-1.199-.843-1.722l.523-.617c.375.273.676.625.902 1.046.211.415.309.875.297 1.387zm-5.672-.672c-.011.438.137.817.45 1.14.296.325.753.59 1.367.79v-3.094l-.094-.02c-.488-.062-.895.02-1.219.247-.324.21-.492.523-.504.937zm-2.304-5.379l1.535.262v-1.144l.844.152v1.14l3.93.657c.1.012.195.012.284 0 .297-.024.45-.188.45-.488 0-.125-.02-.301-.059-.524l.879.094c.078.25.113.504.113.765-.011.426-.168.747-.465.957-.3.204-.707.282-1.218.247l-3.914-.657v1.125l-.844-.152v-1.106l-1.535-.28zm0-3.601l1.535.265v-1.144l.844.148v1.145l3.93.656c.1.012.195.012.284 0 .297-.023.45-.187.45-.488 0-.125-.02-.3-.059-.524l.879.094c.078.25.113.504.113.766-.011.426-.168.746-.465.957-.3.199-.707.281-1.218.246l-3.914-.656v1.125l-.844-.153v-1.105l-1.535-.281zm7.976-3.54c-.011.786-.3 1.407-.86 1.856-.573.438-1.3.625-2.171.563l-.266-.04a4.2 4.2 0 0 1-1.703-.542c-.523-.313-.914-.688-1.18-1.125a2.69 2.69 0 0 1-.374-1.442c.015-.652.234-1.156.656-1.52.414-.374.976-.581 1.687-.616.25-.016.504-.008.766.015l.469.078v4.14c.574.063 1.066-.03 1.48-.28.399-.262.606-.657.617-1.18.012-.625-.27-1.2-.843-1.727l.523-.617c.375.274.676.625.902 1.051.211.41.309.875.297 1.387zm-5.672-.675c-.011.437.137.82.45 1.144.296.325.753.586 1.367.786v-3.094l-.094-.016c-.488-.062-.895.016-1.219.242-.324.211-.492.524-.504.938zm.188-6.523l-.04.507c0 .676.305 1.203.919 1.594l4.492.785v1.051l-6.328-1.09v-1.031l.73.152c-.586-.449-.875-.976-.86-1.574 0-.137.032-.305.095-.508zm1.945-2.68c.95.137 1.848.387 2.7.75.847.351 1.566.781 2.152 1.293.586.5 1.027 1.054 1.328 1.668l-.676.152c-.996-1.34-2.613-2.23-4.848-2.683a13.792 13.792 0 0 0-2.586-.262c-1.671.027-2.867.433-3.593 1.219l-.657-.262a3.749 3.749 0 0 1 1.22-1.106 5.26 5.26 0 0 1 1.76-.675 8.223 8.223 0 0 1 2.08-.188c.37.012.726.04 1.065.074zm45.426 236.781c0 1.262-.219 2.207-.656 2.832-.426.613-1.098.918-2.024.918-.91 0-1.582-.3-2.02-.898-.437-.602-.663-1.5-.675-2.7v-1.445c0-1.262.21-2.191.637-2.789.437-.613 1.117-.922 2.043-.922.921 0 1.597.297 2.02.883.437.586.663 1.492.675 2.719zm-1.086-1.48c0-.922-.133-1.59-.395-2.004-.25-.426-.656-.637-1.214-.637-.551 0-.957.21-1.22.637-.25.41-.374 1.05-.374 1.914v1.742c0 .922.133 1.605.394 2.043.274.437.68.656 1.215.656.54 0 .93-.207 1.18-.62.262-.411.402-1.063.414-1.95zm6.457-1.215l.04.691c.46-.539 1.085-.805 1.87-.805.887 0 1.492.336 1.82 1.012.2-.3.465-.543.801-.73.352-.188.75-.281 1.2-.281 1.398 0 2.109.73 2.136 2.19v4.255h-1.086v-4.176c0-.453-.11-.789-.32-1.016-.2-.222-.543-.336-1.031-.336-.41 0-.746.122-1.008.356-.262.238-.418.562-.469.976v4.196H84.45v-4.156c0-.914-.449-1.372-1.347-1.372-.711 0-1.2.301-1.461.899v4.633h-1.086V363.8zm13.465 4.644a.785.785 0 0 0-.336-.672c-.227-.164-.613-.3-1.16-.414-.54-.125-.969-.27-1.293-.43-.324-.163-.57-.355-.73-.581a1.392 1.392 0 0 1-.227-.805c0-.527.219-.965.656-1.313.45-.363 1.012-.543 1.684-.543.726 0 1.304.188 1.742.563.449.363.676.828.676 1.406h-1.086c0-.3-.125-.558-.375-.77-.25-.21-.57-.32-.957-.32s-.692.09-.914.262a.82.82 0 0 0-.34.676c0 .262.101.46.3.601.211.125.586.25 1.122.372.55.113.996.257 1.332.433.336.164.582.363.73.602.16.234.242.523.242.86 0 .573-.222 1.03-.672 1.366-.449.34-1.039.508-1.761.508-.5 0-.95-.086-1.348-.262a2.4 2.4 0 0 1-.918-.75 1.894 1.894 0 0 1-.316-1.05h1.086c.011.363.156.652.43.863.273.21.628.32 1.066.32.414 0 .742-.082.992-.246.25-.176.375-.398.375-.676zM69.262 286.16h-5.578v-.785l2.941-3.281c.438-.489.734-.887.898-1.2a1.95 1.95 0 0 0 .262-.972c0-.438-.137-.8-.414-1.09-.262-.285-.617-.43-1.066-.43-.535 0-.953.157-1.254.47-.301.3-.45.722-.45 1.273h-1.085c0-.786.25-1.418.75-1.891.511-.488 1.191-.734 2.039-.734.789 0 1.41.207 1.875.62.46.41.691.97.691 1.669 0 .836-.539 1.836-1.61 2.996l-2.265 2.476h4.266zm2.097-4.273l.45-4.254h4.363v.996h-3.445l-.262 2.32a2.834 2.834 0 0 1 1.422-.355c.777 0 1.386.258 1.836.77.465.511.695 1.206.695 2.081 0 .871-.238 1.567-.715 2.078-.473.5-1.133.75-1.984.75-.746 0-1.367-.207-1.852-.617-.476-.426-.742-1.008-.805-1.742h1.028c.062.484.23.856.508 1.106.285.25.66.37 1.12.37.5 0 .895-.167 1.18-.503.29-.348.434-.825.434-1.426 0-.574-.156-1.027-.469-1.367-.3-.348-.71-.524-1.238-.524-.46 0-.828.098-1.102.301l-.28.242zm10.223-2.059l.04.692c.46-.536 1.085-.805 1.87-.805.887 0 1.492.336 1.82 1.012.2-.301.465-.543.801-.73.352-.188.75-.282 1.2-.282 1.398 0 2.109.73 2.136 2.191v4.254h-1.086v-4.176c0-.453-.11-.789-.32-1.015-.2-.223-.543-.336-1.031-.336-.41 0-.746.117-1.008.355-.262.239-.418.563-.469.977v4.195H84.45V282c0-.91-.449-1.367-1.347-1.367-.711 0-1.2.3-1.461.898v4.63h-1.086v-6.333zm13.465 4.649a.787.787 0 0 0-.336-.676c-.227-.164-.613-.301-1.16-.414-.54-.125-.969-.27-1.293-.43-.324-.164-.57-.355-.73-.582a1.392 1.392 0 0 1-.227-.805c0-.523.219-.96.656-1.312.45-.363 1.012-.543 1.684-.543.726 0 1.304.187 1.742.562.449.364.676.832.676 1.407h-1.086c0-.301-.125-.559-.375-.77-.25-.215-.57-.32-.957-.32s-.692.09-.914.265a.808.808 0 0 0-.34.672c0 .266.101.465.3.602.211.125.586.25 1.122.375.55.11.996.254 1.332.43.336.164.582.363.73.601.16.234.242.524.242.86 0 .574-.222 1.03-.672 1.367-.449.34-1.039.507-1.761.507-.5 0-.95-.086-1.348-.261a2.4 2.4 0 0 1-.918-.75 1.894 1.894 0 0 1-.316-1.051h1.086c.011.363.156.652.43.863.273.211.628.317 1.066.317.414 0 .742-.079.992-.243.25-.175.375-.398.375-.671zm-30.875-86.563l.45-4.254h4.358v.996h-3.44l-.267 2.324a2.807 2.807 0 0 1 1.426-.359c.774 0 1.387.258 1.836.77.461.511.692 1.207.692 2.082 0 .875-.239 1.566-.711 2.078-.477.5-1.137.75-1.985.75-.75 0-1.367-.207-1.855-.617-.473-.426-.742-1.004-.805-1.743h1.031c.063.485.23.856.504 1.106.29.25.664.375 1.125.375.5 0 .89-.172 1.18-.508.285-.348.43-.824.43-1.422 0-.578-.157-1.035-.47-1.37-.3-.349-.71-.524-1.234-.524-.464 0-.832.101-1.105.3l-.281.243zm12.039.64c0 1.262-.219 2.204-.656 2.829-.426.613-1.098.918-2.024.918-.91 0-1.582-.301-2.02-.899-.437-.601-.663-1.5-.675-2.699v-1.445c0-1.262.21-2.192.637-2.79.437-.613 1.117-.917 2.043-.917.921 0 1.597.293 2.02.879.437.586.663 1.492.675 2.718zm-1.086-1.48c0-.926-.133-1.594-.395-2.008-.25-.425-.656-.636-1.214-.636-.551 0-.957.21-1.22.636-.25.414-.374 1.051-.374 1.914v1.743c0 .922.133 1.605.394 2.043.274.437.68.656 1.215.656.54 0 .93-.207 1.18-.621.262-.41.402-1.063.414-1.95zm6.457-1.219l.04.692c.46-.535 1.085-.805 1.87-.805.887 0 1.492.336 1.82 1.012.2-.3.465-.543.801-.73.352-.188.75-.282 1.2-.282 1.398 0 2.109.73 2.136 2.192v4.257h-1.086v-4.183c0-.45-.11-.785-.32-1.008-.2-.227-.543-.34-1.031-.34-.41 0-.746.117-1.008.356-.262.238-.418.562-.469.976v4.2H84.45v-4.165c0-.91-.449-1.367-1.347-1.367-.711 0-1.2.3-1.461.899v4.632h-1.086v-6.336zm13.465 4.645a.785.785 0 0 0-.336-.672c-.227-.164-.613-.3-1.16-.414-.54-.125-.969-.266-1.293-.43-.324-.164-.57-.355-.73-.582a1.392 1.392 0 0 1-.227-.804c0-.524.219-.961.656-1.313.45-.363 1.012-.543 1.684-.543.726 0 1.304.188 1.742.563.449.363.676.832.676 1.406h-1.086c0-.3-.125-.559-.375-.77-.25-.21-.57-.32-.957-.32s-.692.09-.914.266a.813.813 0 0 0-.34.672c0 .261.101.464.3.601.211.125.586.25 1.122.375.55.113.996.254 1.332.43.336.164.582.363.73.601.16.239.242.524.242.86 0 .578-.222 1.031-.672 1.367-.449.34-1.039.508-1.761.508-.5 0-.95-.086-1.348-.262a2.4 2.4 0 0 1-.918-.75 1.89 1.89 0 0 1-.316-1.047h1.086c.011.36.156.649.43.86.273.21.628.32 1.066.32.414 0 .742-.082.992-.246.25-.172.375-.399.375-.676zm-25.86-90.21l-3.539 7.929h-1.12l3.5-7.649h-4.606v-.879h5.766zm2.172 3.655l.45-4.254h4.363v.993h-3.445l-.262 2.324c.414-.238.887-.356 1.422-.356.777 0 1.386.254 1.836.766.465.512.695 1.207.695 2.082 0 .875-.238 1.566-.715 2.078-.473.5-1.133.75-1.984.75-.746 0-1.367-.207-1.852-.617-.476-.426-.742-1.004-.805-1.742h1.028c.062.488.23.855.508 1.105.285.25.66.375 1.12.375.5 0 .895-.168 1.18-.508.29-.347.434-.824.434-1.421 0-.575-.156-1.032-.469-1.372-.3-.347-.71-.523-1.238-.523-.46 0-.828.102-1.102.3l-.28.243zm10.223-2.062l.04.691c.46-.535 1.085-.804 1.87-.804.887 0 1.492.335 1.82 1.011.2-.3.465-.543.801-.73.352-.188.75-.281 1.2-.281 1.398 0 2.109.73 2.136 2.19v4.255h-1.086v-4.176c0-.453-.11-.789-.32-1.016-.2-.222-.543-.335-1.031-.335-.41 0-.746.12-1.008.355-.262.238-.418.562-.469.977v4.195H84.45v-4.156c0-.914-.449-1.371-1.347-1.371-.711 0-1.2.3-1.461.898v4.633h-1.086v-6.336zm13.465 4.648a.787.787 0 0 0-.336-.676c-.227-.164-.613-.3-1.16-.414-.54-.12-.969-.265-1.293-.43-.324-.163-.57-.355-.73-.581a1.392 1.392 0 0 1-.227-.805c0-.523.219-.96.656-1.313.45-.363 1.012-.542 1.684-.542.726 0 1.304.187 1.742.562.449.363.676.832.676 1.406h-1.086c0-.3-.125-.554-.375-.77-.25-.21-.57-.316-.957-.316s-.692.086-.914.262a.813.813 0 0 0-.34.672c0 .266.101.465.3.602.211.124.586.25 1.122.374.55.114.996.258 1.332.43.336.164.582.363.73.602.16.238.242.523.242.863 0 .574-.222 1.027-.672 1.367-.449.336-1.039.504-1.761.504-.5 0-.95-.086-1.348-.262a2.4 2.4 0 0 1-.918-.75 1.894 1.894 0 0 1-.316-1.05h1.086c.011.363.156.652.43.867.273.21.628.316 1.066.316.414 0 .742-.082.992-.242.25-.176.375-.402.375-.676zM60.05 34.246h-1.086v-7.219l-2.192.79v-.977l3.11-1.16h.168zm8.969-3.637c0 1.262-.22 2.203-.657 2.832-.422.61-1.097.914-2.02.914-.913 0-1.585-.296-2.023-.898-.437-.598-.66-1.5-.675-2.7v-1.44c0-1.262.214-2.196.64-2.794.434-.613 1.117-.918 2.04-.918.921 0 1.597.293 2.023.88.433.585.66 1.492.672 2.718zm-1.086-1.48c0-.926-.13-1.594-.395-2.004-.246-.426-.652-.64-1.215-.64-.55 0-.957.214-1.219.64-.25.41-.37 1.047-.37 1.91v1.742c0 .926.128 1.606.39 2.043.277.438.68.657 1.219.657.535 0 .93-.207 1.18-.618.261-.414.398-1.062.41-1.949zm8.277 1.48c0 1.262-.219 2.203-.656 2.832-.426.61-1.098.914-2.024.914-.91 0-1.582-.296-2.02-.898-.437-.598-.663-1.5-.675-2.7v-1.44c0-1.262.21-2.196.637-2.794.437-.613 1.117-.918 2.043-.918.921 0 1.597.293 2.02.88.437.585.663 1.492.675 2.718zm-1.086-1.48c0-.926-.133-1.594-.395-2.004-.25-.426-.656-.64-1.214-.64-.551 0-.957.214-1.22.64-.25.41-.374 1.047-.374 1.91v1.742c0 .926.133 1.606.394 2.043.274.438.68.657 1.215.657.54 0 .93-.207 1.18-.618.262-.414.402-1.062.414-1.949zm6.457-1.219l.04.695c.46-.539 1.085-.808 1.87-.808.887 0 1.492.34 1.82 1.012.2-.297.465-.543.801-.73.352-.188.75-.282 1.2-.282 1.398 0 2.109.73 2.136 2.191v4.258h-1.086v-4.18c0-.449-.11-.789-.32-1.011-.2-.227-.543-.34-1.031-.34-.41 0-.746.12-1.008.36-.262.234-.418.558-.469.972v4.2H84.45v-4.165c0-.91-.449-1.367-1.347-1.367-.711 0-1.2.3-1.461.902v4.63h-1.086V27.91zm13.465 4.649a.792.792 0 0 0-.336-.676c-.227-.164-.613-.301-1.16-.41-.54-.125-.969-.27-1.293-.434-.324-.16-.57-.355-.73-.578a1.414 1.414 0 0 1-.227-.809c0-.523.219-.96.656-1.312.45-.36 1.012-.543 1.684-.543.726 0 1.304.187 1.742.562.449.364.676.832.676 1.407h-1.086c0-.301-.125-.555-.375-.77-.25-.21-.57-.316-.957-.316s-.692.086-.914.261a.815.815 0 0 0-.34.676c0 .262.101.461.3.598.211.125.586.25 1.122.375.55.113.996.258 1.332.433.336.16.582.36.73.598.16.238.242.524.242.863 0 .575-.222 1.028-.672 1.368-.449.336-1.039.503-1.761.503-.5 0-.95-.085-1.348-.261a2.4 2.4 0 0 1-.918-.75 1.881 1.881 0 0 1-.316-1.047h1.086c.011.36.156.648.43.86.273.214.628.32 1.066.32.414 0 .742-.082.992-.247.25-.171.375-.398.375-.671zm0 0" fill="#b7b7b7"/><path d="M140.281 383.664c0-1.176.274-2.11.824-2.809.547-.714 1.274-1.07 2.172-1.07.887 0 1.59.3 2.114.902v-3.957h1.293v10.797h-1.2l-.054-.824c-.524.649-1.25.973-2.172.973-.875 0-1.594-.363-2.153-1.086-.55-.727-.828-1.668-.828-2.832zm1.293.152c0 .86.172 1.536.524 2.024.359.488.851.73 1.476.73.824 0 1.43-.375 1.817-1.125v-3.484c-.387-.711-.985-1.07-1.797-1.07-.637 0-1.137.246-1.496.73-.352.488-.524 1.219-.524 2.195zm7.055-.171c0-.735.144-1.403.434-2.004.3-.598.71-1.055 1.234-1.368a3.31 3.31 0 0 1 1.777-.488c1.04 0 1.875.356 2.512 1.067.648.714.973 1.668.973 2.87v.094c0 .735-.145 1.399-.43 1.985a3.37 3.37 0 0 1-1.219 1.387c-.523.324-1.129.488-1.816.488-1.024 0-1.86-.356-2.508-1.067-.637-.726-.957-1.683-.957-2.867zm1.312.168c0 .84.196 1.515.579 2.027.402.512.925.765 1.574.765.664 0 1.187-.253 1.574-.765.387-.527.582-1.258.582-2.195 0-.825-.203-1.493-.602-2.004-.386-.524-.91-.786-1.574-.786-.637 0-1.152.254-1.554.766-.383.5-.579 1.23-.579 2.195zm9.98-1.122l1.684-2.773h1.52l-2.492 3.766 2.566 3.843h-1.5l-1.758-2.851-1.761 2.851h-1.516l2.566-3.843-2.472-3.766h1.496zm11.067 1.125c0 1.16-.27 2.098-.804 2.809-.528.7-1.239 1.05-2.137 1.05-.961 0-1.703-.343-2.227-1.03l-.074.882h-1.18V376.73h1.29v4.032c.527-.653 1.25-.977 2.171-.977.926 0 1.649.352 2.172 1.05.528.688.79 1.642.79 2.868zm-1.293-.152c0-.887-.175-1.566-.523-2.043-.34-.488-.824-.73-1.461-.73-.863 0-1.48.394-1.856 1.18v3.3c.403.797 1.02 1.2 1.856 1.2.625 0 1.11-.247 1.46-.731.349-.488.524-1.215.524-2.176zm6.403 4.012c-1.036 0-1.88-.336-2.528-1.012-.636-.687-.953-1.601-.953-2.738v-.223c0-.762.145-1.437.43-2.023.289-.602.687-1.063 1.2-1.387a3.037 3.037 0 0 1 1.683-.508c.988 0 1.754.324 2.304.977.547.648.825 1.578.825 2.793v.543h-5.153c.028.746.246 1.355.656 1.816.426.461.961.695 1.614.695.449 0 .828-.093 1.14-.285.325-.183.61-.433.86-.746l.789.617c-.637.989-1.594 1.48-2.863 1.48zm-.168-6.82c-.524 0-.97.19-1.328.578-.352.375-.563.906-.637 1.593h3.8v-.093c-.038-.66-.218-1.176-.542-1.536-.313-.363-.743-.543-1.293-.543zm7.36 6.82c-1.036 0-1.88-.336-2.528-1.012-.637-.687-.957-1.601-.957-2.738v-.223c0-.762.144-1.437.433-2.023.285-.602.688-1.063 1.2-1.387a3.028 3.028 0 0 1 1.683-.508c.984 0 1.754.324 2.3.977.552.648.825 1.578.825 2.793v.543h-5.148c.023.746.242 1.355.656 1.816.426.461.96.695 1.61.695.448 0 .831-.093 1.144-.285.324-.183.61-.433.86-.746l.784.617c-.636.989-1.59 1.48-2.863 1.48zm-.169-6.82c-.523 0-.969.19-1.332.578-.348.375-.559.906-.633 1.593h3.801v-.093c-.039-.66-.219-1.176-.543-1.536-.312-.363-.746-.543-1.293-.543zm14.211 2.96c0 1.149-.262 2.079-.785 2.793-.527.711-1.242 1.067-2.156 1.067-.922 0-1.649-.293-2.172-.88v3.653h-1.29v-10.531h1.176l.06.844c.534-.653 1.273-.977 2.21-.977.91 0 1.625.344 2.152 1.031.536.688.805 1.645.805 2.868zm-1.293-.152c0-.86-.187-1.535-.562-2.023-.36-.5-.86-.75-1.497-.75-.785 0-1.375.343-1.761 1.03v3.638c.386.699.98 1.05 1.781 1.05.621 0 1.117-.246 1.477-.734.375-.5.562-1.234.562-2.21zm6.95-2.586a5.51 5.51 0 0 0-.641-.035c-.86 0-1.442.36-1.739 1.086v5.398h-1.293v-7.609h1.254l.02.879c.422-.676 1.027-1.012 1.816-1.012.25 0 .442.031.582.094zm.765 2.567c0-.735.144-1.403.43-2.004.3-.598.71-1.055 1.234-1.368a3.334 3.334 0 0 1 1.781-.488c1.035 0 1.871.356 2.508 1.067.652.714.977 1.668.977 2.87v.094c0 .735-.145 1.399-.434 1.985a3.334 3.334 0 0 1-1.215 1.387c-.523.324-1.129.488-1.816.488-1.024 0-1.86-.356-2.512-1.067-.637-.726-.953-1.683-.953-2.867zm1.312.168c0 .84.192 1.515.579 2.027.398.512.925.765 1.574.765.66 0 1.183-.253 1.57-.765.39-.527.582-1.258.582-2.195 0-.825-.2-1.493-.598-2.004-.386-.524-.914-.786-1.574-.786-.637 0-1.156.254-1.554.766-.387.5-.579 1.23-.579 2.195zm8.649-3.895l.039.844c.547-.653 1.297-.977 2.246-.977 1.059 0 1.785.406 2.172 1.219.25-.363.574-.656.973-.883.414-.223.894-.336 1.44-.336 1.673 0 2.524.883 2.548 2.64v5.102h-1.293v-5.023c0-.54-.125-.938-.375-1.2-.246-.277-.664-.413-1.25-.413-.488 0-.895.144-1.219.433-.312.285-.492.672-.543 1.16v5.043h-1.293v-4.988c0-1.098-.543-1.648-1.629-1.648-.847 0-1.43.363-1.742 1.086v5.55h-1.309v-7.609zm13.37 7.61h-1.292v-7.61h1.293zm-1.405-9.618c0-.21.062-.39.187-.543.137-.148.332-.222.582-.222.246 0 .434.074.563.222a.8.8 0 0 1 .203.543c0 .203-.07.375-.207.527-.125.137-.313.204-.559.204-.25 0-.445-.067-.582-.204a.8.8 0 0 1-.187-.527zm8.015 7.59c0-.348-.136-.617-.414-.805-.261-.199-.722-.367-1.383-.504-.652-.14-1.168-.308-1.554-.507-.39-.2-.676-.43-.864-.692a1.781 1.781 0 0 1-.261-.976c0-.625.261-1.149.785-1.575.527-.437 1.2-.656 2.023-.656.86 0 1.555.227 2.078.676.536.437.805 1 .805 1.687h-1.293c0-.351-.152-.652-.465-.902-.3-.262-.675-.39-1.125-.39-.472 0-.847.105-1.125.316a.94.94 0 0 0-.39.789c0 .312.125.547.375.71.246.165.695.321 1.347.47.649.136 1.172.304 1.57.504.4.203.696.445.883.734.2.285.297.629.297 1.031 0 .688-.273 1.235-.824 1.649-.535.41-1.234.617-2.097.617-.61 0-1.153-.106-1.63-.317a2.728 2.728 0 0 1-1.081-.921 2.167 2.167 0 0 1-.395-1.254h1.293c.023.437.2.785.523 1.046.325.254.754.38 1.29.38.488 0 .882-.102 1.183-.301.297-.2.45-.47.45-.809zm5.914 2.176c-1.035 0-1.879-.336-2.527-1.012-.637-.687-.953-1.601-.953-2.738v-.223c0-.762.144-1.437.43-2.023.289-.602.687-1.063 1.199-1.387a3.037 3.037 0 0 1 1.683-.508c.989 0 1.754.324 2.305.977.547.648.824 1.578.824 2.793v.543h-5.152c.027.746.246 1.355.656 1.816.426.461.961.695 1.613.695.45 0 .829-.093 1.141-.285.324-.183.61-.433.86-.746l.789.617c-.637.989-1.594 1.48-2.864 1.48zm-.168-6.82c-.523 0-.968.19-1.328.578-.351.375-.562.906-.636 1.593h3.8v-.093c-.039-.66-.218-1.176-.543-1.536-.312-.363-.742-.543-1.293-.543zm8.633 4.644c0-.348-.137-.617-.414-.805-.262-.199-.722-.367-1.383-.504-.648-.14-1.168-.308-1.554-.507-.387-.2-.676-.43-.864-.692a1.815 1.815 0 0 1-.261-.976c0-.625.261-1.149.785-1.575.527-.437 1.199-.656 2.023-.656.864 0 1.555.227 2.078.676.54.437.805 1 .805 1.687H248c0-.351-.156-.652-.469-.902-.3-.262-.676-.39-1.125-.39-.472 0-.847.105-1.12.316a.934.934 0 0 0-.395.789c0 .312.125.547.375.71.25.165.699.321 1.347.47.649.136 1.172.304 1.575.504.398.203.69.445.878.734.2.285.301.629.301 1.031 0 .688-.277 1.235-.824 1.649-.54.41-1.238.617-2.098.617-.613 0-1.156-.106-1.629-.317a2.74 2.74 0 0 1-1.086-.921 2.196 2.196 0 0 1-.394-1.254h1.293c.023.437.2.785.523 1.046.325.254.754.38 1.293.38.489 0 .88-.102 1.18-.301.3-.2.45-.47.45-.809zm39.602-1.836c0-1.176.273-2.11.824-2.809.547-.714 1.273-1.07 2.172-1.07.887 0 1.59.3 2.113.902v-3.957h1.293v10.797h-1.2l-.054-.824c-.523.649-1.25.973-2.172.973-.875 0-1.593-.363-2.152-1.086-.55-.727-.824-1.668-.824-2.832zm1.293.152c0 .86.172 1.536.523 2.024.36.488.856.73 1.48.73.821 0 1.426-.375 1.813-1.125v-3.484c-.387-.711-.984-1.07-1.797-1.07-.636 0-1.136.246-1.496.73-.351.488-.523 1.219-.523 2.195zm7.058-.171c0-.735.141-1.403.43-2.004.3-.598.711-1.055 1.234-1.368a3.31 3.31 0 0 1 1.778-.488c1.039 0 1.875.356 2.511 1.067.649.714.973 1.668.973 2.87v.094c0 .735-.144 1.399-.43 1.985a3.37 3.37 0 0 1-1.218 1.387c-.524.324-1.13.488-1.817.488-1.023 0-1.86-.356-2.508-1.067-.636-.726-.953-1.683-.953-2.867zm1.309.168c0 .84.195 1.515.582 2.027.398.512.922.765 1.57.765.664 0 1.188-.253 1.575-.765.386-.527.582-1.258.582-2.195 0-.825-.2-1.493-.602-2.004-.387-.524-.91-.786-1.574-.786-.637 0-1.153.254-1.551.766-.387.5-.582 1.23-.582 2.195zm9.98-1.122l1.684-2.773h1.52l-2.493 3.766 2.567 3.843h-1.5l-1.758-2.851-1.762 2.851h-1.515l2.566-3.843-2.473-3.766h1.496zm11.067 1.125c0 1.16-.27 2.098-.805 2.809-.527.7-1.238 1.05-2.137 1.05-.96 0-1.703-.343-2.226-1.03l-.074.882h-1.18V376.73h1.289v4.032c.527-.653 1.25-.977 2.176-.977.922 0 1.644.352 2.168 1.05.527.688.789 1.642.789 2.868zm-1.293-.152c0-.887-.176-1.566-.524-2.043-.336-.488-.824-.73-1.46-.73-.86 0-1.481.394-1.856 1.18v3.3c.402.797 1.02 1.2 1.855 1.2.625 0 1.11-.247 1.461-.731.348-.488.524-1.215.524-2.176zm6.402 4.012c-1.035 0-1.879-.336-2.527-1.012-.637-.687-.953-1.601-.953-2.738v-.223c0-.762.144-1.437.43-2.023.288-.602.687-1.063 1.199-1.387a3.037 3.037 0 0 1 1.683-.508c.988 0 1.754.324 2.305.977.547.648.824 1.578.824 2.793v.543h-5.148c.023.746.242 1.355.652 1.816.426.461.961.695 1.613.695.45 0 .828-.093 1.14-.285.325-.183.614-.433.864-.746l.785.617c-.636.989-1.593 1.48-2.863 1.48zm-.168-6.82a1.75 1.75 0 0 0-1.328.578c-.348.375-.562.906-.637 1.593h3.801v-.093c-.039-.66-.219-1.176-.543-1.536-.312-.363-.742-.543-1.293-.543zm7.36 6.82c-1.036 0-1.88-.336-2.528-1.012-.636-.687-.953-1.601-.953-2.738v-.223c0-.762.14-1.437.43-2.023.285-.602.687-1.063 1.199-1.387a3.037 3.037 0 0 1 1.684-.508c.984 0 1.754.324 2.3.977.551.648.825 1.578.825 2.793v.543h-5.149c.028.746.246 1.355.656 1.816.426.461.961.695 1.61.695.449 0 .832-.093 1.144-.285.325-.183.61-.433.86-.746l.789.617c-.637.989-1.594 1.48-2.867 1.48zm-.168-6.82c-.524 0-.97.19-1.329.578-.351.375-.562.906-.636 1.593h3.8v-.093c-.038-.66-.218-1.176-.542-1.536-.313-.363-.747-.543-1.293-.543zm12.488 6.671c-.074-.152-.137-.422-.188-.808-.597.636-1.316.957-2.152.957-.75 0-1.367-.211-1.855-.637-.473-.426-.711-.969-.711-1.629 0-.789.3-1.402.898-1.84.602-.437 1.45-.656 2.547-.656h1.254v-.598c0-.449-.137-.808-.41-1.07-.262-.273-.66-.41-1.2-.41-.46 0-.847.117-1.16.355-.312.223-.468.504-.468.844h-1.309c0-.387.129-.758.39-1.105a2.774 2.774 0 0 1 1.106-.825 3.55 3.55 0 0 1 1.516-.32c.886 0 1.574.219 2.062.656.496.438.758 1.04.785 1.801v3.504c0 .7.086 1.254.262 1.668v.113zm-2.152-.996c.41 0 .796-.105 1.16-.316.363-.215.625-.488.785-.824v-1.559h-1.008c-1.598 0-2.398.469-2.398 1.406 0 .403.136.719.414.957.273.227.62.336 1.047.336zm10.277-1.031c0-.348-.137-.617-.41-.805-.262-.199-.723-.367-1.387-.504-.648-.14-1.168-.308-1.555-.507-.386-.2-.672-.43-.859-.692a1.781 1.781 0 0 1-.262-.976c0-.625.262-1.149.785-1.575.524-.437 1.2-.656 2.024-.656.86 0 1.555.227 2.078.676.535.437.805 1 .805 1.687h-1.293c0-.351-.157-.652-.465-.902-.3-.262-.676-.39-1.125-.39-.477 0-.852.105-1.125.316a.944.944 0 0 0-.395.789c0 .312.125.547.375.71.25.165.7.321 1.352.47.648.136 1.172.304 1.57.504.399.203.692.445.883.734.2.285.297.629.297 1.031 0 .688-.274 1.235-.824 1.649-.536.41-1.235.617-2.098.617-.61 0-1.152-.106-1.629-.317a2.767 2.767 0 0 1-1.086-.921 2.192 2.192 0 0 1-.39-1.254h1.293c.023.437.195.785.523 1.046.324.254.754.38 1.289.38.488 0 .883-.102 1.18-.301.3-.2.449-.47.449-.809zm5.246.113l1.777-5.695h1.387l-3.055 8.789c-.472 1.262-1.222 1.895-2.246 1.895l-.261-.02-.47-.094v-1.05l.337.019c.449 0 .793-.09 1.031-.262.25-.175.457-.5.617-.976l.281-.785-2.714-7.516h1.425zm5.934-5.695l.039.953c.586-.723 1.347-1.086 2.28-1.086 1.614 0 2.423.906 2.435 2.719v5.023h-1.31v-5.043c0-.539-.124-.937-.374-1.199-.238-.262-.617-.394-1.14-.394-.426 0-.801.113-1.126.336a2.31 2.31 0 0 0-.73.882v5.418h-1.293v-7.609zm10.203 6.691c.465 0 .87-.14 1.218-.414.352-.289.543-.644.579-1.066h1.238a2.399 2.399 0 0 1-.469 1.254 3.017 3.017 0 0 1-1.105.937c-.45.235-.934.356-1.461.356-1.035 0-1.86-.344-2.469-1.031-.602-.7-.898-1.649-.898-2.848v-.227c0-.734.128-1.39.39-1.965.277-.578.664-1.02 1.16-1.332.512-.324 1.118-.488 1.817-.488.851 0 1.554.258 2.117.77.574.5.879 1.16.918 1.984h-1.238c-.036-.5-.223-.906-.559-1.219a1.77 1.77 0 0 0-1.238-.465c-.66 0-1.172.235-1.532.711-.363.473-.546 1.16-.546 2.063v.242c0 .875.183 1.55.543 2.024.363.476.875.714 1.535.714zm47.11-2.793c0 1.149-.263 2.079-.786 2.793-.524.711-1.242 1.067-2.152 1.067-.926 0-1.649-.293-2.172-.88v3.653h-1.293v-10.531h1.18l.054.844c.54-.653 1.274-.977 2.211-.977.91 0 1.629.344 2.152 1.031.54.688.805 1.645.805 2.868zm-1.29-.152c0-.86-.187-1.535-.562-2.023-.364-.5-.864-.75-1.5-.75-.786 0-1.372.343-1.758 1.03v3.638c.386.699.98 1.05 1.777 1.05.625 0 1.117-.246 1.48-.734.376-.5.563-1.234.563-2.21zm7.957 3.863c-.074-.152-.137-.422-.187-.808-.602.636-1.317.957-2.153.957-.75 0-1.367-.211-1.855-.637-.473-.426-.711-.969-.711-1.629 0-.789.3-1.402.898-1.84.602-.437 1.45-.656 2.547-.656h1.254v-.598c0-.449-.137-.808-.41-1.07-.262-.273-.664-.41-1.2-.41-.46 0-.847.117-1.16.355-.312.223-.468.504-.468.844h-1.313c0-.387.133-.758.395-1.105.273-.352.644-.625 1.105-.825.461-.214.965-.32 1.516-.32.887 0 1.574.219 2.058.656.5.438.762 1.04.79 1.801v3.504c0 .7.085 1.254.261 1.668v.113zm-2.152-.996c.41 0 .797-.105 1.16-.316a1.96 1.96 0 0 0 .785-.824v-1.559h-1.012c-1.597 0-2.394.469-2.394 1.406 0 .403.137.719.41.957.273.227.625.336 1.05.336zm9.531-5.453a5.56 5.56 0 0 0-.64-.035c-.86 0-1.442.36-1.739 1.086v5.398h-1.293v-7.609h1.254l.02.879c.421-.676 1.027-1.012 1.816-1.012.25 0 .441.031.582.094zm5.8 6.45c-.073-.153-.136-.423-.187-.81-.597.637-1.316.958-2.152.958-.75 0-1.367-.211-1.852-.637-.476-.426-.71-.969-.71-1.629 0-.789.296-1.402.898-1.84.598-.437 1.445-.656 2.547-.656h1.25v-.598c0-.449-.137-.808-.41-1.07-.262-.273-.66-.41-1.2-.41-.46 0-.847.117-1.16.355-.312.223-.465.504-.465.844h-1.312c0-.387.129-.758.394-1.105.274-.352.641-.625 1.102-.825.465-.214.969-.32 1.516-.32.886 0 1.574.219 2.062.656.5.438.762 1.04.785 1.801v3.504c0 .7.086 1.254.262 1.668v.113zm-2.152-.997a2.25 2.25 0 0 0 1.16-.316c.364-.215.626-.488.786-.824v-1.559h-1.008c-1.598 0-2.399.469-2.399 1.406 0 .403.137.719.415.957.273.227.62.336 1.046.336zm7.266.996h-1.293V376.73h1.293zm3.594 0h-1.29V376.73h1.29zm5.336.149c-1.035 0-1.88-.336-2.528-1.012-.636-.687-.953-1.601-.953-2.738v-.223c0-.762.145-1.437.43-2.023.289-.602.687-1.063 1.2-1.387a3.037 3.037 0 0 1 1.683-.508c.988 0 1.754.324 2.304.977.547.648.825 1.578.825 2.793v.543h-5.149c.024.746.242 1.355.653 1.816.425.461.96.695 1.613.695.45 0 .828-.093 1.14-.285.325-.183.614-.433.864-.746l.785.617c-.637.989-1.594 1.48-2.863 1.48zm-.168-6.82c-.524 0-.969.19-1.328.578-.352.375-.563.906-.637 1.593h3.8v-.093c-.038-.66-.218-1.176-.542-1.536-.313-.363-.742-.543-1.293-.543zm5.617 6.671h-1.293V376.73h1.293zm12.191-3.71c0 1.148-.261 2.078-.789 2.792-.523.711-1.242 1.067-2.152 1.067-.922 0-1.649-.293-2.172-.88v3.653h-1.293v-10.531h1.18l.058.844c.536-.653 1.274-.977 2.207-.977.91 0 1.63.344 2.157 1.031.535.688.804 1.645.804 2.868zm-1.293-.153c0-.86-.187-1.535-.562-2.023-.363-.5-.86-.75-1.496-.75-.79 0-1.375.343-1.762 1.03v3.638c.387.699.98 1.05 1.781 1.05.621 0 1.114-.246 1.477-.734.375-.5.562-1.234.562-2.21zm6.946-2.586c-.2-.023-.41-.035-.637-.035-.86 0-1.441.36-1.742 1.086v5.398h-1.29v-7.609h1.255l.02.879c.421-.676 1.026-1.012 1.816-1.012.25 0 .441.031.578.094zm.77 2.567c0-.735.14-1.403.429-2.004.3-.598.71-1.055 1.234-1.368a3.314 3.314 0 0 1 1.782-.488c1.035 0 1.87.356 2.507 1.067.649.714.973 1.668.973 2.87v.094c0 .735-.14 1.399-.43 1.985a3.363 3.363 0 0 1-1.215 1.387c-.527.324-1.132.488-1.816.488-1.023 0-1.863-.356-2.512-1.067-.636-.726-.953-1.683-.953-2.867zm1.308.168c0 .84.195 1.515.582 2.027.398.512.922.765 1.574.765.66 0 1.184-.253 1.57-.765.387-.527.582-1.258.582-2.195 0-.825-.199-1.493-.601-2.004-.387-.524-.91-.786-1.57-.786-.637 0-1.157.254-1.555.766-.387.5-.582 1.23-.582 2.195zm8.652-3.895l.035.844c.551-.653 1.301-.977 2.25-.977 1.059 0 1.785.406 2.172 1.219.25-.363.574-.656.973-.883.41-.223.89-.336 1.441-.336 1.672 0 2.52.883 2.547 2.64v5.102h-1.293v-5.023c0-.54-.125-.938-.375-1.2-.25-.277-.668-.413-1.254-.413-.488 0-.89.144-1.215.433-.312.285-.496.672-.543 1.16v5.043h-1.293v-4.988c0-1.098-.543-1.648-1.628-1.648-.852 0-1.43.363-1.743 1.086v5.55h-1.312v-7.609zm13.367 7.61h-1.289v-7.61h1.29zm-1.402-9.614c0-.215.063-.394.188-.543.136-.152.328-.226.578-.226.25 0 .437.074.562.226a.772.772 0 0 1 .207.543c0 .2-.07.375-.207.524-.125.136-.312.207-.562.207-.25 0-.442-.07-.579-.207a.79.79 0 0 1-.187-.524zm8.012 7.59c0-.352-.137-.621-.41-.809-.262-.199-.723-.367-1.387-.504-.649-.136-1.168-.308-1.555-.507-.387-.2-.672-.43-.86-.692a1.781 1.781 0 0 1-.26-.976c0-.625.26-1.149.784-1.575.524-.437 1.2-.656 2.024-.656.859 0 1.55.227 2.078.676.535.437.804 1 .804 1.687h-1.293c0-.351-.156-.648-.468-.898-.297-.262-.672-.395-1.121-.395-.477 0-.852.106-1.125.317a.949.949 0 0 0-.395.789c0 .312.125.55.375.71.25.165.7.321 1.348.47.652.136 1.176.308 1.574.507.398.2.691.442.879.73.203.29.3.63.3 1.032 0 .688-.273 1.238-.824 1.649-.535.41-1.234.617-2.097.617-.61 0-1.153-.106-1.63-.317a2.731 2.731 0 0 1-1.085-.918 2.208 2.208 0 0 1-.395-1.257h1.293c.028.437.2.789.528 1.05.324.25.754.375 1.289.375.488 0 .883-.101 1.18-.3.3-.2.449-.47.449-.805zm5.918 2.172c-1.035 0-1.88-.336-2.528-1.012-.636-.687-.957-1.598-.957-2.734v-.227c0-.762.145-1.437.434-2.023.285-.602.687-1.063 1.2-1.387a3.069 3.069 0 0 1 1.683-.508c.984 0 1.754.328 2.3.977.551.648.825 1.578.825 2.793v.543h-5.149c.028.75.242 1.355.657 1.816.425.465.96.695 1.609.695.45 0 .832-.093 1.144-.28a3.06 3.06 0 0 0 .86-.75l.785.616c-.637.989-1.59 1.48-2.863 1.48zm-.168-6.82c-.524 0-.969.19-1.332.582-.348.375-.559.902-.633 1.59h3.8v-.094c-.038-.66-.218-1.172-.542-1.536-.313-.363-.746-.543-1.293-.543zm8.633 4.648c0-.352-.137-.621-.415-.809-.261-.199-.722-.367-1.382-.504-.653-.136-1.168-.308-1.555-.507-.39-.2-.676-.43-.863-.692a1.781 1.781 0 0 1-.262-.976c0-.625.262-1.149.785-1.575.527-.437 1.2-.656 2.024-.656.859 0 1.554.227 2.078.676.535.437.804 1 .804 1.687h-1.293c0-.351-.156-.648-.464-.898-.301-.262-.676-.395-1.125-.395-.477 0-.848.106-1.125.317a.945.945 0 0 0-.391.789c0 .312.125.55.375.71.246.165.695.321 1.348.47.648.136 1.171.308 1.57.507.398.2.695.442.883.73.199.29.297.63.297 1.032 0 .688-.274 1.238-.825 1.649-.535.41-1.234.617-2.097.617-.61 0-1.153-.106-1.63-.317a2.72 2.72 0 0 1-1.081-.918 2.18 2.18 0 0 1-.395-1.257h1.293c.024.437.2.789.524 1.05.324.25.754.375 1.289.375.488 0 .883-.101 1.183-.3.297-.2.45-.47.45-.805zm45.125-1.688c0 1.149-.266 2.079-.79 2.793-.523.711-1.242 1.067-2.152 1.067-.922 0-1.648-.293-2.172-.88v3.653h-1.293v-10.531h1.18l.055.844c.539-.653 1.273-.977 2.21-.977.91 0 1.63.344 2.153 1.031.539.688.809 1.645.809 2.868zm-1.293-.152c0-.86-.188-1.535-.563-2.023-.363-.5-.86-.75-1.496-.75-.79 0-1.375.343-1.762 1.03v3.638c.387.699.98 1.05 1.778 1.05.625 0 1.117-.246 1.48-.734.375-.5.563-1.234.563-2.21zm7.957 3.863c-.075-.152-.137-.422-.188-.808-.598.636-1.316.957-2.152.957-.75 0-1.367-.211-1.856-.637-.472-.426-.71-.969-.71-1.629 0-.789.3-1.402.898-1.84.601-.437 1.449-.656 2.547-.656h1.254v-.598c0-.449-.137-.808-.41-1.07-.262-.273-.665-.41-1.2-.41-.46 0-.847.117-1.16.355-.312.223-.469.504-.469.844h-1.308c0-.387.129-.758.39-1.105a2.774 2.774 0 0 1 1.106-.825 3.55 3.55 0 0 1 1.515-.32c.887 0 1.575.219 2.059.656.5.438.762 1.04.79 1.801v3.504c0 .7.085 1.254.26 1.668v.113zm-2.153-.996c.41 0 .797-.105 1.16-.316.36-.215.625-.488.786-.824v-1.559h-1.012c-1.598 0-2.395.469-2.395 1.406 0 .403.137.719.41.957.278.227.625.336 1.051.336zm9.532-5.453a5.56 5.56 0 0 0-.641-.035c-.86 0-1.442.36-1.738 1.086v5.398h-1.293v-7.609h1.254l.02.879c.42-.676 1.026-1.012 1.815-1.012.25 0 .442.031.582.094zm5.8 6.45c-.074-.153-.136-.423-.187-.81-.598.637-1.317.958-2.153.958-.746 0-1.367-.211-1.851-.637-.477-.426-.711-.969-.711-1.629 0-.789.297-1.402.898-1.84.598-.437 1.446-.656 2.547-.656h1.254v-.598c0-.449-.14-.808-.414-1.07-.262-.273-.66-.41-1.195-.41-.465 0-.852.117-1.164.355-.309.223-.465.504-.465.844h-1.313c0-.387.133-.758.395-1.105.273-.352.64-.625 1.105-.825.461-.214.965-.32 1.516-.32.887 0 1.57.219 2.059.656.5.438.761 1.04.785 1.801v3.504c0 .7.09 1.254.261 1.668v.113zm-2.152-.997c.414 0 .8-.105 1.16-.316.363-.215.625-.488.79-.824v-1.559h-1.013c-1.597 0-2.398.469-2.398 1.406 0 .403.14.719.414.957.274.227.625.336 1.047.336zm7.266.996h-1.293V376.73h1.293zm3.593 0h-1.289V376.73h1.29zm5.336.149c-1.035 0-1.879-.336-2.527-1.012-.637-.687-.953-1.601-.953-2.738v-.223c0-.762.144-1.437.43-2.023.289-.602.687-1.063 1.199-1.387a3.037 3.037 0 0 1 1.683-.508c.989 0 1.754.324 2.305.977.547.648.824 1.578.824 2.793v.543h-5.148c.023.746.242 1.355.652 1.816.426.461.961.695 1.613.695.45 0 .828-.093 1.141-.285.324-.183.613-.433.863-.746l.785.617c-.636.989-1.59 1.48-2.863 1.48zm-.168-6.82a1.75 1.75 0 0 0-1.328.578c-.347.375-.562.906-.637 1.593h3.801v-.093c-.035-.66-.219-1.176-.543-1.536-.312-.363-.742-.543-1.293-.543zm5.617 6.671h-1.289V376.73h1.29zm10.47 0c-.075-.152-.138-.422-.188-.808-.602.636-1.317.957-2.153.957-.75 0-1.367-.211-1.855-.637-.473-.426-.711-.969-.711-1.629 0-.789.3-1.402.898-1.84.602-.437 1.45-.656 2.547-.656h1.254v-.598c0-.449-.137-.808-.41-1.07-.262-.273-.664-.41-1.2-.41-.46 0-.847.117-1.16.355-.312.223-.468.504-.468.844h-1.313c0-.387.133-.758.395-1.105.273-.352.644-.625 1.105-.825.461-.214.965-.32 1.516-.32.887 0 1.574.219 2.059.656.5.438.761 1.04.789 1.801v3.504c0 .7.086 1.254.261 1.668v.113zm-2.153-.996c.41 0 .797-.105 1.16-.316a1.96 1.96 0 0 0 .785-.824v-1.559h-1.012c-1.597 0-2.394.469-2.394 1.406 0 .403.137.719.41.957.274.227.625.336 1.05.336zm10.277-1.031c0-.348-.136-.617-.41-.805-.262-.199-.726-.367-1.387-.504-.648-.14-1.168-.308-1.554-.507-.387-.2-.676-.43-.86-.692a1.783 1.783 0 0 1-.265-.976c0-.625.265-1.149.789-1.575.523-.437 1.199-.656 2.02-.656.863 0 1.554.227 2.077.676.54.437.809 1 .809 1.687h-1.293c0-.351-.156-.652-.469-.902-.297-.262-.672-.39-1.125-.39-.472 0-.847.105-1.12.316a.944.944 0 0 0-.395.789c0 .312.125.547.375.71.25.165.699.321 1.347.47.649.136 1.172.304 1.574.504.399.203.692.445.88.734.199.285.3.629.3 1.031 0 .688-.273 1.235-.824 1.649-.54.41-1.238.617-2.098.617-.61 0-1.156-.106-1.629-.317a2.74 2.74 0 0 1-1.086-.921 2.192 2.192 0 0 1-.39-1.254h1.289c.023.437.2.785.523 1.046.325.254.758.38 1.293.38.489 0 .88-.102 1.18-.301.3-.2.45-.47.45-.809zm5.242.113l1.782-5.695h1.382l-3.05 8.789c-.473 1.262-1.223 1.895-2.246 1.895l-.262-.02-.469-.094v-1.05l.336.019c.45 0 .793-.09 1.031-.262.25-.175.453-.5.617-.976l.282-.785-2.715-7.516h1.422zm5.938-5.695l.035.953c.586-.723 1.348-1.086 2.285-1.086 1.61 0 2.422.906 2.434 2.719v5.023h-1.309v-5.043c0-.539-.125-.937-.375-1.199-.238-.262-.617-.394-1.144-.394-.422 0-.797.113-1.121.336a2.31 2.31 0 0 0-.73.882v5.418h-1.294v-7.609zm10.203 6.691c.461 0 .867-.14 1.219-.414.347-.289.543-.644.578-1.066h1.238a2.399 2.399 0 0 1-.469 1.254 3.05 3.05 0 0 1-1.105.937c-.45.235-.938.356-1.461.356-1.035 0-1.86-.344-2.473-1.031-.597-.7-.898-1.649-.898-2.848v-.227c0-.734.133-1.39.394-1.965.274-.578.66-1.02 1.16-1.332.512-.324 1.118-.488 1.817-.488.848 0 1.555.258 2.117.77.574.5.88 1.16.918 1.984h-1.238c-.035-.5-.223-.906-.559-1.219a1.773 1.773 0 0 0-1.238-.465c-.66 0-1.172.235-1.535.711-.363.473-.543 1.16-.543 2.063v.242c0 .875.18 1.55.543 2.024.363.476.875.714 1.535.714zm0 0"/><path d="M108.45 408.355c0-.66.534-1.199 1.198-1.199h11.98c.665 0 1.2.54 1.2 1.2v11.996a1.2 1.2 0 0 1-1.2 1.199h-11.98a1.2 1.2 0 0 1-1.199-1.2zm0 0" fill="#0b5394"/><path d="M136.61 417.504l2.675-7.742h1.352l-3.485 9.39h-1.086l-3.46-9.39h1.328zm10.652-5.285c0 .472-.125.89-.371 1.254-.239.363-.57.648-.993.863.485.2.872.504 1.16.918.29.398.43.855.43 1.367 0 .813-.273 1.461-.824 1.95-.547.476-1.266.71-2.152.71-.91 0-1.637-.234-2.172-.71-.54-.489-.805-1.137-.805-1.95 0-.512.137-.969.41-1.367a2.563 2.563 0 0 1 1.145-.938 2.487 2.487 0 0 1-.992-.843 2.291 2.291 0 0 1-.36-1.254c0-.79.25-1.414.75-1.875.512-.465 1.188-.696 2.024-.696.824 0 1.484.23 1.984.696.512.46.766 1.086.766 1.875zm-.973 4.383c0-.524-.168-.95-.504-1.274-.324-.336-.754-.504-1.293-.504-.535 0-.969.16-1.293.485-.324.324-.484.757-.484 1.293 0 .527.156.945.469 1.257.324.301.765.45 1.328.45.55 0 .98-.149 1.293-.45.324-.312.484-.73.484-1.257zm-1.777-5.977c-.473 0-.856.145-1.14.43-.29.289-.435.683-.435 1.18 0 .476.145.863.434 1.163.285.29.668.43 1.14.43.477 0 .856-.14 1.141-.43.29-.3.434-.687.434-1.164 0-.472-.152-.859-.453-1.16-.297-.3-.672-.449-1.121-.449zm10.281 6.914l1.719-5.36h1.218l-2.488 6.973h-.918l-2.531-6.972h1.219zm8.238-7.777v1.011h-.226c-.926.012-1.66.29-2.207.825-.551.539-.871 1.289-.957 2.25.5-.563 1.172-.844 2.023-.844.82 0 1.477.289 1.965.863.484.574.73 1.317.73 2.23 0 .962-.27 1.735-.804 2.325-.528.574-1.223.86-2.098.86-.898 0-1.629-.344-2.191-1.028-.563-.692-.844-1.578-.844-2.664v-.469c0-1.723.371-3.043 1.105-3.953.739-.91 1.836-1.379 3.297-1.406zm-1.554 4.234a1.93 1.93 0 0 0-1.145.375c-.336.238-.574.54-.71.902v.45c0 .773.175 1.398.523 1.875.351.46.789.691 1.312.691.535 0 .953-.195 1.254-.582.312-.398.469-.918.469-1.555 0-.648-.157-1.168-.47-1.554a1.495 1.495 0 0 0-1.233-.602zm4.23 4.535c0-.21.055-.386.168-.523.125-.137.305-.207.543-.207.25 0 .437.07.562.207a.712.712 0 0 1 .208.523.67.67 0 0 1-.208.489c-.125.14-.312.207-.562.207-.238 0-.418-.067-.543-.207a.763.763 0 0 1-.168-.489zm9.117-6.312c0 .472-.125.89-.375 1.254a2.47 2.47 0 0 1-.992.863c.488.2.875.504 1.164.918.285.398.43.855.43 1.367 0 .813-.274 1.461-.824 1.95-.551.476-1.266.71-2.153.71-.91 0-1.637-.234-2.172-.71-.539-.489-.808-1.137-.808-1.95 0-.512.14-.969.414-1.367a2.552 2.552 0 0 1 1.14-.938 2.514 2.514 0 0 1-.992-.843 2.321 2.321 0 0 1-.355-1.254c0-.79.25-1.414.75-1.875.512-.465 1.183-.696 2.023-.696.824 0 1.485.23 1.985.696.511.46.765 1.086.765 1.875zm-.972 4.383c0-.524-.168-.95-.504-1.274-.325-.336-.758-.504-1.293-.504-.54 0-.97.16-1.293.485-.325.324-.485.757-.485 1.293 0 .527.157.945.465 1.257.328.301.77.45 1.332.45.547 0 .98-.149 1.293-.45.324-.312.485-.73.485-1.257zm-1.778-5.977c-.476 0-.855.145-1.144.43-.285.289-.43.683-.43 1.18 0 .476.145.863.43 1.163.289.29.668.43 1.144.43.473 0 .856-.14 1.14-.43.29-.3.434-.687.434-1.164 0-.472-.152-.859-.453-1.16-.297-.3-.672-.449-1.12-.449zm7.938 4.723c0-.977.125-1.907.375-2.793a8.163 8.163 0 0 1 1.16-2.438c.523-.734 1.062-1.254 1.61-1.555l.245.79c-.625.484-1.136 1.222-1.535 2.21-.398.985-.617 2.09-.656 3.317l-.02.543c0 1.664.305 3.098.918 4.308.364.739.793 1.313 1.293 1.727l-.246.73c-.574-.324-1.117-.863-1.629-1.613-1.007-1.46-1.515-3.203-1.515-5.226zm12.226 3.804h-1.254l-4.718-7.234v7.234h-1.235v-9.39h1.235l4.738 7.273v-7.273h1.234zm1.871-3.543c0-.687.133-1.3.395-1.836.273-.55.648-.976 1.125-1.273a3.074 3.074 0 0 1 1.648-.453c.95 0 1.715.332 2.301.996.586.648.879 1.523.879 2.621v.078c0 .672-.129 1.285-.39 1.836a2.97 2.97 0 0 1-1.126 1.254c-.472.3-1.023.45-1.648.45-.945 0-1.715-.325-2.3-.973-.587-.664-.884-1.536-.884-2.625zm1.2.133c0 .774.18 1.399.543 1.871.363.465.843.696 1.441.696.602 0 1.074-.239 1.426-.711.36-.477.543-1.141.543-1.989 0-.773-.184-1.398-.543-1.875a1.731 1.731 0 0 0-1.442-.71c-.59 0-1.062.238-1.425.71-.364.465-.543 1.133-.543 2.008zm6.03-.133c0-1.074.25-1.937.75-2.586.509-.648 1.173-.976 1.985-.976.82 0 1.473.281 1.946.844v-3.633h1.199v9.894h-1.106l-.054-.75c-.477.586-1.137.88-1.985.88-.812 0-1.476-.329-1.984-.993-.5-.66-.75-1.523-.75-2.586zm1.18.133c0 .785.16 1.406.485 1.856.34.449.793.672 1.367.672.75 0 1.3-.336 1.649-1.012v-3.203c-.364-.664-.91-.993-1.649-.993-.574 0-1.027.223-1.363.672-.328.45-.488 1.121-.488 2.008zm9.172 3.54c-.933 0-1.703-.305-2.3-.919-.586-.62-.88-1.46-.88-2.511v-.204c0-.703.13-1.32.391-1.855.262-.55.633-.977 1.106-1.277a2.8 2.8 0 0 1 1.554-.465c.899 0 1.598.297 2.098.898.512.602.766 1.457.766 2.567v.488h-4.719c.016.687.207 1.242.582 1.668.387.422.879.637 1.48.637.422 0 .778-.086 1.067-.262a3.06 3.06 0 0 0 .766-.676l.73.563c-.586.898-1.465 1.347-2.64 1.347zm-.129-6.259c-.488 0-.894.176-1.218.524-.324.351-.524.844-.598 1.48h3.48v-.093c-.035-.598-.203-1.067-.503-1.403-.286-.34-.676-.508-1.16-.508zm4.473 5.508a.82.82 0 0 1 .168-.523c.125-.137.309-.207.547-.207.246 0 .434.07.563.207a.71.71 0 0 1 .203.523.667.667 0 0 1-.203.489c-.13.14-.317.207-.563.207-.238 0-.418-.067-.543-.207a.742.742 0 0 1-.168-.489zm4.793-6.351v7.777c0 1.336-.601 2.008-1.812 2.008-.266 0-.508-.04-.73-.113v-.957c.136.039.316.054.542.054.262 0 .461-.074.598-.222.137-.137.207-.387.207-.75v-7.797zm-1.308-1.856a.67.67 0 0 1 .167-.469c.125-.136.301-.207.528-.207.222 0 .394.07.523.207.121.125.184.29.184.489a.648.648 0 0 1-.184.469c-.125.125-.308.187-.543.187-.226 0-.394-.063-.507-.188a.719.719 0 0 1-.168-.488zm7.734 6.973a.854.854 0 0 0-.375-.735c-.238-.183-.664-.34-1.274-.464-.597-.137-1.074-.293-1.421-.47-.352-.175-.614-.39-.79-.636a1.556 1.556 0 0 1-.261-.902c0-.574.242-1.055.73-1.442.489-.398 1.106-.601 1.856-.601.785 0 1.422.207 1.91.621.496.398.746.918.746 1.555h-1.2c0-.325-.136-.606-.41-.844-.273-.238-.624-.356-1.046-.356-.438 0-.781.102-1.031.301a.883.883 0 0 0-.356.73c0 .286.113.505.336.657.227.137.637.273 1.238.41.598.137 1.078.3 1.442.488.37.176.648.395.82.657.176.261.266.582.266.957 0 .62-.25 1.12-.75 1.5-.489.37-1.13.558-1.93.558-.563 0-1.055-.097-1.48-.297a2.6 2.6 0 0 1-1.008-.824 2 2 0 0 1-.356-1.144h1.18c.023.386.183.699.484.937.301.238.696.356 1.18.356.45 0 .812-.086 1.086-.262.277-.188.414-.438.414-.75zm10.52 1.855h-1.2v-7.945l-2.414.879V411l3.43-1.273h.187zm9.14-3.992c0 1.387-.238 2.422-.71 3.11-.477.675-1.22 1.011-2.231 1.011-1 0-1.743-.328-2.227-.992-.476-.66-.719-1.656-.73-2.98v-1.59c0-1.375.238-2.395.71-3.059.473-.672 1.215-1.012 2.231-1.012 1.008 0 1.75.325 2.227.977.472.637.714 1.629.73 2.98zm-1.18-1.633c0-1.011-.144-1.746-.433-2.21-.285-.462-.735-.692-1.348-.692-.598 0-1.043.23-1.328.691-.273.45-.418 1.157-.43 2.118v1.894c0 1.024.14 1.781.43 2.27.3.472.75.71 1.348.71.586 0 1.023-.226 1.312-.675.285-.461.438-1.18.45-2.153zm5.371 1.875c0 .965-.125 1.887-.375 2.774a7.725 7.725 0 0 1-1.16 2.418c-.511.738-1.054 1.27-1.629 1.594l-.242-.731c.66-.512 1.192-1.3 1.59-2.363.402-1.074.606-2.262.621-3.559v-.207c0-.898-.094-1.734-.281-2.512a8.324 8.324 0 0 0-.79-2.082c-.335-.609-.714-1.09-1.14-1.441l.242-.73c.575.312 1.118.835 1.63 1.574a8.12 8.12 0 0 1 1.144 2.437 9.82 9.82 0 0 1 .39 2.828zm0 0" fill="#666"/><path d="M271.422 408.355c0-.66.539-1.199 1.2-1.199h11.983a1.2 1.2 0 0 1 1.196 1.2v11.996c0 .66-.535 1.199-1.196 1.199h-11.984c-.66 0-1.2-.54-1.2-1.2zm0 0" fill="#3d85c6"/><path d="M299.582 417.504l2.68-7.742h1.347l-3.484 9.39h-1.086l-3.46-9.39h1.327zm10.656-5.285c0 .472-.125.89-.375 1.254-.238.363-.57.648-.992.863.488.2.875.504 1.16.918.29.398.434.855.434 1.367 0 .813-.277 1.461-.828 1.95-.547.476-1.266.71-2.153.71-.91 0-1.632-.234-2.171-.71-.536-.489-.805-1.137-.805-1.95 0-.512.137-.969.41-1.367a2.563 2.563 0 0 1 1.144-.938 2.487 2.487 0 0 1-.992-.843 2.288 2.288 0 0 1-.355-1.254c0-.79.25-1.414.746-1.875.512-.465 1.187-.696 2.023-.696.825 0 1.485.23 1.985.696.511.46.77 1.086.77 1.875zm-.976 4.383c0-.524-.168-.95-.504-1.274-.324-.336-.754-.504-1.293-.504-.535 0-.965.16-1.29.485-.323.324-.488.757-.488 1.293 0 .527.157.945.47 1.257.323.301.765.45 1.327.45.551 0 .98-.149 1.293-.45.325-.312.485-.73.485-1.257zm-1.778-5.977c-.472 0-.855.145-1.14.43-.29.289-.434.683-.434 1.18 0 .476.145.863.434 1.163.285.29.668.43 1.14.43.477 0 .856-.14 1.145-.43.285-.3.43-.687.43-1.164 0-.472-.149-.859-.45-1.16-.3-.3-.675-.449-1.125-.449zm10.282 6.914l1.722-5.36h1.215l-2.488 6.973h-.918l-2.531-6.972h1.218zm9.62-7.101l-3.894 8.714h-1.234l3.86-8.398h-5.079v-.992h6.348zm1.294 8.093c0-.21.054-.386.168-.523.125-.137.308-.207.543-.207.25 0 .437.07.562.207a.712.712 0 0 1 .207.523.67.67 0 0 1-.207.489c-.125.14-.312.207-.562.207-.235 0-.418-.067-.543-.207a.763.763 0 0 1-.168-.489zm9.586.621h-6.141v-.863l3.238-3.598c.477-.55.809-.992.996-1.332.184-.347.278-.707.278-1.066 0-.488-.149-.887-.45-1.2-.296-.312-.69-.468-1.18-.468-.597 0-1.058.168-1.382.504-.324.34-.488.808-.488 1.406h-1.2c0-.863.278-1.555.825-2.078.562-.539 1.312-.809 2.246-.809.863 0 1.55.23 2.062.696.508.449.766 1.054.766 1.816 0 .926-.594 2.024-1.777 3.3l-2.508 2.716h4.715zm0 0" fill="#666"/><path d="M357.703 408.355a1.2 1.2 0 0 1 1.2-1.199h11.98a1.2 1.2 0 0 1 1.199 1.2v11.996a1.2 1.2 0 0 1-1.2 1.199h-11.98a1.2 1.2 0 0 1-1.199-1.2zm0 0" fill="#6fa8dc"/><path d="M385.863 417.504l2.676-7.742h1.348l-3.48 9.39h-1.087l-3.465-9.39h1.332zm10.653-5.285c0 .472-.125.89-.371 1.254-.239.363-.57.648-.993.863.485.2.871.504 1.16.918.286.398.43.855.43 1.367 0 .813-.273 1.461-.824 1.95-.55.476-1.266.71-2.152.71-.91 0-1.637-.234-2.172-.71-.54-.489-.805-1.137-.805-1.95 0-.512.137-.969.41-1.367a2.552 2.552 0 0 1 1.14-.938 2.511 2.511 0 0 1-.991-.843 2.321 2.321 0 0 1-.356-1.254c0-.79.25-1.414.75-1.875.512-.465 1.188-.696 2.024-.696.824 0 1.484.23 1.984.696.512.46.766 1.086.766 1.875zm-.973 4.383c0-.524-.168-.95-.504-1.274-.324-.336-.758-.504-1.293-.504-.535 0-.969.16-1.293.485-.324.324-.484.757-.484 1.293 0 .527.156.945.465 1.257.328.301.77.45 1.332.45.546 0 .98-.149 1.293-.45.324-.312.484-.73.484-1.257zm-1.777-5.977c-.477 0-.856.145-1.141.43-.29.289-.434.683-.434 1.18 0 .476.145.863.434 1.163.285.29.664.43 1.14.43.473 0 .856-.14 1.141-.43.29-.3.434-.687.434-1.164 0-.472-.152-.859-.453-1.16-.297-.3-.672-.449-1.121-.449zm10.277 6.914l1.723-5.36h1.218l-2.492 6.973h-.918l-2.527-6.972h1.219zm9.625-7.101l-3.895 8.714h-1.234l3.856-8.398h-5.075v-.992h6.348zm1.293 8.093c0-.21.055-.386.168-.523.125-.137.305-.207.543-.207.25 0 .437.07.562.207a.712.712 0 0 1 .207.523.67.67 0 0 1-.207.489c-.125.14-.312.207-.562.207-.238 0-.418-.067-.543-.207a.742.742 0 0 1-.168-.489zm9.586.621h-6.14v-.863l3.238-3.598c.472-.55.804-.992.992-1.332.187-.347.281-.707.281-1.066 0-.488-.148-.887-.45-1.2-.3-.312-.69-.468-1.179-.468-.601 0-1.062.168-1.387.504-.324.34-.484.808-.484 1.406h-1.2c0-.863.274-1.555.825-2.078.562-.539 1.309-.809 2.246-.809.863 0 1.547.23 2.059.696.511.449.77 1.054.77 1.816 0 .926-.595 2.024-1.782 3.3l-2.508 2.716h4.719zm4.719-3.804c0-.977.125-1.907.375-2.793a8.163 8.163 0 0 1 1.16-2.438c.523-.734 1.062-1.254 1.61-1.555l.245.79c-.625.484-1.136 1.222-1.535 2.21-.402.985-.621 2.09-.656 3.317l-.02.543c0 1.664.305 3.098.918 4.308.364.739.793 1.313 1.293 1.727l-.246.73c-.574-.324-1.117-.863-1.629-1.613-1.011-1.46-1.515-3.203-1.515-5.226zm7.304.3h-3.129v-.976h3.13zm3.594 0h-3.129v-.976h3.13zm2.32-2.625c.524-.648 1.211-.976 2.059-.976 1.477 0 2.219.832 2.23 2.492v4.613h-1.199v-4.613c0-.496-.113-.867-.336-1.105-.226-.25-.582-.372-1.066-.372a1.71 1.71 0 0 0-1.012.317c-.289.2-.512.469-.676.805v4.968h-1.199v-9.894h1.2zm10.297 6.13c-.074-.137-.129-.383-.164-.731-.562.574-1.226.863-1.988.863-.688 0-1.254-.195-1.703-.582-.438-.387-.656-.883-.656-1.48 0-.727.277-1.29.824-1.688.562-.414 1.344-.617 2.34-.617h1.164v-.547c0-.41-.125-.742-.375-.992s-.621-.375-1.106-.375c-.426 0-.781.113-1.066.336-.29.215-.434.469-.434.77h-1.195c0-.352.125-.688.375-1.012.246-.325.578-.582.992-.766.422-.191.89-.285 1.402-.285.801 0 1.422.203 1.872.601.46.399.699.957.71 1.668v3.207c0 .633.082 1.141.247 1.516v.113zm-1.984-.9c.375 0 .73-.093 1.066-.28.34-.203.582-.457.735-.77v-1.426h-.938c-1.46 0-2.191.426-2.191 1.274 0 .375.125.672.375.883.25.21.566.32.953.32zm8.242-5.007a4.753 4.753 0 0 0-.582-.035c-.789 0-1.316.332-1.594.992v4.95h-1.195v-6.973h1.16l.016.804c.39-.62.945-.933 1.668-.933.226 0 .398.031.527.09zm2.543-1.066l.04.77c.51-.602 1.198-.903 2.058-.903.972 0 1.636.375 1.984 1.125a2.69 2.69 0 0 1 .899-.805c.375-.21.82-.32 1.332-.32 1.52 0 2.296.812 2.32 2.437v4.668h-1.18v-4.593c0-.5-.117-.875-.355-1.125-.223-.25-.606-.372-1.145-.372-.433 0-.805.13-1.101.391-.29.262-.457.621-.508 1.07v4.63h-1.196v-4.575c0-1.012-.496-1.515-1.48-1.515-.785 0-1.324.328-1.61.992v5.097h-1.18v-6.972zm10.543 3.43c0-.688.129-1.301.395-1.837.273-.55.648-.976 1.12-1.273.489-.3 1.04-.453 1.65-.453.948 0 1.714.332 2.304.996.586.648.879 1.523.879 2.621v.078c0 .672-.133 1.285-.395 1.836a2.987 2.987 0 0 1-1.121 1.254c-.477.3-1.023.45-1.648.45-.95 0-1.72-.325-2.305-.973-.586-.664-.879-1.536-.879-2.625zm1.2.132c0 .774.179 1.399.542 1.871.36.465.84.696 1.442.696.597 0 1.074-.239 1.421-.711.364-.477.543-1.141.543-1.989 0-.773-.18-1.398-.543-1.875a1.731 1.731 0 0 0-1.44-.71c-.587 0-1.063.238-1.423.71-.363.465-.543 1.133-.543 2.008zm7.433-3.562l.035.882c.539-.675 1.238-1.015 2.098-1.015 1.472 0 2.214.832 2.226 2.492v4.613h-1.195v-4.613c0-.496-.113-.867-.34-1.105-.223-.25-.578-.372-1.066-.372-.375 0-.711.106-1.008.317-.29.2-.516.469-.676.805v4.968h-1.2v-6.972zm8.347 5.23l1.614-5.23h1.289l-2.809 8.039c-.433 1.164-1.12 1.746-2.058 1.746l-.223-.02-.45-.074v-.976l.317.035c.399 0 .711-.086.938-.258.222-.164.41-.457.562-.883l.262-.71-2.473-6.9h1.293zm6.18-1.762h-3.125v-.976h3.125zm5.43 3.504c-.074-.136-.13-.382-.168-.73-.563.574-1.223.863-1.985.863-.687 0-1.253-.195-1.703-.582-.437-.387-.656-.883-.656-1.48 0-.727.274-1.29.824-1.688.563-.414 1.344-.617 2.34-.617h1.164v-.547c0-.41-.125-.742-.375-.992s-.62-.375-1.105-.375c-.426 0-.781.113-1.067.336-.289.215-.433.469-.433.77h-1.2c0-.352.126-.688.376-1.012a2.54 2.54 0 0 1 .992-.766 3.39 3.39 0 0 1 1.406-.285c.8 0 1.422.203 1.871.601.461.399.7.957.711 1.668v3.207c0 .633.082 1.141.246 1.516v.113zm-1.985-.898c.375 0 .73-.094 1.067-.281.34-.203.582-.457.734-.77v-1.426h-.937c-1.461 0-2.192.426-2.192 1.274 0 .375.125.672.375.883.25.21.567.32.953.32zm11.032-.75l1.347-5.324h1.2l-2.043 6.972h-.954l-1.707-5.285-1.644 5.285h-.957l-2.024-6.972h1.18l1.367 5.21 1.63-5.21h.956zm7.73 1.648c-.074-.136-.129-.382-.168-.73-.562.574-1.222.863-1.984.863-.688 0-1.254-.195-1.703-.582-.438-.387-.657-.883-.657-1.48 0-.727.274-1.29.825-1.688.562-.414 1.34-.617 2.34-.617h1.16v-.547c0-.41-.125-.742-.375-.992s-.617-.375-1.102-.375c-.426 0-.781.113-1.07.336-.285.215-.43.469-.43.77h-1.2c0-.352.126-.688.376-1.012a2.54 2.54 0 0 1 .992-.766 3.39 3.39 0 0 1 1.406-.285c.797 0 1.422.203 1.871.601.461.399.7.957.711 1.668v3.207c0 .633.082 1.141.246 1.516v.113zm-1.984-.898c.375 0 .73-.094 1.066-.281.34-.203.582-.457.73-.77v-1.426h-.937c-1.457 0-2.187.426-2.187 1.274 0 .375.125.672.375.883.25.21.566.32.953.32zm6.16.898h-1.18v-6.972h1.18zm-1.293-8.828c0-.187.059-.344.168-.469.125-.136.309-.207.547-.207.234 0 .41.07.523.207a.66.66 0 0 1 .184.489.633.633 0 0 1-.184.469c-.113.125-.289.187-.523.187-.238 0-.422-.063-.543-.188a.703.703 0 0 1-.172-.488zm5.207.168v1.688h1.313v.918h-1.313v4.332c0 .273.055.484.168.632.125.141.324.208.598.208.136 0 .332-.032.582-.094v.976a3.594 3.594 0 0 1-.918.133c-.535 0-.942-.164-1.215-.488-.266-.324-.395-.781-.395-1.367v-4.332h-1.273v-.918h1.273v-1.688zm5.656 5.156h-3.129v-.976h3.13zm.801-.039c0-.687.133-1.3.395-1.836.277-.55.648-.976 1.125-1.273a3.074 3.074 0 0 1 1.648-.453c.95 0 1.715.332 2.3.996.587.648.88 1.523.88 2.621v.078c0 .672-.13 1.285-.39 1.836a2.97 2.97 0 0 1-1.126 1.254c-.473.3-1.023.45-1.644.45-.95 0-1.72-.325-2.305-.973-.586-.664-.883-1.536-.883-2.625zm1.2.133c0 .774.183 1.399.546 1.871.36.465.84.696 1.442.696.597 0 1.07-.239 1.421-.711.36-.477.543-1.141.543-1.989 0-.773-.183-1.398-.543-1.875a1.731 1.731 0 0 0-1.441-.71c-.586 0-1.062.238-1.426.71-.36.465-.543 1.133-.543 2.008zm12.19 0c0 1.059-.245 1.918-.73 2.567-.476.648-1.129.972-1.969.972-.835 0-1.496-.265-1.984-.804v3.355h-1.195v-9.652h1.086l.054.77c.489-.602 1.16-.903 2.024-.903.836 0 1.496.32 1.984.957.489.625.73 1.5.73 2.625zm-1.179-.133c0-.785-.168-1.406-.508-1.855-.336-.461-.797-.692-1.383-.692-.71 0-1.25.317-1.613.954v3.336c.352.636.895.957 1.633.957.574 0 1.027-.227 1.363-.676.34-.461.508-1.137.508-2.024zm4.102-5.117v1.688h1.308v.918h-1.308v4.332c0 .273.054.484.168.632.125.141.324.208.597.208.137 0 .332-.032.582-.094v.976a3.618 3.618 0 0 1-.918.133c-.539 0-.941-.164-1.218-.488-.262-.324-.395-.781-.395-1.367v-4.332h-1.27v-.918h1.27v-1.688zm4.472 8.66h-1.18v-6.972h1.18zm-1.293-8.828c0-.187.059-.344.168-.469.125-.136.309-.207.547-.207.234 0 .41.07.524.207.125.125.187.29.187.489a.636.636 0 0 1-.187.469c-.114.125-.29.187-.524.187-.238 0-.418-.063-.543-.188a.703.703 0 0 1-.172-.488zm4.723 1.856l.035.77c.512-.602 1.2-.903 2.059-.903.972 0 1.636.375 1.984 1.125a2.69 2.69 0 0 1 .898-.805c.375-.21.82-.32 1.332-.32 1.524 0 2.297.812 2.32 2.437v4.668h-1.179v-4.593c0-.5-.117-.875-.355-1.125-.223-.25-.606-.372-1.141-.372-.437 0-.809.13-1.105.391-.29.262-.457.621-.504 1.07v4.63h-1.2v-4.575c0-1.012-.496-1.515-1.48-1.515-.785 0-1.324.328-1.61.992v5.097h-1.18v-6.972zm12.148 6.972h-1.18v-6.972h1.18zm-1.293-8.828c0-.187.059-.344.168-.469.13-.136.309-.207.547-.207.235 0 .41.07.524.207.125.125.187.29.187.489a.636.636 0 0 1-.187.469c-.114.125-.29.187-.524.187-.238 0-.418-.063-.543-.188a.703.703 0 0 1-.172-.488zm4.723 7.852h4.078v.976h-5.539v-.882l3.836-5.098h-3.781v-.992h5.281v.843zm9.172.976c-.074-.136-.129-.382-.168-.73-.563.574-1.223.863-1.984.863-.688 0-1.254-.195-1.704-.582-.437-.387-.656-.883-.656-1.48 0-.727.274-1.29.824-1.688.563-.414 1.34-.617 2.34-.617h1.16v-.547c0-.41-.125-.742-.375-.992s-.617-.375-1.105-.375c-.422 0-.777.113-1.066.336-.286.215-.43.469-.43.77h-1.2c0-.352.126-.688.376-1.012a2.54 2.54 0 0 1 .992-.766 3.39 3.39 0 0 1 1.406-.285c.797 0 1.422.203 1.871.601.461.399.7.957.711 1.668v3.207c0 .633.082 1.141.242 1.516v.113zm-1.984-.898c.375 0 .73-.094 1.066-.281.34-.203.582-.457.73-.77v-1.426h-.937c-1.457 0-2.188.426-2.188 1.274 0 .375.125.672.375.883.25.21.567.32.954.32zm6.48-7.762v1.688h1.309v.918H585.5v4.332c0 .273.055.484.168.632.125.141.324.208.598.208.136 0 .332-.032.582-.094v.976a3.618 3.618 0 0 1-.918.133c-.54 0-.942-.164-1.22-.488-.26-.324-.394-.781-.394-1.367v-4.332h-1.27v-.918h1.27v-1.688zm4.473 8.66h-1.18v-6.972h1.18zm-1.293-8.828c0-.187.058-.344.168-.469.125-.136.308-.207.547-.207.234 0 .41.07.523.207.125.125.187.29.187.489a.636.636 0 0 1-.187.469c-.113.125-.29.187-.523.187-.239 0-.418-.063-.543-.188a.703.703 0 0 1-.172-.488zm3.277 5.285c0-.687.133-1.3.395-1.836.273-.55.648-.976 1.12-1.273.489-.3 1.04-.453 1.65-.453.948 0 1.718.332 2.304.996.586.648.879 1.523.879 2.621v.078c0 .672-.13 1.285-.395 1.836a2.961 2.961 0 0 1-1.12 1.254c-.474.3-1.024.45-1.65.45-.949 0-1.714-.325-2.3-.973-.59-.664-.883-1.536-.883-2.625zm1.2.133c0 .774.179 1.399.542 1.871.364.465.844.696 1.442.696.601 0 1.074-.239 1.422-.711.363-.477.542-1.141.542-1.989 0-.773-.18-1.398-.543-1.875a1.72 1.72 0 0 0-1.44-.71c-.587 0-1.06.238-1.423.71-.363.465-.543 1.133-.543 2.008zm7.433-3.562l.035.882c.54-.675 1.238-1.015 2.098-1.015 1.472 0 2.215.832 2.23 2.492v4.613h-1.2v-4.613c0-.496-.112-.867-.335-1.105-.227-.25-.582-.372-1.066-.372a1.71 1.71 0 0 0-1.012.317c-.29.2-.512.469-.676.805v4.968h-1.2v-6.972zm8.82 3.222c0 .965-.125 1.887-.375 2.774a7.9 7.9 0 0 1-1.16 2.418c-.512.738-1.055 1.27-1.633 1.594l-.242-.731c.664-.512 1.191-1.3 1.594-2.363.398-1.074.605-2.262.617-3.559v-.207c0-.898-.094-1.734-.281-2.512a8.474 8.474 0 0 0-.785-2.082c-.34-.609-.72-1.09-1.145-1.441l.242-.73c.578.312 1.121.835 1.633 1.574.512.738.89 1.55 1.14 2.437.262.875.395 1.817.395 2.828zm0 0" fill="#666"/></svg>