<svg xmlns="http://www.w3.org/2000/svg" width="719pt" height="445pt" viewBox="0 0 719 445"><defs><clipPath id="a"><path d="M188 213h286v144.98H188zm0 0"/></clipPath><clipPath id="b"><path d="M209 169h286v188.98H209zm0 0"/></clipPath><clipPath id="c"><path d="M231 141h286v216.98H231zm0 0"/></clipPath><clipPath id="d"><path d="M252 111h287v246.98H252zm0 0"/></clipPath></defs><path fill="#fff" d="M0 0h719v445H0z"/><path d="M118.501 298.5h370" transform="scale(1.19833 1.19946)" fill="none" stroke="#333" stroke-miterlimit="10"/><path d="M118.501 240.499h370m-370-57.998h370m-370-58.002h370m-370-57.998h370" transform="scale(1.19833 1.19946)" fill="none" stroke="#ccc" stroke-miterlimit="10"/><g clip-path="url(#a)"><path d="M208.512 357.438h-20.375v-79.165a2.399 2.399 0 0 1 2.398-2.398h15.578a2.399 2.399 0 0 1 2.399 2.398zm133.011 0h-20.37V215.901a2.399 2.399 0 0 1 2.398-2.398h15.578a2.396 2.396 0 0 1 2.394 2.398zm131.817 0h-20.371V215.901a2.399 2.399 0 0 1 2.398-2.398h15.578a2.396 2.396 0 0 1 2.395 2.398zm0 0" fill="#0b5394"/></g><g clip-path="url(#b)"><path d="M230.078 357.438h-20.371V212.304a2.399 2.399 0 0 1 2.398-2.399h15.579a2.396 2.396 0 0 1 2.394 2.399zm133.016 0h-20.371v-172.72a2.4 2.4 0 0 1 2.398-2.402H360.7a2.396 2.396 0 0 1 2.395 2.403zm131.816 0h-20.37V171.523a2.399 2.399 0 0 1 2.397-2.398h15.579a2.396 2.396 0 0 1 2.394 2.398zm0 0" fill="#3d85c6"/></g><g clip-path="url(#c)"><path d="M251.648 357.438h-20.37v-155.93a2.399 2.399 0 0 1 2.398-2.399h15.578a2.396 2.396 0 0 1 2.394 2.399zm133.016 0h-20.371V143.934a2.399 2.399 0 0 1 2.398-2.399h15.579a2.396 2.396 0 0 1 2.394 2.399zm131.816 0h-20.37v-200.31a2.399 2.399 0 0 1 2.398-2.398h15.578a2.396 2.396 0 0 1 2.394 2.399zm0 0" fill="#6fa8dc"/></g><g clip-path="url(#d)"><path d="M273.219 357.438h-20.371V175.12a2.399 2.399 0 0 1 2.398-2.398h15.578a2.396 2.396 0 0 1 2.395 2.398zm133.015 0h-20.37V134.34a2.399 2.399 0 0 1 2.398-2.399h15.578a2.398 2.398 0 0 1 2.394 2.399zm131.817 0H517.68v-243.49a2.399 2.399 0 0 1 2.398-2.398h15.578a2.396 2.396 0 0 1 2.395 2.398zm0 0" fill="#9fc5e8"/></g><path d="M161.547 415.29c0-1.185.277-2.13.824-2.83.55-.698 1.274-1.05 2.172-1.05.926 0 1.648.324 2.176.977l.054-.844h1.2v7.422c0 .988-.293 1.762-.883 2.324-.586.574-1.367.86-2.34.86a3.853 3.853 0 0 1-1.61-.356c-.523-.238-.925-.555-1.199-.953l.676-.79c.547.688 1.23 1.032 2.04 1.032.624 0 1.113-.18 1.46-.543.363-.351.543-.851.543-1.5v-.656c-.523.613-1.234.918-2.133.918-.886 0-1.605-.356-2.156-1.067-.547-.726-.824-1.707-.824-2.945zm1.312.151c0 .848.176 1.524.524 2.024.351.488.844.73 1.48.73.813 0 1.41-.375 1.797-1.125v-3.465c-.398-.726-1-1.09-1.797-1.09-.625 0-1.117.247-1.48.735-.348.484-.524 1.215-.524 2.191zm8.801 3.711h-1.293v-7.609h1.293zm-1.406-9.617c0-.21.062-.39.187-.543.137-.148.332-.222.582-.222.25 0 .438.074.563.222a.782.782 0 0 1 .203.543.757.757 0 0 1-.203.527c-.125.137-.313.208-.563.208-.25 0-.445-.07-.582-.207a.8.8 0 0 1-.187-.528zm5.355.172v1.836h1.407v1.012h-1.407v4.703c0 .312.063.543.188.695.125.149.336.223.637.223.152 0 .355-.024.617-.074v1.05a3.554 3.554 0 0 1-.992.149c-.575 0-1.008-.176-1.309-.524-.3-.363-.45-.87-.45-1.52v-4.702h-1.386v-1.012h1.387v-1.836zm4.328 2.754c.575-.7 1.32-1.05 2.247-1.05 1.609 0 2.421.905 2.433 2.718v5.023h-1.308v-5.043c0-.535-.13-.937-.38-1.199-.234-.262-.617-.394-1.14-.394-.422 0-.797.113-1.121.34a2.235 2.235 0 0 0-.73.878v5.418h-1.293v-10.797h1.292zm11.778 5.941c-.5.598-1.246.899-2.23.899-.813 0-1.43-.238-1.852-.711-.426-.477-.637-1.176-.637-2.102v-4.945h1.29v4.91c0 1.16.468 1.742 1.405 1.742 1 0 1.66-.375 1.985-1.125v-5.527h1.312v7.61h-1.238zm10.129-2.96c0 1.16-.27 2.097-.805 2.812-.527.7-1.238 1.047-2.137 1.047-.96 0-1.703-.344-2.226-1.031l-.074.882h-1.18v-10.797h1.289v4.032c.527-.649 1.25-.977 2.176-.977.922 0 1.644.352 2.168 1.05.527.688.789 1.645.789 2.868zm-1.293-.153c0-.887-.176-1.566-.524-2.043-.336-.484-.824-.73-1.46-.73-.864 0-1.481.394-1.856 1.183v3.297c.402.8 1.02 1.2 1.855 1.2.625 0 1.11-.243 1.461-.731.348-.488.524-1.211.524-2.176zm3.277 3.188a.85.85 0 0 1 .188-.563c.136-.148.336-.223.597-.223.278 0 .48.075.621.223a.81.81 0 0 1 .203.563c0 .21-.066.394-.203.543-.14.14-.343.207-.62.207-.262 0-.462-.067-.598-.207a.82.82 0 0 1-.188-.543zm6.61-.243c.46 0 .867-.14 1.218-.414a1.52 1.52 0 0 0 .578-1.066h1.239a2.387 2.387 0 0 1-.47 1.254 3.041 3.041 0 0 1-1.105.937 3.061 3.061 0 0 1-1.46.356c-1.036 0-1.86-.344-2.473-1.031-.598-.7-.899-1.649-.899-2.848v-.227c0-.734.133-1.39.395-1.965a3.07 3.07 0 0 1 1.16-1.332c.512-.324 1.117-.488 1.816-.488.848 0 1.555.258 2.118.77.574.5.879 1.164.918 1.988h-1.239c-.039-.5-.222-.906-.562-1.219a1.745 1.745 0 0 0-1.234-.469c-.66 0-1.172.239-1.536.711-.363.477-.543 1.164-.543 2.063v.242c0 .875.18 1.55.543 2.027.364.473.875.711 1.536.711zm3.8-2.96c0-.739.145-1.407.43-2.008.3-.598.71-1.055 1.234-1.368a3.334 3.334 0 0 1 1.782-.488c1.035 0 1.87.356 2.507 1.07.649.711.973 1.668.973 2.868v.093c0 .739-.14 1.399-.43 1.989a3.382 3.382 0 0 1-1.214 1.386c-.528.325-1.133.485-1.817.485-1.023 0-1.86-.356-2.512-1.067-.636-.726-.953-1.68-.953-2.867zm1.313.167c0 .836.191 1.512.578 2.024.398.512.926.77 1.574.77.66 0 1.184-.258 1.57-.77.387-.524.582-1.254.582-2.192 0-.824-.199-1.496-.597-2.007-.387-.524-.914-.786-1.574-.786-.637 0-1.157.254-1.555.766-.387.5-.578 1.234-.578 2.195zm8.648-3.898l.035.844c.551-.653 1.301-.977 2.25-.977 1.059 0 1.786.406 2.172 1.219a2.85 2.85 0 0 1 .973-.879c.414-.227.894-.34 1.441-.34 1.672 0 2.524.883 2.547 2.645v5.097h-1.293v-5.023c0-.535-.125-.938-.375-1.2-.246-.273-.664-.413-1.254-.413-.484 0-.89.144-1.215.433-.312.285-.492.676-.542 1.16v5.043h-1.293v-4.984c0-1.102-.543-1.652-1.63-1.652-.847 0-1.43.363-1.742 1.09v5.546h-1.308v-7.609zm12.207 8.488h-1.105l4.27-11.113h1.105zm6.387-.879v-6.597h-1.2v-1.012h1.2v-.77c0-.824.21-1.453.637-1.89.437-.453 1.054-.676 1.851-.676.301 0 .602.035.899.113l-.075 1.067a3.1 3.1 0 0 0-.69-.075c-.427 0-.755.125-.993.375-.227.25-.34.598-.34 1.047v.809h1.633v1.012h-1.633v6.597zm8.836 0c-.074-.148-.137-.418-.188-.808-.597.64-1.316.957-2.152.957-.75 0-1.367-.211-1.855-.637-.473-.426-.707-.969-.707-1.629 0-.789.296-1.398.898-1.836.598-.437 1.445-.66 2.547-.66h1.25v-.598c0-.449-.137-.804-.41-1.066-.262-.277-.66-.414-1.2-.414-.46 0-.847.117-1.16.355-.312.227-.468.508-.468.844h-1.309c0-.387.129-.754.395-1.105a2.77 2.77 0 0 1 1.101-.825c.465-.21.969-.32 1.516-.32.886 0 1.574.219 2.062.656.5.438.762 1.04.785 1.801v3.504c0 .7.086 1.258.262 1.668v.113zm-2.152-.992c.41 0 .8-.11 1.16-.32.363-.211.625-.488.785-.824v-1.555h-1.008c-1.598 0-2.398.469-2.398 1.406 0 .399.136.715.41.953.277.227.625.336 1.05.336zm10.28-1.035c0-.348-.136-.617-.413-.805-.262-.199-.723-.367-1.383-.504-.652-.136-1.168-.308-1.555-.507-.39-.2-.676-.43-.863-.692a1.781 1.781 0 0 1-.262-.976c0-.625.262-1.149.785-1.575.528-.437 1.2-.656 2.024-.656.86 0 1.555.227 2.078.676.535.437.805 1 .805 1.687h-1.293c0-.351-.153-.648-.465-.898-.3-.262-.676-.395-1.125-.395-.473 0-.848.106-1.125.317a.945.945 0 0 0-.39.789c0 .312.124.55.374.71.246.165.696.321 1.348.47.648.136 1.172.308 1.57.507.403.2.695.442.883.73.2.286.297.63.297 1.032 0 .688-.274 1.235-.824 1.649-.536.41-1.235.617-2.094.617-.613 0-1.156-.106-1.633-.317a2.72 2.72 0 0 1-1.082-.918 2.188 2.188 0 0 1-.394-1.257h1.292c.024.437.2.789.524 1.05.324.25.754.375 1.293.375.484 0 .879-.101 1.18-.3.296-.2.449-.47.449-.805zm4.528-7.418v1.836h1.406v1.012h-1.402v4.703c0 .312.063.543.184.695.125.149.34.223.636.223.153 0 .36-.024.621-.074v1.05c-.34.098-.668.149-.992.149-.574 0-1.011-.176-1.312-.524-.301-.363-.45-.87-.45-1.52v-4.702h-1.386v-1.012h1.387v-1.836zm4.442 9.445h-1.293v-7.609h1.293zm-1.407-9.617c0-.21.063-.39.188-.543.137-.148.332-.222.582-.222.25 0 .433.074.558.222a.785.785 0 0 1 .207.543c0 .203-.07.375-.207.527-.125.137-.308.208-.558.208-.25 0-.445-.07-.582-.207a.8.8 0 0 1-.188-.528zm4.23 9.617v-6.597h-1.195v-1.012h1.196v-.77c0-.824.215-1.453.637-1.89.437-.453 1.054-.676 1.855-.676.297 0 .598.035.898.113l-.074 1.067a3.15 3.15 0 0 0-.691-.075c-.426 0-.758.125-.992.375-.227.25-.34.598-.34 1.047v.809h1.629v1.012h-1.63v6.597zm6.63-1.914l1.78-5.695h1.384l-3.051 8.789c-.473 1.262-1.223 1.895-2.246 1.895l-.262-.02-.469-.094v-1.05l.336.019c.45 0 .793-.086 1.032-.262.25-.175.453-.5.617-.976l.281-.785-2.715-7.516h1.422zm4.96 2.793h-1.1l4.269-11.113h1.101zm12.173-4.59c0 1.16-.27 2.098-.805 2.813-.524.7-1.235 1.047-2.137 1.047-.96 0-1.703-.344-2.226-1.031l-.075.882h-1.18v-10.797h1.294v4.032c.523-.649 1.246-.977 2.171-.977.922 0 1.649.352 2.172 1.05.524.688.786 1.645.786 2.868zm-1.293-.152c0-.887-.172-1.566-.524-2.043-.336-.484-.824-.73-1.46-.73-.86 0-1.477.394-1.852 1.183v3.297c.398.8 1.015 1.2 1.851 1.2.625 0 1.113-.243 1.461-.731.352-.488.524-1.211.524-2.176zm6.406 4.012c-1.04 0-1.88-.336-2.531-1.012-.633-.687-.954-1.598-.954-2.734v-.227c0-.762.145-1.437.434-2.023.285-.602.684-1.063 1.195-1.387a3.069 3.069 0 0 1 1.684-.508c.988 0 1.758.324 2.305.977.55.648.824 1.578.824 2.793v.543h-5.149c.024.75.243 1.355.657 1.816.421.461.96.695 1.609.695.45 0 .828-.093 1.14-.28.325-.188.614-.438.864-.75l.785.616c-.637.989-1.59 1.48-2.863 1.48zm-.168-6.82c-.528 0-.969.19-1.332.582-.348.375-.559.902-.637 1.59h3.8v-.094c-.034-.66-.218-1.172-.542-1.536-.313-.363-.742-.543-1.293-.543zm5.426-.938l.039.957c.586-.727 1.347-1.09 2.285-1.09 1.61 0 2.422.906 2.433 2.719v5.023h-1.308v-5.043c0-.535-.125-.937-.375-1.199-.238-.262-.621-.394-1.145-.394-.422 0-.797.113-1.12.34a2.268 2.268 0 0 0-.731.878v5.418h-1.293v-7.609zm10.207 6.691c.46 0 .867-.14 1.218-.414a1.52 1.52 0 0 0 .579-1.066h1.238a2.387 2.387 0 0 1-.469 1.254 3.05 3.05 0 0 1-1.105.937c-.45.239-.938.356-1.461.356-1.036 0-1.86-.344-2.473-1.031-.598-.7-.898-1.649-.898-2.848v-.227c0-.734.132-1.39.394-1.965.274-.578.66-1.02 1.16-1.332.512-.324 1.117-.488 1.817-.488.847 0 1.554.258 2.117.77.574.5.879 1.164.918 1.988h-1.238c-.04-.5-.223-.906-.563-1.219a1.745 1.745 0 0 0-1.234-.469c-.66 0-1.172.239-1.536.711-.363.477-.543 1.164-.543 2.063v.242c0 .875.18 1.55.543 2.027.364.473.875.711 1.536.711zm5.449-5.773c.574-.7 1.324-1.05 2.246-1.05 1.61 0 2.422.905 2.434 2.718v5.023h-1.31v-5.043c0-.535-.124-.937-.374-1.199-.238-.262-.617-.394-1.145-.394-.421 0-.796.113-1.12.34a2.268 2.268 0 0 0-.731.878v5.418h-1.293v-10.797h1.293zm8.312-.918l.036.844c.55-.653 1.3-.977 2.25-.977 1.062 0 1.785.406 2.171 1.219a2.86 2.86 0 0 1 .973-.879c.414-.227.895-.34 1.441-.34 1.672 0 2.524.883 2.547 2.645v5.097h-1.293v-5.023c0-.535-.125-.938-.375-1.2-.246-.273-.664-.413-1.25-.413-.488 0-.894.144-1.218.433-.313.285-.493.676-.543 1.16v5.043h-1.293v-4.984c0-1.102-.543-1.652-1.63-1.652-.847 0-1.429.363-1.741 1.09v5.546h-1.309v-7.609zm16.645 7.61c-.074-.15-.137-.419-.188-.81-.597.641-1.316.958-2.152.958-.746 0-1.367-.211-1.852-.637-.476-.426-.71-.969-.71-1.629 0-.789.296-1.398.898-1.836.598-.437 1.445-.66 2.547-.66h1.254v-.598c0-.449-.14-.804-.414-1.066-.262-.277-.66-.414-1.196-.414-.464 0-.851.117-1.164.355-.312.227-.468.508-.468.844h-1.309c0-.387.133-.754.394-1.105a2.77 2.77 0 0 1 1.102-.825c.465-.21.969-.32 1.52-.32.886 0 1.57.219 2.058.656.5.438.762 1.04.785 1.801v3.504c0 .7.09 1.258.262 1.668v.113zm-2.152-.993c.414 0 .8-.11 1.164-.32.359-.211.62-.488.785-.824v-1.555h-1.012c-1.598 0-2.398.469-2.398 1.406 0 .399.136.715.414.953.273.227.62.336 1.047.336zm9.53-5.457a5.518 5.518 0 0 0-.636-.035c-.863 0-1.441.363-1.742 1.086v5.398h-1.293v-7.609h1.258l.02.883c.421-.676 1.027-1.016 1.812-1.016.25 0 .445.031.582.094zm3.24 2.926l-.825.844v2.68h-1.29v-10.798h1.29v6.524l.695-.824 2.375-2.512h1.574l-2.957 3.187 3.313 4.422h-1.535zm9.495 1.5c0-.352-.14-.621-.414-.809-.262-.199-.723-.367-1.387-.504-.648-.136-1.168-.308-1.55-.507-.391-.2-.676-.43-.864-.692a1.781 1.781 0 0 1-.261-.976c0-.625.261-1.149.785-1.575.523-.437 1.199-.656 2.023-.656.86 0 1.555.227 2.078.676.535.437.805 1 .805 1.687h-1.293c0-.351-.156-.648-.465-.898-.3-.262-.676-.395-1.125-.395-.476 0-.851.106-1.125.317a.949.949 0 0 0-.394.789c0 .312.125.55.375.71.25.165.699.321 1.351.47.649.136 1.172.308 1.57.507.399.2.692.442.883.73.2.286.297.63.297 1.032 0 .688-.273 1.235-.824 1.649-.535.41-1.234.617-2.098.617-.609 0-1.152-.106-1.629-.317a2.758 2.758 0 0 1-1.086-.918 2.213 2.213 0 0 1-.39-1.257h1.293c.023.437.195.789.523 1.05.325.25.754.375 1.29.375.488 0 .882-.101 1.183-.3.297-.2.45-.47.45-.805zm6.309-2.137c0-1.05.136-2.062.41-3.039.289-.973.71-1.86 1.273-2.66s1.149-1.363 1.762-1.688l.262.864c-.688.523-1.25 1.324-1.684 2.398-.437 1.074-.676 2.281-.715 3.617l-.02.602c0 1.809.333 3.379.993 4.703.402.8.875 1.426 1.426 1.875l-.262.785c-.625-.336-1.223-.918-1.797-1.742-1.101-1.586-1.648-3.492-1.648-5.715zm9.527 4.16c-.074-.148-.133-.418-.183-.808-.602.64-1.32.957-2.157.957-.746 0-1.363-.211-1.851-.637-.477-.426-.711-.969-.711-1.629 0-.789.3-1.398.898-1.836.598-.437 1.45-.66 2.547-.66h1.254v-.598c0-.449-.137-.804-.414-1.066-.262-.277-.66-.414-1.195-.414-.461 0-.852.117-1.164.355-.313.227-.465.508-.465.844h-1.313c0-.387.133-.754.395-1.105.273-.348.64-.625 1.105-.825.461-.21.965-.32 1.516-.32.887 0 1.574.219 2.058.656.5.438.762 1.04.786 1.801v3.504c0 .7.09 1.258.265 1.668v.113zm-2.152-.992c.414 0 .8-.11 1.164-.32.36-.211.62-.488.785-.824v-1.555h-1.012c-1.597 0-2.394.469-2.394 1.406 0 .399.136.715.41.953.273.227.625.336 1.047.336zm10.543.242c-.5.598-1.242.899-2.23.899-.81 0-1.427-.238-1.852-.711-.426-.477-.637-1.176-.637-2.102v-4.945h1.293v4.91c0 1.16.469 1.742 1.402 1.742 1 0 1.66-.375 1.985-1.125v-5.527h1.312v7.61h-1.234zm5.468-8.695v1.836h1.403v1.012h-1.403v4.703c0 .312.063.543.188.695.121.149.336.223.633.223.152 0 .36-.024.62-.074v1.05a3.552 3.552 0 0 1-.991.149c-.575 0-1.012-.176-1.313-.524-.3-.363-.449-.87-.449-1.52v-4.702h-1.387v-1.012h1.387v-1.836zm2.676 5.563c0-.735.145-1.403.43-2.004.3-.598.71-1.055 1.234-1.368a3.334 3.334 0 0 1 1.782-.488c1.035 0 1.87.356 2.507 1.07.649.711.973 1.668.973 2.868v.093c0 .739-.14 1.399-.43 1.989a3.382 3.382 0 0 1-1.214 1.386c-.524.325-1.13.485-1.817.485-1.023 0-1.86-.356-2.508-1.067-.636-.726-.957-1.68-.957-2.867zm1.313.171c0 .836.191 1.512.578 2.024.398.512.926.77 1.574.77.66 0 1.184-.258 1.57-.77.391-.524.582-1.254.582-2.192 0-.824-.199-1.496-.597-2.007-.387-.524-.914-.786-1.574-.786-.637 0-1.157.254-1.555.766-.387.5-.578 1.234-.578 2.195zm10.465 2.793c.46 0 .867-.14 1.218-.414.348-.285.543-.644.578-1.066h1.239a2.387 2.387 0 0 1-.469 1.254 3.058 3.058 0 0 1-1.105.937c-.45.239-.938.356-1.461.356-1.036 0-1.86-.344-2.473-1.031-.598-.7-.899-1.649-.899-2.848v-.227c0-.734.133-1.39.395-1.965a3.07 3.07 0 0 1 1.16-1.332c.512-.324 1.117-.488 1.817-.488.847 0 1.554.258 2.117.77.574.5.879 1.164.918 1.988h-1.239c-.035-.5-.222-.906-.558-1.219a1.759 1.759 0 0 0-1.238-.469c-.66 0-1.172.239-1.536.711-.363.477-.543 1.164-.543 2.063v.242c0 .875.18 1.55.543 2.027.364.473.875.711 1.536.711zm8.836.918c-.075-.148-.137-.418-.184-.808-.602.64-1.32.957-2.156.957-.746 0-1.368-.211-1.852-.637-.476-.426-.71-.969-.71-1.629 0-.789.3-1.398.898-1.836.597-.437 1.449-.66 2.546-.66h1.254v-.598c0-.449-.136-.804-.414-1.066-.261-.277-.66-.414-1.195-.414-.465 0-.852.117-1.164.355-.313.227-.469.508-.469.844h-1.308c0-.387.132-.754.394-1.105a2.76 2.76 0 0 1 1.106-.825c.46-.21.964-.32 1.515-.32.887 0 1.574.219 2.059.656.5.438.762 1.04.785 1.801v3.504c0 .7.09 1.258.262 1.668v.113zm-2.153-.992c.414 0 .801-.11 1.164-.32.36-.211.621-.488.785-.824v-1.555h-1.011c-1.598 0-2.395.469-2.395 1.406 0 .399.137.715.41.953.274.227.625.336 1.047.336zm7.078-6.617l.035.957c.59-.727 1.352-1.09 2.29-1.09 1.609 0 2.418.906 2.433 2.719v5.023h-1.312v-5.043c0-.535-.125-.937-.375-1.199-.235-.262-.618-.394-1.141-.394-.426 0-.8.113-1.125.34a2.268 2.268 0 0 0-.73.878v5.418h-1.29v-7.609zm8.39 0l.036.957c.586-.727 1.348-1.09 2.285-1.09 1.61 0 2.422.906 2.434 2.719v5.023h-1.309v-5.043c0-.535-.125-.937-.375-1.199-.238-.262-.62-.394-1.144-.394-.422 0-.797.113-1.121.34a2.268 2.268 0 0 0-.73.878v5.418h-1.294v-7.609zm6.813 3.73c0-.738.145-1.406.434-2.007.297-.598.711-1.055 1.234-1.368a3.31 3.31 0 0 1 1.778-.488c1.039 0 1.875.356 2.511 1.07.649.711.973 1.668.973 2.868v.093c0 .739-.144 1.399-.43 1.989a3.42 3.42 0 0 1-1.218 1.386c-.524.325-1.13.485-1.817.485-1.023 0-1.86-.356-2.508-1.067-.636-.726-.957-1.68-.957-2.867zm1.313.168c0 .836.191 1.512.578 2.024.402.512.926.77 1.574.77.664 0 1.188-.258 1.575-.77.386-.524.578-1.254.578-2.192 0-.824-.2-1.496-.598-2.007-.387-.524-.91-.786-1.574-.786-.637 0-1.153.254-1.555.766-.387.5-.578 1.234-.578 2.195zm8.652-3.898l.035.957c.586-.727 1.348-1.09 2.286-1.09 1.609 0 2.421.906 2.433 2.719v5.023h-1.308v-5.043c0-.535-.13-.937-.38-1.199-.234-.262-.616-.394-1.14-.394-.422 0-.797.113-1.121.34a2.235 2.235 0 0 0-.73.878v5.418h-1.293v-7.609zm13.461 3.785h-3.43v-1.047h3.43zm3.93 2.906c.465 0 .867-.14 1.219-.414.347-.285.543-.644.582-1.066h1.234c-.023.437-.18.855-.469 1.254-.273.387-.64.699-1.105.937a3.06 3.06 0 0 1-1.461.356c-1.035 0-1.86-.344-2.469-1.031-.601-.7-.898-1.649-.898-2.848v-.227c0-.734.129-1.39.39-1.965.278-.578.664-1.02 1.164-1.332.508-.324 1.114-.488 1.813-.488.851 0 1.555.258 2.117.77.574.5.879 1.164.918 1.988h-1.234c-.04-.5-.227-.906-.563-1.219-.336-.312-.75-.469-1.238-.469-.66 0-1.172.239-1.535.711-.36.477-.543 1.164-.543 2.063v.242c0 .875.183 1.55.543 2.027.363.473.875.711 1.535.711zm11.875.918h-1.293v-8.66l-2.621.957v-1.18l3.726-1.406h.188zm10.539-4.367c0 1.524-.262 2.66-.785 3.41-.512.739-1.324 1.106-2.434 1.106-1.09 0-1.894-.363-2.418-1.086-.523-.723-.797-1.813-.824-3.262v-1.723c0-1.511.258-2.632.77-3.355.523-.738 1.34-1.105 2.453-1.105 1.097 0 1.91.355 2.433 1.066.524.7.793 1.789.805 3.262zm-1.309-1.781c0-1.098-.156-1.899-.468-2.399-.301-.511-.79-.77-1.461-.77-.664 0-1.149.259-1.461.77-.301.5-.45 1.27-.45 2.305v2.082c0 1.098.157 1.918.47 2.453.324.524.808.79 1.46.79.637 0 1.11-.25 1.422-.75.313-.5.473-1.282.488-2.344zm9.696 1.781c0 1.524-.262 2.66-.785 3.41-.512.739-1.32 1.106-2.434 1.106-1.086 0-1.89-.363-2.414-1.086-.527-.723-.8-1.813-.824-3.262v-1.723c0-1.511.254-2.632.765-3.355.528-.738 1.344-1.105 2.453-1.105 1.098 0 1.91.355 2.434 1.066.527.7.793 1.789.805 3.262zm-1.309-1.781c0-1.098-.156-1.899-.469-2.399-.3-.511-.785-.77-1.46-.77-.66 0-1.149.259-1.462.77-.296.5-.449 1.27-.449 2.305v2.082c0 1.098.156 1.918.469 2.453.324.524.813.79 1.46.79.638 0 1.11-.25 1.423-.75.312-.5.476-1.282.488-2.344zm9.719 2.324h-3.43v-1.047h3.43zm.578-.039c0-1.172.273-2.11.824-2.809.551-.71 1.274-1.07 2.172-1.07.887 0 1.594.3 2.117.902v-3.957h1.293v10.797h-1.199l-.059-.824c-.523.649-1.246.973-2.171.973-.872 0-1.59-.363-2.153-1.086-.55-.723-.824-1.668-.824-2.832zm1.293.152c0 .86.176 1.536.523 2.024.364.488.856.73 1.48.73.825 0 1.43-.375 1.817-1.125v-3.484c-.386-.711-.988-1.07-1.797-1.07-.636 0-1.136.246-1.5.734-.347.484-.523 1.215-.523 2.191zm11.46-1.425l.524-5.098h5.242v1.2h-4.14l-.317 2.792c.512-.3 1.086-.45 1.723-.45.926 0 1.66.313 2.211.938.547.614.824 1.442.824 2.493 0 1.05-.289 1.879-.863 2.492-.563.613-1.355.918-2.379.918-.898 0-1.633-.25-2.207-.75-.574-.512-.902-1.211-.976-2.098h1.218c.09.586.301 1.031.637 1.332.336.297.781.45 1.328.45.602 0 1.074-.208 1.426-.622.348-.41.523-.98.523-1.703 0-.687-.187-1.238-.562-1.648-.375-.414-.875-.621-1.496-.621-.563 0-1.008.12-1.332.355l-.336.285zm14.227 1.312h-3.425v-1.047h3.425zm7.305.113c0 1.149-.262 2.079-.785 2.793-.527.711-1.242 1.067-2.156 1.067-.922 0-1.649-.293-2.172-.88v3.653h-1.29v-10.531h1.177l.058.844c.535-.653 1.274-.977 2.211-.977.91 0 1.625.344 2.152 1.031.536.688.805 1.645.805 2.868zm-1.293-.152c0-.86-.187-1.535-.562-2.023-.36-.5-.86-.75-1.496-.75-.786 0-1.375.343-1.762 1.035v3.633c.387.699.98 1.05 1.781 1.05.621 0 1.113-.246 1.477-.73.375-.5.562-1.238.562-2.215zm10.992 3.863h-1.293v-8.66l-2.62.957v-1.18l3.726-1.406h.187zm10.54-4.367c0 1.524-.262 2.66-.786 3.41-.511.739-1.32 1.106-2.433 1.106-1.086 0-1.891-.363-2.414-1.086-.528-.723-.801-1.813-.825-3.262v-1.723c0-1.511.254-2.632.766-3.355.527-.738 1.344-1.105 2.453-1.105 1.098 0 1.91.355 2.434 1.066.527.7.793 1.789.804 3.262zm-1.31-1.781c0-1.098-.155-1.899-.468-2.399-.3-.511-.785-.77-1.46-.77-.661 0-1.15.259-1.462.77-.297.5-.449 1.27-.449 2.305v2.082c0 1.098.156 1.918.469 2.453.324.524.812.79 1.46.79.637 0 1.11-.25 1.423-.75.312-.5.476-1.282.488-2.344zm6.423 2.062c0 1.051-.137 2.055-.414 3.016a8.746 8.746 0 0 1-1.27 2.645c-.562.812-1.148 1.386-1.762 1.722l-.28-.785c.726-.55 1.304-1.406 1.741-2.566.438-1.176.66-2.47.672-3.883v-.223c0-.988-.105-1.906-.316-2.758a8.515 8.515 0 0 0-.864-2.265c-.359-.676-.773-1.2-1.234-1.574l.281-.79c.614.34 1.2.907 1.762 1.707.559.801.98 1.688 1.254 2.66.285.966.43 1.993.43 3.094zm0 0" fill="#999"/><path d="M28.84 285.168l-.04.504c0 .676.305 1.207.919 1.594l4.492.789v1.047l-6.328-1.086v-1.032l.73.149c-.586-.45-.875-.973-.86-1.574 0-.137.032-.305.095-.504zm5.484-2.398c-.011.785-.3 1.402-.86 1.855-.573.438-1.3.625-2.171.559l-.266-.036a4.141 4.141 0 0 1-1.703-.543c-.523-.312-.914-.687-1.18-1.125a2.694 2.694 0 0 1-.374-1.445c.015-.648.234-1.152.656-1.515.414-.375.976-.582 1.687-.622.25-.011.504-.003.766.02l.469.074v4.145c.574.062 1.066-.032 1.48-.282.399-.261.606-.656.617-1.18.012-.624-.27-1.202-.843-1.726l.523-.617c.375.273.676.625.902 1.05.211.411.309.872.297 1.388zm-5.672-.676c-.011.437.137.816.45 1.14.296.329.753.59 1.367.79v-3.09l-.094-.02c-.488-.062-.895.016-1.219.242-.324.211-.492.524-.504.938zm-.898-5.828c.023-.711.281-1.258.766-1.633l-.637-.188v-.992l8.762 1.535v1.051l-3.012-.582c.484.512.719 1.106.691 1.781 0 .59-.219 1.063-.656 1.426-.45.348-1.047.535-1.797.563a5.196 5.196 0 0 1-1.535-.168 4.723 4.723 0 0 1-1.402-.602 2.717 2.717 0 0 1-.899-.973 2.376 2.376 0 0 1-.281-1.218zm3.406 1.87l.488.04c.563.012 1.004-.086 1.329-.301.312-.223.468-.543.468-.953.024-.59-.258-1.113-.843-1.574l-3.13-.563c-.535.262-.808.688-.82 1.274-.011.535.192.988.618 1.347.41.364 1.043.61 1.89.735zm3.781-5.94v.956l-9.246-5.058v-.957zm-2.449-8.602c-.437-.063-.746.176-.918.715l-.32 1.105c-.324.922-.856 1.375-1.59 1.348-.562-.024-1.02-.274-1.367-.75-.363-.489-.54-1.063-.527-1.723 0-.637.187-1.156.562-1.555.363-.402.836-.593 1.422-.582l-.016 1.067a.961.961 0 0 0-.77.3c-.198.2-.304.477-.316.825 0 .363.094.676.282.937a.98.98 0 0 0 .691.434c.363.05.625-.176.785-.676l.152-.527c.188-.723.43-1.235.731-1.535a1.362 1.362 0 0 1 1.121-.43 1.74 1.74 0 0 1 1.031.394c.285.223.512.536.672.934.153.387.219.8.207 1.238 0 .676-.191 1.23-.582 1.668-.387.438-.879.645-1.476.617v-1.046c.347 0 .636-.114.859-.336.215-.227.32-.54.32-.942 0-.387-.082-.719-.246-.992-.172-.285-.41-.45-.707-.488zm1.832-4.817c-.011.79-.3 1.407-.86 1.856-.573.437-1.3.625-2.171.562l-.266-.035a4.2 4.2 0 0 1-1.703-.543c-.523-.312-.914-.687-1.18-1.125a2.703 2.703 0 0 1-.374-1.445c.015-.649.234-1.156.656-1.516.414-.375.976-.582 1.687-.62a5.34 5.34 0 0 1 .766.019l.469.074v4.14c.574.067 1.066-.027 1.48-.277.399-.265.606-.656.617-1.183.012-.625-.27-1.2-.843-1.723l.523-.617c.375.273.676.625.902 1.047.211.414.309.875.297 1.386zm-5.672-.672a1.53 1.53 0 0 0 .45 1.141c.296.324.753.59 1.367.79v-3.095l-.094-.02c-.488-.062-.895.02-1.219.247-.324.21-.492.523-.504.937zm4.793-5.265a1.562 1.562 0 0 0-.32-1.016 1.56 1.56 0 0 0-.898-.597l-.02-1.012c.402.062.77.222 1.105.484.325.266.583.598.77.996.176.387.254.785.242 1.2 0 .523-.129.972-.39 1.347a2.417 2.417 0 0 1-1.125.805 4.008 4.008 0 0 1-1.63.172l-.28-.04a4.233 4.233 0 0 1-1.63-.523 3.087 3.087 0 0 1-1.124-1.105 2.607 2.607 0 0 1-.375-1.5c.015-.664.238-1.196.675-1.594.426-.398.961-.602 1.61-.602v.997c-.41.011-.742.128-.992.355-.262.211-.399.508-.41.883a1.688 1.688 0 0 0 .617 1.387c.41.359 1 .585 1.761.671l.149.02c.25.023.504.031.765.02.465-.028.825-.153 1.09-.375.262-.239.399-.563.41-.973zm-2.66-6.317a10.718 10.718 0 0 1-2.64-.714c-.86-.348-1.59-.774-2.192-1.274-.598-.512-1.055-1.082-1.363-1.707l.73-.168a5.986 5.986 0 0 0 1.797 1.594c.723.437 1.598.773 2.621 1.012 1.012.238 2.004.351 2.977.336.812 0 1.523-.098 2.133-.297.613-.215 1.101-.52 1.46-.918l.657.261c-.45.66-1.117 1.168-2.004 1.516-.887.34-1.902.488-3.05.45a7.11 7.11 0 0 1-1.067-.075zm-2.133-4.968c-.601-.563-.894-1.207-.882-1.93.015-.586.222-1.023.62-1.313.4-.285.954-.394 1.665-.316l4.156.691v1.051l-4.172-.695a1.984 1.984 0 0 0-.527 0c-.547.062-.828.383-.84.957-.016.648.328 1.21 1.027 1.688l4.512.785v1.05l-8.984-1.554v-1.07zm5.559-5.172v1.05l-6.328-1.09v-1.066zm-8.648-.88c0-.175.054-.32.167-.433a.575.575 0 0 1 .45-.187c.187 0 .343.062.468.187a.667.667 0 0 1 .188.45.642.642 0 0 1-.168.449.604.604 0 0 1-.45.168.675.675 0 0 1-.448-.184.64.64 0 0 1-.207-.45zm5.468-.675c-.687-.101-1.289-.289-1.8-.562-.508-.278-.883-.614-1.122-1.012a2.374 2.374 0 0 1-.355-1.332c.023-.723.305-1.274.844-1.649l-.715-.226v-.973l6.199 1.067c.813.113 1.453.445 1.93.996.484.535.715 1.199.691 1.984 0 .438-.101.856-.3 1.258a2.212 2.212 0 0 1-.805.918l-.637-.602c.562-.386.848-.894.863-1.52.024-.51-.113-.94-.414-1.292-.3-.348-.722-.578-1.273-.692l-.563-.113c.528.512.778 1.117.75 1.82-.011.387-.117.73-.316 1.032-.203.285-.488.507-.863.672a4.013 4.013 0 0 1-1.274.261c-.234 0-.516-.011-.84-.035zm.598-1.031c.562.012 1-.082 1.312-.281.297-.211.454-.524.465-.938.028-.637-.281-1.18-.914-1.629l-2.922-.508c-.574.239-.875.664-.898 1.274-.016.578.223 1.05.71 1.426.49.363 1.141.574 1.966.636zm-2.977-7.836c-.601-.563-.894-1.203-.882-1.93.015-.586.222-1.023.62-1.312.4-.285.954-.39 1.665-.317l4.156.692v1.05l-4.172-.69a1.703 1.703 0 0 0-.527 0c-.547.058-.828.378-.84.952-.016.649.328 1.211 1.027 1.688l4.512.785v1.05l-8.984-1.554v-1.066zm5.672-6.766c-.011.79-.3 1.407-.86 1.856-.573.437-1.3.625-2.171.562l-.266-.035a4.145 4.145 0 0 1-1.703-.547c-.523-.308-.914-.683-1.18-1.12a2.712 2.712 0 0 1-.374-1.446c.015-.649.234-1.156.656-1.516.414-.375.976-.582 1.687-.62a5.34 5.34 0 0 1 .766.019l.469.074v4.14c.574.067 1.066-.027 1.48-.277.399-.265.606-.656.617-1.183.012-.625-.27-1.2-.843-1.723l.523-.617c.375.273.676.62.902 1.047.211.414.309.875.297 1.386zm-5.672-.675c-.011.437.137.82.45 1.144.296.324.753.59 1.367.79v-3.095l-.094-.02c-.488-.062-.895.02-1.219.247-.324.21-.492.523-.504.934zm.188-6.52l-.04.508c0 .672.305 1.203.919 1.59l4.492.789v1.047l-6.328-1.086v-1.032l.73.153c-.586-.45-.875-.977-.86-1.574 0-.141.032-.31.095-.508zm5.37-3.203v1.047l-6.327-1.086v-1.067zm-8.648-.883a.57.57 0 0 1 .168-.43.575.575 0 0 1 .45-.187c.187 0 .343.062.468.187a.66.66 0 0 1 .02.899.604.604 0 0 1-.45.168.66.66 0 0 1-.448-.188.633.633 0 0 1-.207-.449zm6.93-4.293c-.437-.062-.746.176-.918.715l-.32 1.105c-.324.922-.856 1.371-1.59 1.348-.562-.023-1.02-.273-1.367-.75-.363-.488-.54-1.062-.527-1.723 0-.636.187-1.156.562-1.554.363-.403.836-.594 1.422-.582l-.016 1.066a.961.961 0 0 0-.77.3c-.198.2-.304.477-.316.825 0 .363.094.676.282.938.175.25.406.394.691.433.363.047.625-.176.785-.676l.152-.527c.188-.723.43-1.234.731-1.535.297-.313.672-.457 1.121-.434.398.028.742.16 1.031.395.285.226.512.539.672.937.153.387.219.801.207 1.239 0 .675-.191 1.23-.582 1.668-.387.437-.879.644-1.476.617v-1.051c.347 0 .636-.11.859-.336.215-.223.32-.535.32-.937 0-.387-.082-.72-.246-.993-.172-.289-.41-.449-.707-.488zm-1.426-10.23a5.193 5.193 0 0 1 1.762.543c.512.273.899.613 1.16 1.011.25.387.367.825.356 1.313-.024.762-.313 1.328-.86 1.703l.727.207v.977l-8.984-1.56v-1.065l3.351.636c-.562-.5-.832-1.113-.808-1.836.015-.613.238-1.086.675-1.425.426-.348 1.016-.532 1.778-.543.25 0 .496.011.734.039zm-.597 1.011c-.574-.015-1.012.086-1.313.301-.3.2-.46.504-.484.918-.016.66.316 1.223.992 1.684l2.77.468c.636-.234.96-.671.972-1.308a1.455 1.455 0 0 0-.355-1.09c-.262-.313-.625-.547-1.086-.71a4.87 4.87 0 0 0-1.496-.263zm3.855-5.191c-.011.785-.3 1.406-.86 1.855-.573.438-1.3.625-2.171.563l-.266-.04a4.141 4.141 0 0 1-1.703-.542c-.523-.313-.914-.688-1.18-1.125a2.694 2.694 0 0 1-.374-1.445c.015-.649.234-1.153.656-1.516.414-.375.976-.582 1.687-.617a4.94 4.94 0 0 1 .766.02l.469.073v4.141c.574.063 1.066-.031 1.48-.281.399-.262.606-.656.617-1.18.012-.625-.27-1.199-.843-1.726l.523-.618c.375.274.676.625.902 1.051.211.41.309.875.297 1.387zm-5.672-.676a1.54 1.54 0 0 0 .45 1.145c.296.324.753.586 1.367.785v-3.09l-.094-.02c-.488-.062-.895.02-1.219.243-.324.214-.492.527-.504.937zm-2.304-5.379l1.535.262v-1.14l.844.148v1.144l3.93.657c.1.011.195.011.284 0 .297-.028.45-.192.45-.489 0-.125-.02-.3-.059-.527l.879.094c.078.25.113.507.113.77-.011.425-.168.741-.465.956-.3.2-.707.281-1.218.242l-3.914-.656v1.125l-.844-.148v-1.106l-1.535-.281zm0-3.597l1.535.261v-1.144l.844.152v1.145l3.93.652a.872.872 0 0 0 .284 0c.297-.023.45-.188.45-.488 0-.121-.02-.297-.059-.524l.879.094c.078.25.113.508.113.77-.011.425-.168.742-.465.957-.3.199-.707.28-1.218.242l-3.914-.656v1.125l-.844-.149v-1.11l-1.535-.277zm7.976-3.543c-.011.789-.3 1.406-.86 1.855-.573.438-1.3.625-2.171.563l-.266-.036a4.204 4.204 0 0 1-1.703-.546c-.523-.313-.914-.688-1.18-1.122a2.712 2.712 0 0 1-.374-1.445c.015-.648.234-1.156.656-1.52.414-.374.976-.577 1.687-.617.25-.011.504-.003.766.02l.469.074v4.14c.574.063 1.066-.03 1.48-.28.399-.262.606-.657.617-1.18.012-.625-.27-1.2-.843-1.723l.523-.62c.375.276.676.624.902 1.05.211.414.309.875.297 1.387zm-5.672-.676c-.011.437.137.82.45 1.144.296.325.753.586 1.367.79v-3.094l-.094-.02c-.488-.062-.895.02-1.219.242-.324.215-.492.528-.504.938zm.188-6.52l-.04.504c0 .676.305 1.207.919 1.594l4.492.789v1.047l-6.328-1.086v-1.031l.73.148c-.586-.45-.875-.972-.86-1.574 0-.137.032-.305.095-.504zm1.945-2.683c.95.14 1.848.39 2.7.75.847.351 1.566.781 2.152 1.297.586.5 1.027 1.054 1.328 1.668l-.676.148c-.996-1.336-2.613-2.23-4.848-2.68a13.473 13.473 0 0 0-2.586-.261c-1.671.023-2.867.43-3.593 1.218l-.657-.265a3.749 3.749 0 0 1 1.22-1.106c.5-.312 1.085-.535 1.76-.672a7.88 7.88 0 0 1 2.08-.187c.37.012.726.035 1.065.074zm62.203 192.406c0 1.262-.218 2.203-.656 2.828-.426.613-1.098.918-2.023.918-.91 0-1.586-.3-2.02-.898-.437-.602-.664-1.5-.676-2.7v-1.441c0-1.266.211-2.195.637-2.793.438-.613 1.117-.918 2.04-.918.925 0 1.597.293 2.022.879.438.586.66 1.492.676 2.719zm-1.086-1.484c0-.922-.132-1.59-.394-2.004-.25-.426-.656-.637-1.219-.637-.547 0-.953.21-1.215.637-.25.414-.375 1.05-.375 1.91v1.746c0 .926.133 1.605.395 2.043.273.437.68.656 1.215.656.539 0 .93-.207 1.18-.62.261-.411.398-1.063.413-1.95zm8.5-.243a3.717 3.717 0 0 0-.523-.035c-.711 0-1.192.297-1.442.899v4.496h-1.09v-6.332h1.051l.02.73c.348-.562.855-.844 1.516-.844.199 0 .355.024.468.075zm3.164 5.473c-.863 0-1.562-.281-2.097-.844-.535-.562-.805-1.316-.805-2.265v-.188c0-.637.117-1.199.356-1.687.25-.5.585-.887 1.011-1.16a2.575 2.575 0 0 1 1.403-.415c.824 0 1.46.27 1.91.805.46.54.691 1.313.691 2.324v.45h-4.285c.012.625.195 1.132.543 1.52a1.72 1.72 0 0 0 1.332.581c.387 0 .71-.078.973-.226.261-.16.492-.375.691-.637l.676.523c-.54.813-1.336 1.22-2.399 1.22zm-.132-5.68c-.438 0-.805.164-1.102.489-.3.312-.48.757-.543 1.332h3.164v-.075c-.027-.55-.176-.976-.453-1.277-.262-.308-.617-.465-1.066-.465zm3.242 2.344c0-1 .222-1.785.672-2.363.46-.574 1.074-.86 1.836-.86.75 0 1.34.25 1.777.75l.059-.636h.992v8.77h-1.086v-3.016c-.438.46-1.02.691-1.742.691-.762 0-1.375-.293-1.836-.879-.45-.601-.672-1.394-.672-2.383zm1.086.133c0 .723.148 1.293.449 1.703.309.414.723.621 1.234.621.649 0 1.14-.289 1.48-.863v-3.094c-.35-.562-.84-.844-1.46-.844-.524 0-.942.215-1.254.641-.3.41-.45 1.023-.45 1.832zm6.57 3.82h-.918l3.559-9.258h.918zm8.277-2.414a.781.781 0 0 0-.34-.676c-.222-.164-.609-.3-1.16-.414-.535-.125-.964-.27-1.293-.43-.324-.163-.566-.355-.726-.581a1.392 1.392 0 0 1-.227-.805c0-.524.219-.961.657-1.313.449-.363 1.011-.543 1.683-.543.727 0 1.305.188 1.742.563.45.363.672.832.672 1.406h-1.086a.97.97 0 0 0-.37-.77c-.25-.21-.571-.32-.958-.32s-.691.09-.918.266a.815.815 0 0 0-.336.672c0 .265.102.465.301.601.21.125.586.25 1.121.375.55.11.992.254 1.332.43.336.164.578.363.73.602.16.234.243.523.243.86 0 .573-.227 1.03-.676 1.366-.45.34-1.035.508-1.758.508-.5 0-.949-.086-1.347-.262a2.37 2.37 0 0 1-.918-.75 1.867 1.867 0 0 1-.32-1.05h1.085c.016.363.156.652.434.863.273.21.629.32 1.066.32.41 0 .742-.082.992-.246.25-.172.375-.398.375-.672zm4.922 1.797c-.86 0-1.558-.281-2.097-.844-.536-.562-.805-1.316-.805-2.265v-.188c0-.637.121-1.199.355-1.687.25-.5.59-.887 1.012-1.16a2.578 2.578 0 0 1 1.406-.415c.825 0 1.457.27 1.91.805.461.54.692 1.313.692 2.324v.45h-4.29c.016.625.196 1.132.544 1.52a1.72 1.72 0 0 0 1.332.581c.387 0 .71-.078.972-.226.262-.16.493-.375.692-.637l.676.523c-.54.813-1.336 1.22-2.399 1.22zm-.129-5.68a1.45 1.45 0 0 0-1.105.489c-.3.312-.48.757-.543 1.332h3.164v-.075c-.023-.55-.176-.976-.45-1.277-.261-.308-.616-.465-1.066-.465zm6.028 4.801a1.6 1.6 0 0 0 1.011-.336c.301-.238.461-.539.489-.902h1.03c-.026.363-.16.71-.394 1.05a2.479 2.479 0 0 1-.918.786 2.687 2.687 0 0 1-1.218.281c-.86 0-1.547-.285-2.059-.863-.5-.574-.75-1.36-.75-2.36v-.187c0-.613.113-1.156.336-1.633.227-.484.55-.86.977-1.121.421-.266.921-.395 1.496-.395.71 0 1.3.211 1.761.637.473.426.73.977.766 1.649h-1.031c-.024-.41-.18-.75-.465-1.012a1.44 1.44 0 0 0-1.031-.395c-.551 0-.973.2-1.274.602-.3.398-.449.973-.449 1.723v.187c0 .738.148 1.309.45 1.707.3.387.726.582 1.273.582zm-73.38-68.812h-1.085v-7.215l-2.192.785v-.973l3.11-1.16h.168zm8.97-3.637c0 1.266-.22 2.207-.657 2.832-.422.613-1.097.918-2.02.918-.913 0-1.585-.3-2.023-.899-.437-.601-.66-1.5-.675-2.699v-1.445c0-1.262.214-2.191.64-2.793.434-.61 1.117-.914 2.04-.914.921 0 1.597.293 2.023.879.433.586.66 1.492.672 2.719zm-1.086-1.48c0-.922-.13-1.59-.395-2.004-.246-.426-.652-.637-1.215-.637-.55 0-.957.21-1.219.637-.25.414-.37 1.05-.37 1.91v1.746c0 .922.128 1.605.39 2.043.277.437.68.652 1.219.652.535 0 .93-.203 1.18-.617.261-.41.398-1.063.41-1.95zm3.015 6.824l-.617-.434c.36-.512.555-1.035.578-1.57v-.977h1.05v.844c0 .387-.1.781-.3 1.18a2.716 2.716 0 0 1-.71.957zm7.656-5.344c0 1.266-.218 2.207-.652 2.832-.426.613-1.101.918-2.023.918-.91 0-1.586-.3-2.024-.899-.437-.601-.66-1.5-.672-2.699v-1.445c0-1.262.211-2.191.637-2.793.438-.61 1.117-.914 2.04-.914.925 0 1.597.293 2.023.879.437.586.66 1.492.671 2.719zm-1.085-1.48c0-.922-.13-1.59-.391-2.004-.25-.426-.656-.637-1.219-.637-.55 0-.953.21-1.219.637-.246.414-.37 1.05-.37 1.91v1.746c0 .922.128 1.605.39 2.043.277.437.684.652 1.219.652s.93-.203 1.18-.617c.261-.41.398-1.063.41-1.95zm8.277 1.48c0 1.266-.219 2.207-.656 2.832-.422.613-1.098.918-2.024.918-.91 0-1.582-.3-2.02-.899-.437-.601-.663-1.5-.675-2.699v-1.445c0-1.262.215-2.191.637-2.793.437-.61 1.117-.914 2.043-.914.921 0 1.597.293 2.02.879.437.586.663 1.492.675 2.719zm-1.086-1.48c0-.922-.133-1.59-.395-2.004-.25-.426-.652-.637-1.214-.637-.551 0-.957.21-1.22.637-.25.414-.374 1.05-.374 1.91v1.746c0 .922.133 1.605.394 2.043.274.437.68.652 1.22.652.534 0 .929-.203 1.179-.617.261-.41.398-1.063.41-1.95zm8.277 1.48c0 1.266-.218 2.207-.656 2.832-.426.613-1.098.918-2.023.918-.91 0-1.586-.3-2.02-.899-.437-.601-.664-1.5-.676-2.699v-1.445c0-1.262.211-2.191.637-2.793.438-.61 1.117-.914 2.04-.914.925 0 1.597.293 2.022.879.438.586.66 1.492.676 2.719zm-1.086-1.48c0-.922-.132-1.59-.394-2.004-.25-.426-.656-.637-1.219-.637-.547 0-.953.21-1.215.637-.25.414-.375 1.05-.375 1.91v1.746c0 .922.133 1.605.395 2.043.273.437.68.652 1.215.652.539 0 .93-.203 1.18-.617.261-.41.398-1.063.413-1.95zm8.5-.243a3.717 3.717 0 0 0-.523-.035c-.711 0-1.192.297-1.442.899v4.496h-1.09v-6.336h1.051l.02.734c.348-.562.855-.844 1.516-.844.199 0 .355.024.468.075zm3.164 5.473c-.863 0-1.562-.281-2.097-.844-.535-.562-.805-1.316-.805-2.265v-.192c0-.633.117-1.195.356-1.683.25-.5.585-.887 1.011-1.164a2.6 2.6 0 0 1 1.403-.41c.824 0 1.46.269 1.91.804.46.54.691 1.313.691 2.324v.45h-4.285c.012.624.195 1.132.543 1.519.352.387.793.578 1.332.578.387 0 .71-.074.973-.223a2.6 2.6 0 0 0 .691-.636l.676.523c-.54.813-1.336 1.219-2.399 1.219zm-.132-5.68c-.438 0-.805.164-1.102.489-.3.312-.48.753-.543 1.332h3.164v-.079c-.027-.546-.176-.972-.453-1.273-.262-.313-.617-.469-1.066-.469zm3.242 2.344c0-1 .222-1.785.672-2.363.46-.575 1.074-.86 1.836-.86.75 0 1.34.25 1.777.75l.059-.64h.992v8.773h-1.086v-3.02c-.438.465-1.02.696-1.742.696-.762 0-1.375-.293-1.836-.883-.45-.598-.672-1.39-.672-2.379zm1.086.133c0 .722.148 1.293.449 1.703.309.414.723.617 1.234.617.649 0 1.14-.285 1.48-.86v-3.093c-.35-.563-.84-.844-1.46-.844-.524 0-.942.215-1.254.637-.3.414-.45 1.027-.45 1.84zm6.57 3.82h-.918l3.559-9.258h.918zm8.277-2.418a.78.78 0 0 0-.34-.672c-.222-.164-.609-.3-1.16-.414-.535-.125-.964-.27-1.293-.43-.324-.164-.566-.355-.726-.582a1.392 1.392 0 0 1-.227-.804c0-.528.219-.965.657-1.313.449-.363 1.011-.543 1.683-.543.727 0 1.305.188 1.742.563.45.363.672.828.672 1.402h-1.086a.968.968 0 0 0-.37-.765c-.25-.215-.571-.32-.958-.32s-.691.09-.918.261a.827.827 0 0 0-.336.676c0 .261.102.46.301.601.21.125.586.25 1.121.375.55.11.992.254 1.332.43.336.164.578.363.73.602.16.234.243.523.243.859 0 .574-.227 1.031-.676 1.367-.45.34-1.035.508-1.758.508-.5 0-.949-.086-1.347-.262a2.37 2.37 0 0 1-.918-.75 1.867 1.867 0 0 1-.32-1.05h1.085c.016.363.156.652.434.863.273.21.629.316 1.066.316.41 0 .742-.078.992-.242.25-.176.375-.399.375-.676zm4.922 1.8c-.86 0-1.558-.28-2.097-.843-.536-.562-.805-1.316-.805-2.265v-.192c0-.633.121-1.195.355-1.683.25-.5.59-.887 1.012-1.164.438-.274.906-.41 1.406-.41.825 0 1.457.269 1.91.804.461.54.692 1.313.692 2.324v.45h-4.29c.016.624.196 1.132.544 1.519.351.387.793.578 1.332.578.387 0 .71-.074.972-.223a2.6 2.6 0 0 0 .692-.636l.676.523c-.54.813-1.336 1.219-2.399 1.219zm-.129-5.679a1.45 1.45 0 0 0-1.105.489c-.3.312-.48.753-.543 1.332h3.164v-.079c-.023-.546-.176-.972-.45-1.273-.261-.313-.616-.469-1.066-.469zm6.028 4.797c.386 0 .726-.11 1.011-.336a1.22 1.22 0 0 0 .489-.898h1.03c-.026.363-.16.71-.394 1.05a2.479 2.479 0 0 1-.918.786 2.687 2.687 0 0 1-1.218.28c-.86 0-1.547-.288-2.059-.862-.5-.575-.75-1.364-.75-2.364v-.183c0-.613.113-1.156.336-1.633.227-.488.55-.86.977-1.121.421-.266.921-.395 1.496-.395.71 0 1.3.211 1.761.637.473.426.73.973.766 1.649h-1.031a1.427 1.427 0 0 0-.465-1.012 1.44 1.44 0 0 0-1.031-.395c-.551 0-.973.2-1.274.602-.3.398-.449.972-.449 1.722v.188c0 .738.148 1.309.45 1.707.3.387.726.578 1.273.578zM62.074 223.02h-5.578v-.786l2.938-3.28c.437-.49.738-.888.898-1.2a1.96 1.96 0 0 0 .262-.977c0-.437-.137-.797-.41-1.086-.262-.289-.618-.43-1.067-.43-.539 0-.957.157-1.258.47-.297.296-.449.722-.449 1.273h-1.086c0-.79.25-1.418.75-1.895.512-.484 1.192-.73 2.04-.73.788 0 1.413.207 1.874.621.461.41.692.965.692 1.664 0 .84-.535 1.84-1.61 3l-2.265 2.477h4.27zm6.946-3.633c0 1.258-.22 2.203-.657 2.828-.422.61-1.097.918-2.02.918-.913 0-1.585-.301-2.023-.899-.437-.601-.66-1.5-.675-2.699v-1.445c0-1.262.214-2.192.64-2.793.434-.61 1.117-.918 2.04-.918.921 0 1.597.293 2.023.883.433.586.66 1.492.672 2.715zm-1.086-1.485c0-.925-.13-1.593-.395-2.004-.246-.425-.652-.636-1.215-.636-.55 0-.957.21-1.219.636-.25.41-.37 1.051-.37 1.91v1.747c0 .922.128 1.601.39 2.039.277.437.68.656 1.219.656.535 0 .93-.203 1.18-.617.261-.414.398-1.063.41-1.95zm3.015 6.825l-.617-.434c.36-.512.555-1.035.578-1.574v-.973h1.05v.844c0 .387-.1.781-.3 1.18a2.752 2.752 0 0 1-.71.957zm7.656-5.344c0 1.262-.218 2.207-.652 2.832-.426.613-1.101.918-2.023.918-.91 0-1.586-.301-2.024-.899-.437-.601-.66-1.5-.672-2.699v-1.445c0-1.262.211-2.192.637-2.793.438-.61 1.117-.918 2.04-.918.925 0 1.597.293 2.023.883.437.586.66 1.492.671 2.715zm-1.085-1.48c0-.926-.13-1.594-.391-2.005-.25-.425-.656-.636-1.219-.636-.55 0-.953.21-1.219.636-.246.41-.37 1.051-.37 1.91v1.747c0 .922.128 1.601.39 2.039.277.437.684.656 1.219.656s.93-.203 1.18-.617c.261-.414.398-1.063.41-1.95zm8.277 1.48c0 1.262-.219 2.207-.656 2.832-.422.613-1.098.918-2.024.918-.91 0-1.582-.301-2.02-.899-.437-.601-.663-1.5-.675-2.699v-1.445c0-1.262.215-2.192.637-2.793.437-.61 1.117-.918 2.043-.918.921 0 1.597.293 2.02.883.437.586.663 1.492.675 2.715zm-1.086-1.48c0-.926-.133-1.594-.395-2.005-.25-.425-.652-.636-1.214-.636-.551 0-.957.21-1.22.636-.25.41-.374 1.051-.374 1.91v1.747c0 .922.133 1.601.394 2.039.274.437.68.656 1.22.656.534 0 .929-.203 1.179-.617.261-.414.398-1.063.41-1.95zm8.277 1.48c0 1.262-.218 2.207-.656 2.832-.426.613-1.098.918-2.023.918-.91 0-1.586-.301-2.02-.899-.437-.601-.664-1.5-.676-2.699v-1.445c0-1.262.211-2.192.637-2.793.438-.61 1.117-.918 2.04-.918.925 0 1.597.293 2.022.883.438.586.66 1.492.676 2.715zm-1.086-1.48c0-.926-.132-1.594-.394-2.005-.25-.425-.656-.636-1.219-.636-.547 0-.953.21-1.215.636-.25.41-.375 1.051-.375 1.91v1.747c0 .922.133 1.601.395 2.039.273.437.68.656 1.215.656.539 0 .93-.203 1.18-.617.261-.414.398-1.063.413-1.95zm8.5-.243a3.2 3.2 0 0 0-.523-.039c-.711 0-1.192.3-1.442.899v4.5h-1.09v-6.333h1.051l.02.727c.348-.562.855-.844 1.516-.844.199 0 .355.028.468.078zm3.164 5.473c-.863 0-1.562-.281-2.097-.844-.535-.562-.805-1.316-.805-2.266v-.191c0-.637.117-1.2.356-1.684.25-.5.585-.886 1.011-1.164a2.608 2.608 0 0 1 1.403-.414c.824 0 1.46.27 1.91.809.46.535.691 1.312.691 2.324v.45h-4.285c.012.624.195 1.128.543 1.519.352.387.793.578 1.332.578.387 0 .71-.074.973-.223a2.6 2.6 0 0 0 .691-.636l.676.523c-.54.813-1.336 1.219-2.399 1.219zm-.132-5.68c-.438 0-.805.164-1.102.488-.3.313-.48.754-.543 1.332h3.164v-.078c-.027-.547-.176-.972-.453-1.273-.262-.313-.617-.469-1.066-.469zm3.242 2.344c0-1 .222-1.79.672-2.363.46-.575 1.074-.864 1.836-.864.75 0 1.34.25 1.777.75l.059-.632h.992v8.769h-1.086v-3.02c-.438.465-1.02.696-1.742.696-.762 0-1.375-.293-1.836-.883-.45-.598-.672-1.39-.672-2.379zm1.086.133c0 .722.148 1.289.449 1.703.309.414.723.617 1.234.617.649 0 1.14-.285 1.48-.86v-3.093c-.35-.563-.84-.844-1.46-.844-.524 0-.942.215-1.254.637-.3.414-.45 1.027-.45 1.836zm6.57 3.82h-.918l3.559-9.258h.918zm8.277-2.418a.78.78 0 0 0-.34-.672c-.222-.164-.609-.3-1.16-.414-.535-.125-.964-.27-1.293-.434-.324-.16-.566-.355-.726-.578a1.4 1.4 0 0 1-.227-.804c0-.528.219-.965.657-1.313.449-.363 1.011-.547 1.683-.547.727 0 1.305.192 1.742.567.45.36.672.828.672 1.402h-1.086a.968.968 0 0 0-.37-.766c-.25-.214-.571-.32-.958-.32s-.691.09-.918.262a.827.827 0 0 0-.336.676c0 .261.102.46.301.601.21.121.586.246 1.121.371.55.114.992.258 1.332.434.336.16.578.363.73.598.16.238.243.527.243.863 0 .574-.227 1.031-.676 1.367-.45.34-1.035.508-1.758.508-.5 0-.949-.09-1.347-.262a2.37 2.37 0 0 1-.918-.75 1.867 1.867 0 0 1-.32-1.05h1.085c.016.363.156.648.434.863.273.21.629.316 1.066.316.41 0 .742-.078.992-.242.25-.176.375-.403.375-.676zm4.922 1.8c-.86 0-1.558-.28-2.097-.843-.536-.562-.805-1.316-.805-2.266v-.191c0-.637.121-1.2.355-1.684.25-.5.59-.886 1.012-1.164a2.611 2.611 0 0 1 1.406-.414c.825 0 1.457.27 1.91.809.461.535.692 1.312.692 2.324v.45h-4.29c.016.624.196 1.128.544 1.519.351.387.793.578 1.332.578.387 0 .71-.074.972-.223a2.6 2.6 0 0 0 .692-.636l.676.523c-.54.813-1.336 1.219-2.399 1.219zm-.129-5.679a1.45 1.45 0 0 0-1.105.488c-.3.313-.48.754-.543 1.332h3.164v-.078c-.023-.547-.176-.972-.45-1.273-.261-.313-.616-.469-1.066-.469zm6.028 4.797c.386 0 .726-.11 1.011-.336.301-.238.461-.539.489-.898h1.03a2.1 2.1 0 0 1-.394 1.047c-.226.328-.53.59-.918.789a2.687 2.687 0 0 1-1.218.28c-.86 0-1.547-.288-2.059-.862-.5-.575-.75-1.36-.75-2.36v-.187c0-.614.113-1.157.336-1.633a2.53 2.53 0 0 1 .977-1.125c.421-.262.921-.395 1.496-.395.71 0 1.3.215 1.761.64.473.423.73.974.766 1.65h-1.031a1.427 1.427 0 0 0-.465-1.012 1.44 1.44 0 0 0-1.031-.395c-.551 0-.973.2-1.274.602-.3.398-.449.972-.449 1.722v.188c0 .738.148 1.305.45 1.707.3.387.726.578 1.273.578zm-75.364-73.605h.805c.512 0 .91-.133 1.2-.395.3-.262.449-.617.449-1.066 0-1-.5-1.5-1.497-1.5-.464 0-.84.136-1.125.41-.273.261-.41.613-.41 1.05h-1.086c0-.675.25-1.23.746-1.667.5-.45 1.125-.676 1.875-.676.809 0 1.442.21 1.891.637.461.425.691 1.011.691 1.761 0 .375-.117.738-.355 1.086a2.153 2.153 0 0 1-.992.79c.472.136.836.382 1.086.73.261.34.394.757.394 1.257 0 .762-.25 1.368-.75 1.817-.5.45-1.148.676-1.949.676-.797 0-1.453-.215-1.965-.637-.5-.438-.75-1.012-.75-1.727h1.106c0 .45.144.813.433 1.086.285.266.68.395 1.176.395.527 0 .926-.137 1.2-.41.273-.278.41-.668.41-1.184 0-.488-.153-.86-.465-1.121-.301-.277-.739-.414-1.313-.414h-.805zm10.954 1.16c0 1.261-.22 2.207-.657 2.832-.422.61-1.097.918-2.02.918-.913 0-1.585-.301-2.023-.903-.437-.597-.66-1.496-.675-2.695v-1.445c0-1.262.214-2.192.64-2.793.434-.61 1.117-.918 2.04-.918.921 0 1.597.293 2.023.883.433.586.66 1.492.672 2.714zm-1.086-1.48c0-.927-.13-1.595-.395-2.005-.246-.425-.652-.636-1.215-.636-.55 0-.957.21-1.219.636-.25.41-.37 1.047-.37 1.91v1.743c0 .925.128 1.605.39 2.043.277.437.68.656 1.219.656.535 0 .93-.207 1.18-.617.261-.414.398-1.063.41-1.95zm3.015 6.823l-.617-.433c.36-.512.555-1.035.578-1.574v-.973h1.05v.844c0 .386-.1.777-.3 1.18a2.752 2.752 0 0 1-.71.956zm7.656-5.343c0 1.261-.218 2.207-.652 2.832-.426.61-1.101.918-2.023.918-.91 0-1.586-.301-2.024-.903-.437-.597-.66-1.496-.672-2.695v-1.445c0-1.262.211-2.192.637-2.793.438-.61 1.117-.918 2.04-.918.925 0 1.597.293 2.023.883.437.586.66 1.492.671 2.714zm-1.085-1.48c0-.927-.13-1.595-.391-2.005-.25-.425-.656-.636-1.219-.636-.55 0-.953.21-1.219.636-.246.41-.37 1.047-.37 1.91v1.743c0 .925.128 1.605.39 2.043.277.437.684.656 1.219.656s.93-.207 1.18-.617c.261-.414.398-1.063.41-1.95zm8.277 1.48c0 1.261-.219 2.207-.656 2.832-.422.61-1.098.918-2.024.918-.91 0-1.582-.301-2.02-.903-.437-.597-.663-1.496-.675-2.695v-1.445c0-1.262.215-2.192.637-2.793.437-.61 1.117-.918 2.043-.918.921 0 1.597.293 2.02.883.437.586.663 1.492.675 2.714zm-1.086-1.48c0-.927-.133-1.595-.395-2.005-.25-.425-.652-.636-1.214-.636-.551 0-.957.21-1.22.636-.25.41-.374 1.047-.374 1.91v1.743c0 .925.133 1.605.394 2.043.274.437.68.656 1.22.656.534 0 .929-.207 1.179-.617.261-.414.398-1.063.41-1.95zm8.277 1.48c0 1.261-.218 2.207-.656 2.832-.426.61-1.098.918-2.023.918-.91 0-1.586-.301-2.02-.903-.437-.597-.664-1.496-.676-2.695v-1.445c0-1.262.211-2.192.637-2.793.438-.61 1.117-.918 2.04-.918.925 0 1.597.293 2.022.883.438.586.66 1.492.676 2.714zm-1.086-1.48c0-.927-.132-1.595-.394-2.005-.25-.425-.656-.636-1.219-.636-.547 0-.953.21-1.215.636-.25.41-.375 1.047-.375 1.91v1.743c0 .925.133 1.605.395 2.043.273.437.68.656 1.215.656.539 0 .93-.207 1.18-.617.261-.414.398-1.063.413-1.95zm8.5-.243a3.201 3.201 0 0 0-.523-.039c-.711 0-1.192.3-1.442.898v4.5h-1.09v-6.336h1.051l.02.735c.348-.563.855-.848 1.516-.848.199 0 .355.028.468.078zm3.164 5.473c-.863 0-1.562-.282-2.097-.844-.535-.563-.805-1.32-.805-2.27v-.187c0-.637.117-1.2.356-1.684.25-.5.585-.89 1.011-1.164a2.608 2.608 0 0 1 1.403-.414c.824 0 1.46.27 1.91.809.46.535.691 1.312.691 2.324v.45h-4.285c.012.624.195 1.128.543 1.515.352.39.793.582 1.332.582.387 0 .71-.074.973-.223a2.6 2.6 0 0 0 .691-.637l.676.524c-.54.812-1.336 1.219-2.399 1.219zm-.132-5.68c-.438 0-.805.16-1.102.488-.3.313-.48.754-.543 1.328h3.164v-.074c-.027-.55-.176-.972-.453-1.273-.262-.313-.617-.469-1.066-.469zm3.242 2.344c0-1 .222-1.79.672-2.364.46-.574 1.074-.863 1.836-.863.75 0 1.34.25 1.777.75l.059-.637h.992v8.774h-1.086v-3.02c-.438.465-1.02.696-1.742.696-.762 0-1.375-.293-1.836-.883-.45-.598-.672-1.395-.672-2.379zm1.086.129c0 .726.148 1.293.449 1.707.309.41.723.617 1.234.617.649 0 1.14-.285 1.48-.86v-3.093c-.35-.563-.84-.844-1.46-.844-.524 0-.942.21-1.254.637-.3.414-.45 1.023-.45 1.836zm6.57 3.824h-.918l3.559-9.258h.918zm8.277-2.418a.786.786 0 0 0-.34-.676c-.222-.16-.609-.297-1.16-.41-.535-.125-.964-.27-1.293-.434-.324-.16-.566-.355-.726-.578a1.414 1.414 0 0 1-.227-.808c0-.524.219-.961.657-1.309.449-.363 1.011-.547 1.683-.547.727 0 1.305.188 1.742.563.45.363.672.832.672 1.406h-1.086a.968.968 0 0 0-.37-.766c-.25-.215-.571-.32-.958-.32s-.691.086-.918.262a.827.827 0 0 0-.336.675c0 .262.102.461.301.598.21.125.586.25 1.121.375.55.113.992.258 1.332.434.336.16.578.363.73.597.16.239.243.524.243.864 0 .574-.227 1.03-.676 1.367-.45.336-1.035.508-1.758.508-.5 0-.949-.09-1.347-.262a2.37 2.37 0 0 1-.918-.75 1.876 1.876 0 0 1-.32-1.05h1.085c.016.362.156.648.434.862.273.211.629.317 1.066.317.41 0 .742-.082.992-.242.25-.176.375-.399.375-.676zm4.922 1.8c-.86 0-1.558-.28-2.097-.843-.536-.563-.805-1.32-.805-2.27v-.187c0-.637.121-1.2.355-1.684.25-.5.59-.89 1.012-1.164a2.611 2.611 0 0 1 1.406-.414c.825 0 1.457.27 1.91.809.461.535.692 1.312.692 2.324v.45h-4.29c.016.624.196 1.128.544 1.515.351.39.793.582 1.332.582.387 0 .71-.074.972-.223a2.6 2.6 0 0 0 .692-.637l.676.524c-.54.812-1.336 1.219-2.399 1.219zm-.129-5.679c-.437 0-.804.16-1.105.488-.3.313-.48.754-.543 1.328h3.164v-.074c-.023-.55-.176-.972-.45-1.273-.261-.313-.616-.469-1.066-.469zm6.028 4.797a1.6 1.6 0 0 0 1.011-.336c.301-.238.461-.54.489-.899h1.03a2.1 2.1 0 0 1-.394 1.047 2.524 2.524 0 0 1-.918.79 2.687 2.687 0 0 1-1.218.28c-.86 0-1.547-.288-2.059-.863-.5-.574-.75-1.363-.75-2.363v-.187c0-.61.113-1.157.336-1.63a2.53 2.53 0 0 1 .977-1.124c.421-.262.921-.395 1.496-.395.71 0 1.3.215 1.761.637.473.426.73.976.766 1.652h-1.031a1.427 1.427 0 0 0-.465-1.011 1.44 1.44 0 0 0-1.031-.395c-.551 0-.973.2-1.274.598-.3.402-.449.976-.449 1.726v.188c0 .738.148 1.304.45 1.703.3.39.726.582 1.273.582zM61.062 80.996h1.18v.879h-1.18v1.988h-1.085v-1.988h-3.875v-.637l3.8-5.902h1.16zm-3.746 0h2.66v-4.18l-.132.243zm11.704-.77c0 1.262-.22 2.208-.657 2.833-.422.609-1.097.914-2.02.914-.913 0-1.585-.297-2.023-.899-.437-.597-.66-1.5-.675-2.699v-1.441c0-1.262.214-2.192.64-2.793.434-.614 1.117-.918 2.04-.918.921 0 1.597.293 2.023.879.433.59.66 1.496.672 2.718zm-1.086-1.48c0-.926-.13-1.594-.395-2.004-.246-.426-.652-.64-1.215-.64-.55 0-.957.214-1.219.64-.25.41-.37 1.047-.37 1.91v1.743c0 .925.128 1.605.39 2.043.277.437.68.656 1.219.656.535 0 .93-.207 1.18-.617.261-.415.398-1.063.41-1.95zm3.015 6.82l-.617-.43c.36-.511.555-1.034.578-1.573v-.977h1.05v.844c0 .39-.1.78-.3 1.183a2.7 2.7 0 0 1-.71.953zm7.656-5.34c0 1.262-.218 2.208-.652 2.833-.426.609-1.101.914-2.023.914-.91 0-1.586-.297-2.024-.899-.437-.597-.66-1.5-.672-2.699v-1.441c0-1.262.211-2.192.637-2.793.438-.614 1.117-.918 2.04-.918.925 0 1.597.293 2.023.879.437.59.66 1.496.671 2.718zm-1.085-1.48c0-.926-.13-1.594-.391-2.004-.25-.426-.656-.64-1.219-.64-.55 0-.953.214-1.219.64-.246.41-.37 1.047-.37 1.91v1.743c0 .925.128 1.605.39 2.043.277.437.684.656 1.219.656s.93-.207 1.18-.617c.261-.415.398-1.063.41-1.95zm8.277 1.48c0 1.262-.219 2.208-.656 2.833-.422.609-1.098.914-2.024.914-.91 0-1.582-.297-2.02-.899-.437-.597-.663-1.5-.675-2.699v-1.441c0-1.262.215-2.192.637-2.793.437-.614 1.117-.918 2.043-.918.921 0 1.597.293 2.02.879.437.59.663 1.496.675 2.718zm-1.086-1.48c0-.926-.133-1.594-.395-2.004-.25-.426-.652-.64-1.214-.64-.551 0-.957.214-1.22.64-.25.41-.374 1.047-.374 1.91v1.743c0 .925.133 1.605.394 2.043.274.437.68.656 1.22.656.534 0 .929-.207 1.179-.617.261-.415.398-1.063.41-1.95zm8.277 1.48c0 1.262-.218 2.208-.656 2.833-.426.609-1.098.914-2.023.914-.91 0-1.586-.297-2.02-.899-.437-.597-.664-1.5-.676-2.699v-1.441c0-1.262.211-2.192.637-2.793.438-.614 1.117-.918 2.04-.918.925 0 1.597.293 2.022.879.438.59.66 1.496.676 2.718zm-1.086-1.48c0-.926-.132-1.594-.394-2.004-.25-.426-.656-.64-1.219-.64-.547 0-.953.214-1.215.64-.25.41-.375 1.047-.375 1.91v1.743c0 .925.133 1.605.395 2.043.273.437.68.656 1.215.656.539 0 .93-.207 1.18-.617.261-.415.398-1.063.413-1.95zm8.5-.242a3.2 3.2 0 0 0-.523-.04c-.711 0-1.192.302-1.442.9v4.5h-1.09v-6.337h1.051l.02.73c.348-.562.855-.843 1.516-.843.199 0 .355.027.468.074zm3.164 5.469c-.863 0-1.562-.282-2.097-.84-.535-.563-.805-1.32-.805-2.27v-.187c0-.637.117-1.2.356-1.688.25-.5.585-.886 1.011-1.16a2.608 2.608 0 0 1 1.403-.414c.824 0 1.46.27 1.91.809.46.535.691 1.308.691 2.324v.45h-4.285c.012.624.195 1.128.543 1.515a1.72 1.72 0 0 0 1.332.582c.387 0 .71-.074.973-.223a2.63 2.63 0 0 0 .691-.64l.676.527c-.54.812-1.336 1.215-2.399 1.215zm-.132-5.676c-.438 0-.805.16-1.102.484-.3.313-.48.758-.543 1.332h3.164v-.074c-.027-.55-.176-.973-.453-1.273-.262-.313-.617-.47-1.066-.47zm3.242 2.34c0-.996.222-1.785.672-2.36.46-.574 1.074-.863 1.836-.863.75 0 1.34.25 1.777.75l.059-.637h.992v8.77h-1.086V83.28c-.438.461-1.02.692-1.742.692-.762 0-1.375-.293-1.836-.88-.45-.6-.672-1.394-.672-2.378zm1.086.133c0 .726.148 1.293.449 1.707.309.41.723.617 1.234.617.649 0 1.14-.29 1.48-.864v-3.09c-.35-.562-.84-.843-1.46-.843-.524 0-.942.21-1.254.637-.3.414-.45 1.027-.45 1.84zm6.57 3.824h-.918l3.559-9.258h.918zm8.277-2.418a.786.786 0 0 0-.34-.676c-.222-.16-.609-.3-1.16-.41-.535-.125-.964-.27-1.293-.434-.324-.16-.566-.355-.726-.582a1.392 1.392 0 0 1-.227-.804c0-.524.219-.961.657-1.313.449-.36 1.011-.543 1.683-.543.727 0 1.305.188 1.742.563.45.363.672.832.672 1.406h-1.086c0-.301-.12-.555-.37-.77-.25-.21-.571-.316-.958-.316s-.691.086-.918.262a.822.822 0 0 0-.336.675c0 .262.102.461.301.598.21.125.586.25 1.121.375.55.113.992.258 1.332.434.336.16.578.359.73.597.16.239.243.524.243.864 0 .574-.227 1.03-.676 1.367-.45.336-1.035.504-1.758.504-.5 0-.949-.086-1.347-.262a2.397 2.397 0 0 1-.918-.746 1.876 1.876 0 0 1-.32-1.05h1.085c.016.362.156.647.434.858.273.215.629.32 1.066.32.41 0 .742-.081.992-.241.25-.176.375-.403.375-.676zm4.922 1.797c-.86 0-1.558-.282-2.097-.84-.536-.563-.805-1.32-.805-2.27v-.187c0-.637.121-1.2.355-1.688.25-.5.59-.886 1.012-1.16a2.611 2.611 0 0 1 1.406-.414c.825 0 1.457.27 1.91.809.461.535.692 1.308.692 2.324v.45h-4.29c.016.624.196 1.128.544 1.515a1.72 1.72 0 0 0 1.332.582c.387 0 .71-.074.972-.223.262-.164.493-.379.692-.64l.676.527c-.54.812-1.336 1.215-2.399 1.215zm-.129-5.676c-.437 0-.804.16-1.105.484-.3.313-.48.758-.543 1.332h3.164v-.074c-.023-.55-.176-.973-.45-1.273-.261-.313-.616-.47-1.066-.47zm6.028 4.797c.386 0 .726-.114 1.011-.336a1.23 1.23 0 0 0 .489-.903h1.03a2.1 2.1 0 0 1-.394 1.051 2.524 2.524 0 0 1-.918.79 2.736 2.736 0 0 1-1.218.277c-.86 0-1.547-.285-2.059-.86-.5-.574-.75-1.363-.75-2.363v-.188c0-.609.113-1.156.336-1.628a2.53 2.53 0 0 1 .977-1.125c.421-.262.921-.395 1.496-.395.71 0 1.3.215 1.761.637.473.426.73.976.766 1.652h-1.031a1.443 1.443 0 0 0-.465-1.016c-.277-.261-.617-.39-1.031-.39-.551 0-.973.2-1.274.598-.3.402-.449.976-.449 1.726v.188c0 .738.148 1.304.45 1.703.3.386.726.582 1.273.582zm0 0" fill="#b7b7b7"/><path d="M219.402 372.879c.575-.7 1.32-1.05 2.246-1.05 1.61 0 2.422.905 2.434 2.718v5.023h-1.312v-5.043c0-.535-.122-.937-.372-1.199-.238-.262-.617-.394-1.144-.394-.422 0-.797.113-1.121.34a2.268 2.268 0 0 0-.73.878v5.418h-1.294v-10.797h1.293zm11.778 6.691c-.075-.152-.137-.418-.188-.808-.597.64-1.316.957-2.152.957-.75 0-1.367-.211-1.856-.637-.472-.426-.71-.969-.71-1.633 0-.785.3-1.398.898-1.832.598-.437 1.45-.66 2.547-.66h1.254v-.598c0-.449-.137-.804-.414-1.066-.262-.277-.66-.414-1.196-.414-.46 0-.851.117-1.164.355-.308.227-.465.508-.465.844h-1.312c0-.387.133-.758.394-1.105.274-.352.641-.625 1.106-.825.46-.214.965-.32 1.516-.32.886 0 1.574.219 2.058.656.5.438.762 1.04.79 1.801v3.504c0 .7.085 1.254.26 1.668v.113zm-2.153-.992c.41 0 .797-.11 1.16-.32.36-.211.625-.488.786-.824v-1.555h-1.012c-1.598 0-2.395.469-2.395 1.406 0 .399.137.715.41.953.274.227.626.336 1.051.336zm12.262-2.719c0 1.149-.262 2.079-.785 2.793-.524.711-1.242 1.067-2.152 1.067-.926 0-1.649-.293-2.172-.88v3.653h-1.293v-10.531h1.18l.054.844c.54-.653 1.274-.977 2.211-.977.91 0 1.629.344 2.152 1.031.536.688.805 1.645.805 2.868zm-1.293-.152c0-.86-.187-1.535-.562-2.023-.36-.5-.86-.75-1.496-.75-.786 0-1.372.343-1.758 1.03v3.638c.386.699.976 1.05 1.777 1.05.625 0 1.117-.246 1.477-.73.379-.5.566-1.238.566-2.215zm4.684 3.863h-1.293v-7.61h1.293zm-1.407-9.617c0-.21.063-.39.188-.543.137-.148.332-.223.582-.223.25 0 .437.075.562.223a.782.782 0 0 1 .204.543.757.757 0 0 1-.204.527c-.125.137-.312.207-.562.207-.25 0-.445-.07-.582-.207a.8.8 0 0 1-.188-.527zm111.844 6.094l-.824.844v2.68H353v-10.798h1.293v6.524l.691-.824 2.38-2.512h1.574l-2.961 3.184 3.316 4.425h-1.535zm4.719-.356c0-.738.144-1.406.43-2.007.3-.598.71-1.055 1.234-1.368a3.334 3.334 0 0 1 1.781-.488c1.035 0 1.871.356 2.508 1.07.649.711.973 1.668.973 2.868v.093c0 .735-.14 1.399-.43 1.989a3.347 3.347 0 0 1-1.215 1.382c-.527.329-1.133.489-1.816.489-1.024 0-1.86-.356-2.512-1.067-.637-.726-.953-1.683-.953-2.867zm1.312.168c0 .836.192 1.512.579 2.024.398.512.925.77 1.574.77.66 0 1.183-.258 1.57-.77.387-.524.582-1.254.582-2.192 0-.828-.2-1.496-.598-2.007-.39-.524-.914-.786-1.574-.786-.636 0-1.156.254-1.554.766-.387.5-.579 1.23-.579 2.195zm12.114 3.711c-.075-.152-.137-.418-.188-.808-.601.64-1.316.957-2.152.957-.75 0-1.367-.211-1.856-.637-.472-.426-.71-.969-.71-1.633 0-.785.3-1.398.898-1.832.601-.437 1.45-.66 2.547-.66h1.254v-.598c0-.449-.137-.804-.41-1.066-.262-.277-.665-.414-1.2-.414-.46 0-.847.117-1.164.355-.308.227-.465.508-.465.844h-1.312c0-.387.133-.754.394-1.105.274-.352.641-.625 1.106-.825.46-.21.965-.32 1.516-.32.886 0 1.574.219 2.058.656.5.438.762 1.04.79 1.801v3.504c0 .7.085 1.254.26 1.668v.113zm-2.157-.992c.415 0 .801-.11 1.165-.32.359-.211.62-.488.785-.824v-1.555h-1.012c-1.598 0-2.395.469-2.395 1.406 0 .399.137.715.41.953.274.227.626.336 1.047.336zm116.153-8.453v1.836h1.402v1.012h-1.402v4.703c0 .312.062.543.187.695.125.149.336.223.633.223.152 0 .36-.024.621-.074v1.05a3.554 3.554 0 0 1-.992.149c-.574 0-1.012-.176-1.312-.524-.297-.363-.45-.87-.45-1.52v-4.702h-1.386v-1.012h1.386v-1.836zm6.703 2.996a5.49 5.49 0 0 0-.637-.035c-.863 0-1.441.363-1.742 1.086v5.398h-1.293v-7.61h1.254l.02.88c.425-.672 1.03-1.012 1.816-1.012.25 0 .445.031.582.094zm4.27 6.598c-1.036 0-1.88-.336-2.528-1.012-.637-.687-.957-1.602-.957-2.734v-.227c0-.762.145-1.437.43-2.023.289-.602.687-1.063 1.199-1.387a3.04 3.04 0 0 1 1.688-.508c.984 0 1.75.324 2.3.977.551.648.825 1.578.825 2.789v.547h-5.149c.024.75.242 1.355.656 1.816.422.461.961.695 1.61.695.449 0 .828-.093 1.14-.28.325-.188.614-.438.864-.75l.785.616c-.637.989-1.59 1.48-2.864 1.48zm-.168-6.82c-.528 0-.97.19-1.333.581-.347.375-.562.903-.636 1.59h3.8v-.093c-.035-.66-.218-1.172-.542-1.536-.309-.363-.743-.543-1.29-.543zm6.328 3.148l-.825.844v2.68h-1.293v-10.798h1.293v6.524l.692-.824 2.379-2.512h1.574l-2.961 3.184 3.316 4.425h-1.539zm0 0"/><path d="M609.293 74.266c0-.66.535-1.2 1.2-1.2h11.98a1.2 1.2 0 0 1 1.199 1.2v11.996c0 .664-.535 1.199-1.2 1.199h-11.98a1.197 1.197 0 0 1-1.199-1.2zm0 0" fill="#0b5394"/><path d="M641.555 85.063H640.3l-4.719-7.235v7.234h-1.234v-9.39h1.234l4.738 7.273v-7.273h1.235zm1.87-3.543c0-.688.134-1.301.395-1.836.274-.551.649-.977 1.121-1.274.489-.3 1.04-.453 1.649-.453.95 0 1.719.332 2.305.996.585.649.878 1.524.878 2.621v.078c0 .672-.132 1.285-.394 1.836a2.987 2.987 0 0 1-1.121 1.254c-.477.301-1.024.45-1.649.45-.949 0-1.714-.325-2.3-.973-.59-.664-.883-1.54-.883-2.625zm1.2.132c0 .774.18 1.399.543 1.871.363.465.844.696 1.441.696.602 0 1.075-.239 1.422-.711.364-.477.543-1.137.543-1.988 0-.774-.18-1.399-.543-1.875a1.72 1.72 0 0 0-1.441-.711c-.586 0-1.059.238-1.422.71-.363.465-.543 1.133-.543 2.008zm6.027-.132c0-1.075.25-1.938.75-2.586.512-.649 1.172-.977 1.985-.977.824 0 1.472.281 1.949.844v-3.633h1.2v9.894h-1.106l-.059-.75c-.473.586-1.137.88-1.984.88-.813 0-1.473-.329-1.985-.993-.5-.66-.75-1.523-.75-2.586zm1.18.132c0 .785.164 1.403.488 1.856.336.449.793.672 1.367.672.747 0 1.297-.336 1.649-1.012v-3.203c-.363-.664-.914-.992-1.649-.992-.574 0-1.03.222-1.367.672-.324.449-.488 1.12-.488 2.007zm9.176 3.54c-.938 0-1.703-.305-2.305-.919-.586-.62-.879-1.46-.879-2.511v-.203c0-.7.133-1.32.395-1.856a2.98 2.98 0 0 1 1.105-1.277 2.764 2.764 0 0 1 1.555-.469c.898 0 1.598.3 2.094.902.511.598.77 1.454.77 2.567v.488h-4.72c.012.688.207 1.242.579 1.668.39.426.882.637 1.48.637.426 0 .781-.086 1.066-.266.29-.172.547-.398.77-.672l.73.563c-.586.898-1.468 1.347-2.64 1.347zm-.133-6.258c-.484 0-.89.175-1.215.523-.324.352-.523.844-.597 1.48h3.48v-.093c-.035-.598-.203-1.067-.504-1.406-.289-.336-.676-.504-1.164-.504zm4.477 5.507c0-.21.054-.386.168-.523.125-.137.308-.207.543-.207.25 0 .437.07.562.207a.712.712 0 0 1 .207.523.67.67 0 0 1-.207.489c-.125.136-.313.207-.563.207-.234 0-.417-.07-.542-.207a.763.763 0 0 1-.168-.489zm4.793-6.351v7.777c0 1.336-.606 2.004-1.817 2.004-.262 0-.504-.035-.73-.11v-.956c.136.039.32.058.543.058.265 0 .464-.078.601-.226.137-.137.203-.387.203-.75V78.09zm-1.31-1.856a.67.67 0 0 1 .169-.468c.125-.137.297-.207.523-.207.223 0 .399.07.524.207a.662.662 0 0 1 .187.488.636.636 0 0 1-.187.469c-.125.125-.305.187-.543.187-.223 0-.39-.062-.504-.187a.7.7 0 0 1-.168-.489zm7.731 6.973a.842.842 0 0 0-.375-.73c-.234-.188-.66-.344-1.27-.47-.6-.136-1.073-.292-1.425-.468-.348-.176-.61-.387-.785-.637-.176-.25-.262-.55-.262-.902 0-.574.242-1.055.73-1.441.485-.399 1.106-.602 1.852-.602.79 0 1.426.207 1.91.621.5.399.75.918.75 1.555h-1.199c0-.324-.137-.606-.41-.844-.277-.238-.625-.355-1.05-.355-.434 0-.778.097-1.028.3a.883.883 0 0 0-.356.73c0 .286.11.505.336.657.223.137.637.274 1.235.41.601.137 1.082.301 1.441.489.375.175.653.394.824.656.176.261.262.582.262.957 0 .625-.25 1.125-.746 1.496-.488.375-1.133.562-1.93.562-.562 0-1.054-.097-1.48-.296a2.572 2.572 0 0 1-1.008-.825 2.005 2.005 0 0 1-.36-1.144h1.18c.028.386.188.699.489.937.3.239.691.356 1.18.356.449 0 .812-.086 1.085-.266a.854.854 0 0 0 .41-.746zm12.66-6.86l-3.894 8.716h-1.238l3.86-8.399h-5.075v-.992h6.348zm0 0" fill="#666"/><path d="M609.293 103.055c0-.664.535-1.2 1.2-1.2h11.98c.664 0 1.199.536 1.199 1.2v11.992a1.2 1.2 0 0 1-1.2 1.203h-11.98a1.2 1.2 0 0 1-1.199-1.203zm0 0" fill="#3d85c6"/><path d="M641.555 113.848H640.3l-4.719-7.235v7.235h-1.234v-9.387h1.234l4.738 7.27v-7.27h1.235zm1.87-3.54c0-.687.134-1.3.395-1.84a3.13 3.13 0 0 1 1.121-1.273c.489-.3 1.04-.449 1.649-.449.95 0 1.719.332 2.305.992.585.649.878 1.524.878 2.625v.075c0 .675-.132 1.289-.394 1.835-.262.54-.637.957-1.121 1.258-.477.297-1.024.45-1.649.45-.949 0-1.714-.325-2.3-.973-.59-.664-.883-1.54-.883-2.625zm1.2.13c0 .773.18 1.398.543 1.874.363.461.844.696 1.441.696.602 0 1.075-.238 1.422-.715.364-.473.543-1.137.543-1.984 0-.778-.18-1.403-.543-1.875a1.714 1.714 0 0 0-1.441-.715c-.586 0-1.059.238-1.422.715-.363.46-.543 1.129-.543 2.004zm6.027-.133c0-1.075.25-1.934.75-2.586.512-.649 1.172-.973 1.985-.973.824 0 1.472.281 1.949.844v-3.637h1.2v9.895h-1.106l-.059-.75c-.473.59-1.137.882-1.984.882-.813 0-1.473-.332-1.985-.992-.5-.664-.75-1.527-.75-2.586zm1.18.132c0 .79.164 1.407.488 1.856.336.45.793.676 1.367.676.747 0 1.297-.34 1.649-1.012v-3.207c-.363-.66-.914-.992-1.649-.992-.574 0-1.03.226-1.367.676-.324.449-.488 1.117-.488 2.004zm9.176 3.543c-.938 0-1.703-.308-2.305-.918-.586-.624-.879-1.46-.879-2.511v-.207c0-.7.133-1.317.395-1.856.261-.55.629-.972 1.105-1.273a2.764 2.764 0 0 1 1.555-.469c.898 0 1.598.3 2.094.899.511.601.77 1.457.77 2.566v.488h-4.72c.012.688.207 1.242.579 1.668.39.426.882.64 1.48.64.426 0 .781-.089 1.066-.265.29-.176.547-.398.77-.676l.73.563c-.586.902-1.468 1.351-2.64 1.351zm-.133-6.261c-.484 0-.89.176-1.215.527-.324.348-.523.844-.597 1.48h3.48v-.093c-.035-.602-.203-1.07-.504-1.406-.289-.336-.676-.508-1.164-.508zm4.477 5.511c0-.21.054-.386.168-.523.125-.137.308-.207.543-.207.25 0 .437.07.562.207a.712.712 0 0 1 .207.523c0 .188-.07.348-.207.489-.125.136-.313.203-.563.203-.234 0-.417-.067-.542-.203a.771.771 0 0 1-.168-.489zm4.793-6.355v7.781c0 1.336-.606 2.004-1.817 2.004-.262 0-.504-.039-.73-.113v-.953c.136.035.32.054.543.054.265 0 .464-.074.601-.226.137-.137.203-.387.203-.75v-7.797zm-1.31-1.855a.67.67 0 0 1 .169-.465c.125-.14.297-.207.523-.207.223 0 .399.066.524.207a.653.653 0 0 1 .187.484.636.636 0 0 1-.187.469c-.125.125-.305.187-.543.187-.223 0-.39-.062-.504-.187a.694.694 0 0 1-.168-.488zm7.731 6.972a.847.847 0 0 0-.375-.73c-.234-.188-.66-.344-1.27-.469-.6-.137-1.073-.293-1.425-.465-.348-.176-.61-.39-.785-.64a1.524 1.524 0 0 1-.262-.899c0-.574.242-1.055.73-1.441.485-.403 1.106-.602 1.852-.602.79 0 1.426.207 1.91.617.5.399.75.918.75 1.555h-1.199c0-.324-.137-.606-.41-.84-.277-.238-.625-.36-1.05-.36-.434 0-.778.102-1.028.302a.888.888 0 0 0-.356.73c0 .29.11.508.336.656.223.137.637.274 1.235.414.601.137 1.082.301 1.441.489.375.171.653.39.824.652.176.266.262.582.262.957 0 .625-.25 1.125-.746 1.5-.488.375-1.133.562-1.93.562-.562 0-1.054-.101-1.48-.3a2.507 2.507 0 0 1-1.008-.825 1.996 1.996 0 0 1-.36-1.144h1.18c.028.39.188.703.489.937.3.239.691.36 1.18.36.449 0 .812-.09 1.085-.266.274-.187.41-.437.41-.75zm12.286-5.078c0 .477-.125.895-.375 1.254-.239.363-.57.652-.993.863.489.2.875.508 1.16.918.29.403.434.856.434 1.371 0 .809-.277 1.461-.824 1.946-.55.476-1.27.714-2.156.714-.91 0-1.633-.238-2.172-.714-.535-.485-.805-1.137-.805-1.946 0-.515.137-.968.41-1.37.278-.41.657-.723 1.145-.938a2.49 2.49 0 0 1-.992-.844 2.279 2.279 0 0 1-.356-1.254c0-.785.25-1.41.746-1.875.512-.46 1.188-.691 2.024-.691.824 0 1.484.23 1.984.691.512.465.77 1.09.77 1.875zm-.977 4.387c0-.528-.168-.95-.504-1.278-.324-.335-.754-.503-1.293-.503-.535 0-.965.164-1.289.488-.324.324-.488.754-.488 1.293 0 .523.156.941.469 1.254.324.3.765.453 1.328.453.55 0 .98-.153 1.293-.453.324-.313.484-.73.484-1.254zm-1.777-5.98c-.473 0-.856.144-1.141.433-.289.285-.434.68-.434 1.18 0 .472.145.863.434 1.16.285.289.668.433 1.14.433.477 0 .856-.144 1.145-.433.285-.297.43-.688.43-1.16 0-.477-.149-.864-.45-1.164a1.54 1.54 0 0 0-1.124-.45zm0 0" fill="#666"/><path d="M609.293 131.84c0-.66.535-1.2 1.2-1.2h11.98a1.2 1.2 0 0 1 1.199 1.2v11.996c0 .664-.535 1.2-1.2 1.2h-11.98a1.198 1.198 0 0 1-1.199-1.2zm0 0" fill="#6fa8dc"/><path d="M641.555 142.637H640.3l-4.719-7.235v7.235h-1.234v-9.39h1.234l4.738 7.273v-7.274h1.235zm1.87-3.543c0-.688.134-1.301.395-1.836.274-.551.649-.977 1.121-1.274.489-.3 1.04-.453 1.649-.453.95 0 1.719.332 2.305.996.585.649.878 1.524.878 2.621v.079a4.22 4.22 0 0 1-.394 1.835 2.987 2.987 0 0 1-1.121 1.254c-.477.301-1.024.45-1.649.45-.949 0-1.714-.325-2.3-.973-.59-.664-.883-1.54-.883-2.625zm1.2.133c0 .773.18 1.398.543 1.87.363.465.844.696 1.441.696.602 0 1.075-.238 1.422-.711.364-.477.543-1.137.543-1.988 0-.774-.18-1.399-.543-1.875a1.72 1.72 0 0 0-1.441-.711c-.586 0-1.059.238-1.422.71-.363.466-.543 1.134-.543 2.009zm6.027-.133c0-1.074.25-1.938.75-2.586.512-.649 1.172-.977 1.985-.977.824 0 1.472.281 1.949.844v-3.633h1.2v9.895h-1.106l-.059-.75c-.473.586-1.137.879-1.984.879-.813 0-1.473-.328-1.985-.993-.5-.66-.75-1.523-.75-2.585zm1.18.133c0 .785.164 1.402.488 1.855.336.45.793.672 1.367.672.747 0 1.297-.336 1.649-1.012v-3.203c-.363-.664-.914-.992-1.649-.992-.574 0-1.03.223-1.367.672-.324.449-.488 1.12-.488 2.008zm9.176 3.539c-.938 0-1.703-.305-2.305-.918-.586-.625-.879-1.461-.879-2.512v-.203c0-.7.133-1.32.395-1.856a2.98 2.98 0 0 1 1.105-1.277 2.764 2.764 0 0 1 1.555-.469c.898 0 1.598.301 2.094.903.511.597.77 1.453.77 2.566v.488h-4.72c.012.688.207 1.242.579 1.668.39.426.882.637 1.48.637.426 0 .781-.086 1.066-.266.29-.172.547-.398.77-.672l.73.563c-.586.898-1.468 1.348-2.64 1.348zm-.133-6.258a1.6 1.6 0 0 0-1.215.523c-.324.352-.523.844-.597 1.48h3.48v-.093c-.035-.598-.203-1.066-.504-1.406-.289-.336-.676-.504-1.164-.504zm4.477 5.508c0-.211.054-.387.168-.524.125-.137.308-.207.543-.207.25 0 .437.07.562.207a.712.712 0 0 1 .207.524.67.67 0 0 1-.207.488c-.125.137-.313.207-.563.207-.234 0-.417-.07-.542-.207a.763.763 0 0 1-.168-.488zm4.793-6.352v7.777c0 1.336-.606 2.004-1.817 2.004-.262 0-.504-.035-.73-.11v-.956c.136.039.32.055.543.055.265 0 .464-.075.601-.223.137-.137.203-.387.203-.75v-7.797zm-1.31-1.855a.67.67 0 0 1 .169-.47c.125-.136.297-.206.523-.206.223 0 .399.07.524.207a.662.662 0 0 1 .187.488.636.636 0 0 1-.187.469c-.125.125-.305.187-.543.187-.223 0-.39-.062-.504-.187a.7.7 0 0 1-.168-.488zm7.731 6.972a.842.842 0 0 0-.375-.73c-.234-.188-.66-.344-1.27-.469-.6-.137-1.073-.293-1.425-.469-.348-.175-.61-.386-.785-.636-.176-.25-.262-.551-.262-.903 0-.574.242-1.054.73-1.441.485-.399 1.106-.602 1.852-.602.79 0 1.426.207 1.91.621.5.399.75.918.75 1.555h-1.199c0-.324-.137-.605-.41-.844-.277-.238-.625-.355-1.05-.355-.434 0-.778.097-1.028.3a.883.883 0 0 0-.356.731c0 .285.11.504.336.656.223.137.637.274 1.235.41.601.137 1.082.301 1.441.489.375.176.653.394.824.656.176.262.262.582.262.957 0 .625-.25 1.125-.746 1.496-.488.375-1.133.563-1.93.563-.562 0-1.054-.098-1.48-.297a2.572 2.572 0 0 1-1.008-.824 2.005 2.005 0 0 1-.36-1.145h1.18c.028.387.188.7.489.938.3.238.691.355 1.18.355.449 0 .812-.086 1.085-.266a.854.854 0 0 0 .41-.746zm11.16-2.265a3.09 3.09 0 0 1-.898.73c-.336.172-.71.258-1.121.258-.539 0-1.012-.129-1.426-.39a2.788 2.788 0 0 1-.933-1.126 3.953 3.953 0 0 1-.32-1.613c0-.625.117-1.184.355-1.684.25-.515.594-.902 1.031-1.164.438-.261.941-.394 1.516-.394.937 0 1.668.351 2.191 1.05.535.688.805 1.633.805 2.833v.336c0 1.824-.364 3.16-1.086 4.007-.711.84-1.797 1.266-3.258 1.278h-.227v-.992h.247c.984-.028 1.738-.286 2.265-.77.535-.5.824-1.29.86-2.363zm-1.835 0c.402 0 .77-.121 1.105-.36.34-.25.59-.554.75-.918v-.488c0-.773-.176-1.406-.523-1.89-.34-.489-.762-.735-1.274-.735-.523 0-.949.2-1.273.602-.313.398-.469.925-.469 1.574 0 .648.148 1.18.45 1.594.312.41.722.617 1.234.617zm0 0" fill="#666"/><path d="M609.293 160.629c0-.664.535-1.2 1.2-1.2h11.98c.664 0 1.199.536 1.199 1.2v11.992a1.2 1.2 0 0 1-1.2 1.203h-11.98a1.2 1.2 0 0 1-1.199-1.203zm0 0" fill="#9fc5e8"/><path d="M641.555 171.422H640.3l-4.719-7.234v7.234h-1.234v-9.387h1.234l4.738 7.27v-7.27h1.235zm1.87-3.54c0-.687.134-1.3.395-1.839a3.13 3.13 0 0 1 1.121-1.273 3.084 3.084 0 0 1 1.649-.45c.95 0 1.719.332 2.305.993.585.648.878 1.523.878 2.625v.074c0 .675-.132 1.289-.394 1.836a2.972 2.972 0 0 1-1.121 1.257c-.477.297-1.024.45-1.649.45-.949 0-1.714-.325-2.3-.973-.59-.664-.883-1.539-.883-2.625zm1.2.13c0 .773.18 1.398.543 1.875.363.46.844.695 1.441.695.602 0 1.075-.238 1.422-.715.364-.472.543-1.137.543-1.984 0-.778-.18-1.403-.543-1.875a1.714 1.714 0 0 0-1.441-.715c-.586 0-1.059.238-1.422.715-.363.46-.543 1.129-.543 2.004zm6.027-.133c0-1.074.25-1.934.75-2.586.512-.648 1.172-.973 1.985-.973.824 0 1.472.282 1.949.844v-3.637h1.2v9.895h-1.106l-.059-.75c-.473.59-1.137.883-1.984.883-.813 0-1.473-.332-1.985-.993-.5-.664-.75-1.527-.75-2.585zm1.18.133c0 .789.164 1.406.488 1.855.336.45.793.676 1.367.676.747 0 1.297-.34 1.649-1.012v-3.207c-.363-.66-.914-.992-1.649-.992-.574 0-1.03.227-1.367.676-.324.449-.488 1.117-.488 2.004zm9.176 3.543c-.938 0-1.703-.309-2.305-.918-.586-.625-.879-1.461-.879-2.512v-.207c0-.7.133-1.316.395-1.856.261-.55.629-.976 1.105-1.273a2.764 2.764 0 0 1 1.555-.469c.898 0 1.598.301 2.094.899.511.601.77 1.457.77 2.566v.488h-4.72c.012.688.207 1.247.579 1.668.39.426.882.641 1.48.641.426 0 .781-.09 1.066-.266.29-.175.547-.398.77-.675l.73.566c-.586.898-1.468 1.348-2.64 1.348zm-.133-6.262c-.484 0-.89.176-1.215.527-.324.348-.523.844-.597 1.48h3.48v-.093c-.035-.602-.203-1.07-.504-1.406-.289-.34-.676-.508-1.164-.508zm4.477 5.512c0-.215.054-.387.168-.524.125-.136.308-.207.543-.207.25 0 .437.07.562.207a.706.706 0 0 1 .207.524c0 .187-.07.347-.207.488-.125.137-.313.203-.563.203-.234 0-.417-.066-.542-.203a.771.771 0 0 1-.168-.488zm4.793-6.356v7.781c0 1.336-.606 2.004-1.817 2.004-.262 0-.504-.039-.73-.113v-.953c.136.035.32.055.543.055.265 0 .464-.075.601-.227.137-.137.203-.387.203-.75v-7.797zm-1.31-1.855a.67.67 0 0 1 .169-.465c.125-.14.297-.207.523-.207.223 0 .399.066.524.207a.653.653 0 0 1 .187.484.636.636 0 0 1-.187.469c-.125.125-.305.188-.543.188-.223 0-.39-.063-.504-.188a.694.694 0 0 1-.168-.488zm7.731 6.972a.847.847 0 0 0-.375-.73c-.234-.188-.66-.344-1.27-.469-.6-.137-1.073-.293-1.425-.465-.348-.175-.61-.39-.785-.64a1.524 1.524 0 0 1-.262-.899c0-.574.242-1.054.73-1.445.485-.398 1.106-.598 1.852-.598.79 0 1.426.207 1.91.618.5.398.75.917.75 1.554h-1.199c0-.324-.137-.605-.41-.844-.277-.234-.625-.355-1.05-.355-.434 0-.778.102-1.028.3a.888.888 0 0 0-.356.731c0 .29.11.508.336.656.223.137.637.274 1.235.415.601.136 1.082.3 1.441.488.375.172.653.39.824.652.176.266.262.582.262.957 0 .625-.25 1.125-.746 1.5-.488.375-1.133.563-1.93.563-.562 0-1.054-.098-1.48-.301a2.507 2.507 0 0 1-1.008-.824 1.996 1.996 0 0 1-.36-1.145h1.18c.028.387.188.703.489.938.3.238.691.359 1.18.359.449 0 .812-.09 1.085-.266.274-.187.41-.437.41-.75zm10.524 1.856h-1.2v-7.945l-2.413.878v-1.085l3.425-1.274h.188zm9.137-3.992c0 1.386-.235 2.425-.711 3.113-.473.672-1.22 1.012-2.227 1.012-1 0-1.742-.332-2.23-.993-.473-.664-.715-1.656-.73-2.98v-1.594c0-1.375.237-2.394.714-3.054.473-.676 1.215-1.012 2.227-1.012 1.011 0 1.753.324 2.226.973.477.636.719 1.632.73 2.98zm-1.176-1.63c0-1.01-.145-1.75-.434-2.21-.289-.465-.738-.695-1.347-.695-.598 0-1.043.23-1.332.695-.274.45-.415 1.156-.43 2.117v1.89c0 1.028.144 1.782.433 2.27.297.477.746.715 1.348.715.586 0 1.024-.227 1.309-.676.289-.465.437-1.183.449-2.156zM32.32 38.442a11.04 11.04 0 0 0-1.462-.113c-1.535 0-2.539.52-3.015 1.559v9.949h-4.059v-15.22h3.836l.113 1.82c.813-1.398 1.942-2.097 3.391-2.097a4.2 4.2 0 0 1 1.254.183zm9.25 11.676c-2.235 0-4.051-.68-5.45-2.043-1.398-1.375-2.094-3.195-2.094-5.469v-.394c0-1.54.293-2.906.88-4.106.597-1.199 1.433-2.125 2.507-2.773 1.086-.664 2.324-.992 3.707-.992 2.074 0 3.707.652 4.906 1.965 1.2 1.312 1.797 3.175 1.797 5.586v1.668h-9.68c.126.988.52 1.78 1.18 2.379.66.601 1.496.902 2.508.902 1.563 0 2.785-.57 3.672-1.707l1.984 2.25c-.601.863-1.422 1.535-2.472 2.023-1.036.477-2.184.711-3.446.711zm-.47-12.48c-.796 0-1.453.273-1.964.824-.5.539-.817 1.312-.953 2.324h5.652v-.32c-.023-.899-.273-1.59-.75-2.078-.461-.5-1.121-.75-1.984-.75zm17.864 12.199c-.188-.36-.324-.816-.41-1.367-.989 1.101-2.266 1.648-3.84 1.648-1.485 0-2.723-.43-3.707-1.293-.973-.86-1.461-1.949-1.461-3.261 0-1.61.594-2.848 1.777-3.708 1.2-.863 2.93-1.3 5.188-1.312h1.875v-.863c0-.711-.184-1.274-.543-1.688-.364-.426-.93-.637-1.707-.637-.684 0-1.223.165-1.61.489-.386.324-.578.773-.578 1.347h-4.062c0-.875.265-1.687.804-2.433.547-.75 1.317-1.34 2.301-1.762 1-.437 2.117-.656 3.352-.656 1.87 0 3.36.472 4.457 1.422 1.097.937 1.648 2.261 1.648 3.972v6.578c.012 1.45.219 2.543.617 3.282v.242zm-3.371-2.828a3.49 3.49 0 0 0 1.648-.395c.512-.273.895-.636 1.145-1.086v-2.605h-1.52c-2.035 0-3.113.7-3.238 2.098l-.02.246c0 .511.176.93.524 1.254.363.324.851.488 1.46.488zm14.418 2.828h-4.063v-21.59h4.063zm10.804-7.121h-7.902v-3.278h7.902zm16.102 1.594l2.004-9.692h3.914l-3.879 15.219H95.55l-2.864-9.574-2.882 9.574h-3.39l-3.876-15.219h3.914l1.984 9.672 2.79-9.672h2.921zm7.734-2.211c0-1.512.285-2.856.86-4.032.59-1.187 1.425-2.105 2.511-2.754 1.086-.648 2.352-.972 3.801-.972 2.047 0 3.719.629 5.016 1.89 1.3 1.25 2.023 2.958 2.176 5.118l.015 1.03c0 2.337-.648 4.212-1.945 5.622-1.3 1.414-3.047 2.117-5.246 2.117-2.184 0-3.93-.699-5.242-2.097-1.297-1.41-1.946-3.329-1.946-5.754zm4.043.28c0 1.45.27 2.556.805 3.317.55.762 1.332 1.145 2.34 1.145.988 0 1.758-.375 2.305-1.125.562-.762.843-1.969.843-3.617 0-1.426-.281-2.524-.843-3.297-.547-.778-1.32-1.164-2.32-1.164-1 0-1.774.386-2.325 1.164-.535.773-.805 1.965-.805 3.578zm21.89-3.937a11.146 11.146 0 0 0-1.46-.113c-1.535 0-2.543.52-3.016 1.559v9.949h-4.062v-15.22h3.84l.11 1.82c.812-1.398 1.94-2.097 3.39-2.097.449 0 .867.062 1.254.183zm6.536 11.395h-4.062v-21.59h4.062zm2.281-7.719c0-2.375.532-4.262 1.594-5.66 1.059-1.414 2.516-2.117 4.363-2.117 1.473 0 2.688.555 3.649 1.664v-7.758h4.082v21.59h-3.668l-.188-1.61c-1.011 1.262-2.316 1.891-3.914 1.891-1.785 0-3.222-.703-4.304-2.117-1.075-1.41-1.614-3.371-1.614-5.883zm4.047.297c0 1.426.25 2.52.746 3.281.5.75 1.227 1.125 2.176 1.125 1.246 0 2.125-.523 2.637-1.574V39.23c-.496-1.05-1.371-1.574-2.621-1.574-1.961 0-2.938 1.586-2.938 4.758zm24.508-6.125c1.074-1.3 2.43-1.95 4.063-1.95 3.296 0 4.964 1.919 5 5.755v9.742h-4.043v-9.633c0-.875-.188-1.516-.563-1.93-.375-.41-1-.617-1.871-.617-1.188 0-2.05.457-2.586 1.367v10.813h-4.062v-21.59h4.062zm16.477-5.398v3.73h2.601v2.977h-2.601v7.593c0 .559.105.965.32 1.22.21.234.625.35 1.234.35.45 0 .848-.03 1.2-.093v3.074a8.18 8.18 0 0 1-2.454.375c-2.847 0-4.3-1.433-4.363-4.308v-8.211h-2.207v-2.98h2.207V30.89zm9.586 0v3.73h2.605v2.977h-2.605v7.593c0 .559.109.965.32 1.22.21.234.625.35 1.234.35.45 0 .852-.03 1.2-.093v3.074a8.16 8.16 0 0 1-2.454.375c-2.843 0-4.3-1.433-4.363-4.308v-8.211h-2.207v-2.98h2.207V30.89zm18.406 11.488c0 2.336-.528 4.21-1.59 5.621-1.063 1.414-2.496 2.117-4.309 2.117-1.535 0-2.777-.535-3.726-1.61v7.177h-4.063V34.617h3.766l.148 1.5c.989-1.187 2.266-1.777 3.84-1.777 1.871 0 3.324.691 4.363 2.078 1.047 1.387 1.57 3.3 1.57 5.734zm-4.063-.3c0-1.411-.25-2.5-.75-3.263-.496-.773-1.226-1.16-2.187-1.16-1.274 0-2.149.489-2.625 1.461v6.223c.5 1 1.387 1.5 2.66 1.5 1.937 0 2.902-1.586 2.902-4.762zm18.164-7.462l.11 1.707c1.09-1.324 2.547-1.984 4.383-1.984 1.949 0 3.289.773 4.027 2.324 1.058-1.55 2.582-2.324 4.566-2.324 1.649 0 2.871.48 3.672 1.441.809.961 1.215 2.41 1.215 4.348v9.707h-4.082V40.13c0-.863-.168-1.484-.504-1.875-.336-.399-.93-.598-1.777-.598-1.227 0-2.067.582-2.532 1.742l.02 10.438h-4.063v-9.688c0-.875-.175-1.503-.523-1.894-.351-.399-.937-.598-1.762-.598-1.16 0-1.996.473-2.507 1.422v10.758h-4.063v-15.22zm25.633 15.219h-4.062v-15.22h4.062zm-4.308-19.152c0-.602.199-1.094.601-1.48.41-.4.965-.599 1.664-.599.7 0 1.254.2 1.668.598.41.387.617.879.617 1.48 0 .626-.21 1.137-.636 1.536-.41.39-.961.582-1.649.582-.672 0-1.222-.192-1.644-.582-.414-.399-.621-.91-.621-1.535zm6.59 11.433c0-2.375.53-4.262 1.593-5.66 1.063-1.414 2.516-2.117 4.363-2.117 1.473 0 2.692.555 3.653 1.664v-7.758h4.078v21.59h-3.668l-.188-1.61c-1.011 1.262-2.316 1.891-3.914 1.891-1.785 0-3.218-.703-4.304-2.117-1.075-1.41-1.614-3.371-1.614-5.883zm4.046.297c0 1.426.25 2.52.75 3.281.496.75 1.223 1.125 2.172 1.125 1.246 0 2.125-.523 2.64-1.574V39.23c-.5-1.05-1.374-1.574-2.624-1.574-1.957 0-2.938 1.586-2.938 4.758zm12.73-.297c0-2.375.532-4.262 1.594-5.66 1.063-1.414 2.516-2.117 4.364-2.117 1.472 0 2.687.555 3.648 1.664v-7.758h4.082v21.59h-3.668l-.187-1.61c-1.012 1.262-2.317 1.891-3.914 1.891-1.785 0-3.219-.703-4.305-2.117-1.074-1.41-1.613-3.371-1.613-5.883zm4.048.297c0 1.426.25 2.52.746 3.281.5.75 1.226 1.125 2.175 1.125 1.247 0 2.125-.523 2.637-1.574V39.23c-.496-1.05-1.37-1.574-2.62-1.574-1.958 0-2.938 1.586-2.938 4.758zm17.636 7.422h-4.062v-21.59h4.062zm9.907.281c-2.235 0-4.051-.68-5.45-2.043-1.398-1.375-2.097-3.195-2.097-5.469v-.394c0-1.54.293-2.906.879-4.106.601-1.199 1.437-2.125 2.511-2.773 1.086-.664 2.32-.992 3.707-.992 2.07 0 3.707.652 4.903 1.965 1.199 1.312 1.8 3.175 1.8 5.586v1.668h-9.683c.125.988.52 1.78 1.183 2.379.66.601 1.497.902 2.508.902 1.559 0 2.782-.57 3.668-1.707l1.985 2.25c-.598.863-1.422 1.535-2.47 2.023-1.034.477-2.183.711-3.444.711zm-.47-12.48c-.8 0-1.452.273-1.964.824-.5.539-.82 1.312-.957 2.324h5.656v-.32c-.027-.899-.277-1.59-.75-2.078-.46-.5-1.125-.75-1.984-.75zm22.263 6.672l2.003-9.692h3.915l-3.88 15.219h-3.406l-2.863-9.574-2.883 9.574h-3.39l-3.875-15.219h3.91l1.984 9.672 2.793-9.672h2.922zm17.171 5.527c-.187-.36-.324-.816-.414-1.367-.984 1.101-2.265 1.648-3.84 1.648-1.484 0-2.718-.43-3.703-1.293-.976-.86-1.464-1.949-1.464-3.261 0-1.61.593-2.848 1.78-3.708 1.2-.863 2.927-1.3 5.188-1.312h1.871v-.863c0-.711-.18-1.274-.543-1.688-.359-.426-.93-.637-1.703-.637-.687 0-1.222.165-1.61.489-.386.324-.581.773-.581 1.347h-4.063c0-.875.27-1.687.805-2.433.55-.75 1.317-1.34 2.305-1.762.996-.437 2.113-.656 3.351-.656 1.871 0 3.356.472 4.453 1.422 1.098.937 1.649 2.261 1.649 3.972v6.578c.012 1.45.219 2.543.617 3.282v.242zm-3.37-2.828c.597 0 1.148-.133 1.648-.395.512-.273.89-.636 1.14-1.086v-2.605h-1.515c-2.035 0-3.117.7-3.238 2.098l-.02.246c0 .511.176.93.523 1.254.364.324.848.488 1.461.488zm18.667-8.567a11.088 11.088 0 0 0-1.46-.113c-1.536 0-2.54.52-3.016 1.559v9.949h-4.063v-15.22h3.84l.113 1.82c.809-1.398 1.938-2.097 3.387-2.097.45 0 .867.062 1.254.183zm9.25 11.676c-2.234 0-4.05-.68-5.449-2.043-1.398-1.375-2.098-3.195-2.098-5.469v-.394c0-1.54.293-2.906.88-4.106.6-1.199 1.437-2.125 2.511-2.773 1.086-.664 2.32-.992 3.707-.992 2.07 0 3.707.652 4.902 1.965 1.2 1.312 1.801 3.175 1.801 5.586v1.668h-9.683c.129.988.52 1.78 1.183 2.379.66.601 1.496.902 2.508.902 1.559 0 2.785-.57 3.668-1.707l1.984 2.25c-.597.863-1.421 1.535-2.468 2.023-1.036.477-2.184.711-3.446.711zm-.468-12.48c-.801 0-1.454.273-1.965.824-.5.539-.82 1.312-.957 2.324h5.656v-.32c-.027-.899-.277-1.59-.75-2.078-.461-.5-1.125-.75-1.984-.75zm17.355 12.199V37.598h-2.266v-2.98h2.266v-1.294c0-1.699.488-3.015 1.461-3.953.977-.95 2.34-1.422 4.102-1.422.562 0 1.253.09 2.078.278l-.055 3.148a5.107 5.107 0 0 0-1.238-.129c-1.524 0-2.285.719-2.285 2.156v1.215h3.015v2.98h-3.015v12.239zm18.2-11.395a11.034 11.034 0 0 0-1.458-.113c-1.539 0-2.543.52-3.015 1.559v9.949h-4.063v-15.22h3.836l.113 1.82c.813-1.398 1.942-2.097 3.39-2.097.45 0 .868.062 1.255.183zm11.066 11.395c-.188-.36-.325-.816-.41-1.367-.989 1.101-2.266 1.648-3.84 1.648-1.485 0-2.72-.43-3.707-1.293-.973-.86-1.461-1.949-1.461-3.261 0-1.61.593-2.848 1.78-3.708 1.196-.863 2.927-1.3 5.185-1.312h1.875v-.863c0-.711-.184-1.274-.543-1.688-.364-.426-.93-.637-1.704-.637-.687 0-1.226.165-1.613.489-.387.324-.578.773-.578 1.347h-4.062c0-.875.265-1.687.804-2.433.547-.75 1.317-1.34 2.301-1.762 1-.437 2.117-.656 3.352-.656 1.87 0 3.359.472 4.457 1.422 1.097.937 1.648 2.261 1.648 3.972v6.578c.012 1.45.219 2.543.617 3.282v.242zm-3.368-2.828c.598 0 1.149-.133 1.645-.395.512-.273.895-.636 1.145-1.086v-2.605h-1.52c-2.035 0-3.113.7-3.238 2.098l-.016.246c0 .511.172.93.524 1.254.359.324.847.488 1.46.488zm13.946-12.387l.113 1.703c1.086-1.324 2.547-1.984 4.383-1.984 1.945 0 3.289.773 4.027 2.324 1.059-1.55 2.582-2.324 4.567-2.324 1.648 0 2.87.48 3.671 1.441.81.961 1.215 2.41 1.215 4.348v9.707h-4.082V40.13c0-.863-.168-1.484-.504-1.875-.34-.399-.93-.598-1.78-.598-1.224 0-2.063.582-2.528 1.742l.02 10.438h-4.063v-9.688c0-.875-.176-1.503-.524-1.894-.351-.399-.937-.598-1.761-.598-1.16 0-1.996.473-2.508 1.422v10.758h-4.063v-15.22zm28.351 15.496c-2.234 0-4.05-.68-5.449-2.043-1.398-1.375-2.098-3.195-2.098-5.469v-.394c0-1.54.293-2.906.88-4.106.6-1.199 1.437-2.125 2.511-2.773 1.086-.664 2.32-.992 3.707-.992 2.07 0 3.707.652 4.902 1.965 1.2 1.312 1.797 3.175 1.797 5.586v1.668h-9.68c.126.988.52 1.78 1.184 2.379.66.601 1.496.902 2.508.902 1.559 0 2.781-.57 3.668-1.707l1.984 2.25c-.597.863-1.421 1.535-2.468 2.023-1.04.477-2.188.711-3.446.711zm-.468-12.48c-.801 0-1.454.273-1.965.824-.5.539-.82 1.312-.957 2.324h5.656v-.32c-.027-.899-.277-1.59-.75-2.078-.461-.5-1.125-.75-1.984-.75zm22.261 6.672l2.004-9.692h3.914l-3.879 15.219h-3.406l-2.863-9.574-2.887 9.574h-3.387l-3.878-15.219h3.914l1.984 9.672 2.793-9.672h2.918zm7.735-2.211c0-1.512.285-2.856.86-4.032.585-1.187 1.42-2.105 2.51-2.754 1.087-.648 2.352-.972 3.802-.972 2.046 0 3.718.629 5.015 1.89 1.297 1.25 2.024 2.958 2.172 5.118l.02 1.03c0 2.337-.649 4.212-1.95 5.622-1.296 1.414-3.043 2.117-5.242 2.117-2.183 0-3.93-.699-5.242-2.097-1.297-1.41-1.945-3.329-1.945-5.754zm4.043.28c0 1.45.27 2.556.804 3.317.551.762 1.332 1.145 2.34 1.145.988 0 1.754-.375 2.305-1.125.562-.762.844-1.969.844-3.617 0-1.426-.282-2.524-.844-3.297-.55-.778-1.324-1.164-2.32-1.164-1 0-1.774.386-2.325 1.164-.535.773-.804 1.965-.804 3.578zm21.89-3.937a11.158 11.158 0 0 0-1.46-.113c-1.54 0-2.544.52-3.016 1.559v9.949h-4.063v-15.22h3.836l.113 1.82c.813-1.398 1.942-2.097 3.391-2.097.45 0 .867.062 1.254.183zm7.77 5.286l-1.461 1.464v4.645h-4.063v-21.59h4.063v11.957l.785-1.012 3.895-4.574h4.867l-5.485 6.356 5.973 8.863h-4.66zm18.293 1.914c0-.5-.25-.895-.75-1.18-.489-.29-1.274-.547-2.36-.77-3.605-.761-5.41-2.3-5.41-4.613 0-1.348.555-2.473 1.664-3.371 1.125-.91 2.59-1.367 4.403-1.367 1.922 0 3.457.457 4.605 1.367 1.16.91 1.742 2.094 1.742 3.543h-4.043c0-.578-.187-1.05-.562-1.426-.375-.386-.965-.582-1.762-.582-.687 0-1.219.156-1.59.469a1.44 1.44 0 0 0-.562 1.18c0 .453.21.812.636 1.09.422.273 1.141.511 2.153.71 1.012.2 1.867.426 2.566.676 2.145.785 3.219 2.156 3.219 4.102 0 1.39-.598 2.515-1.797 3.375-1.187.851-2.723 1.273-4.605 1.273-1.274 0-2.403-.222-3.391-.672-.984-.465-1.758-1.09-2.32-1.875-.563-.8-.844-1.656-.844-2.566h3.86c.034.723.296 1.277.784 1.664.5.379 1.168.566 2.004.566.774 0 1.36-.144 1.758-.433.403-.301.602-.688.602-1.16zm0 0" fill="#666"/></svg>