<svg viewBox="0 0 818.898 357.071" fill="none" stroke-linecap="square" stroke-miterlimit="10" xmlns="http://www.w3.org/2000/svg"><clipPath id="a"><path d="M0 0h818.898v357.07H0V0z"/></clipPath><g clip-path="url(#a)"><path d="M0 0h818.898v357.07H0z"/><path d="M0 294.743l.063-264.85h45.795l-.063 264.85z"/><path fill="#666" d="M30.739 221.417q0 1.641-.735 2.953-.735 1.297-2.063 2.032-1.329.734-2.985.734-1.672 0-2.968-.734-1.313-.735-2.062-2.032-.75-1.312-.75-2.953 0-1.812.782-3.109.782-1.313 2.204-1.875l1.062 2.547q-1.438.687-1.438 2.437 0 1.282.874 2.11.86.812 2.297.812 1.453 0 2.328-.812.875-.828.876-2.11 0-1.765-1.547-2.562l1.11-2.531q1.438.703 2.234 2 .781 1.296.78 3.093zm.003-12.299q0 1.672-.751 3-.766 1.328-2.079 2.063-1.312.734-2.953.734-1.625 0-2.937-.734-1.328-.735-2.078-2.063-.765-1.328-.765-3t.767-2.984q.75-1.328 2.078-2.063 1.313-.734 2.938-.734 1.64 0 2.953.734 1.312.735 2.077 2.063.75 1.312.75 2.984zm-2.578 0q0-.812-.375-1.5-.39-.687-1.11-1.094-.733-.406-1.718-.406-.969 0-1.687.406-.72.407-1.094 1.094-.391.688-.391 1.5 0 .797.39 1.485.375.687 1.093 1.109.719.406 1.688.406.953 0 1.703-.406.734-.422 1.125-1.11.375-.687.376-1.484zm-8.64-7.914l.002-2.625h1.359v-.171q-.781-.5-1.234-1.391-.469-.89-.468-1.938 0-1.968 1.203-2.984 1.188-1.031 3.25-1.031h6.766v2.797H23.98q-1.047 0-1.61.53-.578.532-.578 1.5 0 1.126.874 1.83.86.687 2.188.687H30.4l-.001 2.796H19.525zm11.224-17.9q0 1.64-.735 2.953-.735 1.297-2.063 2.031-1.328.735-2.985.735-1.672 0-2.968-.735-1.313-.734-2.062-2.031-.75-1.313-.75-2.953 0-1.813.782-3.11.782-1.312 2.204-1.875l1.062 2.547q-1.438.688-1.438 2.438 0 1.281.874 2.11.86.812 2.297.812 1.453 0 2.328-.813.875-.828.876-2.11 0-1.765-1.546-2.562l1.11-2.53q1.437.702 2.233 2 .781 1.296.78 3.093zm.003-11.034q-.001 1.969-1.22 3-1.219 1.016-3.39 1.016h-6.61v-2.797h6.266q1.11 0 1.75-.531.625-.531.626-1.406 0-1.188-.875-1.891-.875-.703-2.219-.703h-5.546v-2.797h10.875v2.625h-1.36v.172q.781.484 1.25 1.375.453.875.453 1.937zm-11.217-8.838v-2.625h1.454v-.172q-.766-.406-1.266-1.25-.515-.86-.515-1.89 0-.75.235-1.36h2.797q-.204.578-.297.969-.11.39-.11.844 0 1.234.906 1.969.89.718 2.25.718h5.422l-.001 2.797H19.534zm.002-9.107V151.7h1.454v-.172q-.766-.406-1.266-1.25-.515-.86-.515-1.89 0-.75.235-1.36h2.797q-.203.578-.297.969-.11.39-.11.844 0 1.234.906 1.968.89.72 2.25.72h5.422l-.001 2.796H19.536zm11.222-14.217q0 1.625-.75 2.938-.75 1.297-2.064 2.031-1.312.735-2.953.735-1.547 0-2.875-.72-1.343-.734-2.124-2.015-.797-1.281-.796-2.86 0-1.687.735-2.89.719-1.219 1.985-1.844 1.25-.64 2.78-.64.5 0 .938.062l-.002 8.172q1.313-.219 1.985-1.031.657-.828.657-1.969 0-.969-.406-1.656-.422-.688-1.125-1.094l1.11-2.265q2.906 1.656 2.905 5.046zm-7.109-2.578q-.5.047-1 .375-.515.328-.844.922-.328.578-.328 1.375 0 1 .593 1.719.578.703 1.578 1.031l.001-5.422zm-4.108-4.832v-2.625h1.36v-.172q-.78-.5-1.234-1.39-.468-.89-.468-1.938 0-1.969 1.204-2.984 1.187-1.031 3.25-1.031h6.766l-.001 2.796h-6.422q-1.047 0-1.61.532-.578.53-.578 1.5 0 1.125.875 1.828.859.687 2.187.687h5.547v2.797H19.54zm11.223-17.9q0 1.64-.735 2.953-.735 1.297-2.063 2.031-1.328.734-2.984.734-1.672 0-2.969-.734-1.312-.734-2.062-2.031-.75-1.313-.75-2.953.001-1.813.783-3.11.781-1.312 2.203-1.875l1.062 2.547q-1.438.688-1.438 2.438 0 1.28.875 2.109.859.812 2.296.812 1.453 0 2.329-.812.875-.828.875-2.11 0-1.765-1.546-2.562l1.11-2.531q1.437.703 2.234 2 .78 1.297.78 3.094zm-.857-10.487l-10.36 4.578v-3.172l6.767-2.812v-.172l-6.765-2.719v-3.11l15.483 6.72v3l-5.125-2.313z"/><path fill="#38761d" d="M66.782 216.181h126.614v59.906H66.782z" fill-rule="evenodd"/><path stroke="#274e13" stroke-linejoin="round" stroke-linecap="butt" d="M66.782 216.181h126.614v59.906H66.782z"/><path fill="#f3f3f3" d="M82.491 242.491q-.656 0-1.125-.468-.468-.47-.468-1.11 0-.656.468-1.11.47-.468 1.125-.468.657 0 1.11.469.453.453.453 1.11 0 .64-.453 1.109-.453.468-1.11.468zm-1.234 1.047h2.438v9.516h-2.438v-9.516zm4.974 0h2.297v1.188h.156q.422-.688 1.203-1.078.797-.407 1.704-.407 1.718 0 2.609 1.047.906 1.047.906 2.86v5.906h-2.453v-5.61q0-.921-.469-1.421-.468-.5-1.297-.5-1 0-1.609.765-.594.766-.594 1.922v4.844h-2.453v-9.516zm15.316 9.672q-.703 0-1.297-.219-.594-.218-.969-.593-.875-.844-.875-2.391v-4.375h-1.672v-2.094h1.672v-2.687h2.438v2.687h2.328v2.094h-2.328v3.937q0 .72.312 1.047.266.297.907.297.343 0 .578-.094.234-.093.61-.328v2.391q-.798.328-1.704.328zm8.126.14q-1.421 0-2.562-.64-1.14-.656-1.781-1.797-.641-1.156-.641-2.594 0-1.359.625-2.53.64-1.173 1.75-1.86 1.125-.688 2.516-.688 1.468 0 2.53.641 1.063.625 1.61 1.734.563 1.094.563 2.438 0 .422-.063.828h-7.14q.187 1.125.906 1.719.719.593 1.719.593.843 0 1.453-.359.61-.375.953-.984l1.984.968q-1.453 2.532-4.422 2.532zm2.25-6.202q-.03-.454-.328-.891-.281-.438-.797-.719-.515-.297-1.203-.297-.875 0-1.5.516-.625.5-.906 1.39h4.734zm4.233-3.61h2.297v1.266h.156q.36-.672 1.094-1.11.75-.437 1.64-.437.657 0 1.203.203v2.453q-.5-.187-.859-.265-.344-.094-.734-.094-1.078 0-1.719.781-.625.781-.625 1.984v4.735h-2.453v-9.516zm7.904 0h2.296v1.156h.141q.39-.609 1.14-1.03.75-.423 1.72-.423 1.28 0 2.328.641 1.062.64 1.656 1.797.594 1.156.594 2.625t-.594 2.625q-.594 1.14-1.656 1.781-1.047.64-2.329.64-.968 0-1.734-.406-.75-.406-1.125-1.03h-.14l.14 1.343v3.828h-2.437v-13.547zm4.859 7.563q.687 0 1.281-.36.61-.359.953-.984.36-.64.36-1.453 0-.828-.36-1.453-.343-.64-.953-.985-.594-.343-1.281-.343-.672 0-1.266.343-.593.344-.953.985-.344.625-.344 1.453 0 .812.344 1.453.36.625.953.984.594.36 1.266.36zm6.9-7.563h2.297v1.266h.157q.359-.672 1.093-1.11.75-.437 1.641-.437.656 0 1.203.203v2.453q-.5-.187-.86-.265-.343-.094-.734-.094-1.078 0-1.718.781-.625.781-.625 1.984v4.735h-2.453v-9.516zm12.436 9.813q-1.422 0-2.563-.64-1.14-.657-1.781-1.798-.64-1.156-.64-2.594 0-1.359.624-2.53.64-1.173 1.75-1.86 1.125-.688 2.516-.688 1.469 0 2.531.641 1.063.625 1.61 1.734.562 1.094.562 2.438 0 .422-.063.828h-7.14q.187 1.125.906 1.719.719.593 1.719.593.844 0 1.453-.359.61-.375.953-.984l1.984.968q-1.453 2.532-4.421 2.532zm2.25-6.203q-.032-.454-.329-.891-.28-.438-.796-.719-.516-.297-1.204-.297-.875 0-1.5.516-.625.5-.906 1.39h4.735zm8.373 6.062q-.704 0-1.297-.219-.594-.218-.969-.593-.875-.844-.875-2.391v-4.375h-1.672v-2.094h1.672v-2.687h2.437v2.687h2.329v2.094h-2.329v3.937q0 .72.313 1.047.266.297.906.297.344 0 .578-.094.235-.093.61-.328v2.391q-.797.328-1.703.328zm8.126.14q-1.422 0-2.562-.64-1.141-.656-1.782-1.797-.64-1.156-.64-2.594 0-1.359.625-2.53.64-1.173 1.75-1.86 1.125-.688 2.515-.688 1.469 0 2.532.641 1.062.625 1.609 1.734.562 1.094.562 2.438 0 .422-.062.828h-7.14q.187 1.125.906 1.719.718.593 1.718.593.844 0 1.453-.359.61-.375.954-.984l1.984.968q-1.453 2.532-4.422 2.532zm2.25-6.202q-.031-.454-.328-.891-.281-.438-.797-.719-.516-.297-1.203-.297-.875 0-1.5.516-.625.5-.906 1.39h4.734zm4.232-3.61h2.297v1.266h.157q.359-.672 1.093-1.11.75-.437 1.641-.437.656 0 1.203.203v2.453q-.5-.187-.86-.265-.343-.094-.734-.094-1.078 0-1.718.781-.625.781-.625 1.984v4.735h-2.454v-9.516z"/><path fill="#ea4335" d="M640.255 216.192H786.9v59.905H640.255z" fill-rule="evenodd"/><path stroke="#5b0f00" stroke-linejoin="round" stroke-linecap="butt" d="M640.255 216.192H786.9v59.905H640.255z"/><path fill="#f3f3f3" d="M685.762 239.705h8.47v2.39h-5.954v3.25h5.36v2.391h-5.36v5.328h-2.516v-13.359zm13.784 13.656q-1.719 0-2.61-1.062-.89-1.063-.89-2.969v-5.781h2.438v5.484q0 .969.468 1.531.47.547 1.235.547 1.047 0 1.656-.765.61-.766.61-1.954v-4.843h2.453v9.515h-2.297v-1.187h-.157q-.421.687-1.203 1.094-.765.39-1.703.39zm7.738-13.656h2.453v13.36h-2.453v-13.36zm4.85 0h2.454v13.36h-2.454v-13.36zm8.585 13.656q-1.578 0-2.765-.86-1.188-.874-1.656-2.359l2.312-.953q.25.875.781 1.328.547.454 1.328.454.86 0 1.344-.547.5-.563.5-1.578v-9.141h2.531v9.125q0 1.453-.578 2.469-.578 1.015-1.578 1.547-.984.515-2.219.515zm7.207-13.656h2.515v13.36h-2.515v-13.36zm8.262 2.39h-3.734v-2.39h9.984v2.39h-3.734v10.97h-2.516v-10.97z"/><path fill="#673ab7" d="M510.088 95.14H643.82v59.905H510.088z" fill-rule="evenodd"/><path stroke="#351c75" stroke-linejoin="round" stroke-linecap="butt" d="M510.088 95.14H643.82v59.905H510.088z"/><path fill="#f3f3f3" d="M549.139 107.652h8.468v2.391h-5.953v3.25h5.36v2.39h-5.36v5.329h-2.515v-13.36zm13.784 13.657q-1.72 0-2.61-1.063-.89-1.062-.89-2.969v-5.78h2.437v5.484q0 .968.469 1.53.469.548 1.234.548 1.047 0 1.656-.766.61-.766.61-1.953v-4.844h2.453v9.516h-2.297v-1.188h-.156q-.422.688-1.203 1.094-.766.39-1.703.39zm7.737-13.657h2.453v13.36h-2.453v-13.36zm4.85 0h2.454v13.36h-2.453v-13.36zm8.586 13.657q-1.578 0-2.766-.86-1.187-.875-1.656-2.359l2.312-.953q.25.875.782 1.328.546.453 1.328.453.86 0 1.343-.547.5-.562.5-1.578v-9.14h2.532v9.124q0 1.454-.578 2.47-.579 1.015-1.579 1.546-.984.516-2.218.516zm7.206-13.657h2.515v13.36h-2.515v-13.36zm8.263 2.391h-3.735v-2.39h9.985v2.39h-3.735v10.969h-2.515v-10.969zm6.735 10.969zm-63.552 22.297q-1.438 0-2.578-.64-1.14-.642-1.782-1.798-.64-1.156-.64-2.61 0-1.468.64-2.609.641-1.14 1.782-1.796 1.14-.657 2.578-.657 1.578 0 2.719.688 1.14.672 1.64 1.922l-2.234.937q-.594-1.265-2.125-1.265-1.125 0-1.844.765-.719.766-.719 2.016 0 1.265.72 2.031.718.766 1.843.766 1.547 0 2.234-1.344l2.219.969q-.61 1.25-1.75 1.937-1.14.688-2.703.688zm10.768 0q-1.484 0-2.64-.657-1.157-.671-1.797-1.812-.641-1.156-.641-2.578t.64-2.578q.641-1.157 1.797-1.813 1.157-.672 2.641-.672 1.453 0 2.61.672 1.156.656 1.796 1.813.64 1.156.64 2.578t-.64 2.578q-.64 1.14-1.797 1.812-1.156.657-2.609.657zm0-2.25q.703 0 1.297-.328.61-.344.953-.985.36-.64.36-1.484t-.36-1.469q-.344-.64-.953-.969-.594-.343-1.297-.343-.719 0-1.312.343-.594.328-.97.97-.359.624-.359 1.468 0 .828.36 1.484.375.64.969.985.593.328 1.312.328zm6.911-7.563h2.297v1.188h.156q.438-.688 1.188-1.078.765-.407 1.703-.407 1 0 1.75.485.75.468 1.062 1.187.47-.734 1.282-1.203.812-.469 1.906-.469 1.625 0 2.469 1 .859 1 .859 2.688v6.125h-2.422v-5.672q0-.89-.422-1.375-.422-.484-1.172-.484-.953 0-1.53.75-.563.75-.563 1.984v4.797h-2.438v-5.672q0-.89-.437-1.375-.438-.484-1.235-.484-.906 0-1.453.75t-.547 1.984v4.797h-2.453v-9.516zm16.933 0h2.297v1.156h.141q.39-.609 1.14-1.03.75-.423 1.72-.423 1.28 0 2.327.641 1.063.64 1.657 1.797.593 1.156.593 2.625t-.593 2.625q-.594 1.14-1.657 1.781-1.046.64-2.328.64-.968 0-1.734-.406-.75-.406-1.125-1.03h-.14l.14 1.343v3.828h-2.438v-13.547zm4.86 7.563q.687 0 1.281-.36.61-.359.953-.984.36-.64.36-1.453 0-.828-.36-1.453-.344-.64-.953-.985-.594-.343-1.281-.343-.672 0-1.266.343-.594.344-.953.985-.344.625-.344 1.453 0 .812.344 1.453.36.625.953.984.594.36 1.266.36zm8.291-8.61q-.656 0-1.125-.468-.469-.47-.469-1.11 0-.656.469-1.11.469-.468 1.125-.468t1.11.469q.453.453.453 1.11 0 .64-.454 1.109-.453.468-1.109.468zm-1.234 1.047h2.437v9.516h-2.437v-9.516zm4.974-3.844h2.453v13.36h-2.453v-13.36zm9.32 13.657q-1.423 0-2.563-.64-1.14-.657-1.781-1.798-.641-1.156-.641-2.594 0-1.359.625-2.53.64-1.173 1.75-1.86 1.125-.688 2.516-.688 1.468 0 2.53.641 1.063.625 1.61 1.734.563 1.094.563 2.438 0 .422-.063.828h-7.14q.187 1.125.906 1.719.719.593 1.719.593.843 0 1.453-.359.61-.375.953-.984l1.984.968q-1.453 2.532-4.422 2.532zm2.25-6.203q-.032-.454-.329-.891-.281-.438-.797-.719-.515-.297-1.203-.297-.875 0-1.5.516-.625.5-.906 1.39h4.734zm4.232-3.61h2.297v1.266h.156q.36-.672 1.094-1.11.75-.437 1.64-.437.656 0 1.203.203v2.453q-.5-.187-.859-.265-.344-.094-.734-.094-1.079 0-1.72.781-.624.781-.624 1.984v4.735h-2.453v-9.516z"/><path fill="#673ab7" d="M193.998 275.887v-59.496h32.598v59.496z" fill-rule="evenodd"/><path stroke="#351c75" stroke-linejoin="round" stroke-linecap="butt" d="M193.998 275.887v-59.496h32.598v59.496z"/><path fill="#f3f3f3" d="M215.316 258.04q0 1.015-.453 1.827-.469.813-1.297 1.282-.828.453-1.875.453-1.031 0-1.844-.453-.828-.469-1.297-1.282-.469-.812-.469-1.828 0-1.14.5-1.953.485-.812 1.375-1.172l.657 1.594q-.907.438-.907 1.531 0 .797.547 1.313.547.515 1.438.515.906 0 1.453-.515.547-.516.547-1.313 0-1.109-.953-1.609l.687-1.578q.906.437 1.406 1.25.485.812.485 1.937zm0-7.7q0 1.062-.469 1.89-.484.813-1.297 1.282-.828.453-1.86.453-1 0-1.827-.453-.828-.469-1.297-1.282-.485-.828-.485-1.89 0-1.031.485-1.86.469-.828 1.297-1.28.828-.47 1.828-.47 1.031 0 1.86.47.812.452 1.296 1.28.469.829.469 1.86zm-1.625 0q0-.5-.235-.922-.234-.438-.687-.688-.453-.25-1.078-.25-.594 0-1.047.25-.453.25-.688.688-.25.422-.25.922 0 .515.25.937.235.422.688.688.453.265 1.047.265.61 0 1.078-.265.453-.266.687-.688.235-.422.235-.937zm-5.39-4.884v-1.641h.827v-.11q-.437-.28-.734-.812-.313-.531-.313-1.219 0-.922.47-1.672.452-.765 1.28-1.187.829-.422 1.86-.422 1.062 0 1.89.422.813.422 1.282 1.187.453.75.453 1.672 0 .688-.297 1.235-.297.531-.734.797v.109l.953-.11h2.734v1.75H208.3zm5.39-3.485q0-.484-.25-.906-.25-.438-.703-.688-.453-.25-1.047-.25-.578 0-1.031.25-.454.25-.704.688-.25.422-.25.906 0 .485.25.906.25.422.704.688.453.25 1.03.25.595 0 1.048-.25.453-.266.703-.688.25-.421.25-.906zm1.094-7.044l-6.485 2.86v-1.985l4.219-1.766v-.093l-4.219-1.703v-1.938l9.672 4.188v1.89l-3.187-1.453z"/><path d="M499.358 210.848l12.315-50.866"/><path stroke="#351c75" stroke-width="2" stroke-linejoin="round" stroke-linecap="butt" d="M499.358 210.848l9.491-39.203"/><path fill="#351c75" stroke="#351c75" stroke-width="2" stroke-linecap="butt" d="M512.06 172.422l-1.075-9.599-5.346 8.044z" fill-rule="evenodd"/><path d="M641.614 158.325l1.638 50.048"/><path stroke="#351c75" stroke-width="2" stroke-linejoin="round" stroke-linecap="butt" d="M641.614 158.325l1.246 38.054"/><path fill="#351c75" stroke="#351c75" stroke-width="2" stroke-linecap="butt" d="M639.558 196.487l3.598 8.963 3.005-9.179z" fill-rule="evenodd"/><path fill="#ff9800" d="M353.808 216.192h109.92v59.905h-109.92z" fill-rule="evenodd"/><path stroke="#5b0f00" stroke-linejoin="round" stroke-linecap="butt" d="M353.808 216.192h109.92v59.905h-109.92z"/><path fill="#f3f3f3" d="M370.46 253.361q-1.75 0-3.093-.984-1.344-.985-1.89-2.797l2.374-.938q.281 1.063.953 1.704.672.625 1.672.625.844 0 1.438-.407.593-.422.593-1.172t-.578-1.218q-.562-.485-2.015-1.016l-.813-.312q-1.297-.438-2.219-1.36-.906-.922-.906-2.328 0-1.047.547-1.906.547-.86 1.531-1.344.985-.5 2.235-.5 1.812 0 2.859.86 1.047.843 1.437 1.968l-2.218.938q-.219-.61-.735-1.032-.5-.421-1.312-.421-.813 0-1.344.39-.531.375-.531.985 0 .609.5 1.03.5.407 1.656.798l.844.281q1.734.61 2.656 1.594.922.968.922 2.547 0 1.312-.672 2.218-.672.907-1.734 1.36-1.047.437-2.157.437zm8.005-10.86q-.657 0-1.125-.468-.47-.469-.47-1.11 0-.656.47-1.109.468-.468 1.125-.468.656 0 1.109.468.453.453.453 1.11 0 .64-.453 1.11-.453.468-1.11.468zm-1.235 1.048h2.438v9.515h-2.438v-9.515zm4.974 0h2.297v1.187h.157q.437-.687 1.187-1.078.766-.406 1.703-.406 1 0 1.75.484.75.469 1.063 1.188.468-.735 1.281-1.203.812-.47 1.906-.47 1.625 0 2.469 1 .86 1 .86 2.688v6.125h-2.423v-5.672q0-.89-.421-1.375-.422-.484-1.172-.484-.953 0-1.532.75-.562.75-.562 1.984v4.797h-2.438v-5.672q0-.89-.437-1.375-.438-.484-1.234-.484-.907 0-1.454.75-.546.75-.546 1.984v4.797h-2.454v-9.515zm16.934 0h2.297v1.156h.14q.391-.61 1.141-1.031.75-.422 1.719-.422 1.281 0 2.328.64 1.062.641 1.656 1.797.594 1.157.594 2.625 0 1.47-.594 2.625-.594 1.141-1.656 1.782-1.047.64-2.328.64-.969 0-1.735-.406-.75-.406-1.125-1.031h-.14l.14 1.343v3.829h-2.437v-13.547zm4.86 7.562q.687 0 1.28-.36.61-.359.954-.984.359-.64.359-1.453 0-.828-.36-1.453-.343-.64-.953-.984-.593-.344-1.28-.344-.673 0-1.266.344-.594.344-.954.984-.343.625-.343 1.453 0 .813.343 1.453.36.625.954.985.593.36 1.265.36zm6.9-11.406h2.453v13.36h-2.453v-13.36zm9.32 13.656q-1.423 0-2.563-.64-1.14-.657-1.782-1.797-.64-1.157-.64-2.594 0-1.36.625-2.531.64-1.172 1.75-1.86 1.125-.687 2.515-.687 1.47 0 2.532.64 1.062.625 1.61 1.735.562 1.094.562 2.437 0 .422-.063.828h-7.14q.187 1.125.906 1.72.718.593 1.718.593.844 0 1.454-.36.609-.374.953-.984l1.984.969q-1.453 2.531-4.422 2.531zm2.25-6.203q-.032-.453-.329-.89-.281-.438-.797-.72-.515-.296-1.203-.296-.875 0-1.5.515-.625.5-.906 1.391h4.734zm7.966 6.203q-1.578 0-2.766-.86-1.187-.874-1.656-2.359l2.313-.953q.25.875.78 1.328.548.454 1.329.454.86 0 1.344-.547.5-.563.5-1.578v-9.141h2.531v9.125q0 1.453-.578 2.469-.578 1.015-1.578 1.547-.985.515-2.219.515zm7.206-13.656h2.516v13.36h-2.516v-13.36zm8.263 2.39h-3.735v-2.39h9.985v2.39h-3.735v10.97h-2.515v-10.97z"/><path fill="#ff9800" d="M496.075 216.192h146.646v59.905H496.075z" fill-rule="evenodd"/><path stroke="#5b0f00" stroke-linejoin="round" stroke-linecap="butt" d="M496.075 216.192h146.646v59.905H496.075z"/><path fill="#f3f3f3" d="M531.09 253.361q-1.75 0-3.093-.984-1.344-.985-1.891-2.797l2.375-.938q.281 1.063.953 1.704.672.625 1.672.625.844 0 1.438-.407.593-.422.593-1.172t-.578-1.218q-.562-.485-2.015-1.016l-.813-.312q-1.297-.438-2.219-1.36-.906-.922-.906-2.328 0-1.047.547-1.906.547-.86 1.531-1.344.985-.5 2.235-.5 1.812 0 2.859.86 1.047.843 1.437 1.968l-2.218.938q-.22-.61-.735-1.032-.5-.421-1.312-.421-.813 0-1.344.39-.531.375-.531.985 0 .609.5 1.03.5.407 1.656.798l.844.281q1.734.61 2.656 1.594.922.968.922 2.547 0 1.312-.672 2.218-.672.907-1.734 1.36-1.047.437-2.157.437zm8.005-10.86q-.657 0-1.125-.468-.47-.469-.47-1.11 0-.656.47-1.109.468-.468 1.125-.468.656 0 1.109.468.453.453.453 1.11 0 .64-.453 1.11-.453.468-1.11.468zm-1.235 1.048h2.438v9.515h-2.438v-9.515zm4.974 0h2.297v1.187h.157q.437-.687 1.187-1.078.766-.406 1.703-.406 1 0 1.75.484.75.469 1.063 1.188.468-.735 1.28-1.203.813-.47 1.907-.47 1.625 0 2.469 1 .86 1 .86 2.688v6.125h-2.423v-5.672q0-.89-.421-1.375-.422-.484-1.172-.484-.953 0-1.532.75-.562.75-.562 1.984v4.797h-2.438v-5.672q0-.89-.437-1.375-.438-.484-1.234-.484-.907 0-1.454.75-.546.75-.546 1.984v4.797h-2.454v-9.515zm16.934 0h2.297v1.156h.14q.39-.61 1.14-1.031.75-.422 1.72-.422 1.28 0 2.328.64 1.062.641 1.656 1.797.594 1.157.594 2.625 0 1.47-.594 2.625-.594 1.141-1.656 1.782-1.047.64-2.328.64-.97 0-1.735-.406-.75-.406-1.125-1.031h-.14l.14 1.343v3.829h-2.437v-13.547zm4.86 7.562q.687 0 1.28-.36.61-.359.954-.984.359-.64.359-1.453 0-.828-.36-1.453-.343-.64-.953-.984-.593-.344-1.28-.344-.673 0-1.266.344-.594.344-.954.984-.343.625-.343 1.453 0 .813.343 1.453.36.625.954.985.593.36 1.265.36zm6.9-11.406h2.453v13.36h-2.453v-13.36zm9.32 13.656q-1.423 0-2.563-.64-1.141-.657-1.782-1.797-.64-1.157-.64-2.594 0-1.36.625-2.531.64-1.172 1.75-1.86 1.125-.687 2.515-.687 1.47 0 2.532.64 1.062.625 1.609 1.735.562 1.094.562 2.437 0 .422-.062.828h-7.14q.187 1.125.906 1.72.718.593 1.718.593.844 0 1.453-.36.61-.374.954-.984l1.984.969q-1.453 2.531-4.422 2.531zm2.25-6.203q-.032-.453-.329-.89-.281-.438-.797-.72-.516-.296-1.203-.296-.875 0-1.5.515-.625.5-.906 1.391h4.734zm7.966 6.203q-1.578 0-2.766-.86-1.187-.874-1.656-2.359l2.313-.953q.25.875.78 1.328.548.454 1.329.454.86 0 1.344-.547.5-.563.5-1.578v-9.141h2.531v9.125q0 1.453-.578 2.469-.578 1.015-1.578 1.547-.985.515-2.219.515zm7.206-13.656h2.516v13.36h-2.516v-13.36zm8.263 2.39h-3.735v-2.39h9.985v2.39h-3.735v10.97h-2.515v-10.97z"/><path d="M110.304 303.982l150.804.094v28.252l-150.804-.094z"/><path fill="#666" d="M166.974 316.8q-.578 0-.984-.407-.406-.406-.406-.984 0-.282.093-.516.094-.234.313-.531l1.39-2.077.938.625-.813 1.25q.375.14.61.469.234.328.234.781 0 .578-.406.984-.39.406-.969.406zm3.5.002q-.578 0-.984-.407-.406-.406-.406-.984 0-.282.093-.516.094-.234.313-.53l1.39-2.078.938.625-.813 1.25q.375.14.61.469.234.328.234.781 0 .579-.406.985-.39.406-.969.405zm3.183-4.248l2.094.001v2.891l-.14 1.422h.14q.344-.578 1.016-.921.672-.36 1.453-.359 1.5.001 2.281.892.797.891.797 2.454v5.078l-2.094-.001v-4.813q0-.781-.422-1.219-.422-.437-1.125-.438-.843 0-1.375.671-.531.672-.531 1.656v4.14h-2.094v-11.454zm13.523 11.712q-1.266-.001-2.25-.564t-1.547-1.548q-.547-.985-.547-2.22 0-1.218.547-2.202.563-1 1.547-1.561.984-.578 2.25-.577 1.25 0 2.234.58 1 .563 1.547 1.563.563.985.563 2.203 0 1.235-.563 2.219-.547.984-1.547 1.546-.984.562-2.234.56zm0-1.938q.61 0 1.125-.28.516-.281.812-.828.313-.547.313-1.28 0-.72-.313-1.267-.296-.547-.812-.828-.516-.298-1.125-.298-.61 0-1.125.296-.5.281-.813.828-.312.547-.312 1.265 0 .719.312 1.282.313.547.813.828.516.282 1.125.282zm9.496 1.819q-.61 0-1.125-.173-.515-.188-.828-.516-.75-.72-.75-2.047v-3.766h-1.422v-1.782h1.422v-2.312l2.094.002v2.312l2 .001v1.782l-2-.002v3.391q0 .61.265.89.235.25.782.251.297 0 .5-.078t.515-.265v2.047q-.687.265-1.453.265zm2.907-7.952l.922-1.233q-.422-.11-.688-.454-.265-.36-.265-.797 0-.578.406-.984.406-.422.984-.421.578 0 .97.422.405.407.405.985 0 .281-.093.515-.094.235-.297.531l-1.39 2.062-.954-.626zm3.5.003l.922-1.234q-.422-.11-.688-.454-.265-.36-.265-.797 0-.578.406-.984.406-.421.984-.421t.97.422q.405.407.405.985 0 .281-.093.516-.094.234-.297.53l-1.39 2.062-.954-.625z"/><path d="M374.953 302.538l150.803.095v28.252l-150.803-.095z"/><path fill="#666" d="M409.639 315.343q-.579 0-.985-.407t-.406-.985q0-.281.094-.515.093-.235.312-.531l1.39-2.078.938.626-.812 1.25q.375.14.61.468.234.329.234.782 0 .578-.407.984-.39.406-.969.406zm3.5.002q-.579 0-.985-.407t-.406-.985q0-.28.094-.515.093-.235.312-.531l1.39-2.078.938.626-.812 1.25q.375.14.61.469.234.328.234.781 0 .578-.407.984-.39.406-.969.406zm3.183-.951h1.953v1.017h.14q.375-.594 1.016-.937.656-.344 1.453-.343.875 0 1.516.423.64.406.906 1.032.406-.64 1.094-1.047.703-.405 1.64-.405 1.39.001 2.11.86.734.86.734 2.314v5.25l-2.078-.001v-4.86q0-.765-.36-1.188-.359-.422-1-.422-.812 0-1.296.655-.485.64-.485 1.703v4.11l-2.11-.002v-4.86q0-.765-.374-1.187-.375-.422-1.063-.422-.765 0-1.234.655-.469.64-.469 1.703v4.11l-2.093-.002v-8.156zm18.466 8.418q-1.265-.001-2.25-.564-.984-.563-1.547-1.548-.547-.985-.547-2.22 0-1.218.547-2.202.563-1 1.547-1.562.985-.577 2.25-.576 1.25 0 2.235.58 1 .562 1.546 1.563.563.984.563 2.203 0 1.234-.563 2.219-.546.984-1.546 1.545-.985.562-2.235.562zm0-1.938q.61 0 1.125-.28.516-.281.813-.828.312-.547.312-1.281 0-.719-.312-1.266-.297-.547-.813-.829-.515-.297-1.125-.297t-1.125.296q-.5.28-.812.828-.313.546-.313 1.265 0 .719.313 1.281.312.548.812.83.516.28 1.125.281zm8.434 1.943q-1.297-.001-2.125-.752-.828-.766-.828-2 0-.813.422-1.437.437-.625 1.187-.953.75-.343 1.672-.342 1.266 0 2.156.376v-.36q0-.671-.515-1.078-.5-.422-1.344-.423-.578 0-1.11.265-.53.266-.89.687l-1.344-1.047q.594-.766 1.485-1.187.906-.421 1.953-.42 1.875 0 2.843.876.985.86.985 2.516v5.032l-2.063-.002v-.828h-.125q-.375.469-.984.78-.594.297-1.375.297zm.5-1.625q.906 0 1.437-.577.547-.594.547-1.375-.812-.39-1.718-.391-1.625-.001-1.625 1.217 0 .5.343.813.36.313 1.016.313zm5.992-6.777h1.953v1.079h.14q.297-.562.938-.937.64-.39 1.406-.39.563 0 1.031.189v2.093q-.437-.156-.734-.235-.297-.078-.625-.078-.938 0-1.484.67-.532.672-.532 1.704v4.062l-2.093-.001v-8.156zm5.8 8.16zm4.776-11.45h2.093v2.891l-.14 1.422h.14q.344-.578 1.016-.921.672-.359 1.453-.358 1.5 0 2.281.892.797.89.797 2.453v5.078l-2.094-.001v-4.813q0-.78-.421-1.219-.422-.437-1.125-.438-.844 0-1.375.671-.532.672-.532 1.656v4.14h-2.093v-11.454zm13.522 11.711q-1.265 0-2.25-.564-.984-.563-1.547-1.548-.547-.984-.547-2.219 0-1.219.547-2.203.563-1 1.547-1.561.985-.578 2.25-.577 1.25 0 2.235.58 1 .563 1.546 1.563.563.985.563 2.204 0 1.234-.563 2.218-.546.984-1.546 1.546-.985.562-2.235.561zm0-1.938q.61 0 1.125-.28.516-.281.813-.828.312-.546.312-1.28 0-.72-.312-1.267-.297-.547-.813-.828-.515-.297-1.125-.298-.61 0-1.125.296-.5.281-.812.828-.313.547-.313 1.265 0 .72.313 1.282.312.547.812.829.516.281 1.125.281zm9.497 1.819q-.61 0-1.125-.173-.516-.187-.829-.516-.75-.719-.75-2.047v-3.766h-1.421v-1.782l1.421.001v-2.313l2.094.002v2.312l2 .002v1.78h-2v3.39q0 .61.266.891.234.25.781.25.297 0 .5-.077.203-.078.516-.266v2.047q-.688.265-1.453.265zm2.906-7.951l.922-1.234q-.422-.11-.687-.454-.266-.36-.266-.797 0-.578.406-.984.407-.422.985-.421.578 0 .968.422.407.407.407.985 0 .281-.094.516-.094.234-.297.53l-1.39 2.062-.954-.625zm3.5.002l.922-1.234q-.422-.11-.687-.454-.266-.36-.266-.797 0-.578.406-.984.407-.421.985-.42.578 0 .968.422.407.406.407.984 0 .281-.094.516-.094.234-.297.53l-1.39 2.062-.954-.625z"/><path fill="#673ab7" d="M245.317 95.142H355.24v59.905H245.317z" fill-rule="evenodd"/><path stroke="#351c75" stroke-linejoin="round" stroke-linecap="butt" d="M245.317 95.142H355.24v59.905H245.317z"/><path fill="#f3f3f3" d="M261.97 121.311q-1.75 0-3.094-.984-1.343-.984-1.89-2.797l2.375-.937q.281 1.062.953 1.703.672.625 1.672.625.844 0 1.437-.407.594-.421.594-1.171t-.578-1.22q-.563-.484-2.016-1.015l-.812-.312q-1.297-.438-2.219-1.36-.906-.922-.906-2.328 0-1.047.547-1.906.547-.86 1.53-1.344.985-.5 2.235-.5 1.813 0 2.86.86 1.047.843 1.437 1.968l-2.219.938q-.218-.61-.734-1.031-.5-.422-1.312-.422-.813 0-1.344.39-.531.375-.531.985t.5 1.031q.5.406 1.656.797l.844.281q1.734.61 2.656 1.594.922.969.922 2.547 0 1.312-.672 2.218-.672.907-1.735 1.36-1.046.437-2.156.437zm8.004-10.859q-.656 0-1.125-.469-.468-.469-.468-1.11 0-.655.468-1.109.47-.468 1.125-.468.657 0 1.11.468.453.454.453 1.11 0 .64-.453 1.11-.453.468-1.11.468zm-1.234 1.047h2.437v9.515h-2.437V111.5zm4.974 0h2.297v1.187h.156q.438-.687 1.188-1.078.765-.406 1.703-.406 1 0 1.75.484.75.47 1.062 1.188.47-.735 1.282-1.203.812-.469 1.906-.469 1.625 0 2.469 1 .86 1 .86 2.687v6.125h-2.423v-5.671q0-.891-.422-1.375-.422-.485-1.172-.485-.953 0-1.53.75-.563.75-.563 1.985v4.796h-2.438v-5.671q0-.891-.437-1.375-.438-.485-1.235-.485-.906 0-1.453.75t-.547 1.985v4.796h-2.453V111.5zm16.934 0h2.296v1.156h.141q.39-.61 1.14-1.031.75-.422 1.72-.422 1.28 0 2.328.64 1.062.641 1.656 1.797.594 1.157.594 2.625 0 1.47-.594 2.625-.594 1.141-1.656 1.782-1.047.64-2.329.64-.968 0-1.734-.406-.75-.406-1.125-1.031h-.14l.14 1.344v3.828h-2.437v-13.547zm4.859 7.562q.687 0 1.281-.359.61-.36.953-.984.36-.641.36-1.454 0-.828-.36-1.453-.343-.64-.953-.984-.594-.344-1.281-.344-.672 0-1.266.344-.593.344-.953.984-.344.625-.344 1.453 0 .813.344 1.454.36.625.953.984.594.36 1.266.36zm6.9-11.406h2.454v13.36h-2.454v-13.36zm9.32 13.656q-1.422 0-2.563-.64-1.14-.657-1.78-1.797-.641-1.156-.641-2.594 0-1.36.625-2.531.64-1.172 1.75-1.86 1.125-.687 2.515-.687 1.469 0 2.531.64 1.063.626 1.61 1.735.562 1.094.562 2.437 0 .422-.062.829h-7.14q.187 1.125.905 1.718.72.594 1.72.594.843 0 1.452-.36.61-.374.953-.984l1.985.97q-1.453 2.53-4.422 2.53zm2.25-6.203q-.031-.453-.328-.89-.281-.438-.797-.72-.516-.296-1.203-.296-.875 0-1.5.516-.625.5-.906 1.39h4.734zm7.967 6.203q-1.578 0-2.766-.859-1.187-.875-1.656-2.36l2.312-.953q.25.875.782 1.329.546.453 1.328.453.86 0 1.343-.547.5-.563.5-1.578v-9.14h2.532v9.124q0 1.453-.578 2.469-.579 1.015-1.579 1.547-.984.515-2.218.515zm7.206-13.656h2.515v13.36h-2.515v-13.36zm8.263 2.39h-3.735v-2.39h9.985v2.39h-3.735v10.97h-2.515v-10.97zm6.735 10.97zm-78.076 22.296q-1.437 0-2.578-.64-1.14-.64-1.781-1.797-.641-1.156-.641-2.61 0-1.468.64-2.609.641-1.14 1.782-1.797 1.14-.656 2.578-.656 1.578 0 2.719.687 1.14.672 1.64 1.922l-2.234.938q-.594-1.266-2.125-1.266-1.125 0-1.844.766-.718.765-.718 2.015 0 1.266.718 2.032.719.765 1.844.765 1.547 0 2.234-1.343l2.22.968q-.61 1.25-1.75 1.938-1.141.687-2.704.687zm10.768 0q-1.484 0-2.64-.656-1.157-.672-1.797-1.812-.64-1.157-.64-2.579 0-1.421.64-2.578.64-1.156 1.797-1.812 1.156-.672 2.64-.672 1.453 0 2.61.672 1.156.656 1.796 1.812.641 1.157.641 2.578 0 1.422-.64 2.579-.641 1.14-1.797 1.812-1.157.656-2.61.656zm0-2.25q.703 0 1.297-.328.61-.344.953-.984.36-.64.36-1.485 0-.843-.36-1.468-.344-.64-.953-.969-.594-.344-1.297-.344-.719 0-1.312.344-.594.328-.97.969-.358.625-.358 1.468 0 .829.359 1.485.375.64.969.984.593.328 1.312.328zm6.911-7.562h2.297v1.187h.156q.438-.687 1.188-1.078.766-.406 1.703-.406 1 0 1.75.484.75.47 1.063 1.188.468-.735 1.28-1.203.813-.469 1.907-.469 1.625 0 2.469 1 .86 1 .86 2.687v6.125H296v-5.671q0-.891-.422-1.375-.421-.485-1.171-.485-.954 0-1.532.75-.562.75-.562 1.985v4.796h-2.438v-5.671q0-.891-.437-1.375-.438-.485-1.235-.485-.906 0-1.453.75t-.547 1.985v4.796h-2.453V133.5zm16.934 0h2.297v1.156h.14q.39-.61 1.14-1.031.75-.422 1.72-.422 1.28 0 2.328.64 1.062.641 1.656 1.797.594 1.157.594 2.625 0 1.47-.594 2.625-.594 1.141-1.656 1.782-1.047.64-2.328.64-.97 0-1.735-.406-.75-.406-1.125-1.031h-.14l.14 1.344v3.828h-2.437v-13.547zm4.859 7.562q.688 0 1.281-.359.61-.36.953-.984.36-.641.36-1.454 0-.828-.36-1.453-.343-.64-.953-.984-.593-.344-1.281-.344-.672 0-1.266.344-.593.344-.953.984-.343.625-.343 1.453 0 .813.343 1.454.36.625.953.984.594.36 1.266.36zm8.291-8.609q-.656 0-1.125-.469t-.469-1.11q0-.655.47-1.109.468-.468 1.124-.468.656 0 1.11.468.453.454.453 1.11 0 .64-.453 1.11-.454.468-1.11.468zm-1.234 1.047h2.437v9.515h-2.437V133.5zm4.974-3.844h2.453v13.36h-2.453v-13.36zm9.32 13.656q-1.422 0-2.563-.64-1.14-.657-1.781-1.797-.64-1.156-.64-2.594 0-1.36.624-2.531.64-1.172 1.75-1.86 1.125-.687 2.516-.687 1.468 0 2.53.64 1.063.626 1.61 1.735.563 1.094.563 2.437 0 .422-.063.829h-7.14q.187 1.125.906 1.718.719.594 1.719.594.843 0 1.453-.36.61-.374.953-.984l1.984.97q-1.453 2.53-4.422 2.53zm2.25-6.203q-.032-.453-.329-.89-.28-.438-.797-.72-.515-.296-1.203-.296-.875 0-1.5.516-.625.5-.906 1.39h4.734zm4.232-3.61h2.297v1.266h.156q.36-.671 1.094-1.109.75-.437 1.64-.437.657 0 1.204.203v2.453q-.5-.188-.86-.266-.344-.094-.734-.094-1.078 0-1.719.782-.625.781-.625 1.984v4.734h-2.453V133.5z"/><path d="M228.849 210.85l12.315-50.867"/><path stroke="#351c75" stroke-width="2" stroke-linejoin="round" stroke-linecap="butt" d="M228.849 210.85l9.491-39.204"/><path fill="#351c75" stroke="#351c75" stroke-width="2" stroke-linecap="butt" d="M241.55 172.423l-1.074-9.598-5.347 8.044z" fill-rule="evenodd"/><path d="M355.452 160.392l1.637 50.048"/><path stroke="#351c75" stroke-width="2" stroke-linejoin="round" stroke-linecap="butt" d="M355.452 160.392l1.245 38.054"/><path fill="#351c75" stroke="#351c75" stroke-width="2" stroke-linecap="butt" d="M353.395 198.554l3.599 8.963 3.005-9.179z" fill-rule="evenodd"/><path fill="#38761d" d="M227.206 216.192h126.615v59.905H227.206z" fill-rule="evenodd"/><path stroke="#274e13" stroke-linejoin="round" stroke-linecap="butt" d="M227.206 216.192h126.615v59.905H227.206z"/><path fill="#f3f3f3" d="M242.916 242.502q-.657 0-1.125-.469-.47-.469-.47-1.11 0-.656.47-1.109.468-.468 1.125-.468.656 0 1.109.468.453.453.453 1.11 0 .64-.453 1.11-.453.468-1.11.468zm-1.235 1.047h2.438v9.515h-2.438v-9.515zm4.974 0h2.297v1.187h.157q.421-.687 1.203-1.078.797-.406 1.703-.406 1.719 0 2.61 1.047.905 1.047.905 2.86v5.905h-2.453v-5.609q0-.922-.468-1.422-.47-.5-1.297-.5-1 0-1.61.766-.593.765-.593 1.922v4.843h-2.454v-9.515zm15.316 9.672q-.703 0-1.297-.22-.593-.218-.968-.593-.875-.844-.875-2.39v-4.376h-1.672v-2.093h1.672v-2.688h2.437v2.688h2.328v2.093h-2.328v3.938q0 .719.313 1.047.265.297.906.297.344 0 .578-.094.234-.094.61-.328v2.39q-.798.329-1.704.329zm8.127.14q-1.422 0-2.563-.64-1.14-.657-1.781-1.797-.64-1.157-.64-2.594 0-1.36.624-2.531.64-1.172 1.75-1.86 1.125-.687 2.516-.687 1.469 0 2.531.64 1.063.625 1.61 1.735.562 1.094.562 2.437 0 .422-.062.828h-7.141q.187 1.125.906 1.72.719.593 1.719.593.844 0 1.453-.36.61-.374.953-.984l1.985.969q-1.454 2.531-4.422 2.531zm2.25-6.203q-.032-.453-.328-.89-.282-.438-.797-.72-.516-.296-1.203-.296-.875 0-1.5.515-.625.5-.907 1.391h4.735zm4.232-3.61h2.297v1.266h.156q.36-.672 1.094-1.109.75-.438 1.64-.438.657 0 1.204.204v2.453q-.5-.188-.86-.266-.343-.094-.734-.094-1.078 0-1.719.782-.625.78-.625 1.984v4.734h-2.453v-9.515zm7.904 0h2.297v1.157h.14q.391-.61 1.141-1.031.75-.422 1.719-.422 1.281 0 2.328.64 1.062.641 1.656 1.797.594 1.157.594 2.625 0 1.47-.594 2.625-.594 1.141-1.656 1.782-1.047.64-2.328.64-.969 0-1.735-.406-.75-.406-1.125-1.031h-.14l.14 1.343v3.829h-2.437v-13.547zm4.86 7.563q.687 0 1.28-.36.61-.359.954-.984.359-.64.359-1.453 0-.828-.36-1.453-.343-.64-.953-.984-.593-.344-1.28-.344-.673 0-1.266.344-.594.344-.954.984-.343.625-.343 1.453 0 .813.343 1.453.36.625.954.985.593.36 1.265.36zm6.9-7.562h2.297v1.265h.156q.36-.672 1.094-1.109.75-.438 1.64-.438.657 0 1.203.204v2.453q-.5-.188-.859-.266-.344-.094-.734-.094-1.078 0-1.72.782-.624.78-.624 1.984v4.734h-2.453v-9.515zm12.435 9.812q-1.422 0-2.563-.64-1.14-.657-1.781-1.797-.64-1.157-.64-2.594 0-1.36.624-2.531.641-1.172 1.75-1.86 1.125-.687 2.516-.687 1.469 0 2.531.64 1.063.625 1.61 1.735.562 1.094.562 2.437 0 .422-.062.828h-7.141q.188 1.125.906 1.72.719.593 1.719.593.844 0 1.453-.36.61-.374.953-.984l1.985.969q-1.453 2.531-4.422 2.531zm2.25-6.203q-.031-.453-.328-.89-.282-.438-.797-.72-.516-.296-1.203-.296-.875 0-1.5.515-.625.5-.907 1.391h4.735zm8.373 6.063q-.703 0-1.297-.22-.594-.218-.969-.593-.875-.844-.875-2.39v-4.376h-1.672v-2.093h1.672v-2.688h2.438v2.688h2.328v2.093h-2.328v3.938q0 .719.312 1.047.266.297.907.297.343 0 .578-.094.234-.094.609-.328v2.39q-.797.329-1.703.329zm8.126.14q-1.422 0-2.562-.64-1.14-.657-1.781-1.797-.641-1.157-.641-2.594 0-1.36.625-2.531.64-1.172 1.75-1.86 1.125-.687 2.516-.687 1.468 0 2.53.64 1.063.625 1.61 1.735.563 1.094.563 2.437 0 .422-.063.828h-7.14q.187 1.125.906 1.72.719.593 1.719.593.843 0 1.453-.36.61-.374.953-.984l1.984.969q-1.453 2.531-4.422 2.531zm2.25-6.203q-.03-.453-.328-.89-.281-.438-.797-.72-.515-.296-1.203-.296-.875 0-1.5.515-.625.5-.906 1.391h4.734zm4.233-3.61h2.297v1.266h.156q.36-.672 1.094-1.109.75-.438 1.64-.438.657 0 1.203.204v2.453q-.5-.188-.859-.266-.344-.094-.734-.094-1.078 0-1.72.782-.624.78-.624 1.984v4.734h-2.453v-9.515z"/><path fill="#673ab7" d="M463.73 275.892v-59.496h32.598v59.496z" fill-rule="evenodd"/><path stroke="#351c75" stroke-linejoin="round" stroke-linecap="butt" d="M463.73 275.892v-59.496h32.598v59.496z"/><path fill="#f3f3f3" d="M485.048 258.045q0 1.015-.453 1.828-.47.812-1.297 1.28-.828.454-1.875.454-1.032 0-1.844-.453-.828-.469-1.297-1.281-.469-.813-.469-1.828 0-1.141.5-1.954.485-.812 1.375-1.171l.657 1.593q-.907.438-.907 1.532 0 .796.547 1.312t1.438.516q.906 0 1.453-.516t.547-1.312q0-1.11-.953-1.61l.687-1.578q.906.438 1.406 1.25.485.813.485 1.938zm0-7.7q0 1.063-.469 1.89-.484.813-1.297 1.282-.828.453-1.86.453-1 0-1.827-.453-.829-.469-1.297-1.281-.485-.828-.485-1.891 0-1.031.485-1.86.468-.827 1.297-1.28.828-.47 1.828-.47 1.031 0 1.86.47.812.453 1.296 1.28.469.829.469 1.86zm-1.625 0q0-.5-.235-.922-.234-.437-.687-.687-.453-.25-1.078-.25-.594 0-1.047.25-.453.25-.688.687-.25.422-.25.922 0 .516.25.938.235.421.688.687.453.266 1.047.266.61 0 1.078-.266.453-.266.687-.687.235-.422.235-.938zm-5.39-4.884v-1.64h.827v-.11q-.437-.281-.734-.813-.313-.531-.313-1.218 0-.922.47-1.672.452-.766 1.28-1.188.828-.422 1.86-.422 1.062 0 1.89.422.813.422 1.282 1.188.453.75.453 1.672 0 .687-.297 1.234-.297.531-.735.797v.11l.954-.11h2.734v1.75h-9.672zm5.39-3.485q0-.484-.25-.906-.25-.437-.703-.687-.454-.25-1.047-.25-.578 0-1.032.25-.453.25-.703.687-.25.422-.25.906 0 .485.25.907.25.422.703.687.454.25 1.032.25.593 0 1.047-.25.453-.265.703-.687.25-.422.25-.907zm1.093-7.044l-6.484 2.86v-1.985l4.219-1.765v-.094l-4.219-1.703v-1.938l9.672 4.188v1.89l-3.188-1.453z"/><path fill="#673ab7" d="M204.87 159.862h20.488v18.805c-10.243 0-10.243 7.236-20.488 3.618zm1.688 0v-2.438h20.348v18.923c-.773 0-1.548.131-1.548.131v-16.616zm1.586-2.438v-2.38h20.525v18.865c-.881 0-1.763.098-1.763.098v-16.583z" fill-rule="evenodd"/><path d="M204.87 159.862h20.488v18.805c-10.243 0-10.243 7.236-20.488 3.618zm1.688 0v-2.438h20.348v18.923c-.773 0-1.548.131-1.548.131m-17.214-19.054v-2.38h20.525v18.865c-.881 0-1.763.098-1.763.098"/><path d="M204.87 182.285c10.245 3.618 10.245-3.618 20.488-3.618v-2.189s.775-.13 1.548-.13v-2.34s.882-.099 1.763-.099v-18.864h-20.525v2.379h-1.586v2.438h-1.688z"/><path stroke="#351c75" stroke-linejoin="round" stroke-linecap="butt" d="M204.87 159.862h20.488v18.805c-10.243 0-10.243 7.236-20.488 3.618zm1.688 0v-2.438h20.348v18.923c-.773 0-1.548.131-1.548.131m-17.214-19.054v-2.38h20.525v18.865c-.881 0-1.763.098-1.763.098"/><path fill="#673ab7" d="M475.557 159.862h20.49v18.805c-10.245 0-10.245 7.236-20.49 3.618zm1.688 0v-2.438h20.35v18.923c-.774 0-1.549.131-1.549.131v-16.616zm1.587-2.438v-2.38h20.525v18.865c-.881 0-1.763.098-1.763.098v-16.583z" fill-rule="evenodd"/><path d="M475.557 159.862h20.49v18.805c-10.245 0-10.245 7.236-20.49 3.618zm1.688 0v-2.438h20.35v18.923c-.774 0-1.549.131-1.549.131m-17.214-19.054v-2.38h20.525v18.865c-.881 0-1.763.098-1.763.098"/><path d="M475.557 182.285c10.245 3.618 10.245-3.618 20.49-3.618v-2.189s.774-.13 1.547-.13v-2.34s.882-.099 1.763-.099v-18.864h-20.525v2.379h-1.587v2.438h-1.688z"/><path stroke="#351c75" stroke-linejoin="round" stroke-linecap="butt" d="M475.557 159.862h20.49v18.805c-10.245 0-10.245 7.236-20.49 3.618zm1.688 0v-2.438h20.35v18.923c-.774 0-1.549.131-1.549.131m-17.214-19.054v-2.38h20.525v18.865c-.881 0-1.763.098-1.763.098"/><path d="M46.144 299.892V24.742"/><path stroke="#666" stroke-width="2" stroke-linejoin="round" stroke-linecap="butt" d="M46.144 299.892V36.742"/><path fill="#666" stroke="#666" stroke-width="2" stroke-linecap="butt" d="M49.448 36.743l-3.304-9.076-3.303 9.076z" fill-rule="evenodd"/><path d="M45.858 298.864l755.59-1.166"/><path stroke="#666" stroke-width="2" stroke-linejoin="round" stroke-linecap="butt" d="M45.858 298.864l743.59-1.147"/><path fill="#666" stroke="#666" stroke-width="2" stroke-linecap="butt" d="M789.454 301.02l9.071-3.317-9.081-3.29z" fill-rule="evenodd"/></g></svg>