<svg viewBox="0 0 818.898 357.071" fill="none" stroke-linecap="square" stroke-miterlimit="10" xmlns="http://www.w3.org/2000/svg"><clipPath id="a"><path d="M0 0h818.898v357.07H0V0z"/></clipPath><g clip-path="url(#a)"><path d="M0 0h818.898v357.07H0z"/><path d="M0 294.743l.063-264.85h45.795l-.063 264.85z"/><path fill="#666" d="M30.739 221.417q0 1.641-.735 2.953-.735 1.297-2.063 2.032-1.329.734-2.985.734-1.672 0-2.968-.734-1.313-.735-2.062-2.032-.75-1.312-.75-2.953 0-1.812.782-3.109.782-1.313 2.204-1.875l1.062 2.547q-1.438.687-1.438 2.437 0 1.282.874 2.11.86.812 2.297.812 1.453 0 2.328-.812.875-.828.876-2.11 0-1.765-1.547-2.562l1.11-2.531q1.438.703 2.234 2 .781 1.296.78 3.093zm.003-12.299q0 1.672-.751 3-.766 1.328-2.079 2.063-1.312.734-2.953.734-1.625 0-2.937-.734-1.328-.735-2.078-2.063-.765-1.328-.765-3t.767-2.984q.75-1.328 2.078-2.063 1.313-.734 2.938-.734 1.64 0 2.953.734 1.312.735 2.077 2.063.75 1.312.75 2.984zm-2.578 0q0-.812-.375-1.5-.39-.687-1.11-1.094-.733-.406-1.718-.406-.969 0-1.687.406-.72.407-1.094 1.094-.391.688-.391 1.5 0 .797.39 1.485.375.687 1.093 1.109.719.406 1.688.406.953 0 1.703-.406.734-.422 1.125-1.11.375-.687.376-1.484zm-8.64-7.914l.002-2.625h1.359v-.171q-.781-.5-1.234-1.391-.469-.89-.468-1.938 0-1.968 1.203-2.984 1.188-1.031 3.25-1.031h6.766v2.797H23.98q-1.047 0-1.61.53-.578.532-.578 1.5 0 1.126.874 1.83.86.687 2.188.687H30.4l-.001 2.796H19.525zm11.224-17.9q0 1.64-.735 2.953-.735 1.297-2.063 2.031-1.328.735-2.985.735-1.672 0-2.968-.735-1.313-.734-2.062-2.031-.75-1.313-.75-2.953 0-1.813.782-3.11.782-1.312 2.204-1.875l1.062 2.547q-1.438.688-1.438 2.438 0 1.281.874 2.11.86.812 2.297.812 1.453 0 2.328-.813.875-.828.876-2.11 0-1.765-1.546-2.562l1.11-2.53q1.437.702 2.233 2 .781 1.296.78 3.093zm.003-11.034q-.001 1.969-1.22 3-1.219 1.016-3.39 1.016h-6.61v-2.797h6.266q1.11 0 1.75-.531.625-.531.626-1.406 0-1.188-.875-1.891-.875-.703-2.219-.703h-5.546v-2.797h10.875v2.625h-1.36v.172q.781.484 1.25 1.375.453.875.453 1.937zm-11.217-8.838v-2.625h1.454v-.172q-.766-.406-1.266-1.25-.515-.86-.515-1.89 0-.75.235-1.36h2.797q-.204.578-.297.969-.11.39-.11.844 0 1.234.906 1.969.89.718 2.25.718h5.422l-.001 2.797H19.534zm.002-9.107V151.7h1.454v-.172q-.766-.406-1.266-1.25-.515-.86-.515-1.89 0-.75.235-1.36h2.797q-.203.578-.297.969-.11.39-.11.844 0 1.234.906 1.968.89.72 2.25.72h5.422l-.001 2.796H19.536zm11.222-14.217q0 1.625-.75 2.938-.75 1.297-2.064 2.031-1.312.735-2.953.735-1.547 0-2.875-.72-1.343-.734-2.124-2.015-.797-1.281-.796-2.86 0-1.687.735-2.89.719-1.219 1.985-1.844 1.25-.64 2.78-.64.5 0 .938.062l-.002 8.172q1.313-.219 1.985-1.031.657-.828.657-1.969 0-.969-.406-1.656-.422-.688-1.125-1.094l1.11-2.265q2.906 1.656 2.905 5.046zm-7.109-2.578q-.5.047-1 .375-.515.328-.844.922-.328.578-.328 1.375 0 1 .593 1.719.578.703 1.578 1.031l.001-5.422zm-4.108-4.832v-2.625h1.36v-.172q-.78-.5-1.234-1.39-.468-.89-.468-1.938 0-1.969 1.204-2.984 1.187-1.031 3.25-1.031h6.766l-.001 2.796h-6.422q-1.047 0-1.61.532-.578.53-.578 1.5 0 1.125.875 1.828.859.687 2.187.687h5.547v2.797H19.54zm11.223-17.9q0 1.64-.735 2.953-.735 1.297-2.063 2.031-1.328.734-2.984.734-1.672 0-2.969-.734-1.312-.734-2.062-2.031-.75-1.313-.75-2.953.001-1.813.783-3.11.781-1.312 2.203-1.875l1.062 2.547q-1.438.688-1.438 2.438 0 1.28.875 2.109.859.812 2.296.812 1.453 0 2.329-.812.875-.828.875-2.11 0-1.765-1.546-2.562l1.11-2.531q1.437.703 2.234 2 .78 1.297.78 3.094zm-.857-10.487l-10.36 4.578v-3.172l6.767-2.812v-.172l-6.765-2.719v-3.11l15.483 6.72v3l-5.125-2.313z"/><path fill="#38761d" d="M66.782 216.181H194.72v59.906H66.782z" fill-rule="evenodd"/><path stroke="#274e13" stroke-linejoin="round" stroke-linecap="butt" d="M66.782 216.181H194.72v59.906H66.782z"/><path fill="#f3f3f3" d="M83.153 242.491q-.656 0-1.125-.468-.469-.47-.469-1.11 0-.656.469-1.11.469-.468 1.125-.468t1.11.469q.452.453.452 1.11 0 .64-.453 1.109-.453.468-1.11.468zm-1.235 1.047h2.438v9.516h-2.438v-9.516zm4.975 0h2.297v1.188h.156q.422-.688 1.203-1.078.797-.407 1.703-.407 1.719 0 2.61 1.047.906 1.047.906 2.86v5.906h-2.453v-5.61q0-.921-.47-1.421-.468-.5-1.296-.5-1 0-1.61.765-.593.766-.593 1.922v4.844h-2.453v-9.516zm15.315 9.672q-.703 0-1.297-.219-.593-.218-.968-.593-.875-.844-.875-2.391v-4.375h-1.672v-2.094h1.672v-2.687h2.437v2.687h2.328v2.094h-2.328v3.937q0 .72.313 1.047.265.297.906.297.344 0 .578-.094.234-.093.61-.328v2.391q-.797.328-1.704.328zm8.127.14q-1.422 0-2.563-.64-1.14-.656-1.78-1.797-.642-1.156-.642-2.594 0-1.359.625-2.53.641-1.173 1.75-1.86 1.125-.688 2.516-.688 1.469 0 2.531.641 1.063.625 1.61 1.734.562 1.094.562 2.438 0 .422-.062.828h-7.14q.187 1.125.905 1.719.72.593 1.72.593.843 0 1.452-.359.61-.375.953-.984l1.985.968q-1.453 2.532-4.422 2.532zm2.25-6.202q-.031-.454-.328-.891-.282-.438-.797-.719-.516-.297-1.203-.297-.875 0-1.5.516-.625.5-.907 1.39h4.735zm4.232-3.61h2.297v1.266h.156q.36-.672 1.094-1.11.75-.437 1.64-.437.657 0 1.204.203v2.453q-.5-.187-.86-.265-.343-.094-.734-.094-1.078 0-1.719.781-.625.781-.625 1.984v4.735h-2.453v-9.516zm7.904 0h2.297v1.156h.14q.391-.609 1.141-1.03.75-.423 1.719-.423 1.281 0 2.328.641 1.062.64 1.656 1.797.594 1.156.594 2.625t-.594 2.625q-.594 1.14-1.656 1.781-1.047.64-2.328.64-.969 0-1.735-.406-.75-.406-1.125-1.03h-.14l.14 1.343v3.828h-2.437v-13.547zm4.86 7.563q.687 0 1.28-.36.61-.359.954-.984.36-.64.36-1.453 0-.828-.36-1.453-.344-.64-.953-.985-.594-.343-1.282-.343-.672 0-1.265.343-.594.344-.953.985-.344.625-.344 1.453 0 .812.344 1.453.359.625.953.984.593.36 1.265.36zm6.9-7.563h2.297v1.266h.156q.36-.672 1.094-1.11.75-.437 1.64-.437.657 0 1.204.203v2.453q-.5-.187-.86-.265-.344-.094-.734-.094-1.078 0-1.719.781-.625.781-.625 1.984v4.735h-2.453v-9.516zm12.435 9.813q-1.422 0-2.563-.64-1.14-.657-1.78-1.798-.641-1.156-.641-2.594 0-1.359.625-2.53.64-1.173 1.75-1.86 1.125-.688 2.515-.688 1.469 0 2.531.641 1.063.625 1.61 1.734.562 1.094.562 2.438 0 .422-.062.828h-7.14q.187 1.125.905 1.719.72.593 1.72.593.843 0 1.452-.359.61-.375.953-.984l1.985.968q-1.453 2.532-4.422 2.532zm2.25-6.203q-.031-.454-.328-.891-.281-.438-.797-.719-.516-.297-1.203-.297-.875 0-1.5.516-.625.5-.906 1.39h4.734zm8.373 6.062q-.703 0-1.297-.219-.594-.218-.969-.593-.875-.844-.875-2.391v-4.375h-1.671v-2.094h1.671v-2.687h2.438v2.687h2.328v2.094h-2.328v3.937q0 .72.312 1.047.266.297.907.297.343 0 .578-.094.234-.093.61-.328v2.391q-.798.328-1.704.328zm8.126.14q-1.421 0-2.562-.64-1.14-.656-1.781-1.797-.64-1.156-.64-2.594 0-1.359.624-2.53.64-1.173 1.75-1.86 1.125-.688 2.516-.688 1.468 0 2.53.641 1.063.625 1.61 1.734.563 1.094.563 2.438 0 .422-.063.828h-7.14q.187 1.125.906 1.719.719.593 1.719.593.843 0 1.453-.359.61-.375.953-.984l1.984.968q-1.453 2.532-4.422 2.532zm2.25-6.202q-.03-.454-.328-.891-.28-.438-.797-.719-.515-.297-1.203-.297-.875 0-1.5.516-.625.5-.906 1.39h4.734zm4.233-3.61h2.297v1.266h.156q.36-.672 1.094-1.11.75-.437 1.64-.437.657 0 1.204.203v2.453q-.5-.187-.86-.265-.344-.094-.734-.094-1.078 0-1.719.781-.625.781-.625 1.984v4.735h-2.453v-9.516z"/><path fill="#ea4335" d="M657.257 216.181h129.638v59.906H657.257z" fill-rule="evenodd"/><path stroke="#5b0f00" stroke-linejoin="round" stroke-linecap="butt" d="M657.257 216.181h129.638v59.906H657.257z"/><path fill="#f3f3f3" d="M673.702 239.694h2.516v13.36h-2.516v-13.36zm9.778 13.657q-1.484 0-2.64-.657-1.157-.671-1.797-1.812-.64-1.156-.64-2.578t.64-2.578q.64-1.157 1.797-1.813 1.156-.672 2.64-.672 1.453 0 2.61.672 1.156.656 1.796 1.813.641 1.156.641 2.578t-.64 2.578q-.641 1.14-1.797 1.812-1.157.657-2.61.657zm0-2.25q.703 0 1.297-.328.61-.344.953-.985.36-.64.36-1.484t-.36-1.469q-.344-.64-.953-.969-.594-.343-1.297-.343-.719 0-1.312.343-.594.328-.969.97-.36.624-.36 1.468 0 .828.36 1.484.375.64.969.985.593.328 1.312.328zm6.911-7.563h2.297v1.188h.156q.422-.688 1.204-1.078.796-.407 1.703-.407 1.718 0 2.609 1.047.906 1.047.906 2.86v5.906h-2.453v-5.61q0-.921-.469-1.421-.468-.5-1.296-.5-1 0-1.61.765-.594.766-.594 1.922v4.844h-2.453v-9.516zm11.52-3.844h3.25l3.546 9.391h.14l3.548-9.39h3.265v13.359h-2.5v-6.578l.14-2.235h-.14l-3.39 8.813h-1.97l-3.405-8.813h-.157l.157 2.235v6.578h-2.485v-13.36zm21.009 13.657q-1.485 0-2.641-.657-1.156-.671-1.797-1.812-.64-1.156-.64-2.578t.64-2.578q.64-1.157 1.797-1.813 1.156-.672 2.64-.672 1.454 0 2.61.672 1.156.656 1.797 1.813.64 1.156.64 2.578t-.64 2.578q-.64 1.14-1.797 1.812-1.156.657-2.61.657zm0-2.25q.703 0 1.296-.328.61-.344.954-.985.359-.64.359-1.484t-.36-1.469q-.343-.64-.953-.969-.593-.343-1.296-.343-.72 0-1.313.343-.594.328-.969.97-.36.624-.36 1.468 0 .828.36 1.484.375.64.97.985.593.328 1.312.328zm6.91-7.563h2.297v1.188h.157q.422-.688 1.203-1.078.797-.407 1.703-.407 1.719 0 2.61 1.047.906 1.047.906 2.86v5.906h-2.454v-5.61q0-.921-.468-1.421-.469-.5-1.297-.5-1 0-1.61.765-.593.766-.593 1.922v4.844h-2.453v-9.516zm11.176-3.844h2.453v7.282h.125l3.422-3.438h3v.156l-3.61 3.516 3.782 5.688v.156h-2.891l-2.594-4.156-1.234 1.203v2.953h-2.453v-13.36zm14.897 13.657q-1.422 0-2.562-.64-1.14-.657-1.781-1.798-.641-1.156-.641-2.594 0-1.359.625-2.53.64-1.173 1.75-1.86 1.125-.688 2.516-.688 1.468 0 2.53.641 1.063.625 1.61 1.734.563 1.094.563 2.438 0 .422-.063.828h-7.14q.187 1.125.906 1.719.719.593 1.719.593.843 0 1.453-.359.61-.375.953-.984l1.984.968q-1.453 2.532-4.422 2.532zm2.25-6.203q-.03-.454-.328-.891-.281-.438-.797-.719-.515-.297-1.203-.297-.875 0-1.5.516-.625.5-.906 1.39h4.734zm7.202 5.453l-4-9.063h2.765l2.469 5.922h.156l2.36-5.922h2.734l-5.89 13.547h-2.626l2.032-4.484z"/><path fill="#673ab7" d="M524.444 95.13h133.732v59.905H524.444z" fill-rule="evenodd"/><path stroke="#351c75" stroke-linejoin="round" stroke-linecap="butt" d="M524.444 95.13h133.732v59.905H524.444z"/><path fill="#f3f3f3" d="M542.936 107.643h2.515v13.36h-2.515v-13.36zm9.778 13.657q-1.485 0-2.64-.657-1.157-.672-1.798-1.812-.64-1.156-.64-2.578t.64-2.578q.64-1.157 1.797-1.813 1.156-.672 2.64-.672 1.454 0 2.61.672 1.156.656 1.797 1.813.64 1.156.64 2.578t-.64 2.578q-.64 1.14-1.797 1.812-1.156.657-2.61.657zm0-2.25q.703 0 1.297-.329.61-.343.953-.984.36-.64.36-1.484t-.36-1.47q-.344-.64-.953-.968-.594-.344-1.297-.344-.719 0-1.313.344-.593.328-.968.969-.36.625-.36 1.469 0 .828.36 1.484.375.64.968.984.594.329 1.313.329zm6.91-7.563h2.298v1.188h.156q.422-.688 1.203-1.079.797-.406 1.703-.406 1.719 0 2.61 1.047.906 1.047.906 2.86v5.906h-2.453v-5.61q0-.922-.469-1.422-.469-.5-1.297-.5-1 0-1.61.766-.593.766-.593 1.922v4.844h-2.453v-9.516zm11.52-3.844h3.25l3.547 9.39h.14l3.547-9.39h3.266v13.36h-2.5v-6.578l.14-2.235h-.14l-3.39 8.813h-1.97l-3.406-8.813h-.156l.156 2.235v6.578h-2.484v-13.36zm21.01 13.657q-1.485 0-2.641-.657-1.157-.672-1.797-1.812-.641-1.156-.641-2.578t.64-2.578q.641-1.157 1.798-1.813 1.156-.672 2.64-.672 1.453 0 2.61.672 1.156.656 1.796 1.813.641 1.156.641 2.578t-.64 2.578q-.641 1.14-1.797 1.812-1.157.657-2.61.657zm0-2.25q.702 0 1.296-.329.61-.343.953-.984.36-.64.36-1.484t-.36-1.47q-.344-.64-.953-.968-.594-.344-1.297-.344-.719 0-1.312.344-.594.328-.97.969-.358.625-.358 1.469 0 .828.359 1.484.375.64.969.984.593.329 1.312.329zm6.91-7.563h2.297v1.188h.156q.422-.688 1.203-1.079.797-.406 1.704-.406 1.718 0 2.609 1.047.906 1.047.906 2.86v5.906h-2.453v-5.61q0-.922-.469-1.422-.468-.5-1.297-.5-1 0-1.609.766-.594.766-.594 1.922v4.844h-2.453v-9.516zm11.175-3.844h2.453v7.282h.125l3.422-3.438h3v.156l-3.609 3.516 3.781 5.687v.157h-2.89l-2.594-4.157-1.235 1.204v2.953h-2.453v-13.36zm14.898 13.657q-1.422 0-2.563-.641-1.14-.656-1.78-1.797-.641-1.156-.641-2.594 0-1.36.625-2.531.64-1.172 1.75-1.86 1.125-.687 2.515-.687 1.469 0 2.531.64 1.063.626 1.61 1.735.562 1.094.562 2.438 0 .422-.062.828h-7.14q.187 1.125.905 1.719.72.593 1.72.593.843 0 1.452-.36.61-.374.953-.983l1.985.968q-1.453 2.532-4.422 2.532zm2.25-6.204q-.031-.453-.328-.89-.281-.438-.797-.719-.516-.297-1.203-.297-.875 0-1.5.516-.625.5-.906 1.39h4.734zm7.201 5.454l-4-9.063h2.766l2.469 5.922h.156l2.36-5.922h2.734l-5.891 13.547h-2.625l2.031-4.484zm6.627.453zM553.721 143.3q-1.484 0-2.64-.657-1.157-.672-1.797-1.812-.64-1.156-.64-2.578t.64-2.578q.64-1.157 1.797-1.813 1.156-.672 2.64-.672 1.453 0 2.61.672 1.156.656 1.797 1.813.64 1.156.64 2.578t-.64 2.578q-.641 1.14-1.797 1.812-1.157.657-2.61.657zm0-2.25q.703 0 1.297-.329.61-.343.953-.984.36-.64.36-1.484t-.36-1.47q-.343-.64-.953-.968-.594-.344-1.297-.344-.718 0-1.312.344-.594.328-.969.969-.36.625-.36 1.469 0 .828.36 1.484.375.64.969.984.594.329 1.312.329zm6.849-7.563h2.297v1.156h.14q.39-.61 1.14-1.03.75-.423 1.72-.423 1.28 0 2.328.64 1.062.641 1.656 1.798.594 1.156.594 2.625 0 1.468-.594 2.625-.594 1.14-1.656 1.78-1.047.642-2.328.642-.97 0-1.735-.407-.75-.406-1.125-1.03h-.14l.14 1.343v3.828h-2.437v-13.547zm4.86 7.563q.687 0 1.28-.36.61-.36.954-.984.359-.64.359-1.453 0-.828-.36-1.453-.343-.641-.953-.985-.593-.344-1.28-.344-.673 0-1.266.344-.594.344-.954.985-.343.625-.343 1.453 0 .812.343 1.453.36.625.954.984.593.36 1.265.36zm11.04 2.109q-.703 0-1.296-.219-.594-.219-.97-.594-.874-.843-.874-2.39v-4.375h-1.672v-2.094h1.672V130.8h2.437v2.687h2.328v2.094h-2.328v3.937q0 .72.313 1.047.265.297.906.297.344 0 .578-.094.235-.093.61-.328v2.39q-.797.329-1.704.329zm5.049-10.719q-.657 0-1.125-.469-.469-.468-.469-1.109 0-.656.469-1.11.468-.468 1.125-.468.656 0 1.11.469.452.453.452 1.11 0 .64-.453 1.108-.453.47-1.11.47zm-1.235 1.047h2.438v9.516h-2.438v-9.516zm4.975 0h2.296v1.188h.157q.437-.688 1.187-1.079.766-.406 1.703-.406 1 0 1.75.485.75.468 1.063 1.187.469-.734 1.281-1.203.813-.469 1.906-.469 1.625 0 2.47 1 .858 1 .858 2.688v6.125h-2.421v-5.672q0-.89-.422-1.375t-1.172-.485q-.953 0-1.531.75-.563.75-.563 1.985v4.797h-2.437v-5.672q0-.89-.438-1.375-.437-.485-1.234-.485-.907 0-1.453.75-.547.75-.547 1.985v4.797h-2.453v-9.516zm18.386-1.047q-.656 0-1.125-.469-.469-.468-.469-1.109 0-.656.47-1.11.468-.468 1.124-.468.656 0 1.11.469.453.453.453 1.11 0 .64-.454 1.108-.453.47-1.109.47zm-1.234 1.047h2.437v9.516h-2.437v-9.516zm4.49 7.516l4.968-5.438h-4.812v-2.078h7.812v2l-4.953 5.438h5.11v2.078H606.9v-2zm14.486 2.297q-1.422 0-2.563-.641-1.14-.656-1.78-1.797-.641-1.156-.641-2.594 0-1.36.625-2.53.64-1.173 1.75-1.86 1.125-.688 2.515-.688 1.469 0 2.531.64 1.063.626 1.61 1.735.562 1.094.562 2.438 0 .422-.062.828h-7.14q.187 1.125.905 1.719.72.593 1.72.593.843 0 1.452-.36.61-.374.953-.983l1.985.968q-1.453 2.532-4.422 2.532zm2.25-6.204q-.031-.453-.328-.89-.281-.438-.797-.719-.516-.297-1.203-.297-.875 0-1.5.516-.625.5-.906 1.39h4.734zm4.232-3.609h2.297v1.266h.157q.359-.672 1.093-1.11.75-.437 1.64-.437.657 0 1.204.203v2.453q-.5-.187-.86-.266-.343-.093-.734-.093-1.078 0-1.718.78-.625.782-.625 1.985v4.735h-2.454v-9.516z"/><path fill="#673ab7" d="M194.72 216.17h100.944v59.906H194.719z" fill-rule="evenodd"/><path stroke="#351c75" stroke-linejoin="round" stroke-linecap="butt" d="M194.72 216.17h100.944v59.906H194.719z"/><path fill="#f3f3f3" d="M209.214 228.684h5.22q1.124 0 2.062.469.937.468 1.484 1.265.547.797.547 1.75 0 1.016-.5 1.75-.5.735-1.297 1.125v.157q1.047.375 1.656 1.187.625.813.625 1.938 0 1.109-.593 1.953-.579.843-1.579 1.312-1 .453-2.218.453h-5.407v-13.359zm5.032 5.453q.828 0 1.312-.453.5-.469.5-1.156 0-.672-.484-1.125-.469-.453-1.25-.453h-2.594v3.187h2.516zm.28 5.61q.923 0 1.423-.47.515-.484.515-1.25 0-.765-.515-1.25-.516-.484-1.5-.484h-2.719v3.453h2.797zm9.337 2.593q-1.515 0-2.484-.875-.969-.89-.969-2.328 0-.953.5-1.672.5-.734 1.375-1.125.89-.39 1.953-.39 1.469 0 2.516.421v-.406q0-.781-.594-1.265-.578-.485-1.578-.485-.672 0-1.297.313-.625.297-1.031.797l-1.563-1.235q.688-.89 1.735-1.375 1.047-.484 2.265-.484 2.188 0 3.328 1.015 1.141 1 1.141 2.938v5.86h-2.406v-.97h-.156q-.422.563-1.125.922-.704.344-1.61.344zm.578-1.906q1.063 0 1.688-.672.625-.687.625-1.594-.953-.453-2-.453-1.906 0-1.906 1.422 0 .578.406.938.422.359 1.187.359zm10.591 1.906q-1.734 0-2.812-.703-1.063-.719-1.5-1.844l2.187-.953q.297.672.844 1.016.547.344 1.281.344.672 0 1.11-.22.453-.218.453-.702 0-.469-.406-.688-.407-.234-1.235-.422l-1.109-.25q-1.156-.28-1.922-1.015-.766-.735-.766-1.844 0-.813.485-1.469.5-.656 1.344-1 .859-.36 1.875-.36 2.953 0 3.937 2.063l-2.078.922q-.563-1-1.797-1-.64 0-1.016.235-.359.218-.359.578 0 .672 1.266 1.015l1.39.328q1.422.36 2.141 1.094.719.719.719 1.781 0 .907-.532 1.61-.53.703-1.453 1.094-.922.39-2.047.39zm10.266 0q-1.422 0-2.563-.64-1.14-.657-1.781-1.797-.64-1.157-.64-2.594 0-1.36.624-2.531.64-1.172 1.75-1.86 1.125-.687 2.516-.687 1.469 0 2.531.64 1.063.625 1.61 1.735.562 1.094.562 2.437 0 .422-.063.828h-7.14q.187 1.125.906 1.72.719.593 1.719.593.844 0 1.453-.36.61-.374.953-.984l1.984.969q-1.453 2.531-4.421 2.531zm2.25-6.203q-.032-.453-.329-.89-.28-.438-.796-.72-.516-.296-1.204-.296-.875 0-1.5.515-.625.5-.906 1.391h4.735zm4.232-7.453h2.453v13.36h-2.453v-13.36zm6.241 2.797q-.656 0-1.125-.469-.468-.469-.468-1.11 0-.656.468-1.109.47-.468 1.125-.468.657 0 1.11.468.453.453.453 1.11 0 .64-.453 1.11-.453.468-1.11.468zm-1.234 1.047h2.437v9.515h-2.437v-9.515zm4.974 0h2.297v1.187h.156q.422-.687 1.203-1.078.797-.406 1.704-.406 1.718 0 2.609 1.047.906 1.047.906 2.86v5.905h-2.453v-5.609q0-.922-.469-1.422-.468-.5-1.297-.5-1 0-1.609.766-.594.765-.594 1.922v4.843h-2.453v-9.515zm15.644 9.812q-1.422 0-2.562-.64-1.141-.657-1.782-1.797-.64-1.157-.64-2.594 0-1.36.625-2.531.64-1.172 1.75-1.86 1.125-.687 2.515-.687 1.469 0 2.532.64 1.062.625 1.609 1.735.562 1.094.562 2.437 0 .422-.062.828h-7.14q.187 1.125.906 1.72.718.593 1.718.593.844 0 1.453-.36.61-.374.954-.984l1.984.969q-1.453 2.531-4.422 2.531zm2.25-6.203q-.031-.453-.328-.89-.281-.438-.797-.72-.516-.296-1.203-.296-.875 0-1.5.515-.625.5-.906 1.391h4.734zm3.045 5.906zm-71.714 22.297q-1.438 0-2.578-.64-1.141-.641-1.782-1.797-.64-1.157-.64-2.61 0-1.468.64-2.609.641-1.14 1.782-1.797 1.14-.656 2.578-.656 1.578 0 2.718.687 1.141.672 1.641 1.922l-2.234.938q-.594-1.266-2.125-1.266-1.125 0-1.844.766-.719.765-.719 2.015 0 1.266.719 2.032.719.765 1.844.765 1.547 0 2.234-1.344l2.219.97q-.61 1.25-1.75 1.937-1.14.687-2.703.687zm10.768 0q-1.484 0-2.64-.656-1.157-.672-1.798-1.813-.64-1.156-.64-2.578t.64-2.578q.641-1.156 1.797-1.812 1.157-.672 2.64-.672 1.454 0 2.61.672 1.157.656 1.797 1.812.64 1.156.64 2.578t-.64 2.578q-.64 1.141-1.797 1.813-1.156.656-2.61.656zm0-2.25q.703 0 1.297-.328.61-.344.953-.984.36-.64.36-1.485 0-.843-.36-1.468-.344-.641-.953-.97-.594-.343-1.297-.343-.719 0-1.313.344-.593.328-.968.969-.36.625-.36 1.468 0 .828.36 1.485.375.64.968.984.594.328 1.313.328zm6.911-7.562h2.297v1.187h.156q.438-.687 1.188-1.078.765-.406 1.703-.406 1 0 1.75.484.75.469 1.062 1.188.469-.735 1.281-1.203.813-.47 1.907-.47 1.625 0 2.468 1 .86 1 .86 2.688v6.125h-2.422v-5.672q0-.89-.422-1.375-.422-.484-1.172-.484-.953 0-1.531.75-.563.75-.563 1.984v4.797h-2.437v-5.672q0-.89-.438-1.375-.437-.484-1.234-.484-.906 0-1.453.75t-.547 1.984v4.797h-2.453v-9.515zm16.933 0h2.297v1.156h.14q.391-.61 1.141-1.031.75-.422 1.72-.422 1.28 0 2.327.64 1.063.641 1.657 1.797.593 1.157.593 2.625 0 1.47-.593 2.625-.594 1.141-1.657 1.782-1.047.64-2.328.64-.969 0-1.734-.406-.75-.406-1.125-1.031h-.14l.14 1.343v3.829h-2.438v-13.547zm4.86 7.562q.687 0 1.281-.36.61-.359.953-.984.36-.64.36-1.453 0-.828-.36-1.453-.344-.64-.953-.984-.594-.344-1.281-.344-.672 0-1.266.344t-.953.984q-.344.625-.344 1.453 0 .813.344 1.453.36.625.953.985.594.36 1.266.36zm8.29-8.61q-.655 0-1.124-.468-.469-.469-.469-1.11 0-.656.469-1.109.469-.468 1.125-.468t1.11.468q.452.453.452 1.11 0 .64-.453 1.11-.453.468-1.11.468zm-1.233 1.048h2.437v9.515h-2.437v-9.515zm4.974-3.844h2.453v13.36h-2.453v-13.36zm9.32 13.656q-1.423 0-2.563-.64-1.141-.657-1.782-1.797-.64-1.157-.64-2.594 0-1.36.625-2.531.64-1.172 1.75-1.86 1.125-.687 2.515-.687 1.47 0 2.532.64 1.062.625 1.609 1.735.563 1.094.563 2.437 0 .422-.063.828h-7.14q.187 1.125.906 1.72.718.593 1.718.593.844 0 1.454-.36.609-.374.953-.984l1.984.969q-1.453 2.531-4.422 2.531zm2.25-6.203q-.032-.453-.329-.89-.281-.438-.797-.72-.515-.296-1.203-.296-.875 0-1.5.515-.625.5-.906 1.391h4.734zm4.232-3.61h2.296v1.266h.157q.36-.672 1.093-1.109.75-.438 1.641-.438.656 0 1.203.204v2.453q-.5-.188-.86-.266-.343-.094-.734-.094-1.078 0-1.718.782-.625.78-.625 1.984v4.734h-2.453v-9.515z"/><path d="M513.714 210.839l12.315-50.867"/><path stroke="#351c75" stroke-width="2" stroke-linejoin="round" stroke-linecap="butt" d="M513.714 210.839l9.491-39.204"/><path fill="#351c75" stroke="#351c75" stroke-width="2" stroke-linecap="butt" d="M526.416 172.413l-1.075-9.599-5.346 8.044z" fill-rule="evenodd"/><path d="M657.332 158.316l1.638 50.048"/><path stroke="#351c75" stroke-width="2" stroke-linejoin="round" stroke-linecap="butt" d="M657.332 158.316l1.246 38.054"/><path fill="#351c75" stroke="#351c75" stroke-width="2" stroke-linecap="butt" d="M655.276 196.478l3.599 8.963 3.004-9.18z" fill-rule="evenodd"/><path fill="#ff9800" d="M295.664 216.181h94.362v59.906h-94.362z" fill-rule="evenodd"/><path stroke="#5b0f00" stroke-linejoin="round" stroke-linecap="butt" d="M295.664 216.181h94.362v59.906h-94.362z"/><path fill="#f3f3f3" d="M306.868 239.694h5.219q1.125 0 2.062.47.938.468 1.485 1.265.546.797.546 1.75 0 1.015-.5 1.75-.5.734-1.296 1.125v.156q1.046.375 1.656 1.188.625.812.625 1.937 0 1.11-.594 1.953-.578.844-1.578 1.313-1 .453-2.219.453h-5.406v-13.36zm5.031 5.454q.828 0 1.313-.454.5-.468.5-1.156 0-.672-.485-1.125-.468-.453-1.25-.453h-2.593v3.188h2.515zm.281 5.609q.922 0 1.422-.469.516-.484.516-1.25 0-.765-.516-1.25-.515-.484-1.5-.484h-2.718v3.453h2.796zm9.337 2.594q-1.516 0-2.485-.875-.968-.89-.968-2.328 0-.954.5-1.672.5-.735 1.375-1.125.89-.39 1.953-.39 1.468 0 2.515.421v-.406q0-.782-.593-1.266-.579-.484-1.579-.484-.671 0-1.296.312-.625.297-1.032.797l-1.562-1.234q.687-.89 1.734-1.375t2.266-.485q2.187 0 3.328 1.016 1.14 1 1.14 2.937v5.86h-2.406v-.969h-.156q-.422.563-1.125.922-.703.344-1.61.344zm.578-1.907q1.062 0 1.687-.671.625-.688.625-1.594-.953-.453-2-.453-1.906 0-1.906 1.422 0 .578.406.937.422.36 1.188.36zm10.591 1.907q-1.734 0-2.813-.703-1.062-.72-1.5-1.844l2.188-.953q.297.672.844 1.015.547.344 1.281.344.672 0 1.11-.219.452-.218.452-.703 0-.469-.406-.687-.406-.235-1.234-.422l-1.11-.25q-1.156-.281-1.921-1.016-.766-.734-.766-1.844 0-.812.484-1.468.5-.657 1.344-1 .86-.36 1.875-.36 2.953 0 3.938 2.063l-2.079.922q-.562-1-1.796-1-.641 0-1.016.234-.36.219-.36.578 0 .672 1.266 1.016l1.39.328q1.423.36 2.141 1.094.72.718.72 1.781 0 .906-.532 1.61-.531.702-1.453 1.093-.922.39-2.047.39zm10.265 0q-1.422 0-2.562-.64-1.141-.657-1.782-1.798-.64-1.156-.64-2.594 0-1.359.625-2.53.64-1.173 1.75-1.86 1.125-.688 2.515-.688 1.47 0 2.532.641 1.062.625 1.609 1.734.563 1.094.563 2.438 0 .422-.063.828h-7.14q.187 1.125.906 1.719.718.593 1.718.593.844 0 1.454-.359.609-.375.953-.984l1.984.968q-1.453 2.532-4.422 2.532zm2.25-6.203q-.031-.454-.328-.891-.281-.438-.797-.719-.515-.297-1.203-.297-.875 0-1.5.516-.625.5-.906 1.39h4.734zm4.233-7.454h2.453v13.36h-2.453v-13.36zm6.24 2.797q-.655 0-1.124-.468-.469-.47-.469-1.11 0-.656.469-1.11.469-.468 1.125-.468t1.11.469q.452.453.452 1.11 0 .64-.453 1.109-.453.468-1.11.468zm-1.233 1.047h2.437v9.516h-2.437v-9.516zm4.974 0h2.297v1.188h.156q.422-.688 1.203-1.078.797-.407 1.703-.407 1.719 0 2.61 1.047.906 1.047.906 2.86v5.906h-2.453v-5.61q0-.921-.47-1.421-.468-.5-1.296-.5-1 0-1.61.765-.593.766-.593 1.922v4.844h-2.453v-9.516zm15.644 9.813q-1.422 0-2.563-.64-1.14-.657-1.781-1.798-.64-1.156-.64-2.594 0-1.359.624-2.53.64-1.173 1.75-1.86 1.125-.688 2.516-.688 1.469 0 2.531.641 1.063.625 1.61 1.734.562 1.094.562 2.438 0 .422-.063.828h-7.14q.187 1.125.906 1.719.719.593 1.719.593.844 0 1.453-.359.61-.375.953-.984l1.984.968q-1.453 2.532-4.421 2.532zm2.25-6.203q-.032-.454-.329-.891-.28-.438-.796-.719-.516-.297-1.204-.297-.875 0-1.5.516-.625.5-.906 1.39h4.735z"/><path fill="#673ab7" d="M390.026 216.181h122.3v59.906h-122.3z" fill-rule="evenodd"/><path stroke="#351c75" stroke-linejoin="round" stroke-linecap="butt" d="M390.026 216.181h122.3v59.906h-122.3z"/><path fill="#f3f3f3" d="M402.802 228.694h2.515v13.36h-2.515v-13.36zm9.778 13.657q-1.484 0-2.64-.657-1.157-.671-1.798-1.812-.64-1.156-.64-2.578t.64-2.578q.641-1.157 1.797-1.813 1.157-.672 2.64-.672 1.454 0 2.61.672 1.157.656 1.797 1.813.64 1.156.64 2.578t-.64 2.578q-.64 1.14-1.797 1.812-1.156.657-2.61.657zm0-2.25q.703 0 1.297-.328.61-.344.953-.985.36-.64.36-1.484t-.36-1.469q-.344-.64-.953-.969-.594-.343-1.297-.343-.719 0-1.313.343-.593.328-.968.97-.36.624-.36 1.468 0 .828.36 1.484.375.64.968.985.594.328 1.313.328zm6.911-7.563h2.297v1.188h.156q.422-.688 1.203-1.078.797-.407 1.703-.407 1.72 0 2.61 1.047.906 1.047.906 2.86v5.906h-2.453v-5.61q0-.921-.469-1.421t-1.297-.5q-1 0-1.61.765-.593.766-.593 1.922v4.844h-2.453v-9.516zm11.519-3.844h3.25l3.547 9.391h.14l3.547-9.39h3.266v13.359h-2.5v-6.578l.14-2.235h-.14l-3.39 8.813h-1.97l-3.406-8.813h-.156l.156 2.235v6.578h-2.484v-13.36zm21.01 13.657q-1.485 0-2.641-.657-1.157-.671-1.797-1.812-.64-1.156-.64-2.578t.64-2.578q.64-1.157 1.797-1.813 1.156-.672 2.64-.672 1.453 0 2.61.672 1.156.656 1.797 1.813.64 1.156.64 2.578t-.64 2.578q-.641 1.14-1.797 1.812-1.157.657-2.61.657zm0-2.25q.702 0 1.296-.328.61-.344.953-.985.36-.64.36-1.484t-.36-1.469q-.343-.64-.953-.969-.594-.343-1.297-.343-.718 0-1.312.343-.594.328-.969.97-.36.624-.36 1.468 0 .828.36 1.484.375.64.969.985.594.328 1.312.328zm6.91-7.563h2.297v1.188h.156q.422-.688 1.204-1.078.796-.407 1.703-.407 1.718 0 2.61 1.047.905 1.047.905 2.86v5.906h-2.453v-5.61q0-.921-.469-1.421-.468-.5-1.296-.5-1 0-1.61.765-.594.766-.594 1.922v4.844h-2.453v-9.516zm11.175-3.844h2.454v7.282h.125l3.421-3.438h3v.156l-3.609 3.516 3.781 5.688v.156h-2.89l-2.594-4.156-1.234 1.203v2.953h-2.454v-13.36zm14.898 13.657q-1.422 0-2.562-.64-1.141-.657-1.782-1.798-.64-1.156-.64-2.594 0-1.359.625-2.53.64-1.173 1.75-1.86 1.125-.688 2.515-.688 1.469 0 2.532.641 1.062.625 1.609 1.734.562 1.094.562 2.438 0 .422-.062.828h-7.14q.187 1.125.906 1.719.718.593 1.718.593.844 0 1.453-.359.61-.375.954-.984l1.984.968q-1.453 2.532-4.422 2.532zm2.25-6.203q-.031-.454-.328-.891-.281-.438-.797-.719-.516-.297-1.203-.297-.875 0-1.5.516-.625.5-.906 1.39h4.734zm7.201 5.453l-4-9.063h2.766l2.469 5.922h.156l2.36-5.922h2.734l-5.891 13.547h-2.625l2.031-4.484zm6.627.453zm-87.695 14.578h-1.703v-2.094h1.703v-.515q0-1.625.969-2.547.969-.922 2.547-.922.89 0 1.547.203v2.39q-.36-.156-.64-.234-.266-.078-.61-.078-.625 0-1 .36-.36.359-.36.968v.375h2.329v2.094h-2.329v7.422h-2.453v-7.422zm6.674-2.094h2.297v1.266h.156q.36-.672 1.094-1.11.75-.437 1.64-.437.657 0 1.204.203v2.453q-.5-.187-.86-.265-.343-.094-.734-.094-1.078 0-1.719.781-.625.781-.625 1.985v4.734h-2.453v-9.516zm12.529 9.813q-1.485 0-2.64-.657-1.157-.671-1.798-1.812-.64-1.156-.64-2.578t.64-2.578q.64-1.157 1.797-1.813 1.156-.672 2.64-.672 1.454 0 2.61.672 1.156.656 1.797 1.813.64 1.156.64 2.578t-.64 2.578q-.64 1.14-1.797 1.812-1.156.657-2.61.657zm0-2.25q.703 0 1.297-.328.609-.344.953-.985.36-.64.36-1.484t-.36-1.469q-.344-.64-.953-.969-.594-.343-1.297-.343-.719 0-1.313.343-.593.328-.968.97-.36.624-.36 1.468 0 .828.36 1.484.375.64.968.985.594.328 1.313.328zm6.91-7.563h2.298v1.188h.156q.422-.688 1.203-1.078.797-.407 1.703-.407 1.719 0 2.61 1.047.906 1.047.906 2.86v5.906h-2.453v-5.61q0-.921-.469-1.421t-1.297-.5q-1 0-1.61.765-.593.766-.593 1.922v4.844H439.5v-9.516zm15.317 9.672q-.704 0-1.297-.219-.594-.218-.969-.593-.875-.844-.875-2.391v-4.375h-1.672v-2.094h1.672v-2.687h2.437v2.687h2.329v2.094h-2.329v3.937q0 .72.313 1.047.266.297.906.297.344 0 .578-.094.235-.093.61-.328v2.391q-.797.328-1.703.328zm8.126.14q-1.422 0-2.562-.64-1.141-.656-1.782-1.797-.64-1.156-.64-2.594 0-1.359.625-2.53.64-1.173 1.75-1.86 1.125-.688 2.515-.688 1.469 0 2.532.641 1.062.625 1.609 1.734.562 1.094.562 2.438 0 .422-.062.828h-7.14q.187 1.125.906 1.719.718.593 1.718.593.844 0 1.453-.359.61-.375.954-.984l1.984.968q-1.453 2.532-4.422 2.532zm2.25-6.202q-.031-.454-.328-.891-.281-.438-.797-.719-.516-.297-1.203-.297-.875 0-1.5.516-.625.5-.906 1.39h4.734zm4.232-3.61h2.297v1.188h.157q.421-.688 1.203-1.078.797-.407 1.703-.407 1.719 0 2.61 1.047.905 1.047.905 2.86v5.906h-2.453v-5.61q0-.921-.468-1.421-.47-.5-1.297-.5-1 0-1.61.765-.593.766-.593 1.922v4.844h-2.454v-9.516zm15.27 9.813q-1.282 0-2.344-.64-1.047-.642-1.657-1.782-.609-1.156-.609-2.625t.61-2.625q.609-1.156 1.656-1.797 1.062-.64 2.343-.64.97 0 1.72.421.75.422 1.14 1.031h.14l-.14-1.343v-3.657h2.422v13.36h-2.282v-1.14h-.14q-.375.624-1.14 1.03-.75.407-1.72.407zm.406-2.25q.687 0 1.28-.36.61-.359.954-.984.36-.64.36-1.453 0-.828-.36-1.453-.344-.64-.953-.985-.594-.343-1.281-.343-.672 0-1.266.343-.594.344-.953.985-.36.625-.36 1.453 0 .812.36 1.453.36.625.953.984.594.36 1.266.36z"/><path fill="#ff9800" d="M512.325 216.181h146.646v59.906H512.325z" fill-rule="evenodd"/><path stroke="#5b0f00" stroke-linejoin="round" stroke-linecap="butt" d="M512.325 216.181h146.646v59.906H512.325z"/><path fill="#f3f3f3" d="M549.671 239.694h5.219q1.125 0 2.062.47.938.468 1.485 1.265.547.797.547 1.75 0 1.015-.5 1.75-.5.734-1.297 1.125v.156q1.047.375 1.656 1.188.625.812.625 1.937 0 1.11-.594 1.953-.578.844-1.578 1.313-1 .453-2.219.453h-5.406v-13.36zm5.031 5.454q.829 0 1.313-.454.5-.468.5-1.156 0-.672-.484-1.125-.47-.453-1.25-.453h-2.594v3.188h2.515zm.282 5.609q.922 0 1.422-.469.515-.484.515-1.25 0-.765-.515-1.25-.516-.484-1.5-.484h-2.72v3.453h2.798zm9.336 2.594q-1.516 0-2.484-.875-.97-.89-.97-2.328 0-.954.5-1.672.5-.735 1.376-1.125.89-.39 1.953-.39 1.469 0 2.516.421v-.406q0-.782-.594-1.266-.578-.484-1.578-.484-.672 0-1.297.312-.625.297-1.031.797l-1.563-1.234q.688-.89 1.734-1.375 1.047-.485 2.266-.485 2.188 0 3.328 1.016 1.14 1 1.14 2.937v5.86h-2.405v-.969h-.157q-.422.563-1.125.922-.703.344-1.61.344zm.578-1.907q1.063 0 1.688-.671.625-.688.625-1.594-.954-.453-2-.453-1.907 0-1.907 1.422 0 .578.407.937.421.36 1.187.36zm10.591 1.907q-1.734 0-2.812-.703-1.063-.72-1.5-1.844l2.187-.953q.297.672.844 1.015.547.344 1.281.344.672 0 1.11-.219.453-.218.453-.703 0-.469-.407-.687-.406-.235-1.234-.422l-1.11-.25q-1.156-.281-1.921-1.016-.766-.734-.766-1.844 0-.812.485-1.468.5-.657 1.343-1 .86-.36 1.875-.36 2.953 0 3.938 2.063l-2.078.922q-.563-1-1.797-1-.64 0-1.016.234-.36.219-.36.578 0 .672 1.266 1.016l1.391.328q1.422.36 2.14 1.094.72.718.72 1.781 0 .906-.532 1.61-.531.702-1.453 1.093-.922.39-2.047.39zm10.265 0q-1.422 0-2.562-.64-1.14-.657-1.781-1.798-.641-1.156-.641-2.594 0-1.359.625-2.53.64-1.173 1.75-1.86 1.125-.688 2.516-.688 1.468 0 2.53.641 1.063.625 1.61 1.734.563 1.094.563 2.438 0 .422-.063.828h-7.14q.187 1.125.906 1.719.719.593 1.719.593.843 0 1.453-.359.61-.375.953-.984l1.984.968q-1.453 2.532-4.422 2.532zm2.25-6.203q-.03-.454-.328-.891-.281-.438-.797-.719-.515-.297-1.203-.297-.875 0-1.5.516-.625.5-.906 1.39h4.734zm4.233-7.454h2.453v13.36h-2.453v-13.36zm6.241 2.797q-.656 0-1.125-.468-.469-.47-.469-1.11 0-.656.469-1.11.469-.468 1.125-.468t1.11.469q.453.453.453 1.11 0 .64-.454 1.109-.453.468-1.109.468zm-1.234 1.047h2.437v9.516h-2.437v-9.516zm4.974 0h2.297v1.188h.156q.422-.688 1.203-1.078.797-.407 1.703-.407 1.719 0 2.61 1.047.906 1.047.906 2.86v5.906h-2.453v-5.61q0-.921-.469-1.421t-1.297-.5q-1 0-1.61.765-.593.766-.593 1.922v4.844h-2.453v-9.516zm15.644 9.813q-1.422 0-2.563-.64-1.14-.657-1.781-1.798-.64-1.156-.64-2.594 0-1.359.624-2.53.64-1.173 1.75-1.86 1.125-.688 2.516-.688 1.469 0 2.531.641 1.063.625 1.61 1.734.562 1.094.562 2.438 0 .422-.062.828h-7.141q.187 1.125.906 1.719.719.593 1.719.593.844 0 1.453-.359.61-.375.953-.984l1.985.968q-1.454 2.532-4.422 2.532zm2.25-6.203q-.032-.454-.328-.891-.282-.438-.797-.719-.516-.297-1.203-.297-.875 0-1.5.516-.625.5-.907 1.39h4.735z"/><path d="M110.304 303.982l150.804.094v28.252l-150.804-.094z"/><path fill="#666" d="M166.974 316.8q-.578 0-.984-.407-.406-.406-.406-.984 0-.282.093-.516.094-.234.313-.531l1.39-2.077.938.625-.813 1.25q.375.14.61.469.234.328.234.781 0 .578-.406.984-.39.406-.969.406zm3.5.002q-.578 0-.984-.407-.406-.406-.406-.984 0-.282.093-.516.094-.234.313-.53l1.39-2.078.938.625-.813 1.25q.375.14.61.469.234.328.234.781 0 .579-.406.985-.39.406-.969.405zm3.183-4.248l2.094.001v2.891l-.14 1.422h.14q.344-.578 1.016-.921.672-.36 1.453-.359 1.5.001 2.281.892.797.891.797 2.454v5.078l-2.094-.001v-4.813q0-.781-.422-1.219-.422-.437-1.125-.438-.843 0-1.375.671-.531.672-.531 1.656v4.14h-2.094v-11.454zm13.523 11.712q-1.266-.001-2.25-.564t-1.547-1.548q-.547-.985-.547-2.22 0-1.218.547-2.202.563-1 1.547-1.561.984-.578 2.25-.577 1.25 0 2.234.58 1 .563 1.547 1.563.563.985.563 2.203 0 1.235-.563 2.219-.547.984-1.547 1.546-.984.562-2.234.56zm0-1.938q.61 0 1.125-.28.516-.281.812-.828.313-.547.313-1.28 0-.72-.313-1.267-.296-.547-.812-.828-.516-.298-1.125-.298-.61 0-1.125.296-.5.281-.813.828-.312.547-.312 1.265 0 .719.312 1.282.313.547.813.828.516.282 1.125.282zm9.496 1.819q-.61 0-1.125-.173-.515-.188-.828-.516-.75-.72-.75-2.047v-3.766h-1.422v-1.782h1.422v-2.312l2.094.002v2.312l2 .001v1.782l-2-.002v3.391q0 .61.265.89.235.25.782.251.297 0 .5-.078t.515-.265v2.047q-.687.265-1.453.265zm2.907-7.952l.922-1.233q-.422-.11-.688-.454-.265-.36-.265-.797 0-.578.406-.984.406-.422.984-.421.578 0 .97.422.405.407.405.985 0 .281-.093.515-.094.235-.297.531l-1.39 2.062-.954-.626zm3.5.003l.922-1.234q-.422-.11-.688-.454-.265-.36-.265-.797 0-.578.406-.984.406-.421.984-.421t.97.422q.405.407.405.985 0 .281-.093.516-.094.234-.297.53l-1.39 2.062-.954-.625z"/><path d="M306.837 303.982l150.803.094v28.252l-150.803-.094z"/><path fill="#666" d="M341.523 316.786q-.578 0-.984-.407-.407-.406-.407-.984 0-.282.094-.516.094-.234.313-.53l1.39-2.078.938.625-.813 1.25q.375.14.61.469.234.328.234.781 0 .579-.406.985-.39.406-.969.405zm3.5.002q-.578 0-.984-.406-.407-.407-.407-.985 0-.281.094-.516.094-.234.313-.53l1.39-2.078.938.626-.813 1.25q.375.14.61.468.234.329.234.782 0 .578-.406.984-.39.406-.969.405zm3.183-.95h1.953v1.016h.14q.376-.593 1.016-.937.657-.343 1.454-.342.875 0 1.515.422.64.407.906 1.032.407-.64 1.094-1.046.703-.406 1.64-.405 1.391 0 2.11.86.735.86.735 2.313v5.25h-2.079v-4.86q0-.766-.359-1.188-.36-.422-1-.423-.812 0-1.297.656-.484.64-.484 1.703v4.11l-2.11-.002v-4.86q0-.765-.375-1.187-.375-.422-1.062-.423-.766 0-1.234.656-.47.64-.47 1.702v4.11l-2.093-.001v-8.157zm18.467 8.417q-1.266 0-2.25-.564-.985-.563-1.547-1.548-.547-.984-.547-2.219 0-1.218.547-2.203.562-1 1.547-1.561.984-.578 2.25-.577 1.25.001 2.234.58 1 .563 1.547 1.563.562.985.562 2.204 0 1.234-.562 2.218-.547.984-1.547 1.546-.984.562-2.234.561zm0-1.937q.609 0 1.125-.281.515-.28.812-.828.313-.546.313-1.28 0-.72-.313-1.266-.297-.547-.812-.83-.516-.296-1.125-.297-.61 0-1.125.297-.5.28-.813.827-.312.547-.312 1.266 0 .718.312 1.281.313.547.813.829.515.281 1.125.282zm8.433 1.942q-1.296 0-2.125-.75-.828-.767-.828-2.001 0-.813.422-1.438.438-.624 1.188-.952.75-.343 1.672-.343 1.265.001 2.156.377v-.36q0-.672-.516-1.078-.5-.422-1.344-.423-.578 0-1.109.265t-.89.687l-1.344-1.048q.593-.765 1.484-1.186.906-.422 1.953-.421 1.875.001 2.844.877.984.86.984 2.516v5.031l-2.062-.001v-.828h-.125q-.375.468-.985.78-.593.297-1.375.296zm.5-1.624q.907 0 1.438-.578.547-.593.547-1.374-.813-.391-1.719-.392-1.625 0-1.625 1.218 0 .5.344.813.36.312 1.015.313zm5.992-6.778l1.953.001v1.079h.14q.298-.563.938-.937.64-.39 1.407-.39.562 0 1.03.188v2.094q-.437-.157-.734-.235-.296-.078-.625-.078-.937-.001-1.484.67-.531.672-.531 1.703v4.063l-2.094-.002v-8.156zm5.8 8.16zm4.776-11.45l2.094.001v2.89l-.14 1.423h.14q.344-.578 1.015-.921.672-.36 1.454-.359 1.5.001 2.28.892.798.891.798 2.454v5.078l-2.094-.001v-4.813q0-.781-.422-1.219-.422-.438-1.125-.438-.844 0-1.375.67-.531.672-.531 1.657v4.14h-2.094v-11.454zm13.523 11.712q-1.266-.001-2.25-.564-.985-.563-1.547-1.548-.547-.985-.547-2.22 0-1.218.547-2.202.562-1 1.547-1.562.984-.577 2.25-.576 1.25 0 2.234.58 1 .562 1.547 1.563.562.984.562 2.203 0 1.235-.562 2.219-.547.984-1.547 1.545-.984.562-2.234.562zm0-1.938q.61 0 1.125-.28.515-.281.812-.828.313-.547.313-1.281 0-.719-.313-1.266-.297-.547-.812-.829-.516-.297-1.125-.297-.61 0-1.125.296-.5.28-.813.828-.312.546-.312 1.265 0 .719.312 1.281.313.548.813.83.515.28 1.125.281zm9.496 1.818q-.61 0-1.125-.172-.516-.188-.828-.516-.75-.72-.75-2.048v-3.765l-1.422-.001v-1.781h1.422v-2.312l2.094.001v2.313l2 .001v1.781h-2v3.39q0 .61.265.89.235.25.782.251.296 0 .5-.078.203-.078.515-.265v2.047q-.687.265-1.453.264zm2.907-7.95l.922-1.235q-.422-.11-.688-.453-.265-.36-.265-.797 0-.578.406-.984.406-.422.984-.422t.969.423q.406.406.406.985 0 .28-.094.515-.093.234-.296.531l-1.391 2.062-.953-.626zm3.5.001l.922-1.233q-.422-.11-.688-.454-.265-.36-.265-.797 0-.578.406-.984.406-.422.984-.421.578 0 .969.422.406.407.406.985 0 .281-.094.515-.093.235-.296.531l-1.391 2.062-.953-.626z"/><path d="M46.144 299.892V24.742"/><path stroke="#666" stroke-width="2" stroke-linejoin="round" stroke-linecap="butt" d="M46.144 299.892V36.742"/><path fill="#666" stroke="#666" stroke-width="2" stroke-linecap="butt" d="M49.448 36.743l-3.304-9.076-3.303 9.076z" fill-rule="evenodd"/><path d="M45.858 298.864l755.59-1.166"/><path stroke="#666" stroke-width="2" stroke-linejoin="round" stroke-linecap="butt" d="M45.858 298.864l743.59-1.147"/><path fill="#666" stroke="#666" stroke-width="2" stroke-linecap="butt" d="M789.454 301.02l9.071-3.317-9.081-3.29z" fill-rule="evenodd"/></g></svg>