<svg viewBox="0 0 818.898 357.071" fill="none" stroke-linecap="square" stroke-miterlimit="10" xmlns="http://www.w3.org/2000/svg"><clipPath id="a"><path d="M0 0h818.898v357.07H0V0z"/></clipPath><g clip-path="url(#a)"><path d="M0 0h818.898v357.07H0z"/><path d="M0 294.743l.063-264.85h45.795l-.063 264.85z"/><path fill="#666" d="M30.739 221.417q0 1.641-.735 2.953-.735 1.297-2.063 2.032-1.329.734-2.985.734-1.672 0-2.968-.734-1.313-.735-2.062-2.032-.75-1.312-.75-2.953 0-1.812.782-3.109.782-1.313 2.204-1.875l1.062 2.547q-1.438.687-1.438 2.437 0 1.282.874 2.11.86.812 2.297.812 1.453 0 2.328-.812.875-.828.876-2.11 0-1.765-1.547-2.562l1.11-2.531q1.438.703 2.234 2 .781 1.296.78 3.093zm.003-12.299q0 1.672-.751 3-.766 1.328-2.079 2.063-1.312.734-2.953.734-1.625 0-2.937-.734-1.328-.735-2.078-2.063-.765-1.328-.765-3t.767-2.984q.75-1.328 2.078-2.063 1.313-.734 2.938-.734 1.64 0 2.953.734 1.312.735 2.077 2.063.75 1.312.75 2.984zm-2.578 0q0-.812-.375-1.5-.39-.687-1.11-1.094-.733-.406-1.718-.406-.969 0-1.687.406-.72.407-1.094 1.094-.391.688-.391 1.5 0 .797.39 1.485.375.687 1.093 1.109.719.406 1.688.406.953 0 1.703-.406.734-.422 1.125-1.11.375-.687.376-1.484zm-8.64-7.914l.002-2.625h1.359v-.171q-.781-.5-1.234-1.391-.469-.89-.468-1.938 0-1.968 1.203-2.984 1.188-1.031 3.25-1.031h6.766v2.797H23.98q-1.047 0-1.61.53-.578.532-.578 1.5 0 1.126.874 1.83.86.687 2.188.687H30.4l-.001 2.796H19.525zm11.224-17.9q0 1.64-.735 2.953-.735 1.297-2.063 2.031-1.328.735-2.985.735-1.672 0-2.968-.735-1.313-.734-2.062-2.031-.75-1.313-.75-2.953 0-1.813.782-3.11.782-1.312 2.204-1.875l1.062 2.547q-1.438.688-1.438 2.438 0 1.281.874 2.11.86.812 2.297.812 1.453 0 2.328-.813.875-.828.876-2.11 0-1.765-1.546-2.562l1.11-2.53q1.437.702 2.233 2 .781 1.296.78 3.093zm.003-11.034q-.001 1.969-1.22 3-1.219 1.016-3.39 1.016h-6.61v-2.797h6.266q1.11 0 1.75-.531.625-.531.626-1.406 0-1.188-.875-1.891-.875-.703-2.219-.703h-5.546v-2.797h10.875v2.625h-1.36v.172q.781.484 1.25 1.375.453.875.453 1.937zm-11.217-8.838v-2.625h1.454v-.172q-.766-.406-1.266-1.25-.515-.86-.515-1.89 0-.75.235-1.36h2.797q-.204.578-.297.969-.11.39-.11.844 0 1.234.906 1.969.89.718 2.25.718h5.422l-.001 2.797H19.534zm.002-9.107V151.7h1.454v-.172q-.766-.406-1.266-1.25-.515-.86-.515-1.89 0-.75.235-1.36h2.797q-.203.578-.297.969-.11.39-.11.844 0 1.234.906 1.968.89.72 2.25.72h5.422l-.001 2.796H19.536zm11.222-14.217q0 1.625-.75 2.938-.75 1.297-2.064 2.031-1.312.735-2.953.735-1.547 0-2.875-.72-1.343-.734-2.124-2.015-.797-1.281-.796-2.86 0-1.687.735-2.89.719-1.219 1.985-1.844 1.25-.64 2.78-.64.5 0 .938.062l-.002 8.172q1.313-.219 1.985-1.031.657-.828.657-1.969 0-.969-.406-1.656-.422-.688-1.125-1.094l1.11-2.265q2.906 1.656 2.905 5.046zm-7.109-2.578q-.5.047-1 .375-.515.328-.844.922-.328.578-.328 1.375 0 1 .593 1.719.578.703 1.578 1.031l.001-5.422zm-4.108-4.832v-2.625h1.36v-.172q-.78-.5-1.234-1.39-.468-.89-.468-1.938 0-1.969 1.204-2.984 1.187-1.031 3.25-1.031h6.766l-.001 2.796h-6.422q-1.047 0-1.61.532-.578.53-.578 1.5 0 1.125.875 1.828.859.687 2.187.687h5.547v2.797H19.54zm11.223-17.9q0 1.64-.735 2.953-.735 1.297-2.063 2.031-1.328.734-2.984.734-1.672 0-2.969-.734-1.312-.734-2.062-2.031-.75-1.313-.75-2.953.001-1.813.783-3.11.781-1.312 2.203-1.875l1.062 2.547q-1.438.688-1.438 2.438 0 1.28.875 2.109.859.812 2.296.812 1.453 0 2.329-.812.875-.828.875-2.11 0-1.765-1.546-2.562l1.11-2.531q1.437.703 2.234 2 .78 1.297.78 3.094zm-.857-10.487l-10.36 4.578v-3.172l6.767-2.812v-.172l-6.765-2.719v-3.11l15.483 6.72v3l-5.125-2.313z"/><path fill="#38761d" d="M66.782 216.181h68.536v59.906H66.782z" fill-rule="evenodd"/><path stroke="#274e13" stroke-linejoin="round" stroke-linecap="butt" d="M66.782 216.181h68.536v59.906H66.782z"/><path fill="#f3f3f3" d="M80.035 239.694h2.516v10.97h5.656v2.39h-8.172v-13.36zm10.28 0h2.515v10.97h5.657v2.39h-8.172v-13.36zm10.28 0h2.515v13.36h-2.516v-13.36zm5.215 3.844h2.297v1.188h.156q.422-.688 1.203-1.078.797-.407 1.703-.407 1.72 0 2.61 1.047.906 1.047.906 2.86v5.906h-2.453v-5.61q0-.921-.469-1.421t-1.297-.5q-1 0-1.61.765-.593.766-.593 1.922v4.844h-2.453v-9.516zm15.316 9.672q-.703 0-1.297-.219-.594-.218-.969-.593-.875-.844-.875-2.391v-4.375h-1.672v-2.094h1.672v-2.687h2.438v2.687h2.328v2.094h-2.328v3.937q0 .72.312 1.047.266.297.906.297.344 0 .579-.094.234-.093.609-.328v2.391q-.797.328-1.703.328z"/><path fill="#ea4335" d="M699.598 216.192h87.308v59.905h-87.308z" fill-rule="evenodd"/><path stroke="#5b0f00" stroke-linejoin="round" stroke-linecap="butt" d="M699.598 216.192h87.308v59.905h-87.308z"/><path fill="#f3f3f3" d="M728.813 239.705h8.47v2.39h-5.954v3.25h5.36v2.391h-5.36v5.328h-2.515v-13.359zm13.394 2.39h-3.735v-2.39h9.985v2.39h-3.735v10.97h-2.515v-10.97zm8.266-2.39h2.516v10.969h5.656v2.39h-8.172v-13.359z"/><path fill="#673ab7" d="M398.709 97.895h100.504v59.906H398.709z" fill-rule="evenodd"/><path stroke="#351c75" stroke-linejoin="round" stroke-linecap="butt" d="M398.709 97.895h100.504v59.906H398.709z"/><path fill="#f3f3f3" d="M430.558 110.408h4.515q2.094 0 3.64.844 1.548.844 2.376 2.36.844 1.5.844 3.484 0 1.969-.844 3.484-.828 1.516-2.375 2.36-1.547.828-3.64.828h-4.516v-13.36zm4.406 10.97q2.156 0 3.297-1.141 1.14-1.157 1.14-3.141 0-2-1.14-3.14-1.14-1.157-3.297-1.157h-1.89v8.578h1.89zm9.362-10.97h8.469v2.391h-5.953v3.25h5.359v2.39h-5.36v5.329h-2.515v-13.36zm17.065 13.657q-1.922 0-3.531-.907-1.61-.906-2.563-2.5-.953-1.593-.953-3.562 0-1.984.953-3.578.953-1.594 2.563-2.5 1.61-.906 3.531-.906 1.578 0 2.875.546 1.297.547 2.219 1.563l-1.735 1.703q-.671-.719-1.484-1.062-.812-.36-1.89-.36-1.235 0-2.266.578-1.016.563-1.625 1.625-.61 1.047-.61 2.39 0 1.345.61 2.392.625 1.046 1.656 1.625 1.047.562 2.266.562 1.875 0 3.062-1.094.375-.343.656-.86.282-.53.407-1.14h-4.188v-2.14h6.547q.125.515.125 1.172 0 1.328-.406 2.468-.39 1.125-1.219 1.985-.89.968-2.156 1.484t-2.844.516zm7.504-.297zm-54.14 22.297q-1.438 0-2.578-.641-1.141-.64-1.782-1.797-.64-1.156-.64-2.61 0-1.468.64-2.609.641-1.14 1.782-1.796 1.14-.657 2.578-.657 1.578 0 2.719.688 1.14.672 1.64 1.922l-2.234.937q-.594-1.265-2.125-1.265-1.125 0-1.844.765-.719.766-.719 2.016 0 1.265.719 2.031.719.766 1.844.766 1.547 0 2.234-1.344l2.219.969q-.61 1.25-1.75 1.937-1.14.688-2.703.688zm10.768 0q-1.484 0-2.64-.657-1.157-.671-1.798-1.812-.64-1.156-.64-2.578t.64-2.578q.641-1.157 1.797-1.813 1.157-.672 2.64-.672 1.454 0 2.61.672 1.157.656 1.797 1.813.64 1.156.64 2.578t-.64 2.578q-.64 1.14-1.797 1.812-1.156.657-2.61.657zm0-2.25q.703 0 1.297-.328.61-.344.953-.985.36-.64.36-1.484t-.36-1.469q-.344-.64-.953-.969-.594-.343-1.297-.343-.719 0-1.313.343-.593.328-.968.969-.36.625-.36 1.469 0 .828.36 1.484.375.64.968.985.594.328 1.313.328zm6.911-7.563h2.297v1.188h.156q.438-.688 1.188-1.078.765-.407 1.703-.407 1 0 1.75.485.75.468 1.062 1.187.469-.734 1.282-1.203.812-.469 1.906-.469 1.625 0 2.469 1 .859 1 .859 2.688v6.125h-2.422v-5.672q0-.89-.422-1.375-.422-.484-1.172-.484-.953 0-1.531.75-.562.75-.562 1.984v4.797h-2.438v-5.672q0-.89-.437-1.375-.438-.484-1.235-.484-.906 0-1.453.75t-.547 1.984v4.797h-2.453v-9.516zm16.933 0h2.297v1.156h.14q.391-.609 1.141-1.03.75-.423 1.72-.423 1.28 0 2.327.64 1.063.642 1.657 1.798.593 1.156.593 2.625t-.593 2.625q-.594 1.14-1.657 1.781-1.047.64-2.328.64-.969 0-1.734-.406-.75-.406-1.125-1.03h-.14l.14 1.343v3.828h-2.438v-13.547zm4.86 7.563q.687 0 1.281-.36.61-.36.953-.984.36-.64.36-1.453 0-.828-.36-1.453-.344-.641-.953-.985-.594-.343-1.281-.343-.672 0-1.266.343-.594.344-.953.985-.344.625-.344 1.453 0 .812.344 1.453.36.625.953.984.594.36 1.266.36zm8.291-8.61q-.656 0-1.125-.468-.469-.47-.469-1.11 0-.656.469-1.11.469-.468 1.125-.468t1.11.469q.452.453.452 1.11 0 .64-.453 1.109-.453.468-1.109.468zm-1.234 1.047h2.437v9.516h-2.437v-9.516zm4.974-3.844h2.453v13.36h-2.453v-13.36zm9.32 13.657q-1.423 0-2.563-.641-1.14-.656-1.782-1.797-.64-1.156-.64-2.594 0-1.359.625-2.53.64-1.173 1.75-1.86 1.125-.688 2.515-.688 1.47 0 2.532.64 1.062.626 1.61 1.735.562 1.094.562 2.438 0 .422-.063.828h-7.14q.187 1.125.906 1.719.718.593 1.718.593.844 0 1.454-.359.609-.375.953-.984l1.984.968q-1.453 2.532-4.422 2.532zm2.25-6.203q-.032-.454-.329-.891-.281-.438-.797-.719-.515-.297-1.203-.297-.875 0-1.5.516-.625.5-.906 1.39h4.734zm4.232-3.61h2.297v1.266h.156q.36-.672 1.094-1.11.75-.437 1.64-.437.656 0 1.203.203v2.453q-.5-.187-.86-.265-.343-.094-.733-.094-1.079 0-1.72.781-.624.781-.624 1.984v4.735h-2.453v-9.516z"/><path fill="#673ab7" d="M135.318 275.892v-59.496h21.322v59.496z" fill-rule="evenodd"/><path stroke="#351c75" stroke-linejoin="round" stroke-linecap="butt" d="M135.318 275.892v-59.496h21.322v59.496z"/><path fill="#f3f3f3" d="M149.797 261.117q0 .407-.11.75-.124.344-.343.547-.484.5-1.36.5h-2.5v.953h-1.202v-.953h-1.532v-1.39h1.532v-1.329h1.203v1.329h2.234q.422 0 .61-.188.171-.14.171-.5 0-.203-.047-.328-.062-.14-.187-.36h1.36q.171.454.171.97zm-5.515-2.095v-1.312h.734v-.078q-.39-.203-.64-.625-.25-.438-.25-.938 0-.375.109-.687h1.406q-.11.297-.156.5-.047.187-.047.406 0 .625.453.984.437.36 1.125.36h2.703v1.39h-5.437zm-.594-5.331q0 .375-.266.64-.265.266-.64.266t-.625-.265q-.266-.266-.266-.641t.266-.625q.25-.266.625-.266t.64.266q.266.25.266.625zm.594.703v-1.39h5.437v1.39h-5.437zm7.906-5.352q0 1.03-.469 1.718-.453.688-1.11.922l-.53-1.312q.406-.172.64-.516.234-.36.234-.812 0-.657-.406-1.047-.406-.39-1.14-.39h-.438v.077q.36.266.563.688.187.406.187.937 0 .672-.344 1.25-.343.578-.968.938-.641.344-1.485.344-.844 0-1.469-.344-.64-.36-.984-.938-.36-.578-.36-1.25 0-.531.204-.937.187-.422.547-.688v-.078h-.578v-1.344h5.062q.875 0 1.516.344.64.344.984.969t.344 1.469zm-3.735-.016q0-.594-.406-1-.422-.422-1.125-.422-.734 0-1.14.422-.407.406-.407 1t.407 1.016q.406.406 1.14.406.719 0 1.125-.406.406-.422.406-1.016zm3.735-6.634q0 1.031-.469 1.719-.453.687-1.11.922l-.53-1.313q.406-.172.64-.515.234-.36.234-.813 0-.656-.406-1.047-.406-.39-1.14-.39h-.438v.078q.36.265.563.687.187.406.187.938 0 .672-.344 1.25-.343.578-.968.937-.641.344-1.485.344-.844 0-1.469-.344-.64-.36-.984-.937-.36-.578-.36-1.25 0-.532.204-.938.187-.422.547-.687v-.078h-.578v-1.344h5.062q.875 0 1.516.344.64.343.984.968t.344 1.47zm-3.735-.016q0-.593-.406-1-.422-.421-1.125-.421-.734 0-1.14.421-.407.407-.407 1 0 .594.407 1.016.406.406 1.14.406.719 0 1.125-.406.406-.422.406-1.016zm1.438-6.68q0 .812-.375 1.468-.375.641-1.031 1.016-.657.36-1.47.36-.78 0-1.437-.36-.671-.36-1.062-1-.406-.64-.406-1.422 0-.844.375-1.453.359-.61.984-.922.625-.312 1.39-.312.25 0 .47.03v4.079q.656-.11 1-.516.328-.406.328-.984 0-.484-.204-.828-.218-.344-.562-.547l.547-1.125q1.453.828 1.453 2.516zm-3.547-1.282q-.266.016-.516.188-.25.156-.406.453-.172.297-.172.688 0 .5.297.859.297.36.797.516v-2.704zm-2.062-2.427v-1.312h.734v-.078q-.39-.204-.64-.625-.25-.438-.25-.938 0-.375.109-.687h1.406q-.11.296-.156.5-.047.187-.047.406 0 .625.453.984.437.36 1.125.36h2.703v1.39h-5.437z"/><path d="M395.462 212.087l3.244-50.426"/><path stroke="#351c75" stroke-width="2" stroke-linejoin="round" stroke-linecap="butt" d="M395.462 212.087l2.474-38.45"/><path fill="#351c75" stroke="#351c75" stroke-width="2" stroke-linecap="butt" d="M401.232 173.849l-2.714-9.27-3.879 8.846z" fill-rule="evenodd"/><path d="M496.453 162.075l1.638 50.047"/><path stroke="#351c75" stroke-width="2" stroke-linejoin="round" stroke-linecap="butt" d="M496.453 162.075l1.245 38.053"/><path fill="#351c75" stroke="#351c75" stroke-width="2" stroke-linecap="butt" d="M494.397 200.237l3.598 8.963 3.005-9.18z" fill-rule="evenodd"/><path fill="#ff9800" d="M275.047 216.396h100.504v59.906H275.047z" fill-rule="evenodd"/><path stroke="#5b0f00" stroke-linejoin="round" stroke-linecap="butt" d="M275.047 216.396h100.504v59.906H275.047z"/><path fill="#f3f3f3" d="M289.322 239.91h5.219q1.125 0 2.062.468.938.47 1.485 1.266.547.797.547 1.75 0 1.016-.5 1.75t-1.297 1.125v.156q1.047.375 1.656 1.188.625.812.625 1.937 0 1.11-.594 1.953-.578.844-1.578 1.313-1 .453-2.219.453h-5.406v-13.36zm5.031 5.453q.828 0 1.313-.453.5-.47.5-1.157 0-.671-.485-1.125-.468-.453-1.25-.453h-2.593v3.188h2.515zm.282 5.61q.921 0 1.421-.47.516-.484.516-1.25 0-.765-.516-1.25-.515-.484-1.5-.484h-2.718v3.453h2.797zm9.336 2.593q-1.516 0-2.485-.875-.968-.89-.968-2.328 0-.953.5-1.672.5-.734 1.375-1.125.89-.39 1.953-.39 1.469 0 2.515.421v-.406q0-.781-.593-1.266-.578-.484-1.578-.484-.672 0-1.297.312-.625.297-1.032.797l-1.562-1.234q.687-.89 1.734-1.375 1.047-.484 2.266-.484 2.187 0 3.328 1.015 1.14 1 1.14 2.938v5.86h-2.406v-.97h-.156q-.422.563-1.125.922-.703.344-1.61.344zm.578-1.906q1.062 0 1.687-.672.625-.688.625-1.594-.953-.453-2-.453-1.906 0-1.906 1.422 0 .578.406.937.422.36 1.188.36zm10.591 1.906q-1.734 0-2.812-.703-1.063-.719-1.5-1.844l2.187-.953q.297.672.844 1.016.547.343 1.281.343.672 0 1.11-.218.453-.22.453-.704 0-.468-.407-.687-.406-.234-1.234-.422l-1.11-.25q-1.156-.281-1.921-1.016-.766-.734-.766-1.843 0-.813.484-1.47.5-.655 1.344-1 .86-.358 1.875-.358 2.953 0 3.938 2.062l-2.078.922q-.563-1-1.797-1-.64 0-1.016.234-.36.22-.36.578 0 .672 1.266 1.016l1.39.328q1.423.36 2.142 1.094.718.719.718 1.781 0 .906-.53 1.61-.532.703-1.454 1.093-.922.39-2.047.39zm10.265 0q-1.422 0-2.562-.64-1.14-.657-1.782-1.798-.64-1.156-.64-2.593 0-1.36.625-2.532.64-1.171 1.75-1.859 1.125-.687 2.515-.687 1.47 0 2.532.64 1.062.625 1.61 1.735.562 1.093.562 2.437 0 .422-.063.828h-7.14q.187 1.125.906 1.719.718.594 1.718.594.844 0 1.454-.36.609-.375.953-.984l1.984.969q-1.453 2.53-4.422 2.53zm2.25-6.203q-.031-.453-.328-.89-.281-.438-.797-.72-.515-.296-1.203-.296-.875 0-1.5.515-.625.5-.906 1.39h4.734zm4.233-7.453h2.453v13.36h-2.453v-13.36zm6.241 2.797q-.656 0-1.125-.47-.469-.468-.469-1.109 0-.656.469-1.109.469-.469 1.125-.469t1.11.47q.452.452.452 1.108 0 .641-.453 1.11-.453.469-1.109.469zm-1.234 1.046h2.437v9.516h-2.437v-9.516zm4.974 0h2.297v1.188h.156q.422-.688 1.203-1.078.797-.406 1.703-.406 1.719 0 2.61 1.046.906 1.047.906 2.86v5.906h-2.453v-5.61q0-.921-.47-1.421-.468-.5-1.296-.5-1 0-1.61.765-.593.766-.593 1.922v4.844h-2.453v-9.516zm15.644 9.813q-1.422 0-2.563-.64-1.14-.657-1.781-1.798-.64-1.156-.64-2.593 0-1.36.624-2.532.64-1.171 1.75-1.859 1.125-.687 2.516-.687 1.469 0 2.531.64 1.063.625 1.61 1.735.562 1.093.562 2.437 0 .422-.062.828h-7.141q.187 1.125.906 1.719.719.594 1.719.594.844 0 1.453-.36.61-.375.953-.984l1.985.969q-1.454 2.53-4.422 2.53zm2.25-6.203q-.032-.453-.328-.89-.282-.438-.797-.72-.516-.296-1.203-.296-.875 0-1.5.515-.625.5-.907 1.39h4.735z"/><path d="M61.504 303.982l150.803.094v28.252l-150.803-.094z"/><path fill="#666" d="M118.174 316.8q-.578 0-.985-.407-.406-.406-.406-.984 0-.282.094-.516.094-.234.312-.531l1.391-2.077.937.625-.812 1.25q.375.14.61.469.234.328.234.781 0 .578-.407.984-.39.406-.968.406zm3.5.002q-.578 0-.985-.407-.406-.406-.406-.984 0-.282.094-.516.094-.234.312-.53l1.391-2.078.937.625-.812 1.25q.375.14.61.469.234.328.234.781 0 .579-.407.985-.39.406-.968.405zm3.183-4.248l2.093.001v2.891l-.14 1.422h.14q.344-.578 1.016-.921.672-.36 1.453-.359 1.5.001 2.281.892.797.891.797 2.454v5.078l-2.093-.001v-4.813q0-.781-.422-1.219-.422-.437-1.125-.438-.844 0-1.375.671-.532.672-.532 1.656v4.14h-2.093v-11.454zm13.522 11.712q-1.265-.001-2.25-.564-.984-.563-1.546-1.548-.547-.985-.547-2.22 0-1.218.547-2.202.562-1 1.546-1.561.985-.578 2.25-.577 1.25 0 2.235.58 1 .563 1.547 1.563.562.985.562 2.203 0 1.235-.562 2.219-.547.984-1.547 1.546-.985.562-2.235.56zm0-1.938q.61 0 1.125-.28.516-.281.813-.828.312-.547.312-1.28 0-.72-.312-1.267-.297-.547-.813-.828-.515-.298-1.125-.298-.609 0-1.125.296-.5.281-.812.828-.313.547-.313 1.265 0 .719.313 1.282.312.547.812.828.516.282 1.125.282zm9.497 1.819q-.61 0-1.125-.173-.516-.188-.828-.516-.75-.72-.75-2.047v-3.766h-1.422v-1.782h1.422v-2.312l2.093.002v2.312l2 .001v1.782l-2-.002v3.391q0 .61.266.89.234.25.781.251.297 0 .5-.078t.516-.265v2.047q-.688.265-1.453.265zm2.906-7.952l.922-1.233q-.422-.11-.687-.454-.266-.36-.266-.797 0-.578.406-.984.407-.422.985-.421.578 0 .969.422.406.407.406.985 0 .281-.094.515-.094.235-.297.531l-1.39 2.062-.954-.626zm3.5.003l.922-1.234q-.422-.11-.687-.454-.266-.36-.266-.797 0-.578.406-.984.407-.421.985-.421.578 0 .969.422.406.407.406.985 0 .281-.094.516-.094.234-.297.53l-1.39 2.062-.954-.625z"/><path d="M304.375 303.982l150.803.094v28.252l-150.803-.094z"/><path fill="#666" d="M339.061 316.786q-.578 0-.984-.407-.407-.406-.407-.984 0-.282.094-.516.094-.234.313-.53l1.39-2.078.938.625-.813 1.25q.375.14.61.469.234.328.234.781 0 .579-.406.985-.39.406-.969.405zm3.5.002q-.578 0-.984-.406-.407-.407-.407-.985 0-.281.094-.516.094-.234.313-.53l1.39-2.078.938.626-.813 1.25q.375.14.61.468.234.329.234.782 0 .578-.406.984-.39.406-.969.405zm3.183-.95h1.953v1.016h.14q.376-.593 1.016-.937.657-.343 1.454-.342.875 0 1.515.422.64.407.906 1.032.407-.64 1.094-1.046.703-.406 1.64-.405 1.391 0 2.11.86.735.86.735 2.313v5.25h-2.079v-4.86q0-.766-.359-1.188-.36-.422-1-.423-.812 0-1.297.656-.484.64-.484 1.703v4.11l-2.11-.002v-4.86q0-.765-.375-1.187-.375-.422-1.062-.423-.766 0-1.234.656-.47.64-.47 1.702v4.11l-2.093-.001v-8.157zm18.467 8.417q-1.266 0-2.25-.564-.985-.563-1.547-1.548-.547-.984-.547-2.219 0-1.218.547-2.203.562-1 1.547-1.561.984-.578 2.25-.577 1.25.001 2.234.58 1 .563 1.547 1.563.562.985.562 2.204 0 1.234-.562 2.218-.547.984-1.547 1.546-.984.562-2.234.561zm0-1.937q.61 0 1.125-.281.515-.28.812-.828.313-.546.313-1.28 0-.72-.313-1.266-.297-.547-.812-.83-.516-.296-1.125-.297-.61 0-1.125.297-.5.28-.813.827-.312.547-.312 1.266 0 .718.312 1.281.313.547.813.829.515.281 1.125.282zm8.434 1.942q-1.297 0-2.125-.75-.829-.767-.829-2.001 0-.813.422-1.438.438-.624 1.188-.952.75-.343 1.672-.343 1.265.001 2.156.377v-.36q0-.672-.516-1.078-.5-.422-1.343-.423-.579 0-1.11.265-.531.265-.89.687l-1.344-1.048q.594-.765 1.484-1.186.906-.422 1.953-.421 1.875.001 2.844.877.984.86.984 2.516v5.031l-2.062-.001v-.828h-.125q-.375.468-.984.78-.594.297-1.375.296zm.5-1.624q.906 0 1.437-.578.547-.593.547-1.374-.813-.391-1.719-.392-1.625 0-1.625 1.218 0 .5.344.813.36.312 1.016.313zm5.991-6.778l1.953.001v1.079h.14q.298-.563.938-.937.641-.39 1.407-.39.562 0 1.03.188v2.094q-.437-.157-.733-.235-.297-.078-.625-.078-.938-.001-1.485.67-.531.672-.531 1.703v4.063l-2.094-.002v-8.156zm5.8 8.16zm4.776-11.45l2.094.001v2.89l-.14 1.423h.14q.344-.578 1.016-.921.671-.36 1.453-.359 1.5.001 2.28.892.798.891.798 2.454v5.078l-2.094-.001v-4.813q0-.781-.422-1.219-.422-.438-1.125-.438-.844 0-1.375.67-.531.672-.531 1.657v4.14h-2.094v-11.454zm13.523 11.712q-1.266-.001-2.25-.564-.985-.563-1.547-1.548-.547-.985-.547-2.22 0-1.218.547-2.202.562-1 1.547-1.562.984-.577 2.25-.576 1.25 0 2.234.58 1 .562 1.547 1.563.563.984.563 2.203 0 1.235-.563 2.219-.547.984-1.547 1.545-.984.562-2.234.562zm0-1.938q.61 0 1.125-.28.515-.281.812-.828.313-.547.313-1.281 0-.719-.313-1.266-.297-.547-.812-.829-.516-.297-1.125-.297-.61 0-1.125.296-.5.28-.813.828-.312.546-.312 1.265 0 .719.312 1.281.313.548.813.83.515.28 1.125.281zm9.496 1.818q-.61 0-1.125-.172-.516-.188-.828-.516-.75-.72-.75-2.048v-3.765l-1.422-.001v-1.781h1.422v-2.312l2.094.001v2.313l2 .001v1.781h-2v3.39q0 .61.265.89.235.25.782.251.296 0 .5-.078.203-.078.515-.265v2.047q-.687.265-1.453.264zm2.907-7.95l.922-1.235q-.422-.11-.688-.453-.265-.36-.265-.797 0-.578.406-.984.406-.422.984-.422t.969.423q.406.406.406.985 0 .28-.094.515-.093.234-.296.531l-1.391 2.062-.953-.626zm3.5.001l.922-1.233q-.422-.11-.688-.454-.265-.36-.265-.797 0-.578.406-.984.406-.422.984-.421.578 0 .969.422.406.407.406.985 0 .281-.094.515-.093.235-.296.531l-1.391 2.062-.953-.626z"/><path fill="#673ab7" d="M172.031 97.895h100.504v59.906H172.031z" fill-rule="evenodd"/><path stroke="#351c75" stroke-linejoin="round" stroke-linecap="butt" d="M172.031 97.895h100.504v59.906H172.031z"/><path fill="#f3f3f3" d="M186.306 110.408h5.22q1.124 0 2.062.47.937.468 1.484 1.265.547.797.547 1.75 0 1.015-.5 1.75-.5.734-1.297 1.125v.156q1.047.375 1.656 1.188.625.812.625 1.937 0 1.11-.594 1.953-.578.844-1.578 1.313-1 .453-2.218.453h-5.407v-13.36zm5.032 5.454q.828 0 1.312-.454.5-.468.5-1.156 0-.672-.484-1.125-.47-.453-1.25-.453h-2.594v3.188h2.516zm.28 5.609q.923 0 1.423-.469.515-.484.515-1.25 0-.765-.515-1.25-.516-.484-1.5-.484h-2.72v3.453h2.798zm9.337 2.594q-1.516 0-2.484-.875-.97-.891-.97-2.328 0-.954.5-1.672.5-.735 1.376-1.125.89-.391 1.953-.391 1.469 0 2.516.422v-.406q0-.782-.594-1.266-.578-.484-1.578-.484-.672 0-1.297.312-.625.297-1.031.797l-1.563-1.234q.688-.891 1.735-1.375 1.046-.485 2.265-.485 2.188 0 3.328 1.016 1.14 1 1.14 2.937v5.86h-2.405v-.969h-.157q-.421.563-1.125.922-.703.344-1.609.344zm.578-1.907q1.063 0 1.688-.671.625-.688.625-1.594-.953-.453-2-.453-1.907 0-1.907 1.422 0 .578.407.937.422.36 1.187.36zm10.591 1.907q-1.734 0-2.812-.703-1.063-.72-1.5-1.844l2.187-.953q.297.672.844 1.015.547.344 1.281.344.672 0 1.11-.219.453-.218.453-.703 0-.469-.406-.687-.407-.235-1.235-.422l-1.11-.25q-1.155-.281-1.921-1.016-.766-.734-.766-1.844 0-.812.485-1.468.5-.657 1.343-1 .86-.36 1.875-.36 2.954 0 3.938 2.063l-2.078.922q-.563-1-1.797-1-.64 0-1.016.234-.359.219-.359.578 0 .672 1.266 1.016l1.39.328q1.422.36 2.14 1.094.72.718.72 1.78 0 .907-.532 1.61-.53.703-1.453 1.094-.922.39-2.047.39zm10.265 0q-1.421 0-2.562-.641-1.14-.656-1.781-1.797-.64-1.156-.64-2.594 0-1.359.624-2.53.64-1.173 1.75-1.86 1.125-.688 2.516-.688 1.468 0 2.531.64 1.062.626 1.61 1.735.562 1.094.562 2.438 0 .422-.063.828h-7.14q.187 1.125.906 1.719.719.593 1.719.593.843 0 1.453-.359.61-.375.953-.984l1.984.968q-1.453 2.532-4.422 2.532zm2.25-6.203q-.03-.454-.328-.891-.28-.438-.797-.719-.515-.297-1.203-.297-.875 0-1.5.516-.625.5-.906 1.39h4.734zm4.233-7.454h2.453v13.36h-2.453v-13.36zm6.241 2.797q-.656 0-1.125-.468-.469-.47-.469-1.11 0-.656.47-1.11.468-.468 1.124-.468.656 0 1.11.469.453.453.453 1.11 0 .64-.453 1.109-.454.468-1.11.468zm-1.234 1.047h2.437v9.516h-2.437v-9.516zm4.974 0h2.297v1.188h.156q.422-.688 1.203-1.078.797-.407 1.703-.407 1.72 0 2.61 1.047.906 1.047.906 2.86v5.906h-2.453v-5.61q0-.921-.469-1.421t-1.297-.5q-1 0-1.61.765-.593.766-.593 1.922v4.844h-2.453v-9.516zm15.644 9.813q-1.422 0-2.563-.641-1.14-.656-1.78-1.797-.641-1.156-.641-2.594 0-1.359.625-2.53.64-1.173 1.75-1.86 1.125-.688 2.515-.688 1.469 0 2.531.64 1.063.626 1.61 1.735.562 1.094.562 2.438 0 .422-.062.828h-7.14q.187 1.125.905 1.719.72.593 1.72.593.843 0 1.452-.359.61-.375.953-.984l1.985.968q-1.453 2.532-4.422 2.532zm2.25-6.203q-.031-.454-.328-.891-.281-.438-.797-.719-.516-.297-1.203-.297-.875 0-1.5.516-.625.5-.906 1.39h4.734zm3.045 5.906zm-71.714 22.297q-1.438 0-2.579-.641-1.14-.64-1.78-1.797-.641-1.156-.641-2.61 0-1.468.64-2.609.64-1.14 1.781-1.796 1.141-.657 2.579-.657 1.578 0 2.718.688 1.141.672 1.641 1.922l-2.234.937q-.594-1.265-2.125-1.265-1.125 0-1.844.765-.719.766-.719 2.016 0 1.265.719 2.031.719.766 1.844.766 1.546 0 2.234-1.344l2.219.969q-.61 1.25-1.75 1.937-1.14.688-2.703.688zm10.768 0q-1.485 0-2.64-.657-1.157-.671-1.798-1.812-.64-1.156-.64-2.578t.64-2.578q.64-1.157 1.797-1.813 1.156-.672 2.64-.672 1.454 0 2.61.672 1.156.656 1.797 1.813.64 1.156.64 2.578t-.64 2.578q-.64 1.14-1.797 1.812-1.156.657-2.61.657zm0-2.25q.703 0 1.297-.328.609-.344.953-.985.36-.64.36-1.484t-.36-1.469q-.344-.64-.953-.969-.594-.343-1.297-.343-.719 0-1.313.343-.593.328-.968.969-.36.625-.36 1.469 0 .828.36 1.484.375.64.968.985.594.328 1.313.328zm6.91-7.563h2.298v1.188h.156q.437-.688 1.187-1.078.766-.407 1.704-.407 1 0 1.75.485.75.468 1.062 1.187.469-.734 1.281-1.203.813-.469 1.907-.469 1.625 0 2.468 1 .86 1 .86 2.688v6.125h-2.422v-5.672q0-.89-.422-1.375-.422-.484-1.172-.484-.953 0-1.531.75-.563.75-.563 1.984v4.797h-2.437v-5.672q0-.89-.438-1.375-.437-.484-1.234-.484-.906 0-1.453.75t-.547 1.984v4.797h-2.453v-9.516zm16.934 0h2.297v1.156h.14q.391-.609 1.141-1.03.75-.423 1.72-.423 1.28 0 2.327.64 1.063.642 1.656 1.798.594 1.156.594 2.625t-.594 2.625q-.593 1.14-1.656 1.781-1.047.64-2.328.64-.969 0-1.734-.406-.75-.406-1.125-1.03h-.14l.14 1.343v3.828h-2.438v-13.547zm4.86 7.563q.687 0 1.28-.36.61-.36.954-.984.36-.64.36-1.453 0-.828-.36-1.453-.344-.641-.953-.985-.594-.343-1.281-.343-.672 0-1.266.343-.594.344-.953.985-.344.625-.344 1.453 0 .812.344 1.453.36.625.953.984.594.36 1.266.36zm8.29-8.61q-.655 0-1.124-.468-.469-.47-.469-1.11 0-.656.469-1.11.469-.468 1.125-.468t1.11.469q.452.453.452 1.11 0 .64-.453 1.109-.453.468-1.11.468zm-1.234 1.047h2.438v9.516h-2.438v-9.516zm4.975-3.844h2.453v13.36h-2.453v-13.36zm9.319 13.657q-1.422 0-2.562-.641-1.141-.656-1.782-1.797-.64-1.156-.64-2.594 0-1.359.625-2.53.64-1.173 1.75-1.86 1.125-.688 2.515-.688 1.469 0 2.532.64 1.062.626 1.609 1.735.562 1.094.562 2.438 0 .422-.062.828h-7.14q.187 1.125.906 1.719.718.593 1.718.593.844 0 1.453-.359.61-.375.954-.984l1.984.968q-1.453 2.532-4.422 2.532zm2.25-6.203q-.031-.454-.328-.891-.281-.438-.797-.719-.516-.297-1.203-.297-.875 0-1.5.516-.625.5-.906 1.39h4.734zm4.232-3.61h2.297v1.266h.157q.359-.672 1.093-1.11.75-.437 1.641-.437.656 0 1.203.203v2.453q-.5-.187-.86-.265-.343-.094-.734-.094-1.078 0-1.718.781-.625.781-.625 1.984v4.735h-2.454v-9.516z"/><path d="M162.228 210.85l12.315-50.867"/><path stroke="#351c75" stroke-width="2" stroke-linejoin="round" stroke-linecap="butt" d="M162.228 210.85l9.492-39.204"/><path fill="#351c75" stroke="#351c75" stroke-width="2" stroke-linecap="butt" d="M174.93 172.423l-1.075-9.598-5.346 8.044z" fill-rule="evenodd"/><path d="M275.046 160.392l1.638 50.048"/><path stroke="#351c75" stroke-width="2" stroke-linejoin="round" stroke-linecap="butt" d="M275.046 160.392l1.246 38.054"/><path fill="#351c75" stroke="#351c75" stroke-width="2" stroke-linecap="butt" d="M272.99 198.554l3.599 8.963 3.004-9.179z" fill-rule="evenodd"/><path fill="#38761d" d="M157.062 216.192h117.984v59.905H157.062z" fill-rule="evenodd"/><path stroke="#274e13" stroke-linejoin="round" stroke-linecap="butt" d="M157.062 216.192h117.984v59.905H157.062z"/><path fill="#f3f3f3" d="M195.04 239.705h2.515v10.969h5.656v2.39h-8.172v-13.359zm10.279 0h2.516v10.969h5.656v2.39h-8.172v-13.359zm10.28 0h2.515v13.36H215.6v-13.36zm5.215 3.844h2.297v1.187h.157q.421-.687 1.203-1.078.797-.406 1.703-.406 1.719 0 2.61 1.047.905 1.047.905 2.86v5.905h-2.453v-5.609q0-.922-.468-1.422-.47-.5-1.297-.5-1 0-1.61.766-.593.765-.593 1.922v4.843h-2.454v-9.515zm15.316 9.672q-.703 0-1.297-.22-.593-.218-.968-.593-.875-.844-.875-2.39v-4.376h-1.672v-2.093h1.672v-2.688h2.437v2.688h2.328v2.093h-2.328v3.938q0 .719.313 1.047.265.297.906.297.344 0 .578-.094.234-.094.61-.328v2.39q-.798.329-1.704.329z"/><path fill="#673ab7" d="M374.63 276.097v-59.496h21.322v59.496z" fill-rule="evenodd"/><path stroke="#351c75" stroke-linejoin="round" stroke-linecap="butt" d="M374.63 276.097v-59.496h21.322v59.496z"/><path fill="#f3f3f3" d="M389.109 261.322q0 .406-.11.75-.125.344-.344.547-.484.5-1.359.5h-2.5v.953h-1.203v-.953h-1.531v-1.39h1.531V260.4h1.203v1.328h2.234q.422 0 .61-.187.172-.14.172-.5 0-.203-.047-.328-.063-.14-.188-.36h1.36q.172.453.172.97zm-5.516-2.095v-1.312h.734v-.079q-.39-.203-.64-.625-.25-.437-.25-.937 0-.375.11-.688h1.405q-.109.297-.156.5-.047.188-.047.407 0 .625.453.984.438.36 1.125.36h2.703v1.39h-5.437zm-.594-5.331q0 .375-.265.64-.266.266-.641.266t-.625-.266q-.266-.265-.266-.64t.266-.625q.25-.266.625-.266t.64.266q.266.25.266.625zm.594.703v-1.39h5.437v1.39h-5.437zm7.906-5.353q0 1.032-.469 1.72-.453.687-1.109.921l-.531-1.313q.406-.171.64-.515.235-.36.235-.813 0-.656-.406-1.047-.407-.39-1.141-.39h-.438v.078q.36.266.563.687.187.407.187.938 0 .672-.343 1.25-.344.578-.969.937-.64.344-1.484.344t-1.47-.344q-.64-.359-.984-.937-.359-.578-.359-1.25 0-.531.203-.938.188-.421.547-.687v-.078h-.578v-1.344h5.062q.875 0 1.516.344.64.344.984.969t.344 1.468zm-3.734-.015q0-.594-.406-1-.422-.422-1.125-.422-.735 0-1.141.422-.406.406-.406 1 0 .593.406 1.015.406.407 1.14.407.72 0 1.126-.407.406-.422.406-1.015zm3.734-6.634q0 1.031-.469 1.719-.453.687-1.109.921l-.531-1.312q.406-.172.64-.516.235-.36.235-.812 0-.656-.406-1.047-.407-.39-1.141-.39h-.438v.077q.36.266.563.688.187.406.187.937 0 .672-.343 1.25-.344.579-.969.938-.64.344-1.484.344t-1.47-.344q-.64-.36-.984-.938-.359-.578-.359-1.25 0-.53.203-.937.188-.422.547-.688v-.078h-.578v-1.343h5.062q.875 0 1.516.343.64.344.984.969t.344 1.469zm-3.734-.016q0-.594-.406-1-.422-.422-1.125-.422-.735 0-1.141.422-.406.406-.406 1t.406 1.016q.406.406 1.14.406.72 0 1.126-.406.406-.422.406-1.016zm1.437-6.68q0 .812-.375 1.468-.375.64-1.03 1.016-.657.36-1.47.36-.78 0-1.437-.36-.672-.36-1.063-1-.406-.64-.406-1.422 0-.844.375-1.453.36-.61.984-.922.625-.313 1.391-.313.25 0 .469.032v4.078q.656-.11 1-.516.328-.406.328-.984 0-.485-.203-.828-.219-.344-.563-.547l.547-1.125q1.453.828 1.453 2.515zm-3.547-1.282q-.265.016-.515.188-.25.156-.406.453-.172.297-.172.687 0 .5.297.86.296.359.796.515v-2.703zm-2.062-2.427v-1.313h.734v-.078q-.39-.203-.64-.625-.25-.437-.25-.937 0-.375.11-.688h1.405q-.109.297-.156.5-.047.188-.047.407 0 .625.453.984.438.36 1.125.36h2.703v1.39h-5.437z"/><path fill="#dd4a68" d="M495.535 216.396h78.772v59.906h-78.772z" fill-rule="evenodd"/><path stroke="#5b0f00" stroke-linejoin="round" stroke-linecap="butt" d="M495.535 216.396h78.772v59.906h-78.772z"/><path fill="#f3f3f3" d="M516.518 239.91h4.516q2.094 0 3.64.843 1.547.844 2.376 2.36.843 1.5.843 3.484 0 1.969-.843 3.485-.829 1.515-2.375 2.359-1.547.828-3.641.828h-4.516v-13.36zm4.407 10.968q2.156 0 3.296-1.14 1.141-1.156 1.141-3.14 0-2-1.14-3.141-1.141-1.157-3.297-1.157h-1.891v8.578h1.89zm9.362-10.968h8.468v2.39h-5.953v3.25h5.36v2.39h-5.36v5.33h-2.515v-13.36zm17.065 13.656q-1.922 0-3.532-.906-1.609-.907-2.562-2.5-.953-1.594-.953-3.563 0-1.984.953-3.578.953-1.594 2.562-2.5 1.61-.906 3.532-.906 1.578 0 2.875.547 1.296.547 2.218 1.562l-1.734 1.703q-.672-.718-1.484-1.062-.813-.36-1.891-.36-1.234 0-2.266.579-1.015.562-1.625 1.625-.609 1.046-.609 2.39t.61 2.39q.624 1.048 1.656 1.626 1.046.562 2.265.562 1.875 0 3.063-1.093.375-.344.656-.86.281-.531.406-1.14h-4.187v-2.141h6.547q.125.516.125 1.172 0 1.328-.407 2.469-.39 1.125-1.218 1.984-.891.969-2.157 1.484-1.265.516-2.843.516z"/><path fill="#ff9800" d="M395.949 216.396h100.504v59.906H395.949z" fill-rule="evenodd"/><path stroke="#5b0f00" stroke-linejoin="round" stroke-linecap="butt" d="M395.949 216.396h100.504v59.906H395.949z"/><path fill="#f3f3f3" d="M410.224 239.91h5.218q1.125 0 2.063.468.937.47 1.484 1.266.547.797.547 1.75 0 1.016-.5 1.75t-1.297 1.125v.156q1.047.375 1.657 1.188.625.812.625 1.937 0 1.11-.594 1.953-.578.844-1.578 1.313-1 .453-2.22.453h-5.405v-13.36zm5.03 5.453q.829 0 1.313-.453.5-.47.5-1.157 0-.671-.484-1.125-.469-.453-1.25-.453h-2.594v3.188h2.516zm.282 5.61q.922 0 1.422-.47.516-.484.516-1.25 0-.765-.516-1.25-.516-.484-1.5-.484h-2.719v3.453h2.797zm9.336 2.593q-1.515 0-2.484-.875-.969-.89-.969-2.328 0-.953.5-1.672.5-.734 1.375-1.125.89-.39 1.953-.39 1.47 0 2.516.421v-.406q0-.781-.594-1.266-.578-.484-1.578-.484-.672 0-1.297.312-.625.297-1.031.797l-1.563-1.234q.688-.89 1.735-1.375 1.047-.484 2.265-.484 2.188 0 3.329 1.015 1.14 1 1.14 2.938v5.86h-2.406v-.97h-.156q-.422.563-1.125.922-.703.344-1.61.344zm.578-1.906q1.063 0 1.688-.672.625-.688.625-1.594-.953-.453-2-.453-1.906 0-1.906 1.422 0 .578.406.937.422.36 1.187.36zm10.592 1.906q-1.735 0-2.813-.703-1.062-.719-1.5-1.844l2.188-.953q.297.672.843 1.016.547.343 1.282.343.672 0 1.109-.218.453-.22.453-.704 0-.468-.406-.687-.406-.234-1.234-.422l-1.11-.25q-1.156-.281-1.922-1.016-.765-.734-.765-1.843 0-.813.484-1.47.5-.655 1.344-1 .86-.358 1.875-.358 2.953 0 3.937 2.062l-2.078.922q-.562-1-1.797-1-.64 0-1.015.234-.36.22-.36.578 0 .672 1.266 1.016l1.39.328q1.422.36 2.141 1.094.719.719.719 1.781 0 .906-.531 1.61-.532.703-1.453 1.093-.922.39-2.047.39zm10.265 0q-1.422 0-2.563-.64-1.14-.657-1.78-1.798-.642-1.156-.642-2.593 0-1.36.625-2.532.641-1.171 1.75-1.859 1.125-.687 2.516-.687 1.469 0 2.531.64 1.063.625 1.61 1.735.562 1.093.562 2.437 0 .422-.062.828h-7.14q.187 1.125.905 1.719.72.594 1.72.594.843 0 1.452-.36.61-.375.953-.984l1.985.969q-1.453 2.53-4.422 2.53zm2.25-6.203q-.031-.453-.328-.89-.282-.438-.797-.72-.516-.296-1.203-.296-.875 0-1.5.515-.625.5-.907 1.39h4.735zm4.232-7.453h2.453v13.36h-2.453v-13.36zm6.242 2.797q-.657 0-1.125-.47-.47-.468-.47-1.109 0-.656.47-1.109.468-.469 1.125-.469.656 0 1.109.47.453.452.453 1.108 0 .641-.453 1.11-.453.469-1.11.469zm-1.235 1.046h2.438v9.516h-2.438v-9.516zm4.974 0h2.297v1.188h.157q.421-.688 1.203-1.078.797-.406 1.703-.406 1.719 0 2.61 1.046.905 1.047.905 2.86v5.906h-2.453v-5.61q0-.921-.468-1.421-.47-.5-1.297-.5-1 0-1.61.765-.593.766-.593 1.922v4.844h-2.454v-9.516zm15.644 9.813q-1.422 0-2.562-.64-1.14-.657-1.782-1.798-.64-1.156-.64-2.593 0-1.36.625-2.532.64-1.171 1.75-1.859 1.125-.687 2.515-.687 1.47 0 2.532.64 1.062.625 1.61 1.735.562 1.093.562 2.437 0 .422-.063.828h-7.14q.187 1.125.906 1.719.718.594 1.718.594.844 0 1.454-.36.609-.375.953-.984l1.984.969q-1.453 2.53-4.422 2.53zm2.25-6.203q-.031-.453-.328-.89-.281-.438-.797-.72-.515-.296-1.203-.296-.875 0-1.5.515-.625.5-.906 1.39h4.734z"/><path fill="#673ab7" d="M574.306 276.097v-59.496h21.323v59.496z" fill-rule="evenodd"/><path stroke="#351c75" stroke-linejoin="round" stroke-linecap="butt" d="M574.306 276.097v-59.496h21.323v59.496z"/><path fill="#f3f3f3" d="M588.786 261.322q0 .406-.11.75-.125.344-.343.547-.485.5-1.36.5h-2.5v.953h-1.203v-.953h-1.531v-1.39h1.531V260.4h1.203v1.328h2.235q.422 0 .609-.187.172-.14.172-.5 0-.203-.047-.328-.062-.14-.187-.36h1.359q.172.453.172.97zm-5.516-2.095v-1.312h.735v-.079q-.391-.203-.641-.625-.25-.437-.25-.937 0-.375.11-.688h1.406q-.11.297-.157.5-.047.188-.047.407 0 .625.454.984.437.36 1.125.36h2.703v1.39h-5.438zm-.594-5.331q0 .375-.265.64-.266.266-.64.266-.376 0-.626-.266-.265-.265-.265-.64t.265-.625q.25-.266.625-.266t.64.266q.266.25.266.625zm.594.703v-1.39h5.438v1.39h-5.438zm7.906-5.353q0 1.032-.468 1.72-.453.687-1.11.921l-.531-1.313q.406-.171.64-.515.235-.36.235-.813 0-.656-.406-1.047-.406-.39-1.14-.39h-.438v.078q.359.266.562.687.188.407.188.938 0 .672-.344 1.25t-.969.937q-.64.344-1.484.344t-1.469-.344q-.64-.359-.984-.937-.36-.578-.36-1.25 0-.531.203-.938.188-.421.547-.687v-.078h-.578v-1.344h5.063q.875 0 1.515.344.64.344.985.969.343.625.343 1.468zm-3.734-.015q0-.594-.406-1-.422-.422-1.125-.422-.735 0-1.14.422-.407.406-.407 1 0 .593.406 1.015.406.407 1.14.407.72 0 1.126-.407.406-.422.406-1.015zm3.734-6.634q0 1.031-.468 1.719-.453.687-1.11.921l-.531-1.312q.406-.172.64-.516.235-.36.235-.812 0-.656-.406-1.047-.406-.39-1.14-.39h-.438v.077q.359.266.562.688.188.406.188.937 0 .672-.344 1.25-.344.579-.969.938-.64.344-1.484.344t-1.469-.344q-.64-.36-.984-.938-.36-.578-.36-1.25 0-.53.203-.937.188-.422.547-.688v-.078h-.578v-1.343h5.063q.875 0 1.515.343.64.344.985.969.343.625.343 1.469zm-3.734-.016q0-.594-.406-1-.422-.422-1.125-.422-.735 0-1.14.422-.407.406-.407 1t.406 1.016q.406.406 1.14.406.72 0 1.126-.406.406-.422.406-1.016zm1.438-6.68q0 .812-.375 1.468-.375.64-1.032 1.016-.656.36-1.468.36-.782 0-1.438-.36-.672-.36-1.062-1-.407-.64-.407-1.422 0-.844.375-1.453.36-.61.985-.922.625-.313 1.39-.313.25 0 .469.032v4.078q.656-.11 1-.516.328-.406.328-.984 0-.485-.203-.828-.219-.344-.562-.547l.546-1.125q1.454.828 1.454 2.515zm-3.547-1.282q-.266.016-.516.188-.25.156-.406.453-.172.297-.172.687 0 .5.297.86.297.359.797.515v-2.703zm-2.063-2.427v-1.313h.735v-.078q-.391-.203-.641-.625-.25-.437-.25-.937 0-.375.11-.688h1.406q-.11.297-.157.5-.047.188-.047.407 0 .625.454.984.437.36 1.125.36h2.703v1.39h-5.438z"/><path fill="#dd4a68" d="M595.63 216.396h103.968v59.906H595.63z" fill-rule="evenodd"/><path stroke="#5b0f00" stroke-linejoin="round" stroke-linecap="butt" d="M595.63 216.396h103.968v59.906H595.63z"/><path fill="#f3f3f3" d="M629.211 239.91h4.516q2.094 0 3.64.843 1.547.844 2.375 2.36.844 1.5.844 3.484 0 1.969-.844 3.485-.828 1.515-2.375 2.359-1.546.828-3.64.828h-4.516v-13.36zm4.406 10.968q2.157 0 3.297-1.14 1.141-1.156 1.141-3.14 0-2-1.14-3.141-1.141-1.157-3.298-1.157h-1.89v8.578h1.89zm9.363-10.968h8.468v2.39h-5.953v3.25h5.36v2.39h-5.36v5.33h-2.515v-13.36zm17.065 13.656q-1.922 0-3.532-.906-1.61-.907-2.562-2.5-.953-1.594-.953-3.563 0-1.984.953-3.578.953-1.594 2.562-2.5 1.61-.906 3.532-.906 1.578 0 2.875.547 1.296.547 2.218 1.562l-1.734 1.703q-.672-.718-1.484-1.062-.813-.36-1.891-.36-1.234 0-2.266.579-1.015.562-1.625 1.625-.61 1.046-.61 2.39t.61 2.39q.625 1.048 1.657 1.626 1.046.562 2.265.562 1.875 0 3.063-1.093.375-.344.656-.86.281-.531.406-1.14h-4.187v-2.141h6.547q.125.516.125 1.172 0 1.328-.407 2.469-.39 1.125-1.218 1.984-.891.969-2.157 1.484-1.265.516-2.843.516z"/><path fill="#673ab7" d="M599.085 97.894H699.59v59.905H599.085z" fill-rule="evenodd"/><path stroke="#351c75" stroke-linejoin="round" stroke-linecap="butt" d="M599.085 97.894H699.59v59.905H599.085z"/><path fill="#f3f3f3" d="M634.899 110.407h8.468v2.39h-5.953v3.25h5.36v2.391h-5.36v5.328H634.9v-13.359zm13.393 2.39h-3.734v-2.39h9.984v2.39h-3.734v10.97h-2.516v-10.97zm8.267-2.39h2.515v10.969h5.657v2.39h-8.172v-13.359zm8.748 13.36zm-50.176 22.296q-1.437 0-2.578-.64-1.14-.64-1.781-1.797-.64-1.156-.64-2.61 0-1.468.64-2.609.64-1.14 1.781-1.797 1.14-.656 2.578-.656 1.579 0 2.72.687 1.14.672 1.64 1.922l-2.235.938q-.593-1.266-2.125-1.266-1.125 0-1.843.766-.72.765-.72 2.015 0 1.266.72 2.032.718.765 1.843.765 1.547 0 2.235-1.343l2.219.968q-.61 1.25-1.75 1.938-1.141.687-2.704.687zm10.769 0q-1.485 0-2.641-.656-1.156-.672-1.797-1.812-.64-1.157-.64-2.579 0-1.421.64-2.578.64-1.156 1.797-1.812 1.156-.672 2.64-.672 1.454 0 2.61.672 1.156.656 1.797 1.812.64 1.157.64 2.578 0 1.422-.64 2.579-.64 1.14-1.797 1.812-1.156.656-2.61.656zm0-2.25q.703 0 1.296-.328.61-.344.954-.984.359-.64.359-1.485 0-.843-.36-1.468-.343-.64-.953-.97-.593-.343-1.296-.343-.72 0-1.313.344-.594.328-.969.969-.36.625-.36 1.468 0 .829.36 1.485.375.64.969.984.594.328 1.313.328zm6.91-7.562h2.298v1.187h.156q.437-.687 1.187-1.078.766-.406 1.703-.406 1 0 1.75.484.75.47 1.063 1.188.469-.735 1.281-1.203.813-.47 1.906-.47 1.625 0 2.47 1 .859 1 .859 2.688v6.125h-2.422v-5.671q0-.891-.422-1.375-.422-.485-1.172-.485-.953 0-1.531.75-.563.75-.563 1.985v4.796h-2.437v-5.671q0-.891-.438-1.375-.437-.485-1.234-.485-.906 0-1.453.75t-.547 1.985v4.796h-2.453v-9.515zm16.934 0h2.297v1.156h.14q.391-.61 1.141-1.031.75-.422 1.719-.422 1.281 0 2.328.64 1.063.641 1.656 1.797.594 1.157.594 2.625 0 1.47-.594 2.625-.593 1.141-1.656 1.782-1.047.64-2.328.64-.969 0-1.734-.406-.75-.406-1.125-1.031h-.141l.14 1.344v3.828h-2.437V136.25zm4.86 7.562q.687 0 1.28-.36.61-.358.954-.983.36-.641.36-1.454 0-.828-.36-1.453-.344-.64-.953-.984-.594-.344-1.282-.344-.671 0-1.265.344-.594.344-.953.984-.344.625-.344 1.453 0 .813.344 1.454.359.625.953.984.594.36 1.265.36zm8.29-8.61q-.656 0-1.124-.468-.47-.469-.47-1.11 0-.655.47-1.109.468-.468 1.125-.468.656 0 1.109.468.453.454.453 1.11 0 .64-.453 1.11-.453.468-1.11.468zm-1.234 1.048h2.438v9.515h-2.438v-9.515zm4.974-3.844h2.454v13.36h-2.454v-13.36zm9.32 13.656q-1.422 0-2.563-.64-1.14-.657-1.781-1.797-.64-1.156-.64-2.594 0-1.36.624-2.531.641-1.172 1.75-1.86 1.125-.687 2.516-.687 1.469 0 2.531.64 1.063.626 1.61 1.735.562 1.094.562 2.437 0 .422-.062.829h-7.141q.188 1.125.906 1.718.719.594 1.719.594.844 0 1.453-.36.61-.374.953-.984l1.985.97q-1.453 2.53-4.422 2.53zm2.25-6.203q-.031-.453-.328-.89-.282-.438-.797-.72-.516-.296-1.203-.296-.875 0-1.5.516-.625.5-.907 1.39h4.735zm4.232-3.61h2.297v1.266h.156q.36-.671 1.094-1.109.75-.437 1.64-.437.657 0 1.204.203v2.453q-.5-.188-.86-.266-.343-.094-.734-.094-1.078 0-1.719.782-.625.78-.625 1.984v4.734h-2.453v-9.515z"/><path d="M595.839 212.085l3.244-50.425"/><path stroke="#351c75" stroke-width="2" stroke-linejoin="round" stroke-linecap="butt" d="M595.839 212.085l2.473-38.45"/><path fill="#351c75" stroke="#351c75" stroke-width="2" stroke-linecap="butt" d="M601.609 173.847l-2.714-9.27-3.88 8.846z" fill-rule="evenodd"/><path d="M696.83 162.073l1.638 50.048"/><path stroke="#351c75" stroke-width="2" stroke-linejoin="round" stroke-linecap="butt" d="M696.83 162.073l1.245 38.054"/><path fill="#351c75" stroke="#351c75" stroke-width="2" stroke-linecap="butt" d="M694.773 200.235l3.599 8.964 3.005-9.18z" fill-rule="evenodd"/><path d="M509.567 303.982l150.803.094v28.252l-150.803-.094z"/><path fill="#666" d="M546.165 316.787q-.578 0-.985-.406-.406-.407-.406-.985 0-.281.094-.516.094-.234.312-.53l1.391-2.078.937.626-.812 1.25q.375.14.61.468.234.329.234.782 0 .578-.407.984-.39.406-.968.405zm3.5.003q-.578 0-.985-.407-.406-.407-.406-.985 0-.281.094-.515.094-.235.312-.532l1.391-2.077.937.626-.812 1.25q.375.14.61.468.234.329.234.782 0 .578-.407.984-.39.406-.968.406zm6.276 7.457q-1.484-.001-2.406-.596-.922-.61-1.281-1.594l1.86-.812q.265.579.734.876.468.297 1.093.298.579 0 .954-.187.39-.188.39-.61 0-.39-.36-.593-.343-.204-1.046-.36l-.953-.204q-1-.25-1.656-.876-.657-.641-.657-1.579 0-.703.422-1.265.422-.562 1.156-.859.735-.312 1.61-.311 2.531.001 3.375 1.783l-1.797.78q-.469-.86-1.531-.86-.547 0-.875.202-.313.203-.313.5 0 .578 1.094.86l1.203.298q1.219.298 1.828.923.61.625.61 1.532 0 .796-.454 1.39-.453.593-1.25.937-.78.327-1.75.327zm4.987-8.403h1.953v1.079h.14q.297-.562.938-.937.64-.39 1.406-.39.563 0 1.032.188v2.094q-.438-.156-.735-.235-.297-.078-.625-.078-.937 0-1.484.67-.531.672-.531 1.704V324l-2.094-.001v-8.156zm9.925 8.412q-1.484 0-2.406-.595-.922-.61-1.281-1.595l1.86-.811q.265.578.734.875.468.297 1.093.298.579 0 .954-.187.39-.187.39-.61 0-.39-.36-.593-.343-.203-1.046-.36l-.953-.204q-1-.25-1.656-.876-.657-.641-.657-1.578 0-.704.422-1.266t1.156-.858q.735-.313 1.61-.312 2.531.002 3.375 1.783l-1.797.78q-.469-.86-1.531-.86-.547 0-.875.203-.313.203-.313.5 0 .578 1.094.86l1.203.297q1.219.298 1.828.923.61.626.61 1.532 0 .797-.454 1.39-.453.594-1.25.937-.78.328-1.75.327zm4.987-11.7l2.093.001v11.453h-2.093v-11.454zm6.691 11.067l-3.437-7.768 2.39.001 2.11 5.064h.125l2.03-5.06h2.345l-5.047 11.607-2.25-.002 1.734-3.842zm5.686.394zm4.775-11.45l2.094.001v2.89l-.141 1.422h.14q.344-.577 1.016-.92.672-.36 1.453-.36 1.5.002 2.282.893.796.891.796 2.454v5.078l-2.093-.002v-4.812q0-.781-.422-1.22-.422-.437-1.125-.437-.844 0-1.375.67-.531.672-.531 1.657v4.14l-2.094-.001v-11.453zm13.522 11.711q-1.265 0-2.25-.564-.984-.563-1.546-1.547-.547-.985-.547-2.22 0-1.218.547-2.202.562-1 1.546-1.562.985-.577 2.25-.577 1.25.001 2.235.58 1 .563 1.547 1.563.562.985.562 2.204 0 1.234-.562 2.218-.547.984-1.547 1.546-.985.562-2.235.561zm0-1.937q.61 0 1.125-.28.516-.282.813-.828.312-.547.312-1.281 0-.72-.312-1.266-.297-.547-.813-.829-.515-.297-1.125-.297-.609 0-1.125.296-.5.28-.812.827-.313.547-.313 1.266t.313 1.281q.312.547.812.829.516.281 1.125.282zm9.497 1.818q-.61 0-1.125-.172-.516-.188-.828-.516-.75-.72-.75-2.048v-3.765l-1.422-.001v-1.782l1.422.001v-2.312l2.093.001v2.313h2v1.782l-2-.001v3.39q0 .61.266.891.234.25.781.25.297.001.5-.077t.516-.265v2.047q-.688.265-1.453.264zm2.906-7.951l.922-1.234q-.422-.11-.687-.453-.266-.36-.266-.797 0-.579.406-.985.407-.421.985-.42.578 0 .969.422.406.406.406.984 0 .282-.094.516-.094.234-.297.531l-1.39 2.062-.954-.626zm3.5.002l.922-1.234q-.422-.11-.687-.453-.266-.36-.266-.797 0-.578.406-.984.407-.422.985-.422.578 0 .969.423.406.406.406.985 0 .28-.094.515-.094.234-.297.531l-1.39 2.062-.954-.626z"/><path d="M46.144 299.892V24.742"/><path stroke="#666" stroke-width="2" stroke-linejoin="round" stroke-linecap="butt" d="M46.144 299.892V36.742"/><path fill="#666" stroke="#666" stroke-width="2" stroke-linecap="butt" d="M49.448 36.743l-3.304-9.076-3.303 9.076z" fill-rule="evenodd"/><path d="M45.858 298.864l755.59-1.166"/><path stroke="#666" stroke-width="2" stroke-linejoin="round" stroke-linecap="butt" d="M45.858 298.864l743.59-1.147"/><path fill="#666" stroke="#666" stroke-width="2" stroke-linecap="butt" d="M789.454 301.02l9.071-3.317-9.081-3.29z" fill-rule="evenodd"/></g></svg>