<svg viewBox="0 0 818.898 357.071" fill="none" stroke-linecap="square" stroke-miterlimit="10" xmlns="http://www.w3.org/2000/svg"><clipPath id="a"><path d="M0 0h818.898v357.07H0V0z"/></clipPath><g clip-path="url(#a)"><path d="M0 0h818.898v357.07H0z"/><path d="M0 294.75L.063 29.898h45.795l-.063 264.85z"/><path fill="#666" d="M30.739 221.424q0 1.64-.735 2.953-.735 1.297-2.063 2.031-1.329.735-2.985.735-1.672 0-2.968-.735-1.313-.734-2.062-2.031-.75-1.312-.75-2.953 0-1.813.782-3.11.782-1.312 2.204-1.874l1.062 2.546q-1.438.688-1.438 2.438 0 1.281.874 2.11.86.812 2.297.812 1.453 0 2.328-.813.875-.828.876-2.11 0-1.765-1.547-2.562l1.11-2.53q1.438.702 2.234 2 .781 1.296.78 3.093zm.003-12.3q0 1.673-.751 3-.766 1.329-2.079 2.063-1.312.735-2.953.735-1.625 0-2.937-.735-1.328-.734-2.078-2.062-.765-1.328-.765-3t.767-2.985q.75-1.328 2.078-2.062 1.313-.735 2.938-.735 1.64 0 2.953.735 1.312.734 2.077 2.062.75 1.313.75 2.985zm-2.578 0q0-.812-.375-1.5-.39-.687-1.11-1.093-.733-.406-1.718-.406-.969 0-1.687.406-.72.406-1.094 1.094-.391.687-.391 1.5 0 .797.39 1.484.375.688 1.093 1.11.719.406 1.688.406.953 0 1.703-.407.734-.421 1.125-1.109.375-.687.376-1.484zm-8.64-7.913l.002-2.625h1.359v-.172q-.781-.5-1.234-1.39-.469-.891-.468-1.938 0-1.969 1.203-2.984 1.188-1.032 3.25-1.032h6.766v2.797H23.98q-1.047 0-1.61.531-.578.532-.578 1.5 0 1.125.874 1.829.86.687 2.188.687H30.4l-.001 2.797H19.525zm11.224-17.9q0 1.64-.735 2.953-.735 1.296-2.063 2.03-1.328.735-2.985.735-1.672 0-2.968-.734-1.313-.735-2.062-2.031-.75-1.313-.75-2.954 0-1.812.782-3.109.782-1.312 2.204-1.875l1.062 2.547q-1.438.687-1.438 2.437 0 1.282.874 2.11.86.812 2.297.812 1.453 0 2.328-.812.875-.828.876-2.11 0-1.765-1.546-2.562l1.11-2.531q1.437.703 2.233 2 .781 1.297.78 3.093zm.003-11.034q-.001 1.969-1.22 3-1.219 1.015-3.39 1.015h-6.61v-2.796h6.266q1.11 0 1.75-.532.625-.53.626-1.406 0-1.187-.875-1.89-.875-.704-2.219-.704h-5.546v-2.797h10.875v2.625h-1.36v.172q.781.485 1.25 1.375.453.875.453 1.938zm-11.217-8.838v-2.625h1.454v-.172q-.766-.406-1.266-1.25-.515-.86-.515-1.89 0-.75.235-1.36h2.797q-.204.578-.297.969-.11.39-.11.843 0 1.235.906 1.97.89.718 2.25.718h5.422l-.001 2.797H19.534zm.002-9.107v-2.625h1.454v-.172q-.766-.407-1.266-1.25-.515-.86-.515-1.89 0-.75.235-1.36h2.797q-.203.578-.297.968-.11.391-.11.844 0 1.235.906 1.969.89.719 2.25.719h5.422l-.001 2.797H19.536zm11.222-14.217q0 1.625-.75 2.938-.75 1.296-2.064 2.03-1.312.735-2.953.735-1.547 0-2.875-.719-1.343-.734-2.124-2.015-.797-1.281-.796-2.86 0-1.687.735-2.89.719-1.219 1.985-1.844 1.25-.64 2.78-.64.5 0 .938.062l-.002 8.172q1.313-.219 1.985-1.031.657-.829.657-1.97 0-.968-.406-1.655-.422-.688-1.125-1.094l1.11-2.266q2.906 1.656 2.905 5.047zm-7.109-2.578q-.5.047-1 .375-.515.328-.844.922-.328.578-.328 1.375 0 1 .593 1.719.578.703 1.578 1.03l.001-5.421zm-4.108-4.832v-2.625h1.36v-.172q-.78-.5-1.234-1.39-.468-.891-.468-1.938 0-1.969 1.204-2.985 1.187-1.03 3.25-1.03h6.766l-.001 2.796h-6.422q-1.047 0-1.61.531-.578.532-.578 1.5 0 1.125.875 1.828.859.688 2.187.688h5.547v2.797H19.54zm11.223-17.9q0 1.64-.735 2.952-.735 1.297-2.063 2.032-1.328.734-2.984.734-1.672 0-2.969-.734-1.312-.735-2.062-2.032-.75-1.312-.75-2.953.001-1.812.783-3.11.781-1.312 2.203-1.874l1.062 2.547q-1.438.687-1.438 2.437 0 1.281.875 2.11.859.812 2.296.812 1.453 0 2.329-.812.875-.829.875-2.11 0-1.765-1.546-2.562l1.11-2.532q1.437.704 2.234 2 .78 1.297.78 3.094zm-.857-10.488l-10.36 4.579v-3.172l6.767-2.813v-.172l-6.765-2.718v-3.11l15.483 6.719v3l-5.125-2.313z"/><path fill="#38761d" d="M66.782 216.196h177.071V276.1H66.783z" fill-rule="evenodd"/><path stroke="#274e13" stroke-linejoin="round" stroke-linecap="butt" d="M66.782 216.196h177.071V276.1H66.783z"/><path fill="#f3f3f3" d="M122.307 239.709h2.515v13.36h-2.515v-13.36zm9.606 17.687q-1.812 0-3.015-.812-1.188-.813-1.594-1.953l2.297-.922q.297.703.906 1.11.625.421 1.406.421 1.156 0 1.828-.719.688-.703.688-2.015v-.75h-.14q-.454.64-1.188.984-.719.328-1.657.328-1.171 0-2.187-.61-1.016-.608-1.64-1.718-.61-1.11-.61-2.578 0-1.469.61-2.578.624-1.11 1.64-1.719 1.016-.61 2.187-.61.938 0 1.657.345.734.328 1.187.968h.14v-1.015h2.36v8.859q0 1.531-.61 2.64-.593 1.126-1.702 1.735-1.094.61-2.563.61zm.031-6.546q1.032 0 1.75-.72.735-.718.735-1.968 0-1.281-.719-1.984-.719-.703-1.766-.703-1.03 0-1.765.718-.735.703-.735 1.969t.735 1.984q.734.704 1.765.704zm7.22-7.297h2.297v1.187h.156q.422-.687 1.203-1.078.797-.406 1.703-.406 1.72 0 2.61 1.047.906 1.047.906 2.859v5.906h-2.453v-5.61q0-.921-.469-1.421t-1.297-.5q-1 0-1.609.766-.594.765-.594 1.922v4.843h-2.453v-9.515zm12.566-1.047q-.656 0-1.125-.469t-.469-1.11q0-.656.469-1.109.469-.468 1.125-.468t1.11.468q.452.453.452 1.11 0 .64-.453 1.109t-1.11.469zm-1.235 1.047h2.438v9.515h-2.438v-9.515zm9.115 9.672q-.703 0-1.297-.22-.593-.218-.968-.593-.875-.844-.875-2.39v-4.376h-1.672v-2.093h1.672v-2.688h2.437v2.688h2.328v2.093h-2.328v3.938q0 .719.313 1.047.265.297.906.297.344 0 .578-.094.234-.094.61-.328v2.39q-.797.329-1.704.329zm5.049-10.72q-.657 0-1.125-.468-.47-.469-.47-1.11 0-.656.47-1.109.468-.468 1.125-.468.656 0 1.109.468.453.453.453 1.11 0 .64-.453 1.109t-1.11.469zm-1.235 1.048h2.438v9.515h-2.438v-9.515zm9.537 9.812q-1.484 0-2.64-.656-1.157-.672-1.798-1.813-.64-1.156-.64-2.578t.64-2.578q.641-1.156 1.797-1.812 1.157-.672 2.64-.672 1.454 0 2.61.672 1.157.656 1.797 1.812.64 1.156.64 2.578t-.64 2.578q-.64 1.141-1.797 1.813-1.156.656-2.61.656zm0-2.25q.703 0 1.297-.328.61-.344.953-.984.36-.641.36-1.485 0-.843-.36-1.468-.344-.641-.953-.97-.594-.343-1.297-.343-.719 0-1.313.344-.593.328-.968.969-.36.625-.36 1.468 0 .828.36 1.485.375.64.968.984.594.328 1.313.328zm6.911-7.562h2.297v1.187h.156q.422-.687 1.203-1.078.797-.406 1.703-.406 1.72 0 2.61 1.047.906 1.047.906 2.859v5.906h-2.453v-5.61q0-.921-.469-1.421t-1.297-.5q-1 0-1.61.766-.593.765-.593 1.922v4.843h-2.453v-9.515z"/><path fill="#38761d" d="M349.087 216.196h145.7V276.1h-145.7z" fill-rule="evenodd"/><path stroke="#274e13" stroke-linejoin="round" stroke-linecap="butt" d="M349.087 216.196h145.7V276.1h-145.7z"/><path fill="#f3f3f3" d="M388.926 239.709h2.516v13.36h-2.516v-13.36zm9.607 17.687q-1.813 0-3.016-.812-1.187-.813-1.594-1.953l2.297-.922q.297.703.906 1.11.625.421 1.407.421 1.156 0 1.828-.719.687-.703.687-2.015v-.75h-.14q-.453.64-1.188.984-.719.328-1.656.328-1.172 0-2.188-.61-1.015-.608-1.64-1.718-.61-1.11-.61-2.578 0-1.469.61-2.578.625-1.11 1.64-1.719 1.016-.61 2.188-.61.937 0 1.656.345.735.328 1.188.968h.14v-1.015h2.36v8.859q0 1.531-.61 2.64-.593 1.126-1.703 1.735-1.094.61-2.562.61zm.03-6.546q1.032 0 1.75-.72.735-.718.735-1.968 0-1.281-.718-1.984-.72-.703-1.766-.703-1.031 0-1.766.718-.734.703-.734 1.969t.734 1.984q.735.704 1.766.704zm7.22-7.297h2.297v1.187h.157q.422-.687 1.203-1.078.797-.406 1.703-.406 1.719 0 2.61 1.047.906 1.047.906 2.859v5.906h-2.454v-5.61q0-.921-.468-1.421-.47-.5-1.297-.5-1 0-1.61.766-.593.765-.593 1.922v4.843h-2.453v-9.515zm12.566-1.047q-.656 0-1.125-.469t-.469-1.11q0-.656.47-1.109.468-.468 1.124-.468.656 0 1.11.468.453.453.453 1.11 0 .64-.453 1.109-.454.469-1.11.469zm-1.234 1.047h2.437v9.515h-2.437v-9.515zm9.115 9.672q-.703 0-1.297-.22-.594-.218-.969-.593-.875-.844-.875-2.39v-4.376h-1.672v-2.093h1.672v-2.688h2.438v2.688h2.328v2.093h-2.328v3.938q0 .719.312 1.047.266.297.906.297.344 0 .578-.094.235-.094.61-.328v2.39q-.797.329-1.703.329zm5.048-10.72q-.656 0-1.125-.468-.469-.469-.469-1.11 0-.656.469-1.109.469-.468 1.125-.468t1.11.468q.453.453.453 1.11 0 .64-.454 1.109-.453.469-1.109.469zm-1.234 1.048h2.437v9.515h-2.437v-9.515zm9.536 9.812q-1.484 0-2.64-.656-1.157-.672-1.797-1.813-.64-1.156-.64-2.578t.64-2.578q.64-1.156 1.797-1.812 1.156-.672 2.64-.672 1.453 0 2.61.672 1.156.656 1.797 1.812.64 1.156.64 2.578t-.64 2.578q-.641 1.141-1.797 1.813-1.157.656-2.61.656zm0-2.25q.703 0 1.297-.328.61-.344.953-.984.36-.641.36-1.485 0-.843-.36-1.468-.343-.641-.953-.97-.594-.343-1.297-.343-.718 0-1.312.344-.594.328-.969.969-.36.625-.36 1.468 0 .828.36 1.485.375.64.969.984.594.328 1.312.328zm6.911-7.562h2.297v1.187h.157q.421-.687 1.203-1.078.797-.406 1.703-.406 1.719 0 2.61 1.047.905 1.047.905 2.859v5.906h-2.453v-5.61q0-.921-.468-1.421-.47-.5-1.297-.5-1 0-1.61.766-.593.765-.593 1.922v4.843h-2.454v-9.515z"/><path fill="#ea4335" d="M494.764 216.206H786.92v59.906H494.764z" fill-rule="evenodd"/><path stroke="#5b0f00" stroke-linejoin="round" stroke-linecap="butt" d="M494.764 216.206H786.92v59.906H494.764z"/><path fill="#f3f3f3" d="M602.233 242.11h-3.735v-2.39h9.985v2.39h-3.735v10.969h-2.515V242.11zm11.36 11.266q-1.718 0-2.609-1.063-.89-1.062-.89-2.969v-5.78h2.437v5.484q0 .968.469 1.53.468.548 1.234.548 1.047 0 1.656-.766.61-.766.61-1.953v-4.844h2.453v9.516h-2.297v-1.188h-.156q-.422.688-1.204 1.094-.765.39-1.703.39zm7.738-9.813h2.297v1.266h.156q.36-.672 1.094-1.11.75-.437 1.64-.437.657 0 1.204.203v2.453q-.5-.187-.86-.265-.344-.094-.734-.094-1.078 0-1.719.781-.625.781-.625 1.984v4.735h-2.453v-9.516zm13.279 9.813q-.985 0-1.735-.407-.75-.406-1.125-1.03h-.156v1.14h-2.297v-13.36h2.453v3.657l-.156 1.343h.156q.39-.609 1.125-1.03.75-.423 1.735-.423 1.28 0 2.328.64 1.062.642 1.656 1.798.594 1.156.594 2.625t-.594 2.625q-.594 1.14-1.656 1.781-1.047.64-2.328.64zm-.438-2.25q.688 0 1.281-.36.61-.36.954-.984.359-.64.359-1.453 0-.828-.36-1.453-.343-.641-.953-.985-.593-.343-1.28-.343-.673 0-1.266.343-.594.344-.954.985-.359.625-.359 1.453 0 .812.36 1.453.359.625.953.984.593.36 1.265.36zm11.46 2.25q-1.485 0-2.64-.657-1.157-.671-1.798-1.812-.64-1.156-.64-2.578t.64-2.578q.64-1.157 1.797-1.813 1.156-.672 2.64-.672 1.454 0 2.61.672 1.156.656 1.797 1.813.64 1.156.64 2.578t-.64 2.578q-.64 1.14-1.797 1.812-1.156.657-2.61.657zm0-2.25q.703 0 1.297-.328.609-.344.953-.985.36-.64.36-1.484t-.36-1.469q-.344-.64-.953-.969-.594-.343-1.297-.343-.719 0-1.313.343-.594.328-.969.97-.359.624-.359 1.468 0 .828.36 1.484.374.64.968.985.594.328 1.313.328zm7.255-11.407h8.468v2.391h-5.953v3.25h5.36v2.39h-5.36v5.329h-2.515v-13.36zm13.268 13.657q-1.516 0-2.485-.875-.968-.891-.968-2.328 0-.954.5-1.672.5-.735 1.375-1.125.89-.391 1.953-.391 1.468 0 2.515.422V247q0-.782-.593-1.266-.579-.484-1.579-.484-.671 0-1.296.312-.625.297-1.032.797l-1.562-1.234q.687-.891 1.734-1.375 1.047-.485 2.266-.485 2.187 0 3.328 1.016 1.14 1 1.14 2.937v5.86h-2.406v-.969h-.156q-.422.563-1.125.922-.703.344-1.61.344zm.578-1.907q1.062 0 1.687-.671.625-.688.625-1.594-.953-.453-2-.453-1.906 0-1.906 1.422 0 .578.406.937.422.36 1.188.36zm6.966-7.906h2.297v1.188h.156q.422-.688 1.203-1.078.797-.407 1.703-.407 1.72 0 2.61 1.047.906 1.047.906 2.86v5.906h-2.453v-5.61q0-.921-.469-1.421t-1.297-.5q-1 0-1.61.765-.593.766-.593 1.922v4.844H673.7v-9.516z"/><path fill="#673ab7" d="M361.055 98.025h133.732v59.905H361.055z" fill-rule="evenodd"/><path stroke="#351c75" stroke-linejoin="round" stroke-linecap="butt" d="M361.055 98.025h133.732v59.905H361.055z"/><path fill="#f3f3f3" d="M389.312 112.929h-3.735v-2.39h9.985v2.39h-3.735v10.969h-2.515v-10.97zm11.36 11.266q-1.719 0-2.61-1.063-.89-1.062-.89-2.969v-5.78h2.438v5.483q0 .97.468 1.532.47.547 1.235.547 1.047 0 1.656-.766.61-.766.61-1.953v-4.844h2.452v9.516h-2.296v-1.188h-.157q-.422.688-1.203 1.094-.765.39-1.703.39zm7.738-9.813h2.297v1.266h.156q.36-.672 1.094-1.11.75-.437 1.64-.437.656 0 1.203.203v2.453q-.5-.187-.86-.266-.343-.093-.733-.093-1.079 0-1.72.78-.624.782-.624 1.985v4.735h-2.453v-9.516zm13.278 9.813q-.984 0-1.734-.407-.75-.406-1.125-1.03h-.156v1.14h-2.297v-13.36h2.453v3.657l-.156 1.343h.156q.39-.61 1.125-1.03.75-.423 1.734-.423 1.282 0 2.328.64 1.063.641 1.657 1.798.593 1.156.593 2.625 0 1.468-.593 2.625-.594 1.14-1.657 1.78-1.046.642-2.328.642zm-.437-2.25q.687 0 1.281-.36.61-.36.953-.984.36-.64.36-1.453 0-.828-.36-1.453-.344-.641-.953-.985-.594-.344-1.281-.344-.672 0-1.266.344t-.953.985q-.36.625-.36 1.453 0 .812.36 1.453.36.625.953.984.594.36 1.266.36zm11.46 2.25q-1.485 0-2.641-.657-1.156-.672-1.797-1.812-.64-1.156-.64-2.578t.64-2.578q.64-1.157 1.797-1.813 1.156-.672 2.64-.672 1.454 0 2.61.672 1.156.656 1.797 1.813.64 1.156.64 2.578t-.64 2.578q-.64 1.14-1.797 1.812-1.156.657-2.61.657zm0-2.25q.703 0 1.296-.329.61-.343.953-.984.36-.64.36-1.484t-.36-1.47q-.343-.64-.953-.968-.593-.344-1.297-.344-.718 0-1.312.344-.594.328-.969.969-.36.625-.36 1.469 0 .828.36 1.484.375.64.969.984.594.329 1.312.329zm7.254-11.407h8.469v2.39h-5.953v3.25h5.36v2.392h-5.36v5.328h-2.516v-13.36zm13.268 13.657q-1.515 0-2.484-.875-.969-.891-.969-2.329 0-.953.5-1.671.5-.735 1.375-1.125.891-.391 1.953-.391 1.47 0 2.516.422v-.406q0-.782-.594-1.266-.578-.484-1.578-.484-.672 0-1.297.312-.625.297-1.03.797l-1.563-1.234q.687-.891 1.734-1.375 1.047-.485 2.266-.485 2.187 0 3.328 1.016 1.14 1 1.14 2.937v5.86h-2.406v-.97h-.156q-.422.563-1.125.923-.703.344-1.61.344zm.579-1.907q1.062 0 1.687-.672.625-.687.625-1.593-.953-.453-2-.453-1.906 0-1.906 1.421 0 .579.406.938.422.36 1.188.36zm6.966-7.906h2.297v1.188h.156q.422-.688 1.203-1.079.797-.406 1.703-.406 1.719 0 2.61 1.047.906 1.047.906 2.86v5.906H467.2v-5.61q0-.922-.47-1.422-.468-.5-1.296-.5-1 0-1.61.766-.593.766-.593 1.922v4.844h-2.453v-9.516zm9.987 9.516zm-80.432 22.297q-1.485 0-2.64-.657-1.157-.672-1.798-1.812-.64-1.156-.64-2.578t.64-2.578q.64-1.157 1.797-1.813 1.156-.672 2.64-.672 1.454 0 2.61.672 1.156.656 1.797 1.813.64 1.156.64 2.578t-.64 2.578q-.64 1.14-1.797 1.812-1.156.657-2.61.657zm0-2.25q.703 0 1.297-.329.61-.343.953-.984.36-.64.36-1.484t-.36-1.47q-.344-.64-.953-.968-.594-.344-1.297-.344-.719 0-1.313.344-.593.328-.968.969-.36.625-.36 1.469 0 .828.36 1.484.375.64.968.984.594.329 1.313.329zm6.848-7.563h2.297v1.156h.14q.392-.61 1.142-1.03.75-.423 1.718-.423 1.282 0 2.328.64 1.063.641 1.657 1.798.593 1.156.593 2.625 0 1.468-.593 2.625-.594 1.14-1.657 1.78-1.046.642-2.328.642-.968 0-1.734-.407-.75-.406-1.125-1.03h-.14l.14 1.343v3.828h-2.438v-13.547zm4.86 7.563q.687 0 1.281-.36.61-.36.953-.984.36-.64.36-1.453 0-.828-.36-1.453-.344-.641-.953-.985-.594-.344-1.281-.344-.672 0-1.266.344t-.953.985q-.344.625-.344 1.453 0 .812.344 1.453.36.625.953.984.594.36 1.266.36zm11.041 2.109q-.703 0-1.297-.219t-.969-.594q-.875-.843-.875-2.39v-4.375h-1.671v-2.094h1.671v-2.687h2.438v2.687h2.328v2.094h-2.328v3.937q0 .72.312 1.047.266.297.907.297.343 0 .578-.094.234-.093.61-.328v2.39q-.798.329-1.704.329zm5.048-10.719q-.656 0-1.125-.469-.468-.468-.468-1.109 0-.656.468-1.11.47-.468 1.125-.468.657 0 1.11.469.453.453.453 1.11 0 .64-.453 1.108-.453.47-1.11.47zm-1.234 1.047h2.437v9.516h-2.437v-9.516zm4.974 0h2.297v1.188h.156q.438-.688 1.188-1.079.765-.406 1.703-.406 1 0 1.75.485.75.468 1.062 1.187.47-.734 1.282-1.203.812-.469 1.906-.469 1.625 0 2.469 1 .859 1 .859 2.688v6.125h-2.422v-5.672q0-.89-.422-1.375t-1.172-.485q-.953 0-1.53.75-.563.75-.563 1.985v4.797h-2.438v-5.672q0-.89-.437-1.375-.438-.485-1.235-.485-.906 0-1.453.75t-.547 1.985v4.797h-2.453v-9.516zm18.387-1.047q-.657 0-1.125-.469-.47-.468-.47-1.109 0-.656.47-1.11.468-.468 1.125-.468.656 0 1.109.469.453.453.453 1.11 0 .64-.453 1.108-.453.47-1.11.47zm-1.235 1.047h2.438v9.516h-2.438v-9.516zm4.49 7.516l4.969-5.438h-4.813v-2.078h7.813v2l-4.953 5.438h5.11v2.078h-8.126v-2zM458 146.195q-1.422 0-2.563-.641-1.14-.656-1.781-1.797-.64-1.156-.64-2.594 0-1.36.624-2.53.64-1.173 1.75-1.86 1.125-.688 2.516-.688 1.469 0 2.531.64 1.063.626 1.61 1.735.562 1.094.562 2.438 0 .422-.063.828h-7.14q.187 1.125.906 1.719.719.593 1.719.593.844 0 1.453-.36.61-.374.953-.983l1.984.968q-1.453 2.532-4.421 2.532zm2.25-6.204q-.032-.453-.329-.89-.28-.438-.796-.719-.516-.297-1.204-.297-.875 0-1.5.516-.625.5-.906 1.39h4.735zm4.232-3.609h2.297v1.266h.156q.36-.672 1.094-1.11.75-.437 1.64-.437.657 0 1.204.203v2.453q-.5-.187-.86-.266-.343-.093-.734-.093-1.078 0-1.719.78-.625.782-.625 1.985v4.735h-2.453v-9.516z"/><path fill="#673ab7" d="M244.457 216.196h104.63V276.1h-104.63z" fill-rule="evenodd"/><path stroke="#351c75" stroke-linejoin="round" stroke-linecap="butt" d="M244.457 216.196h104.63V276.1h-104.63z"/><path fill="#f3f3f3" d="M258.163 231.1h-3.735v-2.391h9.985v2.39h-3.735v10.97h-2.515v-10.97zm11.36 11.265q-1.719 0-2.61-1.062-.89-1.063-.89-2.97v-5.78h2.438v5.484q0 .969.468 1.531.47.547 1.235.547 1.047 0 1.656-.765.61-.766.61-1.954v-4.843h2.453v9.515h-2.297v-1.187h-.157q-.421.687-1.203 1.094-.765.39-1.703.39zm7.738-9.812h2.297v1.265h.156q.36-.672 1.094-1.11.75-.437 1.64-.437.657 0 1.203.204v2.453q-.5-.188-.859-.266-.344-.094-.734-.094-1.078 0-1.72.782-.624.78-.624 1.984v4.734h-2.453v-9.515zm13.278 9.812q-.984 0-1.734-.406t-1.125-1.031h-.156v1.14h-2.297v-13.36h2.453v3.657l-.156 1.344h.156q.39-.61 1.125-1.031.75-.422 1.734-.422 1.282 0 2.329.64 1.062.641 1.656 1.797.594 1.157.594 2.625 0 1.469-.594 2.625-.594 1.14-1.656 1.782-1.047.64-2.329.64zm-.437-2.25q.687 0 1.281-.36.61-.359.953-.984.36-.64.36-1.453 0-.828-.36-1.453-.343-.64-.953-.984-.594-.344-1.281-.344-.672 0-1.266.344-.593.344-.953.984-.36.625-.36 1.453 0 .813.36 1.453.36.625.953.985.594.36 1.266.36zm11.46 2.25q-1.485 0-2.641-.656-1.156-.672-1.797-1.813-.64-1.156-.64-2.578t.64-2.578q.64-1.156 1.797-1.812 1.156-.672 2.64-.672 1.454 0 2.61.672 1.156.656 1.797 1.812.64 1.156.64 2.578t-.64 2.578q-.64 1.141-1.797 1.813-1.156.656-2.61.656zm0-2.25q.703 0 1.296-.328.61-.344.954-.984.359-.641.359-1.485 0-.843-.36-1.468-.343-.641-.953-.97-.593-.343-1.296-.343-.72 0-1.313.344-.594.328-.969.969-.359.625-.359 1.468 0 .828.36 1.485.374.64.968.984.594.328 1.313.328zm7.254-11.406h8.47v2.39h-5.954v3.25h5.36v2.391h-5.36v5.328h-2.516v-13.36zm13.269 13.656q-1.516 0-2.485-.875-.969-.89-.969-2.328 0-.953.5-1.672.5-.734 1.375-1.125.891-.39 1.954-.39 1.468 0 2.515.421v-.406q0-.781-.594-1.265-.578-.485-1.578-.485-.672 0-1.297.313-.625.297-1.03.797l-1.563-1.235q.687-.89 1.734-1.375 1.047-.484 2.266-.484 2.187 0 3.328 1.015 1.14 1 1.14 2.938v5.86h-2.406v-.97h-.156q-.422.563-1.125.922-.703.344-1.61.344zm.578-1.906q1.062 0 1.687-.672.625-.687.625-1.594-.953-.453-2-.453-1.906 0-1.906 1.422 0 .578.406.938.422.359 1.188.359zm6.966-7.906h2.297v1.187h.156q.422-.687 1.203-1.078.797-.406 1.703-.406 1.719 0 2.61 1.047.906 1.047.906 2.859v5.906h-2.453v-5.61q0-.921-.469-1.421t-1.297-.5q-1 0-1.61.766-.593.765-.593 1.922v4.843h-2.453v-9.515zm9.987 9.515zm-80.633 14.578h-1.703v-2.093h1.703v-.516q0-1.625.969-2.547.968-.922 2.546-.922.891 0 1.547.203v2.391q-.36-.156-.64-.234-.266-.078-.61-.078-.625 0-1 .359-.36.36-.36.969v.375h2.329v2.093h-2.328v7.422h-2.453v-7.422zm6.674-2.093h2.296v1.265h.157q.36-.672 1.093-1.11.75-.437 1.641-.437.656 0 1.203.204v2.453q-.5-.188-.86-.266-.343-.094-.734-.094-1.078 0-1.718.782-.625.78-.625 1.984v4.734h-2.453v-9.515zm12.528 9.812q-1.484 0-2.64-.656-1.157-.672-1.797-1.813-.64-1.156-.64-2.578t.64-2.578q.64-1.156 1.797-1.812 1.156-.672 2.64-.672 1.453 0 2.61.672 1.156.656 1.797 1.812.64 1.156.64 2.578t-.64 2.578q-.641 1.141-1.797 1.813-1.157.656-2.61.656zm0-2.25q.703 0 1.297-.328.61-.344.953-.984.36-.641.36-1.485 0-.843-.36-1.468-.343-.641-.953-.97-.594-.343-1.297-.343-.718 0-1.312.344-.594.328-.969.969-.36.625-.36 1.468 0 .828.36 1.485.375.64.969.984.594.328 1.312.328zm6.911-7.562h2.297v1.187h.157q.421-.687 1.203-1.078.797-.406 1.703-.406 1.719 0 2.61 1.047.905 1.047.905 2.859v5.906h-2.453v-5.61q0-.921-.468-1.421-.47-.5-1.297-.5-1 0-1.61.766-.593.765-.593 1.922v4.843h-2.454v-9.515zm15.316 9.672q-.703 0-1.297-.22-.594-.218-.969-.593-.875-.844-.875-2.39v-4.376H295.6v-2.093h1.671v-2.688h2.438v2.688h2.328v2.093h-2.328v3.938q0 .719.312 1.047.266.297.907.297.343 0 .578-.094.234-.094.61-.328v2.39q-.798.329-1.704.329zm8.127.14q-1.422 0-2.563-.64-1.14-.657-1.781-1.797-.64-1.157-.64-2.594 0-1.36.624-2.531.64-1.172 1.75-1.86 1.125-.687 2.516-.687 1.469 0 2.531.64 1.063.625 1.61 1.735.562 1.094.562 2.437 0 .422-.063.828h-7.14q.187 1.125.906 1.72.719.593 1.719.593.844 0 1.453-.36.61-.374.953-.984l1.984.969q-1.453 2.531-4.421 2.531zm2.25-6.203q-.032-.453-.329-.89-.28-.438-.796-.72-.516-.296-1.204-.296-.875 0-1.5.515-.625.5-.906 1.391h4.735zm4.232-3.61h2.297v1.188h.156q.422-.687 1.203-1.078.797-.406 1.703-.406 1.72 0 2.61 1.047.906 1.047.906 2.859v5.906h-2.453v-5.61q0-.921-.469-1.421t-1.297-.5q-1 0-1.61.766-.593.765-.593 1.922v4.843h-2.453v-9.515zm15.269 9.813q-1.281 0-2.344-.64-1.047-.641-1.656-1.782-.61-1.156-.61-2.625 0-1.468.61-2.625.61-1.156 1.656-1.797 1.063-.64 2.344-.64.969 0 1.719.422.75.422 1.14 1.03h.14l-.14-1.343v-3.656h2.422v13.36h-2.281v-1.141h-.14q-.376.625-1.141 1.03-.75.407-1.72.407zm.406-2.25q.688 0 1.281-.36.61-.359.953-.984.36-.64.36-1.453 0-.828-.36-1.453-.343-.64-.953-.984-.593-.344-1.28-.344-.673 0-1.267.344-.593.344-.953.984-.359.625-.359 1.453 0 .813.36 1.453.359.625.952.985.594.36 1.266.36z"/><path d="M350.325 213.734l12.315-50.867"/><path stroke="#351c75" stroke-width="2" stroke-linejoin="round" stroke-linecap="butt" d="M350.325 213.734l9.492-39.203"/><path fill="#351c75" stroke="#351c75" stroke-width="2" stroke-linecap="butt" d="M363.027 175.308l-1.075-9.599-5.346 8.044z" fill-rule="evenodd"/><path d="M493.944 161.211l1.638 50.048"/><path stroke="#351c75" stroke-width="2" stroke-linejoin="round" stroke-linecap="butt" d="M493.944 161.211l1.245 38.054"/><path fill="#351c75" stroke="#351c75" stroke-width="2" stroke-linecap="butt" d="M491.888 199.373l3.598 8.963 3.005-9.18z" fill-rule="evenodd"/><path d="M189.475 304.004l109.921.063v28.252l-109.92-.063z"/><path fill="#666" d="M225.704 316.808q-.578 0-.984-.407-.407-.406-.407-.984 0-.282.094-.516.094-.234.313-.531l1.39-2.077.938.625-.813 1.25q.375.14.61.469.234.328.234.781 0 .578-.406.984-.391.406-.97.406zm3.5.002q-.578 0-.984-.407-.407-.406-.407-.984 0-.282.094-.516.094-.234.313-.531l1.39-2.077.938.625-.813 1.25q.375.14.61.469.234.328.234.781 0 .578-.406.984-.391.406-.97.406zm3.183-4.248l2.094.001v2.89l-.141 1.422h.14q.344-.577 1.016-.92.672-.36 1.453-.36 1.5.001 2.282.893.797.89.797 2.453v5.078h-2.094v-4.813q0-.782-.422-1.22-.422-.437-1.125-.438-.844 0-1.375.672-.531.671-.531 1.655v4.141l-2.094-.001v-11.453zm13.523 11.71q-1.266 0-2.25-.563-.985-.563-1.547-1.548-.547-.985-.547-2.219 0-1.219.547-2.203.562-1 1.547-1.561.984-.578 2.25-.577 1.25 0 2.234.58 1 .562 1.547 1.563.562.984.562 2.203 0 1.234-.562 2.218-.547.984-1.547 1.546-.984.562-2.234.562zm0-1.937q.609 0 1.125-.28.515-.281.812-.828.313-.547.313-1.281 0-.719-.313-1.266-.297-.547-.812-.829-.516-.297-1.125-.297-.61 0-1.125.296-.5.281-.813.828-.312.546-.312 1.265 0 .719.312 1.282.313.547.813.828.515.282 1.125.282zm9.496 1.818q-.61 0-1.125-.172-.516-.188-.828-.517-.75-.719-.75-2.047v-3.765l-1.422-.001v-1.782l1.422.001v-2.312l2.093.001v2.312l2 .002v1.78h-2v3.39q0 .61.266.891.234.25.781.25.297 0 .5-.077.203-.078.516-.266v2.047q-.688.266-1.453.265zm2.907-7.951l.921-1.234q-.421-.11-.687-.454-.266-.36-.266-.797 0-.578.407-.984.406-.422.984-.421.578 0 .969.422.406.407.406.985 0 .281-.094.515-.094.235-.297.531l-1.39 2.062-.953-.625zm3.5.002l.921-1.234q-.421-.11-.687-.454-.266-.36-.266-.797 0-.578.407-.984.406-.422.984-.421.578 0 .969.422.406.407.406.985 0 .281-.094.515-.094.235-.297.531l-1.39 2.062-.953-.625z"/><path d="M46.144 299.899V24.749"/><path stroke="#666" stroke-width="2" stroke-linejoin="round" stroke-linecap="butt" d="M46.144 299.899V36.749"/><path fill="#666" stroke="#666" stroke-width="2" stroke-linecap="butt" d="M49.448 36.75l-3.304-9.077-3.303 9.076z" fill-rule="evenodd"/><path d="M45.858 298.87l755.59-1.165"/><path stroke="#666" stroke-width="2" stroke-linejoin="round" stroke-linecap="butt" d="M45.858 298.87l743.59-1.147"/><path fill="#666" stroke="#666" stroke-width="2" stroke-linecap="butt" d="M789.454 301.027l9.071-3.318-9.081-3.29z" fill-rule="evenodd"/></g></svg>