<svg fill="none" stroke-linecap="square" stroke-miterlimit="10" width="706" height="436" xmlns="http://www.w3.org/2000/svg"><path fill="#fff" d="M0 0h706v436H0V0z"/><path fill="#fff" d="M0 0h706v436H0V0z"/><path stroke="#333" stroke-linecap="butt" d="M105.5 360.5h498"/><path stroke="#ccc" stroke-linecap="butt" d="M105.5 294.5h498m-498-67h498m-498-66h498m-498-66h498m-498-66h498"/><clipPath id="a"><path d="M105.8 29.3h497.24v330.9H105.8V29.3z"/></clipPath><path fill="#6fa8dc" clip-path="url(#a)" d="M158 360h-19v-1.5a1.5 1.5 0 0 1 1.5-1.5h16a1.5 1.5 0 0 1 1.5 1.5zm92 0h-19v-8a2 2 0 0 1 2-2h15a2 2 0 0 1 2 2zm93 0h-19v-17a2 2 0 0 1 2-2h15a2 2 0 0 1 2 2zm93 0h-19v-29a2 2 0 0 1 2-2h15a2 2 0 0 1 2 2zm93 0h-19v-45a2 2 0 0 1 2-2h15a2 2 0 0 1 2 2z"/><path fill="#0b5394" clip-path="url(#a)" d="M178 360h-19v-2a2 2 0 0 1 2-2h15a2 2 0 0 1 2 2zm92 0h-19v-9a2 2 0 0 1 2-2h15a2 2 0 0 1 2 2zm93 0h-19v-21a2 2 0 0 1 2-2h15a2 2 0 0 1 2 2zm93 0h-19v-31a2 2 0 0 1 2-2h15a2 2 0 0 1 2 2zm93 0h-19v-49a2 2 0 0 1 2-2h15a2 2 0 0 1 2 2z"/><path fill="#e69138" clip-path="url(#a)" d="M198 360h-19v-5a2 2 0 0 1 2-2h15a2 2 0 0 1 2 2zm92 0h-19v-22a2 2 0 0 1 2-2h15a2 2 0 0 1 2 2zm93 0h-19v-35a2 2 0 0 1 2-2h15a2 2 0 0 1 2 2zm93 0h-19V236a2 2 0 0 1 2-2h15a2 2 0 0 1 2 2zm93 0h-19V65a2 2 0 0 1 2-2h15a2 2 0 0 1 2 2z"/><path stroke="#6fa8dc" stroke-width="2" stroke-linecap="butt" clip-path="url(#a)" d="M0 358.148l4-.05a13336.518 13336.518 0 0 0 32-.44 10888.155 10888.155 0 0 0 32-.53 9200.103 9200.103 0 0 0 28-.556 8086.563 8086.563 0 0 0 20-.458 6672.689 6672.689 0 0 0 32-.854 5742.343 5742.343 0 0 0 24-.756 4901.557 4901.557 0 0 0 24-.872 4276.627 4276.627 0 0 0 20-.828 3820.802 3820.802 0 0 0 20-.932 3388.203 3388.203 0 0 0 20-1.05 2928.266 2928.266 0 0 0 24-1.435 2630.935 2630.935 0 0 0 16-1.077 2420.802 2420.802 0 0 0 16-1.185 2170.457 2170.457 0 0 0 16-1.302 1968.282 1968.282 0 0 0 16-1.432 1807.9 1807.9 0 0 0 16-1.575 1652.673 1652.673 0 0 0 16-1.732 1494.266 1494.266 0 0 0 16-1.904 1365.335 1365.335 0 0 0 16-2.094 1241.682 1241.682 0 0 0 16-2.302 1138.31 1138.31 0 0 0 16-2.532 1045.168 1045.168 0 0 0 16-2.784 958.663 958.663 0 0 0 16-3.061 882.589 882.589 0 0 0 12-2.494 828.664 828.664 0 0 0 12-2.679 777.578 777.578 0 0 0 12-2.876 738.187 738.187 0 0 0 12-3.089 692.331 692.331 0 0 0 12-3.316 657.092 657.092 0 0 0 12-3.562 625.134 625.134 0 0 0 12-3.824 589.71 589.71 0 0 0 12-4.106 562.498 562.498 0 0 0 12-4.41 537.58 537.58 0 0 0 12-4.735 516.788 516.788 0 0 0 4-1.655c1.333-.558 4-1.694 4-1.694"/><path stroke="#0b5394" stroke-width="2" stroke-linecap="butt" clip-path="url(#a)" d="M0 357.486l4-.061a11598.422 11598.422 0 0 0 32-.54 10068.116 10068.116 0 0 0 24-.471 8894.908 8894.908 0 0 0 20-.445 7625.492 7625.492 0 0 0 28-.711 6591.961 6591.961 0 0 0 24-.704 5506.56 5506.56 0 0 0 32-1.097 4688.415 4688.415 0 0 0 28-1.134 4114.597 4114.597 0 0 0 20-.924 3666.34 3666.34 0 0 0 20-1.034 3286.942 3286.942 0 0 0 20-1.154 2979.877 2979.877 0 0 0 16-1.02 2711.974 2711.974 0 0 0 20-1.41 2422.866 2422.866 0 0 0 20-1.575 2200.029 2200.029 0 0 0 16-1.392 2007.848 2007.848 0 0 0 16-1.522 1804.772 1804.772 0 0 0 20-2.101 1641.845 1641.845 0 0 0 16-1.858 1502.544 1502.544 0 0 0 16-2.03 1383.291 1383.291 0 0 0 16-2.22 1277.508 1277.508 0 0 0 16-2.424 1171.216 1171.216 0 0 0 16-2.65 1066.97 1066.97 0 0 0 16-2.896 996.23 996.23 0 0 0 12-2.348 932.762 932.762 0 0 0 16-3.382 866.713 866.713 0 0 0 16-3.697 805.725 805.725 0 0 0 12-2.997 760.65 760.65 0 0 0 12-3.202 724.251 724.251 0 0 0 12-3.423 684.762 684.762 0 0 0 12-3.66 653.2 653.2 0 0 0 12-3.91 623.196 623.196 0 0 0 12-4.18 595.758 595.758 0 0 0 12-4.468 573.515 573.515 0 0 0 12-4.776c1.333-.548 4-1.663 4-1.663"/><path stroke="#e69138" stroke-width="2" stroke-linecap="butt" clip-path="url(#a)" d="M0 358.727l4-.059a6669.026 6669.026 0 0 0 20-.332 5445.03 5445.03 0 0 0 20-.405 4411.14 4411.14 0 0 0 20-.494 3682.396 3682.396 0 0 0 16-.47 3179.61 3179.61 0 0 0 16-.55 2699.422 2699.422 0 0 0 16-.645 2305.65 2305.65 0 0 0 16-.755 1947.255 1947.255 0 0 0 16-.882 1691.782 1691.782 0 0 0 12-.76 1500.235 1500.235 0 0 0 12-.854 1338.516 1338.516 0 0 0 12-.962 1193.253 1193.253 0 0 0 12-1.082 1054.493 1054.493 0 0 0 12-1.217 949.28 949.28 0 0 0 12-1.37 841.925 841.925 0 0 0 12-1.541 755.976 755.976 0 0 0 12-1.735 676.024 676.024 0 0 0 12-1.951 608.126 608.126 0 0 0 8-1.435 564.235 564.235 0 0 0 8-1.552 525.038 525.038 0 0 0 8-1.68 493.095 493.095 0 0 0 8-1.816 460.638 460.638 0 0 0 8-1.966 430.544 430.544 0 0 0 8-2.126 405.518 405.518 0 0 0 8-2.3 380.415 380.415 0 0 0 8-2.488 360.787 360.787 0 0 0 8-2.692 341.206 341.206 0 0 0 8-2.912 324.4 324.4 0 0 0 8-3.15 310.097 310.097 0 0 0 8-3.409 297.73 297.73 0 0 0 8-3.687 286.51 286.51 0 0 0 12-6.103 274.897 274.897 0 0 0 12-6.868 267.144 267.144 0 0 0 12-7.728 264.246 264.246 0 0 0 16-11.83 267.948 267.948 0 0 0 12-10.177 277.053 277.053 0 0 0 8-7.483 286.472 286.472 0 0 0 8-8.095 299.097 299.097 0 0 0 8-8.758 315.16 315.16 0 0 0 8-9.474 335.088 335.088 0 0 0 8-10.249 373.362 373.362 0 0 0 8-11.088 388.68 388.68 0 0 0 4-5.88 401.376 401.376 0 0 0 4-6.115 423.922 423.922 0 0 0 4-6.36 443.91 443.91 0 0 0 4-6.616 465.818 465.818 0 0 0 4-6.881 489.444 489.444 0 0 0 4-7.158 515.218 515.218 0 0 0 4-7.444 543.4 543.4 0 0 0 4-7.742 573.815 573.815 0 0 0 4-8.054 606.905 606.905 0 0 0 4-8.376 642.743 642.743 0 0 0 4-8.712 681.645 681.645 0 0 0 4-9.061 723.816 723.816 0 0 0 4-9.425 769.436 769.436 0 0 0 4-9.803 818.988 818.988 0 0 0 4-10.197 866.653 866.653 0 0 0 4-10.605 930.806 930.806 0 0 0 4-11.03 993.61 993.61 0 0 0 4-11.473c1.333-3.9 2.667-7.875 4-11.933a1126.53 1126.53 0 0 0 4-12.411c1.333-4.22 2.667-8.52 4-12.91 1.333-4.389 2.667-8.86 4-13.426a1396.08 1396.08 0 0 0 4-13.966c1.333-4.748 2.667-9.586 4-14.525 1.333-4.94 2.667-9.971 4-15.108a1724.363 1724.363 0 0 0 4-15.714 1852.591 1852.591 0 0 0 4-16.345c1.333-5.557 2.667-11.22 4-17a2148.51 2148.51 0 0 0 4-17.68 2303.845 2303.845 0 0 0 4-18.392 2479.589 2479.589 0 0 0 4-19.128c1.333-6.504 2.667-13.13 4-19.895 1.333-6.765 4-20.694 4-20.694"/><path fill="#424242" d="M208.045 407.747h-2.016v3.453h-1.125v-8.531h2.828q1.438 0 2.204.656.78.656.78 1.906 0 .797-.437 1.39-.422.595-1.187.892l2 3.609v.078h-1.203l-1.844-3.453zm-2.016-.922h1.735q.843 0 1.328-.422.5-.437.5-1.172 0-.781-.469-1.203-.469-.422-1.36-.437h-1.734v3.234zm9.625 3.75q-.625.75-1.859.75-1.016 0-1.547-.594-.531-.594-.531-1.75v-4.125h1.078v4.094q0 1.453 1.172 1.453 1.25 0 1.656-.937v-4.61h1.094v6.344h-1.031l-.032-.625zm4.11-5.719l.031.797q.734-.906 1.906-.906 2.016 0 2.031 2.265v4.188h-1.093v-4.203q0-.672-.313-1-.297-.328-.953-.328-.531 0-.937.281-.391.281-.61.734v4.516h-1.078v-6.344h1.016zm7 0l.031.797q.734-.906 1.906-.906 2.016 0 2.031 2.265v4.188h-1.093v-4.203q0-.672-.313-1-.297-.328-.953-.328-.531 0-.937.281-.391.281-.61.734v4.516h-1.078v-6.344h1.016zm7.156 6.344h-1.078v-6.344h1.078v6.344zm-1.172-8.016q0-.265.156-.453.172-.187.485-.187.312 0 .468.187.172.188.172.453 0 .25-.172.438-.156.172-.468.172-.313 0-.485-.172-.156-.188-.156-.438zm4.016 1.672l.031.797q.734-.906 1.906-.906 2.016 0 2.031 2.265v4.188h-1.093v-4.203q0-.672-.313-1-.297-.328-.953-.328-.531 0-.937.281-.391.281-.61.734v4.516h-1.078v-6.344h1.016zm5.718 3.125q0-1.484.688-2.36.688-.874 1.813-.874 1.156 0 1.812.812l.047-.703h1v6.188q0 1.234-.735 1.937-.734.719-1.953.719-.687 0-1.343-.297-.657-.297-1-.797l.562-.656q.688.86 1.703.86.781 0 1.219-.454.453-.437.453-1.25v-.547q-.656.766-1.781.766-1.11 0-1.797-.89-.688-.907-.688-2.454zm1.094.125q0 1.063.438 1.688.437.61 1.234.61 1.016 0 1.5-.938v-2.891q-.5-.906-1.5-.906-.781 0-1.234.61-.438.608-.438 1.827zm14.781 1.594l1.22-4.844h1.077l-1.843 6.344h-.875l-1.547-4.813-1.5 4.813h-.875l-1.844-6.344h1.078l1.25 4.75 1.484-4.75h.86l1.515 4.844zm4.563 1.5h-1.078v-6.344h1.078v6.344zm-1.172-8.016q0-.265.156-.453.172-.187.485-.187.312 0 .468.187.172.188.172.453 0 .25-.172.438-.156.172-.468.172-.313 0-.485-.172-.156-.188-.156-.438zm4.469.141v1.531h1.172v.844h-1.172v3.922q0 .39.156.578.156.188.531.188.188 0 .516-.063v.875q-.422.125-.828.125-.719 0-1.094-.438-.375-.453-.375-1.265V405.7h-1.156v-.844h1.156v-1.531h1.094zm3.61 2.297q.718-.875 1.874-.875 2.016 0 2.031 2.265v4.188h-1.093v-4.203q0-.672-.313-1-.297-.328-.953-.328-.531 0-.937.281-.391.281-.61.734v4.516h-1.078v-9h1.078v3.422zm11 4.11l1.577-4.876h1.11l-2.282 6.344h-.828l-2.297-6.344h1.11l1.61 4.875zm7.827 1.468q-.093-.188-.156-.672-.75.797-1.797.797-.937 0-1.547-.531-.593-.531-.593-1.36 0-.984.75-1.53.75-.548 2.125-.548h1.046v-.5q0-.562-.343-.89-.328-.344-1-.344-.578 0-.969.297-.39.281-.39.703h-1.094q0-.485.328-.922.343-.438.922-.688.578-.265 1.265-.265 1.11 0 1.719.547.625.547.656 1.5v2.922q0 .875.219 1.39v.094h-1.14zm-1.797-.828q.516 0 .97-.266.452-.265.655-.687v-1.297h-.843q-2 0-2 1.172 0 .5.343.797.344.28.875.28zm7.954-4.547q-.25-.031-.532-.031-1.078 0-1.453.906v4.5h-1.078v-6.344h1.047l.016.735q.53-.844 1.515-.844.313 0 .485.078v1zm2.109 5.375h-1.078v-6.344h1.078v6.344zm-1.172-8.016q0-.265.156-.453.172-.187.485-.187.312 0 .468.187.172.188.172.453 0 .25-.172.438-.156.172-.468.172-.313 0-.485-.172-.156-.188-.156-.438zm2.703 4.782q0-.922.36-1.672.375-.75 1.03-1.14.657-.407 1.485-.407 1.297 0 2.094.89.812.891.812 2.391v.078q0 .922-.359 1.656-.36.735-1.016 1.157-.656.406-1.515.406-1.281 0-2.094-.89-.797-.907-.797-2.391v-.078zm1.094.14q0 1.047.484 1.688.5.64 1.313.64.828 0 1.312-.64.485-.656.485-1.828 0-1.032-.5-1.672-.485-.656-1.313-.656-.797 0-1.297.64-.484.625-.484 1.828zm10.11 2.469q-.626.75-1.86.75-1.016 0-1.547-.594-.531-.594-.531-1.75v-4.125h1.078v4.094q0 1.453 1.172 1.453 1.25 0 1.656-.937v-4.61h1.094v6.344h-1.031l-.032-.625zm6.78-1.063q0-.437-.343-.671-.328-.25-1.156-.422-.813-.172-1.297-.422-.485-.25-.719-.578-.219-.344-.219-.813 0-.781.656-1.312.657-.547 1.688-.547 1.078 0 1.734.562.672.547.672 1.407h-1.078q0-.438-.39-.75-.376-.329-.938-.329-.594 0-.938.266-.328.25-.328.656 0 .391.313.594.312.203 1.125.39.812.173 1.312.423t.735.609q.25.36.25.86 0 .859-.688 1.374-.672.516-1.75.516-.765 0-1.36-.266-.577-.28-.905-.765-.329-.485-.329-1.047h1.079q.03.547.437.875.406.312 1.078.312.61 0 .985-.25t.375-.672zm5.047-1.53q0-1.47.688-2.345.687-.89 1.812-.89 1.11 0 1.766.75V402.2h1.078v9h-1l-.047-.688q-.656.813-1.812.813-1.094 0-1.797-.906-.688-.906-.688-2.36v-.078zm1.079.124q0 1.078.437 1.688.453.61 1.234.61 1.032 0 1.516-.938v-2.907q-.484-.89-1.5-.89-.797 0-1.25.61-.437.608-.437 1.827zm8.812 3.219q-1.297 0-2.11-.844-.796-.86-.796-2.281v-.188q0-.953.36-1.687.359-.75 1-1.156.655-.422 1.405-.422 1.235 0 1.922.812.688.813.688 2.328v.454h-4.297q.031.937.547 1.515.531.578 1.344.578.562 0 .953-.234.406-.234.718-.625l.657.516q-.797 1.234-2.39 1.234zm-.14-5.688q-.657 0-1.11.485-.437.469-.531 1.328h3.172v-.078q-.047-.828-.453-1.281-.391-.454-1.079-.454zm3.25 2.344q0-1.484.687-2.36.687-.874 1.812-.874 1.157 0 1.813.812l.047-.703h1v6.188q0 1.234-.735 1.937-.734.719-1.953.719-.687 0-1.343-.297-.657-.297-1-.797l.562-.656q.688.86 1.703.86.781 0 1.219-.454.453-.437.453-1.25v-.547q-.656.766-1.781.766-1.11 0-1.797-.89-.688-.907-.688-2.454zm1.093.125q0 1.063.438 1.688.437.61 1.234.61 1.016 0 1.5-.938v-2.891q-.5-.906-1.5-.906-.781 0-1.234.61-.438.608-.438 1.827zm9.235-2.281q-.25-.031-.532-.031-1.078 0-1.453.906v4.5h-1.078v-6.344h1.047l.016.735q.53-.844 1.515-.844.313 0 .485.078v1zm3.562 5.5q-1.297 0-2.11-.844-.796-.86-.796-2.281v-.188q0-.953.36-1.687.359-.75 1-1.156.655-.422 1.405-.422 1.235 0 1.922.812.688.813.688 2.328v.454h-4.297q.031.937.547 1.515.531.578 1.344.578.562 0 .953-.234.406-.234.718-.625l.657.516q-.797 1.234-2.39 1.234zm-.14-5.688q-.657 0-1.11.485-.437.469-.531 1.328h3.172v-.078q-.047-.828-.453-1.281-.391-.454-1.079-.454zm6.14 5.688q-1.297 0-2.11-.844-.796-.86-.796-2.281v-.188q0-.953.36-1.687.359-.75 1-1.156.655-.422 1.405-.422 1.235 0 1.922.812.688.813.688 2.328v.454h-4.297q.031.937.547 1.515.531.578 1.344.578.562 0 .953-.234.406-.234.718-.625l.657.516q-.797 1.234-2.39 1.234zm-.14-5.688q-.657 0-1.11.485-.437.469-.531 1.328h3.172v-.078q-.047-.828-.453-1.281-.391-.454-1.079-.454zm7.203 3.875q0-.437-.344-.671-.328-.25-1.156-.422-.813-.172-1.297-.422-.485-.25-.719-.578-.219-.344-.219-.813 0-.781.656-1.312.657-.547 1.688-.547 1.078 0 1.734.562.672.547.672 1.407h-1.078q0-.438-.39-.75-.376-.329-.938-.329-.594 0-.938.266-.328.25-.328.656 0 .391.313.594.312.203 1.125.39.812.173 1.312.423t.735.609q.25.36.25.86 0 .859-.688 1.374-.672.516-1.75.516-.765 0-1.36-.266-.577-.28-.905-.765-.329-.485-.329-1.047h1.079q.03.547.437.875.406.312 1.078.312.61 0 .985-.25t.375-.672zm5.015-1.546q0-.922.36-1.672.375-.75 1.03-1.14.657-.407 1.485-.407 1.297 0 2.094.89.812.891.812 2.391v.078q0 .922-.359 1.656-.36.735-1.016 1.157-.656.406-1.515.406-1.281 0-2.094-.89-.797-.907-.797-2.391v-.078zm1.094.14q0 1.047.484 1.688.5.64 1.313.64.828 0 1.312-.64.485-.656.485-1.828 0-1.032-.5-1.672-.485-.656-1.313-.656-.797 0-1.297.64-.484.625-.484 1.828zm6.734 3.094v-5.5h-1v-.844h1v-.64q0-1.032.532-1.579.546-.562 1.546-.562.375 0 .75.094l-.062.89q-.281-.062-.578-.062-.531 0-.828.312-.282.313-.282.875v.672h1.36v.844h-1.36v5.5h-1.078zm11.813-3.094q0 1.438-.656 2.328-.657.891-1.797.891-1.157 0-1.813-.734v3.046h-1.078v-8.78h.984l.047.702q.672-.812 1.844-.812 1.14 0 1.797.86.672.859.672 2.39v.11zm-1.078-.125q0-1.078-.469-1.687-.453-.625-1.25-.625-.984 0-1.469.86v3.03q.485.875 1.485.875.78 0 1.234-.609.469-.625.469-1.844zm2.437-.015q0-.922.36-1.672.375-.75 1.03-1.14.657-.407 1.485-.407 1.297 0 2.094.89.812.891.812 2.391v.078q0 .922-.359 1.656-.36.735-1.016 1.157-.656.406-1.515.406-1.281 0-2.094-.89-.797-.907-.797-2.391v-.078zm1.094.14q0 1.047.484 1.688.5.64 1.313.64.828 0 1.312-.64.485-.656.485-1.828 0-1.032-.5-1.672-.485-.656-1.313-.656-.797 0-1.297.64-.484.625-.484 1.828zm7.375 3.094h-1.078v-9h1.078v9zm3.89-1.594l1.485-4.75h1.156l-2.547 7.328q-.593 1.578-1.875 1.578l-.218-.015-.391-.078v-.875l.281.015q.563 0 .86-.218.312-.22.515-.813l.235-.656-2.266-6.266h1.187l1.579 4.75zm4.954-4.75l.031.703q.687-.812 1.875-.812 1.328 0 1.812 1.015.313-.453.813-.734.516-.281 1.203-.281 2.094 0 2.125 2.203v4.25h-1.078v-4.188q0-.671-.313-1-.312-.343-1.046-.343-.61 0-1.016.36-.39.358-.453.968v4.203h-1.078v-4.156q0-1.375-1.36-1.375-1.062 0-1.453.906v4.625h-1.094v-6.344h1.032zm9.687 3.11q0-.922.36-1.672.375-.75 1.03-1.14.657-.407 1.485-.407 1.297 0 2.094.89.812.891.812 2.391v.078q0 .922-.359 1.656-.36.735-1.016 1.157-.656.406-1.515.406-1.281 0-2.094-.89-.797-.907-.797-2.391v-.078zm1.094.14q0 1.047.484 1.688.5.64 1.313.64.828 0 1.312-.64.485-.656.485-1.828 0-1.032-.5-1.672-.485-.656-1.313-.656-.797 0-1.297.64-.484.625-.484 1.828zm9.266-2.281q-.25-.031-.532-.031-1.078 0-1.453.906v4.5h-1.078v-6.344h1.047l.016.735q.53-.844 1.515-.844.313 0 .485.078v1zm6.28 2.281q0 1.438-.655 2.328-.657.891-1.797.891-1.157 0-1.813-.734v3.046h-1.078v-8.78h.984l.047.702q.672-.812 1.844-.812 1.14 0 1.797.86.672.859.672 2.39v.11zm-1.077-.125q0-1.078-.469-1.687-.453-.625-1.25-.625-.984 0-1.469.86v3.03q.485.875 1.485.875.78 0 1.234-.609.469-.625.469-1.844zm3.812-2.36q.719-.874 1.875-.874 2.016 0 2.031 2.265v4.188h-1.093v-4.203q0-.672-.313-1-.297-.328-.953-.328-.531 0-.937.281-.391.281-.61.734v4.516h-1.078v-9h1.078v3.422zm7.094 5.579h-1.078v-6.344h1.078v6.344zm-1.172-8.016q0-.265.156-.453.172-.187.485-.187.312 0 .468.187.172.188.172.453 0 .25-.172.438-.156.172-.468.172-.313 0-.485-.172-.156-.188-.156-.438zm6.688 6.328q0-.437-.344-.671-.328-.25-1.156-.422-.813-.172-1.297-.422-.485-.25-.719-.578-.219-.344-.219-.813 0-.781.656-1.312.657-.547 1.688-.547 1.078 0 1.734.562.672.547.672 1.407h-1.078q0-.438-.39-.75-.376-.329-.938-.329-.594 0-.938.266-.328.25-.328.656 0 .391.313.594.312.203 1.125.39.812.173 1.312.423t.735.609q.25.36.25.86 0 .859-.688 1.374-.672.516-1.75.516-.765 0-1.36-.266-.577-.28-.905-.765-.329-.485-.329-1.047h1.079q.03.547.437.875.406.312 1.078.312.61 0 .985-.25t.375-.672zm3.328-4.656l.031.703q.687-.812 1.875-.812 1.328 0 1.812 1.015.313-.453.813-.734.516-.281 1.203-.281 2.094 0 2.125 2.203v4.25h-1.078v-4.188q0-.671-.313-1-.312-.343-1.046-.343-.61 0-1.016.36-.39.358-.453.968v4.203h-1.078v-4.156q0-1.375-1.36-1.375-1.062 0-1.453.906v4.625h-1.094v-6.344h1.032zm12.937 2.875q0-1.312.344-2.531.36-1.219 1.062-2.219.704-1 1.47-1.406l.218.719q-.86.656-1.406 2-.547 1.344-.594 3.015l-.016.5q0 2.266.828 3.922.5 1 1.188 1.563l-.219.656q-.781-.422-1.5-1.453-1.375-1.985-1.375-4.766zm7.031 1.969l2.438-7.031h1.234l-3.172 8.531h-.984l-3.156-8.531h1.219l2.421 7.031zm10.079-4.813q0 .641-.344 1.141t-.906.781q.656.282 1.046.844.391.547.391 1.25 0 1.094-.75 1.766-.734.656-1.953.656-1.234 0-1.984-.656-.735-.672-.735-1.766 0-.703.375-1.25.375-.562 1.047-.844-.562-.28-.89-.78-.329-.5-.329-1.142 0-1.078.688-1.703.687-.64 1.828-.64 1.125 0 1.812.64.704.625.704 1.703zm-.891 3.985q0-.719-.453-1.156-.453-.454-1.188-.454-.734 0-1.187.454-.438.437-.438 1.171 0 .72.438 1.141.437.406 1.203.406.75 0 1.187-.422.438-.421.438-1.14zm-1.625-5.438q-.64 0-1.047.407-.39.39-.39 1.078 0 .64.39 1.047.39.406 1.031.406.657 0 1.047-.406.39-.407.39-1.047 0-.656-.405-1.063-.407-.422-1.016-.422zm11.594-.765v.906h-.203q-1.266.031-2.016.766-.75.718-.875 2.03.687-.765 1.844-.765 1.11 0 1.781.781.672.782.672 2.032 0 1.312-.719 2.11-.719.796-1.937.796-1.22 0-1.985-.938-.75-.953-.75-2.437v-.406q0-2.36 1-3.61t2.985-1.265h.203zm-1.422 3.844q-.563 0-1.031.328-.47.328-.657.843v.391q0 1.063.47 1.703.483.64 1.187.64.734 0 1.156-.53.422-.547.422-1.422 0-.875-.422-1.407-.422-.547-1.125-.547zm4.297 4.125q0-.282.156-.47.172-.187.5-.187.344 0 .516.188.171.187.171.469 0 .265-.171.453-.172.171-.516.171-.328 0-.5-.171-.156-.188-.156-.454zm7.125-7.97v.907h-.203q-1.266.031-2.016.766-.75.718-.875 2.03.687-.765 1.844-.765 1.11 0 1.781.781.672.782.672 2.032 0 1.312-.719 2.11-.719.796-1.937.796-1.22 0-1.985-.938-.75-.953-.75-2.437v-.406q0-2.36 1-3.61t2.985-1.265h.203zm-1.422 3.844q-.563 0-1.031.329-.47.328-.657.843v.391q0 1.063.47 1.703.483.64 1.187.64.734 0 1.156-.53.422-.547.422-1.422 0-.875-.422-1.407-.422-.547-1.125-.547zm6.781 1.282q0 1.312-.344 2.515-.343 1.188-1.062 2.203-.703 1.016-1.469 1.438l-.234-.656q.906-.688 1.453-2.14.547-1.47.562-3.235v-.188q0-1.234-.265-2.297-.25-1.062-.719-1.89-.453-.844-1.031-1.313l.234-.656q.766.422 1.469 1.422.703 1 1.047 2.219.36 1.203.36 2.578zM29.863 278.688v3.703h3.015v-4.297h.922v5.422h-8.531v-5.375h.922v4.25h2.75v-3.704h.922zm-.094-4.141l-2.313-1.406v-1.266l3.14 2.078 3.204-2.14v1.25l-2.375 1.468L33.8 276v1.266l-3.203-2.141-3.14 2.063v-1.25l2.312-1.391zm4.156-6.5q0 1.297-.844 2.11-.86.796-2.281.796h-.187q-.954 0-1.688-.36-.75-.359-1.156-1-.422-.656-.422-1.406 0-1.234.812-1.921.813-.688 2.329-.688h.453v4.297q.937-.031 1.515-.547.578-.531.578-1.344 0-.562-.234-.953-.234-.406-.625-.719l.516-.656q1.234.797 1.234 2.39zm-5.687.14q0 .657.484 1.11.469.437 1.328.531v-3.172h-.078q-.828.047-1.281.453-.453.391-.453 1.079zm4.796-6.046q0-.579-.343-1.016-.36-.438-.891-.484v-1.032q.547.032 1.047.391.484.344.781.922.297.562.297 1.219 0 1.296-.86 2.062-.874.75-2.374.75h-.188q-.922 0-1.64-.328-.72-.344-1.11-.969-.406-.64-.406-1.515 0-1.063.64-1.766.626-.719 1.657-.766v1.032q-.625.046-1.016.468-.39.422-.39 1.032 0 .828.593 1.28.594.454 1.719.454h.203q1.094 0 1.688-.453.593-.453.593-1.281zm.141-7.375q.75.625.75 1.859 0 1.016-.594 1.547-.593.531-1.75.531h-4.125v-1.078h4.094q1.453 0 1.453-1.172 0-1.25-.937-1.656h-4.61v-1.094H33.8v1.031l-.625.032zm-7.25-4.563h1.531v-1.172h.844v1.172h3.922q.39 0 .578-.156.188-.156.188-.531 0-.188-.063-.516h.875q.125.422.125.828 0 .719-.437 1.094-.454.375-1.266.375H28.3v1.156h-.844v-1.156h-1.531v-1.094zM33.8 246.5v1.078h-6.344V246.5H33.8zm-8.016 1.172q-.265 0-.453-.156-.187-.172-.187-.485 0-.312.187-.469.188-.171.453-.171.25 0 .438.172.172.156.172.468 0 .313-.172.485-.188.156-.438.156zm4.782-2.703q-.922 0-1.672-.36-.75-.375-1.14-1.03-.407-.657-.407-1.485 0-1.297.89-2.094.891-.813 2.391-.813h.078q.922 0 1.657.36.734.36 1.156 1.016.406.656.406 1.515 0 1.281-.89 2.094-.907.797-2.391.797h-.078zm.14-1.094q1.047 0 1.688-.484.64-.5.64-1.313 0-.828-.64-1.312-.656-.485-1.828-.485-1.032 0-1.672.5-.656.485-.656 1.313 0 .797.64 1.297.625.484 1.828.484zm-3.25-7.219l.797-.031q-.906-.734-.906-1.906 0-2.016 2.266-2.031H33.8v1.093h-4.203q-.672 0-1 .313-.328.297-.328.953 0 .531.281.937.281.391.734.61H33.8v1.078h-6.344v-1.016zm-1.531-10.453h1.531v-1.172h.844v1.172h3.922q.39 0 .578-.156.188-.156.188-.531 0-.188-.063-.516h.875q.125.422.125.828 0 .719-.437 1.094-.454.375-1.266.375H28.3v1.156h-.844v-1.156h-1.531v-1.094zM33.8 222.5v1.078h-6.344V222.5H33.8zm-8.016 1.172q-.265 0-.453-.156-.187-.172-.187-.485 0-.312.187-.469.188-.171.453-.171.25 0 .438.172.172.156.172.468 0 .313-.172.485-.188.156-.438.156zm1.672-4.016l.703-.031q-.812-.688-.812-1.875 0-1.328 1.016-1.813-.454-.312-.735-.812-.281-.516-.281-1.203 0-2.094 2.203-2.125h4.25v1.078h-4.187q-.672 0-1 .313-.344.312-.344 1.046 0 .61.36 1.016.359.39.968.453H33.8v1.078h-4.156q-1.375 0-1.375 1.36 0 1.062.906 1.453H33.8v1.094h-6.344v-1.032zm6.469-12.61q0 1.298-.844 2.11-.86.797-2.281.797h-.187q-.954 0-1.688-.36-.75-.359-1.156-1-.422-.655-.422-1.405 0-1.235.812-1.922.813-.688 2.329-.688h.453v4.297q.937-.031 1.515-.547.578-.531.578-1.344 0-.562-.234-.953-.234-.406-.625-.719l.516-.656q1.234.797 1.234 2.39zm-5.687.142q0 .656.484 1.109.469.437 1.328.531v-3.172h-.078q-.828.047-1.281.453-.453.391-.453 1.078zm2.093-6.47q-1.312 0-2.531-.343-1.219-.36-2.219-1.063-1-.703-1.406-1.468l.719-.219q.656.86 2 1.406 1.344.547 3.015.594l.5.016q2.266 0 3.922-.828 1-.5 1.563-1.188l.656.219q-.422.781-1.453 1.5-1.984 1.375-4.766 1.375zM33.8 195.5v1.078h-9V195.5h9zm-3.234-1.531q-.922 0-1.672-.36-.75-.375-1.14-1.03-.407-.657-.407-1.485 0-1.297.89-2.094.891-.813 2.391-.813h.078q.922 0 1.657.36.734.36 1.156 1.016.406.656.406 1.515 0 1.281-.89 2.094-.907.797-2.391.797h-.078zm.14-1.094q1.047 0 1.688-.484.64-.5.64-1.313 0-.828-.64-1.312-.656-.485-1.828-.485-1.032 0-1.672.5-.656.485-.656 1.313 0 .797.64 1.297.625.484 1.828.484zm1.594-11.813l-4.844-1.218v-1.078l6.344 1.843v.875l-4.812 1.547 4.812 1.5v.875l-6.344 1.844v-1.078l4.75-1.25-4.75-1.484v-.86l4.844-1.516zm1.625-6.015q0 1.297-.844 2.11-.86.796-2.281.796h-.187q-.954 0-1.688-.36-.75-.359-1.156-1-.422-.655-.422-1.405 0-1.235.812-1.922.813-.688 2.329-.688h.453v4.297q.937-.031 1.515-.547.578-.531.578-1.344 0-.562-.234-.953-.234-.406-.625-.719l.516-.656q1.234.797 1.234 2.39zm-5.687.14q0 .657.484 1.11.469.437 1.328.531v-3.172h-.078q-.828.047-1.281.453-.453.391-.453 1.078zm.187-6.578q-.031.25-.031.532 0 1.078.906 1.453h4.5v1.078h-6.344v-1.047l.735-.016q-.844-.53-.844-1.515 0-.313.078-.485h1zM33.8 163.5v1.078h-6.344V163.5H33.8zm-8.016 1.172q-.265 0-.453-.156-.187-.172-.187-.485 0-.312.187-.469.188-.171.453-.171.25 0 .438.172.172.156.172.468 0 .313-.172.485-.188.156-.438.156zm6.329-6.688q-.438 0-.672.344-.25.328-.422 1.156-.172.813-.422 1.297-.25.485-.578.719-.344.219-.813.219-.781 0-1.312-.656-.547-.657-.547-1.688 0-1.078.562-1.734.547-.672 1.407-.672v1.078q-.438 0-.75.39-.328.375-.328.938 0 .594.265.938.25.328.656.328.391 0 .594-.313.203-.312.39-1.125.173-.812.423-1.312t.609-.735q.36-.25.86-.25.859 0 1.374.688.516.672.516 1.75 0 .765-.266 1.36-.28.577-.765.905-.485.328-1.047.328v-1.078q.547-.03.875-.437.312-.406.312-1.078 0-.61-.25-.985t-.671-.375zm-1.407-10.672q1.453 0 2.344.672.875.657.875 1.782 0 1.203-.86 1.859l.735.063v.984h-9v-1.078h3.36q-.813-.656-.813-1.813 0-1.156.875-1.812.86-.656 2.39-.656h.094zm-.125 1.079q-1.11 0-1.703.437-.61.422-.61 1.219 0 1.078.985 1.547h2.75q1-.5 1-1.547 0-.781-.61-1.219-.609-.437-1.812-.437zm3.344-5.344q0 1.297-.844 2.11-.86.796-2.281.796h-.187q-.954 0-1.688-.36-.75-.359-1.156-1-.422-.655-.422-1.405 0-1.235.812-1.922.813-.688 2.329-.688h.453v4.297q.937-.031 1.515-.547.578-.531.578-1.344 0-.562-.234-.953-.234-.406-.625-.719l.516-.656q1.234.797 1.234 2.39zm-5.687.14q0 .657.484 1.11.469.437 1.328.531v-3.172h-.078q-.828.047-1.281.453-.453.391-.453 1.078zm-2.313-4.984h1.531v-1.172h.844v1.172h3.922q.39 0 .578-.156.188-.156.188-.531 0-.188-.063-.516h.875q.125.422.125.828 0 .719-.437 1.094-.454.375-1.266.375H28.3v1.156h-.844v-1.156h-1.531v-1.094zm0-4h1.531v-1.172h.844v1.172h3.922q.39 0 .578-.156.188-.156.188-.531 0-.188-.063-.516h.875q.125.422.125.828 0 .719-.437 1.094-.454.375-1.266.375H28.3v1.156h-.844v-1.156h-1.531v-1.094zm8-5.156q0 1.297-.844 2.11-.86.796-2.281.796h-.187q-.954 0-1.688-.36-.75-.359-1.156-1-.422-.655-.422-1.405 0-1.235.812-1.922.813-.688 2.329-.688h.453v4.297q.937-.031 1.515-.547.578-.531.578-1.344 0-.562-.234-.953-.234-.406-.625-.719l.516-.656q1.234.797 1.234 2.39zm-5.687.14q0 .657.484 1.11.469.437 1.328.531v-3.172h-.078q-.828.047-1.281.453-.453.391-.453 1.078zm.187-6.578q-.031.25-.031.532 0 1.078.906 1.453h4.5v1.078h-6.344v-1.047l.735-.016q-.844-.53-.844-1.515 0-.313.078-.485h1zm1.969-3.437q1.312 0 2.515.344 1.188.343 2.204 1.062 1.015.703 1.437 1.469l-.656.234q-.688-.906-2.14-1.453-1.47-.547-3.235-.562h-.188q-1.234 0-2.297.265-1.062.25-1.89.719-.844.453-1.313 1.031l-.656-.234q.422-.766 1.422-1.469 1-.703 2.219-1.047 1.203-.36 2.578-.36z"/><path fill="#757575" d="M81.862 361.06q0 1.906-.656 2.843-.64.922-2.031.922-1.36 0-2.016-.906-.656-.906-.687-2.719v-1.438q0-1.89.64-2.796.657-.922 2.047-.922 1.375 0 2.032.89.656.875.671 2.72v1.405zm-1.093-1.485q0-1.375-.39-2-.376-.64-1.22-.64-.828 0-1.218.64-.375.625-.375 1.922v1.734q0 1.375.39 2.047.406.656 1.219.656.797 0 1.188-.625.39-.625.406-1.953v-1.781zm3.875-1.219l.031.703q.688-.812 1.875-.812 1.328 0 1.813 1.015.312-.453.812-.734.516-.281 1.203-.281 2.094 0 2.125 2.203v4.25h-1.078v-4.188q0-.671-.313-1-.312-.343-1.046-.343-.61 0-1.016.36-.39.358-.453.968v4.203h-1.078v-4.156q0-1.375-1.36-1.375-1.062 0-1.453.906v4.625h-1.094v-6.344h1.032zm13.672 4.656q0-.437-.344-.671-.328-.25-1.156-.422-.813-.172-1.297-.422-.485-.25-.719-.578-.219-.344-.219-.813 0-.781.656-1.312.657-.547 1.688-.547 1.078 0 1.734.562.672.547.672 1.407h-1.078q0-.438-.39-.75-.376-.329-.938-.329-.594 0-.938.266-.328.25-.328.656 0 .391.313.594.312.203 1.125.39.812.173 1.312.423t.735.609q.25.36.25.86 0 .859-.688 1.374-.672.516-1.75.516-.765 0-1.36-.266-.577-.28-.905-.765-.329-.485-.329-1.047h1.079q.03.547.437.875.406.312 1.078.312.61 0 .985-.25t.375-.672zm-35.313-68.773l.438-4.25h4.375v1h-3.454l-.265 2.328q.64-.375 1.437-.375 1.157 0 1.844.781.688.766.688 2.078 0 1.313-.72 2.078-.702.766-1.984.766-1.124 0-1.843-.625-.719-.64-.813-1.75h1.016q.11.734.531 1.11.422.374 1.11.374.75 0 1.187-.515.438-.516.438-1.422 0-.86-.47-1.375-.468-.516-1.25-.516-.702 0-1.109.297l-.28.234-.876-.218zm11.86.64q0 1.907-.657 2.844-.64.922-2.031.922-1.36 0-2.016-.906-.656-.906-.687-2.719v-1.438q0-1.89.64-2.796.657-.922 2.047-.922 1.375 0 2.032.89.656.875.671 2.72v1.405zm-1.094-1.484q0-1.375-.39-2-.376-.64-1.22-.64-.828 0-1.218.64-.375.625-.375 1.922v1.734q0 1.375.39 2.047.406.656 1.219.656.797 0 1.188-.625.39-.625.406-1.953v-1.781zm8.093 1.484q0 1.907-.656 2.844-.64.922-2.031.922-1.36 0-2.016-.906-.656-.906-.687-2.719v-1.438q0-1.89.64-2.796.657-.922 2.047-.922 1.375 0 2.032.89.656.875.671 2.72v1.405zm-1.093-1.484q0-1.375-.39-2-.376-.64-1.22-.64-.828 0-1.218.64-.375.625-.375 1.922v1.734q0 1.375.39 2.047.406.656 1.219.656.797 0 1.188-.625.39-.625.406-1.953v-1.781zm3.875-1.219l.031.703q.688-.812 1.875-.812 1.328 0 1.813 1.015.312-.453.812-.734.516-.281 1.203-.281 2.094 0 2.125 2.203v4.25h-1.078v-4.188q0-.671-.313-1-.312-.343-1.046-.343-.61 0-1.016.36-.39.358-.453.968v4.203h-1.078v-4.156q0-1.375-1.36-1.375-1.062 0-1.453.906v4.625h-1.094v-6.344h1.032zm13.672 4.656q0-.437-.344-.671-.328-.25-1.156-.422-.813-.172-1.297-.422-.485-.25-.719-.578-.219-.344-.219-.813 0-.781.656-1.312.657-.547 1.688-.547 1.078 0 1.734.562.672.547.672 1.407h-1.078q0-.438-.39-.75-.376-.329-.938-.329-.594 0-.938.266-.328.25-.328.656 0 .391.313.594.312.203 1.125.39.812.173 1.312.423t.735.609q.25.36.25.86 0 .859-.688 1.374-.672.516-1.75.516-.765 0-1.36-.266-.577-.28-.905-.765-.329-.485-.329-1.047h1.079q.03.547.437.875.406.312 1.078.312.61 0 .985-.25t.375-.672zm-39.25-64.492h-1.079v-7.219l-2.187.797v-.984l3.11-1.172h.156v8.578zm8.796-3.64q0 1.906-.656 2.843-.64.922-2.031.922-1.36 0-2.016-.906-.656-.906-.687-2.719v-1.438q0-1.89.64-2.796.657-.922 2.047-.922 1.375 0 2.032.89.656.875.671 2.72v1.405zm-1.093-1.485q0-1.375-.39-2-.376-.64-1.22-.64-.828 0-1.218.64-.375.625-.375 1.922v1.734q0 1.375.39 2.047.406.656 1.219.656.797 0 1.188-.625.39-.625.406-1.953v-1.781zm8.093 1.484q0 1.907-.656 2.844-.64.922-2.031.922-1.36 0-2.016-.906-.656-.906-.687-2.719v-1.438q0-1.89.64-2.796.657-.922 2.047-.922 1.375 0 2.032.89.656.875.671 2.72v1.405zm-1.093-1.484q0-1.375-.39-2-.376-.64-1.22-.64-.828 0-1.218.64-.375.625-.375 1.922v1.734q0 1.375.39 2.047.406.656 1.219.656.797 0 1.188-.625.39-.625.406-1.953v-1.781zm8.093 1.484q0 1.907-.656 2.844-.64.922-2.031.922-1.36 0-2.016-.906-.656-.906-.687-2.719v-1.438q0-1.89.64-2.796.657-.922 2.047-.922 1.375 0 2.032.89.656.875.671 2.72v1.405zm-1.093-1.484q0-1.375-.39-2-.376-.64-1.22-.64-.828 0-1.218.64-.375.625-.375 1.922v1.734q0 1.375.39 2.047.406.656 1.219.656.797 0 1.188-.625.39-.625.406-1.953v-1.781zm3.875-1.219l.031.703q.688-.812 1.875-.812 1.328 0 1.813 1.016.312-.454.812-.735.516-.281 1.203-.281 2.094 0 2.125 2.203v4.25h-1.078v-4.188q0-.671-.313-1-.312-.343-1.046-.343-.61 0-1.016.36-.39.358-.453.968v4.203h-1.078v-4.156q0-1.375-1.36-1.375-1.062 0-1.453.906v4.625h-1.094v-6.344h1.032zm13.672 4.656q0-.437-.344-.671-.328-.25-1.156-.422-.813-.172-1.297-.422-.485-.25-.719-.578-.219-.344-.219-.813 0-.781.656-1.312.657-.547 1.688-.547 1.078 0 1.734.562.672.547.672 1.407h-1.078q0-.438-.39-.75-.376-.328-.938-.328-.594 0-.938.265-.328.25-.328.656 0 .391.313.594.312.203 1.125.39.812.173 1.312.423t.735.609q.25.36.25.86 0 .859-.688 1.374-.672.516-1.75.516-.765 0-1.36-.266-.577-.28-.905-.765-.329-.485-.329-1.047h1.079q.03.547.437.875.406.312 1.078.312.61 0 .985-.25t.375-.672zm-39.25-64.492h-1.079v-7.219l-2.187.797v-.984l3.11-1.172h.156v8.578zm3.937-4.281l.438-4.25h4.375v1h-3.454l-.265 2.328q.64-.375 1.437-.375 1.157 0 1.844.781.688.766.688 2.078 0 1.313-.72 2.078-.702.766-1.984.766-1.124 0-1.843-.625-.719-.64-.813-1.75h1.016q.11.734.531 1.11.422.374 1.11.374.75 0 1.187-.515.438-.516.438-1.422 0-.86-.47-1.375-.468-.516-1.25-.516-.702 0-1.109.297l-.28.234-.876-.218zm11.86.64q0 1.907-.657 2.844-.64.922-2.031.922-1.36 0-2.016-.906-.656-.906-.687-2.719v-1.438q0-1.89.64-2.796.657-.922 2.047-.922 1.375 0 2.032.89.656.875.671 2.72v1.405zm-1.094-1.484q0-1.375-.39-2-.376-.64-1.22-.64-.828 0-1.218.64-.375.625-.375 1.922v1.734q0 1.375.39 2.047.406.656 1.219.656.797 0 1.188-.625.39-.625.406-1.953v-1.781zm8.093 1.484q0 1.907-.656 2.844-.64.922-2.031.922-1.36 0-2.016-.906-.656-.906-.687-2.719v-1.438q0-1.89.64-2.796.657-.922 2.047-.922 1.375 0 2.032.89.656.875.671 2.72v1.405zm-1.093-1.484q0-1.375-.39-2-.376-.64-1.22-.64-.828 0-1.218.64-.375.625-.375 1.922v1.734q0 1.375.39 2.047.406.656 1.219.656.797 0 1.188-.625.39-.625.406-1.953v-1.781zm3.875-1.219l.031.703q.688-.812 1.875-.812 1.328 0 1.813 1.016.312-.454.812-.735.516-.281 1.203-.281 2.094 0 2.125 2.203v4.25h-1.078v-4.188q0-.671-.313-1-.312-.343-1.046-.343-.61 0-1.016.36-.39.358-.453.968v4.203h-1.078v-4.156q0-1.375-1.36-1.375-1.062 0-1.453.906v4.625h-1.094v-6.344h1.032zm13.672 4.656q0-.437-.344-.671-.328-.25-1.156-.422-.813-.172-1.297-.422-.485-.25-.719-.578-.219-.344-.219-.813 0-.781.656-1.312.657-.547 1.688-.547 1.078 0 1.734.562.672.547.672 1.407h-1.078q0-.438-.39-.75-.376-.328-.938-.328-.594 0-.938.265-.328.25-.328.656 0 .391.313.594.312.203 1.125.39.812.173 1.312.423t.735.609q.25.36.25.86 0 .859-.688 1.374-.672.516-1.75.516-.765 0-1.36-.266-.577-.28-.905-.765-.329-.485-.329-1.047h1.079q.03.547.437.875.406.312 1.078.312.61 0 .985-.25t.375-.672zM61.097 99.98h-5.594v-.781l2.953-3.281q.656-.75.906-1.204.25-.468.25-.968 0-.672-.406-1.094-.39-.438-1.078-.438-.797 0-1.25.47-.453.452-.453 1.28h-1.078q0-1.187.75-1.906.765-.734 2.031-.734 1.203 0 1.89.625.688.625.688 1.672 0 1.25-1.61 3l-2.28 2.468h4.28v.891zm6.765-3.64q0 1.906-.656 2.843-.64.922-2.031.922-1.36 0-2.016-.906-.656-.906-.687-2.719v-1.438q0-1.89.64-2.796.657-.922 2.047-.922 1.375 0 2.032.89.656.875.671 2.72v1.405zm-1.093-1.485q0-1.375-.39-2-.376-.64-1.22-.64-.828 0-1.218.64-.375.625-.375 1.922v1.734q0 1.375.39 2.047.406.656 1.219.656.797 0 1.188-.625.39-.625.406-1.953v-1.781zm8.093 1.484q0 1.907-.656 2.844-.64.922-2.031.922-1.36 0-2.016-.906-.656-.906-.687-2.719v-1.438q0-1.89.64-2.796.657-.922 2.047-.922 1.375 0 2.032.89.656.875.671 2.72v1.405zm-1.093-1.484q0-1.375-.39-2-.376-.64-1.22-.64-.828 0-1.218.64-.375.625-.375 1.922v1.734q0 1.375.39 2.047.406.656 1.219.656.797 0 1.188-.625.39-.625.406-1.953v-1.781zm8.093 1.484q0 1.907-.656 2.844-.64.922-2.031.922-1.36 0-2.016-.906-.656-.906-.687-2.719v-1.438q0-1.89.64-2.796.657-.922 2.047-.922 1.375 0 2.032.89.656.875.671 2.72v1.405zm-1.093-1.484q0-1.375-.39-2-.376-.64-1.22-.64-.828 0-1.218.64-.375.625-.375 1.922v1.734q0 1.375.39 2.047.406.656 1.219.656.797 0 1.188-.625.39-.625.406-1.953v-1.781zm3.875-1.219l.031.703q.688-.812 1.875-.812 1.328 0 1.813 1.016.312-.454.812-.735.516-.281 1.203-.281 2.094 0 2.125 2.203v4.25h-1.078v-4.188q0-.671-.313-1-.312-.343-1.046-.343-.61 0-1.016.36-.39.359-.453.968v4.203h-1.078v-4.156q0-1.375-1.36-1.375-1.062 0-1.453.906v4.625h-1.094v-6.344h1.032zm13.672 4.657q0-.438-.344-.672-.328-.25-1.156-.422-.813-.172-1.297-.422-.485-.25-.719-.578-.219-.344-.219-.813 0-.781.656-1.312.657-.547 1.688-.547 1.078 0 1.734.562.672.547.672 1.407h-1.078q0-.438-.39-.75-.376-.328-.938-.328-.594 0-.938.265-.328.25-.328.656 0 .391.313.594.312.203 1.125.39.812.173 1.312.423t.735.609q.25.36.25.86 0 .859-.688 1.374-.672.516-1.75.516-.765 0-1.36-.266-.577-.28-.905-.765-.329-.485-.329-1.047h1.079q.03.547.437.875.406.312 1.078.312.61 0 .985-.25t.375-.671zM61.097 33.8h-5.594v-.781l2.953-3.281q.656-.75.906-1.204.25-.468.25-.968 0-.672-.406-1.094-.39-.438-1.078-.438-.797 0-1.25.47-.453.452-.453 1.28h-1.078q0-1.187.75-1.906.765-.734 2.031-.734 1.203 0 1.89.625.688.625.688 1.672 0 1.25-1.61 3l-2.28 2.468h4.28v.891zm1.906-4.281l.438-4.25h4.375v1h-3.454l-.265 2.328q.64-.375 1.437-.375 1.157 0 1.844.781.688.766.688 2.078 0 1.313-.72 2.078-.702.766-1.984.766-1.124 0-1.843-.625-.719-.64-.813-1.75h1.016q.11.734.531 1.11.422.374 1.11.374.75 0 1.187-.515.438-.516.438-1.422 0-.86-.47-1.375-.468-.516-1.25-.516-.702 0-1.109.297l-.28.235-.876-.22zm11.86.64q0 1.907-.657 2.844-.64.922-2.031.922-1.36 0-2.016-.906-.656-.907-.687-2.719v-1.438q0-1.89.64-2.796.657-.922 2.047-.922 1.375 0 2.032.89.656.875.671 2.72v1.405zm-1.094-1.484q0-1.375-.39-2-.376-.64-1.22-.64-.828 0-1.218.64-.375.625-.375 1.922v1.734q0 1.375.39 2.047.406.656 1.219.656.797 0 1.188-.625.39-.625.406-1.953v-1.781zm8.093 1.484q0 1.907-.656 2.844-.64.922-2.031.922-1.36 0-2.016-.906-.656-.907-.687-2.719v-1.438q0-1.89.64-2.796.657-.922 2.047-.922 1.375 0 2.032.89.656.875.671 2.72v1.405zm-1.093-1.484q0-1.375-.39-2-.376-.64-1.22-.64-.828 0-1.218.64-.375.625-.375 1.922v1.734q0 1.375.39 2.047.406.656 1.219.656.797 0 1.188-.625.39-.625.406-1.953v-1.781zm3.875-1.219l.031.703q.688-.812 1.875-.812 1.328 0 1.813 1.015.312-.453.812-.734.516-.281 1.203-.281 2.094 0 2.125 2.203v4.25h-1.078v-4.187q0-.672-.313-1-.312-.344-1.046-.344-.61 0-1.016.36-.39.358-.453.968V33.8h-1.078v-4.156q0-1.375-1.36-1.375-1.062 0-1.453.906V33.8h-1.094v-6.344h1.032zm13.672 4.656q0-.437-.344-.671-.328-.25-1.156-.422-.813-.172-1.297-.422-.485-.25-.719-.578-.219-.344-.219-.813 0-.781.656-1.312.657-.547 1.688-.547 1.078 0 1.734.562.672.547.672 1.407h-1.078q0-.438-.39-.75-.376-.328-.938-.328-.594 0-.938.265-.328.25-.328.656 0 .391.313.594.312.203 1.125.39.812.173 1.312.423t.735.609q.25.36.25.86 0 .859-.688 1.374-.672.516-1.75.516-.765 0-1.36-.266-.577-.28-.905-.765-.329-.485-.329-1.047h1.079q.03.547.437.875.406.312 1.078.312.61 0 .985-.25t.375-.672zM162.302 378.2h-1.079v-7.219l-2.187.797v-.984l3.11-1.172h.156v8.578zm8.796-3.64q0 1.906-.656 2.843-.64.922-2.031.922-1.36 0-2.016-.906-.656-.906-.687-2.719v-1.438q0-1.89.64-2.796.657-.922 2.047-.922 1.375 0 2.032.89.656.875.671 2.72v1.405zm-1.093-1.485q0-1.375-.391-2-.375-.64-1.219-.64-.828 0-1.218.64-.375.625-.375 1.922v1.734q0 1.375.39 2.047.406.656 1.219.656.797 0 1.187-.625.391-.625.407-1.953v-1.781zm8.093 1.484q0 1.907-.656 2.844-.64.922-2.031.922-1.36 0-2.016-.906-.656-.906-.687-2.719v-1.438q0-1.89.64-2.796.657-.922 2.047-.922 1.375 0 2.032.89.656.875.671 2.72v1.405zm-1.093-1.484q0-1.375-.391-2-.375-.64-1.219-.64-.828 0-1.218.64-.375.625-.375 1.922v1.734q0 1.375.39 2.047.406.656 1.219.656.797 0 1.187-.625.391-.625.407-1.953v-1.781zm76.255.328h.812q.78-.016 1.218-.406.438-.39.438-1.063 0-1.5-1.5-1.5-.703 0-1.125.407-.406.406-.406 1.062h-1.094q0-1.016.734-1.687.75-.672 1.891-.672 1.203 0 1.89.64.688.641.688 1.782 0 .562-.36 1.078-.359.515-.984.781.703.219 1.078.734.391.516.391 1.266 0 1.14-.75 1.828-.75.672-1.953.672-1.188 0-1.953-.656-.75-.656-.75-1.719h1.094q0 .672.437 1.078.438.406 1.188.406.78 0 1.187-.406.422-.422.422-1.187 0-.735-.453-1.125-.453-.407-1.328-.422h-.813v-.89zm10.78 1.156q0 1.907-.656 2.844-.64.922-2.031.922-1.36 0-2.016-.906-.656-.906-.687-2.719v-1.438q0-1.89.64-2.796.657-.922 2.047-.922 1.375 0 2.032.89.656.875.671 2.72v1.405zm-1.093-1.484q0-1.375-.39-2-.376-.64-1.22-.64-.828 0-1.218.64-.375.625-.375 1.922v1.734q0 1.375.39 2.047.406.656 1.219.656.797 0 1.187-.625.391-.625.407-1.953v-1.781zm8.093 1.484q0 1.907-.656 2.844-.64.922-2.031.922-1.36 0-2.016-.906-.656-.906-.687-2.719v-1.438q0-1.89.64-2.796.657-.922 2.047-.922 1.375 0 2.032.89.656.875.671 2.72v1.405zm-1.093-1.484q0-1.375-.39-2-.376-.64-1.22-.64-.828 0-1.218.64-.375.625-.375 1.922v1.734q0 1.375.39 2.047.406.656 1.219.656.797 0 1.187-.625.391-.625.407-1.953v-1.781zm75.176.844l.438-4.25h4.375v1h-3.453l-.266 2.328q.64-.375 1.437-.375 1.157 0 1.844.781.688.766.688 2.078 0 1.313-.72 2.078-.702.766-1.983.766-1.125 0-1.844-.625-.719-.64-.813-1.75h1.016q.11.734.531 1.11.422.374 1.11.374.75 0 1.187-.515.438-.516.438-1.422 0-.86-.47-1.375-.468-.516-1.25-.516-.702 0-1.109.297l-.28.234-.876-.218zm11.86.64q0 1.907-.657 2.844-.64.922-2.031.922-1.36 0-2.016-.906-.656-.906-.687-2.719v-1.438q0-1.89.64-2.796.657-.922 2.047-.922 1.375 0 2.032.89.656.875.672 2.72v1.405zm-1.094-1.484q0-1.375-.39-2-.376-.64-1.22-.64-.828 0-1.218.64-.375.625-.375 1.922v1.734q0 1.375.39 2.047.406.656 1.219.656.797 0 1.188-.625.39-.625.406-1.953v-1.781zm8.094 1.484q0 1.907-.657 2.844-.64.922-2.031.922-1.36 0-2.016-.906-.656-.906-.687-2.719v-1.438q0-1.89.64-2.796.657-.922 2.047-.922 1.375 0 2.032.89.656.875.672 2.72v1.405zm-1.094-1.484q0-1.375-.39-2-.376-.64-1.22-.64-.828 0-1.218.64-.375.625-.375 1.922v1.734q0 1.375.39 2.047.406.656 1.219.656.797 0 1.188-.625.39-.625.406-1.953v-1.781zm80.191-2.797l-3.53 7.922h-1.141l3.516-7.64h-4.61v-.891h5.766v.61zm6.845 4.281q0 1.907-.657 2.844-.64.922-2.03.922-1.36 0-2.017-.906-.656-.906-.687-2.719v-1.438q0-1.89.64-2.796.657-.922 2.047-.922 1.375 0 2.032.89.656.875.672 2.72v1.405zm-1.094-1.484q0-1.375-.39-2-.376-.64-1.22-.64-.828 0-1.218.64-.375.625-.375 1.922v1.734q0 1.375.39 2.047.407.656 1.22.656.796 0 1.187-.625.39-.625.406-1.953v-1.781zm8.094 1.484q0 1.907-.657 2.844-.64.922-2.03.922-1.36 0-2.017-.906-.656-.906-.687-2.719v-1.438q0-1.89.64-2.796.657-.922 2.047-.922 1.375 0 2.032.89.656.875.672 2.72v1.405zm-1.094-1.484q0-1.375-.39-2-.376-.64-1.22-.64-.828 0-1.218.64-.375.625-.375 1.922v1.734q0 1.375.39 2.047.407.656 1.22.656.796 0 1.187-.625.39-.625.406-1.953v-1.781zm78.832 1.375q-.328.406-.812.656-.469.235-1.031.235-.735 0-1.282-.36-.546-.36-.843-1.015-.297-.672-.297-1.47 0-.843.312-1.53.328-.688.922-1.047.61-.375 1.407-.375 1.265 0 1.984.953.734.953.734 2.578v.313q0 2.5-.984 3.64-.985 1.14-2.969 1.172h-.219v-.906h.235q1.343-.031 2.062-.703.719-.672.782-2.141zm-1.671 0q.547 0 1-.328.468-.344.687-.828v-.438q0-1.062-.469-1.734-.468-.672-1.172-.672-.718 0-1.156.547-.422.547-.422 1.453 0 .875.407 1.438.422.562 1.125.562zm9.875.11q0 1.906-.657 2.843-.64.922-2.03.922-1.36 0-2.016-.906-.657-.906-.688-2.719v-1.438q0-1.89.64-2.796.657-.922 2.048-.922 1.375 0 2.03.89.657.875.673 2.72v1.405zm-1.094-1.485q0-1.375-.39-2-.376-.64-1.22-.64-.828 0-1.218.64-.375.625-.375 1.922v1.734q0 1.375.39 2.047.407.656 1.22.656.796 0 1.187-.625.39-.625.406-1.953v-1.781zm8.094 1.484q0 1.907-.657 2.844-.64.922-2.03.922-1.36 0-2.016-.906-.657-.906-.688-2.719v-1.438q0-1.89.64-2.796.657-.922 2.048-.922 1.375 0 2.03.89.657.875.673 2.72v1.405zm-1.094-1.484q0-1.375-.39-2-.376-.64-1.22-.64-.828 0-1.218.64-.375.625-.375 1.922v1.734q0 1.375.39 2.047.407.656 1.22.656.796 0 1.187-.625.39-.625.406-1.953v-1.781z"/><path fill="#6fa8dc" d="M629.2 24.3a1 1 0 0 1 1-1h10a1 1 0 0 1 1 1v10a1 1 0 0 1-1 1h-10a1 1 0 0 1-1-1z"/><path fill="#757575" d="M655.388 30.706q0 1.453-.672 2.344-.657.875-1.782.875-1.203 0-1.859-.86l-.063.735h-.984v-9h1.078v3.36q.657-.813 1.813-.813t1.812.875q.657.86.657 2.39v.094zm-1.079-.125q0-1.11-.437-1.703-.422-.61-1.219-.61-1.078 0-1.547.985v2.75q.5 1 1.547 1 .781 0 1.219-.61.437-.609.437-1.812zm2.422-.015q0-.922.36-1.672.375-.75 1.03-1.14.657-.407 1.485-.407 1.297 0 2.094.89.813.891.813 2.391v.078q0 .922-.36 1.656-.36.735-1.015 1.157-.657.406-1.516.406-1.281 0-2.094-.89-.797-.907-.797-2.391v-.078zm1.094.14q0 1.047.484 1.688.5.64 1.313.64.828 0 1.312-.64.485-.656.485-1.828 0-1.032-.5-1.672-.485-.656-1.313-.656-.797 0-1.297.64-.484.625-.484 1.828zm10.11 2.469q-.626.75-1.86.75-1.016 0-1.547-.594-.531-.594-.531-1.75v-4.125h1.078v4.094q0 1.453 1.172 1.453 1.25 0 1.656-.937v-4.61h1.094V33.8h-1.031l-.032-.625zm4.109-5.719l.031.797q.734-.906 1.906-.906 2.016 0 2.032 2.265V33.8h-1.094v-4.203q0-.672-.313-1-.297-.328-.953-.328-.531 0-.937.281-.391.281-.61.734V33.8h-1.078v-6.344h1.016zm5.719 3.125q0-1.468.687-2.343.688-.891 1.813-.891 1.109 0 1.765.75V24.8h1.078v9h-1l-.047-.688q-.656.813-1.812.813-1.094 0-1.797-.906-.688-.907-.688-2.36v-.078zm1.078.125q0 1.078.437 1.688.453.61 1.235.61 1.03 0 1.515-.938v-2.907q-.484-.89-1.5-.89-.797 0-1.25.61-.437.608-.437 1.827z"/><path fill="#0b5394" d="M629.2 49.3a1 1 0 0 1 1-1h10a1 1 0 0 1 1 1v10a1 1 0 0 1-1 1h-10a1 1 0 0 1-1-1z"/><path fill="#757575" d="M652.56 58.034q.578 0 1.015-.343.438-.36.484-.891h1.032q-.032.547-.391 1.047-.344.484-.922.781-.562.297-1.219.297-1.296 0-2.062-.86-.75-.874-.75-2.374v-.188q0-.922.328-1.64.344-.72.969-1.11.64-.406 1.515-.406 1.063 0 1.766.64.719.625.766 1.657h-1.032q-.046-.625-.468-1.016-.422-.39-1.032-.39-.828 0-1.28.593-.454.594-.454 1.719v.203q0 1.094.453 1.688.453.593 1.281.593zm7.374.766q-.093-.188-.156-.672-.75.797-1.797.797-.937 0-1.547-.531-.593-.532-.593-1.36 0-.984.75-1.53.75-.548 2.125-.548h1.047v-.5q0-.562-.344-.89-.328-.344-1-.344-.578 0-.969.297-.39.281-.39.703h-1.094q0-.485.328-.922.344-.438.922-.688.578-.265 1.265-.265 1.11 0 1.719.547.625.547.656 1.5v2.922q0 .875.219 1.39v.094h-1.14zm-1.796-.828q.515 0 .968-.266.453-.265.657-.687v-1.297h-.844q-2 0-2 1.172 0 .5.344.797.343.28.875.28zm6.062.828h-1.078v-9h1.078v9zm3 0h-1.078v-9h1.078v9z"/><path fill="#e69138" d="M629.2 74.3a1 1 0 0 1 1-1h10a1 1 0 0 1 1 1v10a1 1 0 0 1-1 1h-10a1 1 0 0 1-1-1z"/><path fill="#757575" d="M651.044 77.456l.031.797q.734-.906 1.906-.906 2.016 0 2.032 2.266V83.8h-1.094v-4.203q0-.672-.313-1-.297-.328-.953-.328-.531 0-.937.281-.391.281-.61.734V83.8h-1.078v-6.344h1.016zm9.89 6.344q-.093-.188-.156-.672-.75.797-1.797.797-.937 0-1.547-.531-.593-.532-.593-1.36 0-.984.75-1.53.75-.548 2.125-.548h1.047v-.5q0-.562-.344-.89-.328-.344-1-.344-.578 0-.969.297-.39.281-.39.703h-1.094q0-.484.328-.922.344-.438.922-.688.578-.265 1.265-.265 1.11 0 1.719.547.625.547.656 1.5v2.922q0 .875.219 1.39v.094h-1.14zm-1.796-.828q.515 0 .968-.266.453-.265.657-.687v-1.297h-.844q-2 0-2 1.172 0 .5.344.797.343.28.875.28zm6.062.828h-1.078v-6.344h1.078V83.8zm-1.172-8.016q0-.265.156-.453.172-.187.485-.187.312 0 .469.187.171.188.171.453 0 .25-.171.438-.157.172-.47.172-.312 0-.484-.172-.156-.188-.156-.438zm5.078 6.547l1.578-4.875h1.11l-2.281 6.344h-.829l-2.296-6.344h1.109l1.61 4.875zm6.547 1.594q-1.297 0-2.11-.844-.796-.86-.796-2.281v-.188q0-.953.36-1.687.359-.75 1-1.156.656-.422 1.406-.422 1.234 0 1.921.812.688.813.688 2.328v.454h-4.297q.031.937.547 1.515.531.578 1.344.578.562 0 .953-.234.406-.234.719-.625l.656.516q-.797 1.234-2.39 1.234zm-.14-5.688q-.657 0-1.11.485-.437.469-.531 1.328h3.172v-.078q-.047-.828-.453-1.281-.391-.454-1.078-.454z"/></svg>