<svg xmlns="http://www.w3.org/2000/svg" width="960" height="445pt" viewBox="0 0 720 445"><defs><clipPath id="a"><path d="M129 313h439v54.637H129zm0 0"/></clipPath><clipPath id="b"><path d="M142 308h439v59.637H142zm0 0"/></clipPath><clipPath id="c"><path d="M156 63h438v304.637H156zm0 0"/></clipPath><clipPath id="d"><path d="M107.898 263H615v104.637H107.898zm0 0"/></clipPath><clipPath id="e"><path d="M107.898 258H615v109.637H107.898zm0 0"/></clipPath><clipPath id="f"><path d="M107.898 29.906H615v337.73H107.898zm0 0"/></clipPath></defs><path fill="#fff" d="M0 0h720v445H0z"/><path d="M105.502 360.5h498" transform="scale(1.01983 1.02064)" fill="none" stroke="#333" stroke-miterlimit="10"/><path d="M105.502 277.498h498m-498-82.997h498m-498-82.003h498m-498-82.998h498" transform="scale(1.01983 1.02064)" fill="none" stroke="#ccc" stroke-miterlimit="10"/><g clip-path="url(#a)"><path d="M141.758 367.43H129.52v-.508a.51.51 0 0 1 .507-.512h11.22c.28 0 .51.23.51.512zm61.187 0h-12.238v-4.082a2.04 2.04 0 0 1 2.04-2.04h8.16a2.04 2.04 0 0 1 2.038 2.04zm60.172 0H250.88v-11.227a2.04 2.04 0 0 1 2.039-2.039h8.16a2.04 2.04 0 0 1 2.04 2.04zm61.188 0h-12.239v-15.31c0-1.125.914-2.039 2.043-2.039h8.157c1.129 0 2.039.914 2.039 2.04zm60.172 0h-12.239v-29.598a2.04 2.04 0 0 1 2.04-2.039h8.16a2.04 2.04 0 0 1 2.039 2.039zm61.187 0H433.43v-37.762c0-1.129.91-2.043 2.039-2.043h8.156a2.04 2.04 0 0 1 2.04 2.043zm60.172 0h-12.238v-40.825c0-1.128.914-2.043 2.039-2.043h8.16c1.125 0 2.039.915 2.039 2.043zm61.191 0H554.79v-52.051c0-1.129.91-2.043 2.04-2.043h8.155c1.13 0 2.043.914 2.043 2.043zm0 0" fill="#6fa8dc"/></g><g clip-path="url(#b)"><path d="M155.016 367.43h-12.239v-1.02c0-.562.457-1.02 1.02-1.02h10.2a1.02 1.02 0 0 1 1.019 1.02zm61.187 0h-12.238v-6.121a2.04 2.04 0 0 1 2.039-2.043h8.16c1.125 0 2.04.914 2.04 2.043zm60.172 0h-12.238v-13.266c0-1.129.914-2.043 2.039-2.043h8.16c1.125 0 2.039.914 2.039 2.043zm61.188 0h-12.239v-19.39c0-1.13.914-2.044 2.043-2.044h8.156c1.13 0 2.04.914 2.04 2.043zm60.171 0h-12.238v-32.66a2.04 2.04 0 0 1 2.04-2.04h8.16a2.04 2.04 0 0 1 2.038 2.04zm61.188 0h-12.235v-40.825a2.04 2.04 0 0 1 2.04-2.043h8.156a2.04 2.04 0 0 1 2.039 2.043zm60.172 0h-12.239v-45.926c0-1.129.915-2.043 2.04-2.043h8.16c1.125 0 2.039.914 2.039 2.043zm61.191 0h-12.238v-57.157c0-1.125.91-2.039 2.039-2.039h8.156a2.04 2.04 0 0 1 2.043 2.04zm0 0" fill="#0b5394"/></g><g clip-path="url(#c)"><path d="M168.273 367.43h-12.238v-2.04c0-1.128.91-2.042 2.04-2.042h8.155c1.13 0 2.043.914 2.043 2.043zm61.188 0h-12.238v-16.328a2.04 2.04 0 0 1 2.039-2.043h8.16c1.125 0 2.039.914 2.039 2.043zm60.172 0h-12.238v-29.598a2.04 2.04 0 0 1 2.039-2.039h8.16a2.04 2.04 0 0 1 2.039 2.039zm61.187 0h-12.238v-41.844c0-1.129.914-2.043 2.043-2.043h8.156c1.13 0 2.04.914 2.04 2.043zm60.172 0h-12.238v-58.176a2.04 2.04 0 0 1 2.039-2.04h8.16a2.04 2.04 0 0 1 2.04 2.04zm61.188 0h-12.24v-70.422c0-1.13.914-2.043 2.043-2.043h8.157c1.129 0 2.039.914 2.039 2.043zm60.172 0h-12.239V264.348a2.04 2.04 0 0 1 2.04-2.043h8.16c1.125 0 2.039.914 2.039 2.043zm61.191 0h-12.238V65.32c0-1.125.91-2.039 2.039-2.039h8.156c1.129 0 2.043.914 2.043 2.04zm0 0" fill="#e69138"/></g><g clip-path="url(#d)"><path d="M0 356.86l3.999-.069c8.001-.141 16.003-.294 24-.451 9.335-.188 18.67-.387 28-.597 10.667-.25 21.335-.513 32.002-.8 10.667-.291 21.335-.605 31.998-.946 9.335-.298 18.67-.62 28-.96 8.001-.299 16.003-.613 24-.946a4060.012 4060.012 0 0 0 55.999-2.71c8.002-.447 16.003-.922 24-1.427 8.002-.505 16.004-1.04 24.002-1.611 6.668-.478 13.337-.98 20.001-1.504 6.669-.532 13.334-1.087 19.998-1.669 8.006-.704 16.003-1.45 24.001-2.243a2040.19 2040.19 0 0 0 16-1.657c5.335-.578 10.67-1.179 15.998-1.802 6.673-.781 13.341-1.604 20.002-2.465a1605.36 1605.36 0 0 0 16-2.166c5.339-.754 10.67-1.539 15.998-2.354 5.34-.82 10.675-1.669 16.003-2.557 5.34-.888 10.672-1.814 16-2.775A1074.9 1074.9 0 0 0 472 322.139a1020.779 1020.779 0 0 0 15.999-3.272 954.7 954.7 0 0 0 16.003-3.552A925.978 925.978 0 0 0 520 311.458a884.773 884.773 0 0 0 16-4.191 793.805 793.805 0 0 0 16-4.55 728.466 728.466 0 0 0 15.998-4.946 676.4 676.4 0 0 0 16.003-5.365 642.493 642.493 0 0 0 12-4.325c1.334-.498 4-1.504 4-1.504" transform="scale(1.01983 1.02064)" fill="none" stroke-width="2" stroke="#6fa8dc" stroke-miterlimit="10"/></g><g clip-path="url(#e)"><path d="M0 356.122l3.999-.08c10.667-.223 21.335-.46 32.002-.713 9.334-.226 18.665-.467 28-.723a6822.74 6822.74 0 0 0 31.998-.957 5562.86 5562.86 0 0 0 24-.823 4874.701 4874.701 0 0 0 52-2.154c6.669-.314 13.334-.643 20.002-.988A3724.461 3724.461 0 0 0 224 347.89a3223.56 3223.56 0 0 0 28-1.822c8.005-.558 16.003-1.152 24-1.775a2323.351 2323.351 0 0 0 43.999-3.854c6.673-.651 13.337-1.336 20.002-2.052 6.672-.716 13.337-1.47 20.002-2.258 5.335-.635 10.667-1.294 15.999-1.979a1604.54 1604.54 0 0 0 16-2.135A1403.664 1403.664 0 0 0 424 327.196c5.339-.872 10.674-1.776 16.002-2.71a1192.39 1192.39 0 0 0 16-2.931 1133.253 1133.253 0 0 0 15.999-3.173A1033.714 1033.714 0 0 0 488 314.949a989.768 989.768 0 0 0 12-2.76 911.275 911.275 0 0 0 16-3.942 856.41 856.41 0 0 0 16-4.264 829.267 829.267 0 0 0 16-4.616 734.844 734.844 0 0 0 28-9.006 691.222 691.222 0 0 0 20-7.237c1.334-.509 4-1.538 4-1.538" transform="scale(1.01983 1.02064)" fill="none" stroke-width="2" stroke="#0b5394" stroke-miterlimit="10"/></g><g clip-path="url(#f)"><path d="M0 357.599l3.999-.084c8.001-.176 16.003-.372 24-.582 6.669-.18 13.334-.371 20.002-.582a3175.319 3175.319 0 0 0 40-1.481c6.669-.29 13.333-.605 19.998-.941 5.336-.276 10.667-.567 16-.873 5.335-.314 10.67-.643 16.002-.995 5.336-.356 10.667-.735 16-1.137 4.002-.302 8-.62 12-.953A1402.18 1402.18 0 0 0 184 348.547c4.002-.378 8.001-.777 12-1.198 4.003-.417 8.002-.857 12-1.316 4.003-.463 8.002-.95 12-1.458a980.68 980.68 0 0 0 12.001-1.604 855.247 855.247 0 0 0 12-1.772 749.422 749.422 0 0 0 23.997-4.103 699.62 699.62 0 0 0 12-2.373c4.01-.834 8.01-1.707 12-2.617a581.931 581.931 0 0 0 12.001-2.89 537.081 537.081 0 0 0 12-3.18 483.564 483.564 0 0 0 12-3.514 442.164 442.164 0 0 0 12.001-3.87 420.933 420.933 0 0 0 8.001-2.797 393.062 393.062 0 0 0 7.998-2.989 369.52 369.52 0 0 0 24-10.223A348.53 348.53 0 0 0 392 296.73a328.011 328.011 0 0 0 24-13.713 321.482 321.482 0 0 0 20-13.663 318.368 318.368 0 0 0 16.003-12.653 325.399 325.399 0 0 0 11.996-10.632A329.691 329.691 0 0 0 472 238.38a351.628 351.628 0 0 0 8.001-8.206 378.677 378.677 0 0 0 16-18.11 400.555 400.555 0 0 0 8-9.982 442.722 442.722 0 0 0 16-22.022 473.651 473.651 0 0 0 7.998-12.136c2.73-4.275 5.4-8.596 8.001-12.951a552.07 552.07 0 0 0 8.001-13.824 637.538 637.538 0 0 0 12-22.508 778.838 778.838 0 0 0 4-8.003 657.087 657.087 0 0 0 3.998-8.27 796.578 796.578 0 0 0 12-26.485 846.895 846.895 0 0 0 4-9.423 999.517 999.517 0 0 0 4.002-9.733 946.752 946.752 0 0 0 4-10.058 1071.455 1071.455 0 0 0 8-21.118c1.334-3.64 4-11.092 4-11.092" transform="scale(1.01983 1.02064)" fill="none" stroke-width="2" stroke="#e69138" stroke-miterlimit="10"/></g><path d="M172.398 416.164h-2.058v3.524h-1.145v-8.708h2.883c.977 0 1.727.223 2.246.672.531.446.797 1.094.797 1.946a2.34 2.34 0 0 1-.445 1.418c-.29.402-.692.707-1.211.91l2.039 3.683v.079h-1.227zm-2.058-.941h1.77c.574 0 1.027-.145 1.355-.43.34-.297.512-.695.512-1.195 0-.536-.16-.942-.48-1.23-.321-.286-.782-.434-1.388-.446h-1.77zm9.816 3.828c-.426.508-1.054.765-1.894.765-.692 0-1.219-.203-1.578-.605-.36-.406-.543-1-.543-1.79v-4.206h1.101v4.176c0 .988.399 1.484 1.196 1.484.847 0 1.41-.32 1.687-.957v-4.703h1.117v6.473h-1.05zm4.192-5.836l.03.812c.5-.617 1.15-.925 1.946-.925 1.371 0 2.063.77 2.07 2.312v4.274h-1.113v-4.29c0-.457-.105-.796-.32-1.02-.203-.222-.527-.335-.973-.335-.36 0-.68.094-.953.285a1.99 1.99 0 0 0-.625.75v4.61h-1.097v-6.473zm7.14 0l.032.812c.5-.617 1.144-.925 1.94-.925 1.372 0 2.063.77 2.075 2.312v4.274h-1.117v-4.29c0-.457-.106-.796-.316-1.02-.204-.222-.528-.335-.973-.335-.363 0-.68.094-.957.285a1.946 1.946 0 0 0-.621.75v4.61h-1.098v-6.473zm7.297 6.473h-1.097v-6.473h1.097zm-1.195-8.18c0-.18.055-.336.16-.465.117-.125.281-.191.492-.191.215 0 .371.066.48.191a.666.666 0 0 1 .173.465.639.639 0 0 1-.172.445c-.11.117-.266.176-.48.176-.212 0-.376-.059-.493-.176a.685.685 0 0 1-.16-.445zm4.097 1.707l.032.812c.496-.617 1.144-.925 1.941-.925 1.371 0 2.063.77 2.07 2.312v4.274h-1.113v-4.29c0-.457-.105-.796-.32-1.02-.2-.222-.524-.335-.969-.335-.363 0-.68.094-.957.285a1.946 1.946 0 0 0-.621.75v4.61h-1.102v-6.473zm5.829 3.187c0-1.007.234-1.812.703-2.41.469-.594 1.086-.89 1.847-.89.79 0 1.403.277 1.848.828l.05-.715h1.02v6.312c0 .84-.25 1.5-.75 1.977-.5.492-1.164.734-1.992.734a3.34 3.34 0 0 1-1.37-.3c-.446-.204-.786-.473-1.02-.813l.574-.672c.469.586 1.047.879 1.738.879.531 0 .945-.156 1.242-.465.309-.297.461-.722.461-1.273v-.559c-.445.52-1.05.781-1.816.781-.754 0-1.363-.304-1.832-.91-.469-.617-.703-1.449-.703-2.504zm1.117.13c0 .722.148 1.296.445 1.722.297.414.719.621 1.262.621.687 0 1.2-.32 1.527-.957v-2.95c-.34-.616-.847-.925-1.527-.925-.531 0-.953.207-1.262.621-.297.414-.445 1.035-.445 1.867zm15.074 1.624l1.242-4.941h1.102l-1.883 6.473h-.89l-1.579-4.91-1.527 4.91h-.895l-1.879-6.473h1.098l1.274 4.848 1.515-4.848h.875zm4.652 1.531h-1.097v-6.472h1.097zm-1.195-8.18c0-.179.055-.335.16-.464.117-.125.281-.191.496-.191.211 0 .371.066.477.191a.67.67 0 0 1 .176.465.642.642 0 0 1-.176.445c-.106.117-.266.176-.477.176-.215 0-.379-.059-.496-.176a.685.685 0 0 1-.16-.445zm4.559.145v1.563h1.195v.86h-1.195v4.003c0 .266.054.461.16.59.105.129.285.191.539.191.129 0 .305-.023.527-.062v.89a2.914 2.914 0 0 1-.844.13c-.488 0-.859-.149-1.117-.45-.254-.308-.383-.738-.383-1.289v-4.004h-1.175v-.86h1.175v-1.562zm3.683 2.344c.485-.598 1.125-.894 1.91-.894 1.371 0 2.059.77 2.07 2.312v4.274h-1.113v-4.29c0-.457-.109-.796-.32-1.02-.203-.222-.527-.335-.973-.335-.359 0-.68.094-.957.285a1.946 1.946 0 0 0-.62.75v4.61h-1.098v-9.184h1.097v3.492zm11.215 4.195l1.61-4.976h1.132l-2.328 6.473h-.844l-2.343-6.473h1.132l1.641 4.973zm7.984 1.497c-.062-.13-.117-.356-.16-.684-.507.539-1.12.812-1.832.812-.636 0-1.164-.18-1.578-.543-.402-.359-.605-.824-.605-1.386 0-.672.254-1.192.765-1.563.512-.375 1.23-.558 2.168-.558h1.067v-.512c0-.383-.118-.684-.352-.906-.223-.235-.562-.352-1.02-.352-.39 0-.722.102-.988.3-.265.192-.398.43-.398.72h-1.113c0-.329.109-.645.332-.942.234-.297.547-.531.941-.703a3.07 3.07 0 0 1 1.29-.27c.757 0 1.339.188 1.753.56.426.37.648.882.672 1.53v2.98c0 .599.074 1.071.223 1.423v.094zm-1.832-.844c.348 0 .68-.09.989-.274.308-.18.531-.414.668-.699v-1.324h-.86c-1.36 0-2.039.398-2.039 1.195 0 .34.114.613.348.813.234.191.531.289.894.289zm8.11-4.64a3.985 3.985 0 0 0-.543-.032c-.73 0-1.227.308-1.48.922v4.594h-1.098v-6.473h1.066l.016.75c.36-.574.875-.863 1.547-.863.21 0 .375.027.492.078zm2.152 5.483h-1.101v-6.472h1.101zm-1.195-8.18a.69.69 0 0 1 .16-.464c.117-.125.281-.191.492-.191.215 0 .371.066.477.191a.67.67 0 0 1 .176.465.642.642 0 0 1-.176.445c-.106.117-.262.176-.477.176-.21 0-.375-.059-.492-.176a.665.665 0 0 1-.16-.445zm2.758 4.88c0-.625.12-1.196.367-1.707.254-.508.601-.899 1.047-1.164a2.85 2.85 0 0 1 1.515-.414c.883 0 1.594.304 2.137.91.55.605.828 1.418.828 2.437v.082c0 .625-.12 1.192-.367 1.688-.246.5-.59.894-1.035 1.183-.445.274-.961.414-1.547.414-.871 0-1.582-.304-2.133-.91-.543-.617-.812-1.43-.812-2.437zm1.113.144c0 .711.164 1.285.496 1.723.34.433.785.652 1.336.652.562 0 1.012-.219 1.34-.652.328-.445.492-1.07.492-1.867 0-.703-.168-1.27-.508-1.707-.328-.446-.777-.668-1.34-.668-.543 0-.98.218-1.32.652-.332.426-.496 1.047-.496 1.867zm10.312 2.52c-.425.508-1.058.765-1.898.765-.691 0-1.215-.203-1.578-.605-.36-.406-.54-1-.54-1.79v-4.206h1.098v4.176c0 .988.399 1.484 1.196 1.484.851 0 1.414-.32 1.687-.957v-4.703h1.117v6.473h-1.05l-.035-.637zm6.914-1.086a.778.778 0 0 0-.351-.684c-.223-.172-.613-.316-1.18-.43-.55-.117-.992-.261-1.32-.433-.332-.168-.574-.367-.734-.59a1.509 1.509 0 0 1-.223-.828c0-.531.223-.98.668-1.34.45-.37 1.02-.558 1.723-.558.73 0 1.32.191 1.77.574.456.37.683.851.683 1.437h-1.098c0-.3-.133-.554-.398-.765-.258-.227-.575-.336-.957-.336-.407 0-.723.09-.957.27a.81.81 0 0 0-.336.671c0 .266.109.465.32.606.21.136.594.27 1.148.398.551.117.996.262 1.336.43.34.172.59.379.75.62.172.247.254.54.254.88 0 .586-.23 1.05-.7 1.402-.456.352-1.05.527-1.784.527-.52 0-.985-.09-1.387-.273a2.25 2.25 0 0 1-.922-.781 1.835 1.835 0 0 1-.336-1.067h1.098c.023.371.172.668.45.89.273.216.64.321 1.097.321.414 0 .75-.086 1.004-.254.254-.172.382-.398.382-.687zm5.145-1.563c0-1 .234-1.797.703-2.39.469-.606 1.082-.91 1.848-.91.754 0 1.355.253 1.8.765v-3.363h1.102v9.183h-1.02l-.05-.703c-.445.555-1.063.832-1.848.832-.742 0-1.355-.308-1.832-.925-.469-.618-.703-1.418-.703-2.41zm1.102.13c0 .734.148 1.308.445 1.722.308.414.726.621 1.258.621.703 0 1.218-.32 1.547-.957v-2.965c-.329-.61-.84-.91-1.528-.91-.543 0-.969.207-1.277.621-.297.414-.445 1.035-.445 1.867zm8.988 3.284c-.883 0-1.602-.289-2.152-.863-.543-.586-.813-1.36-.813-2.328v-.191c0-.649.121-1.223.367-1.723a2.796 2.796 0 0 1 1.02-1.18 2.61 2.61 0 0 1 1.433-.43c.84 0 1.493.278 1.961.829.465.554.7 1.347.7 2.379v.46h-4.383c.023.637.207 1.153.558 1.547.364.395.82.59 1.371.59.383 0 .707-.078.973-.238.277-.16.52-.371.73-.637l.672.524c-.543.84-1.355 1.261-2.437 1.261zm-.145-5.804c-.445 0-.824.164-1.132.492-.297.32-.477.773-.54 1.355h3.235v-.078c-.031-.562-.188-1-.461-1.308-.266-.309-.633-.461-1.102-.461zm3.317 2.39c0-1.007.23-1.812.699-2.41.469-.594 1.082-.89 1.848-.89.785 0 1.402.277 1.847.828l.051-.715h1.02v6.312c0 .84-.25 1.5-.75 1.977-.5.492-1.164.734-1.993.734a3.34 3.34 0 0 1-1.37-.3c-.446-.204-.786-.473-1.02-.813l.574-.672c.469.586 1.047.879 1.738.879.532 0 .946-.156 1.242-.465.31-.297.461-.722.461-1.273v-.559c-.445.52-1.05.781-1.816.781-.754 0-1.363-.304-1.832-.91-.469-.617-.703-1.449-.703-2.504zm1.113.13c0 .722.148 1.296.445 1.722.297.414.72.621 1.262.621.688 0 1.2-.32 1.527-.957v-2.95c-.34-.616-.847-.925-1.527-.925-.531 0-.953.207-1.262.621-.297.414-.445 1.035-.445 1.867zm9.418-2.329a3.985 3.985 0 0 0-.543-.031c-.73 0-1.227.308-1.48.922v4.594h-1.102v-6.473h1.07l.016.75c.36-.574.875-.863 1.543-.863.215 0 .379.027.496.078zm3.633 5.613c-.883 0-1.598-.289-2.153-.863-.539-.586-.812-1.36-.812-2.328v-.191c0-.649.125-1.223.367-1.723a2.824 2.824 0 0 1 1.02-1.18 2.62 2.62 0 0 1 1.433-.43c.84 0 1.492.278 1.961.829.469.554.703 1.347.703 2.379v.46h-4.382c.02.637.207 1.153.558 1.547.36.395.817.59 1.367.59.383 0 .707-.078.973-.238.277-.16.52-.371.734-.637l.668.524c-.539.84-1.351 1.261-2.437 1.261zm-.145-5.804c-.445 0-.82.164-1.129.492-.296.32-.48.773-.543 1.355h3.235v-.078c-.031-.562-.184-1-.461-1.308-.266-.309-.633-.461-1.102-.461zm6.262 5.804c-.879 0-1.598-.289-2.148-.863-.543-.586-.813-1.36-.813-2.328v-.191c0-.649.121-1.223.367-1.723a2.77 2.77 0 0 1 1.02-1.18 2.61 2.61 0 0 1 1.433-.43c.84 0 1.493.278 1.957.829.47.554.704 1.347.704 2.379v.46h-4.383c.023.637.207 1.153.558 1.547.36.395.817.59 1.371.59.383 0 .707-.078.973-.238.274-.16.52-.371.73-.637l.672.524c-.543.84-1.355 1.261-2.437 1.261zm-.14-5.804c-.446 0-.825.164-1.133.492-.297.32-.477.773-.543 1.355h3.238v-.078c-.035-.562-.188-1-.465-1.308-.266-.309-.633-.461-1.098-.461zm7.343 3.953c0-.297-.113-.524-.348-.684-.222-.172-.617-.316-1.18-.43-.554-.117-.995-.261-1.323-.433-.329-.168-.575-.367-.73-.59a1.478 1.478 0 0 1-.227-.828c0-.531.222-.98.671-1.34.446-.37 1.02-.558 1.72-.558.734 0 1.323.191 1.769.574.457.37.683.851.683 1.437h-1.097c0-.3-.133-.554-.399-.765-.254-.227-.574-.336-.957-.336-.402 0-.723.09-.957.27a.806.806 0 0 0-.332.671c0 .266.106.465.317.606.214.136.597.27 1.148.398.555.117 1 .262 1.34.43.34.172.59.379.75.62.168.247.254.54.254.88 0 .586-.235 1.05-.703 1.402-.457.352-1.051.527-1.786.527-.52 0-.98-.09-1.386-.273-.39-.188-.7-.45-.922-.781a1.864 1.864 0 0 1-.336-1.067h1.101c.02.371.168.668.446.89.277.216.64.321 1.097.321.418 0 .75-.086 1.008-.254.254-.172.38-.398.38-.687zm5.117-1.578c0-.625.121-1.196.368-1.707.253-.508.605-.899 1.05-1.164.446-.274.95-.414 1.512-.414.883 0 1.594.304 2.137.91.55.605.828 1.418.828 2.437v.082c0 .625-.121 1.192-.367 1.688-.243.5-.59.894-1.036 1.183-.445.274-.96.414-1.542.414-.872 0-1.586-.304-2.137-.91-.543-.617-.813-1.43-.813-2.437zm1.114.144c0 .711.164 1.285.496 1.723.34.433.785.652 1.34.652.562 0 1.007-.219 1.335-.652.329-.445.497-1.07.497-1.867 0-.703-.172-1.27-.512-1.707-.328-.446-.777-.668-1.34-.668-.54 0-.98.218-1.32.652-.332.426-.496 1.047-.496 1.867zm6.867 3.156v-5.613h-1.02v-.86h1.02v-.655c0-.7.183-1.239.543-1.61.37-.383.898-.574 1.578-.574.254 0 .512.031.765.094l-.062.91a2.7 2.7 0 0 0-.59-.063c-.363 0-.644.106-.844.317-.195.215-.289.512-.289.894v.688h1.387v.86h-1.387v5.613zm12.05-3.156c0 .977-.226 1.77-.671 2.375-.446.606-1.055.91-1.832.91-.786 0-1.403-.25-1.848-.75v3.11h-1.102v-8.961h1.004l.051.715c.453-.551 1.082-.828 1.879-.828.773 0 1.387.293 1.832.878.457.582.688 1.399.688 2.438zm-1.101-.129c0-.734-.16-1.308-.477-1.722-.308-.426-.734-.637-1.277-.637-.668 0-1.168.293-1.496.879v3.09c.328.597.832.894 1.516.894.527 0 .949-.207 1.257-.62.317-.427.477-1.056.477-1.884zm2.484-.015c0-.625.125-1.196.368-1.707.257-.508.605-.899 1.05-1.164.45-.274.953-.414 1.516-.414.883 0 1.594.304 2.137.91.55.605.828 1.418.828 2.437v.082a3.81 3.81 0 0 1-.367 1.688c-.246.5-.59.894-1.036 1.183a2.9 2.9 0 0 1-1.546.414c-.872 0-1.582-.304-2.137-.91-.54-.617-.813-1.43-.813-2.437zm1.118.144c0 .711.164 1.285.492 1.723.34.433.789.652 1.34.652.562 0 1.007-.219 1.34-.652.328-.445.492-1.07.492-1.867 0-.703-.168-1.27-.508-1.707-.332-.446-.778-.668-1.34-.668-.543 0-.984.218-1.324.652-.328.426-.492 1.047-.492 1.867zm7.52 3.156h-1.099v-9.183h1.098zm3.968-1.625l1.515-4.847h1.18l-2.598 7.476c-.406 1.075-1.042 1.614-1.914 1.614l-.222-.016-.399-.082v-.89l.286.015c.382 0 .675-.074.878-.223.211-.152.387-.43.524-.832l.242-.668-2.312-6.394h1.21zm5.05-4.847l.032.715c.469-.551 1.105-.828 1.914-.828.902 0 1.52.343 1.848 1.035a2.45 2.45 0 0 1 .828-.75 2.573 2.573 0 0 1 1.226-.285c1.426 0 2.149.75 2.168 2.25v4.336h-1.097v-4.274c0-.457-.106-.797-.32-1.02-.212-.234-.567-.351-1.067-.351-.414 0-.762.121-1.035.367-.266.242-.422.574-.465.988v4.29h-1.098v-4.243c0-.933-.46-1.402-1.387-1.402-.722 0-1.214.309-1.48.926v4.719h-1.117v-6.473zm9.88 3.172c0-.625.125-1.196.367-1.707.258-.508.605-.899 1.05-1.164.45-.274.954-.414 1.516-.414.883 0 1.594.304 2.137.91.55.605.828 1.418.828 2.437v.082a3.81 3.81 0 0 1-.367 1.688c-.246.5-.59.894-1.035 1.183-.446.274-.961.414-1.547.414-.871 0-1.582-.304-2.133-.91-.543-.617-.816-1.43-.816-2.437zm1.117.144c0 .711.164 1.285.492 1.723.34.433.789.652 1.34.652.562 0 1.008-.219 1.34-.652.328-.445.492-1.07.492-1.867 0-.703-.168-1.27-.508-1.707-.332-.446-.777-.668-1.34-.668-.543 0-.984.218-1.324.652-.328.426-.492 1.047-.492 1.867zm9.449-2.328a3.986 3.986 0 0 0-.543-.031c-.73 0-1.227.308-1.48.922v4.594h-1.098v-6.473h1.066l.016.75c.36-.574.875-.863 1.547-.863.21 0 .375.027.492.078zm6.406 2.328c0 .977-.222 1.77-.668 2.375-.449.606-1.058.91-1.832.91-.789 0-1.406-.25-1.851-.75v3.11h-1.098v-8.961h1.004l.047.715c.457-.551 1.082-.828 1.879-.828.777 0 1.386.293 1.836.878.457.582.683 1.399.683 2.438zm-1.097-.129c0-.734-.16-1.308-.48-1.722-.31-.426-.735-.637-1.274-.637-.668 0-1.168.293-1.5.879v3.09c.332.597.836.894 1.515.894.531 0 .95-.207 1.258-.62.32-.427.48-1.056.48-1.884zm3.886-2.41c.489-.594 1.125-.89 1.91-.89 1.372 0 2.063.77 2.075 2.312v4.274h-1.118v-4.29c0-.457-.105-.796-.32-1.02-.2-.222-.523-.335-.969-.335-.363 0-.68.094-.957.285a1.946 1.946 0 0 0-.62.75v4.61h-1.102v-9.184h1.101v3.492zm7.235 5.695h-1.102v-6.472h1.102zm-1.196-8.18c0-.179.051-.335.16-.464.118-.125.282-.191.493-.191.214 0 .37.066.476.191a.67.67 0 0 1 .176.465.642.642 0 0 1-.176.445c-.105.117-.262.176-.476.176-.211 0-.375-.059-.493-.176a.665.665 0 0 1-.16-.445zm6.82 6.458a.778.778 0 0 0-.35-.684c-.224-.172-.618-.316-1.18-.43-.551-.117-.993-.261-1.32-.433-.333-.168-.575-.367-.735-.59a1.509 1.509 0 0 1-.223-.828c0-.531.223-.98.668-1.34.445-.37 1.02-.558 1.723-.558.73 0 1.32.191 1.77.574.452.37.683.851.683 1.437h-1.098c0-.3-.133-.554-.398-.765-.258-.227-.575-.336-.957-.336-.407 0-.723.09-.957.27a.81.81 0 0 0-.336.671c0 .266.11.465.32.606.21.136.594.27 1.148.398.551.117.997.262 1.336.43.34.172.59.379.75.62.172.247.254.54.254.88 0 .586-.23 1.05-.699 1.402-.457.352-1.05.527-1.785.527-.52 0-.984-.09-1.387-.273a2.256 2.256 0 0 1-.922-.781 1.835 1.835 0 0 1-.336-1.067h1.098c.023.371.172.668.445.89.278.216.645.321 1.102.321.414 0 .75-.086 1.004-.254.254-.172.383-.398.383-.687zm3.395-4.75l.031.715c.465-.551 1.106-.828 1.91-.828.907 0 1.52.343 1.852 1.035.211-.309.488-.559.828-.75a2.562 2.562 0 0 1 1.227-.285c1.422 0 2.144.75 2.168 2.25v4.336h-1.102v-4.274c0-.457-.105-.797-.32-1.02-.211-.234-.567-.351-1.067-.351-.414 0-.757.121-1.035.367-.265.242-.418.574-.46.988v4.29h-1.102v-4.243c0-.933-.461-1.402-1.387-1.402-.719 0-1.215.309-1.48.926v4.719h-1.118v-6.473zm13.192 2.933a9.5 9.5 0 0 1 .351-2.586 7.755 7.755 0 0 1 1.082-2.261c.48-.684.98-1.16 1.5-1.438l.223.735c-.586.445-1.063 1.129-1.434 2.043-.37.914-.574 1.937-.605 3.074l-.016.512c0 1.543.281 2.875.844 4.003.34.68.742 1.211 1.21 1.594l-.222.672c-.531-.289-1.043-.781-1.531-1.484-.934-1.352-1.402-2.973-1.402-4.864zm7.171 2.008l2.489-7.176h1.258l-3.235 8.707h-1.004l-3.219-8.707h1.243zm10.278-4.91c0 .434-.117.824-.348 1.164-.234.34-.543.606-.926.797.446.191.801.477 1.067.86.265.374.398.8.398 1.277 0 .746-.254 1.344-.765 1.8-.497.45-1.16.672-1.989.672-.84 0-1.515-.222-2.023-.671-.5-.457-.75-1.055-.75-1.801 0-.477.125-.903.383-1.278a2.314 2.314 0 0 1 1.066-.859 2.275 2.275 0 0 1-.906-.797 2.053 2.053 0 0 1-.336-1.164c0-.734.234-1.312.7-1.738.468-.438 1.089-.656 1.866-.656.762 0 1.38.218 1.848.656.476.426.715 1.004.715 1.738zm-.906 4.067c0-.489-.157-.883-.461-1.18-.309-.309-.715-.465-1.215-.465-.496 0-.903.156-1.211.465-.297.297-.445.695-.445 1.195 0 .488.148.879.445 1.164.3.278.707.414 1.23.414.508 0 .91-.144 1.207-.43.301-.288.45-.675.45-1.163zm-1.657-5.551c-.437 0-.793.136-1.07.414-.266.265-.398.633-.398 1.101 0 .438.132.793.398 1.07.266.274.617.415 1.05.415.45 0 .805-.14 1.071-.414.266-.278.399-.633.399-1.07 0-.446-.141-.81-.415-1.087a1.385 1.385 0 0 0-1.035-.43zm14.883-.782v.926h-.207c-.863.02-1.547.281-2.059.781-.507.489-.804 1.18-.89 2.07.465-.519 1.094-.777 1.879-.777.758 0 1.363.266 1.816.797.457.532.688 1.223.688 2.075 0 .89-.246 1.609-.735 2.152-.488.539-1.148.812-1.976.812-.828 0-1.504-.32-2.024-.957-.508-.648-.765-1.48-.765-2.488v-.414c0-1.605.34-2.836 1.02-3.684.679-.851 1.695-1.28 3.046-1.293zm-1.453 3.926c-.383 0-.73.11-1.05.332a1.753 1.753 0 0 0-.669.86v.402c0 .723.16 1.3.477 1.738.328.434.734.653 1.21.653.5 0 .895-.18 1.18-.543.29-.371.43-.856.43-1.45 0-.597-.14-1.074-.43-1.437a1.376 1.376 0 0 0-1.148-.559zm4.383 4.207c0-.191.054-.351.16-.476.117-.13.285-.192.512-.192.23 0 .406.063.523.192a.671.671 0 0 1 .176.476.67.67 0 0 1-.176.465c-.117.113-.293.172-.523.172-.227 0-.395-.059-.512-.172a.715.715 0 0 1-.16-.465zm8.543-7.511l-3.602 8.086h-1.164l3.586-7.797h-4.703v-.91h5.883v.624zm1.656 7.511c0-.191.055-.351.16-.476.117-.13.285-.192.508-.192.234 0 .41.063.527.192a.671.671 0 0 1 .176.476.67.67 0 0 1-.176.465c-.117.113-.293.172-.527.172-.223 0-.39-.059-.508-.172a.715.715 0 0 1-.16-.465zm8.383-3.14c0 1.297-.227 2.265-.672 2.902-.434.629-1.125.941-2.07.941-.926 0-1.61-.308-2.055-.925-.445-.618-.68-1.543-.703-2.774v-1.469c0-1.285.219-2.238.652-2.855.45-.625 1.145-.941 2.09-.941.934 0 1.625.304 2.07.91.45.593.676 1.52.688 2.777zm-1.117-1.516c0-.934-.133-1.617-.399-2.043-.254-.434-.668-.652-1.242-.652-.563 0-.977.218-1.242.652-.254.426-.383 1.082-.383 1.965v1.77c0 .933.133 1.632.398 2.09.274.445.692.667 1.243.667.543 0 .945-.21 1.21-.636.266-.426.403-1.09.415-1.997zm5.93 1.691c0-.894.116-1.753.347-2.586a7.666 7.666 0 0 1 1.086-2.261c.476-.684.976-1.16 1.496-1.438l.223.735c-.582.445-1.063 1.129-1.434 2.043-.371.914-.574 1.937-.605 3.074l-.016.512c0 1.543.281 2.875.844 4.003.34.68.746 1.211 1.21 1.594l-.222.672c-.531-.289-1.04-.781-1.527-1.484-.938-1.352-1.403-2.973-1.403-4.864zm6.706 2.758a1.62 1.62 0 0 0 1.036-.351c.296-.243.46-.547.496-.907h1.05a2.04 2.04 0 0 1-.398 1.067 2.585 2.585 0 0 1-.941.797 2.61 2.61 0 0 1-1.243.304c-.882 0-1.582-.293-2.101-.878-.512-.594-.766-1.403-.766-2.422v-.192c0-.629.11-1.187.332-1.676.235-.488.567-.867.988-1.132.438-.278.954-.414 1.547-.414.723 0 1.325.218 1.801.652.488.426.75.988.781 1.691h-1.05c-.036-.425-.192-.77-.48-1.035a1.486 1.486 0 0 0-1.052-.398c-.562 0-1 .203-1.304.605-.309.403-.465.988-.465 1.754v.207c0 .746.156 1.32.46 1.723.31.402.747.605 1.31.605zm7.52.781c-.063-.128-.113-.355-.156-.683-.512.539-1.121.812-1.836.812-.637 0-1.16-.18-1.575-.543-.406-.359-.605-.824-.605-1.386 0-.672.254-1.192.766-1.563.507-.375 1.23-.558 2.164-.558h1.066v-.512c0-.383-.113-.684-.348-.906-.222-.235-.562-.352-1.02-.352-.394 0-.722.102-.987.3-.266.192-.399.43-.399.72h-1.117c0-.329.113-.645.336-.942.234-.297.547-.531.941-.703.391-.18.82-.27 1.29-.27.753 0 1.34.188 1.753.56.426.37.649.882.668 1.53v2.98c0 .599.075 1.071.223 1.423v.094zm-1.832-.843c.351 0 .68-.09.988-.274.309-.18.531-.414.668-.699v-1.324h-.86c-1.359 0-2.038.398-2.038 1.195 0 .34.117.613.351.813.235.191.531.289.89.289zm6.023-5.63l.032.813c.5-.617 1.148-.925 1.945-.925 1.37 0 2.062.77 2.07 2.312v4.274h-1.113v-4.29c0-.457-.106-.796-.32-1.02-.2-.222-.524-.335-.973-.335-.36 0-.676.094-.953.285a1.946 1.946 0 0 0-.621.75v4.61h-1.102v-6.473zm5.832 3.188c0-1 .235-1.797.703-2.39.465-.606 1.082-.91 1.848-.91.754 0 1.356.253 1.8.765v-3.363h1.099v9.183h-1.02l-.047-.703c-.445.555-1.062.832-1.848.832-.742 0-1.355-.308-1.832-.925-.468-.618-.703-1.418-.703-2.41zm1.102.13c0 .734.148 1.308.445 1.722.309.414.727.621 1.258.621.703 0 1.219-.32 1.547-.957v-2.965c-.328-.61-.84-.91-1.531-.91-.54 0-.965.207-1.274.621-.297.414-.445 1.035-.445 1.867zm7.504 3.156h-1.098v-6.473h1.098zm-1.196-8.18c0-.18.055-.336.16-.465.118-.125.282-.191.497-.191.21 0 .37.066.476.191a.67.67 0 0 1 .176.465.642.642 0 0 1-.176.445c-.105.117-.265.176-.476.176-.215 0-.38-.059-.496-.176a.685.685 0 0 1-.16-.445zm2.79 4.894c0-1 .234-1.797.703-2.39.465-.606 1.082-.91 1.847-.91.754 0 1.356.253 1.801.765v-3.363h1.098v9.183h-1.02l-.047-.703c-.445.555-1.062.832-1.847.832-.746 0-1.356-.308-1.832-.925-.47-.618-.703-1.418-.703-2.41zm1.101.13c0 .734.149 1.308.445 1.722.309.414.727.621 1.258.621.703 0 1.219-.32 1.547-.957v-2.965c-.328-.61-.84-.91-1.531-.91-.543 0-.965.207-1.274.621-.296.414-.445 1.035-.445 1.867zm10.293 3.156c-.062-.13-.117-.356-.16-.684-.512.539-1.121.812-1.832.812-.637 0-1.164-.18-1.578-.543-.403-.359-.606-.824-.606-1.386 0-.672.254-1.192.766-1.563.512-.375 1.23-.558 2.168-.558h1.066v-.512c0-.383-.117-.684-.351-.906-.223-.235-.563-.352-1.02-.352-.39 0-.722.102-.988.3-.266.192-.399.43-.399.72h-1.113c0-.329.11-.645.332-.942.235-.297.547-.531.942-.703.394-.18.824-.27 1.289-.27.758 0 1.34.188 1.754.56.425.37.648.882.668 1.53v2.98c0 .599.078 1.071.226 1.423v.094zm-1.832-.844c.348 0 .68-.09.988-.274.309-.18.532-.414.668-.699v-1.324h-.86c-1.358 0-2.038.398-2.038 1.195 0 .34.113.613.347.813.235.191.532.289.895.289zm6.484-7.192v1.563h1.196v.86h-1.196v4.003c0 .266.055.461.16.59.106.129.286.191.54.191.129 0 .304-.023.527-.062v.89a2.914 2.914 0 0 1-.844.13c-.488 0-.86-.149-1.117-.45-.254-.308-.383-.738-.383-1.289v-4.004h-1.176v-.86h1.176v-1.562zm5.258 8.164c-.883 0-1.597-.289-2.152-.863-.54-.586-.813-1.36-.813-2.328v-.191c0-.649.125-1.223.368-1.723a2.81 2.81 0 0 1 1.023-1.18c.445-.285.922-.43 1.43-.43.84 0 1.496.278 1.96.829.47.554.704 1.347.704 2.379v.46h-4.383c.02.637.207 1.153.559 1.547.359.395.816.59 1.37.59.38 0 .704-.078.97-.238.277-.16.523-.371.734-.637l.668.524c-.54.84-1.352 1.261-2.438 1.261zm-.14-5.804c-.45 0-.825.164-1.133.492-.297.32-.477.773-.543 1.355h3.234v-.078c-.031-.562-.183-1-.46-1.308-.266-.309-.634-.461-1.102-.461zm6.132 2.199c0 .894-.117 1.75-.351 2.566a7.483 7.483 0 0 1-1.082 2.25c-.477.692-.977 1.18-1.5 1.47l-.238-.673c.617-.469 1.109-1.195 1.484-2.183.371-1 .562-2.102.57-3.301v-.192c0-.84-.09-1.62-.27-2.343a7.157 7.157 0 0 0-.734-1.93c-.304-.574-.656-1.023-1.05-1.34l.238-.672c.523.29 1.023.774 1.5 1.453.476.68.832 1.434 1.066 2.266a9.08 9.08 0 0 1 .367 2.629zm4.079 0c0 .894-.118 1.75-.352 2.566a7.392 7.392 0 0 1-1.082 2.25c-.477.692-.977 1.18-1.496 1.47l-.238-.673c.613-.469 1.109-1.195 1.48-2.183.371-1 .563-2.102.574-3.301v-.192a9.5 9.5 0 0 0-.273-2.343 7.286 7.286 0 0 0-.73-1.93c-.31-.574-.66-1.023-1.051-1.34l.238-.672c.52.29 1.02.774 1.496 1.453a7.33 7.33 0 0 1 1.07 2.266c.242.816.367 1.695.367 2.629zM30.457 284.44v3.778h3.074v-4.383h.938v5.531h-8.7v-5.484h.942v4.336h2.805v-3.778zm-.098-4.226L28 278.777v-1.289l3.203 2.121 3.266-2.187v1.277l-2.422 1.5 2.422 1.496v1.293l-3.266-2.183L28 282.91v-1.277zm4.239-6.633c0 .879-.285 1.598-.86 2.152-.586.54-1.363.813-2.328.813h-.191c-.649 0-1.223-.125-1.719-.367-.512-.246-.906-.586-1.18-1.024a2.578 2.578 0 0 1-.43-1.433c0-.84.274-1.493.829-1.961.55-.469 1.343-.703 2.375-.703h.46v4.386c.637-.02 1.153-.207 1.544-.558.394-.36.59-.817.59-1.371 0-.383-.079-.707-.239-.973a2.57 2.57 0 0 0-.636-.734l.527-.668c.84.543 1.258 1.355 1.258 2.437zm-5.801.14c0 .45.164.825.496 1.133.316.297.77.477 1.352.543v-3.238h-.079c-.562.031-1 .188-1.304.461-.309.27-.465.633-.465 1.102zm4.89-6.171c0-.395-.113-.738-.347-1.035-.246-.297-.547-.465-.91-.496v-1.051c.37.02.73.152 1.07.398.328.235.594.547.793.942.203.382.305.796.305 1.242 0 .883-.293 1.586-.88 2.105-.593.512-1.398.766-2.417.766h-.192c-.629 0-1.187-.11-1.675-.336a2.635 2.635 0 0 1-1.13-.988c-.277-.434-.413-.95-.413-1.547 0-.723.214-1.324.652-1.801.426-.488.988-.75 1.687-.781v1.05c-.421.032-.77.192-1.035.481a1.486 1.486 0 0 0-.398 1.05c0 .567.203 1 .605 1.31.403.308.989.46 1.754.46h.207c.742 0 1.317-.152 1.723-.46.402-.31.602-.743.602-1.31zm.145-7.528c.512.426.766 1.059.766 1.899 0 .691-.203 1.219-.606 1.578-.402.363-1 .543-1.785.543H28v-1.102h4.176c.988 0 1.48-.398 1.48-1.195 0-.851-.316-1.414-.953-1.691H28v-1.114h6.469v1.051zm-7.395-4.656H28v-1.195h.86v1.195h4c.265 0 .464-.05.59-.16.128-.105.19-.285.19-.539 0-.129-.019-.305-.062-.527h.89c.087.285.13.566.13.843 0 .489-.149.864-.446 1.118-.308.253-.738.382-1.293.382h-4v1.18H28v-1.18h-1.563zm8.032-3.777v1.097H28v-1.097zm-8.172 1.195a.707.707 0 0 1-.465-.16c-.125-.117-.187-.281-.187-.496 0-.211.062-.371.187-.477a.662.662 0 0 1 .465-.175c.168 0 .316.058.445.175.117.106.176.266.176.477 0 .215-.059.379-.176.496a.685.685 0 0 1-.445.16zm4.875-2.758a3.916 3.916 0 0 1-1.703-.367c-.512-.258-.899-.61-1.164-1.055a2.803 2.803 0 0 1-.414-1.515c0-.883.3-1.594.906-2.137.605-.55 1.418-.828 2.437-.828h.082c.625 0 1.188.121 1.688.367s.894.59 1.18 1.035c.277.45.414.965.414 1.547 0 .871-.301 1.586-.907 2.137-.617.543-1.43.816-2.441.816zm.144-1.117c.711 0 1.286-.164 1.72-.496a1.61 1.61 0 0 0 .651-1.34c0-.562-.214-1.008-.652-1.34-.445-.328-1.066-.492-1.863-.492-.703 0-1.27.168-1.703.508-.45.332-.672.777-.672 1.34 0 .543.219.984.652 1.324.426.332 1.047.496 1.867.496zM28 241.543l.813-.035c-.614-.496-.922-1.145-.922-1.946 0-1.37.77-2.062 2.308-2.07h4.27v1.113h-4.285c-.457 0-.797.11-1.02.32-.223.204-.336.528-.336.973 0 .364.098.68.29.957.19.266.44.473.745.622h4.606v1.101H28zm-1.563-10.672H28v-1.195h.86v1.195h4c.265 0 .464-.05.59-.156.128-.11.19-.29.19-.543 0-.129-.019-.305-.062-.527h.89c.087.285.13.57.13.843 0 .492-.149.864-.446 1.117-.308.258-.738.383-1.293.383h-4v1.18H28v-1.18h-1.563zm8.032-3.777v1.097H28v-1.097zm-8.172 1.195a.707.707 0 0 1-.465-.16c-.125-.117-.187-.281-.187-.492 0-.215.062-.375.187-.48a.662.662 0 0 1 .465-.177c.168 0 .316.06.445.176.117.106.176.266.176.48 0 .212-.059.376-.176.493a.685.685 0 0 1-.445.16zM28 224.191l.719-.03c-.555-.47-.828-1.11-.828-1.915 0-.906.343-1.523 1.035-1.851a2.432 2.432 0 0 1-.75-.829c-.192-.351-.285-.761-.285-1.23 0-1.422.746-2.145 2.246-2.168h4.332v1.102h-4.27c-.457 0-.797.105-1.02.32-.234.21-.35.566-.35 1.066 0 .414.124.762.366 1.035.246.266.575.422.989.465h4.285v1.098H30.23c-.933 0-1.402.465-1.402 1.39 0 .723.309 1.215.926 1.481h4.715v1.117H28zm6.598-12.87c0 .882-.285 1.6-.86 2.152-.586.543-1.363.812-2.328.812h-.191c-.649 0-1.223-.12-1.719-.367-.512-.242-.906-.582-1.18-1.02a2.578 2.578 0 0 1-.43-1.433c0-.84.274-1.496.829-1.961.55-.469 1.343-.703 2.375-.703h.46v4.387c.637-.024 1.153-.208 1.544-.56.394-.362.59-.82.59-1.37 0-.383-.079-.707-.239-.973a2.52 2.52 0 0 0-.636-.734l.527-.672c.84.543 1.258 1.355 1.258 2.441zm-5.801.144c0 .445.164.824.496 1.133.316.297.77.476 1.352.539v-3.235h-.079c-.562.032-1 .184-1.304.461-.309.266-.465.633-.465 1.102zm2.137-6.606a9.427 9.427 0 0 1-2.582-.347 7.666 7.666 0 0 1-2.262-1.086c-.68-.477-1.16-.977-1.434-1.496l.73-.227c.446.586 1.126 1.067 2.04 1.438.914.37 1.941.574 3.078.605l.508.016c1.539 0 2.875-.282 4-.844.68-.34 1.21-.746 1.593-1.215l.668.227c-.285.53-.78 1.039-1.48 1.527-1.348.938-2.969 1.406-4.86 1.406zm3.535-5.324v1.102h-9.176v-1.102zm-3.297-1.562a3.861 3.861 0 0 1-1.703-.368 2.726 2.726 0 0 1-1.164-1.05 2.822 2.822 0 0 1-.414-1.516c0-.883.3-1.594.906-2.137.605-.554 1.418-.832 2.437-.832h.082c.625 0 1.188.125 1.688.368.5.246.894.593 1.18 1.039.277.445.414.96.414 1.546 0 .872-.301 1.582-.907 2.137-.617.543-1.43.813-2.441.813zm.144-1.118c.711 0 1.286-.164 1.72-.492.437-.34.651-.789.651-1.34 0-.566-.214-1.011-.652-1.34-.445-.331-1.066-.495-1.863-.495-.703 0-1.27.171-1.703.511-.45.328-.672.778-.672 1.34 0 .543.219.984.652 1.324.426.328 1.047.492 1.867.492zm1.625-12.054L28 183.555v-1.098l6.469 1.879v.894l-4.907 1.579 4.907 1.53v.895L28 191.117v-1.101l4.844-1.278L28 187.223v-.875zm1.657-6.14c0 .882-.285 1.6-.86 2.151-.586.543-1.363.813-2.328.813h-.191c-.649 0-1.223-.121-1.719-.367-.512-.242-.906-.582-1.18-1.02a2.578 2.578 0 0 1-.43-1.433c0-.84.274-1.496.829-1.961.55-.469 1.343-.703 2.375-.703h.46v4.386c.637-.023 1.153-.207 1.544-.558.394-.364.59-.82.59-1.371 0-.383-.079-.707-.239-.973a2.52 2.52 0 0 0-.636-.734l.527-.672c.84.543 1.258 1.355 1.258 2.441zm-5.801.144c0 .445.164.824.496 1.132.316.297.77.477 1.352.54v-3.235h-.079c-.562.031-1 .184-1.304.461-.309.266-.465.633-.465 1.102zm.191-6.715a4.73 4.73 0 0 0-.031.543c0 .734.309 1.226.926 1.484h4.586v1.098H28v-1.067l.75-.02c-.574-.358-.86-.874-.86-1.542 0-.215.024-.379.079-.496zm5.48-5.215v1.102H28v-1.102zm-8.171 1.195a.687.687 0 0 1-.465-.16c-.125-.113-.187-.281-.187-.492 0-.215.062-.371.187-.48a.66.66 0 0 1 .465-.172c.168 0 .316.058.445.172.117.109.176.265.176.48 0 .21-.059.379-.176.492a.665.665 0 0 1-.445.16zm6.453-6.824c-.297 0-.527.117-.684.352-.171.222-.316.613-.433 1.18-.117.55-.258.992-.43 1.324-.168.328-.367.574-.59.73a1.478 1.478 0 0 1-.828.227c-.531 0-.976-.223-1.34-.672-.37-.446-.554-1.02-.554-1.723 0-.734.191-1.324.57-1.77a1.772 1.772 0 0 1 1.437-.683v1.098c-.3 0-.554.132-.765.398-.223.254-.336.574-.336.957 0 .406.09.723.27.957a.81.81 0 0 0 .671.336.676.676 0 0 0 .606-.32c.136-.211.27-.594.398-1.149.117-.55.262-.996.43-1.34.172-.34.379-.59.621-.75.246-.168.539-.253.879-.253.582 0 1.05.234 1.398.703.352.457.528 1.05.528 1.785 0 .52-.09.984-.27 1.387a2.31 2.31 0 0 1-.781.925 1.882 1.882 0 0 1-1.067.336v-1.101c.372-.02.668-.168.891-.446.211-.277.316-.644.316-1.101 0-.414-.082-.75-.253-1.004-.168-.258-.399-.383-.684-.383zm-1.434-10.894c.989 0 1.782.23 2.391.687.594.445.89 1.055.89 1.82 0 .817-.292 1.45-.878 1.895l.75.066v1.004h-9.176v-1.101h3.426c-.555-.446-.828-1.063-.828-1.852 0-.785.297-1.402.89-1.848.586-.445 1.399-.668 2.438-.668h.097zm-.128 1.101c-.754 0-1.333.149-1.739.445-.414.29-.62.704-.62 1.247 0 .734.335 1.257 1.003 1.578h2.805c.68-.34 1.02-.868 1.02-1.578 0-.532-.208-.946-.622-1.247-.414-.296-1.031-.445-1.847-.445zm3.41-5.453c0 .883-.285 1.602-.86 2.152-.586.543-1.363.813-2.328.813h-.191c-.649 0-1.223-.121-1.719-.367-.512-.243-.906-.582-1.18-1.02a2.587 2.587 0 0 1-.43-1.433c0-.84.274-1.497.829-1.961.55-.47 1.343-.704 2.375-.704h.46v4.387c.637-.023 1.153-.207 1.544-.558.394-.364.59-.82.59-1.375 0-.38-.079-.704-.239-.973a2.556 2.556 0 0 0-.636-.73l.527-.672c.84.543 1.258 1.355 1.258 2.441zm-5.801.145c0 .445.164.824.496 1.132.316.297.77.477 1.352.54v-3.235h-.079c-.562.031-1 .184-1.304.461-.309.266-.465.633-.465 1.102zm-2.36-5.09H28v-1.196h.86v1.196h4c.265 0 .464-.051.59-.157.128-.109.19-.289.19-.543 0-.128-.019-.304-.062-.527h.89c.087.285.13.57.13.844 0 .492-.149.863-.446 1.117-.308.254-.738.383-1.293.383h-4v1.18H28v-1.18h-1.563zm0-4.082H28v-1.196h.86v1.196h4c.265 0 .464-.051.59-.16.128-.106.19-.286.19-.54 0-.128-.019-.304-.062-.527h.89c.087.285.13.566.13.844 0 .488-.149.863-.446 1.117-.308.254-.738.383-1.293.383h-4v1.18H28v-1.18h-1.563zm8.16-5.262c0 .883-.285 1.601-.859 2.152-.586.543-1.363.813-2.328.813h-.191c-.649 0-1.223-.121-1.719-.367-.512-.243-.906-.582-1.18-1.02a2.587 2.587 0 0 1-.43-1.434c0-.84.274-1.496.829-1.96.55-.47 1.343-.704 2.375-.704h.46v4.387c.637-.023 1.153-.207 1.544-.558.394-.364.59-.82.59-1.372 0-.382-.079-.707-.239-.972a2.52 2.52 0 0 0-.636-.735l.527-.671c.84.542 1.258 1.355 1.258 2.44zm-5.8.144c0 .446.164.825.496 1.133.316.297.77.477 1.352.54v-3.235h-.079c-.562.031-1 .184-1.304.46-.309.267-.465.634-.465 1.102zm.191-6.714a4.73 4.73 0 0 0-.031.543c0 .734.309 1.226.926 1.48h4.586v1.102H28v-1.067l.75-.02c-.574-.359-.86-.874-.86-1.542 0-.215.024-.38.079-.496zm2.008-3.508c.895 0 1.746.117 2.567.351a7.38 7.38 0 0 1 2.246 1.082c.691.48 1.18.98 1.464 1.5l-.668.239c-.468-.618-1.195-1.11-2.183-1.485-.996-.37-2.098-.562-3.297-.57h-.191c-.84 0-1.622.09-2.344.27a7.13 7.13 0 0 0-1.926.734c-.574.308-1.023.656-1.34 1.05l-.668-.238c.285-.52.77-1.02 1.45-1.5a7.434 7.434 0 0 1 2.26-1.066 9.08 9.08 0 0 1 2.63-.367zm0 0" fill="#424242"/><path d="M83.484 368.512c0 1.297-.222 2.265-.668 2.902-.433.629-1.125.941-2.07.941-.926 0-1.61-.308-2.058-.925-.446-.614-.68-1.54-.7-2.774v-1.469c0-1.285.219-2.238.653-2.851.445-.629 1.144-.941 2.09-.941.933 0 1.624.3 2.07.906.445.597.676 1.523.683 2.777zm-1.113-1.516c0-.933-.133-1.613-.398-2.039-.254-.437-.672-.652-1.243-.652-.566 0-.98.215-1.242.652-.258.426-.383 1.078-.383 1.961v1.77c0 .937.133 1.632.395 2.09.277.445.691.667 1.246.667.54 0 .945-.21 1.211-.636.266-.426.402-1.09.414-1.993zm3.953-1.242l.031.719c.465-.555 1.106-.832 1.91-.832.903 0 1.52.347 1.852 1.039.211-.309.485-.559.824-.75a2.53 2.53 0 0 1 1.23-.29c1.423 0 2.145.75 2.165 2.25v4.337h-1.098v-4.274c0-.457-.105-.797-.32-1.02-.211-.234-.566-.351-1.066-.351-.415 0-.758.125-1.036.367-.265.246-.418.574-.46.988v4.29h-1.102v-4.239c0-.937-.461-1.406-1.387-1.406-.722 0-1.215.309-1.48.926v4.719H85.27v-6.473zm13.942 4.75a.778.778 0 0 0-.352-.684c-.223-.168-.617-.312-1.18-.43-.55-.117-.992-.261-1.32-.43-.332-.17-.574-.366-.734-.589a1.522 1.522 0 0 1-.223-.832c0-.531.223-.976.668-1.34.445-.37 1.02-.558 1.723-.558.73 0 1.32.191 1.77.574.456.37.683.851.683 1.437h-1.098c0-.297-.133-.554-.398-.765-.258-.223-.575-.336-.957-.336-.407 0-.723.09-.957.27a.81.81 0 0 0-.336.671c0 .266.11.469.32.606.21.136.594.27 1.148.398.551.117.997.262 1.336.43.34.172.59.379.75.625.172.242.254.535.254.875 0 .586-.23 1.054-.699 1.402-.457.352-1.05.527-1.785.527-.52 0-.984-.09-1.387-.27a2.298 2.298 0 0 1-.922-.78 1.856 1.856 0 0 1-.336-1.07h1.098c.023.37.172.671.445.894.278.21.645.316 1.102.316.414 0 .75-.082 1.004-.254.254-.171.383-.398.383-.687zm-40.028-82.707h-1.101v-7.371l-2.23.816v-1.004l3.171-1.199h.16zm8.969-3.715c0 1.297-.223 2.262-.668 2.898-.434.63-1.125.942-2.07.942-.926 0-1.61-.309-2.059-.922-.445-.617-.68-1.543-.7-2.777v-1.47c0-1.284.22-2.233.653-2.85.446-.63 1.145-.942 2.086-.942.938 0 1.63.305 2.074.91.446.594.676 1.52.684 2.774zm-1.113-1.516c0-.937-.133-1.617-.399-2.043-.254-.433-.672-.652-1.246-.652-.562 0-.976.219-1.242.652-.254.426-.379 1.079-.379 1.961v1.77c0 .937.133 1.633.395 2.09.277.445.691.672 1.246.672.539 0 .945-.215 1.21-.641.266-.426.403-1.09.415-1.992zm8.254 1.512c0 1.3-.223 2.266-.672 2.902-.434.63-1.125.942-2.07.942-.926 0-1.61-.309-2.055-.922-.446-.617-.68-1.543-.7-2.777v-1.47c0-1.284.215-2.233.653-2.85.445-.63 1.14-.942 2.086-.942.933 0 1.625.305 2.074.91.445.594.672 1.52.684 2.774zm-1.118-1.512c0-.937-.132-1.617-.394-2.043-.258-.433-.672-.652-1.246-.652-.563 0-.977.219-1.242.652-.254.426-.383 1.079-.383 1.961v1.77c0 .937.133 1.633.398 2.09.278.445.692.672 1.242.672.543 0 .946-.215 1.211-.641.266-.426.407-1.09.414-1.992zm8.254 1.512c0 1.3-.222 2.266-.668 2.902-.433.63-1.125.942-2.07.942-.926 0-1.61-.309-2.058-.922-.446-.617-.68-1.543-.7-2.777v-1.47c0-1.284.219-2.233.653-2.85.445-.63 1.144-.942 2.09-.942.933 0 1.624.305 2.07.91.445.594.676 1.52.683 2.774zm-1.113-1.512c0-.937-.133-1.617-.398-2.043-.254-.433-.672-.652-1.243-.652-.566 0-.98.219-1.242.652-.258.426-.383 1.079-.383 1.961v1.77c0 .937.133 1.633.395 2.09.277.445.691.672 1.246.672.54 0 .945-.215 1.211-.641.266-.426.402-1.09.414-1.992zm3.953-1.246l.031.72c.465-.556 1.106-.83 1.91-.83.903 0 1.52.345 1.852 1.036.211-.308.485-.558.824-.75.352-.191.762-.285 1.23-.285 1.423 0 2.145.746 2.165 2.246v4.34h-1.098v-4.277c0-.454-.105-.797-.32-1.02-.211-.234-.566-.348-1.066-.348-.415 0-.758.121-1.036.368-.265.242-.418.57-.46.984v4.293h-1.102v-4.242c0-.938-.461-1.403-1.387-1.403-.722 0-1.215.305-1.48.922v4.723H85.27v-6.477zm13.942 4.754a.784.784 0 0 0-.352-.687c-.223-.168-.617-.313-1.18-.43-.55-.117-.992-.262-1.32-.43-.332-.172-.574-.367-.734-.59a1.522 1.522 0 0 1-.223-.832c0-.53.223-.976.668-1.335.445-.375 1.02-.56 1.723-.56.73 0 1.32.192 1.77.571.456.375.683.852.683 1.438h-1.098c0-.297-.133-.555-.398-.766-.258-.223-.575-.336-.957-.336-.407 0-.723.09-.957.274a.798.798 0 0 0-.336.668c0 .265.11.468.32.605.21.14.594.274 1.148.399.551.117.997.261 1.336.433.34.168.59.375.75.621.172.246.254.535.254.88 0 .581-.23 1.05-.699 1.401-.457.348-1.05.524-1.785.524-.52 0-.984-.09-1.387-.27a2.298 2.298 0 0 1-.922-.78 1.856 1.856 0 0 1-.336-1.071h1.098c.023.375.172.672.445.894.278.211.645.32 1.102.32.414 0 .75-.085 1.004-.257.254-.168.383-.399.383-.684zm-37.957-82.71h-5.704v-.798l3.008-3.347c.45-.512.758-.922.926-1.23.172-.321.254-.65.254-.989 0-.457-.137-.828-.414-1.117-.266-.297-.629-.446-1.098-.446-.543 0-.968.16-1.273.481-.309.305-.465.742-.465 1.305h-1.098c0-.809.254-1.457.766-1.946.52-.5 1.21-.75 2.07-.75.817 0 1.461.215 1.926.641.469.422.703.992.703 1.703 0 .852-.547 1.871-1.64 3.063l-2.329 2.52h4.368zm6.898-3.716c0 1.297-.223 2.262-.668 2.903-.434.625-1.125.941-2.07.941-.926 0-1.61-.308-2.059-.926-.445-.617-.68-1.543-.7-2.777v-1.465c0-1.289.22-2.238.653-2.855.446-.625 1.145-.942 2.086-.942.938 0 1.63.305 2.074.91.446.594.676 1.52.684 2.774zm-1.113-1.515c0-.938-.133-1.617-.399-2.043-.254-.434-.672-.653-1.246-.653-.562 0-.976.22-1.242.653-.254.426-.379 1.082-.379 1.96v1.774c0 .934.133 1.63.395 2.086.277.45.691.672 1.246.672.539 0 .945-.215 1.21-.64.266-.422.403-1.087.415-1.993zm8.254 1.515c0 1.297-.223 2.262-.672 2.903-.434.625-1.125.941-2.07.941-.926 0-1.61-.308-2.055-.926-.446-.617-.68-1.543-.7-2.777v-1.465c0-1.289.215-2.238.653-2.855.445-.625 1.14-.942 2.086-.942.933 0 1.625.305 2.074.91.445.594.672 1.52.684 2.774zm-1.118-1.515c0-.938-.132-1.617-.394-2.043-.258-.434-.672-.653-1.246-.653-.563 0-.977.22-1.242.653-.254.426-.383 1.082-.383 1.96v1.774c0 .934.133 1.63.398 2.086.278.45.692.672 1.242.672.543 0 .946-.215 1.211-.64.266-.422.407-1.087.414-1.993zm8.254 1.515c0 1.297-.222 2.262-.668 2.903-.433.625-1.125.941-2.07.941-.926 0-1.61-.308-2.058-.926-.446-.617-.68-1.543-.7-2.777v-1.465c0-1.289.219-2.238.653-2.855.445-.625 1.144-.942 2.09-.942.933 0 1.624.305 2.07.91.445.594.676 1.52.683 2.774zm-1.113-1.515c0-.938-.133-1.617-.398-2.043-.254-.434-.672-.653-1.243-.653-.566 0-.98.22-1.242.653-.258.426-.383 1.082-.383 1.96v1.774c0 .934.133 1.63.395 2.086.277.45.691.672 1.246.672.54 0 .945-.215 1.211-.64.266-.422.402-1.087.414-1.993zm3.953-1.246l.031.718c.465-.55 1.106-.828 1.91-.828.903 0 1.52.344 1.852 1.036.211-.31.485-.56.824-.75.352-.192.762-.286 1.23-.286 1.423 0 2.145.75 2.165 2.246v4.34h-1.098v-4.273c0-.457-.105-.797-.32-1.024-.211-.23-.566-.347-1.066-.347-.415 0-.758.12-1.036.367-.265.242-.418.57-.46.988v4.29h-1.102v-4.243c0-.934-.461-1.402-1.387-1.402-.722 0-1.215.308-1.48.922v4.722H85.27v-6.476zm13.942 4.754c0-.297-.118-.528-.352-.684-.223-.172-.617-.316-1.18-.434-.55-.117-.992-.257-1.32-.43-.332-.171-.574-.366-.734-.59a1.518 1.518 0 0 1-.223-.827c0-.531.223-.98.668-1.34.445-.375 1.02-.559 1.723-.559.73 0 1.32.192 1.77.575.456.37.683.851.683 1.433h-1.098c0-.297-.133-.55-.398-.765-.258-.223-.575-.333-.957-.333-.407 0-.723.09-.957.27a.803.803 0 0 0-.336.668c0 .266.11.469.32.605.21.141.594.274 1.148.399.551.121.997.262 1.336.434.34.167.59.378.75.62.172.247.254.54.254.88 0 .582-.23 1.05-.699 1.402-.457.351-1.05.527-1.785.527-.52 0-.984-.094-1.387-.273a2.286 2.286 0 0 1-.922-.781 1.835 1.835 0 0 1-.336-1.067h1.098c.023.371.172.668.445.89.278.216.645.321 1.102.321.414 0 .75-.086 1.004-.258.254-.168.383-.398.383-.683zm-42.051-87.606h.828c.531-.012.945-.148 1.242-.414.297-.266.445-.629.445-1.086 0-1.02-.507-1.531-1.53-1.531-.477 0-.86.137-1.145.414-.278.277-.414.64-.414 1.086h-1.118c0-.692.25-1.266.75-1.723.508-.457 1.153-.687 1.926-.687.82 0 1.461.219 1.93.656.469.434.703 1.043.703 1.816 0 .383-.125.75-.367 1.102a2.29 2.29 0 0 1-1.004.797c.477.148.844.398 1.098.75.265.351.398.781.398 1.293 0 .773-.254 1.394-.766 1.863-.507.457-1.171.688-1.992.688-.804 0-1.469-.223-1.988-.672-.512-.446-.766-1.032-.766-1.754h1.114c0 .457.148.824.449 1.101.297.278.699.414 1.21.414.528 0 .934-.136 1.212-.414.285-.289.43-.691.43-1.21 0-.5-.157-.883-.465-1.149-.305-.277-.758-.422-1.352-.43h-.828zm10.992 1.18c0 1.297-.223 2.265-.668 2.902-.434.63-1.125.942-2.07.942-.926 0-1.61-.309-2.059-.926-.445-.617-.68-1.543-.7-2.774v-1.468c0-1.286.22-2.239.653-2.856.446-.625 1.145-.941 2.086-.941.938 0 1.63.304 2.074.91.446.594.676 1.52.684 2.777zm-1.113-1.516c0-.933-.133-1.617-.399-2.039-.254-.437-.668-.656-1.242-.656-.562 0-.976.219-1.242.656-.258.422-.383 1.078-.383 1.961v1.77c0 .933.133 1.632.399 2.09.273.445.687.667 1.242.667.543 0 .945-.21 1.21-.636.266-.426.403-1.09.415-1.996zm8.254 1.516c0 1.297-.223 2.265-.668 2.902-.438.63-1.125.942-2.075.942-.921 0-1.609-.309-2.054-.926-.446-.617-.68-1.543-.7-2.774v-1.468c0-1.286.215-2.239.653-2.856.445-.625 1.14-.941 2.086-.941.937 0 1.625.304 2.074.91.445.594.672 1.52.684 2.777zm-1.114-1.516c0-.933-.132-1.617-.398-2.039-.258-.437-.672-.656-1.246-.656-.563 0-.977.219-1.242.656-.254.422-.383 1.078-.383 1.961v1.77c0 .933.133 1.632.398 2.09.278.445.692.667 1.242.667.543 0 .95-.21 1.215-.636.262-.426.403-1.09.414-1.996zm8.254 1.516c0 1.297-.226 2.265-.672 2.902-.433.63-1.125.942-2.07.942-.926 0-1.61-.309-2.055-.926-.449-.617-.68-1.543-.703-2.774v-1.468c0-1.286.219-2.239.653-2.856.449-.625 1.144-.941 2.09-.941.933 0 1.624.304 2.07.91.445.594.676 1.52.687 2.777zm-1.117-1.516c0-.933-.133-1.617-.398-2.039-.254-.437-.668-.656-1.243-.656-.562 0-.976.219-1.242.656-.254.422-.383 1.078-.383 1.961v1.77c0 .933.133 1.632.399 2.09.273.445.687.667 1.242.667.543 0 .945-.21 1.211-.636.266-.426.402-1.09.414-1.996zm3.953-1.242l.031.715c.47-.55 1.106-.828 1.91-.828.907 0 1.52.347 1.852 1.039.211-.313.488-.563.828-.75.352-.192.758-.29 1.227-.29 1.422 0 2.144.75 2.168 2.25v4.337h-1.102v-4.274c0-.457-.105-.797-.32-1.02-.211-.234-.566-.35-1.066-.35-.415 0-.758.12-1.036.366-.265.246-.418.575-.46.989v4.289h-1.102v-4.243c0-.933-.461-1.402-1.387-1.402-.719 0-1.215.309-1.48.926v4.719H85.27v-6.473zm13.942 4.75a.778.778 0 0 0-.352-.684c-.223-.171-.613-.316-1.176-.43-.554-.116-.996-.261-1.324-.433-.328-.168-.574-.367-.734-.59a1.509 1.509 0 0 1-.223-.828c0-.531.223-.976.668-1.34.45-.37 1.023-.558 1.723-.558.734 0 1.324.191 1.77.574.456.371.683.852.683 1.437h-1.098c0-.3-.133-.554-.398-.765-.254-.227-.575-.336-.957-.336-.403 0-.723.09-.957.27a.806.806 0 0 0-.332.671c0 .266.105.465.316.606.215.136.598.27 1.148.398.551.117 1 .262 1.34.43.34.172.59.379.746.621.172.246.258.54.258.879 0 .586-.234 1.05-.703 1.402-.457.352-1.05.528-1.785.528-.52 0-.98-.09-1.387-.274a2.274 2.274 0 0 1-.922-.781 1.864 1.864 0 0 1-.336-1.067h1.102c.02.372.168.668.445.895.274.211.64.316 1.098.316.414 0 .75-.085 1.004-.253.258-.172.383-.399.383-.688zM61.273 31.578h1.211v.895H61.27v2.023h-1.098v-2.023h-3.969v-.653l3.89-6.03h1.177v5.788zm-3.808 0h2.707v-4.273l-.14.242zm11.742-.797c0 1.297-.223 2.266-.668 2.903-.434.629-1.125.941-2.07.941-.926 0-1.61-.309-2.059-.926-.445-.617-.68-1.539-.7-2.773v-1.469c0-1.285.22-2.238.653-2.852.446-.628 1.145-.94 2.086-.94.938 0 1.63.3 2.074.905.446.598.676 1.524.684 2.778zm-1.113-1.515c0-.934-.133-1.614-.399-2.04-.254-.437-.672-.652-1.246-.652-.562 0-.976.215-1.242.653-.254.425-.379 1.078-.379 1.96v1.77c0 .938.133 1.633.395 2.09.277.445.691.668 1.246.668.539 0 .945-.211 1.21-.637.266-.426.403-1.09.415-1.992zm8.254 1.515c0 1.297-.223 2.266-.672 2.903-.434.629-1.125.941-2.07.941-.926 0-1.61-.309-2.055-.926-.446-.617-.68-1.539-.7-2.773v-1.469c0-1.285.215-2.238.653-2.852.445-.628 1.14-.94 2.086-.94.933 0 1.625.3 2.074.905.445.598.672 1.524.684 2.778zm-1.118-1.515c0-.934-.132-1.614-.394-2.04-.258-.437-.672-.652-1.246-.652-.563 0-.977.215-1.242.653-.254.425-.383 1.078-.383 1.96v1.77c0 .938.133 1.633.398 2.09.278.445.692.668 1.242.668.543 0 .946-.211 1.211-.637.266-.426.407-1.09.414-1.992zm8.254 1.515c0 1.297-.222 2.266-.668 2.903-.433.629-1.125.941-2.07.941-.926 0-1.61-.309-2.058-.926-.446-.617-.68-1.539-.7-2.773v-1.469c0-1.285.219-2.238.653-2.852.445-.628 1.144-.94 2.09-.94.933 0 1.624.3 2.07.905.445.598.676 1.524.683 2.778zm-1.113-1.515c0-.934-.133-1.614-.398-2.04-.254-.437-.672-.652-1.243-.652-.566 0-.98.215-1.242.653-.258.425-.383 1.078-.383 1.96v1.77c0 .938.133 1.633.395 2.09.277.445.691.668 1.246.668.54 0 .945-.211 1.211-.637.266-.426.402-1.09.414-1.992zm3.953-1.243l.031.72c.465-.555 1.106-.833 1.91-.833.903 0 1.52.348 1.852 1.04.211-.31.485-.56.824-.75a2.53 2.53 0 0 1 1.23-.29c1.423 0 2.145.75 2.165 2.25v4.336h-1.098v-4.273c0-.457-.105-.797-.32-1.02-.211-.234-.566-.351-1.066-.351-.415 0-.758.125-1.036.367-.265.246-.418.574-.46.988v4.29h-1.102v-4.24c0-.937-.461-1.405-1.387-1.405-.722 0-1.215.308-1.48.925v4.72H85.27v-6.474zm13.942 4.75a.778.778 0 0 0-.352-.683c-.223-.172-.617-.313-1.18-.43-.55-.117-.992-.262-1.32-.43-.332-.171-.574-.367-.734-.593a1.5 1.5 0 0 1-.223-.828c0-.532.223-.977.668-1.34.445-.371 1.02-.559 1.723-.559.73 0 1.32.192 1.77.574.456.371.683.852.683 1.438h-1.098c0-.297-.133-.555-.398-.766a1.414 1.414 0 0 0-.957-.336c-.407 0-.723.09-.957.27a.81.81 0 0 0-.336.672c0 .265.11.468.32.605.21.137.594.27 1.148.399.551.117.997.261 1.336.43.34.171.59.378.75.624.172.242.254.535.254.875 0 .586-.23 1.055-.699 1.403-.457.351-1.05.527-1.785.527-.52 0-.984-.09-1.387-.27a2.298 2.298 0 0 1-.922-.78 1.856 1.856 0 0 1-.336-1.071h1.098a1.2 1.2 0 0 0 .445.894c.278.211.645.317 1.102.317.414 0 .75-.086 1.004-.254.254-.172.383-.398.383-.688zm42.27 353.235h-1.102v-7.367l-2.23.812v-1.004l3.171-1.199h.16zm8.968-3.715c0 1.297-.223 2.262-.668 2.902-.438.625-1.125.938-2.07.938-.926 0-1.61-.305-2.059-.922-.445-.617-.68-1.543-.7-2.777v-1.465c0-1.29.216-2.239.653-2.856.445-.629 1.14-.941 2.086-.941.938 0 1.625.305 2.074.91.446.594.672 1.52.684 2.773zm-1.113-1.516c0-.937-.133-1.617-.399-2.043-.258-.433-.672-.652-1.246-.652-.562 0-.976.219-1.242.652-.254.426-.383 1.079-.383 1.961v1.77c0 .937.133 1.633.399 2.09.277.445.69.672 1.246.672.539 0 .945-.215 1.21-.641.266-.426.403-1.09.415-1.992zm8.254 1.512c0 1.3-.223 2.266-.672 2.906-.434.625-1.125.938-2.07.938-.923 0-1.61-.305-2.055-.922-.446-.617-.68-1.543-.703-2.777v-1.465c0-1.29.218-2.239.652-2.856.45-.629 1.144-.941 2.09-.941.933 0 1.625.305 2.07.91.45.594.676 1.52.688 2.773zm-1.118-1.512c0-.937-.132-1.617-.398-2.043-.254-.433-.668-.652-1.242-.652-.563 0-.977.219-1.242.652-.254.426-.383 1.079-.383 1.961v1.77c0 .937.133 1.633.398 2.09.278.445.692.672 1.242.672.543 0 .946-.215 1.211-.641.266-.426.403-1.09.414-1.992zm43.711.332h.832c.528-.007.942-.148 1.243-.414.296-.265.445-.625.445-1.082 0-1.023-.512-1.531-1.531-1.531-.477 0-.86.137-1.145.414-.277.277-.414.637-.414 1.082h-1.117c0-.691.25-1.262.75-1.719.508-.457 1.152-.687 1.926-.687.82 0 1.46.219 1.93.652.468.438.698 1.043.698 1.82 0 .383-.12.75-.367 1.102a2.312 2.312 0 0 1-1 .797c.477.148.844.398 1.098.746.266.352.398.785.398 1.293 0 .777-.254 1.398-.765 1.867-.508.457-1.172.684-1.992.684-.805 0-1.47-.223-1.989-.668-.511-.445-.765-1.031-.765-1.754h1.113c0 .457.148.824.445 1.101.301.274.703.415 1.211.415.531 0 .938-.141 1.211-.414.29-.29.434-.692.434-1.215 0-.5-.157-.883-.465-1.149-.305-.273-.758-.418-1.352-.43h-.832zm10.996 1.18c0 1.3-.222 2.266-.668 2.906-.437.625-1.125.938-2.07.938-.926 0-1.613-.305-2.059-.922-.445-.617-.68-1.543-.699-2.777v-1.465c0-1.29.219-2.239.653-2.856.445-.629 1.14-.941 2.086-.941.937 0 1.625.305 2.074.91.445.594.672 1.52.683 2.773zm-1.117-1.512c0-.937-.129-1.617-.394-2.043-.258-.433-.672-.652-1.246-.652-.563 0-.977.219-1.243.652-.254.426-.382 1.079-.382 1.961v1.77c0 .937.132 1.633.398 2.09.277.445.691.672 1.246.672.54 0 .945-.215 1.207-.641.266-.426.406-1.09.414-1.992zm8.258 1.512c0 1.3-.223 2.266-.672 2.906-.433.625-1.125.938-2.07.938-.926 0-1.61-.305-2.055-.922-.445-.617-.68-1.543-.703-2.777v-1.465c0-1.29.219-2.239.656-2.856.446-.629 1.14-.941 2.086-.941.934 0 1.625.305 2.07.91.45.594.676 1.52.688 2.773zm-1.117-1.512c0-.937-.133-1.617-.399-2.043-.254-.433-.668-.652-1.242-.652-.562 0-.976.219-1.242.652-.258.426-.383 1.079-.383 1.961v1.77c0 .937.133 1.633.399 2.09.277.445.691.672 1.242.672.543 0 .945-.215 1.21-.641.266-.426.403-1.09.415-1.992zm42.613.86l.445-4.336h4.461v1.02h-3.52l-.273 2.374a2.87 2.87 0 0 1 1.47-.382c.784 0 1.413.265 1.878.796.469.524.703 1.23.703 2.121 0 .895-.246 1.602-.734 2.122-.477.523-1.153.78-2.024.78-.765 0-1.39-.21-1.879-.636-.492-.433-.765-1.031-.828-1.785h1.035c.075.5.254.875.54 1.133.289.254.664.383 1.132.383.512 0 .914-.176 1.211-.528.297-.351.446-.836.446-1.449 0-.586-.16-1.055-.477-1.406-.32-.352-.746-.528-1.277-.528-.477 0-.856.102-1.13.305l-.284.238zm12.094.652c0 1.3-.223 2.266-.668 2.906-.434.625-1.125.938-2.074.938-.922 0-1.606-.305-2.055-.922-.445-.617-.68-1.543-.7-2.777v-1.465c0-1.29.22-2.239.653-2.856.445-.629 1.14-.941 2.09-.941.934 0 1.625.305 2.07.91.446.594.672 1.52.684 2.773zm-1.113-1.512c0-.937-.133-1.617-.399-2.043-.254-.433-.672-.652-1.246-.652-.562 0-.977.219-1.242.652-.254.426-.383 1.079-.383 1.961v1.77c0 .937.133 1.633.398 2.09.278.445.692.672 1.247.672.539 0 .945-.215 1.21-.641.262-.426.403-1.09.415-1.992zm8.253 1.512c0 1.3-.222 2.266-.671 2.906-.434.625-1.125.938-2.07.938-.926 0-1.61-.305-2.055-.922-.446-.617-.68-1.543-.704-2.777v-1.465c0-1.29.22-2.239.657-2.856.445-.629 1.14-.941 2.086-.941.933 0 1.625.305 2.07.91.445.594.676 1.52.687 2.773zm-1.117-1.512c0-.937-.133-1.617-.398-2.043-.254-.433-.668-.652-1.242-.652-.563 0-.977.219-1.243.652-.253.426-.382 1.079-.382 1.961v1.77c0 .937.132 1.633.398 2.09.277.445.692.672 1.242.672.543 0 .946-.215 1.211-.641.266-.426.403-1.09.414-1.992zm47.73-2.855l-3.6 8.086h-1.165l3.586-7.797h-4.703v-.91h5.883zm6.977 4.367c0 1.3-.222 2.266-.668 2.906-.437.625-1.125.938-2.07.938-.926 0-1.61-.305-2.059-.922-.445-.617-.68-1.543-.699-2.777v-1.465c0-1.29.219-2.239.653-2.856.445-.629 1.144-.941 2.09-.941.933 0 1.624.305 2.07.91.445.594.675 1.52.683 2.773zm-1.113-1.512c0-.937-.133-1.617-.398-2.043-.258-.433-.672-.652-1.247-.652-.562 0-.976.219-1.242.652-.254.426-.382 1.079-.382 1.961v1.77c0 .937.132 1.633.398 2.09.277.445.691.672 1.246.672.54 0 .945-.215 1.211-.641.266-.426.402-1.09.414-1.992zm8.254 1.512c0 1.3-.223 2.266-.672 2.906-.434.625-1.125.938-2.07.938-.922 0-1.61-.305-2.055-.922-.445-.617-.68-1.543-.703-2.777v-1.465c0-1.29.219-2.239.652-2.856.45-.629 1.145-.941 2.09-.941.934 0 1.625.305 2.07.91.446.594.676 1.52.688 2.773zm-1.117-1.512c0-.937-.133-1.617-.399-2.043-.254-.433-.668-.652-1.242-.652-.562 0-.976.219-1.242.652-.254.426-.383 1.079-.383 1.961v1.77c0 .937.133 1.633.399 2.09.277.445.691.672 1.242.672.543 0 .945-.215 1.21-.641.266-.426.403-1.09.415-1.992zm46.344 1.403c-.227.277-.5.5-.829.668-.32.16-.671.242-1.054.242-.5 0-.934-.125-1.305-.367a2.396 2.396 0 0 1-.863-1.04 3.694 3.694 0 0 1-.301-1.5c0-.57.105-1.093.32-1.558.223-.469.535-.824.938-1.07a2.694 2.694 0 0 1 1.433-.383c.864 0 1.536.324 2.028.973.496.648.746 1.527.746 2.632v.317c0 1.703-.332 2.941-1.004 3.719-.668.773-1.68 1.171-3.027 1.195h-.223v-.926h.238c.914-.02 1.617-.262 2.106-.719.488-.457.754-1.183.796-2.183zm-1.708 0a1.71 1.71 0 0 0 1.02-.336c.32-.235.555-.516.703-.844v-.45c0-.722-.16-1.312-.48-1.769-.317-.457-.715-.683-1.196-.683-.488 0-.879.183-1.18.558-.284.371-.429.867-.429 1.48 0 .598.14 1.087.414 1.47.29.382.672.574 1.148.574zm10.07.113c0 1.297-.222 2.262-.667 2.902-.434.625-1.125.938-2.07.938-.926 0-1.614-.305-2.06-.922-.444-.617-.679-1.543-.698-2.777v-1.465c0-1.29.218-2.239.652-2.856.445-.629 1.145-.941 2.086-.941.937 0 1.629.305 2.074.91.445.594.676 1.52.684 2.773zm-1.113-1.516c0-.937-.132-1.617-.398-2.043-.258-.433-.672-.652-1.246-.652-.563 0-.977.219-1.242.652-.254.426-.383 1.079-.383 1.961v1.77c0 .937.133 1.633.398 2.09.278.445.692.672 1.247.672.539 0 .945-.215 1.21-.641.266-.426.403-1.09.414-1.992zm8.254 1.512c0 1.3-.222 2.266-.671 2.906-.434.625-1.125.938-2.07.938-.927 0-1.61-.305-2.055-.922-.446-.617-.68-1.543-.704-2.777v-1.465c0-1.29.22-2.239.657-2.856.445-.629 1.14-.941 2.086-.941.933 0 1.625.305 2.07.91.45.594.676 1.52.687 2.773zm-1.117-1.512c0-.937-.133-1.617-.398-2.043-.254-.433-.668-.652-1.242-.652-.563 0-.977.219-1.243.652-.257.426-.382 1.079-.382 1.961v1.77c0 .937.132 1.633.398 2.09.277.445.691.672 1.242.672.543 0 .946-.215 1.211-.641.266-.426.406-1.09.414-1.992zm42.168 5.23h-1.101v-7.366l-2.23.812v-1.004l3.171-1.199h.16zm7.137 0h-1.098v-7.366l-2.23.812v-1.004l3.172-1.199h.156zm8.973-3.714c0 1.297-.223 2.262-.668 2.902-.438.625-1.125.938-2.07.938-.926 0-1.614-.305-2.06-.922-.445-.617-.679-1.543-.699-2.777v-1.465c0-1.29.215-2.239.653-2.856.445-.629 1.14-.941 2.086-.941.937 0 1.625.305 2.074.91.445.594.672 1.52.684 2.773zm-1.118-1.516c0-.937-.132-1.617-.394-2.043-.258-.433-.672-.652-1.246-.652-.563 0-.977.219-1.242.652-.254.426-.383 1.079-.383 1.961v1.77c0 .937.133 1.633.398 2.09.278.445.692.672 1.246.672.54 0 .942-.215 1.207-.641.266-.426.407-1.09.414-1.992zm8.258 1.512c0 1.3-.226 2.266-.672 2.906-.433.625-1.125.938-2.07.938-.926 0-1.61-.305-2.055-.922-.445-.617-.68-1.543-.703-2.777v-1.465c0-1.29.219-2.239.653-2.856.449-.629 1.144-.941 2.09-.941.933 0 1.624.305 2.07.91.445.594.675 1.52.687 2.773zm-1.117-1.512c0-.937-.133-1.617-.398-2.043-.254-.433-.668-.652-1.243-.652-.562 0-.976.219-1.242.652-.258.426-.383 1.079-.383 1.961v1.77c0 .937.133 1.633.399 2.09.273.445.691.672 1.242.672.543 0 .945-.215 1.21-.641.267-.426.403-1.09.415-1.992zm38.598 5.23h-1.102v-7.366l-2.23.812v-1.004l3.171-1.199h.16zm5.113-4.898h.828c.531-.007.945-.148 1.246-.414.297-.265.445-.625.445-1.082 0-1.023-.511-1.531-1.53-1.531-.477 0-.86.137-1.15.414-.273.277-.413.637-.413 1.082h-1.114c0-.691.25-1.262.75-1.719.508-.457 1.153-.687 1.926-.687.82 0 1.461.219 1.93.652.465.438.7 1.043.7 1.82 0 .383-.122.75-.364 1.102a2.347 2.347 0 0 1-1.004.797c.476.148.844.398 1.098.746.265.352.398.785.398 1.293 0 .777-.254 1.398-.766 1.867-.507.457-1.171.684-1.992.684-.804 0-1.469-.223-1.992-.668-.508-.445-.762-1.031-.762-1.754h1.114c0 .457.148.824.445 1.101.297.274.703.415 1.21.415.532 0 .938-.141 1.212-.414.289-.29.43-.692.43-1.215 0-.5-.153-.883-.461-1.149-.31-.273-.758-.418-1.356-.43h-.828zm10.996 1.18c0 1.3-.223 2.266-.668 2.906-.437.625-1.125.938-2.07.938-.926 0-1.614-.305-2.059-.922-.445-.617-.68-1.543-.7-2.777v-1.465c0-1.29.216-2.239.653-2.856.446-.629 1.14-.941 2.086-.941.938 0 1.625.305 2.07.91.45.594.676 1.52.688 2.773zm-1.113-1.512c0-.937-.133-1.617-.399-2.043-.258-.433-.672-.652-1.246-.652-.562 0-.976.219-1.242.652-.254.426-.383 1.079-.383 1.961v1.77c0 .937.133 1.633.399 2.09.277.445.691.672 1.246.672.539 0 .941-.215 1.21-.641.262-.426.403-1.09.415-1.992zm8.254 1.512c0 1.3-.223 2.266-.672 2.906-.434.625-1.125.938-2.07.938-.926 0-1.61-.305-2.055-.922-.45-.617-.68-1.543-.703-2.777v-1.465c0-1.29.218-2.239.652-2.856.45-.629 1.145-.941 2.09-.941.933 0 1.625.305 2.07.91.445.594.676 1.52.688 2.773zm-1.118-1.512c0-.937-.132-1.617-.398-2.043-.254-.433-.668-.652-1.242-.652-.563 0-.977.219-1.242.652-.258.426-.383 1.079-.383 1.961v1.77c0 .937.133 1.633.398 2.09.274.445.692.672 1.242.672.543 0 .946-.215 1.211-.641.266-.426.403-1.09.414-1.992zm38.598 5.23h-1.101v-7.366l-2.23.812v-1.004l3.171-1.199h.16zm4.016-4.37l.445-4.336H573v1.02h-3.52l-.273 2.374a2.87 2.87 0 0 1 1.469-.382c.785 0 1.414.265 1.879.796.468.524.703 1.23.703 2.121 0 .895-.246 1.602-.735 2.122-.476.523-1.152.78-2.023.78-.766 0-1.39-.21-1.879-.636-.492-.433-.766-1.031-.832-1.785h1.04c.073.5.253.875.538 1.133.29.254.664.383 1.133.383.512 0 .914-.176 1.21-.528.298-.351.446-.836.446-1.449 0-.586-.16-1.055-.476-1.406-.32-.352-.746-.528-1.278-.528-.476 0-.851.102-1.129.305l-.285.238zm12.093.652c0 1.3-.222 2.266-.667 2.906-.438.625-1.125.938-2.075.938-.922 0-1.61-.305-2.054-.922-.446-.617-.68-1.543-.7-2.777v-1.465c0-1.29.215-2.239.653-2.856.445-.629 1.14-.941 2.086-.941.937 0 1.625.305 2.074.91.445.594.672 1.52.683 2.773zm-1.113-1.512c0-.937-.133-1.617-.398-2.043-.258-.433-.672-.652-1.246-.652-.563 0-.977.219-1.242.652-.254.426-.383 1.079-.383 1.961v1.77c0 .937.133 1.633.398 2.09.277.445.692.672 1.242.672.543 0 .946-.215 1.211-.641.266-.426.407-1.09.418-1.992zm8.254 1.512c0 1.3-.226 2.266-.672 2.906-.433.625-1.125.938-2.07.938-.926 0-1.61-.305-2.055-.922-.449-.617-.68-1.543-.703-2.777v-1.465c0-1.29.219-2.239.652-2.856.45-.629 1.145-.941 2.09-.941.934 0 1.625.305 2.07.91.45.594.676 1.52.688 2.773zm-1.117-1.512c0-.937-.133-1.617-.399-2.043-.253-.433-.667-.652-1.242-.652-.562 0-.976.219-1.242.652-.254.426-.383 1.079-.383 1.961v1.77c0 .937.133 1.633.399 2.09.273.445.687.672 1.242.672.543 0 .945-.215 1.21-.641.266-.426.403-1.09.415-1.992zm0 0" fill="#757575"/><path d="M641.676 24.8a1.02 1.02 0 0 1 1.02-1.019h10.199c.562 0 1.02.457 1.02 1.02v10.207a1.02 1.02 0 0 1-1.02 1.02h-10.2a1.02 1.02 0 0 1-1.02-1.02zm0 0" fill="#6fa8dc"/><path d="M668.383 31.34c0 .988-.227 1.785-.684 2.39-.445.598-1.05.895-1.816.895-.82 0-1.45-.293-1.899-.879l-.062.75h-1.004v-9.184h1.098v3.43c.449-.555 1.066-.832 1.851-.832.785 0 1.403.3 1.848.895.445.586.668 1.398.668 2.437zm-1.098-.13c0-.753-.148-1.331-.445-1.737-.29-.414-.703-.621-1.246-.621-.73 0-1.258.335-1.578 1.003v2.81c.34.679.867 1.019 1.578 1.019.531 0 .945-.207 1.246-.621.297-.415.445-1.032.445-1.852zm2.469-.015c0-.625.121-1.195.367-1.703a2.726 2.726 0 0 1 1.05-1.164 2.815 2.815 0 0 1 1.516-.418c.88 0 1.594.305 2.133.91.555.606.832 1.418.832 2.442v.078c0 .629-.125 1.191-.367 1.691-.246.5-.59.89-1.035 1.18-.45.277-.965.414-1.547.414-.871 0-1.582-.3-2.137-.906-.543-.617-.812-1.434-.812-2.442zm1.117.145c0 .71.164 1.285.492 1.723.34.437.785.652 1.34.652.563 0 1.008-.215 1.336-.653.332-.445.496-1.066.496-1.867 0-.699-.172-1.27-.512-1.703-.328-.449-.773-.672-1.336-.672-.542 0-.984.22-1.324.653-.328.425-.492 1.047-.492 1.867zm10.309 2.52c-.426.511-1.059.765-1.895.765-.691 0-1.219-.203-1.578-.605-.363-.407-.543-1-.543-1.786v-4.21h1.098v4.18c0 .987.398 1.48 1.195 1.48.852 0 1.414-.317 1.691-.957v-4.704h1.114v6.473h-1.051zm4.191-5.837l.031.813c.5-.617 1.149-.926 1.946-.926 1.367 0 2.058.774 2.07 2.313v4.273h-1.117v-4.289c0-.457-.106-.797-.317-1.02-.203-.222-.527-.335-.972-.335-.36 0-.68.097-.957.289a1.963 1.963 0 0 0-.621.746v4.61h-1.098v-6.474zm5.832 3.188c0-.996.235-1.793.7-2.39.468-.606 1.085-.91 1.85-.91.755 0 1.352.257 1.798.765v-3.363h1.101v9.183h-1.02l-.046-.7c-.45.552-1.063.829-1.852.829-.742 0-1.351-.309-1.832-.926-.465-.617-.699-1.418-.699-2.406zm1.098.129c0 .734.148 1.308.449 1.723.305.414.727.62 1.258.62.699 0 1.215-.316 1.543-.956v-2.965c-.328-.606-.836-.91-1.528-.91-.543 0-.968.207-1.273.625-.3.414-.45 1.035-.45 1.863zm0 0" fill="#757575"/><path d="M641.676 50.316c0-.562.457-1.02 1.02-1.02h10.199c.562 0 1.02.458 1.02 1.02v10.207a1.02 1.02 0 0 1-1.02 1.02h-10.2a1.02 1.02 0 0 1-1.02-1.02zm0 0" fill="#0b5394"/><path d="M665.5 59.23c.395 0 .738-.113 1.035-.347.297-.246.461-.551.492-.91h1.055a2.065 2.065 0 0 1-.398 1.07 2.585 2.585 0 0 1-.942.797c-.383.2-.797.3-1.242.3-.883 0-1.582-.292-2.105-.878-.508-.594-.762-1.403-.762-2.422v-.192c0-.628.11-1.183.332-1.671.234-.493.562-.872.988-1.133.438-.278.953-.418 1.547-.418.723 0 1.324.219 1.8.656.49.426.75.988.782 1.691h-1.055c-.03-.425-.187-.773-.476-1.039a1.486 1.486 0 0 0-1.051-.398c-.563 0-1 .203-1.305.605-.308.407-.465.989-.465 1.754v.207c0 .746.157 1.32.461 1.723.309.406.746.605 1.309.605zm7.52.786c-.063-.13-.118-.36-.157-.688-.511.543-1.12.813-1.836.813-.636 0-1.16-.18-1.578-.543-.402-.36-.601-.825-.601-1.387 0-.668.254-1.191.761-1.563.512-.37 1.235-.558 2.168-.558h1.07v-.508c0-.383-.117-.687-.35-.91-.224-.234-.563-.352-1.02-.352-.395 0-.723.102-.989.305-.265.191-.398.43-.398.715h-1.117c0-.328.113-.64.336-.942.234-.296.546-.53.941-.699.39-.18.82-.273 1.29-.273.753 0 1.339.187 1.753.558.422.375.648.883.668 1.532V58.5c0 .594.074 1.066.223 1.418v.098zm-1.832-.848c.351 0 .68-.09.988-.27.308-.18.531-.414.672-.703v-1.324h-.864c-1.359 0-2.039.399-2.039 1.2 0 .34.117.609.352.812.234.191.531.285.89.285zm6.183.848h-1.098v-9.188h1.098zm3.059 0h-1.098v-9.188h1.098zm0 0" fill="#757575"/><path d="M641.676 75.832c0-.562.457-1.02 1.02-1.02h10.199c.562 0 1.02.458 1.02 1.02v10.207c0 .566-.458 1.023-1.02 1.023h-10.2c-.562 0-1.02-.457-1.02-1.023zm0 0" fill="#e69138"/><path d="M663.953 79.055l.031.812c.5-.617 1.149-.922 1.946-.922 1.37 0 2.062.77 2.07 2.313v4.273h-1.113v-4.293c0-.457-.106-.797-.32-1.02-.204-.222-.524-.335-.973-.335-.36 0-.68.097-.953.289a1.99 1.99 0 0 0-.625.75v4.61h-1.098v-6.477zm10.086 6.476c-.062-.129-.113-.36-.156-.687-.512.543-1.121.812-1.836.812-.637 0-1.16-.18-1.574-.539-.407-.363-.606-.828-.606-1.39 0-.668.254-1.188.766-1.563.508-.371 1.23-.559 2.164-.559h1.07v-.507c0-.383-.117-.688-.351-.91-.223-.235-.563-.352-1.02-.352-.394 0-.723.102-.988.305-.266.191-.399.43-.399.714h-1.117c0-.328.113-.64.336-.937.235-.3.547-.535.942-.703.39-.18.82-.27 1.289-.27.754 0 1.34.184 1.754.555.425.375.648.883.667 1.531v2.985c0 .593.075 1.066.223 1.418v.097zm-1.832-.847c.352 0 .68-.09.988-.27.309-.18.532-.414.672-.703v-1.324h-.863c-1.36 0-2.04.398-2.04 1.199 0 .34.118.61.352.812.235.192.532.286.891.286zm6.184.847h-1.098v-6.476h1.098zm-1.196-8.183c0-.18.055-.332.16-.461.118-.13.282-.192.493-.192.215 0 .375.063.48.192a.66.66 0 0 1 .176.46.646.646 0 0 1-.176.45c-.105.117-.265.176-.48.176-.211 0-.375-.059-.493-.176a.688.688 0 0 1-.16-.45zm5.18 6.683l1.61-4.976h1.132l-2.328 6.476h-.844l-2.343-6.476h1.132zm6.676 1.625c-.883 0-1.598-.285-2.153-.86-.539-.585-.812-1.362-.812-2.327v-.192c0-.648.125-1.222.367-1.722a2.8 2.8 0 0 1 1.02-1.18 2.6 2.6 0 0 1 1.437-.43c.836 0 1.492.274 1.957.828.469.551.703 1.344.703 2.375v.465h-4.383c.02.637.208 1.153.56 1.543.358.395.816.59 1.37.59.38 0 .703-.078.969-.238a2.52 2.52 0 0 0 .734-.637l.668.527c-.539.84-1.351 1.258-2.437 1.258zm-.14-5.804c-.45 0-.825.164-1.134.496-.297.32-.48.77-.543 1.355h3.235v-.082c-.032-.562-.184-.996-.461-1.305-.266-.308-.633-.464-1.098-.464zm0 0" fill="#757575"/></svg>