<svg viewBox="0 0 960 540" fill="none" stroke-linecap="square" stroke-miterlimit="10" xmlns="http://www.w3.org/2000/svg"><clipPath id="a"><path d="M0 0h960v540H0V0z"/></clipPath><g clip-path="url(#a)"><path fill="#fff" d="M0 0h960v540H0z" fill-rule="evenodd"/><path d="M38.514 52.213h729.48v303.622H38.515z"/><path fill="#000" d="M56.405 79.623l4.14-5.75h3.11l-5.766 7.671 5.922 7.829H60.75l-4.281-5.907-4.282 5.907h-3.093l5.921-7.829-5.765-7.671h3.062l4.094 5.75z"/><path fill="#e67c73" d="M97.98 78.2H85.198v-2.296H97.98V78.2zm0 5.938H85.198v-2.281H97.98v2.281z"/><path fill="#000" d="M133.476 81.794q0 1.657-.406 3.11-.391 1.437-1.172 2.5-.766 1.047-1.906 1.656-1.141.594-2.594.594-1.422 0-2.5-.453t-1.86-1.313v7.438h-2.64V73.873h2.406l.14 1.687q.766-.953 1.86-1.453 1.094-.516 2.547-.516 1.484 0 2.625.594 1.156.578 1.922 1.625.781 1.047 1.172 2.5.406 1.453.406 3.188v.296zm-2.64-.296q0-1.125-.25-2.157-.25-1.03-.782-1.797-.516-.78-1.328-1.234-.797-.469-1.906-.469-1.282 0-2.157.594-.859.594-1.375 1.531v7.453q.516.922 1.375 1.5.86.579 2.172.579 1.11 0 1.907-.47.812-.468 1.328-1.25.515-.78.765-1.812.25-1.03.25-2.172v-.296zm6.427-.016q0-1.672.485-3.11.484-1.437 1.39-2.5.922-1.062 2.219-1.671 1.297-.61 2.937-.61 1.641 0 2.954.61 1.312.61 2.218 1.672.907 1.062 1.39 2.5.5 1.437.5 3.109v.312q0 1.672-.5 3.11-.483 1.437-1.39 2.5-.906 1.047-2.218 1.656-1.297.594-2.922.594-1.657 0-2.97-.594-1.296-.61-2.218-1.656-.906-1.063-1.39-2.5-.485-1.438-.485-3.11v-.312zm2.64.312q0 1.141.266 2.188.282 1.031.829 1.828.562.781 1.39 1.25.828.453 1.938.453 1.078 0 1.906-.453.828-.469 1.375-1.25.547-.797.812-1.828.282-1.047.282-2.188v-.312q0-1.125-.282-2.156-.28-1.047-.828-1.828-.547-.797-1.375-1.266t-1.922-.469q-1.109 0-1.921.469-.813.469-1.375 1.266-.547.78-.829 1.828-.265 1.031-.265 2.156v.312zm16.116-7.921h7.922v13.203h5.047v2.297h-12.969v-2.297h5.266v-10.89h-5.266v-2.313zm4.922-4.063q0-.656.39-1.11.407-.452 1.204-.452.781 0 1.187.453.407.453.407 1.11 0 .64-.407 1.077-.406.422-1.187.422-.797 0-1.203-.422-.391-.437-.391-1.078zm14.647 4.063l.187 2.296q.844-1.203 2.063-1.875 1.234-.687 2.75-.703 1.218 0 2.218.344t1.704 1.078q.703.719 1.078 1.844.375 1.125.375 2.672v9.844h-2.641V79.59q0-1.03-.234-1.75-.235-.718-.688-1.156-.453-.437-1.11-.64-.64-.204-1.484-.204-1.328 0-2.343.672-1 .656-1.61 1.75v11.11h-2.656v-15.5h2.39zm21.49-3.75v3.75h5.906v2.046h-5.906v8.422q0 .907.219 1.5.234.578.64.938.407.344.922.484.516.14 1.11.14.437 0 .89-.046.453-.047.89-.11.438-.078.813-.156.391-.078.625-.14l.375 1.875q-.328.203-.796.36-.47.14-1.032.25-.562.108-1.187.155-.625.063-1.235.063-1.03 0-1.937-.281-.89-.297-1.547-.938-.656-.64-1.047-1.64-.375-1.016-.375-2.454V75.92h-4.062v-2.046h4.062v-3.75h2.672z"/><path fill="#e67c73" d="M213.022 87.654q0-.422.125-.797.14-.375.39-.656.266-.282.64-.438.391-.156.907-.156t.906.156q.407.156.672.438.266.281.39.656.141.375.141.797 0 .422-.14.781-.125.36-.39.64-.266.266-.673.407-.39.156-.906.156t-.906-.156q-.375-.14-.64-.406-.25-.282-.391-.64-.125-.36-.125-.782z"/><path fill="#000" d="M232.403 79.623l4.14-5.75h3.11l-5.766 7.671 5.922 7.829h-3.063l-4.281-5.907-4.281 5.907h-3.094l5.922-7.829-5.766-7.671h3.063l4.094 5.75z"/><path fill="#e67c73" d="M249.221 74.654q0-.422.125-.797.14-.375.39-.656.266-.282.641-.438.39-.156.907-.156.515 0 .906.156.406.156.672.438.265.281.39.656.14.375.14.797 0 .422-.14.781-.125.36-.39.64-.266.266-.672.423-.39.14-.906.14t-.907-.14q-.375-.157-.64-.422-.25-.282-.391-.64-.125-.36-.125-.782zm3.094 14.11q0 .671-.172 1.405-.156.735-.484 1.454-.313.734-.782 1.39-.453.656-1.047 1.172l-1.656-.906q.688-1 .969-2.14.297-1.126.297-2.345v-2.562h2.875v2.531z"/><path fill="#34a853" d="M38.514 283.571c0-6.282 5.093-11.375 11.376-11.375h166.225a11.376 11.376 0 0 1 11.376 11.375v45.501c0 6.282-5.093 11.376-11.376 11.376H49.89c-6.283 0-11.376-5.094-11.376-11.376z" fill-rule="evenodd"/><path stroke="#666" stroke-linejoin="round" stroke-linecap="butt" d="M38.514 283.571c0-6.282 5.093-11.375 11.376-11.375h166.225a11.376 11.376 0 0 1 11.376 11.375v45.501c0 6.282-5.093 11.376-11.376 11.376H49.89c-6.283 0-11.376-5.094-11.376-11.376z"/><path fill="#fff" d="M68.462 296.968h3.657l.015 13.141q-.015 1.344-.515 2.469-.5 1.11-1.375 1.922-.86.797-2.047 1.25-1.172.437-2.532.437-1.421 0-2.593-.36-1.172-.374-2.016-1.093-.844-.719-1.312-1.812-.47-1.094-.485-2.579h3.672q.016 1.532.672 2.22.672.671 2.062.671.625 0 1.141-.234.531-.235.89-.657.376-.421.563-1 .203-.578.203-1.234v-13.14zm16.903 14q0-.5-.188-.937-.172-.453-.593-.828-.422-.39-1.11-.703-.672-.328-1.687-.594-1.235-.344-2.36-.844-1.125-.515-1.984-1.219-.86-.718-1.375-1.671-.516-.954-.516-2.188 0-1.203.5-2.172.516-.984 1.407-1.672.906-.687 2.125-1.062 1.218-.375 2.656-.375 1.484 0 2.703.437 1.234.422 2.125 1.203.89.782 1.375 1.844.5 1.063.5 2.344H85.38q-.03-.64-.234-1.172-.203-.531-.61-.906-.39-.39-.984-.61-.578-.218-1.375-.218-.734 0-1.297.187-.562.172-.953.485-.39.312-.593.75-.204.437-.204.953 0 .53.266.968.266.422.766.766.515.344 1.234.64.719.282 1.64.516 1.298.39 2.391.938 1.094.547 1.875 1.297.797.734 1.235 1.703.437.953.437 2.125 0 1.25-.515 2.219-.5.968-1.391 1.64-.875.672-2.094 1.016-1.219.344-2.672.344-.89 0-1.78-.172-.892-.157-1.72-.485-.812-.343-1.515-.843-.703-.516-1.219-1.188-.5-.687-.797-1.547-.297-.86-.297-1.906h3.594q.031.86.297 1.484.281.61.765 1 .485.39 1.172.578.688.172 1.5.172.735 0 1.297-.172.563-.171.953-.468.391-.297.594-.72.219-.421.219-.937zm19.371-3.125q0 1.813-.484 3.36-.469 1.531-1.39 2.64-.907 1.11-2.22 1.735-1.296.61-2.937.61-1.64 0-2.922-.61-1.266-.625-2.14-1.735-.876-1.125-1.329-2.656-.453-1.531-.453-3.344v-2.765q0-1.828.453-3.36.453-1.53 1.328-2.64.875-1.125 2.141-1.75t2.906-.625q1.657 0 2.953.625 1.313.625 2.22 1.75.921 1.11 1.39 2.64.484 1.532.484 3.36v2.765zm-3.703-2.796q0-1.157-.187-2.125-.188-.985-.594-1.688-.406-.703-1.047-1.094-.625-.39-1.516-.39-.89 0-1.484.39t-.969 1.094q-.36.703-.515 1.688-.157.968-.157 2.125v2.796q0 1.141.157 2.125.156.97.515 1.688.375.719.969 1.125.594.39 1.5.39.875 0 1.5-.39.64-.406 1.031-1.11.406-.718.594-1.687.203-.984.203-2.14v-2.797zm19.309 3.984q0 1.562-.36 2.89-.343 1.313-1.03 2.266-.688.938-1.72 1.469-1.015.531-2.39.531-1.234 0-2.14-.453-.907-.469-1.548-1.312l-.171 1.5h-3.266v-20h3.625v7.187q.625-.719 1.469-1.125.86-.406 2-.406 1.39 0 2.422.531 1.03.531 1.718 1.484.688.954 1.032 2.282.359 1.312.359 2.875v.28zm-3.625-.281q0-.86-.14-1.625-.126-.766-.438-1.344-.313-.578-.86-.922-.546-.344-1.375-.344-.984 0-1.609.422-.61.422-.953 1.14v5.61q.344.735.953 1.156.625.407 1.64.407.813 0 1.344-.313.547-.328.86-.89.312-.563.437-1.329.14-.78.14-1.687v-.281zm9.09-6.907h7.203v14.407q0 1.406-.406 2.406-.39 1.016-1.172 1.672-.766.656-1.875.969-1.094.312-2.516.312-.593 0-1.187-.047-.594-.047-1.14-.172l.171-2.937q.156.031.438.062.28.032.578.047.297.031.562.031.266.016.39.016.532 0 .985-.125.47-.11.797-.39.328-.266.516-.72.203-.452.203-1.124v-11.453h-3.547v-2.954zm3.297-3.609q0-.422.14-.781.157-.36.422-.61.282-.25.657-.39.39-.14.86-.14.952 0 1.515.546.578.531.578 1.375t-.578 1.39q-.563.532-1.516.532-.469 0-.86-.14-.374-.141-.656-.391-.265-.266-.421-.61-.141-.36-.141-.781zm17.371 17.953q-1.625 0-2.953-.531-1.328-.547-2.281-1.453-.953-.922-1.469-2.156-.515-1.25-.515-2.672v-.516q0-1.625.5-2.953.515-1.328 1.421-2.297.922-.969 2.172-1.5t2.719-.531q1.516 0 2.703.5 1.203.5 2.031 1.422.829.906 1.25 2.187.438 1.281.438 2.828v1.532h-9.563q.11.718.422 1.312.328.594.813 1.031.5.422 1.14.657.641.234 1.391.234.531 0 1.063-.094.53-.11 1-.312.484-.203.906-.5.422-.313.734-.703l1.797 1.953q-.328.468-.875.937-.531.469-1.281.828-.735.344-1.64.563-.891.234-1.923.234zm-.437-11.687q-.61 0-1.125.218-.5.22-.89.625-.376.407-.641.97-.25.546-.391 1.234h5.937v-.282q-.015-.578-.218-1.078-.188-.515-.563-.875-.36-.375-.89-.594-.532-.218-1.22-.218zm15.824 8.797q.547 0 1.016-.157.484-.156.844-.437.375-.297.578-.703.203-.407.172-.891h3.406q.031 1.094-.453 2.031-.469.938-1.297 1.61-.813.672-1.906 1.062-1.078.375-2.282.375-1.64 0-2.89-.547-1.235-.547-2.063-1.515-.812-.97-1.25-2.25-.422-1.297-.422-2.782v-.39q0-1.485.422-2.781.422-1.297 1.25-2.25.828-.97 2.063-1.532 1.234-.562 2.86-.562 1.296 0 2.405.39 1.11.391 1.907 1.11.797.703 1.234 1.719.453 1 .422 2.25h-3.406q.03-.516-.157-.985t-.546-.812q-.344-.344-.844-.547-.485-.203-1.063-.203-.86 0-1.422.359-.562.344-.89.938-.328.578-.469 1.343-.14.75-.14 1.563v.39q0 .813.124 1.579.141.765.47 1.343.327.578.89.938.578.344 1.437.344zm16.403-14.907v3.453h5.265v2.657h-5.265v6.062q0 .766.172 1.281.187.516.5.829.328.296.797.437.468.125 1.03.125.423 0 .86-.031.438-.047.828-.11.407-.062.75-.125.344-.062.578-.125l.36 2.485q-.375.219-.89.39-.5.157-1.079.25-.562.11-1.187.157-.625.062-1.22.062-1.155 0-2.109-.297-.937-.312-1.609-.953-.672-.64-1.031-1.64-.36-1-.36-2.391V304.5h-3.218v-2.657h3.218v-3.453h3.61zm28.864 12.688q0 1.078-.25 2-.25.922-.75 1.594-.485.671-1.203 1.062-.72.375-1.641.375-.797 0-1.406-.266-.594-.28-1.032-.78v4.655h-2.53v-13.656h2.327l.094.969q.453-.547 1.078-.844.625-.297 1.453-.297.938 0 1.657.36.718.359 1.203 1.015.5.657.75 1.578.25.922.25 2.047v.188zm-2.532-.188q0-.61-.125-1.156-.109-.547-.359-.937-.234-.407-.61-.625-.374-.235-.906-.235-.671 0-1.093.266-.422.265-.657.734v4.11q.235.468.657.75.422.28 1.109.28.531 0 .906-.234.39-.25.625-.656t.344-.953q.11-.547.11-1.156v-.188z"/><path fill="#bdbdbd" d="M51.135 340.625h163.496v59.716H51.135z" fill-rule="evenodd"/><path stroke="#666" stroke-linejoin="round" stroke-linecap="butt" d="M51.135 340.625h163.496v59.716H51.135z"/><path fill="#000" d="M136.51 373.289h2.375v1.765h-2.375v3.97h-2.171v-3.97h-7.782v-1.265l7.64-11.828h2.313v11.328zm-7.546 0h5.375v-8.453l-.344.656-5.031 7.797z"/><path fill="#bdbdbd" d="M51.135 400.328h163.496v59.716H51.135z" fill-rule="evenodd"/><path stroke="#666" stroke-linejoin="round" stroke-linecap="butt" d="M51.135 400.328h163.496v59.716H51.135z"/><path fill="#000" d="M128.495 430.163l.86-8.5h8.75v2.11h-6.923l-.484 4.547q.5-.297 1.203-.516.703-.219 1.64-.219 1.173 0 2.11.406.938.407 1.594 1.157.656.734 1 1.797.36 1.046.36 2.343 0 1.22-.329 2.266-.328 1.031-.984 1.797-.657.75-1.672 1.187-1 .422-2.36.422-1.046 0-1.984-.297-.922-.297-1.64-.875-.72-.593-1.188-1.484-.453-.89-.578-2.063h2.062q.203 1.454 1.078 2.204.875.75 2.25.75.766 0 1.36-.282.61-.28 1-.78.406-.517.61-1.22.218-.718.218-1.609 0-.797-.234-1.484-.235-.688-.672-1.188-.422-.516-1.063-.812-.625-.297-1.453-.297-.531 0-.922.078-.39.078-.719.219-.312.14-.593.343-.266.188-.563.453l-1.734-.453z"/><path d="M227.49 306.322c73.078 0 109.616 29.094 146.155 58.188 36.54 29.095 73.08 58.19 146.16 58.19"/><path stroke="#595959" stroke-width="4" stroke-linejoin="round" stroke-linecap="butt" d="M227.49 306.322c73.078 0 109.616 29.094 146.155 58.188 18.27 14.548 36.54 29.095 59.378 40.005 11.419 5.456 23.98 10.002 38.253 13.184 7.137 1.59 14.702 2.841 22.766 3.694.504.053 1.01.104 1.518.155l.272.026"/><path fill="#595959" stroke="#595959" stroke-width="4" stroke-linecap="butt" d="M495.522 428.173l18.443-5.748-17.823-7.451z" fill-rule="evenodd"/><path fill="#bdbdbd" d="M51.253 460.044H214.75v59.717H51.253z" fill-rule="evenodd"/><path stroke="#666" stroke-linejoin="round" stroke-linecap="butt" d="M51.253 460.044H214.75v59.717H51.253z"/><path fill="#000" d="M135.832 481.364v1.953h-.188q-1.078 0-1.937.22-.844.218-1.485.609-.64.39-1.11.921-.452.532-.765 1.172-.297.625-.469 1.313-.156.687-.203 1.406.297-.36.688-.672.406-.312.86-.531.468-.234 1-.36.546-.14 1.124-.14 1.281 0 2.203.484.922.485 1.516 1.282.61.796.89 1.812.282 1 .282 2.047 0 1.187-.344 2.25-.328 1.047-1 1.844-.656.78-1.656 1.25-.985.453-2.281.453-.938 0-1.704-.266-.765-.281-1.375-.734-.609-.469-1.062-1.094-.453-.64-.766-1.36-.297-.734-.453-1.515-.14-.781-.14-1.578v-1.016q0-1.172.14-2.343.156-1.188.5-2.266.36-1.078.953-2.016.594-.937 1.5-1.625.907-.703 2.157-1.093 1.265-.407 2.937-.407h.188zm-2.829 7.688q-.562 0-1.078.187-.515.172-.968.485-.438.312-.782.765-.328.438-.53.985v.718q0 1.125.265 2 .281.875.734 1.47.453.593 1.047.905.61.313 1.266.313.75 0 1.328-.281.593-.297 1-.813.406-.515.61-1.234.202-.735.202-1.578 0-.75-.187-1.453-.188-.704-.578-1.25-.375-.563-.97-.891-.577-.328-1.359-.328z"/><path fill="#ff9800" d="M519.798 40.06c0-6.283 5.093-11.376 11.375-11.376h142.068a11.375 11.375 0 0 1 11.376 11.375V85.56c0 6.283-5.093 11.376-11.376 11.376H531.173c-6.282 0-11.375-5.093-11.375-11.376z" fill-rule="evenodd"/><path stroke="#666" stroke-linejoin="round" stroke-linecap="butt" d="M519.798 40.06c0-6.283 5.093-11.376 11.375-11.376h142.068a11.375 11.375 0 0 1 11.376 11.375V85.56c0 6.283-5.093 11.376-11.376 11.376H531.173c-6.282 0-11.375-5.093-11.375-11.376z"/><path fill="#fff" d="M573.763 56.457q0-.5-.187-.938-.172-.453-.594-.828-.422-.39-1.11-.703-.671-.328-1.687-.594-1.234-.344-2.36-.844-1.124-.515-1.984-1.218-.859-.72-1.375-1.672-.515-.953-.515-2.188 0-1.203.5-2.172.515-.984 1.406-1.672.906-.687 2.125-1.062 1.219-.375 2.656-.375 1.485 0 2.703.437 1.235.422 2.125 1.204.891.78 1.375 1.843.5 1.063.5 2.344h-3.562q-.031-.64-.234-1.172-.204-.531-.61-.906-.39-.39-.984-.61-.578-.218-1.375-.218-.735 0-1.297.187-.563.172-.953.485-.39.312-.594.75-.203.437-.203.953 0 .531.266.969.265.421.765.765.516.344 1.235.64.718.282 1.64.516 1.297.391 2.39.938 1.095.547 1.876 1.297.797.734 1.234 1.703.438.953.438 2.125 0 1.25-.516 2.219-.5.968-1.39 1.64-.876.672-2.094 1.016-1.219.344-2.672.344-.89 0-1.781-.172-.891-.156-1.72-.485-.812-.343-1.515-.843-.703-.516-1.219-1.188-.5-.687-.796-1.547-.297-.859-.297-1.906h3.593q.032.86.297 1.484.282.61.766 1 .484.391 1.172.579.687.171 1.5.171.734 0 1.297-.171.562-.172.953-.47.39-.296.594-.718.218-.422.218-.937zm9.903-7.188q.703-1.031 1.703-1.61 1.016-.593 2.266-.593 1.11 0 2.031.344.922.328 1.578 1.031.672.687 1.047 1.797.375 1.094.375 2.64v8.532h-3.625v-8.547q0-.766-.188-1.313-.187-.547-.546-.875-.344-.343-.844-.5-.485-.172-1.11-.172-.921 0-1.593.329-.657.328-1.094.906V61.41h-3.625v-20h3.625v7.86zm21.184 12.14q-.14-.265-.235-.593-.078-.344-.156-.719-.297.328-.687.61-.391.28-.875.5-.47.218-1.047.343-.563.125-1.219.125-1.078 0-1.984-.312-.907-.313-1.563-.875-.656-.563-1.015-1.328-.36-.782-.36-1.688 0-2.234 1.656-3.453 1.657-1.219 4.954-1.219h2.015v-.828q0-1.015-.672-1.61-.656-.593-1.906-.593-1.11 0-1.625.484-.5.47-.5 1.266h-3.61q0-.906.391-1.703.407-.813 1.157-1.422.765-.61 1.859-.969 1.11-.359 2.531-.359 1.266 0 2.36.312 1.109.313 1.906.922.812.61 1.265 1.547.47.922.47 2.156v6.032q0 1.14.14 1.89.14.735.406 1.266v.219h-3.656zm-3.453-2.53q.547 0 1.015-.126.469-.14.844-.343.375-.219.64-.485.282-.265.438-.53v-2.423h-1.844q-.843 0-1.453.156-.593.157-.968.454-.375.296-.563.703-.187.406-.187.89 0 .735.515 1.22.516.483 1.563.483zm23.293-4.376q0 1.532-.36 2.844-.359 1.313-1.062 2.281-.687.954-1.719 1.5-1.015.547-2.343.547-1.141 0-2-.39-.86-.39-1.5-1.094v6.64h-3.61v-19.5h3.344l.125 1.376q.656-.782 1.531-1.204.89-.437 2.078-.437 1.344 0 2.36.516 1.03.515 1.734 1.468.703.938 1.063 2.266.359 1.312.359 2.906v.281zm-3.61-.28q0-.876-.171-1.657-.157-.781-.5-1.344-.344-.562-.891-.89-.547-.329-1.312-.329-.954 0-1.563.375-.594.375-.937 1.047v5.891q.343.656.937 1.062.61.391 1.594.391.765 0 1.297-.328.547-.344.89-.922.344-.594.5-1.375.157-.781.157-1.64v-.282zm13.794 7.452q-1.625 0-2.953-.53-1.328-.548-2.282-1.454-.953-.922-1.468-2.156-.516-1.25-.516-2.672v-.516q0-1.625.5-2.953.516-1.328 1.422-2.297.922-.969 2.172-1.5t2.719-.531q1.515 0 2.703.5 1.203.5 2.03 1.422.829.906 1.25 2.187.438 1.282.438 2.828v1.532h-9.562q.11.718.422 1.312.328.594.812 1.031.5.422 1.14.657.642.234 1.392.234.53 0 1.062-.094.531-.109 1-.312.484-.203.906-.5.422-.313.735-.703l1.797 1.953q-.329.469-.875.937-.532.47-1.282.828-.734.344-1.64.563-.891.234-1.922.234zm-.438-11.687q-.61 0-1.125.219-.5.218-.89.625-.375.406-.641.968-.25.547-.39 1.235h5.937v-.282q-.016-.578-.219-1.078-.187-.515-.562-.875-.36-.375-.891-.593-.531-.22-1.219-.22zM588.555 80.34q0-1.282.187-2.423.203-1.14.531-2.094.344-.968.797-1.75.453-.796.953-1.406.5-.61 1.032-1.031.53-.422 1.03-.656l.5 1.39q-.515.391-1.03 1.047-.5.656-.907 1.64-.406.985-.672 2.282-.25 1.297-.25 2.984v.235q0 1.687.25 2.984.266 1.297.672 2.281.407.985.907 1.641.515.672 1.03 1.063l-.5 1.359q-.5-.219-1.03-.656-.532-.422-1.032-1.032-.5-.593-.953-1.39-.453-.797-.797-1.75-.328-.969-.53-2.094-.188-1.14-.188-2.422v-.203zm13.851-1.392l2.172-3.078h2.719l-3.312 4.844 3.421 5.016h-2.718l-2.282-3.219-2.25 3.219h-2.734l3.422-5.016-3.297-4.844h2.719l2.14 3.078zm13.43 1.594q0 1.25-.203 2.36-.203 1.109-.547 2.078-.343.968-.812 1.765-.453.797-.985 1.422-.515.625-1.062 1.063-.547.437-1.063.656l-.484-1.36q.5-.39 1.016-1.062.515-.656.922-1.625.406-.969.656-2.281.265-1.313.265-3v-.235q0-1.687-.265-2.984-.266-1.312-.688-2.297-.406-.984-.906-1.656-.5-.672-1-1.047l.484-1.36q.516.235 1.063.673.547.437 1.062 1.062.532.625.985 1.422.469.797.812 1.766.344.953.547 2.078.203 1.11.203 2.36v.202z"/><path fill="#bdbdbd" d="M530.806 97.114h142.582v59.717H530.805z" fill-rule="evenodd"/><path stroke="#666" stroke-linejoin="round" stroke-linecap="butt" d="M530.806 97.114h142.582v59.717H530.805z"/><path fill="#000" d="M588.15 118.81l-.25 4.312h-1.61v-5.61h1.86v1.297zm14.027 8.718l3.39-4.703h2.532l-4.719 6.281 4.86 6.406h-2.516l-3.5-4.828-3.5 4.828h-2.531l4.843-6.406-4.718-6.281h2.5l3.359 4.703zm14.777-8.719l-.25 4.313h-1.61v-5.61h1.86v1.297z"/><path fill="#ff9800" d="M519.798 219.816c0-6.282 5.093-11.375 11.375-11.375h142.068a11.375 11.375 0 0 1 11.376 11.376v45.5c0 6.283-5.093 11.376-11.376 11.376H531.173c-6.282 0-11.375-5.093-11.375-11.376z" fill-rule="evenodd"/><path stroke="#666" stroke-linejoin="round" stroke-linecap="butt" d="M519.798 219.816c0-6.282 5.093-11.375 11.375-11.375h142.068a11.375 11.375 0 0 1 11.376 11.376v45.5c0 6.283-5.093 11.376-11.376 11.376H531.173c-6.282 0-11.375-5.093-11.375-11.376z"/><path fill="#fff" d="M573.763 236.214q0-.5-.187-.938-.172-.453-.594-.828-.422-.39-1.11-.703-.671-.328-1.687-.594-1.234-.343-2.36-.843-1.124-.516-1.984-1.22-.859-.718-1.375-1.671-.515-.953-.515-2.188 0-1.203.5-2.171.515-.985 1.406-1.672.906-.688 2.125-1.063 1.219-.375 2.656-.375 1.485 0 2.703.438 1.235.422 2.125 1.203.891.781 1.375 1.844.5 1.062.5 2.343h-3.562q-.031-.64-.234-1.172-.204-.53-.61-.906-.39-.39-.984-.61-.578-.218-1.375-.218-.735 0-1.297.188-.563.171-.953.484-.39.312-.594.75-.203.437-.203.953 0 .531.266.969.265.422.765.765.516.344 1.235.641.718.281 1.64.516 1.297.39 2.39.937 1.095.547 1.876 1.297.797.734 1.234 1.703.438.953.438 2.125 0 1.25-.516 2.219-.5.969-1.39 1.64-.876.672-2.094 1.016-1.219.344-2.672.344-.89 0-1.781-.172-.891-.156-1.72-.484-.812-.344-1.515-.844-.703-.516-1.219-1.188-.5-.687-.796-1.546-.297-.86-.297-1.907h3.593q.032.86.297 1.485.282.609.766 1 .484.39 1.172.578.687.172 1.5.172.734 0 1.297-.172.562-.172.953-.469.39-.297.594-.719.218-.422.218-.937zm9.903-7.188q.703-1.031 1.703-1.61 1.016-.593 2.266-.593 1.11 0 2.031.344.922.328 1.578 1.031.672.688 1.047 1.797.375 1.094.375 2.64v8.532h-3.625v-8.547q0-.766-.188-1.312-.187-.547-.546-.875-.344-.344-.844-.5-.485-.172-1.11-.172-.921 0-1.593.328-.657.328-1.094.906v10.172h-3.625v-20h3.625v7.86zm21.184 12.14q-.14-.265-.235-.593-.078-.344-.156-.719-.297.329-.687.61-.391.281-.875.5-.47.219-1.047.344-.563.125-1.219.125-1.078 0-1.984-.313-.907-.312-1.563-.875-.656-.562-1.015-1.328-.36-.781-.36-1.688 0-2.234 1.656-3.453 1.657-1.218 4.954-1.218h2.015v-.829q0-1.015-.672-1.609-.656-.594-1.906-.594-1.11 0-1.625.485-.5.468-.5 1.265h-3.61q0-.906.391-1.703.407-.812 1.157-1.422.765-.61 1.859-.968 1.11-.36 2.531-.36 1.266 0 2.36.313 1.109.312 1.906.922.812.609 1.265 1.546.47.922.47 2.157v6.03q0 1.142.14 1.892.14.734.406 1.265v.219h-3.656zm-3.453-2.53q.547 0 1.015-.125.469-.141.844-.344.375-.219.64-.484.282-.266.438-.532v-2.422h-1.844q-.843 0-1.453.157-.593.156-.968.453-.375.297-.563.703-.187.406-.187.89 0 .735.515 1.22.516.484 1.563.484zm23.293-4.375q0 1.53-.36 2.843-.359 1.313-1.062 2.282-.687.953-1.719 1.5-1.015.547-2.343.547-1.141 0-2-.391-.86-.39-1.5-1.094v6.64h-3.61v-19.5h3.344l.125 1.376q.656-.781 1.531-1.203.89-.438 2.078-.438 1.344 0 2.36.516 1.03.515 1.734 1.469.703.937 1.063 2.265.359 1.313.359 2.906v.282zm-3.61-.282q0-.875-.171-1.656-.157-.781-.5-1.344-.344-.562-.891-.89-.547-.328-1.312-.328-.954 0-1.563.375-.594.375-.937 1.047v5.89q.343.656.937 1.063.61.39 1.594.39.765 0 1.297-.328.547-.344.89-.922.344-.593.5-1.375.157-.781.157-1.64v-.282zm13.794 7.454q-1.625 0-2.953-.532-1.328-.547-2.282-1.453-.953-.922-1.468-2.156-.516-1.25-.516-2.672v-.516q0-1.625.5-2.953.516-1.328 1.422-2.297.922-.968 2.172-1.5 1.25-.53 2.719-.53 1.515 0 2.703.5 1.203.5 2.03 1.421.829.906 1.25 2.188.438 1.28.438 2.828v1.53h-9.562q.11.72.422 1.313.328.594.812 1.032.5.422 1.14.656.642.234 1.392.234.53 0 1.062-.093.531-.11 1-.313.484-.203.906-.5.422-.312.735-.703l1.797 1.953q-.329.469-.875.938-.532.468-1.282.828-.734.343-1.64.562-.891.235-1.922.235zm-.438-11.688q-.61 0-1.125.219-.5.219-.89.625-.375.406-.641.969-.25.546-.39 1.234h5.937v-.281q-.016-.578-.219-1.078-.187-.516-.562-.875-.36-.375-.891-.594-.531-.219-1.219-.219zm-57.076 30.351q0-1.281.187-2.422.203-1.14.53-2.093.345-.97.798-1.75.453-.797.953-1.407.5-.609 1.031-1.03.531-.423 1.031-.657l.5 1.39q-.515.391-1.03 1.047-.5.657-.907 1.641-.406.984-.672 2.281-.25 1.297-.25 2.985v.234q0 1.688.25 2.984.266 1.297.672 2.282.406.984.906 1.64.516.672 1.031 1.063l-.5 1.36q-.5-.22-1.03-.657-.532-.422-1.032-1.031-.5-.594-.953-1.391-.453-.797-.797-1.75-.328-.969-.531-2.094-.188-1.14-.188-2.422v-.203zm13.85-1.39l2.173-3.078h2.719l-3.313 4.843 3.422 5.016h-2.719l-2.281-3.219-2.25 3.219h-2.734l3.421-5.016-3.296-4.843h2.718l2.14 3.078zm11.868 6.578q0 .515-.14 1.062t-.39 1.063q-.25.515-.595.969-.328.453-.718.812l-1.344-.703q.172-.328.312-.672.157-.328.266-.703.11-.375.172-.797.062-.406.062-.906v-2.14h2.391l-.016 2.015zm10.212-3.938l.296 1.063 2.625-6.781h2.797l-5.015 11.328q-.157.375-.422.812-.25.438-.64.813-.391.375-.954.625-.562.265-1.328.265-.188 0-.344-.015-.156-.016-.297-.047-.14-.016-.281-.047-.14-.031-.312-.078l.312-1.922h.39q.25.016.391.016.297 0 .532-.188.234-.172.39-.39.172-.22.266-.407.11-.172.14-.172l.61-1.156-4.172-9.437h2.781l2.235 5.718zm13.742-1.047q0 1.25-.203 2.36-.203 1.11-.547 2.078-.344.969-.812 1.766-.454.796-.985 1.421-.515.625-1.062 1.063-.547.437-1.063.656l-.484-1.36q.5-.39 1.015-1.062.516-.656.922-1.625.407-.968.657-2.281.265-1.312.265-3v-.234q0-1.688-.265-2.985-.266-1.312-.688-2.297-.406-.984-.906-1.656-.5-.672-1-1.047l.484-1.36q.516.235 1.063.673.547.437 1.062 1.062.531.625.985 1.422.468.797.812 1.766.344.953.547 2.078.203 1.11.203 2.36v.202z"/><path fill="#bdbdbd" d="M530.916 276.96h142.582v59.717H530.916z" fill-rule="evenodd"/><path stroke="#666" stroke-linejoin="round" stroke-linecap="butt" d="M530.916 276.96h142.582v59.717H530.916z"/><path fill="#000" d="M588.26 298.656l-.25 4.312h-1.61v-5.609h1.86v1.297zm13.449 12.203l.562 1.531 3.875-9.719h2.422l-6.437 14.641q-.219.5-.563 1.047-.343.547-.843 1.015-.485.47-1.141.782-.656.328-1.516.328-.156 0-.343-.016-.188-.015-.375-.047-.188-.03-.36-.078-.156-.031-.265-.047l.359-1.765h.219l.297.031q.156.016.296.016h.22q.437 0 .812-.25.375-.235.656-.579.281-.343.484-.703.22-.359.328-.593l.875-1.688-5.468-12.094h2.422l3.484 8.188zm15.355-12.203l-.25 4.312h-1.609v-5.609h1.86v1.297z"/><path d="M602.097 156.83l.126 51.623"/><path stroke="#666" stroke-width="2" stroke-linejoin="round" stroke-linecap="butt" d="M602.126 168.83l.068 27.623"/><path fill="#666" stroke="#666" stroke-width="2" stroke-linecap="butt" d="M605.43 168.822l-3.326-9.068-3.281 9.085zm-6.54 27.638l3.326 9.069 3.281-9.084z" fill-rule="evenodd"/><path fill="#ff9800" d="M519.798 399.937c0-6.282 5.093-11.375 11.375-11.375h142.068a11.375 11.375 0 0 1 11.376 11.375v45.501c0 6.283-5.093 11.376-11.376 11.376H531.173c-6.282 0-11.375-5.093-11.375-11.376z" fill-rule="evenodd"/><path stroke="#666" stroke-linejoin="round" stroke-linecap="butt" d="M519.798 399.937c0-6.282 5.093-11.375 11.375-11.375h142.068a11.375 11.375 0 0 1 11.376 11.375v45.501c0 6.283-5.093 11.376-11.376 11.376H531.173c-6.282 0-11.375-5.093-11.375-11.376z"/><path fill="#fff" d="M573.763 416.335q0-.5-.187-.938-.172-.453-.594-.828-.422-.39-1.11-.703-.671-.328-1.687-.594-1.234-.344-2.36-.844-1.124-.515-1.984-1.218-.859-.72-1.375-1.672-.515-.953-.515-2.188 0-1.203.5-2.172.515-.984 1.406-1.672.906-.687 2.125-1.062 1.219-.375 2.656-.375 1.485 0 2.703.437 1.235.422 2.125 1.204.891.78 1.375 1.843.5 1.063.5 2.344h-3.562q-.031-.64-.234-1.172-.204-.531-.61-.906-.39-.39-.984-.61-.578-.218-1.375-.218-.735 0-1.297.187-.563.172-.953.485-.39.312-.594.75-.203.437-.203.953 0 .531.266.969.265.421.765.765.516.344 1.235.64.718.282 1.64.516 1.297.391 2.39.938 1.095.547 1.876 1.297.797.734 1.234 1.703.438.953.438 2.125 0 1.25-.516 2.219-.5.968-1.39 1.64-.876.672-2.094 1.016-1.219.344-2.672.344-.89 0-1.781-.172-.891-.156-1.72-.485-.812-.343-1.515-.843-.703-.516-1.219-1.188-.5-.687-.796-1.547-.297-.86-.297-1.906h3.593q.032.86.297 1.484.282.61.766 1 .484.391 1.172.579.687.171 1.5.171.734 0 1.297-.171.562-.172.953-.47.39-.296.594-.718.218-.422.218-.937zm9.903-7.188q.703-1.031 1.703-1.61 1.016-.593 2.266-.593 1.11 0 2.031.344.922.328 1.578 1.03.672.688 1.047 1.798.375 1.094.375 2.64v8.532h-3.625v-8.547q0-.766-.188-1.313-.187-.547-.546-.875-.344-.343-.844-.5-.485-.172-1.11-.172-.921 0-1.593.329-.657.328-1.094.906v10.172h-3.625v-20h3.625v7.859zm21.184 12.14q-.14-.265-.235-.593-.078-.344-.156-.719-.297.328-.687.61-.391.28-.875.5-.47.218-1.047.343-.563.125-1.219.125-1.078 0-1.984-.312-.907-.313-1.563-.875-.656-.563-1.015-1.328-.36-.782-.36-1.688 0-2.234 1.656-3.453 1.657-1.219 4.954-1.219h2.015v-.828q0-1.015-.672-1.61-.656-.593-1.906-.593-1.11 0-1.625.484-.5.47-.5 1.266h-3.61q0-.906.391-1.703.407-.813 1.157-1.422.765-.61 1.859-.969 1.11-.36 2.531-.36 1.266 0 2.36.313 1.109.313 1.906.922.812.61 1.265 1.547.47.922.47 2.156v6.032q0 1.14.14 1.89.14.735.406 1.266v.219h-3.656zm-3.453-2.53q.547 0 1.015-.126.469-.14.844-.343.375-.22.64-.485.282-.265.438-.531v-2.422h-1.844q-.843 0-1.453.156-.593.157-.968.454-.375.296-.563.703-.187.406-.187.89 0 .735.515 1.219.516.484 1.563.484zm23.293-4.376q0 1.532-.36 2.844-.359 1.313-1.062 2.281-.687.954-1.719 1.5-1.015.547-2.343.547-1.141 0-2-.39-.86-.391-1.5-1.094v6.64h-3.61v-19.5h3.344l.125 1.376q.656-.782 1.531-1.204.89-.437 2.078-.437 1.344 0 2.36.516 1.03.515 1.734 1.468.703.938 1.063 2.266.359 1.312.359 2.906v.281zm-3.61-.28q0-.876-.171-1.657-.157-.781-.5-1.344-.344-.562-.891-.89-.547-.329-1.312-.329-.954 0-1.563.375-.594.375-.937 1.047v5.89q.343.657.937 1.063.61.391 1.594.391.765 0 1.297-.328.547-.344.89-.922.344-.594.5-1.375.157-.781.157-1.64v-.282zm13.794 7.452q-1.625 0-2.953-.531-1.328-.547-2.282-1.453-.953-.922-1.468-2.156-.516-1.25-.516-2.672v-.516q0-1.625.5-2.953.516-1.328 1.422-2.297.922-.969 2.172-1.5t2.719-.531q1.515 0 2.703.5 1.203.5 2.03 1.422.829.906 1.25 2.187.438 1.282.438 2.828v1.532h-9.562q.11.718.422 1.312.328.594.812 1.031.5.422 1.14.657.642.234 1.392.234.53 0 1.062-.094.531-.11 1-.312.484-.203.906-.5.422-.313.735-.703l1.797 1.953q-.329.469-.875.937-.532.469-1.282.828-.734.344-1.64.563-.891.234-1.922.234zm-.438-11.687q-.61 0-1.125.219-.5.218-.89.625-.375.406-.641.968-.25.547-.39 1.235h5.937v-.282q-.016-.578-.219-1.078-.187-.515-.562-.875-.36-.375-.891-.593-.531-.22-1.219-.22zm-68.273 30.351q0-1.281.188-2.422.203-1.14.531-2.094.344-.968.797-1.75.453-.796.953-1.406.5-.61 1.031-1.031.532-.422 1.032-.656l.5 1.39q-.516.39-1.032 1.047-.5.656-.906 1.64-.406.985-.672 2.282-.25 1.297-.25 2.984v.235q0 1.687.25 2.984.266 1.297.672 2.281.406.985.906 1.641.516.672 1.032 1.063l-.5 1.359q-.5-.219-1.032-.656-.53-.422-1.03-1.032-.5-.593-.954-1.39-.453-.797-.797-1.75-.328-.969-.531-2.094-.188-1.14-.188-2.422v-.203zm13.852-1.39l2.172-3.079h2.719l-3.313 4.844 3.422 5.016h-2.718l-2.282-3.22-2.25 3.22h-2.734l3.422-5.016-3.297-4.844h2.719l2.14 3.078zm11.868 6.578q0 .515-.14 1.062-.142.547-.392 1.063-.25.515-.593.968-.328.453-.719.813l-1.344-.703q.172-.328.313-.672.156-.328.265-.703.11-.375.172-.797.063-.406.063-.906v-2.141h2.39l-.015 2.016zm10.21-3.938l.298 1.063 2.625-6.782h2.797l-5.016 11.328q-.156.375-.422.813-.25.437-.64.812-.391.375-.954.625-.562.266-1.328.266-.187 0-.343-.016-.157-.015-.297-.046-.14-.016-.282-.047-.14-.032-.312-.078l.312-1.922h.391q.25.015.39.015.298 0 .532-.187.234-.172.39-.39.172-.22.266-.407.11-.172.14-.172l.61-1.156-4.172-9.438h2.782l2.234 5.719zm12.18 3.938q0 .515-.14 1.062t-.39 1.063q-.25.515-.594.968-.328.453-.719.813l-1.344-.703q.172-.328.313-.672.156-.328.265-.703.11-.375.172-.797.063-.406.063-.906v-2.141h2.39l-.015 2.016zm9.259-1.829h5.812v2.032h-9.265v-1.563l5.515-6.234h-5.39v-2.063h8.906v1.532l-5.578 6.296zm14.696-3.156q0 1.25-.204 2.36-.203 1.109-.546 2.078-.344.968-.813 1.765-.453.797-.984 1.422-.516.625-1.063 1.063-.547.437-1.062.656l-.485-1.36q.5-.39 1.016-1.062.516-.656.922-1.625t.656-2.281q.266-1.313.266-3v-.235q0-1.687-.266-2.984-.266-1.312-.687-2.297-.407-.984-.907-1.656-.5-.672-1-1.047l.485-1.36q.515.235 1.062.673.547.437 1.063 1.062.53.625.984 1.422.469.797.813 1.766.343.953.546 2.078.204 1.109.204 2.359v.203z"/><path fill="#bdbdbd" d="M530.916 457.081h142.582v59.717H530.916z" fill-rule="evenodd"/><path stroke="#666" stroke-linejoin="round" stroke-linecap="butt" d="M530.916 457.081h142.582v59.717H530.916z"/><path fill="#000" d="M588.26 478.776l-.25 4.313h-1.61v-5.609h1.86v1.296zm11.386 14.938h8.079v1.766H596.88v-1.594l7.578-9.297h-7.469v-1.797h10.313v1.547l-7.657 9.375zm17.418-14.938l-.25 4.313h-1.609v-5.609h1.86v1.296z"/><path d="M602.081 336.94l.126 51.622"/><path stroke="#666" stroke-width="2" stroke-linejoin="round" stroke-linecap="butt" d="M602.11 348.94l.068 27.622"/><path fill="#666" stroke="#666" stroke-width="2" stroke-linecap="butt" d="M605.414 348.932l-3.326-9.069-3.28 9.085zm-6.539 27.638l3.325 9.068 3.282-9.084z" fill-rule="evenodd"/></g></svg>