<svg viewBox="0 0 818.898 357.071" fill="none" stroke-linecap="square" stroke-miterlimit="10" xmlns="http://www.w3.org/2000/svg"><clipPath id="a"><path d="M0 0h818.898v357.07H0V0z"/></clipPath><g clip-path="url(#a)"><path d="M0 0h818.898v357.07H0z"/><path d="M322.921 130.302H717.63v46.047H322.92z"/><path fill="#666" d="M506.768 149.8h-1.703v-2.094h1.703v-.515q0-1.625.969-2.547.968-.922 2.547-.922.89 0 1.546.203v2.39q-.359-.156-.64-.234-.266-.078-.61-.078-.625 0-1 .36-.359.359-.359.968v.375h2.328v2.094h-2.328v7.422h-2.453V149.8zm9.596 7.719q-1.516 0-2.485-.875-.969-.89-.969-2.328 0-.954.5-1.672.5-.735 1.375-1.125.891-.39 1.954-.39 1.468 0 2.515.421v-.406q0-.782-.594-1.266-.578-.484-1.578-.484-.672 0-1.297.312-.625.297-1.03.797l-1.563-1.234q.687-.89 1.734-1.375t2.266-.485q2.187 0 3.328 1.016 1.14 1 1.14 2.937v5.86h-2.406v-.969h-.156q-.422.563-1.125.922-.703.344-1.61.344zm.578-1.907q1.062 0 1.687-.671.625-.688.625-1.594-.953-.453-2-.453-1.906 0-1.906 1.422 0 .578.406.937.422.36 1.188.36zm10.59 1.907q-1.734 0-2.812-.703-1.062-.72-1.5-1.844l2.188-.953q.297.672.844 1.015.546.344 1.28.344.673 0 1.11-.219.453-.218.453-.703 0-.469-.406-.687-.406-.235-1.234-.422l-1.11-.25q-1.156-.281-1.922-1.016-.765-.734-.765-1.844 0-.812.484-1.468.5-.657 1.344-1 .86-.36 1.875-.36 2.953 0 3.937 2.063l-2.078.922q-.562-1-1.797-1-.64 0-1.015.234-.36.219-.36.578 0 .672 1.266 1.016l1.39.328q1.423.36 2.141 1.094.72.718.72 1.781 0 .906-.532 1.61-.531.702-1.453 1.093-.922.39-2.047.39zm9.938-.14q-.703 0-1.297-.22-.594-.218-.969-.593-.875-.844-.875-2.391V149.8h-1.672v-2.094h1.672v-2.687h2.438v2.687h2.328v2.094h-2.328v3.937q0 .72.312 1.047.266.297.906.297.344 0 .579-.094.234-.093.609-.328v2.391q-.797.328-1.703.328zm8.126.14q-1.422 0-2.562-.64-1.14-.657-1.781-1.798-.641-1.156-.641-2.594 0-1.359.625-2.53.64-1.173 1.75-1.86 1.125-.688 2.516-.688 1.468 0 2.53.641 1.063.625 1.61 1.734.563 1.094.563 2.438 0 .422-.063.828h-7.14q.187 1.125.906 1.719.719.593 1.719.593.843 0 1.453-.359.61-.375.953-.984l1.984.968q-1.453 2.532-4.422 2.532zm2.25-6.203q-.03-.454-.328-.891-.281-.438-.797-.719-.515-.297-1.203-.297-.875 0-1.5.516-.625.5-.906 1.39h4.734zm4.233-3.61h2.297v1.266h.156q.36-.672 1.094-1.11.75-.437 1.64-.437.657 0 1.203.203v2.453q-.5-.187-.859-.265-.344-.094-.734-.094-1.078 0-1.72.781-.624.781-.624 1.984v4.735h-2.453v-9.516zm6.778 9.516zm9.694.156q-.703 0-1.297-.219-.593-.218-.968-.593-.875-.844-.875-2.391V149.8h-1.672v-2.094h1.672v-2.687h2.437v2.687h2.328v2.094h-2.328v3.937q0 .72.313 1.047.265.297.906.297.344 0 .578-.094.234-.093.61-.328v2.391q-.798.328-1.704.328zm8.22.14q-1.484 0-2.64-.656-1.157-.671-1.797-1.812-.64-1.156-.64-2.578t.64-2.578q.64-1.157 1.797-1.813 1.156-.672 2.64-.672 1.453 0 2.61.672 1.156.656 1.797 1.813.64 1.156.64 2.578t-.64 2.578q-.641 1.14-1.797 1.812-1.157.657-2.61.657zm0-2.25q.703 0 1.297-.327.61-.344.953-.985.36-.64.36-1.484t-.36-1.469q-.343-.64-.953-.969-.594-.343-1.297-.343-.718 0-1.312.343-.594.328-.969.97-.36.624-.36 1.468 0 .828.36 1.484.375.64.969.985.594.328 1.312.328zm5.724 1.954zm10.022.297q-1.422 0-2.563-.64-1.14-.657-1.781-1.798-.64-1.156-.64-2.594 0-1.359.624-2.53.641-1.173 1.75-1.86 1.125-.688 2.516-.688 1.469 0 2.531.641 1.063.625 1.61 1.734.562 1.094.562 2.438 0 .422-.062.828h-7.141q.188 1.125.906 1.719.719.593 1.719.593.844 0 1.453-.359.61-.375.953-.984l1.985.968q-1.453 2.532-4.422 2.532zm2.25-6.203q-.031-.454-.328-.891-.282-.438-.797-.719-.516-.297-1.203-.297-.875 0-1.5.516-.625.5-.907 1.39h4.735zm6.592 1.078l-3.282-4.688h2.891l1.813 2.719h.109l1.687-2.719h2.985l-3.328 4.688 3.328 4.828h-2.89l-1.829-2.781h-.11l-1.78 2.78h-2.891l3.297-4.827zm12.109 5.125q-1.422 0-2.563-.64-1.14-.657-1.781-1.798-.64-1.156-.64-2.594 0-1.359.624-2.53.641-1.173 1.75-1.86 1.125-.688 2.516-.688 1.469 0 2.531.641 1.063.625 1.61 1.734.562 1.094.562 2.438 0 .422-.062.828h-7.141q.188 1.125.906 1.719.719.593 1.719.593.844 0 1.453-.359.61-.375.953-.984l1.985.968q-1.453 2.532-4.422 2.532zm2.25-6.203q-.031-.454-.328-.891-.282-.438-.797-.719-.516-.297-1.203-.297-.875 0-1.5.516-.625.5-.907 1.39h4.735zm8.717 6.203q-1.438 0-2.579-.64-1.14-.642-1.78-1.798-.641-1.156-.641-2.61 0-1.468.64-2.609.64-1.14 1.781-1.796 1.141-.657 2.579-.657 1.578 0 2.718.688 1.141.672 1.641 1.922l-2.234.937q-.594-1.265-2.125-1.265-1.125 0-1.844.765-.719.766-.719 2.016 0 1.265.719 2.031.719.766 1.844.766 1.546 0 2.234-1.344l2.219.969q-.61 1.25-1.75 1.937-1.14.688-2.703.688zm9.643 0q-1.719 0-2.61-1.063-.89-1.062-.89-2.969v-5.78h2.437v5.484q0 .968.469 1.53.469.548 1.234.548 1.047 0 1.657-.766.609-.766.609-1.953v-4.844h2.453v9.516h-2.297v-1.188h-.156q-.422.688-1.203 1.094-.766.39-1.703.39zm11.878-.14q-.703 0-1.297-.22-.594-.218-.969-.593-.875-.844-.875-2.391V149.8h-1.672v-2.094h1.672v-2.687h2.438v2.687h2.328v2.094h-2.328v3.937q0 .72.312 1.047.266.297.907.297.343 0 .578-.094.234-.093.61-.328v2.391q-.798.328-1.704.328zm8.126.14q-1.421 0-2.562-.64-1.14-.657-1.781-1.798-.641-1.156-.641-2.594 0-1.359.625-2.53.64-1.173 1.75-1.86 1.125-.688 2.516-.688 1.468 0 2.53.641 1.063.625 1.61 1.734.563 1.094.563 2.438 0 .422-.063.828h-7.14q.187 1.125.906 1.719.719.593 1.719.593.843 0 1.453-.359.61-.375.953-.984l1.984.968q-1.453 2.532-4.422 2.532zm2.25-6.203q-.03-.454-.328-.891-.281-.438-.797-.719-.515-.297-1.203-.297-.875 0-1.5.516-.625.5-.906 1.39h4.734zm3.045 5.906zm10.038.297q-1.438 0-2.578-.64-1.14-.642-1.782-1.798-.64-1.156-.64-2.61 0-1.468.64-2.609.641-1.14 1.782-1.796 1.14-.657 2.578-.657 1.578 0 2.719.688 1.14.672 1.64 1.922l-2.234.937q-.594-1.265-2.125-1.265-1.125 0-1.844.765-.719.766-.719 2.016 0 1.265.72 2.031.718.766 1.843.766 1.547 0 2.234-1.344l2.219.969q-.61 1.25-1.75 1.937-1.14.688-2.703.688zm10.768 0q-1.484 0-2.64-.657-1.157-.671-1.798-1.812-.64-1.156-.64-2.578t.64-2.578q.641-1.157 1.797-1.813 1.157-.672 2.641-.672 1.453 0 2.61.672 1.156.656 1.796 1.813.64 1.156.64 2.578t-.64 2.578q-.64 1.14-1.797 1.812-1.156.657-2.609.657zm0-2.25q.703 0 1.297-.328.61-.344.953-.985.36-.64.36-1.484t-.36-1.469q-.344-.64-.953-.969-.594-.343-1.297-.343-.719 0-1.313.343-.593.328-.968.97-.36.624-.36 1.468 0 .828.36 1.484.375.64.968.985.594.328 1.313.328zm11.005 2.25q-1.281 0-2.344-.64-1.047-.642-1.656-1.782-.61-1.156-.61-2.625t.61-2.625q.61-1.156 1.656-1.797 1.063-.64 2.344-.64.969 0 1.719.421.75.422 1.14 1.031h.14l-.14-1.343v-3.657h2.422v13.36h-2.281v-1.14h-.14q-.376.624-1.141 1.03-.75.407-1.72.407zm.406-2.25q.688 0 1.281-.36.61-.359.953-.984.36-.64.36-1.453 0-.828-.36-1.453-.343-.64-.953-.985-.593-.343-1.28-.343-.673 0-1.267.343-.593.344-.953.985-.359.625-.359 1.453 0 .812.36 1.453.359.625.952.984.594.36 1.266.36zm11.74 2.25q-1.42 0-2.562-.64-1.14-.657-1.78-1.798-.641-1.156-.641-2.594 0-1.359.625-2.53.64-1.173 1.75-1.86 1.125-.688 2.515-.688 1.469 0 2.531.641 1.063.625 1.61 1.734.562 1.094.562 2.438 0 .422-.062.828h-7.14q.187 1.125.905 1.719.72.593 1.72.593.843 0 1.452-.359.61-.375.953-.984l1.985.968q-1.453 2.532-4.422 2.532zm2.251-6.203q-.031-.454-.328-.891-.281-.438-.797-.719-.516-.297-1.203-.297-.875 0-1.5.516-.625.5-.906 1.39h4.734z"/><path d="M82.67 176.35h394.708v46.046H82.669z"/><path fill="#666" d="M93.888 195.847h-1.703v-2.094h1.703v-.515q0-1.625.969-2.547.969-.922 2.547-.922.89 0 1.547.203v2.39q-.36-.155-.641-.234-.266-.078-.61-.078-.624 0-1 .36-.359.36-.359.968v.375h2.328v2.094h-2.328v7.422h-2.453v-7.422zm9.596 7.719q-1.516 0-2.485-.875-.968-.89-.968-2.328 0-.953.5-1.672.5-.734 1.375-1.125.89-.39 1.953-.39 1.468 0 2.515.421v-.406q0-.781-.593-1.266-.579-.484-1.579-.484-.671 0-1.296.312-.625.297-1.032.797l-1.562-1.234q.687-.89 1.734-1.375 1.047-.484 2.266-.484 2.187 0 3.328 1.015 1.14 1 1.14 2.938v5.86h-2.406v-.97h-.156q-.422.563-1.125.922-.703.344-1.61.344zm.578-1.906q1.062 0 1.687-.672.625-.688.625-1.594-.953-.453-2-.453-1.906 0-1.906 1.422 0 .578.406.937.422.36 1.188.36zm10.591 1.906q-1.734 0-2.813-.703-1.062-.719-1.5-1.844l2.188-.953q.297.672.844 1.016.547.343 1.281.343.672 0 1.11-.218.452-.22.452-.704 0-.468-.406-.687-.406-.234-1.234-.422l-1.11-.25q-1.156-.281-1.921-1.016-.766-.734-.766-1.843 0-.813.484-1.47.5-.655 1.344-1 .86-.358 1.875-.358 2.953 0 3.938 2.062l-2.079.922q-.562-1-1.796-1-.641 0-1.016.234-.36.22-.36.578 0 .672 1.266 1.016l1.39.328q1.423.36 2.141 1.094.72.719.72 1.781 0 .906-.532 1.61-.531.703-1.453 1.093t-2.047.39zm9.937-.14q-.703 0-1.297-.22-.594-.218-.969-.593-.875-.844-.875-2.39v-4.376h-1.671v-2.094h1.671v-2.687h2.438v2.687h2.328v2.094h-2.328v3.938q0 .718.312 1.047.266.296.907.296.343 0 .578-.093.234-.094.61-.328v2.39q-.798.328-1.704.328zm8.126.14q-1.421 0-2.562-.64-1.14-.657-1.781-1.798-.64-1.156-.64-2.593 0-1.36.624-2.532.64-1.171 1.75-1.859 1.125-.687 2.516-.687 1.468 0 2.53.64 1.063.625 1.61 1.735.563 1.093.563 2.437 0 .422-.063.828h-7.14q.187 1.125.906 1.719.719.594 1.719.594.843 0 1.453-.36.61-.375.953-.984l1.984.969q-1.453 2.53-4.422 2.53zm2.25-6.203q-.03-.453-.328-.89-.28-.438-.797-.72-.515-.296-1.203-.296-.875 0-1.5.515-.625.5-.906 1.39h4.734zm4.233-3.61h2.297v1.266h.156q.36-.672 1.094-1.11.75-.437 1.64-.437.657 0 1.204.203v2.453q-.5-.187-.86-.265-.344-.094-.734-.094-1.078 0-1.719.781-.625.782-.625 1.985v4.734h-2.453v-9.516zm6.779 9.516zm9.693.156q-.703 0-1.297-.218-.593-.22-.968-.594-.875-.844-.875-2.39v-4.376h-1.672v-2.094h1.672v-2.687h2.437v2.687h2.328v2.094h-2.328v3.938q0 .718.313 1.047.265.296.906.296.344 0 .578-.093.234-.094.61-.328v2.39q-.797.328-1.704.328zm8.22.14q-1.484 0-2.64-.655-1.156-.672-1.797-1.813-.64-1.156-.64-2.578t.64-2.578q.64-1.156 1.797-1.813 1.156-.671 2.64-.671 1.454 0 2.61.671 1.156.657 1.797 1.813.64 1.156.64 2.578t-.64 2.578q-.64 1.14-1.797 1.813-1.156.656-2.61.656zm0-2.25q.704 0 1.297-.327.61-.344.954-.985.359-.64.359-1.484t-.36-1.469q-.343-.64-.953-.968-.593-.344-1.296-.344-.72 0-1.313.344-.594.328-.969.968-.36.625-.36 1.47 0 .827.36 1.483.375.641.969.985.594.328 1.313.328zm5.724 1.954zm9.944 4.328q-1.813 0-3.016-.812-1.187-.813-1.594-1.953l2.297-.922q.297.703.907 1.11.625.42 1.406.42 1.156 0 1.828-.718.687-.703.687-2.015v-.75h-.14q-.453.64-1.188.984-.718.328-1.656.328-1.172 0-2.187-.61-1.016-.609-1.641-1.718-.61-1.11-.61-2.578 0-1.469.61-2.578.625-1.11 1.64-1.72 1.016-.608 2.188-.608.938 0 1.656.343.735.328 1.188.97h.14v-1.017h2.36v8.86q0 1.531-.61 2.64-.593 1.125-1.703 1.735-1.093.61-2.562.61zm.031-6.547q1.031 0 1.75-.718.734-.72.734-1.97 0-1.28-.718-1.984-.72-.703-1.766-.703-1.031 0-1.766.72-.734.702-.734 1.968 0 1.265.734 1.984.735.703 1.766.703zm11.688 2.516q-1.421 0-2.562-.64-1.14-.657-1.781-1.798-.64-1.156-.64-2.593 0-1.36.624-2.532.64-1.171 1.75-1.859 1.125-.687 2.516-.687 1.468 0 2.53.64 1.063.625 1.61 1.735.563 1.093.563 2.437 0 .422-.063.828h-7.14q.187 1.125.906 1.719.719.594 1.719.594.843 0 1.453-.36.61-.375.953-.984l1.984.969q-1.453 2.53-4.422 2.53zm2.25-6.203q-.03-.453-.328-.89-.28-.438-.797-.72-.515-.296-1.203-.296-.875 0-1.5.515-.625.5-.906 1.39h4.734zm4.233-3.61h2.297v1.188h.156q.422-.688 1.203-1.078.797-.406 1.703-.406 1.719 0 2.61 1.046.906 1.047.906 2.86v5.906h-2.453v-5.61q0-.921-.469-1.421t-1.297-.5q-1 0-1.61.765-.593.766-.593 1.922v4.844h-2.453v-9.516zm15.644 9.813q-1.422 0-2.563-.64-1.14-.657-1.781-1.798-.64-1.156-.64-2.593 0-1.36.624-2.532.641-1.171 1.75-1.859 1.125-.687 2.516-.687 1.469 0 2.531.64 1.063.625 1.61 1.735.562 1.093.562 2.437 0 .422-.062.828h-7.141q.188 1.125.906 1.719.719.594 1.719.594.844 0 1.453-.36.61-.375.953-.984l1.985.969q-1.453 2.53-4.422 2.53zm2.25-6.203q-.031-.453-.328-.89-.282-.438-.797-.72-.516-.296-1.203-.296-.875 0-1.5.515-.625.5-.907 1.39h4.735zm4.232-3.61h2.297v1.266h.156q.36-.672 1.094-1.11.75-.437 1.64-.437.657 0 1.204.203v2.453q-.5-.187-.86-.265-.343-.094-.734-.094-1.078 0-1.719.781-.625.782-.625 1.985v4.734h-2.453v-9.516zm10.888 9.813q-1.515 0-2.484-.875-.969-.89-.969-2.328 0-.953.5-1.672.5-.734 1.375-1.125.89-.39 1.953-.39 1.47 0 2.516.421v-.406q0-.781-.594-1.266-.578-.484-1.578-.484-.672 0-1.297.312-.625.297-1.031.797l-1.563-1.234q.688-.89 1.735-1.375 1.047-.484 2.265-.484 2.188 0 3.329 1.015 1.14 1 1.14 2.938v5.86h-2.406v-.97h-.156q-.422.563-1.125.922-.703.344-1.61.344zm.578-1.906q1.063 0 1.688-.672.625-.688.625-1.594-.953-.453-2-.453-1.906 0-1.906 1.422 0 .578.406.937.422.36 1.187.36zm11.107 1.765q-.703 0-1.297-.218-.593-.22-.968-.594-.875-.844-.875-2.39v-4.376h-1.672v-2.094h1.672v-2.687h2.437v2.687h2.328v2.094h-2.328v3.938q0 .718.313 1.047.265.296.906.296.344 0 .578-.093.234-.094.61-.328v2.39q-.798.328-1.704.328zm8.127.14q-1.422 0-2.563-.64-1.14-.656-1.781-1.797-.64-1.156-.64-2.593 0-1.36.624-2.532.64-1.171 1.75-1.859 1.125-.687 2.516-.687 1.469 0 2.531.64 1.063.625 1.61 1.735.562 1.093.562 2.437 0 .422-.062.828h-7.141q.187 1.125.906 1.719.719.594 1.719.594.844 0 1.453-.36.61-.375.953-.984l1.985.969q-1.454 2.53-4.422 2.53zm2.25-6.202q-.032-.453-.328-.89-.282-.438-.797-.72-.516-.296-1.203-.296-.875 0-1.5.515-.625.5-.907 1.39h4.735zm3.045 5.906zm10.037.297q-1.437 0-2.578-.64-1.14-.641-1.781-1.798-.64-1.156-.64-2.609 0-1.469.64-2.61.64-1.14 1.78-1.796 1.142-.656 2.58-.656 1.577 0 2.718.687 1.14.672 1.64 1.922l-2.234.937q-.594-1.265-2.125-1.265-1.125 0-1.844.765-.718.766-.718 2.016 0 1.266.718 2.031.72.766 1.844.766 1.547 0 2.234-1.344l2.22.969q-.61 1.25-1.75 1.937-1.141.688-2.704.688zm10.768 0q-1.484 0-2.64-.656-1.157-.672-1.797-1.813-.64-1.156-.64-2.578t.64-2.578q.64-1.156 1.797-1.813 1.156-.671 2.64-.671 1.453 0 2.61.671 1.156.657 1.796 1.813.641 1.156.641 2.578t-.64 2.578q-.641 1.14-1.797 1.813-1.157.656-2.61.656zm0-2.25q.703 0 1.297-.328.61-.344.953-.985.36-.64.36-1.484t-.36-1.469q-.344-.64-.953-.968-.594-.344-1.297-.344-.719 0-1.312.344-.594.328-.969.968-.36.625-.36 1.47 0 .827.36 1.483.375.641.969.985.593.328 1.312.328zm11.005 2.25q-1.281 0-2.344-.64-1.047-.641-1.656-1.782-.61-1.156-.61-2.625t.61-2.625q.61-1.156 1.656-1.797 1.063-.64 2.344-.64.969 0 1.719.421.75.422 1.14 1.032h.141l-.14-1.344v-3.656h2.421v13.36h-2.28v-1.142h-.142q-.375.625-1.14 1.032-.75.406-1.719.406zm.406-2.25q.688 0 1.282-.36.609-.359.953-.984.36-.64.36-1.453 0-.828-.36-1.453-.344-.64-.953-.984-.594-.344-1.282-.344-.672 0-1.265.344-.594.343-.953.984-.36.625-.36 1.453 0 .813.36 1.453.359.625.953.985.593.359 1.265.359zm11.741 2.25q-1.422 0-2.562-.64-1.141-.657-1.782-1.798-.64-1.156-.64-2.593 0-1.36.625-2.532.64-1.171 1.75-1.859 1.125-.687 2.515-.687 1.47 0 2.532.64 1.062.625 1.609 1.735.563 1.093.563 2.437 0 .422-.063.828h-7.14q.187 1.125.906 1.719.718.594 1.718.594.844 0 1.454-.36.609-.375.953-.984l1.984.969q-1.453 2.53-4.422 2.53zm2.25-6.203q-.031-.453-.328-.89-.281-.438-.797-.72-.515-.296-1.203-.296-.875 0-1.5.515-.625.5-.906 1.39h4.734z"/><path d="M82.67 176.35l634.96-.662"/><path stroke="#666" stroke-width="4" stroke-linejoin="round" stroke-linecap="butt" d="M97.83 176.334l604.64-.63"/><path fill="#666" stroke="#666" stroke-width="4" stroke-linecap="butt" d="M97.836 182.914l-13.16.014-.014-13.16 13.16-.014.014 13.16zm604.627-13.79l13.16-.013.014 13.16-13.16.013-.014-13.16z"/><path fill="#c00" d="M627.251 176.019a7.528 7.528 0 1 1 15.055 0 7.528 7.528 0 1 1-15.055 0z" fill-rule="evenodd"/><path d="M634.779 229.609v-46.047"/><path stroke="#c00" stroke-width="4" stroke-linejoin="round" stroke-linecap="butt" d="M634.779 229.609v-46.047"/><path fill="#ea4335" d="M533.33 243.824c0-7.85 6.364-14.215 14.215-14.215h174.467a14.215 14.215 0 0 1 14.216 14.215v56.861c0 7.85-6.365 14.215-14.216 14.215H547.545c-7.85 0-14.215-6.364-14.215-14.215z" fill-rule="evenodd"/><path stroke="#c00" stroke-linejoin="round" stroke-linecap="butt" d="M533.33 243.824h0c0-7.85 6.364-14.215 14.215-14.215h174.467a14.215 14.215 0 0 1 14.216 14.215v56.861c0 7.85-6.365 14.215-14.216 14.215H547.545c-7.85 0-14.215-6.364-14.215-14.215z"/><path fill="#f3f3f3" d="M596.169 268.206h-3.734v-2.39h9.984v2.39h-3.734v10.969h-2.516v-10.97zm11.36 11.265q-1.718 0-2.609-1.062-.89-1.063-.89-2.969v-5.781h2.437v5.484q0 .97.469 1.532.468.546 1.234.546 1.047 0 1.656-.765.61-.766.61-1.953v-4.844h2.453v9.516h-2.297v-1.188h-.156q-.422.688-1.203 1.094-.766.39-1.704.39zm7.738-9.812h2.297v1.266h.156q.36-.672 1.094-1.11.75-.437 1.64-.437.657 0 1.204.203v2.453q-.5-.188-.86-.266-.343-.093-.734-.093-1.078 0-1.719.78-.625.782-.625 1.985v4.735h-2.453v-9.516zm13.279 9.812q-.985 0-1.735-.406-.75-.406-1.125-1.031h-.156v1.14h-2.297v-13.359h2.453v3.656l-.156 1.344h.156q.391-.61 1.125-1.031.75-.422 1.735-.422 1.281 0 2.328.64 1.062.641 1.656 1.798.594 1.156.594 2.625 0 1.468-.594 2.625-.594 1.14-1.656 1.78-1.047.641-2.328.641zm-.438-2.25q.688 0 1.282-.359.609-.36.953-.984.36-.64.36-1.453 0-.829-.36-1.454-.344-.64-.953-.984-.594-.344-1.282-.344-.672 0-1.265.344-.594.344-.953.984-.36.625-.36 1.454 0 .812.36 1.453.359.625.953.984.593.36 1.265.36zm11.46 2.25q-1.484 0-2.64-.656-1.157-.672-1.798-1.812-.64-1.157-.64-2.578 0-1.422.64-2.579.641-1.156 1.797-1.812 1.157-.672 2.64-.672 1.454 0 2.61.672 1.157.656 1.797 1.812.64 1.157.64 2.579 0 1.421-.64 2.578-.64 1.14-1.797 1.812-1.156.656-2.61.656zm0-2.25q.703 0 1.297-.328.61-.343.953-.984.36-.64.36-1.484t-.36-1.47q-.344-.64-.953-.968-.594-.344-1.297-.344-.719 0-1.313.344-.593.328-.968.969-.36.625-.36 1.469 0 .828.36 1.484.375.64.968.984.594.328 1.313.328zm7.255-11.406h8.468v2.39h-5.953v3.25h5.36v2.391h-5.36v5.329h-2.515v-13.36zm13.268 13.656q-1.516 0-2.484-.875-.97-.89-.97-2.328 0-.953.5-1.672.5-.734 1.376-1.125.89-.39 1.953-.39 1.469 0 2.516.422v-.407q0-.78-.594-1.265-.578-.485-1.578-.485-.672 0-1.297.313-.625.297-1.031.797l-1.563-1.235q.688-.89 1.734-1.375 1.047-.484 2.266-.484 2.188 0 3.328 1.016 1.14 1 1.14 2.937v5.86h-2.405v-.97h-.157q-.422.563-1.125.923-.703.343-1.61.343zm.578-1.906q1.063 0 1.688-.672.625-.687.625-1.593-.954-.454-2-.454-1.907 0-1.907 1.422 0 .578.407.938.421.36 1.187.36zm6.966-7.906h2.297v1.187h.156q.422-.687 1.203-1.078.797-.406 1.704-.406 1.718 0 2.609 1.047.906 1.047.906 2.86v5.906h-2.453v-5.61q0-.922-.469-1.422-.468-.5-1.297-.5-1 0-1.609.766-.594.766-.594 1.922v4.844h-2.453v-9.516z"/><path fill="#274e13" d="M212.495 176.019a7.528 7.528 0 1 1 15.055 0 7.528 7.528 0 1 1-15.055 0z" fill-rule="evenodd"/><path d="M220.023 116.755v51.748"/><path stroke="#274e13" stroke-width="4" stroke-linejoin="round" stroke-linecap="butt" d="M220.023 116.755v51.748"/><path fill="#38761d" d="M126.92 54.602c0-6.865 5.566-12.43 12.43-12.43h161.345a12.43 12.43 0 0 1 12.43 12.43v49.722c0 6.865-5.565 12.43-12.43 12.43H139.35c-6.865 0-12.43-5.565-12.43-12.43z" fill-rule="evenodd"/><path stroke="#274e13" stroke-linejoin="round" stroke-linecap="butt" d="M126.92 54.602h0c0-6.865 5.566-12.43 12.43-12.43h161.345a12.43 12.43 0 0 1 12.43 12.43v49.722c0 6.865-5.565 12.43-12.43 12.43H139.35h0c-6.865 0-12.43-5.565-12.43-12.43z"/><path fill="#f3f3f3" d="M187.012 73.024h2.516v13.36h-2.516v-13.36zm9.606 17.687q-1.812 0-3.015-.812-1.188-.813-1.594-1.953l2.297-.922q.297.703.906 1.11.625.421 1.406.421 1.157 0 1.829-.719.687-.703.687-2.015v-.75h-.14q-.454.64-1.188.984-.719.328-1.656.328-1.172 0-2.188-.61-1.015-.609-1.64-1.718-.61-1.11-.61-2.578 0-1.469.61-2.578.625-1.11 1.64-1.719 1.016-.61 2.188-.61.937 0 1.656.344.734.329 1.187.97h.141v-1.016h2.36v8.859q0 1.531-.61 2.64-.594 1.126-1.703 1.735-1.094.61-2.563.61zm.032-6.547q1.031 0 1.75-.718.734-.719.734-1.969 0-1.281-.719-1.984-.718-.704-1.765-.704-1.032 0-1.766.72-.734.702-.734 1.968t.734 1.984q.734.703 1.766.703zm7.22-7.296h2.296v1.187h.156q.422-.687 1.204-1.078.796-.406 1.703-.406 1.718 0 2.61 1.047.905 1.046.905 2.859v5.906h-2.453v-5.61q0-.921-.469-1.421-.468-.5-1.296-.5-1 0-1.61.766-.594.765-.594 1.921v4.844h-2.453v-9.515zm12.565-1.047q-.656 0-1.125-.469t-.469-1.11q0-.656.47-1.109.468-.469 1.124-.469.656 0 1.11.47.453.452.453 1.109 0 .64-.454 1.109-.453.469-1.109.469zm-1.234 1.047h2.437v9.515h-2.437v-9.515zm9.115 9.671q-.704 0-1.297-.218-.594-.219-.97-.594-.874-.844-.874-2.39V78.96h-1.672v-2.093h1.672V74.18h2.437v2.688h2.329v2.093h-2.329V82.9q0 .719.313 1.047.266.297.906.297.344 0 .578-.094.235-.094.61-.328v2.39q-.797.328-1.703.328zm5.048-10.718q-.656 0-1.125-.469t-.469-1.11q0-.656.469-1.109.469-.469 1.125-.469t1.11.47q.452.452.452 1.109 0 .64-.453 1.109t-1.11.469zm-1.235 1.047h2.438v9.515h-2.438v-9.515zm9.537 9.812q-1.484 0-2.64-.656-1.157-.672-1.797-1.813-.64-1.156-.64-2.578t.64-2.578q.64-1.156 1.797-1.812 1.156-.672 2.64-.672 1.453 0 2.61.672 1.156.656 1.796 1.812.641 1.156.641 2.578t-.64 2.578q-.641 1.141-1.797 1.813-1.157.656-2.61.656zm0-2.25q.703 0 1.297-.328.61-.344.953-.984.36-.641.36-1.485 0-.844-.36-1.469-.344-.64-.953-.968-.594-.344-1.297-.344-.719 0-1.312.344-.594.328-.969.968-.36.625-.36 1.47 0 .827.36 1.484.375.64.969.984.593.328 1.312.328zm6.911-7.562h2.297v1.187h.156q.422-.687 1.204-1.078.796-.406 1.703-.406 1.718 0 2.61 1.047.905 1.046.905 2.859v5.906H251v-5.61q0-.921-.469-1.421-.468-.5-1.296-.5-1 0-1.61.766-.594.765-.594 1.921v4.844h-2.453v-9.515z"/></g></svg>