<svg viewBox="0 0 818.898 357.071" fill="none" stroke-linecap="square" stroke-miterlimit="10" xmlns="http://www.w3.org/2000/svg"><clipPath id="a"><path d="M0 0h818.898v357.07H0V0z"/></clipPath><g clip-path="url(#a)"><path d="M0 0h818.898v357.07H0zm100.717 178.867l634.96-.661"/><path stroke="#666" stroke-width="4" stroke-linejoin="round" stroke-linecap="butt" d="M115.877 178.851l604.64-.63"/><path fill="#666" stroke="#666" stroke-width="4" stroke-linecap="butt" d="M115.883 185.431l-13.16.014-.013-13.16 13.16-.014.013 13.16zm604.627-13.79l13.16-.013.014 13.16-13.16.013-.014-13.16z"/><path d="M100.717 178.866h394.708v46.047H100.717z"/><path fill="#666" d="M111.935 198.364h-1.703v-2.093h1.703v-.516q0-1.625.969-2.547.969-.922 2.547-.922.89 0 1.547.203v2.39q-.36-.155-.64-.233-.266-.079-.61-.079-.625 0-1 .36-.36.36-.36.969v.375h2.329v2.093h-2.329v7.422h-2.453v-7.422zm9.596 7.719q-1.516 0-2.484-.875-.97-.89-.97-2.328 0-.953.5-1.672.5-.734 1.376-1.125.89-.39 1.953-.39 1.469 0 2.516.421v-.406q0-.781-.594-1.266-.578-.484-1.578-.484-.672 0-1.297.313-.625.296-1.031.796l-1.563-1.234q.688-.89 1.734-1.375 1.047-.484 2.266-.484 2.188 0 3.328 1.015 1.14 1 1.14 2.938v5.86h-2.405v-.97h-.157q-.422.563-1.125.922-.703.344-1.61.344zm.578-1.906q1.063 0 1.688-.672.625-.688.625-1.594-.954-.453-2-.453-1.907 0-1.907 1.422 0 .578.407.937.421.36 1.187.36zm10.591 1.906q-1.734 0-2.812-.703-1.063-.719-1.5-1.844l2.187-.953q.297.672.844 1.016.547.343 1.281.343.672 0 1.11-.218.453-.22.453-.703 0-.47-.407-.688-.406-.234-1.234-.422l-1.11-.25q-1.156-.281-1.921-1.015-.766-.735-.766-1.844 0-.813.485-1.469.5-.656 1.343-1 .86-.36 1.875-.36 2.953 0 3.938 2.063l-2.078.922q-.563-1-1.797-1-.64 0-1.016.234-.36.22-.36.579 0 .671 1.266 1.015l1.391.328q1.422.36 2.14 1.094.72.719.72 1.781 0 .907-.532 1.61-.531.703-1.453 1.093-.922.391-2.047.391zm9.937-.14q-.703 0-1.297-.22-.593-.218-.968-.593-.875-.844-.875-2.39v-4.376h-1.672v-2.093h1.672v-2.688h2.437v2.688h2.328v2.093h-2.328v3.938q0 .719.313 1.047.265.297.906.297.344 0 .578-.094.234-.094.61-.328v2.39q-.797.328-1.704.328zm8.127.14q-1.422 0-2.563-.64-1.14-.657-1.781-1.797-.64-1.157-.64-2.594 0-1.36.624-2.531.64-1.172 1.75-1.86 1.125-.687 2.516-.687 1.469 0 2.531.64 1.063.625 1.61 1.735.562 1.093.562 2.437 0 .422-.062.828h-7.141q.187 1.125.906 1.719.719.594 1.719.594.844 0 1.453-.36.61-.375.953-.984l1.985.969q-1.454 2.531-4.422 2.531zm2.25-6.203q-.032-.453-.328-.89-.282-.438-.797-.72-.516-.296-1.203-.296-.875 0-1.5.515-.625.5-.907 1.39h4.735zm4.232-3.61h2.297v1.266h.156q.36-.672 1.094-1.11.75-.437 1.64-.437.657 0 1.204.203v2.454q-.5-.188-.86-.266-.343-.094-.734-.094-1.078 0-1.719.781-.625.782-.625 1.985v4.734h-2.453v-9.515zm6.779 9.516zm9.694.156q-.704 0-1.297-.218-.594-.22-.97-.594-.874-.844-.874-2.39v-4.376h-1.672v-2.093h1.672v-2.688h2.437v2.688h2.329v2.093h-2.329v3.938q0 .719.313 1.047.266.297.906.297.344 0 .578-.094.235-.094.61-.328v2.39q-.797.328-1.703.328zm8.22.141q-1.485 0-2.64-.656-1.157-.672-1.798-1.813-.64-1.156-.64-2.578t.64-2.578q.64-1.156 1.797-1.812 1.156-.672 2.64-.672 1.454 0 2.61.672 1.156.656 1.797 1.812.64 1.156.64 2.578t-.64 2.578q-.64 1.14-1.797 1.813-1.156.656-2.61.656zm0-2.25q.703 0 1.297-.328.609-.344.953-.984.36-.641.36-1.485 0-.844-.36-1.469-.344-.64-.953-.968-.594-.344-1.297-.344-.719 0-1.313.344-.593.328-.968.968-.36.625-.36 1.47 0 .827.36 1.484.375.64.968.984.594.328 1.313.328zm5.723 1.953zm9.944 4.328q-1.812 0-3.016-.812-1.187-.813-1.593-1.953l2.297-.922q.296.703.906 1.11.625.421 1.406.421 1.156 0 1.828-.719.688-.703.688-2.015v-.75h-.141q-.453.64-1.187.984-.72.328-1.657.328-1.172 0-2.187-.61-1.016-.609-1.64-1.718-.61-1.11-.61-2.578 0-1.469.61-2.578.624-1.11 1.64-1.719 1.015-.61 2.187-.61.938 0 1.657.344.734.329 1.187.97h.14v-1.016h2.36v8.859q0 1.531-.61 2.64-.593 1.126-1.702 1.735-1.094.61-2.563.61zm.031-6.547q1.032 0 1.75-.718.735-.72.735-1.97 0-1.28-.72-1.983-.718-.704-1.765-.704-1.031 0-1.765.72-.735.702-.735 1.968t.735 1.984q.734.703 1.765.703zm11.689 2.516q-1.422 0-2.563-.64-1.14-.657-1.781-1.797-.64-1.157-.64-2.594 0-1.36.624-2.531.64-1.172 1.75-1.86 1.125-.687 2.516-.687 1.469 0 2.531.64 1.063.625 1.61 1.735.562 1.093.562 2.437 0 .422-.062.828h-7.141q.187 1.125.906 1.719.719.594 1.719.594.844 0 1.453-.36.61-.375.953-.984l1.985.969q-1.454 2.531-4.422 2.531zm2.25-6.203q-.032-.453-.328-.89-.282-.438-.797-.72-.516-.296-1.203-.296-.875 0-1.5.515-.625.5-.907 1.39h4.735zm4.232-3.61h2.297v1.188h.156q.422-.687 1.203-1.078.797-.406 1.704-.406 1.718 0 2.609 1.047.906 1.046.906 2.859v5.906h-2.453v-5.61q0-.921-.469-1.421-.468-.5-1.297-.5-1 0-1.609.766-.594.765-.594 1.921v4.844h-2.453v-9.515zm15.644 9.813q-1.422 0-2.563-.64-1.14-.657-1.78-1.797-.641-1.157-.641-2.594 0-1.36.625-2.531.64-1.172 1.75-1.86 1.125-.687 2.515-.687 1.469 0 2.531.64 1.063.625 1.61 1.735.562 1.093.562 2.437 0 .422-.062.828h-7.14q.187 1.125.905 1.719.72.594 1.72.594.843 0 1.452-.36.61-.375.953-.984l1.985.969q-1.453 2.531-4.422 2.531zm2.25-6.203q-.031-.453-.328-.89-.281-.438-.797-.72-.516-.296-1.203-.296-.875 0-1.5.515-.625.5-.906 1.39h4.734zm4.232-3.61h2.297v1.266h.157q.359-.672 1.093-1.11.75-.437 1.641-.437.656 0 1.203.203v2.454q-.5-.188-.86-.266-.343-.094-.734-.094-1.078 0-1.718.781-.625.782-.625 1.985v4.734h-2.454v-9.515zm10.889 9.813q-1.516 0-2.485-.875-.969-.89-.969-2.328 0-.953.5-1.672.5-.734 1.375-1.125.891-.39 1.954-.39 1.468 0 2.515.421v-.406q0-.781-.594-1.266-.578-.484-1.578-.484-.672 0-1.297.313-.625.296-1.03.796l-1.563-1.234q.687-.89 1.734-1.375 1.047-.484 2.266-.484 2.187 0 3.328 1.015 1.14 1 1.14 2.938v5.86h-2.406v-.97h-.156q-.422.563-1.125.922-.703.344-1.61.344zm.578-1.906q1.062 0 1.687-.672.625-.688.625-1.594-.953-.453-2-.453-1.906 0-1.906 1.422 0 .578.406.937.422.36 1.188.36zm11.106 1.765q-.703 0-1.296-.218-.594-.22-.97-.594-.874-.844-.874-2.39v-4.376h-1.672v-2.093h1.672v-2.688h2.437v2.688h2.328v2.093h-2.328v3.938q0 .719.313 1.047.265.297.906.297.344 0 .578-.094.235-.094.61-.328v2.39q-.797.328-1.704.328zm8.127.141q-1.422 0-2.563-.64-1.14-.657-1.78-1.797-.641-1.157-.641-2.594 0-1.36.625-2.531.64-1.172 1.75-1.86 1.125-.687 2.515-.687 1.469 0 2.531.64 1.063.625 1.61 1.735.562 1.093.562 2.437 0 .422-.062.828h-7.14q.187 1.125.905 1.719.72.594 1.72.594.843 0 1.452-.36.61-.375.953-.984l1.985.969q-1.453 2.531-4.422 2.531zm2.25-6.203q-.031-.453-.328-.89-.281-.438-.797-.72-.516-.296-1.203-.296-.875 0-1.5.515-.625.5-.906 1.39h4.734zm3.045 5.906zm10.037.297q-1.437 0-2.578-.64-1.14-.641-1.781-1.797-.64-1.157-.64-2.61 0-1.469.64-2.61.64-1.14 1.781-1.796 1.14-.656 2.578-.656 1.578 0 2.72.687 1.14.672 1.64 1.922l-2.235.938q-.593-1.266-2.125-1.266-1.125 0-1.843.766-.72.765-.72 2.015 0 1.266.72 2.031.718.766 1.843.766 1.547 0 2.235-1.344l2.218.969q-.609 1.25-1.75 1.938-1.14.687-2.703.687zm10.768 0q-1.484 0-2.64-.656-1.156-.672-1.797-1.813-.64-1.156-.64-2.578t.64-2.578q.64-1.156 1.797-1.812 1.156-.672 2.64-.672 1.454 0 2.61.672 1.156.656 1.797 1.812.64 1.156.64 2.578t-.64 2.578q-.64 1.14-1.797 1.813-1.156.656-2.61.656zm0-2.25q.704 0 1.297-.328.61-.344.953-.984.36-.641.36-1.485 0-.844-.36-1.469-.343-.64-.953-.968-.593-.344-1.297-.344-.718 0-1.312.344-.594.328-.969.968-.36.625-.36 1.47 0 .827.36 1.484.375.64.969.984.594.328 1.312.328zm11.005 2.25q-1.28 0-2.343-.64-1.047-.641-1.657-1.782-.61-1.156-.61-2.625t.61-2.625q.61-1.156 1.657-1.797 1.062-.64 2.343-.64.97 0 1.72.422.75.421 1.14 1.03h.14l-.14-1.343v-3.656h2.422v13.36h-2.282v-1.141h-.14q-.375.625-1.14 1.03-.75.407-1.72.407zm.407-2.25q.687 0 1.28-.36.61-.359.954-.984.36-.64.36-1.453 0-.828-.36-1.453-.344-.64-.953-.984-.594-.344-1.281-.344-.672 0-1.266.344-.594.343-.953.984-.36.625-.36 1.453 0 .813.36 1.453.36.625.953.985.594.359 1.266.359zm11.74 2.25q-1.421 0-2.562-.64-1.14-.657-1.781-1.797-.641-1.157-.641-2.594 0-1.36.625-2.531.64-1.172 1.75-1.86 1.125-.687 2.516-.687 1.468 0 2.53.64 1.063.625 1.61 1.735.563 1.093.563 2.437 0 .422-.063.828h-7.14q.187 1.125.906 1.719.719.594 1.719.594.843 0 1.453-.36.61-.375.953-.984l1.984.969q-1.453 2.531-4.422 2.531zm2.25-6.203q-.03-.453-.328-.89-.281-.438-.797-.72-.515-.296-1.203-.296-.875 0-1.5.515-.625.5-.906 1.39h4.734z"/><path d="M340.969 132.819h394.708v46.047H340.968z"/><path fill="#666" d="M524.815 152.317h-1.703v-2.094h1.703v-.515q0-1.625.969-2.547.969-.922 2.547-.922.89 0 1.547.203v2.39q-.36-.156-.641-.234-.266-.078-.61-.078-.624 0-1 .36-.359.359-.359.968v.375h2.328v2.094h-2.328v7.422h-2.453v-7.422zm9.596 7.719q-1.516 0-2.485-.875-.968-.89-.968-2.328 0-.953.5-1.672.5-.735 1.375-1.125.89-.39 1.953-.39 1.469 0 2.515.421v-.406q0-.781-.593-1.266-.578-.484-1.578-.484-.672 0-1.297.312-.625.297-1.032.797l-1.562-1.234q.687-.89 1.734-1.375t2.266-.485q2.187 0 3.328 1.016 1.14 1 1.14 2.938v5.859h-2.406v-.969h-.156q-.422.563-1.125.922-.703.344-1.61.344zm.578-1.906q1.062 0 1.687-.672.625-.688.625-1.594-.953-.453-2-.453-1.906 0-1.906 1.422 0 .578.406.937.422.36 1.188.36zm10.591 1.906q-1.734 0-2.812-.703-1.063-.72-1.5-1.844l2.187-.953q.297.672.844 1.015.547.344 1.281.344.672 0 1.11-.219.453-.218.453-.703 0-.468-.407-.687-.406-.235-1.234-.422l-1.11-.25q-1.156-.281-1.921-1.016-.766-.734-.766-1.843 0-.813.484-1.47.5-.655 1.344-1 .86-.359 1.875-.359 2.953 0 3.938 2.063l-2.078.922q-.563-1-1.797-1-.64 0-1.016.234-.36.219-.36.578 0 .672 1.266 1.016l1.39.328q1.423.36 2.142 1.094.718.719.718 1.781 0 .906-.53 1.61-.532.703-1.454 1.093-.922.39-2.047.39zm9.937-.14q-.703 0-1.297-.22-.594-.218-.969-.593-.875-.844-.875-2.391v-4.375h-1.671v-2.094h1.671v-2.687h2.438v2.687h2.328v2.094h-2.328v3.938q0 .718.312 1.046.266.297.907.297.343 0 .578-.093.234-.094.61-.329v2.391q-.798.328-1.704.328zm8.127.14q-1.422 0-2.563-.64-1.14-.657-1.781-1.798-.64-1.156-.64-2.593 0-1.36.624-2.532.64-1.172 1.75-1.86 1.125-.687 2.516-.687 1.469 0 2.531.641 1.063.625 1.61 1.734.562 1.094.562 2.438 0 .422-.063.828h-7.14q.187 1.125.906 1.719.719.594 1.719.594.844 0 1.453-.36.61-.375.953-.984l1.984.969q-1.453 2.53-4.421 2.53zm2.25-6.203q-.032-.453-.329-.891-.28-.437-.796-.719-.516-.297-1.204-.297-.875 0-1.5.516-.625.5-.906 1.39h4.735zm4.232-3.61h2.297v1.266h.156q.36-.672 1.094-1.11.75-.437 1.64-.437.657 0 1.204.203v2.453q-.5-.187-.86-.265-.343-.094-.734-.094-1.078 0-1.719.781-.625.781-.625 1.985v4.734h-2.453v-9.516zm6.779 9.516zm9.693.156q-.703 0-1.296-.219-.594-.218-.97-.593-.874-.844-.874-2.391v-4.375h-1.672v-2.094h1.672v-2.687h2.437v2.687h2.328v2.094h-2.328v3.938q0 .718.313 1.046.265.297.906.297.344 0 .578-.093.235-.094.61-.329v2.391q-.797.328-1.704.328zm8.22.14q-1.484 0-2.64-.655-1.156-.672-1.797-1.813-.64-1.156-.64-2.578t.64-2.578q.64-1.156 1.797-1.813 1.156-.672 2.64-.672 1.454 0 2.61.672 1.156.657 1.797 1.813.64 1.156.64 2.578t-.64 2.578q-.64 1.14-1.797 1.813-1.156.656-2.61.656zm0-2.25q.704 0 1.297-.327.61-.344.954-.985.359-.64.359-1.484t-.36-1.469q-.343-.64-.953-.969-.593-.343-1.296-.343-.72 0-1.313.343-.594.329-.969.97-.359.624-.359 1.468 0 .828.36 1.484.374.64.968.985.594.328 1.313.328zm5.724 1.954zm10.022.297q-1.422 0-2.562-.64-1.141-.657-1.782-1.798-.64-1.156-.64-2.593 0-1.36.625-2.532.64-1.172 1.75-1.86 1.125-.687 2.515-.687 1.469 0 2.532.641 1.062.625 1.609 1.734.562 1.094.562 2.438 0 .422-.062.828h-7.14q.187 1.125.906 1.719.718.594 1.718.594.844 0 1.453-.36.61-.375.954-.984l1.984.969q-1.453 2.53-4.422 2.53zm2.25-6.203q-.031-.453-.328-.891-.281-.437-.797-.719-.516-.297-1.203-.297-.875 0-1.5.516-.625.5-.906 1.39h4.734zm6.592 1.078l-3.281-4.688h2.89l1.813 2.719h.11l1.687-2.719h2.984l-3.328 4.688 3.328 4.828h-2.89l-1.829-2.781h-.11l-1.78 2.78h-2.891l3.297-4.827zm12.109 5.125q-1.422 0-2.563-.64-1.14-.657-1.78-1.798-.641-1.156-.641-2.593 0-1.36.625-2.532.64-1.172 1.75-1.86 1.125-.687 2.515-.687 1.469 0 2.531.641 1.063.625 1.61 1.734.562 1.094.562 2.438 0 .422-.062.828h-7.14q.187 1.125.905 1.719.72.594 1.72.594.843 0 1.452-.36.61-.375.953-.984l1.985.969q-1.453 2.53-4.422 2.53zm2.25-6.203q-.031-.453-.328-.891-.281-.437-.797-.719-.516-.297-1.203-.297-.875 0-1.5.516-.625.5-.906 1.39h4.734zm8.717 6.203q-1.438 0-2.578-.64-1.14-.641-1.782-1.798-.64-1.156-.64-2.61 0-1.468.64-2.608.641-1.141 1.782-1.797 1.14-.657 2.578-.657 1.578 0 2.719.688 1.14.672 1.64 1.922l-2.234.937q-.594-1.265-2.125-1.265-1.125 0-1.844.765-.719.766-.719 2.016 0 1.266.72 2.031.718.766 1.843.766 1.547 0 2.234-1.344l2.219.969q-.61 1.25-1.75 1.937-1.14.688-2.703.688zm9.643 0q-1.719 0-2.61-1.063-.89-1.062-.89-2.968v-5.782h2.437v5.485q0 .968.47 1.53.468.548 1.234.548 1.046 0 1.656-.766.61-.765.61-1.953v-4.844h2.452v9.516h-2.297v-1.188h-.156q-.422.688-1.203 1.094-.766.39-1.703.39zm11.878-.14q-.703 0-1.297-.22-.593-.218-.968-.593-.875-.844-.875-2.391v-4.375h-1.672v-2.094h1.672v-2.687h2.437v2.687h2.328v2.094H663.3v3.938q0 .718.313 1.046.265.297.906.297.344 0 .578-.093.234-.094.61-.329v2.391q-.798.328-1.704.328zm8.127.14q-1.422 0-2.563-.64-1.14-.657-1.781-1.798-.64-1.156-.64-2.593 0-1.36.624-2.532.64-1.172 1.75-1.86 1.125-.687 2.516-.687 1.469 0 2.531.641 1.063.625 1.61 1.734.562 1.094.562 2.438 0 .422-.063.828h-7.14q.187 1.125.906 1.719.719.594 1.719.594.844 0 1.453-.36.61-.375.953-.984l1.984.969q-1.453 2.53-4.421 2.53zm2.25-6.203q-.032-.453-.329-.891-.28-.437-.796-.719-.516-.297-1.204-.297-.875 0-1.5.516-.625.5-.906 1.39h4.735zm3.045 5.906zm10.037.297q-1.437 0-2.578-.64-1.14-.641-1.781-1.798-.64-1.156-.64-2.61 0-1.468.64-2.608.64-1.141 1.781-1.797 1.14-.657 2.578-.657 1.578 0 2.719.688 1.14.672 1.64 1.922l-2.234.937q-.594-1.265-2.125-1.265-1.125 0-1.844.765-.718.766-.718 2.016 0 1.266.718 2.031.72.766 1.844.766 1.547 0 2.234-1.344l2.22.969q-.61 1.25-1.75 1.937-1.141.688-2.704.688zm10.768 0q-1.484 0-2.64-.656-1.157-.672-1.797-1.813-.64-1.156-.64-2.578t.64-2.578q.64-1.156 1.797-1.813 1.156-.672 2.64-.672 1.453 0 2.61.672 1.156.657 1.796 1.813.641 1.156.641 2.578t-.64 2.578q-.641 1.14-1.797 1.813-1.157.656-2.61.656zm0-2.25q.703 0 1.297-.328.61-.344.953-.985.36-.64.36-1.484t-.36-1.469q-.344-.64-.953-.969-.594-.343-1.297-.343-.719 0-1.312.343-.594.329-.969.97-.36.624-.36 1.468 0 .828.36 1.484.375.64.969.985.593.328 1.312.328zm11.005 2.25q-1.281 0-2.344-.64-1.047-.641-1.656-1.782-.61-1.156-.61-2.625t.61-2.625q.61-1.156 1.656-1.797 1.063-.64 2.344-.64.969 0 1.719.421.75.422 1.14 1.032h.141l-.14-1.344v-3.656h2.421v13.359h-2.28v-1.14h-.142q-.375.624-1.14 1.03-.75.407-1.719.407zm.406-2.25q.688 0 1.282-.36.609-.359.953-.984.36-.64.36-1.453 0-.828-.36-1.453-.344-.64-.953-.985-.594-.343-1.282-.343-.672 0-1.265.343-.594.344-.953.985-.36.625-.36 1.453 0 .812.36 1.453.359.625.953.984.593.36 1.265.36zm11.741 2.25q-1.422 0-2.562-.64-1.14-.657-1.782-1.798-.64-1.156-.64-2.593 0-1.36.625-2.532.64-1.172 1.75-1.86 1.125-.687 2.515-.687 1.47 0 2.532.641 1.062.625 1.61 1.734.562 1.094.562 2.438 0 .422-.063.828h-7.14q.187 1.125.906 1.719.718.594 1.718.594.844 0 1.454-.36.609-.375.953-.984l1.984.969q-1.453 2.53-4.422 2.53zm2.25-6.203q-.031-.453-.328-.891-.281-.437-.797-.719-.515-.297-1.203-.297-.875 0-1.5.516-.625.5-.906 1.39h4.734z"/><path fill="#85200c" d="M661.299 178.536a7.528 7.528 0 1 1 15.055 0 7.528 7.528 0 1 1-15.055 0z" fill-rule="evenodd"/><path fill="#ea4335" d="M557.103 224.912h223.45v85.524c-111.725 0-111.725 32.586-223.45 14.07z" fill-rule="evenodd"/><path stroke="#85200c" stroke-linejoin="round" stroke-linecap="butt" d="M557.103 224.912h223.45v85.524c-111.725 0-111.725 32.586-223.45 14.07z"/><path fill="#f3f3f3" d="M604.71 274.89q-1.484 0-2.64-.655-1.157-.672-1.797-1.813-.641-1.156-.641-2.578t.64-2.578q.641-1.156 1.797-1.813 1.157-.671 2.641-.671 1.453 0 2.61.671 1.156.657 1.796 1.813.641 1.156.641 2.578t-.64 2.578q-.641 1.14-1.798 1.813-1.156.656-2.609.656zm0-2.25q.703 0 1.297-.327.61-.344.953-.985.36-.64.36-1.484t-.36-1.469q-.344-.64-.953-.968-.594-.344-1.297-.344-.719 0-1.312.344-.594.328-.97.968-.359.625-.359 1.469 0 .828.36 1.484.375.641.969.985.593.328 1.312.328zm6.849-7.562h2.297v1.157h.14q.39-.61 1.14-1.032.75-.421 1.72-.421 1.28 0 2.328.64 1.062.64 1.656 1.797.594 1.156.594 2.625t-.594 2.625q-.594 1.14-1.656 1.781-1.047.64-2.328.64-.97 0-1.735-.405-.75-.407-1.125-1.032h-.14l.14 1.344v3.828h-2.437v-13.547zm4.859 7.563q.688 0 1.281-.36.61-.359.953-.984.36-.64.36-1.453 0-.828-.36-1.453-.343-.64-.953-.984-.593-.344-1.281-.344-.672 0-1.266.344-.593.343-.953.984-.343.625-.343 1.453 0 .813.343 1.453.36.625.953.985.594.359 1.266.359zm11.041 2.11q-.703 0-1.297-.22-.593-.218-.968-.593-.875-.844-.875-2.39v-4.376h-1.672v-2.094h1.672v-2.687h2.437v2.687h2.328v2.094h-2.328v3.938q0 .718.313 1.047.265.296.906.296.344 0 .578-.093.234-.094.61-.328v2.39q-.797.328-1.704.328zm5.049-10.72q-.657 0-1.125-.468-.47-.469-.47-1.11 0-.656.47-1.109.468-.469 1.125-.469.656 0 1.109.469.453.453.453 1.11 0 .64-.453 1.109t-1.11.469zm-1.235 1.047h2.438v9.516h-2.438v-9.516zm4.974 0h2.297v1.188h.157q.437-.688 1.187-1.078.766-.406 1.703-.406 1 0 1.75.484.75.469 1.063 1.187.468-.734 1.281-1.203.812-.468 1.906-.468 1.625 0 2.469 1 .86 1 .86 2.687v6.125h-2.423v-5.672q0-.89-.421-1.375-.422-.484-1.172-.484-.953 0-1.532.75-.562.75-.562 1.984v4.797h-2.438v-5.672q0-.89-.437-1.375-.438-.484-1.234-.484-.907 0-1.454.75-.546.75-.546 1.984v4.797h-2.454v-9.516zm18.387-1.046q-.656 0-1.125-.47-.469-.468-.469-1.109 0-.656.469-1.109.469-.469 1.125-.469t1.11.469q.452.453.452 1.11 0 .64-.453 1.109t-1.11.469zm-1.234 1.046h2.437v9.516H653.4v-9.516zm4.49 7.516l4.968-5.437h-4.812v-2.079h7.812v2l-4.953 5.438h5.11v2.078h-8.126v-2zm14.486 2.297q-1.422 0-2.563-.64-1.14-.657-1.78-1.798-.642-1.156-.642-2.593 0-1.36.625-2.532.641-1.171 1.75-1.859 1.125-.687 2.516-.687 1.469 0 2.531.64 1.063.625 1.61 1.735.562 1.093.562 2.437 0 .422-.062.828h-7.14q.187 1.125.905 1.719.72.594 1.72.594.843 0 1.452-.36.61-.375.953-.984l1.985.969q-1.453 2.53-4.422 2.53zm2.25-6.203q-.031-.453-.328-.89-.282-.438-.797-.72-.516-.296-1.203-.296-.875 0-1.5.515-.625.5-.907 1.39h4.735zm8.326 6.203q-1.281 0-2.344-.64-1.047-.641-1.656-1.782-.61-1.156-.61-2.625t.61-2.625q.61-1.156 1.656-1.797 1.063-.64 2.344-.64.969 0 1.719.421.75.422 1.14 1.032h.141l-.14-1.344v-3.656h2.421v13.359h-2.281v-1.14h-.14q-.376.624-1.141 1.03-.75.407-1.719.407zm.406-2.25q.688 0 1.282-.36.609-.359.953-.984.359-.64.359-1.453 0-.828-.36-1.453-.343-.64-.952-.984-.594-.344-1.282-.344-.672 0-1.265.344-.594.343-.953.984-.36.625-.36 1.453 0 .813.36 1.453.359.625.953.985.593.359 1.265.359zm6.085 1.953zm10.037.297q-1.437 0-2.578-.64-1.14-.641-1.781-1.798-.64-1.156-.64-2.609 0-1.469.64-2.61.64-1.14 1.781-1.796 1.14-.656 2.578-.656 1.578 0 2.72.687 1.14.672 1.64 1.922l-2.235.937q-.593-1.265-2.125-1.265-1.125 0-1.843.765-.72.766-.72 2.016 0 1.266.72 2.031.718.766 1.843.766 1.547 0 2.235-1.344l2.218.969q-.609 1.25-1.75 1.937-1.14.688-2.703.688zm10.768 0q-1.484 0-2.64-.656-1.156-.672-1.797-1.813-.64-1.156-.64-2.578t.64-2.578q.64-1.156 1.797-1.813 1.156-.671 2.64-.671 1.454 0 2.61.671 1.156.657 1.797 1.813.64 1.156.64 2.578t-.64 2.578q-.64 1.14-1.797 1.813-1.156.656-2.61.656zm0-2.25q.704 0 1.297-.328.61-.344.953-.985.36-.64.36-1.484t-.36-1.469q-.343-.64-.953-.968-.593-.344-1.297-.344-.718 0-1.312.344-.594.328-.969.968-.36.625-.36 1.469 0 .828.36 1.484.375.641.969.985.594.328 1.312.328zm11.005 2.25q-1.28 0-2.343-.64-1.047-.641-1.657-1.782-.609-1.156-.609-2.625t.61-2.625q.609-1.156 1.656-1.797 1.062-.64 2.343-.64.97 0 1.72.421.75.422 1.14 1.032h.14l-.14-1.344v-3.656h2.422v13.359h-2.282v-1.14h-.14q-.375.624-1.14 1.03-.75.407-1.72.407zm.407-2.25q.687 0 1.28-.36.61-.359.954-.984.36-.64.36-1.453 0-.828-.36-1.453-.344-.64-.953-.984-.594-.344-1.281-.344-.672 0-1.266.344-.594.343-.953.984-.36.625-.36 1.453 0 .813.36 1.453.36.625.953.985.594.359 1.266.359zm11.74 2.25q-1.421 0-2.562-.64-1.14-.657-1.781-1.798-.64-1.156-.64-2.593 0-1.36.624-2.532.64-1.171 1.75-1.859 1.125-.687 2.516-.687 1.468 0 2.531.64 1.062.625 1.61 1.735.562 1.093.562 2.437 0 .422-.063.828h-7.14q.187 1.125.906 1.719.719.594 1.719.594.843 0 1.453-.36.61-.375.953-.984l1.984.969q-1.453 2.53-4.422 2.53zm2.25-6.203q-.03-.453-.328-.89-.28-.438-.797-.72-.515-.296-1.203-.296-.875 0-1.5.515-.625.5-.906 1.39h4.734z"/><path d="M668.826 186.064v38.834"/><path stroke="#85200c" stroke-width="4" stroke-linejoin="round" stroke-linecap="butt" d="M668.826 186.064v38.834"/><path fill="#38761d" d="M142.543 178.536a7.528 7.528 0 1 1 15.055 0 7.528 7.528 0 1 1-15.055 0z" fill-rule="evenodd"/><path d="M150.07 171.009v-45.89"/><path stroke="#38761d" stroke-width="4" stroke-linejoin="round" stroke-linecap="butt" d="M150.07 171.009v-45.89"/><path fill="#6aa84f" d="M38.346 25.513h223.45v85.524c-111.725 0-111.725 32.586-223.45 14.07z" fill-rule="evenodd"/><path stroke="#38761d" stroke-linejoin="round" stroke-linecap="butt" d="M38.346 25.513h223.45v85.524c-111.725 0-111.725 32.586-223.45 14.07z"/><path fill="#fff" d="M113.475 75.492q-.984 0-1.734-.406-.75-.407-1.125-1.032h-.157v1.14h-2.296V61.837h2.453v3.656l-.157 1.344h.157q.39-.61 1.125-1.032.75-.422 1.734-.422 1.281 0 2.328.641 1.063.64 1.656 1.797.594 1.156.594 2.625t-.594 2.625q-.593 1.14-1.656 1.781-1.047.64-2.328.64zm-.437-2.25q.687 0 1.28-.36.61-.359.954-.984.36-.64.36-1.453 0-.828-.36-1.453-.344-.64-.953-.985-.594-.343-1.281-.343-.672 0-1.266.343-.594.344-.953.985-.36.625-.36 1.453 0 .812.36 1.453.36.625.953.984.594.36 1.266.36zm9.865 1.5l-4-9.063h2.766l2.469 5.922h.156l2.36-5.922h2.734l-5.89 13.547h-2.626l2.031-4.484zm11.956.61q-.704 0-1.297-.22-.594-.218-.969-.593-.875-.844-.875-2.391v-4.375h-1.672v-2.094h1.672v-2.687h2.437v2.687h2.329v2.094h-2.329v3.938q0 .718.313 1.046.266.297.906.297.344 0 .578-.093.235-.094.61-.329v2.391q-.797.328-1.703.328zm8.126.14q-1.422 0-2.562-.64-1.141-.657-1.782-1.798-.64-1.156-.64-2.593 0-1.36.625-2.532.64-1.172 1.75-1.86 1.125-.687 2.515-.687 1.469 0 2.532.641 1.062.625 1.609 1.734.562 1.094.562 2.438 0 .422-.062.828h-7.14q.187 1.125.906 1.719.718.594 1.718.594.844 0 1.453-.36.61-.375.954-.984l1.984.969q-1.453 2.53-4.422 2.53zm2.25-6.203q-.031-.453-.328-.891-.281-.437-.797-.719-.516-.297-1.203-.297-.875 0-1.5.516-.625.5-.906 1.39h4.734zm8.717 6.203q-1.438 0-2.578-.64-1.14-.641-1.781-1.798-.641-1.156-.641-2.61 0-1.468.64-2.608.641-1.141 1.782-1.797 1.14-.657 2.578-.657 1.578 0 2.719.688 1.14.672 1.64 1.922l-2.234.937q-.594-1.265-2.125-1.265-1.125 0-1.844.765-.719.766-.719 2.016 0 1.266.72 2.031.718.766 1.843.766 1.547 0 2.234-1.344l2.219.969q-.61 1.25-1.75 1.937-1.14.688-2.703.688zm10.768 0q-1.484 0-2.64-.656-1.157-.672-1.797-1.813-.641-1.156-.641-2.578t.64-2.578q.641-1.156 1.797-1.813 1.157-.672 2.641-.672 1.453 0 2.61.672 1.156.657 1.796 1.813.64 1.156.64 2.578t-.64 2.578q-.64 1.14-1.797 1.813-1.156.656-2.609.656zm0-2.25q.703 0 1.297-.328.61-.344.953-.985.36-.64.36-1.484t-.36-1.469q-.344-.64-.953-.969-.594-.343-1.297-.343-.719 0-1.312.343-.594.329-.97.97-.359.624-.359 1.468 0 .828.36 1.484.375.64.969.985.593.328 1.312.328zm11.005 2.25q-1.281 0-2.344-.64-1.047-.641-1.656-1.782-.61-1.156-.61-2.625t.61-2.625q.61-1.156 1.656-1.797 1.063-.64 2.344-.64.969 0 1.719.421.75.422 1.14 1.032h.14l-.14-1.344v-3.656h2.422v13.359h-2.281v-1.14h-.14q-.376.624-1.141 1.03-.75.407-1.72.407zm.406-2.25q.688 0 1.281-.36.61-.359.954-.984.359-.64.359-1.453 0-.828-.36-1.453-.343-.64-.953-.985-.593-.343-1.28-.343-.673 0-1.266.343-.594.344-.954.985-.359.625-.359 1.453 0 .812.36 1.453.359.625.953.984.593.36 1.265.36zm11.741 2.25q-1.422 0-2.563-.64-1.14-.657-1.78-1.798-.641-1.156-.641-2.593 0-1.36.625-2.532.64-1.172 1.75-1.86 1.125-.687 2.515-.687 1.469 0 2.531.641 1.063.625 1.61 1.734.562 1.094.562 2.438 0 .422-.062.828h-7.14q.187 1.125.905 1.719.72.594 1.72.594.843 0 1.452-.36.61-.375.953-.984l1.985.969q-1.453 2.53-4.422 2.53zm2.25-6.203q-.031-.453-.328-.891-.281-.437-.797-.719-.516-.297-1.203-.297-.875 0-1.5.516-.625.5-.906 1.39h4.734z"/></g></svg>