<svg viewBox="0 0 818.898 357.071" fill="none" stroke-linecap="square" stroke-miterlimit="10" xmlns="http://www.w3.org/2000/svg"><clipPath id="a"><path d="M0 0h818.898v357.07H0V0z"/></clipPath><g clip-path="url(#a)"><path d="M0 0h818.898v357.07H0z"/><path d="M334.969 130.102h394.708v46.048H334.968z"/><path fill="#666" d="M518.815 149.6h-1.703v-2.093h1.703v-.516q0-1.625.969-2.547.969-.922 2.547-.922.89 0 1.547.203v2.391q-.36-.156-.641-.234-.266-.078-.61-.078-.624 0-1 .359-.359.36-.359.969v.375h2.328v2.093h-2.328v7.422h-2.453V149.6zm9.596 7.72q-1.516 0-2.485-.876-.968-.89-.968-2.328 0-.953.5-1.672.5-.734 1.375-1.125.89-.39 1.953-.39 1.469 0 2.515.421v-.406q0-.781-.593-1.265-.578-.485-1.578-.485-.672 0-1.297.313-.625.297-1.032.797l-1.562-1.235q.687-.89 1.734-1.375 1.047-.484 2.266-.484 2.187 0 3.328 1.015 1.14 1 1.14 2.938v5.86h-2.406v-.97h-.156q-.422.563-1.125.922-.703.344-1.61.344zm.578-1.907q1.062 0 1.687-.672.625-.687.625-1.594-.953-.453-2-.453-1.906 0-1.906 1.422 0 .578.406.938.422.359 1.188.359zm10.591 1.906q-1.734 0-2.812-.703-1.063-.719-1.5-1.844l2.187-.953q.297.672.844 1.016.547.344 1.281.344.672 0 1.11-.22.453-.218.453-.702 0-.469-.407-.688-.406-.234-1.234-.422l-1.11-.25q-1.156-.28-1.921-1.015-.766-.735-.766-1.844 0-.813.484-1.469.5-.656 1.344-1 .86-.36 1.875-.36 2.953 0 3.938 2.063l-2.078.922q-.563-1-1.797-1-.64 0-1.016.235-.36.218-.36.578 0 .672 1.266 1.015l1.39.328q1.423.36 2.142 1.094.718.719.718 1.781 0 .907-.53 1.61-.532.703-1.454 1.094-.922.39-2.047.39zm9.937-.14q-.703 0-1.297-.22-.594-.218-.969-.593-.875-.844-.875-2.39V149.6h-1.671v-2.093h1.671v-2.688h2.438v2.688h2.328v2.093h-2.328v3.938q0 .719.312 1.047.266.297.907.297.343 0 .578-.094.234-.094.61-.328v2.39q-.798.329-1.704.329zm8.127.14q-1.422 0-2.563-.64-1.14-.657-1.781-1.797-.64-1.157-.64-2.594 0-1.36.624-2.531.64-1.172 1.75-1.86 1.125-.687 2.516-.687 1.469 0 2.531.64 1.063.625 1.61 1.735.562 1.094.562 2.437 0 .422-.063.828h-7.14q.187 1.125.906 1.72.719.593 1.719.593.844 0 1.453-.36.61-.374.953-.984l1.984.969q-1.453 2.531-4.421 2.531zm2.25-6.203q-.032-.453-.329-.89-.28-.438-.796-.72-.516-.296-1.204-.296-.875 0-1.5.515-.625.5-.906 1.391h4.735zm4.232-3.61h2.297v1.266h.156q.36-.672 1.094-1.109.75-.438 1.64-.438.657 0 1.204.204v2.453q-.5-.188-.86-.266-.343-.094-.734-.094-1.078 0-1.719.782-.625.78-.625 1.984v4.734h-2.453v-9.515zm6.779 9.516zm9.693.157q-.703 0-1.296-.22-.594-.218-.97-.593-.874-.844-.874-2.39V149.6h-1.672v-2.093h1.672v-2.688h2.437v2.688h2.328v2.093h-2.328v3.938q0 .719.313 1.047.265.297.906.297.344 0 .578-.094.235-.094.61-.328v2.39q-.797.329-1.704.329zm8.22.14q-1.484 0-2.64-.656-1.156-.672-1.797-1.813-.64-1.156-.64-2.578t.64-2.578q.64-1.156 1.797-1.812 1.156-.672 2.64-.672 1.454 0 2.61.672 1.156.656 1.797 1.812.64 1.156.64 2.578t-.64 2.578q-.64 1.141-1.797 1.813-1.156.656-2.61.656zm0-2.25q.704 0 1.297-.328.61-.344.954-.984.359-.64.359-1.485 0-.843-.36-1.468-.343-.641-.953-.97-.593-.343-1.296-.343-.72 0-1.313.344-.594.328-.969.969-.359.625-.359 1.468 0 .828.36 1.485.374.64.968.984.594.328 1.313.328zm5.724 1.953zm10.022.297q-1.422 0-2.562-.64-1.141-.657-1.782-1.797-.64-1.157-.64-2.594 0-1.36.625-2.531.64-1.172 1.75-1.86 1.125-.687 2.515-.687 1.469 0 2.532.64 1.062.625 1.609 1.735.562 1.094.562 2.437 0 .422-.062.828h-7.14q.187 1.125.906 1.72.718.593 1.718.593.844 0 1.453-.36.61-.374.954-.984l1.984.969q-1.453 2.531-4.422 2.531zm2.25-6.203q-.031-.453-.328-.89-.281-.438-.797-.72-.516-.296-1.203-.296-.875 0-1.5.515-.625.5-.906 1.391h4.734zm6.592 1.078l-3.281-4.687h2.89l1.813 2.718h.11l1.687-2.718h2.984l-3.328 4.687 3.328 4.828h-2.89l-1.829-2.78h-.11l-1.78 2.78h-2.891l3.297-4.828zm12.109 5.125q-1.422 0-2.563-.64-1.14-.657-1.78-1.797-.641-1.157-.641-2.594 0-1.36.625-2.531.64-1.172 1.75-1.86 1.125-.687 2.515-.687 1.469 0 2.531.64 1.063.625 1.61 1.735.562 1.094.562 2.437 0 .422-.062.828h-7.14q.187 1.125.905 1.72.72.593 1.72.593.843 0 1.452-.36.61-.374.953-.984l1.985.969q-1.453 2.531-4.422 2.531zm2.25-6.203q-.031-.453-.328-.89-.281-.438-.797-.72-.516-.296-1.203-.296-.875 0-1.5.515-.625.5-.906 1.391h4.734zm8.717 6.203q-1.438 0-2.578-.64-1.14-.641-1.782-1.797-.64-1.157-.64-2.61 0-1.468.64-2.609.641-1.14 1.782-1.797 1.14-.656 2.578-.656 1.578 0 2.719.687 1.14.672 1.64 1.922l-2.234.938q-.594-1.266-2.125-1.266-1.125 0-1.844.766-.719.765-.719 2.015 0 1.266.72 2.032.718.765 1.843.765 1.547 0 2.234-1.344l2.219.97q-.61 1.25-1.75 1.937-1.14.687-2.703.687zm9.643 0q-1.719 0-2.61-1.062-.89-1.063-.89-2.969v-5.781h2.437v5.484q0 .969.47 1.531.468.547 1.234.547 1.046 0 1.656-.765.61-.766.61-1.954v-4.843h2.452v9.515h-2.297v-1.187h-.156q-.422.687-1.203 1.094-.766.39-1.703.39zm11.878-.14q-.703 0-1.297-.22-.593-.218-.968-.593-.875-.844-.875-2.39V149.6h-1.672v-2.093h1.672v-2.688h2.437v2.688h2.328v2.093H657.3v3.938q0 .719.313 1.047.265.297.906.297.344 0 .578-.094.234-.094.61-.328v2.39q-.798.329-1.704.329zm8.127.14q-1.422 0-2.563-.64-1.14-.657-1.781-1.797-.64-1.157-.64-2.594 0-1.36.624-2.531.64-1.172 1.75-1.86 1.125-.687 2.516-.687 1.469 0 2.531.64 1.063.625 1.61 1.735.562 1.094.562 2.437 0 .422-.063.828h-7.14q.187 1.125.906 1.72.719.593 1.719.593.844 0 1.453-.36.61-.374.953-.984l1.984.969q-1.453 2.531-4.421 2.531zm2.25-6.203q-.032-.453-.329-.89-.28-.438-.796-.72-.516-.296-1.204-.296-.875 0-1.5.515-.625.5-.906 1.391h4.735zm3.045 5.906zm10.037.297q-1.437 0-2.578-.64-1.14-.641-1.781-1.797-.64-1.157-.64-2.61 0-1.468.64-2.609.64-1.14 1.781-1.797 1.14-.656 2.578-.656 1.578 0 2.719.687 1.14.672 1.64 1.922l-2.234.938q-.594-1.266-2.125-1.266-1.125 0-1.844.766-.718.765-.718 2.015 0 1.266.718 2.032.72.765 1.844.765 1.547 0 2.234-1.344l2.22.97q-.61 1.25-1.75 1.937-1.141.687-2.704.687zm10.768 0q-1.484 0-2.64-.656-1.157-.672-1.797-1.813-.64-1.156-.64-2.578t.64-2.578q.64-1.156 1.797-1.812 1.156-.672 2.64-.672 1.453 0 2.61.672 1.156.656 1.796 1.812.641 1.156.641 2.578t-.64 2.578q-.641 1.141-1.797 1.813-1.157.656-2.61.656zm0-2.25q.703 0 1.297-.328.61-.344.953-.984.36-.64.36-1.485 0-.843-.36-1.468-.344-.641-.953-.97-.594-.343-1.297-.343-.719 0-1.312.344-.594.328-.969.969-.36.625-.36 1.468 0 .828.36 1.485.375.64.969.984.593.328 1.312.328zm11.005 2.25q-1.281 0-2.344-.64-1.047-.641-1.656-1.782-.61-1.156-.61-2.625 0-1.468.61-2.625.61-1.156 1.656-1.797 1.063-.64 2.344-.64.969 0 1.719.422.75.422 1.14 1.031h.141l-.14-1.344v-3.656h2.421v13.36h-2.28v-1.141h-.142q-.375.625-1.14 1.031-.75.406-1.719.406zm.406-2.25q.688 0 1.282-.36.609-.359.953-.984.36-.64.36-1.453 0-.828-.36-1.453-.344-.64-.953-.984-.594-.344-1.282-.344-.672 0-1.265.344-.594.344-.953.984-.36.625-.36 1.453 0 .813.36 1.453.359.625.953.985.593.36 1.265.36zm11.741 2.25q-1.422 0-2.562-.64-1.14-.657-1.782-1.797-.64-1.157-.64-2.594 0-1.36.625-2.531.64-1.172 1.75-1.86 1.125-.687 2.515-.687 1.47 0 2.532.64 1.062.625 1.61 1.735.562 1.094.562 2.437 0 .422-.063.828h-7.14q.187 1.125.906 1.72.718.593 1.718.593.844 0 1.454-.36.609-.374.953-.984l1.984.969q-1.453 2.531-4.422 2.531zm2.25-6.203q-.031-.453-.328-.89-.281-.438-.797-.72-.515-.296-1.203-.296-.875 0-1.5.515-.625.5-.906 1.391h4.734z"/><path d="M94.717 176.15h394.708v46.047H94.717z"/><path fill="#666" d="M105.935 195.648h-1.703v-2.094h1.703v-.516q0-1.625.969-2.547.969-.921 2.547-.921.89 0 1.547.203v2.39q-.36-.156-.64-.234-.266-.078-.61-.078-.625 0-1 .36-.36.359-.36.968v.375h2.329v2.094h-2.329v7.422h-2.453v-7.422zm9.596 7.718q-1.516 0-2.484-.875-.97-.89-.97-2.328 0-.953.5-1.672.5-.734 1.376-1.125.89-.39 1.953-.39 1.469 0 2.516.422v-.407q0-.78-.594-1.265-.578-.485-1.578-.485-.672 0-1.297.313-.625.297-1.031.797l-1.563-1.235q.688-.89 1.734-1.375 1.047-.484 2.266-.484 2.188 0 3.328 1.016 1.14 1 1.14 2.937v5.86h-2.405v-.97h-.157q-.422.563-1.125.923-.703.343-1.61.343zm.578-1.906q1.063 0 1.688-.672.625-.687.625-1.593-.954-.454-2-.454-1.907 0-1.907 1.422 0 .578.407.938.421.36 1.187.36zm10.591 1.906q-1.734 0-2.812-.703-1.063-.718-1.5-1.843l2.187-.954q.297.672.844 1.016.547.344 1.281.344.672 0 1.11-.219.453-.219.453-.703 0-.469-.407-.688-.406-.234-1.234-.421l-1.11-.25q-1.156-.282-1.921-1.016-.766-.734-.766-1.844 0-.812.485-1.469.5-.656 1.343-1 .86-.359 1.875-.359 2.953 0 3.938 2.063l-2.078.921q-.563-1-1.797-1-.64 0-1.016.235-.36.219-.36.578 0 .672 1.266 1.016l1.391.328q1.422.36 2.14 1.093.72.72.72 1.782 0 .906-.532 1.61-.531.702-1.453 1.093-.922.39-2.047.39zm9.937-.14q-.703 0-1.297-.219-.593-.219-.968-.594-.875-.843-.875-2.39v-4.375h-1.672v-2.094h1.672v-2.688h2.437v2.688h2.328v2.094h-2.328v3.937q0 .719.313 1.047.265.297.906.297.344 0 .578-.094.234-.094.61-.328v2.39q-.797.329-1.704.329zm8.127.14q-1.422 0-2.563-.64-1.14-.656-1.781-1.797-.64-1.156-.64-2.594 0-1.36.624-2.531.64-1.172 1.75-1.86 1.125-.687 2.516-.687 1.469 0 2.531.64 1.063.626 1.61 1.735.562 1.094.562 2.438 0 .421-.062.828h-7.141q.187 1.125.906 1.718.719.594 1.719.594.844 0 1.453-.36.61-.374.953-.984l1.985.97q-1.454 2.53-4.422 2.53zm2.25-6.203q-.032-.453-.328-.89-.282-.438-.797-.719-.516-.297-1.203-.297-.875 0-1.5.516-.625.5-.907 1.39h4.735zm4.232-3.609h2.297v1.266h.156q.36-.672 1.094-1.11.75-.437 1.64-.437.657 0 1.204.203v2.453q-.5-.188-.86-.266-.343-.093-.734-.093-1.078 0-1.719.78-.625.782-.625 1.985v4.735h-2.453v-9.516zm6.779 9.516zm9.694.156q-.704 0-1.297-.219-.594-.219-.97-.594-.874-.843-.874-2.39v-4.375h-1.672v-2.094h1.672v-2.688h2.437v2.688h2.329v2.094h-2.329v3.937q0 .719.313 1.047.266.297.906.297.344 0 .578-.094.235-.094.61-.328v2.39q-.797.329-1.703.329zm8.22.14q-1.485 0-2.64-.656-1.157-.672-1.798-1.812-.64-1.157-.64-2.578 0-1.422.64-2.579.64-1.156 1.797-1.812 1.156-.672 2.64-.672 1.454 0 2.61.672 1.156.656 1.797 1.812.64 1.157.64 2.579 0 1.421-.64 2.578-.64 1.14-1.797 1.812-1.156.656-2.61.656zm0-2.25q.703 0 1.297-.328.609-.343.953-.984.36-.64.36-1.484t-.36-1.47q-.344-.64-.953-.968-.594-.344-1.297-.344-.719 0-1.313.344-.593.328-.968.969-.36.625-.36 1.469 0 .828.36 1.484.375.64.968.984.594.328 1.313.328zm5.723 1.954zm9.944 4.328q-1.812 0-3.016-.813-1.187-.812-1.593-1.953l2.297-.922q.296.703.906 1.11.625.421 1.406.421 1.156 0 1.828-.718.688-.703.688-2.016v-.75h-.141q-.453.64-1.187.984-.72.329-1.657.329-1.172 0-2.187-.61-1.016-.61-1.64-1.719-.61-1.109-.61-2.578 0-1.468.61-2.578.624-1.11 1.64-1.719 1.015-.609 2.187-.609.938 0 1.657.344.734.328 1.187.969h.14v-1.016h2.36v8.86q0 1.53-.61 2.64-.593 1.125-1.702 1.734-1.094.61-2.563.61zm.031-6.547q1.032 0 1.75-.719.735-.719.735-1.969 0-1.28-.72-1.984-.718-.703-1.765-.703-1.031 0-1.765.719-.735.703-.735 1.968 0 1.266.735 1.985.734.703 1.765.703zm11.689 2.515q-1.422 0-2.563-.64-1.14-.656-1.781-1.797-.64-1.156-.64-2.594 0-1.36.624-2.531.64-1.172 1.75-1.86 1.125-.687 2.516-.687 1.469 0 2.531.64 1.063.626 1.61 1.735.562 1.094.562 2.438 0 .421-.062.828h-7.141q.187 1.125.906 1.718.719.594 1.719.594.844 0 1.453-.36.61-.374.953-.984l1.985.97q-1.454 2.53-4.422 2.53zm2.25-6.203q-.032-.453-.328-.89-.282-.438-.797-.719-.516-.297-1.203-.297-.875 0-1.5.516-.625.5-.907 1.39h4.735zm4.232-3.609h2.297v1.187h.156q.422-.687 1.203-1.078.797-.406 1.704-.406 1.718 0 2.609 1.047.906 1.047.906 2.86v5.906h-2.453v-5.61q0-.922-.469-1.422-.468-.5-1.297-.5-1 0-1.609.766-.594.766-.594 1.922v4.844h-2.453v-9.516zm15.644 9.812q-1.422 0-2.563-.64-1.14-.656-1.78-1.797-.641-1.156-.641-2.594 0-1.36.625-2.531.64-1.172 1.75-1.86 1.125-.687 2.515-.687 1.469 0 2.531.64 1.063.626 1.61 1.735.562 1.094.562 2.438 0 .421-.062.828h-7.14q.187 1.125.905 1.718.72.594 1.72.594.843 0 1.452-.36.61-.374.953-.984l1.985.97q-1.453 2.53-4.422 2.53zm2.25-6.203q-.031-.453-.328-.89-.281-.438-.797-.719-.516-.297-1.203-.297-.875 0-1.5.516-.625.5-.906 1.39h4.734zm4.232-3.609h2.297v1.266h.157q.359-.672 1.093-1.11.75-.437 1.641-.437.656 0 1.203.203v2.453q-.5-.188-.86-.266-.343-.093-.734-.093-1.078 0-1.718.78-.625.782-.625 1.985v4.735h-2.454v-9.516zm10.889 9.812q-1.516 0-2.485-.875-.969-.89-.969-2.328 0-.953.5-1.672.5-.734 1.375-1.125.891-.39 1.954-.39 1.468 0 2.515.422v-.407q0-.78-.594-1.265-.578-.485-1.578-.485-.672 0-1.297.313-.625.297-1.03.797l-1.563-1.235q.687-.89 1.734-1.375 1.047-.484 2.266-.484 2.187 0 3.328 1.016 1.14 1 1.14 2.937v5.86h-2.406v-.97h-.156q-.422.563-1.125.923-.703.343-1.61.343zm.578-1.906q1.062 0 1.687-.672.625-.687.625-1.593-.953-.454-2-.454-1.906 0-1.906 1.422 0 .578.406.938.422.36 1.188.36zm11.106 1.766q-.703 0-1.296-.219-.594-.219-.97-.594-.874-.843-.874-2.39v-4.375h-1.672v-2.094h1.672v-2.688h2.437v2.688h2.328v2.094h-2.328v3.937q0 .719.313 1.047.265.297.906.297.344 0 .578-.094.235-.094.61-.328v2.39q-.797.329-1.704.329zm8.127.14q-1.422 0-2.563-.64-1.14-.656-1.78-1.797-.641-1.156-.641-2.594 0-1.36.625-2.531.64-1.172 1.75-1.86 1.125-.687 2.515-.687 1.469 0 2.531.64 1.063.626 1.61 1.735.562 1.094.562 2.438 0 .421-.062.828h-7.14q.187 1.125.905 1.718.72.594 1.72.594.843 0 1.452-.36.61-.374.953-.984l1.985.97q-1.453 2.53-4.422 2.53zm2.25-6.203q-.031-.453-.328-.89-.281-.438-.797-.719-.516-.297-1.203-.297-.875 0-1.5.516-.625.5-.906 1.39h4.734zm3.045 5.907zm10.037.296q-1.437 0-2.578-.64-1.14-.64-1.781-1.797-.64-1.156-.64-2.61 0-1.468.64-2.609.64-1.14 1.781-1.797 1.14-.656 2.578-.656 1.578 0 2.72.688 1.14.671 1.64 1.921l-2.235.938q-.593-1.266-2.125-1.266-1.125 0-1.843.766-.72.766-.72 2.016 0 1.265.72 2.03.718.766 1.843.766 1.547 0 2.235-1.343l2.218.968q-.609 1.25-1.75 1.938-1.14.687-2.703.687zm10.768 0q-1.484 0-2.64-.656-1.156-.672-1.797-1.812-.64-1.157-.64-2.578 0-1.422.64-2.579.64-1.156 1.797-1.812 1.156-.672 2.64-.672 1.454 0 2.61.672 1.156.656 1.797 1.812.64 1.157.64 2.579 0 1.421-.64 2.578-.64 1.14-1.797 1.812-1.156.656-2.61.656zm0-2.25q.704 0 1.297-.328.61-.343.953-.984.36-.64.36-1.484t-.36-1.47q-.343-.64-.953-.968-.593-.344-1.297-.344-.718 0-1.312.344-.594.328-.969.969-.36.625-.36 1.469 0 .828.36 1.484.375.64.969.984.594.328 1.312.328zm11.005 2.25q-1.28 0-2.343-.64-1.047-.64-1.657-1.781-.61-1.157-.61-2.625 0-1.47.61-2.625.61-1.157 1.657-1.797 1.062-.64 2.343-.64.97 0 1.72.421.75.422 1.14 1.031h.14l-.14-1.344v-3.656h2.422v13.36h-2.282v-1.141h-.14q-.375.625-1.14 1.031-.75.406-1.72.406zm.407-2.25q.687 0 1.28-.359.61-.36.954-.984.36-.64.36-1.453 0-.829-.36-1.454-.344-.64-.953-.984-.594-.344-1.281-.344-.672 0-1.266.344t-.953.984q-.36.625-.36 1.454 0 .812.36 1.453.36.625.953.984.594.36 1.266.36zm11.74 2.25q-1.421 0-2.562-.64-1.14-.656-1.781-1.797-.641-1.156-.641-2.594 0-1.36.625-2.531.64-1.172 1.75-1.86 1.125-.687 2.516-.687 1.468 0 2.53.64 1.063.626 1.61 1.735.563 1.094.563 2.438 0 .421-.063.828h-7.14q.187 1.125.906 1.718.719.594 1.719.594.843 0 1.453-.36.61-.374.953-.984l1.984.97q-1.453 2.53-4.422 2.53zm2.25-6.203q-.03-.453-.328-.89-.281-.438-.797-.719-.515-.297-1.203-.297-.875 0-1.5.516-.625.5-.906 1.39h4.734z"/><path d="M94.717 176.15l634.96-.661"/><path stroke="#666" stroke-width="4" stroke-linejoin="round" stroke-linecap="butt" d="M109.877 176.135l604.64-.63"/><path fill="#666" stroke="#666" stroke-width="4" stroke-linecap="butt" d="M109.883 182.715l-13.16.013-.013-13.16 13.16-.013.013 13.16zm604.627-13.79l13.16-.014.014 13.16-13.16.014-.014-13.16z"/><path fill="#274e13" d="M152.543 175.82a7.528 7.528 0 1 1 15.055 0 7.528 7.528 0 1 1-15.055 0z" fill-rule="evenodd"/><path d="M160.071 115.678v52.599"/><path stroke="#274e13" stroke-width="4" stroke-linejoin="round" stroke-linecap="butt" d="M160.071 115.678v52.599"/><path fill="#38761d" d="M66.969 53.526c0-6.865 5.565-12.43 12.43-12.43h161.344a12.43 12.43 0 0 1 12.43 12.43v49.722c0 6.865-5.565 12.43-12.43 12.43H79.4c-6.865 0-12.43-5.565-12.43-12.43z" fill-rule="evenodd"/><path stroke="#274e13" stroke-linejoin="round" stroke-linecap="butt" d="M66.969 53.526h0c0-6.865 5.565-12.43 12.43-12.43h161.344a12.43 12.43 0 0 1 12.43 12.43v49.722c0 6.865-5.565 12.43-12.43 12.43H79.4h0c-6.865 0-12.43-5.565-12.43-12.43z"/><path fill="#f3f3f3" d="M111.212 71.948h2.516v13.36h-2.516v-13.36zm5.216 3.843h2.297v1.188h.156q.422-.688 1.203-1.078.797-.406 1.703-.406 1.72 0 2.61 1.046.906 1.047.906 2.86v5.906h-2.453v-5.61q0-.921-.469-1.421t-1.297-.5q-1 0-1.61.765-.593.766-.593 1.922v4.844h-2.453v-9.516zm15.316 9.672q-.703 0-1.297-.218-.594-.22-.969-.594-.875-.844-.875-2.39v-4.376h-1.672v-2.094h1.672v-2.687h2.438v2.687h2.328v2.094h-2.328v3.938q0 .718.312 1.047.266.296.906.296.344 0 .578-.093.235-.094.61-.328v2.39q-.797.328-1.703.328zm8.126.141q-1.422 0-2.562-.64-1.141-.657-1.782-1.798-.64-1.156-.64-2.593 0-1.36.625-2.532.64-1.171 1.75-1.859 1.125-.687 2.515-.687 1.47 0 2.532.64 1.062.625 1.609 1.735.562 1.093.562 2.437 0 .422-.062.828h-7.14q.187 1.125.906 1.719.718.594 1.718.594.844 0 1.453-.36.61-.375.954-.984l1.984.969q-1.453 2.531-4.422 2.531zm2.25-6.203q-.031-.453-.328-.89-.281-.438-.797-.72-.516-.296-1.203-.296-.875 0-1.5.515-.625.5-.906 1.39h4.734zm4.233-3.61h2.296v1.266h.157q.36-.672 1.093-1.11.75-.437 1.641-.437.656 0 1.203.203v2.453q-.5-.187-.86-.265-.343-.094-.734-.094-1.078 0-1.718.781-.625.782-.625 1.985v4.734h-2.453v-9.516zm7.903 0h2.297v1.157h.14q.391-.61 1.141-1.032.75-.421 1.72-.421 1.28 0 2.327.64 1.063.64 1.657 1.797.593 1.156.593 2.625t-.593 2.625q-.594 1.14-1.657 1.781-1.047.641-2.328.641-.969 0-1.734-.406-.75-.407-1.125-1.032h-.14l.14 1.344v3.828h-2.438V75.791zm4.86 7.563q.687 0 1.28-.36.61-.359.954-.984.36-.64.36-1.453 0-.828-.36-1.453-.344-.64-.953-.984-.594-.344-1.281-.344-.672 0-1.266.344-.594.343-.953.984-.344.625-.344 1.453 0 .813.344 1.453.36.625.953.985.594.359 1.266.359zm6.9-7.563h2.297v1.266h.156q.36-.672 1.094-1.11.75-.437 1.64-.437.657 0 1.204.203v2.453q-.5-.187-.86-.265-.343-.094-.734-.094-1.078 0-1.719.781-.625.782-.625 1.985v4.734h-2.453v-9.516zm12.435 9.813q-1.422 0-2.562-.64-1.14-.657-1.782-1.798-.64-1.156-.64-2.593 0-1.36.625-2.532.64-1.171 1.75-1.859 1.125-.687 2.515-.687 1.47 0 2.532.64 1.062.625 1.61 1.735.562 1.093.562 2.437 0 .422-.063.828h-7.14q.187 1.125.906 1.719.718.594 1.718.594.844 0 1.454-.36.609-.375.953-.984l1.984.969q-1.453 2.531-4.422 2.531zm2.25-6.203q-.031-.453-.328-.89-.281-.438-.797-.72-.515-.296-1.203-.296-.875 0-1.5.515-.625.5-.906 1.39h4.734zm8.373 6.062q-.703 0-1.297-.218-.593-.22-.968-.594-.875-.844-.875-2.39v-4.376h-1.672v-2.094h1.672v-2.687h2.437v2.687h2.328v2.094h-2.328v3.938q0 .718.313 1.047.265.296.906.296.344 0 .578-.093.234-.094.61-.328v2.39q-.797.328-1.704.328zm8.127.141q-1.422 0-2.563-.64-1.14-.657-1.781-1.798-.64-1.156-.64-2.593 0-1.36.624-2.532.641-1.171 1.75-1.859 1.125-.687 2.516-.687 1.469 0 2.531.64 1.063.625 1.61 1.735.562 1.093.562 2.437 0 .422-.062.828h-7.141q.187 1.125.906 1.719.719.594 1.719.594.844 0 1.453-.36.61-.375.953-.984l1.985.969q-1.454 2.531-4.422 2.531zm2.25-6.203q-.032-.453-.328-.89-.282-.438-.797-.72-.516-.296-1.203-.296-.875 0-1.5.515-.625.5-.907 1.39h4.735zm4.232-3.61h2.297v1.266h.156q.36-.672 1.094-1.11.75-.437 1.64-.437.657 0 1.204.203v2.453q-.5-.187-.86-.265-.343-.094-.734-.094-1.078 0-1.719.781-.625.782-.625 1.985v4.734h-2.453v-9.516z"/><path fill="#c00" d="M655.299 175.82a7.528 7.528 0 1 1 15.055 0 7.528 7.528 0 1 1-15.055 0z" fill-rule="evenodd"/><path d="M662.827 230.685v-47.339"/><path stroke="#c00" stroke-width="4" stroke-linejoin="round" stroke-linecap="butt" d="M662.827 230.685v-47.339"/><path fill="#ea4335" d="M573.725 244.9c0-7.85 6.364-14.215 14.215-14.215h149.775A14.215 14.215 0 0 1 751.93 244.9v56.861c0 7.851-6.365 14.215-14.215 14.215H587.94c-7.85 0-14.215-6.364-14.215-14.215z" fill-rule="evenodd"/><path stroke="#c00" stroke-linejoin="round" stroke-linecap="butt" d="M573.725 244.9h0c0-7.85 6.364-14.215 14.215-14.215h149.775A14.215 14.215 0 0 1 751.93 244.9v56.861c0 7.851-6.365 14.215-14.215 14.215H587.94c-7.85 0-14.215-6.364-14.215-14.215z"/><path fill="#f3f3f3" d="M614.453 266.891h2.516v13.36h-2.516v-13.36zm9.779 13.657q-1.485 0-2.641-.657-1.156-.672-1.797-1.812-.64-1.156-.64-2.578t.64-2.578q.64-1.157 1.797-1.813 1.156-.672 2.64-.672 1.454 0 2.61.672 1.156.656 1.797 1.813.64 1.156.64 2.578t-.64 2.578q-.64 1.14-1.797 1.812-1.156.657-2.61.657zm0-2.25q.703 0 1.296-.329.61-.343.954-.984.359-.64.359-1.484t-.36-1.469q-.343-.64-.953-.969-.593-.344-1.296-.344-.72 0-1.313.344-.594.328-.969.969-.36.625-.36 1.469 0 .828.36 1.484.375.64.969.984.594.329 1.313.329zm6.91-7.563h2.298v1.188h.156q.422-.688 1.203-1.079.797-.406 1.703-.406 1.719 0 2.61 1.047.906 1.047.906 2.86v5.906h-2.453v-5.61q0-.922-.47-1.422-.468-.5-1.296-.5-1 0-1.61.766-.593.766-.593 1.922v4.844h-2.453v-9.516zm11.52-3.844h3.25l3.546 9.391h.141l3.547-9.39h3.266v13.359h-2.5v-6.578l.14-2.235h-.14l-3.391 8.813h-1.969l-3.406-8.813h-.156l.156 2.235v6.578h-2.484v-13.36zm21.009 13.657q-1.485 0-2.64-.657-1.157-.672-1.798-1.812-.64-1.156-.64-2.578t.64-2.578q.641-1.157 1.797-1.813 1.156-.672 2.64-.672 1.454 0 2.61.672 1.156.656 1.797 1.813.64 1.156.64 2.578t-.64 2.578q-.64 1.14-1.797 1.812-1.156.657-2.61.657zm0-2.25q.703 0 1.297-.329.61-.343.953-.984.36-.64.36-1.484t-.36-1.469q-.344-.64-.953-.969-.594-.344-1.297-.344-.719 0-1.313.344-.593.328-.968.969-.36.625-.36 1.469 0 .828.36 1.484.375.64.968.984.594.329 1.313.329zm6.911-7.563h2.297v1.188h.156q.422-.688 1.203-1.079.797-.406 1.703-.406 1.72 0 2.61 1.047.906 1.047.906 2.86v5.906h-2.453v-5.61q0-.922-.469-1.422-.469-.5-1.297-.5-1 0-1.61.766-.593.766-.593 1.922v4.844h-2.453v-9.516zm11.175-3.844h2.453v7.282h.125l3.422-3.438h3v.156l-3.61 3.516 3.782 5.687v.157h-2.89l-2.594-4.157-1.235 1.204v2.953h-2.453v-13.36zm14.898 13.657q-1.422 0-2.563-.641-1.14-.656-1.781-1.797-.64-1.156-.64-2.594 0-1.359.624-2.53.64-1.173 1.75-1.86 1.125-.688 2.516-.688 1.469 0 2.531.64 1.063.626 1.61 1.735.562 1.094.562 2.438 0 .422-.062.828h-7.141q.187 1.125.906 1.719.719.593 1.719.593.844 0 1.453-.359.61-.375.953-.984l1.985.968q-1.454 2.532-4.422 2.532zm2.25-6.204q-.032-.453-.328-.89-.282-.438-.797-.719-.516-.297-1.203-.297-.875 0-1.5.516-.625.5-.907 1.39h4.735zm7.2 5.454l-4-9.063h2.767l2.468 5.922h.157l2.359-5.922h2.734l-5.89 13.547h-2.625l2.03-4.484z"/><path fill="#ff9800" d="M238.34 244.902c0-7.851 6.364-14.216 14.214-14.216H402.33a14.215 14.215 0 0 1 14.215 14.216v56.86c0 7.851-6.364 14.216-14.215 14.216H252.554c-7.85 0-14.215-6.365-14.215-14.216z" fill-rule="evenodd"/><path stroke="#b45f06" stroke-linejoin="round" stroke-linecap="butt" d="M238.34 244.902h0c0-7.851 6.364-14.216 14.214-14.216H402.33a14.215 14.215 0 0 1 14.215 14.216v56.86c0 7.851-6.364 14.216-14.215 14.216H252.554c-7.85 0-14.215-6.365-14.215-14.216z"/><path fill="#f3f3f3" d="M291.464 266.893h5.22q1.124 0 2.062.468.937.47 1.484 1.266.547.797.547 1.75 0 1.016-.5 1.75t-1.297 1.125v.156q1.047.375 1.656 1.188.625.812.625 1.937 0 1.11-.593 1.953-.579.844-1.579 1.313-1 .453-2.218.453h-5.407v-13.36zm5.032 5.453q.828 0 1.312-.453.5-.47.5-1.157 0-.671-.484-1.125-.469-.453-1.25-.453h-2.594v3.188h2.516zm.281 5.61q.922 0 1.422-.47.515-.484.515-1.25 0-.765-.515-1.25-.516-.484-1.5-.484h-2.719v3.453h2.797zm9.336 2.593q-1.515 0-2.484-.875-.969-.89-.969-2.328 0-.953.5-1.672.5-.734 1.375-1.125.89-.39 1.953-.39 1.469 0 2.516.421v-.406q0-.781-.594-1.266-.578-.484-1.578-.484-.672 0-1.297.312-.625.297-1.031.797l-1.563-1.234q.688-.89 1.735-1.375 1.047-.484 2.265-.484 2.188 0 3.328 1.015 1.141 1 1.141 2.938v5.859h-2.406v-.969h-.156q-.422.563-1.125.922-.704.344-1.61.344zm.578-1.906q1.063 0 1.688-.672.625-.688.625-1.594-.953-.453-2-.453-1.906 0-1.906 1.422 0 .578.406.937.422.36 1.187.36zm10.592 1.906q-1.735 0-2.813-.703-1.062-.719-1.5-1.844l2.188-.953q.296.672.843 1.016.547.343 1.282.343.671 0 1.109-.218.453-.22.453-.704 0-.468-.406-.687-.406-.234-1.235-.422l-1.109-.25q-1.156-.281-1.922-1.016-.765-.734-.765-1.843 0-.813.484-1.47.5-.655 1.344-1 .859-.358 1.875-.358 2.953 0 3.937 2.062l-2.078.922q-.562-1-1.797-1-.64 0-1.015.234-.36.219-.36.578 0 .672 1.266 1.016l1.39.328q1.422.36 2.141 1.094.719.719.719 1.781 0 .906-.531 1.61-.532.703-1.454 1.093-.921.39-2.046.39zm10.265 0q-1.422 0-2.563-.64-1.14-.657-1.781-1.798-.64-1.156-.64-2.593 0-1.36.624-2.532.64-1.171 1.75-1.859 1.125-.687 2.516-.687 1.469 0 2.531.64 1.063.625 1.61 1.735.562 1.093.562 2.437 0 .422-.062.828h-7.141q.187 1.125.906 1.719.719.594 1.719.594.844 0 1.453-.36.61-.375.953-.984l1.985.969q-1.454 2.53-4.422 2.53zm2.25-6.203q-.032-.453-.328-.89-.282-.438-.797-.72-.516-.296-1.203-.296-.875 0-1.5.515-.625.5-.907 1.39h4.735zm4.232-7.453h2.453v13.359h-2.453v-13.36zm6.241 2.797q-.656 0-1.125-.47-.468-.468-.468-1.109 0-.656.468-1.109.47-.469 1.125-.469.657 0 1.11.469.453.453.453 1.11 0 .64-.453 1.109t-1.11.469zm-1.234 1.046h2.437v9.516h-2.437v-9.516zm4.974 0h2.297v1.188h.156q.422-.688 1.203-1.078.797-.406 1.704-.406 1.718 0 2.609 1.046.906 1.047.906 2.86v5.906h-2.453v-5.61q0-.921-.469-1.421-.468-.5-1.297-.5-1 0-1.609.765-.594.766-.594 1.922v4.844h-2.453v-9.516zm15.644 9.813q-1.422 0-2.562-.64-1.141-.657-1.782-1.798-.64-1.156-.64-2.593 0-1.36.625-2.532.64-1.171 1.75-1.859 1.125-.687 2.515-.687 1.47 0 2.532.64 1.062.625 1.609 1.735.562 1.093.562 2.437 0 .422-.062.828h-7.14q.187 1.125.906 1.719.718.594 1.718.594.844 0 1.453-.36.61-.375.954-.984l1.984.969q-1.453 2.53-4.422 2.53zm2.25-6.203q-.031-.453-.328-.89-.281-.438-.797-.72-.516-.296-1.203-.296-.875 0-1.5.515-.625.5-.906 1.39h4.734z"/><path fill="#b45f06" d="M319.913 175.82a7.528 7.528 0 1 1 15.055 0 7.528 7.528 0 1 1-15.055 0z" fill-rule="evenodd"/><path d="M327.44 183.347v47.339"/><path stroke="#b45f06" stroke-width="4" stroke-linejoin="round" stroke-linecap="butt" d="M327.44 183.347v47.339"/></g></svg>