<svg viewBox="0 0 723.898 345.381" fill="none" stroke-linecap="square" stroke-miterlimit="10" xmlns="http://www.w3.org/2000/svg"><clipPath id="a"><path d="M0 0h723.898v345.38H0V0z"/></clipPath><g clip-path="url(#a)"><path d="M0 0h723.898v345.38H0z"/><path fill="#d0e0e3" d="M5.949 15.525c0-5.984 4.85-10.835 10.835-10.835h138.33a10.835 10.835 0 0 1 10.835 10.835v43.338c0 5.984-4.851 10.835-10.835 10.835H16.784c-5.984 0-10.835-4.85-10.835-10.835z" fill-rule="evenodd"/><path stroke="#000" stroke-linejoin="round" stroke-linecap="butt" d="M5.949 15.525h0c0-5.984 4.85-10.835 10.835-10.835h138.33a10.835 10.835 0 0 1 10.835 10.835v43.338c0 5.984-4.851 10.835-10.835 10.835H16.784h0c-5.984 0-10.835-4.85-10.835-10.835z"/><path fill="#000" d="M46.437 39.911q-.25 2.094-1.562 3.25-1.297 1.14-3.469 1.14-2.344 0-3.765-1.687-1.422-1.687-1.422-4.515v-1.266q0-1.86.656-3.25.672-1.406 1.875-2.156 1.219-.766 2.812-.766 2.11 0 3.391 1.188 1.281 1.171 1.484 3.265h-1.765q-.219-1.578-.985-2.281-.765-.719-2.125-.719-1.671 0-2.625 1.235-.953 1.234-.953 3.53v1.282q0 2.156.891 3.438.906 1.265 2.531 1.265 1.453 0 2.235-.656.78-.656 1.03-2.297h1.766zm3.956 4.203h-1.688v-14h1.688v14zm2.246-5.015q0-1.454.563-2.61.578-1.156 1.593-1.781 1.016-.625 2.313-.625 2.015 0 3.25 1.39 1.25 1.391 1.25 3.704v.125q0 1.437-.547 2.578-.547 1.14-1.578 1.781-1.016.64-2.36.64-2 0-3.25-1.39-1.234-1.406-1.234-3.703v-.11zm1.688.203q0 1.64.765 2.64.766.985 2.031.985 1.297 0 2.047-1 .75-1.016.75-2.828 0-1.625-.765-2.625-.766-1.016-2.047-1.016-1.25 0-2.016 1-.765.984-.765 2.844zm15.14 2.203q0-.688-.516-1.063t-1.797-.64q-1.281-.282-2.031-.657-.75-.39-1.11-.921-.359-.532-.359-1.266 0-1.203 1.016-2.031 1.03-.844 2.625-.844 1.671 0 2.718.86 1.047.859 1.047 2.218h-1.687q0-.703-.594-1.203-.594-.5-1.484-.5-.922 0-1.438.406-.516.39-.516 1.047 0 .61.485.922.484.312 1.734.594 1.266.281 2.047.672.781.39 1.156.937.391.547.391 1.344 0 1.328-1.063 2.125-1.046.797-2.734.797-1.187 0-2.11-.422-.906-.422-1.421-1.172-.516-.75-.516-1.625h1.688q.047.844.672 1.344.64.5 1.687.5.953 0 1.531-.39.578-.392.578-1.032zm9.963 1.64q-.985 1.157-2.89 1.157-1.579 0-2.407-.922-.813-.922-.828-2.703v-6.422h1.687v6.375q0 2.234 1.828 2.234 1.922 0 2.563-1.437v-7.172h1.687v9.86h-1.609l-.031-.97zm8.972-7.375q-.39-.062-.844-.062-1.656 0-2.25 1.406v7h-1.672v-9.86h1.641l.016 1.141q.828-1.312 2.359-1.312.484 0 .75.125v1.562zm5.625 8.532q-2 0-3.265-1.313-1.25-1.328-1.25-3.531v-.313q0-1.468.562-2.609.563-1.156 1.563-1.797 1.015-.656 2.187-.656 1.922 0 2.985 1.266 1.062 1.265 1.062 3.625v.687H91.2q.031 1.469.844 2.375.828.89 2.078.89.89 0 1.516-.359.625-.375 1.078-.968l1.031.796q-1.234 1.907-3.719 1.907zm-.203-8.844q-1.015 0-1.719.75-.687.734-.843 2.078h4.937v-.125q-.078-1.281-.703-1.984-.61-.719-1.672-.719zm17.409 8.656q-.094-.187-.156-.469-.063-.296-.094-.609-.25.266-.563.5-.312.219-.703.39-.375.173-.812.266-.422.11-.89.11-.798 0-1.438-.219-.625-.234-1.063-.625-.437-.39-.687-.922-.235-.531-.235-1.156 0-.813.313-1.422.328-.61.922-1.016.593-.406 1.421-.593.844-.204 1.875-.204h1.829v-.78q0-.454-.172-.798-.157-.359-.453-.609-.297-.25-.735-.39-.422-.141-.969-.141-.5 0-.906.14-.39.125-.672.344-.265.203-.422.484-.14.282-.14.594h-1.688q0-.531.266-1.047.281-.53.781-.937.5-.422 1.219-.672.734-.25 1.656-.25.844 0 1.563.203.718.203 1.234.625.531.406.828 1.031.297.61.297 1.438v4.578q0 .5.094 1.047.094.547.25.969v.14h-1.75zm-2.985-1.281q.5 0 .922-.125.438-.14.782-.344.343-.203.593-.469.266-.28.407-.562v-2h-1.563q-1.469 0-2.297.437-.812.438-.812 1.375 0 .36.125.672.125.313.36.532.25.218.624.359.375.125.86.125zm7.384-3.734q0-1.094.28-2.016.282-.938.782-1.594.516-.672 1.25-1.031.734-.375 1.625-.375.89 0 1.547.297.672.281 1.14.86v-5.126h1.688v14h-1.547l-.062-1.031q-.5.594-1.188.906-.672.313-1.594.313-.89 0-1.625-.375-.718-.39-1.234-1.063-.5-.687-.781-1.594-.281-.921-.281-1.968v-.203zm1.687.203q0 .718.156 1.36.157.64.469 1.14.328.484.828.781.5.281 1.203.281.438 0 .782-.094.343-.109.625-.296.28-.188.5-.438.218-.266.375-.578V36.88q-.329-.594-.891-.985-.547-.39-1.375-.39-.703 0-1.219.297-.5.281-.828.781-.312.5-.469 1.156-.156.64-.156 1.36v.203zm9.508-.203q0-1.094.281-2.016.282-.938.782-1.594.515-.672 1.25-1.031.734-.375 1.625-.375.89 0 1.546.297.672.281 1.141.86v-5.126h1.688v14h-1.547l-.063-1.031q-.5.594-1.187.906-.672.313-1.594.313-.89 0-1.625-.375-.719-.39-1.234-1.063-.5-.687-.782-1.594-.28-.921-.28-1.968v-.203zm1.688.203q0 .718.156 1.36.156.64.469 1.14.328.484.828.781.5.281 1.203.281.437 0 .781-.094.344-.109.625-.296.281-.188.5-.438.219-.266.375-.578V36.88q-.328-.594-.89-.985-.547-.39-1.376-.39-.703 0-1.218.297-.5.281-.828.781-.313.5-.47 1.156-.155.64-.155 1.36v.203z"/><path fill="#cfe2f3" d="M371.965 207.525c0-5.984 4.85-10.835 10.834-10.835h188.315a10.835 10.835 0 0 1 10.835 10.835v43.338c0 5.984-4.851 10.835-10.835 10.835H382.799c-5.984 0-10.834-4.85-10.834-10.835z" fill-rule="evenodd"/><path stroke="#000" stroke-linejoin="round" stroke-linecap="butt" d="M371.965 207.525h0c0-5.984 4.85-10.835 10.834-10.835h188.315a10.835 10.835 0 0 1 10.835 10.835v43.338c0 5.984-4.851 10.835-10.835 10.835H382.799c-5.984 0-10.834-4.85-10.834-10.835z"/><path fill="#000" d="M400.957 219.208q-2.25-.656-3.281-1.594-1.031-.937-1.031-2.328 0-1.562 1.25-2.594 1.265-1.03 3.265-1.03 1.36 0 2.438.53 1.078.532 1.656 1.47.594.921.594 2.03h-1.766q0-1.203-.765-1.89-.766-.688-2.157-.688-1.297 0-2.015.563-.719.562-.719 1.578 0 .812.687 1.375.688.562 2.329 1.031 1.656.453 2.593 1.016.938.562 1.375 1.312.453.75.453 1.75 0 1.61-1.25 2.594-1.25.969-3.359.969-1.375 0-2.562-.516-1.172-.531-1.813-1.437-.64-.922-.64-2.079h1.75q0 1.204.89 1.907.89.687 2.375.687 1.375 0 2.11-.562.75-.563.75-1.532 0-.984-.688-1.515-.688-.531-2.469-1.047zm8.568-2.75q1.125-1.375 2.922-1.375 3.125 0 3.156 3.516v6.515h-1.687V218.6q-.016-1.079-.5-1.579-.469-.515-1.484-.515-.813 0-1.438.437-.61.438-.969 1.157v7.015h-1.672v-14h1.672v5.344zm14.682 8.656q-.14-.297-.234-1.031-1.172 1.219-2.813 1.219-1.453 0-2.39-.828-.922-.829-.922-2.094 0-1.531 1.156-2.375 1.172-.86 3.297-.86h1.64v-.78q0-.891-.53-1.407-.516-.531-1.548-.531-.906 0-1.515.468-.61.454-.61 1.094h-1.703q0-.734.516-1.422.531-.687 1.422-1.078.906-.406 1.984-.406 1.703 0 2.672.86.969.843 1 2.327v4.532q0 1.36.344 2.172v.14h-1.766zm-2.797-1.281q.797 0 1.5-.406.719-.422 1.031-1.078v-2.016h-1.312q-3.11 0-3.11 1.812 0 .797.532 1.25.531.438 1.36.438zm11.633-7.063q-.391-.062-.844-.062-1.656 0-2.25 1.406v7h-1.672v-9.86h1.64l.016 1.141q.828-1.312 2.36-1.312.484 0 .75.125v1.562zm5.625 8.532q-2 0-3.266-1.313-1.25-1.328-1.25-3.531v-.313q0-1.468.563-2.609.562-1.156 1.562-1.797 1.016-.656 2.188-.656 1.922 0 2.984 1.266 1.063 1.265 1.063 3.625v.687h-6.672q.031 1.469.844 2.375.828.89 2.078.89.89 0 1.515-.359.625-.375 1.078-.968l1.032.796q-1.235 1.907-3.72 1.907zm-.203-8.844q-1.016 0-1.719.75-.687.734-.844 2.078h4.938v-.125q-.078-1.281-.703-1.984-.61-.719-1.672-.719zm5.587 3.64q0-2.265 1.078-3.64t2.812-1.375q1.735 0 2.75 1.172v-5.14h1.688v14h-1.547l-.094-1.063q-1 1.25-2.812 1.25-1.703 0-2.797-1.407-1.078-1.406-1.078-3.656v-.14zm1.687.204q0 1.672.688 2.625.703.937 1.922.937 1.609 0 2.343-1.437v-4.532q-.765-1.39-2.328-1.39-1.234 0-1.937.953-.688.953-.688 2.844zm16.834-1.047h-5.578v5.86h-1.734v-13.266h8.203v1.437h-6.469v4.547h5.578v1.422zm8.812 4.89q-.984 1.157-2.89 1.157-1.579 0-2.407-.922-.812-.922-.828-2.703v-6.422h1.688v6.375q0 2.234 1.828 2.234 1.922 0 2.562-1.437v-7.172h1.688v9.86h-1.61l-.03-.97zm5.8-8.89l.047 1.234q1.125-1.406 2.953-1.406 3.125 0 3.157 3.516v6.515h-1.688V218.6q-.015-1.079-.5-1.579-.469-.515-1.484-.515-.813 0-1.438.437-.61.438-.968 1.157v7.015h-1.672v-9.86h1.593zm12.653 8.672q.891 0 1.563-.547.687-.547.75-1.375h1.594q-.047.844-.578 1.61-.532.765-1.438 1.234-.89.453-1.89.453-2.016 0-3.204-1.344-1.187-1.344-1.187-3.688v-.28q0-1.438.515-2.548.532-1.125 1.516-1.734 1-.625 2.344-.625 1.656 0 2.75 1 1.11.984 1.172 2.562h-1.594q-.063-.953-.719-1.562-.656-.625-1.61-.625-1.28 0-2 .922-.702.922-.702 2.672v.328q0 1.703.703 2.625.703.922 2.015.922zm8.094-11.063v2.39h1.844v1.313h-1.844v6.11q0 .593.234.89.25.297.844.297.297 0 .813-.11v1.36q-.672.188-1.297.188-1.125 0-1.703-.688-.578-.687-.578-1.937v-6.11h-1.797v-1.312h1.797v-2.39h1.687zm5.641 12.25h-1.687v-9.86h1.687v9.86zm-1.828-12.469q0-.406.25-.687.25-.297.734-.297.5 0 .75.297.266.281.266.687 0 .407-.266.688-.25.266-.75.266-.484 0-.734-.266-.25-.281-.25-.688zm4.074 7.454q0-1.454.563-2.61.578-1.156 1.594-1.781 1.015-.625 2.312-.625 2.016 0 3.25 1.39 1.25 1.391 1.25 3.704v.125q0 1.437-.547 2.578-.547 1.14-1.578 1.781-1.016.64-2.36.64-2 0-3.25-1.39-1.234-1.406-1.234-3.703v-.11zm1.688.203q0 1.64.765 2.64.766.985 2.032.985 1.297 0 2.047-1 .75-1.016.75-2.828 0-1.625-.766-2.625-.766-1.016-2.047-1.016-1.25 0-2.016 1-.765.984-.765 2.844zm10.999-5.047l.047 1.234q1.125-1.406 2.953-1.406 3.125 0 3.156 3.516v6.515h-1.687V218.6q-.016-1.079-.5-1.579-.469-.515-1.485-.515-.812 0-1.437.437-.61.438-.969 1.157v7.015h-1.672v-9.86h1.594zm10.84 9.86h-1.75v-13.266h1.75v13.265zm4.528-9.86l.047 1.234q1.125-1.406 2.953-1.406 3.125 0 3.156 3.516v6.515h-1.687V218.6q-.016-1.079-.5-1.579-.47-.515-1.485-.515-.812 0-1.437.437-.61.438-.97 1.157v7.015h-1.671v-9.86h1.594zm9.528 9.86v-8.548h-1.563v-1.312h1.563v-1.016q0-1.578.844-2.437.843-.875 2.39-.875.594 0 1.157.156l-.094 1.375q-.422-.094-.906-.094-.813 0-1.266.485-.438.484-.438 1.375v1.03h2.094v1.313h-2.094v8.547h-1.687zm5.195-5.016q0-1.454.563-2.61.578-1.156 1.594-1.781 1.015-.625 2.312-.625 2.016 0 3.25 1.39 1.25 1.391 1.25 3.704v.125q0 1.437-.547 2.578-.547 1.14-1.578 1.781-1.015.64-2.36.64-2 0-3.25-1.39-1.234-1.406-1.234-3.703v-.11zm1.688.203q0 1.64.766 2.64.765.985 2.03.985 1.298 0 2.048-1 .75-1.016.75-2.828 0-1.625-.766-2.625-.766-1.016-2.047-1.016-1.25 0-2.015 1-.766.984-.766 2.844zm-82.059 26.812q-.094-.187-.156-.469-.063-.296-.094-.609-.25.266-.563.5-.312.219-.703.39-.375.173-.812.266-.422.11-.89.11-.798 0-1.438-.219-.625-.234-1.063-.625-.437-.39-.687-.922-.235-.531-.235-1.156 0-.813.313-1.422.328-.61.922-1.016.593-.406 1.421-.593.844-.204 1.875-.204h1.829v-.78q0-.454-.172-.798-.157-.359-.453-.609-.297-.25-.735-.39-.422-.141-.969-.141-.5 0-.906.14-.39.125-.672.344-.265.203-.422.484-.14.282-.14.594h-1.688q0-.531.266-1.047.281-.53.781-.937.5-.422 1.219-.672.734-.25 1.656-.25.844 0 1.563.203.718.203 1.234.625.531.406.828 1.031.297.61.297 1.438v4.578q0 .5.094 1.047.094.547.25.969v.14h-1.75zm-2.985-1.281q.5 0 .922-.125.438-.14.782-.344.343-.203.593-.469.266-.28.407-.562v-2h-1.563q-1.469 0-2.297.437-.812.438-.812 1.375 0 .36.125.672.125.313.36.532.25.218.624.359.375.125.86.125zm7.384-3.734q0-1.094.28-2.016.282-.938.782-1.594.516-.672 1.25-1.031.734-.375 1.625-.375.89 0 1.547.297.672.281 1.14.86v-5.126h1.688v14h-1.547l-.062-1.031q-.5.594-1.188.906-.672.313-1.594.313-.89 0-1.625-.375-.718-.39-1.234-1.063-.5-.687-.781-1.594-.281-.921-.281-1.968v-.203zm1.687.203q0 .718.156 1.36.157.64.469 1.14.328.484.828.781.5.281 1.203.281.438 0 .782-.094.343-.109.625-.296.28-.188.5-.438.218-.266.375-.578v-4.578q-.329-.594-.891-.985-.547-.39-1.375-.39-.703 0-1.219.297-.5.281-.828.781-.312.5-.469 1.156-.156.64-.156 1.36v.203zm9.508-.203q0-1.094.281-2.016.282-.938.782-1.594.515-.672 1.25-1.031.734-.375 1.625-.375.89 0 1.546.297.672.281 1.141.86v-5.126h1.688v14h-1.547l-.063-1.031q-.5.594-1.187.906-.672.313-1.594.313-.89 0-1.625-.375-.719-.39-1.234-1.063-.5-.687-.782-1.594-.28-.921-.28-1.968v-.203zm1.688.203q0 .718.156 1.36.156.64.469 1.14.328.484.828.781.5.281 1.203.281.437 0 .781-.094.344-.109.625-.296.281-.188.5-.438.219-.266.375-.578v-4.578q-.328-.594-.89-.985-.547-.39-1.376-.39-.703 0-1.218.297-.5.281-.828.781-.313.5-.47 1.156-.155.64-.155 1.36v.203z"/><path fill="#cfe2f3" d="M605.949 84.69h112v176h-112z" fill-rule="evenodd"/><path stroke="#000" stroke-linejoin="round" stroke-linecap="butt" d="M605.949 84.69h112v176h-112z"/><path fill="#fff2cc" d="M605.949 180.69h112v40h-112z" fill-rule="evenodd"/><path stroke="#000" stroke-linejoin="round" stroke-linecap="butt" d="M605.949 180.69h112v40h-112z"/><path fill="#000" d="M623.948 201.053q0 1.39-.469 2.437-.469 1.032-1.328 1.578-.86.547-2 .547-1.125 0-2-.547-.86-.546-1.344-1.562-.468-1.016-.484-2.36v-.687q0-1.36.469-2.406.484-1.063 1.343-1.61.875-.562 2-.562 1.141 0 2 .562.875.547 1.344 1.594.469 1.031.469 2.422v.594zm-1.25-.61q0-1.687-.672-2.578-.672-.906-1.89-.906-1.188 0-1.875.906-.672.89-.688 2.5v.688q0 1.64.688 2.578.687.922 1.89.922 1.203 0 1.86-.875.671-.875.687-2.531v-.704zm8.882 1.61q0 1.61-.735 2.594-.734.968-2 .968-1.28 0-2.015-.812v3.39h-1.203v-9.75h1.11l.046.782q.75-.907 2.047-.907 1.265 0 2 .954.75.953.75 2.671v.11zm-1.203-.14q0-1.188-.516-1.876-.5-.703-1.39-.703-1.094 0-1.641.969v3.375q.547.953 1.656.953.875 0 1.375-.672.516-.687.516-2.047zm4.368-5.173v1.703h1.312v.938h-1.312v4.36q0 .421.172.64.172.219.594.219.218 0 .578-.078v.968q-.47.125-.922.125-.813 0-1.219-.484-.406-.484-.406-1.39v-4.36h-1.281v-.938h1.28v-1.703h1.204zm4.026 8.75h-1.204v-7.047h1.204v7.047zm-1.297-8.906q0-.297.172-.5.187-.203.53-.203.36 0 .532.203.188.203.188.5t-.188.5q-.172.188-.531.188-.344 0-.531-.188-.172-.203-.172-.5zm4.36 1.86l.03.78q.766-.906 2.094-.906 1.469 0 2 1.125.36-.5.922-.812.563-.313 1.328-.313 2.313 0 2.36 2.454v4.718h-1.204v-4.64q0-.766-.343-1.141-.344-.375-1.172-.375-.656 0-1.11.406-.437.407-.515 1.078v4.672h-1.203v-4.61q0-1.546-1.5-1.546-1.188 0-1.625 1.016v5.14h-1.203v-7.047h1.14zm11.853 7.046h-1.203v-7.047h1.203v7.047zm-1.297-8.906q0-.297.172-.5.187-.203.53-.203.36 0 .532.203.188.203.188.5t-.188.5q-.172.188-.531.188-.344 0-.531-.188-.172-.203-.172-.5zm4.36 7.922h4.109v.984h-5.579v-.89l3.875-5.157h-3.828v-1h5.344v.86l-3.922 5.203zm8.386 1.11q-1.422 0-2.328-.938-.89-.938-.89-2.516v-.219q0-1.046.39-1.859.406-.828 1.125-1.297t1.562-.469q1.375 0 2.125.907.766.906.766 2.593v.5h-4.766q.016 1.032.594 1.672.594.64 1.484.64.641 0 1.079-.25.453-.265.78-.687l.735.563q-.875 1.36-2.656 1.36zm-.14-6.313q-.735 0-1.235.531-.484.531-.61 1.484h3.532v-.078q-.047-.922-.5-1.422-.438-.515-1.188-.515zm3.998 2.61q0-1.626.765-2.61.766-.985 2-.985 1.25 0 1.97.844v-3.672h1.202v10h-1.109l-.063-.75q-.718.875-2 .875-1.234 0-2-1-.765-1-.765-2.61v-.093zm1.203.14q0 1.187.484 1.875.5.672 1.375.672 1.141 0 1.672-1.032v-3.234q-.547-1-1.656-1-.89 0-1.39.688-.485.687-.485 2.03zm12.722 2.578q.64 0 1.125-.39.485-.391.532-.97h1.14q-.031.61-.422 1.157-.375.547-1.015.875-.64.312-1.36.312-1.437 0-2.297-.953-.843-.969-.843-2.625v-.203q0-1.031.375-1.828.39-.797 1.093-1.234.704-.454 1.672-.454 1.172 0 1.953.72.797.702.844 1.827h-1.14q-.047-.672-.516-1.11-.469-.452-1.14-.452-.923 0-1.438.672-.5.656-.5 1.906v.219q0 1.218.5 1.875.515.656 1.437.656zm3.836-2.719q0-1.047.406-1.875.407-.828 1.125-1.265.735-.454 1.657-.454 1.437 0 2.328 1 .89.985.89 2.641v.094q0 1.015-.39 1.844-.39.812-1.125 1.265-.735.453-1.688.453-1.422 0-2.312-.984-.89-1-.89-2.64v-.079zm1.203.14q0 1.173.547 1.876.547.703 1.453.703.922 0 1.453-.719.547-.719.547-2 0-1.172-.547-1.89-.546-.72-1.468-.72-.891 0-1.438.72-.547.703-.547 2.03zm6.43-.14q0-1.625.765-2.61.766-.984 2-.984 1.25 0 1.969.844v-3.672h1.203v10h-1.11l-.062-.75q-.719.875-2 .875-1.234 0-2-1-.765-1-.765-2.61v-.093zm1.203.14q0 1.188.484 1.876.5.672 1.375.672 1.14 0 1.672-1.032v-3.234q-.547-1-1.656-1-.89 0-1.39.688-.485.687-.485 2.03zm9.516 3.563q-1.422 0-2.328-.937-.89-.938-.89-2.516v-.219q0-1.046.39-1.859.406-.828 1.125-1.297t1.563-.469q1.375 0 2.125.907.765.906.765 2.593v.5h-4.765q.015 1.032.593 1.672.594.64 1.485.64.64 0 1.078-.25.453-.265.781-.687l.735.563q-.875 1.36-2.657 1.36zm-.14-6.312q-.735 0-1.235.531-.484.531-.61 1.484h3.532v-.078q-.047-.922-.5-1.422-.437-.515-1.187-.515z"/><path fill="#fff2cc" d="M605.949 140.69h112v40h-112z" fill-rule="evenodd"/><path stroke="#000" stroke-linejoin="round" stroke-linecap="butt" d="M605.949 140.69h112v40h-112z"/><path fill="#000" d="M633.484 157.49h-1.25v-9.468h1.25v9.468zm3.234-7.047l.047.891q.797-1.016 2.11-1.016 2.234 0 2.25 2.516v4.656h-1.204v-4.656q-.016-.766-.36-1.125-.327-.375-1.062-.375-.578 0-1.031.313-.438.312-.688.828v5.015h-1.203v-7.047h1.141zm8.541 5.407l1.75-5.407h1.22l-2.517 7.047h-.921l-2.547-7.047h1.218l1.797 5.407zm3.816-1.938q0-1.047.406-1.875.406-.828 1.125-1.265.734-.454 1.656-.454 1.438 0 2.328 1 .89.985.89 2.641v.094q0 1.015-.39 1.844-.39.812-1.125 1.265-.734.453-1.687.453-1.422 0-2.313-.984-.89-1-.89-2.64v-.079zm1.203.14q0 1.173.547 1.876.546.703 1.453.703.922 0 1.453-.719.547-.719.547-2 0-1.172-.547-1.89-.547-.72-1.469-.72-.89 0-1.437.72-.547.703-.547 2.03zm9.538 2.579q.641 0 1.125-.39.485-.391.532-.97h1.14q-.031.61-.422 1.157-.375.547-1.015.875-.64.312-1.36.312-1.437 0-2.297-.953-.843-.969-.843-2.625v-.203q0-1.031.375-1.828.39-.797 1.093-1.234.704-.454 1.672-.454 1.172 0 1.953.72.797.702.844 1.827h-1.14q-.047-.672-.516-1.11-.469-.452-1.14-.452-.923 0-1.438.672-.5.656-.5 1.906v.219q0 1.218.5 1.875.515.656 1.437.656zm8.508.86q-.11-.204-.172-.735-.844.86-2.015.86-1.032 0-1.704-.579-.671-.594-.671-1.5 0-1.094.828-1.703.843-.61 2.359-.61h1.172v-.562q0-.625-.375-1t-1.11-.375q-.64 0-1.078.328-.437.328-.437.782h-1.203q0-.516.36-1 .374-.5 1.015-.782.656-.297 1.422-.297 1.218 0 1.906.61.687.61.719 1.672v3.25q0 .968.234 1.53v.11h-1.25zm-2-.923q.563 0 1.063-.28.515-.298.734-.766v-1.454h-.938q-2.218 0-2.218 1.297 0 .563.375.89.39.313.984.313zm6.531-7.828v1.703h1.313v.938h-1.313v4.36q0 .421.172.64.172.219.594.219.218 0 .578-.078v.968q-.469.125-.922.125-.813 0-1.219-.484-.406-.484-.406-1.39v-4.36h-1.281v-.938h1.28v-1.703h1.204zm4.026 8.75h-1.203v-7.047h1.203v7.047zm-1.297-8.906q0-.297.172-.5.187-.203.53-.203.36 0 .532.203.188.203.188.5t-.188.5q-.172.188-.531.188-.344 0-.531-.188-.172-.203-.172-.5zm2.906 5.328q0-1.047.406-1.875.407-.828 1.125-1.265.735-.454 1.657-.454 1.437 0 2.328 1 .89.985.89 2.641v.094q0 1.015-.39 1.844-.39.812-1.125 1.265-.735.453-1.688.453-1.422 0-2.312-.984-.89-1-.89-2.64v-.079zm1.203.14q0 1.173.547 1.876.547.703 1.453.703.922 0 1.453-.719.547-.719.547-2 0-1.172-.547-1.89-.547-.72-1.468-.72-.891 0-1.438.72-.547.703-.547 2.03zm7.851-3.609l.047.891q.797-1.016 2.11-1.016 2.234 0 2.25 2.516v4.656h-1.203v-4.656q-.016-.766-.36-1.125-.328-.375-1.062-.375-.578 0-1.032.313-.437.312-.687.828v5.015h-1.203v-7.047h1.14zm-38.677 22.187q.64 0 1.125-.39.484-.39.531-.968h1.14q-.03.609-.421 1.156-.375.547-1.016.875-.64.312-1.36.312-1.437 0-2.296-.953-.844-.969-.844-2.625v-.203q0-1.031.375-1.828.39-.797 1.094-1.234.703-.454 1.672-.454 1.172 0 1.953.72.797.702.844 1.827h-1.14q-.048-.672-.517-1.11-.468-.452-1.14-.452-.922 0-1.438.672-.5.656-.5 1.906v.219q0 1.218.5 1.875.516.656 1.438.656zm3.836-2.718q0-1.047.406-1.875.406-.828 1.125-1.265.734-.454 1.656-.454 1.438 0 2.328 1 .89.985.89 2.641v.094q0 1.015-.39 1.844-.39.812-1.125 1.265-.734.453-1.687.453-1.422 0-2.313-.984-.89-1-.89-2.64v-.079zm1.203.14q0 1.173.547 1.876.546.703 1.453.703.922 0 1.453-.719.547-.719.547-2 0-1.172-.547-1.89-.547-.72-1.469-.72-.89 0-1.437.72-.547.703-.547 2.03zm11.07 2.735q-.703.828-2.063.828-1.14 0-1.734-.64-.578-.657-.578-1.938v-4.594h1.203v4.547q0 1.61 1.297 1.61 1.375 0 1.828-1.032v-5.125h1.219v7.047h-1.157l-.015-.703zm4.128-6.344l.047.891q.797-1.016 2.11-1.016 2.234 0 2.25 2.516v4.656h-1.204v-4.656q-.015-.766-.359-1.125-.328-.375-1.062-.375-.579 0-1.032.313-.437.312-.687.828v5.015h-1.203v-7.047h1.14zm7.854-1.703v1.703h1.313v.938h-1.313v4.36q0 .421.172.64.172.219.594.219.219 0 .578-.078v.968q-.469.125-.922.125-.812 0-1.219-.484-.406-.484-.406-1.39v-4.36h-1.281v-.938h1.281v-1.703h1.203z"/><path fill="#c9daf8" d="M605.949 84.69h112v56h-112z" fill-rule="evenodd"/><path stroke="#000" stroke-linejoin="round" stroke-linecap="butt" d="M605.949 84.69h112v56h-112z"/><path fill="#000" d="M630.59 102.75h-5.578v5.86h-1.735V95.345h8.203v1.437h-6.468v4.547h5.578v1.422zm6.812 6.048q-2 0-3.266-1.313-1.25-1.328-1.25-3.531v-.312q0-1.47.563-2.61.562-1.156 1.562-1.797 1.016-.656 2.188-.656 1.922 0 2.984 1.266 1.063 1.265 1.063 3.625v.687h-6.672q.03 1.469.843 2.375.829.89 2.079.89.89 0 1.515-.359.625-.375 1.078-.968l1.032.797q-1.235 1.906-3.72 1.906zm-.203-8.844q-1.016 0-1.72.75-.687.734-.843 2.078h4.938v-.125q-.078-1.281-.703-1.984-.61-.719-1.672-.719zm10.087 8.844q-2 0-3.266-1.313-1.25-1.328-1.25-3.531v-.312q0-1.47.562-2.61.563-1.156 1.563-1.797 1.016-.656 2.187-.656 1.922 0 2.985 1.266 1.062 1.265 1.062 3.625v.687h-6.672q.032 1.469.844 2.375.828.89 2.078.89.89 0 1.516-.359.625-.375 1.078-.968l1.031.797q-1.234 1.906-3.718 1.906zm-.204-8.844q-1.015 0-1.718.75-.688.734-.844 2.078h4.937v-.125q-.078-1.281-.703-1.984-.61-.719-1.672-.719zm5.587 3.64q0-2.265 1.078-3.64 1.079-1.375 2.813-1.375 1.734 0 2.75 1.172v-5.14h1.687v14h-1.546l-.094-1.063q-1 1.25-2.813 1.25-1.703 0-2.797-1.406-1.078-1.407-1.078-3.657v-.14zm1.688.204q0 1.672.687 2.625.703.937 1.922.937 1.61 0 2.344-1.437v-4.531q-.766-1.391-2.328-1.391-1.235 0-1.938.953-.687.953-.687 2.844zm17.6 0q0 2.25-1.047 3.625-1.032 1.375-2.782 1.375-1.875 0-2.89-1.328l-.078 1.14h-1.547v-14h1.672v5.235q1.03-1.266 2.812-1.266 1.797 0 2.828 1.36 1.031 1.343 1.031 3.703v.156zm-1.688-.203q0-1.72-.672-2.657-.656-.937-1.906-.937-1.672 0-2.406 1.547v4.265q.78 1.547 2.421 1.547 1.22 0 1.891-.937.672-.938.672-2.828zm9.889 5.015q-.141-.297-.235-1.031-1.172 1.219-2.812 1.219-1.453 0-2.39-.828-.923-.828-.923-2.094 0-1.531 1.156-2.375 1.172-.86 3.297-.86h1.641v-.78q0-.891-.531-1.407-.516-.531-1.547-.531-.906 0-1.516.469-.61.453-.61 1.093h-1.702q0-.734.515-1.422.532-.687 1.422-1.078.906-.406 1.985-.406 1.703 0 2.671.86.97.843 1 2.328v4.53q0 1.36.344 2.173v.14h-1.765zm-2.797-1.281q.797 0 1.5-.406.718-.422 1.031-1.078v-2.016h-1.313q-3.109 0-3.109 1.813 0 .796.531 1.25.532.437 1.36.437zm10.82.094q.89 0 1.562-.547.688-.547.75-1.375h1.594q-.047.844-.578 1.61-.532.765-1.438 1.234-.89.453-1.89.453-2.016 0-3.204-1.344-1.187-1.344-1.187-3.687v-.282q0-1.437.516-2.547.53-1.125 1.515-1.734 1-.625 2.344-.625 1.656 0 2.75 1 1.11.984 1.172 2.563h-1.594q-.062-.954-.719-1.563-.656-.625-1.609-.625-1.281 0-2 .922-.703.922-.703 2.672v.328q0 1.703.703 2.625.703.922 2.016.922zm8.562-3.375l-1.063 1.094v3.468h-1.687v-14h1.687v8.469l.907-1.078 3.062-3.25h2.047l-3.828 4.125 4.281 5.734h-1.984l-3.422-4.562zm-56.14 24.234l3.782-10.937h1.922l-4.922 13.265h-1.547l-4.922-13.265h1.906l3.781 10.937zm11.292 2.516q-2 0-3.266-1.313-1.25-1.328-1.25-3.531v-.312q0-1.47.563-2.61.562-1.156 1.562-1.797 1.016-.656 2.188-.656 1.922 0 2.984 1.266 1.063 1.265 1.063 3.625v.687h-6.672q.031 1.469.844 2.375.828.89 2.078.89.89 0 1.515-.359.625-.375 1.078-.968l1.032.797q-1.235 1.906-3.72 1.906zm-.203-8.844q-1.016 0-1.719.75-.687.734-.844 2.078h4.938v-.125q-.078-1.281-.703-1.984-.61-.719-1.672-.719zm9.962 7.469q.89 0 1.562-.547.688-.547.75-1.375h1.594q-.047.844-.578 1.61-.531.765-1.438 1.234-.89.453-1.89.453-2.016 0-3.203-1.344-1.188-1.344-1.188-3.687v-.282q0-1.437.516-2.547.531-1.125 1.515-1.734 1-.625 2.344-.625 1.656 0 2.75 1 1.11.984 1.172 2.563h-1.594q-.062-.954-.718-1.563-.657-.625-1.61-.625-1.281 0-2 .922-.703.922-.703 2.672v.328q0 1.703.703 2.625.703.922 2.016.922zm8.093-11.063v2.39h1.844v1.313h-1.844v6.11q0 .594.235.89.25.297.843.297.297 0 .813-.11v1.36q-.672.188-1.297.188-1.125 0-1.703-.688-.578-.687-.578-1.937v-6.11h-1.797v-1.312h1.797v-2.39h1.687zm3.36 7.235q0-1.453.563-2.61.578-1.156 1.593-1.781 1.016-.625 2.313-.625 2.015 0 3.25 1.39 1.25 1.391 1.25 3.704v.125q0 1.437-.547 2.578-.547 1.14-1.578 1.781-1.016.64-2.36.64-2 0-3.25-1.39-1.234-1.406-1.234-3.703v-.11zm1.688.203q0 1.64.765 2.64.766.985 2.031.985 1.297 0 2.047-1 .75-1.016.75-2.828 0-1.625-.765-2.625-.766-1.016-2.047-1.016-1.25 0-2.016 1-.765.984-.765 2.844zm14.17-3.531q-.39-.063-.843-.063-1.656 0-2.25 1.406v7H684.2v-9.86h1.64l.016 1.142q.829-1.313 2.36-1.313.484 0 .75.125v1.563z"/><path fill="#ead1dc" d="M605.949 220.69h112v40h-112z" fill-rule="evenodd"/><path stroke="#000" stroke-linejoin="round" stroke-linecap="butt" d="M605.949 220.69h112v40h-112z"/><path fill="#000" d="M636.246 245.49v-9.468h3.11q1.531 0 2.312.64.782.625.782 1.875 0 .672-.375 1.188-.375.5-1.032.78.766.22 1.203.829.454.594.454 1.422 0 1.281-.829 2.016-.828.718-2.328.718h-3.297zm1.25-4.437v3.422h2.063q.875 0 1.375-.453.516-.454.516-1.25 0-1.72-1.86-1.72h-2.094zm0-1h1.891q.828 0 1.313-.406.5-.407.5-1.11 0-.781-.47-1.14-.452-.36-1.374-.36h-1.86v3.016zm8.173 5.437h-1.203v-7.047h1.203v7.047zm-1.297-8.906q0-.297.172-.5.187-.203.531-.203.36 0 .531.203.188.203.188.5t-.188.5q-.171.188-.53.188-.345 0-.532-.188-.172-.203-.172-.5zm4.36 1.86l.046.89q.797-1.016 2.11-1.016 2.234 0 2.25 2.516v4.656h-1.203v-4.656q-.016-.766-.36-1.125-.328-.375-1.062-.375-.578 0-1.032.313-.437.312-.687.828v5.015h-1.203v-7.047h1.14zm10.572 7.046q-.11-.203-.172-.734-.843.86-2.015.86-1.032 0-1.703-.579-.672-.594-.672-1.5 0-1.094.828-1.703.844-.61 2.36-.61h1.171v-.562q0-.625-.375-1t-1.11-.375q-.64 0-1.077.328-.438.328-.438.782h-1.203q0-.516.36-1 .374-.5 1.015-.782.656-.297 1.422-.297 1.219 0 1.906.61.688.61.719 1.672v3.25q0 .968.234 1.53v.11h-1.25zm-2-.922q.563 0 1.063-.28.515-.298.734-.766v-1.454h-.937q-2.22 0-2.22 1.297 0 .563.376.89.39.313.984.313zm8.297-5.046q-.266-.032-.594-.032-1.187 0-1.61 1v5h-1.202v-7.047h1.171l.032.813q.578-.938 1.672-.938.343 0 .53.094v1.11zm3.416 4.203l1.64-5.282h1.282l-2.828 8.141q-.657 1.75-2.094 1.75l-.219-.016-.453-.093v-.97l.328.032q.61 0 .953-.25.344-.25.563-.906l.265-.719-2.515-6.969h1.312l1.766 5.282zm11.478-2.672q0 1.39-.469 2.437-.469 1.032-1.328 1.578-.86.547-2 .547-1.125 0-2-.547-.86-.546-1.344-1.562-.468-1.016-.484-2.36v-.687q0-1.36.469-2.406.484-1.063 1.343-1.61.875-.562 2-.562 1.141 0 2 .562.875.547 1.344 1.594.469 1.031.469 2.422v.594zm-1.25-.61q0-1.687-.672-2.578-.672-.906-1.89-.906-1.188 0-1.876.906-.671.89-.687 2.5v.688q0 1.64.687 2.578.688.922 1.891.922t1.86-.875q.671-.875.687-2.531v-.704zm8.882 1.61q0 1.61-.735 2.594-.734.968-2 .968-1.28 0-2.015-.812v3.39h-1.203v-9.75h1.11l.046.782q.75-.907 2.047-.907 1.265 0 2 .954.75.953.75 2.671v.11zm-1.203-.14q0-1.188-.516-1.876-.5-.703-1.39-.703-1.094 0-1.641.969v3.375q.547.953 1.656.953.875 0 1.375-.672.516-.687.516-2.047z"/><path fill="#cfe2f3" d="M189.949 208.533c0-5.984 4.85-10.835 10.835-10.835h138.33a10.835 10.835 0 0 1 10.835 10.835v43.338c0 5.984-4.851 10.835-10.835 10.835h-138.33c-5.984 0-10.835-4.85-10.835-10.835z" fill-rule="evenodd"/><path stroke="#000" stroke-linejoin="round" stroke-linecap="butt" d="M189.949 208.533h0c0-5.984 4.85-10.835 10.835-10.835h138.33a10.835 10.835 0 0 1 10.835 10.835v43.338c0 5.984-4.851 10.835-10.835 10.835h-138.33 0c-5.984 0-10.835-4.85-10.835-10.835z"/><path fill="#000" d="M249.048 232.919q-.25 2.094-1.562 3.25-1.297 1.14-3.47 1.14-2.343 0-3.765-1.687-1.422-1.687-1.422-4.516v-1.265q0-1.86.657-3.25.672-1.406 1.875-2.156 1.218-.766 2.812-.766 2.11 0 3.39 1.187 1.282 1.172 1.485 3.266h-1.765q-.22-1.578-.985-2.281-.765-.719-2.125-.719-1.672 0-2.625 1.234-.953 1.235-.953 3.532v1.281q0 2.156.89 3.437.907 1.266 2.532 1.266 1.453 0 2.234-.656.782-.656 1.032-2.297h1.765zm1.674-.813q0-1.453.563-2.609.578-1.156 1.594-1.781 1.015-.625 2.312-.625 2.016 0 3.25 1.39 1.25 1.391 1.25 3.704v.125q0 1.437-.547 2.578-.547 1.14-1.578 1.781-1.015.64-2.36.64-2 0-3.25-1.39-1.234-1.406-1.234-3.703v-.11zm1.688.204q0 1.64.766 2.64.765.985 2.03.985 1.298 0 2.048-1 .75-1.016.75-2.829 0-1.625-.766-2.625-.766-1.015-2.047-1.015-1.25 0-2.015 1-.766.984-.766 2.844zm11-5.047l.046 1.234q1.125-1.406 2.953-1.406 3.125 0 3.156 3.515v6.516h-1.687v-6.516q-.016-1.078-.5-1.578-.469-.515-1.484-.515-.813 0-1.438.437-.61.438-.969 1.156v7.016h-1.672v-9.86h1.594zm10.98-2.39v2.39h1.844v1.312h-1.844v6.11q0 .593.235.89.25.297.844.297.296 0 .812-.11v1.36q-.672.188-1.297.188-1.125 0-1.703-.688-.578-.687-.578-1.937v-6.11h-1.797v-1.312h1.797v-2.39h1.687zm7.892 12.437q-2 0-3.266-1.313-1.25-1.328-1.25-3.531v-.313q0-1.468.562-2.609.563-1.156 1.563-1.797 1.016-.656 2.187-.656 1.922 0 2.985 1.265 1.062 1.266 1.062 3.625v.688h-6.672q.032 1.469.844 2.375.828.89 2.078.89.89 0 1.516-.359.625-.375 1.078-.969l1.031.797q-1.234 1.907-3.718 1.907zm-.204-8.844q-1.015 0-1.718.75-.688.734-.844 2.078h4.937v-.125q-.078-1.281-.703-1.984-.61-.72-1.672-.72zm9.306 2.39l2.188-3.593h1.968l-3.218 4.875 3.328 4.984h-1.953l-2.282-3.687-2.28 3.687h-1.954l3.328-4.984-3.234-4.875h1.953l2.156 3.593zm8.23-5.984v2.39h1.844v1.313h-1.843v6.11q0 .593.234.89.25.297.844.297.297 0 .812-.11v1.36q-.672.188-1.297.188-1.125 0-1.703-.688-.578-.687-.578-1.937v-6.11h-1.797v-1.312h1.797v-2.39h1.688z"/><path d="M165.949 37.194h496V84.69"/><path stroke="#666" stroke-width="2" stroke-linejoin="round" stroke-linecap="butt" d="M165.949 37.194h496V72.69"/><path fill="#666" stroke="#666" stroke-width="2" stroke-linecap="butt" d="M658.645 72.69l3.304 9.076 3.303-9.076z" fill-rule="evenodd"/><path d="M165.949 37.194h311.023V196.69"/><path stroke="#666" stroke-width="2" stroke-linejoin="round" stroke-linecap="butt" d="M165.949 37.194h311.023V184.69"/><path fill="#666" stroke="#666" stroke-width="2" stroke-linecap="butt" d="M473.669 184.69l3.303 9.076 3.304-9.076z" fill-rule="evenodd"/><path d="M165.949 37.194h104v160.504"/><path stroke="#666" stroke-width="2" stroke-linejoin="round" stroke-linecap="butt" d="M165.949 37.194h104v148.504"/><path fill="#666" stroke="#666" stroke-width="2" stroke-linecap="butt" d="M266.645 185.698l3.304 9.076 3.303-9.076z" fill-rule="evenodd"/><path fill="#c9daf8" d="M605.949 284.69h112v56h-112z" fill-rule="evenodd"/><path stroke="#000" stroke-linejoin="round" stroke-linecap="butt" d="M605.949 284.69h112v56h-112z"/><path fill="#000" d="M624.88 319.61v-13.265h4.329q2.156 0 3.25.89 1.093.89 1.093 2.64 0 .938-.53 1.657-.532.703-1.438 1.094 1.062.312 1.687 1.156.625.844.625 2 0 1.781-1.156 2.813-1.156 1.015-3.266 1.015h-4.593zm1.735-6.203v4.766h2.89q1.22 0 1.922-.625.72-.64.72-1.75 0-2.39-2.61-2.39h-2.922zm0-1.406h2.656q1.14 0 1.828-.563.688-.578.688-1.562 0-1.094-.64-1.594-.641-.5-1.938-.5h-2.594v4.219zm12.833 5.14l2.297-7.39h1.797l-3.953 11.375q-.922 2.469-2.922 2.469l-.328-.032-.625-.125v-1.359l.453.031q.86 0 1.328-.343.484-.344.797-1.266l.375-1-3.516-9.75h1.844l2.453 7.39zm7.89-9.78v2.39h1.844v1.312h-1.844v6.11q0 .594.234.89.25.297.844.297.297 0 .813-.11v1.36q-.672.188-1.297.188-1.125 0-1.703-.688-.579-.687-.579-1.937v-6.11h-1.796v-1.312h1.796v-2.39h1.688zm7.891 12.437q-2 0-3.266-1.313-1.25-1.328-1.25-3.531v-.312q0-1.47.563-2.61.562-1.156 1.562-1.797 1.016-.656 2.188-.656 1.922 0 2.984 1.266 1.063 1.265 1.063 3.625v.687H652.4q.031 1.469.844 2.375.828.89 2.078.89.89 0 1.515-.359.625-.375 1.078-.968l1.032.797q-1.235 1.906-3.719 1.906zm-.203-8.844q-1.016 0-1.719.75-.687.734-.844 2.078h4.938v-.125q-.078-1.281-.703-1.984-.61-.719-1.672-.719zm9.962 7.469q.89 0 1.562-.547.688-.547.75-1.375h1.594q-.047.844-.578 1.61-.531.765-1.438 1.234-.89.453-1.89.453-2.016 0-3.203-1.344-1.188-1.344-1.188-3.687v-.282q0-1.437.516-2.547.531-1.125 1.515-1.734 1-.625 2.344-.625 1.656 0 2.75 1 1.11.984 1.172 2.563H667.3q-.062-.954-.718-1.563-.657-.625-1.61-.625-1.281 0-2 .922-.703.922-.703 2.672v.328q0 1.703.703 2.625.703.922 2.016.922zm5.359-3.828q0-1.453.562-2.61.579-1.156 1.594-1.781 1.016-.625 2.313-.625 2.015 0 3.25 1.39 1.25 1.391 1.25 3.704v.125q0 1.437-.547 2.578-.547 1.14-1.578 1.781-1.016.64-2.36.64-2 0-3.25-1.39-1.234-1.406-1.234-3.703v-.11zm1.687.203q0 1.64.766 2.64.766.985 2.031.985 1.297 0 2.047-1 .75-1.016.75-2.828 0-1.625-.765-2.625-.766-1.016-2.047-1.016-1.25 0-2.016 1-.766.984-.766 2.844zm8.984-.203q0-2.266 1.078-3.641t2.813-1.375q1.734 0 2.75 1.172v-5.14h1.687v14H687.8l-.093-1.063q-1 1.25-2.813 1.25-1.703 0-2.797-1.406-1.078-1.407-1.078-3.657v-.14zm1.688.203q0 1.672.687 2.625.703.937 1.922.937 1.61 0 2.344-1.437v-4.531Q686.893 311 685.33 311q-1.235 0-1.938.953-.687.953-.687 2.844zm13.334 5q-2 0-3.266-1.313-1.25-1.328-1.25-3.531v-.312q0-1.47.562-2.61.563-1.156 1.563-1.797 1.016-.656 2.187-.656 1.922 0 2.985 1.266 1.062 1.265 1.062 3.625v.687h-6.672q.032 1.469.844 2.375.828.89 2.078.89.89 0 1.516-.359.625-.375 1.078-.968l1.031.797q-1.234 1.906-3.718 1.906zm-.204-8.844q-1.015 0-1.718.75-.688.734-.844 2.078h4.937v-.125q-.078-1.281-.703-1.984-.61-.719-1.672-.719z"/><path d="M476.957 261.698v50.992h129.008"/><path stroke="#666" stroke-width="2" stroke-linejoin="round" stroke-linecap="butt" d="M476.957 261.698v50.992h117.008"/><path fill="#666" stroke="#666" stroke-width="2" stroke-linecap="butt" d="M593.965 315.994l9.076-3.304-9.076-3.303z" fill-rule="evenodd"/></g></svg>