<svg viewBox="0 0 1063.743 465.278" fill="none" stroke-linecap="square" stroke-miterlimit="10" xmlns="http://www.w3.org/2000/svg"><clipPath id="a"><path d="M0 0h1063.743v465.278H0V0z"/></clipPath><g clip-path="url(#a)"><path d="M0 0h1063.743v465.278H0z"/><path fill="#ead1dc" d="M7.871 184.14h1048v96h-1048z" fill-rule="evenodd"/><path stroke="#4c1130" stroke-linejoin="round" stroke-linecap="butt" d="M7.871 184.14h1048v96h-1048z"/><path fill="#d9ead3" d="M7.871 360.14h1048v96h-1048z" fill-rule="evenodd"/><path stroke="#274e13" stroke-linejoin="round" stroke-linecap="butt" d="M7.871 360.14h1048v96h-1048z"/><path d="M7.871 320.14h1048"/><path stroke="#b7b7b7" stroke-linejoin="round" stroke-linecap="butt" stroke-dasharray="4.0,3.0" d="M7.871 320.14h1048"/><path fill="#fce5cd" d="M167.871 369.14h144v80h-144z" fill-rule="evenodd"/><path stroke="#783f04" stroke-linejoin="round" stroke-linecap="butt" d="M167.871 369.14h144v80h-144z"/><path fill="#000" d="M194.065 412.075q-.109.922-.468 1.687-.36.766-.938 1.328-.562.547-1.344.86-.765.297-1.734.297-.812 0-1.484-.235-.672-.234-1.203-.64-.516-.422-.891-.97-.375-.562-.625-1.218-.25-.656-.375-1.375t-.14-1.453v-1.844q.015-.75.14-1.469.125-.718.375-1.375.25-.656.625-1.203.375-.562.89-.968.532-.422 1.188-.657.672-.234 1.5-.234 1 0 1.781.312.782.313 1.344.875.563.547.906 1.344.344.781.453 1.719h-1.687q-.078-.594-.281-1.11-.203-.53-.547-.921-.328-.39-.813-.61-.484-.218-1.156-.218-.594 0-1.062.203-.454.187-.797.531-.328.328-.547.781-.219.438-.36.938-.14.5-.203 1.031-.047.516-.047 1.016v1.859q0 .5.047 1.031.063.516.203 1.016.141.5.36.953.219.437.547.781.343.344.797.547.453.188 1.062.188.672 0 1.156-.204.485-.218.813-.593.344-.375.547-.89.203-.517.28-1.11h1.688zm9.9-2.14h-5.532v4.687h6.453v1.437h-8.14v-13.266h8.062v1.438h-6.375v4.266h5.531v1.437zm5.413-3.735l.125 1.453q.532-.766 1.313-1.188.781-.437 1.75-.437.781 0 1.406.219.64.218 1.078.687.453.453.688 1.172.25.719.25 1.687v6.266H214.3v-6.219q0-.656-.156-1.109-.14-.453-.422-.734-.281-.297-.703-.422-.406-.125-.953-.125-.844 0-1.484.422-.641.421-1.032 1.125v7.062h-1.687v-9.86h1.515zm13.68-2.39v2.39h3.75v1.312h-3.75v5.344q0 .578.141.953.14.375.39.594.266.219.594.312.344.094.72.094.265 0 .546-.031.297-.031.578-.078.281-.047.516-.094.25-.047.406-.094l.234 1.203q-.218.125-.515.22-.297.093-.657.155-.343.078-.75.11-.39.047-.78.047-.657 0-1.235-.188-.563-.187-.985-.594-.421-.406-.671-1.047-.235-.64-.235-1.562v-5.344h-2.578V406.2h2.578v-2.39h1.703zm13.665 2.218q.234 0 .484.015.266 0 .484.032.235.031.422.078.203.047.344.11l-.234 1.64q-.485-.11-.938-.156-.437-.047-.922-.047-1.187 0-1.922.547-.734.53-1.078 1.484v6.328h-1.687v-9.86h1.594l.093 1.563q.594-.797 1.438-1.265.844-.47 1.922-.47zm8.352 6.531l.437 1.188 3.016-7.547h1.89l-5.015 11.375q-.172.39-.438.812-.265.438-.656.797-.375.36-.89.61-.5.25-1.173.25-.109 0-.265-.016-.14-.016-.297-.047-.14-.016-.266-.047-.125-.016-.203-.047l.266-1.375q.062 0 .172.016.109.015.218.015.125.016.235.016h.172q.359 0 .64-.187.282-.188.5-.454.235-.265.39-.546.157-.282.25-.47l.673-1.312-4.235-9.39h1.875l2.704 6.36zm14.523.14q0-.609-.281-1.015-.281-.422-.719-.703-.437-.297-.969-.484-.515-.188-1-.344-.703-.235-1.421-.547-.72-.328-1.329-.781-.593-.469-.968-1.094-.375-.64-.375-1.5t.375-1.531q.375-.672.984-1.14.61-.47 1.375-.704.781-.25 1.578-.25.86 0 1.656.297.813.281 1.422.812.625.516 1 1.25.375.735.391 1.641h-1.734q-.079-.563-.282-1.031-.203-.469-.562-.813-.344-.344-.828-.515-.469-.188-1.063-.188-.484 0-.953.14-.453.126-.812.407-.36.266-.579.672-.218.39-.218.922.015.578.297.984.28.39.718.672.438.266.938.453.5.172.953.313.484.156.984.359.5.187.97.437.468.25.858.579.407.312.704.718.312.407.468.891.172.484.172 1.078 0 .89-.406 1.563-.39.671-1.016 1.109-.625.437-1.422.672-.78.219-1.578.219-.89 0-1.734-.266-.844-.281-1.516-.797t-1.093-1.25q-.407-.75-.438-1.703h1.719q.078.625.328 1.11.266.468.656.812.406.328.922.5.531.156 1.156.156.485 0 .97-.125.483-.125.843-.375.375-.266.61-.656.25-.406.25-.953zm8.243-8.89v2.39h3.75v1.313h-3.75v5.344q0 .578.14.953t.39.594q.267.219.595.312.343.094.718.094.266 0 .547-.031.297-.031.578-.078.282-.047.516-.094.25-.047.406-.094l.235 1.203q-.22.125-.516.22-.297.093-.656.155-.344.078-.75.11-.39.047-.781.047-.657 0-1.235-.188-.562-.187-.984-.594-.422-.406-.672-1.047-.234-.64-.234-1.562v-5.344h-2.579V406.2h2.579v-2.39h1.703zm13.601 10.89q-.5.735-1.234 1.141-.734.407-1.703.407-.781 0-1.406-.235-.625-.25-1.078-.765-.438-.516-.688-1.297-.234-.782-.234-1.89v-5.86h1.687v5.875q0 .812.125 1.343.125.516.375.829.266.312.625.453.375.125.86.125 1.03 0 1.656-.422.64-.422.953-1.125V406.2h1.687v9.86h-1.53l-.095-1.36zm13.15-3.452q0 1.046-.266 1.968-.25.907-.75 1.594-.485.672-1.204 1.063-.718.375-1.656.375-.953 0-1.656-.329-.688-.343-1.188-.984l-.078 1.125h-1.547v-14h1.688v5.203q.484-.61 1.156-.922.688-.312 1.61-.312.937 0 1.656.375.734.36 1.219 1.031.5.656.75 1.594.265.922.265 2.015v.204zm-1.688-.204q0-.718-.14-1.359-.142-.656-.454-1.156-.313-.5-.813-.781-.5-.297-1.218-.297-.438 0-.813.125-.36.11-.656.312-.281.203-.5.485-.219.265-.375.593v4.313q.156.328.375.61.234.28.516.5.296.202.656.312.375.11.812.11.688 0 1.188-.282.5-.297.812-.781.313-.5.453-1.141.157-.64.157-1.36v-.203z"/><path fill="#d9d2e9" d="M167.871 193.14h224v80h-224z" fill-rule="evenodd"/><path stroke="#20124d" stroke-linejoin="round" stroke-linecap="butt" d="M167.871 193.14h224v80h-224z"/><path fill="#000" d="M180.674 240.06v-13.267h3.953q.812.016 1.594.22.78.202 1.39.64.625.422.985 1.094.359.656.359 1.578-.016.531-.172.953-.156.422-.437.765-.282.344-.657.61-.375.25-.797.422.532.156.97.453.452.281.765.687.328.407.5.922.172.5.172 1.094.015.937-.36 1.656-.359.703-.968 1.188-.61.468-1.407.718-.797.25-1.64.266h-4.25zm1.703-6.204v4.766h2.594q.53 0 1-.172.468-.172.828-.469.375-.297.578-.734.219-.438.219-1 .015-.563-.188-1-.187-.438-.531-.735-.344-.312-.813-.469-.468-.171-1-.187h-2.687zm0-1.406h2.344q.468 0 .921-.14.47-.142.813-.407.36-.281.578-.672.219-.39.219-.906 0-.563-.219-.953-.203-.391-.562-.641-.36-.25-.829-.36-.468-.124-.968-.14h-2.297v4.219zm15.914 6.25q-.5.734-1.234 1.14-.735.407-1.703.407-.782 0-1.407-.235-.625-.25-1.078-.765-.437-.516-.687-1.297-.235-.782-.235-1.89v-5.86h1.688v5.875q0 .812.125 1.343.125.516.375.829.266.312.625.453.375.125.86.125 1.03 0 1.656-.422.64-.422.953-1.125V230.2h1.687v9.86h-1.531l-.094-1.36zm5.055-8.5h5.047v8.406h3.219v1.453h-8.266v-1.453h3.36v-6.938h-3.36V230.2zm3.14-2.578q0-.422.25-.704.25-.296.766-.296.5 0 .75.296.25.282.25.704 0 .406-.25.687-.25.266-.75.266-.515 0-.765-.266-.25-.281-.25-.687zm8.056-1.563h5.047v12.547h3.218v1.453h-8.265v-1.453h3.36v-11.078h-3.36v-1.469zm14.93 1.75v2.39h3.75v1.313h-3.75v5.344q0 .578.14.953t.39.594q.267.219.595.312.343.094.718.094.266 0 .547-.031.297-.031.578-.078.282-.047.516-.094.25-.047.406-.094l.235 1.203q-.22.125-.516.22-.297.093-.656.155-.344.078-.75.11-.39.047-.781.047-.657 0-1.235-.188-.562-.187-.984-.594-.422-.406-.672-1.047-.234-.64-.234-1.562v-5.344h-2.579V230.2h2.579v-2.39h1.703zm7.46 2.39h5.048v8.407h3.218v1.453h-8.265v-1.453h3.36v-6.938h-3.36V230.2zm3.141-2.577q0-.422.25-.704.25-.296.766-.296.5 0 .75.296.25.282.25.704 0 .406-.25.687-.25.266-.75.266-.516 0-.766-.266-.25-.281-.25-.687zm9.305 2.578l.125 1.453q.532-.766 1.313-1.188.781-.437 1.75-.437.781 0 1.406.219.64.218 1.078.687.453.453.688 1.172.25.719.25 1.687v6.266H254.3v-6.219q0-.656-.156-1.109-.14-.453-.422-.734-.281-.297-.703-.422-.406-.125-.953-.125-.844 0-1.484.422-.641.421-1.032 1.125v7.062h-1.687v-9.86h1.515zm17.868 11.234h-8.36v-1.375h8.36v1.375zm9.961-4.734q0-.61-.281-1.016-.281-.422-.719-.703-.437-.297-.969-.484-.515-.188-1-.344-.703-.235-1.422-.547-.718-.328-1.328-.781-.593-.469-.968-1.094-.375-.64-.375-1.5t.375-1.531q.375-.672.984-1.14.61-.47 1.375-.704.781-.25 1.578-.25.86 0 1.656.297.813.281 1.422.812.625.516 1 1.25.375.735.39 1.641h-1.734q-.078-.563-.28-1.031-.204-.469-.563-.813-.344-.344-.828-.515-.47-.188-1.063-.188-.484 0-.953.14-.453.126-.813.407-.359.266-.578.672-.218.39-.218.922.015.578.296.984.282.39.72.672.437.266.937.453.5.172.953.313.484.156.984.359.5.187.969.437t.86.579q.406.312.702.718.313.407.47.891.171.484.171 1.078 0 .89-.406 1.563-.39.671-1.016 1.109-.625.437-1.422.672-.78.219-1.578.219-.89 0-1.734-.266-.844-.281-1.516-.797t-1.094-1.25q-.406-.75-.437-1.703h1.719q.078.625.328 1.11.265.468.656.812.406.328.922.5.531.156 1.156.156.485 0 .969-.125t.844-.375q.375-.266.61-.656.25-.406.25-.953zm8.602 3.547q-1.031 0-1.906-.36t-1.5-.984q-.61-.64-.953-1.516-.344-.875-.344-1.906v-.39q0-1.188.375-2.126.39-.953 1.015-1.593.641-.657 1.438-1 .812-.344 1.656-.344 1.063 0 1.86.375.796.36 1.328 1.015.53.641.78 1.532.267.875.267 1.906v.75h-7.032q.016.687.25 1.281.235.578.64 1.031.407.438.97.704.562.25 1.25.25.906 0 1.593-.36.704-.375 1.172-.969l1.032.797q-.25.375-.625.72-.36.327-.844.593-.485.265-1.094.422-.61.172-1.328.172zm-.219-8.844q-.515 0-.969.187-.453.188-.812.547-.36.36-.625.89-.25.516-.344 1.204h5.297v-.125q-.016-.5-.187-.984-.157-.485-.47-.86-.296-.39-.765-.625-.469-.234-1.125-.234zm11.055-3.594v2.39h3.75v1.313h-3.75v5.344q0 .578.14.953.141.375.391.594.266.219.594.312.344.094.719.094.265 0 .547-.031.297-.031.578-.078.281-.047.515-.094.25-.047.407-.094l.234 1.203q-.219.125-.516.22-.296.093-.656.155-.344.078-.75.11-.39.047-.781.047-.656 0-1.234-.188-.563-.187-.985-.594-.422-.406-.672-1.047-.234-.64-.234-1.562v-5.344h-2.578V230.2h2.578v-2.39h1.703zm14.586 6.39H305.7v5.86h-1.703v-13.266h8.156v1.438H305.7v4.547h5.531v1.422zm3.336.844q0-1.062.313-1.984.312-.922.89-1.594.579-.672 1.407-1.047.828-.39 1.86-.39 1.046 0 1.874.39.844.375 1.422 1.047.578.672.89 1.594.313.922.313 1.984v.204q0 1.062-.312 1.968-.313.907-.89 1.594-.579.672-1.407 1.063-.828.375-1.86.375-1.046 0-1.89-.375-.828-.391-1.406-1.063-.579-.687-.891-1.594-.313-.906-.313-1.968v-.204zm1.688.204q0 .718.172 1.39.172.656.515 1.156.36.5.891.797.531.282 1.234.282.688 0 1.204-.282.53-.297.875-.797.359-.5.53-1.156.173-.672.173-1.39v-.204q0-.718-.188-1.375-.172-.671-.531-1.171-.344-.5-.875-.797-.516-.297-1.219-.297-.703 0-1.219.297-.515.297-.875.797-.343.5-.515 1.171-.172.657-.172 1.375v.204zm16.446-5.22q.234 0 .484.016.266 0 .484.032.235.031.422.078.203.047.344.11l-.234 1.64q-.485-.11-.938-.156-.437-.047-.922-.047-1.187 0-1.922.547-.734.53-1.078 1.484v6.328h-1.687v-9.86h1.593l.094 1.563q.594-.797 1.438-1.265.843-.47 1.922-.47zm12.023 3.907h-5.531v4.688h6.453v1.437h-8.14v-13.266h8.062v1.438h-6.375v4.266h5.531v1.437zm10.383 6.125q-.093-.187-.156-.469-.062-.297-.094-.609-.25.266-.562.5-.313.219-.703.39-.375.172-.813.266-.422.11-.89.11-.797 0-1.438-.22-.625-.234-1.062-.624-.438-.39-.688-.922-.234-.531-.234-1.156 0-.813.312-1.422.328-.61.922-1.016.594-.406 1.422-.594.844-.203 1.875-.203h1.828v-.78q0-.454-.172-.798-.156-.36-.453-.61-.297-.25-.734-.39-.422-.14-.969-.14-.5 0-.906.14-.39.125-.672.344-.266.203-.422.484-.14.282-.14.594h-1.688q0-.531.265-1.047.282-.531.782-.937.5-.422 1.218-.672.735-.25 1.657-.25.843 0 1.562.203.719.203 1.235.625.53.406.828 1.031.297.61.297 1.438v4.578q0 .5.093 1.047.094.547.25.968v.141h-1.75zm-2.984-1.281q.5 0 .922-.125.437-.14.781-.344.344-.203.594-.469.265-.28.406-.562v-2h-1.562q-1.47 0-2.297.437-.813.438-.813 1.375 0 .36.125.672.125.313.36.531.25.22.625.36.375.125.859.125zm11.899.094q.453 0 .89-.141.438-.14.766-.406.344-.266.547-.61.203-.359.219-.765h1.593q-.015.656-.343 1.265-.329.594-.891 1.047-.563.438-1.281.719-.72.266-1.5.266-1.11 0-1.953-.407-.844-.406-1.407-1.078-.547-.687-.843-1.562-.282-.89-.282-1.875v-.39q0-.97.282-1.86.296-.89.843-1.563.563-.687 1.407-1.078.843-.406 1.953-.406.875 0 1.609.281.734.266 1.266.75.53.469.828 1.125.312.656.312 1.406h-1.593q-.016-.453-.204-.843-.187-.391-.515-.688-.313-.312-.75-.484-.438-.172-.953-.172-.782 0-1.313.312-.531.313-.86.828-.327.5-.468 1.141-.14.625-.14 1.25v.39q0 .641.14 1.282.14.625.453 1.14.328.5.86.813.53.313 1.328.313zm8.68-7.204q.53-.78 1.296-1.203.782-.437 1.75-.437.782 0 1.407.219.64.218 1.078.703.453.468.687 1.187.25.719.25 1.719v6.203h-1.687v-6.219q0-1.218-.578-1.812-.578-.594-1.657-.578-.812 0-1.468.406-.657.39-1.078 1.047v7.156h-1.688v-14h1.688v5.61z"/><path fill="#cfe2f3" d="M15.871 368.14h96v80h-96z" fill-rule="evenodd"/><path stroke="#000" stroke-linejoin="round" stroke-linecap="butt" d="M15.871 368.14h96v80h-96z"/><path fill="#000" d="M55.219 412.45q0-.313-.125-.547-.125-.235-.407-.438-.28-.203-.75-.375-.453-.172-1.14-.297-.86-.187-1.563-.421-.687-.25-1.187-.594-.485-.344-.766-.797-.265-.469-.265-1.078 0-.594.28-1.11.282-.53.782-.921.516-.391 1.219-.61.703-.234 1.562-.234.907 0 1.625.234.735.235 1.25.656.516.407.782.97.28.562.28 1.218H55.11q0-.328-.172-.625-.156-.313-.453-.547-.281-.234-.703-.375-.406-.156-.922-.156-.547 0-.953.125-.406.11-.672.312-.265.203-.406.47-.14.265-.14.546t.109.516q.11.234.375.421.281.172.734.329.453.14 1.14.265.907.203 1.626.453.719.25 1.203.61.5.343.75.812.266.453.266 1.063 0 .656-.297 1.203-.282.531-.813.922-.531.375-1.265.593-.735.204-1.61.204-1.015 0-1.797-.266-.781-.281-1.328-.719-.531-.437-.828-1.015-.281-.594-.281-1.22h1.687q.032.516.266.876.25.36.61.578.359.219.796.312.438.079.875.079 1.063 0 1.672-.391.625-.39.64-1.031zm11.039 1.25q-.5.734-1.234 1.14-.735.407-1.704.407-.78 0-1.406-.235-.625-.25-1.078-.765-.437-.516-.687-1.297-.235-.782-.235-1.89v-5.86h1.688v5.875q0 .812.125 1.343.125.516.375.829.265.312.625.453.375.125.86.125 1.03 0 1.655-.422.641-.422.953-1.125V405.2h1.688v9.86h-1.531l-.094-1.36zm5.57-8.5l.047.937q.297-.531.782-.812.5-.297 1.187-.297 1.36 0 1.813 1.047.297-.469.765-.75.485-.297 1.157-.297 1.093 0 1.671.672.579.656.579 2v7.36h-1.594v-7.376q0-1.25-1.14-1.234-.298 0-.516.093-.22.079-.375.22-.141.14-.22.327-.077.188-.109.375v7.594h-1.609v-7.39q0-.594-.266-.907-.265-.328-.828-.312-.53 0-.828.218-.281.204-.422.547v7.844h-1.61v-9.86h1.517z"/><path fill="#6fa8dc" d="M119.871 396.14h20v-12l20 24-20 24v-12h-20z" fill-rule="evenodd"/><path stroke="#073763" stroke-linejoin="round" stroke-linecap="butt" d="M119.871 396.14h20v-12l20 24-20 24v-12h-20z"/><path fill="#cfe2f3" d="M951.871 368.14h96v80h-96z" fill-rule="evenodd"/><path stroke="#000" stroke-linejoin="round" stroke-linecap="butt" d="M951.871 368.14h96v80h-96z"/><path fill="#000" d="M991.219 412.45q0-.313-.125-.547-.125-.235-.407-.438-.28-.203-.75-.375-.453-.172-1.14-.297-.86-.187-1.563-.421-.687-.25-1.187-.594-.485-.344-.766-.797-.266-.469-.266-1.078 0-.594.282-1.11.281-.53.781-.921.516-.391 1.219-.61.703-.234 1.562-.234.906 0 1.625.234.735.235 1.25.656.516.407.781.97.282.562.282 1.218h-1.688q0-.328-.172-.625-.156-.313-.453-.547-.281-.234-.703-.375-.406-.156-.922-.156-.547 0-.953.125-.406.11-.672.312-.265.203-.406.47-.14.265-.14.546t.109.516q.11.234.375.421.281.172.734.329.453.14 1.14.265.907.203 1.626.453.718.25 1.203.61.5.343.75.812.265.453.265 1.063 0 .656-.296 1.203-.282.531-.813.922-.531.375-1.266.593-.734.204-1.609.204-1.016 0-1.797-.266-.781-.281-1.328-.719-.531-.437-.828-1.015-.281-.594-.281-1.22h1.687q.031.516.266.876.25.36.61.578.359.219.796.312.438.079.875.079 1.063 0 1.672-.391.625-.39.64-1.031zm11.039 1.25q-.5.734-1.234 1.14-.735.407-1.704.407-.78 0-1.406-.235-.625-.25-1.078-.765-.437-.516-.687-1.297-.235-.782-.235-1.89v-5.86h1.688v5.875q0 .812.125 1.343.125.516.375.829.265.312.625.453.375.125.86.125 1.03 0 1.655-.422.641-.422.953-1.125V405.2h1.688v9.86h-1.531l-.094-1.36zm5.57-8.5l.047.937q.297-.531.782-.812.5-.297 1.187-.297 1.36 0 1.813 1.047.297-.469.765-.75.485-.297 1.157-.297 1.093 0 1.671.672.579.656.579 2v7.36h-1.594v-7.376q0-1.25-1.14-1.234-.298 0-.516.093-.22.079-.375.22-.141.14-.22.327-.077.188-.109.375v7.594h-1.609v-7.39q0-.594-.266-.907-.265-.328-.828-.312-.531 0-.828.218-.281.204-.422.547v7.844h-1.61v-9.86h1.517z"/><path fill="#6fa8dc" d="M903.871 396.14h20v-12l20 24-20 24v-12h-20z" fill-rule="evenodd"/><path stroke="#073763" stroke-linejoin="round" stroke-linecap="butt" d="M903.871 396.14h20v-12l20 24-20 24v-12h-20z"/><path fill="#a64d79" d="M235.871 353.14v-1.5h24v1.5zm0-3v-3h24v3zm0-4.5v-32.5h-12l24-24 24 24h-12v32.5z" fill-rule="evenodd"/><path stroke="#4c1130" stroke-linejoin="round" stroke-linecap="butt" d="M235.871 353.14v-1.5h24v1.5zm0-3v-3h24v3zm0-4.5v-32.5h-12l24-24 24 24h-12v32.5z"/><path fill="#a64d79" d="M827.871 289.14v1.5h-24v-1.5zm0 3v3h-24v-3zm0 4.5v32.5h12l-24 24-24-24h12v-32.5z" fill-rule="evenodd"/><path stroke="#4c1130" stroke-linejoin="round" stroke-linecap="butt" d="M827.871 289.14v1.5h-24v-1.5zm0 3v3h-24v-3zm0 4.5v32.5h12l-24 24-24-24h12v-32.5z"/><path d="M7.871 320.14h184v40h-184z"/><path fill="#274e13" d="M23.403 333.793h2.734v9.188q0 1.266-.562 2.234-.563.97-1.579 1.5-1.015.532-2.312.532-2.094 0-3.281-1.063-1.172-1.078-1.172-3.047h2.75q0 .985.406 1.453.422.454 1.297.454.797 0 1.25-.532.469-.547.469-1.531v-9.188zM34.01 347.06q-.171-.36-.265-.89-.953 1.078-2.485 1.078-1.453 0-2.406-.844-.937-.844-.937-2.11 0-1.578 1.156-2.406 1.156-.844 3.36-.844h1.202v-.578q0-.671-.359-1.078-.344-.422-1.094-.422-.656 0-1.047.329-.375.312-.375.875h-2.625q0-.86.516-1.579.531-.734 1.5-1.14.969-.422 2.172-.422 1.812 0 2.875.922 1.078.906 1.078 2.562v4.266q.016 1.406.39 2.125v.156H34.01zm-2.171-1.828q.578 0 1.062-.25.5-.266.734-.703v-1.703h-.984q-1.969 0-2.094 1.375l-.015.156q0 .484.343.813.344.312.954.312zm10.158-1.39l1.828-6.641h2.75l-3.328 9.86h-2.516l-3.312-9.86h2.75l1.828 6.64zm11.444 3.218q-.172-.36-.266-.89-.953 1.078-2.484 1.078-1.453 0-2.406-.844-.938-.844-.938-2.11 0-1.578 1.156-2.406 1.157-.844 3.36-.844h1.203v-.578q0-.671-.36-1.078-.343-.422-1.093-.422-.656 0-1.047.329-.375.312-.375.875h-2.625q0-.86.516-1.579.53-.734 1.5-1.14.968-.422 2.171-.422 1.813 0 2.875.922 1.079.906 1.079 2.562v4.266q.015 1.406.39 2.125v.156h-2.656zm-2.172-1.828q.578 0 1.063-.25.5-.266.734-.703v-1.703h-.984q-1.97 0-2.094 1.375l-.016.156q0 .484.344.813.344.312.953.312zm13.518-1.656q0-.766-.547-1.172-.547-.422-1.969-.875-1.422-.469-2.25-.922-2.265-1.219-2.265-3.281 0-1.078.61-1.922.608-.844 1.733-1.313 1.141-.484 2.563-.484 1.406 0 2.516.516 1.125.515 1.734 1.453.61.937.61 2.14h-2.72q0-.906-.578-1.406-.578-.516-1.609-.516-1.016 0-1.578.422-.547.422-.547 1.11 0 .656.656 1.094.657.437 1.922.812 2.328.703 3.39 1.75 1.063 1.031 1.063 2.578 0 1.719-1.297 2.703-1.296.985-3.5.985-1.53 0-2.796-.563-1.25-.562-1.922-1.531-.657-.985-.657-2.266h2.75q0 2.188 2.625 2.188.97 0 1.516-.39.547-.392.547-1.11zm8.516 1.547q.734 0 1.187-.391.453-.406.469-1.078h2.469q0 1-.547 1.844-.531.828-1.469 1.296-.937.454-2.062.454-2.11 0-3.344-1.344-1.219-1.344-1.219-3.719v-.172q0-2.281 1.219-3.625 1.219-1.36 3.328-1.36 1.844 0 2.953 1.048 1.125 1.047 1.14 2.797H74.96q-.016-.766-.469-1.235-.453-.484-1.203-.484-.922 0-1.39.672-.47.672-.47 2.172v.265q0 1.531.454 2.203.469.657 1.422.657zm11.166-5.454q-.531-.062-.937-.062-1.5 0-1.97 1v6.453H78.94v-9.86h2.484l.078 1.173q.782-1.344 2.188-1.344.437 0 .828.11l-.047 2.53zm4.055 7.391h-2.656v-9.86h2.656v9.86zm-2.797-12.406q0-.594.39-.969.391-.39 1.079-.39.672 0 1.062.39.407.375.407.969t-.407.984q-.39.375-1.062.375t-1.078-.375q-.391-.39-.391-.984zm13.837 7.562q0 2.282-1.047 3.657-1.031 1.375-2.781 1.375-1.5 0-2.422-1.047v4.656H90.69V337.2h2.438l.093.969q.953-1.141 2.5-1.141 1.813 0 2.828 1.344 1.016 1.343 1.016 3.718v.125zm-2.64-.187q0-1.375-.485-2.11-.484-.75-1.422-.75-1.234 0-1.703.938v4.031q.484.985 1.719.985 1.89 0 1.89-3.094zm7.409-7.25v2.422h1.687v1.937h-1.687v4.922q0 .547.203.781.219.235.813.235.437 0 .78-.063v2q-.78.235-1.593.235-2.781 0-2.828-2.797v-5.313h-1.438V337.2h1.438v-2.422h2.625z"/><path d="M7.871 280.14h184v40h-184z"/><path fill="#4c1130" d="M28.465 302.637q-.156 2.14-1.578 3.375-1.422 1.235-3.75 1.235-2.562 0-4.031-1.72-1.453-1.718-1.453-4.718v-.812q0-1.907.672-3.36.671-1.469 1.921-2.25 1.266-.781 2.922-.781 2.297 0 3.688 1.234 1.406 1.235 1.625 3.453h-2.735q-.093-1.28-.718-1.859-.61-.578-1.86-.578-1.375 0-2.047.984-.671.97-.703 3.032v1q0 2.156.657 3.156.656.984 2.062.984 1.266 0 1.875-.578.625-.578.719-1.797h2.734zm6.941-3h3.281v2.375h-3.28v3.719H32.89v-3.719h-3.297v-2.375h3.297v-3.562h2.515v3.562zm10.185 0h3.28v2.375h-3.28v3.719h-2.516v-3.719h-3.297v-2.375h3.297v-3.562h2.516v3.562z"/><path d="M7.871 145.14h1048"/><path stroke="#b7b7b7" stroke-linejoin="round" stroke-linecap="butt" stroke-dasharray="4.0,3.0" d="M7.871 145.14h1048"/><path d="M7.871 145.14h184v40h-184z"/><path fill="#4c1130" d="M28.465 167.637q-.156 2.14-1.578 3.375-1.422 1.235-3.75 1.235-2.562 0-4.031-1.72-1.453-1.718-1.453-4.718v-.812q0-1.907.672-3.36.671-1.469 1.921-2.25 1.266-.781 2.922-.781 2.297 0 3.688 1.234 1.406 1.235 1.625 3.453h-2.735q-.093-1.28-.718-1.859-.61-.578-1.86-.578-1.375 0-2.047.984-.671.97-.703 3.032v1q0 2.156.657 3.156.656.984 2.062.984 1.266 0 1.875-.578.625-.578.719-1.797h2.734zm6.941-3h3.281v2.375h-3.28v3.719H32.89v-3.719h-3.297v-2.375h3.297v-3.562h2.515v3.562zm10.185 0h3.28v2.375h-3.28v3.719h-2.516v-3.719h-3.297v-2.375h3.297v-3.562h2.516v3.562z"/><path d="M7.871 105.14h184v40h-184z"/><path fill="#274e13" d="M23.403 118.793h2.734v9.188q0 1.266-.562 2.234-.563.97-1.579 1.5-1.015.532-2.312.532-2.094 0-3.281-1.063-1.172-1.078-1.172-3.047h2.75q0 .985.406 1.453.422.453 1.297.453.797 0 1.25-.53.469-.548.469-1.532v-9.188zM34.01 132.06q-.171-.36-.265-.89-.953 1.078-2.485 1.078-1.453 0-2.406-.844-.937-.844-.937-2.11 0-1.578 1.156-2.406 1.156-.844 3.36-.844h1.202v-.578q0-.672-.359-1.078-.344-.422-1.094-.422-.656 0-1.047.328-.375.313-.375.875h-2.625q0-.859.516-1.578.531-.734 1.5-1.14.969-.422 2.172-.422 1.812 0 2.875.922 1.078.906 1.078 2.562v4.266q.016 1.406.39 2.125v.156H34.01zm-2.171-1.828q.578 0 1.062-.25.5-.266.734-.703v-1.703h-.984q-1.969 0-2.094 1.375l-.015.156q0 .484.343.812.344.313.954.313zm10.158-1.39l1.828-6.641h2.75l-3.328 9.86h-2.516l-3.312-9.86h2.75l1.828 6.64zm11.444 3.218q-.172-.36-.266-.89-.953 1.078-2.484 1.078-1.453 0-2.406-.844-.938-.844-.938-2.11 0-1.578 1.156-2.406 1.157-.844 3.36-.844h1.203v-.578q0-.672-.36-1.078-.343-.422-1.093-.422-.656 0-1.047.328-.375.313-.375.875h-2.625q0-.859.516-1.578.53-.734 1.5-1.14.968-.422 2.171-.422 1.813 0 2.875.922 1.079.906 1.079 2.562v4.266q.015 1.406.39 2.125v.156h-2.656zm-2.172-1.828q.578 0 1.063-.25.5-.266.734-.703v-1.703h-.984q-1.97 0-2.094 1.375l-.016.156q0 .484.344.812.344.313.953.313zm13.518-1.656q0-.766-.547-1.172-.547-.422-1.969-.875-1.422-.469-2.25-.922-2.265-1.219-2.265-3.281 0-1.078.61-1.922.608-.844 1.733-1.313 1.141-.484 2.563-.484 1.406 0 2.516.516 1.125.515 1.734 1.453.61.937.61 2.14h-2.72q0-.906-.578-1.406-.578-.516-1.609-.516-1.016 0-1.578.422-.547.422-.547 1.11 0 .656.656 1.093.657.438 1.922.813 2.328.703 3.39 1.75 1.063 1.031 1.063 2.578 0 1.719-1.297 2.703-1.296.985-3.5.985-1.53 0-2.796-.563-1.25-.562-1.922-1.531-.657-.985-.657-2.266h2.75q0 2.188 2.625 2.188.97 0 1.516-.39.547-.392.547-1.11zm8.516 1.547q.734 0 1.187-.391.453-.406.469-1.078h2.469q0 1-.547 1.844-.531.828-1.469 1.296-.937.454-2.062.454-2.11 0-3.344-1.344-1.219-1.344-1.219-3.719v-.172q0-2.281 1.219-3.625 1.219-1.36 3.328-1.36 1.844 0 2.953 1.048 1.125 1.047 1.14 2.797H74.96q-.016-.766-.469-1.235-.453-.484-1.203-.484-.922 0-1.39.672-.47.672-.47 2.172v.265q0 1.531.454 2.203.469.657 1.422.657zm11.166-5.454q-.531-.062-.937-.062-1.5 0-1.97 1v6.453H78.94v-9.86h2.484l.078 1.173q.782-1.344 2.188-1.344.437 0 .828.11l-.047 2.53zm4.055 7.391h-2.656v-9.86h2.656v9.86zm-2.797-12.406q0-.594.39-.969.391-.39 1.079-.39.672 0 1.062.39.407.375.407.969t-.407.984q-.39.375-1.062.375t-1.078-.375q-.391-.39-.391-.984zm13.837 7.562q0 2.282-1.047 3.657-1.031 1.375-2.781 1.375-1.5 0-2.422-1.047v4.656H90.69V122.2h2.438l.093.968q.953-1.14 2.5-1.14 1.813 0 2.828 1.344 1.016 1.343 1.016 3.718v.125zm-2.64-.187q0-1.375-.485-2.11-.484-.75-1.422-.75-1.234 0-1.703.938v4.031q.484.985 1.719.985 1.89 0 1.89-3.094zm7.409-7.25v2.422h1.687v1.937h-1.687v4.922q0 .547.203.781.219.235.813.235.437 0 .78-.063v2q-.78.235-1.593.235-2.781 0-2.828-2.797v-5.313h-1.438V122.2h1.438v-2.422h2.625z"/><path fill="#d9ead3" d="M7.871 9.14h1048v96h-1048z" fill-rule="evenodd"/><path stroke="#274e13" stroke-linejoin="round" stroke-linecap="butt" d="M7.871 9.14h1048v96h-1048z"/><path fill="#a64d79" d="M283.871 177.14v-1.5h24v1.5zm0-3v-3h24v3zm0-4.5v-32.5h-12l24-24 24 24h-12v32.5z" fill-rule="evenodd"/><path stroke="#4c1130" stroke-linejoin="round" stroke-linecap="butt" d="M283.871 177.14v-1.5h24v1.5zm0-3v-3h24v3zm0-4.5v-32.5h-12l24-24 24 24h-12v32.5z"/><path fill="#a64d79" d="M787.871 113.14v1.5h-24v-1.5zm0 3v3h-24v-3zm0 4.5v32.5h12l-24 24-24-24h12v-32.5z" fill-rule="evenodd"/><path stroke="#4c1130" stroke-linejoin="round" stroke-linecap="butt" d="M787.871 113.14v1.5h-24v-1.5zm0 3v3h-24v-3zm0 4.5v32.5h12l-24 24-24-24h12v-32.5z"/><path fill="#fce5cd" d="M223.871 17.14h152v80h-152z" fill-rule="evenodd"/><path stroke="#783f04" stroke-linejoin="round" stroke-linecap="butt" d="M223.871 17.14h152v80h-152z"/><path fill="#000" d="M246.108 50.793h1.719v9.235q-.016.922-.36 1.703-.328.766-.906 1.328-.562.547-1.343.875-.782.313-1.703.313-.922 0-1.688-.282-.766-.28-1.328-.812-.547-.531-.89-1.266-.345-.75-.423-1.656h1.72q.015.547.218 1.031.203.469.531.828.344.344.813.532.468.187 1.047.187.609 0 1.078-.219.468-.218.797-.593.343-.391.515-.891.172-.516.203-1.078v-9.235zm11.915 9.907q0-.61-.282-1.016-.28-.422-.718-.703-.438-.297-.97-.484-.515-.188-1-.344-.702-.235-1.421-.547-.719-.328-1.328-.781-.594-.469-.969-1.094-.375-.64-.375-1.5t.375-1.531q.375-.672.984-1.14.61-.47 1.375-.704.782-.25 1.579-.25.859 0 1.656.297.812.281 1.422.812.625.516 1 1.25.375.735.39 1.641h-1.734q-.078-.563-.281-1.031-.203-.469-.563-.813-.344-.344-.828-.515-.469-.188-1.062-.188-.485 0-.954.14-.453.126-.812.407-.36.266-.578.672-.219.39-.219.922.016.578.297.984.281.39.719.672.437.266.937.453.5.172.953.313.485.156.985.359.5.187.968.437.47.25.86.579.406.312.703.718.312.407.469.891.172.484.172 1.078 0 .89-.407 1.563-.39.671-1.015 1.109-.625.437-1.422.672-.781.219-1.578.219-.89 0-1.735-.266-.843-.281-1.515-.797-.672-.516-1.094-1.25-.406-.75-.438-1.703h1.72q.077.625.327 1.11.266.468.657.812.406.328.921.5.532.156 1.157.156.484 0 .968-.125.485-.125.844-.375.375-.266.61-.656.25-.406.25-.953zm11.539-2.766h-5.531v4.688h6.453v1.437h-8.14V50.793h8.062v1.438h-6.375v4.266h5.53v1.437zm5.414-3.734l.125 1.453q.531-.766 1.313-1.188.781-.437 1.75-.437.781 0 1.406.219.64.218 1.078.687.453.453.688 1.172.25.719.25 1.687v6.266h-1.688V57.84q0-.656-.156-1.109-.14-.453-.422-.734-.281-.297-.703-.422-.406-.125-.953-.125-.844 0-1.485.422-.64.421-1.03 1.125v7.062h-1.688V54.2h1.515zm13.68-2.39v2.39h3.75v1.312h-3.75v5.344q0 .578.14.953.141.375.391.594.266.219.594.312.344.094.719.094.266 0 .547-.031.297-.031.578-.078.281-.047.516-.094.25-.047.406-.094l.234 1.203q-.219.125-.515.22-.297.093-.657.155-.343.078-.75.11-.39.047-.781.047-.656 0-1.234-.188-.563-.187-.985-.594-.422-.406-.672-1.047-.234-.64-.234-1.562v-5.344h-2.578V54.2h2.578v-2.39h1.703zm13.664 2.218q.235 0 .485.015.265 0 .484.032.235.031.422.078.203.047.344.11l-.235 1.64q-.484-.11-.937-.156-.438-.047-.922-.047-1.187 0-1.922.547-.734.53-1.078 1.484v6.328h-1.687V54.2h1.593l.094 1.563q.594-.797 1.438-1.265.843-.47 1.921-.47zm8.352 6.531l.438 1.188 3.015-7.547h1.891L311 65.575q-.171.39-.437.812-.266.438-.656.797-.375.36-.89.61-.5.25-1.173.25-.11 0-.265-.016-.141-.016-.297-.047-.14-.016-.266-.047-.125-.016-.203-.047l.266-1.375q.062 0 .171.016.11.015.22.015.124.016.234.016h.171q.36 0 .641-.187.281-.188.5-.454.234-.265.39-.546.157-.282.25-.47l.673-1.312-4.235-9.39h1.875l2.703 6.36zm14.524.14q0-.609-.281-1.015-.282-.422-.719-.703-.438-.297-.969-.484-.515-.188-1-.344-.703-.235-1.422-.547-.718-.328-1.328-.781-.594-.469-.969-1.094-.375-.64-.375-1.5t.375-1.531q.375-.672.985-1.14.61-.47 1.375-.704.781-.25 1.578-.25.86 0 1.656.297.813.281 1.422.812.625.516 1 1.25.375.735.39 1.641h-1.734q-.078-.563-.28-1.031-.204-.469-.563-.813-.344-.344-.829-.515-.468-.188-1.062-.188-.484 0-.953.14-.453.126-.813.407-.359.266-.578.672-.219.39-.219.922.016.578.297.984.282.39.72.672.437.266.937.453.5.172.953.313.484.156.984.359.5.187.969.437t.86.579q.405.312.702.718.313.407.47.891.171.484.171 1.078 0 .89-.406 1.563-.39.671-1.016 1.109-.625.437-1.422.672-.781.219-1.578.219-.89 0-1.734-.266-.844-.281-1.516-.797t-1.094-1.25q-.406-.75-.437-1.703h1.719q.078.625.328 1.11.265.468.656.812.406.328.922.5.531.156 1.156.156.484 0 .969-.125.484-.125.844-.375.375-.266.609-.656.25-.406.25-.953zm8.242-8.89v2.39h3.75v1.313h-3.75v5.344q0 .578.141.953.14.375.39.594.266.219.594.312.344.094.72.094.265 0 .546-.031.297-.031.578-.078.281-.047.516-.094.25-.047.406-.094l.234 1.203q-.218.125-.515.22-.297.093-.656.155-.344.078-.75.11-.391.047-.782.047-.656 0-1.234-.188-.563-.187-.984-.594-.422-.406-.672-1.047-.235-.64-.235-1.562v-5.344h-2.578V54.2h2.578v-2.39h1.703zM347.04 62.7q-.5.735-1.234 1.141-.734.407-1.703.407-.781 0-1.406-.235-.625-.25-1.079-.765-.437-.516-.687-1.297-.234-.782-.234-1.89V54.2h1.687v5.875q0 .812.125 1.343.125.516.375.829.266.312.625.453.375.125.86.125 1.03 0 1.656-.422.64-.422.953-1.125V54.2h1.687v9.86h-1.531l-.094-1.36zm13.149-3.452q0 1.046-.266 1.968-.25.907-.75 1.594-.484.672-1.203 1.063-.719.375-1.656.375-.953 0-1.656-.329-.688-.343-1.188-.984l-.078 1.125h-1.547v-14h1.688v5.203q.484-.61 1.156-.922.687-.312 1.61-.312.937 0 1.656.375.734.36 1.218 1.031.5.656.75 1.594.266.922.266 2.015v.204zm-1.688-.204q0-.718-.14-1.359-.14-.656-.453-1.156-.313-.5-.813-.781-.5-.297-1.219-.297-.437 0-.812.125-.36.11-.656.312-.282.203-.5.485-.219.265-.375.593v4.313q.156.328.375.61.234.28.515.5.297.202.657.312.375.11.812.11.688 0 1.188-.282.5-.297.812-.781.313-.5.453-1.141.156-.64.156-1.36v-.203z"/><path fill="#6fa8dc" d="M383.871 45.14h20v-12l20 24-20 24v-12h-20z" fill-rule="evenodd"/><path stroke="#073763" stroke-linejoin="round" stroke-linecap="butt" d="M383.871 45.14h20v-12l20 24-20 24v-12h-20z"/><path fill="#cfe2f3" d="M431.871 17.14h216v80h-216z" fill-rule="evenodd"/><path stroke="#000" stroke-linejoin="round" stroke-linecap="butt" d="M431.871 17.14h216v80h-216z"/><path fill="#000" d="M500.87 62.872q.453 0 .891-.141.437-.14.766-.406.343-.266.546-.61.204-.359.22-.765h1.593q-.016.656-.344 1.265-.328.594-.89 1.047-.563.438-1.282.719-.718.266-1.5.266-1.109 0-1.953-.407-.844-.406-1.406-1.078-.547-.687-.844-1.562-.281-.89-.281-1.875v-.39q0-.97.281-1.86.297-.89.844-1.563.562-.687 1.406-1.078.844-.406 1.953-.406.875 0 1.61.281.734.266 1.265.75.532.469.828 1.125.313.656.313 1.406h-1.594q-.015-.453-.203-.843-.187-.391-.516-.688-.312-.312-.75-.484-.437-.172-.953-.172-.78 0-1.312.312-.531.313-.86.828-.328.5-.468 1.141-.14.625-.14 1.25v.39q0 .641.14 1.282.14.625.453 1.14.328.5.86.813.53.313 1.327.313zm13.477 1.187q-.094-.187-.156-.469-.063-.297-.094-.609-.25.266-.562.5-.313.219-.703.39-.375.172-.813.266-.422.11-.89.11-.797 0-1.438-.22-.625-.234-1.063-.624-.437-.39-.687-.922-.234-.531-.234-1.156 0-.813.312-1.422.328-.61.922-1.016.594-.406 1.422-.594.844-.203 1.875-.203h1.828v-.78q0-.454-.172-.798-.156-.36-.453-.61-.297-.25-.734-.39-.422-.14-.97-.14-.5 0-.905.14-.391.125-.672.344-.266.203-.422.484-.14.282-.14.594h-1.688q0-.531.265-1.047.282-.531.782-.937.5-.422 1.218-.672.735-.25 1.657-.25.843 0 1.562.203.719.203 1.234.625.532.406.829 1.031.296.61.296 1.438v4.578q0 .5.094 1.047.094.547.25.968v.141h-1.75zm-2.984-1.281q.5 0 .922-.125.437-.14.78-.344.345-.203.595-.469.265-.28.406-.562v-2h-1.563q-1.468 0-2.296.437-.813.438-.813 1.375 0 .36.125.672.125.313.36.531.25.22.624.36.375.125.86.125zm7.961-12.719h5.047v12.547h3.219v1.453h-8.266v-1.453h3.36V51.528h-3.36v-1.469zm11.196 0h5.046v12.547h3.22v1.453h-8.266v-1.453h3.359V51.528h-3.36v-1.469zm19.289 9.188q0 1.046-.266 1.968-.25.907-.75 1.594-.484.672-1.203 1.063-.719.375-1.656.375-.953 0-1.656-.329-.688-.343-1.188-.984l-.078 1.125h-1.547v-14h1.688v5.203q.484-.61 1.156-.922.687-.312 1.61-.312.937 0 1.656.375.734.36 1.218 1.031.5.656.75 1.594.266.922.266 2.015v.204zm-1.688-.204q0-.718-.14-1.359-.14-.656-.453-1.156-.313-.5-.813-.781-.5-.297-1.219-.297-.437 0-.812.125-.36.11-.656.312-.282.203-.5.485-.22.265-.375.593v4.313q.156.328.375.61.234.28.515.5.297.202.657.312.375.11.812.11.688 0 1.188-.282.5-.297.812-.781.313-.5.453-1.141.156-.64.156-1.36v-.203zm11.008 5.016q-.093-.187-.156-.469-.062-.297-.094-.609-.25.266-.562.5-.313.219-.703.39-.375.172-.813.266-.422.11-.89.11-.797 0-1.438-.22-.625-.234-1.062-.624-.438-.39-.688-.922-.234-.531-.234-1.156 0-.813.312-1.422.328-.61.922-1.016.594-.406 1.422-.594.844-.203 1.875-.203h1.828v-.78q0-.454-.172-.798-.156-.36-.453-.61-.297-.25-.734-.39-.422-.14-.969-.14-.5 0-.906.14-.39.125-.672.344-.266.203-.422.484-.14.282-.14.594h-1.688q0-.531.266-1.047.28-.531.78-.937.5-.422 1.22-.672.734-.25 1.656-.25.844 0 1.562.203.72.203 1.235.625.531.406.828 1.031.297.61.297 1.438v4.578q0 .5.093 1.047.094.547.25.968v.141h-1.75zm-2.984-1.281q.5 0 .922-.125.437-.14.781-.344.344-.203.594-.469.266-.28.406-.562v-2h-1.562q-1.469 0-2.297.437-.813.438-.813 1.375 0 .36.125.672.125.313.36.531.25.22.625.36.375.125.86.125zm11.899.094q.453 0 .89-.141.438-.14.766-.406.344-.266.547-.61.203-.359.219-.765h1.593q-.015.656-.343 1.265-.328.594-.891 1.047-.562.438-1.281.719-.719.266-1.5.266-1.11 0-1.953-.407-.844-.406-1.407-1.078-.546-.687-.843-1.562-.282-.89-.282-1.875v-.39q0-.97.282-1.86.297-.89.843-1.563.563-.687 1.407-1.078.843-.406 1.953-.406.875 0 1.61.281.734.266 1.265.75.531.469.828 1.125.312.656.312 1.406h-1.593q-.016-.453-.203-.843-.188-.391-.516-.688-.313-.312-.75-.484-.438-.172-.953-.172-.781 0-1.313.312-.531.313-.86.828-.327.5-.468 1.141-.14.625-.14 1.25v.39q0 .641.14 1.282.14.625.453 1.14.328.5.86.813.53.313 1.328.313zm9.945-3.407l-1.234 1.188v3.406h-1.687v-14h1.687v8.578l1.11-1.187 3.234-3.25h2.047l-4 4.11 4.609 5.75h-2.14l-3.626-4.595z"/><path fill="#fce5cd" d="M703.871 17.14h152v80h-152z" fill-rule="evenodd"/><path stroke="#783f04" stroke-linejoin="round" stroke-linecap="butt" d="M703.871 17.14h152v80h-152z"/><path fill="#000" d="M726.108 50.793h1.719v9.235q-.016.922-.36 1.703-.328.766-.906 1.328-.562.547-1.343.875-.782.313-1.704.313-.921 0-1.687-.282-.766-.28-1.328-.812-.547-.531-.89-1.266-.345-.75-.423-1.656h1.72q.015.547.218 1.031.203.469.531.828.344.344.813.532.468.187 1.046.187.61 0 1.079-.219.468-.218.796-.593.344-.391.516-.891.172-.516.203-1.078v-9.235zm11.915 9.907q0-.61-.282-1.016-.28-.422-.718-.703-.438-.297-.97-.484-.515-.188-1-.344-.702-.235-1.421-.547-.719-.328-1.328-.781-.594-.469-.969-1.094-.375-.64-.375-1.5t.375-1.531q.375-.672.984-1.14.61-.47 1.375-.704.782-.25 1.579-.25.859 0 1.656.297.812.281 1.422.812.625.516 1 1.25.375.735.39 1.641h-1.734q-.078-.563-.281-1.031-.203-.469-.563-.813-.344-.344-.828-.515-.469-.188-1.062-.188-.485 0-.954.14-.453.126-.812.407-.36.266-.578.672-.219.39-.219.922.016.578.297.984.281.39.719.672.437.266.937.453.5.172.953.313.485.156.985.359.5.187.968.437.47.25.86.579.406.312.703.718.312.407.469.891.172.484.172 1.078 0 .89-.407 1.563-.39.671-1.015 1.109-.625.437-1.422.672-.781.219-1.578.219-.89 0-1.735-.266-.843-.281-1.515-.797-.672-.516-1.094-1.25-.406-.75-.438-1.703h1.72q.077.625.327 1.11.266.468.657.812.406.328.921.5.532.156 1.157.156.484 0 .968-.125.485-.125.844-.375.375-.266.61-.656.25-.406.25-.953zm11.539-2.766h-5.531v4.688h6.453v1.437h-8.14V50.793h8.062v1.438h-6.375v4.266h5.53v1.437zm5.414-3.734l.125 1.453q.531-.766 1.313-1.188.78-.437 1.75-.437.78 0 1.406.219.64.218 1.078.687.453.453.688 1.172.25.719.25 1.687v6.266h-1.688V57.84q0-.656-.156-1.109-.14-.453-.422-.734-.281-.297-.703-.422-.406-.125-.953-.125-.844 0-1.485.422-.64.421-1.03 1.125v7.062h-1.688V54.2h1.515zm13.68-2.39v2.39h3.75v1.312h-3.75v5.344q0 .578.14.953.141.375.391.594.266.219.594.312.344.094.719.094.265 0 .547-.031.297-.031.578-.078.281-.047.515-.094.25-.047.407-.094l.234 1.203q-.219.125-.516.22-.296.093-.656.155-.344.078-.75.11-.39.047-.781.047-.656 0-1.234-.188-.563-.187-.985-.594-.422-.406-.672-1.047-.234-.64-.234-1.562v-5.344h-2.578V54.2h2.578v-2.39h1.703zm13.664 2.218q.235 0 .485.015.265 0 .484.032.235.031.422.078.203.047.344.11l-.235 1.64q-.484-.11-.937-.156-.438-.047-.922-.047-1.187 0-1.922.547-.734.53-1.078 1.484v6.328h-1.687V54.2h1.593l.094 1.563q.594-.797 1.438-1.265.843-.47 1.921-.47zm8.352 6.531l.438 1.188 3.015-7.547h1.891L791 65.575q-.171.39-.437.812-.266.438-.656.797-.375.36-.891.61-.5.25-1.172.25-.11 0-.265-.016-.141-.016-.297-.047-.141-.016-.266-.047-.125-.016-.203-.047l.266-1.375q.062 0 .171.016.11.015.22.015.124.016.234.016h.171q.36 0 .641-.187.281-.188.5-.454.234-.265.39-.546.157-.282.25-.47l.673-1.312-4.235-9.39h1.875l2.703 6.36zm14.524.14q0-.609-.281-1.015-.282-.422-.719-.703-.438-.297-.969-.484-.515-.188-1-.344-.703-.235-1.422-.547-.718-.328-1.328-.781-.594-.469-.969-1.094-.375-.64-.375-1.5t.375-1.531q.375-.672.985-1.14.61-.47 1.375-.704.781-.25 1.578-.25.86 0 1.656.297.813.281 1.422.812.625.516 1 1.25.375.735.39 1.641h-1.734q-.078-.563-.28-1.031-.204-.469-.563-.813-.344-.344-.829-.515-.468-.188-1.062-.188-.484 0-.953.14-.453.126-.813.407-.359.266-.578.672-.219.39-.219.922.016.578.297.984.282.39.72.672.437.266.937.453.5.172.953.313.484.156.984.359.5.187.969.437t.86.579q.405.312.702.718.313.407.47.891.171.484.171 1.078 0 .89-.406 1.563-.39.671-1.016 1.109-.625.437-1.422.672-.781.219-1.578.219-.89 0-1.734-.266-.844-.281-1.516-.797t-1.094-1.25q-.406-.75-.437-1.703h1.719q.078.625.328 1.11.265.468.656.812.406.328.922.5.531.156 1.156.156.484 0 .969-.125.484-.125.844-.375.375-.266.609-.656.25-.406.25-.953zm8.242-8.89v2.39h3.75v1.313h-3.75v5.344q0 .578.141.953.14.375.39.594.266.219.594.312.344.094.72.094.265 0 .546-.031.297-.031.578-.078.281-.047.516-.094.25-.047.406-.094l.234 1.203q-.218.125-.515.22-.297.093-.656.155-.344.078-.75.11-.391.047-.782.047-.656 0-1.234-.188-.563-.187-.984-.594-.422-.406-.672-1.047-.235-.64-.235-1.562v-5.344h-2.578V54.2h2.578v-2.39h1.703zM827.04 62.7q-.5.735-1.234 1.141-.734.407-1.703.407-.781 0-1.406-.235-.625-.25-1.079-.765-.437-.516-.687-1.297-.234-.782-.234-1.89V54.2h1.687v5.875q0 .812.125 1.343.125.516.375.829.266.312.625.453.375.125.86.125 1.03 0 1.656-.422.64-.422.953-1.125V54.2h1.687v9.86h-1.531l-.094-1.36zm13.149-3.452q0 1.046-.266 1.968-.25.907-.75 1.594-.484.672-1.203 1.063-.719.375-1.656.375-.953 0-1.656-.329-.688-.343-1.188-.984l-.078 1.125h-1.547v-14h1.688v5.203q.484-.61 1.156-.922.687-.312 1.61-.312.937 0 1.656.375.734.36 1.218 1.031.5.656.75 1.594.266.922.266 2.015v.204zm-1.688-.204q0-.718-.14-1.359-.14-.656-.453-1.156-.313-.5-.813-.781-.5-.297-1.219-.297-.437 0-.812.125-.36.11-.656.312-.282.203-.5.485-.219.265-.375.593v4.313q.156.328.375.61.234.28.515.5.297.202.657.312.375.11.812.11.688 0 1.188-.282.5-.297.812-.781.313-.5.453-1.141.156-.64.156-1.36v-.203z"/><path fill="#6fa8dc" d="M655.871 45.14h20v-12l20 24-20 24v-12h-20z" fill-rule="evenodd"/><path stroke="#073763" stroke-linejoin="round" stroke-linecap="butt" d="M655.871 45.14h20v-12l20 24-20 24v-12h-20z"/><path fill="#fce5cd" d="M751.871 369.14h144v80h-144z" fill-rule="evenodd"/><path stroke="#783f04" stroke-linejoin="round" stroke-linecap="butt" d="M751.871 369.14h144v80h-144z"/><path fill="#000" d="M778.065 412.075q-.109.922-.468 1.687-.36.766-.938 1.328-.562.547-1.344.86-.765.297-1.734.297-.812 0-1.484-.235-.672-.234-1.203-.64-.516-.422-.891-.97-.375-.562-.625-1.218-.25-.656-.375-1.375t-.14-1.453v-1.844q.015-.75.14-1.469.125-.718.375-1.375.25-.656.625-1.203.375-.562.89-.968.532-.422 1.188-.657.672-.234 1.5-.234 1 0 1.781.312.782.313 1.344.875.563.547.906 1.344.344.781.453 1.719h-1.687q-.078-.594-.281-1.11-.203-.53-.547-.921-.328-.39-.813-.61-.484-.218-1.156-.218-.594 0-1.062.203-.454.187-.797.531-.328.328-.547.781-.219.438-.36.938-.14.5-.203 1.031-.047.516-.047 1.016v1.859q0 .5.047 1.031.063.516.203 1.016.141.5.36.953.219.437.547.781.343.344.797.547.453.188 1.062.188.672 0 1.156-.204.485-.218.813-.593.344-.375.547-.89.203-.517.28-1.11h1.688zm9.9-2.14h-5.532v4.687h6.453v1.437h-8.14v-13.266h8.062v1.438h-6.375v4.266h5.531v1.437zm5.413-3.735l.125 1.453q.532-.766 1.313-1.188.781-.437 1.75-.437.781 0 1.406.219.64.218 1.078.687.453.453.688 1.172.25.719.25 1.687v6.266H798.3v-6.219q0-.656-.156-1.109-.14-.453-.422-.734-.281-.297-.703-.422-.406-.125-.953-.125-.844 0-1.484.422-.641.421-1.032 1.125v7.062h-1.687v-9.86h1.515zm13.68-2.39v2.39h3.75v1.312h-3.75v5.344q0 .578.14.953.142.375.392.594.265.219.593.312.344.094.72.094.265 0 .546-.031.297-.031.578-.078.281-.047.516-.094.25-.047.406-.094l.234 1.203q-.218.125-.515.22-.297.093-.657.155-.343.078-.75.11-.39.047-.78.047-.657 0-1.235-.188-.563-.187-.985-.594-.421-.406-.671-1.047-.235-.64-.235-1.562v-5.344h-2.578V406.2h2.578v-2.39h1.703zm13.665 2.218q.234 0 .484.015.266 0 .484.032.235.031.422.078.203.047.344.11l-.234 1.64q-.485-.11-.938-.156-.437-.047-.922-.047-1.187 0-1.922.547-.734.53-1.078 1.484v6.328h-1.687v-9.86h1.594l.093 1.563q.594-.797 1.438-1.265.844-.47 1.922-.47zm8.351 6.531l.438 1.188 3.016-7.547h1.89l-5.015 11.375q-.172.39-.438.812-.266.438-.656.797-.375.36-.89.61-.5.25-1.173.25-.109 0-.265-.016-.14-.016-.297-.047-.14-.016-.266-.047-.125-.016-.203-.047l.266-1.375q.062 0 .172.016.109.015.218.015.125.016.235.016h.172q.359 0 .64-.187.281-.188.5-.454.235-.265.39-.546.157-.282.25-.47l.673-1.312-4.235-9.39h1.875l2.703 6.36zm14.524.14q0-.609-.281-1.015-.281-.422-.719-.703-.437-.297-.969-.484-.515-.188-1-.344-.703-.235-1.421-.547-.72-.328-1.329-.781-.593-.469-.968-1.094-.375-.64-.375-1.5t.375-1.531q.375-.672.984-1.14.61-.47 1.375-.704.781-.25 1.578-.25.86 0 1.656.297.813.281 1.422.812.625.516 1 1.25.375.735.39 1.641h-1.733q-.079-.563-.282-1.031-.203-.469-.562-.813-.344-.344-.828-.515-.47-.188-1.063-.188-.484 0-.953.14-.453.126-.812.407-.36.266-.579.672-.218.39-.218.922.015.578.297.984.28.39.718.672.438.266.938.453.5.172.953.313.484.156.984.359.5.187.97.437.468.25.858.579.407.312.704.718.312.407.468.891.172.484.172 1.078 0 .89-.406 1.563-.39.671-1.016 1.109-.625.437-1.422.672-.78.219-1.578.219-.89 0-1.734-.266-.844-.281-1.516-.797t-1.093-1.25q-.407-.75-.438-1.703h1.719q.078.625.328 1.11.266.468.656.812.406.328.922.5.531.156 1.156.156.485 0 .97-.125.483-.125.843-.375.375-.266.61-.656.25-.406.25-.953zm8.243-8.89v2.39h3.75v1.313h-3.75v5.344q0 .578.14.953t.39.594q.266.219.595.312.343.094.718.094.266 0 .547-.031.297-.031.578-.078.282-.047.516-.094.25-.047.406-.094l.235 1.203q-.22.125-.516.22-.297.093-.656.155-.344.078-.75.11-.39.047-.782.047-.656 0-1.234-.188-.562-.187-.984-.594-.422-.406-.672-1.047-.235-.64-.235-1.562v-5.344h-2.578V406.2h2.578v-2.39h1.704zm13.601 10.89q-.5.735-1.234 1.141-.734.407-1.703.407-.781 0-1.406-.235-.625-.25-1.078-.765-.438-.516-.688-1.297-.234-.782-.234-1.89v-5.86h1.687v5.875q0 .812.125 1.343.125.516.375.829.266.312.625.453.375.125.86.125 1.03 0 1.656-.422.64-.422.953-1.125V406.2h1.687v9.86h-1.53l-.095-1.36zm13.15-3.452q0 1.046-.266 1.968-.25.907-.75 1.594-.485.672-1.204 1.063-.718.375-1.656.375-.953 0-1.656-.329-.688-.343-1.188-.984l-.078 1.125h-1.547v-14h1.688v5.203q.484-.61 1.156-.922.688-.312 1.61-.312.937 0 1.656.375.734.36 1.219 1.031.5.656.75 1.594.265.922.265 2.015v.204zm-1.688-.204q0-.718-.141-1.359-.14-.656-.453-1.156-.313-.5-.813-.781-.5-.297-1.218-.297-.438 0-.813.125-.36.11-.656.312-.281.203-.5.485-.219.265-.375.593v4.313q.156.328.375.61.234.28.516.5.296.202.656.312.375.11.812.11.688 0 1.188-.282.5-.297.812-.781.313-.5.453-1.141.157-.64.157-1.36v-.203z"/><path fill="#d9d2e9" d="M671.871 193.14h224v80h-224z" fill-rule="evenodd"/><path stroke="#20124d" stroke-linejoin="round" stroke-linecap="butt" d="M671.871 193.14h224v80h-224z"/><path fill="#000" d="M684.674 240.06v-13.267h3.953q.812.016 1.594.22.78.202 1.39.64.625.422.985 1.094.359.656.359 1.578-.016.531-.172.953-.156.422-.437.765-.282.344-.657.61-.375.25-.796.422.53.156.968.453.453.281.766.687.328.407.5.922.172.5.172 1.094.015.937-.36 1.656-.359.703-.968 1.188-.61.468-1.407.718-.796.25-1.64.266h-4.25zm1.703-6.204v4.766h2.594q.53 0 1-.172.468-.172.828-.469.375-.297.578-.734.219-.438.219-1 .015-.563-.188-1-.187-.438-.531-.735-.344-.312-.813-.469-.468-.171-1-.187h-2.687zm0-1.406h2.344q.468 0 .922-.14.468-.142.812-.407.36-.281.578-.672.219-.39.219-.906 0-.563-.219-.953-.203-.391-.562-.641-.36-.25-.828-.36-.47-.124-.97-.14h-2.296v4.219zm15.914 6.25q-.5.734-1.234 1.14-.735.407-1.703.407-.782 0-1.407-.235-.625-.25-1.078-.765-.437-.516-.687-1.297-.235-.782-.235-1.89v-5.86h1.688v5.875q0 .812.125 1.343.125.516.375.829.266.312.625.453.375.125.86.125 1.03 0 1.656-.422.64-.422.953-1.125V230.2h1.687v9.86h-1.531l-.094-1.36zm5.055-8.5h5.047v8.406h3.219v1.453h-8.266v-1.453h3.36v-6.938h-3.36V230.2zm3.14-2.578q0-.422.25-.704.25-.296.766-.296.5 0 .75.296.25.282.25.704 0 .406-.25.687-.25.266-.75.266-.515 0-.765-.266-.25-.281-.25-.687zm8.056-1.563h5.047v12.547h3.218v1.453h-8.265v-1.453h3.36v-11.078h-3.36v-1.469zm14.93 1.75v2.39h3.75v1.313h-3.75v5.344q0 .578.14.953t.39.594q.267.219.595.312.343.094.718.094.266 0 .547-.031.297-.031.578-.078.282-.047.516-.094.25-.047.406-.094l.235 1.203q-.22.125-.516.22-.297.093-.656.155-.344.078-.75.11-.39.047-.781.047-.657 0-1.235-.188-.562-.187-.984-.594-.422-.406-.672-1.047-.234-.64-.234-1.562v-5.344h-2.579V230.2h2.579v-2.39h1.703zm7.46 2.39h5.048v8.407h3.218v1.453h-8.265v-1.453h3.36v-6.938h-3.36V230.2zm3.141-2.577q0-.422.25-.704.25-.296.766-.296.5 0 .75.296.25.282.25.704 0 .406-.25.687-.25.266-.75.266-.516 0-.766-.266-.25-.281-.25-.687zm9.305 2.578l.125 1.453q.532-.766 1.313-1.188.781-.437 1.75-.437.781 0 1.406.219.64.218 1.078.687.453.453.688 1.172.25.719.25 1.687v6.266H758.3v-6.219q0-.656-.156-1.109-.14-.453-.422-.734-.281-.297-.703-.422-.406-.125-.953-.125-.844 0-1.484.422-.641.421-1.032 1.125v7.062h-1.687v-9.86h1.515zm17.868 11.234h-8.36v-1.375h8.36v1.375zm9.961-4.734q0-.61-.281-1.016-.281-.422-.719-.703-.437-.297-.969-.484-.515-.188-1-.344-.703-.235-1.422-.547-.718-.328-1.328-.781-.593-.469-.968-1.094-.375-.64-.375-1.5t.375-1.531q.375-.672.984-1.14.61-.47 1.375-.704.781-.25 1.578-.25.86 0 1.656.297.813.281 1.422.812.625.516 1 1.25.375.735.39 1.641h-1.734q-.078-.563-.28-1.031-.204-.469-.563-.813-.344-.344-.828-.515-.47-.188-1.063-.188-.484 0-.953.14-.453.126-.813.407-.359.266-.578.672-.218.39-.218.922.015.578.296.984.282.39.72.672.437.266.937.453.5.172.953.313.484.156.984.359.5.187.969.437t.86.579q.406.312.702.718.313.407.47.891.171.484.171 1.078 0 .89-.406 1.563-.39.671-1.016 1.109-.625.437-1.422.672-.78.219-1.578.219-.89 0-1.734-.266-.844-.281-1.516-.797t-1.094-1.25q-.406-.75-.437-1.703h1.719q.078.625.328 1.11.265.468.656.812.406.328.922.5.531.156 1.156.156.485 0 .969-.125t.844-.375q.375-.266.61-.656.25-.406.25-.953zm8.602 3.547q-1.031 0-1.906-.36t-1.5-.984q-.61-.64-.953-1.516-.344-.875-.344-1.906v-.39q0-1.188.375-2.126.39-.953 1.015-1.593.641-.657 1.438-1 .812-.344 1.656-.344 1.063 0 1.86.375.796.36 1.328 1.015.53.641.78 1.532.267.875.267 1.906v.75h-7.032q.016.687.25 1.281.235.578.64 1.031.407.438.97.704.562.25 1.25.25.906 0 1.593-.36.704-.375 1.172-.969l1.032.797q-.25.375-.625.72-.36.327-.844.593-.485.265-1.094.422-.61.172-1.328.172zm-.219-8.844q-.515 0-.969.187-.453.188-.812.547-.36.36-.625.89-.25.516-.344 1.204h5.297v-.125q-.016-.5-.187-.984-.157-.485-.47-.86-.296-.39-.765-.625-.469-.234-1.125-.234zm11.055-3.594v2.39h3.75v1.313h-3.75v5.344q0 .578.14.953.141.375.391.594.266.219.594.312.344.094.719.094.265 0 .547-.031.297-.031.578-.078.281-.047.515-.094.25-.047.407-.094l.234 1.203q-.219.125-.516.22-.296.093-.656.155-.344.078-.75.11-.39.047-.781.047-.656 0-1.234-.188-.563-.187-.985-.594-.422-.406-.672-1.047-.234-.64-.234-1.562v-5.344h-2.578V230.2h2.578v-2.39h1.703zm14.586 6.39H809.7v5.86h-1.703v-13.266h8.156v1.438H809.7v4.547h5.531v1.422zm3.337.844q0-1.062.312-1.984.313-.922.89-1.594.579-.672 1.407-1.047.828-.39 1.86-.39 1.046 0 1.874.39.844.375 1.422 1.047.578.672.89 1.594.313.922.313 1.984v.204q0 1.062-.312 1.968-.313.907-.89 1.594-.579.672-1.407 1.063-.828.375-1.86.375-1.046 0-1.89-.375-.828-.391-1.406-1.063-.578-.687-.891-1.594-.312-.906-.312-1.968v-.204zm1.687.204q0 .718.172 1.39.172.656.516 1.156.359.5.89.797.531.282 1.235.282.687 0 1.203-.282.53-.297.875-.797.359-.5.53-1.156.173-.672.173-1.39v-.204q0-.718-.188-1.375-.172-.671-.531-1.171-.344-.5-.875-.797-.516-.297-1.219-.297-.703 0-1.218.297-.516.297-.875.797-.344.5-.516 1.171-.172.657-.172 1.375v.204zm16.446-5.22q.234 0 .484.016.266 0 .484.032.235.031.422.078.203.047.344.11l-.234 1.64q-.485-.11-.938-.156-.437-.047-.922-.047-1.187 0-1.922.547-.734.53-1.078 1.484v6.328h-1.687v-9.86h1.593l.094 1.563q.594-.797 1.438-1.265.843-.47 1.922-.47zm12.023 3.907h-5.531v4.688h6.453v1.437h-8.14v-13.266h8.062v1.438h-6.375v4.266h5.531v1.437zm10.383 6.125q-.093-.187-.156-.469-.062-.297-.094-.609-.25.266-.562.5-.313.219-.703.39-.375.172-.813.266-.422.11-.89.11-.797 0-1.438-.22-.625-.234-1.062-.624-.438-.39-.688-.922-.234-.531-.234-1.156 0-.813.312-1.422.328-.61.922-1.016.594-.406 1.422-.594.844-.203 1.875-.203h1.828v-.78q0-.454-.172-.798-.156-.36-.453-.61-.297-.25-.734-.39-.422-.14-.97-.14-.5 0-.905.14-.39.125-.672.344-.266.203-.422.484-.14.282-.14.594h-1.688q0-.531.265-1.047.282-.531.782-.937.5-.422 1.218-.672.735-.25 1.657-.25.843 0 1.562.203.719.203 1.235.625.53.406.828 1.031.297.61.297 1.438v4.578q0 .5.093 1.047.094.547.25.968v.141h-1.75zm-2.984-1.281q.5 0 .922-.125.437-.14.781-.344.344-.203.594-.469.265-.28.406-.562v-2h-1.562q-1.47 0-2.297.437-.813.438-.813 1.375 0 .36.125.672.125.313.36.531.25.22.625.36.375.125.859.125zm11.899.094q.453 0 .89-.141.438-.14.766-.406.344-.266.547-.61.203-.359.219-.765h1.593q-.015.656-.343 1.265-.329.594-.891 1.047-.563.438-1.281.719-.72.266-1.5.266-1.11 0-1.953-.407-.844-.406-1.407-1.078-.547-.687-.843-1.562-.282-.89-.282-1.875v-.39q0-.97.282-1.86.296-.89.843-1.563.563-.687 1.407-1.078.843-.406 1.953-.406.875 0 1.609.281.734.266 1.266.75.53.469.828 1.125.312.656.312 1.406h-1.593q-.016-.453-.204-.843-.187-.391-.515-.688-.313-.312-.75-.484-.438-.172-.953-.172-.782 0-1.313.312-.531.313-.86.828-.327.5-.468 1.141-.14.625-.14 1.25v.39q0 .641.14 1.282.14.625.453 1.14.328.5.86.813.53.313 1.328.313zm8.68-7.204q.53-.78 1.296-1.203.782-.437 1.75-.437.782 0 1.407.219.64.218 1.078.703.453.468.687 1.187.25.719.25 1.719v6.203h-1.687v-6.219q0-1.218-.578-1.812-.578-.594-1.657-.578-.812 0-1.468.406-.657.39-1.078 1.047v7.156h-1.688v-14h1.688v5.61z"/></g></svg>