<svg fill="none" stroke-linecap="square" stroke-miterlimit="10" width="724" height="451" xmlns="http://www.w3.org/2000/svg"><path fill="#fff" d="M0 0h724v451H0V0z"/><path fill="#fff" d="M0 0h724v451H0V0z"/><path stroke="#333" stroke-linecap="butt" d="M106.5 377.5h595"/><path stroke="#ccc" stroke-linecap="butt" d="M106.5 261.5h595m-595-116h595m-595-115h595"/><clipPath id="a"><path d="M106.55 30.05h594.9v347.367h-594.9V30.05z"/></clipPath><path fill="#0b5394" clip-path="url(#a)" d="M183 377h-29v-86a2 2 0 0 1 2-2h25a2 2 0 0 1 2 2zm137 0h-29v-85a2 2 0 0 1 2-2h25a2 2 0 0 1 2 2zm136 0h-29v-63a2 2 0 0 1 2-2h25a2 2 0 0 1 2 2zm137 0h-29V41a2 2 0 0 1 2-2h25a2 2 0 0 1 2 2z"/><path fill="#073763" clip-path="url(#a)" d="M213 377h-29v-22a2 2 0 0 1 2-2h25a2 2 0 0 1 2 2zm137 0h-29v-22a2 2 0 0 1 2-2h25a2 2 0 0 1 2 2zm136 0h-29v-22a2 2 0 0 1 2-2h25a2 2 0 0 1 2 2zm137 0h-29V44a2 2 0 0 1 2-2h25a2 2 0 0 1 2 2z"/><path fill="#e69138" clip-path="url(#a)" d="M243 377h-29v-22a2 2 0 0 1 2-2h25a2 2 0 0 1 2 2zm137 0h-29v-22a2 2 0 0 1 2-2h25a2 2 0 0 1 2 2zm136 0h-29v-23a2 2 0 0 1 2-2h25a2 2 0 0 1 2 2zm137 0h-29v-22a2 2 0 0 1 2-2h25a2 2 0 0 1 2 2z"/><path fill="#b7b7b7" d="M30.612 287.67v3.704h3.016v-4.297h.922v5.422h-8.531v-5.375h.922v4.25h2.75v-3.703h.921zm-.093-4.14l-2.313-1.406v-1.266l3.14 2.078 3.204-2.14v1.25l-2.375 1.469 2.375 1.468v1.266l-3.203-2.14-3.14 2.062v-1.25l2.312-1.39zm4.156-6.5q0 1.297-.844 2.11-.86.796-2.281.796h-.188q-.953 0-1.687-.359-.75-.36-1.156-1-.422-.656-.422-1.406 0-1.235.812-1.922.813-.688 2.328-.688h.454v4.297q.937-.03 1.515-.547.578-.53.578-1.343 0-.563-.234-.953-.234-.407-.625-.72l.516-.655q1.234.796 1.234 2.39zm-5.688.14q0 .657.485 1.11.469.438 1.328.531v-3.171h-.078q-.828.046-1.281.453-.454.39-.454 1.078zm4.797-6.046q0-.578-.343-1.016-.36-.437-.891-.484v-1.031q.547.031 1.047.39.484.344.781.922.297.563.297 1.219 0 1.297-.86 2.062-.874.75-2.374.75h-.188q-.922 0-1.64-.328-.72-.343-1.11-.968-.406-.641-.406-1.516 0-1.063.64-1.766.625-.718 1.657-.765v1.031q-.625.047-1.016.469-.39.422-.39 1.031 0 .828.593 1.281.594.453 1.719.453h.203q1.094 0 1.688-.453.593-.453.593-1.281zm.141-7.375q.75.625.75 1.86 0 1.015-.594 1.546-.594.531-1.75.531h-4.125v-1.078H32.3q1.453 0 1.453-1.172 0-1.25-.937-1.656h-4.61v-1.094h6.344v1.032l-.625.031zm-7.25-4.563h1.531v-1.171h.844v1.171h3.922q.39 0 .578-.156.187-.156.187-.531 0-.188-.062-.516h.875q.125.422.125.828 0 .72-.438 1.094-.453.375-1.265.375H29.05v1.156h-.844v-1.156h-1.531v-1.094zm7.875-3.703v1.078h-6.344v-1.078h6.344zm-8.016 1.172q-.265 0-.453-.156-.187-.172-.187-.484 0-.313.187-.47.188-.171.453-.171.25 0 .438.172.172.156.172.469 0 .312-.172.484-.188.156-.438.156zm4.782-2.703q-.922 0-1.672-.36-.75-.374-1.14-1.03-.407-.657-.407-1.485 0-1.297.89-2.094.891-.812 2.391-.812h.078q.922 0 1.656.36.735.359 1.157 1.015.406.656.406 1.515 0 1.282-.89 2.094-.907.797-2.391.797h-.078zm.14-1.094q1.047 0 1.688-.484.64-.5.64-1.313 0-.828-.64-1.312-.657-.484-1.828-.484-1.032 0-1.672.5-.657.484-.657 1.312 0 .797.641 1.297.625.484 1.828.484zm-3.25-7.218l.797-.032q-.906-.734-.906-1.906 0-2.016 2.265-2.031h4.188v1.094h-4.203q-.672 0-1 .312-.328.297-.328.953 0 .531.281.938.281.39.734.61h4.516v1.077h-6.344v-1.015zm-1.531-10.454h1.531v-1.171h.844v1.171h3.922q.39 0 .578-.156.187-.156.187-.531 0-.188-.062-.516h.875q.125.422.125.828 0 .72-.438 1.094-.453.375-1.265.375H29.05v1.156h-.844v-1.156h-1.531v-1.094zm7.875-3.703v1.078h-6.344v-1.078h6.344zm-8.016 1.172q-.265 0-.453-.156-.187-.172-.187-.484 0-.313.187-.47.188-.171.453-.171.25 0 .438.172.172.156.172.469 0 .312-.172.484-.188.156-.438.156zm1.672-4.015l.703-.032q-.812-.687-.812-1.875 0-1.328 1.015-1.812-.453-.313-.734-.813-.281-.515-.281-1.203 0-2.094 2.203-2.125h4.25v1.078h-4.188q-.671 0-1 .313-.343.312-.343 1.047 0 .61.36 1.015.358.391.968.453h4.203v1.079h-4.156q-1.375 0-1.375 1.359 0 1.062.906 1.453h4.625v1.094h-6.344v-1.031zm6.469-12.61q0 1.297-.844 2.11-.86.796-2.281.796h-.188q-.953 0-1.687-.359-.75-.36-1.156-1-.422-.656-.422-1.406 0-1.235.812-1.922.813-.688 2.328-.688h.454v4.297q.937-.03 1.515-.547.578-.53.578-1.343 0-.563-.234-.953-.234-.407-.625-.72l.516-.655q1.234.796 1.234 2.39zm-5.688.14q0 .657.485 1.11.469.438 1.328.531v-3.171h-.078q-.828.046-1.281.453-.454.39-.454 1.078zm2.094-6.468q-1.312 0-2.531-.344-1.219-.359-2.219-1.062-1-.703-1.406-1.469l.719-.219q.656.86 2 1.407 1.343.546 3.015.593l.5.016q2.266 0 3.922-.828 1-.5 1.563-1.188l.656.22q-.422.78-1.453 1.5-1.985 1.374-4.766 1.374zm3.469-5.219v1.078h-9v-1.078h9zm-3.234-1.53q-.922 0-1.672-.36-.75-.375-1.14-1.032-.407-.656-.407-1.484 0-1.297.89-2.094.891-.812 2.391-.812h.078q.922 0 1.656.36.735.359 1.157 1.015.406.656.406 1.515 0 1.282-.89 2.094-.907.797-2.391.797h-.078zm.14-1.095q1.047 0 1.688-.484.64-.5.64-1.313 0-.828-.64-1.312-.657-.484-1.828-.484-1.032 0-1.672.5-.657.484-.657 1.312 0 .797.641 1.297.625.484 1.828.484zm1.594-11.812l-4.844-1.219v-1.078l6.344 1.844v.875l-4.813 1.547 4.813 1.5v.875l-6.344 1.843v-1.078l4.75-1.25-4.75-1.484v-.86l4.844-1.515zm1.625-6.016q0 1.297-.844 2.11-.86.796-2.281.796h-.188q-.953 0-1.687-.359-.75-.36-1.156-1-.422-.656-.422-1.406 0-1.235.812-1.922.813-.688 2.328-.688h.454v4.297q.937-.03 1.515-.547.578-.53.578-1.343 0-.563-.234-.953-.234-.407-.625-.72l.516-.655q1.234.796 1.234 2.39zm-5.688.14q0 .657.485 1.11.469.438 1.328.531v-3.171h-.078q-.828.046-1.281.453-.454.39-.454 1.078zm.188-6.577q-.031.25-.031.531 0 1.078.906 1.453h4.5v1.078h-6.344v-1.047l.735-.015q-.844-.532-.844-1.516 0-.312.078-.484h1zm5.375-5.11v1.078h-6.344v-1.078h6.344zm-8.016 1.172q-.265 0-.453-.156-.187-.172-.187-.484 0-.313.187-.47.188-.171.453-.171.25 0 .438.172.172.156.172.469 0 .312-.172.484-.188.156-.438.156zm6.328-6.687q-.437 0-.671.343-.25.329-.422 1.157-.172.812-.422 1.297-.25.484-.578.718-.344.22-.813.22-.781 0-1.312-.657-.547-.656-.547-1.688 0-1.078.562-1.734.547-.672 1.407-.672v1.078q-.438 0-.75.39-.329.376-.329.938 0 .594.266.938.25.328.656.328.391 0 .594-.313.203-.312.39-1.125.173-.812.423-1.312t.609-.734q.36-.25.86-.25.859 0 1.374.687.516.672.516 1.75 0 .766-.266 1.36-.28.578-.765.906-.485.328-1.047.328v-1.078q.547-.032.875-.438.312-.406.312-1.078 0-.61-.25-.984-.25-.375-.672-.375zm-1.406-10.672q1.453 0 2.344.672.875.656.875 1.781 0 1.203-.86 1.86l.735.062v.984h-9v-1.078h3.36q-.813-.656-.813-1.812 0-1.157.875-1.813.86-.656 2.39-.656h.094zm-.125 1.078q-1.11 0-1.703.437-.61.422-.61 1.22 0 1.077.985 1.546h2.75q1-.5 1-1.547 0-.781-.61-1.219-.609-.437-1.812-.437zm3.344-5.344q0 1.297-.844 2.11-.86.796-2.281.796h-.188q-.953 0-1.687-.359-.75-.36-1.156-1-.422-.656-.422-1.406 0-1.235.812-1.922.813-.688 2.328-.688h.454v4.297q.937-.03 1.515-.547.578-.53.578-1.343 0-.563-.234-.953-.234-.407-.625-.72l.516-.655q1.234.796 1.234 2.39zm-5.688.14q0 .657.485 1.11.469.438 1.328.531v-3.171h-.078q-.828.046-1.281.453-.454.39-.454 1.078zm-2.312-4.984h1.531v-1.171h.844v1.171h3.922q.39 0 .578-.156.187-.156.187-.531 0-.188-.062-.516h.875q.125.422.125.828 0 .72-.438 1.094-.453.375-1.265.375H29.05v1.156h-.844v-1.156h-1.531v-1.094zm0-4h1.531v-1.171h.844v1.171h3.922q.39 0 .578-.156.187-.156.187-.531 0-.188-.062-.516h.875q.125.422.125.828 0 .72-.438 1.094-.453.375-1.265.375H29.05v1.156h-.844v-1.156h-1.531v-1.094zm8-5.156q0 1.297-.844 2.11-.86.796-2.281.796h-.188q-.953 0-1.687-.359-.75-.36-1.156-1-.422-.656-.422-1.406 0-1.235.812-1.922.813-.688 2.328-.688h.454v4.297q.937-.03 1.515-.547.578-.53.578-1.343 0-.563-.234-.953-.234-.407-.625-.72l.516-.655q1.234.796 1.234 2.39zm-5.688.14q0 .657.485 1.11.469.438 1.328.531v-3.171h-.078q-.828.046-1.281.453-.454.39-.454 1.078zm.188-6.577q-.031.25-.031.531 0 1.078.906 1.453h4.5v1.078h-6.344v-1.047l.735-.015q-.844-.532-.844-1.516 0-.312.078-.484h1zm1.969-3.438q1.312 0 2.515.344 1.188.344 2.203 1.062 1.016.704 1.438 1.47l-.656.234q-.688-.907-2.14-1.454-1.47-.546-3.235-.562h-.188q-1.234 0-2.297.266-1.062.25-1.89.718-.844.453-1.313 1.032l-.656-.235q.422-.765 1.422-1.469 1-.703 2.219-1.046 1.203-.36 2.578-.36z"/><path fill="#757575" d="M82.612 378.276q0 1.906-.656 2.844-.64.922-2.031.922-1.36 0-2.016-.907-.656-.906-.687-2.718v-1.438q0-1.89.64-2.797.657-.922 2.047-.922 1.375 0 2.032.891.656.875.671 2.719v1.406zm-1.093-1.484q0-1.375-.39-2-.376-.641-1.22-.641-.828 0-1.218.64-.375.626-.375 1.923v1.734q0 1.375.39 2.047.406.656 1.219.656.797 0 1.188-.625.39-.625.406-1.953v-1.781zm3.875-1.22l.031.704q.688-.812 1.875-.812 1.328 0 1.813 1.015.312-.453.812-.734.516-.281 1.203-.281 2.094 0 2.125 2.203v4.25h-1.078v-4.188q0-.672-.313-1-.312-.344-1.046-.344-.61 0-1.016.36-.39.36-.453.969v4.203h-1.078v-4.157q0-1.375-1.36-1.375-1.062 0-1.453.907v4.625h-1.094v-6.344h1.032zm13.672 4.657q0-.437-.344-.672-.328-.25-1.156-.422-.813-.171-1.297-.421-.485-.25-.719-.579-.219-.343-.219-.812 0-.781.656-1.313.657-.546 1.688-.546 1.078 0 1.734.562.672.547.672 1.406h-1.078q0-.437-.39-.75-.376-.328-.938-.328-.594 0-.938.266-.328.25-.328.656 0 .39.313.594.312.203 1.125.39.812.172 1.312.422t.735.61q.25.359.25.859 0 .86-.688 1.375-.672.516-1.75.516-.765 0-1.36-.266-.577-.281-.905-.766-.329-.484-.329-1.046h1.079q.03.546.437.875.406.312 1.078.312.61 0 .985-.25t.375-.672zM61.847 266.128h-5.594v-.781l2.953-3.282q.656-.75.906-1.203.25-.469.25-.969 0-.671-.406-1.093-.39-.438-1.078-.438-.797 0-1.25.469-.453.453-.453 1.281h-1.078q0-1.187.75-1.906.765-.734 2.031-.734 1.203 0 1.89.625.688.625.688 1.671 0 1.25-1.61 3l-2.28 2.47h4.28v.89zm6.765-3.64q0 1.905-.656 2.843-.64.922-2.031.922-1.36 0-2.016-.906-.656-.907-.687-2.72v-1.437q0-1.89.64-2.797.657-.921 2.047-.921 1.375 0 2.032.89.656.875.671 2.719v1.406zm-1.093-1.485q0-1.375-.39-2-.376-.64-1.22-.64-.828 0-1.218.64-.375.625-.375 1.922v1.734q0 1.375.39 2.047.406.656 1.219.656.797 0 1.188-.625.39-.625.406-1.953v-1.781zm8.093 1.484q0 1.906-.656 2.844-.64.922-2.031.922-1.36 0-2.016-.906-.656-.907-.687-2.72v-1.437q0-1.89.64-2.797.657-.921 2.047-.921 1.375 0 2.032.89.656.875.671 2.719v1.406zm-1.093-1.484q0-1.375-.39-2-.376-.64-1.22-.64-.828 0-1.218.64-.375.625-.375 1.922v1.734q0 1.375.39 2.047.406.656 1.219.656.797 0 1.188-.625.39-.625.406-1.953v-1.781zm8.093 1.484q0 1.906-.656 2.844-.64.922-2.031.922-1.36 0-2.016-.906-.656-.907-.687-2.72v-1.437q0-1.89.64-2.797.657-.921 2.047-.921 1.375 0 2.032.89.656.875.671 2.719v1.406zm-1.093-1.484q0-1.375-.39-2-.376-.64-1.22-.64-.828 0-1.218.64-.375.625-.375 1.922v1.734q0 1.375.39 2.047.406.656 1.219.656.797 0 1.188-.625.39-.625.406-1.953v-1.781zm3.875-1.219l.031.703q.688-.812 1.875-.812 1.328 0 1.813 1.015.312-.453.812-.734.516-.281 1.203-.281 2.094 0 2.125 2.203v4.25h-1.078v-4.188q0-.672-.313-1-.312-.343-1.046-.343-.61 0-1.016.359-.39.36-.453.969v4.203h-1.078v-4.156q0-1.375-1.36-1.375-1.062 0-1.453.906v4.625h-1.094v-6.344h1.032zm13.672 4.656q0-.437-.344-.672-.328-.25-1.156-.421-.813-.172-1.297-.422-.485-.25-.719-.578-.219-.344-.219-.813 0-.781.656-1.312.657-.547 1.688-.547 1.078 0 1.734.562.672.547.672 1.406h-1.078q0-.437-.39-.75-.376-.328-.938-.328-.594 0-.938.266-.328.25-.328.656 0 .39.313.594.312.203 1.125.39.812.172 1.312.422t.735.61q.25.36.25.86 0 .859-.688 1.374-.672.516-1.75.516-.765 0-1.36-.266-.577-.281-.905-.765-.329-.485-.329-1.047h1.079q.03.547.437.875.406.312 1.078.312.61 0 .985-.25t.375-.672zM60.831 147.48h1.188v.875H60.83v1.984h-1.078v-1.984h-3.89v-.641l3.812-5.906h1.156v5.672zm-3.734 0h2.656v-4.188l-.14.234-2.516 3.953zm11.515-.782q0 1.906-.656 2.844-.64.922-2.031.922-1.36 0-2.016-.906-.656-.907-.687-2.72v-1.437q0-1.89.64-2.797.657-.921 2.047-.921 1.375 0 2.032.89.656.875.671 2.719v1.406zm-1.093-1.484q0-1.375-.39-2-.376-.64-1.22-.64-.828 0-1.218.64-.375.625-.375 1.922v1.734q0 1.375.39 2.047.406.656 1.219.656.797 0 1.188-.625.39-.625.406-1.953v-1.781zm8.093 1.484q0 1.906-.656 2.844-.64.922-2.031.922-1.36 0-2.016-.906-.656-.907-.687-2.72v-1.437q0-1.89.64-2.797.657-.921 2.047-.921 1.375 0 2.032.89.656.875.671 2.719v1.406zm-1.093-1.484q0-1.375-.39-2-.376-.64-1.22-.64-.828 0-1.218.64-.375.625-.375 1.922v1.734q0 1.375.39 2.047.406.656 1.219.656.797 0 1.188-.625.39-.625.406-1.953v-1.781zm8.093 1.484q0 1.906-.656 2.844-.64.922-2.031.922-1.36 0-2.016-.906-.656-.907-.687-2.72v-1.437q0-1.89.64-2.797.657-.921 2.047-.921 1.375 0 2.032.89.656.875.671 2.719v1.406zm-1.093-1.484q0-1.375-.39-2-.376-.64-1.22-.64-.828 0-1.218.64-.375.625-.375 1.922v1.734q0 1.375.39 2.047.406.656 1.219.656.797 0 1.188-.625.39-.625.406-1.953v-1.781zm3.875-1.219l.031.703q.688-.812 1.875-.812 1.328 0 1.813 1.015.312-.453.812-.734.516-.281 1.203-.281 2.094 0 2.125 2.203v4.25h-1.078v-4.188q0-.672-.313-1-.312-.343-1.046-.343-.61 0-1.016.359-.39.36-.453.969v4.203h-1.078v-4.156q0-1.375-1.36-1.375-1.062 0-1.453.906v4.625h-1.094v-6.344h1.032zm13.672 4.656q0-.437-.344-.672-.328-.25-1.156-.421-.813-.172-1.297-.422-.485-.25-.719-.578-.219-.344-.219-.813 0-.781.656-1.312.657-.547 1.688-.547 1.078 0 1.734.562.672.547.672 1.406h-1.078q0-.437-.39-.75-.376-.328-.938-.328-.594 0-.938.266-.328.25-.328.656 0 .39.313.594.312.203 1.125.39.812.173 1.312.423t.735.609q.25.36.25.86 0 .859-.688 1.374-.672.516-1.75.516-.765 0-1.36-.266-.577-.281-.905-.765-.329-.485-.329-1.047h1.079q.03.547.437.875.406.312 1.078.312.61 0 .985-.25t.375-.672zM60.519 26.019v.906h-.203q-1.266.031-2.016.766-.75.718-.875 2.03.688-.765 1.844-.765 1.11 0 1.781.782.672.78.672 2.03 0 1.313-.719 2.11-.719.797-1.937.797-1.22 0-1.985-.938-.75-.953-.75-2.437v-.406q0-2.36 1-3.61t2.985-1.265h.203zm-1.422 3.844q-.563 0-1.031.328-.47.328-.657.843v.391q0 1.062.47 1.703.483.64 1.187.64.734 0 1.156-.53.422-.547.422-1.422 0-.875-.422-1.407-.422-.546-1.125-.546zm9.515 1.046q0 1.907-.656 2.844-.64.922-2.031.922-1.36 0-2.016-.906-.656-.907-.687-2.719v-1.438q0-1.89.64-2.796.657-.922 2.047-.922 1.375 0 2.032.89.656.875.671 2.72v1.405zm-1.093-1.484q0-1.375-.39-2-.376-.64-1.22-.64-.828 0-1.218.64-.375.625-.375 1.922v1.734q0 1.375.39 2.047.406.656 1.219.656.797 0 1.188-.625.39-.625.406-1.953v-1.781zm8.093 1.484q0 1.907-.656 2.844-.64.922-2.031.922-1.36 0-2.016-.906-.656-.907-.687-2.719v-1.438q0-1.89.64-2.796.657-.922 2.047-.922 1.375 0 2.032.89.656.875.671 2.72v1.405zm-1.093-1.484q0-1.375-.39-2-.376-.64-1.22-.64-.828 0-1.218.64-.375.625-.375 1.922v1.734q0 1.375.39 2.047.406.656 1.219.656.797 0 1.188-.625.39-.625.406-1.953v-1.781zm8.093 1.484q0 1.907-.656 2.844-.64.922-2.031.922-1.36 0-2.016-.906-.656-.907-.687-2.719v-1.438q0-1.89.64-2.796.657-.922 2.047-.922 1.375 0 2.032.89.656.875.671 2.72v1.405zm-1.093-1.484q0-1.375-.39-2-.376-.64-1.22-.64-.828 0-1.218.64-.375.625-.375 1.922v1.734q0 1.375.39 2.047.406.656 1.219.656.797 0 1.188-.625.39-.625.406-1.953v-1.781zm3.875-1.219l.031.703q.688-.812 1.875-.812 1.328 0 1.813 1.015.312-.453.812-.734.516-.281 1.203-.281 2.094 0 2.125 2.203v4.25h-1.078v-4.187q0-.672-.313-1-.312-.344-1.046-.344-.61 0-1.016.36-.39.358-.453.968v4.203h-1.078v-4.156q0-1.375-1.36-1.375-1.062 0-1.453.906v4.625h-1.094v-6.344h1.032zm13.672 4.656q0-.437-.344-.671-.328-.25-1.156-.422-.813-.172-1.297-.422-.485-.25-.719-.578-.219-.344-.219-.813 0-.781.656-1.312.657-.547 1.688-.547 1.078 0 1.734.562.672.547.672 1.407h-1.078q0-.438-.39-.75-.376-.328-.938-.328-.594 0-.938.265-.328.25-.328.656 0 .391.313.594.312.203 1.125.39.812.173 1.312.423t.735.609q.25.36.25.86 0 .859-.688 1.374-.672.516-1.75.516-.765 0-1.36-.266-.577-.28-.905-.765-.329-.485-.329-1.047h1.079q.03.547.437.875.406.312 1.078.312.61 0 .985-.25t.375-.672zm50.812 360.868q0-.438-.344-.673-.328-.25-1.156-.422-.813-.171-1.297-.421-.485-.25-.719-.579-.219-.343-.219-.812 0-.781.657-1.313.656-.546 1.687-.546 1.078 0 1.734.562.672.547.672 1.406h-1.078q0-.437-.39-.75-.375-.328-.938-.328-.594 0-.937.266-.329.25-.329.656 0 .39.313.594.312.203 1.125.39.812.172 1.312.422t.735.61q.25.359.25.859 0 .86-.688 1.375-.672.516-1.75.516-.765 0-1.359-.266-.578-.281-.906-.766-.328-.484-.328-1.046h1.078q.031.546.437.875.406.312 1.078.312.61 0 .985-.25t.375-.672zm3.781-6.188v1.53h1.172v.845h-1.172v3.922q0 .39.156.578.156.187.531.187.188 0 .516-.062v.875q-.422.125-.828.125-.719 0-1.094-.438-.375-.453-.375-1.265v-3.922h-1.156v-.844h1.156v-1.531h1.094zm5.594 2.5q-.25-.032-.532-.032-1.078 0-1.453.907v4.5h-1.078v-6.344h1.047l.016.734q.531-.843 1.515-.843.313 0 .485.078v1zm2.11 5.375h-1.079v-6.344h1.078v6.344zm-1.173-8.016q0-.266.156-.453.172-.188.485-.188.312 0 .469.188.171.187.171.453 0 .25-.171.438-.157.171-.47.171-.312 0-.484-.171-.156-.188-.156-.438zm4.016 1.672l.031.797q.734-.906 1.906-.906 2.016 0 2.032 2.265v4.188h-1.094v-4.203q0-.672-.313-1-.297-.329-.953-.329-.531 0-.937.282-.39.28-.61.734v4.516h-1.078v-6.344h1.016zm5.719 3.125q0-1.484.687-2.36.688-.874 1.813-.874 1.156 0 1.812.812l.047-.703h1v6.187q0 1.235-.734 1.938-.735.719-1.954.719-.687 0-1.343-.297-.657-.297-1-.797l.562-.656q.688.859 1.703.859.782 0 1.22-.453.452-.438.452-1.25v-.547q-.656.766-1.781.766-1.11 0-1.797-.891-.687-.906-.687-2.453zm1.093.125q0 1.062.438 1.687.437.61 1.234.61 1.016 0 1.5-.938v-2.89q-.5-.907-1.5-.907-.781 0-1.234.61-.438.61-.438 1.828zm7.782-5.438l2.796 6.954 2.782-6.954h1.468v8.532h-1.125v-3.328l.11-3.579-2.813 6.907h-.859l-2.797-6.891.11 3.563v3.328h-1.126v-8.532h1.454zm8.093 5.297q0-.922.36-1.672.375-.75 1.031-1.14.656-.406 1.484-.406 1.297 0 2.094.89.813.89.813 2.39v.079q0 .922-.36 1.656-.36.735-1.015 1.156-.657.407-1.516.407-1.281 0-2.094-.891-.797-.906-.797-2.39v-.079zm1.094.14q0 1.048.484 1.688.5.641 1.313.641.828 0 1.312-.64.485-.657.485-1.829 0-1.031-.5-1.672-.485-.656-1.313-.656-.797 0-1.297.64-.484.626-.484 1.829zm7.219-3.25l.031.798q.734-.906 1.906-.906 2.016 0 2.032 2.265v4.188h-1.094v-4.203q0-.672-.313-1-.297-.329-.953-.329-.531 0-.937.282-.39.28-.61.734v4.516h-1.078v-6.344h1.016zm5.687 3.11q0-.922.36-1.672.375-.75 1.031-1.14.656-.406 1.484-.406 1.297 0 2.094.89.813.89.813 2.39v.079q0 .922-.36 1.656-.36.735-1.015 1.156-.657.407-1.516.407-1.281 0-2.094-.891-.797-.906-.797-2.39v-.079zm1.094.14q0 1.048.484 1.688.5.641 1.313.641.828 0 1.312-.64.485-.657.485-1.829 0-1.031-.5-1.672-.485-.656-1.313-.656-.797 0-1.297.64-.484.626-.484 1.829zm7.219-3.25l.031.704q.688-.812 1.875-.812 1.328 0 1.813 1.015.312-.453.812-.734.516-.281 1.203-.281 2.094 0 2.125 2.203v4.25h-1.078v-4.188q0-.672-.312-1-.313-.344-1.047-.344-.61 0-1.016.36-.39.36-.453.969v4.203h-1.078v-4.157q0-1.375-1.36-1.375-1.062 0-1.453.907v4.625h-1.093v-6.344h1.03zm9.687 3.11q0-.922.36-1.672.375-.75 1.031-1.14.656-.406 1.484-.406 1.297 0 2.094.89.813.89.813 2.39v.079q0 .922-.36 1.656-.36.735-1.015 1.156-.657.407-1.516.407-1.281 0-2.094-.891-.797-.906-.797-2.39v-.079zm1.094.14q0 1.048.484 1.688.5.641 1.313.641.828 0 1.312-.64.485-.657.485-1.829 0-1.031-.5-1.672-.485-.656-1.313-.656-.797 0-1.297.64-.484.626-.484 1.829zm9.266-2.28q-.25-.032-.532-.032-1.078 0-1.453.907v4.5h-1.078v-6.344h1.047l.016.734q.531-.843 1.515-.843.313 0 .485.078v1zm6.281 2.28q0 1.438-.656 2.329-.657.89-1.797.89-1.156 0-1.813-.734v3.047h-1.078v-8.781h.985l.046.703q.672-.812 1.844-.812 1.14 0 1.797.859.672.86.672 2.39v.11zm-1.078-.124q0-1.078-.469-1.688-.453-.625-1.25-.625-.984 0-1.469.86v3.031q.485.875 1.485.875.781 0 1.234-.61.469-.624.469-1.843zm3.812-2.36q.72-.874 1.875-.874 2.016 0 2.032 2.265v4.188h-1.094v-4.203q0-.672-.313-1-.297-.329-.953-.329-.531 0-.937.282-.39.28-.61.734v4.516h-1.078v-9h1.078v3.422zm7.094 5.579h-1.078v-6.344h1.078v6.344zm-1.172-8.016q0-.266.156-.453.172-.188.485-.188.312 0 .469.188.171.187.171.453 0 .25-.171.438-.157.171-.47.171-.312 0-.484-.171-.156-.188-.156-.438zm5.531 7.25q.579 0 1.016-.344.438-.36.484-.89h1.032q-.032.547-.39 1.047-.345.484-.923.78-.562.298-1.219.298-1.296 0-2.062-.86-.75-.875-.75-2.375v-.187q0-.922.328-1.64.344-.72.969-1.11.64-.406 1.515-.406 1.063 0 1.766.64.719.625.766 1.656h-1.032q-.046-.625-.468-1.015-.422-.39-1.032-.39-.828 0-1.28.593-.454.594-.454 1.719v.203q0 1.094.453 1.687.453.594 1.281.594zm32.415-.921q0-.438-.343-.673-.329-.25-1.157-.422-.812-.171-1.297-.421-.484-.25-.718-.579-.219-.343-.219-.812 0-.781.656-1.313.656-.546 1.688-.546 1.078 0 1.734.562.672.547.672 1.406h-1.078q0-.437-.39-.75-.376-.328-.938-.328-.594 0-.938.266-.328.25-.328.656 0 .39.313.594.312.203 1.125.39.812.172 1.312.422t.734.61q.25.359.25.859 0 .86-.687 1.375-.672.516-1.75.516-.766 0-1.36-.266-.578-.281-.906-.766-.328-.484-.328-1.046h1.078q.032.546.438.875.406.312 1.078.312.61 0 .984-.25.375-.25.375-.672zm4.375.093l1.485-4.75h1.156l-2.547 7.328q-.594 1.578-1.875 1.578l-.219-.015-.39-.079v-.875l.281.016q.562 0 .86-.219.312-.218.515-.812l.234-.656-2.265-6.266h1.187l1.578 4.75zm4.953-4.75l.032.703q.687-.812 1.875-.812 1.328 0 1.812 1.015.313-.453.813-.734.515-.281 1.203-.281 2.094 0 2.125 2.203v4.25h-1.078v-4.188q0-.672-.313-1-.312-.344-1.047-.344-.61 0-1.015.36-.39.36-.453.969v4.203h-1.079v-4.157q0-1.375-1.359-1.375-1.062 0-1.453.907v4.625h-1.094v-6.344h1.031zm15.344 3.25q0 1.453-.672 2.344-.656.875-1.78.875-1.204 0-1.86-.86l-.063.735h-.984v-9h1.078v3.359q.656-.812 1.812-.812 1.157 0 1.813.875.656.859.656 2.39v.094zm-1.078-.125q0-1.11-.437-1.703-.422-.61-1.22-.61-1.077 0-1.546.985v2.75q.5 1 1.547 1 .781 0 1.219-.61.437-.609.437-1.812zm2.422-.016q0-.922.36-1.672.374-.75 1.03-1.14.657-.406 1.485-.406 1.297 0 2.094.89.812.89.812 2.39v.079q0 .922-.36 1.656-.359.735-1.015 1.156-.656.407-1.515.407-1.282 0-2.094-.891-.797-.906-.797-2.39v-.079zm1.094.14q0 1.048.484 1.688.5.641 1.313.641.828 0 1.312-.64.484-.657.484-1.829 0-1.031-.5-1.672-.484-.656-1.312-.656-.797 0-1.297.64-.484.626-.484 1.829zm7.375 3.095h-1.078v-9h1.078v9zm3.437-8.532l2.797 6.954 2.781-6.954h1.47v8.532h-1.126v-3.328l.11-3.579-2.813 6.907h-.86l-2.796-6.891.11 3.563v3.328h-1.126v-8.532h1.453zm8.094 5.297q0-.922.36-1.672.374-.75 1.03-1.14.657-.406 1.485-.406 1.297 0 2.094.89.812.89.812 2.39v.079q0 .922-.36 1.656-.359.735-1.015 1.156-.656.407-1.515.407-1.282 0-2.094-.891-.797-.906-.797-2.39v-.079zm1.094.14q0 1.048.484 1.688.5.641 1.313.641.828 0 1.312-.64.484-.657.484-1.829 0-1.031-.5-1.672-.484-.656-1.312-.656-.797 0-1.297.64-.484.626-.484 1.829zm7.218-3.25l.032.798q.734-.906 1.906-.906 2.016 0 2.031 2.265v4.188h-1.094v-4.203q0-.672-.312-1-.297-.329-.953-.329-.531 0-.938.282-.39.28-.61.734v4.516h-1.077v-6.344h1.015zm5.688 3.11q0-.922.36-1.672.374-.75 1.03-1.14.657-.406 1.485-.406 1.297 0 2.094.89.812.89.812 2.39v.079q0 .922-.36 1.656-.359.735-1.015 1.156-.656.407-1.515.407-1.282 0-2.094-.891-.797-.906-.797-2.39v-.079zm1.094.14q0 1.048.484 1.688.5.641 1.313.641.828 0 1.312-.64.484-.657.484-1.829 0-1.031-.5-1.672-.484-.656-1.312-.656-.797 0-1.297.64-.484.626-.484 1.829zm7.218-3.25l.032.704q.687-.812 1.875-.812 1.328 0 1.812 1.015.313-.453.813-.734.515-.281 1.203-.281 2.094 0 2.125 2.203v4.25h-1.078v-4.188q0-.672-.313-1-.312-.344-1.047-.344-.61 0-1.015.36-.39.36-.453.969v4.203h-1.079v-4.157q0-1.375-1.359-1.375-1.062 0-1.453.907v4.625h-1.094v-6.344h1.031zm9.688 3.11q0-.922.36-1.672.374-.75 1.03-1.14.657-.406 1.485-.406 1.297 0 2.094.89.812.89.812 2.39v.079q0 .922-.36 1.656-.359.735-1.015 1.156-.656.407-1.515.407-1.282 0-2.094-.891-.797-.906-.797-2.39v-.079zm1.094.14q0 1.048.484 1.688.5.641 1.313.641.828 0 1.312-.64.484-.657.484-1.829 0-1.031-.5-1.672-.484-.656-1.312-.656-.797 0-1.297.64-.484.626-.484 1.829zm9.265-2.28q-.25-.032-.53-.032-1.079 0-1.454.907v4.5h-1.078v-6.344h1.047l.015.734q.532-.843 1.516-.843.312 0 .484.078v1zm6.282 2.28q0 1.438-.657 2.329-.656.89-1.797.89-1.156 0-1.812-.734v3.047h-1.078v-8.781h.984l.047.703q.672-.812 1.844-.812 1.14 0 1.797.859.672.86.672 2.39v.11zm-1.079-.124q0-1.078-.468-1.688-.453-.625-1.25-.625-.985 0-1.469.86v3.031q.484.875 1.484.875.782 0 1.235-.61.468-.624.468-1.843zm3.813-2.36q.719-.874 1.875-.874 2.016 0 2.031 2.265v4.188h-1.094v-4.203q0-.672-.312-1-.297-.329-.953-.329-.531 0-.938.282-.39.28-.61.734v4.516h-1.077v-9h1.078v3.422zm7.094 5.579h-1.078v-6.344h1.078v6.344zm-1.172-8.016q0-.266.156-.453.172-.188.484-.188.313 0 .47.188.171.187.171.453 0 .25-.172.438-.156.171-.469.171-.312 0-.484-.171-.156-.188-.156-.438zm5.531 7.25q.578 0 1.016-.344.437-.36.484-.89h1.031q-.03.547-.39 1.047-.344.484-.922.78-.563.298-1.219.298-1.297 0-2.062-.86-.75-.875-.75-2.375v-.187q0-.922.328-1.64.343-.72.968-1.11.641-.406 1.516-.406 1.063 0 1.766.64.718.625.765 1.656h-1.03q-.048-.625-.47-1.015-.422-.39-1.03-.39-.829 0-1.282.593-.453.594-.453 1.719v.203q0 1.094.453 1.687.453.594 1.281.594zm35.915-.921q0-.438-.344-.673-.328-.25-1.156-.422-.813-.171-1.297-.421-.484-.25-.719-.579-.218-.343-.218-.812 0-.781.656-1.313.656-.546 1.687-.546 1.078 0 1.735.562.672.547.672 1.406h-1.079q0-.437-.39-.75-.375-.328-.938-.328-.593 0-.937.266-.328.25-.328.656 0 .39.312.594.313.203 1.125.39.813.172 1.313.422t.734.61q.25.359.25.859 0 .86-.687 1.375-.672.516-1.75.516-.766 0-1.36-.266-.578-.281-.906-.766-.328-.484-.328-1.046h1.078q.031.546.437.875.407.312 1.079.312.609 0 .984-.25t.375-.672zm3.781-6.188v1.53h1.172v.845h-1.172v3.922q0 .39.156.578.157.187.532.187.187 0 .515-.062v.875q-.422.125-.828.125-.719 0-1.094-.438-.375-.453-.375-1.265v-3.922h-1.156v-.844h1.156v-1.531h1.094zm5.594 2.5q-.25-.032-.531-.032-1.078 0-1.453.907v4.5h-1.079v-6.344h1.047l.016.734q.531-.843 1.516-.843.312 0 .484.078v1zm2.11 5.375h-1.08v-6.344h1.078v6.344zm-1.173-8.016q0-.266.157-.453.172-.188.484-.188.313 0 .469.188.172.187.172.453 0 .25-.172.438-.156.171-.469.171-.312 0-.484-.171-.157-.188-.157-.438zm4.016 1.672l.031.797q.735-.906 1.907-.906 2.015 0 2.03 2.265v4.188h-1.093v-4.203q0-.672-.312-1-.297-.329-.954-.329-.53 0-.937.282-.39.28-.61.734v4.516h-1.078v-6.344h1.016zm5.719 3.125q0-1.484.687-2.36.688-.874 1.813-.874 1.156 0 1.812.812l.047-.703h1v6.187q0 1.235-.734 1.938-.735.719-1.953.719-.688 0-1.344-.297-.656-.297-1-.797l.562-.656q.688.859 1.704.859.78 0 1.218-.453.453-.438.453-1.25v-.547q-.656.766-1.78.766-1.11 0-1.798-.891-.687-.906-.687-2.453zm1.094.125q0 1.062.437 1.687.438.61 1.234.61 1.016 0 1.5-.938v-2.89q-.5-.907-1.5-.907-.78 0-1.234.61-.437.61-.437 1.828zm7.453-.25v3.344h-1.125v-8.532h3.156q1.39 0 2.187.72.797.702.797 1.89 0 1.234-.781 1.906-.766.672-2.219.672h-2.015zm0-.922h2.03q.907 0 1.376-.422.484-.422.484-1.219 0-.765-.484-1.218-.469-.47-1.313-.485h-2.093v3.344zm6.422 1.031q0-.922.359-1.672.375-.75 1.031-1.14.656-.406 1.485-.406 1.296 0 2.093.89.813.89.813 2.39v.079q0 .922-.36 1.656-.359.735-1.015 1.156-.656.407-1.516.407-1.281 0-2.094-.891-.796-.906-.796-2.39v-.079zm1.093.14q0 1.048.485 1.688.5.641 1.312.641.828 0 1.313-.64.484-.657.484-1.829 0-1.031-.5-1.672-.484-.656-1.312-.656-.797 0-1.297.64-.485.626-.485 1.829zm7.375 3.095h-1.078v-9h1.078v9zm3.89-1.594l1.485-4.75h1.157l-2.547 7.328q-.594 1.578-1.875 1.578l-.22-.015-.39-.079v-.875l.282.016q.562 0 .859-.219.312-.218.516-.812l.234-.656-2.266-6.266h1.188l1.578 4.75zm4.954-4.75l.031.703q.688-.812 1.875-.812 1.328 0 1.813 1.015.312-.453.812-.734.516-.281 1.203-.281 2.094 0 2.125 2.203v4.25h-1.078v-4.188q0-.672-.312-1-.313-.344-1.047-.344-.61 0-1.016.36-.39.36-.453.969v4.203h-1.078v-4.157q0-1.375-1.36-1.375-1.062 0-1.452.907v4.625h-1.094v-6.344h1.031zm9.688 3.11q0-.923.359-1.673.375-.75 1.031-1.14.656-.406 1.485-.406 1.296 0 2.093.89.813.89.813 2.39v.079q0 .922-.36 1.656-.359.735-1.015 1.156-.656.407-1.516.407-1.281 0-2.094-.891-.796-.906-.796-2.39v-.079zm1.093.14q0 1.047.485 1.687.5.641 1.312.641.828 0 1.313-.64.484-.657.484-1.829 0-1.031-.5-1.672-.484-.656-1.312-.656-.797 0-1.297.64-.485.626-.485 1.829zm9.266-2.281q-.25-.032-.531-.032-1.078 0-1.453.907v4.5h-1.079v-6.344h1.047l.016.734q.531-.843 1.516-.843.312 0 .484.078v1zm6.281 2.28q0 1.438-.656 2.329-.656.89-1.797.89-1.156 0-1.812-.734v3.047h-1.079v-8.781h.985l.047.703q.672-.812 1.843-.812 1.141 0 1.797.859.672.86.672 2.39v.11zm-1.078-.124q0-1.078-.469-1.688-.453-.625-1.25-.625-.984 0-1.468.86v3.031q.484.875 1.484.875.781 0 1.234-.61.469-.624.469-1.843zm3.813-2.36q.718-.874 1.875-.874 2.015 0 2.03 2.265v4.188h-1.093v-4.203q0-.672-.312-1-.297-.329-.954-.329-.53 0-.937.282-.39.28-.61.734v4.516h-1.078v-9h1.079v3.422zm7.093 5.579h-1.078v-6.344h1.078v6.344zm-1.172-8.016q0-.266.157-.453.171-.188.484-.188.313 0 .469.188.172.187.172.453 0 .25-.172.438-.157.171-.469.171-.313 0-.484-.171-.157-.188-.157-.438zm5.532 7.25q.578 0 1.015-.344.438-.36.485-.89h1.03q-.03.547-.39 1.047-.344.484-.922.78-.562.298-1.218.298-1.297 0-2.063-.86-.75-.875-.75-2.375v-.187q0-.922.328-1.64.344-.72.969-1.11.64-.406 1.516-.406 1.062 0 1.765.64.719.625.766 1.656h-1.031q-.047-.625-.47-1.015-.421-.39-1.03-.39-.829 0-1.282.593-.453.594-.453 1.719v.203q0 1.094.453 1.687.453.594 1.282.594zm39.415-.921q0-.438-.344-.673-.328-.25-1.156-.422-.813-.171-1.297-.421-.485-.25-.72-.579-.218-.343-.218-.812 0-.781.656-1.313.657-.546 1.688-.546 1.078 0 1.734.562.672.547.672 1.406h-1.078q0-.437-.39-.75-.376-.328-.938-.328-.594 0-.938.266-.328.25-.328.656 0 .39.313.594.312.203 1.125.39.812.172 1.312.422t.735.61q.25.359.25.859 0 .86-.688 1.375-.672.516-1.75.516-.765 0-1.36-.266-.577-.281-.905-.766-.329-.484-.329-1.046h1.079q.03.546.437.875.406.312 1.078.312.61 0 .985-.25t.375-.672zm4.375.093l1.484-4.75h1.156l-2.547 7.328q-.593 1.578-1.875 1.578l-.218-.015-.391-.079v-.875l.281.016q.563 0 .86-.219.312-.218.515-.812l.235-.656-2.266-6.266h1.187l1.579 4.75zm4.953-4.75l.03.703q.688-.812 1.876-.812 1.328 0 1.812 1.015.313-.453.813-.734.516-.281 1.203-.281 2.094 0 2.125 2.203v4.25h-1.078v-4.188q0-.672-.313-1-.312-.344-1.046-.344-.61 0-1.016.36-.39.36-.453.969v4.203h-1.078v-4.157q0-1.375-1.36-1.375-1.062 0-1.453.907v4.625h-1.094v-6.344h1.032zm15.343 3.25q0 1.453-.671 2.344-.657.875-1.782.875-1.203 0-1.86-.86l-.062.735h-.984v-9h1.078v3.359q.656-.812 1.813-.812 1.156 0 1.812.875.656.859.656 2.39v.094zm-1.078-.125q0-1.11-.437-1.703-.422-.61-1.219-.61-1.078 0-1.547.985v2.75q.5 1 1.547 1 .781 0 1.219-.61.437-.609.437-1.812zm2.422-.016q0-.922.36-1.672.375-.75 1.03-1.14.657-.406 1.485-.406 1.297 0 2.094.89.812.89.812 2.39v.079q0 .922-.359 1.656-.36.735-1.016 1.156-.656.407-1.515.407-1.281 0-2.094-.891-.797-.906-.797-2.39v-.079zm1.094.14q0 1.048.484 1.688.5.641 1.313.641.828 0 1.312-.64.485-.657.485-1.829 0-1.031-.5-1.672-.485-.656-1.313-.656-.797 0-1.297.64-.484.626-.484 1.829zm7.375 3.095h-1.078v-9h1.078v9zm3.11-3.344v3.344h-1.126v-8.532h3.157q1.39 0 2.187.72.797.702.797 1.89 0 1.234-.781 1.906-.766.672-2.22.672h-2.015zm0-.922h2.03q.907 0 1.376-.422.484-.422.484-1.219 0-.765-.484-1.218-.47-.47-1.313-.485h-2.094v3.344zm6.421 1.031q0-.922.36-1.672.375-.75 1.03-1.14.657-.406 1.485-.406 1.297 0 2.094.89.812.89.812 2.39v.079q0 .922-.359 1.656-.36.735-1.016 1.156-.656.407-1.515.407-1.281 0-2.094-.891-.797-.906-.797-2.39v-.079zm1.094.14q0 1.048.484 1.688.5.641 1.313.641.828 0 1.312-.64.485-.657.485-1.829 0-1.031-.5-1.672-.485-.656-1.313-.656-.797 0-1.297.64-.484.626-.484 1.829zm7.375 3.095h-1.078v-9h1.078v9zm3.89-1.594l1.485-4.75h1.156l-2.547 7.328q-.593 1.578-1.875 1.578l-.218-.015-.391-.079v-.875l.281.016q.563 0 .86-.219.312-.218.515-.812l.235-.656-2.266-6.266h1.187l1.579 4.75zm4.954-4.75l.03.703q.688-.812 1.876-.812 1.328 0 1.812 1.015.313-.453.813-.734.516-.281 1.203-.281 2.094 0 2.125 2.203v4.25h-1.078v-4.188q0-.672-.313-1-.312-.344-1.046-.344-.61 0-1.016.36-.39.36-.453.969v4.203h-1.078v-4.157q0-1.375-1.36-1.375-1.062 0-1.453.907v4.625h-1.094v-6.344h1.032zm9.687 3.11q0-.923.36-1.673.375-.75 1.03-1.14.657-.406 1.485-.406 1.297 0 2.094.89.812.89.812 2.39v.079q0 .922-.359 1.656-.36.735-1.016 1.156-.656.407-1.515.407-1.281 0-2.094-.891-.797-.906-.797-2.39v-.079zm1.094.14q0 1.047.484 1.687.5.641 1.313.641.828 0 1.312-.64.485-.657.485-1.829 0-1.031-.5-1.672-.485-.656-1.313-.656-.797 0-1.297.64-.484.626-.484 1.829zm9.266-2.281q-.25-.032-.532-.032-1.078 0-1.453.907v4.5h-1.078v-6.344h1.047l.016.734q.53-.843 1.515-.843.313 0 .485.078v1zm6.28 2.28q0 1.438-.655 2.329-.657.89-1.797.89-1.157 0-1.813-.734v3.047h-1.078v-8.781h.984l.047.703q.672-.812 1.844-.812 1.14 0 1.797.859.672.86.672 2.39v.11zm-1.077-.124q0-1.078-.47-1.688-.452-.625-1.25-.625-.983 0-1.468.86v3.031q.485.875 1.485.875.78 0 1.234-.61.469-.624.469-1.843zm3.812-2.36q.719-.874 1.875-.874 2.016 0 2.031 2.265v4.188h-1.093v-4.203q0-.672-.313-1-.297-.329-.953-.329-.531 0-.937.282-.391.28-.61.734v4.516h-1.078v-9h1.078v3.422zm7.094 5.579h-1.078v-6.344h1.078v6.344zm-1.172-8.016q0-.266.156-.453.172-.188.485-.188.312 0 .468.188.172.187.172.453 0 .25-.172.438-.156.171-.468.171-.313 0-.485-.171-.156-.188-.156-.438zm5.531 7.25q.578 0 1.016-.344.437-.36.484-.89h1.032q-.032.547-.391 1.047-.344.484-.922.78-.562.298-1.219.298-1.297 0-2.062-.86-.75-.875-.75-2.375v-.187q0-.922.328-1.64.344-.72.969-1.11.64-.406 1.515-.406 1.063 0 1.766.64.719.625.766 1.656h-1.032q-.047-.625-.468-1.015-.422-.39-1.032-.39-.828 0-1.28.593-.454.594-.454 1.719v.203q0 1.094.453 1.687.453.594 1.281.594z"/><path fill="#0b5394" d="M226 415.95a1 1 0 0 1 1-1h10a1 1 0 0 1 1 1v10a1 1 0 0 1-1 1h-10a1 1 0 0 1-1-1z"/><path fill="#757575" d="M253.266 422.747q-.157 1.344-1 2.094-.844.734-2.235.734-1.515 0-2.422-1.078-.906-1.094-.906-2.922v-.813q0-1.187.422-2.093.422-.906 1.203-1.39.781-.485 1.797-.485 1.36 0 2.172.765.828.766.969 2.094h-1.125q-.157-1.016-.641-1.469-.484-.453-1.375-.453-1.078 0-1.688.797-.609.797-.609 2.266v.828q0 1.39.578 2.219.578.812 1.625.812.938 0 1.438-.422.5-.437.672-1.484h1.125zm2.64-2.875q.719-.875 1.875-.875 2.016 0 2.031 2.265v4.188h-1.093v-4.203q0-.672-.313-1-.297-.328-.953-.328-.531 0-.937.281-.391.281-.61.734v4.516h-1.078v-9h1.078v3.422zm8.985.203q-.25-.031-.532-.031-1.078 0-1.453.906v4.5h-1.078v-6.344h1.047l.016.735q.53-.844 1.515-.844.313 0 .485.078v1zm.64 2.14q0-.921.36-1.671.375-.75 1.03-1.14.657-.407 1.485-.407 1.297 0 2.094.89.813.891.813 2.391v.078q0 .922-.36 1.656-.36.735-1.015 1.157-.657.406-1.516.406-1.281 0-2.094-.89-.797-.907-.797-2.391v-.078zm1.094.141q0 1.047.484 1.688.5.64 1.313.64.828 0 1.312-.64.485-.656.485-1.828 0-1.032-.5-1.672-.485-.656-1.313-.656-.797 0-1.297.64-.484.625-.484 1.828zm7.219-3.25l.031.703q.688-.812 1.875-.812 1.328 0 1.813 1.015.312-.453.812-.734.516-.281 1.203-.281 2.094 0 2.125 2.203v4.25h-1.078v-4.188q0-.671-.313-1-.312-.343-1.046-.343-.61 0-1.016.36-.39.358-.453.968v4.203h-1.078v-4.156q0-1.375-1.36-1.375-1.062 0-1.453.906v4.625h-1.094v-6.344h1.032zm12.61 6.469q-1.298 0-2.11-.844-.797-.86-.797-2.281v-.188q0-.953.36-1.687.359-.75 1-1.156.656-.422 1.406-.422 1.234 0 1.921.812.688.813.688 2.328v.454h-4.297q.031.937.547 1.515.531.578 1.344.578.562 0 .953-.234.406-.234.719-.625l.656.516q-.797 1.234-2.39 1.234zm-.142-5.688q-.656 0-1.109.485-.437.469-.531 1.328h3.172v-.078q-.047-.828-.453-1.281-.391-.454-1.079-.454zm6.891 1.282l.438-4.25h4.375v1h-3.454l-.265 2.328q.64-.375 1.437-.375 1.157 0 1.844.781.688.766.688 2.078 0 1.313-.72 2.078-.702.766-1.983.766-1.125 0-1.844-.625-.719-.64-.813-1.75h1.016q.11.734.531 1.11.422.374 1.11.374.75 0 1.187-.515.438-.516.438-1.422 0-.86-.47-1.375-.468-.516-1.25-.516-.702 0-1.109.297l-.28.234-.876-.218zm11.688-2.031q0 .64-.344 1.14-.344.5-.906.781.656.282 1.046.844.391.547.391 1.25 0 1.094-.75 1.766-.734.656-1.953.656-1.234 0-1.984-.656-.735-.672-.735-1.766 0-.703.375-1.25.375-.562 1.047-.844-.562-.28-.89-.78-.329-.5-.329-1.142 0-1.078.688-1.703.687-.64 1.828-.64 1.125 0 1.813.64.703.625.703 1.703zm-.891 3.984q0-.719-.453-1.156-.453-.454-1.188-.454-.734 0-1.187.454-.438.437-.438 1.171 0 .72.438 1.141.437.406 1.203.406.75 0 1.188-.422.437-.421.437-1.14zm-1.625-5.438q-.64 0-1.047.407-.39.39-.39 1.078 0 .64.39 1.047.39.406 1.031.406.657 0 1.047-.406.39-.407.39-1.047 0-.656-.405-1.063-.407-.422-1.016-.422z"/><path fill="#073763" d="M322 415.95a1 1 0 0 1 1-1h10a1 1 0 0 1 1 1v10a1 1 0 0 1-1 1h-10a1 1 0 0 1-1-1z"/><path fill="#757575" d="M349.266 422.747q-.157 1.344-1 2.094-.844.734-2.235.734-1.515 0-2.422-1.078-.906-1.094-.906-2.922v-.813q0-1.187.422-2.093.422-.906 1.203-1.39.781-.485 1.797-.485 1.36 0 2.172.765.828.766.969 2.094h-1.125q-.157-1.016-.641-1.469-.484-.453-1.375-.453-1.078 0-1.688.797-.609.797-.609 2.266v.828q0 1.39.578 2.219.578.812 1.625.812.938 0 1.438-.422.5-.437.672-1.484h1.125zm2.64-2.875q.719-.875 1.875-.875 2.016 0 2.031 2.265v4.188h-1.093v-4.203q0-.672-.313-1-.297-.328-.953-.328-.531 0-.937.281-.391.281-.61.734v4.516h-1.078v-9h1.078v3.422zm8.985.203q-.25-.031-.532-.031-1.078 0-1.453.906v4.5h-1.078v-6.344h1.047l.016.735q.53-.844 1.515-.844.313 0 .485.078v1zm.64 2.14q0-.921.36-1.671.375-.75 1.03-1.14.657-.407 1.485-.407 1.297 0 2.094.89.813.891.813 2.391v.078q0 .922-.36 1.656-.36.735-1.015 1.157-.657.406-1.516.406-1.281 0-2.094-.89-.797-.907-.797-2.391v-.078zm1.094.141q0 1.047.484 1.688.5.64 1.313.64.828 0 1.312-.64.485-.656.485-1.828 0-1.032-.5-1.672-.485-.656-1.313-.656-.797 0-1.297.64-.484.625-.484 1.828zm7.219-3.25l.031.703q.688-.812 1.875-.812 1.328 0 1.813 1.015.312-.453.812-.734.516-.281 1.203-.281 2.094 0 2.125 2.203v4.25h-1.078v-4.188q0-.671-.313-1-.312-.343-1.046-.343-.61 0-1.016.36-.39.358-.453.968v4.203h-1.078v-4.156q0-1.375-1.36-1.375-1.062 0-1.453.906v4.625h-1.094v-6.344h1.032zm12.61 6.469q-1.298 0-2.11-.844-.797-.86-.797-2.281v-.188q0-.953.36-1.687.359-.75 1-1.156.656-.422 1.406-.422 1.234 0 1.921.812.688.813.688 2.328v.454h-4.297q.031.937.547 1.515.531.578 1.344.578.562 0 .953-.234.406-.234.719-.625l.656.516q-.797 1.234-2.39 1.234zm-.142-5.688q-.656 0-1.109.485-.437.469-.531 1.328h3.172v-.078q-.047-.828-.453-1.281-.391-.454-1.079-.454zm10.657-2.968v.906h-.203q-1.266.031-2.016.766-.75.718-.875 2.03.688-.765 1.844-.765 1.11 0 1.781.781.672.782.672 2.032 0 1.312-.719 2.11-.719.796-1.937.796-1.22 0-1.985-.938-.75-.953-.75-2.437v-.406q0-2.36 1-3.61t2.985-1.265h.203zm-1.422 3.844q-.563 0-1.031.328-.47.328-.657.843v.391q0 1.063.47 1.703.483.64 1.187.64.734 0 1.156-.53.422-.547.422-1.422 0-.875-.422-1.407-.422-.547-1.125-.547zm7.719 4.687h-1.079v-7.219l-2.187.797v-.984l3.11-1.172h.156v8.578z"/><path fill="#e69138" d="M418 415.95a1 1 0 0 1 1-1h10a1 1 0 0 1 1 1v10a1 1 0 0 1-1 1h-10a1 1 0 0 1-1-1z"/><path fill="#757575" d="M445.266 422.747q-.157 1.344-1 2.094-.844.734-2.235.734-1.515 0-2.422-1.078-.906-1.094-.906-2.922v-.813q0-1.187.422-2.093.422-.906 1.203-1.39.781-.485 1.797-.485 1.36 0 2.172.765.828.766.969 2.094h-1.125q-.157-1.016-.641-1.469-.484-.453-1.375-.453-1.078 0-1.688.797-.609.797-.609 2.266v.828q0 1.39.578 2.219.578.812 1.625.812.938 0 1.438-.422.5-.437.672-1.484h1.125zm2.64-2.875q.719-.875 1.875-.875 2.016 0 2.031 2.265v4.188h-1.093v-4.203q0-.672-.313-1-.297-.328-.953-.328-.531 0-.937.281-.391.281-.61.734v4.516h-1.078v-9h1.078v3.422zm8.985.203q-.25-.031-.532-.031-1.078 0-1.453.906v4.5h-1.078v-6.344h1.047l.016.735q.53-.844 1.515-.844.313 0 .485.078v1zm.64 2.14q0-.921.36-1.671.375-.75 1.03-1.14.657-.407 1.485-.407 1.297 0 2.094.89.813.891.813 2.391v.078q0 .922-.36 1.656-.36.735-1.015 1.157-.657.406-1.516.406-1.281 0-2.094-.89-.797-.907-.797-2.391v-.078zm1.094.141q0 1.047.484 1.688.5.64 1.313.64.828 0 1.312-.64.485-.656.485-1.828 0-1.032-.5-1.672-.485-.656-1.313-.656-.797 0-1.297.64-.484.625-.484 1.828zm7.219-3.25l.031.703q.688-.812 1.875-.812 1.328 0 1.813 1.015.312-.453.812-.734.516-.281 1.203-.281 2.094 0 2.125 2.203v4.25h-1.078v-4.188q0-.671-.313-1-.312-.343-1.046-.343-.61 0-1.016.36-.39.358-.453.968v4.203h-1.078v-4.156q0-1.375-1.36-1.375-1.062 0-1.453.906v4.625h-1.094v-6.344h1.032zm12.61 6.469q-1.298 0-2.11-.844-.797-.86-.797-2.281v-.188q0-.953.36-1.687.359-.75 1-1.156.656-.422 1.406-.422 1.234 0 1.921.812.688.813.688 2.328v.454h-4.297q.031.937.547 1.515.531.578 1.344.578.562 0 .953-.234.406-.234.719-.625l.656.516q-.797 1.234-2.39 1.234zm-.142-5.688q-.656 0-1.109.485-.437.469-.531 1.328h3.172v-.078q-.047-.828-.453-1.281-.391-.454-1.079-.454zm10.657-2.968v.906h-.203q-1.266.031-2.016.766-.75.718-.875 2.03.688-.765 1.844-.765 1.11 0 1.781.781.672.782.672 2.032 0 1.312-.719 2.11-.719.796-1.937.796-1.22 0-1.985-.938-.75-.953-.75-2.437v-.406q0-2.36 1-3.61t2.985-1.265h.203zm-1.422 3.844q-.563 0-1.031.328-.47.328-.657.843v.391q0 1.063.47 1.703.483.64 1.187.64.734 0 1.156-.53.422-.547.422-1.422 0-.875-.422-1.407-.422-.547-1.125-.547zm5.734-.11h.813q.781-.016 1.219-.406.437-.39.437-1.063 0-1.5-1.5-1.5-.703 0-1.125.407-.406.406-.406 1.062h-1.094q0-1.016.734-1.687.75-.672 1.891-.672 1.203 0 1.89.64.688.641.688 1.782 0 .562-.36 1.078-.359.515-.984.781.704.219 1.079.734.39.516.39 1.266 0 1.14-.75 1.828-.75.672-1.953.672-1.188 0-1.953-.656-.75-.656-.75-1.719h1.094q0 .672.437 1.078.438.406 1.188.406.78 0 1.187-.406.422-.422.422-1.187 0-.735-.453-1.125-.453-.407-1.328-.422h-.813v-.89z"/></svg>