<svg fill="none" stroke-linecap="square" stroke-miterlimit="10" width="707" height="440" xmlns="http://www.w3.org/2000/svg"><path fill="#fff" d="M0 0h707v440H0V0z"/><path fill="#fff" d="M0 0h707v440H0V0z"/><path stroke="#333" stroke-linecap="butt" d="M113.5 367.5h572"/><path stroke="#ccc" stroke-linecap="butt" d="M113.5 254.5h572m-572-112h572m-572-113h572"/><clipPath id="a"><path d="M113 29.5h572v337.833H113V29.5z"/></clipPath><path fill="#0b5394" clip-path="url(#a)" d="M250 367h-52V60a2 2 0 0 1 2-2h48a2 2 0 0 1 2 2zm244 0h-52V235a2 2 0 0 1 2-2h48a2 2 0 0 1 2 2z"/><path fill="#073763" clip-path="url(#a)" d="M303 367h-52V56a2 2 0 0 1 2-2h48a2 2 0 0 1 2 2zm244 0h-52V208a2 2 0 0 1 2-2h48a2 2 0 0 1 2 2z"/><path fill="#e69138" clip-path="url(#a)" d="M356 367h-52v-11a2 2 0 0 1 2-2h48a2 2 0 0 1 2 2zm244 0h-52v-10a2 2 0 0 1 2-2h48a2 2 0 0 1 2 2z"/><path fill="#b7b7b7" d="M30.063 282.354v3.703h3.015v-4.297H34v5.422h-8.531v-5.375h.922v4.25h2.75v-3.703h.922zm-.094-4.14l-2.313-1.407v-1.265l3.14 2.078L34 275.48v1.25l-2.375 1.468L34 279.667v1.265l-3.203-2.14-3.14 2.062v-1.25l2.312-1.39zm4.156-6.5q0 1.296-.844 2.109-.86.797-2.281.797h-.187q-.954 0-1.688-.36-.75-.359-1.156-1-.422-.656-.422-1.406 0-1.234.812-1.922.813-.687 2.329-.687h.453v4.297q.937-.032 1.515-.547.578-.531.578-1.344 0-.562-.234-.953-.234-.406-.625-.719l.516-.656q1.234.797 1.234 2.39zm-5.687.14q0 .656.484 1.11.469.437 1.328.53v-3.171h-.078q-.828.047-1.281.453-.453.39-.453 1.078zm4.796-6.047q0-.578-.343-1.015-.36-.438-.891-.485v-1.03q.547.03 1.047.39.484.343.781.922.297.562.297 1.218 0 1.297-.86 2.063-.874.75-2.374.75h-.188q-.922 0-1.64-.328-.72-.344-1.11-.97-.406-.64-.406-1.515 0-1.062.64-1.765.626-.72 1.657-.766v1.031q-.625.047-1.016.47-.39.42-.39 1.03 0 .828.593 1.282.594.453 1.719.453h.203q1.094 0 1.688-.453.593-.454.593-1.282zm.141-7.375q.75.625.75 1.86 0 1.015-.594 1.547-.593.53-1.75.53h-4.125v-1.077h4.094q1.453 0 1.453-1.172 0-1.25-.937-1.656h-4.61v-1.094H34v1.031l-.625.031zm-7.25-4.562h1.531v-1.172h.844v1.172h3.922q.39 0 .578-.156.188-.157.188-.532 0-.187-.063-.515H34q.125.422.125.828 0 .719-.437 1.094-.454.375-1.266.375H28.5v1.156h-.844v-1.156h-1.531v-1.094zM34 250.167v1.078h-6.344v-1.078H34zm-8.016 1.172q-.265 0-.453-.157-.187-.172-.187-.484 0-.313.187-.469.188-.172.453-.172.25 0 .438.172.172.156.172.469 0 .312-.172.484-.188.157-.438.157zm4.782-2.704q-.922 0-1.672-.359-.75-.375-1.14-1.031-.407-.656-.407-1.485 0-1.296.89-2.093.891-.813 2.391-.813h.078q.922 0 1.657.36.734.359 1.156 1.015.406.656.406 1.516 0 1.281-.89 2.094-.907.796-2.391.796h-.078zm.14-1.093q1.047 0 1.688-.485.64-.5.64-1.312 0-.828-.64-1.313-.656-.484-1.828-.484-1.032 0-1.672.5-.656.484-.656 1.312 0 .797.64 1.297.625.485 1.828.485zm-3.25-7.22l.797-.03q-.906-.735-.906-1.907 0-2.015 2.266-2.03H34v1.093h-4.203q-.672 0-1 .312-.328.297-.328.954 0 .53.281.937.281.39.734.61H34v1.078h-6.344v-1.016zm-1.531-10.452h1.531v-1.172h.844v1.172h3.922q.39 0 .578-.156.188-.157.188-.532 0-.187-.063-.515H34q.125.422.125.828 0 .719-.437 1.094-.454.375-1.266.375H28.5v1.156h-.844v-1.156h-1.531v-1.094zM34 226.167v1.078h-6.344v-1.078H34zm-8.016 1.172q-.265 0-.453-.157-.187-.172-.187-.484 0-.313.187-.469.188-.172.453-.172.25 0 .438.172.172.156.172.469 0 .312-.172.484-.188.157-.438.157zm1.672-4.016l.703-.031q-.812-.688-.812-1.875 0-1.328 1.016-1.813-.454-.312-.735-.812-.281-.516-.281-1.203 0-2.094 2.203-2.125H34v1.078h-4.187q-.672 0-1 .312-.344.313-.344 1.047 0 .61.36 1.016.359.39.968.453H34v1.078h-4.156q-1.375 0-1.375 1.36 0 1.062.906 1.452H34v1.094h-6.344v-1.031zm6.469-12.61q0 1.297-.844 2.11-.86.797-2.281.797h-.187q-.954 0-1.688-.36-.75-.359-1.156-1-.422-.656-.422-1.406 0-1.234.812-1.922.813-.687 2.329-.687h.453v4.297q.937-.032 1.515-.547.578-.531.578-1.344 0-.562-.234-.953-.234-.406-.625-.719l.516-.656q1.234.797 1.234 2.39zm-5.687.141q0 .656.484 1.11.469.437 1.328.53v-3.171h-.078q-.828.047-1.281.453-.453.39-.453 1.078zm2.093-6.469q-1.312 0-2.531-.343-1.219-.36-2.219-1.063-1-.703-1.406-1.469l.719-.218q.656.859 2 1.406 1.344.547 3.015.594l.5.015q2.266 0 3.922-.828 1-.5 1.563-1.187l.656.218q-.422.782-1.453 1.5-1.984 1.375-4.766 1.375zM34 199.167v1.078h-9v-1.078h9zm-3.234-1.532q-.922 0-1.672-.359-.75-.375-1.14-1.031-.407-.656-.407-1.485 0-1.296.89-2.093.891-.813 2.391-.813h.078q.922 0 1.657.36.734.359 1.156 1.015.406.656.406 1.516 0 1.281-.89 2.094-.907.796-2.391.796h-.078zm.14-1.093q1.047 0 1.688-.485.64-.5.64-1.312 0-.828-.64-1.313-.656-.484-1.828-.484-1.032 0-1.672.5-.656.484-.656 1.312 0 .797.64 1.297.625.485 1.828.485zm1.594-11.813l-4.844-1.219v-1.078L34 184.276v.875l-4.812 1.547 4.812 1.5v.875l-6.344 1.844v-1.078l4.75-1.25-4.75-1.485v-.86l4.844-1.515zm1.625-6.015q0 1.296-.844 2.109-.86.797-2.281.797h-.187q-.954 0-1.688-.36-.75-.359-1.156-1-.422-.656-.422-1.406 0-1.234.812-1.922.813-.687 2.329-.687h.453v4.297q.937-.032 1.515-.547.578-.531.578-1.344 0-.562-.234-.953-.234-.406-.625-.719l.516-.656q1.234.797 1.234 2.39zm-5.687.14q0 .656.484 1.11.469.437 1.328.53v-3.171h-.078q-.828.047-1.281.453-.453.39-.453 1.078zm.187-6.578q-.031.25-.031.531 0 1.078.906 1.453H34v1.079h-6.344v-1.047l.735-.016q-.844-.531-.844-1.516 0-.312.078-.484h1zm5.375-5.11v1.079h-6.344v-1.078H34zm-8.016 1.173q-.265 0-.453-.157-.187-.172-.187-.484 0-.313.187-.469.188-.172.453-.172.25 0 .438.172.172.156.172.469 0 .312-.172.484-.188.157-.438.157zm6.329-6.688q-.438 0-.672.344-.25.328-.422 1.156-.172.813-.422 1.297t-.578.719q-.344.218-.813.218-.781 0-1.312-.656-.547-.656-.547-1.687 0-1.078.562-1.735.547-.672 1.407-.672v1.079q-.438 0-.75.39-.328.375-.328.938 0 .593.265.937.25.328.656.328.391 0 .594-.312.203-.313.39-1.125.173-.813.423-1.313t.609-.734q.36-.25.86-.25.859 0 1.374.687.516.672.516 1.75 0 .766-.266 1.36-.28.578-.765.906-.485.328-1.047.328v-1.078q.547-.031.875-.437.312-.407.312-1.079 0-.609-.25-.984t-.671-.375zm-1.407-10.672q1.453 0 2.344.672.875.656.875 1.781 0 1.203-.86 1.86l.735.062v.985h-9v-1.079h3.36q-.813-.656-.813-1.812 0-1.156.875-1.813.86-.656 2.39-.656h.094zm-.125 1.078q-1.11 0-1.703.438-.61.422-.61 1.219 0 1.078.985 1.546h2.75q1-.5 1-1.546 0-.782-.61-1.22-.609-.437-1.812-.437zm3.344-5.343q0 1.296-.844 2.109-.86.797-2.281.797h-.187q-.954 0-1.688-.36-.75-.359-1.156-1-.422-.656-.422-1.406 0-1.234.812-1.922.813-.687 2.329-.687h.453v4.297q.937-.032 1.515-.547.578-.531.578-1.344 0-.562-.234-.953-.234-.406-.625-.719l.516-.656q1.234.797 1.234 2.39zm-5.687.14q0 .656.484 1.11.469.437 1.328.53v-3.171h-.078q-.828.047-1.281.453-.453.39-.453 1.078zm-2.313-4.984h1.531v-1.172h.844v1.172h3.922q.39 0 .578-.156.188-.157.188-.532 0-.187-.063-.515H34q.125.422.125.828 0 .719-.437 1.094-.454.375-1.266.375H28.5v1.156h-.844v-1.156h-1.531v-1.094zm0-4h1.531v-1.172h.844v1.172h3.922q.39 0 .578-.156.188-.157.188-.532 0-.187-.063-.515H34q.125.422.125.828 0 .719-.437 1.094-.454.375-1.266.375H28.5v1.156h-.844v-1.156h-1.531v-1.094zm8-5.156q0 1.296-.844 2.109-.86.797-2.281.797h-.187q-.954 0-1.688-.36-.75-.359-1.156-1-.422-.656-.422-1.406 0-1.234.812-1.922.813-.687 2.329-.687h.453v4.297q.937-.032 1.515-.547.578-.531.578-1.344 0-.562-.234-.953-.234-.406-.625-.719l.516-.656q1.234.797 1.234 2.39zm-5.687.14q0 .656.484 1.11.469.437 1.328.53v-3.171h-.078q-.828.047-1.281.453-.453.39-.453 1.078zm.187-6.578q-.031.25-.031.531 0 1.078.906 1.453H34v1.079h-6.344v-1.047l.735-.016q-.844-.531-.844-1.516 0-.312.078-.484h1zm1.969-3.437q1.312 0 2.515.343 1.188.344 2.204 1.063 1.015.703 1.437 1.469l-.656.234q-.688-.906-2.14-1.453-1.47-.547-3.235-.563h-.188q-1.234 0-2.297.266-1.062.25-1.89.719-.844.453-1.313 1.03l-.656-.233q.422-.766 1.422-1.47 1-.702 2.219-1.046 1.203-.36 2.578-.36z"/><path fill="#757575" d="M89.063 368.193q0 1.906-.657 2.843-.64.922-2.031.922-1.36 0-2.016-.906-.656-.906-.687-2.719v-1.437q0-1.89.64-2.797.657-.922 2.047-.922 1.375 0 2.032.89.656.876.671 2.72v1.406zm-1.094-1.485q0-1.375-.39-2-.376-.64-1.22-.64-.828 0-1.218.64-.375.625-.375 1.922v1.735q0 1.375.39 2.046.406.657 1.219.657.797 0 1.188-.625.39-.625.406-1.953v-1.782zm3.875-1.218l.031.703q.688-.813 1.875-.813 1.328 0 1.813 1.016.312-.453.812-.735.516-.28 1.203-.28 2.094 0 2.125 2.202v4.25h-1.078v-4.187q0-.672-.313-1-.312-.344-1.046-.344-.61 0-1.016.36-.39.359-.453.968v4.203h-1.078v-4.156q0-1.375-1.36-1.375-1.062 0-1.453.906v4.625h-1.094v-6.343h1.032zm13.672 4.656q0-.438-.344-.672-.328-.25-1.156-.422-.813-.172-1.297-.422-.485-.25-.719-.578-.219-.344-.219-.812 0-.782.656-1.313.657-.547 1.688-.547 1.078 0 1.734.563.672.547.672 1.406h-1.078q0-.438-.39-.75-.376-.328-.938-.328-.594 0-.938.265-.328.25-.328.657 0 .39.313.593.312.204 1.125.391.812.172 1.312.422t.735.61q.25.359.25.859 0 .86-.688 1.375-.672.515-1.75.515-.765 0-1.36-.265-.577-.282-.905-.766-.329-.484-.329-1.047h1.079q.03.547.437.875.406.313 1.078.313.61 0 .985-.25t.375-.672zM63.203 254.941l.438-4.25h4.375v1h-3.454l-.265 2.328q.64-.375 1.437-.375 1.157 0 1.844.781.688.766.688 2.078 0 1.313-.72 2.079-.702.765-1.984.765-1.124 0-1.843-.625-.719-.64-.813-1.75h1.016q.11.735.531 1.11.422.375 1.11.375.75 0 1.187-.516.438-.516.438-1.422 0-.86-.47-1.375-.468-.516-1.25-.516-.702 0-1.109.297l-.28.235-.876-.219zm11.86.64q0 1.907-.657 2.844-.64.922-2.031.922-1.36 0-2.016-.906-.656-.906-.687-2.719v-1.437q0-1.89.64-2.797.657-.922 2.047-.922 1.375 0 2.032.89.656.876.671 2.72v1.406zm-1.094-1.484q0-1.375-.39-2-.376-.64-1.22-.64-.828 0-1.218.64-.375.625-.375 1.922v1.734q0 1.375.39 2.047.406.657 1.219.657.797 0 1.188-.625.39-.625.406-1.954v-1.78zm8.094 1.485q0 1.906-.657 2.843-.64.922-2.031.922-1.36 0-2.016-.906-.656-.906-.687-2.719v-1.437q0-1.89.64-2.797.657-.922 2.047-.922 1.375 0 2.032.89.656.876.671 2.72v1.406zm-1.094-1.485q0-1.375-.39-2-.376-.64-1.22-.64-.828 0-1.218.64-.375.625-.375 1.922v1.734q0 1.375.39 2.047.406.657 1.219.657.797 0 1.188-.625.39-.625.406-1.954v-1.78zm8.094 1.485q0 1.906-.657 2.843-.64.922-2.031.922-1.36 0-2.016-.906-.656-.906-.687-2.719v-1.437q0-1.89.64-2.797.657-.922 2.047-.922 1.375 0 2.032.89.656.876.671 2.72v1.406zm-1.094-1.485q0-1.375-.39-2-.376-.64-1.22-.64-.828 0-1.218.64-.375.625-.375 1.922v1.734q0 1.375.39 2.047.406.657 1.219.657.797 0 1.188-.625.39-.625.406-1.954v-1.78zm3.875-1.219l.031.704q.688-.813 1.875-.813 1.328 0 1.813 1.016.312-.453.812-.735.516-.28 1.203-.28 2.094 0 2.125 2.202v4.25h-1.078v-4.187q0-.672-.313-1-.312-.344-1.046-.344-.61 0-1.016.36-.39.359-.453.968v4.203h-1.078v-4.156q0-1.375-1.36-1.375-1.062 0-1.453.906v4.625h-1.094v-6.344h1.032zm13.672 4.657q0-.438-.344-.672-.328-.25-1.156-.422-.813-.172-1.297-.422-.485-.25-.719-.578-.219-.344-.219-.813 0-.78.656-1.312.657-.547 1.688-.547 1.078 0 1.734.563.672.546.672 1.406h-1.078q0-.438-.39-.75-.376-.328-.938-.328-.594 0-.938.265-.328.25-.328.657 0 .39.313.593.312.203 1.125.391.812.172 1.312.422t.735.61q.25.359.25.859 0 .859-.688 1.375-.672.515-1.75.515-.765 0-1.36-.265-.577-.282-.905-.766-.329-.484-.329-1.047h1.079q.03.547.437.875.406.313 1.078.313.61 0 .985-.25t.375-.672zm-46.25-110.924h-1.078v-7.219L56 140.19v-.984l3.11-1.172h.156v8.578zm8.797-3.64q0 1.906-.657 2.843-.64.922-2.031.922-1.36 0-2.016-.906-.656-.906-.687-2.719v-1.437q0-1.891.64-2.797.657-.922 2.047-.922 1.375 0 2.032.89.656.875.671 2.72v1.405zm-1.094-1.485q0-1.375-.39-2-.376-.64-1.22-.64-.828 0-1.218.64-.375.625-.375 1.922v1.734q0 1.375.39 2.047.406.656 1.219.656.797 0 1.188-.625.39-.625.406-1.953v-1.78zm8.094 1.484q0 1.907-.657 2.844-.64.922-2.031.922-1.36 0-2.016-.906-.656-.906-.687-2.719v-1.437q0-1.891.64-2.797.657-.922 2.047-.922 1.375 0 2.032.89.656.875.671 2.72v1.405zm-1.094-1.484q0-1.375-.39-2-.376-.64-1.22-.64-.828 0-1.218.64-.375.625-.375 1.922v1.734q0 1.375.39 2.047.406.656 1.219.656.797 0 1.188-.625.39-.625.406-1.953v-1.78zm8.094 1.484q0 1.907-.657 2.844-.64.922-2.031.922-1.36 0-2.016-.906-.656-.906-.687-2.719v-1.437q0-1.891.64-2.797.657-.922 2.047-.922 1.375 0 2.032.89.656.875.671 2.72v1.405zm-1.094-1.484q0-1.375-.39-2-.376-.64-1.22-.64-.828 0-1.218.64-.375.625-.375 1.922v1.734q0 1.375.39 2.047.406.656 1.219.656.797 0 1.188-.625.39-.625.406-1.953v-1.78zm8.094 1.484q0 1.907-.657 2.844-.64.922-2.031.922-1.36 0-2.016-.906-.656-.906-.687-2.719v-1.437q0-1.891.64-2.797.657-.922 2.047-.922 1.375 0 2.032.89.656.875.671 2.72v1.405zm-1.094-1.484q0-1.375-.39-2-.376-.64-1.22-.64-.828 0-1.218.64-.375.625-.375 1.922v1.734q0 1.375.39 2.047.406.656 1.219.656.797 0 1.188-.625.39-.625.406-1.953v-1.78zm3.875-1.219l.031.703q.688-.812 1.875-.812 1.328 0 1.813 1.016.312-.454.812-.735.516-.281 1.203-.281 2.094 0 2.125 2.203v4.25h-1.078v-4.187q0-.672-.313-1-.312-.344-1.046-.344-.61 0-1.016.36-.39.359-.453.968v4.203h-1.078v-4.156q0-1.375-1.36-1.375-1.062 0-1.453.906v4.625h-1.094v-6.344h1.032zm13.672 4.657q0-.438-.344-.672-.328-.25-1.156-.422-.813-.172-1.297-.422-.485-.25-.719-.578-.219-.344-.219-.813 0-.78.656-1.312.657-.547 1.688-.547 1.078 0 1.734.562.672.547.672 1.407h-1.078q0-.438-.39-.75-.376-.328-.938-.328-.594 0-.938.265-.328.25-.328.656 0 .391.313.594.312.203 1.125.39.812.173 1.312.423t.735.61q.25.358.25.858 0 .86-.688 1.375-.672.516-1.75.516-.765 0-1.36-.266-.577-.28-.905-.765-.329-.485-.329-1.047h1.079q.03.547.437.875.406.312 1.078.312.61 0 .985-.25t.375-.671zM59.266 34h-1.078v-7.219L56 27.578v-.984l3.11-1.172h.156V34zm3.937-4.281l.438-4.25h4.375v1h-3.454l-.265 2.328q.64-.375 1.437-.375 1.157 0 1.844.781.688.766.688 2.078 0 1.313-.72 2.078-.702.766-1.984.766-1.124 0-1.843-.625-.719-.64-.813-1.75h1.016q.11.734.531 1.11.422.374 1.11.374.75 0 1.187-.515.438-.516.438-1.422 0-.86-.47-1.375-.468-.516-1.25-.516-.702 0-1.109.297l-.28.235-.876-.22zm11.86.64q0 1.907-.657 2.844-.64.922-2.031.922-1.36 0-2.016-.906-.656-.907-.687-2.719v-1.438q0-1.89.64-2.796.657-.922 2.047-.922 1.375 0 2.032.89.656.875.671 2.72v1.405zm-1.094-1.484q0-1.375-.39-2-.376-.64-1.22-.64-.828 0-1.218.64-.375.625-.375 1.922v1.734q0 1.375.39 2.047.406.656 1.219.656.797 0 1.188-.625.39-.625.406-1.953v-1.781zm8.094 1.484q0 1.907-.657 2.844-.64.922-2.031.922-1.36 0-2.016-.906-.656-.907-.687-2.719v-1.438q0-1.89.64-2.796.657-.922 2.047-.922 1.375 0 2.032.89.656.875.671 2.72v1.405zm-1.094-1.484q0-1.375-.39-2-.376-.64-1.22-.64-.828 0-1.218.64-.375.625-.375 1.922v1.734q0 1.375.39 2.047.406.656 1.219.656.797 0 1.188-.625.39-.625.406-1.953v-1.781zm8.094 1.484q0 1.907-.657 2.844-.64.922-2.031.922-1.36 0-2.016-.906-.656-.907-.687-2.719v-1.438q0-1.89.64-2.796.657-.922 2.047-.922 1.375 0 2.032.89.656.875.671 2.72v1.405zm-1.094-1.484q0-1.375-.39-2-.376-.64-1.22-.64-.828 0-1.218.64-.375.625-.375 1.922v1.734q0 1.375.39 2.047.406.656 1.219.656.797 0 1.188-.625.39-.625.406-1.953v-1.781zm3.875-1.219l.031.703q.688-.812 1.875-.812 1.328 0 1.813 1.015.312-.453.812-.734.516-.281 1.203-.281 2.094 0 2.125 2.203V34h-1.078v-4.188q0-.671-.313-1-.312-.343-1.046-.343-.61 0-1.016.36-.39.358-.453.968V34h-1.078v-4.156q0-1.375-1.36-1.375-1.062 0-1.453.906V34h-1.094v-6.344h1.032zm13.672 4.657q0-.438-.344-.672-.328-.25-1.156-.422-.813-.172-1.297-.422-.485-.25-.719-.578-.219-.344-.219-.813 0-.781.656-1.312.657-.547 1.688-.547 1.078 0 1.734.562.672.547.672 1.407h-1.078q0-.438-.39-.75-.376-.328-.938-.328-.594 0-.938.265-.328.25-.328.656 0 .391.313.594.312.203 1.125.39.812.173 1.312.423t.735.609q.25.36.25.86 0 .859-.688 1.374-.672.516-1.75.516-.765 0-1.36-.266-.577-.28-.905-.765-.329-.485-.329-1.047h1.079q.03.547.437.875.406.312 1.078.312.61 0 .985-.25t.375-.672zm113.079 345.145v1.532h1.172v.843h-1.172v3.922q0 .39.156.578.156.188.531.188.188 0 .516-.063v.875q-.422.125-.828.125-.719 0-1.094-.437-.375-.453-.375-1.266v-3.922h-1.156v-.843h1.156v-1.532h1.094zm5.156 8q-1.297 0-2.11-.843-.796-.86-.796-2.282v-.187q0-.953.36-1.688.358-.75 1-1.156.655-.422 1.405-.422 1.235 0 1.922.813.688.812.688 2.328v.453h-4.297q.031.937.547 1.516.531.578 1.343.578.563 0 .954-.235.406-.234.718-.625l.657.516q-.797 1.234-2.391 1.234zm-.14-5.687q-.657 0-1.11.484-.438.469-.531 1.328h3.172v-.078q-.047-.828-.454-1.281-.39-.453-1.078-.453zm4.53-.781l.032.703q.687-.813 1.875-.813 1.328 0 1.812 1.016.313-.453.813-.735.515-.28 1.203-.28 2.094 0 2.125 2.202v4.25h-1.078v-4.187q0-.672-.313-1-.312-.344-1.047-.344-.609 0-1.015.36-.39.359-.453.968v4.203h-1.078v-4.156q0-1.375-1.36-1.375-1.062 0-1.453.906v4.625h-1.094v-6.343h1.032zm15.329 3.25q0 1.437-.657 2.328-.656.89-1.796.89-1.157 0-1.813-.734v3.047h-1.078v-8.781h.984l.047.703q.672-.813 1.844-.813 1.14 0 1.797.86.672.859.672 2.39v.11zm-1.078-.125q0-1.079-.47-1.688-.452-.625-1.25-.625-.984 0-1.468.86v3.03q.484.876 1.484.876.782 0 1.235-.61.469-.625.469-1.843zm3.906 3.218h-1.078v-9h1.078v9zm5.734 0q-.094-.187-.156-.672-.75.797-1.797.797-.937 0-1.547-.53-.594-.532-.594-1.36 0-.985.75-1.532.75-.546 2.125-.546h1.047v-.5q0-.563-.343-.891-.329-.344-1-.344-.579 0-.97.297-.39.281-.39.703h-1.094q0-.484.329-.922.343-.437.921-.687.579-.266 1.266-.266 1.11 0 1.719.547.625.547.656 1.5v2.922q0 .875.219 1.39v.094h-1.14zm-1.797-.828q.516 0 .97-.265.452-.266.655-.688v-1.297h-.843q-2 0-2 1.172 0 .5.343.797.344.281.875.281zm6.36-7.047v1.532h1.172v.843h-1.172v3.922q0 .39.156.578.156.188.531.188.188 0 .516-.063v.875q-.422.125-.828.125-.719 0-1.094-.437-.375-.453-.375-1.266v-3.922h-1.156v-.843h1.156v-1.532h1.094zm5.156 8q-1.297 0-2.11-.843-.796-.86-.796-2.282v-.187q0-.953.36-1.688.358-.75 1-1.156.655-.422 1.405-.422 1.235 0 1.922.813.688.812.688 2.328v.453h-4.297q.031.937.547 1.516.531.578 1.343.578.563 0 .954-.235.406-.234.718-.625l.657.516q-.797 1.234-2.391 1.234zm-.14-5.687q-.657 0-1.11.484-.438.469-.531 1.328h3.172v-.078q-.047-.828-.454-1.281-.39-.453-1.078-.453zm6.187 1.765q-1.438-.421-2.11-1.03-.656-.61-.656-1.5 0-1 .797-1.657.813-.672 2.11-.672.874 0 1.562.344.687.344 1.062.937.391.594.391 1.313h-1.14q0-.781-.5-1.219-.485-.437-1.376-.437-.828 0-1.296.375-.47.359-.47 1 0 .53.438.89.453.36 1.516.656 1.062.297 1.656.657.61.36.89.843.298.485.298 1.125 0 1.047-.813 1.672-.812.625-2.156.625-.89 0-1.656-.343-.75-.344-1.172-.922-.406-.594-.406-1.328h1.125q0 .765.578 1.218.578.453 1.531.453.89 0 1.36-.359.468-.375.468-1t-.437-.969q-.438-.343-1.594-.672zm5.797-4.078v1.532h1.172v.843h-1.172v3.922q0 .39.156.578.156.188.531.188.188 0 .516-.063v.875q-.422.125-.828.125-.719 0-1.094-.437-.375-.453-.375-1.266v-3.922h-1.156v-.843h1.156v-1.532h1.094zm5.593 2.5q-.25-.03-.53-.03-1.079 0-1.454.905v4.5h-1.078v-6.343h1.047l.015.734q.532-.844 1.516-.844.313 0 .484.078v1zm2.11 5.375h-1.078v-6.343h1.078v6.343zm-1.172-8.015q0-.266.156-.453.172-.188.485-.188.312 0 .468.188.172.187.172.453 0 .25-.172.437-.156.172-.468.172-.313 0-.485-.172-.156-.187-.156-.437zm4.016 1.672l.03.796q.735-.906 1.907-.906 2.016 0 2.031 2.266v4.187h-1.093v-4.203q0-.672-.313-1-.297-.328-.953-.328-.531 0-.938.281-.39.282-.609.735v4.515h-1.078v-6.343h1.016zm5.718 3.125q0-1.485.688-2.36.687-.875 1.812-.875 1.157 0 1.813.813l.047-.703h1v6.187q0 1.234-.735 1.938-.734.718-1.953.718-.687 0-1.344-.297-.656-.296-1-.796l.563-.657q.687.86 1.703.86.781 0 1.219-.453.453-.438.453-1.25v-.547q-.656.765-1.781.765-1.11 0-1.797-.89-.688-.907-.688-2.453zm1.094.125q0 1.062.438 1.687.437.61 1.234.61 1.016 0 1.5-.938v-2.89q-.5-.907-1.5-.907-.781 0-1.234.61-.438.609-.438 1.828zm12.234-4.516h-2.75v7.61h-1.109v-7.61h-2.75v-.922h6.61v.922zm4.844 7.61q-.094-.188-.156-.673-.75.797-1.797.797-.937 0-1.547-.53-.594-.532-.594-1.36 0-.985.75-1.532.75-.546 2.125-.546h1.047v-.5q0-.563-.343-.891-.329-.344-1-.344-.579 0-.97.297-.39.281-.39.703h-1.094q0-.484.329-.922.343-.437.921-.687.579-.266 1.266-.266 1.11 0 1.719.547.625.547.656 1.5v2.922q0 .875.219 1.39v.094h-1.14zm-1.797-.829q.516 0 .97-.265.452-.266.655-.688v-1.297h-.843q-2 0-2 1.172 0 .5.343.797.344.281.875.281zm4.625-2.39q0-1.485.688-2.36.687-.875 1.812-.875 1.157 0 1.813.813l.047-.703h1v6.187q0 1.234-.735 1.938-.734.718-1.953.718-.687 0-1.344-.297-.656-.296-1-.796l.563-.657q.687.86 1.703.86.781 0 1.219-.453.453-.438.453-1.25v-.547q-.656.765-1.781.765-1.11 0-1.797-.89-.688-.907-.688-2.453zm1.094.125q0 1.062.438 1.687.437.61 1.234.61 1.016 0 1.5-.938v-2.89q-.5-.907-1.5-.907-.781 0-1.234.61-.438.609-.438 1.828zm11.156-.844h-3.703v3.015h4.297v.922h-5.422v-8.53h5.375v.921h-4.25v2.75h3.703v.922zm4.688.14q-1.438-.421-2.11-1.03-.656-.61-.656-1.5 0-1 .797-1.657.813-.672 2.11-.672.874 0 1.562.344.687.344 1.062.937.391.594.391 1.313h-1.14q0-.781-.5-1.219-.485-.437-1.376-.437-.828 0-1.296.375-.47.359-.47 1 0 .53.438.89.453.36 1.516.656 1.062.297 1.656.657.61.36.89.843.298.485.298 1.125 0 1.047-.813 1.672-.812.625-2.156.625-.89 0-1.656-.343-.75-.344-1.172-.922-.406-.594-.406-1.328h1.125q0 .765.578 1.218.578.453 1.531.453.89 0 1.36-.359.468-.375.468-1t-.437-.969q-.438-.343-1.594-.672zm8.469-4.734v.906h-.204q-1.265.032-2.015.766-.75.719-.875 2.031.687-.765 1.844-.765 1.109 0 1.78.78.673.782.673 2.032 0 1.313-.719 2.11-.719.796-1.938.796-1.218 0-1.984-.937-.75-.953-.75-2.438v-.406q0-2.36 1-3.61t2.984-1.265h.204zm-1.422 3.844q-.563 0-1.032.328-.468.328-.656.844v.39q0 1.063.469 1.703.484.641 1.187.641.735 0 1.157-.531.422-.547.422-1.422 0-.875-.422-1.406-.422-.547-1.125-.547zm122.654-3.188v1.532h1.172v.843h-1.172v3.922q0 .39.156.578.157.188.532.188.187 0 .515-.063v.875q-.422.125-.828.125-.719 0-1.094-.437-.375-.453-.375-1.266v-3.922h-1.156v-.843h1.156v-1.532h1.094zm5.156 8q-1.297 0-2.11-.843-.796-.86-.796-2.282v-.187q0-.953.36-1.688.359-.75 1-1.156.656-.422 1.406-.422 1.234 0 1.922.813.687.812.687 2.328v.453h-4.297q.031.937.547 1.516.531.578 1.344.578.562 0 .953-.235.406-.234.719-.625l.656.516q-.797 1.234-2.39 1.234zm-.14-5.687q-.657 0-1.11.484-.437.469-.531 1.328h3.172v-.078q-.047-.828-.453-1.281-.39-.453-1.078-.453zm4.53-.781l.032.703q.688-.813 1.875-.813 1.328 0 1.813 1.016.312-.453.812-.735.516-.28 1.203-.28 2.094 0 2.125 2.202v4.25h-1.078v-4.187q0-.672-.312-1-.313-.344-1.047-.344-.61 0-1.016.36-.39.359-.453.968v4.203h-1.078v-4.156q0-1.375-1.36-1.375-1.062 0-1.453.906v4.625h-1.093v-6.343h1.03zm15.329 3.25q0 1.437-.656 2.328-.656.89-1.797.89-1.156 0-1.813-.734v3.047h-1.078v-8.781h.985l.047.703q.671-.813 1.843-.813 1.14 0 1.797.86.672.859.672 2.39v.11zm-1.078-.125q0-1.079-.469-1.688-.453-.625-1.25-.625-.984 0-1.469.86v3.03q.485.876 1.485.876.781 0 1.234-.61.469-.625.469-1.843zm3.906 3.218h-1.078v-9h1.078v9zm5.735 0q-.094-.187-.157-.672-.75.797-1.797.797-.937 0-1.546-.53-.594-.532-.594-1.36 0-.985.75-1.532.75-.546 2.125-.546h1.047v-.5q0-.563-.344-.891-.328-.344-1-.344-.578 0-.969.297-.39.281-.39.703h-1.094q0-.484.328-.922.344-.437.922-.687.578-.266 1.265-.266 1.11 0 1.72.547.624.547.655 1.5v2.922q0 .875.22 1.39v.094h-1.141zm-1.797-.828q.515 0 .968-.265.454-.266.657-.688v-1.297h-.844q-2 0-2 1.172 0 .5.344.797.343.281.875.281zm6.359-7.047v1.532h1.172v.843h-1.172v3.922q0 .39.156.578.157.188.532.188.187 0 .515-.063v.875q-.422.125-.828.125-.719 0-1.094-.437-.375-.453-.375-1.266v-3.922h-1.156v-.843h1.156v-1.532h1.094zm5.156 8q-1.297 0-2.11-.843-.796-.86-.796-2.282v-.187q0-.953.36-1.688.359-.75 1-1.156.656-.422 1.406-.422 1.234 0 1.922.813.687.812.687 2.328v.453h-4.297q.031.937.547 1.516.531.578 1.344.578.562 0 .953-.235.406-.234.719-.625l.656.516q-.797 1.234-2.39 1.234zm-.14-5.687q-.657 0-1.11.484-.437.469-.531 1.328h3.172v-.078q-.047-.828-.453-1.281-.39-.453-1.078-.453zm6.187 1.765q-1.437-.421-2.11-1.03-.655-.61-.655-1.5 0-1 .796-1.657.813-.672 2.11-.672.875 0 1.562.344.688.344 1.063.937.39.594.39 1.313h-1.14q0-.781-.5-1.219-.485-.437-1.375-.437-.828 0-1.297.375-.469.359-.469 1 0 .53.438.89.453.36 1.515.656 1.063.297 1.657.657.609.36.89.843.297.485.297 1.125 0 1.047-.813 1.672-.812.625-2.156.625-.89 0-1.656-.343-.75-.344-1.172-.922-.406-.594-.406-1.328h1.125q0 .765.578 1.218.578.453 1.531.453.89 0 1.36-.359.468-.375.468-1t-.437-.969q-.438-.343-1.594-.672zm5.797-4.078v1.532h1.172v.843h-1.172v3.922q0 .39.156.578.157.188.532.188.187 0 .515-.063v.875q-.422.125-.828.125-.719 0-1.094-.437-.375-.453-.375-1.266v-3.922h-1.156v-.843h1.156v-1.532h1.094zm5.594 2.5q-.25-.03-.531-.03-1.079 0-1.454.905v4.5h-1.078v-6.343h1.047l.016.734q.531-.844 1.515-.844.313 0 .485.078v1zm2.11 5.375h-1.079v-6.343h1.078v6.343zm-1.173-8.015q0-.266.157-.453.171-.188.484-.188.312 0 .469.188.172.187.172.453 0 .25-.172.437-.157.172-.47.172-.312 0-.483-.172-.157-.187-.157-.437zm4.016 1.672l.031.796q.735-.906 1.906-.906 2.016 0 2.032 2.266v4.187h-1.094v-4.203q0-.672-.313-1-.296-.328-.953-.328-.531 0-.937.281-.39.282-.61.735v4.515h-1.078v-6.343h1.016zm5.719 3.125q0-1.485.687-2.36.688-.875 1.813-.875 1.156 0 1.812.813l.047-.703h1v6.187q0 1.234-.734 1.938-.735.718-1.953.718-.688 0-1.344-.297-.656-.296-1-.796l.562-.657q.688.86 1.703.86.782 0 1.22-.453.452-.438.452-1.25v-.547q-.656.765-1.781.765-1.11 0-1.797-.89-.687-.907-.687-2.453zm1.093.125q0 1.062.438 1.687.437.61 1.234.61 1.016 0 1.5-.938v-2.89q-.5-.907-1.5-.907-.781 0-1.234.61-.438.609-.438 1.828zm12.235-4.516h-2.75v7.61h-1.11v-7.61h-2.75v-.922h6.61v.922zm4.844 7.61q-.094-.188-.157-.673-.75.797-1.797.797-.937 0-1.546-.53-.594-.532-.594-1.36 0-.985.75-1.532.75-.546 2.125-.546h1.047v-.5q0-.563-.344-.891-.328-.344-1-.344-.578 0-.969.297-.39.281-.39.703h-1.094q0-.484.328-.922.344-.437.922-.687.578-.266 1.265-.266 1.11 0 1.72.547.624.547.655 1.5v2.922q0 .875.22 1.39v.094h-1.141zm-1.797-.829q.515 0 .968-.265.454-.266.657-.688v-1.297h-.844q-2 0-2 1.172 0 .5.344.797.343.281.875.281zm4.625-2.39q0-1.485.687-2.36.688-.875 1.813-.875 1.156 0 1.812.813l.047-.703h1v6.187q0 1.234-.734 1.938-.735.718-1.953.718-.688 0-1.344-.297-.656-.296-1-.796l.562-.657q.688.86 1.703.86.782 0 1.22-.453.452-.438.452-1.25v-.547q-.656.765-1.781.765-1.11 0-1.797-.89-.687-.907-.687-2.453zm1.093.125q0 1.062.438 1.687.437.61 1.234.61 1.016 0 1.5-.938v-2.89q-.5-.907-1.5-.907-.781 0-1.234.61-.438.609-.438 1.828zm6.329 3.093v-8.53h2.796q1.391 0 2.079.577.703.563.703 1.688 0 .61-.344 1.078-.328.453-.922.703.703.187 1.094.734.406.532.406 1.282 0 1.156-.75 1.812-.734.656-2.094.656h-2.968zm1.125-3.984v3.062h1.859q.797 0 1.25-.406.453-.406.453-1.125 0-1.531-1.688-1.531h-1.875zm0-.906h1.703q.734 0 1.172-.36.453-.375.453-1.015 0-.703-.407-1.016-.406-.328-1.25-.328h-1.671v2.719zm9.625 4.89q-.094-.187-.157-.672-.75.797-1.797.797-.937 0-1.546-.53-.594-.532-.594-1.36 0-.985.75-1.532.75-.546 2.125-.546h1.047v-.5q0-.563-.344-.891-.328-.344-1-.344-.578 0-.969.297-.39.281-.39.703h-1.094q0-.484.328-.922.344-.437.922-.687.578-.266 1.265-.266 1.11 0 1.72.547.624.547.655 1.5v2.922q0 .875.22 1.39v.094h-1.141zm-1.797-.828q.515 0 .968-.265.454-.266.657-.688v-1.297h-.844q-2 0-2 1.172 0 .5.344.797.343.281.875.281zm10.25-2.265q0 1.453-.672 2.343-.656.875-1.781.875-1.204 0-1.86-.859l-.062.734h-.985v-9h1.078v3.36q.657-.813 1.813-.813t1.812.875q.657.86.657 2.39v.095zm-1.078-.125q0-1.11-.438-1.704-.422-.609-1.219-.609-1.078 0-1.547.984v2.75q.5 1 1.547 1 .782 0 1.219-.609.438-.61.438-1.812zm5.343 3.343q-1.297 0-2.11-.843-.796-.86-.796-2.282v-.187q0-.953.36-1.688.359-.75 1-1.156.656-.422 1.406-.422 1.234 0 1.922.813.687.812.687 2.328v.453h-4.297q.031.937.547 1.516.531.578 1.344.578.562 0 .953-.235.406-.234.719-.625l.656.516q-.797 1.234-2.39 1.234zm-.14-5.687q-.657 0-1.11.484-.437.469-.531 1.328h3.172v-.078q-.047-.828-.453-1.281-.39-.453-1.078-.453zm4.687 5.562h-1.078v-9h1.078v9z"/><path fill="#0b5394" d="M217.5 405.5a1 1 0 0 1 1-1h10a1 1 0 0 1 1 1v10a1 1 0 0 1-1 1h-10a1 1 0 0 1-1-1z"/><path fill="#757575" d="M244.766 412.297q-.157 1.344-1 2.094-.844.734-2.235.734-1.515 0-2.422-1.078-.906-1.094-.906-2.922v-.813q0-1.187.422-2.093.422-.906 1.203-1.39.781-.485 1.797-.485 1.36 0 2.172.765.828.766.969 2.094h-1.125q-.157-1.015-.641-1.469-.484-.453-1.375-.453-1.078 0-1.688.797-.609.797-.609 2.266v.828q0 1.39.578 2.219.578.812 1.625.812.938 0 1.438-.422.5-.437.672-1.484h1.125zm2.64-2.875q.719-.875 1.875-.875 2.016 0 2.031 2.265V415h-1.093v-4.203q0-.672-.313-1-.297-.328-.953-.328-.531 0-.937.281-.391.281-.61.734V415h-1.078v-9h1.078v3.422zm8.985.203q-.25-.031-.532-.031-1.078 0-1.453.906v4.5h-1.078v-6.344h1.047l.016.735q.53-.844 1.515-.844.313 0 .485.078v1zm.64 2.14q0-.921.36-1.671.375-.75 1.03-1.14.657-.407 1.485-.407 1.297 0 2.094.89.813.891.813 2.391v.078q0 .922-.36 1.656-.36.735-1.015 1.157-.657.406-1.516.406-1.281 0-2.094-.89-.797-.907-.797-2.391v-.078zm1.094.141q0 1.047.484 1.688.5.64 1.313.64.828 0 1.312-.64.485-.656.485-1.828 0-1.032-.5-1.672-.485-.656-1.313-.656-.797 0-1.297.64-.484.625-.484 1.828zm7.219-3.25l.031.703q.688-.812 1.875-.812 1.328 0 1.813 1.015.312-.453.812-.734.516-.281 1.203-.281 2.094 0 2.125 2.203V415h-1.078v-4.188q0-.671-.313-1-.312-.343-1.046-.343-.61 0-1.016.36-.39.358-.453.968V415h-1.078v-4.156q0-1.375-1.36-1.375-1.062 0-1.453.906V415h-1.094v-6.344h1.032zm12.61 6.469q-1.298 0-2.11-.844-.797-.86-.797-2.281v-.188q0-.953.36-1.687.359-.75 1-1.156.656-.422 1.406-.422 1.234 0 1.921.812.688.813.688 2.329v.453h-4.297q.031.937.547 1.515.531.578 1.344.578.562 0 .953-.234.406-.234.719-.625l.656.516q-.797 1.234-2.39 1.234zm-.142-5.688q-.656 0-1.109.485-.437.469-.531 1.328h3.172v-.078q-.047-.828-.453-1.281-.391-.454-1.079-.454zm6.891 1.282l.438-4.25h4.375v1h-3.454l-.265 2.328q.64-.375 1.437-.375 1.157 0 1.844.781.688.766.688 2.078 0 1.313-.72 2.078-.702.766-1.983.766-1.125 0-1.844-.625-.719-.64-.813-1.75h1.016q.11.734.531 1.11.422.374 1.11.374.75 0 1.187-.515.438-.516.438-1.422 0-.86-.47-1.375-.468-.516-1.25-.516-.702 0-1.109.297l-.28.235-.876-.22zm11.688-2.031q0 .64-.344 1.14-.344.5-.906.781.656.282 1.046.844.391.547.391 1.25 0 1.094-.75 1.766-.734.656-1.953.656-1.234 0-1.984-.656-.735-.672-.735-1.766 0-.703.375-1.25.375-.562 1.047-.844-.562-.28-.89-.78-.329-.5-.329-1.142 0-1.078.688-1.703.687-.64 1.828-.64 1.125 0 1.813.64.703.625.703 1.704zm-.891 3.984q0-.719-.453-1.156-.453-.454-1.188-.454-.734 0-1.187.454-.438.437-.438 1.171 0 .72.438 1.141.437.406 1.203.406.75 0 1.188-.421.437-.422.437-1.141zm-1.625-5.438q-.64 0-1.047.407-.39.39-.39 1.078 0 .64.39 1.047.39.406 1.031.406.657 0 1.047-.406.39-.407.39-1.047 0-.656-.405-1.063-.407-.422-1.016-.422z"/><path fill="#073763" d="M313.5 405.5a1 1 0 0 1 1-1h10a1 1 0 0 1 1 1v10a1 1 0 0 1-1 1h-10a1 1 0 0 1-1-1z"/><path fill="#757575" d="M340.766 412.297q-.157 1.344-1 2.094-.844.734-2.235.734-1.515 0-2.422-1.078-.906-1.094-.906-2.922v-.813q0-1.187.422-2.093.422-.906 1.203-1.39.781-.485 1.797-.485 1.36 0 2.172.765.828.766.969 2.094h-1.125q-.157-1.015-.641-1.469-.484-.453-1.375-.453-1.078 0-1.688.797-.609.797-.609 2.266v.828q0 1.39.578 2.219.578.812 1.625.812.938 0 1.438-.422.5-.437.672-1.484h1.125zm2.64-2.875q.719-.875 1.875-.875 2.016 0 2.031 2.265V415h-1.093v-4.203q0-.672-.313-1-.297-.328-.953-.328-.531 0-.937.281-.391.281-.61.734V415h-1.078v-9h1.078v3.422zm8.985.203q-.25-.031-.532-.031-1.078 0-1.453.906v4.5h-1.078v-6.344h1.047l.016.735q.53-.844 1.515-.844.313 0 .485.078v1zm.64 2.14q0-.921.36-1.671.375-.75 1.03-1.14.657-.407 1.485-.407 1.297 0 2.094.89.813.891.813 2.391v.078q0 .922-.36 1.656-.36.735-1.015 1.157-.657.406-1.516.406-1.281 0-2.094-.89-.797-.907-.797-2.391v-.078zm1.094.141q0 1.047.484 1.688.5.64 1.313.64.828 0 1.312-.64.485-.656.485-1.828 0-1.032-.5-1.672-.485-.656-1.313-.656-.797 0-1.297.64-.484.625-.484 1.828zm7.219-3.25l.031.703q.688-.812 1.875-.812 1.328 0 1.813 1.015.312-.453.812-.734.516-.281 1.203-.281 2.094 0 2.125 2.203V415h-1.078v-4.188q0-.671-.313-1-.312-.343-1.046-.343-.61 0-1.016.36-.39.358-.453.968V415h-1.078v-4.156q0-1.375-1.36-1.375-1.062 0-1.453.906V415h-1.094v-6.344h1.032zm12.61 6.469q-1.298 0-2.11-.844-.797-.86-.797-2.281v-.188q0-.953.36-1.687.359-.75 1-1.156.656-.422 1.406-.422 1.234 0 1.921.812.688.813.688 2.329v.453h-4.297q.031.937.547 1.515.531.578 1.344.578.562 0 .953-.234.406-.234.719-.625l.656.516q-.797 1.234-2.39 1.234zm-.142-5.688q-.656 0-1.109.485-.437.469-.531 1.328h3.172v-.078q-.047-.828-.453-1.281-.391-.454-1.079-.454zm10.657-2.968v.906h-.203q-1.266.031-2.016.766-.75.718-.875 2.03.688-.765 1.844-.765 1.11 0 1.781.781.672.782.672 2.032 0 1.312-.719 2.11-.719.796-1.937.796-1.22 0-1.985-.938-.75-.953-.75-2.437v-.406q0-2.36 1-3.61t2.985-1.265h.203zm-1.422 3.844q-.563 0-1.031.328-.47.328-.657.843v.391q0 1.063.47 1.703.483.64 1.187.64.734 0 1.156-.53.422-.547.422-1.422 0-.875-.422-1.407-.422-.546-1.125-.546zm7.719 4.687h-1.079v-7.219l-2.187.797v-.984l3.11-1.172h.156V415z"/><path fill="#e69138" d="M409.5 405.5a1 1 0 0 1 1-1h10a1 1 0 0 1 1 1v10a1 1 0 0 1-1 1h-10a1 1 0 0 1-1-1z"/><path fill="#757575" d="M436.766 412.297q-.157 1.344-1 2.094-.844.734-2.235.734-1.515 0-2.422-1.078-.906-1.094-.906-2.922v-.813q0-1.187.422-2.093.422-.906 1.203-1.39.781-.485 1.797-.485 1.36 0 2.172.765.828.766.969 2.094h-1.125q-.157-1.015-.641-1.469-.484-.453-1.375-.453-1.078 0-1.688.797-.609.797-.609 2.266v.828q0 1.39.578 2.219.578.812 1.625.812.938 0 1.438-.422.5-.437.672-1.484h1.125zm2.64-2.875q.719-.875 1.875-.875 2.016 0 2.031 2.265V415h-1.093v-4.203q0-.672-.313-1-.297-.328-.953-.328-.531 0-.937.281-.391.281-.61.734V415h-1.078v-9h1.078v3.422zm8.985.203q-.25-.031-.532-.031-1.078 0-1.453.906v4.5h-1.078v-6.344h1.047l.016.735q.53-.844 1.515-.844.313 0 .485.078v1zm.64 2.14q0-.921.36-1.671.375-.75 1.03-1.14.657-.407 1.485-.407 1.297 0 2.094.89.813.891.813 2.391v.078q0 .922-.36 1.656-.36.735-1.015 1.157-.657.406-1.516.406-1.281 0-2.094-.89-.797-.907-.797-2.391v-.078zm1.094.141q0 1.047.484 1.688.5.64 1.313.64.828 0 1.312-.64.485-.656.485-1.828 0-1.032-.5-1.672-.485-.656-1.313-.656-.797 0-1.297.64-.484.625-.484 1.828zm7.219-3.25l.031.703q.688-.812 1.875-.812 1.328 0 1.813 1.015.312-.453.812-.734.516-.281 1.203-.281 2.094 0 2.125 2.203V415h-1.078v-4.188q0-.671-.313-1-.312-.343-1.046-.343-.61 0-1.016.36-.39.358-.453.968V415h-1.078v-4.156q0-1.375-1.36-1.375-1.062 0-1.453.906V415h-1.094v-6.344h1.032zm12.61 6.469q-1.298 0-2.11-.844-.797-.86-.797-2.281v-.188q0-.953.36-1.687.359-.75 1-1.156.656-.422 1.406-.422 1.234 0 1.921.812.688.813.688 2.329v.453h-4.297q.031.937.547 1.515.531.578 1.344.578.562 0 .953-.234.406-.234.719-.625l.656.516q-.797 1.234-2.39 1.234zm-.142-5.688q-.656 0-1.109.485-.437.469-.531 1.328h3.172v-.078q-.047-.828-.453-1.281-.391-.454-1.079-.454zm10.657-2.968v.906h-.203q-1.266.031-2.016.766-.75.718-.875 2.03.688-.765 1.844-.765 1.11 0 1.781.781.672.782.672 2.032 0 1.312-.719 2.11-.719.796-1.937.796-1.22 0-1.985-.938-.75-.953-.75-2.437v-.406q0-2.36 1-3.61t2.985-1.265h.203zm-1.422 3.844q-.563 0-1.031.328-.47.328-.657.843v.391q0 1.063.47 1.703.483.64 1.187.64.734 0 1.156-.53.422-.547.422-1.422 0-.875-.422-1.407-.422-.546-1.125-.546zm5.734-.11h.813q.781-.015 1.219-.406.437-.39.437-1.063 0-1.5-1.5-1.5-.703 0-1.125.407-.406.406-.406 1.062h-1.094q0-1.015.734-1.687.75-.672 1.891-.672 1.203 0 1.89.64.688.641.688 1.782 0 .562-.36 1.078-.359.515-.984.781.704.219 1.079.734.39.516.39 1.266 0 1.14-.75 1.828-.75.672-1.953.672-1.188 0-1.953-.656-.75-.656-.75-1.719h1.094q0 .672.437 1.078.438.406 1.188.406.78 0 1.187-.406.422-.422.422-1.187 0-.735-.453-1.125-.453-.407-1.328-.422h-.813v-.89z"/></svg>