<svg aria-hidden="true" style="position:absolute;width:0;height:0" xmlns="http://www.w3.org/2000/svg" overflow="hidden"><defs><symbol id="icon-archive" viewBox="0 0 28 28"><path d="M17 13c0-.547-.453-1-1-1h-4c-.547 0-1 .453-1 1s.453 1 1 1h4c.547 0 1-.453 1-1zm9-3v15c0 .547-.453 1-1 1H3c-.547 0-1-.453-1-1V10c0-.547.453-1 1-1h22c.547 0 1 .453 1 1zm1-7v4c0 .547-.453 1-1 1H2c-.547 0-1-.453-1-1V3c0-.547.453-1 1-1h24c.547 0 1 .453 1 1z"/></symbol><symbol id="icon-publications" viewBox="0 0 26 28"><path d="M25.609 7.469c.391.562.5 1.297.281 2.016l-4.297 14.156C21.202 24.969 19.827 26 18.484 26H4.062C2.468 26 .765 24.734.187 23.109c-.25-.703-.25-1.391-.031-1.984.031-.313.094-.625.109-1 .016-.25-.125-.453-.094-.641.063-.375.391-.641.641-1.062.469-.781 1-2.047 1.172-2.859.078-.297-.078-.641 0-.906.078-.297.375-.516.531-.797.422-.719.969-2.109 1.047-2.844.031-.328-.125-.688-.031-.938.109-.359.453-.516.688-.828.375-.516 1-2 1.094-2.828.031-.266-.125-.531-.078-.812.063-.297.438-.609.688-.969.656-.969.781-3.109 2.766-2.547l-.016.047C8.939 2.078 9.204 2 9.47 2h11.891c.734 0 1.391.328 1.781.875.406.562.5 1.297.281 2.031l-4.281 14.156C18.408 21.468 18.001 22 16.017 22H2.439c-.203 0-.453.047-.594.234-.125.187-.141.328-.016.672C2.142 23.812 3.22 24 4.079 24h14.422c.578 0 1.25-.328 1.422-.891l4.688-15.422c.094-.297.094-.609.078-.891.359.141.688.359.922.672zM8.984 7.5c-.094.281.063.5.344.5h9.5c.266 0 .562-.219.656-.5l.328-1c.094-.281-.063-.5-.344-.5h-9.5c-.266 0-.562.219-.656.5zm-1.296 4c-.094.281.063.5.344.5h9.5c.266 0 .562-.219.656-.5l.328-1c.094-.281-.063-.5-.344-.5h-9.5c-.266 0-.562.219-.656.5z"/></symbol><symbol id="icon-calendar" viewBox="0 0 26 28"><path d="M2 26h4.5v-4.5H2V26zm5.5 0h5v-4.5h-5V26zM2 20.5h4.5v-5H2v5zm5.5 0h5v-5h-5v5zm-5.5-6h4.5V10H2v4.5zM13.5 26h5v-4.5h-5V26zm-6-11.5h5V10h-5v4.5zm12 11.5H24v-4.5h-4.5V26zm-6-5.5h5v-5h-5v5zM8 7V2.5c0-.266-.234-.5-.5-.5h-1c-.266 0-.5.234-.5.5V7c0 .266.234.5.5.5h1c.266 0 .5-.234.5-.5zm11.5 13.5H24v-5h-4.5v5zm-6-6h5V10h-5v4.5zm6 0H24V10h-4.5v4.5zM20 7V2.5c0-.266-.234-.5-.5-.5h-1c-.266 0-.5.234-.5.5V7c0 .266.234.5.5.5h1c.266 0 .5-.234.5-.5zm6-1v20c0 1.094-.906 2-2 2H2c-1.094 0-2-.906-2-2V6c0-1.094.906-2 2-2h2V2.5C4 1.125 5.125 0 6.5 0h1C8.875 0 10 1.125 10 2.5V4h6V2.5C16 1.125 17.125 0 18.5 0h1C20.875 0 22 1.125 22 2.5V4h2c1.094 0 2 .906 2 2z"/></symbol><symbol id="icon-projects" viewBox="0 0 16 28"><path d="M4.5 23a1.5 1.5 0 1 0-3.001.001A1.5 1.5 0 0 0 4.5 23zm0-18a1.5 1.5 0 1 0-3.001.001A1.5 1.5 0 0 0 4.5 5zm10 2a1.5 1.5 0 1 0-3.001.001A1.5 1.5 0 0 0 14.5 7zM16 7a3.002 3.002 0 0 1-1.5 2.594c-.047 5.641-4.047 6.891-6.703 7.734C5.313 18.109 4.5 18.484 4.5 20v.406A3 3 0 0 1 6 23a3.001 3.001 0 0 1-6 0c0-1.109.609-2.078 1.5-2.594V7.594A3 3 0 0 1 0 5a3.001 3.001 0 0 1 6 0 3.002 3.002 0 0 1-1.5 2.594v7.766c.797-.391 1.641-.656 2.406-.891 2.906-.922 4.562-1.609 4.594-4.875A3 3 0 0 1 10 7a3.001 3.001 0 0 1 6 0z"/></symbol><symbol id="icon-facebook-square" viewBox="0 0 24 28"><path d="M19.5 2C21.984 2 24 4.016 24 6.5v15c0 2.484-2.016 4.5-4.5 4.5h-2.938v-9.297h3.109l.469-3.625h-3.578v-2.312c0-1.047.281-1.75 1.797-1.75L20.265 9V5.766c-.328-.047-1.469-.141-2.781-.141-2.766 0-4.672 1.687-4.672 4.781v2.672H9.687v3.625h3.125V26H4.499a4.502 4.502 0 0 1-4.5-4.5v-15c0-2.484 2.016-4.5 4.5-4.5h15z"/></symbol><symbol id="icon-feed" viewBox="0 0 22 28"><path d="M6 21a3.001 3.001 0 0 1-6 0 3.001 3.001 0 0 1 6 0zm8 1.922c.016.281-.078.547-.266.75A.949.949 0 0 1 13 24h-2.109a.986.986 0 0 1-.984-.906 9.997 9.997 0 0 0-9-9 .987.987 0 0 1-.906-.984v-2.109c0-.281.109-.547.328-.734a.958.958 0 0 1 .672-.266h.078a14.035 14.035 0 0 1 8.828 4.094 14.035 14.035 0 0 1 4.094 8.828zm8 .031a.95.95 0 0 1-.281.734A.958.958 0 0 1 21 24h-2.234a.995.995 0 0 1-1-.938C17.25 13.984 10.016 6.75.938 6.218A.992.992 0 0 1 0 5.234V3c0-.281.109-.531.313-.719A.972.972 0 0 1 1.001 2h.047a21.995 21.995 0 0 1 14.484 6.469 21.997 21.997 0 0 1 6.469 14.484z"/></symbol><symbol id="icon-github" viewBox="0 0 24 28"><path d="M12 2c6.625 0 12 5.375 12 12 0 5.297-3.437 9.797-8.203 11.391-.609.109-.828-.266-.828-.578 0-.391.016-1.687.016-3.297 0-1.125-.375-1.844-.812-2.219 2.672-.297 5.484-1.313 5.484-5.922 0-1.313-.469-2.375-1.234-3.219.125-.313.531-1.531-.125-3.187-1-.313-3.297 1.234-3.297 1.234a11.28 11.28 0 0 0-6 0S6.704 6.656 5.704 6.969c-.656 1.656-.25 2.875-.125 3.187-.766.844-1.234 1.906-1.234 3.219 0 4.594 2.797 5.625 5.469 5.922-.344.313-.656.844-.766 1.609-.688.313-2.438.844-3.484-1-.656-1.141-1.844-1.234-1.844-1.234-1.172-.016-.078.734-.078.734.781.359 1.328 1.75 1.328 1.75.703 2.141 4.047 1.422 4.047 1.422 0 1 .016 1.937.016 2.234 0 .313-.219.688-.828.578C3.439 23.796.002 19.296.002 13.999c0-6.625 5.375-12 12-12zM4.547 19.234c.031-.063-.016-.141-.109-.187-.094-.031-.172-.016-.203.031-.031.063.016.141.109.187.078.047.172.031.203-.031zm.484.532c.063-.047.047-.156-.031-.25-.078-.078-.187-.109-.25-.047-.063.047-.047.156.031.25.078.078.187.109.25.047zm.469.703c.078-.063.078-.187 0-.297-.063-.109-.187-.156-.266-.094-.078.047-.078.172 0 .281s.203.156.266.109zm.656.656c.063-.063.031-.203-.063-.297-.109-.109-.25-.125-.313-.047-.078.063-.047.203.063.297.109.109.25.125.313.047zm.891.391c.031-.094-.063-.203-.203-.25-.125-.031-.266.016-.297.109s.063.203.203.234c.125.047.266 0 .297-.094zm.984.078c0-.109-.125-.187-.266-.172-.141 0-.25.078-.25.172 0 .109.109.187.266.172.141 0 .25-.078.25-.172zm.906-.156c-.016-.094-.141-.156-.281-.141-.141.031-.234.125-.219.234.016.094.141.156.281.125s.234-.125.219-.219z"/></symbol><symbol id="icon-github-square" viewBox="0 0 24 28"><path d="M8.109 18.75c.031-.047.016-.141-.047-.203-.078-.063-.172-.078-.219-.031-.031.047-.016.141.047.203.078.063.172.078.219.031zm-.437-.641c-.047-.063-.125-.094-.187-.063-.047.031-.047.125 0 .187.063.078.141.109.187.078.047-.031.047-.125 0-.203zm-.641-.625c.016-.031-.016-.094-.078-.125-.047-.016-.109-.016-.125.031-.031.047 0 .094.063.125.063.016.125.016.141-.031zm.328.36c.031-.031.031-.109-.031-.156-.047-.063-.125-.078-.156-.047-.047.047-.031.109.016.172.047.047.125.078.172.031zm1.344 1.172c.016-.063-.047-.141-.141-.172s-.172 0-.203.063c-.016.063.047.141.141.172s.172 0 .203-.063zm.656.047c0-.063-.078-.125-.187-.125-.094 0-.156.063-.156.125s.078.125.172.125.172-.063.172-.125zm.61-.11c-.016-.063-.109-.094-.203-.078s-.156.078-.141.141.094.109.187.094.156-.094.156-.156zM20 14c0-4.422-3.578-8-8-8s-8 3.578-8 8c0 3.531 2.297 6.531 5.469 7.594.406.078.547-.172.547-.391 0-.187 0-.812-.016-1.484 0 0-2.219.484-2.688-.953 0 0-.359-.922-.891-1.156 0 0-.719-.5.063-.5 0 0 .781.063 1.219.828.703 1.234 1.875.875 2.328.672.078-.516.281-.875.516-1.078-1.781-.203-3.656-.891-3.656-3.953 0-.875.313-1.578.828-2.141-.078-.203-.359-1.016.078-2.125.672-.203 2.203.828 2.203.828.641-.187 1.313-.266 2-.266s1.359.078 2 .266c0 0 1.531-1.031 2.203-.828.438 1.109.156 1.922.078 2.125.516.562.828 1.266.828 2.141 0 3.078-1.875 3.75-3.656 3.953.281.25.547.734.547 1.484 0 1.062-.016 1.922-.016 2.188 0 .219.141.469.547.391C17.703 20.533 20 17.533 20 14.001zm4-7.5v15c0 2.484-2.016 4.5-4.5 4.5h-15A4.502 4.502 0 0 1 0 21.5v-15C0 4.016 2.016 2 4.5 2h15C21.984 2 24 4.016 24 6.5z"/></symbol><symbol id="icon-home" viewBox="0 0 26 28"><path d="M22 15.5V23c0 .547-.453 1-1 1h-6v-6h-4v6H5c-.547 0-1-.453-1-1v-7.5c0-.031.016-.063.016-.094L13 8l8.984 7.406c.016.031.016.063.016.094zm3.484-1.078l-.969 1.156a.52.52 0 0 1-.328.172h-.047a.49.49 0 0 1-.328-.109L12.999 6.625 2.186 15.641a.531.531 0 0 1-.375.109.52.52 0 0 1-.328-.172l-.969-1.156a.51.51 0 0 1 .063-.703L11.811 4.36c.656-.547 1.719-.547 2.375 0l3.813 3.187V4.5c0-.281.219-.5.5-.5h3c.281 0 .5.219.5.5v6.375l3.422 2.844c.203.172.234.5.063.703z"/></symbol><symbol id="icon-linkedin" viewBox="0 0 24 28"><path d="M5.453 9.766V25.25H.297V9.766h5.156zm.328-4.782c.016 1.484-1.109 2.672-2.906 2.672h-.031C1.11 7.656 0 6.468 0 4.984c0-1.516 1.156-2.672 2.906-2.672 1.766 0 2.859 1.156 2.875 2.672zM24 16.375v8.875h-5.141v-8.281c0-2.078-.75-3.5-2.609-3.5-1.422 0-2.266.953-2.641 1.875-.125.344-.172.797-.172 1.266v8.641H8.296c.063-14.031 0-15.484 0-15.484h5.141v2.25h-.031c.672-1.062 1.891-2.609 4.672-2.609 3.391 0 5.922 2.219 5.922 6.969z"/></symbol><symbol id="icon-linkedin-square" viewBox="0 0 24 28"><path d="M3.703 22.094h3.609V11.25H3.703v10.844zM7.547 7.906c-.016-1.062-.781-1.875-2.016-1.875s-2.047.812-2.047 1.875c0 1.031.781 1.875 2 1.875H5.5c1.266 0 2.047-.844 2.047-1.875zm9.141 14.188h3.609v-6.219c0-3.328-1.781-4.875-4.156-4.875-1.937 0-2.797 1.078-3.266 1.828h.031V11.25H9.297s.047 1.016 0 10.844h3.609v-6.062c0-.313.016-.641.109-.875.266-.641.859-1.313 1.859-1.313 1.297 0 1.813.984 1.813 2.453v5.797zM24 6.5v15c0 2.484-2.016 4.5-4.5 4.5h-15A4.502 4.502 0 0 1 0 21.5v-15C0 4.016 2.016 2 4.5 2h15C21.984 2 24 4.016 24 6.5z"/></symbol><symbol id="icon-tags" viewBox="0 0 30 28"><path d="M7 7c0-1.109-.891-2-2-2s-2 .891-2 2 .891 2 2 2 2-.891 2-2zm16.672 9c0 .531-.219 1.047-.578 1.406l-7.672 7.688c-.375.359-.891.578-1.422.578s-1.047-.219-1.406-.578L1.422 13.906C.625 13.125 0 11.609 0 10.5V4c0-1.094.906-2 2-2h6.5c1.109 0 2.625.625 3.422 1.422l11.172 11.156c.359.375.578.891.578 1.422zm6 0c0 .531-.219 1.047-.578 1.406l-7.672 7.688a2.08 2.08 0 0 1-1.422.578c-.812 0-1.219-.375-1.75-.922l7.344-7.344c.359-.359.578-.875.578-1.406s-.219-1.047-.578-1.422L14.422 3.422C13.625 2.625 12.11 2 11 2h3.5c1.109 0 2.625.625 3.422 1.422l11.172 11.156c.359.375.578.891.578 1.422z"/></symbol><symbol id="icon-twitter" viewBox="0 0 26 28"><path d="M25.312 6.375a10.85 10.85 0 0 1-2.531 2.609c.016.219.016.438.016.656 0 6.672-5.078 14.359-14.359 14.359-2.859 0-5.516-.828-7.75-2.266.406.047.797.063 1.219.063 2.359 0 4.531-.797 6.266-2.156a5.056 5.056 0 0 1-4.719-3.5c.313.047.625.078.953.078.453 0 .906-.063 1.328-.172a5.048 5.048 0 0 1-4.047-4.953v-.063a5.093 5.093 0 0 0 2.281.641 5.044 5.044 0 0 1-2.25-4.203c0-.938.25-1.797.688-2.547a14.344 14.344 0 0 0 10.406 5.281 5.708 5.708 0 0 1-.125-1.156 5.045 5.045 0 0 1 5.047-5.047 5.03 5.03 0 0 1 3.687 1.594 9.943 9.943 0 0 0 3.203-1.219 5.032 5.032 0 0 1-2.219 2.781c1.016-.109 2-.391 2.906-.781z"/></symbol><symbol id="icon-twitter-square" viewBox="0 0 24 28"><path d="M20 9.531a6.887 6.887 0 0 1-1.891.531 3.313 3.313 0 0 0 1.453-1.828 6.547 6.547 0 0 1-2.094.797A3.253 3.253 0 0 0 15.077 8a3.28 3.28 0 0 0-3.281 3.281c0 .25.016.516.078.75a9.324 9.324 0 0 1-6.781-3.437 3.33 3.33 0 0 0-.453 1.656c0 1.141.531 2.141 1.422 2.734-.547-.016-1.062-.172-1.563-.406v.031c0 1.594 1.203 2.922 2.703 3.219-.281.078-.5.125-.797.125-.203 0-.406-.031-.609-.063a3.3 3.3 0 0 0 3.063 2.281A6.607 6.607 0 0 1 4 19.53a9.351 9.351 0 0 0 5.031 1.469c6.031 0 9.344-5 9.344-9.344 0-.141 0-.281-.016-.422A6.31 6.31 0 0 0 20 9.53zM24 6.5v15c0 2.484-2.016 4.5-4.5 4.5h-15A4.502 4.502 0 0 1 0 21.5v-15C0 4.016 2.016 2 4.5 2h15C21.984 2 24 4.016 24 6.5z"/></symbol><symbol id="icon-about" viewBox="0 0 20 28"><path d="M20 21.859C20 24.14 18.5 26 16.672 26H3.328C1.5 26 0 24.141 0 21.859 0 17.75 1.016 13 5.109 13a6.979 6.979 0 0 0 9.782 0C18.985 13 20 17.75 20 21.859zM16 8c0 3.313-2.688 6-6 6s-6-2.688-6-6 2.688-6 6-6 6 2.688 6 6z"/></symbol></defs></svg>