<svg viewBox="0 0 1165.373 924.698" fill="none" stroke-linecap="square" stroke-miterlimit="10" xmlns="http://www.w3.org/2000/svg"><clipPath id="a"><path d="M0 0h1165.373v924.698H0V0z"/></clipPath><g clip-path="url(#a)"><path d="M0 0h1165.373v924.698H0z"/><path fill="#cfe2f3" d="M412.02 306.35h157.333a13.333 13.333 0 0 0 13.333-13.335V226.35l-.001-.001-183.999.001-.001.002.001 66.664c0 7.364 5.97 13.334 13.334 13.334z" fill-rule="evenodd"/><path fill="#cfe2f3" d="M398.686 242.515c0-6.167 5-11.166 11.166-11.166H571.52a11.166 11.166 0 0 1 11.165 11.166v44.66c0 6.167-4.999 11.166-11.165 11.166H409.85c-6.166 0-11.165-4.999-11.165-11.165z" fill-rule="evenodd"/><path fill="#073763" d="M429.253 258.885v-17.062h5.25q2.25 0 4.015 1.015 1.782 1.016 2.766 2.89 1 1.86 1 4.235v.782q0 2.39-.984 4.25-.97 1.843-2.75 2.859-1.782 1.016-4.016 1.031h-5.281zm3.515-14.219v11.391h1.688q2.062 0 3.156-1.344 1.094-1.343 1.11-3.86v-.905q0-2.594-1.079-3.938-1.078-1.344-3.14-1.344h-1.735zm19.207 14.22q-.234-.454-.343-1.141-1.235 1.375-3.203 1.375-1.86 0-3.094-1.079-1.219-1.078-1.219-2.718 0-2.016 1.484-3.094 1.5-1.078 4.329-1.094h1.562v-.719q0-.89-.453-1.406-.453-.531-1.422-.531-.86 0-1.344.406-.484.406-.484 1.125h-3.39q0-1.094.671-2.031.688-.938 1.922-1.469 1.25-.547 2.797-.547 2.344 0 3.719 1.188 1.375 1.172 1.375 3.312v5.485q.015 1.812.515 2.734v.203h-3.422zm-2.812-2.36q.75 0 1.375-.328.64-.344.953-.907v-2.171h-1.266q-2.546 0-2.703 1.75l-.015.203q0 .64.437 1.047.453.406 1.219.406zm12.383-13.438v3.11h2.172v2.484h-2.172v6.328q0 .703.265 1.016.266.297 1.032.297.562 0 1-.078v2.562q-1 .313-2.047.313-3.563 0-3.64-3.594v-6.844h-1.845v-2.484h1.844v-3.11h3.39zm11.406 15.797q-.234-.453-.344-1.14-1.234 1.375-3.203 1.375-1.86 0-3.094-1.079-1.218-1.078-1.218-2.718 0-2.016 1.484-3.094 1.5-1.078 4.328-1.094h1.563v-.719q0-.89-.454-1.406-.453-.531-1.421-.531-.86 0-1.344.406-.485.406-.485 1.125h-3.39q0-1.094.672-2.031.687-.938 1.922-1.469 1.25-.547 2.796-.547 2.344 0 3.72 1.188 1.374 1.172 1.374 3.312v5.485q.016 1.812.516 2.734v.203h-3.422zm-2.813-2.36q.75 0 1.375-.327.641-.344.954-.907v-2.171h-1.266q-2.547 0-2.703 1.75l-.016.203q0 .64.438 1.047.453.406 1.218.406zm14.915-3.577h-6.594v-2.735h6.594v2.735zm2.195-.5q0-2.97 1.328-4.72 1.328-1.765 3.64-1.765 1.844 0 3.047 1.39v-6.468h3.407v18h-3.063l-.156-1.344q-1.266 1.579-3.266 1.579-2.234 0-3.593-1.766-1.344-1.766-1.344-4.906zm3.375.25q0 1.78.625 2.734.625.938 1.812.938 1.563 0 2.203-1.313v-5.016q-.625-1.312-2.187-1.312-2.453 0-2.453 3.969zm17.789-3.313q-.688-.094-1.219-.094-1.922 0-2.515 1.297v8.297h-3.391v-12.687h3.203l.094 1.515q1.015-1.75 2.828-1.75.562 0 1.047.157l-.047 3.265zm5.207 9.5h-3.39v-12.687h3.39v12.687zm-3.594-15.969q0-.75.5-1.234.516-.5 1.39-.5.876 0 1.391.5.516.484.516 1.234 0 .782-.531 1.282-.516.484-1.375.484-.844 0-1.375-.484-.516-.5-.516-1.282zm11.13 11.829l2.358-8.547h3.532l-4.266 12.687h-3.234l-4.282-12.687h3.532l2.36 8.547zm13.222 4.375q-2.797 0-4.547-1.704-1.75-1.718-1.75-4.562v-.328q0-1.922.734-3.422.75-1.5 2.094-2.313 1.36-.828 3.094-.828 2.593 0 4.093 1.64 1.5 1.642 1.5 4.657v1.39h-8.078q.157 1.235.985 1.985t2.093.75q1.954 0 3.063-1.422l1.656 1.875q-.75 1.078-2.062 1.688-1.297.594-2.875.594zm-.39-10.407q-1 0-1.642.688-.625.672-.796 1.937h4.718v-.265q-.03-1.125-.625-1.735-.578-.625-1.656-.625zm10.644-2.515l.109 1.468q1.36-1.703 3.64-1.703 2.016 0 3 1.188.985 1.187 1 3.547v8.187h-3.374v-8.11q0-1.077-.47-1.562-.468-.484-1.562-.484-1.437 0-2.14 1.219v8.937h-3.39v-12.687h3.187zM424.78 287.885h-3.39v-12.687h3.39v12.687zm-3.594-15.969q0-.75.5-1.234.516-.5 1.391-.5t1.39.5q.516.484.516 1.234 0 .782-.531 1.282-.516.484-1.375.484-.844 0-1.375-.484-.516-.5-.516-1.282zm9.504 3.282l.11 1.468q1.359-1.703 3.64-1.703 2.016 0 3 1.188.985 1.187 1 3.547v8.187h-3.375v-8.11q0-1.077-.468-1.562-.47-.484-1.563-.484-1.437 0-2.14 1.219v8.937h-3.391v-12.687h3.187zm13.895 12.687h-3.39v-18h3.39v18zm6.363 0h-3.39v-12.687h3.39v12.687zm-3.594-15.969q0-.75.5-1.234.516-.5 1.39-.5.876 0 1.392.5.515.484.515 1.234 0 .782-.531 1.282-.516.484-1.375.484-.844 0-1.375-.484-.516-.5-.516-1.282zm9.504 3.282l.11 1.468q1.359-1.703 3.64-1.703 2.016 0 3 1.188.985 1.187 1 3.547v8.187h-3.375v-8.11q0-1.077-.469-1.562-.468-.484-1.562-.484-1.438 0-2.14 1.219v8.937h-3.391v-12.687h3.187zm16.16 12.922q-2.796 0-4.546-1.704-1.75-1.718-1.75-4.562v-.328q0-1.922.734-3.422.75-1.5 2.094-2.313 1.359-.828 3.093-.828 2.594 0 4.094 1.64 1.5 1.642 1.5 4.657v1.39h-8.078q.156 1.235.984 1.985.829.75 2.094.75 1.953 0 3.063-1.422l1.656 1.875q-.75 1.078-2.063 1.688-1.296.594-2.875.594zm-.39-10.407q-1 0-1.64.688-.626.672-.798 1.937h4.719v-.265q-.031-1.125-.625-1.735-.578-.625-1.656-.625zm18.777 7.672q.938 0 1.516-.515.593-.516.61-1.375h3.187q-.016 1.296-.72 2.375-.687 1.062-1.89 1.656-1.187.594-2.64.594-2.72 0-4.297-1.72-1.563-1.734-1.563-4.78v-.235q0-2.922 1.547-4.672 1.563-1.75 4.281-1.75 2.375 0 3.813 1.36 1.437 1.359 1.469 3.609h-3.188q-.016-.984-.61-1.594-.577-.625-1.546-.625-1.172 0-1.781.86-.61.859-.61 2.797v.343q0 1.969.594 2.828.61.844 1.828.844zm14.594 2.5q-.235-.453-.344-1.14-1.234 1.375-3.203 1.375-1.86 0-3.094-1.079-1.219-1.078-1.219-2.718 0-2.016 1.485-3.094 1.5-1.078 4.328-1.094h1.562v-.719q0-.89-.453-1.406-.453-.531-1.422-.531-.859 0-1.343.406-.485.406-.485 1.125h-3.39q0-1.094.672-2.031.687-.938 1.921-1.469 1.25-.547 2.797-.547 2.344 0 3.72 1.188 1.374 1.172 1.374 3.312v5.485q.016 1.812.516 2.734v.203h-3.422zm-2.813-2.36q.75 0 1.375-.327.641-.344.953-.907v-2.171h-1.265q-2.547 0-2.703 1.75l-.016.203q0 .64.438 1.047.453.406 1.218.406zm13.602-.14q.937 0 1.516-.515.593-.516.609-1.375h3.187q-.015 1.296-.718 2.375-.688 1.062-1.891 1.656-1.187.594-2.64.594-2.72 0-4.297-1.72-1.563-1.734-1.563-4.78v-.235q0-2.922 1.547-4.672 1.562-1.75 4.281-1.75 2.375 0 3.813 1.36 1.437 1.359 1.468 3.609h-3.187q-.016-.984-.61-1.594-.578-.625-1.546-.625-1.172 0-1.782.86-.609.859-.609 2.797v.343q0 1.969.594 2.828.61.844 1.828.844zm10.547-8.797q1.344-1.625 3.39-1.625 4.125 0 4.172 4.797v8.125h-3.375v-8.031q0-1.094-.468-1.61-.47-.515-1.563-.515-1.484 0-2.156 1.14v9.016h-3.39v-18h3.39v6.703zm15.96 11.532q-2.796 0-4.546-1.704-1.75-1.718-1.75-4.562v-.328q0-1.922.734-3.422.75-1.5 2.094-2.313 1.36-.828 3.094-.828 2.593 0 4.093 1.64 1.5 1.642 1.5 4.657v1.39h-8.078q.157 1.235.985 1.985t2.093.75q1.954 0 3.063-1.422l1.656 1.875q-.75 1.078-2.062 1.688-1.297.594-2.875.594zm-.39-10.407q-1 0-1.64.688-.626.672-.797 1.937h4.718v-.265q-.03-1.125-.625-1.735-.578-.625-1.656-.625zm14.395 6.672q0-.625-.625-.984-.61-.36-1.97-.64-4.515-.954-4.515-3.845 0-1.687 1.39-2.812 1.407-1.14 3.673-1.14 2.406 0 3.844 1.14 1.453 1.14 1.453 2.953h-3.375q0-.719-.47-1.187-.468-.485-1.468-.485-.86 0-1.328.39-.469.376-.469.985 0 .563.532.906.53.344 1.796.594t2.141.563q2.688.984 2.688 3.422 0 1.734-1.5 2.812-1.485 1.063-3.844 1.063-1.594 0-2.828-.563-1.235-.578-1.938-1.562-.703-1-.703-2.141h3.219q.047.906.656 1.39.625.47 1.672.47.969 0 1.469-.36.5-.375.5-.969z"/><path fill="#d0e0e3" d="M46.686 490.35h1056v424h-1056z" fill-rule="evenodd"/><path fill="#274e13" d="M78.64 774.39h-9.141v25.36h-3.735v-25.36H56.64v-3.078h22v3.078zm16.695 23.265q-2.11 2.485-6.188 2.485-3.375 0-5.156-1.953-1.766-1.97-1.781-5.829v-13.75h3.61v13.657q0 4.812 3.905 4.812 4.141 0 5.516-3.094v-15.375h3.61v21.141h-3.438l-.078-2.094zm19.222-15.797q-.828-.14-1.78-.14-3.548 0-4.829 3.031v15h-3.61v-21.14h3.516l.063 2.453q1.781-2.844 5.031-2.844 1.063 0 1.61.281v3.36zm21.207 7.563q0 4.844-2.234 7.781-2.219 2.938-5.969 2.938-4 0-6.187-2.828l-.172 2.437h-3.328v-30h3.61v11.188q2.187-2.72 6.03-2.72 3.86 0 6.047 2.923 2.203 2.906 2.203 7.968v.313zm-3.609-.422q0-3.687-1.437-5.687-1.422-2.016-4.094-2.016-3.578 0-5.14 3.312v9.141q1.671 3.328 5.187 3.328 2.593 0 4.031-2.015 1.453-2.016 1.453-6.063zm7.207-.016q0-3.109 1.219-5.578 1.219-2.484 3.39-3.828 2.188-1.36 4.985-1.36 4.312 0 6.969 3 2.672 2.985 2.672 7.938v.266q0 3.078-1.188 5.531-1.172 2.453-3.375 3.828-2.187 1.36-5.047 1.36-4.297 0-6.969-2.985-2.656-3-2.656-7.922v-.25zm3.625.438q0 3.516 1.625 5.64 1.64 2.126 4.375 2.126 2.75 0 4.375-2.157 1.625-2.156 1.625-6.047 0-3.468-1.656-5.625-1.64-2.171-4.375-2.171-2.688 0-4.328 2.14-1.64 2.125-1.64 6.094zm36.39-2.234H167.44v12.562h-3.75v-28.437h17.625v3.078H167.44v9.734h11.938v3.063zm18.907 12.562q-.312-.625-.5-2.234-2.531 2.625-6.016 2.625-3.125 0-5.14-1.766-2-1.766-2-4.484 0-3.297 2.515-5.125 2.516-1.828 7.063-1.828h3.516v-1.657q0-1.906-1.141-3.015-1.125-1.125-3.328-1.125-1.938 0-3.25.984-1.313.969-1.313 2.344h-3.625q0-1.578 1.125-3.047 1.125-1.484 3.047-2.344 1.922-.86 4.219-.86 3.656 0 5.719 1.829 2.078 1.828 2.156 5.031v9.735q0 2.906.75 4.625v.312h-3.797zm-6-2.75q1.703 0 3.219-.875 1.531-.89 2.219-2.297V789.5h-2.829q-6.64 0-6.64 3.875 0 1.703 1.125 2.672 1.14.953 2.906.953zm18.133-18.39l.11 2.656q2.421-3.047 6.327-3.047 6.703 0 6.766 7.562v13.97h-3.61v-13.985q-.03-2.282-1.062-3.375-1.016-1.094-3.187-1.094-1.75 0-3.079.937-1.328.938-2.078 2.454v15.062h-3.61v-21.14h3.423zm37.035 18.578q1.922 0 3.36-1.172 1.452-1.172 1.609-2.922h3.422q-.094 1.812-1.25 3.453-1.157 1.64-3.079 2.625-1.921.969-4.062.969-4.328 0-6.875-2.875-2.547-2.89-2.547-7.89v-.61q0-3.078 1.125-5.485 1.14-2.406 3.25-3.734 2.125-1.328 5.016-1.328 3.562 0 5.906 2.14 2.36 2.125 2.516 5.516h-3.422q-.157-2.047-1.547-3.36-1.39-1.327-3.453-1.327-2.75 0-4.266 1.984t-1.516 5.734v.688q0 3.656 1.5 5.625 1.516 1.969 4.313 1.969zm11.5-8.204q0-3.109 1.219-5.578 1.218-2.484 3.39-3.828 2.188-1.36 4.985-1.36 4.312 0 6.968 3 2.672 2.985 2.672 7.938v.266q0 3.078-1.187 5.531-1.172 2.453-3.375 3.828-2.188 1.36-5.047 1.36-4.297 0-6.969-2.985-2.656-3-2.656-7.922v-.25zm3.625.438q0 3.516 1.625 5.64 1.64 2.126 4.375 2.126 2.75 0 4.375-2.157 1.625-2.156 1.625-6.047 0-3.468-1.656-5.625-1.64-2.171-4.375-2.171-2.688 0-4.328 2.14-1.641 2.125-1.641 6.094zm19.266-.422q0-4.86 2.296-7.812 2.313-2.97 6.047-2.97 3.703 0 5.875 2.548v-11.016h3.61v30h-3.313l-.187-2.266q-2.157 2.657-6.032 2.657-3.671 0-5.984-3-2.312-3.016-2.312-7.86V789zm3.609.422q0 3.594 1.484 5.625 1.485 2.031 4.11 2.031 3.437 0 5.015-3.094v-9.703q-1.625-2.984-4.984-2.984-2.656 0-4.14 2.047-1.485 2.047-1.485 6.078zm28.59 10.719q-4.297 0-7-2.813-2.688-2.828-2.688-7.562v-.657q0-3.156 1.203-5.625 1.204-2.468 3.36-3.859 2.156-1.406 4.687-1.406 4.11 0 6.39 2.719 2.298 2.718 2.298 7.78v1.5h-14.313q.078 3.126 1.813 5.048 1.75 1.922 4.453 1.922 1.906 0 3.234-.782 1.328-.78 2.328-2.062l2.204 1.719q-2.657 4.078-7.97 4.078zm-.438-18.953q-2.187 0-3.672 1.593-1.484 1.594-1.843 4.47h10.593v-.282q-.156-2.75-1.484-4.266-1.328-1.515-3.594-1.515zM57.561 837q0-4.938 2.282-7.86 2.296-2.922 6.062-2.922 3.86 0 6.031 2.734l.172-2.344h3.313v20.625q0 4.11-2.438 6.47-2.437 2.374-6.531 2.374-2.281 0-4.469-.984-2.187-.969-3.344-2.672l1.875-2.172q2.329 2.875 5.688 2.875 2.625 0 4.094-1.484 1.484-1.485 1.484-4.188v-1.812q-2.172 2.5-5.922 2.5-3.703 0-6-2.985-2.297-3-2.297-8.156zm3.641.421q0 3.562 1.453 5.61 1.469 2.046 4.11 2.046 3.421 0 5.015-3.11v-9.655q-1.656-3.016-4.984-3.016-2.625 0-4.11 2.047-1.484 2.047-1.484 6.078zm28.426 10.719q-4.297 0-7-2.813-2.688-2.828-2.688-7.562v-.657q0-3.156 1.203-5.625 1.204-2.468 3.36-3.859 2.156-1.406 4.687-1.406 4.11 0 6.39 2.719 2.298 2.718 2.298 7.78v1.5H83.565q.078 3.126 1.813 5.048 1.75 1.922 4.453 1.922 1.906 0 3.234-.782 1.328-.78 2.328-2.062l2.204 1.719q-2.657 4.078-7.97 4.078zm-.438-18.953q-2.187 0-3.672 1.593-1.484 1.594-1.843 4.47h10.593v-.282q-.156-2.75-1.484-4.266-1.328-1.515-3.594-1.515zm16.285-2.579l.11 2.657q2.422-3.047 6.328-3.047 6.703 0 6.766 7.562v13.97h-3.61v-13.985q-.031-2.282-1.062-3.375-1.016-1.094-3.188-1.094-1.75 0-3.078.937-1.328.938-2.078 2.454v15.062h-3.61v-21.14h3.422zm27.414 21.532q-4.296 0-7-2.813-2.687-2.828-2.687-7.562v-.657q0-3.156 1.203-5.625 1.203-2.468 3.36-3.859 2.156-1.406 4.687-1.406 4.11 0 6.39 2.719 2.297 2.718 2.297 7.78v1.5h-14.312q.078 3.126 1.812 5.048 1.75 1.922 4.454 1.922 1.906 0 3.234-.782 1.328-.78 2.328-2.062l2.203 1.719q-2.656 4.078-7.969 4.078zm-.437-18.953q-2.188 0-3.672 1.593-1.484 1.594-1.844 4.47h10.594v-.282q-.156-2.75-1.484-4.266-1.328-1.515-3.594-1.515zm23.082.671q-.828-.14-1.781-.14-3.547 0-4.828 3.031v15h-3.61v-21.14h3.516l.062 2.453q1.782-2.844 5.032-2.844 1.062 0 1.609.281v3.36zm16.363 17.891q-.312-.625-.5-2.234-2.531 2.625-6.015 2.625-3.125 0-5.141-1.766-2-1.766-2-4.484 0-3.297 2.516-5.125 2.515-1.828 7.062-1.828h3.516v-1.657q0-1.906-1.14-3.015-1.126-1.125-3.329-1.125-1.937 0-3.25.984-1.312.969-1.312 2.344h-3.625q0-1.578 1.125-3.047 1.125-1.484 3.046-2.344 1.922-.86 4.22-.86 3.655 0 5.718 1.829 2.078 1.828 2.156 5.031v9.735q0 2.906.75 4.625v.312h-3.797zm-6-2.75q1.703 0 3.219-.875 1.531-.89 2.219-2.297V837.5h-2.828q-6.641 0-6.641 3.875 0 1.703 1.125 2.672 1.14.953 2.906.953zm19.617-23.5v5.11h3.938v2.796h-3.938v13.11q0 1.265.516 1.906.531.625 1.813.625.625 0 1.718-.234v2.937q-1.437.39-2.78.39-2.423 0-3.657-1.468-1.219-1.469-1.219-4.156v-13.11h-3.86v-2.797h3.86V821.5h3.61zm12.083 26.25h-3.61v-21.14h3.61v21.14zm-3.907-26.734q0-.89.532-1.485.546-.609 1.593-.609 1.063 0 1.61.61.547.593.547 1.484 0 .875-.547 1.468-.547.579-1.61.579-1.047 0-1.593-.579-.532-.593-.532-1.468zm8.739 15.968q0-3.109 1.218-5.578 1.219-2.484 3.39-3.828 2.188-1.36 4.985-1.36 4.313 0 6.969 3 2.672 2.985 2.672 7.938v.266q0 3.078-1.188 5.531-1.171 2.453-3.375 3.828-2.187 1.36-5.046 1.36-4.297 0-6.97-2.985-2.655-3-2.655-7.922v-.25zm3.625.438q0 3.516 1.625 5.64 1.64 2.126 4.375 2.126 2.75 0 4.375-2.157 1.625-2.156 1.625-6.047 0-3.468-1.657-5.625-1.64-2.171-4.375-2.171-2.687 0-4.328 2.14-1.64 2.125-1.64 6.094zm23.562-10.813l.11 2.657q2.421-3.047 6.328-3.047 6.703 0 6.765 7.562v13.97h-3.61v-13.985q-.03-2.282-1.062-3.375-1.015-1.094-3.187-1.094-1.75 0-3.078.937-1.328.938-2.078 2.454v15.062h-3.61v-21.14h3.422zM71.468 895.75q-.313-.626-.5-2.235-2.532 2.625-6.016 2.625-3.125 0-5.14-1.766-2-1.766-2-4.484 0-3.297 2.515-5.125 2.516-1.828 7.062-1.828h3.516v-1.657q0-1.906-1.14-3.015-1.126-1.125-3.329-1.125-1.937 0-3.25.984-1.312.969-1.312 2.344h-3.625q0-1.578 1.125-3.047 1.125-1.484 3.047-2.344 1.922-.86 4.218-.86 3.657 0 5.72 1.829 2.077 1.828 2.155 5.031v9.735q0 2.906.75 4.625v.312h-3.796zm-6-2.75q1.703 0 3.218-.876 1.532-.89 2.22-2.297V885.5h-2.829q-6.64 0-6.64 3.875 0 1.703 1.124 2.672 1.141.953 2.907.953zm24.93-15.142q-.829-.14-1.782-.14-3.547 0-4.828 3.031v15h-3.61v-21.14h3.516l.063 2.453q1.78-2.844 5.03-2.844 1.063 0 1.61.281v3.36zm11.8 15.329q1.922 0 3.36-1.172 1.453-1.172 1.609-2.922h3.422q-.094 1.812-1.25 3.453-1.157 1.64-3.078 2.625-1.922.969-4.063.969-4.328 0-6.875-2.875-2.547-2.89-2.547-7.89v-.61q0-3.078 1.125-5.485 1.14-2.406 3.25-3.734 2.125-1.328 5.016-1.328 3.562 0 5.906 2.14 2.36 2.125 2.516 5.516h-3.422q-.156-2.047-1.547-3.36-1.39-1.327-3.453-1.327-2.75 0-4.266 1.984-1.515 1.984-1.515 5.734v.688q0 3.656 1.5 5.625 1.515 1.969 4.312 1.969zm16.063-16.016q2.406-2.953 6.25-2.953 6.703 0 6.765 7.562v13.97h-3.61v-13.985q-.03-2.282-1.062-3.375-1.015-1.094-3.187-1.094-1.75 0-3.078.937-1.328.938-2.078 2.454v15.062h-3.61v-30h3.61v11.422zm22.343 18.578h-3.609v-21.14h3.61v21.14zm-3.906-26.734q0-.89.531-1.485.547-.609 1.594-.609 1.063 0 1.61.61.546.593.546 1.484 0 .875-.547 1.468-.546.579-1.609.579-1.047 0-1.594-.579-.53-.593-.53-1.468zm14.598.484v5.11h3.937v2.796h-3.937v13.11q0 1.265.515 1.906.532.625 1.813.625.625 0 1.719-.234v2.937q-1.438.39-2.782.39-2.422 0-3.656-1.468-1.219-1.469-1.219-4.156v-13.11h-3.859v-2.797h3.86V869.5h3.609zm16.926 26.64q-4.297 0-7-2.812-2.688-2.828-2.688-7.562v-.657q0-3.156 1.203-5.625 1.203-2.468 3.36-3.859 2.156-1.406 4.687-1.406 4.11 0 6.39 2.719 2.298 2.718 2.298 7.78v1.5h-14.313q.078 3.126 1.813 5.048 1.75 1.922 4.453 1.922 1.906 0 3.234-.782 1.328-.78 2.328-2.062l2.203 1.719q-2.656 4.078-7.968 4.078zm-.438-18.952q-2.187 0-3.672 1.593-1.484 1.594-1.844 4.47h10.594v-.282q-.156-2.75-1.484-4.266-1.328-1.515-3.594-1.515zm21.348 16q1.922 0 3.359-1.172 1.453-1.172 1.61-2.922h3.421q-.093 1.812-1.25 3.453-1.156 1.64-3.078 2.625-1.922.969-4.062.969-4.328 0-6.875-2.875-2.547-2.89-2.547-7.89v-.61q0-3.078 1.125-5.485 1.14-2.406 3.25-3.734 2.125-1.328 5.015-1.328 3.563 0 5.907 2.14 2.359 2.125 2.515 5.516H194.1q-.156-2.047-1.546-3.36-1.391-1.327-3.454-1.327-2.75 0-4.265 1.984-1.516 1.984-1.516 5.734v.688q0 3.656 1.5 5.625 1.516 1.969 4.313 1.969zm17.359-23.688v5.11h3.938v2.796h-3.938v13.11q0 1.265.516 1.906.53.625 1.812.625.625 0 1.719-.234v2.937q-1.438.39-2.781.39-2.422 0-3.657-1.468-1.218-1.469-1.218-4.156v-13.11h-3.86v-2.797h3.86V869.5h3.609zm21.207 24.156q-2.11 2.485-6.187 2.485-3.375 0-5.157-1.953-1.765-1.97-1.78-5.829v-13.75h3.608v13.657q0 4.812 3.907 4.812 4.14 0 5.515-3.094v-15.375h3.61v21.141h-3.438l-.078-2.094zm19.223-15.797q-.828-.14-1.782-.14-3.546 0-4.828 3.031v15h-3.609v-21.14h3.516l.062 2.453q1.781-2.844 5.031-2.844 1.063 0 1.61.281v3.36zm12.082 18.282q-4.297 0-7-2.813-2.688-2.828-2.688-7.562v-.657q0-3.156 1.203-5.625 1.204-2.468 3.36-3.859 2.156-1.406 4.687-1.406 4.11 0 6.39 2.719 2.298 2.718 2.298 7.78v1.5H252.94q.078 3.126 1.813 5.048 1.75 1.922 4.453 1.922 1.906 0 3.234-.782 1.328-.78 2.328-2.062l2.203 1.719q-2.656 4.078-7.968 4.078zm-.438-18.953q-2.187 0-3.672 1.593-1.484 1.594-1.843 4.47h10.593v-.282q-.156-2.75-1.484-4.266-1.328-1.515-3.594-1.515z"/><path fill="#3c78d8" d="M430.686 714.347h288v56h-288z" fill-rule="evenodd"/><path fill="#f3f3f3" d="M473.423 750.887h-3.516v-17.062h3.516v17.062zm6.152-12.687l.11 1.468q1.359-1.703 3.64-1.703 2.016 0 3 1.188.984 1.187 1 3.547v8.187h-3.375v-8.11q0-1.077-.469-1.562-.468-.484-1.562-.484-1.438 0-2.14 1.219v8.937h-3.391V738.2h3.187zm17.191 9.187q0-.625-.625-.984-.609-.36-1.968-.64-4.516-.954-4.516-3.845 0-1.687 1.39-2.812 1.407-1.14 3.673-1.14 2.406 0 3.843 1.14 1.453 1.14 1.453 2.953h-3.375q0-.719-.468-1.187-.47-.485-1.47-.485-.858 0-1.327.39-.469.376-.469.985 0 .563.531.906.532.344 1.797.594 1.266.25 2.14.563 2.688.984 2.688 3.422 0 1.734-1.5 2.812-1.484 1.063-3.843 1.063-1.594 0-2.829-.563-1.234-.578-1.937-1.562-.703-1-.703-2.141h3.219q.046.906.656 1.39.625.47 1.672.47.968 0 1.468-.36.5-.375.5-.969zm9.528-12.297v3.11h2.172v2.484h-2.172v6.328q0 .703.265 1.016.266.297 1.032.297.562 0 1-.078v2.562q-1 .313-2.047.313-3.563 0-3.64-3.594v-6.844h-1.845V738.2h1.844v-3.11h3.39zm11.172 6.297q-.688-.094-1.22-.094-1.921 0-2.515 1.297v8.297h-3.39V738.2h3.203l.094 1.515q1.015-1.75 2.828-1.75.562 0 1.047.157l-.047 3.265zm9.222 8.203q-1.25 1.532-3.468 1.532-2.032 0-3.11-1.172-1.062-1.172-1.094-3.438V738.2h3.391v8.203q0 1.969 1.797 1.969 1.734 0 2.375-1.188V738.2h3.39v12.687h-3.187l-.094-1.297zm11.117-1.203q.938 0 1.516-.515.594-.516.61-1.375h3.187q-.016 1.296-.719 2.375-.687 1.062-1.89 1.656-1.188.594-2.641.594-2.719 0-4.297-1.72-1.562-1.734-1.562-4.78v-.235q0-2.922 1.546-4.672 1.563-1.75 4.282-1.75 2.375 0 3.812 1.36 1.438 1.36 1.469 3.61h-3.188q-.015-.985-.609-1.595-.578-.625-1.547-.625-1.172 0-1.781.86-.61.86-.61 2.797v.343q0 1.97.594 2.828.61.844 1.828.844zm11.297-13.297v3.11h2.172v2.484h-2.172v6.328q0 .703.266 1.016.266.297 1.031.297.563 0 1-.078v2.562q-1 .313-2.047.313-3.562 0-3.64-3.594v-6.844h-1.844V738.2h1.844v-3.11h3.39zm7.625 15.797h-3.39V738.2h3.39v12.687zm-3.593-15.969q0-.75.5-1.234.515-.5 1.39-.5.875 0 1.39.5.516.484.516 1.234 0 .782-.53 1.282-.516.484-1.376.484-.844 0-1.375-.484-.515-.5-.515-1.282zm5.863 9.516q0-1.89.719-3.36.734-1.484 2.093-2.296 1.36-.813 3.172-.813 2.563 0 4.188 1.578 1.625 1.563 1.812 4.266l.016.86q0 2.921-1.625 4.687-1.625 1.766-4.375 1.766-2.734 0-4.375-1.75-1.625-1.766-1.625-4.797v-.14zm3.375.234q0 1.813.672 2.766.687.953 1.953.953 1.234 0 1.922-.937.703-.953.703-3.016 0-1.781-.703-2.75-.688-.969-1.938-.969t-1.937.97q-.672.968-.672 2.983zm13.836-6.468l.11 1.468q1.359-1.703 3.64-1.703 2.015 0 3 1.188.984 1.187 1 3.547v8.187h-3.375v-8.11q0-1.077-.469-1.562-.469-.484-1.562-.484-1.438 0-2.141 1.219v8.937h-3.39V738.2h3.187zm25.37 8.203q0-.985-.702-1.516-.703-.547-2.531-1.125-1.829-.594-2.891-1.172-2.906-1.578-2.906-4.234 0-1.375.765-2.453.782-1.094 2.235-1.703 1.468-.61 3.28-.61 1.829 0 3.25.672 1.438.656 2.235 1.86.797 1.203.797 2.734h-3.515q0-1.172-.75-1.813-.735-.656-2.063-.656-1.297 0-2.016.547-.703.547-.703 1.438 0 .828.828 1.39.844.563 2.47 1.063 3 .89 4.374 2.234 1.375 1.328 1.375 3.328 0 2.219-1.687 3.485-1.672 1.25-4.5 1.25-1.97 0-3.594-.72-1.61-.718-2.469-1.968-.844-1.266-.844-2.922h3.532q0 2.828 3.375 2.828 1.25 0 1.953-.5.703-.515.703-1.437zm11.52 4.719q-2.796 0-4.546-1.704-1.75-1.718-1.75-4.562v-.328q0-1.922.734-3.422.75-1.5 2.094-2.313 1.36-.828 3.093-.828 2.594 0 4.094 1.64 1.5 1.642 1.5 4.657v1.39h-8.078q.156 1.235.984 1.985.829.75 2.094.75 1.953 0 3.063-1.422l1.656 1.875q-.75 1.078-2.063 1.688-1.296.594-2.875.594zm-.39-10.407q-1 0-1.64.688-.626.672-.798 1.937h4.72v-.265q-.032-1.125-.626-1.735-.578-.625-1.656-.625zm11.097 10.172h-3.39v-18h3.39v18zm8.63.235q-2.797 0-4.547-1.704-1.75-1.718-1.75-4.562v-.328q0-1.922.734-3.422.75-1.5 2.094-2.313 1.359-.828 3.093-.828 2.594 0 4.094 1.64 1.5 1.642 1.5 4.657v1.39h-8.078q.156 1.235.984 1.985.829.75 2.094.75 1.953 0 3.063-1.422l1.656 1.875q-.75 1.078-2.063 1.688-1.296.594-2.875.594zm-.391-10.407q-1 0-1.64.688-.626.672-.798 1.937h4.719v-.265q-.031-1.125-.625-1.735-.578-.625-1.656-.625zm12.8 7.672q.938 0 1.516-.515.594-.516.61-1.375h3.187q-.016 1.296-.719 2.375-.687 1.062-1.89 1.656-1.188.594-2.641.594-2.719 0-4.297-1.72-1.562-1.734-1.562-4.78v-.235q0-2.922 1.547-4.672 1.562-1.75 4.28-1.75 2.376 0 3.813 1.36 1.438 1.36 1.469 3.61h-3.187q-.016-.985-.61-1.595-.578-.625-1.547-.625-1.172 0-1.781.86-.61.86-.61 2.797v.343q0 1.97.594 2.828.61.844 1.829.844zm11.297-13.297v3.11h2.172v2.484h-2.172v6.328q0 .703.266 1.016.266.297 1.031.297.563 0 1-.078v2.562q-1 .313-2.047.313-3.562 0-3.64-3.594v-6.844h-1.844V738.2h1.844v-3.11h3.39zm3.532 9.344q0-1.89.718-3.36.735-1.484 2.094-2.296 1.36-.813 3.172-.813 2.563 0 4.188 1.578 1.625 1.563 1.812 4.266l.016.86q0 2.921-1.625 4.687-1.625 1.766-4.375 1.766-2.735 0-4.375-1.75-1.625-1.766-1.625-4.797v-.14zm3.375.234q0 1.813.672 2.766.687.953 1.953.953 1.234 0 1.922-.937.703-.953.703-3.016 0-1.781-.703-2.75-.688-.969-1.938-.969t-1.937.97q-.672.968-.672 2.983zm17.836-3.28q-.688-.095-1.22-.095-1.921 0-2.515 1.297v8.297h-3.39V738.2h3.203l.093 1.515q1.016-1.75 2.829-1.75.562 0 1.046.157l-.046 3.265z"/><path fill="#a4c2f4" d="M430.686 821.37h288v52.977h-288z" fill-rule="evenodd"/><path fill="#434343" d="M504.84 850.712q-.202 2.75-2.046 4.343-1.828 1.578-4.828 1.578-3.282 0-5.157-2.203-1.875-2.218-1.875-6.078v-1.031q0-2.469.86-4.344.875-1.875 2.484-2.875 1.61-1 3.735-1 2.953 0 4.75 1.578 1.812 1.578 2.093 4.438h-3.515q-.125-1.64-.922-2.39-.781-.75-2.406-.75-1.75 0-2.625 1.265t-.891 3.906v1.297q0 2.765.828 4.047.844 1.265 2.64 1.265 1.641 0 2.438-.734.797-.75.922-2.313h3.516zm1.563-.766q0-1.89.719-3.36.734-1.484 2.094-2.296 1.359-.813 3.172-.813 2.562 0 4.187 1.578 1.625 1.563 1.813 4.266l.015.86q0 2.921-1.625 4.687-1.625 1.765-4.375 1.765-2.734 0-4.375-1.75-1.625-1.765-1.625-4.797v-.14zm3.375.234q0 1.813.672 2.766.688.953 1.953.953 1.235 0 1.922-.938.703-.953.703-3.015 0-1.781-.703-2.75-.687-.969-1.937-.969t-1.938.969q-.672.969-.672 2.984zm10.195-.218q0-2.97 1.329-4.72 1.328-1.765 3.64-1.765 1.844 0 3.047 1.39V838.4h3.406v18h-3.062l-.156-1.344q-1.266 1.578-3.266 1.578-2.234 0-3.594-1.765-1.344-1.766-1.344-4.907zm3.375.25q0 1.78.625 2.734.625.937 1.813.937 1.562 0 2.203-1.312v-5.016q-.625-1.312-2.187-1.312-2.454 0-2.454 3.968zm16.508 6.421q-2.797 0-4.547-1.703-1.75-1.718-1.75-4.562v-.328q0-1.922.735-3.422.75-1.5 2.094-2.313 1.359-.828 3.093-.828 2.594 0 4.094 1.64 1.5 1.641 1.5 4.657v1.39h-8.078q.156 1.235.984 1.985t2.094.75q1.953 0 3.063-1.422l1.656 1.875q-.75 1.078-2.063 1.688-1.297.593-2.875.593zm-.39-10.406q-1 0-1.641.688-.625.672-.797 1.937h4.719v-.265q-.031-1.125-.625-1.735-.578-.625-1.656-.625zm27.23 8.016q-.953 1.14-2.687 1.765-1.735.625-3.844.625-2.219 0-3.89-.968-1.673-.97-2.579-2.797-.906-1.844-.922-4.328v-1.172q0-2.547.86-4.407.859-1.875 2.484-2.859 1.625-1 3.797-1 3.031 0 4.734 1.453 1.719 1.438 2.047 4.203h-3.422q-.234-1.468-1.047-2.14-.797-.688-2.203-.688-1.797 0-2.734 1.36-.938 1.343-.953 4v1.093q0 2.688 1.015 4.063 1.032 1.36 3 1.36 1.985 0 2.828-.845v-2.937h-3.203v-2.594h6.72v6.813zm8.457 2.39q-2.797 0-4.547-1.703-1.75-1.718-1.75-4.562v-.328q0-1.922.735-3.422.75-1.5 2.093-2.313 1.36-.828 3.094-.828 2.594 0 4.094 1.64 1.5 1.641 1.5 4.657v1.39h-8.078q.156 1.235.984 1.985t2.094.75q1.953 0 3.062-1.422l1.657 1.875q-.75 1.078-2.063 1.688-1.297.593-2.875.593zm-.39-10.406q-1 0-1.641.688-.625.672-.797 1.937h4.719v-.265q-.031-1.125-.625-1.735-.578-.625-1.656-.625zm10.644-2.515l.11 1.468q1.359-1.703 3.64-1.703 2.016 0 3 1.188.984 1.187 1 3.547v8.187h-3.375v-8.11q0-1.077-.469-1.562-.468-.484-1.562-.484-1.438 0-2.14 1.218v8.938h-3.391v-12.688h3.187zm16.16 12.921q-2.797 0-4.547-1.703-1.75-1.718-1.75-4.562v-.328q0-1.922.735-3.422.75-1.5 2.093-2.313 1.36-.828 3.094-.828 2.594 0 4.094 1.64 1.5 1.641 1.5 4.657v1.39h-8.078q.156 1.235.984 1.985t2.094.75q1.953 0 3.062-1.422l1.657 1.875q-.75 1.078-2.063 1.688-1.297.593-2.875.593zm-.39-10.406q-1 0-1.641.688-.625.672-.797 1.937h4.719v-.265q-.031-1.125-.625-1.735-.578-.625-1.656-.625zm14.644.672q-.687-.094-1.219-.094-1.922 0-2.515 1.297v8.297h-3.39v-12.688h3.202l.094 1.516q1.016-1.75 2.828-1.75.563 0 1.047.156l-.047 3.266zm8.988 9.5q-.234-.453-.343-1.14-1.235 1.374-3.203 1.374-1.86 0-3.094-1.078-1.219-1.078-1.219-2.718 0-2.016 1.484-3.094 1.5-1.078 4.329-1.094h1.562v-.719q0-.89-.453-1.406-.453-.531-1.422-.531-.86 0-1.344.406-.484.406-.484 1.125h-3.39q0-1.094.671-2.031.688-.938 1.922-1.469 1.25-.547 2.797-.547 2.344 0 3.719 1.188 1.375 1.172 1.375 3.312v5.485q.015 1.812.515 2.734v.203h-3.422zm-2.812-2.36q.75 0 1.375-.327.64-.344.953-.907v-2.172h-1.266q-2.546 0-2.703 1.75l-.015.203q0 .641.437 1.047.453.407 1.219.407zm12.383-13.437v3.11h2.172v2.484h-2.172v6.328q0 .703.265 1.016.266.297 1.032.297.562 0 1-.079v2.563q-1 .312-2.047.312-3.563 0-3.64-3.593v-6.844h-1.845v-2.485h1.844v-3.109h3.39zm3.531 9.344q0-1.89.719-3.36.734-1.484 2.093-2.296 1.36-.813 3.172-.813 2.563 0 4.188 1.578 1.625 1.563 1.812 4.266l.016.86q0 2.921-1.625 4.687-1.625 1.765-4.375 1.765-2.734 0-4.375-1.75-1.625-1.765-1.625-4.797v-.14zm3.375.234q0 1.813.672 2.766.687.953 1.953.953 1.234 0 1.922-.938.703-.953.703-3.015 0-1.781-.703-2.75-.688-.969-1.938-.969t-1.937.969q-.672.969-.672 2.984zm17.836-3.281q-.688-.094-1.219-.094-1.922 0-2.515 1.297v8.297h-3.391v-12.688h3.203l.094 1.516q1.015-1.75 2.828-1.75.562 0 1.047.156l-.047 3.266z"/><path fill="#6d9eeb" d="M430.686 770.347h288v52.977h-288z" fill-rule="evenodd"/><path fill="#f3f3f3" d="M485.147 799.125h-2.797v6.25h-3.515v-17.062h6.328q3.031 0 4.672 1.344 1.64 1.343 1.64 3.812 0 1.75-.765 2.922-.75 1.156-2.281 1.844l3.687 6.968v.172h-3.766l-3.203-6.25zm-2.797-2.843h2.829q1.328 0 2.046-.672.735-.672.735-1.86 0-1.203-.688-1.89-.687-.703-2.11-.703h-2.812v5.125zm17.41 9.328q-2.796 0-4.546-1.703-1.75-1.72-1.75-4.563v-.328q0-1.922.734-3.422.75-1.5 2.094-2.312 1.36-.829 3.094-.829 2.593 0 4.093 1.641 1.5 1.64 1.5 4.656v1.391h-8.078q.156 1.234.985 1.984.828.75 2.093.75 1.953 0 3.063-1.422l1.656 1.875q-.75 1.079-2.062 1.688-1.297.594-2.875.594zm-.39-10.407q-1 0-1.64.688-.626.672-.798 1.937h4.72v-.265q-.032-1.125-.626-1.735-.578-.625-1.656-.625zm7.035 3.735q0-2.922 1.39-4.703 1.391-1.782 3.735-1.782 2.094 0 3.25 1.438l.14-1.203H518v12.265q0 1.672-.766 2.891-.75 1.234-2.125 1.875-1.375.656-3.203.656-1.406 0-2.734-.562-1.313-.563-2-1.438l1.5-2.062q1.265 1.422 3.078 1.422 1.344 0 2.094-.719.75-.719.75-2.047v-.687q-1.172 1.328-3.079 1.328-2.28 0-3.703-1.782-1.406-1.796-1.406-4.75v-.14zm3.39.25q0 1.719.688 2.703.688.969 1.89.969 1.548 0 2.22-1.157v-5.328q-.672-1.156-2.188-1.156-1.219 0-1.922 1-.687.984-.687 2.969zm14.372 6.187h-3.39v-12.687h3.39v12.687zm-3.594-15.968q0-.75.5-1.235.516-.5 1.39-.5.876 0 1.391.5.516.485.516 1.235 0 .78-.531 1.28-.516.485-1.375.485-.844 0-1.375-.484-.516-.5-.516-1.281zm13.254 12.468q0-.625-.625-.984-.61-.36-1.969-.64-4.515-.954-4.515-3.844 0-1.688 1.39-2.813 1.406-1.14 3.672-1.14 2.406 0 3.844 1.14 1.453 1.14 1.453 2.953h-3.375q0-.719-.469-1.187-.469-.485-1.469-.485-.859 0-1.328.391-.468.375-.468.984 0 .563.53.907.532.343 1.798.593 1.265.25 2.14.563 2.688.984 2.688 3.422 0 1.734-1.5 2.812-1.485 1.063-3.844 1.063-1.594 0-2.828-.563-1.234-.578-1.938-1.562-.703-1-.703-2.14h3.22q.046.905.655 1.39.625.468 1.672.468.969 0 1.469-.359.5-.375.5-.969zm9.527-12.297v3.11h2.172v2.484h-2.172v6.328q0 .703.266 1.016.266.297 1.031.297.563 0 1-.078v2.562q-1 .313-2.047.313-3.562 0-3.64-3.594v-6.844h-1.844v-2.484h1.844v-3.11h3.39zm9.89 16.032q-2.796 0-4.546-1.703-1.75-1.72-1.75-4.563v-.328q0-1.922.734-3.422.75-1.5 2.094-2.312 1.36-.829 3.094-.829 2.594 0 4.094 1.641 1.5 1.64 1.5 4.656v1.391h-8.078q.156 1.234.984 1.984t2.094.75q1.953 0 3.062-1.422l1.656 1.875q-.75 1.079-2.062 1.688-1.297.594-2.875.594zm-.39-10.407q-1 0-1.64.688-.625.672-.797 1.937h4.719v-.265q-.032-1.125-.625-1.735-.579-.625-1.657-.625zm14.645.672q-.688-.093-1.219-.093-1.922 0-2.516 1.296v8.297h-3.39v-12.687h3.203l.094 1.515q1.015-1.75 2.828-1.75.562 0 1.047.157l-.047 3.265zm17.465 5.985h-6.157l-1.171 3.515h-3.75l6.359-17.062h3.25l6.39 17.062h-3.734l-1.187-3.515zm-5.22-2.844h4.267l-2.141-6.39-2.125 6.39zm15.087 6.36h-3.39v-18h3.39v18zm6.363 0h-3.39v-18h3.39v18zm2.27-6.454q0-1.89.718-3.36.735-1.484 2.094-2.296 1.36-.813 3.172-.813 2.563 0 4.188 1.579 1.625 1.562 1.812 4.265l.016.86q0 2.921-1.625 4.687-1.625 1.766-4.375 1.766-2.735 0-4.375-1.75-1.625-1.766-1.625-4.797v-.14zm3.375.235q0 1.812.672 2.765.687.953 1.953.953 1.234 0 1.922-.937.703-.953.703-3.016 0-1.781-.703-2.75-.688-.969-1.938-.969t-1.937.97q-.672.968-.672 2.984zm15.992 3.718q.937 0 1.515-.515.594-.516.61-1.375h3.187q-.015 1.297-.718 2.375-.688 1.062-1.891 1.656-1.188.594-2.64.594-2.72 0-4.298-1.719-1.562-1.734-1.562-4.781v-.235q0-2.922 1.547-4.672 1.562-1.75 4.281-1.75 2.375 0 3.813 1.36 1.437 1.36 1.468 3.61h-3.187q-.016-.985-.61-1.595-.578-.625-1.546-.625-1.172 0-1.782.86-.609.86-.609 2.797v.343q0 1.97.594 2.829.61.843 1.828.843zm14.594 2.5q-.235-.453-.344-1.14-1.235 1.375-3.203 1.375-1.86 0-3.094-1.078-1.219-1.079-1.219-2.72 0-2.015 1.485-3.093 1.5-1.078 4.328-1.094h1.562v-.718q0-.891-.453-1.407-.453-.53-1.422-.53-.86 0-1.344.405-.484.407-.484 1.125h-3.39q0-1.093.671-2.03.688-.938 1.922-1.47 1.25-.547 2.797-.547 2.344 0 3.719 1.188 1.375 1.172 1.375 3.312v5.485q.015 1.812.515 2.734v.203h-3.421zm-2.813-2.359q.75 0 1.375-.328.64-.344.953-.906v-2.172h-1.265q-2.547 0-2.704 1.75l-.015.203q0 .64.437 1.047.453.406 1.22.406zm12.383-13.438v3.11h2.172v2.484h-2.172v6.328q0 .703.266 1.016.265.297 1.03.297.563 0 1-.078v2.562q-1 .313-2.046.313-3.563 0-3.64-3.594v-6.844h-1.844v-2.484h1.843v-3.11h3.39zm3.531 9.344q0-1.89.719-3.36.734-1.484 2.094-2.296 1.36-.813 3.172-.813 2.562 0 4.187 1.579 1.625 1.562 1.813 4.265l.015.86q0 2.921-1.625 4.687-1.625 1.766-4.375 1.766-2.734 0-4.375-1.75-1.625-1.766-1.625-4.797v-.14zm3.375.235q0 1.812.672 2.765.688.953 1.953.953 1.235 0 1.922-.937.703-.953.703-3.016 0-1.781-.703-2.75-.687-.969-1.937-.969t-1.938.97q-.672.968-.672 2.984zm17.836-3.282q-.687-.093-1.219-.093-1.922 0-2.515 1.296v8.297h-3.39v-12.687h3.202l.094 1.515q1.016-1.75 2.828-1.75.563 0 1.047.157l-.047 3.265z"/><path fill="#fce5cd" d="M758.686 98.35c0-8.837 7.164-16 16-16h152a16 16 0 0 1 16 16v63.999c0 8.836-7.163 16-16 16h-152c-8.836 0-16-7.164-16-16z" fill-rule="evenodd"/><path fill="#5b0f00" d="M813.276 95.67h-5.234v14.22h-3.516V95.67h-5.156v-2.843h13.906v2.843zm9.363 12.922q-1.25 1.531-3.468 1.531-2.032 0-3.11-1.171-1.062-1.172-1.093-3.438v-8.312h3.39v8.203q0 1.968 1.797 1.968 1.734 0 2.375-1.187v-8.984h3.39v12.687h-3.187l-.094-1.297zm12.961-8.203q-.687-.094-1.218-.094-1.922 0-2.516 1.297v8.297h-3.39V97.202h3.203l.093 1.515q1.016-1.75 2.828-1.75.563 0 1.047.156l-.047 3.266zm13.067 3.281q0 3.047-1.313 4.75-1.297 1.703-3.625 1.703-2.062 0-3.297-1.578l-.156 1.344h-3.047v-18h3.39v6.453q1.173-1.375 3.08-1.375 2.327 0 3.64 1.719 1.328 1.703 1.328 4.797v.187zm-3.39-.25q0-1.922-.61-2.797-.61-.89-1.813-.89-1.625 0-2.234 1.312v5.016q.625 1.328 2.25 1.328 1.64 0 2.156-1.61.25-.78.25-2.359zm4.948.016q0-1.89.72-3.36.734-1.484 2.093-2.296 1.36-.813 3.172-.813 2.562 0 4.187 1.578 1.625 1.563 1.813 4.266l.015.86q0 2.921-1.625 4.687-1.625 1.765-4.375 1.765-2.734 0-4.375-1.75-1.625-1.765-1.625-4.796v-.141zm3.375.234q0 1.813.672 2.766.688.953 1.953.953 1.235 0 1.922-.937.703-.954.703-3.016 0-1.781-.703-2.75-.687-.969-1.937-.969t-1.938.969q-.672.969-.672 2.984zm21.211-.75h-6.75v6.97h-3.515V92.826h11.11v2.843h-7.595v4.407h6.75v2.843zm10.008 6.97q-.234-.454-.344-1.142-1.234 1.375-3.203 1.375-1.86 0-3.093-1.078-1.22-1.078-1.22-2.718 0-2.016 1.485-3.094 1.5-1.078 4.328-1.094h1.563v-.719q0-.89-.453-1.406-.453-.531-1.422-.531-.86 0-1.344.406-.484.406-.484 1.125h-3.391q0-1.094.672-2.031.687-.938 1.922-1.469 1.25-.547 2.797-.547 2.343 0 3.718 1.188 1.375 1.172 1.375 3.312v5.485q.016 1.812.516 2.734v.203h-3.422zm-2.812-2.36q.75 0 1.375-.328.64-.344.953-.907v-2.172h-1.266q-2.547 0-2.703 1.75l-.016.204q0 .64.438 1.046.453.407 1.219.407zm11.445-10.328l.11 1.468q1.359-1.703 3.64-1.703 2.016 0 3 1.188.984 1.187 1 3.547v8.187h-3.375v-8.11q0-1.077-.469-1.562-.469-.484-1.562-.484-1.438 0-2.14 1.219v8.937h-3.392V97.202h3.188zm-85.924 33.546q0 2.516-.89 4.422-.891 1.891-2.563 2.922-1.656 1.031-3.797 1.031-2.125 0-3.797-1.015-1.656-1.031-2.578-2.922-.906-1.89-.906-4.344v-.844q0-2.53.906-4.437.906-1.922 2.563-2.938 1.656-1.03 3.78-1.03 2.142 0 3.798 1.03 1.656 1.016 2.562 2.938.922 1.906.922 4.422v.765zm-3.562-.78q0-2.688-.97-4.079-.952-1.39-2.733-1.39-1.782 0-2.75 1.374-.954 1.375-.954 4.032v.843q0 2.61.954 4.047.968 1.438 2.765 1.438 1.766 0 2.719-1.375.953-1.39.969-4.063v-.828zm17.304 2.702q0 2.922-1.328 4.688-1.328 1.765-3.594 1.765-1.921 0-3.109-1.343v5.984h-3.39v-17.562h3.14l.125 1.25q1.234-1.485 3.203-1.485 2.344 0 3.64 1.735 1.313 1.734 1.313 4.78v.188zm-3.39-.25q0-1.765-.625-2.718-.625-.97-1.828-.97-1.594 0-2.188 1.22v5.187q.625 1.25 2.219 1.25 2.422 0 2.422-3.969zm9.543-9.328v3.11h2.172v2.484h-2.172v6.328q0 .703.265 1.016.266.297 1.032.297.562 0 1-.079v2.563q-1 .312-2.047.312-3.563 0-3.641-3.593v-6.844h-1.844v-2.484h1.844v-3.11h3.39zm7.625 15.797h-3.391v-12.687h3.39v12.687zm-3.594-15.969q0-.75.5-1.234.516-.5 1.39-.5.876 0 1.391.5.516.484.516 1.234 0 .782-.531 1.282-.516.484-1.375.484-.844 0-1.375-.484-.516-.5-.516-1.282zm9.566 3.282l.094 1.421q1.36-1.656 3.656-1.656 2.438 0 3.36 1.938 1.328-1.938 3.812-1.938 2.063 0 3.063 1.203 1.015 1.203 1.015 3.625v8.094h-3.406v-8.094q0-1.078-.422-1.562-.422-.5-1.484-.5-1.531 0-2.11 1.453l.016 8.703h-3.39v-8.078q0-1.094-.438-1.578-.438-.5-1.469-.5-1.453 0-2.094 1.187v8.97h-3.39v-12.688h3.187zm21.168 12.687h-3.39v-12.687h3.39v12.687zm-3.593-15.969q0-.75.5-1.234.515-.5 1.39-.5.875 0 1.39.5.516.484.516 1.234 0 .782-.53 1.282-.516.484-1.376.484-.844 0-1.375-.484-.515-.5-.515-1.282zm10.27 13.235h6.202v2.734h-10.515v-2.062l5.953-7.875h-5.782v-2.75h10.157v2.015l-6.016 7.938zm11.898 2.734h-3.391v-12.687h3.39v12.687zm-3.594-15.969q0-.75.5-1.234.515-.5 1.39-.5.875 0 1.391.5.516.484.516 1.234 0 .782-.532 1.282-.515.484-1.375.484-.843 0-1.375-.484-.515-.5-.515-1.282zm9.504 3.282l.109 1.468q1.36-1.703 3.64-1.703 2.016 0 3 1.188.985 1.187 1 3.547v8.187h-3.374v-8.11q0-1.077-.47-1.562-.468-.484-1.562-.484-1.437 0-2.14 1.219v8.937h-3.39v-12.687h3.187zm9.832 6.25q0-2.922 1.39-4.704 1.391-1.78 3.735-1.78 2.093 0 3.25 1.437l.14-1.203h3.078v12.265q0 1.672-.765 2.89-.75 1.235-2.125 1.876-1.375.656-3.203.656-1.407 0-2.735-.562-1.312-.563-2-1.438l1.5-2.062q1.266 1.421 3.078 1.421 1.344 0 2.094-.718.75-.719.75-2.047v-.688q-1.172 1.328-3.078 1.328-2.281 0-3.703-1.78-1.406-1.798-1.406-4.75v-.141zm3.39.25q0 1.718.688 2.703.687.968 1.89.968 1.547 0 2.22-1.156v-5.328q-.673-1.156-2.188-1.156-1.219 0-1.922 1-.688.984-.688 2.969zm-83.295 29.5q-.203 2.75-2.046 4.343-1.829 1.578-4.829 1.578-3.28 0-5.156-2.203-1.875-2.218-1.875-6.078v-1.031q0-2.469.86-4.344.875-1.875 2.484-2.875 1.61-1 3.734-1 2.953 0 4.75 1.578 1.813 1.578 2.094 4.438H813.1q-.125-1.64-.921-2.39-.782-.75-2.407-.75-1.75 0-2.625 1.265t-.89 3.906v1.297q0 2.766.828 4.047.844 1.265 2.64 1.265 1.641 0 2.438-.734.797-.75.922-2.312h3.515zm1.563-.766q0-1.89.719-3.36.734-1.484 2.093-2.296 1.36-.813 3.172-.813 2.563 0 4.188 1.578 1.625 1.563 1.812 4.266l.016.86q0 2.921-1.625 4.687-1.625 1.765-4.375 1.765-2.734 0-4.375-1.75-1.625-1.765-1.625-4.796v-.141zm3.375.234q0 1.813.672 2.766.687.953 1.953.953 1.234 0 1.922-.937.703-.954.703-3.016 0-1.781-.703-2.75-.688-.969-1.938-.969t-1.937.969q-.672.969-.672 2.984zm13.898-6.468l.094 1.421q1.36-1.656 3.656-1.656 2.438 0 3.36 1.938 1.328-1.938 3.812-1.938 2.063 0 3.063 1.203 1.015 1.203 1.015 3.625v8.094h-3.406v-8.094q0-1.078-.422-1.562-.422-.5-1.484-.5-1.531 0-2.11 1.453l.016 8.703h-3.39v-8.078q0-1.094-.438-1.578-.438-.5-1.469-.5-1.453 0-2.094 1.187v8.97h-3.39v-12.688h3.187zm29.012 6.468q0 2.922-1.328 4.688-1.328 1.765-3.594 1.765-1.922 0-3.11-1.343v5.984h-3.39v-17.562h3.14l.126 1.25q1.234-1.485 3.203-1.485 2.344 0 3.64 1.735 1.313 1.734 1.313 4.78v.188zm-3.39-.25q0-1.765-.626-2.718-.625-.97-1.828-.97-1.593 0-2.187 1.22v5.187q.625 1.25 2.219 1.25 2.421 0 2.421-3.969zm9.058 6.47h-3.39v-12.688h3.39v12.687zm-3.594-15.97q0-.75.5-1.234.516-.5 1.39-.5.876 0 1.392.5.515.484.515 1.234 0 .782-.531 1.282-.516.484-1.375.484-.844 0-1.375-.484-.516-.5-.516-1.282zm9.957 15.97h-3.39v-18h3.39v18zm8.63.233q-2.798 0-4.548-1.703-1.75-1.718-1.75-4.562v-.328q0-1.922.735-3.422.75-1.5 2.093-2.313 1.36-.828 3.094-.828 2.594 0 4.094 1.64 1.5 1.641 1.5 4.657v1.39h-8.078q.156 1.235.984 1.985t2.094.75q1.953 0 3.062-1.422l1.657 1.875q-.75 1.078-2.063 1.688-1.297.593-2.875.593zm-.391-10.406q-1 0-1.641.688-.625.672-.797 1.937H887v-.265q-.031-1.125-.625-1.735-.578-.625-1.656-.625zm14.644.672q-.687-.094-1.219-.094-1.922 0-2.515 1.297v8.297h-3.39v-12.687h3.202l.094 1.515q1.016-1.75 2.828-1.75.563 0 1.047.156l-.047 3.266z"/><path fill="#ead1dc" d="M870.686 806.764h185.95v79.707c-92.97 0-92.97 30.667-185.95 15.334zm15.32 0v-10.333h184.68v80.207c-7.02 0-14.05.555-14.05.555v-70.429zm14.4-10.333v-10.084h186.28v79.957c-8 0-16 .417-16 .417v-70.29z" fill-rule="evenodd"/><path d="M870.686 806.764h185.95v79.707c-92.97 0-92.97 30.667-185.95 15.334zm15.32 0v-10.333h184.68v80.207c-7.02 0-14.05.555-14.05.555m-156.23-80.762v-10.084h186.28v79.957c-8 0-16 .417-16 .417"/><path d="M870.686 901.805c92.98 15.333 92.98-15.334 185.95-15.334v-9.278s7.03-.555 14.05-.555v-9.917s8-.417 16-.417v-79.957h-186.28v10.084h-14.4v10.333h-15.32z"/><path stroke="#4c1130" stroke-linejoin="round" stroke-linecap="butt" d="M870.686 806.764h185.95v79.707c-92.97 0-92.97 30.667-185.95 15.334zm15.32 0v-10.333h184.68v80.207c-7.02 0-14.05.555-14.05.555m-156.23-80.762v-10.084h186.28v79.957c-8 0-16 .417-16 .417"/><path fill="#4c1130" d="M884.952 848.324h-3.516v-17.062h3.516v17.062zm6.152-12.687l.11 1.469q1.36-1.703 3.64-1.703 2.016 0 3 1.187.985 1.188 1 3.547v8.187h-3.375v-8.109q0-1.078-.468-1.562-.47-.485-1.563-.485-1.437 0-2.14 1.219v8.937h-3.391v-12.687h3.187zm14.38-3.11v3.11h2.171v2.484h-2.172v6.328q0 .704.266 1.016.265.297 1.031.297.563 0 1-.078v2.562q-1 .313-2.047.313-3.562 0-3.64-3.594v-6.844h-1.844v-2.484h1.844v-3.11h3.39zm9.89 16.032q-2.797 0-4.547-1.703-1.75-1.72-1.75-4.563v-.328q0-1.922.734-3.422.75-1.5 2.094-2.312 1.36-.828 3.094-.828 2.594 0 4.094 1.64 1.5 1.64 1.5 4.656v1.391h-8.079q.157 1.234.985 1.984t2.094.75q1.953 0 3.062-1.421l1.656 1.875q-.75 1.078-2.062 1.687-1.297.594-2.875.594zm-.39-10.406q-1 0-1.641.687-.625.672-.797 1.938h4.718v-.266q-.03-1.125-.625-1.734-.578-.625-1.656-.625zm11.097 10.171h-3.39v-18h3.39v18zm3.676 4.282l-1.782-.922.422-.766q.797-1.437.813-2.86v-2.624h2.86l-.016 2.344q0 1.312-.657 2.625-.64 1.328-1.64 2.203zm14.695-10.297v6.015h-3.516v-17.062h6.657q1.921 0 3.375.703 1.453.703 2.234 2 .797 1.297.797 2.938 0 2.515-1.719 3.968-1.719 1.438-4.75 1.438h-3.078zm0-2.844h3.14q1.391 0 2.126-.656.734-.656.734-1.875 0-1.25-.75-2.016-.734-.781-2.031-.812h-3.219v5.359zm11.215 2.406q0-1.89.719-3.36.734-1.483 2.093-2.296 1.36-.812 3.172-.812 2.563 0 4.188 1.578 1.625 1.562 1.812 4.265l.016.86q0 2.922-1.625 4.687-1.625 1.766-4.375 1.766-2.735 0-4.375-1.75-1.625-1.766-1.625-4.797v-.14zm3.375.235q0 1.812.672 2.765.687.953 1.953.953 1.234 0 1.922-.937.703-.953.703-3.016 0-1.781-.703-2.75-.688-.968-1.938-.968t-1.937.968q-.672.969-.672 2.985zm21.742 1.609l1.672-8.078h3.266l-3.235 12.687h-2.844l-2.39-7.984-2.406 7.984h-2.829l-3.234-12.687h3.266l1.656 8.062 2.328-8.062h2.438l2.312 8.078zm12.45 4.844q-2.798 0-4.548-1.703-1.75-1.72-1.75-4.563v-.328q0-1.922.735-3.422.75-1.5 2.093-2.312 1.36-.828 3.094-.828 2.594 0 4.094 1.64 1.5 1.64 1.5 4.656v1.391h-8.078q.156 1.234.984 1.984t2.094.75q1.953 0 3.062-1.421l1.657 1.875q-.75 1.078-2.063 1.687-1.297.594-2.875.594zm-.391-10.406q-1 0-1.641.687-.625.672-.797 1.938h4.719v-.266q-.031-1.125-.625-1.734-.578-.625-1.656-.625zm14.644.671q-.687-.093-1.219-.093-1.921 0-2.515 1.297v8.296h-3.39v-12.687h3.202l.094 1.516q1.016-1.75 2.828-1.75.563 0 1.047.156l-.047 3.265zm5.379 3.485v6.015h-3.516v-17.062h6.657q1.922 0 3.375.703t2.234 2q.797 1.297.797 2.938 0 2.515-1.719 3.968-1.719 1.438-4.75 1.438h-3.078zm0-2.844h3.14q1.391 0 2.126-.656.734-.656.734-1.875 0-1.25-.75-2.016-.734-.781-2.031-.812h-3.219v5.359zm25.356 3.172q-.204 2.75-2.047 4.344-1.828 1.578-4.828 1.578-3.282 0-5.157-2.203-1.875-2.22-1.875-6.078v-1.032q0-2.468.86-4.343.875-1.875 2.484-2.875 1.61-1 3.734-1 2.954 0 4.75 1.578 1.813 1.578 2.094 4.437h-3.515q-.125-1.64-.922-2.39-.782-.75-2.407-.75-1.75 0-2.625 1.265-.875 1.266-.89 3.906v1.297q0 2.766.828 4.047.844 1.266 2.64 1.266 1.641 0 2.438-.735.797-.75.922-2.312h3.516zm2.968 9.969l-1.78-.922.42-.766q.798-1.437.813-2.86v-2.624h2.86l-.016 2.344q0 1.312-.656 2.625-.64 1.328-1.64 2.203zm-155.379 7.656l4.375 12.375 4.36-12.375h4.625v17.062h-3.532v-4.671l.344-8.047-4.594 12.718h-2.421l-4.594-12.703.36 8.032v4.671h-3.516v-17.062h4.593zm20.164 17.062h-3.515v-17.062h3.515v17.062zm6.778-6.015v6.015h-3.516v-17.062h6.656q1.922 0 3.375.703t2.235 2q.797 1.297.797 2.938 0 2.515-1.72 3.968-1.718 1.438-4.75 1.438h-3.077zm0-2.844h3.14q1.391 0 2.125-.656.735-.656.735-1.875 0-1.25-.75-2.016-.735-.781-2.032-.812h-3.218v5.359zm20.808 4.375q0-.984-.703-1.516-.703-.546-2.531-1.125-1.828-.593-2.89-1.171-2.907-1.579-2.907-4.235 0-1.375.766-2.453.781-1.094 2.234-1.703 1.469-.61 3.281-.61 1.828 0 3.25.672 1.438.657 2.235 1.86.797 1.203.797 2.734h-3.516q0-1.172-.75-1.812-.734-.657-2.063-.657-1.296 0-2.015.547-.703.547-.703 1.438 0 .828.828 1.39.844.563 2.469 1.063 3 .89 4.375 2.234 1.375 1.328 1.375 3.328 0 2.22-1.688 3.485-1.672 1.25-4.5 1.25-1.969 0-3.594-.719-1.609-.719-2.468-1.969-.844-1.265-.844-2.922h3.531q0 2.829 3.375 2.829 1.25 0 1.953-.5.703-.516.703-1.438zm6.567 8.766l-1.782-.922.422-.766q.797-1.437.813-2.86v-2.624h2.86l-.016 2.344q0 1.312-.657 2.625-.64 1.328-1.64 2.203zm20.804-7.797h-6.156l-1.172 3.515h-3.75l6.36-17.062h3.25l6.39 17.062h-3.734l-1.188-3.515zm-5.218-2.844h4.265l-2.14-6.39-2.125 6.39zm18.054.11h-2.797v6.25h-3.515v-17.063h6.328q3.031 0 4.672 1.344 1.64 1.343 1.64 3.812 0 1.75-.765 2.922-.75 1.156-2.281 1.844l3.687 6.969v.171h-3.766l-3.203-6.25zm-2.797-2.844h2.829q1.328 0 2.046-.672.735-.672.735-1.86 0-1.203-.688-1.89-.687-.703-2.109-.703h-2.813v5.125zm16.395-7.97l4.375 12.376 4.36-12.375h4.624v17.062h-3.53v-4.671l.343-8.047-4.594 12.718h-2.422l-4.593-12.703.359 8.032v4.671h-3.516v-17.062h4.594z"/><path d="M726.686 850.347h136"/><path stroke="#666" stroke-width="8" stroke-linejoin="round" stroke-linecap="butt" d="M726.686 850.347h88"/><path fill="#666" stroke="#666" stroke-width="8" stroke-linecap="butt" d="M814.686 863.561l36.305-13.214-36.305-13.214z" fill-rule="evenodd"/><path fill="#0b5394" d="M806.686 498.347h288v56h-288z" fill-rule="evenodd"/><path fill="#f3f3f3" d="M906.704 530.403q0-.985-.703-1.516-.703-.547-2.531-1.125-1.829-.594-2.891-1.172-2.906-1.578-2.906-4.234 0-1.375.765-2.453.782-1.094 2.235-1.703 1.468-.61 3.28-.61 1.829 0 3.25.672 1.438.656 2.235 1.86.797 1.203.797 2.734h-3.515q0-1.172-.75-1.813-.735-.656-2.063-.656-1.297 0-2.016.547-.703.547-.703 1.438 0 .828.828 1.39.844.563 2.47 1.063 3 .89 4.374 2.234 1.375 1.328 1.375 3.328 0 2.219-1.687 3.485-1.672 1.25-4.5 1.25-1.97 0-3.594-.72-1.61-.718-2.469-1.968-.844-1.266-.844-2.922h3.532q0 2.828 3.375 2.828 1.25 0 1.953-.5.703-.515.703-1.437zm10.957 1.984q.937 0 1.516-.515.593-.516.609-1.375h3.187q-.015 1.296-.718 2.375-.688 1.062-1.89 1.656-1.188.594-2.642.594-2.718 0-4.296-1.72-1.563-1.734-1.563-4.78v-.235q0-2.922 1.547-4.672 1.562-1.75 4.281-1.75 2.375 0 3.813 1.36 1.437 1.36 1.468 3.61h-3.187q-.016-.985-.61-1.595-.578-.625-1.546-.625-1.172 0-1.782.86-.609.86-.609 2.797v.343q0 1.97.594 2.828.61.844 1.828.844zm10.547-8.797q1.344-1.625 3.39-1.625 4.125 0 4.172 4.797v8.125h-3.375v-8.031q0-1.094-.468-1.61-.47-.515-1.563-.515-1.484 0-2.156 1.14v9.016h-3.39v-18h3.39v6.703zm15.96 11.532q-2.796 0-4.546-1.704-1.75-1.718-1.75-4.562v-.328q0-1.922.734-3.422.75-1.5 2.094-2.313 1.36-.828 3.094-.828 2.593 0 4.093 1.641 1.5 1.64 1.5 4.656v1.39h-8.078q.157 1.235.985 1.985t2.093.75q1.954 0 3.063-1.422l1.656 1.875q-.75 1.078-2.062 1.688-1.297.594-2.875.594zm-.39-10.407q-1 0-1.64.688-.626.672-.797 1.937h4.718v-.265q-.03-1.125-.625-1.735-.578-.625-1.656-.625zm7.004 3.735q0-2.969 1.328-4.719 1.328-1.766 3.64-1.766 1.845 0 3.048 1.391v-6.469h3.406v18h-3.063l-.156-1.344q-1.265 1.579-3.265 1.579-2.235 0-3.594-1.766-1.344-1.766-1.344-4.906zm3.375.25q0 1.781.625 2.734.625.938 1.813.938 1.562 0 2.203-1.313v-5.016q-.625-1.312-2.188-1.312-2.453 0-2.453 3.969zm18.258 4.89q-1.25 1.532-3.469 1.532-2.031 0-3.11-1.172-1.062-1.172-1.093-3.438V522.2h3.39v8.203q0 1.969 1.797 1.969 1.735 0 2.375-1.188V522.2h3.391v12.687h-3.187l-.094-1.297zm9.414 1.297h-3.39v-18h3.39v18zm8.629.235q-2.797 0-4.547-1.704-1.75-1.718-1.75-4.562v-.328q0-1.922.734-3.422.75-1.5 2.094-2.313 1.36-.828 3.094-.828 2.594 0 4.094 1.641 1.5 1.64 1.5 4.656v1.39h-8.079q.157 1.235.985 1.985t2.094.75q1.953 0 3.062-1.422l1.656 1.875q-.75 1.078-2.062 1.688-1.297.594-2.875.594zm-.39-10.407q-1 0-1.641.688-.625.672-.797 1.937h4.718v-.265q-.03-1.125-.625-1.735-.578-.625-1.656-.625zm14.644.672q-.688-.094-1.219-.094-1.922 0-2.516 1.297v8.297h-3.39V522.2h3.203l.094 1.515q1.015-1.75 2.828-1.75.562 0 1.047.157l-.047 3.265z"/><path d="M350.686 546.35h136"/><path stroke="#666" stroke-width="8" stroke-linejoin="round" stroke-linecap="butt" d="M350.686 546.35h88"/><path fill="#666" stroke="#666" stroke-width="8" stroke-linecap="butt" d="M438.686 559.563l36.305-13.214-36.305-13.214z" fill-rule="evenodd"/><path d="M566.686 602.35v104"/><path stroke="#666" stroke-width="8" stroke-linejoin="round" stroke-linecap="butt" d="M566.686 602.35v56"/><path fill="#666" stroke="#666" stroke-width="8" stroke-linecap="butt" d="M553.472 658.35l13.214 36.304 13.214-36.305z" fill-rule="evenodd"/><path fill="#a61c00" d="M54.686 514.347h288v56h-288z" fill-rule="evenodd"/><path fill="#f3f3f3" d="M79.223 544.637h-2.796v6.25H72.91v-17.062h6.328q3.031 0 4.672 1.343 1.64 1.344 1.64 3.813 0 1.75-.765 2.922-.75 1.156-2.281 1.844l3.687 6.968v.172h-3.765l-3.204-6.25zm-2.796-2.844h2.828q1.328 0 2.047-.671.734-.672.734-1.86 0-1.203-.688-1.89-.687-.704-2.109-.704h-2.812v5.125zm18.925 9.094q-.234-.453-.343-1.14-1.235 1.375-3.204 1.375-1.859 0-3.093-1.079-1.219-1.078-1.219-2.718 0-2.016 1.484-3.094 1.5-1.078 4.328-1.094h1.563v-.719q0-.89-.453-1.406-.453-.531-1.422-.531-.86 0-1.344.406-.484.406-.484 1.125h-3.39q0-1.094.671-2.031.688-.938 1.922-1.469 1.25-.547 2.797-.547 2.344 0 3.719 1.188 1.375 1.172 1.375 3.312v5.485q.015 1.812.515 2.734v.203h-3.422zm-2.812-2.36q.75 0 1.375-.327.64-.344.953-.907v-2.171h-1.266q-2.547 0-2.703 1.75l-.015.203q0 .64.437 1.047.453.406 1.219.406zm19.351-2.25l1.672-8.077h3.266l-3.234 12.687h-2.844l-2.39-7.984-2.407 7.984h-2.828L99.89 538.2h3.266l1.656 8.062 2.328-8.062h2.438l2.312 8.078zm11.434-12.452L127.7 546.2l4.36-12.375h4.624v17.062h-3.53v-4.672l.343-8.047-4.594 12.72h-2.422l-4.593-12.704.359 8.031v4.672h-3.516v-17.062h4.594zm23.555 17.062q-.235-.453-.344-1.14-1.234 1.375-3.203 1.375-1.86 0-3.094-1.079-1.219-1.078-1.219-2.718 0-2.016 1.485-3.094 1.5-1.078 4.328-1.094h1.562v-.719q0-.89-.453-1.406-.453-.531-1.422-.531-.859 0-1.343.406-.485.406-.485 1.125h-3.39q0-1.094.671-2.031.688-.938 1.922-1.469 1.25-.547 2.797-.547 2.344 0 3.719 1.188 1.375 1.172 1.375 3.312v5.485q.016 1.812.516 2.734v.203h-3.422zm-2.813-2.36q.75 0 1.375-.327.64-.344.953-.907v-2.171h-1.265q-2.547 0-2.703 1.75l-.016.203q0 .64.437 1.047.454.406 1.22.406zm13.602-.14q.937 0 1.515-.515.594-.516.61-1.375h3.187q-.015 1.296-.718 2.375-.688 1.062-1.891 1.656-1.188.594-2.64.594-2.72 0-4.298-1.72-1.562-1.734-1.562-4.78v-.235q0-2.922 1.547-4.672 1.562-1.75 4.281-1.75 2.375 0 3.813 1.36 1.437 1.36 1.468 3.61h-3.187q-.016-.985-.61-1.595-.578-.625-1.546-.625-1.172 0-1.782.86-.61.86-.61 2.797v.343q0 1.97.595 2.828.609.844 1.828.844zm10.547-8.797q1.343-1.625 3.39-1.625 4.125 0 4.172 4.797v8.125h-3.375v-8.031q0-1.094-.469-1.61-.468-.515-1.562-.515-1.484 0-2.156 1.14v9.016h-3.391v-18h3.39v6.703zm13.695 11.297h-3.39V538.2h3.39v12.687zm-3.594-15.969q0-.75.5-1.234.516-.5 1.39-.5.876 0 1.391.5.516.484.516 1.234 0 .782-.531 1.282-.516.484-1.375.484-.844 0-1.375-.484-.516-.5-.516-1.282zm9.504 3.282l.11 1.468q1.359-1.703 3.64-1.703 2.016 0 3 1.188.984 1.187 1 3.547v8.187h-3.375v-8.11q0-1.077-.469-1.562-.468-.484-1.562-.484-1.438 0-2.14 1.219v8.937h-3.391V538.2h3.187zm16.16 12.922q-2.797 0-4.547-1.704-1.75-1.718-1.75-4.562v-.328q0-1.922.735-3.422.75-1.5 2.094-2.313 1.359-.828 3.093-.828 2.594 0 4.094 1.64 1.5 1.642 1.5 4.657v1.39h-8.078q.156 1.235.984 1.985t2.094.75q1.953 0 3.063-1.422l1.656 1.875q-.75 1.078-2.063 1.688-1.297.594-2.875.594zm-.39-10.407q-1 0-1.641.688-.625.672-.797 1.937h4.719v-.265q-.031-1.125-.625-1.735-.578-.625-1.656-.625zm17.379 6.657h-6.157l-1.172 3.515h-3.75l6.36-17.062h3.25l6.39 17.062h-3.734l-1.187-3.515zm-5.22-2.844h4.266l-2.14-6.39-2.125 6.39zm18.384 2.86q0-.626-.625-.985-.61-.36-1.97-.64-4.515-.954-4.515-3.845 0-1.687 1.39-2.812 1.407-1.14 3.673-1.14 2.406 0 3.843 1.14 1.454 1.14 1.454 2.953h-3.375q0-.719-.47-1.187-.468-.485-1.468-.485-.86 0-1.328.39-.469.376-.469.985 0 .563.531.906.532.344 1.797.594 1.266.25 2.141.563 2.687.984 2.687 3.422 0 1.734-1.5 2.812-1.484 1.063-3.843 1.063-1.594 0-2.828-.563-1.235-.578-1.938-1.562-.703-1-.703-2.141h3.219q.047.906.656 1.39.625.47 1.672.47.969 0 1.469-.36.5-.375.5-.969zm12.34 0q0-.626-.626-.985-.609-.36-1.968-.64-4.516-.954-4.516-3.845 0-1.687 1.39-2.812 1.407-1.14 3.673-1.14 2.406 0 3.843 1.14 1.453 1.14 1.453 2.953h-3.375q0-.719-.468-1.187-.469-.485-1.469-.485-.86 0-1.328.39-.469.376-.469.985 0 .563.531.906.532.344 1.797.594 1.266.25 2.14.563 2.688.984 2.688 3.422 0 1.734-1.5 2.812-1.484 1.063-3.843 1.063-1.594 0-2.829-.563-1.234-.578-1.937-1.562-.703-1-.703-2.141h3.219q.046.906.656 1.39.625.47 1.672.47.968 0 1.468-.36.5-.375.5-.969zm11.308 3.734q-2.797 0-4.547-1.704-1.75-1.718-1.75-4.562v-.328q0-1.922.735-3.422.75-1.5 2.093-2.313 1.36-.828 3.094-.828 2.594 0 4.094 1.64 1.5 1.642 1.5 4.657v1.39h-8.078q.156 1.235.984 1.985t2.094.75q1.953 0 3.062-1.422l1.657 1.875q-.75 1.078-2.063 1.688-1.297.594-2.875.594zm-.39-10.407q-1 0-1.641.688-.625.672-.797 1.937h4.719v-.265q-.032-1.125-.625-1.735-.578-.625-1.657-.625zm10.706-2.515l.094 1.422q1.36-1.657 3.656-1.657 2.438 0 3.36 1.938 1.328-1.938 3.812-1.938 2.063 0 3.063 1.203 1.015 1.204 1.015 3.625v8.094h-3.406v-8.094q0-1.078-.422-1.562-.422-.5-1.484-.5-1.531 0-2.11 1.453l.016 8.703h-3.39v-8.078q0-1.094-.438-1.578-.437-.5-1.469-.5-1.453 0-2.093 1.187v8.97h-3.391V538.2h3.187zm29.028 6.468q0 3.047-1.313 4.75-1.297 1.704-3.625 1.704-2.062 0-3.297-1.579l-.156 1.344h-3.047v-18h3.39v6.453q1.173-1.375 3.079-1.375 2.328 0 3.64 1.72 1.329 1.702 1.329 4.796v.187zm-3.39-.25q0-1.921-.61-2.796-.61-.891-1.813-.891-1.625 0-2.234 1.312v5.016q.625 1.328 2.25 1.328 1.64 0 2.156-1.61.25-.78.25-2.359zm9.042 6.47h-3.39v-18h3.39v18zm8.629.234q-2.797 0-4.547-1.704-1.75-1.718-1.75-4.562v-.328q0-1.922.735-3.422.75-1.5 2.093-2.313 1.36-.828 3.094-.828 2.594 0 4.094 1.64 1.5 1.642 1.5 4.657v1.39h-8.078q.156 1.235.984 1.985t2.094.75q1.953 0 3.062-1.422l1.657 1.875q-.75 1.078-2.063 1.688-1.297.594-2.875.594zm-.39-10.407q-1 0-1.641.688-.625.672-.797 1.937h4.719v-.265q-.032-1.125-.625-1.735-.578-.625-1.657-.625zm14.644.672q-.688-.094-1.219-.094-1.922 0-2.515 1.297v8.297h-3.391V538.2h3.203l.094 1.515q1.015-1.75 2.828-1.75.562 0 1.047.157l-.047 3.265z"/><path d="M798.686 530.35h-136"/><path stroke="#666" stroke-width="8" stroke-linejoin="round" stroke-linecap="butt" d="M798.686 530.35h-88"/><path fill="#666" stroke="#666" stroke-width="8" stroke-linecap="butt" d="M710.686 517.135l-36.304 13.214 36.304 13.214z" fill-rule="evenodd"/><path fill="#85200c" d="M54.686 458.35h288v56h-288z" fill-rule="evenodd"/><path fill="#f3f3f3" d="M127.634 489.202q-.204 2.75-2.047 4.343-1.828 1.578-4.828 1.578-3.282 0-5.157-2.203-1.875-2.218-1.875-6.078v-1.031q0-2.469.86-4.344.875-1.875 2.484-2.875 1.61-1 3.734-1 2.954 0 4.75 1.578 1.813 1.578 2.094 4.438h-3.515q-.125-1.64-.922-2.39-.782-.75-2.407-.75-1.75 0-2.625 1.265t-.89 3.906v1.297q0 2.766.828 4.047.844 1.265 2.64 1.265 1.641 0 2.438-.734.797-.75.922-2.312h3.516zm1.562-.766q0-1.89.719-3.36.734-1.484 2.094-2.296 1.359-.813 3.171-.813 2.563 0 4.188 1.578 1.625 1.563 1.812 4.266l.016.86q0 2.921-1.625 4.687-1.625 1.765-4.375 1.765-2.734 0-4.375-1.75-1.625-1.765-1.625-4.796v-.141zm3.375.234q0 1.813.672 2.766.687.953 1.953.953 1.234 0 1.922-.937.703-.954.703-3.016 0-1.781-.703-2.75-.688-.969-1.938-.969t-1.937.969q-.672.969-.672 2.984zm10.195-.218q0-2.97 1.329-4.72 1.328-1.765 3.64-1.765 1.844 0 3.047 1.39v-6.468h3.406v18h-3.062l-.156-1.344q-1.266 1.578-3.266 1.578-2.234 0-3.594-1.765-1.344-1.766-1.344-4.906zm3.375.25q0 1.78.625 2.734.625.937 1.813.937 1.562 0 2.203-1.312v-5.016q-.625-1.312-2.187-1.312-2.454 0-2.454 3.969zm16.508 6.421q-2.797 0-4.547-1.703-1.75-1.718-1.75-4.562v-.328q0-1.922.735-3.422.75-1.5 2.093-2.313 1.36-.828 3.094-.828 2.594 0 4.094 1.64 1.5 1.641 1.5 4.657v1.39h-8.078q.156 1.235.984 1.985t2.094.75q1.953 0 3.062-1.422l1.657 1.875q-.75 1.078-2.063 1.688-1.297.593-2.875.593zm-.39-10.406q-1 0-1.641.688-.625.672-.797 1.937h4.719v-.265q-.031-1.125-.625-1.735-.578-.625-1.656-.625zm17.379 6.656h-6.157l-1.172 3.516h-3.75l6.36-17.062h3.25l6.39 17.062h-3.734l-1.187-3.516zm-5.22-2.843h4.266l-2.14-6.39-2.125 6.39zm18.384 2.86q0-.626-.625-.985-.61-.36-1.97-.64-4.515-.954-4.515-3.845 0-1.687 1.39-2.812 1.407-1.14 3.673-1.14 2.406 0 3.843 1.14 1.454 1.14 1.454 2.953h-3.375q0-.719-.47-1.188-.468-.484-1.468-.484-.86 0-1.328.39-.469.376-.469.985 0 .563.531.906.532.344 1.797.594 1.266.25 2.141.563 2.687.984 2.687 3.421 0 1.735-1.5 2.813-1.484 1.062-3.843 1.062-1.594 0-2.828-.562-1.235-.578-1.938-1.563-.703-1-.703-2.14h3.219q.047.906.656 1.39.625.47 1.672.47.969 0 1.469-.36.5-.375.5-.969zm12.34 0q0-.626-.626-.985-.609-.36-1.968-.64-4.516-.954-4.516-3.845 0-1.687 1.39-2.812 1.407-1.14 3.673-1.14 2.406 0 3.843 1.14 1.453 1.14 1.453 2.953h-3.375q0-.719-.468-1.188-.47-.484-1.47-.484-.858 0-1.327.39-.469.376-.469.985 0 .563.531.906.532.344 1.797.594 1.266.25 2.14.563 2.688.984 2.688 3.421 0 1.735-1.5 2.813-1.484 1.062-3.843 1.062-1.594 0-2.829-.562-1.234-.578-1.937-1.563-.703-1-.703-2.14h3.219q.046.906.656 1.39.625.47 1.672.47.968 0 1.468-.36.5-.375.5-.969zm11.308 3.733q-2.797 0-4.547-1.703-1.75-1.718-1.75-4.562v-.328q0-1.922.735-3.422.75-1.5 2.093-2.313 1.36-.828 3.094-.828 2.594 0 4.094 1.64 1.5 1.641 1.5 4.657v1.39h-8.078q.156 1.235.984 1.985t2.094.75q1.953 0 3.062-1.422l1.657 1.875q-.75 1.078-2.063 1.688-1.297.593-2.875.593zm-.39-10.406q-1 0-1.641.688-.625.672-.797 1.937h4.719v-.265q-.032-1.125-.625-1.735-.578-.625-1.657-.625zm10.706-2.515l.094 1.421q1.36-1.656 3.656-1.656 2.438 0 3.36 1.938 1.328-1.938 3.812-1.938 2.063 0 3.063 1.203 1.015 1.203 1.015 3.625v8.094h-3.406v-8.094q0-1.078-.422-1.562-.422-.5-1.484-.5-1.531 0-2.11 1.453l.016 8.703h-3.39v-8.078q0-1.094-.438-1.578-.437-.5-1.469-.5-1.453 0-2.093 1.187v8.97h-3.391v-12.688h3.187zm29.028 6.468q0 3.047-1.313 4.75-1.297 1.703-3.625 1.703-2.062 0-3.297-1.578l-.156 1.344h-3.047v-18h3.39v6.453q1.173-1.375 3.079-1.375 2.328 0 3.64 1.719 1.329 1.703 1.329 4.797v.187zm-3.39-.25q0-1.922-.61-2.797-.61-.89-1.813-.89-1.625 0-2.234 1.312v5.016q.625 1.328 2.25 1.328 1.64 0 2.156-1.61.25-.78.25-2.359zm9.042 6.47h-3.39v-18h3.39v18zm8.629.233q-2.797 0-4.547-1.703-1.75-1.718-1.75-4.562v-.328q0-1.922.735-3.422.75-1.5 2.093-2.313 1.36-.828 3.094-.828 2.594 0 4.094 1.64 1.5 1.641 1.5 4.657v1.39h-8.078q.156 1.235.984 1.985t2.094.75q1.953 0 3.062-1.422l1.657 1.875q-.75 1.078-2.063 1.688-1.297.593-2.875.593zm-.39-10.406q-1 0-1.641.688-.625.672-.797 1.937h4.719v-.265q-.032-1.125-.625-1.735-.578-.625-1.657-.625zm14.644.672q-.688-.094-1.219-.094-1.922 0-2.515 1.297v8.297h-3.391v-12.687h3.203l.094 1.515q1.015-1.75 2.828-1.75.562 0 1.047.156l-.047 3.266z"/><path fill="#ead1dc" d="M870.688 298.35h159.998v70.57c-79.999 0-79.999 26.888-159.998 11.61z" fill-rule="evenodd"/><path stroke="#4c1130" stroke-linejoin="round" stroke-linecap="butt" d="M870.688 298.35h159.998v70.57c-79.999 0-79.999 26.888-159.998 11.61z"/><path fill="#4c1130" d="M933.263 340.018q-.953 1.14-2.687 1.766-1.735.625-3.844.625-2.219 0-3.89-.97-1.673-.968-2.579-2.796-.906-1.844-.922-4.328v-1.172q0-2.547.86-4.406.859-1.875 2.484-2.86 1.625-1 3.797-1 3.031 0 4.734 1.453 1.719 1.438 2.047 4.204h-3.422q-.234-1.47-1.047-2.141-.797-.688-2.203-.688-1.797 0-2.734 1.36-.938 1.344-.953 4v1.094q0 2.687 1.015 4.062 1.032 1.36 3 1.36 1.985 0 2.828-.844v-2.938h-3.203v-2.594h6.72v6.813zm9.738-7.344q-.687-.094-1.218-.094-1.922 0-2.516 1.297v8.297h-3.39v-12.687h3.203l.093 1.515q1.016-1.75 2.828-1.75.563 0 1.047.157l-.047 3.265zm8.989 9.5q-.235-.453-.344-1.14-1.234 1.375-3.203 1.375-1.86 0-3.094-1.079-1.219-1.078-1.219-2.718 0-2.016 1.485-3.094 1.5-1.078 4.328-1.094h1.562v-.719q0-.89-.453-1.406-.453-.531-1.422-.531-.86 0-1.343.406-.485.406-.485 1.125h-3.39q0-1.094.671-2.031.688-.938 1.922-1.469 1.25-.547 2.797-.547 2.344 0 3.719 1.188 1.375 1.172 1.375 3.312v5.485q.016 1.812.516 2.734v.203h-3.422zm-2.813-2.36q.75 0 1.375-.327.64-.344.953-.907v-2.171h-1.265q-2.547 0-2.703 1.75l-.016.203q0 .64.437 1.047.454.406 1.22.406zm19.742-3.859q0 2.922-1.328 4.688-1.328 1.766-3.594 1.766-1.921 0-3.109-1.344v5.984h-3.39v-17.562h3.14l.125 1.25q1.234-1.485 3.203-1.485 2.344 0 3.64 1.735 1.313 1.734 1.313 4.78v.188zm-3.39-.25q0-1.765-.625-2.718-.625-.97-1.828-.97-1.594 0-2.188 1.22v5.187q.625 1.25 2.219 1.25 2.422 0 2.422-3.969zm8.793-4.828q1.343-1.625 3.39-1.625 4.125 0 4.172 4.797v8.125h-3.375v-8.031q0-1.094-.469-1.61-.468-.515-1.562-.515-1.484 0-2.156 1.14v9.016h-3.39v-18h3.39v6.703z"/><path fill="#ead1dc" d="M494.686 506.35h160v70.57c-80 0-80 26.889-160 11.611z" fill-rule="evenodd"/><path stroke="#4c1130" stroke-linejoin="round" stroke-linecap="butt" d="M494.686 506.35h160v70.57c-80 0-80 26.889-160 11.611z"/><path fill="#4c1130" d="M535.08 545.691q0-.984-.703-1.516-.703-.546-2.531-1.125-1.828-.593-2.89-1.171-2.907-1.579-2.907-4.235 0-1.375.766-2.453.78-1.094 2.234-1.703 1.469-.61 3.281-.61 1.828 0 3.25.672 1.438.657 2.235 1.86.797 1.203.797 2.734h-3.516q0-1.172-.75-1.812-.734-.657-2.063-.657-1.296 0-2.015.547-.703.547-.703 1.438 0 .828.828 1.39.844.563 2.469 1.063 3 .89 4.375 2.234 1.375 1.328 1.375 3.328 0 2.22-1.688 3.485-1.672 1.25-4.5 1.25-1.969 0-3.594-.719-1.61-.719-2.468-1.969-.844-1.265-.844-2.922h3.531q0 2.829 3.375 2.829 1.25 0 1.953-.5.703-.516.703-1.438zm10.957 1.984q.938 0 1.516-.515.594-.516.61-1.375h3.187q-.016 1.297-.719 2.375-.687 1.062-1.89 1.656-1.188.594-2.641.594-2.719 0-4.297-1.719-1.563-1.734-1.563-4.781v-.235q0-2.921 1.547-4.671 1.563-1.75 4.282-1.75 2.375 0 3.812 1.359 1.438 1.36 1.469 3.61h-3.188q-.015-.985-.61-1.594-.577-.625-1.546-.625-1.172 0-1.781.859-.61.86-.61 2.797v.344q0 1.968.594 2.828.61.843 1.828.843zm10.547-8.796q1.344-1.625 3.39-1.625 4.126 0 4.173 4.796v8.125h-3.375v-8.03q0-1.095-.47-1.61-.468-.516-1.562-.516-1.484 0-2.156 1.14v9.016h-3.39v-18h3.39v6.704zm15.961 11.53q-2.797 0-4.547-1.702-1.75-1.72-1.75-4.563v-.328q0-1.922.735-3.422.75-1.5 2.093-2.312 1.36-.828 3.094-.828 2.594 0 4.094 1.64 1.5 1.64 1.5 4.656v1.391h-8.078q.156 1.234.984 1.984t2.094.75q1.953 0 3.062-1.421l1.657 1.875q-.75 1.078-2.063 1.687-1.297.594-2.875.594zm-.39-10.405q-1 0-1.641.687-.625.672-.797 1.938h4.719v-.266q-.032-1.125-.625-1.734-.578-.625-1.657-.625zm7.003 3.734q0-2.969 1.329-4.719 1.328-1.765 3.64-1.765 1.844 0 3.047 1.39v-6.469h3.406v18h-3.062l-.156-1.343q-1.266 1.578-3.266 1.578-2.234 0-3.594-1.766-1.344-1.765-1.344-4.906zm3.375.25q0 1.781.625 2.734.625.938 1.813.938 1.562 0 2.203-1.313v-5.015q-.625-1.313-2.187-1.313-2.454 0-2.454 3.969zm18.258 4.89q-1.25 1.532-3.469 1.532-2.03 0-3.109-1.172-1.062-1.172-1.094-3.438v-8.312h3.39v8.203q0 1.969 1.798 1.969 1.734 0 2.375-1.188v-8.984h3.39v12.687h-3.187l-.094-1.296zm9.414 1.297h-3.39v-18h3.39v18zm8.63.235q-2.798 0-4.548-1.703-1.75-1.72-1.75-4.563v-.328q0-1.922.735-3.422.75-1.5 2.093-2.312 1.36-.828 3.094-.828 2.594 0 4.094 1.64 1.5 1.64 1.5 4.656v1.391h-8.078q.156 1.234.984 1.984t2.094.75q1.953 0 3.062-1.421l1.657 1.875q-.75 1.078-2.063 1.687-1.297.594-2.875.594zm-.391-10.406q-1 0-1.641.687-.625.672-.797 1.938h4.719v-.266q-.031-1.125-.625-1.734-.578-.625-1.656-.625z"/><path fill="#fce5cd" d="M958.686 98.35c0-8.837 7.164-16 16-16h152a16 16 0 0 1 16 16v63.999c0 8.836-7.163 16-16 16h-152c-8.836 0-16-7.164-16-16z" fill-rule="evenodd"/><path fill="#5b0f00" d="M1029.042 119.467l2.297-12.14h3.5l-3.781 17.062h-3.532l-2.781-11.422-2.781 11.422h-3.532l-3.796-17.062h3.515l2.297 12.109 2.813-12.11h2.984l2.797 12.141zm17.332 1.406h-6.156l-1.172 3.516h-3.75l6.36-17.062h3.25l6.39 17.062h-3.735l-1.187-3.516zm-5.219-2.843h4.266l-2.14-6.39-2.126 6.39zm20.586 1.875q0-.985-.703-1.516-.703-.547-2.531-1.125-1.828-.594-2.89-1.172-2.907-1.578-2.907-4.234 0-1.375.765-2.453.782-1.094 2.235-1.703 1.469-.61 3.281-.61 1.828 0 3.25.672 1.438.656 2.234 1.86.797 1.203.797 2.734h-3.515q0-1.172-.75-1.813-.735-.656-2.063-.656-1.297 0-2.015.547-.704.547-.704 1.437 0 .829.829 1.391.843.563 2.468 1.063 3 .89 4.375 2.234 1.375 1.328 1.375 3.328 0 2.219-1.687 3.484-1.672 1.25-4.5 1.25-1.969 0-3.594-.718-1.61-.719-2.469-1.969-.843-1.266-.843-2.922h3.53q0 2.828 3.376 2.828 1.25 0 1.953-.5.703-.515.703-1.437zm10.504-12.578l4.375 12.375 4.36-12.375h4.624v17.062h-3.53v-4.672l.343-8.047-4.594 12.72h-2.422l-4.593-12.704.359 8.031v4.672h-3.516v-17.062h4.594zm-55.645 40.375q-.203 2.75-2.046 4.343-1.829 1.578-4.829 1.578-3.28 0-5.156-2.203-1.875-2.218-1.875-6.078v-1.031q0-2.469.86-4.344.875-1.875 2.484-2.875 1.61-1 3.734-1 2.953 0 4.75 1.578 1.813 1.578 2.094 4.438h-3.516q-.125-1.64-.921-2.39-.782-.75-2.407-.75-1.75 0-2.625 1.265t-.89 3.906v1.297q0 2.766.828 4.047.844 1.265 2.64 1.265 1.641 0 2.438-.734.797-.75.922-2.312h3.515zm1.563-.766q0-1.89.719-3.36.734-1.484 2.093-2.296 1.36-.813 3.172-.813 2.563 0 4.188 1.578 1.625 1.563 1.812 4.266l.016.86q0 2.921-1.625 4.687-1.625 1.765-4.375 1.765-2.734 0-4.375-1.75-1.625-1.765-1.625-4.796v-.141zm3.375.234q0 1.813.672 2.766.687.953 1.953.953 1.234 0 1.922-.937.703-.954.703-3.016 0-1.781-.703-2.75-.688-.969-1.938-.969t-1.937.969q-.672.969-.672 2.984zm13.898-6.468l.094 1.421q1.36-1.656 3.656-1.656 2.438 0 3.36 1.938 1.328-1.938 3.812-1.938 2.063 0 3.063 1.203 1.015 1.203 1.015 3.625v8.094h-3.406v-8.094q0-1.078-.422-1.562-.422-.5-1.484-.5-1.531 0-2.11 1.453l.016 8.703h-3.39v-8.078q0-1.094-.438-1.578-.437-.5-1.469-.5-1.453 0-2.093 1.187v8.97h-3.391v-12.688h3.187zm29.012 6.468q0 2.922-1.328 4.688-1.328 1.765-3.594 1.765-1.922 0-3.11-1.343v5.984h-3.39v-17.562h3.14l.126 1.25q1.234-1.485 3.203-1.485 2.344 0 3.64 1.735 1.313 1.734 1.313 4.78v.188zm-3.39-.25q0-1.765-.626-2.718-.625-.97-1.828-.97-1.593 0-2.187 1.22v5.187q.625 1.25 2.219 1.25 2.421 0 2.421-3.969zm9.058 6.47h-3.39v-12.688h3.39v12.687zm-3.594-15.97q0-.75.5-1.234.516-.5 1.391-.5t1.39.5q.516.484.516 1.234 0 .782-.531 1.282-.516.484-1.375.484-.844 0-1.375-.484-.516-.5-.516-1.282zm9.957 15.97h-3.39v-18h3.39v18zm8.63.233q-2.798 0-4.548-1.703-1.75-1.718-1.75-4.562v-.328q0-1.922.735-3.422.75-1.5 2.094-2.313 1.359-.828 3.093-.828 2.594 0 4.094 1.64 1.5 1.641 1.5 4.657v1.39h-8.078q.156 1.235.984 1.985t2.094.75q1.953 0 3.063-1.422l1.656 1.875q-.75 1.078-2.063 1.688-1.297.593-2.875.593zm-.391-10.406q-1 0-1.641.688-.625.672-.797 1.937h4.72v-.265q-.031-1.125-.625-1.735-.578-.625-1.656-.625zm14.644.672q-.687-.094-1.219-.094-1.921 0-2.515 1.297v8.297h-3.39v-12.687h3.202l.094 1.515q1.016-1.75 2.828-1.75.563 0 1.047.156l-.047 3.266z"/><path fill="#f3f3f3" d="M974.686 266.35h12v-72h24v72h12l-24 24z" fill-rule="evenodd"/><path stroke="#666" stroke-linejoin="round" stroke-linecap="butt" d="M974.686 266.35h12v-72h24v72h12l-24 24z"/><path fill="#f3f3f3" d="M878.686 266.35h12v-72h24v72h12l-24 24z" fill-rule="evenodd"/><path stroke="#666" stroke-linejoin="round" stroke-linecap="butt" d="M878.686 266.35h12v-72h24v72h12l-24 24z"/><path fill="#fce5cd" d="M22.686 26.35c0-8.837 7.164-16 16-16h152a16 16 0 0 1 16 16v63.999c0 8.836-7.163 16-16 16h-152c-8.836 0-16-7.164-16-16z" fill-rule="evenodd"/><path fill="#5b0f00" d="M78.96 66.89h-3.516V49.826h3.516v17.062zm2.543-6.438q0-2.922 1.39-4.704 1.391-1.78 3.735-1.78 2.094 0 3.25 1.437l.14-1.203h3.079v12.265q0 1.672-.766 2.89-.75 1.235-2.125 1.876-1.375.656-3.203.656-1.406 0-2.735-.562-1.312-.563-2-1.438l1.5-2.062q1.266 1.421 3.079 1.421 1.343 0 2.093-.718.75-.719.75-2.047v-.688q-1.172 1.328-3.078 1.328-2.281 0-3.703-1.78-1.406-1.798-1.406-4.75v-.141zm3.39.25q0 1.718.688 2.703.687.968 1.89.968 1.547 0 2.22-1.156V57.89q-.673-1.156-2.188-1.156-1.219 0-1.922 1-.688.984-.688 2.969zm13.918-6.5l.11 1.468q1.36-1.703 3.64-1.703 2.016 0 3 1.188.985 1.187 1 3.547v8.187h-3.375v-8.11q0-1.077-.468-1.562-.47-.484-1.563-.484-1.437 0-2.14 1.219v8.937h-3.391V54.202h3.187zm13.895 12.687h-3.39V54.202h3.39v12.687zm-3.594-15.969q0-.75.5-1.234.516-.5 1.39-.5.876 0 1.391.5.516.484.516 1.234 0 .782-.531 1.282-.516.484-1.375.484-.844 0-1.375-.484-.516-.5-.516-1.282zm10.442.172v3.11h2.171v2.484h-2.171v6.328q0 .703.265 1.016.266.297 1.031.297.563 0 1-.079v2.563q-1 .312-2.046.312-3.563 0-3.641-3.593v-6.844h-1.844v-2.484h1.844v-3.11h3.39zm7.625 15.797h-3.391V54.202h3.39v12.687zm-3.594-15.969q0-.75.5-1.234.515-.5 1.39-.5.875 0 1.391.5.516.484.516 1.234 0 .782-.532 1.282-.515.484-1.375.484-.843 0-1.375-.484-.515-.5-.515-1.282zm5.863 9.516q0-1.89.719-3.36.734-1.484 2.094-2.296 1.359-.813 3.171-.813 2.563 0 4.188 1.578 1.625 1.563 1.812 4.266l.016.86q0 2.921-1.625 4.687-1.625 1.765-4.375 1.765-2.734 0-4.375-1.75-1.625-1.765-1.625-4.796v-.141zm3.375.234q0 1.813.672 2.766.687.953 1.953.953 1.234 0 1.922-.937.703-.954.703-3.016 0-1.781-.703-2.75-.688-.969-1.938-.969t-1.937.969q-.672.969-.672 2.984zm13.836-6.468l.11 1.468q1.359-1.703 3.64-1.703 2.016 0 3 1.188.984 1.187 1 3.547v8.187h-3.375v-8.11q0-1.077-.469-1.562-.468-.484-1.562-.484-1.438 0-2.14 1.219v8.937h-3.391V54.202h3.187z"/><path fill="#fce5cd" d="M222.686 26.35c0-8.837 7.164-16 16-16h152a16 16 0 0 1 16 16v63.999c0 8.836-7.163 16-16 16h-152c-8.836 0-16-7.164-16-16z" fill-rule="evenodd"/><path fill="#5b0f00" d="M275.354 66.89V49.826h5.97q3.108 0 4.702 1.187 1.61 1.188 1.61 3.484 0 1.25-.641 2.22-.64.952-1.797 1.39 1.313.328 2.063 1.328.765 1 .765 2.437 0 2.454-1.578 3.72-1.562 1.265-4.469 1.296h-6.625zm3.516-7.438v4.609h3q1.25 0 1.937-.594.704-.594.704-1.625 0-2.344-2.422-2.39h-3.22zm0-2.485h2.594q2.656-.047 2.656-2.11 0-1.171-.672-1.671-.672-.516-2.125-.516h-2.453v4.297zm19.16 8.625q-1.25 1.531-3.469 1.531-2.03 0-3.109-1.171-1.063-1.172-1.094-3.438v-8.312h3.39v8.203q0 1.968 1.798 1.968 1.734 0 2.375-1.187v-8.984h3.39v12.687h-3.187l-.094-1.297zm9.414 1.297h-3.39V54.202h3.39v12.687zM303.85 50.92q0-.75.5-1.234.516-.5 1.391-.5t1.39.5q.516.484.516 1.234 0 .782-.531 1.282-.516.484-1.375.484-.844 0-1.375-.484-.516-.5-.516-1.282zm9.957 15.97h-3.39v-18h3.39v18zm6.848-15.798v3.11h2.172v2.484h-2.172v6.328q0 .703.266 1.016.265.297 1.031.297.562 0 1-.079v2.563q-1 .312-2.047.312-3.562 0-3.64-3.593v-6.844h-1.844v-2.484h1.843v-3.11h3.391zm7.625 15.797h-3.39V54.202h3.39v12.687zm-3.594-15.969q0-.75.5-1.234.516-.5 1.391-.5t1.39.5q.516.484.516 1.234 0 .782-.531 1.282-.516.484-1.375.484-.844 0-1.375-.484-.516-.5-.516-1.282zm9.504 3.282l.11 1.468q1.359-1.703 3.64-1.703 2.016 0 3 1.188.985 1.187 1 3.547v8.187h-3.375v-8.11q0-1.077-.469-1.562-.468-.484-1.562-.484-1.438 0-2.14 1.219v8.937h-3.391V54.202h3.187zm17.192 9.187q0-.625-.625-.984-.61-.36-1.97-.64-4.515-.954-4.515-3.845 0-1.687 1.39-2.812 1.407-1.14 3.673-1.14 2.406 0 3.844 1.14 1.453 1.14 1.453 2.953h-3.375q0-.719-.47-1.188-.468-.484-1.468-.484-.86 0-1.328.39-.469.376-.469.985 0 .563.532.906.53.344 1.796.594t2.141.563q2.688.984 2.688 3.421 0 1.735-1.5 2.813-1.485 1.062-3.844 1.062-1.594 0-2.828-.562-1.235-.578-1.938-1.563-.703-1-.703-2.14h3.219q.047.906.656 1.39.625.47 1.672.47.969 0 1.469-.36.5-.375.5-.969z"/><path fill="#f3f3f3" d="M334.655 218.35l.008 12h50.015l.016 24H334.68l.007 12-24.015-24z" fill-rule="evenodd"/><path stroke="#666" stroke-linejoin="round" stroke-linecap="butt" d="M334.655 218.35l.008 12h50.015l.016 24H334.68l.007 12-24.015-24z"/><path d="M958.686 386.35v104"/><path stroke="#666" stroke-width="8" stroke-linejoin="round" stroke-linecap="butt" d="M958.686 386.35v56"/><path fill="#666" stroke="#666" stroke-width="8" stroke-linecap="butt" d="M945.472 442.35l13.214 36.304 13.214-36.305z" fill-rule="evenodd"/><path fill="#ead1dc" d="M142.686 210.35h160v70.57c-80 0-80 26.888-160 11.61z" fill-rule="evenodd"/><path stroke="#4c1130" stroke-linejoin="round" stroke-linecap="butt" d="M142.686 210.35h160v70.57c-80 0-80 26.888-160 11.61z"/><path fill="#4c1130" d="M191.992 248.487q-.203 2.75-2.047 4.343-1.828 1.579-4.828 1.579-3.28 0-5.156-2.204-1.875-2.218-1.875-6.078v-1.031q0-2.469.86-4.344.874-1.875 2.484-2.875 1.61-1 3.734-1 2.953 0 4.75 1.578 1.813 1.579 2.094 4.438h-3.516q-.125-1.64-.922-2.39-.78-.75-2.406-.75-1.75 0-2.625 1.265-.875 1.266-.89 3.906v1.297q0 2.766.828 4.047.843 1.266 2.64 1.266 1.641 0 2.438-.735.797-.75.922-2.312h3.515zm8.922-3.86h4.219v3.047h-4.219v4.781h-3.234v-4.78h-4.235v-3.048h4.235v-4.593h3.234v4.593zm13.102 0h4.219v3.047h-4.22v4.781h-3.234v-4.78h-4.234v-3.048h4.234v-4.593h3.235v4.593zm12.469 9.547v-17.062h5.25q2.25 0 4.015 1.015 1.781 1.016 2.766 2.89 1 1.86 1 4.235v.782q0 2.39-.985 4.25-.968 1.843-2.75 2.859-1.78 1.016-4.015 1.031h-5.281zM230 239.955v11.391h1.688q2.062 0 3.156-1.344 1.094-1.343 1.11-3.86v-.905q0-2.594-1.079-3.938-1.078-1.344-3.14-1.344H230zm20.926 9.735q0-.985-.703-1.516-.703-.547-2.531-1.125-1.829-.594-2.891-1.172-2.906-1.578-2.906-4.234 0-1.375.765-2.453.782-1.094 2.235-1.703 1.468-.61 3.281-.61 1.828 0 3.25.672 1.437.656 2.234 1.86.797 1.203.797 2.734h-3.515q0-1.172-.75-1.813-.735-.656-2.063-.656-1.297 0-2.016.547-.703.547-.703 1.438 0 .828.828 1.39.844.563 2.47 1.063 3 .89 4.374 2.234 1.375 1.328 1.375 3.328 0 2.219-1.687 3.485-1.672 1.25-4.5 1.25-1.969 0-3.594-.72-1.61-.718-2.469-1.968-.844-1.266-.844-2.922h3.532q0 2.828 3.375 2.828 1.25 0 1.953-.5.703-.515.703-1.437zm9.426 1.656h7.453v2.828h-10.969v-17.062h3.516v14.234z"/><path d="M222.686 300.522v93.827"/><path stroke="#666" stroke-width="8" stroke-linejoin="round" stroke-linecap="butt" d="M222.686 300.522v45.827"/><path fill="#666" stroke="#666" stroke-width="8" stroke-linecap="butt" d="M209.472 346.35l13.214 36.304 13.214-36.305z" fill-rule="evenodd"/><path fill="#f3f3f3" d="M150.686 178.35h12v-56h24v56h12l-24 24z" fill-rule="evenodd"/><path stroke="#666" stroke-linejoin="round" stroke-linecap="butt" d="M150.686 178.35h12v-56h24v56h12l-24 24z"/><path fill="#f3f3f3" d="M238.686 178.35h12v-56h24v56h12l-24 24z" fill-rule="evenodd"/><path stroke="#666" stroke-linejoin="round" stroke-linecap="butt" d="M238.686 178.35h12v-56h24v56h12l-24 24z"/><path fill="#fce5cd" d="M408.02 170.35h165.333a9.333 9.333 0 0 1 9.333 9.333v46.666l-.001.002-183.999-.002-.001-.001.001-46.665a9.334 9.334 0 0 1 9.334-9.334z" fill-rule="evenodd"/><path fill="#5b0f00" d="M444.87 202.568q-.203 2.75-2.047 4.344-1.828 1.578-4.828 1.578-3.281 0-5.156-2.203-1.875-2.219-1.875-6.078v-1.031q0-2.469.86-4.344.874-1.875 2.483-2.875 1.61-1 3.735-1 2.953 0 4.75 1.578 1.812 1.578 2.094 4.438h-3.516q-.125-1.64-.922-2.39-.781-.75-2.406-.75-1.75 0-2.625 1.265t-.89 3.906v1.297q0 2.765.827 4.047.844 1.265 2.64 1.265 1.642 0 2.438-.734.797-.75.922-2.313h3.516zm1.562-.765q0-1.89.72-3.36.734-1.484 2.093-2.296 1.36-.813 3.172-.813 2.562 0 4.187 1.578 1.625 1.563 1.813 4.266l.015.86q0 2.921-1.625 4.687-1.625 1.765-4.375 1.765-2.734 0-4.375-1.75-1.625-1.765-1.625-4.797v-.14zm3.375.234q0 1.813.672 2.766.688.953 1.953.953 1.235 0 1.922-.938.703-.953.703-3.015 0-1.781-.703-2.75-.687-.969-1.937-.969t-1.938.969q-.672.969-.672 2.984zm10.196-.219q0-2.968 1.328-4.718 1.328-1.766 3.64-1.766 1.844 0 3.047 1.39v-6.468h3.407v18h-3.063l-.156-1.344q-1.266 1.578-3.266 1.578-2.234 0-3.594-1.765-1.343-1.766-1.343-4.907zm3.375.25q0 1.782.625 2.735.625.937 1.812.937 1.563 0 2.203-1.312v-5.016q-.625-1.312-2.187-1.312-2.453 0-2.453 3.968zm16.508 6.422q-2.797 0-4.547-1.703-1.75-1.719-1.75-4.562v-.328q0-1.922.734-3.422.75-1.5 2.094-2.313 1.36-.828 3.094-.828 2.593 0 4.093 1.64 1.5 1.641 1.5 4.657v1.39h-8.078q.156 1.235.985 1.985.828.75 2.093.75 1.953 0 3.063-1.422l1.656 1.875q-.75 1.078-2.062 1.688-1.297.593-2.875.593zm-.391-10.406q-1 0-1.64.688-.626.671-.798 1.937h4.72v-.266q-.032-1.125-.626-1.734-.578-.625-1.656-.625zm20.371 6.672q0-.625-.625-.984-.61-.36-1.969-.641-4.515-.953-4.515-3.844 0-1.687 1.39-2.812 1.407-1.14 3.672-1.14 2.406 0 3.844 1.14 1.453 1.14 1.453 2.953h-3.375q0-.719-.469-1.188-.468-.484-1.468-.484-.86 0-1.329.39-.468.376-.468.985 0 .562.53.906.532.344 1.798.594 1.265.25 2.14.562 2.688.985 2.688 3.422 0 1.735-1.5 2.813-1.484 1.062-3.844 1.062-1.594 0-2.828-.562-1.234-.578-1.937-1.563-.704-1-.704-2.14h3.22q.046.906.655 1.39.625.47 1.672.47.969 0 1.469-.36.5-.375.5-.97zm9.527-12.297v3.11h2.172v2.484h-2.172v6.328q0 .703.266 1.016.266.296 1.031.296.563 0 1-.078v2.563q-1 .312-2.047.312-3.562 0-3.64-3.593v-6.844h-1.844v-2.485h1.844v-3.109h3.39zm11.641 14.5q-1.25 1.531-3.469 1.531-2.031 0-3.11-1.172-1.062-1.171-1.093-3.437v-8.313h3.39v8.204q0 1.968 1.798 1.968 1.734 0 2.375-1.187v-8.985h3.39v12.688h-3.187l-.094-1.297zm17.273-4.922q0 3.047-1.312 4.75-1.297 1.703-3.625 1.703-2.063 0-3.297-1.578l-.156 1.344h-3.047v-18h3.39v6.453q1.172-1.375 3.079-1.375 2.328 0 3.64 1.719 1.328 1.703 1.328 4.797v.187zm-3.39-.25q0-1.922-.61-2.797-.609-.89-1.812-.89-1.625 0-2.234 1.312v5.016q.625 1.328 2.25 1.328 1.64 0 2.156-1.61.25-.78.25-2.359zm12.34 2.969q0-.625-.625-.984-.61-.36-1.97-.641-4.515-.953-4.515-3.844 0-1.687 1.39-2.812 1.407-1.14 3.673-1.14 2.406 0 3.844 1.14 1.453 1.14 1.453 2.953h-3.375q0-.719-.47-1.188-.468-.484-1.468-.484-.86 0-1.328.39-.469.376-.469.985 0 .562.532.906.53.344 1.796.594t2.141.562q2.688.985 2.688 3.422 0 1.735-1.5 2.813-1.485 1.062-3.844 1.062-1.594 0-2.828-.562-1.235-.578-1.938-1.563-.703-1-.703-2.14h3.219q.047.906.656 1.39.625.47 1.672.47.969 0 1.469-.36.5-.375.5-.97z"/><path fill="#5b0f00" d="M54.686 402.35h288v56h-288z" fill-rule="evenodd"/><path fill="#f3f3f3" d="M102.731 433.202q-.203 2.75-2.047 4.343-1.828 1.578-4.828 1.578-3.281 0-5.156-2.203-1.875-2.218-1.875-6.078v-1.031q0-2.469.86-4.344.874-1.875 2.484-2.875 1.61-1 3.734-1 2.953 0 4.75 1.578 1.813 1.578 2.094 4.438H99.23q-.125-1.64-.922-2.39-.78-.75-2.406-.75-1.75 0-2.625 1.265t-.89 3.906v1.297q0 2.766.828 4.047.843 1.265 2.64 1.265 1.64 0 2.438-.734.797-.75.922-2.312h3.515zm1.563-.766q0-1.89.719-3.36.734-1.484 2.093-2.296 1.36-.813 3.172-.813 2.563 0 4.188 1.578 1.625 1.563 1.812 4.266l.016.86q0 2.921-1.625 4.687-1.625 1.765-4.375 1.765-2.735 0-4.375-1.75-1.625-1.765-1.625-4.796v-.141zm3.375.234q0 1.813.672 2.766.687.953 1.953.953 1.234 0 1.922-.937.703-.954.703-3.016 0-1.781-.703-2.75-.688-.969-1.938-.969t-1.937.969q-.672.969-.672 2.984zm10.195-.218q0-2.97 1.328-4.72 1.328-1.765 3.64-1.765 1.845 0 3.048 1.39v-6.468h3.406v18h-3.063l-.156-1.344q-1.265 1.578-3.265 1.578-2.235 0-3.594-1.765-1.344-1.766-1.344-4.906zm3.375.25q0 1.78.625 2.734.625.937 1.813.937 1.562 0 2.203-1.312v-5.016q-.625-1.312-2.188-1.312-2.453 0-2.453 3.969zm16.508 6.421q-2.797 0-4.547-1.703-1.75-1.718-1.75-4.562v-.328q0-1.922.734-3.422.75-1.5 2.094-2.313 1.36-.828 3.094-.828 2.594 0 4.094 1.64 1.5 1.641 1.5 4.657v1.39h-8.078q.156 1.235.984 1.985t2.094.75q1.953 0 3.062-1.422l1.656 1.875q-.75 1.078-2.062 1.688-1.297.593-2.875.593zm-.39-10.406q-1 0-1.641.688-.625.672-.797 1.937h4.719v-.265q-.032-1.125-.625-1.735-.579-.625-1.657-.625zm16.597 5.688q0-.985-.703-1.516-.703-.547-2.531-1.125-1.829-.594-2.891-1.172-2.906-1.578-2.906-4.234 0-1.375.765-2.453.782-1.094 2.235-1.703 1.468-.61 3.28-.61 1.83 0 3.25.672 1.438.656 2.235 1.86.797 1.203.797 2.734h-3.515q0-1.172-.75-1.813-.735-.656-2.063-.656-1.297 0-2.016.547-.703.547-.703 1.437 0 .829.828 1.391.844.563 2.47 1.063 3 .89 4.374 2.234 1.375 1.328 1.375 3.328 0 2.219-1.687 3.484-1.672 1.25-4.5 1.25-1.97 0-3.594-.718-1.61-.72-2.469-1.97-.844-1.265-.844-2.92h3.532q0 2.827 3.375 2.827 1.25 0 1.953-.5.703-.515.703-1.437zm9.738-11.313v3.11h2.172v2.484h-2.172v6.328q0 .703.266 1.016.265.297 1.031.297.563 0 1-.079v2.563q-1 .312-2.047.312-3.562 0-3.64-3.593v-6.844h-1.844v-2.484h1.844v-3.11h3.39zm11.64 14.5q-1.25 1.531-3.468 1.531-2.031 0-3.11-1.171-1.062-1.172-1.093-3.438v-8.312h3.39v8.203q0 1.968 1.797 1.968 1.735 0 2.375-1.187v-8.984h3.391v12.687h-3.187l-.094-1.297zm17.274-4.922q0 3.047-1.312 4.75-1.297 1.703-3.625 1.703-2.063 0-3.297-1.578l-.156 1.344h-3.047v-18h3.39v6.453q1.172-1.375 3.079-1.375 2.328 0 3.64 1.719 1.328 1.703 1.328 4.797v.187zm-3.39-.25q0-1.922-.61-2.797-.61-.89-1.812-.89-1.625 0-2.235 1.312v5.016q.625 1.328 2.25 1.328 1.641 0 2.157-1.61.25-.78.25-2.359zm15.324 2.953h-6.156l-1.172 3.516h-3.75l6.36-17.062h3.25l6.39 17.062h-3.735l-1.187-3.516zm-5.219-2.843h4.266l-2.14-6.39-2.126 6.39zm18.383 2.86q0-.626-.625-.985-.61-.36-1.969-.64-4.515-.954-4.515-3.845 0-1.687 1.39-2.812 1.406-1.14 3.672-1.14 2.406 0 3.844 1.14 1.453 1.14 1.453 2.953h-3.375q0-.719-.469-1.188-.469-.484-1.469-.484-.859 0-1.328.39-.468.376-.468.985 0 .563.53.906.532.344 1.798.594 1.265.25 2.14.563 2.688.984 2.688 3.421 0 1.735-1.5 2.813-1.485 1.062-3.844 1.062-1.594 0-2.828-.562-1.234-.578-1.938-1.563-.703-1-.703-2.14h3.22q.046.906.655 1.39.625.47 1.672.47.969 0 1.469-.36.5-.375.5-.969zm12.34 0q0-.626-.625-.985-.61-.36-1.969-.64-4.516-.954-4.516-3.845 0-1.687 1.391-2.812 1.406-1.14 3.672-1.14 2.406 0 3.844 1.14 1.453 1.14 1.453 2.953h-3.375q0-.719-.469-1.188-.469-.484-1.469-.484-.86 0-1.328.39-.469.376-.469.985 0 .563.532.906.53.344 1.797.594 1.265.25 2.14.563 2.688.984 2.688 3.421 0 1.735-1.5 2.813-1.485 1.062-3.844 1.062-1.594 0-2.828-.562-1.235-.578-1.938-1.563-.703-1-.703-2.14h3.219q.047.906.656 1.39.625.47 1.672.47.969 0 1.469-.36.5-.375.5-.969zm11.308 3.733q-2.797 0-4.547-1.703-1.75-1.718-1.75-4.562v-.328q0-1.922.735-3.422.75-1.5 2.094-2.313 1.359-.828 3.093-.828 2.594 0 4.094 1.64 1.5 1.641 1.5 4.657v1.39h-8.078q.156 1.235.984 1.985t2.094.75q1.953 0 3.063-1.422l1.656 1.875q-.75 1.078-2.063 1.688-1.297.593-2.875.593zm-.39-10.406q-1 0-1.64.688-.626.672-.798 1.937h4.719v-.265q-.031-1.125-.625-1.735-.578-.625-1.656-.625zm10.707-2.515l.094 1.421q1.359-1.656 3.656-1.656 2.437 0 3.36 1.938 1.327-1.938 3.812-1.938 2.062 0 3.062 1.203 1.016 1.203 1.016 3.625v8.094h-3.406v-8.094q0-1.078-.422-1.562-.422-.5-1.485-.5-1.531 0-2.11 1.453l.017 8.703h-3.391v-8.078q0-1.094-.438-1.578-.437-.5-1.468-.5-1.453 0-2.094 1.187v8.97h-3.39v-12.688h3.187zm29.027 6.468q0 3.047-1.312 4.75-1.297 1.703-3.625 1.703-2.063 0-3.297-1.578l-.157 1.344h-3.046v-18h3.39v6.453q1.172-1.375 3.078-1.375 2.328 0 3.641 1.719 1.328 1.703 1.328 4.797v.187zm-3.39-.25q0-1.922-.61-2.797-.61-.89-1.812-.89-1.625 0-2.235 1.312v5.016q.625 1.328 2.25 1.328 1.64 0 2.156-1.61.25-.78.25-2.359zm9.042 6.47h-3.39v-18h3.39v18zm8.63.233q-2.798 0-4.548-1.703-1.75-1.718-1.75-4.562v-.328q0-1.922.735-3.422.75-1.5 2.094-2.313 1.359-.828 3.093-.828 2.594 0 4.094 1.64 1.5 1.641 1.5 4.657v1.39h-8.078q.156 1.235.984 1.985t2.094.75q1.953 0 3.063-1.422l1.656 1.875q-.75 1.078-2.063 1.688-1.297.593-2.875.593zm-.391-10.406q-1 0-1.64.688-.626.672-.798 1.937h4.719v-.265q-.031-1.125-.625-1.735-.578-.625-1.656-.625zm14.644.672q-.687-.094-1.218-.094-1.922 0-2.516 1.297v8.297h-3.39v-12.687h3.202l.094 1.515q1.016-1.75 2.828-1.75.563 0 1.047.156l-.047 3.266z"/></g></svg>