<svg fill="none" stroke-linecap="square" stroke-miterlimit="10" width="704" height="439" xmlns="http://www.w3.org/2000/svg"><path fill="#fff" d="M0 0h704v439H0V0z"/><path fill="#fff" d="M0 0h704v439H0V0z"/><path stroke="#333" stroke-linecap="butt" d="M105.5 366.5h577"/><path stroke="#ccc" stroke-linecap="butt" d="M105.5 254.5h577m-577-113h577m-577-112h577"/><clipPath id="a"><path d="M105.95 29.45h576.1v336.967h-576.1V29.45z"/></clipPath><path fill="#0b5394" clip-path="url(#a)" d="M180 366h-28V236a2 2 0 0 1 2-2h24a2 2 0 0 1 2 2zm133 0h-28V58a2 2 0 0 1 2-2h24a2 2 0 0 1 2 2zm132 0h-28V162a2 2 0 0 1 2-2h24a2 2 0 0 1 2 2zm133 0h-28V148a2 2 0 0 1 2-2h24a2 2 0 0 1 2 2z"/><path fill="#073763" clip-path="url(#a)" d="M209 366h-28V233a2 2 0 0 1 2-2h24a2 2 0 0 1 2 2zm133 0h-28V233a2 2 0 0 1 2-2h24a2 2 0 0 1 2 2zm132 0h-28V158a2 2 0 0 1 2-2h24a2 2 0 0 1 2 2zm133 0h-28V146a2 2 0 0 1 2-2h24a2 2 0 0 1 2 2z"/><path fill="#e69138" clip-path="url(#a)" d="M238 366h-28v-42a2 2 0 0 1 2-2h24a2 2 0 0 1 2 2zm133 0h-28V219a2 2 0 0 1 2-2h24a2 2 0 0 1 2 2zm132 0h-28V218a2 2 0 0 1 2-2h24a2 2 0 0 1 2 2zm133 0h-28V208a2 2 0 0 1 2-2h24a2 2 0 0 1 2 2z"/><path fill="#b7b7b7" d="M30.012 281.87v3.704h3.016v-4.297h.922v5.422h-8.531v-5.375h.922v4.25h2.75v-3.703h.921zm-.093-4.14l-2.313-1.406v-1.266l3.14 2.078 3.204-2.14v1.25l-2.375 1.469 2.375 1.468v1.266l-3.203-2.14-3.14 2.062v-1.25l2.312-1.39zm4.156-6.5q0 1.297-.844 2.11-.86.796-2.281.796h-.188q-.953 0-1.687-.359-.75-.36-1.156-1-.422-.656-.422-1.406 0-1.235.812-1.922.813-.688 2.328-.688h.454v4.297q.937-.03 1.515-.547.578-.53.578-1.343 0-.563-.234-.953-.234-.407-.625-.72l.516-.655q1.234.796 1.234 2.39zm-5.688.14q0 .657.485 1.11.469.438 1.328.531v-3.171h-.078q-.828.046-1.281.453-.454.39-.454 1.078zm4.797-6.046q0-.578-.343-1.016-.36-.437-.891-.484v-1.031q.547.03 1.047.39.484.344.781.922.297.563.297 1.219 0 1.297-.86 2.062-.874.75-2.374.75h-.188q-.922 0-1.64-.328-.72-.343-1.11-.968-.406-.641-.406-1.516 0-1.063.64-1.766.625-.718 1.657-.765v1.03q-.625.048-1.016.47-.39.422-.39 1.03 0 .83.593 1.282.594.453 1.719.453h.203q1.094 0 1.688-.453.593-.453.593-1.281zm.141-7.375q.75.625.75 1.86 0 1.015-.594 1.546-.594.531-1.75.531h-4.125v-1.078H31.7q1.453 0 1.453-1.172 0-1.25-.937-1.656h-4.61v-1.094h6.344v1.032l-.625.03zm-7.25-4.563h1.531v-1.171h.844v1.171h3.922q.39 0 .578-.156.187-.156.187-.531 0-.188-.062-.516h.875q.125.422.125.828 0 .72-.438 1.094-.453.375-1.265.375H28.45v1.156h-.844v-1.156h-1.531v-1.094zm7.875-3.703v1.078h-6.344v-1.078h6.344zm-8.016 1.172q-.265 0-.453-.156-.187-.172-.187-.484 0-.313.187-.47.188-.171.453-.171.25 0 .438.172.172.156.172.469 0 .312-.172.484-.188.156-.438.156zm4.782-2.703q-.922 0-1.672-.36-.75-.374-1.14-1.03-.407-.657-.407-1.485 0-1.297.89-2.094.891-.812 2.391-.812h.078q.922 0 1.656.36.735.359 1.157 1.015.406.656.406 1.515 0 1.282-.89 2.094-.907.797-2.391.797h-.078zm.14-1.094q1.047 0 1.688-.484.64-.5.64-1.313 0-.828-.64-1.312-.657-.484-1.828-.484-1.032 0-1.672.5-.657.484-.657 1.312 0 .797.641 1.297.625.484 1.828.484zm-3.25-7.218l.797-.032q-.906-.734-.906-1.906 0-2.016 2.265-2.031h4.188v1.094h-4.203q-.672 0-1 .312-.328.297-.328.953 0 .531.281.938.281.39.734.61h4.516v1.077h-6.344v-1.015zm-1.531-10.454h1.531v-1.171h.844v1.171h3.922q.39 0 .578-.156.187-.156.187-.531 0-.188-.062-.516h.875q.125.422.125.828 0 .72-.438 1.094-.453.375-1.265.375H28.45v1.156h-.844v-1.156h-1.531v-1.094zm7.875-3.703v1.078h-6.344v-1.078h6.344zm-8.016 1.172q-.265 0-.453-.156-.187-.172-.187-.484 0-.313.187-.47.188-.171.453-.171.25 0 .438.172.172.156.172.469 0 .312-.172.484-.188.156-.438.156zm1.672-4.015l.703-.032q-.812-.687-.812-1.875 0-1.328 1.015-1.812-.453-.313-.734-.813-.281-.515-.281-1.203 0-2.094 2.203-2.125h4.25v1.078h-4.188q-.671 0-1 .313-.343.312-.343 1.047 0 .61.36 1.015.358.391.968.453h4.203v1.079h-4.156q-1.375 0-1.375 1.359 0 1.062.906 1.453h4.625v1.094h-6.344v-1.031zm6.469-12.61q0 1.297-.844 2.11-.86.796-2.281.796h-.188q-.953 0-1.687-.359-.75-.36-1.156-1-.422-.656-.422-1.406 0-1.235.812-1.922.813-.688 2.328-.688h.454v4.297q.937-.03 1.515-.547.578-.53.578-1.343 0-.563-.234-.953-.234-.407-.625-.72l.516-.655q1.234.796 1.234 2.39zm-5.688.14q0 .657.485 1.11.469.438 1.328.531v-3.171h-.078q-.828.046-1.281.453-.454.39-.454 1.078zm2.094-6.468q-1.312 0-2.531-.344-1.219-.359-2.219-1.062-1-.703-1.406-1.469l.719-.219q.656.86 2 1.407 1.343.546 3.015.593l.5.016q2.266 0 3.922-.828 1-.5 1.563-1.188l.656.22q-.422.78-1.453 1.5-1.985 1.374-4.766 1.374zm3.469-5.219v1.078h-9v-1.078h9zm-3.234-1.53q-.922 0-1.672-.36-.75-.375-1.14-1.032-.407-.656-.407-1.484 0-1.297.89-2.094.891-.812 2.391-.812h.078q.922 0 1.656.36.735.359 1.157 1.015.406.656.406 1.515 0 1.282-.89 2.094-.907.797-2.391.797h-.078zm.14-1.095q1.047 0 1.688-.484.64-.5.64-1.313 0-.828-.64-1.312-.657-.484-1.828-.484-1.032 0-1.672.5-.657.484-.657 1.312 0 .797.641 1.297.625.484 1.828.484zm1.594-11.812l-4.844-1.219v-1.078l6.344 1.844v.875l-4.813 1.547 4.813 1.5v.875l-6.344 1.843v-1.078l4.75-1.25-4.75-1.484v-.86l4.844-1.515zm1.625-6.016q0 1.297-.844 2.11-.86.796-2.281.796h-.188q-.953 0-1.687-.359-.75-.36-1.156-1-.422-.656-.422-1.406 0-1.235.812-1.922.813-.688 2.328-.688h.454v4.297q.937-.03 1.515-.547.578-.53.578-1.343 0-.563-.234-.953-.234-.407-.625-.72l.516-.655q1.234.796 1.234 2.39zm-5.688.14q0 .657.485 1.11.469.438 1.328.531v-3.171h-.078q-.828.046-1.281.453-.454.39-.454 1.078zm.188-6.577q-.031.25-.031.531 0 1.078.906 1.453h4.5v1.078h-6.344v-1.047l.735-.015q-.844-.532-.844-1.516 0-.312.078-.484h1zm5.375-5.11v1.078h-6.344v-1.078h6.344zm-8.016 1.172q-.265 0-.453-.156-.187-.172-.187-.484 0-.313.187-.47.188-.171.453-.171.25 0 .438.172.172.156.172.469 0 .312-.172.484-.188.156-.438.156zm6.328-6.687q-.437 0-.671.343-.25.329-.422 1.157-.172.812-.422 1.297-.25.484-.578.718-.344.22-.813.22-.781 0-1.312-.657-.547-.656-.547-1.688 0-1.078.562-1.734.547-.672 1.407-.672v1.078q-.438 0-.75.39-.329.376-.329.938 0 .594.266.938.25.328.656.328.391 0 .594-.313.203-.312.39-1.125.173-.812.423-1.312t.609-.734q.36-.25.86-.25.859 0 1.374.687.516.672.516 1.75 0 .766-.266 1.36-.28.578-.765.906-.485.328-1.047.328v-1.078q.547-.032.875-.438.312-.406.312-1.078 0-.61-.25-.984-.25-.375-.672-.375zm-1.406-10.672q1.453 0 2.344.672.875.656.875 1.78 0 1.204-.86 1.86l.735.063v.984h-9v-1.078h3.36q-.813-.656-.813-1.812 0-1.157.875-1.813.86-.656 2.39-.656h.094zm-.125 1.078q-1.11 0-1.703.437-.61.422-.61 1.22 0 1.077.985 1.546h2.75q1-.5 1-1.547 0-.781-.61-1.219-.609-.437-1.812-.437zm3.344-5.344q0 1.297-.844 2.11-.86.796-2.281.796h-.188q-.953 0-1.687-.359-.75-.36-1.156-1-.422-.656-.422-1.406 0-1.235.812-1.922.813-.688 2.328-.688h.454v4.297q.937-.03 1.515-.547.578-.53.578-1.343 0-.563-.234-.953-.234-.407-.625-.72l.516-.655q1.234.796 1.234 2.39zm-5.688.14q0 .657.485 1.11.469.438 1.328.531v-3.171h-.078q-.828.046-1.281.453-.454.39-.454 1.078zm-2.312-4.984h1.531v-1.171h.844v1.171h3.922q.39 0 .578-.156.187-.156.187-.531 0-.188-.062-.516h.875q.125.422.125.828 0 .72-.438 1.094-.453.375-1.265.375H28.45v1.156h-.844v-1.156h-1.531v-1.094zm0-4h1.531v-1.171h.844v1.171h3.922q.39 0 .578-.156.187-.156.187-.531 0-.188-.062-.516h.875q.125.422.125.828 0 .72-.438 1.094-.453.375-1.265.375H28.45v1.156h-.844v-1.156h-1.531v-1.094zm8-5.156q0 1.297-.844 2.11-.86.796-2.281.796h-.188q-.953 0-1.687-.359-.75-.36-1.156-1-.422-.656-.422-1.406 0-1.235.812-1.922.813-.688 2.328-.688h.454v4.297q.937-.03 1.515-.547.578-.53.578-1.343 0-.563-.234-.953-.234-.407-.625-.72l.516-.655q1.234.796 1.234 2.39zm-5.688.14q0 .657.485 1.11.469.438 1.328.531v-3.171h-.078q-.828.046-1.281.453-.454.39-.454 1.078zm.188-6.577q-.031.25-.031.53 0 1.08.906 1.454h4.5v1.078h-6.344v-1.047l.735-.015q-.844-.532-.844-1.516 0-.312.078-.484h1zm1.969-3.438q1.312 0 2.515.344 1.188.344 2.203 1.062 1.016.704 1.438 1.47l-.656.234q-.688-.907-2.14-1.454-1.47-.546-3.235-.562h-.188q-1.234 0-2.297.266-1.062.25-1.89.718-.844.453-1.313 1.032l-.656-.235q.422-.765 1.422-1.469 1-.703 2.219-1.046 1.203-.36 2.578-.36z"/><path fill="#757575" d="M82.013 367.276q0 1.906-.657 2.844-.64.922-2.031.922-1.36 0-2.016-.907-.656-.906-.687-2.718v-1.438q0-1.89.64-2.797.657-.922 2.047-.922 1.375 0 2.032.891.656.875.672 2.719v1.406zm-1.094-1.484q0-1.375-.39-2-.376-.641-1.22-.641-.828 0-1.218.64-.375.626-.375 1.923v1.734q0 1.375.39 2.047.407.656 1.219.656.797 0 1.188-.625.39-.625.406-1.953v-1.781zm3.875-1.22l.031.704q.688-.812 1.875-.812 1.328 0 1.813 1.015.312-.453.812-.734.516-.281 1.203-.281 2.094 0 2.125 2.203v4.25h-1.078v-4.188q0-.672-.313-1-.312-.344-1.046-.344-.61 0-1.016.36-.39.36-.453.969v4.203h-1.078v-4.157q0-1.375-1.36-1.375-1.062 0-1.453.907v4.625h-1.093v-6.344h1.03zm13.672 4.657q0-.437-.344-.672-.328-.25-1.156-.422-.813-.171-1.297-.421-.485-.25-.719-.579-.219-.343-.219-.812 0-.781.657-1.313.656-.546 1.687-.546 1.078 0 1.734.562.672.547.672 1.406h-1.078q0-.437-.39-.75-.376-.328-.938-.328-.594 0-.938.266-.328.25-.328.656 0 .39.313.594.312.203 1.125.39.812.172 1.312.422t.735.61q.25.359.25.859 0 .86-.688 1.375-.672.516-1.75.516-.765 0-1.36-.266-.577-.281-.905-.766-.328-.484-.328-1.046h1.078q.03.546.437.875.406.312 1.078.312.61 0 .985-.25t.375-.672zM61.247 258.594h-5.594v-.78l2.953-3.282q.657-.75.907-1.203.25-.469.25-.969 0-.672-.407-1.094-.39-.437-1.078-.437-.797 0-1.25.469-.453.453-.453 1.28h-1.078q0-1.187.75-1.905.766-.735 2.031-.735 1.203 0 1.89.625.688.625.688 1.672 0 1.25-1.61 3l-2.28 2.469h4.28v.89zm6.766-3.64q0 1.906-.657 2.844-.64.921-2.031.921-1.36 0-2.016-.906-.656-.906-.687-2.719v-1.437q0-1.89.64-2.797.657-.922 2.047-.922 1.375 0 2.032.89.656.876.672 2.72v1.406zm-1.094-1.485q0-1.375-.39-2-.376-.64-1.22-.64-.828 0-1.218.64-.375.625-.375 1.922v1.735q0 1.375.39 2.047.407.656 1.219.656.797 0 1.188-.625.39-.625.406-1.953v-1.782zm8.094 1.485q0 1.906-.657 2.844-.64.921-2.031.921-1.36 0-2.016-.906-.656-.906-.687-2.719v-1.437q0-1.89.64-2.797.657-.922 2.047-.922 1.375 0 2.032.89.656.876.672 2.72v1.406zm-1.094-1.485q0-1.375-.39-2-.376-.64-1.22-.64-.828 0-1.218.64-.375.625-.375 1.922v1.735q0 1.375.39 2.047.407.656 1.219.656.797 0 1.188-.625.39-.625.406-1.953v-1.782zm8.094 1.485q0 1.906-.657 2.844-.64.921-2.031.921-1.36 0-2.016-.906-.656-.906-.687-2.719v-1.437q0-1.89.64-2.797.657-.922 2.047-.922 1.375 0 2.032.89.656.876.672 2.72v1.406zm-1.094-1.485q0-1.375-.39-2-.376-.64-1.22-.64-.828 0-1.218.64-.375.625-.375 1.922v1.735q0 1.375.39 2.047.407.656 1.219.656.797 0 1.188-.625.39-.625.406-1.953v-1.782zm3.875-1.218l.031.703q.688-.813 1.875-.813 1.328 0 1.813 1.016.312-.453.812-.734.516-.282 1.203-.282 2.094 0 2.125 2.203v4.25h-1.078v-4.187q0-.672-.313-1-.312-.344-1.046-.344-.61 0-1.016.36-.39.359-.453.968v4.203h-1.078v-4.156q0-1.375-1.36-1.375-1.062 0-1.453.906v4.625h-1.093v-6.343h1.03zm13.672 4.656q0-.438-.344-.672-.328-.25-1.156-.422-.813-.172-1.297-.422-.485-.25-.719-.578-.219-.344-.219-.812 0-.782.657-1.313.656-.547 1.687-.547 1.078 0 1.734.563.672.547.672 1.406h-1.078q0-.437-.39-.75-.376-.328-.938-.328-.594 0-.938.266-.328.25-.328.656 0 .39.313.594.312.203 1.125.39.812.172 1.312.422t.735.61q.25.359.25.859 0 .86-.688 1.375-.672.515-1.75.515-.765 0-1.36-.265-.577-.281-.905-.766-.328-.484-.328-1.047h1.078q.03.547.437.875.406.313 1.078.313.61 0 .985-.25t.375-.672zM60.231 143.413h1.188v.875H60.23v1.984h-1.078v-1.984h-3.89v-.64l3.812-5.907h1.156v5.672zm-3.734 0h2.656v-4.188l-.14.235-2.516 3.953zm11.516-.781q0 1.906-.657 2.843-.64.922-2.031.922-1.36 0-2.016-.906-.656-.906-.687-2.719v-1.437q0-1.89.64-2.797.657-.922 2.047-.922 1.375 0 2.032.89.656.876.672 2.72v1.406zm-1.094-1.485q0-1.375-.39-2-.376-.64-1.22-.64-.828 0-1.218.64-.375.625-.375 1.922v1.734q0 1.375.39 2.047.407.657 1.219.657.797 0 1.188-.625.39-.625.406-1.954v-1.78zm8.094 1.485q0 1.906-.657 2.843-.64.922-2.031.922-1.36 0-2.016-.906-.656-.906-.687-2.719v-1.437q0-1.89.64-2.797.657-.922 2.047-.922 1.375 0 2.032.89.656.876.672 2.72v1.406zm-1.094-1.485q0-1.375-.39-2-.376-.64-1.22-.64-.828 0-1.218.64-.375.625-.375 1.922v1.734q0 1.375.39 2.047.407.657 1.219.657.797 0 1.188-.625.39-.625.406-1.954v-1.78zm8.094 1.485q0 1.906-.657 2.843-.64.922-2.031.922-1.36 0-2.016-.906-.656-.906-.687-2.719v-1.437q0-1.89.64-2.797.657-.922 2.047-.922 1.375 0 2.032.89.656.876.672 2.72v1.406zm-1.094-1.485q0-1.375-.39-2-.376-.64-1.22-.64-.828 0-1.218.64-.375.625-.375 1.922v1.734q0 1.375.39 2.047.407.657 1.219.657.797 0 1.188-.625.39-.625.406-1.954v-1.78zm3.875-1.219l.031.704q.688-.813 1.875-.813 1.328 0 1.813 1.016.312-.453.812-.735.516-.28 1.203-.28 2.094 0 2.125 2.202v4.25h-1.078v-4.187q0-.672-.313-1-.312-.344-1.046-.344-.61 0-1.016.36-.39.359-.453.968v4.203h-1.078v-4.156q0-1.375-1.36-1.375-1.062 0-1.453.906v4.625h-1.093v-6.344h1.03zm13.672 4.657q0-.438-.344-.672-.328-.25-1.156-.422-.813-.172-1.297-.422-.485-.25-.719-.578-.219-.344-.219-.813 0-.78.657-1.312.656-.547 1.687-.547 1.078 0 1.734.563.672.546.672 1.406h-1.078q0-.438-.39-.75-.376-.328-.938-.328-.594 0-.938.265-.328.25-.328.657 0 .39.313.593.312.203 1.125.391.812.172 1.312.422t.735.61q.25.359.25.859 0 .859-.688 1.375-.672.515-1.75.515-.765 0-1.36-.265-.577-.282-.905-.766-.328-.484-.328-1.047h1.078q.03.547.437.875.406.313 1.078.313.61 0 .985-.25t.375-.672zM59.919 25.419v.906h-.203q-1.266.031-2.016.766-.75.718-.875 2.03.688-.765 1.844-.765 1.11 0 1.781.781.672.782.672 2.032 0 1.312-.719 2.11-.719.796-1.937.796-1.22 0-1.985-.938-.75-.953-.75-2.437v-.406q0-2.36 1-3.61t2.985-1.265h.203zm-1.422 3.843q-.563 0-1.031.329-.47.328-.657.843v.391q0 1.063.47 1.703.483.64 1.187.64.734 0 1.156-.53.422-.547.422-1.422 0-.875-.422-1.407-.422-.547-1.125-.547zm9.516 1.047q0 1.907-.657 2.844-.64.922-2.031.922-1.36 0-2.016-.906-.656-.906-.687-2.719v-1.438q0-1.89.64-2.796.657-.922 2.047-.922 1.375 0 2.032.89.656.875.672 2.72v1.405zm-1.094-1.484q0-1.375-.39-2-.376-.64-1.22-.64-.828 0-1.218.64-.375.625-.375 1.922v1.734q0 1.375.39 2.047.407.656 1.219.656.797 0 1.188-.625.39-.625.406-1.953v-1.781zm8.094 1.484q0 1.907-.657 2.844-.64.922-2.031.922-1.36 0-2.016-.906-.656-.906-.687-2.719v-1.438q0-1.89.64-2.796.657-.922 2.047-.922 1.375 0 2.032.89.656.875.672 2.72v1.405zm-1.094-1.484q0-1.375-.39-2-.376-.64-1.22-.64-.828 0-1.218.64-.375.625-.375 1.922v1.734q0 1.375.39 2.047.407.656 1.219.656.797 0 1.188-.625.39-.625.406-1.953v-1.781zm8.094 1.484q0 1.907-.657 2.844-.64.922-2.031.922-1.36 0-2.016-.906-.656-.906-.687-2.719v-1.438q0-1.89.64-2.796.657-.922 2.047-.922 1.375 0 2.032.89.656.875.672 2.72v1.405zm-1.094-1.484q0-1.375-.39-2-.376-.64-1.22-.64-.828 0-1.218.64-.375.625-.375 1.922v1.734q0 1.375.39 2.047.407.656 1.219.656.797 0 1.188-.625.39-.625.406-1.953v-1.781zm3.875-1.219l.031.703q.688-.812 1.875-.812 1.328 0 1.813 1.015.312-.453.812-.734.516-.281 1.203-.281 2.094 0 2.125 2.203v4.25h-1.078v-4.188q0-.671-.313-1-.312-.343-1.046-.343-.61 0-1.016.36-.39.358-.453.968v4.203h-1.078v-4.156q0-1.375-1.36-1.375-1.062 0-1.453.906v4.625h-1.093v-6.344h1.03zm13.672 4.657q0-.438-.344-.672-.328-.25-1.156-.422-.813-.172-1.297-.422-.485-.25-.719-.578-.219-.344-.219-.813 0-.781.657-1.312.656-.547 1.687-.547 1.078 0 1.734.562.672.547.672 1.407h-1.078q0-.438-.39-.75-.376-.329-.938-.329-.594 0-.938.266-.328.25-.328.656 0 .391.313.594.312.203 1.125.39.812.173 1.312.423t.735.609q.25.36.25.86 0 .859-.688 1.374-.672.516-1.75.516-.765 0-1.36-.266-.577-.28-.905-.765-.328-.485-.328-1.047h1.078q.03.547.437.875.406.312 1.078.312.61 0 .985-.25t.375-.671zm79.114 352.154q-.095-.188-.157-.672-.75.797-1.797.797-.937 0-1.547-.532-.594-.53-.594-1.359 0-.984.75-1.531.75-.547 2.125-.547h1.047v-.5q0-.563-.343-.89-.329-.344-1-.344-.579 0-.97.296-.39.282-.39.704h-1.094q0-.485.329-.922.343-.438.921-.688.579-.265 1.266-.265 1.11 0 1.719.546.625.547.656 1.5v2.922q0 .875.219 1.39v.095h-1.14zm-1.798-.828q.516 0 .97-.266.452-.266.655-.688v-1.296h-.843q-2 0-2 1.171 0 .5.343.797.344.282.875.282zm4.907.265q0-.281.156-.469.172-.187.5-.187.344 0 .515.187.172.188.172.47 0 .265-.172.452-.171.172-.515.172-.328 0-.5-.172-.156-.187-.156-.453zm8.328-2.531q0 1.437-.657 2.328-.656.89-1.796.89-1.157 0-1.813-.734v3.047h-1.078v-8.781h.984l.047.703q.672-.812 1.844-.812 1.14 0 1.797.859.672.86.672 2.39v.11zm-1.078-.125q0-1.078-.47-1.688-.452-.625-1.25-.625-.984 0-1.468.86v3.031q.484.875 1.484.875.782 0 1.235-.61.469-.624.469-1.843zm6.64 2.594q-.625.75-1.86.75-1.015 0-1.546-.594-.531-.594-.531-1.75v-4.125h1.078v4.094q0 1.453 1.172 1.453 1.25 0 1.656-.938v-4.61h1.094v6.345h-1.032l-.03-.625zm6.781-1.063q0-.437-.343-.672-.328-.25-1.157-.422-.812-.171-1.296-.421-.485-.25-.72-.579-.218-.343-.218-.812 0-.781.656-1.313.657-.546 1.688-.546 1.078 0 1.734.562.672.547.672 1.406h-1.078q0-.437-.39-.75-.376-.328-.938-.328-.594 0-.938.266-.328.25-.328.656 0 .39.313.594.312.203 1.125.39.812.172 1.312.422t.735.61q.25.359.25.859 0 .86-.688 1.375-.672.516-1.75.516-.766 0-1.36-.266-.577-.281-.906-.766-.328-.484-.328-1.046h1.078q.032.546.438.875.406.312 1.078.312.61 0 .984-.25.375-.25.375-.672zm3.391-3.89q.719-.875 1.875-.875 2.016 0 2.031 2.265v4.188h-1.093v-4.203q0-.672-.313-1-.297-.329-.953-.329-.531 0-.938.282-.39.28-.609.734v4.516h-1.078v-9h1.078v3.422zm5.875 2.109q0-1.313.344-2.531.36-1.22 1.062-2.22.703-1 1.47-1.405l.218.718q-.86.657-1.406 2-.547 1.344-.594 3.016l-.016.5q0 2.266.828 3.922.5 1 1.188 1.562l-.219.657q-.781-.422-1.5-1.453-1.375-1.985-1.375-4.766zm6.547.062q0 1.313-.344 2.516-.344 1.188-1.062 2.203-.703 1.016-1.469 1.438l-.234-.657q.906-.687 1.453-2.14.547-1.469.562-3.235v-.187q0-1.234-.265-2.297-.25-1.062-.72-1.89-.452-.844-1.03-1.313l.234-.656q.766.422 1.469 1.422.703 1 1.047 2.218.359 1.203.359 2.578zm89.343 3.407q-.094-.188-.156-.672-.75.797-1.797.797-.938 0-1.547-.532-.594-.53-.594-1.359 0-.984.75-1.531.75-.547 2.125-.547h1.047v-.5q0-.563-.344-.89-.328-.344-1-.344-.578 0-.968.296-.391.282-.391.704h-1.094q0-.485.328-.922.344-.438.922-.688.578-.265 1.266-.265 1.11 0 1.719.546.625.547.656 1.5v2.922q0 .875.219 1.39v.095h-1.141zm-1.797-.828q.516 0 .969-.266.453-.266.656-.688v-1.296h-.844q-2 0-2 1.171 0 .5.344.797.344.282.875.282zm4.906.265q0-.281.157-.469.172-.187.5-.187.343 0 .515.187.172.188.172.47 0 .265-.172.452-.172.172-.515.172-.328 0-.5-.172-.157-.187-.157-.453zm8.329-2.531q0 1.437-.657 2.328-.656.89-1.797.89-1.156 0-1.812-.734v3.047h-1.078v-8.781h.984l.047.703q.672-.812 1.844-.812 1.14 0 1.797.859.672.86.672 2.39v.11zm-1.079-.125q0-1.078-.468-1.688-.453-.625-1.25-.625-.985 0-1.47.86v3.031q.485.875 1.485.875.781 0 1.235-.61.468-.624.468-1.843zm6.641 2.594q-.625.75-1.86.75-1.015 0-1.546-.594-.531-.594-.531-1.75v-4.125h1.078v4.094q0 1.453 1.172 1.453 1.25 0 1.656-.938v-4.61h1.094v6.345h-1.032l-.031-.625zm6.781-1.063q0-.437-.344-.672-.328-.25-1.156-.422-.812-.171-1.297-.421-.484-.25-.718-.579-.22-.343-.22-.812 0-.781.657-1.313.656-.546 1.688-.546 1.078 0 1.734.562.672.547.672 1.406h-1.078q0-.437-.39-.75-.376-.328-.938-.328-.594 0-.938.266-.328.25-.328.656 0 .39.313.594.312.203 1.125.39.812.172 1.312.422t.734.61q.25.359.25.859 0 .86-.687 1.375-.672.516-1.75.516-.766 0-1.36-.266-.578-.281-.906-.766-.328-.484-.328-1.046h1.078q.031.546.438.875.406.312 1.078.312.61 0 .984-.25.375-.25.375-.672zm3.39-3.89q.72-.875 1.876-.875 2.016 0 2.031 2.265v4.188H336.5v-4.203q0-.672-.312-1-.297-.329-.953-.329-.531 0-.938.282-.39.28-.61.734v4.516h-1.077v-9h1.078v3.422zm5.876 2.109q0-1.313.344-2.531.359-1.22 1.062-2.22.703-1 1.469-1.405l.219.718q-.86.657-1.407 2-.546 1.344-.593 3.016l-.016.5q0 2.266.828 3.922.5 1 1.188 1.562l-.22.657q-.78-.422-1.5-1.453-1.374-1.985-1.374-4.766zm7.484 3.469h-1.078v-7.22l-2.187.798v-.985l3.109-1.171h.156v8.578zm6.063-3.407q0 1.313-.344 2.516-.344 1.188-1.063 2.203-.703 1.016-1.468 1.438l-.235-.657q.907-.687 1.454-2.14.546-1.469.562-3.235v-.187q0-1.234-.266-2.297-.25-1.062-.718-1.89-.453-.844-1.032-1.313l.235-.656q.765.422 1.469 1.422.703 1 1.046 2.218.36 1.203.36 2.578zm81.343 3.407q-.094-.188-.156-.672-.75.797-1.797.797-.938 0-1.547-.532-.594-.53-.594-1.359 0-.984.75-1.531.75-.547 2.125-.547h1.047v-.5q0-.563-.344-.89-.328-.344-1-.344-.578 0-.969.296-.39.282-.39.704h-1.094q0-.485.328-.922.344-.438.922-.688.578-.265 1.266-.265 1.109 0 1.718.546.625.547.657 1.5v2.922q0 .875.218 1.39v.095h-1.14zm-1.797-.828q.515 0 .969-.266.453-.266.656-.688v-1.296h-.844q-2 0-2 1.171 0 .5.344.797.344.282.875.282zm4.906.265q0-.281.156-.469.172-.187.5-.187.344 0 .516.187.172.188.172.47 0 .265-.172.452-.172.172-.516.172-.328 0-.5-.172-.156-.187-.156-.453zm8.328-2.531q0 1.437-.656 2.328-.656.89-1.797.89-1.156 0-1.812-.734v3.047h-1.079v-8.781h.985l.047.703q.672-.812 1.844-.812 1.14 0 1.796.859.672.86.672 2.39v.11zm-1.078-.125q0-1.078-.469-1.688-.453-.625-1.25-.625-.984 0-1.468.86v3.031q.484.875 1.484.875.781 0 1.234-.61.47-.624.47-1.843zm6.64 2.594q-.624.75-1.859.75-1.015 0-1.547-.594-.53-.594-.53-1.75v-4.125h1.077v4.094q0 1.453 1.172 1.453 1.25 0 1.656-.938v-4.61h1.094v6.345h-1.031l-.031-.625zm6.782-1.063q0-.437-.344-.672-.328-.25-1.156-.422-.813-.171-1.297-.421-.484-.25-.719-.579-.218-.343-.218-.812 0-.781.656-1.313.656-.546 1.687-.546 1.078 0 1.735.562.672.547.672 1.406h-1.079q0-.437-.39-.75-.375-.328-.938-.328-.593 0-.937.266-.328.25-.328.656 0 .39.312.594.313.203 1.125.39.813.172 1.313.422t.734.61q.25.359.25.859 0 .86-.687 1.375-.672.516-1.75.516-.766 0-1.36-.266-.578-.281-.906-.766-.328-.484-.328-1.046h1.078q.031.546.438.875.406.312 1.078.312.609 0 .984-.25t.375-.672zm3.39-3.89q.72-.875 1.876-.875 2.015 0 2.03 2.265v4.188h-1.093v-4.203q0-.672-.312-1-.297-.329-.954-.329-.53 0-.937.282-.39.28-.61.734v4.516h-1.078v-9h1.079v3.422zm5.876 2.109q0-1.313.343-2.531.36-1.22 1.063-2.22.703-1 1.469-1.405l.218.718q-.859.657-1.406 2-.547 1.344-.594 3.016l-.015.5q0 2.266.828 3.922.5 1 1.187 1.562l-.218.657q-.782-.422-1.5-1.453-1.375-1.985-1.375-4.766zm7.484 3.469h-1.078v-7.22l-2.188.798v-.985l3.11-1.171h.156v8.578zm3.516 1.703l-.61-.422q.547-.766.578-1.594v-.969h1.063v.844q0 .594-.297 1.188-.297.593-.734.953zm7.515-1.703h-5.594v-.782l2.954-3.28q.656-.75.906-1.204.25-.469.25-.969 0-.672-.406-1.093-.391-.438-1.079-.438-.796 0-1.25.469-.453.453-.453 1.281h-1.078q0-1.187.75-1.906.766-.735 2.031-.735 1.204 0 1.891.625.688.625.688 1.672 0 1.25-1.61 3l-2.281 2.469h4.281v.89zm4.031-3.407q0 1.313-.343 2.516-.344 1.188-1.063 2.203-.703 1.016-1.469 1.438l-.234-.657q.906-.687 1.453-2.14.547-1.469.563-3.235v-.187q0-1.234-.266-2.297-.25-1.062-.719-1.89-.453-.844-1.03-1.313l.233-.656q.766.422 1.47 1.422.702 1 1.046 2.218.36 1.203.36 2.578zm72.344 3.407q-.094-.188-.157-.672-.75.797-1.797.797-.937 0-1.547-.532-.593-.53-.593-1.359 0-.984.75-1.531.75-.547 2.125-.547h1.047v-.5q0-.563-.344-.89-.328-.344-1-.344-.578 0-.969.296-.39.282-.39.704h-1.094q0-.485.328-.922.344-.438.922-.688.578-.265 1.265-.265 1.11 0 1.72.546.624.547.655 1.5v2.922q0 .875.22 1.39v.095h-1.141zm-1.797-.828q.515 0 .968-.266.453-.266.657-.688v-1.296h-.844q-2 0-2 1.171 0 .5.344.797.343.282.875.282zm4.906.265q0-.281.156-.469.172-.187.5-.187.344 0 .516.187.172.188.172.47 0 .265-.172.452-.172.172-.516.172-.328 0-.5-.172-.156-.187-.156-.453zm8.328-2.531q0 1.437-.656 2.328-.657.89-1.797.89-1.156 0-1.813-.734v3.047h-1.078v-8.781h.985l.047.703q.671-.812 1.843-.812 1.14 0 1.797.859.672.86.672 2.39v.11zm-1.078-.125q0-1.078-.469-1.688-.453-.625-1.25-.625-.984 0-1.469.86v3.031q.485.875 1.485.875.781 0 1.234-.61.469-.624.469-1.843zm6.64 2.594q-.625.75-1.859.75-1.015 0-1.547-.594-.531-.594-.531-1.75v-4.125h1.078v4.094q0 1.453 1.172 1.453 1.25 0 1.656-.938v-4.61h1.094v6.345h-1.031l-.032-.625zm6.782-1.063q0-.437-.344-.672-.328-.25-1.156-.422-.813-.171-1.297-.421-.485-.25-.719-.579-.219-.343-.219-.812 0-.781.657-1.313.656-.546 1.687-.546 1.078 0 1.735.562.671.547.671 1.406h-1.078q0-.437-.39-.75-.375-.328-.938-.328-.594 0-.937.266-.328.25-.328.656 0 .39.312.594.313.203 1.125.39.813.172 1.313.422t.734.61q.25.359.25.859 0 .86-.688 1.375-.672.516-1.75.516-.765 0-1.359-.266-.578-.281-.906-.766-.328-.484-.328-1.046h1.078q.031.546.437.875.407.312 1.078.312.61 0 .985-.25t.375-.672zm3.39-3.89q.72-.875 1.875-.875 2.016 0 2.032 2.265v4.188h-1.094v-4.203q0-.672-.313-1-.297-.329-.953-.329-.531 0-.937.282-.39.28-.61.734v4.516h-1.078v-9h1.078v3.422zm5.875 2.109q0-1.313.344-2.531.36-1.22 1.063-2.22.703-1 1.468-1.405l.22.718q-.86.657-1.407 2-.547 1.344-.594 3.016l-.015.5q0 2.266.828 3.922.5 1 1.187 1.562l-.219.657q-.78-.422-1.5-1.453-1.375-1.985-1.375-4.766zm7.485 3.469h-1.078v-7.22l-2.188.798v-.985l3.11-1.171h.156v8.578zm3.515 1.703l-.609-.422q.547-.766.578-1.594v-.969h1.063v.844q0 .594-.297 1.188-.297.593-.735.953zm7.516-1.703h-5.594v-.782l2.953-3.28q.657-.75.907-1.204.25-.469.25-.969 0-.672-.407-1.093-.39-.438-1.078-.438-.797 0-1.25.469-.453.453-.453 1.281h-1.078q0-1.187.75-1.906.766-.735 2.031-.735 1.203 0 1.89.625.688.625.688 1.672 0 1.25-1.609 3l-2.281 2.469h4.281v.89zm1.484 1.703l-.609-.422q.547-.766.578-1.594v-.969h1.063v.844q0 .594-.297 1.188-.297.593-.735.953zm3.5-6.5h.813q.781-.016 1.219-.406.437-.391.437-1.063 0-1.5-1.5-1.5-.703 0-1.125.406-.406.407-.406 1.063h-1.094q0-1.016.735-1.688.75-.672 1.89-.672 1.203 0 1.89.641.688.64.688 1.781 0 .563-.36 1.078-.359.516-.984.782.704.218 1.079.734.39.516.39 1.266 0 1.14-.75 1.828-.75.672-1.953.672-1.187 0-1.953-.657-.75-.656-.75-1.718h1.094q0 .672.437 1.078.438.406 1.188.406.781 0 1.187-.406.422-.422.422-1.188 0-.734-.453-1.125-.453-.406-1.328-.422h-.813v-.89zm8.047 1.39q0 1.313-.343 2.516-.344 1.188-1.063 2.203-.703 1.016-1.469 1.438l-.234-.657q.906-.687 1.453-2.14.547-1.469.563-3.235v-.187q0-1.234-.266-2.297-.25-1.062-.719-1.89-.453-.844-1.031-1.313l.234-.656q.766.422 1.469 1.422.703 1 1.047 2.218.36 1.203.36 2.578z"/><path fill="#0b5394" d="M216 404.55a1 1 0 0 1 1-1h10a1 1 0 0 1 1 1v10a1 1 0 0 1-1 1h-10a1 1 0 0 1-1-1z"/><path fill="#757575" d="M243.266 411.347q-.157 1.344-1 2.094-.844.734-2.235.734-1.515 0-2.422-1.078-.906-1.094-.906-2.922v-.813q0-1.187.422-2.093.422-.906 1.203-1.39.781-.485 1.797-.485 1.36 0 2.172.765.828.766.969 2.094h-1.125q-.157-1.015-.641-1.469-.484-.453-1.375-.453-1.078 0-1.688.797-.609.797-.609 2.266v.828q0 1.39.578 2.219.578.812 1.625.812.938 0 1.438-.422.5-.437.672-1.484h1.125zm2.64-2.875q.719-.875 1.875-.875 2.016 0 2.031 2.266v4.187h-1.093v-4.203q0-.672-.313-1-.297-.328-.953-.328-.531 0-.937.281-.391.281-.61.734v4.516h-1.078v-9h1.078v3.422zm8.985.203q-.25-.031-.532-.031-1.078 0-1.453.906v4.5h-1.078v-6.344h1.047l.016.735q.53-.844 1.515-.844.313 0 .485.078v1zm.64 2.14q0-.921.36-1.671.375-.75 1.03-1.14.657-.407 1.485-.407 1.297 0 2.094.89.813.891.813 2.391v.078q0 .922-.36 1.656-.36.735-1.015 1.157-.657.406-1.516.406-1.281 0-2.094-.89-.797-.907-.797-2.391v-.078zm1.094.141q0 1.047.484 1.688.5.64 1.313.64.828 0 1.312-.64.485-.656.485-1.828 0-1.032-.5-1.672-.485-.656-1.313-.656-.797 0-1.297.64-.484.625-.484 1.828zm7.219-3.25l.031.703q.688-.812 1.875-.812 1.328 0 1.813 1.016.312-.454.812-.735.516-.281 1.203-.281 2.094 0 2.125 2.203v4.25h-1.078v-4.188q0-.671-.313-1-.312-.343-1.046-.343-.61 0-1.016.36-.39.358-.453.968v4.203h-1.078v-4.156q0-1.375-1.36-1.375-1.062 0-1.453.906v4.625h-1.094v-6.344h1.032zm12.61 6.469q-1.298 0-2.11-.844-.797-.86-.797-2.281v-.188q0-.953.36-1.687.359-.75 1-1.156.656-.422 1.406-.422 1.234 0 1.921.812.688.813.688 2.329v.453h-4.297q.031.937.547 1.515.531.578 1.344.578.562 0 .953-.234.406-.234.719-.625l.656.516q-.797 1.234-2.39 1.234zm-.142-5.688q-.656 0-1.109.485-.437.469-.531 1.328h3.172v-.078q-.047-.828-.453-1.281-.391-.453-1.079-.453zm6.891 1.282l.438-4.25h4.375v1h-3.454l-.265 2.328q.64-.375 1.437-.375 1.157 0 1.844.781.688.766.688 2.078 0 1.313-.72 2.078-.702.766-1.983.766-1.125 0-1.844-.625-.719-.64-.813-1.75h1.016q.11.734.531 1.11.422.374 1.11.374.75 0 1.187-.515.438-.516.438-1.422 0-.86-.47-1.375-.468-.516-1.25-.516-.702 0-1.109.297l-.28.235-.876-.22zm11.688-2.031q0 .64-.344 1.14-.344.5-.906.781.656.282 1.046.844.391.547.391 1.25 0 1.094-.75 1.766-.734.656-1.953.656-1.234 0-1.984-.656-.735-.672-.735-1.766 0-.703.375-1.25.375-.562 1.047-.844-.562-.28-.89-.78-.329-.5-.329-1.142 0-1.078.688-1.703.687-.64 1.828-.64 1.125 0 1.813.64.703.625.703 1.704zm-.891 3.984q0-.719-.453-1.156-.453-.453-1.188-.453-.734 0-1.187.453-.438.437-.438 1.172 0 .718.438 1.14.437.406 1.203.406.75 0 1.188-.421.437-.422.437-1.141zm-1.625-5.438q-.64 0-1.047.407-.39.39-.39 1.078 0 .64.39 1.047.39.406 1.031.406.657 0 1.047-.406.39-.407.39-1.047 0-.656-.405-1.063-.407-.422-1.016-.422z"/><path fill="#073763" d="M312 404.55a1 1 0 0 1 1-1h10a1 1 0 0 1 1 1v10a1 1 0 0 1-1 1h-10a1 1 0 0 1-1-1z"/><path fill="#757575" d="M339.266 411.347q-.157 1.344-1 2.094-.844.734-2.235.734-1.515 0-2.422-1.078-.906-1.094-.906-2.922v-.813q0-1.187.422-2.093.422-.906 1.203-1.39.781-.485 1.797-.485 1.36 0 2.172.765.828.766.969 2.094h-1.125q-.157-1.015-.641-1.469-.484-.453-1.375-.453-1.078 0-1.688.797-.609.797-.609 2.266v.828q0 1.39.578 2.219.578.812 1.625.812.938 0 1.438-.422.5-.437.672-1.484h1.125zm2.64-2.875q.719-.875 1.875-.875 2.016 0 2.031 2.266v4.187h-1.093v-4.203q0-.672-.313-1-.297-.328-.953-.328-.531 0-.937.281-.391.281-.61.734v4.516h-1.078v-9h1.078v3.422zm8.985.203q-.25-.031-.532-.031-1.078 0-1.453.906v4.5h-1.078v-6.344h1.047l.016.735q.53-.844 1.515-.844.313 0 .485.078v1zm.64 2.14q0-.921.36-1.671.375-.75 1.03-1.14.657-.407 1.485-.407 1.297 0 2.094.89.813.891.813 2.391v.078q0 .922-.36 1.656-.36.735-1.015 1.157-.657.406-1.516.406-1.281 0-2.094-.89-.797-.907-.797-2.391v-.078zm1.094.141q0 1.047.484 1.688.5.64 1.313.64.828 0 1.312-.64.485-.656.485-1.828 0-1.032-.5-1.672-.485-.656-1.313-.656-.797 0-1.297.64-.484.625-.484 1.828zm7.219-3.25l.031.703q.688-.812 1.875-.812 1.328 0 1.813 1.016.312-.454.812-.735.516-.281 1.203-.281 2.094 0 2.125 2.203v4.25h-1.078v-4.188q0-.671-.313-1-.312-.343-1.046-.343-.61 0-1.016.36-.39.358-.453.968v4.203h-1.078v-4.156q0-1.375-1.36-1.375-1.062 0-1.453.906v4.625h-1.094v-6.344h1.032zm12.61 6.469q-1.298 0-2.11-.844-.797-.86-.797-2.281v-.188q0-.953.36-1.687.359-.75 1-1.156.656-.422 1.406-.422 1.234 0 1.921.812.688.813.688 2.329v.453h-4.297q.031.937.547 1.515.531.578 1.344.578.562 0 .953-.234.406-.234.719-.625l.656.516q-.797 1.234-2.39 1.234zm-.142-5.688q-.656 0-1.109.485-.437.469-.531 1.328h3.172v-.078q-.047-.828-.453-1.281-.391-.453-1.079-.453zm10.657-2.968v.906h-.203q-1.266.031-2.016.766-.75.718-.875 2.03.688-.765 1.844-.765 1.11 0 1.781.781.672.782.672 2.032 0 1.312-.719 2.11-.719.796-1.937.796-1.22 0-1.985-.938-.75-.953-.75-2.437v-.406q0-2.36 1-3.61t2.985-1.265h.203zm-1.422 3.844q-.563 0-1.031.328-.47.328-.657.843v.391q0 1.063.47 1.703.483.64 1.187.64.734 0 1.156-.53.422-.547.422-1.422 0-.875-.422-1.407-.422-.546-1.125-.546zm7.719 4.687h-1.079v-7.219l-2.187.797v-.984l3.11-1.172h.156v8.578z"/><path fill="#e69138" d="M408 404.55a1 1 0 0 1 1-1h10a1 1 0 0 1 1 1v10a1 1 0 0 1-1 1h-10a1 1 0 0 1-1-1z"/><path fill="#757575" d="M435.266 411.347q-.157 1.344-1 2.094-.844.734-2.235.734-1.515 0-2.422-1.078-.906-1.094-.906-2.922v-.813q0-1.187.422-2.093.422-.906 1.203-1.39.781-.485 1.797-.485 1.36 0 2.172.765.828.766.969 2.094h-1.125q-.157-1.015-.641-1.469-.484-.453-1.375-.453-1.078 0-1.688.797-.609.797-.609 2.266v.828q0 1.39.578 2.219.578.812 1.625.812.938 0 1.438-.422.5-.437.672-1.484h1.125zm2.64-2.875q.719-.875 1.875-.875 2.016 0 2.031 2.266v4.187h-1.093v-4.203q0-.672-.313-1-.297-.328-.953-.328-.531 0-.937.281-.391.281-.61.734v4.516h-1.078v-9h1.078v3.422zm8.985.203q-.25-.031-.532-.031-1.078 0-1.453.906v4.5h-1.078v-6.344h1.047l.016.735q.53-.844 1.515-.844.313 0 .485.078v1zm.64 2.14q0-.921.36-1.671.375-.75 1.03-1.14.657-.407 1.485-.407 1.297 0 2.094.89.813.891.813 2.391v.078q0 .922-.36 1.656-.36.735-1.015 1.157-.657.406-1.516.406-1.281 0-2.094-.89-.797-.907-.797-2.391v-.078zm1.094.141q0 1.047.484 1.688.5.64 1.313.64.828 0 1.312-.64.485-.656.485-1.828 0-1.032-.5-1.672-.485-.656-1.313-.656-.797 0-1.297.64-.484.625-.484 1.828zm7.219-3.25l.031.703q.688-.812 1.875-.812 1.328 0 1.813 1.016.312-.454.812-.735.516-.281 1.203-.281 2.094 0 2.125 2.203v4.25h-1.078v-4.188q0-.671-.313-1-.312-.343-1.046-.343-.61 0-1.016.36-.39.358-.453.968v4.203h-1.078v-4.156q0-1.375-1.36-1.375-1.062 0-1.453.906v4.625h-1.094v-6.344h1.032zm12.61 6.469q-1.298 0-2.11-.844-.797-.86-.797-2.281v-.188q0-.953.36-1.687.359-.75 1-1.156.656-.422 1.406-.422 1.234 0 1.921.812.688.813.688 2.329v.453h-4.297q.031.937.547 1.515.531.578 1.344.578.562 0 .953-.234.406-.234.719-.625l.656.516q-.797 1.234-2.39 1.234zm-.142-5.688q-.656 0-1.109.485-.437.469-.531 1.328h3.172v-.078q-.047-.828-.453-1.281-.391-.453-1.079-.453zm10.657-2.968v.906h-.203q-1.266.031-2.016.766-.75.718-.875 2.03.688-.765 1.844-.765 1.11 0 1.781.781.672.782.672 2.032 0 1.312-.719 2.11-.719.796-1.937.796-1.22 0-1.985-.938-.75-.953-.75-2.437v-.406q0-2.36 1-3.61t2.985-1.265h.203zm-1.422 3.844q-.563 0-1.031.328-.47.328-.657.843v.391q0 1.063.47 1.703.483.64 1.187.64.734 0 1.156-.53.422-.547.422-1.422 0-.875-.422-1.407-.422-.546-1.125-.546zm5.734-.11h.813q.781-.015 1.219-.406.437-.39.437-1.063 0-1.5-1.5-1.5-.703 0-1.125.407-.406.406-.406 1.062h-1.094q0-1.015.734-1.687.75-.672 1.891-.672 1.203 0 1.89.64.688.641.688 1.782 0 .562-.36 1.078-.359.515-.984.781.704.219 1.079.734.39.516.39 1.266 0 1.14-.75 1.828-.75.672-1.953.672-1.188 0-1.953-.656-.75-.656-.75-1.719h1.094q0 .672.437 1.078.438.406 1.188.406.78 0 1.187-.406.422-.422.422-1.187 0-.735-.453-1.125-.453-.407-1.328-.422h-.813v-.89z"/></svg>