<svg viewBox="0 0 753.388 476.47" fill="none" stroke-linecap="square" stroke-miterlimit="10" xmlns="http://www.w3.org/2000/svg"><clipPath id="a"><path d="M0 0h753.388v476.47H0V0z"/></clipPath><g clip-path="url(#a)"><path d="M0 0h753.388v476.47H0z"/><path fill="#ead1dc" d="M108.694 143.162a8 8 0 0 1 8-8h120a8 8 0 0 1 8 8v32a8 8 0 0 1-8 8h-120a8 8 0 0 1-8-8z" fill-rule="evenodd"/><path stroke="#000" stroke-linejoin="round" stroke-linecap="butt" d="M108.694 143.162h0a8 8 0 0 1 8-8h120a8 8 0 0 1 8 8v32a8 8 0 0 1-8 8h-120a8 8 0 0 1-8-8z"/><path fill="#000" d="M146.53 160.769v5.312h-1.688v-13.265h4.312q.891.015 1.688.281.797.266 1.39.766.61.5.954 1.25.359.734.359 1.687 0 .953-.36 1.688-.343.734-.952 1.234-.594.5-1.391.766-.797.265-1.688.28h-2.625zm0-1.39h2.624q.579-.016 1.063-.188.5-.172.86-.5.359-.328.562-.797.219-.469.219-1.078 0-.594-.22-1.078-.202-.485-.562-.813-.36-.344-.86-.531-.483-.188-1.062-.188h-2.625v5.172zm15.695 3.265h-4.438l-1.062 3.437h-1.688l4.282-13.265h1.422l4.203 13.265h-1.672l-1.047-3.437zm-3.984-1.469h3.53l-1.75-5.75-1.78 5.75zm13.226-.5h-2.64v5.406h-1.672v-13.265h3.875q.937.015 1.75.265.828.25 1.437.75.625.485.97 1.235.343.734.343 1.734 0 .64-.188 1.188-.171.53-.5.968-.328.438-.796.782-.454.328-1 .562l2.812 5.672v.11h-1.781l-2.61-5.407zm-2.64-1.39h2.25q.578-.016 1.078-.172.5-.172.875-.485.375-.328.594-.781.218-.469.218-1.062 0-.641-.218-1.11-.203-.484-.578-.812-.375-.328-.891-.485-.5-.172-1.125-.172h-2.203v5.079zm15.79 3.359h-4.438l-1.063 3.437h-1.687l4.28-13.265h1.423l4.203 13.265h-1.672l-1.047-3.437zm-3.985-1.469h3.531l-1.75-5.75-1.781 5.75zm10.695-8.36l2.157 6.641 2.328-6.64h2.093v13.265h-1.64v-5.296l.14-5.532-2.453 7.14h-.968l-2.25-6.952.14 5.344v5.296h-1.64v-13.265h2.093zm16.29 9.907q0-.61-.282-1.016-.28-.421-.718-.703-.438-.297-.97-.484-.515-.188-1-.344-.702-.234-1.421-.547-.719-.328-1.328-.781-.594-.469-.969-1.094-.375-.64-.375-1.5t.375-1.531q.375-.672.984-1.14.61-.47 1.375-.704.782-.25 1.579-.25.859 0 1.656.297.812.281 1.422.813.625.515 1 1.25.375.734.39 1.64h-1.734q-.078-.562-.281-1.031-.203-.469-.563-.812-.344-.344-.828-.516-.469-.188-1.062-.188-.485 0-.953.141-.454.125-.813.406-.36.266-.578.672-.219.39-.219.922.016.578.297.984.281.391.719.672.437.266.937.453.5.172.953.313.485.156.985.36.5.187.969.437.468.25.859.578.406.312.703.719.313.406.469.89.172.485.172 1.078 0 .891-.407 1.563-.39.672-1.015 1.11-.625.437-1.422.671-.781.219-1.578.219-.89 0-1.735-.266-.843-.281-1.515-.797-.672-.515-1.094-1.25-.406-.75-.438-1.703h1.72q.077.625.327 1.11.266.468.657.812.406.328.922.5.53.156 1.156.156.484 0 .969-.125.484-.125.843-.375.375-.265.61-.656.25-.406.25-.953z"/><path fill="#cfe2f3" d="M284.694 15.162a8 8 0 0 1 8-8h120a8 8 0 0 1 8 8v32a8 8 0 0 1-8 8h-120a8 8 0 0 1-8-8z" fill-rule="evenodd"/><path stroke="#000" stroke-linejoin="round" stroke-linecap="butt" d="M284.694 15.162h0a8 8 0 0 1 8-8h120a8 8 0 0 1 8 8v32a8 8 0 0 1-8 8h-120a8 8 0 0 1-8-8z"/><path fill="#000" d="M339.272 32.222h-5.531v5.86h-1.704V24.815h8.157v1.437h-6.453V30.8h5.53v1.422zm12.133-7.406l.016 8.984q-.016.922-.329 1.735-.312.812-.89 1.421-.578.61-1.375.97-.781.343-1.735.343-.968 0-1.765-.344-.781-.36-1.36-.953-.562-.61-.875-1.422-.312-.828-.328-1.75l.016-8.984h1.61l.03 8.984q.016.594.188 1.14.172.548.5.97.344.406.844.671.5.25 1.14.25.641 0 1.125-.25.5-.25.829-.671.343-.422.515-.97.172-.546.188-1.14l.03-8.984h1.626zm11.18 13.265h-1.703l-5.157-9.906-.03 9.906h-1.704V24.816h1.719l5.14 9.89.032-9.89h1.703V38.08zm11.477-3.984q-.11.922-.47 1.688-.358.765-.937 1.328-.562.547-1.343.859-.766.297-1.735.297-.812 0-1.484-.234-.672-.235-1.203-.641-.516-.422-.89-.969-.376-.562-.626-1.219-.25-.656-.375-1.375-.125-.718-.14-1.453v-1.843q.015-.75.14-1.47.125-.718.375-1.374.25-.656.625-1.203.375-.563.89-.97.532-.421 1.188-.655.672-.235 1.5-.235 1 0 1.782.313.78.312 1.343.875.563.547.907 1.344.343.78.453 1.718h-1.688q-.078-.593-.281-1.11-.203-.53-.547-.921-.328-.39-.812-.61-.485-.218-1.157-.218-.593 0-1.062.203-.453.188-.797.531-.328.328-.547.782-.219.437-.36.937-.14.5-.202 1.031-.047.516-.047 1.016v1.86q0 .5.047 1.03.062.516.203 1.016.14.5.36.953.218.438.546.782.344.343.797.546.453.188 1.062.188.672 0 1.157-.203.484-.219.812-.594.344-.375.547-.89.203-.516.281-1.11h1.688z"/><path fill="#ead1dc" d="M20.694 263.162a8 8 0 0 1 8-8h120a8 8 0 0 1 8 8v32a8 8 0 0 1-8 8h-120a8 8 0 0 1-8-8z" fill-rule="evenodd"/><path stroke="#000" stroke-linejoin="round" stroke-linecap="butt" d="M20.694 263.162h0a8 8 0 0 1 8-8h120a8 8 0 0 1 8 8v32a8 8 0 0 1-8 8h-120a8 8 0 0 1-8-8z"/><path fill="#000" d="M55.072 283.363l3.125-10.547h1.797l-4.187 13.265h-1.454l-4.203-13.265h1.813l3.11 10.547zm13.555-.72H64.19l-1.063 3.438H61.44l4.28-13.265h1.423l4.203 13.265h-1.672l-1.047-3.437zm-3.984-1.468h3.531l-1.75-5.75-1.781 5.75zm13.227-.5h-2.641v5.406h-1.672v-13.265h3.875q.938.015 1.75.265.828.25 1.438.75.625.485.968 1.235.344.734.344 1.734 0 .64-.187 1.188-.172.53-.5.968-.329.438-.797.782-.453.328-1 .562l2.812 5.672v.11h-1.78l-2.61-5.407zm-2.641-1.39h2.25q.578-.016 1.078-.172.5-.172.875-.485.375-.328.594-.781.219-.469.219-1.062 0-.641-.22-1.11-.202-.484-.577-.812-.375-.328-.89-.485-.5-.172-1.126-.172H75.23v5.079zm22.547-4q0-.422.094-.891.11-.484.313-.938.203-.468.5-.875.297-.421.672-.75l.921.657q-.421.64-.64 1.312-.219.672-.219 1.453v1.36h-1.64v-1.328zm2 0q0-.422.094-.891.11-.484.313-.938.203-.468.5-.875.297-.421.672-.75l.921.657q-.421.64-.64 1.312-.219.672-.219 1.453v1.36h-1.64v-1.328zm11.368 4.593l2.64-3.656h1.97l-3.673 4.875 3.766 4.984h-1.938l-2.734-3.75-2.719 3.75h-1.968l3.765-4.984-3.656-4.875h1.937l2.61 3.656zm11.242-6.656q0 .438-.11.906-.093.469-.312.938-.203.453-.5.875-.28.422-.656.75l-.922-.656q.422-.641.64-1.313.22-.687.22-1.469v-1.36h1.64v1.329zm3 0q0 .438-.11.906-.093.469-.312.938-.203.453-.5.875-.28.422-.656.75l-.922-.656q.422-.641.64-1.313.22-.687.22-1.469v-1.36h1.64v1.329z"/><path fill="#ead1dc" d="M188.694 263.162a8 8 0 0 1 8-8h120a8 8 0 0 1 8 8v32a8 8 0 0 1-8 8h-120a8 8 0 0 1-8-8z" fill-rule="evenodd"/><path stroke="#000" stroke-linejoin="round" stroke-linecap="butt" d="M188.694 263.162h0a8 8 0 0 1 8-8h120a8 8 0 0 1 8 8v32a8 8 0 0 1-8 8h-120a8 8 0 0 1-8-8z"/><path fill="#000" d="M223.072 283.363l3.125-10.547h1.797l-4.187 13.265h-1.454l-4.203-13.265h1.813l3.11 10.547zm13.555-.72h-4.437l-1.063 3.438h-1.687l4.28-13.265h1.423l4.203 13.265h-1.672l-1.047-3.437zm-3.984-1.468h3.531l-1.75-5.75-1.781 5.75zm13.227-.5h-2.641v5.406h-1.672v-13.265h3.875q.938.015 1.75.265.828.25 1.438.75.625.485.968 1.235.344.734.344 1.734 0 .64-.187 1.188-.172.53-.5.968-.329.438-.797.782-.453.328-1 .562l2.812 5.672v.11h-1.781l-2.61-5.407zm-2.641-1.39h2.25q.578-.016 1.078-.172.5-.172.875-.485.375-.328.594-.781.219-.469.219-1.062 0-.641-.22-1.11-.202-.484-.577-.812-.375-.328-.89-.485-.5-.172-1.126-.172h-2.203v5.079zm22.547-4q0-.422.094-.891.11-.484.313-.938.203-.468.5-.875.297-.421.672-.75l.921.657q-.421.64-.64 1.312-.219.672-.219 1.453v1.36h-1.64v-1.328zm2 0q0-.422.094-.891.11-.484.313-.938.203-.468.5-.875.297-.421.672-.75l.921.657q-.421.64-.64 1.312-.219.672-.219 1.453v1.36h-1.64v-1.328zm10.915 7.296l.437 1.188 3.016-7.547h1.89l-5.015 11.375q-.172.39-.438.813-.265.437-.656.796-.375.36-.89.61-.5.25-1.172.25-.11 0-.266-.016-.14-.015-.297-.047-.14-.015-.266-.047-.125-.015-.203-.046l.266-1.375q.062 0 .172.015.11.016.219.016.125.015.234.015h.172q.36 0 .64-.187.282-.188.5-.453.235-.266.391-.547.156-.281.25-.469l.672-1.312-4.234-9.391h1.875l2.703 6.36zm11.695-9.359q0 .438-.11.906-.093.469-.312.938-.203.453-.5.875-.28.422-.656.75l-.922-.656q.422-.641.64-1.313.22-.687.22-1.469v-1.36h1.64v1.329zm3 0q0 .438-.11.906-.093.469-.312.938-.203.453-.5.875-.28.422-.656.75l-.922-.656q.422-.641.64-1.313.22-.687.22-1.469v-1.36h1.64v1.329z"/><path fill="#fff2cc" d="M452.694 143.162a8 8 0 0 1 8-8h120a8 8 0 0 1 8 8v32a8 8 0 0 1-8 8h-120a8 8 0 0 1-8-8z" fill-rule="evenodd"/><path stroke="#000" stroke-linejoin="round" stroke-linecap="butt" d="M452.694 143.162h0a8 8 0 0 1 8-8h120a8 8 0 0 1 8 8v32a8 8 0 0 1-8 8h-120a8 8 0 0 1-8-8z"/><path fill="#000" d="M493.076 160.675h-2.64v5.406h-1.672v-13.265h3.875q.937.015 1.75.265.828.25 1.437.75.625.485.969 1.235.344.734.344 1.734 0 .64-.188 1.188-.172.53-.5.968-.328.438-.797.782-.453.328-1 .562l2.813 5.672v.11h-1.781l-2.61-5.407zm-2.64-1.39h2.25q.578-.016 1.078-.172.5-.172.875-.485.375-.328.594-.781.218-.469.218-1.062 0-.641-.218-1.11-.204-.484-.579-.812-.375-.328-.89-.485-.5-.172-1.125-.172h-2.203v5.079zm16.742.671h-5.531v4.688h6.453v1.437h-8.14v-13.265h8.062v1.437h-6.375v4.266h5.531v1.437zm12.852-5.703h-4.094v11.828h-1.64v-11.828h-4.11v-1.437h9.844v1.437zm10.57-1.437l.016 8.984q-.016.922-.328 1.735-.313.812-.89 1.421-.579.61-1.376.97-.78.343-1.734.343-.969 0-1.766-.344-.78-.36-1.359-.953-.563-.61-.875-1.422-.313-.828-.328-1.75l.015-8.984h1.61l.031 8.984q.016.594.188 1.14.171.548.5.97.343.406.843.671.5.25 1.141.25.64 0 1.125-.25.5-.25.828-.671.344-.422.516-.97.172-.546.187-1.14l.031-8.984h1.625zm7.259 7.86h-2.641v5.405h-1.672v-13.265h3.875q.938.015 1.75.265.828.25 1.438.75.625.485.968 1.235.344.734.344 1.734 0 .64-.187 1.188-.172.53-.5.968-.329.438-.797.782-.453.328-1 .562l2.812 5.672v.11h-1.781l-2.61-5.407zm-2.641-1.391h2.25q.578-.016 1.078-.172.5-.172.875-.485.375-.328.594-.781.219-.469.219-1.062 0-.641-.22-1.11-.202-.484-.577-.812-.375-.328-.891-.485-.5-.172-1.125-.172h-2.203v5.079zm17.758 6.796h-1.703l-5.156-9.906-.032 9.906h-1.703v-13.265h1.719l5.14 9.89.032-9.89h1.703v13.265z"/><path fill="#fff2cc" d="M452.694 263.162a8 8 0 0 1 8-8h120a8 8 0 0 1 8 8v32a8 8 0 0 1-8 8h-120a8 8 0 0 1-8-8z" fill-rule="evenodd"/><path stroke="#000" stroke-linejoin="round" stroke-linecap="butt" d="M452.694 263.162h0a8 8 0 0 1 8-8h120a8 8 0 0 1 8 8v32a8 8 0 0 1-8 8h-120a8 8 0 0 1-8-8z"/><path fill="#000" d="M511.823 282.644h-4.438l-1.062 3.437h-1.688l4.281-13.265h1.422l4.203 13.265h-1.671l-1.047-3.437zm-3.985-1.469h3.532l-1.75-5.75-1.782 5.75zm8.665 4.906v-13.265h3.078q1.375.015 2.469.469 1.093.453 1.843 1.265.75.797 1.14 1.922.407 1.125.407 2.5v.969q0 1.375-.406 2.5-.39 1.125-1.14 1.937-.75.797-1.844 1.25-1.094.438-2.47.453h-3.077zm1.718-11.875v10.5h1.36q1.078-.015 1.86-.375.78-.375 1.296-1 .516-.64.766-1.5.25-.875.25-1.89v-.985q0-1.015-.266-1.875-.25-.859-.766-1.484-.5-.64-1.28-1-.782-.375-1.86-.39h-1.36zm9.477 11.875v-13.265h3.078q1.375.015 2.47.469 1.093.453 1.843 1.265.75.797 1.14 1.922.407 1.125.407 2.5v.969q0 1.375-.407 2.5-.39 1.125-1.14 1.937-.75.797-1.844 1.25-1.094.438-2.469.453h-3.078zm1.719-11.875v10.5h1.36q1.077-.015 1.859-.375.781-.375 1.297-1 .515-.64.765-1.5.25-.875.25-1.89v-.985q0-1.015-.265-1.875-.25-.859-.766-1.484-.5-.64-1.281-1-.782-.375-1.86-.39h-1.359z"/><path fill="#fff2cc" d="M308.694 399.162a8 8 0 0 1 8-8h176a8 8 0 0 1 8 8v32a8 8 0 0 1-8 8h-176a8 8 0 0 1-8-8z" fill-rule="evenodd"/><path stroke="#000" stroke-linejoin="round" stroke-linecap="butt" d="M308.694 399.162h0a8 8 0 0 1 8-8h176a8 8 0 0 1 8 8v32a8 8 0 0 1-8 8h-176a8 8 0 0 1-8-8z"/><path fill="#000" d="M337.486 419.363l3.125-10.547h1.796l-4.187 13.265h-1.453l-4.203-13.265h1.812l3.11 10.547zm13.554-.72h-4.437l-1.063 3.438h-1.687l4.281-13.265h1.422l4.203 13.265h-1.672l-1.047-3.437zm-3.984-1.468h3.531l-1.75-5.75-1.78 5.75zm13.227-.5h-2.64v5.406h-1.673v-13.265h3.875q.938.015 1.75.265.829.25 1.438.75.625.485.969 1.235.343.734.343 1.734 0 .64-.187 1.188-.172.53-.5.968-.328.438-.797.782-.453.328-1 .562l2.813 5.672v.11h-1.782l-2.61-5.407zm-2.64-1.39h2.25q.577-.016 1.077-.172.5-.172.875-.485.375-.328.594-.781.219-.469.219-1.062 0-.641-.219-1.11-.203-.484-.578-.812-.375-.328-.89-.485-.5-.172-1.126-.172h-2.203v5.079zm22.484 1.484v5.312h-1.687v-13.265h4.312q.89.015 1.688.281.797.266 1.39.766.61.5.953 1.25.36.734.36 1.687 0 .953-.36 1.688-.343.734-.953 1.234-.593.5-1.39.766-.797.265-1.688.28h-2.625zm0-1.39h2.625q.578-.016 1.063-.188.5-.172.859-.5.36-.328.563-.797.218-.469.218-1.078 0-.594-.218-1.078-.204-.485-.563-.813-.36-.344-.86-.531-.484-.188-1.062-.188h-2.625v5.172zm13.743 1.296h-2.641v5.406h-1.672v-13.265h3.875q.938.015 1.75.265.828.25 1.438.75.625.485.968 1.235.344.734.344 1.734 0 .64-.187 1.188-.172.53-.5.968-.329.438-.797.782-.453.328-1 .562l2.812 5.672v.11h-1.781l-2.61-5.407zm-2.641-1.39h2.25q.578-.016 1.078-.172.5-.172.875-.485.375-.328.594-.781.219-.469.219-1.062 0-.641-.22-1.11-.202-.484-.577-.812-.375-.328-.89-.485-.5-.172-1.126-.172h-2.203v5.079zm18.086.937q-.015.703-.14 1.438-.11.718-.344 1.39-.235.672-.61 1.266-.359.578-.875 1.015-.5.438-1.171.688-.657.25-1.47.25-.827 0-1.484-.25-.656-.25-1.171-.688-.516-.437-.891-1.03-.375-.595-.61-1.266-.234-.672-.359-1.391-.125-.719-.125-1.422v-1.516q0-.718.11-1.437.125-.719.359-1.39.25-.688.61-1.266.374-.594.874-1.032.516-.437 1.172-.687.672-.266 1.485-.266.828 0 1.484.266.672.25 1.172.687.515.438.875 1.032.375.578.61 1.25.25.672.359 1.406.125.719.14 1.437v1.516zm-1.672-1.531q-.015-.485-.078-1-.047-.516-.187-1.016-.125-.5-.344-.953-.219-.469-.547-.812-.328-.36-.781-.563-.438-.203-1.031-.203-.579 0-1.032.203-.437.203-.765.563-.328.343-.547.812-.219.453-.36.969-.125.5-.187 1.015-.063.516-.063.985v1.531q0 .453.063.984.062.516.203 1.016.14.5.36.969.218.469.546.828.328.344.766.562.453.204 1.047.204.578 0 1.031-.204.453-.218.781-.562.328-.36.532-.813.218-.468.343-.968.14-.516.188-1.032.047-.515.062-.984v-1.531zm8.337-.672l2.859-5.203h2l-3.86 6.578 3.938 6.687h-1.969l-2.922-5.296-2.953 5.296h-1.984l3.953-6.687-3.86-6.578h1.985l2.813 5.203zm11.008 1.453l3.015-6.656h1.922l-4.14 8.312-.016 4.953h-1.578l-.016-4.953-4.125-8.312h1.922l3.016 6.656zm20.375-4.187q0-.422.094-.891.11-.484.312-.938.203-.468.5-.875.297-.421.672-.75l.922.657q-.422.64-.64 1.312-.22.672-.22 1.453v1.36h-1.64v-1.328zm2 0q0-.422.094-.891.11-.484.312-.938.203-.468.5-.875.297-.421.672-.75l.922.657q-.422.64-.64 1.312-.22.672-.22 1.453v1.36h-1.64v-1.328zm11.368 4.593l2.64-3.656h1.969l-3.672 4.875 3.766 4.984h-1.938l-2.734-3.75-2.719 3.75h-1.969l3.766-4.984-3.656-4.875h1.937l2.61 3.656zm11.242-6.656q0 .438-.11.906-.093.469-.312.938-.203.453-.5.875-.281.422-.656.75l-.922-.656q.422-.641.64-1.313.22-.687.22-1.469v-1.36h1.64v1.329zm3 0q0 .438-.11.906-.093.469-.312.938-.203.453-.5.875-.281.422-.656.75l-.922-.656q.422-.641.64-1.313.22-.687.22-1.469v-1.36h1.64v1.329z"/><path fill="#fff2cc" d="M540.694 399.162a8 8 0 0 1 8-8h176a8 8 0 0 1 8 8v32a8 8 0 0 1-8 8h-176a8 8 0 0 1-8-8z" fill-rule="evenodd"/><path stroke="#000" stroke-linejoin="round" stroke-linecap="butt" d="M540.694 399.162h0a8 8 0 0 1 8-8h176a8 8 0 0 1 8 8v32a8 8 0 0 1-8 8h-176a8 8 0 0 1-8-8z"/><path fill="#000" d="M569.486 419.363l3.125-10.547h1.796l-4.187 13.265h-1.453l-4.203-13.265h1.812l3.11 10.547zm13.554-.72h-4.437l-1.063 3.438h-1.687l4.281-13.265h1.422l4.203 13.265h-1.672l-1.047-3.437zm-3.984-1.468h3.531l-1.75-5.75-1.78 5.75zm13.227-.5h-2.64v5.406h-1.673v-13.265h3.875q.938.015 1.75.265.829.25 1.438.75.625.485.969 1.235.343.734.343 1.734 0 .64-.187 1.188-.172.53-.5.968-.328.438-.797.782-.453.328-1 .562l2.813 5.672v.11h-1.782l-2.61-5.407zm-2.64-1.39h2.25q.577-.016 1.077-.172.5-.172.875-.485.375-.328.594-.781.219-.469.219-1.062 0-.641-.219-1.11-.203-.484-.578-.812-.375-.328-.89-.485-.5-.172-1.126-.172h-2.203v5.079zm22.484 1.484v5.312h-1.687v-13.265h4.312q.89.015 1.688.281.797.266 1.39.766.61.5.953 1.25.36.734.36 1.687 0 .953-.36 1.688-.343.734-.953 1.234-.593.5-1.39.766-.797.265-1.688.28h-2.625zm0-1.39h2.625q.578-.016 1.063-.188.5-.172.86-.5.358-.328.562-.797.218-.469.218-1.078 0-.594-.218-1.078-.204-.485-.563-.813-.36-.344-.86-.531-.484-.188-1.062-.188h-2.625v5.172zm13.743 1.296h-2.641v5.406h-1.672v-13.265h3.875q.938.015 1.75.265.828.25 1.438.75.625.485.968 1.235.344.734.344 1.734 0 .64-.187 1.188-.172.53-.5.968-.328.438-.797.782-.453.328-1 .562l2.812 5.672v.11h-1.781l-2.61-5.407zm-2.641-1.39h2.25q.578-.016 1.078-.172.5-.172.875-.485.375-.328.594-.781.219-.469.219-1.062 0-.641-.22-1.11-.202-.484-.577-.812-.375-.328-.89-.485-.5-.172-1.126-.172h-2.203v5.079zm18.086.937q-.015.703-.14 1.438-.11.718-.344 1.39-.235.672-.61 1.266-.359.578-.875 1.015-.5.438-1.171.688-.657.25-1.47.25-.827 0-1.484-.25-.656-.25-1.171-.688-.516-.437-.891-1.03-.375-.595-.61-1.266-.234-.672-.359-1.391-.125-.719-.125-1.422v-1.516q0-.718.11-1.437.125-.719.359-1.39.25-.688.61-1.266.374-.594.874-1.032.516-.437 1.172-.687.672-.266 1.485-.266.828 0 1.484.266.672.25 1.172.687.515.438.875 1.032.375.578.61 1.25.25.672.359 1.406.125.719.14 1.437v1.516zm-1.672-1.531q-.015-.485-.078-1-.047-.516-.187-1.016-.125-.5-.344-.953-.219-.469-.547-.812-.328-.36-.781-.563-.438-.203-1.031-.203-.579 0-1.032.203-.437.203-.765.563-.328.343-.547.812-.219.453-.36.969-.125.5-.187 1.015-.063.516-.063.985v1.531q0 .453.063.984.062.516.203 1.016.14.5.36.969.218.469.546.828.328.344.766.562.453.204 1.047.204.578 0 1.031-.204.453-.218.781-.562.328-.36.532-.813.218-.468.343-.968.14-.516.188-1.032.047-.515.062-.984v-1.531zm8.336-.672l2.86-5.203h2l-3.86 6.578 3.938 6.687h-1.969l-2.922-5.296-2.953 5.296h-1.984l3.953-6.687-3.86-6.578h1.985l2.812 5.203zm11.009 1.453l3.015-6.656h1.922l-4.14 8.312-.016 4.953h-1.578l-.016-4.953-4.125-8.312h1.922l3.016 6.656zm20.375-4.187q0-.422.094-.891.11-.484.312-.938.203-.468.5-.875.297-.421.672-.75l.922.657q-.422.64-.64 1.312-.22.672-.22 1.453v1.36h-1.64v-1.328zm2 0q0-.422.094-.891.11-.484.312-.938.203-.468.5-.875.297-.421.672-.75l.922.657q-.422.64-.64 1.312-.22.672-.22 1.453v1.36h-1.64v-1.328zm10.914 7.296l.438 1.188 3.016-7.547h1.89l-5.015 11.375q-.172.39-.438.813-.266.437-.656.796-.375.36-.89.61-.5.25-1.173.25-.11 0-.265-.016-.141-.015-.297-.047-.14-.015-.266-.047-.125-.015-.203-.046l.266-1.375q.062 0 .172.015.109.016.218.016.125.015.235.015h.172q.359 0 .64-.187.281-.188.5-.453.235-.266.39-.547.157-.281.25-.469l.673-1.312-4.235-9.391h1.875l2.703 6.36zm11.696-9.359q0 .438-.11.906-.093.469-.312.938-.203.453-.5.875-.281.422-.656.75l-.922-.656q.422-.641.64-1.313.22-.687.22-1.469v-1.36h1.64v1.329zm3 0q0 .438-.11.906-.093.469-.312.938-.203.453-.5.875-.281.422-.656.75l-.922-.656q.422-.641.64-1.313.22-.687.22-1.469v-1.36h1.64v1.329z"/><path d="M176.694 183.161l-88 72"/><path stroke="#666" stroke-width="2" stroke-linejoin="round" stroke-linecap="butt" d="M176.694 183.161l-78.712 64.402"/><path fill="#666" stroke="#666" stroke-width="2" stroke-linecap="butt" d="M95.89 245.006l-4.933 8.304 9.117-3.19z" fill-rule="evenodd"/><path d="M176.694 183.161l80 72"/><path stroke="#666" stroke-width="2" stroke-linejoin="round" stroke-linecap="butt" d="M176.694 183.161l71.08 63.973"/><path fill="#666" stroke="#666" stroke-width="2" stroke-linecap="butt" d="M245.565 249.59l8.956 3.615-4.536-8.527z" fill-rule="evenodd"/><path d="M352.694 55.161l-176 80"/><path stroke="#666" stroke-width="2" stroke-linejoin="round" stroke-linecap="butt" d="M352.694 55.161L187.62 130.196"/><path fill="#666" stroke="#666" stroke-width="2" stroke-linecap="butt" d="M186.252 127.188l-6.896 6.764 9.63-.749z" fill-rule="evenodd"/><path d="M352.694 55.161l168 80"/><path stroke="#666" stroke-width="2" stroke-linejoin="round" stroke-linecap="butt" d="M352.694 55.161l157.166 74.841"/><path fill="#666" stroke="#666" stroke-width="2" stroke-linecap="butt" d="M508.44 132.985l9.614.92-6.774-6.885z" fill-rule="evenodd"/><path d="M520.694 183.161v72"/><path stroke="#666" stroke-width="2" stroke-linejoin="round" stroke-linecap="butt" d="M520.694 183.161v60"/><path fill="#666" stroke="#666" stroke-width="2" stroke-linecap="butt" d="M517.39 243.161l3.304 9.077 3.304-9.077z" fill-rule="evenodd"/><path d="M520.694 303.161l-116 88"/><path stroke="#666" stroke-width="2" stroke-linejoin="round" stroke-linecap="butt" d="M520.694 303.161l-106.44 80.748"/><path fill="#666" stroke="#666" stroke-width="2" stroke-linecap="butt" d="M412.258 381.277l-5.234 8.117 9.227-2.853z" fill-rule="evenodd"/><path d="M520.694 303.161l116 88"/><path stroke="#666" stroke-width="2" stroke-linejoin="round" stroke-linecap="butt" d="M520.694 303.161l106.44 80.748"/><path fill="#666" stroke="#666" stroke-width="2" stroke-linecap="butt" d="M625.137 386.54l9.228 2.854-5.234-8.117z" fill-rule="evenodd"/><path d="M404.694 439.161c0 12.5-79 42-158 25s-158-80.5-158-161"/><path stroke="#6aa84f" stroke-width="2" stroke-linejoin="round" stroke-linecap="butt" d="M404.694 439.161c0 12.5-79 42-158 25-39.5-8.5-79-28.625-108.625-56.687-14.812-14.032-27.156-30.047-35.797-47.586-4.32-8.77-7.714-17.92-10.029-27.394a124.483 124.483 0 0 1-2.948-17.204l-.014-.143"/><path fill="#6aa84f" stroke="#6aa84f" stroke-width="2" stroke-linecap="butt" d="M92.58 314.985l-3.743-8.903-2.855 9.227z" fill-rule="evenodd"/><path d="M636.694 439.161c0 12.5-95 42-190 25s-190-80.5-190-161"/><path stroke="#6aa84f" stroke-width="2" stroke-linejoin="round" stroke-linecap="butt" d="M636.694 439.161c0 12.5-95 42-190 25-47.5-8.5-95-28.625-130.625-56.687-17.812-14.032-32.656-30.047-43.047-47.586-5.195-8.77-9.277-17.92-12.06-27.394a105.81 105.81 0 0 1-3.431-16.283c-.04-.307-.078-.614-.114-.921l-.017-.15"/><path fill="#6aa84f" stroke="#6aa84f" stroke-width="2" stroke-linecap="butt" d="M260.697 314.946l-3.83-8.866-2.765 9.255z" fill-rule="evenodd"/></g></svg>