<svg version="1.1" viewBox="0.0 0.0 753.3884514435696 476.4698162729659" fill="none" stroke="none" stroke-linecap="square" stroke-miterlimit="10" xmlns:xlink="http://www.w3.org/1999/xlink" xmlns="http://www.w3.org/2000/svg"><clipPath id="p.0"><path d="m0 0l753.3884 0l0 476.46982l-753.3884 0l0 -476.46982z" clip-rule="nonzero"/></clipPath><g clip-path="url(#p.0)"><path fill="#000000" fill-opacity="0.0" d="m0 0l753.3884 0l0 476.46982l-753.3884 0z" fill-rule="evenodd"/><path fill="#ead1dc" d="m108.69423 143.16158l0 0c0 -4.4183655 3.581787 -8.000153 8.00016 -8.000153l119.99967 0c2.1217804 0 4.1566467 0.842865 5.656967 2.3431854c1.5003204 1.5003204 2.3432007 3.535202 2.3432007 5.656967l0 31.99968c0 4.4183655 -3.5818024 8.000168 -8.000168 8.000168l-119.99967 0c-4.418373 0 -8.00016 -3.5818024 -8.00016 -8.000168z" fill-rule="evenodd"/><path stroke="#000000" stroke-width="1.0" stroke-linejoin="round" stroke-linecap="butt" d="m108.69423 143.16158l0 0c0 -4.4183655 3.581787 -8.000153 8.00016 -8.000153l119.99967 0c2.1217804 0 4.1566467 0.842865 5.656967 2.3431854c1.5003204 1.5003204 2.3432007 3.535202 2.3432007 5.656967l0 31.99968c0 4.4183655 -3.5818024 8.000168 -8.000168 8.000168l-119.99967 0c-4.418373 0 -8.00016 -3.5818024 -8.00016 -8.000168z" fill-rule="evenodd"/><path fill="#000000" d="m146.52939 160.76892l0 5.3125l-1.6875 0l0 -13.265625l4.3125 0q0.890625 0.015625 1.6875 0.28125q0.796875 0.265625 1.390625 0.765625q0.609375 0.5 0.953125 1.25q0.359375 0.734375 0.359375 1.6875q0 0.953125 -0.359375 1.6875q-0.34375 0.734375 -0.953125 1.234375q-0.59375 0.5 -1.390625 0.765625q-0.796875 0.265625 -1.6875 0.28125l-2.625 0zm0 -1.390625l2.625 0q0.578125 -0.015625 1.0625 -0.1875q0.5 -0.171875 0.859375 -0.5q0.359375 -0.328125 0.5625 -0.796875q0.21875 -0.46875 0.21875 -1.078125q0 -0.59375 -0.21875 -1.078125q-0.203125 -0.484375 -0.5625 -0.8125q-0.359375 -0.34375 -0.859375 -0.53125q-0.484375 -0.1875 -1.0625 -0.1875l-2.625 0l0 5.171875zm15.695572 3.265625l-4.4375 0l-1.0625 3.4375l-1.6875 0l4.28125 -13.265625l1.421875 0l4.203125 13.265625l-1.671875 0l-1.046875 -3.4375zm-3.984375 -1.46875l3.53125 0l-1.75 -5.75l-1.78125 5.75zm13.226822 -0.5l-2.640625 0l0 5.40625l-1.671875 0l0 -13.265625l3.875 0q0.9375 0.015625 1.75 0.265625q0.828125 0.25 1.4375 0.75q0.625 0.484375 0.96875 1.234375q0.34375 0.734375 0.34375 1.734375q0 0.640625 -0.1875 1.1875q-0.171875 0.53125 -0.5 0.96875q-0.328125 0.4375 -0.796875 0.78125q-0.453125 0.328125 -1.0 0.5625l2.8125 5.671875l0 0.109375l-1.78125 0l-2.609375 -5.40625zm-2.640625 -1.390625l2.25 0q0.578125 -0.015625 1.078125 -0.171875q0.5 -0.171875 0.875 -0.484375q0.375 -0.328125 0.59375 -0.78125q0.21875 -0.46875 0.21875 -1.0625q0 -0.640625 -0.21875 -1.109375q-0.203125 -0.484375 -0.578125 -0.8125q-0.375 -0.328125 -0.890625 -0.484375q-0.5 -0.171875 -1.125 -0.171875l-2.203125 0l0 5.078125zm15.789322 3.359375l-4.4375 0l-1.0625 3.4375l-1.6875 0l4.28125 -13.265625l1.421875 0l4.203125 13.265625l-1.671875 0l-1.046875 -3.4375zm-3.984375 -1.46875l3.53125 0l-1.75 -5.75l-1.78125 5.75zm10.695572 -8.359375l2.15625 6.640625l2.328125 -6.640625l2.09375 0l0 13.265625l-1.640625 0l0 -5.296875l0.140625 -5.53125l-2.453125 7.140625l-0.96875 0l-2.25 -6.953125l0.140625 5.34375l0 5.296875l-1.640625 0l0 -13.265625l2.09375 0zm16.289322 9.90625q0 -0.609375 -0.28125 -1.015625q-0.28125 -0.421875 -0.71875 -0.703125q-0.4375 -0.296875 -0.96875 -0.484375q-0.515625 -0.1875 -1.0 -0.34375q-0.703125 -0.234375 -1.421875 -0.546875q-0.71875 -0.328125 -1.328125 -0.78125q-0.59375 -0.46875 -0.96875 -1.09375q-0.375 -0.640625 -0.375 -1.5q0 -0.859375 0.375 -1.53125q0.375 -0.671875 0.984375 -1.140625q0.609375 -0.46875 1.375 -0.703125q0.78125 -0.25 1.578125 -0.25q0.859375 0 1.65625 0.296875q0.8125 0.28125 1.421875 0.8125q0.625 0.515625 1.0 1.25q0.375 0.734375 0.390625 1.640625l-1.734375 0q-0.078125 -0.5625 -0.28125 -1.03125q-0.203125 -0.46875 -0.5625 -0.8125q-0.34375 -0.34375 -0.828125 -0.515625q-0.46875 -0.1875 -1.0625 -0.1875q-0.484375 0 -0.953125 0.140625q-0.453125 0.125 -0.8125 0.40625q-0.359375 0.265625 -0.578125 0.671875q-0.21875 0.390625 -0.21875 0.921875q0.015625 0.578125 0.296875 0.984375q0.28125 0.390625 0.71875 0.671875q0.4375 0.265625 0.9375 0.453125q0.5 0.171875 0.953125 0.3125q0.484375 0.15625 0.984375 0.359375q0.5 0.1875 0.96875 0.4375q0.46875 0.25 0.859375 0.578125q0.40625 0.3125 0.703125 0.71875q0.3125 0.40625 0.46875 0.890625q0.171875 0.484375 0.171875 1.078125q0 0.890625 -0.40625 1.5625q-0.390625 0.671875 -1.015625 1.109375q-0.625 0.4375 -1.421875 0.671875q-0.78125 0.21875 -1.578125 0.21875q-0.890625 0 -1.734375 -0.265625q-0.84375 -0.28125 -1.515625 -0.796875q-0.671875 -0.515625 -1.09375 -1.25q-0.40625 -0.75 -0.4375 -1.703125l1.71875 0q0.078125 0.625 0.328125 1.109375q0.265625 0.46875 0.65625 0.8125q0.40625 0.328125 0.921875 0.5q0.53125 0.15625 1.15625 0.15625q0.484375 0 0.96875 -0.125q0.484375 -0.125 0.84375 -0.375q0.375 -0.265625 0.609375 -0.65625q0.25 -0.40625 0.25 -0.953125z" fill-rule="nonzero"/><path fill="#cfe2f3" d="m284.6942 15.161577l0 0c0 -4.4183664 3.5818176 -8.00016 8.000183 -8.00016l119.999664 0c2.1217651 0 4.1566467 0.8428712 5.6569824 2.3431926c1.5003052 1.5003204 2.3431702 3.5351925 2.3431702 5.656967l0 31.999681c0 4.4183655 -3.581787 8.00016 -8.000153 8.00016l-119.999664 0c-4.4183655 0 -8.000183 -3.5817947 -8.000183 -8.00016z" fill-rule="evenodd"/><path stroke="#000000" stroke-width="1.0" stroke-linejoin="round" stroke-linecap="butt" d="m284.6942 15.161577l0 0c0 -4.4183664 3.5818176 -8.00016 8.000183 -8.00016l119.999664 0c2.1217651 0 4.1566467 0.8428712 5.6569824 2.3431926c1.5003052 1.5003204 2.3431702 3.5351925 2.3431702 5.656967l0 31.999681c0 4.4183655 -3.581787 8.00016 -8.000153 8.00016l-119.999664 0c-4.4183655 0 -8.000183 -3.5817947 -8.000183 -8.00016z" fill-rule="evenodd"/><path fill="#000000" d="m339.27182 32.222042l-5.53125 0l0 5.859375l-1.703125 0l0 -13.265627l8.15625 0l0 1.4375l-6.453125 0l0 4.546875l5.53125 0l0 1.4218769zm12.133087 -7.406252l0.015625 8.984377q-0.015625 0.921875 -0.328125 1.734375q-0.3125 0.8125 -0.890625 1.421875q-0.578125 0.609375 -1.375 0.96875q-0.78125 0.34375 -1.734375 0.34375q-0.96875 0 -1.765625 -0.34375q-0.78125 -0.359375 -1.359375 -0.953125q-0.5625 -0.609375 -0.875 -1.421875q-0.3125 -0.828125 -0.328125 -1.75l0.015625 -8.984377l1.609375 0l0.03125 8.984377q0.015625 0.59375 0.1875 1.140625q0.171875 0.546875 0.5 0.96875q0.34375 0.40625 0.84375 0.671875q0.5 0.25 1.140625 0.25q0.640625 0 1.125 -0.25q0.5 -0.25 0.828125 -0.671875q0.34375 -0.421875 0.515625 -0.96875q0.171875 -0.546875 0.1875 -1.140625l0.03125 -8.984377l1.625 0zm11.179932 13.265627l-1.703125 0l-5.15625 -9.906252l-0.03125 9.906252l-1.703125 0l0 -13.265627l1.71875 0l5.140625 9.890627l0.03125 -9.890627l1.703125 0l0 13.265627zm11.476837 -3.984375q-0.109375 0.921875 -0.46875 1.6875q-0.359375 0.765625 -0.9375 1.328125q-0.5625 0.546875 -1.34375 0.859375q-0.765625 0.296875 -1.734375 0.296875q-0.8125 0 -1.484375 -0.234375q-0.671875 -0.234375 -1.203125 -0.640625q-0.515625 -0.421875 -0.890625 -0.96875q-0.375 -0.5625 -0.625 -1.21875q-0.25 -0.65625 -0.375 -1.375q-0.125 -0.71875 -0.140625 -1.453125l0 -1.8437519q0.015625 -0.75 0.140625 -1.46875q0.125 -0.71875 0.375 -1.375q0.25 -0.65625 0.625 -1.203125q0.375 -0.5625 0.890625 -0.96875q0.53125 -0.421875 1.1875 -0.65625q0.671875 -0.234375 1.5 -0.234375q1.0 0 1.78125 0.3125q0.78125 0.3125 1.34375 0.875q0.5625 0.546875 0.90625 1.34375q0.34375 0.78125 0.453125 1.71875l-1.6875 0q-0.078125 -0.59375 -0.28125 -1.109375q-0.203125 -0.53125 -0.546875 -0.921875q-0.328125 -0.390625 -0.8125 -0.609375q-0.484375 -0.21875 -1.15625 -0.21875q-0.59375 0 -1.0625 0.203125q-0.453125 0.1875 -0.796875 0.53125q-0.328125 0.328125 -0.546875 0.78125q-0.21875 0.4375 -0.359375 0.9375q-0.140625 0.5 -0.203125 1.03125q-0.046875 0.515625 -0.046875 1.015625l0 1.8593769q0 0.5 0.046875 1.03125q0.0625 0.515625 0.203125 1.015625q0.140625 0.5 0.359375 0.953125q0.21875 0.4375 0.546875 0.78125q0.34375 0.34375 0.796875 0.546875q0.453125 0.1875 1.0625 0.1875q0.671875 0 1.15625 -0.203125q0.484375 -0.21875 0.8125 -0.59375q0.34375 -0.375 0.546875 -0.890625q0.203125 -0.515625 0.28125 -1.109375l1.6875 0z" fill-rule="nonzero"/><path fill="#ead1dc" d="m20.694225 263.1616l0 0c0 -4.4183655 3.5817947 -8.000168 8.00016 -8.000168l119.99968 0c2.1217804 0 4.1566467 0.84288025 5.656967 2.3431854c1.5003204 1.5003357 2.3432007 3.5351868 2.3432007 5.6569824l0 31.999664c0 4.4183655 -3.5818024 8.000153 -8.000168 8.000153l-119.99968 0c-4.4183655 0 -8.00016 -3.581787 -8.00016 -8.000153z" fill-rule="evenodd"/><path stroke="#000000" stroke-width="1.0" stroke-linejoin="round" stroke-linecap="butt" d="m20.694225 263.1616l0 0c0 -4.4183655 3.5817947 -8.000168 8.00016 -8.000168l119.99968 0c2.1217804 0 4.1566467 0.84288025 5.656967 2.3431854c1.5003204 1.5003357 2.3432007 3.5351868 2.3432007 5.6569824l0 31.999664c0 4.4183655 -3.5818024 8.000153 -8.000168 8.000153l-119.99968 0c-4.4183655 0 -8.00016 -3.581787 -8.00016 -8.000153z" fill-rule="evenodd"/><path fill="#000000" d="m55.072224 283.36267l3.125 -10.546875l1.796875 0l-4.1875 13.265625l-1.453125 0l-4.203125 -13.265625l1.8125 0l3.109375 10.546875zm13.554951 -0.71875l-4.4375 0l-1.0625038 3.4375l-1.6875 0l4.281254 -13.265625l1.421875 0l4.203125 13.265625l-1.671875 0l-1.046875 -3.4375zm-3.984375 -1.46875l3.53125 0l-1.75 -5.75l-1.78125 5.75zm13.226822 -0.5l-2.640625 0l0 5.40625l-1.671875 0l0 -13.265625l3.875 0q0.9375 0.015625 1.75 0.265625q0.828125 0.25 1.4375 0.75q0.625 0.484375 0.96875 1.234375q0.34375 0.734375 0.34375 1.734375q0 0.640625 -0.1875 1.1875q-0.171875 0.53125 -0.5 0.96875q-0.328125 0.4375 -0.796875 0.78125q-0.453125 0.328125 -1.0 0.5625l2.8125 5.671875l0 0.109375l-1.78125 0l-2.609375 -5.40625zm-2.640625 -1.390625l2.25 0q0.578125 -0.015625 1.078125 -0.171875q0.5 -0.171875 0.875 -0.484375q0.375 -0.328125 0.59375 -0.78125q0.21875 -0.46875 0.21875 -1.0625q0 -0.640625 -0.21875 -1.109375q-0.203125 -0.484375 -0.578125 -0.8125q-0.375 -0.328125 -0.890625 -0.484375q-0.5 -0.171875 -1.125 -0.171875l-2.203125 0l0 5.078125zm22.547394 -4.0q0 -0.421875 0.09375 -0.890625q0.109375 -0.484375 0.3125 -0.9375q0.203125 -0.46875 0.5 -0.875q0.296875 -0.421875 0.671875 -0.75l0.921875 0.65625q-0.421875 0.640625 -0.640625 1.3125q-0.21875 0.671875 -0.21875 1.453125l0 1.359375l-1.640625 0l0 -1.328125zm2.0 0q0 -0.421875 0.09375 -0.890625q0.109375 -0.484375 0.3125 -0.9375q0.203125 -0.46875 0.5 -0.875q0.296875 -0.421875 0.671875 -0.75l0.921875 0.65625q-0.421875 0.640625 -0.640625 1.3125q-0.21875 0.671875 -0.21875 1.453125l0 1.359375l-1.640625 0l0 -1.328125zm11.367447 4.59375l2.640625 -3.65625l1.96875 0l-3.671875 4.875l3.765625 4.984375l-1.9375 0l-2.734375 -3.75l-2.71875 3.75l-1.96875 0l3.765625 -4.984375l-3.65625 -4.875l1.9375 0l2.609375 3.65625zm11.242447 -6.65625q0 0.4375 -0.109375 0.90625q-0.09375 0.46875 -0.3125 0.9375q-0.203125 0.453125 -0.5 0.875q-0.28125 0.421875 -0.65625 0.75l-0.921875 -0.65625q0.421875 -0.640625 0.640625 -1.3125q0.21875 -0.6875 0.21875 -1.46875l0 -1.359375l1.640625 0l0 1.328125zm3.0 0q0 0.4375 -0.109375 0.90625q-0.09375 0.46875 -0.3125 0.9375q-0.203125 0.453125 -0.5 0.875q-0.28125 0.421875 -0.65625 0.75l-0.921875 -0.65625q0.421875 -0.640625 0.640625 -1.3125q0.21875 -0.6875 0.21875 -1.46875l0 -1.359375l1.640625 0l0 1.328125z" fill-rule="nonzero"/><path fill="#ead1dc" d="m188.69423 263.1616l0 0c0 -4.4183655 3.581787 -8.000168 8.000153 -8.000168l119.99968 0c2.1217651 0 4.1566467 0.84288025 5.6569824 2.3431854c1.5003052 1.5003357 2.3431702 3.5351868 2.3431702 5.6569824l0 31.999664c0 4.4183655 -3.581787 8.000153 -8.000153 8.000153l-119.99968 0c-4.4183655 0 -8.000153 -3.581787 -8.000153 -8.000153z" fill-rule="evenodd"/><path stroke="#000000" stroke-width="1.0" stroke-linejoin="round" stroke-linecap="butt" d="m188.69423 263.1616l0 0c0 -4.4183655 3.581787 -8.000168 8.000153 -8.000168l119.99968 0c2.1217651 0 4.1566467 0.84288025 5.6569824 2.3431854c1.5003052 1.5003357 2.3431702 3.5351868 2.3431702 5.6569824l0 31.999664c0 4.4183655 -3.581787 8.000153 -8.000153 8.000153l-119.99968 0c-4.4183655 0 -8.000153 -3.581787 -8.000153 -8.000153z" fill-rule="evenodd"/><path fill="#000000" d="m223.07222 283.36267l3.125 -10.546875l1.796875 0l-4.1875 13.265625l-1.453125 0l-4.203125 -13.265625l1.8125 0l3.109375 10.546875zm13.554947 -0.71875l-4.4375 0l-1.0625 3.4375l-1.6875 0l4.28125 -13.265625l1.421875 0l4.203125 13.265625l-1.671875 0l-1.046875 -3.4375zm-3.984375 -1.46875l3.53125 0l-1.75 -5.75l-1.78125 5.75zm13.226822 -0.5l-2.640625 0l0 5.40625l-1.671875 0l0 -13.265625l3.875 0q0.9375 0.015625 1.75 0.265625q0.828125 0.25 1.4375 0.75q0.625 0.484375 0.96875 1.234375q0.34375 0.734375 0.34375 1.734375q0 0.640625 -0.1875 1.1875q-0.171875 0.53125 -0.5 0.96875q-0.328125 0.4375 -0.796875 0.78125q-0.453125 0.328125 -1.0 0.5625l2.8125 5.671875l0 0.109375l-1.78125 0l-2.609375 -5.40625zm-2.640625 -1.390625l2.25 0q0.578125 -0.015625 1.078125 -0.171875q0.5 -0.171875 0.875 -0.484375q0.375 -0.328125 0.59375 -0.78125q0.21875 -0.46875 0.21875 -1.0625q0 -0.640625 -0.21875 -1.109375q-0.203125 -0.484375 -0.578125 -0.8125q-0.375 -0.328125 -0.890625 -0.484375q-0.5 -0.171875 -1.125 -0.171875l-2.203125 0l0 5.078125zm22.54741 -4.0q0 -0.421875 0.09375 -0.890625q0.109375 -0.484375 0.3125 -0.9375q0.203125 -0.46875 0.5 -0.875q0.296875 -0.421875 0.671875 -0.75l0.921875 0.65625q-0.421875 0.640625 -0.640625 1.3125q-0.21875 0.671875 -0.21875 1.453125l0 1.359375l-1.640625 0l0 -1.328125zm2.0 0q0 -0.421875 0.09375 -0.890625q0.109375 -0.484375 0.3125 -0.9375q0.203125 -0.46875 0.5 -0.875q0.296875 -0.421875 0.671875 -0.75l0.921875 0.65625q-0.421875 0.640625 -0.640625 1.3125q-0.21875 0.671875 -0.21875 1.453125l0 1.359375l-1.640625 0l0 -1.328125zm10.914307 7.296875l0.4375 1.1875l3.015625 -7.546875l1.890625 0l-5.015625 11.375q-0.171875 0.390625 -0.4375 0.8125q-0.265625 0.4375 -0.65625 0.796875q-0.375 0.359375 -0.890625 0.609375q-0.5 0.25 -1.171875 0.25q-0.109375 0 -0.265625 -0.015625q-0.140625 -0.015625 -0.296875 -0.046875q-0.140625 -0.015625 -0.265625 -0.046875q-0.125 -0.015625 -0.203125 -0.046875l0.265625 -1.375q0.0625 0 0.171875 0.015625q0.109375 0.015625 0.21875 0.015625q0.125 0.015625 0.234375 0.015625q0.109375 0 0.171875 0q0.359375 0 0.640625 -0.1875q0.28125 -0.1875 0.5 -0.453125q0.234375 -0.265625 0.390625 -0.546875q0.15625 -0.28125 0.25 -0.46875l0.671875 -1.3125l-4.234375 -9.390625l1.875 0l2.703125 6.359375zm11.695587 -9.359375q0 0.4375 -0.109375 0.90625q-0.09375 0.46875 -0.3125 0.9375q-0.203125 0.453125 -0.5 0.875q-0.28125 0.421875 -0.65625 0.75l-0.921875 -0.65625q0.421875 -0.640625 0.640625 -1.3125q0.21875 -0.6875 0.21875 -1.46875l0 -1.359375l1.640625 0l0 1.328125zm3.0 0q0 0.4375 -0.109375 0.90625q-0.09375 0.46875 -0.3125 0.9375q-0.203125 0.453125 -0.5 0.875q-0.28125 0.421875 -0.65625 0.75l-0.921875 -0.65625q0.421875 -0.640625 0.640625 -1.3125q0.21875 -0.6875 0.21875 -1.46875l0 -1.359375l1.640625 0l0 1.328125z" fill-rule="nonzero"/><path fill="#fff2cc" d="m452.6942 143.16158l0 0c0 -4.4183655 3.5818176 -8.000153 8.000183 -8.000153l119.999695 0c2.1217651 0 4.156616 0.842865 5.6569214 2.3431854c1.5003662 1.5003204 2.3432007 3.535202 2.3432007 5.656967l0 31.99968c0 4.4183655 -3.581787 8.000168 -8.000122 8.000168l-119.999695 0c-4.4183655 0 -8.000183 -3.5818024 -8.000183 -8.000168z" fill-rule="evenodd"/><path stroke="#000000" stroke-width="1.0" stroke-linejoin="round" stroke-linecap="butt" d="m452.6942 143.16158l0 0c0 -4.4183655 3.5818176 -8.000153 8.000183 -8.000153l119.999695 0c2.1217651 0 4.156616 0.842865 5.6569214 2.3431854c1.5003662 1.5003204 2.3432007 3.535202 2.3432007 5.656967l0 31.99968c0 4.4183655 -3.581787 8.000168 -8.000122 8.000168l-119.999695 0c-4.4183655 0 -8.000183 -3.5818024 -8.000183 -8.000168z" fill-rule="evenodd"/><path fill="#000000" d="m493.07626 160.67517l-2.640625 0l0 5.40625l-1.671875 0l0 -13.265625l3.875 0q0.9375 0.015625 1.75 0.265625q0.828125 0.25 1.4375 0.75q0.625 0.484375 0.96875 1.234375q0.34375 0.734375 0.34375 1.734375q0 0.640625 -0.1875 1.1875q-0.171875 0.53125 -0.5 0.96875q-0.328125 0.4375 -0.796875 0.78125q-0.453125 0.328125 -1.0 0.5625l2.8125 5.671875l0 0.109375l-1.78125 0l-2.609375 -5.40625zm-2.640625 -1.390625l2.25 0q0.578125 -0.015625 1.078125 -0.171875q0.5 -0.171875 0.875 -0.484375q0.375 -0.328125 0.59375 -0.78125q0.21875 -0.46875 0.21875 -1.0625q0 -0.640625 -0.21875 -1.109375q-0.203125 -0.484375 -0.578125 -0.8125q-0.375 -0.328125 -0.890625 -0.484375q-0.5 -0.171875 -1.125 -0.171875l-2.203125 0l0 5.078125zm16.742432 0.671875l-5.53125 0l0 4.6875l6.453125 0l0 1.4375l-8.140625 0l0 -13.265625l8.0625 0l0 1.4375l-6.375 0l0 4.265625l5.53125 0l0 1.4375zm12.851837 -5.703125l-4.09375 0l0 11.828125l-1.640625 0l0 -11.828125l-4.109375 0l0 -1.4375l9.84375 0l0 1.4375zm10.570557 -1.4375l0.015625 8.984375q-0.015625 0.921875 -0.328125 1.734375q-0.3125 0.8125 -0.890625 1.421875q-0.578125 0.609375 -1.375 0.96875q-0.78125 0.34375 -1.734375 0.34375q-0.96875 0 -1.765625 -0.34375q-0.78125 -0.359375 -1.359375 -0.953125q-0.5625 -0.609375 -0.875 -1.421875q-0.3125 -0.828125 -0.328125 -1.75l0.015625 -8.984375l1.609375 0l0.03125 8.984375q0.015625 0.59375 0.1875 1.140625q0.171875 0.546875 0.5 0.96875q0.34375 0.40625 0.84375 0.671875q0.5 0.25 1.140625 0.25q0.640625 0 1.125 -0.25q0.5 -0.25 0.828125 -0.671875q0.34375 -0.421875 0.515625 -0.96875q0.171875 -0.546875 0.1875 -1.140625l0.03125 -8.984375l1.625 0zm7.2580566 7.859375l-2.640625 0l0 5.40625l-1.671875 0l0 -13.265625l3.875 0q0.9375 0.015625 1.75 0.265625q0.828125 0.25 1.4375 0.75q0.625 0.484375 0.96875 1.234375q0.34375 0.734375 0.34375 1.734375q0 0.640625 -0.1875 1.1875q-0.171875 0.53125 -0.5 0.96875q-0.328125 0.4375 -0.796875 0.78125q-0.453125 0.328125 -1.0 0.5625l2.8125 5.671875l0 0.109375l-1.78125 0l-2.609375 -5.40625zm-2.640625 -1.390625l2.25 0q0.578125 -0.015625 1.078125 -0.171875q0.5 -0.171875 0.875 -0.484375q0.375 -0.328125 0.59375 -0.78125q0.21875 -0.46875 0.21875 -1.0625q0 -0.640625 -0.21875 -1.109375q-0.203125 -0.484375 -0.578125 -0.8125q-0.375 -0.328125 -0.890625 -0.484375q-0.5 -0.171875 -1.125 -0.171875l-2.203125 0l0 5.078125zm17.758118 6.796875l-1.703125 0l-5.15625 -9.90625l-0.03125 9.90625l-1.703125 0l0 -13.265625l1.71875 0l5.140625 9.890625l0.03125 -9.890625l1.703125 0l0 13.265625z" fill-rule="nonzero"/><path fill="#fff2cc" d="m452.6942 263.1616l0 0c0 -4.4183655 3.5818176 -8.000168 8.000183 -8.000168l119.999695 0c2.1217651 0 4.156616 0.84288025 5.6569214 2.3431854c1.5003662 1.5003357 2.3432007 3.5351868 2.3432007 5.6569824l0 31.999664c0 4.4183655 -3.581787 8.000153 -8.000122 8.000153l-119.999695 0c-4.4183655 0 -8.000183 -3.581787 -8.000183 -8.000153z" fill-rule="evenodd"/><path stroke="#000000" stroke-width="1.0" stroke-linejoin="round" stroke-linecap="butt" d="m452.6942 263.1616l0 0c0 -4.4183655 3.5818176 -8.000168 8.000183 -8.000168l119.999695 0c2.1217651 0 4.156616 0.84288025 5.6569214 2.3431854c1.5003662 1.5003357 2.3432007 3.5351868 2.3432007 5.6569824l0 31.999664c0 4.4183655 -3.581787 8.000153 -8.000122 8.000153l-119.999695 0c-4.4183655 0 -8.000183 -3.581787 -8.000183 -8.000153z" fill-rule="evenodd"/><path fill="#000000" d="m511.82275 282.64392l-4.4375 0l-1.0625 3.4375l-1.6875 0l4.28125 -13.265625l1.421875 0l4.203125 13.265625l-1.671875 0l-1.046875 -3.4375zm-3.984375 -1.46875l3.53125 0l-1.75 -5.75l-1.78125 5.75zm8.664307 4.90625l0 -13.265625l3.078125 0q1.375 0.015625 2.46875 0.46875q1.09375 0.453125 1.84375 1.265625q0.75 0.796875 1.140625 1.921875q0.40625 1.125 0.40625 2.5l0 0.96875q0 1.375 -0.40625 2.5q-0.390625 1.125 -1.140625 1.9375q-0.75 0.796875 -1.84375 1.25q-1.09375 0.4375 -2.46875 0.453125l-3.078125 0zm1.71875 -11.875l0 10.5l1.359375 0q1.078125 -0.015625 1.859375 -0.375q0.78125 -0.375 1.296875 -1.0q0.515625 -0.640625 0.765625 -1.5q0.25 -0.875 0.25 -1.890625l0 -0.984375q0 -1.015625 -0.265625 -1.875q-0.25 -0.859375 -0.765625 -1.484375q-0.5 -0.640625 -1.28125 -1.0q-0.78125 -0.375 -1.859375 -0.390625l-1.359375 0zm9.476807 11.875l0 -13.265625l3.078125 0q1.375 0.015625 2.46875 0.46875q1.09375 0.453125 1.84375 1.265625q0.75 0.796875 1.140625 1.921875q0.40625 1.125 0.40625 2.5l0 0.96875q0 1.375 -0.40625 2.5q-0.390625 1.125 -1.140625 1.9375q-0.75 0.796875 -1.84375 1.25q-1.09375 0.4375 -2.46875 0.453125l-3.078125 0zm1.71875 -11.875l0 10.5l1.359375 0q1.078125 -0.015625 1.859375 -0.375q0.78125 -0.375 1.296875 -1.0q0.515625 -0.640625 0.765625 -1.5q0.25 -0.875 0.25 -1.890625l0 -0.984375q0 -1.015625 -0.265625 -1.875q-0.25 -0.859375 -0.765625 -1.484375q-0.5 -0.640625 -1.28125 -1.0q-0.78125 -0.375 -1.859375 -0.390625l-1.359375 0z" fill-rule="nonzero"/><path fill="#fff2cc" d="m308.6942 399.1616l0 0c0 -4.4183655 3.5818176 -8.000183 8.000183 -8.000183l175.99966 0c2.1217651 0 4.1566467 0.8428955 5.6569824 2.3432007c1.5003052 1.5003357 2.3431702 3.5351868 2.3431702 5.6569824l0 31.999664c0 4.4183655 -3.581787 8.000153 -8.000153 8.000153l-175.99966 0c-4.4183655 0 -8.000183 -3.581787 -8.000183 -8.000153z" fill-rule="evenodd"/><path stroke="#000000" stroke-width="1.0" stroke-linejoin="round" stroke-linecap="butt" d="m308.6942 399.1616l0 0c0 -4.4183655 3.5818176 -8.000183 8.000183 -8.000183l175.99966 0c2.1217651 0 4.1566467 0.8428955 5.6569824 2.3432007c1.5003052 1.5003357 2.3431702 3.5351868 2.3431702 5.6569824l0 31.999664c0 4.4183655 -3.581787 8.000153 -8.000153 8.000153l-175.99966 0c-4.4183655 0 -8.000183 -3.581787 -8.000183 -8.000153z" fill-rule="evenodd"/><path fill="#000000" d="m337.4855 419.36267l3.125 -10.546875l1.796875 0l-4.1875 13.265625l-1.453125 0l-4.203125 -13.265625l1.8125 0l3.109375 10.546875zm13.554962 -0.71875l-4.4375 0l-1.0625 3.4375l-1.6875 0l4.28125 -13.265625l1.421875 0l4.203125 13.265625l-1.671875 0l-1.046875 -3.4375zm-3.984375 -1.46875l3.53125 0l-1.75 -5.75l-1.78125 5.75zm13.226807 -0.5l-2.640625 0l0 5.40625l-1.671875 0l0 -13.265625l3.875 0q0.9375 0.015625 1.75 0.265625q0.828125 0.25 1.4375 0.75q0.625 0.484375 0.96875 1.234375q0.34375 0.734375 0.34375 1.734375q0 0.640625 -0.1875 1.1875q-0.171875 0.53125 -0.5 0.96875q-0.328125 0.4375 -0.796875 0.78125q-0.453125 0.328125 -1.0 0.5625l2.8125 5.671875l0 0.109375l-1.78125 0l-2.609375 -5.40625zm-2.640625 -1.390625l2.25 0q0.578125 -0.015625 1.078125 -0.171875q0.5 -0.171875 0.875 -0.484375q0.375 -0.328125 0.59375 -0.78125q0.21875 -0.46875 0.21875 -1.0625q0 -0.640625 -0.21875 -1.109375q-0.203125 -0.484375 -0.578125 -0.8125q-0.375 -0.328125 -0.890625 -0.484375q-0.5 -0.171875 -1.125 -0.171875l-2.203125 0l0 5.078125zm22.484894 1.484375l0 5.3125l-1.6875 0l0 -13.265625l4.3125 0q0.890625 0.015625 1.6875 0.28125q0.796875 0.265625 1.390625 0.765625q0.609375 0.5 0.953125 1.25q0.359375 0.734375 0.359375 1.6875q0 0.953125 -0.359375 1.6875q-0.34375 0.734375 -0.953125 1.234375q-0.59375 0.5 -1.390625 0.765625q-0.796875 0.265625 -1.6875 0.28125l-2.625 0zm0 -1.390625l2.625 0q0.578125 -0.015625 1.0625 -0.1875q0.5 -0.171875 0.859375 -0.5q0.359375 -0.328125 0.5625 -0.796875q0.21875 -0.46875 0.21875 -1.078125q0 -0.59375 -0.21875 -1.078125q-0.203125 -0.484375 -0.5625 -0.8125q-0.359375 -0.34375 -0.859375 -0.53125q-0.484375 -0.1875 -1.0625 -0.1875l-2.625 0l0 5.171875zm13.742462 1.296875l-2.640625 0l0 5.40625l-1.671875 0l0 -13.265625l3.875 0q0.9375 0.015625 1.75 0.265625q0.828125 0.25 1.4375 0.75q0.625 0.484375 0.96875 1.234375q0.34375 0.734375 0.34375 1.734375q0 0.640625 -0.1875 1.1875q-0.171875 0.53125 -0.5 0.96875q-0.328125 0.4375 -0.796875 0.78125q-0.453125 0.328125 -1.0 0.5625l2.8125 5.671875l0 0.109375l-1.78125 0l-2.609375 -5.40625zm-2.640625 -1.390625l2.25 0q0.578125 -0.015625 1.078125 -0.171875q0.5 -0.171875 0.875 -0.484375q0.375 -0.328125 0.59375 -0.78125q0.21875 -0.46875 0.21875 -1.0625q0 -0.640625 -0.21875 -1.109375q-0.203125 -0.484375 -0.578125 -0.8125q-0.375 -0.328125 -0.890625 -0.484375q-0.5 -0.171875 -1.125 -0.171875l-2.203125 0l0 5.078125zm18.086182 0.9375q-0.015625 0.703125 -0.140625 1.4375q-0.109375 0.71875 -0.34375 1.390625q-0.234375 0.671875 -0.609375 1.265625q-0.359375 0.578125 -0.875 1.015625q-0.5 0.4375 -1.171875 0.6875q-0.65625 0.25 -1.46875 0.25q-0.828125 0 -1.484375 -0.25q-0.65625 -0.25 -1.171875 -0.6875q-0.515625 -0.4375 -0.890625 -1.03125q-0.375 -0.59375 -0.609375 -1.265625q-0.234375 -0.671875 -0.359375 -1.390625q-0.125 -0.71875 -0.125 -1.421875l0 -1.515625q0 -0.71875 0.109375 -1.4375q0.125 -0.71875 0.359375 -1.390625q0.25 -0.6875 0.609375 -1.265625q0.375 -0.59375 0.875 -1.03125q0.515625 -0.4375 1.171875 -0.6875q0.671875 -0.265625 1.484375 -0.265625q0.828125 0 1.484375 0.265625q0.671875 0.25 1.171875 0.6875q0.515625 0.4375 0.875 1.03125q0.375 0.578125 0.609375 1.25q0.25 0.671875 0.359375 1.40625q0.125 0.71875 0.140625 1.4375l0 1.515625zm-1.671875 -1.53125q-0.015625 -0.484375 -0.078125 -1.0q-0.046875 -0.515625 -0.1875 -1.015625q-0.125 -0.5 -0.34375 -0.953125q-0.21875 -0.46875 -0.546875 -0.8125q-0.328125 -0.359375 -0.78125 -0.5625q-0.4375 -0.203125 -1.03125 -0.203125q-0.578125 0 -1.03125 0.203125q-0.4375 0.203125 -0.765625 0.5625q-0.328125 0.34375 -0.546875 0.8125q-0.21875 0.453125 -0.359375 0.96875q-0.125 0.5 -0.1875 1.015625q-0.0625 0.515625 -0.0625 0.984375l0 1.53125q0 0.453125 0.0625 0.984375q0.0625 0.515625 0.203125 1.015625q0.140625 0.5 0.359375 0.96875q0.21875 0.46875 0.546875 0.828125q0.328125 0.34375 0.765625 0.5625q0.453125 0.203125 1.046875 0.203125q0.578125 0 1.03125 -0.203125q0.453125 -0.21875 0.78125 -0.5625q0.328125 -0.359375 0.53125 -0.8125q0.21875 -0.46875 0.34375 -0.96875q0.140625 -0.515625 0.1875 -1.03125q0.046875 -0.515625 0.0625 -0.984375l0 -1.53125zm8.336212 -0.671875l2.859375 -5.203125l2.0 0l-3.859375 6.578125l3.9375 6.6875l-1.96875 0l-2.921875 -5.296875l-2.953125 5.296875l-1.984375 0l3.953125 -6.6875l-3.859375 -6.578125l1.984375 0l2.8125 5.203125zm11.008057 1.453125l3.015625 -6.65625l1.921875 0l-4.140625 8.3125l-0.015625 4.953125l-1.578125 0l-0.015625 -4.953125l-4.125 -8.3125l1.921875 0l3.015625 6.65625zm20.375519 -4.1875q0 -0.421875 0.09375 -0.890625q0.109375 -0.484375 0.3125 -0.9375q0.203125 -0.46875 0.5 -0.875q0.296875 -0.421875 0.671875 -0.75l0.921875 0.65625q-0.421875 0.640625 -0.640625 1.3125q-0.21875 0.671875 -0.21875 1.453125l0 1.359375l-1.640625 0l0 -1.328125zm2.0 0q0 -0.421875 0.09375 -0.890625q0.109375 -0.484375 0.3125 -0.9375q0.203125 -0.46875 0.5 -0.875q0.296875 -0.421875 0.671875 -0.75l0.921875 0.65625q-0.421875 0.640625 -0.640625 1.3125q-0.21875 0.671875 -0.21875 1.453125l0 1.359375l-1.640625 0l0 -1.328125zm11.367432 4.59375l2.640625 -3.65625l1.96875 0l-3.671875 4.875l3.765625 4.984375l-1.9375 0l-2.734375 -3.75l-2.71875 3.75l-1.96875 0l3.765625 -4.984375l-3.65625 -4.875l1.9375 0l2.609375 3.65625zm11.242462 -6.65625q0 0.4375 -0.109375 0.90625q-0.09375 0.46875 -0.3125 0.9375q-0.203125 0.453125 -0.5 0.875q-0.28125 0.421875 -0.65625 0.75l-0.921875 -0.65625q0.421875 -0.640625 0.640625 -1.3125q0.21875 -0.6875 0.21875 -1.46875l0 -1.359375l1.640625 0l0 1.328125zm3.0 0q0 0.4375 -0.109375 0.90625q-0.09375 0.46875 -0.3125 0.9375q-0.203125 0.453125 -0.5 0.875q-0.28125 0.421875 -0.65625 0.75l-0.921875 -0.65625q0.421875 -0.640625 0.640625 -1.3125q0.21875 -0.6875 0.21875 -1.46875l0 -1.359375l1.640625 0l0 1.328125z" fill-rule="nonzero"/><path fill="#fff2cc" d="m540.6942 399.1616l0 0c0 -4.4183655 3.581787 -8.000183 8.000183 -8.000183l175.9997 0c2.1217651 0 4.156616 0.8428955 5.6569214 2.3432007c1.5003662 1.5003357 2.3432007 3.5351868 2.3432007 5.6569824l0 31.999664c0 4.4183655 -3.581787 8.000153 -8.000122 8.000153l-175.9997 0c-4.418396 0 -8.000183 -3.581787 -8.000183 -8.000153z" fill-rule="evenodd"/><path stroke="#000000" stroke-width="1.0" stroke-linejoin="round" stroke-linecap="butt" d="m540.6942 399.1616l0 0c0 -4.4183655 3.581787 -8.000183 8.000183 -8.000183l175.9997 0c2.1217651 0 4.156616 0.8428955 5.6569214 2.3432007c1.5003662 1.5003357 2.3432007 3.5351868 2.3432007 5.6569824l0 31.999664c0 4.4183655 -3.581787 8.000153 -8.000122 8.000153l-175.9997 0c-4.418396 0 -8.000183 -3.581787 -8.000183 -8.000153z" fill-rule="evenodd"/><path fill="#000000" d="m569.48553 419.36267l3.125 -10.546875l1.796875 0l-4.1875 13.265625l-1.453125 0l-4.203125 -13.265625l1.8125 0l3.109375 10.546875zm13.554932 -0.71875l-4.4375 0l-1.0625 3.4375l-1.6875 0l4.28125 -13.265625l1.421875 0l4.203125 13.265625l-1.671875 0l-1.046875 -3.4375zm-3.984375 -1.46875l3.53125 0l-1.75 -5.75l-1.78125 5.75zm13.226807 -0.5l-2.640625 0l0 5.40625l-1.671875 0l0 -13.265625l3.875 0q0.9375 0.015625 1.75 0.265625q0.828125 0.25 1.4375 0.75q0.625 0.484375 0.96875 1.234375q0.34375 0.734375 0.34375 1.734375q0 0.640625 -0.1875 1.1875q-0.171875 0.53125 -0.5 0.96875q-0.328125 0.4375 -0.796875 0.78125q-0.453125 0.328125 -1.0 0.5625l2.8125 5.671875l0 0.109375l-1.78125 0l-2.609375 -5.40625zm-2.640625 -1.390625l2.25 0q0.578125 -0.015625 1.078125 -0.171875q0.5 -0.171875 0.875 -0.484375q0.375 -0.328125 0.59375 -0.78125q0.21875 -0.46875 0.21875 -1.0625q0 -0.640625 -0.21875 -1.109375q-0.203125 -0.484375 -0.578125 -0.8125q-0.375 -0.328125 -0.890625 -0.484375q-0.5 -0.171875 -1.125 -0.171875l-2.203125 0l0 5.078125zm22.484924 1.484375l0 5.3125l-1.6875 0l0 -13.265625l4.3125 0q0.890625 0.015625 1.6875 0.28125q0.796875 0.265625 1.390625 0.765625q0.609375 0.5 0.953125 1.25q0.359375 0.734375 0.359375 1.6875q0 0.953125 -0.359375 1.6875q-0.34375 0.734375 -0.953125 1.234375q-0.59375 0.5 -1.390625 0.765625q-0.796875 0.265625 -1.6875 0.28125l-2.625 0zm0 -1.390625l2.625 0q0.578125 -0.015625 1.0625 -0.1875q0.5 -0.171875 0.859375 -0.5q0.359375 -0.328125 0.5625 -0.796875q0.21875 -0.46875 0.21875 -1.078125q0 -0.59375 -0.21875 -1.078125q-0.203125 -0.484375 -0.5625 -0.8125q-0.359375 -0.34375 -0.859375 -0.53125q-0.484375 -0.1875 -1.0625 -0.1875l-2.625 0l0 5.171875zm13.742432 1.296875l-2.640625 0l0 5.40625l-1.671875 0l0 -13.265625l3.875 0q0.9375 0.015625 1.75 0.265625q0.828125 0.25 1.4375 0.75q0.625 0.484375 0.96875 1.234375q0.34375 0.734375 0.34375 1.734375q0 0.640625 -0.1875 1.1875q-0.171875 0.53125 -0.5 0.96875q-0.328125 0.4375 -0.796875 0.78125q-0.453125 0.328125 -1.0 0.5625l2.8125 5.671875l0 0.109375l-1.78125 0l-2.609375 -5.40625zm-2.640625 -1.390625l2.25 0q0.578125 -0.015625 1.078125 -0.171875q0.5 -0.171875 0.875 -0.484375q0.375 -0.328125 0.59375 -0.78125q0.21875 -0.46875 0.21875 -1.0625q0 -0.640625 -0.21875 -1.109375q-0.203125 -0.484375 -0.578125 -0.8125q-0.375 -0.328125 -0.890625 -0.484375q-0.5 -0.171875 -1.125 -0.171875l-2.203125 0l0 5.078125zm18.086182 0.9375q-0.015625 0.703125 -0.140625 1.4375q-0.109375 0.71875 -0.34375 1.390625q-0.234375 0.671875 -0.609375 1.265625q-0.359375 0.578125 -0.875 1.015625q-0.5 0.4375 -1.171875 0.6875q-0.65625 0.25 -1.46875 0.25q-0.828125 0 -1.484375 -0.25q-0.65625 -0.25 -1.171875 -0.6875q-0.515625 -0.4375 -0.890625 -1.03125q-0.375 -0.59375 -0.609375 -1.265625q-0.234375 -0.671875 -0.359375 -1.390625q-0.125 -0.71875 -0.125 -1.421875l0 -1.515625q0 -0.71875 0.109375 -1.4375q0.125 -0.71875 0.359375 -1.390625q0.25 -0.6875 0.609375 -1.265625q0.375 -0.59375 0.875 -1.03125q0.515625 -0.4375 1.171875 -0.6875q0.671875 -0.265625 1.484375 -0.265625q0.828125 0 1.484375 0.265625q0.671875 0.25 1.171875 0.6875q0.515625 0.4375 0.875 1.03125q0.375 0.578125 0.609375 1.25q0.25 0.671875 0.359375 1.40625q0.125 0.71875 0.140625 1.4375l0 1.515625zm-1.671875 -1.53125q-0.015625 -0.484375 -0.078125 -1.0q-0.046875 -0.515625 -0.1875 -1.015625q-0.125 -0.5 -0.34375 -0.953125q-0.21875 -0.46875 -0.546875 -0.8125q-0.328125 -0.359375 -0.78125 -0.5625q-0.4375 -0.203125 -1.03125 -0.203125q-0.578125 0 -1.03125 0.203125q-0.4375 0.203125 -0.765625 0.5625q-0.328125 0.34375 -0.546875 0.8125q-0.21875 0.453125 -0.359375 0.96875q-0.125 0.5 -0.1875 1.015625q-0.0625 0.515625 -0.0625 0.984375l0 1.53125q0 0.453125 0.0625 0.984375q0.0625 0.515625 0.203125 1.015625q0.140625 0.5 0.359375 0.96875q0.21875 0.46875 0.546875 0.828125q0.328125 0.34375 0.765625 0.5625q0.453125 0.203125 1.046875 0.203125q0.578125 0 1.03125 -0.203125q0.453125 -0.21875 0.78125 -0.5625q0.328125 -0.359375 0.53125 -0.8125q0.21875 -0.46875 0.34375 -0.96875q0.140625 -0.515625 0.1875 -1.03125q0.046875 -0.515625 0.0625 -0.984375l0 -1.53125zm8.336182 -0.671875l2.859375 -5.203125l2.0 0l-3.859375 6.578125l3.9375 6.6875l-1.96875 0l-2.921875 -5.296875l-2.953125 5.296875l-1.984375 0l3.953125 -6.6875l-3.859375 -6.578125l1.984375 0l2.8125 5.203125zm11.008118 1.453125l3.015625 -6.65625l1.921875 0l-4.140625 8.3125l-0.015625 4.953125l-1.578125 0l-0.015625 -4.953125l-4.125 -8.3125l1.921875 0l3.015625 6.65625zm20.375488 -4.1875q0 -0.421875 0.09375 -0.890625q0.109375 -0.484375 0.3125 -0.9375q0.203125 -0.46875 0.5 -0.875q0.296875 -0.421875 0.671875 -0.75l0.921875 0.65625q-0.421875 0.640625 -0.640625 1.3125q-0.21875 0.671875 -0.21875 1.453125l0 1.359375l-1.640625 0l0 -1.328125zm2.0 0q0 -0.421875 0.09375 -0.890625q0.109375 -0.484375 0.3125 -0.9375q0.203125 -0.46875 0.5 -0.875q0.296875 -0.421875 0.671875 -0.75l0.921875 0.65625q-0.421875 0.640625 -0.640625 1.3125q-0.21875 0.671875 -0.21875 1.453125l0 1.359375l-1.640625 0l0 -1.328125zm10.914307 7.296875l0.4375 1.1875l3.015625 -7.546875l1.890625 0l-5.015625 11.375q-0.171875 0.390625 -0.4375 0.8125q-0.265625 0.4375 -0.65625 0.796875q-0.375 0.359375 -0.890625 0.609375q-0.5 0.25 -1.171875 0.25q-0.109375 0 -0.265625 -0.015625q-0.140625 -0.015625 -0.296875 -0.046875q-0.140625 -0.015625 -0.265625 -0.046875q-0.125 -0.015625 -0.203125 -0.046875l0.265625 -1.375q0.0625 0 0.171875 0.015625q0.109375 0.015625 0.21875 0.015625q0.125 0.015625 0.234375 0.015625q0.109375 0 0.171875 0q0.359375 0 0.640625 -0.1875q0.28125 -0.1875 0.5 -0.453125q0.234375 -0.265625 0.390625 -0.546875q0.15625 -0.28125 0.25 -0.46875l0.671875 -1.3125l-4.234375 -9.390625l1.875 0l2.703125 6.359375zm11.695618 -9.359375q0 0.4375 -0.109375 0.90625q-0.09375 0.46875 -0.3125 0.9375q-0.203125 0.453125 -0.5 0.875q-0.28125 0.421875 -0.65625 0.75l-0.921875 -0.65625q0.421875 -0.640625 0.640625 -1.3125q0.21875 -0.6875 0.21875 -1.46875l0 -1.359375l1.640625 0l0 1.328125zm3.0 0q0 0.4375 -0.109375 0.90625q-0.09375 0.46875 -0.3125 0.9375q-0.203125 0.453125 -0.5 0.875q-0.28125 0.421875 -0.65625 0.75l-0.921875 -0.65625q0.421875 -0.640625 0.640625 -1.3125q0.21875 -0.6875 0.21875 -1.46875l0 -1.359375l1.640625 0l0 1.328125z" fill-rule="nonzero"/><path fill="#000000" fill-opacity="0.0" d="m176.69423 183.16142l-88.0 72.0" fill-rule="evenodd"/><path stroke="#666666" stroke-width="2.0" stroke-linejoin="round" stroke-linecap="butt" d="m176.69423 183.16142l-78.71252 64.40114" fill-rule="evenodd"/><path fill="#666666" stroke="#666666" stroke-width="2.0" stroke-linecap="butt" d="m95.88983 245.00583l-4.9327087 8.304123l9.11647 -3.1906433z" fill-rule="evenodd"/><path fill="#000000" fill-opacity="0.0" d="m176.69423 183.16142l79.999985 72.0" fill-rule="evenodd"/><path stroke="#666666" stroke-width="2.0" stroke-linejoin="round" stroke-linecap="butt" d="m176.69423 183.16142l71.08046 63.972412" fill-rule="evenodd"/><path fill="#666666" stroke="#666666" stroke-width="2.0" stroke-linecap="butt" d="m245.56479 249.5893l8.956192 3.6161957l-4.536377 -8.5271z" fill-rule="evenodd"/><path fill="#000000" fill-opacity="0.0" d="m352.6942 55.16142l-175.99998 80.0" fill-rule="evenodd"/><path stroke="#666666" stroke-width="2.0" stroke-linejoin="round" stroke-linecap="butt" d="m352.6942 55.16142l-165.07559 75.03436" fill-rule="evenodd"/><path fill="#666666" stroke="#666666" stroke-width="2.0" stroke-linecap="butt" d="m186.25163 127.188416l-6.8956757 6.7631226l9.629654 -0.7483978z" fill-rule="evenodd"/><path fill="#000000" fill-opacity="0.0" d="m352.6942 55.16142l168.0 80.0" fill-rule="evenodd"/><path stroke="#666666" stroke-width="2.0" stroke-linejoin="round" stroke-linecap="butt" d="m352.6942 55.16142l157.16568 74.84079" fill-rule="evenodd"/><path fill="#666666" stroke="#666666" stroke-width="2.0" stroke-linecap="butt" d="m508.43964 132.98479l9.614807 0.9195862l-6.7742615 -6.8847275z" fill-rule="evenodd"/><path fill="#000000" fill-opacity="0.0" d="m520.6942 183.16142l0 72.0" fill-rule="evenodd"/><path stroke="#666666" stroke-width="2.0" stroke-linejoin="round" stroke-linecap="butt" d="m520.6942 183.16142l0 60.0" fill-rule="evenodd"/><path fill="#666666" stroke="#666666" stroke-width="2.0" stroke-linecap="butt" d="m517.39075 243.16142l3.3034668 9.076187l3.3034668 -9.076187z" fill-rule="evenodd"/><path fill="#000000" fill-opacity="0.0" d="m520.6942 303.1614l-116.0 88.0" fill-rule="evenodd"/><path stroke="#666666" stroke-width="2.0" stroke-linejoin="round" stroke-linecap="butt" d="m520.6942 303.1614l-106.4397 80.747375" fill-rule="evenodd"/><path fill="#666666" stroke="#666666" stroke-width="2.0" stroke-linecap="butt" d="m412.25797 381.27695l-5.234375 8.117371l9.227509 -2.8536987z" fill-rule="evenodd"/><path fill="#000000" fill-opacity="0.0" d="m520.6942 303.1614l116.0 88.0" fill-rule="evenodd"/><path stroke="#666666" stroke-width="2.0" stroke-linejoin="round" stroke-linecap="butt" d="m520.6942 303.1614l106.4397 80.747375" fill-rule="evenodd"/><path fill="#666666" stroke="#666666" stroke-width="2.0" stroke-linecap="butt" d="m625.1374 386.54062l9.227478 2.8536987l-5.234375 -8.117371z" fill-rule="evenodd"/><path fill="#000000" fill-opacity="0.0" d="m404.6942 439.1614c0 12.499756 -79.0 41.999542 -157.99998 24.999542c-79.0 -17.0 -158.0 -80.49979 -158.0 -160.99954" fill-rule="evenodd"/><path stroke="#6aa84f" stroke-width="2.0" stroke-linejoin="round" stroke-linecap="butt" d="m404.6942 439.1614c0 12.499756 -79.0 41.99951 -157.99998 24.999512c-39.5 -8.5 -79.0 -28.624908 -108.625 -56.687317c-14.8125 -14.0312195 -27.15625 -30.046814 -35.796875 -47.585815c-4.3203125 -8.76947 -7.7148438 -17.91986 -10.0293045 -27.393433c-1.1572266 -4.7368164 -2.044426 -9.554443 -2.6423264 -14.445648c-0.07474518 -0.6114197 -0.14495087 -1.2239685 -0.2106247 -1.8376465c-0.032821655 -0.30685425 -0.06451416 -0.61395264 -0.095062256 -0.9213867l-0.013618469 -0.14263916" fill-rule="evenodd"/><path fill="#6aa84f" stroke="#6aa84f" stroke-width="2.0" stroke-linecap="butt" d="m92.58092 314.98538l-3.7436218 -8.903656l-2.8553925 9.226959z" fill-rule="evenodd"/><path fill="#000000" fill-opacity="0.0" d="m636.6942 439.1614c0 12.499756 -95.0 41.999542 -190.0 24.999542c-95.0 -17.0 -190.0 -80.49979 -190.0 -160.99954" fill-rule="evenodd"/><path stroke="#6aa84f" stroke-width="2.0" stroke-linejoin="round" stroke-linecap="butt" d="m636.6942 439.1614c0 12.499756 -95.0 41.99951 -190.0 24.999512c-47.5 -8.5 -95.0 -28.624908 -130.625 -56.687317c-17.8125 -14.0312195 -32.65625 -30.046814 -43.046875 -47.585815c-5.1953125 -8.76947 -9.277344 -17.91986 -12.060547 -27.393433c-1.391571 -4.7368164 -2.458496 -9.554443 -3.1774902 -14.445648c-0.08987427 -0.6114197 -0.17428589 -1.2239685 -0.25326538 -1.8376465c-0.03945923 -0.30685425 -0.07757568 -0.61395264 -0.11431885 -0.9213867l-0.017120361 -0.14901733" fill-rule="evenodd"/><path fill="#6aa84f" stroke="#6aa84f" stroke-width="2.0" stroke-linecap="butt" d="m260.69736 314.94647l-3.8312683 -8.8663025l-2.7642365 9.254669z" fill-rule="evenodd"/></g></svg>