<svg fill="none" stroke-linecap="square" stroke-miterlimit="10" width="707" height="437" xmlns="http://www.w3.org/2000/svg"><path fill="#fff" d="M0 0h707v437H0V0z"/><path fill="#fff" d="M0 0h707v437H0V0z"/><path stroke="#333" stroke-linecap="butt" d="M105.5 364.5h580"/><path stroke="#ccc" stroke-linecap="butt" d="M105.5 280.5h580m-580-84h580m-580-83h580m-580-84h580"/><clipPath id="a"><path d="M105.85 29.35h579.3v335.233h-579.3V29.35z"/></clipPath><path stroke="#36c" stroke-width="2" stroke-linecap="butt" clip-path="url(#a)" d="M163.78 314.4l115.86-.033 115.86-.103 115.86-.719 115.86.304"/><path stroke="#dc3912" stroke-width="2" stroke-linecap="butt" clip-path="url(#a)" d="M163.78 314.697l115.86-14.265 115.86-13.828 115.86-5.35L627.22 38.21"/><path fill="#383838" d="M29.913 280.904v3.703h3.015v-4.297h.922v5.422h-8.531v-5.375h.922v4.25h2.75v-3.703h.922zm-.094-4.14l-2.313-1.407v-1.265l3.14 2.078 3.204-2.14v1.25l-2.375 1.468 2.375 1.469v1.265l-3.203-2.14-3.14 2.062v-1.25l2.312-1.39zm4.156-6.5q0 1.296-.844 2.109-.86.797-2.281.797h-.187q-.954 0-1.688-.36-.75-.359-1.156-1-.422-.656-.422-1.406 0-1.234.812-1.922.813-.687 2.329-.687h.453v4.297q.937-.032 1.515-.547.578-.531.578-1.344 0-.562-.234-.953-.234-.406-.625-.719l.516-.656q1.234.797 1.234 2.39zm-5.687.14q0 .656.484 1.11.469.437 1.328.53v-3.171h-.078q-.828.047-1.281.453-.453.39-.453 1.078zm4.796-6.047q0-.578-.343-1.015-.36-.438-.891-.485v-1.031q.547.031 1.047.39.484.344.781.923.297.562.297 1.218 0 1.297-.86 2.063-.874.75-2.374.75h-.188q-.922 0-1.64-.328-.72-.344-1.11-.97-.406-.64-.406-1.515 0-1.062.64-1.765.626-.72 1.657-.766v1.031q-.625.047-1.016.469-.39.422-.39 1.031 0 .828.593 1.282.594.453 1.719.453h.203q1.094 0 1.688-.453.593-.454.593-1.282zm.141-7.375q.75.625.75 1.86 0 1.015-.594 1.547-.593.53-1.75.53h-4.125v-1.077H31.6q1.453 0 1.453-1.172 0-1.25-.937-1.656h-4.61v-1.094h6.344v1.031l-.625.031zm-7.25-4.562h1.531v-1.172h.844v1.172h3.922q.39 0 .578-.156.188-.157.188-.532 0-.187-.063-.515h.875q.125.422.125.828 0 .719-.437 1.094-.454.375-1.266.375H28.35v1.156h-.844v-1.156h-1.531v-1.094zm7.875-3.703v1.078h-6.344v-1.078h6.344zm-8.016 1.172q-.265 0-.453-.157-.187-.172-.187-.484 0-.313.187-.469.188-.172.453-.172.25 0 .438.172.172.156.172.469 0 .312-.172.484-.188.157-.438.157zm4.782-2.704q-.922 0-1.672-.359-.75-.375-1.14-1.031-.407-.656-.407-1.485 0-1.296.89-2.093.891-.813 2.391-.813h.078q.922 0 1.657.36.734.359 1.156 1.015.406.656.406 1.516 0 1.281-.89 2.094-.907.796-2.391.796h-.078zm.14-1.093q1.047 0 1.688-.485.64-.5.64-1.312 0-.828-.64-1.313-.656-.484-1.828-.484-1.032 0-1.672.5-.656.484-.656 1.312 0 .797.64 1.297.625.485 1.828.485zm-3.25-7.22l.797-.03q-.906-.735-.906-1.907 0-2.015 2.266-2.03h4.187v1.093h-4.203q-.672 0-1 .312-.328.297-.328.954 0 .53.281.937.281.39.734.61h4.516v1.078h-6.344v-1.016zm-1.531-10.452h1.531v-1.172h.844v1.172h3.922q.39 0 .578-.156.188-.157.188-.532 0-.187-.063-.515h.875q.125.422.125.828 0 .719-.437 1.094-.454.375-1.266.375H28.35v1.156h-.844v-1.156h-1.531v-1.094zm7.875-3.703v1.078h-6.344v-1.078h6.344zm-8.016 1.172q-.265 0-.453-.157-.187-.172-.187-.484 0-.313.187-.469.188-.172.453-.172.25 0 .438.172.172.156.172.469 0 .312-.172.484-.188.157-.438.157zm1.672-4.016l.703-.031q-.812-.688-.812-1.875 0-1.328 1.016-1.813-.454-.312-.735-.812-.281-.516-.281-1.203 0-2.094 2.203-2.125h4.25v1.078h-4.187q-.672 0-1 .312-.344.313-.344 1.047 0 .61.36 1.016.359.39.968.453h4.203v1.078h-4.156q-1.375 0-1.375 1.36 0 1.062.906 1.452h4.625v1.094h-6.344v-1.031zm6.469-12.61q0 1.297-.844 2.11-.86.797-2.281.797h-.187q-.954 0-1.688-.36-.75-.359-1.156-1-.422-.656-.422-1.406 0-1.234.812-1.922.813-.687 2.329-.687h.453v4.297q.937-.032 1.515-.547.578-.531.578-1.344 0-.562-.234-.953-.234-.406-.625-.719l.516-.656q1.234.797 1.234 2.39zm-5.687.141q0 .656.484 1.11.469.437 1.328.53v-3.171h-.078q-.828.047-1.281.453-.453.39-.453 1.078zm2.093-6.469q-1.312 0-2.531-.343-1.219-.36-2.219-1.063-1-.703-1.406-1.469l.719-.218q.656.859 2 1.406 1.344.547 3.015.594l.5.015q2.266 0 3.922-.828 1-.5 1.563-1.187l.656.218q-.422.782-1.453 1.5-1.984 1.375-4.766 1.375zm3.469-5.218v1.078h-9v-1.078h9zm-3.234-1.532q-.922 0-1.672-.359-.75-.375-1.14-1.031-.407-.656-.407-1.485 0-1.296.89-2.093.891-.813 2.391-.813h.078q.922 0 1.657.36.734.359 1.156 1.015.406.656.406 1.516 0 1.281-.89 2.094-.907.796-2.391.796h-.078zm.14-1.093q1.047 0 1.688-.485.64-.5.64-1.312 0-.828-.64-1.313-.656-.484-1.828-.484-1.032 0-1.672.5-.656.484-.656 1.312 0 .797.64 1.297.625.485 1.828.485zm1.594-11.813l-4.844-1.219v-1.078l6.344 1.844v.875l-4.812 1.547 4.812 1.5v.875l-6.344 1.844v-1.078l4.75-1.25-4.75-1.485v-.86l4.844-1.515zm1.625-6.015q0 1.296-.844 2.109-.86.797-2.281.797h-.187q-.954 0-1.688-.36-.75-.359-1.156-1-.422-.656-.422-1.406 0-1.234.812-1.922.813-.687 2.329-.687h.453v4.297q.937-.032 1.515-.547.578-.531.578-1.344 0-.562-.234-.953-.234-.406-.625-.719l.516-.656q1.234.797 1.234 2.39zm-5.687.14q0 .656.484 1.11.469.437 1.328.53v-3.171h-.078q-.828.047-1.281.453-.453.39-.453 1.078zm.187-6.578q-.031.25-.031.531 0 1.078.906 1.453h4.5v1.079h-6.344v-1.047l.735-.016q-.844-.531-.844-1.516 0-.312.078-.484h1zm5.375-5.11v1.079h-6.344v-1.078h6.344zm-8.016 1.173q-.265 0-.453-.157-.187-.172-.187-.484 0-.313.187-.469.188-.172.453-.172.25 0 .438.172.172.156.172.469 0 .312-.172.484-.188.157-.438.157zm6.329-6.688q-.438 0-.672.344-.25.328-.422 1.156-.172.813-.422 1.297t-.578.719q-.344.218-.813.218-.781 0-1.312-.656-.547-.656-.547-1.687 0-1.078.562-1.735.547-.672 1.407-.672v1.079q-.438 0-.75.39-.328.375-.328.938 0 .593.265.937.25.328.656.328.391 0 .594-.312.203-.313.39-1.125.173-.813.423-1.313t.609-.734q.36-.25.86-.25.859 0 1.374.687.516.672.516 1.75 0 .766-.266 1.36-.28.578-.765.906-.485.328-1.047.328v-1.078q.547-.031.875-.437.312-.407.312-1.079 0-.609-.25-.984t-.671-.375zm-1.407-10.672q1.453 0 2.344.672.875.656.875 1.781 0 1.203-.86 1.86l.735.062v.985h-9v-1.079h3.36q-.813-.656-.813-1.812 0-1.156.875-1.813.86-.656 2.39-.656h.094zm-.125 1.078q-1.11 0-1.703.438-.61.422-.61 1.219 0 1.078.985 1.546h2.75q1-.5 1-1.546 0-.782-.61-1.22-.609-.437-1.812-.437zm3.344-5.343q0 1.296-.844 2.109-.86.797-2.281.797h-.187q-.954 0-1.688-.36-.75-.359-1.156-1-.422-.656-.422-1.406 0-1.234.812-1.922.813-.687 2.329-.687h.453v4.297q.937-.032 1.515-.547.578-.531.578-1.344 0-.562-.234-.953-.234-.406-.625-.719l.516-.656q1.234.797 1.234 2.39zm-5.687.14q0 .656.484 1.11.469.437 1.328.53v-3.171h-.078q-.828.047-1.281.453-.453.39-.453 1.078zm-2.313-4.984h1.531v-1.172h.844v1.172h3.922q.39 0 .578-.156.188-.157.188-.532 0-.187-.063-.515h.875q.125.422.125.828 0 .719-.437 1.094-.454.375-1.266.375H28.35v1.156h-.844v-1.156h-1.531v-1.094zm0-4h1.531v-1.172h.844v1.172h3.922q.39 0 .578-.156.188-.157.188-.532 0-.187-.063-.515h.875q.125.422.125.828 0 .719-.437 1.094-.454.375-1.266.375H28.35v1.156h-.844v-1.156h-1.531v-1.094zm8-5.156q0 1.296-.844 2.109-.86.797-2.281.797h-.187q-.954 0-1.688-.36-.75-.359-1.156-1-.422-.656-.422-1.406 0-1.234.812-1.922.813-.687 2.329-.687h.453v4.297q.937-.032 1.515-.547.578-.531.578-1.344 0-.562-.234-.953-.234-.406-.625-.719l.516-.656q1.234.797 1.234 2.39zm-5.687.14q0 .656.484 1.11.469.437 1.328.53v-3.171h-.078q-.828.047-1.281.453-.453.39-.453 1.078zm.187-6.578q-.031.25-.031.531 0 1.078.906 1.453h4.5v1.079h-6.344v-1.047l.735-.016q-.844-.531-.844-1.516 0-.312.078-.484h1zm1.969-3.437q1.312 0 2.515.343 1.188.344 2.204 1.063 1.015.703 1.437 1.469l-.656.234q-.688-.906-2.14-1.453-1.47-.547-3.235-.563h-.188q-1.234 0-2.297.266-1.062.25-1.89.719-.844.453-1.313 1.03l-.656-.233q.422-.766 1.422-1.47 1-.702 2.219-1.046 1.203-.36 2.578-.36z"/><path fill="#757575" d="M81.912 365.443q0 1.906-.656 2.843-.64.922-2.031.922-1.36 0-2.016-.906-.656-.906-.687-2.719v-1.437q0-1.89.64-2.797.657-.922 2.047-.922 1.375 0 2.032.89.656.876.671 2.72v1.406zm-1.093-1.485q0-1.375-.39-2-.376-.64-1.22-.64-.828 0-1.218.64-.375.625-.375 1.922v1.735q0 1.375.39 2.046.406.657 1.219.657.797 0 1.188-.625.39-.625.406-1.953v-1.782zm3.875-1.218l.031.703q.688-.813 1.875-.813 1.328 0 1.813 1.016.312-.453.812-.735.516-.28 1.203-.28 2.094 0 2.125 2.202v4.25h-1.078v-4.187q0-.672-.313-1-.312-.344-1.046-.344-.61 0-1.016.36-.39.359-.453.968v4.203h-1.078v-4.156q0-1.375-1.36-1.375-1.062 0-1.453.906v4.625h-1.094v-6.343h1.032zm13.672 4.656q0-.438-.344-.672-.328-.25-1.156-.422-.813-.172-1.297-.422-.485-.25-.719-.578-.219-.344-.219-.812 0-.782.656-1.313.657-.547 1.688-.547 1.078 0 1.734.563.672.547.672 1.406h-1.078q0-.438-.39-.75-.376-.328-.938-.328-.594 0-.938.265-.328.25-.328.657 0 .39.313.593.312.204 1.125.391.812.172 1.312.422t.735.61q.25.359.25.859 0 .86-.688 1.375-.672.515-1.75.515-.765 0-1.36-.265-.577-.282-.905-.766-.329-.484-.329-1.047h1.079q.03.547.437.875.406.313 1.078.313.61 0 .985-.25t.375-.672zm-39.25-82.121h-1.078v-7.219l-2.188.797v-.984l3.11-1.172h.156v8.578zm8.796-3.64q0 1.906-.656 2.843-.64.922-2.031.922-1.36 0-2.016-.906-.656-.907-.687-2.719v-1.438q0-1.89.64-2.796.657-.922 2.047-.922 1.375 0 2.032.89.656.875.671 2.72v1.405zm-1.093-1.485q0-1.375-.39-2-.376-.64-1.22-.64-.828 0-1.218.64-.375.625-.375 1.922v1.734q0 1.375.39 2.047.406.656 1.219.656.797 0 1.188-.625.39-.625.406-1.953v-1.781zm8.093 1.484q0 1.907-.656 2.844-.64.922-2.031.922-1.36 0-2.016-.906-.656-.907-.687-2.719v-1.438q0-1.89.64-2.796.657-.922 2.047-.922 1.375 0 2.032.89.656.875.671 2.72v1.405zm-1.093-1.484q0-1.375-.39-2-.376-.64-1.22-.64-.828 0-1.218.64-.375.625-.375 1.922v1.734q0 1.375.39 2.047.406.656 1.219.656.797 0 1.188-.625.39-.625.406-1.953v-1.781zm8.093 1.484q0 1.907-.656 2.844-.64.922-2.031.922-1.36 0-2.016-.906-.656-.907-.687-2.719v-1.438q0-1.89.64-2.796.657-.922 2.047-.922 1.375 0 2.032.89.656.875.671 2.72v1.405zm-1.093-1.484q0-1.375-.39-2-.376-.64-1.22-.64-.828 0-1.218.64-.375.625-.375 1.922v1.734q0 1.375.39 2.047.406.656 1.219.656.797 0 1.188-.625.39-.625.406-1.953v-1.781zm3.875-1.219l.031.703q.688-.812 1.875-.812 1.328 0 1.813 1.015.312-.453.812-.734.516-.281 1.203-.281 2.094 0 2.125 2.203v4.25h-1.078v-4.188q0-.671-.313-1-.312-.343-1.046-.343-.61 0-1.016.36-.39.358-.453.968v4.203h-1.078v-4.156q0-1.375-1.36-1.375-1.062 0-1.453.906v4.625h-1.094v-6.344h1.032zm13.672 4.656q0-.437-.344-.671-.328-.25-1.156-.422-.813-.172-1.297-.422-.485-.25-.719-.578-.219-.344-.219-.813 0-.781.656-1.312.657-.547 1.688-.547 1.078 0 1.734.562.672.547.672 1.407h-1.078q0-.438-.39-.75-.376-.329-.938-.329-.594 0-.938.266-.328.25-.328.656 0 .391.313.594.312.203 1.125.39.812.173 1.312.423t.735.609q.25.36.25.86 0 .859-.688 1.374-.672.516-1.75.516-.765 0-1.36-.266-.577-.28-.905-.765-.329-.485-.329-1.047h1.079q.03.547.437.875.406.312 1.078.312.61 0 .985-.25t.375-.672zm-37.219-82.12h-5.594v-.782l2.953-3.28q.657-.75.907-1.204.25-.469.25-.969 0-.672-.407-1.093-.39-.438-1.078-.438-.797 0-1.25.469-.453.453-.453 1.281h-1.078q0-1.187.75-1.906.766-.735 2.031-.735 1.203 0 1.89.625.688.625.688 1.672 0 1.25-1.61 3l-2.28 2.469h4.28v.89zm6.765-3.641q0 1.906-.656 2.844-.64.922-2.031.922-1.36 0-2.016-.907-.656-.906-.687-2.718v-1.438q0-1.89.64-2.797.657-.922 2.047-.922 1.375 0 2.032.891.656.875.671 2.719v1.406zm-1.093-1.484q0-1.375-.39-2-.376-.641-1.22-.641-.828 0-1.218.64-.375.626-.375 1.923v1.734q0 1.375.39 2.047.406.656 1.219.656.797 0 1.188-.625.39-.625.406-1.953v-1.781zm8.093 1.484q0 1.906-.656 2.844-.64.922-2.031.922-1.36 0-2.016-.907-.656-.906-.687-2.718v-1.438q0-1.89.64-2.797.657-.922 2.047-.922 1.375 0 2.032.891.656.875.671 2.719v1.406zm-1.093-1.484q0-1.375-.39-2-.376-.641-1.22-.641-.828 0-1.218.64-.375.626-.375 1.923v1.734q0 1.375.39 2.047.406.656 1.219.656.797 0 1.188-.625.39-.625.406-1.953v-1.781zm8.093 1.484q0 1.906-.656 2.844-.64.922-2.031.922-1.36 0-2.016-.907-.656-.906-.687-2.718v-1.438q0-1.89.64-2.797.657-.922 2.047-.922 1.375 0 2.032.891.656.875.671 2.719v1.406zm-1.093-1.484q0-1.375-.39-2-.376-.641-1.22-.641-.828 0-1.218.64-.375.626-.375 1.923v1.734q0 1.375.39 2.047.406.656 1.219.656.797 0 1.188-.625.39-.625.406-1.953v-1.781zm3.875-1.22l.031.704q.688-.812 1.875-.812 1.328 0 1.813 1.015.312-.453.812-.734.516-.281 1.203-.281 2.094 0 2.125 2.203v4.25h-1.078v-4.188q0-.672-.313-1-.312-.344-1.046-.344-.61 0-1.016.36-.39.36-.453.969v4.203h-1.078v-4.157q0-1.375-1.36-1.375-1.062 0-1.453.907v4.625h-1.094v-6.344h1.032zm13.672 4.657q0-.437-.344-.672-.328-.25-1.156-.422-.813-.171-1.297-.421-.485-.25-.719-.579-.219-.343-.219-.812 0-.781.656-1.313.657-.546 1.688-.546 1.078 0 1.734.562.672.547.672 1.406h-1.078q0-.437-.39-.75-.376-.328-.938-.328-.594 0-.938.266-.328.25-.328.656 0 .39.313.594.312.203 1.125.39.812.172 1.312.422t.735.61q.25.359.25.859 0 .86-.688 1.375-.672.516-1.75.516-.765 0-1.36-.266-.577-.281-.905-.766-.329-.484-.329-1.046h1.079q.03.546.437.875.406.312 1.078.312.61 0 .985-.25t.375-.672zm-41.235-86.918h.813q.781-.015 1.218-.406.438-.39.438-1.062 0-1.5-1.5-1.5-.703 0-1.125.406-.406.406-.406 1.062h-1.094q0-1.015.734-1.687.75-.672 1.891-.672 1.203 0 1.89.64.688.641.688 1.782 0 .562-.36 1.078-.359.516-.984.781.703.22 1.078.735.391.515.391 1.265 0 1.141-.75 1.828-.75.672-1.953.672-1.188 0-1.953-.656-.75-.656-.75-1.719h1.094q0 .672.437 1.078.438.407 1.188.407.78 0 1.187-.407.422-.421.422-1.187 0-.734-.453-1.125-.453-.406-1.328-.422h-.813v-.89zm10.781 1.157q0 1.906-.656 2.843-.64.922-2.031.922-1.36 0-2.016-.906-.656-.906-.687-2.719v-1.437q0-1.89.64-2.797.657-.922 2.047-.922 1.375 0 2.032.89.656.876.671 2.72v1.406zm-1.093-1.485q0-1.375-.39-2-.376-.64-1.22-.64-.828 0-1.218.64-.375.625-.375 1.922v1.735q0 1.375.39 2.046.406.657 1.219.657.797 0 1.188-.625.39-.625.406-1.953v-1.782zm8.093 1.485q0 1.906-.656 2.843-.64.922-2.031.922-1.36 0-2.016-.906-.656-.906-.687-2.719v-1.437q0-1.89.64-2.797.657-.922 2.047-.922 1.375 0 2.032.89.656.876.671 2.72v1.406zm-1.093-1.485q0-1.375-.39-2-.376-.64-1.22-.64-.828 0-1.218.64-.375.625-.375 1.922v1.735q0 1.375.39 2.046.406.657 1.219.657.797 0 1.188-.625.39-.625.406-1.953v-1.782zm8.093 1.485q0 1.906-.656 2.843-.64.922-2.031.922-1.36 0-2.016-.906-.656-.906-.687-2.719v-1.437q0-1.89.64-2.797.657-.922 2.047-.922 1.375 0 2.032.89.656.876.671 2.72v1.406zm-1.093-1.485q0-1.375-.39-2-.376-.64-1.22-.64-.828 0-1.218.64-.375.625-.375 1.922v1.735q0 1.375.39 2.046.406.657 1.219.657.797 0 1.188-.625.39-.625.406-1.953v-1.782zm3.875-1.218l.031.703q.688-.813 1.875-.813 1.328 0 1.813 1.016.312-.453.812-.735.516-.28 1.203-.28 2.094 0 2.125 2.202v4.25h-1.078v-4.187q0-.672-.313-1-.312-.344-1.046-.344-.61 0-1.016.36-.39.359-.453.968v4.203h-1.078v-4.156q0-1.375-1.36-1.375-1.062 0-1.453.906v4.625h-1.094v-6.343h1.032zm13.672 4.656q0-.438-.344-.672-.328-.25-1.156-.422-.813-.172-1.297-.422-.485-.25-.719-.578-.219-.344-.219-.812 0-.782.656-1.313.657-.547 1.688-.547 1.078 0 1.734.563.672.547.672 1.406h-1.078q0-.438-.39-.75-.376-.328-.938-.328-.594 0-.938.265-.328.25-.328.657 0 .39.313.593.312.204 1.125.391.812.172 1.312.422t.735.61q.25.359.25.859 0 .86-.688 1.375-.672.515-1.75.515-.765 0-1.36-.265-.577-.282-.905-.766-.329-.484-.329-1.047h1.079q.03.547.437.875.406.313 1.078.313.61 0 .985-.25t.375-.672zM60.131 30.99h1.188v.876H60.13v1.984h-1.078v-1.984h-3.89v-.641l3.812-5.906h1.156v5.672zm-3.734 0h2.656v-4.187l-.14.234-2.516 3.954zm11.515-.78q0 1.906-.656 2.843-.64.922-2.031.922-1.36 0-2.016-.906-.656-.907-.687-2.719v-1.438q0-1.89.64-2.796.657-.922 2.047-.922 1.375 0 2.032.89.656.875.671 2.72v1.405zm-1.093-1.485q0-1.375-.39-2-.376-.64-1.22-.64-.828 0-1.218.64-.375.625-.375 1.922v1.734q0 1.375.39 2.047.406.656 1.219.656.797 0 1.188-.625.39-.625.406-1.953v-1.781zm8.093 1.484q0 1.907-.656 2.844-.64.922-2.031.922-1.36 0-2.016-.906-.656-.907-.687-2.719v-1.438q0-1.89.64-2.796.657-.922 2.047-.922 1.375 0 2.032.89.656.875.671 2.72v1.405zm-1.093-1.484q0-1.375-.39-2-.376-.64-1.22-.64-.828 0-1.218.64-.375.625-.375 1.922v1.734q0 1.375.39 2.047.406.656 1.219.656.797 0 1.188-.625.39-.625.406-1.953v-1.781zm8.093 1.484q0 1.907-.656 2.844-.64.922-2.031.922-1.36 0-2.016-.906-.656-.907-.687-2.719v-1.438q0-1.89.64-2.796.657-.922 2.047-.922 1.375 0 2.032.89.656.875.671 2.72v1.405zm-1.093-1.484q0-1.375-.39-2-.376-.64-1.22-.64-.828 0-1.218.64-.375.625-.375 1.922v1.734q0 1.375.39 2.047.406.656 1.219.656.797 0 1.188-.625.39-.625.406-1.953v-1.781zm3.875-1.219l.031.703q.688-.812 1.875-.812 1.328 0 1.813 1.015.312-.453.812-.734.516-.281 1.203-.281 2.094 0 2.125 2.203v4.25h-1.078v-4.188q0-.671-.313-1-.312-.343-1.046-.343-.61 0-1.016.36-.39.358-.453.968v4.203h-1.078v-4.156q0-1.375-1.36-1.375-1.062 0-1.453.906v4.625h-1.094v-6.344h1.032zm13.672 4.657q0-.438-.344-.672-.328-.25-1.156-.422-.813-.172-1.297-.422-.485-.25-.719-.578-.219-.344-.219-.813 0-.781.656-1.312.657-.547 1.688-.547 1.078 0 1.734.562.672.547.672 1.407h-1.078q0-.438-.39-.75-.376-.329-.938-.329-.594 0-.938.266-.328.25-.328.656 0 .391.313.594.312.203 1.125.39.812.173 1.312.423t.735.609q.25.36.25.86 0 .859-.688 1.374-.672.516-1.75.516-.765 0-1.36-.266-.577-.28-.905-.765-.329-.485-.329-1.047h1.079q.03.547.437.875.406.312 1.078.312.61 0 .985-.25t.375-.672zm52.711 342.545v1.532h1.172v.843h-1.172v3.922q0 .39.156.578.156.188.531.188.188 0 .516-.063v.875q-.422.125-.828.125-.719 0-1.094-.437-.375-.453-.375-1.266v-3.922h-1.156v-.843h1.156v-1.532h1.094zm5.156 8q-1.297 0-2.11-.843-.796-.86-.796-2.282v-.187q0-.953.36-1.688.359-.75 1-1.156.655-.422 1.405-.422 1.235 0 1.922.813.688.812.688 2.328v.453h-4.297q.031.937.547 1.516.531.578 1.344.578.562 0 .953-.235.406-.234.719-.625l.656.516q-.797 1.234-2.39 1.234zm-.14-5.687q-.657 0-1.11.484-.437.469-.531 1.328h3.172v-.078q-.047-.828-.453-1.281-.391-.453-1.078-.453zm7.203 3.875q0-.438-.344-.672-.328-.25-1.156-.422-.813-.172-1.297-.422-.485-.25-.719-.578-.219-.344-.219-.812 0-.782.656-1.313.657-.547 1.688-.547 1.078 0 1.734.563.672.547.672 1.406h-1.078q0-.438-.39-.75-.375-.328-.938-.328-.594 0-.938.265-.328.25-.328.657 0 .39.313.593.312.204 1.125.391.812.172 1.312.422t.735.61q.25.359.25.859 0 .86-.688 1.375-.672.515-1.75.515-.765 0-1.36-.265-.577-.282-.905-.766-.328-.484-.328-1.047h1.078q.03.547.437.875.406.313 1.078.313.61 0 .985-.25t.375-.672zm3.78-6.188v1.532h1.173v.843h-1.172v3.922q0 .39.156.578.156.188.531.188.188 0 .516-.063v.875q-.422.125-.828.125-.719 0-1.094-.437-.375-.453-.375-1.266v-3.922h-1.156v-.843h1.156v-1.532h1.094zm8.97 7.875h-1.078v-7.218l-2.188.796v-.984l3.11-1.172h.156v8.578zm90.891-7.875v1.532h1.172v.843h-1.172v3.922q0 .39.156.578.156.188.531.188.188 0 .516-.063v.875q-.422.125-.828.125-.719 0-1.094-.437-.375-.453-.375-1.266v-3.922h-1.156v-.843h1.156v-1.532h1.094zm5.156 8q-1.297 0-2.11-.843-.796-.86-.796-2.282v-.187q0-.953.36-1.688.359-.75 1-1.156.655-.422 1.405-.422 1.235 0 1.922.813.688.812.688 2.328v.453h-4.297q.031.937.547 1.516.531.578 1.344.578.562 0 .953-.235.406-.234.719-.625l.656.516q-.797 1.234-2.39 1.234zm-.14-5.687q-.657 0-1.11.484-.437.469-.531 1.328h3.172v-.078q-.047-.828-.453-1.281-.391-.453-1.079-.453zm7.203 3.875q0-.438-.344-.672-.328-.25-1.156-.422-.813-.172-1.297-.422-.485-.25-.719-.578-.219-.344-.219-.812 0-.782.656-1.313.657-.547 1.688-.547 1.078 0 1.734.563.672.547.672 1.406h-1.078q0-.438-.39-.75-.375-.328-.938-.328-.594 0-.938.265-.328.25-.328.657 0 .39.313.593.312.204 1.125.391.812.172 1.312.422t.735.61q.25.359.25.859 0 .86-.688 1.375-.672.515-1.75.515-.765 0-1.36-.265-.577-.282-.905-.766-.329-.484-.329-1.047h1.079q.03.547.437.875.406.313 1.078.313.61 0 .985-.25t.375-.672zm3.78-6.188v1.532h1.173v.843h-1.172v3.922q0 .39.156.578.156.188.531.188.188 0 .516-.063v.875q-.422.125-.828.125-.719 0-1.094-.437-.375-.453-.375-1.266v-3.922h-1.156v-.843h1.156v-1.532h1.094zm11 7.875h-5.593v-.78l2.953-3.282q.656-.75.906-1.203.25-.469.25-.969 0-.672-.406-1.094-.39-.437-1.078-.437-.797 0-1.25.468-.453.454-.453 1.282h-1.078q0-1.188.75-1.907.765-.734 2.031-.734 1.203 0 1.89.625.688.625.688 1.672 0 1.25-1.61 3l-2.28 2.469h4.28v.89zm88.861-7.875v1.532h1.172v.843h-1.172v3.922q0 .39.156.578.156.188.531.188.188 0 .516-.063v.875q-.422.125-.828.125-.719 0-1.094-.437-.375-.453-.375-1.266v-3.922h-1.156v-.843h1.156v-1.532h1.094zm5.156 8q-1.297 0-2.11-.843-.796-.86-.796-2.282v-.187q0-.953.36-1.688.359-.75 1-1.156.656-.422 1.406-.422 1.234 0 1.921.813.688.812.688 2.328v.453h-4.297q.031.937.547 1.516.531.578 1.344.578.562 0 .953-.235.406-.234.719-.625l.656.516q-.797 1.234-2.39 1.234zm-.14-5.687q-.657 0-1.11.484-.437.469-.531 1.328h3.172v-.078q-.047-.828-.453-1.281-.391-.453-1.079-.453zm7.203 3.875q0-.438-.344-.672-.328-.25-1.156-.422-.813-.172-1.297-.422-.485-.25-.719-.578-.219-.344-.219-.812 0-.782.656-1.313.657-.547 1.688-.547 1.078 0 1.734.563.672.547.672 1.406h-1.078q0-.438-.39-.75-.375-.328-.938-.328-.594 0-.938.265-.328.25-.328.657 0 .39.313.593.312.204 1.125.391.812.172 1.312.422t.735.61q.25.359.25.859 0 .86-.688 1.375-.672.515-1.75.515-.765 0-1.36-.265-.577-.282-.905-.766-.329-.484-.329-1.047h1.079q.03.547.437.875.406.313 1.078.313.61 0 .985-.25t.375-.672zm3.78-6.188v1.532h1.173v.843h-1.172v3.922q0 .39.156.578.156.188.531.188.188 0 .516-.063v.875q-.422.125-.828.125-.719 0-1.094-.437-.375-.453-.375-1.266v-3.922h-1.156v-.843h1.156v-1.532h1.094zm6.985 3.078h.813q.781-.015 1.219-.406.437-.39.437-1.062 0-1.5-1.5-1.5-.703 0-1.125.406-.406.406-.406 1.062h-1.094q0-1.015.734-1.687.75-.672 1.891-.672 1.203 0 1.89.64.688.641.688 1.782 0 .562-.36 1.078-.359.516-.984.781.704.22 1.079.735.39.515.39 1.265 0 1.141-.75 1.828-.75.672-1.953.672-1.188 0-1.953-.656-.75-.656-.75-1.719h1.094q0 .672.437 1.078.438.407 1.188.407.78 0 1.187-.407.422-.421.422-1.187 0-.734-.453-1.125-.453-.406-1.328-.422h-.813v-.89zm92.876-3.078v1.532h1.172v.843h-1.172v3.922q0 .39.156.578.156.188.531.188.188 0 .516-.063v.875q-.422.125-.828.125-.719 0-1.094-.437-.375-.453-.375-1.266v-3.922h-1.156v-.843h1.156v-1.532h1.094zm5.156 8q-1.297 0-2.11-.843-.796-.86-.796-2.282v-.187q0-.953.36-1.688.359-.75 1-1.156.656-.422 1.406-.422 1.234 0 1.921.813.688.812.688 2.328v.453h-4.297q.031.937.547 1.516.531.578 1.344.578.562 0 .953-.235.406-.234.719-.625l.656.516q-.797 1.234-2.39 1.234zm-.14-5.687q-.657 0-1.11.484-.437.469-.531 1.328h3.172v-.078q-.047-.828-.453-1.281-.391-.453-1.078-.453zm7.203 3.875q0-.438-.344-.672-.328-.25-1.156-.422-.813-.172-1.297-.422-.485-.25-.719-.578-.219-.344-.219-.812 0-.782.656-1.313.657-.547 1.688-.547 1.078 0 1.734.563.672.547.672 1.406h-1.078q0-.438-.39-.75-.375-.328-.938-.328-.594 0-.938.265-.328.25-.328.657 0 .39.313.593.312.204 1.125.391.812.172 1.312.422t.735.61q.25.359.25.859 0 .86-.688 1.375-.672.515-1.75.515-.765 0-1.36-.265-.577-.282-.905-.766-.328-.484-.328-1.047H508q.03.547.437.875.406.313 1.078.313.61 0 .985-.25t.375-.672zm3.78-6.188v1.532h1.173v.843h-1.172v3.922q0 .39.156.578.156.188.531.188.188 0 .516-.063v.875q-.422.125-.828.125-.719 0-1.094-.437-.375-.453-.375-1.266v-3.922h-1.156v-.843h1.156v-1.532h1.094zm9.985 5.016h1.188v.875h-1.188v1.984h-1.078V380.6h-3.89v-.64l3.812-5.907h1.156v5.672zm-3.734 0h2.656v-4.188l-.14.235-2.516 3.953zm93.61-5.016v1.532h1.172v.843h-1.172v3.922q0 .39.156.578.156.188.531.188.188 0 .516-.063v.875q-.422.125-.828.125-.719 0-1.094-.437-.375-.453-.375-1.266v-3.922h-1.156v-.843h1.156v-1.532h1.094zm5.156 8q-1.297 0-2.11-.843-.796-.86-.796-2.282v-.187q0-.953.36-1.688.359-.75 1-1.156.656-.422 1.406-.422 1.234 0 1.921.813.688.812.688 2.328v.453h-4.297q.031.937.547 1.516.531.578 1.344.578.562 0 .953-.235.406-.234.719-.625l.656.516q-.797 1.234-2.39 1.234zm-.14-5.687q-.657 0-1.11.484-.437.469-.531 1.328h3.172v-.078q-.047-.828-.453-1.281-.391-.453-1.078-.453zm7.203 3.875q0-.438-.344-.672-.328-.25-1.156-.422-.813-.172-1.297-.422-.485-.25-.719-.578-.219-.344-.219-.812 0-.782.657-1.313.656-.547 1.687-.547 1.078 0 1.734.563.672.547.672 1.406h-1.078q0-.438-.39-.75-.375-.328-.938-.328-.594 0-.938.265-.328.25-.328.657 0 .39.313.593.312.204 1.125.391.812.172 1.312.422t.735.61q.25.359.25.859 0 .86-.688 1.375-.672.515-1.75.515-.765 0-1.36-.265-.577-.282-.905-.766-.328-.484-.328-1.047h1.078q.03.547.437.875.406.313 1.078.313.61 0 .985-.25t.375-.672zm3.78-6.188v1.532h1.173v.843h-1.172v3.922q0 .39.156.578.156.188.531.188.188 0 .516-.063v.875q-.422.125-.828.125-.719 0-1.094-.437-.375-.453-.375-1.266v-3.922h-1.156v-.843h1.156v-1.532h1.094zm5.907 3.594l.438-4.25h4.375v1h-3.453l-.266 2.328q.64-.375 1.437-.375 1.157 0 1.844.781.688.766.688 2.079 0 1.312-.72 2.078-.702.765-1.983.765-1.125 0-1.844-.625-.719-.64-.813-1.75h1.016q.11.735.531 1.11.422.375 1.11.375.75 0 1.187-.516.438-.516.438-1.422 0-.86-.47-1.375-.468-.515-1.25-.515-.702 0-1.109.296l-.28.235-.876-.219z"/><path stroke="#36c" stroke-width="4" stroke-linecap="butt" d="M262.5 407.65h12"/><path fill="#757575" d="M289.797 411.025q-.438.625-1.219.938-.781.312-1.812.312-1.032 0-1.844-.484-.813-.5-1.25-1.407-.438-.906-.453-2.093v-.735q0-1.937.89-3 .907-1.062 2.532-1.062 1.343 0 2.156.687.812.688 1 1.938h-1.125q-.328-1.688-2.016-1.688-1.14 0-1.719.797-.578.781-.593 2.297v.688q0 1.437.656 2.296.656.844 1.781.844.625 0 1.094-.14.484-.141.797-.485v-1.906h-1.969v-.922h3.094v3.125zm2.703 1.125h-1.078v-9h1.078v9zm1.531-3.234q0-.922.36-1.672.375-.75 1.03-1.14.657-.407 1.485-.407 1.297 0 2.094.89.813.891.813 2.391v.078q0 .922-.36 1.656-.36.735-1.015 1.157-.657.406-1.516.406-1.281 0-2.094-.89-.797-.907-.797-2.391v-.078zm1.094.14q0 1.047.484 1.688.5.64 1.313.64.828 0 1.312-.64.485-.657.485-1.828 0-1.032-.5-1.672-.485-.657-1.313-.657-.797 0-1.297.641-.484.625-.484 1.828zm11.563 0q0 1.453-.672 2.344-.657.875-1.782.875-1.203 0-1.859-.86l-.063.735h-.984v-9h1.078v3.36q.656-.813 1.813-.813 1.156 0 1.812.875.656.86.656 2.39v.094zm-1.079-.125q0-1.11-.437-1.703-.422-.61-1.219-.61-1.078 0-1.547.985v2.75q.5 1 1.547 1 .781 0 1.219-.61.437-.609.437-1.812zm6.625 3.219q-.093-.188-.156-.672-.75.797-1.797.797-.937 0-1.547-.531-.593-.532-.593-1.36 0-.984.75-1.53.75-.548 2.125-.548h1.046v-.5q0-.562-.343-.89-.328-.344-1-.344-.578 0-.969.297-.39.281-.39.703h-1.094q0-.485.328-.922.344-.438.922-.688.578-.265 1.265-.265 1.11 0 1.719.547.625.547.656 1.5v2.922q0 .875.219 1.39v.094h-1.14zm-1.796-.828q.515 0 .968-.266.453-.265.656-.687v-1.297h-.843q-2 0-2 1.172 0 .5.344.797.343.28.875.28zm6.062.828h-1.078v-9h1.078v9zm7.36-.766q.577 0 1.015-.343.438-.36.484-.891h1.032q-.032.547-.391 1.047-.344.484-.922.781-.562.297-1.219.297-1.296 0-2.062-.86-.75-.874-.75-2.374v-.188q0-.922.328-1.64.344-.72.969-1.11.64-.406 1.515-.406 1.063 0 1.766.64.719.625.766 1.657h-1.032q-.046-.625-.468-1.016-.422-.39-1.032-.39-.828 0-1.28.593-.454.594-.454 1.719v.203q0 1.094.453 1.688.453.593 1.281.593zm4.64.766h-1.078v-9h1.078v9zm5.734 0q-.093-.188-.156-.672-.75.797-1.797.797-.937 0-1.547-.531-.593-.532-.593-1.36 0-.984.75-1.53.75-.548 2.125-.548h1.046v-.5q0-.562-.343-.89-.328-.344-1-.344-.578 0-.969.297-.39.281-.39.703h-1.094q0-.485.328-.922.344-.438.922-.688.578-.265 1.265-.265 1.11 0 1.719.547.625.547.656 1.5v2.922q0 .875.219 1.39v.094h-1.14zm-1.796-.828q.515 0 .968-.266.453-.265.656-.687v-1.297h-.843q-2 0-2 1.172 0 .5.344.797.343.28.875.28zm8.578-.86q0-.437-.344-.671-.328-.25-1.156-.422-.813-.172-1.297-.422-.485-.25-.719-.578-.219-.344-.219-.813 0-.781.656-1.312.657-.547 1.688-.547 1.078 0 1.734.562.672.547.672 1.407h-1.078q0-.438-.39-.75-.375-.329-.938-.329-.594 0-.938.266-.328.25-.328.656 0 .391.313.594.312.203 1.125.39.812.173 1.312.423t.735.609q.25.36.25.86 0 .859-.688 1.374-.672.516-1.75.516-.765 0-1.36-.266-.577-.28-.905-.765-.329-.485-.329-1.047h1.079q.03.547.437.875.406.312 1.078.312.61 0 .985-.25t.375-.672zm6 0q0-.437-.344-.671-.328-.25-1.156-.422-.813-.172-1.297-.422-.485-.25-.719-.578-.219-.344-.219-.813 0-.781.656-1.312.657-.547 1.688-.547 1.078 0 1.734.562.672.547.672 1.407h-1.078q0-.438-.39-.75-.375-.329-.938-.329-.594 0-.938.266-.328.25-.328.656 0 .391.313.594.312.203 1.125.39.812.173 1.312.423t.735.609q.25.36.25.86 0 .859-.688 1.374-.672.516-1.75.516-.765 0-1.36-.266-.577-.28-.905-.765-.329-.485-.329-1.047h1.079q.03.547.437.875.406.312 1.078.312.61 0 .985-.25t.375-.672z"/><path stroke="#dc3912" stroke-width="4" stroke-linecap="butt" d="M364.5 407.65h12"/><path fill="#757575" d="M386.625 411.228h4.047v.922h-5.188v-8.531h1.141v7.61zm4.406-2.312q0-.922.36-1.672.375-.75 1.03-1.14.657-.407 1.485-.407 1.297 0 2.094.89.813.891.813 2.391v.078q0 .922-.36 1.656-.36.735-1.015 1.157-.657.406-1.516.406-1.281 0-2.094-.89-.797-.907-.797-2.391v-.078zm1.094.14q0 1.047.484 1.688.5.64 1.313.64.828 0 1.312-.64.485-.657.485-1.828 0-1.032-.5-1.672-.485-.657-1.313-.657-.797 0-1.297.641-.484.625-.484 1.828zm8.734 2.328q.579 0 1.016-.343.438-.36.484-.891h1.032q-.032.547-.391 1.047-.344.484-.922.781-.562.297-1.219.297-1.296 0-2.062-.86-.75-.874-.75-2.374v-.188q0-.922.328-1.64.344-.72.969-1.11.64-.406 1.515-.406 1.063 0 1.766.64.719.625.766 1.657h-1.032q-.046-.625-.468-1.016-.422-.39-1.032-.39-.828 0-1.28.593-.454.594-.454 1.719v.203q0 1.094.453 1.688.453.593 1.281.593zm7.375.766q-.093-.188-.156-.672-.75.797-1.797.797-.937 0-1.547-.531-.593-.532-.593-1.36 0-.984.75-1.53.75-.548 2.125-.548h1.046v-.5q0-.562-.343-.89-.328-.344-1-.344-.578 0-.969.297-.39.281-.39.703h-1.094q0-.485.328-.922.344-.438.922-.688.578-.265 1.265-.265 1.11 0 1.719.547.625.547.656 1.5v2.922q0 .875.219 1.39v.094h-1.14zm-1.796-.828q.515 0 .968-.266.453-.265.656-.687v-1.297h-.843q-2 0-2 1.172 0 .5.344.797.343.28.875.28zm6.062.828h-1.078v-9h1.078v9zm7.36-.766q.577 0 1.015-.343.438-.36.484-.891h1.032q-.032.547-.391 1.047-.344.484-.922.781-.562.297-1.219.297-1.296 0-2.062-.86-.75-.874-.75-2.374v-.188q0-.922.328-1.64.344-.72.969-1.11.64-.406 1.515-.406 1.063 0 1.766.64.719.625.766 1.657h-1.032q-.046-.625-.468-1.016-.422-.39-1.032-.39-.828 0-1.28.593-.454.594-.454 1.719v.203q0 1.094.453 1.688.453.593 1.281.593zm4.64.766h-1.078v-9h1.078v9zm5.734 0q-.093-.188-.156-.672-.75.797-1.797.797-.937 0-1.547-.531-.593-.532-.593-1.36 0-.984.75-1.53.75-.548 2.125-.548h1.046v-.5q0-.562-.343-.89-.328-.344-1-.344-.578 0-.969.297-.39.281-.39.703h-1.094q0-.485.328-.922.344-.438.922-.688.578-.265 1.265-.265 1.11 0 1.719.547.625.547.656 1.5v2.922q0 .875.219 1.39v.094h-1.14zm-1.796-.828q.515 0 .968-.266.453-.265.656-.687v-1.297h-.843q-2 0-2 1.172 0 .5.344.797.343.28.875.28zm8.578-.86q0-.437-.344-.671-.328-.25-1.156-.422-.813-.172-1.297-.422-.485-.25-.719-.578-.219-.344-.219-.813 0-.781.656-1.312.657-.547 1.688-.547 1.078 0 1.734.562.672.547.672 1.407h-1.078q0-.438-.39-.75-.375-.329-.938-.329-.594 0-.938.266-.328.25-.328.656 0 .391.313.594.312.203 1.125.39.812.173 1.312.423t.735.609q.25.36.25.86 0 .859-.688 1.374-.672.516-1.75.516-.765 0-1.36-.266-.577-.28-.905-.765-.329-.485-.329-1.047h1.079q.03.547.437.875.406.312 1.078.312.61 0 .985-.25t.375-.672zm6 0q0-.437-.344-.671-.328-.25-1.156-.422-.813-.172-1.297-.422-.485-.25-.719-.578-.219-.344-.219-.813 0-.781.656-1.312.657-.547 1.688-.547 1.078 0 1.734.562.672.547.672 1.407h-1.078q0-.438-.39-.75-.375-.329-.938-.329-.594 0-.938.266-.328.25-.328.656 0 .391.313.594.312.203 1.125.39.812.173 1.312.423t.735.609q.25.36.25.86 0 .859-.688 1.374-.672.516-1.75.516-.765 0-1.36-.266-.577-.28-.905-.765-.329-.485-.329-1.047h1.079q.03.547.437.875.406.312 1.078.312.61 0 .985-.25t.375-.672z"/></svg>