<svg viewBox="0 0 572.11 467.05" fill="none" stroke-linecap="square" stroke-miterlimit="10" xmlns="http://www.w3.org/2000/svg"><clipPath id="a"><path d="M0 0h572.11v467.05H0V0z"/></clipPath><g clip-path="url(#a)"><path d="M0 0h572.11v467.05H0z"/><path fill="#cfe2f3" d="M434.054 65.524h96v376h-96z" fill-rule="evenodd"/><path stroke="#000" stroke-linejoin="round" stroke-linecap="butt" d="M434.054 65.524h96v376h-96z"/><path fill="#6fa8dc" d="M434.054 153.524h96v200h-96z" fill-rule="evenodd"/><path stroke="#000" stroke-linejoin="round" stroke-linecap="butt" d="M434.054 153.524h96v200h-96z"/><path fill="#6fa8dc" d="M434.054 185.524h96v32h-96z" fill-rule="evenodd"/><path stroke="#000" stroke-linejoin="round" stroke-linecap="butt" d="M434.054 185.524h96v32h-96z"/><path fill="#000" d="M479.821 206.324q-.078-.141-.125-.344-.031-.203-.062-.422-.172.187-.406.344-.22.156-.5.281-.266.125-.579.187-.296.079-.64.079-.563 0-1.016-.157-.453-.156-.765-.437-.313-.281-.485-.656-.172-.391-.172-.829 0-.578.235-1.015.234-.438.656-.719.422-.297 1.016-.437.593-.141 1.328-.141h1.312v-.563q0-.312-.125-.562-.11-.266-.328-.438-.203-.171-.516-.265-.312-.11-.703-.11-.343 0-.64.094-.282.094-.485.25-.187.14-.297.344-.093.203-.093.422h-1.22q.017-.375.204-.75.188-.375.547-.672.36-.297.875-.469.531-.187 1.187-.187.594 0 1.11.156.515.14.89.437t.579.735q.218.437.218 1.031v3.281q0 .344.063.75.062.391.187.672v.11h-1.25zm-2.14-.922q.359 0 .656-.078.312-.094.562-.25.25-.157.422-.344.188-.188.297-.39v-1.438h-1.125q-1.047 0-1.64.312-.579.313-.579.985 0 .265.079.484.093.219.265.39.188.157.453.25.266.079.61.079zm11.45-2.703q0 .906-.202 1.609-.203.687-.594 1.172-.39.484-.969.734-.562.235-1.297.235-.718 0-1.296-.235-.563-.25-.97-.734-.39-.485-.609-1.172-.203-.703-.203-1.61v-2.218q0-.906.203-1.594.22-.703.61-1.187.39-.485.953-.735.578-.25 1.312-.25.72 0 1.282.25.578.25.968.735.407.484.61 1.187.203.688.203 1.594v2.219zm-4.92-.235l3.687-2.844q-.11-.937-.563-1.421-.437-.5-1.266-.5-.953 0-1.406.64-.453.64-.453 1.875v2.25zm3.718-1.687l-3.688 2.812q.11.922.563 1.406.453.485 1.265.485.97 0 1.407-.64.453-.657.453-1.891v-2.172z"/><path fill="#6fa8dc" d="M434.054 217.524h96v32h-96z" fill-rule="evenodd"/><path stroke="#000" stroke-linejoin="round" stroke-linecap="butt" d="M434.054 217.524h96v32h-96z"/><path fill="#000" d="M479.821 238.324q-.078-.141-.125-.344-.031-.203-.062-.422-.172.187-.406.344-.22.156-.5.281-.266.125-.579.187-.296.079-.64.079-.563 0-1.016-.157-.453-.156-.765-.437-.313-.281-.485-.656-.172-.391-.172-.829 0-.578.235-1.015.234-.438.656-.719.422-.297 1.016-.437.593-.141 1.328-.141h1.312v-.563q0-.312-.125-.562-.11-.266-.328-.438-.203-.171-.516-.265-.312-.11-.703-.11-.343 0-.64.094-.282.094-.485.25-.187.14-.297.344-.093.203-.093.422h-1.22q.017-.375.204-.75.188-.375.547-.672.36-.297.875-.469.531-.187 1.187-.187.594 0 1.11.156.515.14.89.437t.579.735q.218.437.218 1.031v3.281q0 .344.063.75.062.391.187.672v.11h-1.25zm-2.14-.922q.359 0 .656-.078.312-.094.562-.25.25-.157.422-.344.188-.188.297-.39v-1.438h-1.125q-1.047 0-1.64.312-.579.313-.579.985 0 .265.079.484.093.219.265.39.188.157.453.25.266.079.61.079zm9.404.922h-1.203v-7.938l-2.469.938v-1.094l3.578-1.375h.094v9.469z"/><path fill="#6fa8dc" d="M434.054 153.524h96v32h-96z" fill-rule="evenodd"/><path stroke="#000" stroke-linejoin="round" stroke-linecap="butt" d="M434.054 153.524h96v32h-96z"/><path fill="#000" d="M455.811 167.152q.172 0 .344.015.187 0 .344.032.171.015.312.046.14.032.234.079l-.171 1.171q-.344-.078-.657-.109-.312-.031-.656-.031-.86 0-1.39.39-.516.375-.766 1.063v4.516h-1.203v-7.047h1.14l.063 1.125q.437-.578 1.031-.906.61-.344 1.375-.344zm6.498 7.297q-.75 0-1.375-.25-.61-.25-1.062-.704-.438-.453-.688-1.078-.25-.625-.25-1.375v-.265q0-.86.266-1.531.281-.672.734-1.126.453-.468 1.032-.718.578-.25 1.187-.25.75 0 1.313.265.578.266.953.735.375.453.562 1.094.188.624.188 1.359v.547h-5.032q.032.484.188.906.172.422.453.734.297.313.688.5.406.172.906.172.64 0 1.14-.25.5-.265.829-.687l.734.562q-.172.266-.438.516-.265.25-.609.437-.344.188-.781.297-.438.11-.938.11zm-.156-6.313q-.375 0-.703.14-.313.126-.578.391-.266.25-.453.625-.172.375-.235.86h3.782v-.078q-.016-.36-.141-.704-.11-.343-.328-.609-.219-.281-.563-.453-.328-.172-.781-.172zm8.03 5.344q.328 0 .64-.094.313-.11.547-.297.25-.187.39-.437.141-.25.157-.547h1.14q-.015.469-.25.906-.234.422-.64.75-.39.313-.906.5-.516.188-1.079.188-.796 0-1.39-.282-.594-.28-1-.765t-.61-1.125q-.187-.64-.187-1.344v-.266q0-.703.187-1.328.204-.64.61-1.125.406-.484 1-.765.594-.297 1.39-.297.625 0 1.157.203.53.187.906.531.375.344.594.813.218.468.218 1h-1.14q-.016-.313-.156-.594-.125-.281-.36-.5-.219-.219-.531-.344-.313-.125-.688-.125-.546 0-.937.234-.375.22-.61.579-.234.359-.343.812-.094.453-.094.906v.266q0 .469.094.922.11.453.344.812.234.36.609.594.375.219.937.219zm8.123.969q-.75 0-1.375-.25-.61-.25-1.063-.704-.437-.453-.687-1.078-.25-.625-.25-1.375v-.265q0-.86.265-1.531.282-.672.735-1.126.453-.468 1.03-.718.579-.25 1.188-.25.75 0 1.313.265.578.266.953.735.375.453.563 1.094.187.624.187 1.359v.547h-5.031q.031.484.187.906.172.422.453.734.297.313.688.5.406.172.906.172.64 0 1.14-.25.5-.265.829-.687l.734.562q-.172.266-.437.516-.266.25-.61.437-.343.188-.78.297-.438.11-.938.11zm-.157-6.313q-.375 0-.703.14-.312.126-.578.391-.265.25-.453.625-.172.375-.234.86h3.78v-.078q-.015-.36-.14-.704-.11-.343-.328-.609-.219-.281-.562-.453-.328-.172-.782-.172zm5.233-.86h3.594v6h2.297v1.048h-5.891v-1.047h2.39v-4.953h-2.39v-1.047zm2.234-1.843q0-.297.172-.5.188-.203.547-.203.36 0 .531.203.188.203.188.5t-.188.5q-.172.188-.53.188-.36 0-.548-.188-.172-.203-.172-.5zm8.327 7.156l.109.438.125-.438 1.969-5.312h1.234l-2.875 7.047h-.922l-2.89-7.047h1.234l2.016 5.312zm8.357 1.86q-.75 0-1.375-.25-.61-.25-1.062-.704-.438-.453-.688-1.078-.25-.625-.25-1.375v-.265q0-.86.266-1.531.281-.672.734-1.126.453-.468 1.031-.718.579-.25 1.188-.25.75 0 1.312.265.579.266.954.735.375.453.562 1.094.188.624.188 1.359v.547h-5.032q.032.484.188.906.172.422.453.734.297.313.687.5.407.172.907.172.64 0 1.14-.25.5-.265.828-.687l.735.562q-.172.266-.438.516-.265.25-.61.437-.343.188-.78.297-.438.11-.938.11zm-.156-6.313q-.375 0-.703.14-.313.126-.578.391-.266.25-.453.625-.172.375-.235.86h3.781v-.078q-.015-.36-.14-.704-.11-.343-.328-.609-.22-.281-.563-.453-.328-.172-.781-.172zm9.654-.984q.172 0 .344.015.188 0 .344.032.172.015.312.046.141.032.235.079l-.172 1.171q-.344-.078-.656-.109-.313-.031-.657-.031-.859 0-1.39.39-.516.375-.766 1.063v4.516h-1.203v-7.047h1.14l.063 1.125q.438-.578 1.031-.906.61-.344 1.375-.344z"/><path fill="#cfe2f3" d="M434.054 65.524h96v88h-96z" fill-rule="evenodd"/><path stroke="#000" stroke-linejoin="round" stroke-linecap="butt" d="M434.054 65.524h96v88h-96z"/><path fill="#000" d="M473.29 113.542q0-.187.048-.359.062-.172.172-.297.125-.125.297-.203.187-.078.421-.078.235 0 .407.078.187.078.297.203.125.125.187.297.063.172.063.36 0 .187-.063.359-.062.156-.187.281-.11.125-.297.187-.172.079-.407.079-.234 0-.421-.079-.172-.062-.297-.187-.11-.125-.172-.281-.047-.172-.047-.36zm8 0q0-.187.046-.359.062-.172.172-.297.125-.125.297-.203.187-.078.422-.078.234 0 .406.078.187.078.297.203.125.125.187.297.063.172.063.36 0 .187-.063.359-.062.156-.187.281-.11.125-.297.187-.172.079-.406.079-.235 0-.422-.079-.172-.062-.297-.187-.11-.125-.172-.281-.047-.172-.047-.36zm7.997 0q0-.187.047-.359.063-.172.172-.297.125-.125.297-.203.187-.078.422-.078.234 0 .406.078.188.078.297.203.125.125.187.297.063.172.063.36 0 .187-.063.359-.062.156-.187.281-.11.125-.297.187-.172.079-.406.079-.235 0-.422-.079-.172-.062-.297-.187-.11-.125-.172-.281-.047-.172-.047-.36z"/><path fill="#6fa8dc" d="M434.054 249.524h96v32h-96z" fill-rule="evenodd"/><path stroke="#000" stroke-linejoin="round" stroke-linecap="butt" d="M434.054 249.524h96v32h-96z"/><path fill="#000" d="M463.81 255.152q.171 0 .343.015.188 0 .344.032.172.015.312.046.14.032.235.079l-.172 1.171q-.344-.078-.656-.109-.313-.031-.657-.031-.86 0-1.39.39-.516.375-.766 1.063v4.516H460.2v-7.047h1.14l.063 1.125q.438-.578 1.031-.907.61-.343 1.375-.343zm6.497 7.297q-.75 0-1.375-.25-.609-.25-1.062-.704-.438-.453-.688-1.078-.25-.625-.25-1.375v-.265q0-.86.266-1.532.281-.671.734-1.125.454-.468 1.032-.718.578-.25 1.187-.25.75 0 1.313.265.578.266.953.735.375.453.562 1.093.188.625.188 1.36v.547h-5.031q.03.484.187.906.172.422.453.734.297.313.688.5.406.172.906.172.64 0 1.14-.25.5-.265.829-.687l.734.562q-.172.266-.437.516-.266.25-.61.437-.344.188-.781.297-.438.11-.938.11zm-.156-6.313q-.375 0-.703.14-.312.126-.578.391-.266.25-.453.625-.172.375-.235.86h3.782v-.078q-.016-.36-.14-.704-.11-.343-.33-.609-.218-.281-.562-.453-.328-.172-.78-.172zm7.889-2.562v1.703h2.688v.937h-2.688v3.828q0 .407.094.672.11.266.297.438.187.156.422.218.234.063.5.063.203 0 .406-.016l.406-.062q.203-.031.375-.063.172-.047.281-.062l.172.844q-.156.093-.375.171-.203.063-.469.11-.25.047-.53.062-.282.032-.563.032-.47 0-.875-.125-.407-.141-.703-.422-.297-.297-.485-.75-.172-.469-.172-1.11v-3.828h-1.843v-.937h1.843v-1.703h1.219zm9.717 7.78q-.36.516-.89.813-.516.282-1.204.282-.562 0-1.015-.172-.438-.172-.766-.532-.313-.359-.484-.921-.172-.563-.172-1.36v-4.187h1.203v4.203q0 .578.094.953.093.375.265.61.188.218.453.312.266.078.61.078.734 0 1.187-.297.453-.297.672-.797v-5.062h1.203v7.047h-1.094l-.062-.97zm8.045-6.202q.172 0 .344.015.187 0 .344.032.171.015.312.047.14.03.234.078l-.171 1.171q-.344-.078-.657-.109-.312-.031-.656-.031-.86 0-1.39.39-.516.375-.766 1.063v4.516h-1.203v-7.047h1.14l.063 1.125q.437-.578 1.031-.907.61-.343 1.375-.343zm4.467.125l.078 1.047q.39-.547.938-.86.562-.312 1.25-.312.562 0 1.015.156.453.156.766.484.328.328.5.844t.172 1.219v4.469h-1.203v-4.438q0-.469-.11-.797-.11-.328-.312-.531-.203-.203-.5-.297-.297-.094-.688-.094-.594 0-1.062.313-.453.297-.72.797v5.047h-1.218v-7.047h1.094zm-40.443 23.047q-.078-.141-.125-.344l-.063-.422q-.172.187-.406.344-.219.156-.5.281-.266.125-.578.187-.297.079-.64.079-.563 0-1.016-.157-.453-.156-.766-.437-.312-.281-.484-.656-.172-.391-.172-.829 0-.578.234-1.015.235-.438.656-.719.422-.297 1.016-.437.594-.141 1.328-.141h1.313v-.563q0-.312-.125-.562-.11-.266-.328-.438-.204-.171-.516-.265-.313-.11-.703-.11-.344 0-.64.094-.282.094-.485.25-.188.14-.297.344-.094.203-.094.422h-1.219q.016-.375.204-.75.187-.375.546-.672.36-.297.875-.469.532-.187 1.188-.187.594 0 1.11.156.515.14.89.437t.578.735q.219.437.219 1.031v3.281q0 .344.062.75.063.391.188.672v.11h-1.25zm-2.14-.922q.359 0 .655-.078.313-.094.563-.25.25-.157.422-.344.187-.188.297-.39v-1.438h-1.125q-1.047 0-1.641.312-.578.313-.578.985 0 .265.078.484.094.219.266.39.187.157.453.25.265.079.61.079zm5.279-2.657q0-.78.187-1.437.203-.672.563-1.14.375-.485.89-.75.531-.266 1.172-.266.64 0 1.11.218.468.204.812.61v-3.656h1.203v10h-1.11l-.046-.735q-.344.422-.844.64-.484.22-1.14.22-.626 0-1.157-.266-.515-.281-.875-.75-.36-.484-.562-1.14-.203-.657-.203-1.407v-.14zm1.203.141q0 .516.11.984.108.454.343.813.234.344.578.547.36.203.875.203.297 0 .547-.063.25-.078.453-.203.203-.14.36-.328.156-.187.265-.422v-3.265q-.234-.422-.64-.703-.391-.282-.985-.282-.5 0-.86.22-.359.202-.593.562-.235.343-.344.812-.11.469-.11.984v.141zm6.795-.14q0-.782.187-1.438.203-.672.563-1.14.375-.485.89-.75.532-.266 1.172-.266.64 0 1.11.218.468.204.812.61v-3.656h1.203v10h-1.11l-.046-.735q-.344.422-.844.64-.484.22-1.14.22-.625 0-1.157-.266-.515-.281-.875-.75-.359-.484-.562-1.14-.203-.657-.203-1.407v-.14zm1.203.14q0 .516.11.984.109.454.343.813.234.344.578.547.36.203.875.203.297 0 .547-.063.25-.078.453-.203.203-.14.36-.328.156-.187.265-.422v-3.265q-.234-.422-.64-.703-.391-.282-.985-.282-.5 0-.86.22-.359.202-.593.562-.234.343-.344.812-.11.469-.11.984v.141zm11.639-3.734q.172 0 .343.015.188 0 .344.032.172.015.313.046.14.032.234.079l-.172 1.171q-.344-.078-.656-.109-.313-.031-.656-.031-.86 0-1.39.39-.517.375-.767 1.063v4.516h-1.203v-7.047h1.141l.062 1.125q.438-.578 1.032-.907.61-.343 1.375-.343zm6.498 7.297q-.75 0-1.375-.25-.61-.25-1.063-.704-.437-.453-.687-1.078-.25-.625-.25-1.375v-.265q0-.86.266-1.532.28-.671.734-1.125.453-.468 1.031-.718.578-.25 1.188-.25.75 0 1.312.265.578.266.953.735.375.453.563 1.093.187.625.187 1.36v.547h-5.031q.031.484.188.906.171.422.453.734.297.313.687.5.406.172.906.172.641 0 1.141-.25.5-.265.828-.687l.735.562q-.172.266-.438.516t-.61.437q-.343.188-.78.297-.438.11-.938.11zm-.156-6.313q-.375 0-.703.14-.313.126-.579.391-.265.25-.453.625-.172.375-.234.86h3.781v-.078q-.015-.36-.14-.704-.11-.343-.329-.609-.218-.281-.562-.453-.328-.172-.781-.172zm9.717 4.313q0-.204-.094-.375-.078-.172-.281-.313-.204-.156-.532-.266-.328-.125-.828-.218-.61-.125-1.11-.297-.484-.188-.843-.422-.36-.25-.562-.578-.188-.328-.188-.766 0-.422.203-.797.203-.375.563-.656.375-.281.875-.437.5-.172 1.11-.172.655 0 1.171.172.516.171.875.468.375.297.562.703.204.391.204.86h-1.204q0-.235-.125-.453-.109-.219-.312-.375-.203-.172-.5-.282-.297-.109-.672-.109-.39 0-.687.094-.282.078-.47.219-.187.14-.296.343-.094.188-.094.391t.078.375q.078.156.266.281.203.125.516.235.328.109.828.203.64.14 1.156.328.516.172.86.422.359.25.546.578.188.328.188.765 0 .47-.219.86-.203.375-.578.656-.375.266-.906.422-.532.14-1.157.14-.718 0-1.28-.187-.548-.187-.938-.5-.391-.328-.594-.734-.203-.422-.203-.875h1.203q.031.375.203.64.172.25.422.407.265.156.578.218.312.063.61.063.765 0 1.202-.281.454-.282.454-.75zm7.998 0q0-.204-.094-.375-.078-.172-.281-.313-.203-.156-.531-.266-.329-.125-.829-.218-.609-.125-1.109-.297-.484-.188-.844-.422-.36-.25-.562-.578-.188-.328-.188-.766 0-.422.203-.797.204-.375.563-.656.375-.281.875-.437.5-.172 1.11-.172.656 0 1.171.172.516.171.875.468.375.297.563.703.203.391.203.86h-1.203q0-.235-.125-.453-.11-.219-.313-.375-.203-.172-.5-.282-.297-.109-.672-.109-.39 0-.687.094-.281.078-.469.219-.187.14-.297.343-.094.188-.094.391t.079.375q.078.156.265.281.203.125.516.235.328.109.828.203.64.14 1.156.328.516.172.86.422.359.25.546.578.188.328.188.765 0 .47-.219.86-.203.375-.578.656-.375.266-.906.422-.531.14-1.156.14-.72 0-1.282-.187-.547-.187-.937-.5-.39-.328-.594-.734-.203-.422-.203-.875h1.203q.031.375.203.64.172.25.422.407.266.156.578.218.313.063.61.063.765 0 1.203-.281.453-.282.453-.75z"/><path fill="#fff2cc" d="M210.054 145.524h144v40h-144z" fill-rule="evenodd"/><path stroke="#000" stroke-linejoin="round" stroke-linecap="butt" d="M210.054 145.524h144v40h-144z"/><path fill="#000" d="M229.146 166.886q0 .75-.188 1.406-.187.657-.547 1.141-.344.469-.86.75-.515.266-1.171.266t-1.14-.204q-.485-.203-.844-.593v3.375h-1.204v-9.75h1.094l.063.765q.359-.422.843-.656.5-.234 1.157-.234.687 0 1.203.265.515.266.86.75.359.47.546 1.141.188.656.188 1.437v.141zm-1.204-.14q0-.516-.125-.985-.109-.469-.343-.812-.235-.36-.61-.563-.36-.219-.86-.219-.593 0-.983.282-.391.265-.625.687v3.39q.234.423.625.688.39.25.984.25.5 0 .86-.203.374-.219.609-.562.234-.36.343-.829.125-.468.125-.984v-.14zm7.874-3.594q.171 0 .343.015.188 0 .344.032.172.015.313.046.14.032.234.079l-.172 1.171q-.344-.078-.656-.109-.313-.031-.656-.031-.86 0-1.391.39-.516.375-.766 1.063v4.516h-1.203v-7.047h1.14l.063 1.125q.438-.578 1.032-.907.609-.343 1.375-.343zm3.045 3.593q0-.765.218-1.421.22-.657.625-1.141.422-.484 1.016-.75.594-.281 1.328-.281.75 0 1.344.281.594.266 1 .75.422.484.64 1.14.235.657.235 1.422v.141q0 .75-.234 1.406-.22.657-.641 1.141-.406.469-1 .75-.578.266-1.328.266-.75 0-1.344-.266-.594-.281-1.016-.75-.406-.484-.625-1.14-.218-.657-.218-1.407v-.14zm1.203.141q0 .516.125.984.125.47.375.829t.625.578q.375.203.875.203t.875-.203q.375-.219.625-.578.25-.36.375-.829.125-.468.125-.984v-.14q0-.516-.14-.985-.126-.484-.376-.844-.25-.359-.625-.562-.375-.219-.875-.219t-.875.219q-.36.203-.61.562-.25.36-.374.844-.125.469-.125.984v.141zm6.904-.14q0-.782.188-1.438.203-.672.562-1.14.375-.485.89-.75.516-.266 1.173-.266.656 0 1.14.234.5.234.844.656l.063-.765h1.093v6.89q0 .703-.218 1.235-.22.547-.625.922-.391.375-.938.562-.547.203-1.203.203-.281 0-.64-.062-.344-.047-.704-.188-.36-.14-.703-.375-.328-.234-.562-.578l.625-.734q.218.265.453.453.234.187.468.297.25.11.485.156.25.062.484.062.422 0 .766-.125.36-.125.594-.375.25-.234.375-.593.14-.344.14-.797v-.61q-.36.407-.844.625-.468.204-1.109.204-.64 0-1.156-.266-.516-.281-.89-.75-.36-.484-.563-1.14-.188-.657-.188-1.407v-.14zm1.203.14q0 .516.11.984.11.454.343.813.235.344.579.547.359.203.875.203.312 0 .562-.078.25-.078.438-.203.203-.14.359-.328.156-.188.281-.422v-3.219q-.125-.234-.281-.406-.156-.188-.36-.313-.203-.14-.453-.219-.234-.078-.546-.078-.5 0-.86.22-.36.202-.594.562-.234.343-.343.812-.11.469-.11.984v.141zm11.64-3.734q.171 0 .343.015.187 0 .344.032.172.015.312.046.14.032.235.079l-.172 1.171q-.344-.078-.657-.109-.312-.031-.656-.031-.86 0-1.39.39-.516.375-.766 1.063v4.516H256.2v-7.047h1.14l.063 1.125q.437-.578 1.031-.907.61-.343 1.375-.343zm8.013 7.172q-.078-.141-.125-.344l-.063-.422q-.171.187-.406.344-.219.156-.5.281-.265.125-.578.187-.297.079-.64.079-.563 0-1.016-.157-.453-.156-.766-.437-.312-.281-.484-.656-.172-.391-.172-.829 0-.578.234-1.015.235-.438.657-.719.421-.297 1.015-.437.594-.141 1.328-.141h1.313v-.563q0-.312-.125-.562-.11-.266-.328-.438-.203-.171-.516-.265-.312-.11-.703-.11-.344 0-.64.094-.282.094-.485.25-.188.14-.297.344-.094.203-.094.422h-1.218q.015-.375.203-.75.187-.375.547-.672.359-.297.875-.469.53-.187 1.187-.187.594 0 1.11.156.515.14.89.437t.578.735q.219.437.219 1.031v3.281q0 .344.062.75.063.391.188.672v.11h-1.25zm-2.14-.922q.359 0 .656-.078.312-.094.562-.25.25-.157.422-.344.187-.188.297-.39v-1.438h-1.125q-1.047 0-1.64.312-.579.313-.579.985 0 .265.078.484.094.219.266.39.187.157.453.25.266.079.61.079zm6.06-6.125l.031.672q.219-.375.563-.579.344-.218.844-.218.968 0 1.296.75.204-.328.547-.532.344-.218.828-.218.782 0 1.188.484.422.469.422 1.422v5.266h-1.14v-5.266q0-.89-.813-.89-.22 0-.375.062-.157.062-.266.172-.094.093-.156.234-.063.125-.078.266v5.422h-1.157v-5.282q0-.422-.187-.64-.188-.235-.594-.235-.375 0-.594.157-.203.156-.296.39v5.61h-1.141v-7.047h1.078zm18.434 6.203q.328 0 .64-.094.313-.11.547-.297.25-.187.391-.437.14-.25.156-.547h1.14q-.015.469-.25.906-.233.422-.64.75-.39.313-.906.5-.516.188-1.078.188-.797 0-1.39-.282-.594-.28-1-.765-.407-.485-.61-1.125-.188-.64-.188-1.344v-.266q0-.703.188-1.328.203-.64.61-1.125.406-.484 1-.765.593-.297 1.39-.297.625 0 1.156.203.531.187.906.531.375.344.594.813.219.468.219 1h-1.14q-.016-.313-.157-.594-.125-.281-.36-.5-.218-.219-.53-.344-.313-.125-.688-.125-.547 0-.938.234-.375.22-.609.579-.234.359-.344.812-.093.453-.093.906v.266q0 .469.093.922.11.453.344.812.234.36.61.594.374.219.937.219zm4.67-2.735q0-.765.219-1.421.218-.657.625-1.141.422-.484 1.015-.75.594-.281 1.328-.281.75 0 1.344.281.594.266 1 .75.422.484.64 1.14.235.657.235 1.422v.141q0 .75-.234 1.406-.219.657-.64 1.141-.407.469-1 .75-.579.266-1.329.266t-1.344-.266q-.593-.281-1.015-.75-.407-.484-.625-1.14-.219-.657-.219-1.407v-.14zm1.203.141q0 .516.125.984.125.47.375.829t.625.578q.375.203.875.203t.875-.203q.375-.219.625-.578.25-.36.375-.829.125-.468.125-.984v-.14q0-.516-.14-.985-.126-.484-.376-.844-.25-.359-.625-.562-.375-.219-.875-.219t-.875.219q-.359.203-.609.562-.25.36-.375.844-.125.469-.125.984v.141zm11.701 2.469q-.359.515-.89.812-.516.282-1.203.282-.563 0-1.016-.172-.437-.172-.766-.532-.312-.359-.484-.921-.172-.563-.172-1.36v-4.187h1.203v4.203q0 .578.094.953t.266.61q.187.218.453.312.265.078.61.078.734 0 1.187-.297.453-.297.672-.797v-5.062h1.203v7.047h-1.094l-.063-.97zm4.514-6.078l.078 1.047q.391-.547.938-.86.562-.312 1.25-.312.562 0 1.015.156.454.156.766.484.328.328.5.844t.172 1.219v4.469h-1.203v-4.438q0-.469-.11-.797-.109-.328-.312-.531t-.5-.297q-.297-.094-.688-.094-.593 0-1.062.313-.453.297-.719.797v5.047h-1.219v-7.047h1.094zm9.764-1.703v1.703h2.687v.937h-2.687v3.828q0 .407.094.672.11.266.297.438.187.156.421.218.235.063.5.063.204 0 .407-.016l.406-.062q.203-.031.375-.063.172-.047.281-.062l.172.844q-.156.093-.375.171-.203.063-.469.11-.25.047-.53.062-.282.032-.563.032-.47 0-.875-.125-.407-.141-.704-.422-.296-.297-.484-.75-.172-.469-.172-1.11v-3.828h-1.844v-.937h1.844v-1.703h1.219zm8.264 8.875q-.75 0-1.375-.25-.61-.25-1.063-.704-.437-.453-.687-1.078-.25-.625-.25-1.375v-.265q0-.86.265-1.532.282-.671.735-1.125.453-.468 1.031-.718.578-.25 1.188-.25.75 0 1.312.265.578.266.953.735.375.453.563 1.093.187.625.187 1.36v.547h-5.031q.031.484.187.906.172.422.454.734.296.313.687.5.406.172.906.172.64 0 1.14-.25.5-.265.83-.687l.733.562q-.171.266-.437.516t-.61.437q-.343.188-.78.297-.438.11-.938.11zm-.156-6.313q-.375 0-.704.14-.312.126-.578.391-.265.25-.453.625-.172.375-.234.86h3.781v-.078q-.016-.36-.14-.704-.11-.343-.329-.609-.218-.281-.562-.453-.328-.172-.781-.172zm9.654-.984q.172 0 .344.015.187 0 .343.032.172.015.313.046.14.032.234.079l-.172 1.171q-.343-.078-.656-.109-.312-.031-.656-.031-.86 0-1.39.39-.516.375-.766 1.063v4.516h-1.203v-7.047h1.14l.063 1.125q.437-.578 1.031-.907.61-.343 1.375-.343z"/><path fill="#6fa8dc" d="M434.054 281.524h96v32h-96z" fill-rule="evenodd"/><path stroke="#000" stroke-linejoin="round" stroke-linecap="butt" d="M434.054 281.524h96v32h-96z"/><path fill="#000" d="M458.185 301.48q.328 0 .64-.094.313-.11.548-.297.25-.187.39-.437t.157-.547h1.14q-.015.469-.25.906-.234.422-.64.75-.391.313-.907.5-.515.188-1.078.188-.797 0-1.39-.282-.594-.28-1-.765-.407-.485-.61-1.125-.187-.64-.187-1.344v-.266q0-.703.187-1.328.203-.64.61-1.125.406-.484 1-.765.593-.297 1.39-.297.625 0 1.156.203.532.187.907.531.375.344.593.813.22.468.22 1h-1.141q-.016-.313-.157-.594-.125-.281-.36-.5-.218-.219-.53-.344-.313-.125-.688-.125-.547 0-.937.234-.375.22-.61.579-.234.359-.343.812-.094.453-.094.906v.266q0 .469.094.922.109.453.343.812.235.36.61.594.375.219.937.219zm4.67-2.735q0-.765.219-1.421.219-.657.625-1.141.422-.484 1.016-.75.593-.281 1.328-.281.75 0 1.343.281.594.266 1 .75.422.484.641 1.14.234.657.234 1.422v.141q0 .75-.234 1.406-.219.657-.64 1.141-.407.469-1 .75-.579.266-1.329.266t-1.343-.266q-.594-.281-1.016-.75-.406-.484-.625-1.14-.219-.657-.219-1.407v-.14zm1.203.141q0 .516.125.984.125.47.375.829t.625.578q.375.203.875.203t.875-.203q.375-.219.625-.578.25-.36.375-.829.125-.468.125-.984v-.14q0-.516-.14-.985-.125-.484-.375-.844-.25-.359-.625-.562-.375-.219-.875-.219t-.875.219q-.36.203-.61.562-.25.36-.375.844-.125.469-.125.984v.141zm8.217-3.61l.078 1.048q.391-.547.938-.86.562-.312 1.25-.312.562 0 1.016.156.453.156.765.484.328.328.5.844t.172 1.219v4.469h-1.203v-4.438q0-.469-.11-.797-.109-.328-.312-.531t-.5-.297q-.297-.094-.687-.094-.594 0-1.063.313-.453.297-.719.797v5.047h-1.218v-7.047h1.093zm9.764-1.702v1.703h2.688v.937h-2.688v3.828q0 .407.094.672.11.266.297.438.187.156.422.218.234.063.5.063.203 0 .406-.016l.406-.062q.203-.031.375-.063.172-.047.281-.062l.172.844q-.156.093-.375.171-.203.063-.469.11-.25.047-.53.062-.282.032-.563.032-.469 0-.875-.125-.407-.141-.703-.422-.297-.297-.485-.75-.172-.469-.172-1.11v-3.828h-1.843v-.937h1.843v-1.703h1.22zm8.264 8.875q-.75 0-1.375-.25-.61-.25-1.063-.704-.437-.453-.687-1.078-.25-.625-.25-1.375v-.265q0-.86.266-1.532.28-.671.734-1.125.453-.468 1.031-.718.578-.25 1.188-.25.75 0 1.312.265.578.266.953.735.375.453.563 1.093.187.625.187 1.36v.547h-5.031q.031.484.188.906.171.422.453.734.297.313.687.5.406.172.906.172.641 0 1.141-.25.5-.265.828-.687l.735.562q-.172.266-.438.516t-.61.437q-.343.188-.78.297-.438.11-.938.11zm-.156-6.313q-.375 0-.703.14-.313.126-.579.391-.265.25-.453.625-.172.375-.234.86h3.781v-.078q-.015-.36-.14-.704-.11-.343-.329-.609-.218-.281-.562-.453-.328-.172-.781-.172zm7.951 1.75l1.875-2.61h1.406l-2.61 3.485 2.688 3.563h-1.39l-1.953-2.688-1.938 2.688h-1.406l2.687-3.563-2.625-3.484h1.407l1.859 2.61zm7.936-4.312v1.703h2.687v.937h-2.687v3.828q0 .407.093.672.11.266.297.438.188.156.422.218.235.063.5.063.203 0 .406-.016.204-.03.407-.062.203-.031.375-.063.172-.047.28-.062l.173.844q-.156.093-.375.171-.203.063-.469.11-.25.047-.531.062-.281.032-.563.032-.468 0-.875-.125-.406-.141-.703-.422-.297-.297-.484-.75-.172-.469-.172-1.11v-3.828h-1.844v-.937h1.844v-1.703h1.219z"/><path fill="#6fa8dc" d="M434.054 313.524h96v32h-96z" fill-rule="evenodd"/><path stroke="#000" stroke-linejoin="round" stroke-linecap="butt" d="M434.054 313.524h96v32h-96z"/><path fill="#000" d="M458.185 333.48q.328 0 .64-.094.313-.11.548-.297.25-.187.39-.437t.157-.547h1.14q-.015.469-.25.906-.234.422-.64.75-.391.313-.907.5-.515.188-1.078.188-.797 0-1.39-.282-.594-.28-1-.765-.407-.485-.61-1.125-.187-.64-.187-1.344v-.266q0-.703.187-1.328.203-.64.61-1.125.406-.484 1-.765.593-.297 1.39-.297.625 0 1.156.203.532.187.907.531.375.344.593.813.22.468.22 1h-1.141q-.016-.313-.157-.594-.125-.281-.36-.5-.218-.219-.53-.344-.313-.125-.688-.125-.547 0-.937.234-.375.22-.61.579-.234.359-.343.812-.094.453-.094.906v.266q0 .469.094.922.109.453.343.812.235.36.61.594.375.219.937.219zm5.201-9.156h3.594v8.953h2.297v1.047h-5.89v-1.047h2.39v-7.907h-2.39v-1.046zm7.467 6.421q0-.765.22-1.421.218-.657.624-1.141.422-.484 1.016-.75.594-.281 1.328-.281.75 0 1.344.281.593.266 1 .75.422.484.64 1.14.235.657.235 1.422v.141q0 .75-.235 1.406-.218.657-.64 1.141-.407.469-1 .75-.578.266-1.328.266-.75 0-1.344-.266-.594-.281-1.016-.75-.406-.484-.625-1.14-.219-.657-.219-1.407v-.14zm1.204.141q0 .516.125.984.125.47.375.829t.625.578q.375.203.875.203t.875-.203q.375-.219.625-.578.25-.36.375-.829.125-.468.125-.984v-.14q0-.516-.141-.985-.125-.484-.375-.844-.25-.359-.625-.562-.375-.219-.875-.219t-.875.219q-.36.203-.61.562-.25.36-.374.844-.125.469-.125.984v.141zm11.81 1.563q0-.204-.094-.375-.078-.172-.28-.313-.204-.156-.532-.266-.328-.125-.828-.218-.61-.125-1.11-.297-.484-.188-.843-.422-.36-.25-.563-.578-.187-.328-.187-.766 0-.422.203-.797.203-.375.562-.656.375-.281.875-.437.5-.172 1.11-.172.656 0 1.172.172.515.171.875.468.375.297.562.703.203.391.203.86h-1.203q0-.235-.125-.453-.11-.219-.312-.375-.204-.172-.5-.282-.297-.109-.672-.109-.39 0-.688.094-.281.078-.469.219-.187.14-.296.343-.094.188-.094.391t.078.375q.078.156.266.281.203.125.515.235.328.109.828.203.641.14 1.157.328.515.172.859.422.36.25.547.578.187.328.187.765 0 .47-.218.86-.204.375-.579.656-.375.266-.906.422-.531.14-1.156.14-.719 0-1.281-.187-.547-.187-.938-.5-.39-.328-.594-.734-.203-.422-.203-.875h1.203q.032.375.204.64.171.25.421.407.266.156.579.218.312.063.609.063.766 0 1.203-.281.453-.282.453-.75zm7.889.906q-.36.515-.89.812-.516.282-1.204.282-.562 0-1.015-.172-.438-.172-.766-.532-.312-.359-.484-.921-.172-.563-.172-1.36v-4.187h1.203v4.203q0 .578.094.953.093.375.265.61.188.218.453.312.266.078.61.078.734 0 1.187-.297.453-.297.672-.797v-5.062h1.203v7.047h-1.093l-.063-.97zm8.045-6.203q.172 0 .344.015.187 0 .344.032.171.015.312.046.14.032.234.079l-.171 1.171q-.344-.078-.657-.109-.312-.031-.656-.031-.86 0-1.39.39-.516.375-.766 1.063v4.516h-1.203v-7.047h1.14l.063 1.125q.437-.578 1.031-.907.61-.343 1.375-.343zm6.498 7.297q-.75 0-1.375-.25-.61-.25-1.062-.704-.438-.453-.688-1.078-.25-.625-.25-1.375v-.265q0-.86.266-1.532.281-.671.734-1.125.453-.468 1.032-.718.578-.25 1.187-.25.75 0 1.313.265.578.266.953.735.375.453.562 1.093.188.625.188 1.36v.547h-5.032q.032.484.188.906.172.422.453.734.297.313.688.5.406.172.906.172.64 0 1.14-.25.5-.265.829-.687l.734.562q-.172.266-.438.516-.265.25-.609.437-.344.188-.781.297-.438.11-.938.11zm-.156-6.313q-.375 0-.703.14-.313.126-.578.391-.266.25-.453.625-.172.375-.235.86h3.782v-.078q-.016-.36-.141-.704-.11-.343-.328-.609-.219-.281-.563-.453-.328-.172-.781-.172z"/><path fill="#6fa8dc" d="M434.054 345.524h96v32h-96z" fill-rule="evenodd"/><path stroke="#000" stroke-linejoin="round" stroke-linecap="butt" d="M434.054 345.524h96v32h-96z"/><path fill="#000" d="M464.977 358.324v-6.11h-1.938v-.937h1.938v-.485q0-.687.203-1.187.203-.516.563-.86.359-.343.859-.515.516-.188 1.14-.188.438 0 .844.078.407.079.828.188l-.14.984q-.266-.093-.625-.156-.36-.062-.75-.062-.86 0-1.281.421-.422.422-.422 1.297v.485h2.718v.937h-2.718v6.11h-1.219zm10.833-7.172q.172 0 .344.015.187 0 .343.032.172.015.313.046.14.032.234.079l-.172 1.171q-.343-.078-.656-.109-.312-.031-.656-.031-.86 0-1.39.39-.516.375-.766 1.063v4.516H472.2v-7.047h1.141l.063 1.125q.437-.578 1.03-.907.61-.343 1.376-.343zm8.014 7.172q-.079-.141-.125-.344-.032-.203-.063-.422-.172.187-.406.344-.219.156-.5.281-.266.125-.578.187-.297.079-.64.079-.563 0-1.017-.157-.453-.156-.765-.437-.313-.281-.485-.656-.171-.391-.171-.829 0-.578.234-1.015.234-.438.656-.719.422-.297 1.016-.437.594-.141 1.328-.141h1.312v-.563q0-.312-.125-.562-.109-.266-.328-.438-.203-.171-.515-.265-.313-.11-.703-.11-.344 0-.641.094-.281.094-.484.25-.188.14-.297.344-.094.203-.094.422h-1.219q.016-.375.203-.75.188-.375.547-.672.36-.297.875-.469.531-.187 1.188-.187.593 0 1.11.156.515.14.89.437t.578.735q.219.437.219 1.031v3.281q0 .344.062.75.063.391.188.672v.11h-1.25zm-2.141-.922q.36 0 .656-.078.313-.094.563-.25.25-.157.422-.344.187-.188.296-.39v-1.438h-1.125q-1.046 0-1.64.312-.578.313-.578.985 0 .265.078.484.094.219.265.39.188.157.454.25.265.079.609.079zm6.06-6.125l.032.672q.219-.375.562-.579.344-.218.844-.218.969 0 1.297.75.203-.328.547-.532.344-.218.828-.218.781 0 1.188.484.421.469.421 1.422v5.266h-1.14v-5.266q0-.89-.813-.89-.218 0-.375.062-.156.062-.265.172-.094.093-.157.234-.062.125-.078.266v5.422h-1.156v-5.282q0-.422-.187-.64-.188-.235-.594-.235-.375 0-.594.157-.203.156-.297.39v5.61h-1.14v-7.047h1.078zm10.561 7.172q-.75 0-1.375-.25-.61-.25-1.062-.704-.438-.453-.688-1.078-.25-.625-.25-1.375v-.265q0-.86.266-1.532.281-.671.734-1.125.453-.468 1.032-.718.578-.25 1.187-.25.75 0 1.313.265.578.266.953.735.375.453.562 1.093.188.625.188 1.36v.547h-5.032q.032.484.188.906.172.422.453.734.297.313.688.5.406.172.906.172.64 0 1.14-.25.5-.265.829-.687l.734.562q-.172.266-.438.516-.265.25-.609.437-.344.188-.781.297-.438.11-.938.11zm-.156-6.313q-.375 0-.703.14-.313.126-.578.391-.266.25-.453.625-.172.375-.235.86h3.782v-.078q-.016-.36-.141-.704-.11-.343-.328-.609-.219-.281-.563-.453-.328-.172-.78-.172zm-37.01 18.75q0 .75-.187 1.406-.188.657-.547 1.141-.344.469-.86.75-.515.266-1.171.266-.657 0-1.141-.204-.484-.203-.844-.593v3.375h-1.203v-9.75h1.094l.062.765q.36-.422.844-.656.5-.234 1.156-.234.688 0 1.204.265.515.266.859.75.36.47.547 1.141.187.656.187 1.437v.141zm-1.203-.14q0-.516-.125-.985-.11-.469-.344-.812-.234-.36-.609-.563-.36-.219-.86-.219-.593 0-.984.282-.39.265-.625.687v3.39q.235.423.625.688.39.25.985.25.5 0 .859-.203.375-.219.61-.562.234-.36.343-.829.125-.468.125-.984v-.14zm2.92 0q0-.766.219-1.422.219-.657.625-1.141.422-.484 1.016-.75.593-.281 1.328-.281.75 0 1.343.281.594.266 1 .75.422.484.641 1.14.234.657.234 1.422v.141q0 .75-.234 1.406-.219.657-.64 1.141-.407.469-1 .75-.579.266-1.329.266t-1.343-.266q-.594-.281-1.016-.75-.406-.484-.625-1.14-.219-.657-.219-1.407v-.14zm1.203.14q0 .516.125.984.125.47.375.829t.625.578q.375.203.875.203t.875-.203q.375-.219.625-.578.25-.36.375-.829.125-.468.125-.984v-.14q0-.516-.14-.985-.125-.484-.375-.844-.25-.359-.625-.562-.375-.219-.875-.219t-.875.219q-.36.203-.61.562-.25.36-.375.844-.125.469-.125.984v.141zm7.327-3.61h3.593v6h2.297v1.048h-5.89v-1.047h2.39v-4.953h-2.39v-1.047zm2.234-1.843q0-.297.172-.5.187-.203.547-.203.36 0 .531.203.188.203.188.5t-.188.5q-.172.187-.531.187-.36 0-.547-.187-.172-.203-.172-.5zm6.654 1.844l.079 1.047q.39-.547.937-.86.563-.312 1.25-.312.563 0 1.016.156.453.156.765.484.328.328.5.844t.172 1.219v4.469h-1.203v-4.438q0-.469-.11-.797-.109-.328-.312-.531t-.5-.297q-.297-.094-.687-.094-.594 0-1.063.313-.453.297-.719.797v5.047h-1.218v-7.047h1.093zm9.764-1.703v1.703h2.688v.937h-2.688v3.828q0 .407.094.672.11.266.297.438.187.156.422.218.234.063.5.063.203 0 .406-.016l.406-.062q.203-.031.375-.063.172-.047.282-.062l.171.844q-.156.093-.375.171-.203.063-.468.11-.25.047-.532.062-.28.032-.562.032-.469 0-.875-.125-.406-.141-.703-.422-.297-.297-.485-.75-.171-.469-.171-1.11v-3.828h-1.844v-.937h1.844v-1.703h1.218zm8.264 8.875q-.75 0-1.375-.25-.61-.25-1.062-.704-.438-.453-.688-1.078-.25-.625-.25-1.375v-.265q0-.86.266-1.532.281-.671.734-1.125.453-.468 1.031-.718.578-.25 1.188-.25.75 0 1.312.265.578.266.953.735.375.453.563 1.093.187.625.187 1.36v.547h-5.03q.03.484.187.906.172.422.453.734.297.313.687.5.407.172.907.172.64 0 1.14-.25.5-.265.828-.687l.735.562q-.172.266-.438.516-.265.25-.61.437-.343.188-.78.297-.438.11-.938.11zm-.156-6.313q-.375 0-.703.14-.313.126-.578.391-.266.25-.454.625-.171.375-.234.86h3.781v-.078q-.015-.36-.14-.704-.11-.343-.328-.609-.22-.281-.563-.453-.328-.172-.781-.172zm9.654-.984q.172 0 .344.015.188 0 .344.032.172.015.312.046.14.032.235.079l-.172 1.171q-.344-.078-.656-.109-.313-.031-.657-.031-.86 0-1.39.39-.516.375-.766 1.063v4.516h-1.203v-7.047h1.14l.063 1.125q.438-.578 1.031-.907.61-.343 1.375-.343z"/><path fill="#cfe2f3" d="M434.054 377.524h96v88h-96z" fill-rule="evenodd"/><path stroke="#000" stroke-linejoin="round" stroke-linecap="butt" d="M434.054 377.524h96v88h-96z"/><path fill="#000" d="M473.29 425.542q0-.187.048-.359.062-.172.172-.297.125-.125.297-.203.187-.078.421-.078.235 0 .407.078.187.078.297.203.125.125.187.297.063.172.063.36 0 .187-.063.359-.062.156-.187.281-.11.125-.297.187-.172.079-.407.079-.234 0-.421-.079-.172-.062-.297-.187-.11-.125-.172-.281-.047-.172-.047-.36zm8 0q0-.187.046-.359.062-.172.172-.297.125-.125.297-.203.187-.078.422-.078.234 0 .406.078.187.078.297.203.125.125.187.297.063.172.063.36 0 .187-.063.359-.062.156-.187.281-.11.125-.297.187-.172.079-.406.079-.235 0-.422-.079-.172-.062-.297-.187-.11-.125-.172-.281-.047-.172-.047-.36zm7.997 0q0-.187.047-.359.063-.172.172-.297.125-.125.297-.203.187-.078.422-.078.234 0 .406.078.188.078.297.203.125.125.187.297.063.172.063.36 0 .187-.063.359-.062.156-.187.281-.11.125-.297.187-.172.079-.406.079-.235 0-.422-.079-.172-.062-.297-.187-.11-.125-.172-.281-.047-.172-.047-.36z"/><path fill="#fff2cc" d="M210.054 105.524h144v40h-144z" fill-rule="evenodd"/><path stroke="#000" stroke-linejoin="round" stroke-linecap="butt" d="M210.054 105.524h144v40h-144z"/><path fill="#000" d="M235.878 128.449q0-.204-.094-.375-.078-.172-.28-.313-.204-.156-.532-.266-.328-.125-.828-.218-.61-.125-1.11-.297-.484-.188-.843-.422-.36-.25-.563-.578-.187-.328-.187-.766 0-.422.203-.797.203-.375.562-.656.375-.281.875-.437.5-.172 1.11-.172.656 0 1.171.172.516.171.875.468.375.297.563.703.203.391.203.86H235.8q0-.235-.125-.453-.11-.219-.313-.375-.203-.172-.5-.282-.296-.109-.671-.109-.391 0-.688.094-.281.078-.469.219-.187.14-.297.343-.093.188-.093.391t.078.375q.078.156.265.281.204.125.516.235.328.109.828.203.64.14 1.156.328.516.172.86.422.36.25.547.578.187.328.187.765 0 .47-.219.86-.203.375-.578.656-.375.266-.906.422-.531.14-1.156.14-.719 0-1.281-.187-.547-.187-.938-.5-.39-.328-.594-.734-.203-.422-.203-.875h1.203q.032.375.203.64.172.25.422.407.266.156.578.218.313.063.61.063.765 0 1.203-.281.453-.282.453-.75zm6.17-6.875v1.703h2.688v.937h-2.688v3.828q0 .407.094.672.11.266.297.438.187.156.422.218.234.063.5.063.203 0 .406-.016l.406-.062q.203-.031.375-.063.172-.047.281-.062l.172.844q-.156.093-.375.171-.203.063-.468.11-.25.047-.532.062-.281.032-.562.032-.469 0-.875-.125-.406-.141-.703-.422-.297-.297-.485-.75-.172-.469-.172-1.11v-3.828h-1.843v-.937h1.843v-1.703h1.22zm9.78 8.75q-.079-.141-.125-.344-.032-.203-.063-.422-.172.187-.406.344-.219.156-.5.281-.266.125-.578.187-.297.079-.64.079-.563 0-1.017-.157-.453-.156-.765-.437-.313-.281-.485-.656-.171-.391-.171-.829 0-.578.234-1.015.234-.438.656-.719.422-.297 1.016-.437.594-.141 1.328-.141h1.312v-.563q0-.312-.125-.562-.109-.266-.328-.438-.203-.171-.515-.265-.313-.11-.703-.11-.344 0-.641.094-.281.094-.484.25-.188.14-.297.344-.094.203-.094.422h-1.219q.016-.375.203-.75.188-.375.547-.672.36-.297.875-.469.531-.187 1.188-.187.593 0 1.11.156.515.14.89.437t.578.735q.219.437.219 1.031v3.281q0 .344.062.75.063.391.188.672v.11h-1.25zm-2.141-.922q.36 0 .656-.078.313-.094.563-.25.25-.157.422-.344.187-.188.296-.39v-1.438H250.5q-1.046 0-1.64.312-.578.313-.578.985 0 .265.078.484.094.219.265.39.188.157.454.25.265.079.609.079zm8.498.078q.328 0 .64-.094.313-.11.548-.297.25-.187.39-.437t.157-.547h1.14q-.015.469-.25.906-.234.422-.64.75-.391.313-.907.5-.515.188-1.078.188-.797 0-1.39-.282-.594-.28-1-.765-.407-.485-.61-1.125-.187-.64-.187-1.344v-.266q0-.703.187-1.328.203-.64.61-1.125.406-.484 1-.765.593-.297 1.39-.297.625 0 1.156.203.532.187.907.531.375.344.593.813.22.468.22 1h-1.141q-.016-.313-.157-.594-.125-.281-.36-.5-.218-.219-.53-.344-.313-.125-.688-.125-.547 0-.937.234-.375.22-.61.579-.234.359-.343.812-.094.453-.094.906v.266q0 .469.094.922.109.453.343.812.235.36.61.594.375.219.937.219zm7.108-2.438l-.875.844v2.438h-1.219v-10h1.219v6.125l.781-.844 2.312-2.328h1.47l-2.86 2.937 3.297 4.11h-1.532l-2.593-3.282zm19.84-.156q0 .75-.188 1.406-.187.657-.547 1.141-.343.469-.859.75-.516.266-1.172.266-.656 0-1.14-.204-.485-.203-.844-.593v3.375h-1.203v-9.75h1.093l.063.765q.36-.422.844-.656.5-.234 1.156-.234.687 0 1.203.265.516.266.86.75.359.47.546 1.141.188.656.188 1.437v.141zm-1.203-.14q0-.516-.125-.985-.11-.469-.344-.812-.234-.36-.61-.563-.359-.219-.859-.219-.594 0-.984.282-.39.265-.625.687v3.39q.234.423.625.688.39.25.984.25.5 0 .86-.203.375-.219.609-.562.234-.36.344-.829.125-.468.125-.984v-.14zm2.92 0q0-.766.219-1.422.218-.657.625-1.141.421-.484 1.015-.75.594-.281 1.328-.281.75 0 1.344.281.594.266 1 .75.422.484.64 1.14.235.657.235 1.422v.141q0 .75-.234 1.406-.22.657-.641 1.141-.406.469-1 .75-.578.266-1.328.266-.75 0-1.344-.266-.594-.281-1.015-.75-.407-.484-.625-1.14-.22-.657-.22-1.407v-.14zm1.203.14q0 .516.125.984.125.47.375.829t.625.578q.375.203.875.203t.875-.203q.375-.219.625-.578.25-.36.375-.829.125-.468.125-.984v-.14q0-.516-.14-.985-.126-.484-.376-.844-.25-.359-.625-.562-.375-.219-.875-.219t-.875.219q-.36.203-.61.562-.25.36-.374.844-.125.469-.125.984v.141zm7.326-3.61h3.594v6h2.297v1.048h-5.89v-1.047h2.39v-4.953h-2.39v-1.047zm2.235-1.843q0-.297.171-.5.188-.203.547-.203.36 0 .532.203.187.203.187.5t-.187.5q-.172.187-.532.187-.359 0-.547-.187-.171-.203-.171-.5zm6.654 1.844l.078 1.047q.39-.547.938-.86.562-.312 1.25-.312.562 0 1.015.156.453.156.766.484.328.328.5.844t.172 1.219v4.469h-1.203v-4.438q0-.469-.11-.797-.11-.328-.312-.531-.203-.203-.5-.297-.297-.094-.688-.094-.593 0-1.062.313-.453.297-.719.797v5.047h-1.219v-7.047h1.094zm9.764-1.703v1.703h2.687v.937h-2.687v3.828q0 .407.094.672.109.266.296.438.188.156.422.218.235.063.5.063.203 0 .407-.016l.406-.062q.203-.031.375-.063.172-.047.281-.062l.172.844q-.156.093-.375.171-.203.063-.469.11-.25.047-.531.062-.281.032-.563.032-.468 0-.875-.125-.406-.141-.703-.422-.297-.297-.484-.75-.172-.469-.172-1.11v-3.828h-1.844v-.937h1.844v-1.703h1.219zm8.264 8.875q-.75 0-1.375-.25-.61-.25-1.063-.704-.437-.453-.687-1.078-.25-.625-.25-1.375v-.265q0-.86.265-1.532.281-.671.735-1.125.453-.468 1.03-.718.579-.25 1.188-.25.75 0 1.313.265.578.266.953.735.375.453.562 1.093.188.625.188 1.36v.547h-5.031q.031.484.187.906.172.422.453.734.297.313.688.5.406.172.906.172.64 0 1.14-.25.5-.265.829-.687l.734.562q-.172.266-.437.516-.266.25-.61.437-.343.188-.78.297-.438.11-.938.11zm-.157-6.313q-.375 0-.703.14-.312.126-.578.391-.266.25-.453.625-.172.375-.234.86h3.78v-.078q-.015-.36-.14-.704-.11-.343-.328-.609-.219-.281-.562-.453-.329-.172-.782-.172zm9.655-.984q.172 0 .344.015.187 0 .343.032.172.015.313.046.14.032.234.079l-.172 1.171q-.343-.078-.656-.109-.312-.031-.656-.031-.86 0-1.39.39-.516.375-.766 1.063v4.516h-1.204v-7.047h1.141l.063 1.125q.437-.578 1.03-.907.61-.343 1.376-.343z"/><path fill="#fff2cc" d="M210.054 185.524h144v40h-144z" fill-rule="evenodd"/><path stroke="#000" stroke-linejoin="round" stroke-linecap="butt" d="M210.054 185.524h144v40h-144z"/><path fill="#000" d="M243.83 210.324q-.079-.141-.126-.344l-.062-.422q-.172.187-.406.344-.22.156-.5.281-.266.125-.578.187-.297.079-.641.079-.563 0-1.016-.157-.453-.156-.765-.437-.313-.281-.485-.656-.172-.391-.172-.829 0-.578.235-1.015.234-.438.656-.719.422-.297 1.016-.437.593-.141 1.328-.141h1.312v-.563q0-.312-.125-.562-.11-.266-.328-.438-.203-.171-.515-.265-.313-.11-.704-.11-.343 0-.64.094-.281.094-.485.25-.187.14-.296.344-.094.203-.094.422h-1.219q.016-.375.203-.75.188-.375.547-.672.36-.297.875-.469.531-.187 1.188-.187.593 0 1.109.156.516.14.89.437.376.297.579.735.218.437.218 1.031v3.281q0 .344.063.75.062.391.187.672v.11h-1.25zm-2.141-.922q.36 0 .656-.078.313-.094.563-.25.25-.157.421-.344.188-.188.297-.39v-1.438h-1.125q-1.047 0-1.64.312-.578.313-.578.985 0 .265.078.484.093.219.265.39.188.157.453.25.266.079.61.079zm8.498.078q.328 0 .64-.094.313-.11.547-.297.25-.187.391-.437.14-.25.156-.547h1.141q-.016.469-.25.906-.234.422-.64.75-.391.313-.907.5-.516.188-1.078.188-.797 0-1.39-.282-.594-.28-1-.765-.407-.485-.61-1.125-.188-.64-.188-1.344v-.266q0-.703.188-1.328.203-.64.61-1.125.406-.484 1-.765.593-.297 1.39-.297.625 0 1.156.203.531.187.906.531.375.344.594.813.219.468.219 1h-1.14q-.016-.313-.157-.594-.125-.281-.36-.5-.218-.219-.53-.344-.313-.125-.688-.125-.547 0-.938.234-.375.22-.609.579-.234.359-.344.812-.093.453-.093.906v.266q0 .469.093.922.11.453.344.812.234.36.61.594.374.219.937.219zm7.998 0q.328 0 .64-.094.313-.11.548-.297.25-.187.39-.437t.157-.547h1.14q-.015.469-.25.906-.234.422-.64.75-.391.313-.907.5-.515.188-1.078.188-.797 0-1.39-.282-.594-.28-1-.765-.407-.485-.61-1.125-.187-.64-.187-1.344v-.266q0-.703.187-1.328.203-.64.61-1.125.406-.484 1-.765.593-.297 1.39-.297.625 0 1.156.203.532.187.907.531.375.344.593.813.22.468.22 1h-1.141q-.016-.313-.157-.594-.125-.281-.36-.5-.218-.219-.53-.344-.313-.125-.688-.125-.547 0-.937.234-.375.22-.61.579-.234.359-.343.812-.094.453-.094.906v.266q0 .469.094.922.109.453.343.812.235.36.61.594.375.219.937.219zm9.576-.125q-.359.515-.89.812-.516.282-1.203.282-.563 0-1.016-.172-.437-.172-.766-.532-.312-.359-.484-.921-.172-.563-.172-1.36v-4.187h1.203v4.203q0 .578.094.953t.266.61q.187.218.453.312.265.078.61.078.734 0 1.187-.297.453-.297.672-.797v-5.062h1.203v7.047h-1.094l-.063-.97zm3.983-6.078l.031.672q.219-.375.563-.579.344-.218.844-.218.968 0 1.296.75.204-.328.547-.532.344-.218.828-.218.782 0 1.188.484.422.469.422 1.422v5.266h-1.14v-5.266q0-.89-.813-.89-.22 0-.375.062-.157.062-.266.172-.094.093-.156.234-.063.125-.078.266v5.422h-1.157v-5.282q0-.422-.187-.64-.188-.235-.594-.235-.375 0-.594.157-.203.156-.296.39v5.61h-1.141v-7.047h1.078zm12.014 6.078q-.36.515-.89.812-.516.282-1.204.282-.562 0-1.016-.172-.437-.172-.765-.532-.313-.359-.485-.921-.171-.563-.171-1.36v-4.187h1.203v4.203q0 .578.093.953.094.375.266.61.188.218.453.312.266.078.61.078.734 0 1.187-.297.453-.297.672-.797v-5.062h1.203v7.047h-1.094l-.062-.97zm3.623-9.031h3.594v8.953h2.297v1.047h-5.891v-1.047h2.39v-7.907h-2.39v-1.046zm12.436 10q-.078-.141-.125-.344-.032-.203-.063-.422-.172.187-.406.344-.219.156-.5.281-.266.125-.578.187-.297.079-.64.079-.563 0-1.016-.157-.454-.156-.766-.437-.313-.281-.484-.656-.172-.391-.172-.829 0-.578.234-1.015.234-.438.656-.719.422-.297 1.016-.437.594-.141 1.328-.141h1.313v-.563q0-.312-.125-.562-.11-.266-.329-.438-.203-.171-.515-.265-.313-.11-.703-.11-.344 0-.64.094-.282.094-.485.25-.188.14-.297.344-.094.203-.094.422h-1.219q.016-.375.203-.75.188-.375.547-.672.36-.297.875-.469.532-.187 1.188-.187.594 0 1.11.156.515.14.89.437t.578.735q.219.437.219 1.031v3.281q0 .344.062.75.063.391.188.672v.11h-1.25zm-2.14-.922q.358 0 .655-.078.313-.094.563-.25.25-.157.422-.344.187-.188.297-.39v-1.438h-1.125q-1.047 0-1.641.312-.578.313-.578.985 0 .265.078.484.094.219.266.39.187.157.453.25.265.079.61.079zm8.357-7.828v1.703h2.687v.937h-2.687v3.828q0 .407.093.672.11.266.297.438.188.156.422.218.235.063.5.063.203 0 .406-.016.204-.03.407-.062.203-.031.375-.063.172-.047.28-.062l.173.844q-.156.093-.375.171-.203.063-.469.11-.25.047-.531.062-.281.032-.563.032-.468 0-.875-.125-.406-.141-.703-.422-.297-.297-.484-.75-.172-.469-.172-1.11v-3.828h-1.844v-.937h1.844v-1.703h1.219zm4.81 5.171q0-.765.22-1.421.218-.657.624-1.141.422-.484 1.016-.75.593-.281 1.328-.281.75 0 1.344.281.593.266 1 .75.421.484.64 1.14.235.657.235 1.422v.141q0 .75-.235 1.406-.219.657-.64 1.141-.407.469-1 .75-.579.266-1.329.266t-1.343-.266q-.594-.281-1.016-.75-.406-.484-.625-1.14-.219-.657-.219-1.407v-.14zm1.203.141q0 .516.125.984.125.47.375.829t.625.578q.375.203.875.203t.875-.203q.375-.219.625-.578.25-.36.375-.829.125-.468.125-.984v-.14q0-.516-.14-.985-.125-.484-.375-.844-.25-.359-.625-.562-.375-.219-.875-.219t-.875.219q-.36.203-.61.562-.25.36-.375.844-.125.469-.125.984v.141zm11.749-3.734q.171 0 .343.015.188 0 .344.032.172.015.313.046.14.032.234.079l-.172 1.171q-.344-.078-.656-.109-.313-.031-.656-.031-.86 0-1.391.39-.516.375-.766 1.063v4.516h-1.203v-7.047h1.14l.063 1.125q.438-.578 1.032-.907.609-.343 1.375-.343z"/><path d="M354.054 125.524h40v236h40"/><path stroke="#666" stroke-width="2" stroke-linejoin="round" stroke-linecap="butt" d="M354.054 125.524h40v236h28"/><path fill="#666" stroke="#666" stroke-width="2" stroke-linecap="butt" d="M422.054 364.827l9.076-3.303-9.076-3.304z" fill-rule="evenodd"/><path d="M410.054 1.524h136v40h-136z"/><path fill="#000" d="M446.26 15.178l4.344 10.828 4.328-10.828h2.265v13.266h-1.75v-5.172l.172-5.563-4.36 10.735h-1.343l-4.344-10.72.172 5.548v5.172h-1.734V15.178h2.25zm19.85 13.266q-.14-.297-.234-1.032-1.172 1.22-2.813 1.22-1.453 0-2.39-.829-.922-.828-.922-2.094 0-1.531 1.156-2.375 1.172-.86 3.297-.86h1.64v-.78q0-.891-.53-1.407-.516-.53-1.548-.53-.906 0-1.515.468-.61.453-.61 1.094h-1.703q0-.735.516-1.422.531-.688 1.422-1.078.906-.407 1.984-.407 1.703 0 2.672.86.969.843 1 2.328v4.531q0 1.36.344 2.172v.14h-1.766zm-2.797-1.282q.797 0 1.5-.406.72-.422 1.032-1.078v-2.016h-1.313q-3.11 0-3.11 1.813 0 .797.532 1.25.531.437 1.36.437zm10.82.094q.89 0 1.563-.547.687-.547.75-1.375h1.593q-.046.844-.578 1.61-.531.765-1.437 1.234-.89.453-1.89.453-2.016 0-3.204-1.344-1.187-1.343-1.187-3.687v-.281q0-1.438.515-2.547.531-1.125 1.516-1.735 1-.625 2.344-.625 1.656 0 2.75 1 1.109.985 1.171 2.563h-1.593q-.063-.953-.72-1.563-.655-.625-1.608-.625-1.282 0-2 .922-.704.922-.704 2.672v.328q0 1.703.704 2.625.703.922 2.015.922zm7.484-7.469q1.125-1.375 2.922-1.375 3.125 0 3.156 3.516v6.516h-1.687v-6.516q-.016-1.078-.5-1.578-.469-.516-1.484-.516-.813 0-1.438.438-.61.437-.969 1.156v7.016h-1.672v-14h1.672v5.343zm10.432 8.657h-1.687v-9.86h1.687v9.86zm-1.828-12.47q0-.405.25-.687.25-.297.734-.297.5 0 .75.297.266.282.266.688 0 .406-.266.687-.25.266-.75.266-.484 0-.734-.266-.25-.28-.25-.687zm6.121 2.61l.047 1.235q1.125-1.407 2.953-1.407 3.125 0 3.156 3.516v6.516h-1.687v-6.516q-.016-1.078-.5-1.578-.469-.516-1.485-.516-.812 0-1.437.438-.61.437-.969 1.156v7.016h-1.672v-9.86h1.594zm12.778 10.047q-2 0-3.265-1.312-1.25-1.329-1.25-3.532v-.312q0-1.469.562-2.61.563-1.156 1.563-1.796 1.015-.657 2.187-.657 1.922 0 2.984 1.266 1.063 1.266 1.063 3.625v.687h-6.672q.031 1.47.844 2.375.828.891 2.078.891.89 0 1.516-.36.625-.374 1.078-.968l1.03.797q-1.233 1.906-3.718 1.906zm-.203-8.844q-1.016 0-1.719.75-.687.735-.843 2.078h4.937v-.125q-.078-1.28-.703-1.984-.61-.719-1.672-.719zm-46.389 28.047q0-.687-.516-1.062-.515-.375-1.797-.64-1.28-.282-2.03-.657-.75-.39-1.11-.922-.36-.531-.36-1.266 0-1.203 1.016-2.03 1.031-.845 2.625-.845 1.672 0 2.719.86t1.047 2.218h-1.688q0-.703-.594-1.203-.593-.5-1.484-.5-.922 0-1.437.407-.516.39-.516 1.046 0 .61.484.922.485.313 1.735.594 1.265.281 2.047.672.78.39 1.156.937.39.547.39 1.344 0 1.328-1.062 2.125-1.047.797-2.734.797-1.188 0-2.11-.422-.906-.422-1.422-1.172-.515-.75-.515-1.625h1.687q.047.844.672 1.344.64.5 1.688.5.953 0 1.53-.39.579-.391.579-1.032zm6.166-9.64v2.39h1.844v1.313h-1.844v6.11q0 .593.235.89.25.297.844.297.296 0 .812-.11v1.36q-.672.187-1.297.187-1.125 0-1.703-.687-.578-.688-.578-1.938v-6.11h-1.797v-1.312h1.797v-2.39h1.687zm9.892 12.25q-.141-.297-.235-1.032-1.172 1.22-2.812 1.22-1.453 0-2.39-.829-.923-.828-.923-2.094 0-1.531 1.156-2.375 1.172-.86 3.297-.86h1.641v-.78q0-.891-.531-1.407-.516-.53-1.547-.53-.906 0-1.516.468-.61.453-.61 1.094h-1.702q0-.735.515-1.422.532-.688 1.422-1.078.906-.407 1.985-.407 1.703 0 2.671.86.97.843 1 2.328v4.531q0 1.36.344 2.172v.14h-1.765zm-2.797-1.282q.797 0 1.5-.406.718-.422 1.031-1.078v-2.016h-1.313q-3.109 0-3.109 1.813 0 .797.531 1.25.532.437 1.36.437zm10.82.094q.89 0 1.562-.547.688-.547.75-1.375h1.594q-.047.844-.578 1.61-.532.765-1.438 1.234-.89.453-1.89.453-2.016 0-3.204-1.344-1.187-1.343-1.187-3.687v-.281q0-1.438.516-2.547.53-1.125 1.515-1.735 1-.625 2.344-.625 1.656 0 2.75 1 1.11.985 1.172 2.563h-1.594q-.062-.953-.719-1.563-.656-.625-1.609-.625-1.281 0-2 .922-.703.922-.703 2.672v.328q0 1.703.703 2.625.703.922 2.016.922zm8.562-3.375l-1.063 1.094v3.469h-1.687v-14h1.687v8.468l.907-1.078 3.062-3.25h2.047l-3.828 4.125 4.281 5.735h-1.984l-3.422-4.563z"/><path d="M538.054 129.524v272"/><path stroke="#b7b7b7" stroke-width="2" stroke-linejoin="round" stroke-linecap="butt" d="M538.054 129.524v260"/><path fill="#b7b7b7" stroke="#b7b7b7" stroke-width="2" stroke-linecap="butt" d="M534.75 389.524l3.304 9.076 3.303-9.076z" fill-rule="evenodd"/><path d="M570.054 193.524v144h-32v-144z"/><path fill="#b7b7b7" d="M551.785 203.07q1.156.157 2 .626.86.468 1.266 1.125.406.671.375 1.468-.016 1.219-.922 1.844l.797.234v1.079l-6.891-1.172q-1.36-.188-2.156-1.094-.813-.906-.781-2.234.015-.704.343-1.36.328-.656.89-1.031l.72.672q-.938.625-.97 1.672-.03.843.47 1.422.5.593 1.406.78l.625.126q-.86-.86-.828-2.016.015-.656.344-1.14.343-.485.968-.75.64-.266 1.422-.297.39 0 .922.047zm-.672 1.141q-.922-.016-1.437.313-.516.343-.532 1.047-.03 1.046 1.032 1.812l3.234.547q.969-.39 1-1.406.031-.953-.781-1.578-.813-.61-2.172-.72l-.344-.015zm3.11 10.212l.062-.547q0-1.14-1.031-1.781l-5-.875v-1.172l7.047 1.219v1.14l-.813-.171q.969.75.953 1.765 0 .203-.093.563l-1.125-.14zm1.203 3.97q-.016.89-.485 1.515-.468.641-1.297.938-.812.297-1.796.203l-.141-.016q-1.031-.125-1.86-.609-.828-.484-1.296-1.266-.453-.765-.422-1.687.015-.89.469-1.531.468-.625 1.28-.922.813-.282 1.782-.203 1.094.093 1.953.593.875.5 1.36 1.266.484.781.453 1.719zm-3.782-2.39q-.406-.048-.843 0-.766.062-1.235.452-.453.406-.468 1.063-.016.578.28 1.062.313.5.938.844t1.39.437q.595.047 1.017.016.78-.078 1.234-.484.453-.39.484-1.047.016-.906-.718-1.547-.735-.64-1.922-.781l-.157-.016zm-1.718 12.234l5.375 2.25v1.22l-7.047-3.204v-.969l5.328-.718-5.328-2.547v-.953l7.047-.766v1.125l-5.25.437 5.25 2.5v.954l-5.375.671zm.234 7.829q.734.093 1.031-.797l.36-1.235q.53-1.546 1.765-1.484.938.047 1.532.844.593.797.578 1.89-.016 1.063-.625 1.735-.61.672-1.578.64v-1.171q.53.015.859-.329.328-.343.344-.921.015-.61-.297-1.047-.297-.422-.766-.485-.61-.078-.89.75l-.172.594q-.313 1.203-.813 1.703-.5.516-1.234.485-.656-.047-1.156-.438-.485-.39-.75-1.047-.25-.64-.22-1.375.016-1.125.657-1.86.64-.718 1.64-.687v1.172q-.593 0-.952.375-.36.39-.36 1.047-.015.64.266 1.11.281.468.781.53zm1.625 5.98q1.078.125 1.938.578.875.47 1.296 1.14.438.688.407 1.5-.016 1.173-.86 1.813l3.688.672v1.172l-10-1.734v-1.063l.75.125q-.906-.843-.875-2.062.015-.969.75-1.563.75-.578 1.984-.625.39-.015.922.047zm-.672 1.125q-.937-.015-1.453.328-.516.36-.516 1.032-.046 1.015 1.016 1.812l3.266.563q.953-.391.984-1.422.016-.688-.422-1.22-.437-.53-1.234-.812-.781-.28-1.64-.28zm4.313 9.792q-.016.89-.485 1.515-.468.64-1.297.938-.812.297-1.796.203l-.141-.016q-1.031-.125-1.86-.61-.828-.484-1.296-1.265-.453-.765-.422-1.687.015-.89.469-1.532.468-.625 1.28-.921.813-.282 1.782-.204 1.094.094 1.953.594.875.5 1.36 1.266.484.781.453 1.719zm-3.782-2.391q-.406-.047-.843 0-.766.062-1.235.453-.453.406-.468 1.063-.016.578.28 1.062.313.5.938.844t1.39.437q.595.047 1.017.016.78-.078 1.234-.484.453-.391.484-1.047.016-.907-.718-1.547-.735-.64-1.922-.781l-.157-.016zm-1.718 12.235l5.375 2.25v1.22l-7.047-3.204v-.969l5.328-.719-5.328-2.546v-.954l7.047-.765v1.125l-5.25.437 5.25 2.5v.953l-5.375.672zm5.375 5.797l-.891-.156q1.047.938 1.016 2.156-.032 1-.703 1.47-.657.468-1.86.358l-4.61-.78v-1.173l4.641.782q.313.03.579 0 .921-.11.937-1.079.016-1.062-1.125-1.859l-5.031-.875v-1.172l7.047 1.219v1.11zm-5.375 11.182l5.375 2.25v1.22l-7.047-3.204v-.969l5.328-.718-5.328-2.547v-.953l7.047-.766v1.125l-5.25.437 5.25 2.5v.954l-5.375.671zm-1.672 7.782q.187-.047.375-.047l.36.015q-.891-.968-.86-2.062.015-.922.578-1.516.578-.578 1.453-.515 1.11.062 1.734.968.641.922.641 2.407l-.016 1.234.563.078q.625.063 1-.25.375-.312.375-.922.016-.609-.297-1.078-.297-.453-.812-.562v-1.188q.609.063 1.093.485.485.421.735 1.078.265.672.25 1.375-.016 1.11-.657 1.718-.64.61-1.703.516l-3.484-.578-.516-.031q-.343-.016-.703.078l-.11-.016v-1.187zm.906-1.86q-.016.578.266 1.078.297.5.797.86l1.453.265v-.89q0-1.125-.36-1.719-.343-.578-.984-.656-.5-.063-.828.219-.328.296-.344.843zm5.063 9.022l.062-.547q0-1.14-1.031-1.78l-5-.876v-1.172l7.047 1.22v1.14l-.813-.172q.969.75.953 1.765 0 .204-.093.563l-1.125-.14zm-2.438.407q1.078.125 1.938.579.875.468 1.296 1.14.438.688.407 1.5-.016 1.172-.86 1.813l3.688.672v1.171l-10-1.734v-1.062l.75.125q-.906-.844-.875-2.063.015-.969.75-1.562.75-.579 1.984-.625.39-.016.922.046zm-.672 1.125q-.937-.015-1.453.329-.516.359-.516 1.03-.046 1.016 1.016 1.813l3.266.563q.953-.39.984-1.422.016-.688-.422-1.219-.437-.531-1.234-.812-.781-.282-1.64-.282zm-.953 10.245q.734.094 1.031-.797l.36-1.234q.53-1.547 1.765-1.485.938.047 1.532.844.593.797.578 1.89-.016 1.063-.625 1.735-.61.672-1.578.64v-1.171q.53.015.859-.328.328-.344.344-.922.015-.61-.297-1.047-.297-.422-.766-.484-.61-.079-.89.75l-.172.593q-.313 1.203-.813 1.703-.5.516-1.234.485-.656-.047-1.156-.438-.485-.39-.75-1.047-.25-.64-.22-1.375.016-1.125.657-1.859.64-.719 1.64-.687v1.171q-.593 0-.952.375-.36.391-.36 1.047-.015.641.266 1.11.281.468.781.531z"/><path fill="#ead1dc" d="M10.054 81.524h120v32h-120z" fill-rule="evenodd"/><path stroke="#000" stroke-linejoin="round" stroke-linecap="butt" d="M10.054 81.524h120v32h-120z"/><path fill="#000" d="M36.157 99.933q0-.438-.203-.734-.204-.297-.516-.5-.313-.22-.688-.344-.359-.14-.718-.25-.5-.172-1.016-.39-.516-.235-.937-.563-.422-.328-.704-.781-.265-.454-.265-1.063 0-.625.265-1.094.282-.484.704-.812.437-.344.984-.516.562-.172 1.125-.172.625 0 1.187.203.579.204 1.016.579.453.375.719.906.265.515.281 1.172h-1.25q-.047-.407-.203-.735-.14-.343-.39-.578-.25-.25-.594-.375-.329-.14-.766-.14-.344 0-.672.109-.328.094-.594.297-.25.187-.406.469-.156.28-.156.656.015.422.219.703.203.281.5.484.312.188.671.313.36.125.688.234.344.11.703.25.36.14.688.328.343.172.625.407.28.218.5.515.218.281.328.64.125.345.125.766 0 .641-.282 1.125-.28.47-.734.782-.437.312-1.016.468-.562.157-1.125.157-.64 0-1.25-.188-.593-.203-1.078-.562-.468-.375-.781-.907-.297-.53-.312-1.203h1.234q.062.438.234.782.188.343.469.593.297.235.656.36.375.109.828.109.344 0 .688-.078.344-.094.61-.281.265-.188.437-.47.172-.28.172-.671zm5.888-6.36v1.704h2.688v.937h-2.688v3.828q0 .407.094.672.11.266.297.438.188.156.422.219.234.062.5.062.203 0 .406-.016l.406-.062q.204-.031.375-.063.172-.046.282-.062l.172.844q-.157.093-.375.172-.204.062-.47.109-.25.047-.53.062-.282.032-.563.032-.469 0-.875-.125-.406-.141-.703-.422-.297-.297-.484-.75-.172-.469-.172-1.11v-3.828h-1.844v-.937h1.844v-1.703h1.218zm9.78 8.75q-.078-.14-.125-.343l-.063-.422q-.171.188-.406.344-.219.156-.5.281-.265.125-.578.188-.297.078-.64.078-.563 0-1.016-.157-.453-.156-.766-.437-.312-.281-.484-.656-.172-.391-.172-.828 0-.579.234-1.016.235-.438.657-.719.421-.297 1.015-.437.594-.141 1.328-.141h1.313v-.563q0-.312-.125-.562-.11-.266-.328-.438-.203-.171-.516-.265-.312-.11-.703-.11-.344 0-.64.094-.282.094-.485.25-.188.14-.297.344-.094.203-.094.422h-1.218q.015-.375.203-.75.187-.375.547-.672.359-.297.875-.469.53-.187 1.187-.187.594 0 1.11.156.515.14.89.438.375.296.578.734.219.437.219 1.031v3.281q0 .344.062.75.063.391.188.672v.11h-1.25zm-2.14-.921q.359 0 .656-.078.312-.094.562-.25.25-.157.422-.344.187-.188.297-.39v-1.438h-1.125q-1.047 0-1.64.312-.579.313-.579.985 0 .265.078.484.094.219.266.39.187.157.453.25.266.079.61.079zm8.497.078q.329 0 .641-.094.313-.11.547-.297.25-.187.39-.437.141-.25.157-.547h1.14q-.015.469-.25.906-.234.422-.64.75-.39.313-.906.5-.516.188-1.079.188-.796 0-1.39-.282-.594-.28-1-.765t-.61-1.125q-.187-.64-.187-1.344v-.266q0-.703.187-1.328.204-.64.61-1.125.406-.484 1-.765.594-.297 1.39-.297.625 0 1.157.203.53.187.906.531.375.344.594.813.218.468.218 1h-1.14q-.016-.313-.156-.594-.125-.281-.36-.5-.219-.219-.531-.344-.313-.125-.688-.125-.546 0-.937.235-.375.218-.61.578-.234.359-.343.812-.094.453-.094.906v.266q0 .469.094.922.11.453.344.812.234.36.609.594.375.219.937.219zm7.108-2.438l-.875.844v2.438h-1.219v-10h1.219v6.125l.781-.844 2.313-2.328h1.468l-2.859 2.937 3.297 4.11h-1.531l-2.594-3.282zm12.03.438q-.079.656-.344 1.203-.25.547-.657.938-.406.39-.968.609-.547.219-1.235.219-.578 0-1.062-.157-.469-.171-.844-.453-.375-.297-.656-.687-.266-.406-.453-.875-.172-.469-.266-.985-.078-.515-.078-1.046v-1.313q0-.531.078-1.047.094-.515.266-.984.187-.469.453-.86.281-.406.656-.703.375-.297.844-.453.469-.172 1.062-.172.72 0 1.266.219.562.219.969.625.406.39.64.953.25.563.328 1.235h-1.203q-.062-.422-.203-.797-.14-.375-.39-.641-.235-.281-.579-.438-.343-.171-.828-.171-.422 0-.75.14t-.578.39q-.234.235-.39.563-.157.313-.266.672-.094.344-.14.719-.032.375-.032.734v1.329q0 .359.031.734.047.375.14.734.11.36.267.688.156.312.39.562.25.235.563.375.328.14.765.14.485 0 .828-.14.344-.156.579-.422.25-.28.39-.64.14-.375.203-.797h1.203zm3.076-3.156q.375-.547.922-.86.546-.312 1.25-.312.546 0 1 .156.453.156.765.5.328.344.5.86.172.515.172 1.218v4.438h-1.203v-4.438q0-.875-.422-1.297-.406-.422-1.172-.422-.578 0-1.062.297-.469.282-.75.75v5.11h-1.219v-10h1.219v4zm9.904 6.125q-.75 0-1.375-.25-.61-.25-1.062-.703-.438-.454-.688-1.079-.25-.625-.25-1.375v-.265q0-.86.266-1.531.281-.672.734-1.125.453-.47 1.031-.72.579-.25 1.188-.25.75 0 1.312.266.579.266.954.735.375.453.562 1.094.188.625.188 1.359v.547h-5.032q.032.484.188.906.172.422.453.734.297.313.687.5.407.172.907.172.64 0 1.14-.25.5-.265.828-.687l.735.562q-.172.266-.438.516-.265.25-.61.437-.343.188-.78.297-.438.11-.938.11zm-.156-6.313q-.375 0-.703.14-.313.126-.578.391-.266.25-.453.625-.172.375-.235.86h3.781v-.078q-.015-.36-.14-.703-.11-.344-.328-.61-.22-.281-.563-.453-.328-.172-.781-.172zm8.03 5.344q.327 0 .64-.094.312-.11.547-.297.25-.187.39-.437.141-.25.157-.547h1.14q-.015.469-.25.906-.234.422-.64.75-.39.313-.907.5-.515.188-1.078.188-.797 0-1.39-.282-.594-.28-1-.765-.407-.485-.61-1.125-.187-.64-.187-1.344v-.266q0-.703.187-1.328.203-.64.61-1.125.406-.484 1-.765.593-.297 1.39-.297.625 0 1.157.203.53.187.906.531.375.344.594.813.218.468.218 1h-1.14q-.016-.313-.157-.594-.125-.281-.359-.5-.219-.219-.531-.344-.313-.125-.688-.125-.547 0-.937.235-.375.218-.61.578-.234.359-.343.812-.094.453-.094.906v.266q0 .469.094.922.11.453.343.812.235.36.61.594.375.219.937.219zm7.107-2.438l-.875.844v2.438h-1.219v-10h1.219v6.125l.781-.844 2.313-2.328h1.468l-2.859 2.937 3.297 4.11h-1.531l-2.594-3.282z"/><path fill="#ead1dc" d="M10.054 113.524h120v32h-120z" fill-rule="evenodd"/><path stroke="#000" stroke-linejoin="round" stroke-linecap="butt" d="M10.054 113.524h120v32h-120z"/><path fill="#000" d="M44.56 133.308h4.625v1.016h-5.844v-9.47h1.22v8.454zm6.405-2.563q0-.78.187-1.437.203-.672.563-1.14.375-.485.89-.75.531-.266 1.172-.266.64 0 1.11.218.468.204.812.61v-3.656h1.203v10h-1.11l-.046-.735q-.344.422-.844.64-.484.22-1.14.22-.626 0-1.157-.266-.515-.281-.875-.75-.36-.484-.562-1.14-.203-.657-.203-1.407v-.14zm1.203.141q0 .516.11.984.108.454.343.813.234.344.578.547.36.203.875.203.297 0 .547-.063.25-.078.453-.203.203-.14.36-.328.156-.187.265-.422v-3.265q-.234-.422-.64-.703-.391-.282-.985-.282-.5 0-.86.22-.359.202-.593.562-.235.343-.344.812-.11.469-.11.984v.141zm11.654 3.438q-.078-.141-.125-.344-.031-.203-.062-.422-.172.188-.407.344-.218.156-.5.281-.265.125-.578.188-.297.078-.64.078-.563 0-1.016-.157-.453-.156-.766-.437-.312-.281-.484-.656-.172-.391-.172-.829 0-.578.235-1.015.234-.438.656-.719.422-.297 1.015-.437.594-.141 1.329-.141h1.312v-.563q0-.312-.125-.562-.11-.266-.328-.438-.203-.171-.516-.265-.312-.11-.703-.11-.344 0-.64.094-.282.094-.485.25-.187.14-.297.344-.093.203-.093.422h-1.22q.016-.375.204-.75.187-.375.547-.672.36-.297.875-.469.531-.187 1.187-.187.594 0 1.11.156.515.14.89.437t.578.735q.22.437.22 1.031v3.281q0 .344.062.75.062.391.187.672v.11h-1.25zm-2.14-.922q.359 0 .656-.078.312-.094.562-.25.25-.157.422-.344.188-.188.297-.39v-1.438h-1.125q-1.047 0-1.64.312-.579.313-.579.985 0 .265.078.484.094.219.266.39.188.157.453.25.266.079.61.079zm10.123-6.25q.172 0 .343.015.188 0 .344.032.172.015.313.046.14.032.234.079l-.172 1.171q-.344-.078-.656-.109-.313-.031-.656-.031-.86 0-1.39.39-.517.375-.767 1.063v4.516h-1.203v-7.047h1.141l.062 1.125q.438-.578 1.032-.906.61-.344 1.375-.344zm16.012 7.172q-.078-.141-.125-.344-.032-.203-.063-.422-.172.188-.406.344-.219.156-.5.281-.266.125-.578.188-.297.078-.64.078-.563 0-1.016-.157-.454-.156-.766-.437-.313-.281-.484-.656-.172-.391-.172-.829 0-.578.234-1.015.234-.438.656-.719.422-.297 1.016-.437.594-.141 1.328-.141h1.313v-.563q0-.312-.125-.562-.11-.266-.329-.438-.203-.171-.515-.265-.313-.11-.703-.11-.344 0-.64.094-.282.094-.485.25-.188.14-.297.344-.094.203-.094.422h-1.219q.016-.375.203-.75.188-.375.547-.672.36-.297.875-.469.532-.187 1.188-.187.594 0 1.11.156.515.14.89.437t.578.735q.219.437.219 1.031v3.281q0 .344.062.75.063.391.188.672v.11h-1.25zm-2.14-.922q.358 0 .655-.078.313-.094.563-.25.25-.157.422-.344.187-.188.297-.39v-1.438h-1.125q-1.047 0-1.641.312-.578.313-.578.985 0 .265.078.484.094.219.266.39.187.157.453.25.265.079.61.079zm9.404.922h-1.204v-7.938l-2.468.938v-1.094l3.578-1.375h.094v9.469z"/><path fill="#ead1dc" d="M10.054 145.524h120v32h-120z" fill-rule="evenodd"/><path stroke="#000" stroke-linejoin="round" stroke-linecap="butt" d="M10.054 145.524h120v32h-120z"/><path fill="#000" d="M31.72 163.87h-3.156l-.766 2.454h-1.203l3.047-9.47h1.016l3 9.47H32.47l-.75-2.454zm-2.844-1.046h2.532l-1.25-4.11-1.282 4.11zm6.092-.079q0-.78.188-1.437.203-.672.562-1.14.375-.485.89-.75.532-.266 1.173-.266.64 0 1.11.219.468.203.812.609v-3.656h1.203v10h-1.11l-.047-.735q-.343.422-.843.64-.485.22-1.14.22-.626 0-1.157-.266-.516-.281-.875-.75-.36-.484-.563-1.14-.203-.657-.203-1.407v-.14zm1.203.141q0 .516.11.984.11.454.343.813.235.344.579.547.359.203.875.203.296 0 .546-.063.25-.078.454-.203.203-.14.359-.328.156-.187.266-.422v-3.265q-.235-.422-.641-.703-.39-.282-.984-.282-.5 0-.86.22-.36.202-.594.562-.234.343-.343.812-.11.469-.11.984v.141zm6.795-.14q0-.782.188-1.438.203-.672.562-1.14.375-.485.891-.75.531-.266 1.172-.266.64 0 1.11.219.468.203.812.609v-3.656h1.203v10h-1.11l-.046-.735q-.344.422-.844.64-.484.22-1.14.22-.626 0-1.157-.266-.516-.281-.875-.75-.36-.484-.562-1.14-.204-.657-.204-1.407v-.14zm1.204.14q0 .516.109.984.11.454.344.813.234.344.578.547.36.203.875.203.297 0 .547-.063.25-.078.453-.203.203-.14.36-.328.155-.187.265-.422v-3.265q-.235-.422-.64-.703-.391-.282-.985-.282-.5 0-.86.22-.359.202-.593.562-.235.343-.344.812-.11.469-.11.984v.141zm19.652 3.438q-.078-.141-.125-.344-.031-.203-.062-.422-.172.188-.407.344-.218.156-.5.281-.265.125-.578.188-.297.078-.64.078-.563 0-1.016-.157-.453-.156-.766-.437-.312-.281-.484-.656-.172-.391-.172-.829 0-.578.235-1.015.234-.438.656-.719.422-.297 1.015-.437.594-.141 1.329-.141h1.312v-.563q0-.312-.125-.562-.11-.266-.328-.438-.203-.171-.516-.265-.312-.11-.703-.11-.344 0-.64.094-.282.094-.485.25-.187.14-.297.344-.093.203-.093.422h-1.22q.016-.375.204-.75.187-.375.547-.672.36-.297.875-.469.531-.187 1.187-.187.594 0 1.11.156.515.14.89.438.375.296.578.734.22.437.22 1.031v3.281q0 .344.062.75.062.391.187.672v.11h-1.25zm-2.14-.922q.359 0 .656-.078.312-.094.562-.25.25-.157.422-.344.188-.188.297-.39v-1.438h-1.125q-1.047 0-1.64.312-.579.313-.579.985 0 .265.078.484.094.219.266.39.188.157.453.25.266.079.61.079zm11.45-2.703q0 .906-.202 1.609-.203.688-.594 1.172-.39.484-.969.734-.562.235-1.297.235-.718 0-1.297-.235-.562-.25-.968-.734-.39-.484-.61-1.172-.203-.703-.203-1.61v-2.218q0-.906.203-1.594.22-.703.61-1.187.39-.485.953-.735.578-.25 1.312-.25.72 0 1.282.25.578.25.968.735.407.484.61 1.187.203.688.203 1.594v2.219zm-4.921-.235l3.687-2.844q-.109-.937-.562-1.421-.438-.5-1.266-.5-.953 0-1.406.64-.453.64-.453 1.875v2.25zm3.719-1.687l-3.688 2.812q.11.922.563 1.406.453.485 1.265.485.97 0 1.407-.64.453-.657.453-1.891v-2.172zm6.31 5.265q0 .313-.078.641-.078.344-.234.672-.14.328-.344.625-.203.297-.484.531l-.75-.406q.312-.453.437-.969.14-.516.14-1.078v-1.156h1.313v1.14zm17.153-9.562h-1.437v10.89h1.437v.985h-2.578v-12.86h2.578v.985zm9.733 6.219q0 .906-.204 1.609-.203.688-.593 1.172-.39.484-.97.734-.562.235-1.296.235-.719 0-1.297-.235-.562-.25-.969-.734-.39-.484-.609-1.172-.203-.703-.203-1.61v-2.218q0-.906.203-1.594.219-.703.61-1.187.39-.485.953-.735.578-.25 1.312-.25.719 0 1.281.25.578.25.97.735.405.484.608 1.187.204.688.204 1.594v2.219zm-4.922-.235l3.687-2.844q-.11-.937-.562-1.421-.438-.5-1.266-.5-.953 0-1.406.64-.453.64-.453 1.875v2.25zm3.718-1.687l-3.687 2.812q.11.922.562 1.406.454.485 1.266.485.969 0 1.406-.64.453-.657.453-1.891v-2.172zm4.764-5.281h2.578v12.859h-2.578v-.984h1.438V156.48h-1.438v-.984z"/><path fill="#ead1dc" d="M10.054 177.524h120v32h-120z" fill-rule="evenodd"/><path stroke="#000" stroke-linejoin="round" stroke-linecap="butt" d="M10.054 177.524h120v32h-120z"/><path fill="#000" d="M50.325 194.464h-1.89v3.86H47.23v-9.47h2.781q.672 0 1.25.188.594.172 1.032.532.437.343.687.875.25.53.25 1.25 0 .453-.14.843-.125.375-.36.688-.234.312-.562.562-.328.235-.72.407l2.017 4.046v.079h-1.282l-1.86-3.86zm-1.89-1h1.609q.406 0 .765-.125.36-.125.625-.344.282-.234.438-.562.156-.328.156-.75 0-.453-.156-.797-.156-.344-.422-.578-.266-.234-.64-.344-.36-.125-.798-.125h-1.578v3.625zm9.872 4.985q-.75 0-1.375-.25-.609-.25-1.062-.704-.438-.453-.688-1.078-.25-.625-.25-1.375v-.265q0-.86.266-1.531.281-.672.734-1.126.454-.468 1.032-.718.578-.25 1.187-.25.75 0 1.313.265.578.266.953.735.375.453.562 1.094.188.624.188 1.359v.547h-5.031q.03.484.187.906.172.422.453.734.297.313.688.5.406.172.906.172.64 0 1.14-.25.5-.265.829-.687l.734.562q-.172.266-.437.516-.266.25-.61.437-.344.188-.781.297-.438.11-.938.11zm-.156-6.313q-.375 0-.703.14-.312.126-.578.391-.266.25-.453.625-.172.375-.235.86h3.782v-.078q-.016-.36-.14-.704-.11-.343-.33-.609-.218-.281-.562-.453-.328-.172-.78-.172zm7.889-2.562v1.703h2.687v.937H66.04v3.828q0 .407.094.672.11.266.297.438.187.156.421.219.235.062.5.062.204 0 .407-.016l.406-.062q.203-.031.375-.063.172-.047.281-.062l.172.844q-.156.093-.375.171-.203.063-.469.11-.25.047-.53.062-.282.032-.563.032-.47 0-.875-.125-.407-.141-.704-.422-.296-.297-.484-.75-.172-.469-.172-1.11v-3.828h-1.844v-.937h1.844v-1.703h1.219zm9.717 7.78q-.36.516-.89.813-.516.282-1.204.282-.562 0-1.015-.172-.438-.172-.766-.531-.313-.36-.484-.922-.172-.563-.172-1.36v-4.187h1.203v4.203q0 .578.094.953.093.375.265.61.188.218.453.312.266.078.61.078.734 0 1.187-.297.453-.297.672-.797v-5.062h1.203v7.047H75.82l-.062-.97zm8.045-6.202q.172 0 .344.015.187 0 .343.032.172.015.313.046.14.032.234.079l-.172 1.171q-.343-.078-.656-.109-.312-.031-.656-.031-.86 0-1.39.39-.516.375-.766 1.063v4.516h-1.203v-7.047h1.14l.063 1.125q.437-.578 1.031-.906.61-.344 1.375-.344zm4.467.125l.078 1.047q.39-.547.938-.86.562-.312 1.25-.312.562 0 1.015.156.453.156.766.484.328.328.5.844t.172 1.219v4.469h-1.203v-4.438q0-.469-.11-.797-.11-.328-.312-.531-.203-.203-.5-.297-.297-.094-.688-.094-.594 0-1.062.313-.453.297-.72.797v5.047h-1.218v-7.047h1.094z"/><path d="M210.054 165.524h-40v-68h-40"/><path stroke="#666" stroke-width="2" stroke-linejoin="round" stroke-linecap="butt" d="M210.054 165.524h-40v-68h-28"/><path fill="#666" stroke="#666" stroke-width="2" stroke-linecap="butt" d="M142.054 94.22l-9.076 3.304 9.076 3.303z" fill-rule="evenodd"/><path d="M2.054 1.524h136v40h-136z"/><path fill="#000" d="M32.986 28.444V15.178h4.328q2.156 0 3.25.89 1.093.891 1.093 2.641 0 .938-.53 1.656-.532.704-1.438 1.094 1.062.313 1.687 1.156.625.844.625 2 0 1.782-1.156 2.813-1.156 1.016-3.266 1.016h-4.593zm1.734-6.204v4.766h2.89q1.22 0 1.922-.625.72-.64.72-1.75 0-2.39-2.61-2.39H34.72zm0-1.406h2.656q1.14 0 1.828-.562.688-.578.688-1.563 0-1.094-.64-1.594-.641-.5-1.938-.5H34.72v4.22zm12.833 5.14l2.297-7.39h1.797L47.694 29.96q-.922 2.469-2.922 2.469l-.328-.031-.625-.125v-1.36l.453.032q.86 0 1.328-.344.485-.344.797-1.266l.375-1-3.516-9.75H45.1l2.453 7.39zm7.89-9.78v2.39h1.844v1.313h-1.844v6.11q0 .593.234.89.25.297.844.297.297 0 .812-.11v1.36q-.671.187-1.296.187-1.125 0-1.704-.687-.578-.688-.578-1.938v-6.11h-1.797v-1.312h1.797v-2.39h1.688zm7.891 12.437q-2 0-3.266-1.312-1.25-1.329-1.25-3.532v-.312q0-1.469.563-2.61.562-1.156 1.562-1.796 1.016-.657 2.188-.657 1.922 0 2.984 1.266 1.063 1.266 1.063 3.625v.687h-6.672q.031 1.47.844 2.375.828.891 2.078.891.89 0 1.515-.36.625-.374 1.078-.968l1.032.797q-1.235 1.906-3.719 1.906zm-.203-8.844q-1.016 0-1.719.75-.687.735-.844 2.078h4.938v-.125q-.078-1.28-.703-1.984-.61-.719-1.672-.719zm9.962 7.47q.89 0 1.562-.548.688-.547.75-1.375H77q-.047.844-.578 1.61-.531.765-1.438 1.234-.89.453-1.89.453-2.016 0-3.203-1.344-1.188-1.343-1.188-3.687v-.281q0-1.438.516-2.547.531-1.125 1.515-1.735 1-.625 2.344-.625 1.656 0 2.75 1 1.11.985 1.172 2.563h-1.594q-.062-.953-.718-1.563-.657-.625-1.61-.625-1.281 0-2 .922-.703.922-.703 2.672v.328q0 1.703.703 2.625.703.922 2.016.922zm5.359-3.829q0-1.453.562-2.61.579-1.156 1.594-1.78 1.016-.626 2.313-.626 2.015 0 3.25 1.391 1.25 1.39 1.25 3.703v.125q0 1.438-.547 2.578t-1.578 1.781q-1.016.641-2.36.641-2 0-3.25-1.39-1.234-1.407-1.234-3.704v-.109zm1.687.203q0 1.64.766 2.64.766.985 2.031.985 1.297 0 2.047-1 .75-1.016.75-2.828 0-1.625-.765-2.625-.766-1.016-2.047-1.016-1.25 0-2.016 1-.766.985-.766 2.844zm8.984-.203q0-2.266 1.078-3.64 1.078-1.376 2.813-1.376 1.734 0 2.75 1.172v-5.14h1.687v14h-1.547l-.093-1.063q-1 1.25-2.813 1.25-1.703 0-2.797-1.406-1.078-1.406-1.078-3.656v-.141zm1.688.203q0 1.672.687 2.625.703.938 1.922.938 1.61 0 2.344-1.438v-4.531q-.766-1.39-2.328-1.39-1.235 0-1.938.952-.687.953-.687 2.844zm13.334 5q-2 0-3.266-1.312-1.25-1.329-1.25-3.532v-.312q0-1.469.562-2.61.563-1.156 1.563-1.796 1.016-.657 2.187-.657 1.922 0 2.985 1.266 1.062 1.266 1.062 3.625v.687h-6.672q.032 1.47.844 2.375.828.891 2.078.891.89 0 1.516-.36.625-.374 1.078-.968l1.031.797q-1.234 1.906-3.718 1.906zm-.204-8.844q-1.015 0-1.718.75-.688.735-.844 2.078h4.937v-.125q-.078-1.28-.703-1.984-.61-.719-1.672-.719z"/><path d="M218.054 1.524h136v40h-136z"/><path fill="#000" d="M246.17 28.444h-1.75V15.178h1.75v13.266zm4.526-9.86l.047 1.235q1.125-1.407 2.953-1.407 3.125 0 3.157 3.516v6.516h-1.688v-6.516q-.016-1.078-.5-1.578-.469-.516-1.484-.516-.813 0-1.438.438-.61.437-.969 1.156v7.016h-1.672v-9.86h1.594zm10.981-2.39v2.39h1.844v1.313h-1.844v6.11q0 .593.235.89.25.297.844.297.296 0 .812-.11v1.36q-.672.187-1.297.187-1.125 0-1.703-.687-.578-.688-.578-1.938v-6.11h-1.797v-1.312h1.797v-2.39h1.687zm7.892 12.437q-2 0-3.266-1.312-1.25-1.329-1.25-3.532v-.312q0-1.469.562-2.61.563-1.156 1.563-1.796 1.016-.657 2.187-.657 1.922 0 2.985 1.266 1.062 1.266 1.062 3.625v.687h-6.672q.032 1.47.844 2.375.828.891 2.078.891.891 0 1.516-.36.625-.374 1.078-.968l1.031.797q-1.234 1.906-3.718 1.906zm-.204-8.844q-1.015 0-1.718.75-.688.735-.844 2.078h4.937v-.125q-.078-1.28-.703-1.984-.609-.719-1.672-.719zm10.775.313q-.39-.063-.844-.063-1.656 0-2.25 1.407v7h-1.672v-9.86h1.64l.017 1.14q.828-1.312 2.359-1.312.484 0 .75.125V20.1zm9.86 3.53q0 2.25-1.032 3.625-1.015 1.375-2.78 1.375-1.798 0-2.829-1.14v4.75h-1.672V18.583h1.531l.079 1.094q1.03-1.266 2.859-1.266 1.781 0 2.812 1.344Q290 21.084 290 23.475v.156zm-1.672-.203q0-1.656-.719-2.625-.703-.969-1.953-.969-1.531 0-2.297 1.36v4.703q.766 1.36 2.328 1.36 1.203 0 1.922-.954.719-.969.719-2.875zm8.592-3.328q-.391-.063-.844-.063-1.656 0-2.25 1.407v7h-1.672v-9.86h1.64l.016 1.14q.828-1.312 2.36-1.312.484 0 .75.125V20.1zm5.625 8.531q-2 0-3.266-1.312-1.25-1.329-1.25-3.532v-.312q0-1.469.563-2.61.562-1.156 1.562-1.796 1.016-.657 2.188-.657 1.922 0 2.984 1.266 1.063 1.266 1.063 3.625v.687h-6.672q.031 1.47.844 2.375.828.891 2.078.891.89 0 1.515-.36.625-.374 1.078-.968l1.032.797q-1.235 1.906-3.719 1.906zm-.203-8.844q-1.016 0-1.719.75-.687.735-.844 2.078h4.938v-.125q-.078-1.28-.703-1.984-.61-.719-1.672-.719zm8.29-3.593v2.39h1.844v1.313h-1.844v6.11q0 .593.234.89.25.297.844.297.297 0 .813-.11v1.36q-.672.187-1.297.187-1.125 0-1.703-.687-.579-.688-.579-1.938v-6.11h-1.796v-1.312h1.796v-2.39h1.688zm7.891 12.437q-2 0-3.266-1.312-1.25-1.329-1.25-3.532v-.312q0-1.469.563-2.61.562-1.156 1.562-1.796 1.016-.657 2.188-.657 1.922 0 2.984 1.266 1.063 1.266 1.063 3.625v.687h-6.672q.031 1.47.844 2.375.828.891 2.078.891.89 0 1.515-.36.625-.374 1.079-.968l1.03.797q-1.234 1.906-3.718 1.906zm-.203-8.844q-1.016 0-1.719.75-.687.735-.844 2.078h4.938v-.125q-.078-1.28-.703-1.984-.61-.719-1.672-.719zm10.774.313q-.39-.063-.843-.063-1.657 0-2.25 1.407v7h-1.672v-9.86h1.64l.016 1.14q.828-1.312 2.36-1.312.484 0 .75.125V20.1zM272.15 47.834q0-.687-.516-1.062t-1.797-.64q-1.281-.282-2.031-.657-.75-.39-1.11-.922-.359-.531-.359-1.266 0-1.203 1.016-2.03 1.03-.845 2.625-.845 1.671 0 2.718.86t1.047 2.218h-1.687q0-.703-.594-1.203-.594-.5-1.484-.5-.922 0-1.438.407-.516.39-.516 1.046 0 .61.485.922.484.313 1.734.594 1.266.281 2.047.672.781.39 1.156.937.391.547.391 1.344 0 1.328-1.063 2.125-1.046.797-2.734.797-1.187 0-2.11-.422-.906-.422-1.421-1.172-.516-.75-.516-1.625h1.688q.047.844.672 1.344.64.5 1.687.5.953 0 1.531-.39.578-.391.578-1.032zm6.166-9.64v2.39h1.844v1.313h-1.844v6.11q0 .593.234.89.25.297.844.297.297 0 .813-.11v1.36q-.672.187-1.297.187-1.125 0-1.703-.687-.579-.688-.579-1.938v-6.11h-1.796v-1.312h1.796v-2.39h1.688zm9.891 12.25q-.14-.297-.234-1.032-1.172 1.22-2.813 1.22-1.453 0-2.39-.829-.922-.828-.922-2.094 0-1.531 1.156-2.375 1.172-.86 3.297-.86h1.64v-.78q0-.891-.53-1.407-.516-.53-1.548-.53-.906 0-1.515.468-.61.453-.61 1.094h-1.703q0-.735.516-1.422.531-.688 1.422-1.078.906-.407 1.984-.407 1.703 0 2.672.86.969.843 1 2.328v4.531q0 1.36.344 2.172v.14h-1.766zm-2.797-1.282q.797 0 1.5-.406.719-.422 1.031-1.078v-2.016h-1.312q-3.11 0-3.11 1.813 0 .797.532 1.25.531.437 1.36.437zm9.148-10.968v2.39h1.844v1.313h-1.844v6.11q0 .593.235.89.25.297.843.297.297 0 .813-.11v1.36q-.672.187-1.297.187-1.125 0-1.703-.687-.578-.688-.578-1.938v-6.11h-1.797v-1.312h1.797v-2.39h1.687zm7.891 12.437q-2 0-3.265-1.312-1.25-1.329-1.25-3.532v-.312q0-1.469.562-2.61.563-1.156 1.563-1.796 1.015-.657 2.187-.657 1.922 0 2.985 1.266 1.062 1.266 1.062 3.625v.687h-6.672q.031 1.47.844 2.375.828.891 2.078.891.89 0 1.516-.36.625-.374 1.078-.968l1.031.797q-1.234 1.906-3.719 1.906zm-.203-8.844q-1.015 0-1.719.75-.687.735-.843 2.078h4.937v-.125q-.078-1.28-.703-1.984-.61-.719-1.672-.719z"/></g></svg>