<svg version="1.1" viewBox="0.0 0.0 941.4356955380578 510.83727034120733" fill="none" stroke="none" stroke-linecap="square" stroke-miterlimit="10" xmlns:xlink="http://www.w3.org/1999/xlink" xmlns="http://www.w3.org/2000/svg"><clipPath id="p.0"><path d="m0 0l941.43567 0l0 510.83728l-941.43567 0l0 -510.83728z" clip-rule="nonzero"/></clipPath><g clip-path="url(#p.0)"><path fill="#000000" fill-opacity="0.0" d="m0 0l941.43567 0l0 510.83728l-941.43567 0z" fill-rule="evenodd"/><path fill="#cfe2f3" d="m333.2548 11.418635l151.92548 0l0 0c19.90268 0 36.036957 7.162879 36.036957 15.99874c0 8.835859 -16.134277 15.998739 -36.036957 15.998739l-151.92548 0l0 0c-19.902649 0 -36.036957 -7.16288 -36.036957 -15.998739c0 -8.835861 16.134308 -15.99874 36.036957 -15.99874z" fill-rule="evenodd"/><path stroke="#000000" stroke-width="1.0" stroke-linejoin="round" stroke-linecap="butt" d="m333.2548 11.418635l151.92548 0l0 0c19.90268 0 36.036957 7.162879 36.036957 15.99874c0 8.835859 -16.134277 15.998739 -36.036957 15.998739l-151.92548 0l0 0c-19.902649 0 -36.036957 -7.16288 -36.036957 -15.998739c0 -8.835861 16.134308 -15.99874 36.036957 -15.99874z" fill-rule="evenodd"/><path fill="#000000" d="m396.717 34.33737l-1.703125 0l-5.15625 -9.906248l-0.03125 9.906248l-1.703125 0l0 -13.265623l1.71875 0l5.140625 9.890625l0.03125 -9.890625l1.703125 0l0 13.265623zm2.4143372 -5.015623q0 -1.0625 0.3125 -1.984375q0.3125 -0.921875 0.890625 -1.59375q0.578125 -0.671875 1.40625 -1.046875q0.828125 -0.390625 1.859375 -0.390625q1.046875 0 1.875 0.390625q0.84375 0.375 1.421875 1.046875q0.578125 0.671875 0.890625 1.59375q0.3125 0.921875 0.3125 1.984375l0 0.203125q0 1.0625 -0.3125 1.96875q-0.3125 0.9062481 -0.890625 1.5937481q-0.578125 0.671875 -1.40625 1.0625q-0.828125 0.375 -1.859375 0.375q-1.046875 0 -1.890625 -0.375q-0.828125 -0.390625 -1.40625 -1.0625q-0.578125 -0.6875 -0.890625 -1.5937481q-0.3125 -0.90625 -0.3125 -1.96875l0 -0.203125zm1.6875 0.203125q0 0.71875 0.171875 1.390625q0.171875 0.65625 0.515625 1.1562481q0.359375 0.5 0.890625 0.796875q0.53125 0.28125 1.234375 0.28125q0.6875 0 1.203125 -0.28125q0.53125 -0.296875 0.875 -0.796875q0.359375 -0.4999981 0.53125 -1.1562481q0.171875 -0.671875 0.171875 -1.390625l0 -0.203125q0 -0.71875 -0.1875 -1.375q-0.171875 -0.671875 -0.53125 -1.171875q-0.34375 -0.5 -0.875 -0.796875q-0.515625 -0.296875 -1.21875 -0.296875q-0.703125 0 -1.21875 0.296875q-0.515625 0.296875 -0.875 0.796875q-0.34375 0.5 -0.515625 1.171875q-0.171875 0.65625 -0.171875 1.375l0 0.203125zm11.492432 -5.046875l0.125 1.453125q0.53125 -0.765625 1.3125 -1.1875q0.78125 -0.4375 1.75 -0.4375q0.78125 0 1.40625 0.21875q0.640625 0.21875 1.078125 0.6875q0.453125 0.453125 0.6875 1.171875q0.25 0.71875 0.25 1.6875l0 6.265623l-1.6875 0l0 -6.218748q0 -0.65625 -0.15625 -1.109375q-0.140625 -0.453125 -0.421875 -0.734375q-0.28125 -0.296875 -0.703125 -0.421875q-0.40625 -0.125 -0.953125 -0.125q-0.84375 0 -1.484375 0.421875q-0.640625 0.421875 -1.03125 1.125l0 7.062498l-1.6875 0l0 -9.859373l1.515625 0zm14.039337 10.046873q-1.03125 0 -1.90625 -0.359375q-0.875 -0.359375 -1.5 -0.984375q-0.609375 -0.640625 -0.953125 -1.5156231q-0.34375 -0.875 -0.34375 -1.90625l0 -0.390625q0 -1.1875 0.375 -2.125q0.390625 -0.953125 1.015625 -1.59375q0.640625 -0.65625 1.4375 -1.0q0.8125 -0.34375 1.65625 -0.34375q1.0625 0 1.859375 0.375q0.796875 0.359375 1.328125 1.015625q0.53125 0.640625 0.78125 1.53125q0.265625 0.875 0.265625 1.90625l0 0.75l-7.03125 0q0.015625 0.6875 0.25 1.28125q0.234375 0.578125 0.640625 1.0312481q0.40625 0.4375 0.96875 0.703125q0.5625 0.25 1.25 0.25q0.90625 0 1.59375 -0.359375q0.703125 -0.375 1.171875 -0.9687481l1.03125 0.7968731q-0.25 0.375 -0.625 0.71875q-0.359375 0.328125 -0.84375 0.59375q-0.484375 0.265625 -1.09375 0.421875q-0.609375 0.171875 -1.328125 0.171875zm-0.21875 -8.843748q-0.515625 0 -0.96875 0.1875q-0.453125 0.1875 -0.8125 0.546875q-0.359375 0.359375 -0.625 0.890625q-0.25 0.515625 -0.34375 1.203125l5.296875 0l0 -0.125q-0.015625 -0.5 -0.1875 -0.984375q-0.15625 -0.484375 -0.46875 -0.859375q-0.296875 -0.390625 -0.765625 -0.625q-0.46875 -0.234375 -1.125 -0.234375z" fill-rule="nonzero"/><path fill="#d0e0e3" d="m197.25542 135.41722l151.92549 0l0 0c19.902649 0 36.036926 7.1628723 36.036926 15.9987335c0 8.835861 -16.134277 15.998749 -36.036926 15.998749l-151.92549 0l0 0c-19.902649 0 -36.03694 -7.1628876 -36.03694 -15.998749c0 -8.835861 16.134293 -15.9987335 36.03694 -15.9987335z" fill-rule="evenodd"/><path stroke="#000000" stroke-width="1.0" stroke-linejoin="round" stroke-linecap="butt" d="m197.25542 135.41722l151.92549 0l0 0c19.902649 0 36.036926 7.1628723 36.036926 15.9987335c0 8.835861 -16.134277 15.998749 -36.036926 15.998749l-151.92549 0l0 0c-19.902649 0 -36.03694 -7.1628876 -36.03694 -15.998749c0 -8.835861 16.134293 -15.9987335 36.03694 -15.9987335z" fill-rule="evenodd"/><path fill="#000000" d="m220.17377 154.97658q0 -0.609375 -0.28125 -1.015625q-0.28125 -0.421875 -0.71875 -0.703125q-0.4375 -0.296875 -0.96875 -0.484375q-0.515625 -0.1875 -1.0 -0.34375q-0.703125 -0.234375 -1.421875 -0.546875q-0.71875 -0.328125 -1.328125 -0.78125q-0.59375 -0.46875 -0.96875 -1.09375q-0.375 -0.640625 -0.375 -1.5q0 -0.859375 0.375 -1.53125q0.375 -0.671875 0.984375 -1.140625q0.609375 -0.46875 1.375 -0.703125q0.78125 -0.25 1.578125 -0.25q0.859375 0 1.65625 0.296875q0.8125 0.28125 1.421875 0.8125q0.625 0.515625 1.0 1.25q0.375 0.734375 0.390625 1.640625l-1.734375 0q-0.078125 -0.5625 -0.28125 -1.03125q-0.203125 -0.46875 -0.5625 -0.8125q-0.34375 -0.34375 -0.828125 -0.515625q-0.46875 -0.1875 -1.0625 -0.1875q-0.484375 0 -0.953125 0.140625q-0.453125 0.125 -0.8125 0.40625q-0.359375 0.265625 -0.578125 0.671875q-0.21875 0.390625 -0.21875 0.921875q0.015625 0.578125 0.296875 0.984375q0.28125 0.390625 0.71875 0.671875q0.4375 0.265625 0.9375 0.453125q0.5 0.171875 0.953125 0.3125q0.484375 0.15625 0.984375 0.359375q0.5 0.1875 0.96875 0.4375q0.46875 0.25 0.859375 0.578125q0.40625 0.3125 0.703125 0.71875q0.3125 0.40625 0.46875 0.890625q0.171875 0.484375 0.171875 1.078125q0 0.890625 -0.40625 1.5625q-0.390625 0.671875 -1.015625 1.109375q-0.625 0.4375 -1.421875 0.671875q-0.78125 0.21875 -1.578125 0.21875q-0.890625 0 -1.734375 -0.265625q-0.84375 -0.28125 -1.515625 -0.796875q-0.671875 -0.515625 -1.09375 -1.25q-0.40625 -0.75 -0.4375 -1.703125l1.71875 0q0.078125 0.625 0.328125 1.109375q0.265625 0.46875 0.65625 0.8125q0.40625 0.328125 0.921875 0.5q0.53125 0.15625 1.15625 0.15625q0.484375 0 0.96875 -0.125q0.484375 -0.125 0.84375 -0.375q0.375 -0.265625 0.609375 -0.65625q0.25 -0.40625 0.25 -0.953125zm4.508072 -6.5l5.046875 0l0 8.40625l3.21875 0l0 1.453125l-8.265625 0l0 -1.453125l3.359375 0l0 -6.9375l-3.359375 0l0 -1.46875zm3.140625 -2.578125q0 -0.421875 0.25 -0.703125q0.25 -0.296875 0.765625 -0.296875q0.5 0 0.75 0.296875q0.25 0.28125 0.25 0.703125q0 0.40625 -0.25 0.6875q-0.25 0.265625 -0.75 0.265625q-0.515625 0 -0.765625 -0.265625q-0.25 -0.28125 -0.25 -0.6875zm7.492447 7.421875q0 -1.09375 0.265625 -2.015625q0.265625 -0.9375 0.765625 -1.59375q0.515625 -0.671875 1.25 -1.03125q0.734375 -0.375 1.640625 -0.375q0.921875 0 1.609375 0.328125q0.6875 0.3125 1.171875 0.921875l0.078125 -1.078125l1.53125 0l0 9.65625q0 0.96875 -0.3125 1.71875q-0.296875 0.765625 -0.859375 1.28125q-0.546875 0.53125 -1.3125 0.796875q-0.765625 0.28125 -1.6875 0.28125q-0.390625 0 -0.890625 -0.09375q-0.484375 -0.078125 -0.984375 -0.28125q-0.5 -0.1875 -0.96875 -0.515625q-0.46875 -0.328125 -0.8125 -0.8125l0.875 -1.0q0.3125 0.375 0.640625 0.625q0.328125 0.265625 0.65625 0.421875q0.34375 0.15625 0.671875 0.21875q0.34375 0.0625 0.6875 0.0625q0.59375 0 1.078125 -0.171875q0.484375 -0.171875 0.828125 -0.5q0.34375 -0.328125 0.515625 -0.828125q0.1875 -0.484375 0.1875 -1.125l0 -0.84375q-0.484375 0.5625 -1.15625 0.859375q-0.671875 0.296875 -1.5625 0.296875q-0.890625 0 -1.625 -0.375q-0.734375 -0.390625 -1.234375 -1.0625q-0.5 -0.6875 -0.78125 -1.59375q-0.265625 -0.921875 -0.265625 -1.96875l0 -0.203125zm1.671875 0.203125q0 0.71875 0.15625 1.359375q0.15625 0.640625 0.46875 1.140625q0.328125 0.484375 0.828125 0.78125q0.5 0.28125 1.203125 0.28125q0.4375 0 0.78125 -0.09375q0.359375 -0.109375 0.640625 -0.296875q0.28125 -0.203125 0.5 -0.46875q0.21875 -0.265625 0.375 -0.578125l0 -4.515625q-0.15625 -0.3125 -0.375 -0.5625q-0.21875 -0.265625 -0.515625 -0.453125q-0.28125 -0.1875 -0.625 -0.28125q-0.34375 -0.109375 -0.765625 -0.109375q-0.703125 0 -1.21875 0.296875q-0.5 0.28125 -0.828125 0.78125q-0.3125 0.5 -0.46875 1.15625q-0.15625 0.640625 -0.15625 1.359375l0 0.203125zm11.336197 -5.046875l0.125 1.453125q0.53125 -0.765625 1.3125 -1.1875q0.78125 -0.4375 1.75 -0.4375q0.78125 0 1.40625 0.21875q0.640625 0.21875 1.078125 0.6875q0.453125 0.453125 0.6875 1.171875q0.25 0.71875 0.25 1.6875l0 6.265625l-1.6875 0l0 -6.21875q0 -0.65625 -0.15625 -1.109375q-0.140625 -0.453125 -0.421875 -0.734375q-0.28125 -0.296875 -0.703125 -0.421875q-0.40625 -0.125 -0.953125 -0.125q-0.84375 0 -1.484375 0.421875q-0.640625 0.421875 -1.03125 1.125l0 7.0625l-1.6875 0l0 -9.859375l1.515625 0zm14.039322 10.046875q-1.03125 0 -1.90625 -0.359375q-0.875 -0.359375 -1.5 -0.984375q-0.609375 -0.640625 -0.953125 -1.515625q-0.34375 -0.875 -0.34375 -1.90625l0 -0.390625q0 -1.1875 0.375 -2.125q0.390625 -0.953125 1.015625 -1.59375q0.640625 -0.65625 1.4375 -1.0q0.8125 -0.34375 1.65625 -0.34375q1.0625 0 1.859375 0.375q0.796875 0.359375 1.328125 1.015625q0.53125 0.640625 0.78125 1.53125q0.265625 0.875 0.265625 1.90625l0 0.75l-7.03125 0q0.015625 0.6875 0.25 1.28125q0.234375 0.578125 0.640625 1.03125q0.40625 0.4375 0.96875 0.703125q0.5625 0.25 1.25 0.25q0.90625 0 1.59375 -0.359375q0.703125 -0.375 1.171875 -0.96875l1.03125 0.796875q-0.25 0.375 -0.625 0.71875q-0.359375 0.328125 -0.84375 0.59375q-0.484375 0.265625 -1.09375 0.421875q-0.609375 0.171875 -1.328125 0.171875zm-0.21875 -8.84375q-0.515625 0 -0.96875 0.1875q-0.453125 0.1875 -0.8125 0.546875q-0.359375 0.359375 -0.625 0.890625q-0.25 0.515625 -0.34375 1.203125l5.296875 0l0 -0.125q-0.015625 -0.5 -0.1875 -0.984375q-0.15625 -0.484375 -0.46875 -0.859375q-0.296875 -0.390625 -0.765625 -0.625q-0.46875 -0.234375 -1.125 -0.234375zm6.742462 3.640625q0 -1.09375 0.28125 -2.015625q0.28125 -0.9375 0.78125 -1.59375q0.515625 -0.671875 1.25 -1.03125q0.734375 -0.375 1.625 -0.375q0.890625 0 1.546875 0.296875q0.671875 0.28125 1.140625 0.859375l0 -5.125l1.6875 0l0 14.0l-1.546875 0l-0.0625 -1.03125q-0.5 0.59375 -1.1875 0.90625q-0.671875 0.3125 -1.59375 0.3125q-0.890625 0 -1.625 -0.375q-0.71875 -0.390625 -1.234375 -1.0625q-0.5 -0.6875 -0.78125 -1.59375q-0.28125 -0.921875 -0.28125 -1.96875l0 -0.203125zm1.6875 0.203125q0 0.71875 0.15625 1.359375q0.15625 0.640625 0.46875 1.140625q0.328125 0.484375 0.828125 0.78125q0.5 0.28125 1.203125 0.28125q0.4375 0 0.78125 -0.09375q0.34375 -0.109375 0.625 -0.296875q0.28125 -0.1875 0.5 -0.4375q0.21875 -0.265625 0.375 -0.578125l0 -4.578125q-0.328125 -0.59375 -0.890625 -0.984375q-0.546875 -0.390625 -1.375 -0.390625q-0.703125 0 -1.21875 0.296875q-0.5 0.28125 -0.828125 0.78125q-0.3125 0.5 -0.46875 1.15625q-0.15625 0.640625 -0.15625 1.359375l0 0.203125zm16.773682 1.453125q0 -0.609375 -0.28125 -1.015625q-0.28125 -0.421875 -0.71875 -0.703125q-0.4375 -0.296875 -0.96875 -0.484375q-0.515625 -0.1875 -1.0 -0.34375q-0.703125 -0.234375 -1.421875 -0.546875q-0.71875 -0.328125 -1.328125 -0.78125q-0.59375 -0.46875 -0.96875 -1.09375q-0.375 -0.640625 -0.375 -1.5q0 -0.859375 0.375 -1.53125q0.375 -0.671875 0.984375 -1.140625q0.609375 -0.46875 1.375 -0.703125q0.78125 -0.25 1.578125 -0.25q0.859375 0 1.65625 0.296875q0.8125 0.28125 1.421875 0.8125q0.625 0.515625 1.0 1.25q0.375 0.734375 0.390625 1.640625l-1.734375 0q-0.078125 -0.5625 -0.28125 -1.03125q-0.203125 -0.46875 -0.5625 -0.8125q-0.34375 -0.34375 -0.828125 -0.515625q-0.46875 -0.1875 -1.0625 -0.1875q-0.484375 0 -0.953125 0.140625q-0.453125 0.125 -0.8125 0.40625q-0.359375 0.265625 -0.578125 0.671875q-0.21875 0.390625 -0.21875 0.921875q0.015625 0.578125 0.296875 0.984375q0.28125 0.390625 0.71875 0.671875q0.4375 0.265625 0.9375 0.453125q0.5 0.171875 0.953125 0.3125q0.484375 0.15625 0.984375 0.359375q0.5 0.1875 0.96875 0.4375q0.46875 0.25 0.859375 0.578125q0.40625 0.3125 0.703125 0.71875q0.3125 0.40625 0.46875 0.890625q0.171875 0.484375 0.171875 1.078125q0 0.890625 -0.40625 1.5625q-0.390625 0.671875 -1.015625 1.109375q-0.625 0.4375 -1.421875 0.671875q-0.78125 0.21875 -1.578125 0.21875q-0.890625 0 -1.734375 -0.265625q-0.84375 -0.28125 -1.515625 -0.796875q-0.671875 -0.515625 -1.09375 -1.25q-0.40625 -0.75 -0.4375 -1.703125l1.71875 0q0.078125 0.625 0.328125 1.109375q0.265625 0.46875 0.65625 0.8125q0.40625 0.328125 0.921875 0.5q0.53125 0.15625 1.15625 0.15625q0.484375 0 0.96875 -0.125q0.484375 -0.125 0.84375 -0.375q0.375 -0.265625 0.609375 -0.65625q0.25 -0.40625 0.25 -0.953125zm5.023712 -6.5l0.046875 0.9375q0.296875 -0.53125 0.78125 -0.8125q0.5 -0.296875 1.1875 -0.296875q1.359375 0 1.8125 1.046875q0.296875 -0.46875 0.765625 -0.75q0.484375 -0.296875 1.15625 -0.296875q1.09375 0 1.671875 0.671875q0.578125 0.65625 0.578125 2.0l0 7.359375l-1.59375 0l0 -7.375q0 -1.25 -1.140625 -1.234375q-0.296875 0 -0.515625 0.09375q-0.21875 0.078125 -0.375 0.21875q-0.140625 0.140625 -0.21875 0.328125q-0.078125 0.1875 -0.109375 0.375l0 7.59375l-1.609375 0l0 -7.390625q0 -0.59375 -0.265625 -0.90625q-0.265625 -0.328125 -0.828125 -0.3125q-0.53125 0 -0.828125 0.21875q-0.28125 0.203125 -0.421875 0.546875l0 7.84375l-1.609375 0l0 -9.859375l1.515625 0zm16.898682 9.859375q-0.09375 -0.1875 -0.15625 -0.46875q-0.0625 -0.296875 -0.09375 -0.609375q-0.25 0.265625 -0.5625 0.5q-0.3125 0.21875 -0.703125 0.390625q-0.375 0.171875 -0.8125 0.265625q-0.421875 0.109375 -0.890625 0.109375q-0.796875 0 -1.4375 -0.21875q-0.625 -0.234375 -1.0625 -0.625q-0.4375 -0.390625 -0.6875 -0.921875q-0.234375 -0.53125 -0.234375 -1.15625q0 -0.8125 0.3125 -1.421875q0.328125 -0.609375 0.921875 -1.015625q0.59375 -0.40625 1.421875 -0.59375q0.84375 -0.203125 1.875 -0.203125l1.828125 0l0 -0.78125q0 -0.453125 -0.171875 -0.796875q-0.15625 -0.359375 -0.453125 -0.609375q-0.296875 -0.25 -0.734375 -0.390625q-0.421875 -0.140625 -0.96875 -0.140625q-0.5 0 -0.90625 0.140625q-0.390625 0.125 -0.671875 0.34375q-0.265625 0.203125 -0.421875 0.484375q-0.140625 0.28125 -0.140625 0.59375l-1.6875 0q0 -0.53125 0.265625 -1.046875q0.28125 -0.53125 0.78125 -0.9375q0.5 -0.421875 1.21875 -0.671875q0.734375 -0.25 1.65625 -0.25q0.84375 0 1.5625 0.203125q0.71875 0.203125 1.234375 0.625q0.53125 0.40625 0.828125 1.03125q0.296875 0.609375 0.296875 1.4375l0 4.578125q0 0.5 0.09375 1.046875q0.09375 0.546875 0.25 0.96875l0 0.140625l-1.75 0zm-2.984375 -1.28125q0.5 0 0.921875 -0.125q0.4375 -0.140625 0.78125 -0.34375q0.34375 -0.203125 0.59375 -0.46875q0.265625 -0.28125 0.40625 -0.5625l0 -2.0l-1.5625 0q-1.46875 0 -2.296875 0.4375q-0.8125 0.4375 -0.8125 1.375q0 0.359375 0.125 0.671875q0.125 0.3125 0.359375 0.53125q0.25 0.21875 0.625 0.359375q0.375 0.125 0.859375 0.125zm7.961212 -12.71875l5.046875 0l0 12.546875l3.21875 0l0 1.453125l-8.265625 0l0 -1.453125l3.359375 0l0 -11.078125l-3.359375 0l0 -1.46875zm11.195557 0l5.046875 0l0 12.546875l3.21875 0l0 1.453125l-8.265625 0l0 -1.453125l3.359375 0l0 -11.078125l-3.359375 0l0 -1.46875z" fill-rule="nonzero"/><path fill="#f4cccc" d="m557.25543 467.42114l151.92548 0l0 0c19.902649 0 36.036926 7.162903 36.036926 15.998749c0 8.835876 -16.134277 15.998749 -36.036926 15.998749l-151.92548 0l0 0c-19.902649 0 -36.036926 -7.1628723 -36.036926 -15.998749c0 -8.835846 16.134277 -15.998749 36.036926 -15.998749z" fill-rule="evenodd"/><path stroke="#000000" stroke-width="1.0" stroke-linejoin="round" stroke-linecap="butt" d="m557.25543 467.42114l151.92548 0l0 0c19.902649 0 36.036926 7.162903 36.036926 15.998749c0 8.835876 -16.134277 15.998749 -36.036926 15.998749l-151.92548 0l0 0c-19.902649 0 -36.036926 -7.1628723 -36.036926 -15.998749c0 -8.835846 16.134277 -15.998749 36.036926 -15.998749z" fill-rule="evenodd"/><path fill="#000000" d="m624.3467 486.9024l-4.4375 0l-1.0625 3.4375l-1.6875 0l4.28125 -13.265625l1.421875 0l4.203125 13.265625l-1.671875 0l-1.046875 -3.4375zm-3.984375 -1.46875l3.53125 0l-1.75 -5.75l-1.78125 5.75zm10.351807 -4.953125l0.125 1.453125q0.53125 -0.765625 1.3125 -1.1875q0.78125 -0.4375 1.75 -0.4375q0.78125 0 1.40625 0.21875q0.640625 0.21875 1.078125 0.6875q0.453125 0.453125 0.6875 1.171875q0.25 0.71875 0.25 1.6875l0 6.265625l-1.6875 0l0 -6.21875q0 -0.65625 -0.15625 -1.109375q-0.140625 -0.453125 -0.421875 -0.734375q-0.28125 -0.296875 -0.703125 -0.421875q-0.40625 -0.125 -0.953125 -0.125q-0.84375 0 -1.484375 0.421875q-0.640625 0.421875 -1.03125 1.125l0 7.0625l-1.6875 0l0 -9.859375l1.515625 0zm13.304993 6.359375l0.4375 1.1875l3.015625 -7.546875l1.890625 0l-5.015625 11.375q-0.171875 0.390625 -0.4375 0.8125q-0.265625 0.4375 -0.65625 0.796875q-0.375 0.359375 -0.890625 0.609375q-0.5 0.25 -1.171875 0.25q-0.109375 0 -0.265625 -0.015625q-0.140625 -0.015625 -0.296875 -0.046875q-0.140625 -0.015625 -0.265625 -0.046875q-0.125 -0.015625 -0.203125 -0.046875l0.265625 -1.375q0.0625 0 0.171875 0.015625q0.109375 0.015625 0.21875 0.015625q0.125 0.015625 0.234375 0.015625q0.109375 0 0.171875 0q0.359375 0 0.640625 -0.1875q0.28125 -0.1875 0.5 -0.453125q0.234375 -0.265625 0.390625 -0.546875q0.15625 -0.28125 0.25 -0.46875l0.671875 -1.3125l-4.234375 -9.390625l1.875 0l2.703125 6.359375z" fill-rule="nonzero"/><path fill="#d0e0e3" d="m40.254784 227.41853l151.9255 0l0 0c19.902649 0 36.03694 7.1628723 36.03694 15.9987335c0 8.835861 -16.134293 15.998749 -36.03694 15.998749l-151.9255 0l0 0c-19.90265 0 -36.036934 -7.1628876 -36.036934 -15.998749c0 -8.835861 16.134285 -15.9987335 36.036934 -15.9987335z" fill-rule="evenodd"/><path stroke="#000000" stroke-width="1.0" stroke-linejoin="round" stroke-linecap="butt" d="m40.254784 227.41853l151.9255 0l0 0c19.902649 0 36.03694 7.1628723 36.03694 15.9987335c0 8.835861 -16.134293 15.998749 -36.03694 15.998749l-151.9255 0l0 0c-19.90265 0 -36.036934 -7.1628876 -36.036934 -15.998749c0 -8.835861 16.134285 -15.9987335 36.036934 -15.9987335z" fill-rule="evenodd"/><path fill="#000000" d="m92.52145 250.33727l-1.703125 0l-5.15625 -9.90625l-0.03125 9.90625l-1.703125 0l0 -13.265625l1.71875 0l5.140625 9.890625l0.03125 -9.890625l1.703125 0l0 13.265625zm9.289322 -1.359375q-0.5 0.734375 -1.234375 1.140625q-0.734375 0.40625 -1.703125 0.40625q-0.78125 0 -1.40625 -0.234375q-0.625 -0.25 -1.078125 -0.765625q-0.4375 -0.515625 -0.6875 -1.296875q-0.234375 -0.78125 -0.234375 -1.890625l0 -5.859375l1.6875 0l0 5.875q0 0.8125 0.125 1.34375q0.125 0.515625 0.375 0.828125q0.265625 0.3125 0.625 0.453125q0.375 0.125 0.859375 0.125q1.03125 0 1.65625 -0.421875q0.640625 -0.421875 0.953125 -1.125l0 -7.078125l1.6875 0l0 9.859375l-1.53125 0l-0.09375 -1.359375zm5.570572 -8.5l0.046875 0.9375q0.296875 -0.53125 0.78125 -0.8125q0.5 -0.296875 1.1875 -0.296875q1.359375 0 1.8125 1.046875q0.296875 -0.46875 0.765625 -0.75q0.484375 -0.296875 1.15625 -0.296875q1.09375 0 1.671875 0.671875q0.578125 0.65625 0.578125 2.0l0 7.359375l-1.59375 0l0 -7.375q0 -1.25 -1.140625 -1.234375q-0.296875 0 -0.515625 0.09375q-0.21875 0.078125 -0.375 0.21875q-0.140625 0.140625 -0.21875 0.328125q-0.078125 0.1875 -0.109375 0.375l0 7.59375l-1.609375 0l0 -7.390625q0 -0.59375 -0.265625 -0.90625q-0.265625 -0.328125 -0.828125 -0.3125q-0.53125 0 -0.828125 0.21875q-0.28125 0.203125 -0.421875 0.546875l0 7.84375l-1.609375 0l0 -9.859375l1.515625 0zm18.773697 5.046875q0 1.046875 -0.265625 1.96875q-0.25 0.90625 -0.75 1.59375q-0.484375 0.671875 -1.203125 1.0625q-0.71875 0.375 -1.65625 0.375q-0.953125 0 -1.65625 -0.328125q-0.6875 -0.34375 -1.1875 -0.984375l-0.078125 1.125l-1.546875 0l0 -14.0l1.6875 0l0 5.203125q0.484375 -0.609375 1.15625 -0.921875q0.6875 -0.3125 1.609375 -0.3125q0.9375 0 1.65625 0.375q0.734375 0.359375 1.21875 1.03125q0.5 0.65625 0.75 1.59375q0.265625 0.921875 0.265625 2.015625l0 0.203125zm-1.6875 -0.203125q0 -0.71875 -0.140625 -1.359375q-0.140625 -0.65625 -0.453125 -1.15625q-0.3125 -0.5 -0.8125 -0.78125q-0.5 -0.296875 -1.21875 -0.296875q-0.4375 0 -0.8125 0.125q-0.359375 0.109375 -0.65625 0.3125q-0.28125 0.203125 -0.5 0.484375q-0.21875 0.265625 -0.375 0.59375l0 4.3125q0.15625 0.328125 0.375 0.609375q0.234375 0.28125 0.515625 0.5q0.296875 0.203125 0.65625 0.3125q0.375 0.109375 0.8125 0.109375q0.6875 0 1.1875 -0.28125q0.5 -0.296875 0.8125 -0.78125q0.3125 -0.5 0.453125 -1.140625q0.15625 -0.640625 0.15625 -1.359375l0 -0.203125zm8.883064 5.203125q-1.03125 0 -1.90625 -0.359375q-0.875 -0.359375 -1.5 -0.984375q-0.609375 -0.640625 -0.953125 -1.515625q-0.34375 -0.875 -0.34375 -1.90625l0 -0.390625q0 -1.1875 0.375 -2.125q0.390625 -0.953125 1.015625 -1.59375q0.640625 -0.65625 1.4375 -1.0q0.8125 -0.34375 1.65625 -0.34375q1.0625 0 1.859375 0.375q0.796875 0.359375 1.328125 1.015625q0.53125 0.640625 0.78125 1.53125q0.265625 0.875 0.265625 1.90625l0 0.75l-7.03125 0q0.015625 0.6875 0.25 1.28125q0.234375 0.578125 0.640625 1.03125q0.40625 0.4375 0.96875 0.703125q0.5625 0.25 1.25 0.25q0.90625 0 1.59375 -0.359375q0.703125 -0.375 1.171875 -0.96875l1.03125 0.796875q-0.25 0.375 -0.625 0.71875q-0.359375 0.328125 -0.84375 0.59375q-0.484375 0.265625 -1.09375 0.421875q-0.609375 0.171875 -1.328125 0.171875zm-0.21875 -8.84375q-0.515625 0 -0.96875 0.1875q-0.453125 0.1875 -0.8125 0.546875q-0.359375 0.359375 -0.625 0.890625q-0.25 0.515625 -0.34375 1.203125l5.296875 0l0 -0.125q-0.015625 -0.5 -0.1875 -0.984375q-0.15625 -0.484375 -0.46875 -0.859375q-0.296875 -0.390625 -0.765625 -0.625q-0.46875 -0.234375 -1.125 -0.234375zm13.523712 -1.375q0.234375 0 0.484375 0.015625q0.265625 0 0.484375 0.03125q0.234375 0.03125 0.421875 0.078125q0.203125 0.046875 0.34375 0.109375l-0.234375 1.640625q-0.484375 -0.109375 -0.9375 -0.15625q-0.4375 -0.046875 -0.921875 -0.046875q-1.1875 0 -1.921875 0.546875q-0.734375 0.53125 -1.078125 1.484375l0 6.328125l-1.6875153 0l0 -9.859375l1.5937653 0l0.09375 1.5625q0.59375 -0.796875 1.4375 -1.265625q0.84375 -0.46875 1.921875 -0.46875z" fill-rule="nonzero"/><path fill="#d0e0e3" d="m493.2554 163.42116l151.9255 0l0 0c19.902649 0 36.036926 7.1628723 36.036926 15.9987335c0 8.835861 -16.134277 15.998749 -36.036926 15.998749l-151.9255 0l0 0c-19.902649 0 -36.036926 -7.1628876 -36.036926 -15.998749c0 -8.835861 16.134277 -15.9987335 36.036926 -15.9987335z" fill-rule="evenodd"/><path stroke="#000000" stroke-width="1.0" stroke-linejoin="round" stroke-linecap="butt" d="m493.2554 163.42116l151.9255 0l0 0c19.902649 0 36.036926 7.1628723 36.036926 15.9987335c0 8.835861 -16.134277 15.998749 -36.036926 15.998749l-151.9255 0l0 0c-19.902649 0 -36.036926 -7.1628876 -36.036926 -15.998749c0 -8.835861 16.134277 -15.9987335 36.036926 -15.9987335z" fill-rule="evenodd"/><path fill="#000000" d="m544.1627 182.98051q0 -0.609375 -0.28125 -1.015625q-0.28125 -0.421875 -0.71875 -0.703125q-0.4375 -0.296875 -0.96875 -0.484375q-0.515625 -0.1875 -1.0 -0.34375q-0.703125 -0.234375 -1.421875 -0.546875q-0.71875 -0.328125 -1.328125 -0.78125q-0.59375 -0.46875 -0.96875 -1.09375q-0.375 -0.640625 -0.375 -1.5q0 -0.859375 0.375 -1.53125q0.375 -0.671875 0.984375 -1.140625q0.609375 -0.46875 1.375 -0.703125q0.78125 -0.25 1.578125 -0.25q0.859375 0 1.65625 0.296875q0.8125 0.28125 1.421875 0.8125q0.625 0.515625 1.0 1.25q0.375 0.734375 0.390625 1.640625l-1.734375 0q-0.078125 -0.5625 -0.28125 -1.03125q-0.203125 -0.46875 -0.5625 -0.8125q-0.34375 -0.34375 -0.828125 -0.515625q-0.46875 -0.1875 -1.0625 -0.1875q-0.484375 0 -0.953125 0.140625q-0.453125 0.125 -0.8125 0.40625q-0.359375 0.265625 -0.578125 0.671875q-0.21875 0.390625 -0.21875 0.921875q0.015625 0.578125 0.296875 0.984375q0.28125 0.390625 0.71875 0.671875q0.4375 0.265625 0.9375 0.453125q0.5 0.171875 0.953125 0.3125q0.484375 0.15625 0.984375 0.359375q0.5 0.1875 0.96875 0.4375q0.46875 0.25 0.859375 0.578125q0.40625 0.3125 0.703125 0.71875q0.3125 0.40625 0.46875 0.890625q0.171875 0.484375 0.171875 1.078125q0 0.890625 -0.40625 1.5625q-0.390625 0.671875 -1.015625 1.109375q-0.625 0.4375 -1.421875 0.671875q-0.78125 0.21875 -1.578125 0.21875q-0.890625 0 -1.734375 -0.265625q-0.84375 -0.28125 -1.515625 -0.796875q-0.671875 -0.515625 -1.09375 -1.25q-0.40625 -0.75 -0.4375 -1.703125l1.71875 0q0.078125 0.625 0.328125 1.109375q0.265625 0.46875 0.65625 0.8125q0.40625 0.328125 0.921875 0.5q0.53125 0.15625 1.15625 0.15625q0.484375 0 0.96875 -0.125q0.484375 -0.125 0.84375 -0.375q0.375 -0.265625 0.609375 -0.65625q0.25 -0.40625 0.25 -0.953125zm8.242432 -8.890625l0 2.390625l3.75 0l0 1.3125l-3.75 0l0 5.34375q0 0.578125 0.140625 0.953125q0.140625 0.375 0.390625 0.59375q0.265625 0.21875 0.59375 0.3125q0.34375 0.09375 0.71875 0.09375q0.265625 0 0.546875 -0.03125q0.296875 -0.03125 0.578125 -0.078125q0.28125 -0.046875 0.515625 -0.09375q0.25 -0.046875 0.40625 -0.09375l0.234375 1.203125q-0.21875 0.125 -0.515625 0.21875q-0.296875 0.09375 -0.65625 0.15625q-0.34375 0.078125 -0.75 0.109375q-0.390625 0.046875 -0.78125 0.046875q-0.65625 0 -1.234375 -0.1875q-0.5625 -0.1875 -0.984375 -0.59375q-0.421875 -0.40625 -0.671875 -1.046875q-0.234375 -0.640625 -0.234375 -1.5625l0 -5.34375l-2.578125 0l0 -1.3125l2.578125 0l0 -2.390625l1.703125 0zm13.664307 2.21875q0.234375 0 0.484375 0.015625q0.265625 0 0.484375 0.03125q0.234375 0.03125 0.421875 0.078125q0.203125 0.046875 0.34375 0.109375l-0.234375 1.640625q-0.484375 -0.109375 -0.9375 -0.15625q-0.4375 -0.046875 -0.921875 -0.046875q-1.1875 0 -1.921875 0.546875q-0.734375 0.53125 -1.078125 1.484375l0 6.328125l-1.6875 0l0 -9.859375l1.59375 0l0.09375 1.5625q0.59375 -0.796875 1.4375 -1.265625q0.84375 -0.46875 1.921875 -0.46875zm4.9924316 0.171875l5.046875 0l0 8.40625l3.21875 0l0 1.453125l-8.265625 0l0 -1.453125l3.359375 0l0 -6.9375l-3.359375 0l0 -1.46875zm3.140625 -2.578125q0 -0.421875 0.25 -0.703125q0.25 -0.296875 0.765625 -0.296875q0.5 0 0.75 0.296875q0.25 0.28125 0.25 0.703125q0 0.40625 -0.25 0.6875q-0.25 0.265625 -0.75 0.265625q-0.515625 0 -0.765625 -0.265625q-0.25 -0.28125 -0.25 -0.6875zm9.304993 2.578125l0.125 1.453125q0.53125 -0.765625 1.3125 -1.1875q0.78125 -0.4375 1.75 -0.4375q0.78125 0 1.40625 0.21875q0.640625 0.21875 1.078125 0.6875q0.453125 0.453125 0.6875 1.171875q0.25 0.71875 0.25 1.6875l0 6.265625l-1.6875 0l0 -6.21875q0 -0.65625 -0.15625 -1.109375q-0.140625 -0.453125 -0.421875 -0.734375q-0.28125 -0.296875 -0.703125 -0.421875q-0.40625 -0.125 -0.953125 -0.125q-0.84375 0 -1.484375 0.421875q-0.640625 0.421875 -1.03125 1.125l0 7.0625l-1.6875 0l0 -9.859375l1.515625 0zm9.383057 4.84375q0 -1.09375 0.265625 -2.015625q0.265625 -0.9375 0.765625 -1.59375q0.515625 -0.671875 1.25 -1.03125q0.734375 -0.375 1.640625 -0.375q0.921875 0 1.609375 0.328125q0.6875 0.3125 1.171875 0.921875l0.078125 -1.078125l1.53125 0l0 9.65625q0 0.96875 -0.3125 1.71875q-0.296875 0.765625 -0.859375 1.28125q-0.546875 0.53125 -1.3125 0.796875q-0.765625 0.28125 -1.6875 0.28125q-0.390625 0 -0.890625 -0.09375q-0.484375 -0.078125 -0.984375 -0.28125q-0.5 -0.1875 -0.96875 -0.515625q-0.46875 -0.328125 -0.8125 -0.8125l0.875 -1.0q0.3125 0.375 0.640625 0.625q0.328125 0.265625 0.65625 0.421875q0.34375 0.15625 0.671875 0.21875q0.34375 0.0625 0.6875 0.0625q0.59375 0 1.078125 -0.171875q0.484375 -0.171875 0.828125 -0.5q0.34375 -0.328125 0.515625 -0.828125q0.1875 -0.484375 0.1875 -1.125l0 -0.84375q-0.484375 0.5625 -1.15625 0.859375q-0.671875 0.296875 -1.5625 0.296875q-0.890625 0 -1.625 -0.375q-0.734375 -0.390625 -1.234375 -1.0625q-0.5 -0.6875 -0.78125 -1.59375q-0.265625 -0.921875 -0.265625 -1.96875l0 -0.203125zm1.671875 0.203125q0 0.71875 0.15625 1.359375q0.15625 0.640625 0.46875 1.140625q0.328125 0.484375 0.828125 0.78125q0.5 0.28125 1.203125 0.28125q0.4375 0 0.78125 -0.09375q0.359375 -0.109375 0.640625 -0.296875q0.28125 -0.203125 0.5 -0.46875q0.21875 -0.265625 0.375 -0.578125l0 -4.515625q-0.15625 -0.3125 -0.375 -0.5625q-0.21875 -0.265625 -0.515625 -0.453125q-0.28125 -0.1875 -0.625 -0.28125q-0.34375 -0.109375 -0.765625 -0.109375q-0.703125 0 -1.21875 0.296875q-0.5 0.28125 -0.828125 0.78125q-0.3125 0.5 -0.46875 1.15625q-0.15625 0.640625 -0.15625 1.359375l0 0.203125z" fill-rule="nonzero"/><path fill="#d0e0e3" d="m749.25476 163.41864l151.92554 0l0 0c19.902649 0 36.036926 7.1628723 36.036926 15.9987335c0 8.835861 -16.134277 15.998749 -36.036926 15.998749l-151.92554 0l0 0c-19.902649 0 -36.036926 -7.1628876 -36.036926 -15.998749c0 -8.835861 16.134277 -15.9987335 36.036926 -15.9987335z" fill-rule="evenodd"/><path stroke="#000000" stroke-width="1.0" stroke-linejoin="round" stroke-linecap="butt" d="m749.25476 163.41864l151.92554 0l0 0c19.902649 0 36.036926 7.1628723 36.036926 15.9987335c0 8.835861 -16.134277 15.998749 -36.036926 15.998749l-151.92554 0l0 0c-19.902649 0 -36.036926 -7.1628876 -36.036926 -15.998749c0 -8.835861 16.134277 -15.9987335 36.036926 -15.9987335z" fill-rule="evenodd"/><path fill="#000000" d="m793.1933 186.33737l0 -13.265625l3.953125 0q0.8125 0.015625 1.59375 0.21875q0.78125 0.203125 1.390625 0.640625q0.625 0.421875 0.984375 1.09375q0.359375 0.65625 0.359375 1.578125q-0.015625 0.53125 -0.171875 0.953125q-0.15625 0.421875 -0.4375 0.765625q-0.28125 0.34375 -0.65625 0.609375q-0.375 0.25 -0.796875 0.421875q0.53125 0.15625 0.96875 0.453125q0.453125 0.28125 0.765625 0.6875q0.328125 0.40625 0.5 0.921875q0.171875 0.5 0.171875 1.09375q0.015625 0.9375 -0.359375 1.65625q-0.359375 0.703125 -0.96875 1.1875q-0.609375 0.46875 -1.40625 0.71875q-0.796875 0.25 -1.640625 0.265625l-4.25 0zm1.703125 -6.203125l0 4.765625l2.59375 0q0.53125 0 1.0 -0.171875q0.46875 -0.171875 0.828125 -0.46875q0.375 -0.296875 0.578125 -0.734375q0.21875 -0.4375 0.21875 -1.0q0.015625 -0.5625 -0.1875 -1.0q-0.1875 -0.4375 -0.53125 -0.734375q-0.34375 -0.3125 -0.8125 -0.46875q-0.46875 -0.171875 -1.0 -0.1875l-2.6875 0zm0 -1.40625l2.34375 0q0.46875 0 0.921875 -0.140625q0.46875 -0.140625 0.8125 -0.40625q0.359375 -0.28125 0.578125 -0.671875q0.21875 -0.390625 0.21875 -0.90625q0 -0.5625 -0.21875 -0.953125q-0.203125 -0.390625 -0.5625 -0.640625q-0.359375 -0.25 -0.828125 -0.359375q-0.46875 -0.125 -0.96875 -0.140625l-2.296875 0l0 4.21875zm9.773743 -2.25l5.046875 0l0 8.40625l3.21875 0l0 1.453125l-8.265625 0l0 -1.453125l3.359375 0l0 -6.9375l-3.359375 0l0 -1.46875zm3.140625 -2.578125q0 -0.421875 0.25 -0.703125q0.25 -0.296875 0.765625 -0.296875q0.5 0 0.75 0.296875q0.25 0.28125 0.25 0.703125q0 0.40625 -0.25 0.6875q-0.25 0.265625 -0.75 0.265625q-0.515625 0 -0.765625 -0.265625q-0.25 -0.28125 -0.25 -0.6875zm7.4924316 7.421875q0 -1.09375 0.265625 -2.015625q0.265625 -0.9375 0.765625 -1.59375q0.515625 -0.671875 1.25 -1.03125q0.734375 -0.375 1.640625 -0.375q0.921875 0 1.609375 0.328125q0.6875 0.3125 1.171875 0.921875l0.078125 -1.078125l1.53125 0l0 9.65625q0 0.96875 -0.3125 1.71875q-0.296875 0.765625 -0.859375 1.28125q-0.546875 0.53125 -1.3125 0.796875q-0.765625 0.28125 -1.6875 0.28125q-0.390625 0 -0.890625 -0.09375q-0.484375 -0.078125 -0.984375 -0.28125q-0.5 -0.1875 -0.96875 -0.515625q-0.46875 -0.328125 -0.8125 -0.8125l0.875 -1.0q0.3125 0.375 0.640625 0.625q0.328125 0.265625 0.65625 0.421875q0.34375 0.15625 0.671875 0.21875q0.34375 0.0625 0.6875 0.0625q0.59375 0 1.078125 -0.171875q0.484375 -0.171875 0.828125 -0.5q0.34375 -0.328125 0.515625 -0.828125q0.1875 -0.484375 0.1875 -1.125l0 -0.84375q-0.484375 0.5625 -1.15625 0.859375q-0.671875 0.296875 -1.5625 0.296875q-0.890625 0 -1.625 -0.375q-0.734375 -0.390625 -1.234375 -1.0625q-0.5 -0.6875 -0.78125 -1.59375q-0.265625 -0.921875 -0.265625 -1.96875l0 -0.203125zm1.671875 0.203125q0 0.71875 0.15625 1.359375q0.15625 0.640625 0.46875 1.140625q0.328125 0.484375 0.828125 0.78125q0.5 0.28125 1.203125 0.28125q0.4375 0 0.78125 -0.09375q0.359375 -0.109375 0.640625 -0.296875q0.28125 -0.203125 0.5 -0.46875q0.21875 -0.265625 0.375 -0.578125l0 -4.515625q-0.15625 -0.3125 -0.375 -0.5625q-0.21875 -0.265625 -0.515625 -0.453125q-0.28125 -0.1875 -0.625 -0.28125q-0.34375 -0.109375 -0.765625 -0.109375q-0.703125 0 -1.21875 0.296875q-0.5 0.28125 -0.828125 0.78125q-0.3125 0.5 -0.46875 1.15625q-0.15625 0.640625 -0.15625 1.359375l0 0.203125zm9.820557 -8.453125l8.015625 0l0 1.46875l-3.171875 0l0 10.34375l3.171875 0l0 1.453125l-8.015625 0l0 -1.453125l3.109375 0l0 -10.34375l-3.109375 0l0 -1.46875zm12.711182 3.40625l0.125 1.453125q0.53125 -0.765625 1.3125 -1.1875q0.78125 -0.4375 1.75 -0.4375q0.78125 0 1.40625 0.21875q0.640625 0.21875 1.078125 0.6875q0.453125 0.453125 0.6875 1.171875q0.25 0.71875 0.25 1.6875l0 6.265625l-1.6875 0l0 -6.21875q0 -0.65625 -0.15625 -1.109375q-0.140625 -0.453125 -0.421875 -0.734375q-0.28125 -0.296875 -0.703125 -0.421875q-0.40625 -0.125 -0.953125 -0.125q-0.84375 0 -1.484375 0.421875q-0.640625 0.421875 -1.03125 1.125l0 7.0625l-1.6875 0l0 -9.859375l1.515625 0zm13.679993 -2.390625l0 2.390625l3.75 0l0 1.3125l-3.75 0l0 5.34375q0 0.578125 0.140625 0.953125q0.140625 0.375 0.390625 0.59375q0.265625 0.21875 0.59375 0.3125q0.34375 0.09375 0.71875 0.09375q0.265625 0 0.546875 -0.03125q0.296875 -0.03125 0.578125 -0.078125q0.28125 -0.046875 0.515625 -0.09375q0.25 -0.046875 0.40625 -0.09375l0.234375 1.203125q-0.21875 0.125 -0.515625 0.21875q-0.296875 0.09375 -0.65625 0.15625q-0.34375 0.078125 -0.75 0.109375q-0.390625 0.046875 -0.78125 0.046875q-0.65625 0 -1.234375 -0.1875q-0.5625 -0.1875 -0.984375 -0.59375q-0.421875 -0.40625 -0.671875 -1.046875q-0.234375 -0.640625 -0.234375 -1.5625l0 -5.34375l-2.578125 0l0 -1.3125l2.578125 0l0 -2.390625l1.703125 0z" fill-rule="nonzero"/><path fill="#d0e0e3" d="m109.25478 379.42114l151.92548 0l0 0c19.90268 0 36.036957 7.162903 36.036957 15.998749c0 8.835876 -16.134277 15.998749 -36.036957 15.998749l-151.92548 0l0 0c-19.902649 0 -36.036934 -7.1628723 -36.036934 -15.998749c0 -8.835846 16.134285 -15.998749 36.036934 -15.998749z" fill-rule="evenodd"/><path stroke="#000000" stroke-width="1.0" stroke-linejoin="round" stroke-linecap="butt" d="m109.25478 379.42114l151.92548 0l0 0c19.90268 0 36.036957 7.162903 36.036957 15.998749c0 8.835876 -16.134277 15.998749 -36.036957 15.998749l-151.92548 0l0 0c-19.902649 0 -36.036934 -7.1628723 -36.036934 -15.998749c0 -8.835846 16.134285 -15.998749 36.036934 -15.998749z" fill-rule="evenodd"/><path fill="#000000" d="m111.14137 402.3399l-1.703125 0l-5.15625 -9.90625l-0.03125 9.90625l-1.703125 0l0 -13.265625l1.71875 0l5.140625 9.890625l0.03125 -9.890625l1.703125 0l0 13.265625zm9.289322 -1.359375q-0.5 0.734375 -1.234375 1.140625q-0.734375 0.40625 -1.703125 0.40625q-0.78125 0 -1.40625 -0.234375q-0.625 -0.25 -1.078125 -0.765625q-0.4375 -0.515625 -0.6875 -1.296875q-0.234375 -0.78125 -0.234375 -1.890625l0 -5.859375l1.6875 0l0 5.875q0 0.8125 0.125 1.34375q0.125 0.515625 0.375 0.828125q0.265625 0.3125 0.625 0.453125q0.375 0.125 0.859375 0.125q1.03125 0 1.65625 -0.421875q0.640625 -0.421875 0.953125 -1.125l0 -7.078125l1.6875 0l0 9.859375l-1.53125 0l-0.09375 -1.359375zm5.570572 -8.5l0.046875 0.9375q0.296875 -0.53125 0.78125 -0.8125q0.5 -0.296875 1.1875 -0.296875q1.359375 0 1.8125 1.046875q0.296875 -0.46875 0.765625 -0.75q0.484375 -0.296875 1.15625 -0.296875q1.09375 0 1.671875 0.671875q0.578125 0.65625 0.578125 2.0l0 7.359375l-1.59375 0l0 -7.375q0 -1.25 -1.140625 -1.234375q-0.296875 0 -0.515625 0.09375q-0.21875 0.078125 -0.375 0.21875q-0.140625 0.140625 -0.21875 0.328125q-0.078125 0.1875 -0.109375 0.375l0 7.59375l-1.609375 0l0 -7.390625q0 -0.59375 -0.265625 -0.90625q-0.265625 -0.328125 -0.828125 -0.3125q-0.53125 0 -0.828125 0.21875q-0.28125 0.203125 -0.421875 0.546875l0 7.84375l-1.609375 0l0 -9.859375l1.515625 0zm18.773697 5.046875q0 1.046875 -0.265625 1.96875q-0.25 0.90625 -0.75 1.59375q-0.484375 0.671875 -1.203125 1.0625q-0.71875 0.375 -1.65625 0.375q-0.953125 0 -1.65625 -0.328125q-0.6875 -0.34375 -1.1875 -0.984375l-0.078125 1.125l-1.546875 0l0 -14.0l1.6875 0l0 5.203125q0.484375 -0.609375 1.15625 -0.921875q0.6875 -0.3125 1.609375 -0.3125q0.9375 0 1.65625 0.375q0.734375 0.359375 1.21875 1.03125q0.5 0.65625 0.75 1.59375q0.265625 0.921875 0.265625 2.015625l0 0.203125zm-1.6875 -0.203125q0 -0.71875 -0.140625 -1.359375q-0.140625 -0.65625 -0.453125 -1.15625q-0.3125 -0.5 -0.8125 -0.78125q-0.5 -0.296875 -1.21875 -0.296875q-0.4375 0 -0.8125 0.125q-0.359375 0.109375 -0.65625 0.3125q-0.28125 0.203125 -0.5 0.484375q-0.21875 0.265625 -0.375 0.59375l0 4.3125q0.15625 0.328125 0.375 0.609375q0.234375 0.28125 0.515625 0.5q0.296875 0.203125 0.65625 0.3125q0.375 0.109375 0.8125 0.109375q0.6875 0 1.1875 -0.28125q0.5 -0.296875 0.8125 -0.78125q0.3125 -0.5 0.453125 -1.140625q0.15625 -0.640625 0.15625 -1.359375l0 -0.203125zm8.883072 5.203125q-1.03125 0 -1.90625 -0.359375q-0.875 -0.359375 -1.5 -0.984375q-0.609375 -0.640625 -0.953125 -1.515625q-0.34375 -0.875 -0.34375 -1.90625l0 -0.390625q0 -1.1875 0.375 -2.125q0.390625 -0.953125 1.015625 -1.59375q0.640625 -0.65625 1.4375 -1.0q0.8125 -0.34375 1.65625 -0.34375q1.0625 0 1.859375 0.375q0.796875 0.359375 1.328125 1.015625q0.53125 0.640625 0.78125 1.53125q0.265625 0.875 0.265625 1.90625l0 0.75l-7.03125 0q0.015625 0.6875 0.25 1.28125q0.234375 0.578125 0.640625 1.03125q0.40625 0.4375 0.96875 0.703125q0.5625 0.25 1.25 0.25q0.90625 0 1.59375 -0.359375q0.703125 -0.375 1.171875 -0.96875l1.03125 0.796875q-0.25 0.375 -0.625 0.71875q-0.359375 0.328125 -0.84375 0.59375q-0.484375 0.265625 -1.09375 0.421875q-0.609375 0.171875 -1.328125 0.171875zm-0.21875 -8.84375q-0.515625 0 -0.96875 0.1875q-0.453125 0.1875 -0.8125 0.546875q-0.359375 0.359375 -0.625 0.890625q-0.25 0.515625 -0.34375 1.203125l5.296875 0l0 -0.125q-0.015625 -0.5 -0.1875 -0.984375q-0.15625 -0.484375 -0.46875 -0.859375q-0.296875 -0.390625 -0.765625 -0.625q-0.46875 -0.234375 -1.125 -0.234375zm13.523697 -1.375q0.234375 0 0.484375 0.015625q0.265625 0 0.484375 0.03125q0.234375 0.03125 0.421875 0.078125q0.203125 0.046875 0.34375 0.109375l-0.234375 1.640625q-0.484375 -0.109375 -0.9375 -0.15625q-0.4375 -0.046875 -0.921875 -0.046875q-1.1875 0 -1.921875 0.546875q-0.734375 0.53125 -1.078125 1.484375l0 6.328125l-1.6875 0l0 -9.859375l1.59375 0l0.09375 1.5625q0.59375 -0.796875 1.4375 -1.265625q0.84375 -0.46875 1.921875 -0.46875zm13.367447 4.171875q-0.015625 0.703125 -0.140625 1.4375q-0.109375 0.71875 -0.34375 1.390625q-0.234375 0.671875 -0.609375 1.265625q-0.359375 0.578125 -0.875 1.015625q-0.5 0.4375 -1.171875 0.6875q-0.65625 0.25 -1.46875 0.25q-0.828125 0 -1.484375 -0.25q-0.65625 -0.25 -1.171875 -0.6875q-0.515625 -0.4375 -0.890625 -1.03125q-0.375 -0.59375 -0.609375 -1.265625q-0.234375 -0.671875 -0.359375 -1.390625q-0.125 -0.71875 -0.125 -1.421875l0 -1.515625q0 -0.71875 0.109375 -1.4375q0.125 -0.71875 0.359375 -1.390625q0.25 -0.6875 0.609375 -1.265625q0.375 -0.59375 0.875 -1.03125q0.515625 -0.4375 1.171875 -0.6875q0.671875 -0.265625 1.484375 -0.265625q0.828125 0 1.484375 0.265625q0.671875 0.25 1.171875 0.6875q0.515625 0.4375 0.875 1.03125q0.375 0.578125 0.609375 1.25q0.25 0.671875 0.359375 1.40625q0.125 0.71875 0.140625 1.4375l0 1.515625zm-1.671875 -1.53125q-0.015625 -0.484375 -0.078125 -1.0q-0.046875 -0.515625 -0.1875 -1.015625q-0.125 -0.5 -0.34375 -0.953125q-0.21875 -0.46875 -0.546875 -0.8125q-0.328125 -0.359375 -0.78125 -0.5625q-0.4375 -0.203125 -1.03125 -0.203125q-0.578125 0 -1.03125 0.203125q-0.4375 0.203125 -0.765625 0.5625q-0.328125 0.34375 -0.546875 0.8125q-0.21875 0.453125 -0.359375 0.96875q-0.125 0.5 -0.1875 1.015625q-0.0625 0.515625 -0.0625 0.984375l0 1.53125q0 0.453125 0.0625 0.984375q0.0625 0.515625 0.203125 1.015625q0.140625 0.5 0.359375 0.96875q0.21875 0.46875 0.546875 0.828125q0.328125 0.34375 0.765625 0.5625q0.453125 0.203125 1.046875 0.203125q0.578125 0 1.03125 -0.203125q0.453125 -0.21875 0.78125 -0.5625q0.328125 -0.359375 0.53125 -0.8125q0.21875 -0.46875 0.34375 -0.96875q0.140625 -0.515625 0.1875 -1.03125q0.046875 -0.515625 0.0625 -0.984375l0 -1.53125zm10.695572 -2.640625q0.234375 0 0.484375 0.015625q0.265625 0 0.484375 0.03125q0.234375 0.03125 0.421875 0.078125q0.203125 0.046875 0.34375 0.109375l-0.234375 1.640625q-0.484375 -0.109375 -0.9375 -0.15625q-0.4375 -0.046875 -0.921875 -0.046875q-1.1875 0 -1.921875 0.546875q-0.734375 0.53125 -1.078125 1.484375l0 6.328125l-1.6875 0l0 -9.859375l1.59375 0l0.09375 1.5625q0.59375 -0.796875 1.4375 -1.265625q0.84375 -0.46875 1.921875 -0.46875zm13.367447 4.171875q-0.015625 0.703125 -0.140625 1.4375q-0.109375 0.71875 -0.34375 1.390625q-0.234375 0.671875 -0.609375 1.265625q-0.359375 0.578125 -0.875 1.015625q-0.5 0.4375 -1.171875 0.6875q-0.65625 0.25 -1.46875 0.25q-0.828125 0 -1.484375 -0.25q-0.65625 -0.25 -1.171875 -0.6875q-0.515625 -0.4375 -0.890625 -1.03125q-0.375 -0.59375 -0.609375 -1.265625q-0.234375 -0.671875 -0.359375 -1.390625q-0.125 -0.71875 -0.125 -1.421875l0 -1.515625q0 -0.71875 0.109375 -1.4375q0.125 -0.71875 0.359375 -1.390625q0.25 -0.6875 0.609375 -1.265625q0.375 -0.59375 0.875 -1.03125q0.515625 -0.4375 1.171875 -0.6875q0.671875 -0.265625 1.484375 -0.265625q0.828125 0 1.484375 0.265625q0.671875 0.25 1.171875 0.6875q0.515625 0.4375 0.875 1.03125q0.375 0.578125 0.609375 1.25q0.25 0.671875 0.359375 1.40625q0.125 0.71875 0.140625 1.4375l0 1.515625zm-1.671875 -1.53125q-0.015625 -0.484375 -0.078125 -1.0q-0.046875 -0.515625 -0.1875 -1.015625q-0.125 -0.5 -0.34375 -0.953125q-0.21875 -0.46875 -0.546875 -0.8125q-0.328125 -0.359375 -0.78125 -0.5625q-0.4375 -0.203125 -1.03125 -0.203125q-0.578125 0 -1.03125 0.203125q-0.4375 0.203125 -0.765625 0.5625q-0.328125 0.34375 -0.546875 0.8125q-0.21875 0.453125 -0.359375 0.96875q-0.125 0.5 -0.1875 1.015625q-0.0625 0.515625 -0.0625 0.984375l0 1.53125q0 0.453125 0.0625 0.984375q0.0625 0.515625 0.203125 1.015625q0.140625 0.5 0.359375 0.96875q0.21875 0.46875 0.546875 0.828125q0.328125 0.34375 0.765625 0.5625q0.453125 0.203125 1.046875 0.203125q0.578125 0 1.03125 -0.203125q0.453125 -0.21875 0.78125 -0.5625q0.328125 -0.359375 0.53125 -0.8125q0.21875 -0.46875 0.34375 -0.96875q0.140625 -0.515625 0.1875 -1.03125q0.046875 -0.515625 0.0625 -0.984375l0 -1.53125zm3.914322 2.375q0 -1.09375 0.28125 -2.015625q0.28125 -0.9375 0.78125 -1.59375q0.515625 -0.671875 1.25 -1.03125q0.734375 -0.375 1.625 -0.375q0.890625 0 1.546875 0.296875q0.671875 0.28125 1.140625 0.859375l0 -5.125l1.6875 0l0 14.0l-1.546875 0l-0.0625 -1.03125q-0.5 0.59375 -1.1875 0.90625q-0.671875 0.3125 -1.59375 0.3125q-0.890625 0 -1.625 -0.375q-0.71875 -0.390625 -1.234375 -1.0625q-0.5 -0.6875 -0.78125 -1.59375q-0.28125 -0.921875 -0.28125 -1.96875l0 -0.203125zm1.6875 0.203125q0 0.71875 0.15625 1.359375q0.15625 0.640625 0.46875 1.140625q0.328125 0.484375 0.828125 0.78125q0.5 0.28125 1.203125 0.28125q0.4375 0 0.78125 -0.09375q0.34375 -0.109375 0.625 -0.296875q0.28125 -0.1875 0.5 -0.4375q0.21875 -0.265625 0.375 -0.578125l0 -4.578125q-0.328125 -0.59375 -0.890625 -0.984375q-0.546875 -0.390625 -1.375 -0.390625q-0.703125 0 -1.21875 0.296875q-0.5 0.28125 -0.828125 0.78125q-0.3125 0.5 -0.46875 1.15625q-0.15625 0.640625 -0.15625 1.359375l0 0.203125zm9.508072 -0.203125q0 -1.09375 0.28125 -2.015625q0.28125 -0.9375 0.78125 -1.59375q0.515625 -0.671875 1.25 -1.03125q0.734375 -0.375 1.625 -0.375q0.890625 0 1.546875 0.296875q0.671875 0.28125 1.140625 0.859375l0 -5.125l1.6875 0l0 14.0l-1.546875 0l-0.0625 -1.03125q-0.5 0.59375 -1.1875 0.90625q-0.671875 0.3125 -1.59375 0.3125q-0.890625 0 -1.625 -0.375q-0.71875 -0.390625 -1.234375 -1.0625q-0.5 -0.6875 -0.78125 -1.59375q-0.28125 -0.921875 -0.28125 -1.96875l0 -0.203125zm1.6875 0.203125q0 0.71875 0.15625 1.359375q0.15625 0.640625 0.46875 1.140625q0.328125 0.484375 0.828125 0.78125q0.5 0.28125 1.203125 0.28125q0.4375 0 0.78125 -0.09375q0.34375 -0.109375 0.625 -0.296875q0.28125 -0.1875 0.5 -0.4375q0.21875 -0.265625 0.375 -0.578125l0 -4.578125q-0.328125 -0.59375 -0.890625 -0.984375q-0.546875 -0.390625 -1.375 -0.390625q-0.703125 0 -1.21875 0.296875q-0.5 0.28125 -0.828125 0.78125q-0.3125 0.5 -0.46875 1.15625q-0.15625 0.640625 -0.15625 1.359375l0 0.203125zm18.179947 0q0 1.046875 -0.265625 1.96875q-0.25 0.90625 -0.75 1.59375q-0.484375 0.671875 -1.203125 1.0625q-0.71875 0.375 -1.65625 0.375q-0.953125 0 -1.65625 -0.328125q-0.6875 -0.34375 -1.1875 -0.984375l-0.078125 1.125l-1.546875 0l0 -14.0l1.6875 0l0 5.203125q0.484375 -0.609375 1.15625 -0.921875q0.6875 -0.3125 1.609375 -0.3125q0.9375 0 1.65625 0.375q0.734375 0.359375 1.21875 1.03125q0.5 0.65625 0.75 1.59375q0.265625 0.921875 0.265625 2.015625l0 0.203125zm-1.6875 -0.203125q0 -0.71875 -0.140625 -1.359375q-0.140625 -0.65625 -0.453125 -1.15625q-0.3125 -0.5 -0.8125 -0.78125q-0.5 -0.296875 -1.21875 -0.296875q-0.4375 0 -0.8125 0.125q-0.359375 0.109375 -0.65625 0.3125q-0.28125 0.203125 -0.5 0.484375q-0.21875 0.265625 -0.375 0.59375l0 4.3125q0.15625 0.328125 0.375 0.609375q0.234375 0.28125 0.515625 0.5q0.296875 0.203125 0.65625 0.3125q0.375 0.109375 0.8125 0.109375q0.6875 0 1.1875 -0.28125q0.5 -0.296875 0.8125 -0.78125q0.3125 -0.5 0.453125 -1.140625q0.15625 -0.640625 0.15625 -1.359375l0 -0.203125zm11.008072 5.015625q-0.09375 -0.1875 -0.15625 -0.46875q-0.0625 -0.296875 -0.09375 -0.609375q-0.25 0.265625 -0.5625 0.5q-0.3125 0.21875 -0.703125 0.390625q-0.375 0.171875 -0.8125 0.265625q-0.421875 0.109375 -0.890625 0.109375q-0.796875 0 -1.4375 -0.21875q-0.625 -0.234375 -1.0625 -0.625q-0.4375 -0.390625 -0.6875 -0.921875q-0.234375 -0.53125 -0.234375 -1.15625q0 -0.8125 0.3125 -1.421875q0.328125 -0.609375 0.921875 -1.015625q0.59375 -0.40625 1.421875 -0.59375q0.84375 -0.203125 1.875 -0.203125l1.828125 0l0 -0.78125q0 -0.453125 -0.171875 -0.796875q-0.15625 -0.359375 -0.453125 -0.609375q-0.296875 -0.25 -0.734375 -0.390625q-0.421875 -0.140625 -0.96875 -0.140625q-0.5 0 -0.90625 0.140625q-0.390625 0.125 -0.671875 0.34375q-0.265625 0.203125 -0.421875 0.484375q-0.140625 0.28125 -0.140625 0.59375l-1.6875 0q0 -0.53125 0.265625 -1.046875q0.28125 -0.53125 0.78125 -0.9375q0.5 -0.421875 1.21875 -0.671875q0.734375 -0.25 1.65625 -0.25q0.84375 0 1.5625 0.203125q0.71875 0.203125 1.234375 0.625q0.53125 0.40625 0.828125 1.03125q0.296875 0.609375 0.296875 1.4375l0 4.578125q0 0.5 0.09375 1.046875q0.09375 0.546875 0.25 0.96875l0 0.140625l-1.75 0zm-2.984375 -1.28125q0.5 0 0.921875 -0.125q0.4375 -0.140625 0.78125 -0.34375q0.34375 -0.203125 0.59375 -0.46875q0.265625 -0.28125 0.40625 -0.5625l0 -2.0l-1.5625 0q-1.46875 0 -2.296875 0.4375q-0.8125 0.4375 -0.8125 1.375q0 0.359375 0.125 0.671875q0.125 0.3125 0.359375 0.53125q0.25 0.21875 0.625 0.359375q0.375 0.125 0.859375 0.125zm7.961197 -12.71875l5.046875 0l0 12.546875l3.21875 0l0 1.453125l-8.265625 0l0 -1.453125l3.359375 0l0 -11.078125l-3.359375 0l0 -1.46875zm11.195557 0l5.046875 0l0 12.546875l3.21875 0l0 1.453125l-8.265625 0l0 -1.453125l3.359375 0l0 -11.078125l-3.359375 0l0 -1.46875z" fill-rule="nonzero"/><path fill="#000000" fill-opacity="0.0" d="m409.21753 43.416115c0 23.000458 -34.0 34.500923 -68.0 46.000923c-34.0 11.5 -68.0 22.999535 -68.0 45.999084" fill-rule="evenodd"/><path stroke="#666666" stroke-width="2.0" stroke-linejoin="round" stroke-linecap="butt" d="m409.21753 43.416115c0 23.000458 -34.0 34.500923 -68.0 46.000923c-17.0 5.75 -34.0 11.499886 -46.75 18.68721c-6.375 3.5936584 -11.6875 7.546692 -15.40625 12.038765c-0.9296875 1.123024 -1.7597351 2.2797318 -2.4819336 3.4729462l-0.14205933 0.24016571" fill-rule="evenodd"/><path fill="#666666" stroke="#666666" stroke-width="2.0" stroke-linecap="butt" d="m273.25494 122.96977l0.7470703 9.6297455l5.617584 -7.8570404z" fill-rule="evenodd"/><path fill="#000000" fill-opacity="0.0" d="m409.21753 43.416115c0 30.001198 40.0 45.002403 80.0 60.002403c40.0 15.0 80.0 29.998795 80.0 59.997604" fill-rule="evenodd"/><path stroke="#666666" stroke-width="2.0" stroke-linejoin="round" stroke-linecap="butt" d="m409.21753 43.416115c0 30.001205 40.0 45.002396 80.0 60.002396c20.0 7.5 40.0 14.999702 55.0 24.374252c7.5 4.6872787 13.75 9.843254 18.125 15.702354c1.09375 1.4647675 2.0703125 2.9734955 2.9199219 4.5298157c0.4248047 0.7781677 0.8178711 1.568222 1.1779785 2.3706512c0.18005371 0.4012146 0.35186768 0.8055115 0.5152588 1.2129669l0.008239746 0.021072388" fill-rule="evenodd"/><path fill="#666666" stroke="#666666" stroke-width="2.0" stroke-linecap="butt" d="m563.71924 152.25002l4.9492188 8.294312l1.5401611 -9.535095z" fill-rule="evenodd"/><path fill="#000000" fill-opacity="0.0" d="m409.21753 43.416115c0 30.000603 104.0 45.001198 208.0 60.001198c104.0 15.0 208.0 29.999405 208.0 59.99881" fill-rule="evenodd"/><path stroke="#666666" stroke-width="2.0" stroke-linejoin="round" stroke-linecap="butt" d="m409.21753 43.416115c0 30.000603 104.0 45.001198 208.0 60.001198c52.0 7.5 104.0 14.999847 143.0 24.374634c19.5 4.687378 35.75 9.843506 47.125 15.702728c2.84375 1.4648132 5.3828125 2.9735565 7.591797 4.5299377c1.1044922 0.7781677 2.1264648 1.5682526 3.0627441 2.370697c0.46813965 0.4012146 0.91485596 0.80552673 1.3397217 1.2129822c0.21252441 0.20373535 0.4194336 0.4082489 0.6209717 0.6135559l0.27093506 0.28045654" fill-rule="evenodd"/><path fill="#666666" stroke="#666666" stroke-width="2.0" stroke-linecap="butt" d="m817.22424 153.87567l6.777771 6.8812866l-0.76885986 -9.6280365z" fill-rule="evenodd"/><path fill="#000000" fill-opacity="0.0" d="m409.21753 43.416115c0 106.00211 56.0 159.00424 112.0 212.00424c56.0 53.0 112.0 105.997894 112.0 211.99576" fill-rule="evenodd"/><path stroke="#666666" stroke-width="2.0" stroke-linejoin="round" stroke-linecap="butt" d="m409.21753 43.416115c0 106.00211 56.0 159.00424 112.0 212.00424c28.0 26.499985 56.0 52.999466 77.0 86.12367c10.5 16.562103 19.25 34.780396 25.375 55.483032c3.0625 10.351288 5.46875 21.3237 7.109375 33.02072c0.8203125 5.84848 1.4492188 11.878143 1.8730469 18.101898c0.10595703 1.5559387 0.19909668 3.1240234 0.27923584 4.7044067c0.039978027 0.79019165 0.07678223 1.5834961 0.11035156 2.3798828l0.0073242188 0.18466187" fill-rule="evenodd"/><path fill="#666666" stroke="#666666" stroke-width="2.0" stroke-linecap="butt" d="m629.6691 455.48627l3.4885254 9.006683l3.1170044 -9.141937z" fill-rule="evenodd"/><path fill="#000000" fill-opacity="0.0" d="m273.21817 167.4147c0 15.0009 -39.25197 22.5018 -78.50395 30.0018c-39.25197 7.5 -78.50393 14.9991 -78.50393 29.9982" fill-rule="evenodd"/><path stroke="#666666" stroke-width="2.0" stroke-linejoin="round" stroke-linecap="butt" d="m273.21817 167.4147c0 15.0009 -39.251984 22.5018 -78.50395 30.0018c-19.625977 3.75 -39.251953 7.499771 -53.97145 12.18692c-7.359741 2.3435974 -13.492859 4.921524 -17.786041 7.850998l-0.026443481 0.018371582" fill-rule="evenodd"/><path fill="#666666" stroke="#666666" stroke-width="2.0" stroke-linecap="butt" d="m120.19338 215.62285l-2.3457642 9.369492l7.819565 -5.6696167z" fill-rule="evenodd"/><path fill="#000000" fill-opacity="0.0" d="m116.21753 259.41602c0 30.00119 17.251968 45.00238 34.503937 60.00238c17.251968 15.0 34.503937 29.99881 34.503937 59.99762" fill-rule="evenodd"/><path stroke="#666666" stroke-width="2.0" stroke-linejoin="round" stroke-linecap="butt" d="m116.21753 259.41602c0 30.00119 17.251968 45.00238 34.503937 60.00238c8.625992 7.5 17.251968 14.999695 23.721466 24.374268c3.2347412 4.6872864 5.930359 9.843231 7.8173065 15.702332c0.4717102 1.4647827 0.8929138 2.9735107 1.2593384 4.5298157c0.1832428 0.7781677 0.3527527 1.5682373 0.50808716 2.3706665c0.03881836 0.20062256 0.07675171 0.40197754 0.11380005 0.6041565l0.08163452 0.4583435" fill-rule="evenodd"/><path fill="#666666" stroke="#666666" stroke-width="2.0" stroke-linecap="butt" d="m180.93117 367.7339l4.0500336 8.768524l2.5338135 -9.320404z" fill-rule="evenodd"/><path fill="#000000" fill-opacity="0.0" d="m185.21753 411.41864c0 14.000549 112.0 21.00113 224.0 28.00113c112.0 7.0 224.0 13.99942 224.0 27.99887" fill-rule="evenodd"/><path stroke="#666666" stroke-width="2.0" stroke-linejoin="round" stroke-linecap="butt" d="m185.21754 411.41864c0 14.00058 111.999985 21.001099 223.99998 28.001099c56.0 3.5 112.0 6.999878 154.0 11.374664c21.0 2.187378 38.5 4.593506 50.75 7.327759c3.0625 0.68356323 5.796875 1.3876343 8.175781 2.113922c0.29736328 0.09082031 0.58917236 0.1819458 0.8753662 0.27337646l0.31549072 0.10333252" fill-rule="evenodd"/><path fill="#666666" stroke="#666666" stroke-width="2.0" stroke-linecap="butt" d="m621.46063 463.33353l9.348816 2.4268494l-5.6016846 -7.8683777z" fill-rule="evenodd"/><path fill="#000000" fill-opacity="0.0" d="m569.21814 195.41864c0 68.0 16.0 102.0 32.0 136.0c16.0 34.0 32.0 68.0 32.0 136.0" fill-rule="evenodd"/><path stroke="#666666" stroke-width="2.0" stroke-linejoin="round" stroke-linecap="butt" d="m569.2182 195.41864c0 68.0 16.0 102.0 32.0 136.0c8.0 17.0 16.0 34.0 22.0 55.25c3.0 10.625 5.5 22.3125 7.25 35.59375c0.875 6.640625 1.5625 13.679718 2.03125 21.183594c0.234375 3.7519226 0.41400146 7.620117 0.5350952 11.612793l0.010253906 0.3611145" fill-rule="evenodd"/><path fill="#666666" stroke="#666666" stroke-width="2.0" stroke-linecap="butt" d="m629.7417 455.46762l3.4342651 9.027527l3.171997 -9.122986z" fill-rule="evenodd"/><path fill="#000000" fill-opacity="0.0" d="m825.2175 195.41612c0 68.00136 -48.0 102.0027 -96.0 136.0027c-48.0 34.0 -96.0 67.99866 -96.0 135.99728" fill-rule="evenodd"/><path stroke="#666666" stroke-width="2.0" stroke-linejoin="round" stroke-linecap="butt" d="m825.2175 195.4161c0 68.00137 -48.0 102.00275 -96.0 136.00275c-24.0 17.0 -48.0 33.999664 -66.0 55.249115c-9.0 10.624756 -16.5 22.311981 -21.75 35.592896c-2.625 6.6404724 -4.6875 13.679382 -6.09375 21.183105c-0.703125 3.751892 -1.2421875 7.6199646 -1.6054688 11.612549l-0.03265381 0.3708191" fill-rule="evenodd"/><path fill="#666666" stroke="#666666" stroke-width="2.0" stroke-linecap="butt" d="m630.43524 455.2847l2.9085083 9.210358l3.6922607 -8.92511z" fill-rule="evenodd"/><path fill="#000000" fill-opacity="0.0" d="m273.21817 167.4147c0 75.001495 90.0 112.50299 180.0 150.00299c89.99997 37.5 179.99997 74.998505 179.99997 149.99701" fill-rule="evenodd"/><path stroke="#666666" stroke-width="2.0" stroke-linejoin="round" stroke-linecap="butt" d="m273.21817 167.4147c0 75.001495 90.0 112.50299 180.0 150.00299c45.0 18.75 90.00003 37.499634 123.75003 60.936554c16.875 11.718506 30.9375 24.608795 40.78125 39.256897c4.921875 7.324005 8.789001 15.087524 11.42572 23.363678c1.3184204 4.1381226 2.3291626 8.404358 3.010254 12.807953c0.08514404 0.55044556 0.16516113 1.1030579 0.23999023 1.6578064l0 3.3569336E-4" fill-rule="evenodd"/><path fill="#666666" stroke="#666666" stroke-width="2.0" stroke-linecap="butt" d="m629.1292 455.65915l3.895813 8.838135l2.6966553 -9.274597z" fill-rule="evenodd"/><path fill="#000000" fill-opacity="0.0" d="m116.21753 259.41602c0 52.001038 129.25197 78.002075 258.50394 104.002075c129.25198 26.0 258.50394 51.998962 258.50394 103.997925" fill-rule="evenodd"/><path stroke="#666666" stroke-width="2.0" stroke-linejoin="round" stroke-linecap="butt" d="m116.21753 259.41602c0 52.001038 129.25198 78.002075 258.50394 104.002075c64.62598 13.0 129.25195 25.999725 177.72147 42.24936c24.234741 8.124786 44.43036 17.062042 58.56726 27.218079c7.0684814 5.078003 12.622253 10.460693 16.408997 16.198822c0.94659424 1.4345703 1.782898 2.8912964 2.5046997 4.371063c0.18041992 0.3699646 0.35375977 0.7413025 0.5198364 1.1141357c0.08306885 0.18643188 0.16430664 0.37319946 0.24377441 0.56036377l0.21258545 0.5135498" fill-rule="evenodd"/><path fill="#666666" stroke="#666666" stroke-width="2.0" stroke-linecap="butt" d="m627.65924 456.2836l4.9995728 8.264038l1.4821167 -9.544312z" fill-rule="evenodd"/><path fill="#000000" fill-opacity="0.0" d="m409.21753 43.416115c0 118.51392 -56.0 195.02783 -112.0 237.02786c-56.0 42.0 -112.0 49.486053 -112.0 98.97214" fill-rule="evenodd"/><path stroke="#666666" stroke-width="2.0" stroke-linejoin="round" stroke-linecap="butt" d="m409.21753 43.416115c0 118.51392 -56.0 195.02783 -112.0 237.02786c-28.0 21.0 -55.999985 33.37149 -76.999985 46.678802c-10.5 6.6536255 -19.25 13.541199 -25.375 21.858276c-3.0625 4.1585083 -5.46875 8.674408 -7.109375 13.697113c-0.4101715 1.2556763 -0.77246094 2.5429993 -1.0852051 3.86438c-0.039108276 0.16519165 -0.07740784 0.33087158 -0.11494446 0.49710083l-0.09666443 0.4385376" fill-rule="evenodd"/><path fill="#666666" stroke="#666666" stroke-width="2.0" stroke-linecap="butt" d="m183.14996 367.14267l2.3645325 9.364777l4.2082214 -8.693726z" fill-rule="evenodd"/><path fill="#000000" fill-opacity="0.0" d="m409.21753 43.416115c0 21.1922 -73.25195 19.3844 -146.50394 42.3844c-73.25197 23.0 -146.50394 70.80781 -146.50394 141.6156" fill-rule="evenodd"/><path stroke="#666666" stroke-width="2.0" stroke-linejoin="round" stroke-linecap="butt" d="m409.21753 43.416115c0 21.1922 -73.25195 19.3844 -146.50394 42.3844c-36.625977 11.5 -73.25195 29.20195 -100.72145 52.879875c-13.734756 11.838974 -25.180374 25.17192 -33.192307 39.970627c-4.005966 7.399338 -7.153511 15.165131 -9.299561 23.293823c-1.0730286 4.0643463 -1.8956909 8.219421 -2.4500809 12.464798c-0.03465271 0.26531982 -0.068244934 0.53100586 -0.10079956 0.7970581l-0.027259827 0.23057556" fill-rule="evenodd"/><path fill="#666666" stroke="#666666" stroke-width="2.0" stroke-linecap="butt" d="m113.62449 215.24115l2.7587585 9.256317l3.8365173 -8.864044z" fill-rule="evenodd"/><path fill="#000000" fill-opacity="0.0" d="m273.21817 167.4147c0 53.00212 -22.0 79.50424 -44.0 106.00424c-22.0 26.5 -44.0 52.997864 -44.0 105.99576" fill-rule="evenodd"/><path stroke="#666666" stroke-width="2.0" stroke-linejoin="round" stroke-linecap="butt" d="m273.21817 167.4147c0 53.002106 -22.000015 79.50424 -44.000015 106.00424c-11.0 13.25 -22.0 26.49945 -30.25 43.061157c-4.125 8.280853 -7.5625 17.38977 -9.96875 27.740814c-1.203125 5.1755676 -2.1484375 10.661621 -2.7929535 16.51001c-0.16114807 1.4620667 -0.30348206 2.9468079 -0.42634583 4.455017c-0.030715942 0.37704468 -0.06021118 0.7555237 -0.08848572 1.1355286l-0.07795715 1.0997314" fill-rule="evenodd"/><path fill="#666666" stroke="#666666" stroke-width="2.0" stroke-linecap="butt" d="m182.312 367.31235l3.0025177 9.180145l3.6008148 -8.962402z" fill-rule="evenodd"/></g></svg>