<svg viewBox="0 0 941.436 510.837" fill="none" stroke-linecap="square" stroke-miterlimit="10" xmlns="http://www.w3.org/2000/svg"><clipPath id="a"><path d="M0 0h941.436v510.837H0V0z"/></clipPath><g clip-path="url(#a)"><path d="M0 0h941.436v510.837H0z"/><path fill="#cfe2f3" d="M333.255 11.419H485.18c19.903 0 36.037 7.163 36.037 15.998 0 8.836-16.134 16-36.037 16H333.255c-19.903 0-36.037-7.164-36.037-16 0-8.835 16.134-15.998 36.037-15.998z" fill-rule="evenodd"/><path stroke="#000" stroke-linejoin="round" stroke-linecap="butt" d="M333.255 11.419H485.18c19.903 0 36.037 7.163 36.037 15.998 0 8.836-16.134 16-36.037 16H333.255h0c-19.903 0-36.037-7.164-36.037-16 0-8.835 16.134-15.998 36.037-15.998z"/><path fill="#000" d="M396.717 34.337h-1.703l-5.156-9.906-.032 9.906h-1.703V21.072h1.719l5.14 9.89.032-9.89h1.703v13.265zm2.414-5.015q0-1.063.313-1.985.312-.922.89-1.593.579-.672 1.407-1.047.828-.39 1.86-.39 1.046 0 1.874.39.844.375 1.422 1.047.578.671.89 1.593.313.922.313 1.985v.203q0 1.062-.312 1.969-.313.906-.891 1.593-.578.672-1.406 1.063-.828.375-1.86.375-1.047 0-1.89-.375-.828-.39-1.407-1.063-.578-.687-.89-1.593-.313-.907-.313-1.97v-.202zm1.688.203q0 .719.172 1.39.172.657.515 1.157.36.5.891.797.531.28 1.234.28.688 0 1.203-.28.532-.297.875-.797.36-.5.532-1.157.172-.671.172-1.39v-.203q0-.719-.188-1.375-.172-.672-.531-1.172-.344-.5-.875-.797-.516-.297-1.219-.297-.703 0-1.219.297-.515.297-.875.797-.343.5-.515 1.172-.172.656-.172 1.375v.203zm11.492-5.047l.125 1.453q.532-.766 1.313-1.187.781-.438 1.75-.438.781 0 1.406.219.64.219 1.078.687.453.453.688 1.172.25.719.25 1.688v6.265h-1.688V28.12q0-.657-.156-1.11-.14-.453-.422-.734-.281-.297-.703-.422-.406-.125-.953-.125-.844 0-1.485.422-.64.422-1.03 1.125v7.062h-1.688v-9.859h1.515zm14.04 10.047q-1.032 0-1.907-.36-.875-.359-1.5-.984-.609-.64-.953-1.516-.344-.875-.344-1.906v-.39q0-1.188.375-2.125.391-.954 1.016-1.594.64-.656 1.438-1 .812-.344 1.656-.344 1.062 0 1.86.375.796.36 1.327 1.016.532.64.782 1.531.265.875.265 1.906v.75h-7.031q.016.688.25 1.281.234.579.64 1.032.407.437.97.703.562.25 1.25.25.906 0 1.593-.36.703-.375 1.172-.968l1.031.797q-.25.375-.625.718-.36.328-.844.594-.484.266-1.093.422-.61.172-1.328.172zm-.22-8.844q-.515 0-.968.188-.453.187-.812.546-.36.36-.625.891-.25.516-.344 1.203h5.297v-.125q-.016-.5-.188-.984-.156-.485-.469-.86-.296-.39-.765-.625-.469-.234-1.125-.234z"/><path fill="#d0e0e3" d="M197.255 135.417h151.926c19.903 0 36.037 7.163 36.037 15.999s-16.134 15.999-36.037 15.999H197.255c-19.902 0-36.037-7.163-36.037-15.999s16.135-15.999 36.037-15.999z" fill-rule="evenodd"/><path stroke="#000" stroke-linejoin="round" stroke-linecap="butt" d="M197.255 135.417h151.926c19.903 0 36.037 7.163 36.037 15.999s-16.134 15.999-36.037 15.999H197.255h0c-19.902 0-36.037-7.163-36.037-15.999s16.135-15.999 36.037-15.999z"/><path fill="#000" d="M220.174 154.977q0-.61-.281-1.016-.282-.422-.72-.703-.437-.297-.968-.485-.516-.187-1-.343-.703-.235-1.422-.547-.719-.328-1.328-.781-.594-.47-.969-1.094-.375-.64-.375-1.5t.375-1.531q.375-.672.985-1.141.609-.469 1.375-.703.78-.25 1.578-.25.86 0 1.656.297.813.281 1.422.812.625.516 1 1.25.375.735.39 1.64h-1.734q-.078-.562-.281-1.03-.203-.47-.563-.813-.343-.344-.828-.516-.468-.187-1.062-.187-.485 0-.953.14-.453.126-.813.407-.36.265-.578.672-.219.39-.219.922.016.578.297.984.281.39.719.672.437.265.937.453.5.172.954.312.484.157.984.36.5.187.969.437.468.25.859.578.406.313.703.72.313.405.469.89.172.484.172 1.078 0 .89-.406 1.562-.391.672-1.016 1.11-.625.437-1.422.672-.781.218-1.578.218-.89 0-1.734-.265-.844-.281-1.516-.797t-1.094-1.25q-.406-.75-.437-1.703h1.718q.079.625.329 1.11.265.468.656.812.406.328.922.5.53.156 1.156.156.484 0 .969-.125.484-.125.843-.375.375-.266.61-.656.25-.407.25-.953zm4.508-6.5h5.047v8.406h3.218v1.453h-8.265v-1.453h3.36v-6.938h-3.36v-1.468zm3.14-2.579q0-.421.25-.703.25-.297.766-.297.5 0 .75.297.25.282.25.703 0 .407-.25.688-.25.266-.75.266-.516 0-.766-.266-.25-.281-.25-.688zm7.493 7.422q0-1.093.266-2.015.265-.938.765-1.594.516-.672 1.25-1.031.735-.375 1.64-.375.923 0 1.61.328.688.312 1.172.922l.078-1.078h1.531v9.656q0 .969-.312 1.719-.297.765-.86 1.28-.546.532-1.312.798-.766.281-1.687.281-.391 0-.891-.094-.484-.078-.984-.281-.5-.188-.97-.516-.468-.328-.812-.812l.875-1q.313.375.64.625.329.265.657.422.344.156.672.218.344.063.688.063.593 0 1.078-.172.484-.172.828-.5t.515-.828q.188-.484.188-1.125v-.844q-.484.563-1.156.86-.672.296-1.563.296-.89 0-1.625-.375-.734-.39-1.234-1.062-.5-.688-.781-1.594-.266-.922-.266-1.969v-.203zm1.672.203q0 .72.156 1.36.156.64.469 1.14.328.485.828.782.5.281 1.203.281.438 0 .781-.094.36-.11.64-.297.282-.203.5-.468.22-.266.376-.579v-4.515q-.156-.313-.375-.563-.219-.265-.516-.453-.281-.187-.625-.281-.343-.11-.765-.11-.703 0-1.22.297-.5.282-.827.782-.313.5-.469 1.156-.156.64-.156 1.36v.202zm11.336-5.046l.125 1.453q.531-.766 1.312-1.188.782-.437 1.75-.437.782 0 1.407.218.64.22 1.078.688.453.453.687 1.172.25.719.25 1.687v6.266h-1.687v-6.219q0-.656-.156-1.11-.141-.452-.422-.734-.282-.296-.703-.421-.407-.125-.954-.125-.843 0-1.484.421-.64.422-1.031 1.125v7.063h-1.688v-9.86h1.516zm14.04 10.046q-1.032 0-1.907-.359-.875-.36-1.5-.984-.61-.64-.953-1.516-.344-.875-.344-1.906v-.39q0-1.188.375-2.126.39-.953 1.016-1.594.64-.656 1.437-1 .813-.343 1.657-.343 1.062 0 1.859.375.797.36 1.328 1.015.531.641.781 1.532.266.875.266 1.906v.75h-7.031q.015.687.25 1.281.234.578.64 1.031.407.438.97.703.562.25 1.25.25.905 0 1.593-.359.703-.375 1.172-.969l1.03.797q-.25.375-.624.719-.36.328-.844.594-.484.265-1.094.422-.609.171-1.328.171zm-.22-8.843q-.515 0-.968.187-.453.188-.813.547-.36.36-.625.89-.25.516-.343 1.204h5.296v-.125q-.015-.5-.187-.985-.156-.484-.469-.859-.297-.39-.765-.625-.47-.234-1.125-.234zm6.743 3.64q0-1.093.281-2.015.282-.938.782-1.594.515-.672 1.25-1.031.734-.375 1.625-.375.89 0 1.546.297.672.28 1.141.859v-5.125h1.688v14h-1.547l-.063-1.031q-.5.593-1.187.906-.672.312-1.594.312-.89 0-1.625-.375-.719-.39-1.234-1.062-.5-.688-.782-1.594-.281-.922-.281-1.969v-.203zm1.688.203q0 .72.156 1.36.156.64.469 1.14.328.485.828.782.5.281 1.203.281.437 0 .781-.094.344-.11.625-.297t.5-.437q.219-.266.375-.578v-4.578q-.328-.594-.89-.985-.547-.39-1.376-.39-.703 0-1.218.296-.5.282-.828.782-.313.5-.47 1.156-.155.64-.155 1.36v.202zm16.773 1.454q0-.61-.281-1.016-.281-.422-.719-.703-.437-.297-.969-.485-.515-.187-1-.343-.703-.235-1.421-.547-.72-.328-1.329-.781-.593-.47-.968-1.094-.375-.64-.375-1.5t.375-1.531q.375-.672.984-1.141.61-.469 1.375-.703.781-.25 1.578-.25.86 0 1.656.297.813.281 1.422.812.625.516 1 1.25.375.735.391 1.64h-1.734q-.079-.562-.282-1.03-.203-.47-.562-.813-.344-.344-.828-.516-.469-.187-1.063-.187-.484 0-.953.14-.453.126-.812.407-.36.265-.579.672-.218.39-.218.922.015.578.297.984.28.39.718.672.438.265.938.453.5.172.953.312.484.157.984.36.5.187.97.437.468.25.858.578.407.313.704.72.312.405.468.89.172.484.172 1.078 0 .89-.406 1.562-.39.672-1.016 1.11-.625.437-1.422.672-.78.218-1.578.218-.89 0-1.734-.265-.844-.281-1.516-.797t-1.093-1.25q-.407-.75-.438-1.703h1.719q.078.625.328 1.11.266.468.656.812.406.328.922.5.531.156 1.156.156.485 0 .97-.125.483-.125.843-.375.375-.266.61-.656.25-.407.25-.953zm5.024-6.5l.047.937q.297-.531.781-.812.5-.297 1.188-.297 1.359 0 1.812 1.047.297-.47.766-.75.484-.297 1.156-.297 1.094 0 1.672.672.578.656.578 2v7.359h-1.594v-7.375q0-1.25-1.14-1.234-.297 0-.516.093-.219.078-.375.22-.14.14-.219.327-.078.188-.11.375v7.594h-1.609v-7.39q0-.594-.265-.907-.266-.328-.828-.312-.532 0-.828.218-.282.203-.422.547v7.844h-1.61v-9.86h1.516zm16.899 9.859q-.094-.188-.157-.469-.062-.297-.093-.61-.25.266-.563.5-.312.22-.703.391-.375.172-.813.266-.421.11-.89.11-.797 0-1.438-.22-.625-.234-1.062-.624-.438-.39-.688-.922-.234-.531-.234-1.156 0-.813.312-1.422.329-.61.922-1.016.594-.406 1.422-.594.844-.203 1.875-.203h1.828v-.781q0-.453-.172-.797-.156-.36-.453-.61-.297-.25-.734-.39-.422-.14-.969-.14-.5 0-.906.14-.39.125-.672.344-.266.203-.422.484-.14.281-.14.594h-1.688q0-.531.266-1.047.281-.531.781-.937.5-.422 1.219-.672.734-.25 1.656-.25.844 0 1.562.203.72.203 1.235.625.531.406.828 1.031.297.61.297 1.438v4.578q0 .5.094 1.047.093.546.25.968v.141h-1.75zm-2.985-1.281q.5 0 .922-.125.438-.14.781-.344.344-.203.594-.469.266-.281.406-.562v-2h-1.562q-1.469 0-2.297.437-.813.438-.813 1.375 0 .36.125.672.125.313.36.531.25.22.625.36.375.125.86.125zm7.961-12.719h5.047v12.547h3.22v1.453h-8.267v-1.453h3.36v-11.078h-3.36v-1.469zm11.196 0h5.047v12.547h3.219v1.453h-8.266v-1.453h3.36v-11.078h-3.36v-1.469z"/><path fill="#f4cccc" d="M557.255 467.421h151.926c19.903 0 36.037 7.163 36.037 15.999s-16.134 15.999-36.037 15.999H557.255c-19.902 0-36.036-7.163-36.036-16 0-8.835 16.134-15.998 36.036-15.998z" fill-rule="evenodd"/><path stroke="#000" stroke-linejoin="round" stroke-linecap="butt" d="M557.255 467.421h151.926c19.903 0 36.037 7.163 36.037 15.999s-16.134 15.999-36.037 15.999H557.255h0c-19.902 0-36.036-7.163-36.036-16 0-8.835 16.134-15.998 36.036-15.998z"/><path fill="#000" d="M624.347 486.902h-4.438l-1.062 3.438h-1.688l4.281-13.266h1.422l4.203 13.266h-1.671l-1.047-3.438zm-3.985-1.468h3.532l-1.75-5.75-1.782 5.75zm10.352-4.953l.125 1.453q.531-.766 1.313-1.188.78-.437 1.75-.437.78 0 1.406.218.64.22 1.078.688.453.453.688 1.172.25.719.25 1.687v6.266h-1.688v-6.219q0-.656-.156-1.11-.14-.452-.422-.734-.281-.296-.703-.421-.406-.125-.953-.125-.844 0-1.485.421-.64.422-1.031 1.125v7.063h-1.687v-9.86h1.515zm13.305 6.359l.438 1.187 3.015-7.546h1.89l-5.015 11.375q-.172.39-.437.812-.266.438-.656.797-.375.36-.891.61-.5.25-1.172.25-.11 0-.266-.016-.14-.016-.296-.047-.141-.016-.266-.047-.125-.016-.203-.047l.265-1.375q.063 0 .172.016.11.015.219.015.125.016.234.016h.172q.36 0 .64-.188.282-.187.5-.453.235-.265.392-.547.156-.28.25-.468l.671-1.313-4.234-9.39h1.875l2.703 6.359z"/><path fill="#d0e0e3" d="M40.255 227.419H192.18c19.903 0 36.037 7.162 36.037 15.998 0 8.836-16.134 15.999-36.037 15.999H40.255c-19.903 0-36.037-7.163-36.037-15.999s16.134-15.998 36.037-15.998z" fill-rule="evenodd"/><path stroke="#000" stroke-linejoin="round" stroke-linecap="butt" d="M40.255 227.419H192.18c19.903 0 36.037 7.162 36.037 15.998 0 8.836-16.134 15.999-36.037 15.999H40.255h0c-19.903 0-36.037-7.163-36.037-15.999s16.134-15.998 36.037-15.998z"/><path fill="#000" d="M92.521 250.337h-1.703l-5.156-9.906-.031 9.906h-1.703v-13.265h1.718l5.141 9.89.031-9.89h1.703v13.265zm9.29-1.36q-.5.735-1.235 1.142-.734.406-1.703.406-.781 0-1.406-.235-.625-.25-1.078-.765-.438-.516-.688-1.297-.234-.781-.234-1.89v-5.86h1.688v5.875q0 .812.125 1.344.125.515.375.828.265.312.625.453.375.125.859.125 1.031 0 1.656-.422.64-.422.953-1.125v-7.078h1.688v9.86h-1.531l-.094-1.36zm5.57-8.5l.047.938q.297-.53.781-.812.5-.297 1.188-.297 1.36 0 1.812 1.047.297-.469.766-.75.484-.297 1.156-.297 1.094 0 1.672.672.578.656.578 2v7.36h-1.593v-7.376q0-1.25-1.141-1.234-.297 0-.516.094-.218.078-.375.218-.14.141-.218.329-.079.187-.11.375v7.593h-1.61v-7.39q0-.594-.265-.907-.265-.328-.828-.312-.531 0-.828.219-.281.203-.422.547v7.843h-1.61v-9.86h1.516zm18.774 5.048q0 1.047-.266 1.969-.25.906-.75 1.593-.484.672-1.203 1.063-.718.375-1.656.375-.953 0-1.656-.328-.688-.344-1.188-.985l-.078 1.125h-1.547v-14h1.688v5.203q.484-.609 1.156-.921.688-.313 1.61-.313.937 0 1.656.375.734.36 1.218 1.031.5.657.75 1.594.266.922.266 2.016v.203zm-1.687-.203q0-.72-.141-1.36-.14-.656-.453-1.156-.313-.5-.813-.781-.5-.297-1.218-.297-.438 0-.813.125-.36.11-.656.312-.281.204-.5.485-.219.265-.375.594v4.312q.156.328.375.61.234.28.515.5.297.203.657.312.375.11.812.11.688 0 1.188-.282.5-.297.812-.781.313-.5.453-1.14.157-.641.157-1.36v-.203zm8.883 5.203q-1.032 0-1.907-.36-.875-.359-1.5-.984-.609-.64-.953-1.516-.344-.875-.344-1.906v-.39q0-1.188.375-2.125.391-.954 1.016-1.594.64-.656 1.438-1 .812-.344 1.656-.344 1.062 0 1.86.375.796.36 1.327 1.016.532.64.782 1.53.265.876.265 1.907v.75h-7.031q.016.688.25 1.281.234.579.64 1.032.407.437.97.703.562.25 1.25.25.906 0 1.593-.36.703-.375 1.172-.968l1.031.797q-.25.375-.625.718-.36.328-.844.594-.484.266-1.093.422-.61.172-1.328.172zm-.22-8.844q-.515 0-.968.188-.453.187-.812.546-.36.36-.625.891-.25.516-.344 1.203h5.297v-.125q-.016-.5-.188-.984-.156-.485-.469-.86-.296-.39-.765-.625-.469-.234-1.125-.234zm13.525-1.375q.234 0 .484.016.266 0 .484.03.235.032.422.079.203.047.344.11l-.234 1.64q-.485-.11-.938-.156-.437-.047-.922-.047-1.187 0-1.922.547-.734.531-1.078 1.484v6.328h-1.687v-9.86h1.593l.094 1.563q.594-.796 1.438-1.265.843-.469 1.922-.469z"/><path fill="#d0e0e3" d="M493.255 163.421h151.926c19.903 0 36.037 7.163 36.037 15.999s-16.134 15.999-36.037 15.999H493.255c-19.902 0-36.037-7.163-36.037-16 0-8.835 16.135-15.998 36.037-15.998z" fill-rule="evenodd"/><path stroke="#000" stroke-linejoin="round" stroke-linecap="butt" d="M493.255 163.421h151.926c19.903 0 36.037 7.163 36.037 15.999s-16.134 15.999-36.037 15.999H493.255h0c-19.902 0-36.037-7.163-36.037-16 0-8.835 16.135-15.998 36.037-15.998z"/><path fill="#000" d="M544.163 182.98q0-.609-.282-1.015-.28-.422-.718-.703-.438-.297-.97-.485-.515-.187-1-.343-.702-.235-1.42-.547-.72-.328-1.33-.781-.593-.47-.968-1.094-.375-.64-.375-1.5t.375-1.531q.375-.672.985-1.141.609-.469 1.375-.703.78-.25 1.578-.25.86 0 1.656.297.812.28 1.422.812.625.516 1 1.25.375.735.39 1.64h-1.734q-.078-.562-.281-1.03-.203-.47-.563-.813-.343-.344-.828-.516-.469-.187-1.062-.187-.485 0-.953.14-.454.126-.813.407-.36.265-.578.672-.219.39-.219.922.016.578.297.984.281.39.719.672.437.265.937.453.5.172.953.312.485.157.985.36.5.187.969.437.468.25.859.578.406.313.703.72.313.405.469.89.172.484.172 1.078 0 .89-.407 1.562-.39.672-1.015 1.11-.625.437-1.422.672-.781.218-1.578.218-.89 0-1.735-.265-.843-.281-1.515-.797-.672-.516-1.094-1.25-.406-.75-.437-1.703h1.718q.078.625.328 1.11.266.468.657.812.406.328.922.5.53.156 1.156.156.484 0 .969-.125.484-.125.843-.375.375-.266.61-.656.25-.407.25-.953zm8.242-8.89v2.39h3.75v1.313h-3.75v5.344q0 .578.14.953.141.375.391.594.266.218.594.312.344.094.719.094.266 0 .547-.031.297-.032.578-.078.281-.047.516-.094.25-.047.406-.094l.234 1.203q-.219.125-.515.219-.297.094-.657.156-.343.078-.75.11-.39.046-.781.046-.656 0-1.234-.187-.563-.188-.985-.594-.422-.406-.672-1.047-.234-.64-.234-1.562v-5.344h-2.578v-1.312h2.578v-2.391h1.703zm13.664 2.219q.235 0 .485.015.265 0 .484.032.235.03.422.078.203.047.344.109l-.235 1.64q-.484-.109-.937-.156-.438-.046-.922-.046-1.187 0-1.922.546-.734.532-1.078 1.485v6.328h-1.687v-9.86h1.593l.094 1.563q.594-.797 1.438-1.266.843-.468 1.921-.468zm4.993.172h5.047v8.406h3.218v1.453h-8.265v-1.453h3.36v-6.938h-3.36v-1.468zm3.14-2.579q0-.421.25-.703.25-.297.766-.297.5 0 .75.297.25.282.25.703 0 .407-.25.688-.25.266-.75.266-.516 0-.766-.266-.25-.281-.25-.688zm9.305 2.579l.125 1.453q.532-.766 1.313-1.188.781-.437 1.75-.437.781 0 1.406.218.64.22 1.078.688.453.453.688 1.172.25.719.25 1.687v6.266h-1.688v-6.219q0-.656-.156-1.11-.14-.452-.422-.734-.281-.296-.703-.421-.406-.125-.953-.125-.844 0-1.484.421-.641.422-1.032 1.125v7.063h-1.687v-9.86h1.515zm9.384 4.843q0-1.093.265-2.015.266-.938.766-1.594.515-.672 1.25-1.031.734-.375 1.64-.375.922 0 1.61.328.687.312 1.172.922l.078-1.078h1.531v9.656q0 .969-.312 1.719-.297.765-.86 1.28-.547.532-1.312.798-.766.28-1.688.28-.39 0-.89-.093-.485-.078-.985-.281-.5-.188-.969-.516-.468-.328-.812-.812l.875-1q.312.375.64.625.329.265.657.422.344.156.672.218.343.063.687.063.594 0 1.078-.172.485-.172.828-.5.344-.328.516-.828.188-.484.188-1.125v-.844q-.485.563-1.157.86-.672.296-1.562.296t-1.625-.375q-.735-.39-1.235-1.062-.5-.688-.78-1.594-.266-.922-.266-1.969v-.203zm1.671.203q0 .72.157 1.36.156.64.468 1.14.329.485.829.782.5.28 1.203.28.437 0 .78-.093.36-.11.642-.297.28-.203.5-.468.218-.266.375-.579v-4.515q-.157-.313-.375-.563-.22-.265-.516-.453-.281-.187-.625-.281-.344-.11-.766-.11-.703 0-1.218.297-.5.282-.829.782-.312.5-.468 1.156-.157.64-.157 1.36v.202z"/><path fill="#d0e0e3" d="M749.255 163.419H901.18c19.903 0 36.037 7.163 36.037 15.998 0 8.836-16.134 16-36.037 16H749.255c-19.903 0-36.037-7.164-36.037-16 0-8.835 16.134-15.998 36.037-15.998z" fill-rule="evenodd"/><path stroke="#000" stroke-linejoin="round" stroke-linecap="butt" d="M749.255 163.419H901.18c19.903 0 36.037 7.163 36.037 15.998 0 8.836-16.134 16-36.037 16H749.255h0c-19.903 0-36.037-7.164-36.037-16 0-8.835 16.134-15.998 36.037-15.998z"/><path fill="#000" d="M793.193 186.337v-13.265h3.953q.813.015 1.594.218.781.204 1.39.641.626.422.985 1.094.36.656.36 1.578-.016.531-.172.953-.157.422-.438.766-.281.343-.656.61-.375.25-.797.421.531.156.969.453.453.281.765.688.329.406.5.921.172.5.172 1.094.016.938-.36 1.656-.358.704-.968 1.188-.61.469-1.406.719-.797.25-1.64.265h-4.25zm1.703-6.203v4.766h2.594q.531 0 1-.172t.828-.469q.375-.297.578-.734.22-.438.22-1 .015-.563-.188-1-.188-.438-.532-.735-.343-.312-.812-.468-.469-.172-1-.188h-2.688zm0-1.406h2.344q.469 0 .922-.14.469-.141.813-.407.359-.281.578-.672.218-.39.218-.906 0-.563-.218-.953-.203-.39-.563-.64-.36-.25-.828-.36-.469-.125-.969-.14h-2.297v4.218zm9.774-2.25h5.047v8.406h3.219v1.453h-8.266v-1.453h3.36v-6.937h-3.36v-1.469zm3.14-2.578q0-.422.25-.703.25-.297.766-.297.5 0 .75.297.25.281.25.703 0 .406-.25.687-.25.266-.75.266-.515 0-.765-.266-.25-.28-.25-.687zm7.493 7.422q0-1.094.266-2.016.265-.937.765-1.594.516-.672 1.25-1.03.735-.376 1.641-.376.922 0 1.61.328.687.313 1.171.922l.078-1.078h1.532v9.656q0 .969-.313 1.719-.297.766-.86 1.281-.546.531-1.312.797-.765.281-1.687.281-.39 0-.89-.093-.485-.079-.985-.282-.5-.187-.969-.515t-.812-.813l.875-1q.312.375.64.625.328.266.656.422.344.156.672.219.344.062.688.062.594 0 1.078-.172.484-.171.828-.5.344-.328.516-.828.187-.484.187-1.125v-.843q-.484.562-1.156.859-.672.297-1.563.297-.89 0-1.625-.375-.734-.39-1.234-1.063-.5-.687-.781-1.593-.266-.922-.266-1.97v-.202zm1.672.203q0 .719.156 1.36.157.64.47 1.14.327.484.827.781.5.281 1.203.281.438 0 .782-.093.359-.11.64-.297.281-.203.5-.469.219-.266.375-.578v-4.516q-.156-.312-.375-.562-.219-.266-.515-.453-.282-.188-.625-.282-.344-.109-.766-.109-.703 0-1.219.297-.5.281-.828.781-.312.5-.469 1.156-.156.641-.156 1.36v.203zm9.82-8.453h8.016v1.468h-3.172v10.344h3.172v1.453h-8.015v-1.453h3.109V174.54h-3.11v-1.468zm12.712 3.406l.125 1.453q.531-.766 1.312-1.187.782-.438 1.75-.438.782 0 1.407.219.64.219 1.078.687.453.453.687 1.172.25.719.25 1.688v6.265h-1.687v-6.218q0-.657-.157-1.11-.14-.453-.421-.734-.282-.297-.704-.422-.406-.125-.953-.125-.843 0-1.484.422-.64.422-1.031 1.125v7.062h-1.688v-9.859h1.516zm13.68-2.39v2.39h3.75v1.312h-3.75v5.344q0 .578.14.953.141.375.391.594.266.219.594.313.344.093.719.093.265 0 .546-.03.297-.032.579-.079.28-.047.515-.094.25-.047.406-.094l.235 1.204q-.219.125-.516.218-.297.094-.656.157-.344.078-.75.109-.39.047-.781.047-.657 0-1.235-.188-.562-.187-.984-.593-.422-.407-.672-1.047-.234-.64-.234-1.563v-5.344h-2.578v-1.312h2.578v-2.39h1.703z"/><path fill="#d0e0e3" d="M109.255 379.421H261.18c19.903 0 36.037 7.163 36.037 15.999s-16.134 15.999-36.037 15.999H109.255c-19.903 0-36.037-7.163-36.037-16 0-8.835 16.134-15.998 36.037-15.998z" fill-rule="evenodd"/><path stroke="#000" stroke-linejoin="round" stroke-linecap="butt" d="M109.255 379.421H261.18c19.903 0 36.037 7.163 36.037 15.999s-16.134 15.999-36.037 15.999H109.255h0c-19.903 0-36.037-7.163-36.037-16 0-8.835 16.134-15.998 36.037-15.998z"/><path fill="#000" d="M111.141 402.34h-1.703l-5.156-9.906-.031 9.906h-1.703v-13.266h1.718l5.141 9.89.031-9.89h1.703v13.266zm9.29-1.36q-.5.735-1.235 1.141-.734.406-1.703.406-.781 0-1.406-.234-.625-.25-1.078-.766-.438-.515-.688-1.296-.234-.782-.234-1.891v-5.86h1.687v5.876q0 .812.125 1.343.125.516.375.828.266.313.625.454.375.125.86.125 1.031 0 1.656-.422.64-.422.953-1.125v-7.078h1.688v9.859h-1.532l-.093-1.36zm5.57-8.5l.047.938q.297-.531.781-.812.5-.297 1.188-.297 1.36 0 1.812 1.047.297-.47.766-.75.484-.297 1.156-.297 1.094 0 1.672.672.578.656.578 2v7.359h-1.593v-7.375q0-1.25-1.141-1.234-.297 0-.516.093-.218.078-.375.219-.14.14-.218.328-.079.188-.11.375v7.594h-1.61v-7.39q0-.594-.265-.907-.265-.328-.828-.312-.531 0-.828.218-.281.203-.422.547v7.844h-1.61v-9.86h1.516zm18.774 5.047q0 1.047-.266 1.97-.25.905-.75 1.593-.484.672-1.203 1.062-.719.375-1.656.375-.953 0-1.656-.328-.688-.343-1.188-.984l-.078 1.125h-1.547v-14h1.688v5.203q.484-.61 1.156-.922.687-.312 1.61-.312.937 0 1.656.375.734.359 1.218 1.03.5.657.75 1.595.266.922.266 2.015v.203zm-1.688-.203q0-.718-.14-1.36-.14-.655-.453-1.155t-.813-.782q-.5-.296-1.219-.296-.437 0-.812.125-.36.109-.656.312-.282.203-.5.484-.219.266-.375.594v4.313q.156.328.375.609.234.281.515.5.297.203.657.313.375.109.812.109.688 0 1.188-.281.5-.297.812-.782.313-.5.453-1.14.156-.64.156-1.36v-.203zm8.884 5.203q-1.032 0-1.907-.359-.875-.36-1.5-.984-.61-.641-.953-1.516-.344-.875-.344-1.906v-.39q0-1.188.375-2.126.391-.953 1.016-1.594.64-.656 1.438-1 .812-.343 1.656-.343 1.062 0 1.86.375.796.359 1.327 1.015.532.64.782 1.532.265.875.265 1.906v.75h-7.031q.016.687.25 1.281.234.578.64 1.031.407.438.97.703.562.25 1.25.25.906 0 1.593-.359.703-.375 1.172-.969l1.031.797q-.25.375-.625.719-.36.328-.844.594-.484.265-1.093.422-.61.171-1.328.171zm-.22-8.843q-.515 0-.968.187-.453.188-.812.547-.36.36-.625.89-.25.516-.344 1.204h5.297v-.125q-.016-.5-.188-.985-.156-.484-.469-.859-.296-.39-.765-.625-.469-.234-1.125-.234zm13.524-1.375q.235 0 .485.015.265 0 .484.032.235.03.422.078.203.047.344.109l-.235 1.64q-.484-.109-.937-.156-.438-.046-.922-.046-1.187 0-1.922.546-.734.532-1.078 1.485v6.328h-1.687v-9.86h1.593l.094 1.563q.594-.797 1.438-1.266.843-.468 1.921-.468zm13.368 4.172q-.016.703-.14 1.437-.11.719-.344 1.39-.235.673-.61 1.266-.36.578-.875 1.016-.5.437-1.172.687-.656.25-1.468.25-.829 0-1.485-.25-.656-.25-1.172-.687-.515-.438-.89-1.031-.375-.594-.61-1.266-.234-.672-.36-1.39-.124-.72-.124-1.422v-1.516q0-.719.11-1.438.124-.718.359-1.39.25-.688.61-1.266.374-.594.874-1.031.516-.438 1.172-.688.672-.265 1.484-.265.828 0 1.485.265.672.25 1.172.688.515.437.875 1.031.375.578.609 1.25.25.672.36 1.406.124.72.14 1.438v1.516zm-1.672-1.532q-.016-.484-.078-1-.047-.515-.188-1.015-.125-.5-.343-.953-.22-.47-.547-.813-.328-.36-.781-.562-.438-.204-1.032-.204-.578 0-1.03.204-.438.203-.767.562-.328.344-.546.813-.22.453-.36.968-.125.5-.187 1.016-.063.516-.063.984v1.532q0 .453.063.984.062.516.203 1.016.14.5.36.968.218.469.546.828.328.344.766.563.453.203 1.047.203.578 0 1.03-.203.454-.219.782-.563.328-.359.531-.812.22-.469.344-.969.14-.515.188-1.031.046-.516.062-.984v-1.532zm10.696-2.64q.234 0 .484.015.266 0 .484.032.235.03.422.078.203.047.344.109l-.234 1.64q-.485-.109-.938-.156-.437-.046-.922-.046-1.187 0-1.922.546-.734.532-1.078 1.485v6.328h-1.687v-9.86h1.593l.094 1.563q.594-.797 1.438-1.266.843-.468 1.922-.468zm13.367 4.172q-.016.703-.14 1.437-.11.719-.344 1.39-.235.673-.61 1.266-.36.578-.875 1.016-.5.437-1.172.687-.656.25-1.468.25-.828 0-1.485-.25-.656-.25-1.172-.687-.515-.438-.89-1.031-.375-.594-.61-1.266-.234-.672-.359-1.39-.125-.72-.125-1.422v-1.516q0-.719.11-1.438.124-.718.359-1.39.25-.688.61-1.266.374-.594.874-1.031.516-.438 1.172-.688.672-.265 1.484-.265.829 0 1.485.265.672.25 1.172.688.515.437.875 1.031.375.578.61 1.25.25.672.358 1.406.125.72.141 1.438v1.516zm-1.672-1.532q-.015-.484-.078-1-.047-.515-.187-1.015-.125-.5-.344-.953-.219-.47-.547-.813-.328-.36-.781-.562-.438-.204-1.032-.204-.578 0-1.03.204-.438.203-.766.562-.329.344-.547.813-.22.453-.36.968-.125.5-.187 1.016-.063.516-.063.984v1.532q0 .453.063.984.062.516.203 1.016.14.5.36.968.218.469.546.828.328.344.766.563.453.203 1.047.203.578 0 1.03-.203.454-.219.782-.563.328-.359.531-.812.22-.469.344-.969.14-.515.188-1.031.047-.516.062-.984v-1.532zm3.915 2.375q0-1.093.28-2.015.282-.938.782-1.594.516-.672 1.25-1.031.734-.375 1.625-.375.89 0 1.547.297.672.28 1.14.859v-5.125h1.688v14h-1.547l-.062-1.031q-.5.593-1.188.906-.672.312-1.594.312-.89 0-1.625-.375-.718-.39-1.234-1.062-.5-.688-.781-1.594-.281-.922-.281-1.969v-.203zm1.687.203q0 .72.156 1.36.157.64.469 1.14.328.485.828.782.5.28 1.203.28.438 0 .782-.093.343-.11.625-.297.28-.187.5-.437.218-.266.375-.578v-4.578q-.329-.594-.891-.985-.547-.39-1.375-.39-.703 0-1.219.296-.5.282-.828.782-.312.5-.469 1.156-.156.64-.156 1.36v.202zm9.508-.203q0-1.093.281-2.015.282-.938.782-1.594.515-.672 1.25-1.031.734-.375 1.625-.375.89 0 1.546.297.672.28 1.141.859v-5.125h1.688v14h-1.547l-.063-1.031q-.5.593-1.187.906-.672.312-1.594.312-.89 0-1.625-.375-.719-.39-1.234-1.062-.5-.688-.782-1.594-.28-.922-.28-1.969v-.203zm1.688.203q0 .72.156 1.36.156.64.469 1.14.328.485.828.782.5.28 1.203.28.437 0 .781-.093.344-.11.625-.297t.5-.437q.219-.266.375-.578v-4.578q-.328-.594-.89-.985-.547-.39-1.376-.39-.703 0-1.218.296-.5.282-.828.782-.313.5-.47 1.156-.155.64-.155 1.36v.202zm18.18 0q0 1.047-.266 1.97-.25.905-.75 1.593-.484.672-1.203 1.062-.719.375-1.656.375-.954 0-1.657-.328-.687-.343-1.187-.984l-.078 1.125h-1.547v-14h1.687v5.203q.485-.61 1.157-.922.687-.312 1.609-.312.937 0 1.656.375.735.359 1.219 1.03.5.657.75 1.595.266.922.266 2.015v.203zm-1.688-.203q0-.718-.14-1.36-.141-.655-.454-1.155-.312-.5-.812-.782-.5-.296-1.219-.296-.437 0-.812.125-.36.109-.657.312-.281.203-.5.484-.218.266-.375.594v4.313q.157.328.375.609.235.281.516.5.297.203.656.313.375.109.813.109.687 0 1.187-.281.5-.297.813-.782.312-.5.453-1.14.156-.64.156-1.36v-.203zm11.008 5.016q-.094-.188-.156-.469-.063-.297-.094-.61-.25.266-.562.5-.313.22-.704.391-.375.172-.812.266-.422.11-.89.11-.798 0-1.438-.22-.625-.234-1.063-.624-.437-.391-.687-.922-.235-.531-.235-1.156 0-.813.313-1.422.328-.61.922-1.016.594-.406 1.422-.594.843-.203 1.875-.203h1.828v-.781q0-.453-.172-.797-.156-.36-.453-.61-.297-.25-.735-.39-.421-.14-.968-.14-.5 0-.907.14-.39.125-.671.344-.266.203-.422.484-.14.281-.14.594h-1.688q0-.531.265-1.047.281-.531.781-.937.5-.422 1.22-.672.734-.25 1.655-.25.844 0 1.563.203t1.234.625q.532.406.828 1.031.297.61.297 1.438v4.578q0 .5.094 1.047.094.546.25.968v.14h-1.75zm-2.984-1.281q.5 0 .922-.125.437-.141.78-.344.345-.203.595-.469.265-.281.406-.562v-2h-1.563q-1.468 0-2.297.437-.812.438-.812 1.375 0 .36.125.672.125.313.36.531.25.219.624.36.375.125.86.125zm7.96-12.72h5.048v12.548h3.219v1.453h-8.266v-1.453h3.36v-11.078h-3.36v-1.47zm11.196 0h5.047v12.548h3.22v1.453h-8.267v-1.453h3.36v-11.078h-3.36v-1.47z"/><path d="M409.218 43.416c0 23-34 34.501-68 46.001s-68 23-68 46"/><path stroke="#666" stroke-width="2" stroke-linejoin="round" stroke-linecap="butt" d="M409.218 43.416c0 23-34 34.501-68 46.001-17 5.75-34 11.5-46.75 18.687-6.375 3.594-11.688 7.547-15.407 12.039a29.01 29.01 0 0 0-2.482 3.473l-.142.24"/><path fill="#666" stroke="#666" stroke-width="2" stroke-linecap="butt" d="M273.255 122.97l.747 9.63 5.618-7.858z" fill-rule="evenodd"/><path d="M409.218 43.416c0 30.001 40 45.003 80 60.003s80 29.998 80 59.997"/><path stroke="#666" stroke-width="2" stroke-linejoin="round" stroke-linecap="butt" d="M409.218 43.416c0 30.001 40 45.003 80 60.003 20 7.5 40 15 55 24.374 7.5 4.687 13.75 9.843 18.125 15.702a38.042 38.042 0 0 1 2.92 4.53 33.997 33.997 0 0 1 1.693 3.584l.008.02"/><path fill="#666" stroke="#666" stroke-width="2" stroke-linecap="butt" d="M563.72 152.25l4.948 8.294 1.54-9.535z" fill-rule="evenodd"/><path d="M409.218 43.416c0 30 104 45.001 208 60.001s208 30 208 60"/><path stroke="#666" stroke-width="2" stroke-linejoin="round" stroke-linecap="butt" d="M409.218 43.416c0 30 104 45.001 208 60.001 52 7.5 104 15 143 24.375 19.5 4.687 35.75 9.843 47.125 15.703 2.843 1.464 5.382 2.973 7.591 4.53a40.933 40.933 0 0 1 3.063 2.37 32.337 32.337 0 0 1 1.96 1.827l.272.28"/><path fill="#666" stroke="#666" stroke-width="2" stroke-linecap="butt" d="M817.224 153.876l6.778 6.881-.769-9.628z" fill-rule="evenodd"/><path d="M409.218 43.416c0 106.002 56 159.004 112 212.004s112 105.998 112 211.996"/><path stroke="#666" stroke-width="2" stroke-linejoin="round" stroke-linecap="butt" d="M409.218 43.416c0 106.002 56 159.004 112 212.004 28 26.5 56 53 77 86.124 10.5 16.562 19.25 34.78 25.375 55.483 3.062 10.351 5.468 21.324 7.109 33.02.82 5.85 1.45 11.879 1.873 18.103a271.967 271.967 0 0 1 .39 7.084l.007.185"/><path fill="#666" stroke="#666" stroke-width="2" stroke-linecap="butt" d="M629.67 455.486l3.488 9.007 3.117-9.142z" fill-rule="evenodd"/><path d="M273.218 167.415c0 15-39.252 22.502-78.504 30.002s-78.504 14.999-78.504 29.998"/><path stroke="#666" stroke-width="2" stroke-linejoin="round" stroke-linecap="butt" d="M273.218 167.415c0 15-39.252 22.502-78.504 30.002-19.626 3.75-39.252 7.5-53.971 12.186-7.36 2.344-13.493 4.922-17.786 7.851l-.027.019"/><path fill="#666" stroke="#666" stroke-width="2" stroke-linecap="butt" d="M120.193 215.623l-2.345 9.37 7.82-5.67z" fill-rule="evenodd"/><path d="M116.218 259.416c0 30.001 17.251 45.002 34.503 60.002s34.504 30 34.504 59.998"/><path stroke="#666" stroke-width="2" stroke-linejoin="round" stroke-linecap="butt" d="M116.218 259.416c0 30.001 17.251 45.002 34.503 60.002 8.626 7.5 17.252 15 23.722 24.375 3.235 4.687 5.93 9.843 7.817 15.702a58.52 58.52 0 0 1 1.768 6.9l.113.605.082.458"/><path fill="#666" stroke="#666" stroke-width="2" stroke-linecap="butt" d="M180.931 367.734l4.05 8.768 2.534-9.32z" fill-rule="evenodd"/><path d="M185.218 411.419c0 14 112 21 224 28s224 14 224 28"/><path stroke="#666" stroke-width="2" stroke-linejoin="round" stroke-linecap="butt" d="M185.218 411.419c0 14 112 21 224 28 56 3.5 112 7 154 11.375 21 2.188 38.5 4.594 50.75 7.328 3.062.684 5.796 1.388 8.175 2.114.298.09.59.182.876.273l.315.104"/><path fill="#666" stroke="#666" stroke-width="2" stroke-linecap="butt" d="M621.46 463.334l9.35 2.426-5.602-7.868z" fill-rule="evenodd"/><path d="M569.218 195.419c0 68 16 102 32 136s32 68 32 136"/><path stroke="#666" stroke-width="2" stroke-linejoin="round" stroke-linecap="butt" d="M569.218 195.419c0 68 16 102 32 136 8 17 16 34 22 55.25 3 10.625 5.5 22.312 7.25 35.593a309.496 309.496 0 0 1 2.031 21.184c.235 3.752.414 7.62.536 11.613l.01.36"/><path fill="#666" stroke="#666" stroke-width="2" stroke-linecap="butt" d="M629.742 455.468l3.434 9.027 3.172-9.123z" fill-rule="evenodd"/><path d="M825.217 195.416c0 68.001-48 102.003-96 136.003-48 34-96 67.998-96 135.997"/><path stroke="#666" stroke-width="2" stroke-linejoin="round" stroke-linecap="butt" d="M825.217 195.416c0 68.001-48 102.003-96 136.003-24 17-48 34-66 55.249-9 10.625-16.5 22.312-21.75 35.593a115.1 115.1 0 0 0-6.093 21.183 123.993 123.993 0 0 0-1.606 11.613l-.032.37"/><path fill="#666" stroke="#666" stroke-width="2" stroke-linecap="butt" d="M630.435 455.285l2.909 9.21 3.692-8.925z" fill-rule="evenodd"/><path d="M273.218 167.415c0 75.001 90 112.503 180 150.003 90 37.5 180 74.998 180 149.997"/><path stroke="#666" stroke-width="2" stroke-linejoin="round" stroke-linecap="butt" d="M273.218 167.415c0 75.001 90 112.503 180 150.003 45 18.75 90 37.5 123.75 60.936 16.875 11.719 30.938 24.609 40.781 39.257 4.922 7.324 8.79 15.088 11.426 23.364a84.835 84.835 0 0 1 3.25 14.466h0"/><path fill="#666" stroke="#666" stroke-width="2" stroke-linecap="butt" d="M629.13 455.66l3.895 8.837 2.697-9.274z" fill-rule="evenodd"/><path d="M116.218 259.416c0 52.001 129.251 78.002 258.503 104.002 129.252 26 258.504 52 258.504 103.998"/><path stroke="#666" stroke-width="2" stroke-linejoin="round" stroke-linecap="butt" d="M116.218 259.416c0 52.001 129.252 78.002 258.503 104.002 64.626 13 129.252 26 177.722 42.25 24.235 8.124 44.43 17.061 58.567 27.218 7.069 5.078 12.622 10.46 16.41 16.198a38.93 38.93 0 0 1 2.504 4.371 35.457 35.457 0 0 1 .764 1.675l.212.513"/><path fill="#666" stroke="#666" stroke-width="2" stroke-linecap="butt" d="M627.66 456.284l4.999 8.264 1.482-9.545z" fill-rule="evenodd"/><path d="M409.218 43.416c0 118.514-56 195.028-112 237.028s-112 49.486-112 98.972"/><path stroke="#666" stroke-width="2" stroke-linejoin="round" stroke-linecap="butt" d="M409.218 43.416c0 118.514-56 195.028-112 237.028-28 21-56 33.371-77 46.679-10.5 6.653-19.25 13.541-25.375 21.858-3.063 4.159-5.47 8.674-7.11 13.697a48.156 48.156 0 0 0-1.2 4.362l-.097.438"/><path fill="#666" stroke="#666" stroke-width="2" stroke-linecap="butt" d="M183.15 367.143l2.364 9.364 4.209-8.693z" fill-rule="evenodd"/><path d="M409.218 43.416c0 21.192-73.252 19.385-146.504 42.385-73.252 23-146.504 70.807-146.504 141.615"/><path stroke="#666" stroke-width="2" stroke-linejoin="round" stroke-linecap="butt" d="M409.218 43.416c0 21.192-73.252 19.385-146.504 42.385-36.626 11.5-73.252 29.201-100.722 52.88-13.735 11.838-25.18 25.171-33.192 39.97-4.006 7.4-7.154 15.165-9.3 23.294a99.015 99.015 0 0 0-2.55 13.262l-.028.23"/><path fill="#666" stroke="#666" stroke-width="2" stroke-linecap="butt" d="M113.624 215.241l2.76 9.256 3.836-8.864z" fill-rule="evenodd"/><path d="M273.218 167.415c0 53.002-22 79.504-44 106.004s-44 52.998-44 105.996"/><path stroke="#666" stroke-width="2" stroke-linejoin="round" stroke-linecap="butt" d="M273.218 167.415c0 53.002-22 79.504-44 106.004-11 13.25-22 26.5-30.25 43.061A125.26 125.26 0 0 0 189 344.22c-1.203 5.176-2.148 10.663-2.793 16.51a157.068 157.068 0 0 0-.514 5.591l-.078 1.1"/><path fill="#666" stroke="#666" stroke-width="2" stroke-linecap="butt" d="M182.312 367.312l3.003 9.18 3.6-8.962z" fill-rule="evenodd"/></g></svg>