<svg viewBox="0 0 812.302 450.291" fill="none" stroke-linecap="square" stroke-miterlimit="10" xmlns="http://www.w3.org/2000/svg"><clipPath id="a"><path d="M0 0h812.302v450.291H0V0z"/></clipPath><g clip-path="url(#a)"><path d="M0 0h812.302v450.291H0z"/><path d="M9.932 9.23h922.016v60.126H9.932z"/><path fill="#0277bd" d="M40.744 39.978q0 3.625-1.218 6.329-1.22 2.703-3.454 4.125-2.234 1.421-5.203 1.421-2.922 0-5.172-1.421-2.25-1.438-3.5-4.079-1.234-2.656-1.265-6.14v-1.781q0-3.563 1.234-6.282 1.235-2.718 3.485-4.172 2.265-1.453 5.171-1.453 2.97 0 5.22 1.438 2.265 1.437 3.484 4.156 1.218 2.703 1.218 6.313v1.546zM37.51 38.4q0-4.39-1.766-6.734-1.75-2.344-4.922-2.344-3.078 0-4.843 2.344-1.766 2.344-1.813 6.516v1.796q0 4.25 1.781 6.688 1.782 2.422 4.922 2.422 3.14 0 4.86-2.281 1.734-2.297 1.78-6.579V38.4zm23.076 4.157q0 4.187-1.906 6.75-1.906 2.546-5.172 2.546-3.344 0-5.25-2.125v8.829h-3.125v-25.36h2.86l.14 2.031q1.922-2.359 5.312-2.359 3.313 0 5.22 2.484 1.921 2.485 1.921 6.922v.282zm-3.125-.36q0-3.094-1.328-4.875-1.313-1.797-3.61-1.797-2.843 0-4.265 2.516v8.75q1.406 2.5 4.297 2.5 2.25 0 3.578-1.781 1.328-1.782 1.328-5.313zm11.35-13.437v4.437h3.422v2.422H68.81v11.36q0 1.093.453 1.656.469.547 1.562.547.547 0 1.5-.204v2.532q-1.234.343-2.406.343-2.094 0-3.172-1.265-1.062-1.281-1.062-3.61V35.62h-3.328v-2.422h3.328V28.76h3.125zm10.477 22.75h-3.125V33.197h3.125V51.51zm-3.375-23.172q0-.75.453-1.281.469-.532 1.375-.532.922 0 1.39.532.485.53.485 1.296 0 .75-.485 1.266-.468.5-1.39.5-.906 0-1.375-.5-.453-.516-.453-1.281zm11.332 4.86l.078 2.03q2.016-2.359 5.437-2.359 3.844 0 5.235 2.938.906-1.329 2.375-2.125 1.469-.813 3.453-.813 6.031 0 6.125 6.375V51.51h-3.125V39.432q0-1.97-.906-2.938-.89-.969-3-.969-1.75 0-2.907 1.047-1.14 1.031-1.328 2.781V51.51h-3.14v-12q0-3.985-3.907-3.985-3.093 0-4.218 2.61V51.51h-3.125V33.197h2.953zm30.828 18.312h-3.125V33.197h3.125V51.51zm-3.375-23.172q0-.75.453-1.281.469-.532 1.375-.532.922 0 1.39.532.485.53.485 1.296 0 .75-.484 1.266-.469.5-1.39.5-.907 0-1.376-.5-.453-.516-.453-1.281zm11.332 20.61h10.719v2.562h-14.547v-2.297l10.11-13.422h-9.954v-2.594h13.875v2.219L126.03 48.947zm25.535 2.562q-.265-.547-.437-1.922-2.188 2.265-5.219 2.265-2.703 0-4.437-1.53-1.735-1.532-1.735-3.891 0-2.86 2.172-4.438 2.172-1.578 6.125-1.578h3.047v-1.453q0-1.64-.984-2.61-.985-.968-2.891-.968-1.688 0-2.828.843-1.125.844-1.125 2.047h-3.14q0-1.375.968-2.64.969-1.282 2.64-2.016 1.672-.75 3.672-.75 3.157 0 4.954 1.578 1.796 1.578 1.859 4.36v8.421q0 2.516.64 4.016v.266h-3.28zm-5.187-2.391q1.469 0 2.781-.75 1.328-.766 1.922-1.984v-3.766h-2.453q-5.766 0-5.766 3.375 0 1.469.985 2.297.984.828 2.53.828zm16.976-20.36v4.438h3.422v2.422h-3.422v11.36q0 1.093.453 1.656.469.547 1.563.547.546 0 1.5-.204v2.532q-1.235.343-2.407.343-2.093 0-3.172-1.265-1.062-1.281-1.062-3.61V35.62H156.9v-2.422h3.328V28.76h3.125zm10.477 22.75h-3.125V33.198h3.125V51.51zm-3.375-23.171q0-.75.453-1.281.469-.532 1.375-.532.922 0 1.39.532.485.53.485 1.296 0 .75-.484 1.266-.469.5-1.39.5-.907 0-1.376-.5-.453-.516-.453-1.281zm7.566 13.844q0-2.688 1.047-4.829 1.063-2.156 2.938-3.312 1.89-1.172 4.312-1.172 3.75 0 6.047 2.594 2.313 2.578 2.313 6.875v.219q0 2.671-1.032 4.796-1.015 2.125-2.921 3.313-1.891 1.187-4.375 1.187-3.72 0-6.032-2.593-2.297-2.594-2.297-6.86v-.218zm3.141.375q0 3.046 1.406 4.89 1.422 1.844 3.782 1.844 2.39 0 3.796-1.86 1.407-1.874 1.407-5.25 0-3.015-1.438-4.874-1.422-1.875-3.797-1.875-2.312 0-3.734 1.843-1.422 1.844-1.422 5.282zm20.406-9.36l.109 2.297q2.094-2.625 5.484-2.625 5.797 0 5.844 6.547V51.51h-3.125V39.4q-.016-1.984-.906-2.922-.89-.953-2.766-.953-1.531 0-2.687.813-1.14.812-1.782 2.125V51.51h-3.125V33.197h2.954zm31.498 6.86l-3.016 3.125v8.328h-3.25V26.869h3.25v12.188l10.953-12.188h3.922l-9.703 10.89 10.469 13.75h-3.89l-8.735-11.452zm18.368 11.453h-3.125V33.197h3.125V51.51zm-3.375-23.172q0-.75.453-1.281.47-.532 1.375-.532.922 0 1.391.532.484.53.484 1.296 0 .75-.484 1.266-.469.5-1.39.5-.907 0-1.376-.5-.453-.516-.453-1.281zm11.785 23.172h-3.125v-26h3.125v26zm8.41 0h-3.124v-26h3.125v26zm12.614.343q-3.719 0-6.062-2.437-2.329-2.453-2.329-6.547v-.578q0-2.734 1.032-4.875 1.047-2.14 2.906-3.344 1.875-1.203 4.062-1.203 3.563 0 5.547 2.36 1.985 2.343 1.985 6.718v1.297h-12.407q.063 2.719 1.579 4.39 1.515 1.657 3.859 1.657 1.656 0 2.797-.672 1.156-.687 2.015-1.797l1.922 1.485q-2.312 3.546-6.906 3.546zm-.39-16.421q-1.891 0-3.188 1.39-1.281 1.375-1.578 3.86h9.172v-.235q-.14-2.39-1.297-3.703-1.14-1.312-3.11-1.312zm20 .578q-.703-.125-1.546-.125-3.079 0-4.172 2.625v13h-3.125V33.197h3.047l.046 2.125q1.532-2.453 4.36-2.453.922 0 1.39.234v2.907zm13.54 10.64q0-1.265-.953-1.968-.953-.704-3.344-1.204-2.375-.515-3.766-1.218-1.39-.72-2.062-1.703-.672-.985-.672-2.329 0-2.25 1.906-3.796 1.906-1.563 4.86-1.563 3.109 0 5.046 1.61 1.938 1.593 1.938 4.109h-3.14q0-1.297-1.094-2.219-1.094-.937-2.75-.937-1.704 0-2.672.75-.969.734-.969 1.937 0 1.14.89 1.719.907.578 3.25 1.11 2.344.515 3.797 1.25 1.454.718 2.157 1.75.703 1.015.703 2.484 0 2.453-1.969 3.937-1.953 1.484-5.078 1.484-2.203 0-3.906-.78-1.688-.782-2.64-2.173-.954-1.406-.954-3.031h3.125q.094 1.578 1.266 2.5 1.171.922 3.109.922 1.766 0 2.844-.719 1.078-.719 1.078-1.922z"/><path d="M9.932 82.385h922.016v358.677H9.932z"/><path fill="#666" d="M35.686 102.487q1.297 0 2.53.672 1.25.672 1.938 1.922.688 1.234.688 2.562 0 2.157-1.516 3.672-1.5 1.5-3.64 1.5-2.141 0-3.657-1.5-1.5-1.515-1.5-3.672 0-1.343.688-2.578.687-1.234 1.922-1.906 1.25-.672 2.547-.672zm45.824 9.703q-.86 1.235-2.422 1.86-1.547.609-3.61.609-2.093 0-3.718-.969-1.61-.984-2.5-2.781-.875-1.813-.89-4.203v-1.485q0-3.859 1.796-5.968 1.797-2.125 5.047-2.125 2.672 0 4.297 1.375 1.64 1.359 2 3.859h-2.25q-.625-3.39-4.031-3.39-2.266 0-3.438 1.593-1.156 1.594-1.172 4.594v1.406q0 2.86 1.313 4.563 1.312 1.687 3.562 1.687 1.266 0 2.203-.281.954-.281 1.579-.953v-3.828h-3.954v-1.828h6.188v6.265zm8.676 2.469q-2.578 0-4.203-1.688-1.61-1.703-1.61-4.53v-.407q0-1.89.719-3.36.719-1.484 2.016-2.328 1.296-.843 2.812-.843 2.469 0 3.828 1.64 1.375 1.625 1.375 4.657v.906h-8.578q.047 1.875 1.094 3.031 1.047 1.156 2.656 1.156 1.156 0 1.953-.468.797-.47 1.39-1.25l1.329 1.03q-1.594 2.454-4.781 2.454zm-.266-11.375q-1.312 0-2.203.969-.89.953-1.11 2.672h6.36v-.172q-.094-1.641-.89-2.547-.798-.922-2.157-.922zm9.762-1.547l.078 1.594q1.453-1.828 3.797-1.828 4.015 0 4.047 4.547v8.375h-2.157v-8.391q-.015-1.375-.64-2.031-.61-.657-1.906-.657-1.063 0-1.86.563-.797.562-1.234 1.484v9.032h-2.172v-12.688h2.047zm16.46 12.922q-2.577 0-4.202-1.688-1.61-1.703-1.61-4.53v-.407q0-1.89.719-3.36.719-1.484 2.016-2.328 1.296-.843 2.812-.843 2.469 0 3.828 1.64 1.375 1.625 1.375 4.657v.906h-8.578q.047 1.875 1.094 3.031 1.047 1.156 2.656 1.156 1.156 0 1.953-.468.797-.47 1.39-1.25l1.329 1.03q-1.594 2.454-4.781 2.454zm-.265-11.375q-1.312 0-2.203.969-.89.953-1.11 2.672h6.36v-.172q-.094-1.641-.89-2.547-.798-.922-2.157-.922zm13.84.406q-.484-.078-1.063-.078-2.125 0-2.89 1.813v9h-2.172v-12.688h2.11l.03 1.469q1.079-1.703 3.032-1.703.625 0 .953.172v2.015zm9.824 10.735q-.187-.375-.297-1.344-1.515 1.578-3.61 1.578-1.874 0-3.077-1.063-1.203-1.062-1.203-2.687 0-1.984 1.5-3.078 1.515-1.094 4.234-1.094h2.11v-1q0-1.14-.688-1.812-.672-.672-1.984-.672-1.172 0-1.954.593-.78.579-.78 1.407h-2.188q0-.938.672-1.828.687-.891 1.828-1.407 1.156-.515 2.547-.515 2.187 0 3.421 1.109 1.25 1.094 1.297 3.016v5.828q0 1.75.453 2.781v.188h-2.28zm-3.594-1.657q1.016 0 1.922-.515.922-.532 1.328-1.375v-2.61h-1.687q-3.984 0-3.984 2.328 0 1.032.671 1.61.688.562 1.75.562zm11.758-14.093v3.062h2.375v1.688h-2.375v7.859q0 .766.313 1.14.328.376 1.093.376.375 0 1.032-.141v1.766q-.86.234-1.672.234-1.453 0-2.188-.875-.734-.89-.734-2.5v-7.86h-2.313v-1.687h2.313v-3.062h2.156zm4.324 9.296q0-1.875.735-3.359.734-1.484 2.031-2.297 1.313-.812 3-.812 2.578 0 4.172 1.797 1.61 1.796 1.61 4.765v.156q0 1.86-.72 3.329-.703 1.468-2.015 2.296-1.313.813-3.031.813-2.578 0-4.188-1.797-1.594-1.797-1.594-4.75v-.14zm2.188.25q0 2.11.969 3.391.984 1.281 2.625 1.281 1.656 0 2.625-1.297.968-1.296.968-3.625 0-2.093-.984-3.39-.984-1.297-2.625-1.297-1.61 0-2.594 1.281-.984 1.281-.984 3.656zm18.203-4.53q-.484-.079-1.062-.079-2.125 0-2.891 1.813v9h-2.172v-12.688h2.11l.03 1.469q1.079-1.703 3.032-1.703.625 0 .953.172v2.015zm9.387 7.374q0-.89-.672-1.375-.656-.484-2.313-.828-1.64-.36-2.609-.844-.969-.5-1.437-1.172-.454-.687-.454-1.625 0-1.562 1.313-2.64 1.328-1.078 3.375-1.078 2.156 0 3.5 1.125 1.344 1.109 1.344 2.843h-2.188q0-.89-.75-1.53-.75-.657-1.906-.657-1.188 0-1.86.516-.656.515-.656 1.359 0 .781.61 1.187.625.391 2.25.75 1.625.36 2.625.875 1.015.5 1.5 1.22.484.702.484 1.718 0 1.703-1.36 2.734-1.359 1.016-3.515 1.016-1.531 0-2.703-.531-1.172-.547-1.844-1.516-.656-.969-.656-2.094h2.172q.062 1.094.875 1.735.812.64 2.156.64 1.219 0 1.969-.5t.75-1.328zm18.754 3.36q-.188-.375-.297-1.344-1.516 1.578-3.61 1.578-1.875 0-3.078-1.063-1.203-1.062-1.203-2.687 0-1.984 1.5-3.078 1.516-1.094 4.235-1.094h2.109v-1q0-1.14-.688-1.812-.671-.672-1.984-.672-1.172 0-1.953.593-.781.579-.781 1.407h-2.188q0-.938.672-1.828.688-.891 1.828-1.407 1.156-.515 2.547-.515 2.188 0 3.422 1.109 1.25 1.094 1.297 3.016v5.828q0 1.75.453 2.781v.188h-2.281zm-3.594-1.657q1.016 0 1.922-.515.922-.532 1.328-1.375v-2.61h-1.688q-3.984 0-3.984 2.328 0 1.032.672 1.61.687.562 1.75.562zm10.867-11.031l.078 1.594q1.453-1.828 3.797-1.828 4.016 0 4.047 4.547v8.375H213.6v-8.391q-.016-1.375-.64-2.031-.61-.657-1.907-.657-1.063 0-1.86.563-.796.562-1.234 1.484v9.032h-2.172v-12.688h2.047zm10.664 6.234q0-2.906 1.375-4.687 1.39-1.781 3.64-1.781 2.22 0 3.516 1.53v-6.608h2.172v18h-1.984l-.11-1.36q-1.296 1.594-3.624 1.594-2.204 0-3.594-1.797-1.39-1.812-1.39-4.719v-.172zm2.172.25q0 2.157.89 3.375.891 1.22 2.47 1.22 2.062 0 3-1.845v-5.828q-.97-1.797-2.985-1.797-1.594 0-2.484 1.235-.891 1.234-.891 3.64z"/><path fill="maroon" d="M246.443 114.425q-.125-.235-.203-.532-.078-.312-.14-.656-.266.297-.625.563-.344.25-.782.453-.421.187-.937.297-.516.109-1.11.109-.968 0-1.796-.281-.813-.282-1.407-.782-.578-.515-.906-1.203-.328-.703-.328-1.515 0-2.016 1.5-3.11 1.5-1.093 4.453-1.093h1.828v-.75q0-.907-.609-1.438-.594-.547-1.719-.547-1 0-1.453.438-.453.422-.453 1.14h-3.266q0-.812.36-1.531.36-.734 1.047-1.281.687-.547 1.671-.875 1-.328 2.266-.328 1.156 0 2.14.28 1 .282 1.72.845.734.547 1.14 1.39.406.828.406 1.938v5.437q0 1.016.125 1.688.141.656.375 1.14v.204h-3.297zm-3.109-2.282q.5 0 .922-.11.422-.124.75-.312.344-.187.594-.421.25-.25.39-.5v-2.172h-1.672q-.765 0-1.312.14-.531.14-.875.407-.328.265-.5.64-.156.36-.156.797 0 .656.453 1.094.469.437 1.406.437zm17.762-1.203q0-.297-.14-.515-.126-.22-.47-.407-.343-.203-.921-.36-.579-.171-1.454-.327-1.109-.235-2.03-.563-.923-.328-1.579-.797-.656-.484-1.031-1.109-.36-.625-.36-1.422 0-.797.375-1.5.375-.719 1.079-1.25.703-.547 1.703-.86 1.015-.327 2.28-.327 1.33 0 2.376.312 1.062.313 1.781.86.735.546 1.125 1.296t.39 1.625h-3.265q0-.734-.594-1.234-.593-.5-1.812-.5-1.14 0-1.719.422-.578.406-.578 1 0 .281.11.531.124.235.421.422.297.188.813.36.515.156 1.312.265 1.157.188 2.14.484.985.297 1.688.766.72.453 1.125 1.125.407.656.407 1.563 0 .843-.407 1.562-.406.703-1.156 1.219-.734.515-1.797.812-1.047.282-2.343.282-1.438 0-2.532-.375-1.093-.375-1.843-.985-.735-.61-1.11-1.375-.375-.765-.375-1.531h3.094q.047.516.281.89.25.36.64.594.391.219.876.328.5.11 1.031.11 1.203 0 1.828-.39.64-.391.64-1zm11.637-1.844l.375 1.36 3.375-8.719h3.593l-6.437 14.594q-.203.469-.547 1.031-.328.563-.844 1.047-.5.484-1.219.812-.718.329-1.703.329-.234 0-.437-.016-.188-.016-.375-.047-.188-.031-.375-.078-.188-.031-.39-.094l.39-2.484q.203 0 .515.015.313.016.5.016.391 0 .688-.234.297-.235.5-.516.219-.281.344-.516.125-.234.172-.234l.796-1.484-5.375-12.141h3.563l2.89 7.36zm11.949-7.359l.203 1.766q.672-.953 1.64-1.47.985-.53 2.157-.53.969 0 1.765.28.797.282 1.375.907.579.61.891 1.578.328.969.328 2.344v7.813h-3.25v-7.766q0-.75-.172-1.234-.172-.485-.484-.766-.313-.281-.766-.39-.437-.11-1-.11-.843 0-1.437.344-.578.328-.938.906v9.016h-3.265v-12.688h2.953zm17.058 10.313q.485 0 .907-.141.437-.14.765-.39.328-.266.516-.626.187-.36.156-.812h3.078q.016.984-.422 1.828-.422.844-1.156 1.453-.734.61-1.719.969-.968.344-2.062.344-1.485 0-2.594-.5-1.11-.5-1.86-1.36-.734-.875-1.124-2.031-.375-1.172-.375-2.516v-.343q0-1.344.375-2.5.375-1.172 1.125-2.032.75-.875 1.86-1.375 1.108-.515 2.562-.515 1.171 0 2.171.359 1 .344 1.72.984.718.641 1.109 1.547.406.907.39 2.032h-3.078q.031-.47-.14-.891-.157-.422-.485-.719-.312-.312-.766-.484-.437-.188-.968-.188-.766 0-1.282.328-.5.313-.796.844-.297.516-.422 1.203-.125.672-.125 1.407v.343q0 .735.11 1.422.124.688.421 1.219.312.516.812.828.516.313 1.297.313z"/><path fill="#666" d="M317.522 114.425v-11h-2v-1.688h2v-1.297q0-2.031 1.093-3.14 1.094-1.125 3.078-1.125.75 0 1.5.203l-.125 1.75q-.546-.094-1.171-.094-1.047 0-1.625.61-.579.609-.579 1.765v1.328h2.704v1.688h-2.704v11h-2.171zm15.097-1.25q-1.265 1.484-3.718 1.484-2.016 0-3.079-1.172-1.062-1.187-1.078-3.5v-8.25h2.172v8.203q0 2.875 2.344 2.875 2.484 0 3.297-1.844v-9.234h2.172v12.688h-2.063l-.047-1.25zm7.45-11.438l.078 1.594q1.453-1.828 3.796-1.828 4.016 0 4.047 4.547v8.375h-2.156v-8.391q-.016-1.375-.64-2.031-.61-.657-1.907-.657-1.062 0-1.86.563-.796.562-1.234 1.484v9.032h-2.171v-12.688h2.046zm16.289 11.156q1.156 0 2.015-.703.875-.703.969-1.765h2.047q-.063 1.093-.75 2.078-.688.984-1.844 1.578-1.156.578-2.437.578-2.594 0-4.125-1.719-1.532-1.734-1.532-4.734v-.375q0-1.844.672-3.281.688-1.454 1.953-2.25 1.282-.797 3.016-.797 2.125 0 3.531 1.28 1.422 1.282 1.516 3.313h-2.047q-.094-1.218-.938-2.015-.828-.797-2.062-.797-1.656 0-2.563 1.203-.906 1.188-.906 3.438v.406q0 2.187.89 3.375.907 1.187 2.595 1.187zm10.406-14.218v3.062h2.375v1.688h-2.375v7.859q0 .766.312 1.14.328.376 1.094.376.375 0 1.031-.141v1.766q-.86.234-1.672.234-1.453 0-2.187-.875-.734-.89-.734-2.5v-7.86h-2.313v-1.687h2.313v-3.062h2.156zm7.262 15.75h-2.172v-12.688h2.172v12.688zm-2.344-16.047q0-.532.312-.891.328-.36.953-.36.641 0 .97.36.327.36.327.89 0 .532-.328.891-.328.344-.969.344-.625 0-.953-.344-.312-.36-.312-.89zm5.23 9.593q0-1.875.735-3.359.734-1.484 2.03-2.297 1.313-.812 3-.812 2.579 0 4.173 1.797 1.61 1.796 1.61 4.765v.156q0 1.86-.72 3.329-.703 1.468-2.015 2.296-1.313.813-3.032.813-2.578 0-4.187-1.797-1.594-1.797-1.594-4.75v-.14zm2.188.25q0 2.11.968 3.391.985 1.281 2.625 1.281 1.657 0 2.625-1.297.97-1.296.97-3.625 0-2.093-.985-3.39-.985-1.297-2.625-1.297-1.61 0-2.594 1.281-.984 1.281-.984 3.656zm14.125-6.484l.078 1.594q1.453-1.828 3.797-1.828 4.015 0 4.047 4.547v8.375h-2.157v-8.391q-.015-1.375-.64-2.031-.61-.657-1.907-.657-1.062 0-1.859.563-.797.562-1.234 1.484v9.032h-2.172v-12.688h2.047zm18.586 9.328q0-.89-.672-1.375-.656-.484-2.313-.828-1.64-.36-2.61-.844-.968-.5-1.437-1.172-.453-.687-.453-1.625 0-1.562 1.313-2.64 1.328-1.078 3.375-1.078 2.156 0 3.5 1.125 1.344 1.109 1.344 2.843h-2.188q0-.89-.75-1.53-.75-.657-1.906-.657-1.188 0-1.86.516-.656.515-.656 1.359 0 .781.61 1.187.625.391 2.25.75 1.625.36 2.625.875 1.015.5 1.5 1.22.484.702.484 1.718 0 1.703-1.36 2.734-1.359 1.016-3.515 1.016-1.531 0-2.703-.531-1.172-.547-1.844-1.516-.656-.969-.656-2.094h2.172q.062 1.094.875 1.735.812.64 2.156.64 1.219 0 1.969-.5t.75-1.328zM35.686 145.487q1.297 0 2.53.672 1.25.672 1.938 1.922.688 1.234.688 2.562 0 2.157-1.516 3.672-1.5 1.5-3.64 1.5-2.141 0-3.657-1.5-1.5-1.515-1.5-3.672 0-1.343.688-2.578.687-1.234 1.922-1.906 1.25-.672 2.547-.672z"/><path fill="maroon" d="M71.744 157.425v-10.282h-3.328v-2.406h3.328v-.687q0-1.25.39-2.204.407-.968 1.142-1.625.734-.656 1.78-.984 1.063-.344 2.36-.344.422 0 .797.032.375.03.734.078.375.047.735.109.375.047.781.125l-.219 2.547q-.437-.094-1-.156-.562-.078-1.328-.078-1.531 0-2.219.656-.687.64-.687 1.844v.687h4.562v2.406H75.01v10.282h-3.266zm10.793-6.454q0-1.39.39-2.562.407-1.188 1.173-2.047.781-.875 1.875-1.36 1.11-.5 2.547-.5 1.421 0 2.53.5 1.126.485 1.891 1.36.766.86 1.157 2.047.406 1.172.406 2.562v.235q0 1.406-.406 2.578-.39 1.172-1.157 2.047-.75.86-1.875 1.36-1.109.484-2.53.484-1.423 0-2.548-.485-1.109-.5-1.89-1.36-.766-.874-1.172-2.046-.39-1.172-.39-2.578v-.235zm3.266.235q0 .797.14 1.5.157.703.485 1.219.328.515.844.828.53.297 1.265.297.719 0 1.235-.297.515-.313.828-.828.328-.516.484-1.22.156-.702.156-1.5v-.234q0-.78-.156-1.468t-.484-1.22q-.313-.53-.828-.827-.516-.313-1.25-.313-.735 0-1.25.313-.516.297-.844.828-.328.531-.485 1.219-.14.687-.14 1.468v.235zm20.7-6.703q.733 0 1.358.109.625.094 1.016.219l-.484 3.234q-.64-.14-1.313-.219-.672-.078-1.281-.078-1.375 0-2.203.532-.828.515-1.235 1.5v7.625h-3.265v-12.688h3.047l.14 2.078q.782-1.078 1.86-1.687 1.078-.625 2.36-.625z"/><path fill="#666" d="M116.295 151.065h-5.719v-1.781h5.719v1.781z"/><path fill="maroon" d="M117.963 150.971q0-1.39.39-2.562.407-1.188 1.173-2.047.78-.875 1.875-1.36 1.109-.5 2.546-.5 1.422 0 2.532.5 1.125.485 1.89 1.36.766.86 1.157 2.047.406 1.172.406 2.562v.235q0 1.406-.406 2.578-.391 1.172-1.157 2.047-.75.86-1.875 1.36-1.11.484-2.531.484-1.422 0-2.547-.485-1.11-.5-1.89-1.36-.766-.874-1.172-2.046-.391-1.172-.391-2.578v-.235zm3.266.235q0 .797.14 1.5.157.703.485 1.219.328.515.843.828.532.297 1.266.297.719 0 1.234-.297.516-.313.829-.828.328-.516.484-1.22.156-.702.156-1.5v-.234q0-.78-.156-1.468t-.484-1.22q-.313-.53-.829-.827-.515-.313-1.25-.313-.734 0-1.25.313-.515.297-.843.828-.328.531-.485 1.219-.14.687-.14 1.468v.235zm14.746 6.219v-10.282h-3.328v-2.406h3.328v-.687q0-1.25.39-2.204.407-.968 1.141-1.625.734-.656 1.781-.984 1.063-.344 2.36-.344.421 0 .796.032.375.03.735.078.375.047.734.109.375.047.781.125l-.218 2.547q-.438-.094-1-.156-.563-.078-1.328-.078-1.532 0-2.22.656-.687.64-.687 1.844v.687h4.563v2.406h-4.563v10.282h-3.265z"/><path fill="#666" d="M160.975 157.425q-.188-.375-.297-1.344-1.516 1.578-3.61 1.578-1.875 0-3.078-1.063-1.203-1.062-1.203-2.687 0-1.984 1.5-3.078 1.516-1.094 4.235-1.094h2.109v-1q0-1.14-.688-1.812-.671-.672-1.984-.672-1.172 0-1.953.593-.781.579-.781 1.407h-2.188q0-.938.672-1.828.688-.891 1.828-1.407 1.156-.515 2.547-.515 2.188 0 3.422 1.109 1.25 1.094 1.297 3.016v5.828q0 1.75.453 2.781v.188h-2.281zm-3.594-1.657q1.016 0 1.922-.515.922-.532 1.328-1.375v-2.61h-1.688q-3.984 0-3.984 2.328 0 1.032.672 1.61.687.562 1.75.562zm10.867-11.031l.078 1.594q1.453-1.828 3.797-1.828 4.016 0 4.047 4.547v8.375h-2.156v-8.391q-.016-1.375-.64-2.031-.61-.657-1.907-.657-1.063 0-1.86.563-.796.562-1.234 1.484v9.032h-2.172v-12.688h2.047zm10.664 6.234q0-2.906 1.375-4.687 1.39-1.781 3.64-1.781 2.22 0 3.516 1.53v-6.608h2.172v18h-1.984l-.11-1.36q-1.296 1.594-3.624 1.594-2.204 0-3.594-1.797-1.39-1.812-1.39-4.719v-.172zm2.172.25q0 2.157.89 3.375.891 1.22 2.47 1.22 2.062 0 3-1.845v-5.828q-.97-1.797-2.985-1.797-1.594 0-2.484 1.235-.89 1.234-.89 3.64zm17.305-.25q0-2.906 1.375-4.687 1.39-1.781 3.64-1.781 2.22 0 3.516 1.53v-6.608h2.172v18h-1.984l-.11-1.36q-1.297 1.594-3.625 1.594-2.203 0-3.594-1.797-1.39-1.812-1.39-4.719v-.172zm2.172.25q0 2.157.89 3.375.89 1.22 2.469 1.22 2.063 0 3-1.845v-5.828q-.969-1.797-2.984-1.797-1.594 0-2.485 1.235-.89 1.234-.89 3.64zm17.16 6.438q-2.578 0-4.203-1.688-1.61-1.703-1.61-4.53v-.407q0-1.89.72-3.36.718-1.484 2.015-2.328 1.297-.843 2.812-.843 2.469 0 3.828 1.64 1.375 1.625 1.375 4.657v.906h-8.578q.047 1.875 1.094 3.031 1.047 1.156 2.656 1.156 1.156 0 1.953-.468.797-.47 1.39-1.25l1.33 1.03q-1.595 2.454-4.782 2.454zm-.266-11.375q-1.312 0-2.203.969-.89.953-1.11 2.672h6.36v-.172q-.094-1.641-.89-2.547-.797-.922-2.157-.922zm15.106 7.781q0-.89-.672-1.375-.656-.484-2.313-.828-1.64-.36-2.61-.844-.968-.5-1.437-1.172-.453-.687-.453-1.625 0-1.562 1.313-2.64 1.328-1.078 3.375-1.078 2.156 0 3.5 1.125 1.344 1.109 1.344 2.843h-2.188q0-.89-.75-1.53-.75-.657-1.906-.657-1.188 0-1.86.516-.656.515-.656 1.359 0 .781.61 1.187.625.391 2.25.75 1.625.36 2.625.875 1.015.5 1.5 1.22.484.702.484 1.718 0 1.703-1.36 2.734-1.359 1.016-3.515 1.016-1.531 0-2.703-.531-1.172-.547-1.844-1.516-.656-.969-.656-2.094h2.172q.062 1.094.875 1.735.812.64 2.156.64 1.219 0 1.969-.5t.75-1.328zm7.922-12.39v3.062h2.375v1.688h-2.375v7.859q0 .766.312 1.14.328.376 1.094.376.375 0 1.031-.141v1.766q-.86.234-1.672.234-1.453 0-2.187-.875-.735-.89-.735-2.5v-7.86h-2.312v-1.687h2.312v-3.062h2.157zm11.027 5.015q-.484-.078-1.063-.078-2.125 0-2.89 1.813v9h-2.172v-12.688h2.11l.03 1.469q1.079-1.703 3.032-1.703.625 0 .953.172v2.015zm9.824 9.485q-1.266 1.484-3.719 1.484-2.015 0-3.078-1.172-1.062-1.187-1.078-3.5v-8.25h2.172v8.203q0 2.875 2.344 2.875 2.484 0 3.297-1.844v-9.234h2.171v12.688h-2.062l-.047-1.25zm10.496-.282q1.156 0 2.016-.703.875-.703.969-1.765h2.046q-.062 1.093-.75 2.078-.687.984-1.843 1.578-1.157.578-2.438.578-2.594 0-4.125-1.719-1.531-1.734-1.531-4.734v-.375q0-1.844.672-3.281.687-1.454 1.953-2.25 1.281-.797 3.016-.797 2.125 0 3.53 1.28 1.423 1.282 1.516 3.313h-2.046q-.094-1.218-.938-2.015-.828-.797-2.062-.797-1.657 0-2.563 1.203-.906 1.188-.906 3.438v.406q0 2.187.89 3.375.907 1.187 2.594 1.187zm10.406-14.218v3.062h2.375v1.688h-2.375v7.859q0 .766.313 1.14.328.376 1.094.376.375 0 1.031-.141v1.766q-.86.234-1.672.234-1.453 0-2.187-.875-.735-.89-.735-2.5v-7.86h-2.312v-1.687h2.312v-3.062h2.156zm12.73 14.5q-1.265 1.484-3.718 1.484-2.015 0-3.078-1.172-1.062-1.187-1.078-3.5v-8.25h2.172v8.203q0 2.875 2.344 2.875 2.484 0 3.296-1.844v-9.234h2.172v12.688h-2.062l-.047-1.25zm11.528-9.485q-.484-.078-1.062-.078-2.125 0-2.89 1.813v9h-2.173v-12.688h2.11l.03 1.469q1.079-1.703 3.032-1.703.625 0 .953.172v2.015zm4.356 10.735h-2.172v-12.688h2.172v12.688zm-2.344-16.047q0-.532.312-.891.329-.36.954-.36.64 0 .968.36.328.36.328.89 0 .532-.328.891-.328.344-.968.344-.625 0-.954-.344-.312-.36-.312-.89zm7.855 3.359l.079 1.594q1.453-1.828 3.796-1.828 4.016 0 4.047 4.547v8.375h-2.156v-8.391q-.016-1.375-.64-2.031-.61-.657-1.907-.657-1.062 0-1.86.563-.796.562-1.234 1.484v9.032h-2.171v-12.688h2.046zm10.68 6.234q0-2.953 1.375-4.703 1.375-1.765 3.625-1.765 2.328 0 3.625 1.64l.11-1.406h1.984v12.375q0 2.469-1.469 3.89-1.453 1.423-3.922 1.423-1.36 0-2.672-.594-1.312-.578-2.015-1.61l1.125-1.296q1.406 1.718 3.422 1.718 1.578 0 2.453-.89.89-.891.89-2.5v-1.094q-1.296 1.5-3.546 1.5-2.235 0-3.61-1.797t-1.375-4.89zm2.188.25q0 2.141.875 3.375.875 1.22 2.453 1.22 2.062 0 3.015-1.86v-5.797q-1-1.813-2.984-1.813-1.578 0-2.469 1.235-.89 1.234-.89 3.64zM35.686 188.487q1.297 0 2.53.672 1.25.672 1.938 1.922.688 1.234.688 2.562 0 2.157-1.516 3.672-1.5 1.5-3.64 1.5-2.141 0-3.657-1.5-1.5-1.515-1.5-3.672 0-1.343.688-2.578.687-1.234 1.922-1.906 1.25-.672 2.547-.672z"/><path fill="maroon" d="M74.557 184.643v3.094h4.734v2.406h-4.734v5.453q0 .688.156 1.157.172.453.453.734.297.281.703.406.422.11.938.11.375 0 .765-.032.407-.046.75-.093.36-.063.672-.11.313-.062.532-.125l.328 2.235q-.344.203-.813.359-.453.14-.969.234-.515.094-1.078.141-.547.063-1.078.063-1.047 0-1.906-.282-.844-.281-1.453-.86-.594-.577-.922-1.468-.328-.906-.328-2.156v-5.766h-2.89v-2.406h2.89v-3.094h3.25zm17.543 2.86q.734 0 1.36.109.624.094 1.015.219l-.485 3.234q-.64-.14-1.312-.219-.672-.078-1.281-.078-1.375 0-2.204.532-.828.515-1.234 1.5v7.625h-3.266v-12.688h3.047l.141 2.078q.781-1.078 1.86-1.687 1.077-.625 2.359-.625zm10.699 7.593l.375 1.36 3.375-8.719h3.594l-6.438 14.594q-.203.469-.547 1.031-.328.563-.843 1.047-.5.484-1.22.812-.718.329-1.702.329-.235 0-.438-.016-.187-.016-.375-.047-.187-.031-.375-.078-.187-.031-.39-.094l.39-2.484q.203 0 .516.015.312.016.5.016.39 0 .687-.234.297-.235.5-.516.22-.281.344-.516.125-.234.172-.234l.797-1.484-5.375-12.141h3.562l2.89 7.36z"/><path fill="#666" d="M116.295 194.065h-5.719v-1.781h5.719v1.781z"/><path fill="maroon" d="M124.026 198.05q.484 0 .906-.141.437-.14.765-.39.329-.266.516-.626.188-.36.156-.812h3.078q.016.984-.421 1.828-.422.844-1.157 1.453-.734.61-1.718.969-.97.344-2.063.344-1.484 0-2.594-.5-1.11-.5-1.86-1.36-.733-.875-1.124-2.031-.375-1.172-.375-2.516v-.343q0-1.344.375-2.5.375-1.172 1.125-2.032.75-.875 1.86-1.375 1.109-.515 2.562-.515 1.172 0 2.172.359 1 .344 1.718.984.72.641 1.11 1.547.406.907.39 2.032h-3.078q.032-.47-.14-.891-.157-.422-.485-.719-.312-.312-.765-.484-.438-.188-.97-.188-.765 0-1.28.328-.5.313-.797.844-.297.516-.422 1.203-.125.672-.125 1.407v.343q0 .735.11 1.422.124.688.421 1.219.313.516.813.828.515.313 1.297.313zm16.714 2.375q-.125-.235-.203-.532-.078-.312-.14-.656-.266.297-.625.563-.344.25-.782.453-.422.187-.937.297-.516.109-1.11.109-.968 0-1.796-.281-.813-.282-1.407-.782-.578-.515-.906-1.203-.328-.703-.328-1.515 0-2.016 1.5-3.11 1.5-1.093 4.453-1.093h1.828v-.75q0-.907-.61-1.438-.593-.547-1.718-.547-1 0-1.453.438-.453.422-.453 1.14h-3.266q0-.812.36-1.531.359-.734 1.046-1.281.688-.547 1.672-.875 1-.328 2.266-.328 1.156 0 2.14.28 1 .282 1.72.845.734.547 1.14 1.39.406.828.406 1.938v5.437q0 1.016.125 1.688.14.656.375 1.14v.204h-3.297zm-3.109-2.282q.5 0 .922-.11.422-.124.75-.312.344-.187.594-.421.25-.25.39-.5v-2.172h-1.672q-.765 0-1.312.14-.531.14-.875.407-.328.265-.5.64-.156.36-.156.797 0 .656.453 1.094.468.437 1.406.437zm15.559-13.5v3.094h4.734v2.406h-4.734v5.453q0 .688.156 1.157.172.453.453.734.297.281.703.406.422.11.938.11.375 0 .765-.032.406-.046.75-.093.36-.063.672-.11.313-.062.531-.125l.328 2.235q-.343.203-.812.359-.453.14-.969.234-.515.094-1.078.141-.547.063-1.078.063-1.047 0-1.906-.282-.844-.281-1.453-.86-.594-.577-.922-1.468-.328-.906-.328-2.156v-5.766h-2.891v-2.406h2.89v-3.094h3.25zm14.043 13.407q.484 0 .906-.141.437-.14.765-.39.329-.266.516-.626.188-.36.156-.812h3.078q.016.984-.421 1.828-.422.844-1.157 1.453-.734.61-1.718.969-.97.344-2.063.344-1.484 0-2.594-.5-1.11-.5-1.86-1.36-.733-.875-1.124-2.031-.375-1.172-.375-2.516v-.343q0-1.344.375-2.5.375-1.172 1.125-2.032.75-.875 1.86-1.375 1.109-.515 2.562-.515 1.172 0 2.172.359 1 .344 1.718.984.72.641 1.11 1.547.406.907.39 2.032h-3.078q.032-.47-.14-.891-.157-.422-.485-.719-.312-.312-.765-.484-.438-.188-.97-.188-.765 0-1.28.328-.5.313-.797.844-.297.516-.422 1.203-.125.672-.125 1.407v.343q0 .735.11 1.422.124.688.421 1.219.313.516.813.828.515.313 1.297.313zm12.043-8.563q.64-.922 1.546-1.453.907-.531 2.032-.531 1 0 1.828.312.828.297 1.422.938.609.625.937 1.609.344.984.344 2.39v7.673h-3.266v-7.704q0-.671-.172-1.156-.171-.5-.484-.797-.312-.312-.766-.453-.437-.156-1-.156-.828 0-1.437.297-.594.281-.984.812v9.157h-3.25v-18h3.25v7.062z"/><path fill="#666" d="M204.182 200.425q-.188-.375-.297-1.344-1.516 1.578-3.61 1.578-1.874 0-3.078-1.063-1.203-1.062-1.203-2.687 0-1.984 1.5-3.078 1.516-1.094 4.235-1.094h2.109v-1q0-1.14-.687-1.812-.672-.672-1.985-.672-1.172 0-1.953.593-.781.579-.781 1.407h-2.188q0-.938.672-1.828.688-.891 1.828-1.407 1.157-.515 2.547-.515 2.188 0 3.422 1.109 1.25 1.094 1.297 3.016v5.828q0 1.75.453 2.781v.188h-2.281zm-3.594-1.657q1.016 0 1.922-.515.922-.532 1.328-1.375v-2.61h-1.687q-3.985 0-3.985 2.328 0 1.032.672 1.61.688.562 1.75.562zm10.867-11.031l.078 1.594q1.453-1.828 3.797-1.828 4.016 0 4.047 4.547v8.375h-2.156v-8.391q-.016-1.375-.64-2.031-.61-.657-1.907-.657-1.063 0-1.86.563-.796.562-1.234 1.484v9.032h-2.172v-12.688h2.047zm10.664 6.234q0-2.906 1.375-4.687 1.39-1.781 3.64-1.781 2.22 0 3.517 1.53v-6.608h2.171v18h-1.984l-.11-1.36q-1.296 1.594-3.624 1.594-2.203 0-3.594-1.797-1.39-1.812-1.39-4.719v-.172zm2.172.25q0 2.157.89 3.375.891 1.22 2.47 1.22 2.062 0 3-1.845v-5.828q-.97-1.797-2.985-1.797-1.594 0-2.484 1.235-.89 1.234-.89 3.64z"/><path fill="maroon" d="M248.111 184.643v3.094h4.735v2.406h-4.735v5.453q0 .688.157 1.157.172.453.453.734.297.281.703.406.422.11.937.11.375 0 .766-.032.406-.046.75-.093.36-.063.672-.11.312-.062.531-.125l.328 2.235q-.343.203-.812.359-.453.14-.969.234t-1.078.141q-.547.063-1.078.063-1.047 0-1.906-.282-.844-.281-1.454-.86-.593-.577-.921-1.468-.329-.906-.329-2.156v-5.766h-2.89v-2.406h2.89v-3.094h3.25zm17.543 2.86q.735 0 1.36.109.625.094 1.015.219l-.484 3.234q-.64-.14-1.312-.219-.672-.078-1.282-.078-1.375 0-2.203.532-.828.515-1.234 1.5v7.625h-3.266v-12.688h3.047l.14 2.078q.782-1.078 1.86-1.687 1.078-.625 2.36-.625zm10.7 7.593l.375 1.36 3.375-8.719h3.593l-6.437 14.594q-.203.469-.547 1.031-.328.563-.844 1.047-.5.484-1.218.812-.72.329-1.704.329-.234 0-.437-.016-.188-.016-.375-.047-.188-.031-.375-.078-.188-.031-.39-.094l.39-2.484q.203 0 .516.015.312.016.5.016.39 0 .687-.234.297-.235.5-.516.219-.281.344-.516.125-.234.172-.234l.797-1.484-5.375-12.141h3.562l2.89 7.36z"/><path fill="#666" d="M289.85 194.065h-5.719v-1.781h5.719v1.781z"/><path fill="maroon" d="M295.127 200.425v-10.282H291.8v-2.406h3.328v-.687q0-1.25.39-2.204.407-.968 1.141-1.625.735-.656 1.782-.984 1.062-.344 2.359-.344.422 0 .797.032.375.03.734.078.375.047.735.109.375.047.78.125l-.218 2.547q-.437-.094-1-.156-.562-.078-1.328-.078-1.531 0-2.219.656-.687.64-.687 1.844v.687h4.562v2.406h-4.562v10.282h-3.266zm12.106-12.688h6.906v10.031h3.437v2.657h-10.343v-2.657h3.609v-7.36h-3.61v-2.671zm3.375-3.234q0-.375.14-.703.14-.329.375-.547.25-.235.594-.36t.766-.125q.875 0 1.375.485.515.484.515 1.25 0 .75-.515 1.25-.5.484-1.375.484-.422 0-.766-.125-.344-.14-.594-.36-.234-.234-.375-.546-.14-.328-.14-.703zm13.12 3.234l.204 1.766q.672-.953 1.64-1.47.985-.53 2.157-.53.968 0 1.765.28.797.282 1.375.907.578.61.89 1.578.329.969.329 2.344v7.813h-3.25v-7.766q0-.75-.172-1.234-.172-.485-.484-.766-.313-.281-.766-.39-.437-.11-1-.11-.844 0-1.437.344-.578.328-.938.906v9.016h-3.265v-12.688h2.953zm19.372 12.688q-.125-.235-.203-.532-.079-.312-.141-.656-.266.297-.625.563-.344.25-.781.453-.422.187-.938.297-.515.109-1.11.109-.968 0-1.796-.281-.813-.282-1.406-.782-.578-.515-.907-1.203-.328-.703-.328-1.515 0-2.016 1.5-3.11 1.5-1.093 4.453-1.093h1.829v-.75q0-.907-.61-1.438-.594-.547-1.719-.547-1 0-1.453.438-.453.422-.453 1.14h-3.265q0-.812.359-1.531.36-.734 1.047-1.281.687-.547 1.672-.875 1-.328 2.265-.328 1.157 0 2.141.28 1 .282 1.719.845.734.547 1.14 1.39.407.828.407 1.938v5.437q0 1.016.125 1.688.14.656.375 1.14v.204H343.1zm-3.11-2.282q.5 0 .922-.11.422-.124.75-.312.344-.187.594-.421.25-.25.39-.5v-2.172h-1.671q-.766 0-1.313.14-.531.14-.875.407-.328.265-.5.64-.156.36-.156.797 0 .656.453 1.094.469.437 1.406.437zm10.262-15.718h7.094v15.343h3.64v2.657h-10.734v-2.657h3.797v-12.687h-3.797v-2.656zm14.402 0h7.094v15.343h3.64v2.657h-10.734v-2.657h3.797v-12.687h-3.797v-2.656zm19.137 12.671l.375 1.36 3.375-8.719h3.594l-6.438 14.594q-.203.469-.546 1.031-.329.563-.844 1.047-.5.484-1.219.812-.719.329-1.703.329-.234 0-.438-.016-.187-.016-.375-.047-.187-.031-.375-.078-.187-.031-.39-.094l.39-2.484q.204 0 .516.015.313.016.5.016.39 0 .688-.234.296-.235.5-.516.218-.281.343-.516.125-.234.172-.234l.797-1.484-5.375-12.141h3.563l2.89 7.36z"/><path fill="#666" d="M35.686 231.487q1.297 0 2.53.672 1.25.672 1.938 1.922.688 1.234.688 2.562 0 2.157-1.516 3.672-1.5 1.5-3.64 1.5-2.141 0-3.657-1.5-1.5-1.515-1.5-3.672 0-1.343.688-2.578.687-1.234 1.922-1.906 1.25-.672 2.547-.672zm45.777 6.516q-.312 2.718-2 4.187-1.672 1.469-4.469 1.469-3.015 0-4.843-2.172-1.829-2.172-1.829-5.797v-1.64q0-2.375.844-4.172.86-1.813 2.422-2.782 1.563-.968 3.61-.968 2.718 0 4.359 1.515 1.64 1.516 1.906 4.203h-2.266q-.28-2.046-1.265-2.953-.985-.922-2.735-.922-2.156 0-3.39 1.594-1.219 1.594-1.219 4.547v1.64q0 2.782 1.156 4.423 1.172 1.64 3.25 1.64 1.875 0 2.875-.844 1-.859 1.328-2.968h2.266zm2.152-1.032q0-1.875.735-3.359.734-1.484 2.031-2.297 1.312-.812 3-.812 2.578 0 4.172 1.797 1.61 1.796 1.61 4.765v.156q0 1.86-.72 3.329-.703 1.468-2.015 2.296-1.313.813-3.031.813-2.579 0-4.188-1.797-1.594-1.797-1.594-4.75v-.14zm2.188.25q0 2.11.969 3.391.984 1.281 2.625 1.281 1.656 0 2.625-1.297.968-1.296.968-3.625 0-2.093-.984-3.39-.984-1.297-2.625-1.297-1.61 0-2.594 1.281-.984 1.281-.984 3.656zm14.125-6.484l.047 1.406q1.406-1.64 3.765-1.64 2.657 0 3.625 2.047.625-.922 1.641-1.485 1.016-.562 2.406-.562 4.172 0 4.235 4.422v8.5h-2.172v-8.375q0-1.36-.625-2.032-.61-.672-2.078-.672-1.204 0-2 .72-.797.718-.922 1.937v8.422h-2.188v-8.313q0-2.766-2.703-2.766-2.14 0-2.922 1.813v9.266h-2.172v-12.688h2.063zm29.707 6.484q0 2.891-1.328 4.672-1.328 1.766-3.594 1.766-2.297 0-3.625-1.469v6.11h-2.172v-17.563h1.985l.109 1.406q1.312-1.64 3.672-1.64 2.281 0 3.61 1.734 1.343 1.719 1.343 4.781v.203zm-2.172-.25q0-2.14-.922-3.375-.906-1.25-2.5-1.25-1.969 0-2.953 1.75v6.063q.969 1.734 2.969 1.734 1.562 0 2.484-1.234.922-1.25.922-3.688zm4.34 0q0-1.875.734-3.359.735-1.484 2.031-2.297 1.313-.812 3-.812 2.579 0 4.172 1.797 1.61 1.796 1.61 4.765v.156q0 1.86-.719 3.329-.703 1.468-2.016 2.296-1.312.813-3.03.813-2.579 0-4.188-1.797-1.594-1.797-1.594-4.75v-.14zm2.187.25q0 2.11.97 3.391.983 1.281 2.624 1.281 1.656 0 2.625-1.297.969-1.296.969-3.625 0-2.093-.985-3.39-.984-1.297-2.625-1.297-1.609 0-2.593 1.281-.985 1.281-.985 3.656zm19.907 4.954q-1.266 1.484-3.72 1.484-2.015 0-3.077-1.172-1.063-1.187-1.078-3.5v-8.25h2.171v8.203q0 2.875 2.344 2.875 2.485 0 3.297-1.844v-9.234h2.172v12.688h-2.063l-.046-1.25zm7.449-11.438l.078 1.594q1.453-1.828 3.797-1.828 4.015 0 4.047 4.547v8.375h-2.157v-8.391q-.015-1.375-.64-2.031-.61-.657-1.906-.657-1.063 0-1.86.563-.797.562-1.234 1.484v9.032h-2.172v-12.688h2.047zm10.664 6.234q0-2.906 1.375-4.687 1.39-1.781 3.64-1.781 2.22 0 3.516 1.53v-6.608h2.172v18h-1.984l-.11-1.36q-1.297 1.594-3.625 1.594-2.203 0-3.593-1.797-1.391-1.812-1.391-4.719v-.172zm2.172.25q0 2.157.89 3.375.891 1.22 2.47 1.22 2.062 0 3-1.845v-5.828q-.97-1.797-2.985-1.797-1.594 0-2.485 1.235-.89 1.234-.89 3.64z"/><path fill="maroon" d="M192.705 225.425h7.094v15.343h3.64v2.657h-10.734v-2.657h3.797v-12.687h-3.797v-2.656zm19.887 18.234q-1.469 0-2.672-.484-1.187-.485-2.047-1.297-.86-.828-1.328-1.953-.453-1.125-.453-2.391v-.469q0-1.453.453-2.656.469-1.203 1.281-2.063.828-.875 1.953-1.359t2.438-.484q1.375 0 2.437.453 1.079.453 1.829 1.281.75.813 1.125 1.969.39 1.156.39 2.547v1.39h-8.594q.094.64.375 1.172.282.531.72.922.452.39 1.03.61.579.203 1.25.203.485 0 .954-.094.484-.094.906-.281.437-.188.812-.454.375-.265.657-.625l1.64 1.75q-.312.438-.797.86-.484.406-1.156.734-.656.313-1.469.516-.797.203-1.734.203zm-.39-10.516q-.548 0-1.016.203-.453.188-.797.547-.344.36-.578.875-.235.5-.36 1.125h5.344v-.265q-.016-.516-.203-.97-.172-.452-.5-.78-.328-.344-.797-.532-.469-.203-1.094-.203zm14.605-5.5v3.094h4.734v2.406h-4.734v5.453q0 .688.156 1.157.172.453.453.734.297.281.703.406.422.11.938.11.375 0 .765-.032.407-.046.75-.093.36-.063.672-.11.313-.062.532-.125l.328 2.235q-.344.203-.813.359-.453.14-.969.234-.515.094-1.078.141-.547.063-1.078.063-1.047 0-1.906-.282-.844-.281-1.453-.86-.594-.577-.922-1.468-.328-.906-.328-2.156v-5.766h-2.89v-2.406h2.89v-3.094h3.25z"/><path fill="#666" d="M240.588 236.971q0-1.875.734-3.359.735-1.484 2.032-2.297 1.312-.812 3-.812 2.578 0 4.172 1.797 1.609 1.796 1.609 4.765v.156q0 1.86-.719 3.329-.703 1.468-2.015 2.296-1.313.813-3.032.813-2.578 0-4.187-1.797-1.594-1.797-1.594-4.75v-.14zm2.188.25q0 2.11.968 3.391.985 1.281 2.625 1.281 1.657 0 2.625-1.297.969-1.296.969-3.625 0-2.093-.984-3.39-.985-1.297-2.625-1.297-1.61 0-2.594 1.281-.984 1.281-.984 3.656zm18.203-4.53q-.485-.079-1.063-.079-2.125 0-2.89 1.813v9h-2.172v-12.688h2.109l.031 1.469q1.078-1.703 3.032-1.703.625 0 .953.172v2.015z"/><path fill="maroon" d="M274.541 241.05q.485 0 .906-.141.438-.14.766-.39.328-.266.516-.626.187-.36.156-.812h3.078q.016.984-.422 1.828-.422.844-1.156 1.453-.734.61-1.719.969-.969.344-2.062.344-1.485 0-2.594-.5-1.11-.5-1.86-1.36-.734-.875-1.124-2.031-.375-1.172-.375-2.516v-.343q0-1.344.375-2.5.375-1.172 1.125-2.032.75-.875 1.859-1.375 1.11-.515 2.562-.515 1.172 0 2.172.359 1 .344 1.719.984.719.641 1.11 1.547.406.907.39 2.032h-3.078q.031-.47-.14-.891-.157-.422-.485-.719-.313-.312-.766-.484-.437-.188-.968-.188-.766 0-1.282.328-.5.313-.797.844-.296.516-.421 1.203-.125.672-.125 1.407v.343q0 .735.109 1.422.125.688.422 1.219.312.516.812.828.516.313 1.297.313zm8.34-4.079q0-1.39.39-2.562.407-1.188 1.172-2.047.782-.875 1.875-1.36 1.11-.5 2.547-.5 1.422 0 2.532.5 1.125.485 1.89 1.36.766.86 1.156 2.047.407 1.172.407 2.562v.235q0 1.406-.407 2.578-.39 1.172-1.156 2.047-.75.86-1.875 1.36-1.11.484-2.531.484-1.422 0-2.547-.485-1.11-.5-1.89-1.36-.766-.874-1.172-2.046-.391-1.172-.391-2.578v-.235zm3.266.235q0 .797.14 1.5.156.703.485 1.219.328.515.843.828.532.297 1.266.297.719 0 1.234-.297.516-.313.828-.828.329-.516.485-1.22.156-.702.156-1.5v-.234q0-.78-.156-1.468t-.485-1.22q-.312-.53-.828-.827-.515-.313-1.25-.313-.734 0-1.25.313-.515.297-.843.828-.329.531-.485 1.219-.14.687-.14 1.468v.235zm14.543-6.469l.203 1.766q.672-.953 1.64-1.47.985-.53 2.157-.53.968 0 1.765.28.797.282 1.375.907.578.61.89 1.578.329.969.329 2.344v7.813h-3.25v-7.766q0-.75-.172-1.234-.172-.485-.484-.766-.313-.281-.766-.39-.437-.11-1-.11-.844 0-1.437.344-.579.328-.938.906v9.016h-3.266v-12.688h2.954zm19.62 9.203q0-.297-.14-.515-.125-.22-.469-.407-.343-.203-.922-.36-.578-.171-1.453-.327-1.11-.235-2.031-.563-.922-.328-1.578-.797-.656-.484-1.031-1.109-.36-.625-.36-1.422 0-.797.375-1.5.375-.719 1.078-1.25.704-.547 1.704-.86 1.015-.327 2.28-.327 1.329 0 2.376.312 1.062.313 1.781.86.734.546 1.125 1.296.39.75.39 1.625h-3.265q0-.734-.594-1.234-.593-.5-1.812-.5-1.14 0-1.719.422-.578.406-.578 1 0 .281.11.531.124.235.421.422.297.188.813.36.515.156 1.312.265 1.156.188 2.14.484.985.297 1.688.766.719.453 1.125 1.125.407.656.407 1.563 0 .843-.407 1.562-.406.703-1.156 1.219-.734.515-1.797.812-1.047.282-2.344.282-1.437 0-2.53-.375-1.095-.375-1.845-.985-.734-.61-1.109-1.375t-.375-1.531h3.094q.047.516.281.89.25.36.64.594.391.219.876.328.5.11 1.03.11 1.204 0 1.829-.39.64-.391.64-1zm12.2-12.297v3.094h4.734v2.406h-4.734v5.453q0 .688.156 1.157.172.453.453.734.297.281.703.406.422.11.938.11.375 0 .766-.032.406-.046.75-.093.359-.063.671-.11.313-.062.532-.125l.328 2.235q-.344.203-.813.359-.453.14-.968.234-.516.094-1.079.141-.546.063-1.078.063-1.047 0-1.906-.282-.844-.281-1.453-.86-.594-.577-.922-1.468-.328-.906-.328-2.156v-5.766h-2.89v-2.406h2.89v-3.094h3.25z"/><path fill="#666" d="M354.697 243.425q-.187-.375-.296-1.344-1.516 1.578-3.61 1.578-1.875 0-3.078-1.063-1.203-1.062-1.203-2.687 0-1.984 1.5-3.078 1.516-1.094 4.234-1.094h2.11v-1q0-1.14-.688-1.812-.672-.672-1.984-.672-1.172 0-1.953.593-.782.579-.782 1.407h-2.187q0-.938.672-1.828.687-.891 1.828-1.407 1.156-.515 2.547-.515 2.187 0 3.422 1.109 1.25 1.094 1.297 3.016v5.828q0 1.75.453 2.781v.188h-2.282zm-3.593-1.657q1.015 0 1.922-.515.921-.532 1.328-1.375v-2.61h-1.688q-3.984 0-3.984 2.328 0 1.032.672 1.61.687.562 1.75.562zm16.21-1.703q0-.89-.671-1.375-.657-.484-2.313-.828-1.64-.36-2.61-.844-.968-.5-1.437-1.172-.453-.687-.453-1.625 0-1.562 1.313-2.64 1.328-1.078 3.375-1.078 2.156 0 3.5 1.125 1.343 1.109 1.343 2.843h-2.187q0-.89-.75-1.53-.75-.657-1.906-.657-1.188 0-1.86.516-.656.515-.656 1.359 0 .781.61 1.187.624.391 2.25.75 1.624.36 2.624.875 1.016.5 1.5 1.22.485.702.485 1.718 0 1.703-1.36 2.734-1.359 1.016-3.515 1.016-1.531 0-2.703-.531-1.172-.547-1.844-1.516-.656-.969-.656-2.094h2.172q.062 1.094.875 1.735.812.64 2.156.64 1.219 0 1.969-.5t.75-1.328zm12.376 0q0-.89-.672-1.375-.657-.484-2.313-.828-1.64-.36-2.61-.844-.968-.5-1.437-1.172-.453-.687-.453-1.625 0-1.562 1.313-2.64 1.328-1.078 3.375-1.078 2.156 0 3.5 1.125 1.343 1.109 1.343 2.843h-2.187q0-.89-.75-1.53-.75-.657-1.906-.657-1.188 0-1.86.516-.656.515-.656 1.359 0 .781.61 1.187.624.391 2.25.75 1.624.36 2.624.875 1.016.5 1.5 1.22.485.702.485 1.718 0 1.703-1.36 2.734-1.359 1.016-3.515 1.016-1.531 0-2.703-.531-1.172-.547-1.844-1.516-.656-.969-.656-2.094h2.172q.062 1.094.875 1.735.812.64 2.156.64 1.219 0 1.969-.5t.75-1.328zm7.343 3.36h-2.172v-12.688h2.172v12.688zm-2.343-16.047q0-.532.312-.891.328-.36.953-.36.64 0 .969.36.328.36.328.89 0 .532-.328.891-.328.344-.969.344-.625 0-.953-.344-.312-.36-.312-.89zm5.293 9.593q0-2.953 1.375-4.703 1.375-1.765 3.625-1.765 2.328 0 3.625 1.64l.109-1.406h1.984v12.375q0 2.469-1.468 3.89-1.454 1.423-3.922 1.423-1.36 0-2.672-.594-1.313-.578-2.016-1.61l1.125-1.296q1.406 1.718 3.422 1.718 1.578 0 2.453-.89.89-.891.89-2.5v-1.094q-1.296 1.5-3.546 1.5-2.234 0-3.61-1.797-1.374-1.797-1.374-4.89zm2.187.25q0 2.141.875 3.375.875 1.22 2.453 1.22 2.063 0 3.016-1.86v-5.797q-1-1.813-2.985-1.813-1.578 0-2.468 1.235-.89 1.234-.89 3.64zm13.84-6.484l.078 1.594q1.453-1.828 3.797-1.828 4.016 0 4.047 4.547v8.375h-2.156v-8.391q-.016-1.375-.641-2.031-.61-.657-1.906-.657-1.063 0-1.86.563-.797.562-1.234 1.484v9.032h-2.172v-12.688h2.047zm13.242 0l.047 1.406q1.406-1.64 3.766-1.64 2.656 0 3.625 2.047.625-.922 1.64-1.485 1.016-.562 2.406-.562 4.172 0 4.235 4.422v8.5h-2.172v-8.375q0-1.36-.625-2.032-.61-.672-2.078-.672-1.203 0-2 .72-.797.718-.922 1.937v8.422h-2.188v-8.313q0-2.766-2.703-2.766-2.14 0-2.922 1.813v9.266h-2.171v-12.688h2.062zm24.254 12.922q-2.578 0-4.203-1.688-1.61-1.703-1.61-4.53v-.407q0-1.89.72-3.36.718-1.484 2.015-2.328 1.297-.843 2.812-.843 2.47 0 3.828 1.64 1.375 1.625 1.375 4.657v.906h-8.578q.047 1.875 1.094 3.031 1.047 1.156 2.656 1.156 1.157 0 1.953-.468.797-.47 1.391-1.25l1.328 1.03q-1.594 2.454-4.781 2.454zm-.266-11.375q-1.312 0-2.203.969-.89.953-1.11 2.672h6.36v-.172q-.094-1.641-.89-2.547-.797-.922-2.157-.922zm9.762-1.547l.078 1.594q1.453-1.828 3.797-1.828 4.016 0 4.047 4.547v8.375h-2.156v-8.391q-.016-1.375-.64-2.031-.61-.657-1.907-.657-1.063 0-1.86.563-.796.562-1.234 1.484v9.032h-2.172v-12.688h2.047zm14.133-3.062v3.062h2.375v1.688h-2.375v7.859q0 .766.312 1.14.329.376 1.094.376.375 0 1.031-.141v1.766q-.859.234-1.671.234-1.454 0-2.188-.875-.734-.89-.734-2.5v-7.86h-2.313v-1.687h2.313v-3.062h2.156zM35.686 274.487q1.297 0 2.53.672 1.25.672 1.938 1.922.688 1.234.688 2.562 0 2.157-1.516 3.672-1.5 1.5-3.64 1.5-2.141 0-3.657-1.5-1.5-1.515-1.5-3.672 0-1.343.688-2.578.687-1.234 1.922-1.906 1.25-.672 2.547-.672zm46.355 3.953q0 2.516-.844 4.39-.843 1.86-2.39 2.844-1.547.985-3.61.985-2.015 0-3.578-.985-1.562-1-2.422-2.828-.859-1.843-.875-4.25v-1.234q0-2.453.844-4.344.86-1.89 2.422-2.89 1.563-1 3.578-1 2.063 0 3.625 1 1.563.984 2.406 2.859.844 1.875.844 4.375v1.078zm-2.234-1.094q0-3.047-1.219-4.656-1.219-1.625-3.422-1.625-2.125 0-3.36 1.625-1.218 1.61-1.25 4.5v1.25q0 2.938 1.235 4.625 1.235 1.688 3.406 1.688 2.172 0 3.36-1.594 1.203-1.594 1.25-4.547v-1.266zm16 2.875q0 2.907-1.344 4.672-1.328 1.766-3.578 1.766-2.406 0-3.719-1.703l-.094 1.468h-2v-18h2.172v6.72q1.313-1.641 3.61-1.641 2.312 0 3.625 1.75 1.328 1.75 1.328 4.78v.188zm-2.172-.25q0-2.203-.86-3.406-.843-1.219-2.453-1.219-2.14 0-3.078 2v5.485q1 1.984 3.11 1.984 1.547 0 2.406-1.203.875-1.203.875-3.64zm7.137-6.234v14.156q0 3.656-3.313 3.656-.719 0-1.328-.218v-1.735q.375.094.984.094.735 0 1.11-.39.39-.391.39-1.36v-14.203h2.157zm-2.391-3.36q0-.515.328-.874.328-.375.938-.375.64 0 .968.359.328.36.328.89 0 .532-.328.891-.328.344-.968.344-.625 0-.954-.344-.312-.36-.312-.89zm11.152 16.282q-2.578 0-4.203-1.688-1.61-1.703-1.61-4.53v-.407q0-1.89.72-3.36.718-1.484 2.015-2.328 1.297-.843 2.813-.843 2.468 0 3.828 1.64 1.375 1.625 1.375 4.656v.907h-8.578q.047 1.875 1.093 3.031 1.047 1.156 2.657 1.156 1.156 0 1.953-.469.797-.468 1.39-1.25l1.329 1.032q-1.594 2.453-4.782 2.453zm-.265-11.375q-1.313 0-2.203.969-.891.953-1.11 2.671h6.36v-.171q-.094-1.641-.891-2.547-.797-.922-2.156-.922zm12.808 9.61q1.157 0 2.016-.704.875-.703.969-1.766h2.047q-.063 1.094-.75 2.079-.688.984-1.844 1.578-1.156.578-2.438.578-2.593 0-4.125-1.719-1.531-1.734-1.531-4.734v-.375q0-1.844.672-3.282.687-1.453 1.953-2.25 1.281-.796 3.016-.796 2.125 0 3.53 1.28 1.423 1.282 1.517 3.313h-2.047q-.094-1.218-.938-2.015-.828-.797-2.062-.797-1.657 0-2.563 1.203-.906 1.187-.906 3.437v.407q0 2.187.89 3.375.907 1.187 2.594 1.187zm10.407-14.22v3.063h2.375v1.687h-2.375v7.86q0 .765.312 1.14.328.375 1.094.375.375 0 1.031-.14v1.765q-.86.235-1.672.235-1.453 0-2.187-.875-.735-.89-.735-2.5v-7.86h-2.312v-1.687h2.312v-3.063h2.157zm13.203 15.75h-2.172v-18h2.172v18zm5.824 0h-2.172v-12.687h2.172v12.687zm-2.344-16.046q0-.532.313-.891.328-.36.953-.36.64 0 .969.36.328.36.328.89 0 .532-.328.891-.329.344-.97.344-.624 0-.952-.344-.313-.36-.313-.89zm8.746.296v3.063h2.375v1.687h-2.375v7.86q0 .765.313 1.14.328.375 1.093.375.375 0 1.032-.14v1.765q-.86.235-1.672.235-1.453 0-2.188-.875-.734-.89-.734-2.5v-7.86h-2.313v-1.687h2.313v-3.063h2.156zm10.168 15.985q-2.578 0-4.203-1.688-1.61-1.703-1.61-4.53v-.407q0-1.89.72-3.36.718-1.484 2.015-2.328 1.297-.843 2.813-.843 2.468 0 3.828 1.64 1.375 1.625 1.375 4.656v.907h-8.578q.046 1.875 1.093 3.031 1.047 1.156 2.657 1.156 1.156 0 1.953-.469.797-.468 1.39-1.25l1.328 1.032q-1.593 2.453-4.78 2.453zm-.265-11.375q-1.313 0-2.204.969-.89.953-1.109 2.671h6.36v-.171q-.094-1.641-.891-2.547-.797-.922-2.156-.922zm13.84.406q-.485-.078-1.063-.078-2.125 0-2.89 1.812v9h-2.173v-12.687h2.11l.031 1.469q1.078-1.703 3.031-1.703.625 0 .953.171v2.016zm9.824 10.734q-.188-.375-.297-1.343-1.516 1.578-3.61 1.578-1.875 0-3.078-1.063-1.203-1.062-1.203-2.687 0-1.985 1.5-3.078 1.516-1.094 4.235-1.094h2.109v-1q0-1.14-.688-1.813-.671-.671-1.984-.671-1.172 0-1.953.593-.781.578-.781 1.407h-2.188q0-.938.672-1.829.688-.89 1.828-1.406 1.156-.515 2.547-.515 2.188 0 3.422 1.109 1.25 1.094 1.297 3.016v5.828q0 1.75.453 2.781v.187h-2.281zm-3.594-1.656q1.016 0 1.922-.515.922-.532 1.328-1.375v-2.61h-1.688q-3.984 0-3.984 2.328 0 1.032.672 1.61.687.562 1.75.562zm11.18 1.656h-2.172v-18h2.172v18zm10.855-3.359q0-.89-.672-1.375-.656-.484-2.312-.828-1.641-.36-2.61-.844-.968-.5-1.437-1.172-.453-.687-.453-1.625 0-1.562 1.312-2.64 1.328-1.078 3.375-1.078 2.156 0 3.5 1.125 1.344 1.109 1.344 2.843h-2.188q0-.89-.75-1.53-.75-.657-1.906-.657-1.187 0-1.86.515-.655.516-.655 1.36 0 .781.609 1.187.625.391 2.25.75 1.625.36 2.625.875 1.016.5 1.5 1.22.484.702.484 1.718 0 1.703-1.36 2.734-1.358 1.016-3.515 1.016-1.531 0-2.703-.531-1.172-.547-1.844-1.516-.656-.969-.656-2.094h2.172q.063 1.094.875 1.735.813.64 2.156.64 1.219 0 1.969-.5t.75-1.328zm13.863-12.39v3.062h2.375v1.687h-2.375v7.86q0 .765.313 1.14.328.375 1.094.375.375 0 1.03-.14v1.765q-.859.235-1.671.235-1.453 0-2.188-.875-.734-.89-.734-2.5v-7.86h-2.312v-1.687h2.312v-3.063h2.156zm7.075 4.609q1.437-1.781 3.75-1.781 4.015 0 4.046 4.546v8.375h-2.156v-8.39q-.015-1.375-.64-2.031-.61-.657-1.907-.657-1.062 0-1.86.563-.796.562-1.233 1.484v9.031h-2.172v-18h2.172v6.86zm18.875 11.14q-.188-.375-.297-1.343-1.516 1.578-3.61 1.578-1.875 0-3.078-1.063-1.203-1.062-1.203-2.687 0-1.985 1.5-3.078 1.516-1.094 4.234-1.094h2.11v-1q0-1.14-.688-1.813-.672-.671-1.984-.671-1.172 0-1.953.593-.781.578-.781 1.407h-2.188q0-.938.672-1.829.687-.89 1.828-1.406 1.156-.515 2.547-.515 2.187 0 3.422 1.109 1.25 1.094 1.297 3.016v5.828q0 1.75.453 2.781v.187h-2.281zm-3.594-1.656q1.015 0 1.922-.515.922-.532 1.328-1.375v-2.61H247.7q-3.984 0-3.984 2.328 0 1.032.672 1.61.687.562 1.75.562zm11.758-14.094v3.063h2.375v1.687h-2.375v7.86q0 .765.312 1.14.328.375 1.094.375.375 0 1.031-.14v1.765q-.86.235-1.672.235-1.453 0-2.187-.875-.735-.89-.735-2.5v-7.86h-2.312v-1.687h2.312v-3.063h2.157zm15.937 14.22q1.156 0 2.016-.704.875-.703.968-1.766h2.047q-.062 1.094-.75 2.079-.687.984-1.843 1.578-1.157.578-2.438.578-2.594 0-4.125-1.719-1.531-1.734-1.531-4.734v-.375q0-1.844.672-3.282.687-1.453 1.953-2.25 1.281-.796 3.015-.796 2.125 0 3.532 1.28 1.422 1.282 1.515 3.313h-2.047q-.093-1.218-.937-2.015-.828-.797-2.063-.797-1.656 0-2.562 1.203-.906 1.187-.906 3.437v.407q0 2.187.89 3.375.907 1.187 2.594 1.187zm6.89-4.923q0-1.875.735-3.359.734-1.484 2.031-2.297 1.313-.812 3-.812 2.578 0 4.172 1.796 1.61 1.797 1.61 4.766v.156q0 1.86-.72 3.328-.702 1.47-2.015 2.297-1.312.813-3.031.813-2.578 0-4.188-1.797-1.593-1.797-1.593-4.75v-.14zm2.188.25q0 2.11.969 3.391.984 1.281 2.625 1.281 1.656 0 2.625-1.297.969-1.297.969-3.625 0-2.093-.985-3.39-.984-1.297-2.625-1.297-1.609 0-2.593 1.281-.985 1.281-.985 3.656zm14.125-6.484l.078 1.594q1.453-1.828 3.797-1.828 4.016 0 4.047 4.546v8.375h-2.156v-8.39q-.016-1.375-.64-2.031-.61-.657-1.907-.657-1.063 0-1.86.563-.796.562-1.234 1.484v9.031h-2.172v-12.687h2.047zm14.133-3.063v3.063h2.375v1.687h-2.375v7.86q0 .765.313 1.14.328.375 1.093.375.375 0 1.032-.14v1.765q-.86.235-1.672.235-1.453 0-2.188-.875-.734-.89-.734-2.5v-7.86H306.7v-1.687h2.313v-3.063h2.156zm12.73 15.75q-.187-.375-.296-1.343-1.516 1.578-3.61 1.578-1.875 0-3.078-1.063-1.203-1.062-1.203-2.687 0-1.985 1.5-3.078 1.516-1.094 4.234-1.094h2.11v-1q0-1.14-.688-1.813-.672-.671-1.984-.671-1.172 0-1.953.593-.781.578-.781 1.407h-2.188q0-.938.672-1.829.687-.89 1.828-1.406 1.156-.515 2.547-.515 2.187 0 3.422 1.109 1.25 1.094 1.297 3.016v5.828q0 1.75.453 2.781v.187H323.9zm-3.593-1.656q1.015 0 1.922-.515.922-.532 1.328-1.375v-2.61h-1.688q-3.984 0-3.984 2.328 0 1.032.672 1.61.687.562 1.75.562zm11.18 1.656h-2.172v-12.687h2.171v12.687zm-2.344-16.046q0-.532.312-.891.328-.36.953-.36.641 0 .97.36.327.36.327.89 0 .532-.328.891-.328.344-.969.344-.625 0-.953-.344-.312-.36-.312-.89zm7.855 3.359l.078 1.594q1.453-1.828 3.797-1.828 4.016 0 4.047 4.546v8.375h-2.156v-8.39q-.016-1.375-.64-2.031-.61-.657-1.907-.657-1.063 0-1.86.563-.796.562-1.234 1.484v9.031h-2.172v-12.687h2.047z"/><path fill="maroon" d="M364.916 288.971H354.23v-2.547h10.687v2.547zm14.402 0h-10.687v-2.547h10.687v2.547zm15.028-8.765q0 1.375-.328 2.562-.313 1.188-.953 2.047-.625.86-1.547 1.36-.922.484-2.125.484-1.016 0-1.797-.344-.766-.36-1.344-1v5.984h-3.25v-17.562h3.016l.11 1.25q.593-.703 1.39-1.094.797-.39 1.86-.39 1.202 0 2.124.468.938.47 1.563 1.313.64.844.953 2.047.328 1.187.328 2.625v.25zm-3.266-.25q0-.797-.14-1.485-.141-.703-.454-1.218-.312-.516-.796-.797-.485-.297-1.188-.297-.844 0-1.39.344-.547.328-.86.937v5.297q.313.594.86.953.546.36 1.421.36.688 0 1.172-.297.485-.313.781-.844.313-.531.454-1.219.14-.703.14-1.484v-.25zm15.387-6.453q.734 0 1.36.109.624.094 1.015.219l-.484 3.234q-.641-.14-1.313-.219-.672-.078-1.281-.078-1.375 0-2.203.531-.828.516-1.235 1.5v7.625h-3.265v-12.687h3.047l.14 2.078q.781-1.078 1.86-1.687 1.078-.625 2.359-.625zm4.84 6.468q0-1.39.39-2.562.407-1.188 1.172-2.047.782-.875 1.875-1.36 1.11-.5 2.547-.5 1.422 0 2.531.5 1.125.485 1.891 1.36.766.86 1.156 2.047.407 1.172.407 2.562v.235q0 1.406-.407 2.578-.39 1.172-1.156 2.047-.75.86-1.875 1.36-1.11.483-2.531.483-1.422 0-2.547-.484-1.11-.5-1.89-1.36-.766-.874-1.173-2.046-.39-1.172-.39-2.578v-.235zm3.265.235q0 .797.141 1.5.156.703.484 1.218.329.516.844.829.531.296 1.266.296.719 0 1.234-.296.516-.313.828-.829.328-.515.485-1.218.156-.703.156-1.5v-.235q0-.78-.156-1.468-.157-.688-.485-1.22-.312-.53-.828-.827-.515-.313-1.25-.313-.734 0-1.25.313-.515.297-.844.828-.328.531-.484 1.219-.14.687-.14 1.468v.235zm17.559-9.563v3.094h4.734v2.406h-4.734v5.453q0 .688.156 1.157.172.453.453.734.297.281.703.406.422.11.938.11.375 0 .766-.032.406-.047.75-.093.359-.063.671-.11.313-.062.532-.125l.328 2.235q-.344.203-.813.359-.453.14-.968.234-.516.094-1.079.141-.546.062-1.078.062-1.047 0-1.906-.28-.844-.282-1.453-.86-.594-.578-.922-1.469-.328-.906-.328-2.156v-5.766h-2.89v-2.406h2.89v-3.094h3.25zm7.98 9.328q0-1.39.391-2.562.406-1.188 1.172-2.047.781-.875 1.875-1.36 1.11-.5 2.547-.5 1.422 0 2.531.5 1.125.485 1.89 1.36.766.86 1.157 2.047.406 1.172.406 2.562v.235q0 1.406-.406 2.578-.39 1.172-1.156 2.047-.75.86-1.875 1.36-1.11.483-2.532.483-1.421 0-2.546-.484-1.11-.5-1.891-1.36-.766-.874-1.172-2.046-.39-1.172-.39-2.578v-.235zm3.266.235q0 .797.14 1.5.157.703.485 1.218.328.516.844.829.531.296 1.265.296.72 0 1.235-.296.515-.313.828-.829.328-.515.484-1.218.157-.703.157-1.5v-.235q0-.78-.157-1.468-.156-.688-.484-1.22-.313-.53-.828-.827-.516-.313-1.25-.313-.735 0-1.25.313-.516.297-.844.828-.328.531-.484 1.219-.14.687-.14 1.468v.235zm22.356 8.765h-10.688v-2.547h10.688v2.547zm14.402 0h-10.688v-2.547h10.688v2.547z"/><path fill="#666" d="M483.693 289.83l-1.234-.843q1.094-1.547 1.14-3.172v-1.953h2.126v1.688q0 1.187-.578 2.375-.579 1.187-1.454 1.906zm10.137-9.859q0-1.875.735-3.359.734-1.484 2.03-2.297 1.313-.812 3-.812 2.579 0 4.173 1.797 1.61 1.796 1.61 4.765v.156q0 1.86-.72 3.329-.703 1.468-2.015 2.296-1.313.813-3.032.813-2.578 0-4.187-1.797-1.594-1.797-1.594-4.75v-.14zm2.188.25q0 2.11.968 3.391.985 1.281 2.625 1.281 1.657 0 2.625-1.297.97-1.296.97-3.625 0-2.093-.985-3.39-.985-1.297-2.625-1.297-1.61 0-2.594 1.281-.984 1.281-.984 3.656zm18.203-4.53q-.485-.079-1.063-.079-2.125 0-2.89 1.813v9h-2.172v-12.688h2.11l.03 1.469q1.079-1.703 3.032-1.703.625 0 .953.172v2.015z"/><path fill="maroon" d="M521.846 279.987q0-1.438.36-2.625.359-1.203 1.015-2.063.672-.859 1.625-1.328.953-.468 2.14-.468 1.11 0 1.907.375.797.375 1.36 1.078l.14-1.219h2.953v12.281q0 1.282-.438 2.282-.437 1.015-1.234 1.703-.781.703-1.89 1.062-1.11.36-2.438.36-.578 0-1.235-.125-.656-.11-1.312-.36-.64-.25-1.219-.64-.562-.375-.969-.891l1.454-1.984q.625.703 1.406 1.062.797.375 1.703.375 1.375 0 2.14-.734.766-.735.766-2.078v-.735q-.578.64-1.344 1-.765.344-1.765.344-1.188 0-2.14-.484-.938-.485-1.61-1.344-.656-.86-1.016-2.031-.36-1.188-.36-2.563v-.25zm3.265.25q0 .797.157 1.484.156.688.484 1.204.328.5.828.796.516.282 1.203.282.86 0 1.407-.328.562-.329.89-.907v-5.375q-.328-.593-.89-.906-.547-.328-1.375-.328-.704 0-1.204.297t-.843.828q-.328.516-.5 1.219-.157.687-.157 1.484v.25zm17.622 6.422q-1.47 0-2.672-.484-1.188-.485-2.047-1.297-.86-.828-1.328-1.953-.453-1.125-.453-2.391v-.469q0-1.453.453-2.656.468-1.203 1.28-2.063.829-.875 1.954-1.359t2.438-.484q1.375 0 2.437.453 1.078.453 1.828 1.281.75.813 1.125 1.969.39 1.156.39 2.547v1.39h-8.593q.094.64.375 1.172.281.531.719.922.453.39 1.031.61.578.203 1.25.203.484 0 .953-.094.485-.094.906-.281.438-.188.813-.454.375-.265.656-.625l1.64 1.75q-.312.438-.796.86-.484.406-1.156.734-.657.313-1.47.516-.796.203-1.733.203zm-.391-10.516q-.547 0-1.016.203-.453.188-.797.547-.343.36-.578.875-.234.5-.36 1.125h5.345v-.265q-.016-.516-.203-.97-.172-.452-.5-.78-.329-.344-.797-.532-.47-.203-1.094-.203zm14.605-5.5v3.094h4.735v2.406h-4.735v5.453q0 .688.157 1.157.171.453.453.734.297.281.703.406.422.11.937.11.375 0 .766-.032.406-.046.75-.093.36-.063.672-.11.312-.062.531-.125l.328 2.235q-.344.203-.812.359-.453.14-.969.234t-1.078.141q-.547.063-1.078.063-1.047 0-1.907-.282-.843-.281-1.453-.86-.593-.577-.922-1.468-.328-.906-.328-2.156v-5.766h-2.89v-2.406h2.89v-3.094h3.25z"/><path fill="#666" d="M570.729 279.971q0-1.875.734-3.359t2.031-2.297q1.313-.812 3-.812 2.578 0 4.172 1.796 1.61 1.797 1.61 4.766v.156q0 1.86-.72 3.328-.702 1.47-2.015 2.297-1.312.813-3.031.813-2.578 0-4.188-1.797-1.593-1.797-1.593-4.75v-.14zm2.187.25q0 2.11.969 3.391.984 1.281 2.625 1.281 1.656 0 2.625-1.297.969-1.297.969-3.625 0-2.093-.985-3.39-.984-1.297-2.625-1.297-1.61 0-2.593 1.281-.985 1.281-.985 3.656zm18.203-4.53q-.484-.079-1.062-.079-2.125 0-2.89 1.812v9h-2.173v-12.687h2.11l.03 1.469q1.079-1.703 3.032-1.703.625 0 .953.171v2.016z"/><path fill="maroon" d="M607.244 282.94q0-.297-.14-.516-.125-.218-.47-.406-.343-.203-.921-.36-.578-.171-1.453-.327-1.11-.235-2.031-.563-.922-.328-1.578-.797-.657-.484-1.032-1.109-.36-.625-.36-1.422 0-.797.376-1.5.375-.719 1.078-1.25.703-.547 1.703-.86 1.016-.327 2.281-.327 1.329 0 2.375.312 1.063.313 1.782.86.734.546 1.125 1.296.39.75.39 1.625h-3.265q0-.734-.594-1.234t-1.813-.5q-1.14 0-1.718.422-.578.406-.578 1 0 .281.109.531.125.234.422.422.297.187.812.36.516.156 1.313.265 1.156.187 2.14.484.985.297 1.688.766.719.453 1.125 1.125.406.656.406 1.562 0 .844-.406 1.563-.406.703-1.156 1.219-.735.515-1.797.812-1.047.281-2.344.281-1.437 0-2.531-.375t-1.844-.984q-.734-.61-1.11-1.375-.374-.766-.374-1.531h3.093q.047.515.282.89.25.36.64.594.39.219.875.328.5.11 1.032.11 1.203 0 1.828-.39.64-.392.64-1zm12.387 3.719q-1.469 0-2.672-.485-1.187-.484-2.047-1.296-.86-.829-1.328-1.954-.453-1.125-.453-2.39v-.469q0-1.453.453-2.656.469-1.203 1.281-2.063.828-.875 1.953-1.359t2.438-.484q1.375 0 2.437.453 1.079.453 1.829 1.281.75.812 1.125 1.969.39 1.156.39 2.547v1.39h-8.594q.094.64.375 1.172.282.531.72.922.452.39 1.03.61.579.202 1.25.202.485 0 .954-.093.484-.094.906-.282.437-.187.812-.453.375-.265.657-.625l1.64 1.75q-.312.438-.797.86-.484.406-1.156.734-.656.313-1.469.516-.797.203-1.734.203zm-.39-10.516q-.548 0-1.016.203-.453.188-.797.547-.344.36-.578.875-.235.5-.36 1.125h5.344v-.265q-.016-.516-.203-.97-.172-.452-.5-.78-.328-.344-.797-.532-.469-.203-1.094-.203zm14.605-5.5v3.094h4.734v2.406h-4.734v5.453q0 .688.156 1.157.172.453.453.734.297.281.703.406.422.11.938.11.375 0 .765-.032.407-.047.75-.093.36-.063.672-.11.313-.062.532-.125l.328 2.235q-.344.203-.813.359-.453.14-.969.234-.515.094-1.078.141-.547.062-1.078.062-1.047 0-1.906-.28-.844-.282-1.453-.86-.594-.578-.922-1.469-.328-.906-.328-2.156v-5.766h-2.89v-2.406h2.89v-3.094h3.25z"/><path fill="#666" d="M647.674 279.971q0-2.906 1.375-4.687 1.39-1.781 3.64-1.781 2.22 0 3.516 1.53v-6.609h2.172v18h-1.984l-.11-1.359q-1.297 1.594-3.625 1.594-2.203 0-3.593-1.797-1.391-1.813-1.391-4.719v-.172zm2.172.25q0 2.157.89 3.375.891 1.22 2.47 1.22 2.062 0 3-1.845v-5.828q-.97-1.797-2.985-1.797-1.594 0-2.485 1.235-.89 1.234-.89 3.64zm17.16 6.438q-2.578 0-4.203-1.688-1.61-1.703-1.61-4.53v-.407q0-1.89.72-3.36.718-1.484 2.015-2.328 1.297-.843 2.812-.843 2.47 0 3.828 1.64 1.375 1.625 1.375 4.656v.907h-8.578q.047 1.875 1.094 3.031 1.047 1.156 2.656 1.156 1.157 0 1.953-.469.797-.468 1.391-1.25l1.328 1.032q-1.594 2.453-4.781 2.453zm-.266-11.375q-1.312 0-2.203.969-.89.953-1.11 2.671h6.36v-.171q-.094-1.641-.89-2.547-.797-.922-2.157-.922zm12.809 9.61q1.156 0 2.016-.704.875-.703.968-1.766h2.047q-.062 1.094-.75 2.079-.687.984-1.844 1.578-1.156.578-2.437.578-2.594 0-4.125-1.719-1.531-1.734-1.531-4.734v-.375q0-1.844.672-3.282.687-1.453 1.953-2.25 1.28-.796 3.015-.796 2.125 0 3.532 1.28 1.421 1.282 1.515 3.313h-2.047q-.093-1.218-.937-2.015-.828-.797-2.063-.797-1.656 0-2.562 1.203-.906 1.187-.906 3.437v.407q0 2.187.89 3.375.906 1.187 2.594 1.187zm9.828 1.53h-2.172v-18h2.172v18zm11.293 0q-.187-.375-.297-1.343-1.515 1.578-3.61 1.578-1.874 0-3.077-1.063-1.203-1.062-1.203-2.687 0-1.985 1.5-3.078 1.515-1.094 4.234-1.094h2.11v-1q0-1.14-.688-1.813-.672-.671-1.985-.671-1.171 0-1.953.593-.781.578-.781 1.407h-2.187q0-.938.671-1.829.688-.89 1.829-1.406 1.156-.515 2.546-.515 2.188 0 3.422 1.109 1.25 1.094 1.297 3.016v5.828q0 1.75.453 2.781v.187h-2.281zm-3.594-1.656q1.016 0 1.922-.515.922-.532 1.328-1.375v-2.61h-1.687q-3.985 0-3.985 2.328 0 1.032.672 1.61.688.562 1.75.562zm14.946-9.078q-.485-.078-1.063-.078-2.125 0-2.89 1.812v9h-2.172v-12.687h2.109l.031 1.469q1.078-1.703 3.031-1.703.625 0 .954.171v2.016zm9.824 10.734q-.188-.375-.297-1.343-1.516 1.578-3.61 1.578-1.874 0-3.078-1.063-1.203-1.062-1.203-2.687 0-1.985 1.5-3.078 1.516-1.094 4.235-1.094h2.11v-1q0-1.14-.688-1.813-.672-.671-1.985-.671-1.172 0-1.953.593-.781.578-.781 1.407h-2.188q0-.938.672-1.829.688-.89 1.828-1.406 1.157-.515 2.547-.515 2.188 0 3.422 1.109 1.25 1.094 1.297 3.016v5.828q0 1.75.453 2.781v.187h-2.281zm-3.594-1.656q1.016 0 1.922-.515.922-.532 1.328-1.375v-2.61h-1.687q-3.985 0-3.985 2.328 0 1.032.672 1.61.688.562 1.75.562zm11.758-14.094v3.063h2.375v1.687h-2.375v7.86q0 .765.312 1.14.329.375 1.094.375.375 0 1.031-.14v1.765q-.859.235-1.671.235-1.454 0-2.188-.875-.734-.89-.734-2.5v-7.86h-2.313v-1.687h2.313v-3.063h2.156zm7.262 15.75H735.1v-12.687h2.172v12.687zm-2.344-16.046q0-.532.312-.891.328-.36.953-.36.641 0 .97.36.327.36.327.89 0 .532-.328.891-.328.344-.969.344-.625 0-.953-.344-.312-.36-.312-.89zm5.23 9.593q0-1.875.735-3.359.734-1.484 2.031-2.297 1.312-.812 3-.812 2.578 0 4.172 1.796 1.61 1.797 1.61 4.766v.156q0 1.86-.72 3.328-.703 1.47-2.015 2.297-1.313.813-3.031.813-2.579 0-4.188-1.797-1.594-1.797-1.594-4.75v-.14zm2.188.25q0 2.11.969 3.391.984 1.281 2.625 1.281 1.656 0 2.625-1.297.968-1.297.968-3.625 0-2.093-.984-3.39-.984-1.297-2.625-1.297-1.61 0-2.594 1.281-.984 1.281-.984 3.656zm14.125-6.484l.078 1.594q1.453-1.828 3.797-1.828 4.015 0 4.047 4.546v8.375h-2.157v-8.39q-.015-1.375-.64-2.031-.61-.657-1.906-.657-1.063 0-1.86.563-.797.562-1.234 1.484v9.031h-2.172v-12.687h2.047zm18.586 9.328q0-.89-.672-1.375-.656-.484-2.313-.828-1.64-.36-2.609-.844-.969-.5-1.437-1.172-.454-.687-.454-1.625 0-1.562 1.313-2.64 1.328-1.078 3.375-1.078 2.156 0 3.5 1.125 1.344 1.109 1.344 2.843h-2.188q0-.89-.75-1.53-.75-.657-1.906-.657-1.188 0-1.86.515-.656.516-.656 1.36 0 .781.61 1.187.625.391 2.25.75 1.625.36 2.625.875 1.015.5 1.5 1.22.484.702.484 1.718 0 1.703-1.36 2.734-1.359 1.016-3.515 1.016-1.531 0-2.703-.531-1.172-.547-1.844-1.516-.656-.969-.656-2.094h2.172q.062 1.094.875 1.735.812.64 2.156.64 1.219 0 1.969-.5t.75-1.328zm5.031 2.219q0-.563.328-.938.344-.375 1-.375.672 0 1.016.375.36.375.36.938 0 .547-.36.906-.344.36-1.016.36-.656 0-1-.36-.328-.36-.328-.906zM35.686 317.487q1.297 0 2.53.672 1.25.672 1.938 1.922.688 1.234.688 2.562 0 2.157-1.516 3.672-1.5 1.5-3.64 1.5-2.141 0-3.657-1.5-1.5-1.515-1.5-3.672 0-1.343.688-2.578.687-1.234 1.922-1.906 1.25-.672 2.547-.672z"/><path fill="maroon" d="M68.244 322.987q0-1.438.328-2.625.344-1.203.985-2.063.64-.859 1.562-1.328.922-.468 2.11-.468 1 0 1.75.359.75.36 1.343 1.016v-6.453h3.266v18h-2.937l-.172-1.329q-.594.735-1.407 1.157-.796.406-1.875.406-1.156 0-2.078-.484-.922-.485-1.562-1.344-.625-.86-.969-2.031-.344-1.188-.344-2.563v-.25zm3.266.25q0 .797.125 1.484.14.688.437 1.204.313.5.782.796.484.282 1.187.282.844 0 1.39-.36.563-.36.891-1v-5.125q-.328-.64-.89-1-.547-.36-1.375-.36-.688 0-1.172.298-.484.297-.797.828-.297.516-.437 1.219-.141.687-.141 1.484v.25zm17.637 6.422q-1.47 0-2.672-.484-1.188-.485-2.047-1.297-.86-.828-1.328-1.953-.453-1.125-.453-2.391v-.469q0-1.453.453-2.656.468-1.203 1.281-2.063.828-.875 1.953-1.359t2.438-.484q1.375 0 2.437.453 1.078.453 1.828 1.281.75.813 1.125 1.969.39 1.156.39 2.547v1.39H85.96q.094.64.375 1.172.281.531.719.922.453.39 1.031.61.578.203 1.25.203.484 0 .953-.094.485-.094.906-.281.438-.188.813-.454.375-.265.656-.625l1.64 1.75q-.312.438-.796.86-.484.406-1.156.734-.657.313-1.469.516-.797.203-1.734.203zm-.391-10.516q-.547 0-1.016.203-.453.188-.797.547-.343.36-.578.875-.234.5-.359 1.125h5.344v-.265q-.016-.516-.203-.97-.172-.452-.5-.78-.329-.344-.797-.532-.469-.203-1.094-.203zm20.059 4.063q0 1.422-.313 2.61-.312 1.187-.937 2.046-.61.844-1.547 1.328-.922.469-2.14.469-1.126 0-1.938-.406-.813-.422-1.391-1.172l-.156 1.344h-2.938v-18h3.266v6.468q.562-.656 1.328-1.015.766-.375 1.797-.375 1.25 0 2.172.484.937.484 1.547 1.344.625.844.937 2.047.313 1.187.313 2.593v.235zm-3.25-.235q0-.78-.125-1.468-.11-.688-.407-1.203-.28-.532-.78-.829-.485-.312-1.22-.312-.89 0-1.453.375-.562.375-.86 1.031v5.047q.298.656.86 1.031.563.375 1.469.375.734 0 1.219-.281.484-.297.765-.797.297-.515.407-1.203.125-.703.125-1.531v-.235zm14.308 4.672q-.64.953-1.547 1.5-.906.532-1.984.532-.984 0-1.813-.297-.812-.313-1.406-.97-.578-.671-.906-1.687-.313-1.03-.313-2.484v-7.5h3.25v7.531q0 .766.11 1.297.11.531.36.86.25.312.64.453.406.14.984.14.969 0 1.578-.36.61-.374.922-1.015v-8.906h3.266v12.688h-2.953l-.188-1.782zm5.996-4.656q0-1.438.36-2.625.359-1.203 1.015-2.063.672-.859 1.625-1.328.953-.468 2.14-.468 1.11 0 1.907.375.797.375 1.36 1.078l.14-1.219h2.953v12.281q0 1.282-.437 2.282-.438 1.015-1.235 1.703-.78.703-1.89 1.062-1.11.36-2.438.36-.578 0-1.234-.125-.656-.11-1.313-.36-.64-.25-1.218-.64-.563-.375-.97-.891l1.454-1.984q.625.703 1.406 1.062.797.375 1.703.375 1.375 0 2.141-.734.766-.735.766-2.078v-.735q-.578.64-1.344 1-.766.344-1.766.344-1.187 0-2.14-.484-.938-.485-1.61-1.344-.656-.86-1.015-2.031-.36-1.188-.36-2.563v-.25zm3.266.25q0 .797.156 1.484.156.688.485 1.204.328.5.828.796.515.282 1.203.282.86 0 1.406-.328.563-.329.89-.907v-5.375q-.327-.593-.89-.906-.547-.328-1.375-.328-.703 0-1.203.297-.5.297-.844.828-.328.516-.5 1.219-.156.687-.156 1.484v.25zm11.137-.25q0-1.438.359-2.625.36-1.203 1.016-2.063.671-.859 1.625-1.328.953-.468 2.14-.468 1.11 0 1.906.375.797.375 1.36 1.078l.14-1.219h2.954v12.281q0 1.282-.438 2.282-.437 1.015-1.234 1.703-.782.703-1.89 1.062-1.11.36-2.438.36-.579 0-1.235-.125-.656-.11-1.312-.36-.64-.25-1.219-.64-.563-.375-.969-.891l1.453-1.984q.625.703 1.407 1.062.796.375 1.703.375 1.375 0 2.14-.734.766-.735.766-2.078v-.735q-.578.64-1.344 1-.765.344-1.765.344-1.188 0-2.141-.484-.938-.485-1.61-1.344-.656-.86-1.015-2.031-.36-1.188-.36-2.563v-.25zm3.265.25q0 .797.156 1.484.157.688.485 1.204.328.5.828.796.516.282 1.203.282.86 0 1.406-.328.563-.329.891-.907v-5.375q-.328-.593-.89-.906-.548-.328-1.376-.328-.703 0-1.203.297-.5.297-.844.828-.328.516-.5 1.219-.156.687-.156 1.484v.25zm17.621 6.422q-1.468 0-2.672-.484-1.187-.485-2.046-1.297-.86-.828-1.329-1.953-.453-1.125-.453-2.391v-.469q0-1.453.453-2.656.47-1.203 1.282-2.063.828-.875 1.953-1.359t2.437-.484q1.375 0 2.438.453 1.078.453 1.828 1.281.75.813 1.125 1.969.39 1.156.39 2.547v1.39h-8.593q.094.64.375 1.172.281.531.719.922.453.39 1.03.61.579.203 1.25.203.485 0 .954-.094.484-.094.906-.281.438-.188.813-.454.375-.265.656-.625l1.64 1.75q-.312.438-.796.86-.485.406-1.157.734-.656.313-1.468.516-.797.203-1.735.203zm-.39-10.516q-.547 0-1.016.203-.453.188-.797.547-.344.36-.578.875-.234.5-.36 1.125h5.344v-.265q-.015-.516-.203-.97-.172-.452-.5-.78-.328-.344-.797-.532-.468-.203-1.093-.203zm17.746-2.64q.734 0 1.36.109.624.094 1.015.219l-.485 3.234q-.64-.14-1.312-.219-.672-.078-1.281-.078-1.375 0-2.203.532-.829.515-1.235 1.5v7.625h-3.265v-12.688h3.046l.141 2.078q.781-1.078 1.86-1.687 1.078-.625 2.359-.625z"/><path fill="#666" d="M189.154 322.971q0-1.875.735-3.359.734-1.484 2.031-2.297 1.313-.812 3-.812 2.578 0 4.172 1.796 1.61 1.797 1.61 4.766v.156q0 1.86-.72 3.328-.703 1.47-2.015 2.297-1.313.813-3.031.813-2.578 0-4.188-1.797-1.594-1.797-1.594-4.75v-.14zm2.188.25q0 2.11.969 3.391.984 1.281 2.625 1.281 1.656 0 2.625-1.297.968-1.297.968-3.625 0-2.093-.984-3.39-.984-1.297-2.625-1.297-1.61 0-2.594 1.281-.984 1.281-.984 3.656zm18.203-4.53q-.484-.079-1.062-.079-2.125 0-2.891 1.812v9h-2.172v-12.687h2.11l.03 1.469q1.079-1.703 3.032-1.703.625 0 .953.171v2.016z"/><path fill="maroon" d="M225.608 325.456l1.093-8.719h3l-2.281 12.688h-2.86l-1.656-8.063-1.609 8.063h-2.86l-2.28-12.688h2.984l1.094 8.75 1.593-8.75h2.188l1.594 8.719zm7.152-8.719h6.906v10.031h3.438v2.657H232.76v-2.657h3.61v-7.36h-3.61v-2.671zm3.375-3.234q0-.375.14-.703.141-.329.376-.547.25-.235.593-.36.344-.125.766-.125.875 0 1.375.485.516.484.516 1.25 0 .75-.516 1.25-.5.484-1.375.484-.422 0-.766-.125-.343-.14-.593-.36-.235-.234-.375-.546-.141-.328-.141-.703zm16.137.14v3.094h4.734v2.406h-4.734v5.453q0 .688.156 1.157.172.453.453.734.297.281.703.406.422.11.938.11.375 0 .765-.032.406-.046.75-.093.36-.063.672-.11.313-.062.531-.125l.328 2.235q-.343.203-.812.359-.453.14-.969.234-.515.094-1.078.141-.547.063-1.078.063-1.047 0-1.906-.282-.844-.281-1.453-.86-.594-.577-.922-1.468-.328-.906-.328-2.156v-5.766h-2.891v-2.406h2.89v-3.094h3.25zm11.683 4.844q.64-.922 1.547-1.453.906-.531 2.031-.531 1 0 1.828.312.829.297 1.422.938.61.625.938 1.609.344.984.344 2.39v7.673h-3.266v-7.704q0-.671-.172-1.156-.172-.5-.484-.797-.313-.312-.766-.453-.437-.156-1-.156-.828 0-1.437.297-.594.281-.985.812v9.157h-3.25v-18h3.25v7.062z"/><path fill="#666" d="M288.424 326.065q0-.89-.672-1.375-.656-.484-2.312-.828-1.641-.36-2.61-.844-.969-.5-1.437-1.172-.453-.687-.453-1.625 0-1.562 1.312-2.64 1.328-1.078 3.375-1.078 2.156 0 3.5 1.125 1.344 1.109 1.344 2.843h-2.188q0-.89-.75-1.53-.75-.657-1.906-.657-1.187 0-1.86.515-.656.516-.656 1.36 0 .781.61 1.187.625.391 2.25.75 1.625.36 2.625.875 1.015.5 1.5 1.22.484.702.484 1.718 0 1.703-1.36 2.734-1.359 1.016-3.515 1.016-1.531 0-2.703-.531-1.172-.547-1.844-1.516-.656-.969-.656-2.094h2.172q.062 1.094.875 1.735.812.64 2.156.64 1.219 0 1.969-.5t.75-1.328zm7.922-12.39v3.062h2.375v1.687h-2.375v7.86q0 .765.312 1.14.328.375 1.094.375.375 0 1.031-.14v1.765q-.86.235-1.672.235-1.453 0-2.187-.875-.734-.89-.734-2.5v-7.86h-2.313v-1.687h2.313v-3.063h2.156zm12.73 15.75q-.187-.376-.297-1.344-1.515 1.578-3.609 1.578-1.875 0-3.078-1.063-1.203-1.062-1.203-2.687 0-1.985 1.5-3.078 1.515-1.094 4.234-1.094h2.11v-1q0-1.14-.688-1.813-.672-.671-1.984-.671-1.172 0-1.953.593-.782.578-.782 1.407h-2.187q0-.938.672-1.829.687-.89 1.828-1.406 1.156-.515 2.547-.515 2.187 0 3.422 1.109 1.25 1.094 1.296 3.016v5.828q0 1.75.454 2.781v.187h-2.282zm-3.593-1.657q1.015 0 1.921-.515.922-.532 1.329-1.375v-2.61h-1.688q-3.984 0-3.984 2.328 0 1.032.672 1.61.687.562 1.75.562zm11.757-14.094v3.063h2.375v1.687h-2.375v7.86q0 .765.313 1.14.328.375 1.094.375.375 0 1.03-.14v1.765q-.859.235-1.671.235-1.453 0-2.188-.875-.734-.89-.734-2.5v-7.86h-2.312v-1.687h2.312v-3.063h2.156zm10.168 15.985q-2.578 0-4.203-1.688-1.61-1.703-1.61-4.53v-.407q0-1.89.72-3.36.718-1.484 2.015-2.328 1.297-.843 2.813-.843 2.468 0 3.828 1.64 1.375 1.625 1.375 4.656v.907h-8.578q.047 1.875 1.093 3.031 1.047 1.156 2.657 1.156 1.156 0 1.953-.469.797-.468 1.39-1.25l1.329 1.032q-1.594 2.453-4.782 2.453zm-.265-11.375q-1.313 0-2.203.969-.891.953-1.11 2.671h6.36v-.171q-.094-1.641-.891-2.547-.797-.922-2.156-.922zm9.761-1.547l.047 1.406q1.407-1.64 3.766-1.64 2.656 0 3.625 2.046.625-.921 1.64-1.484 1.016-.562 2.407-.562 4.172 0 4.234 4.421v8.5h-2.172v-8.375q0-1.359-.625-2.03-.61-.673-2.078-.673-1.203 0-2 .72-.797.718-.922 1.937v8.421h-2.187v-8.312q0-2.766-2.703-2.766-2.141 0-2.922 1.813v9.265h-2.172v-12.687h2.062zm24.254 12.922q-2.578 0-4.203-1.688-1.61-1.703-1.61-4.53v-.407q0-1.89.72-3.36.718-1.484 2.015-2.328 1.297-.843 2.813-.843 2.468 0 3.828 1.64 1.375 1.625 1.375 4.656v.907h-8.578q.047 1.875 1.093 3.031 1.047 1.156 2.657 1.156 1.156 0 1.953-.469.797-.468 1.39-1.25l1.329 1.032q-1.594 2.453-4.782 2.453zm-.265-11.375q-1.313 0-2.203.969-.891.953-1.11 2.671h6.36v-.171q-.094-1.641-.891-2.547-.797-.922-2.156-.922zm9.761-1.547l.079 1.594q1.453-1.828 3.796-1.828 4.016 0 4.047 4.546v8.375h-2.156v-8.39q-.016-1.375-.64-2.031-.61-.657-1.907-.657-1.062 0-1.86.563-.796.562-1.234 1.484v9.031h-2.171v-12.687h2.046zm14.133-3.063v3.063h2.375v1.687h-2.375v7.86q0 .765.313 1.14.328.375 1.093.375.375 0 1.032-.14v1.765q-.86.235-1.672.235-1.453 0-2.188-.875-.734-.89-.734-2.5v-7.86h-2.313v-1.687h2.313v-3.063h2.156zm12.293 12.391q0-.89-.672-1.375-.656-.484-2.312-.828-1.64-.36-2.61-.844-.968-.5-1.437-1.172-.453-.687-.453-1.625 0-1.562 1.312-2.64 1.328-1.078 3.375-1.078 2.157 0 3.5 1.125 1.344 1.109 1.344 2.843h-2.187q0-.89-.75-1.53-.75-.657-1.907-.657-1.187 0-1.859.515-.656.516-.656 1.36 0 .781.61 1.187.624.391 2.25.75 1.624.36 2.624.875 1.016.5 1.5 1.22.484.702.484 1.718 0 1.703-1.359 2.734-1.36 1.016-3.516 1.016-1.53 0-2.703-.531-1.172-.547-1.843-1.516-.657-.969-.657-2.094h2.172q.063 1.094.875 1.735.813.64 2.156.64 1.22 0 1.97-.5t.75-1.328zM35.686 360.487q1.297 0 2.53.672 1.25.672 1.938 1.922.688 1.234.688 2.562 0 2.157-1.516 3.672-1.5 1.5-3.64 1.5-2.141 0-3.657-1.5-1.5-1.515-1.5-3.672 0-1.343.688-2.578.687-1.234 1.922-1.906 1.25-.672 2.547-.672zm35.496 10.093h8.078v1.845H68.916v-17.063h2.266v15.219zm12.664 1.845h-2.172v-12.688h2.172v12.688zm-2.344-16.047q0-.532.313-.891.328-.36.953-.36.64 0 .968.36.329.36.329.89 0 .532-.329.891-.328.344-.968.344-.625 0-.953-.344-.313-.36-.313-.89zm8.746.297v3.062h2.375v1.688h-2.375v7.859q0 .766.313 1.14.328.376 1.093.376.375 0 1.032-.141v1.766q-.86.234-1.672.234-1.453 0-2.188-.875-.734-.89-.734-2.5v-7.86h-2.313v-1.687h2.313v-3.062h2.156zm10.168 15.984q-2.578 0-4.203-1.688-1.61-1.703-1.61-4.53v-.407q0-1.89.72-3.36.718-1.484 2.015-2.328 1.297-.843 2.813-.843 2.468 0 3.828 1.64 1.375 1.625 1.375 4.657v.906h-8.578q.046 1.875 1.093 3.031 1.047 1.156 2.657 1.156 1.156 0 1.953-.468.797-.47 1.39-1.25l1.328 1.03q-1.593 2.454-4.78 2.454zm-.265-11.375q-1.313 0-2.204.969-.89.953-1.109 2.672h6.36v-.172q-.094-1.641-.891-2.547-.797-.922-2.156-.922zm13.84.406q-.485-.078-1.063-.078-2.125 0-2.89 1.813v9h-2.173v-12.688h2.11l.031 1.469q1.078-1.703 3.031-1.703.625 0 .953.172v2.015zm9.824 10.735q-.188-.375-.297-1.344-1.516 1.578-3.61 1.578-1.875 0-3.078-1.063-1.203-1.062-1.203-2.687 0-1.984 1.5-3.078 1.516-1.094 4.234-1.094h2.11v-1q0-1.14-.688-1.812-.672-.672-1.984-.672-1.172 0-1.953.593-.781.579-.781 1.407h-2.188q0-.938.672-1.828.687-.891 1.828-1.407 1.156-.515 2.547-.515 2.187 0 3.422 1.109 1.25 1.094 1.297 3.016v5.828q0 1.75.453 2.781v.188h-2.281zm-3.594-1.657q1.015 0 1.922-.515.922-.532 1.328-1.375v-2.61h-1.688q-3.984 0-3.984 2.328 0 1.032.672 1.61.687.562 1.75.562zm11.18 1.657h-2.172v-18h2.172v18zm14.5-1.532q1.156 0 2.015-.703.875-.703.969-1.765h2.047q-.063 1.093-.75 2.078-.688.984-1.844 1.578-1.156.578-2.437.578-2.594 0-4.125-1.719-1.532-1.734-1.532-4.734v-.375q0-1.844.672-3.281.688-1.454 1.953-2.25 1.282-.797 3.016-.797 2.125 0 3.531 1.28 1.422 1.282 1.516 3.313h-2.047q-.094-1.218-.938-2.015-.828-.797-2.062-.797-1.656 0-2.563 1.203-.906 1.188-.906 3.438v.406q0 2.187.89 3.375.907 1.187 2.595 1.187zm15.296 1.532q-.187-.375-.296-1.344-1.516 1.578-3.61 1.578-1.875 0-3.078-1.063-1.203-1.062-1.203-2.687 0-1.984 1.5-3.078 1.516-1.094 4.234-1.094h2.11v-1q0-1.14-.688-1.812-.672-.672-1.984-.672-1.172 0-1.953.593-.782.579-.782 1.407h-2.187q0-.938.672-1.828.687-.891 1.828-1.407 1.156-.515 2.547-.515 2.187 0 3.422 1.109 1.25 1.094 1.297 3.016v5.828q0 1.75.453 2.781v.188h-2.282zm-3.593-1.657q1.015 0 1.922-.515.921-.532 1.328-1.375v-2.61h-1.688q-3.984 0-3.984 2.328 0 1.032.672 1.61.687.562 1.75.562zm11.18 1.657h-2.173v-18h2.172v18zm5.824 0h-2.172v-18h2.172v18zm10.855-3.36q0-.89-.672-1.375-.656-.484-2.312-.828-1.641-.36-2.61-.844-.968-.5-1.437-1.172-.453-.687-.453-1.625 0-1.562 1.312-2.64 1.328-1.078 3.375-1.078 2.156 0 3.5 1.125 1.344 1.109 1.344 2.843h-2.188q0-.89-.75-1.53-.75-.657-1.906-.657-1.187 0-1.86.516-.655.515-.655 1.359 0 .781.609 1.187.625.391 2.25.75 1.625.36 2.625.875 1.016.5 1.5 1.22.484.702.484 1.718 0 1.703-1.36 2.734-1.358 1.016-3.515 1.016-1.531 0-2.703-.531-1.172-.547-1.844-1.516-.656-.969-.656-2.094h2.172q.063 1.094.875 1.735.813.64 2.156.64 1.219 0 1.969-.5t.75-1.328zm13.863-12.39v3.062h2.375v1.688h-2.375v7.859q0 .766.313 1.14.328.376 1.094.376.375 0 1.03-.141v1.766q-.859.234-1.671.234-1.453 0-2.188-.875-.734-.89-.734-2.5v-7.86h-2.312v-1.687h2.312v-3.062h2.156zm4.325 9.296q0-1.875.734-3.359t2.031-2.297q1.313-.812 3-.812 2.578 0 4.172 1.797 1.61 1.796 1.61 4.765v.156q0 1.86-.72 3.329-.702 1.468-2.015 2.296-1.312.813-3.031.813-2.578 0-4.188-1.797-1.593-1.797-1.593-4.75v-.14zm2.187.25q0 2.11.969 3.391.984 1.281 2.625 1.281 1.656 0 2.625-1.297.969-1.296.969-3.625 0-2.093-.985-3.39-.984-1.297-2.625-1.297-1.61 0-2.594 1.281-.984 1.281-.984 3.656z"/><path fill="maroon" d="M230.03 372.659q-1.47 0-2.672-.484-1.188-.485-2.047-1.297-.86-.828-1.328-1.953-.454-1.125-.454-2.391v-.469q0-1.453.454-2.656.468-1.203 1.28-2.063.829-.875 1.954-1.359t2.437-.484q1.375 0 2.438.453 1.078.453 1.828 1.281.75.813 1.125 1.969.39 1.156.39 2.547v1.39h-8.593q.094.64.375 1.172.281.531.719.922.453.39 1.03.61.579.203 1.25.203.485 0 .954-.094.484-.094.906-.281.438-.188.813-.454.375-.265.656-.625l1.64 1.75q-.312.438-.796.86-.485.406-1.156.734-.657.313-1.47.516-.796.203-1.734.203zm-.391-10.516q-.547 0-1.016.203-.453.188-.797.547-.343.36-.578.875-.234.5-.36 1.125h5.345v-.265q-.016-.516-.204-.97-.171-.452-.5-.78-.328-.344-.796-.532-.47-.203-1.094-.203zm14.027 6.516l.156.922.172-.89 2.782-8.954h3.406l-4.813 12.688h-3.062l-4.844-12.688h3.406l2.797 8.922zm16.934 3.766q-.125-.235-.203-.532-.079-.312-.141-.656-.266.297-.625.563-.344.25-.781.453-.422.187-.938.297-.515.109-1.11.109-.968 0-1.796-.281-.813-.282-1.406-.782-.578-.515-.907-1.203-.328-.703-.328-1.515 0-2.016 1.5-3.11 1.5-1.093 4.453-1.093h1.829v-.75q0-.907-.61-1.438-.594-.547-1.719-.547-1 0-1.453.438-.453.422-.453 1.14h-3.265q0-.812.359-1.531.36-.734 1.047-1.281.687-.547 1.672-.875 1-.328 2.265-.328 1.157 0 2.141.28 1 .282 1.719.845.734.547 1.14 1.39.407.828.407 1.938v5.437q0 1.016.125 1.688.14.656.375 1.14v.204H260.6zm-3.11-2.282q.5 0 .922-.11.422-.124.75-.312.344-.187.594-.421.25-.25.39-.5v-2.172h-1.671q-.766 0-1.313.14-.531.14-.875.407-.328.265-.5.64-.156.36-.156.797 0 .656.453 1.094.469.437 1.406.437zm10.262-15.718h7.094v15.343h3.64v2.657h-10.734v-2.657h3.797v-12.687h-3.797v-2.656z"/><path fill="#666" d="M284.014 365.503q0-1.688.265-3.157.266-1.484.704-2.734.453-1.266 1.03-2.297.579-1.047 1.22-1.86.64-.812 1.28-1.374.641-.578 1.235-.906l.453 1.421q-.734.547-1.453 1.5-.719.954-1.297 2.313-.562 1.344-.922 3.11-.343 1.765-.343 3.952v.172q0 2.188.343 3.953.36 1.766.922 3.125.578 1.375 1.297 2.329.719.968 1.453 1.562l-.453 1.328q-.594-.328-1.25-.906-.64-.563-1.281-1.375-.64-.813-1.219-1.86-.578-1.03-1.015-2.296-.438-1.266-.704-2.735-.265-1.484-.265-3.156v-.11zm20.168.109q0 1.672-.266 3.156-.265 1.469-.719 2.735-.437 1.265-1.015 2.297-.578 1.046-1.219 1.859-.64.812-1.297 1.375-.64.578-1.234.906l-.453-1.328q.734-.547 1.453-1.516.719-.953 1.281-2.328.578-1.375.922-3.156.36-1.781.36-3.969v-.172q0-2.187-.376-3.968-.375-1.797-.968-3.172-.579-1.375-1.297-2.328-.703-.97-1.375-1.516l.453-1.312q.594.328 1.234.906.656.562 1.297 1.375.64.812 1.219 1.86.578 1.03 1.015 2.296.454 1.25.72 2.734.265 1.47.265 3.157v.109zM35.686 403.487q1.297 0 2.53.672 1.25.672 1.938 1.922.688 1.234.688 2.562 0 2.157-1.516 3.672-1.5 1.5-3.64 1.5-2.141 0-3.657-1.5-1.5-1.515-1.5-3.672 0-1.343.688-2.578.687-1.234 1.922-1.906 1.25-.672 2.547-.672zm32.934 10.797q0-.563.327-.938.344-.375 1-.375.672 0 1.016.375.36.375.36.938 0 .547-.36.906-.344.36-1.016.36-.656 0-1-.36-.328-.36-.328-.906zm5 0q0-.563.327-.938.344-.375 1-.375.672 0 1.016.375.36.375.36.938 0 .547-.36.906-.344.36-1.016.36-.656 0-1-.36-.328-.36-.328-.906zm5 0q0-.563.327-.938.344-.375 1-.375.672 0 1.016.375.36.375.36.938 0 .547-.36.906-.344.36-1.016.36-.656 0-1-.36-.328-.36-.328-.906z"/><path d="M26.898 91.894L670.74 410.76"/><path stroke="#ea4335" stroke-width="24" stroke-linejoin="round" stroke-linecap="butt" d="M26.898 91.894L670.74 410.76"/><path d="M670.74 89.17L26.898 408.034"/><path stroke="#ea4335" stroke-width="24" stroke-linejoin="round" stroke-linecap="butt" d="M670.74 89.17L26.898 408.034"/></g></svg>