<svg xmlns="http://www.w3.org/2000/svg" width="718pt" height="592" viewBox="0 0 718 444"><defs><clipPath id="a"><path d="M150 259h357v137.8H150zm0 0"/></clipPath><clipPath id="b"><path d="M200 103h357v293.8H200zm0 0"/></clipPath></defs><path fill="#fff" d="M0 0h718v444H0z"/><path d="M81.5 333.5h433.001" transform="scale(1.18874 1.19035)" fill="none" stroke="#333" stroke-miterlimit="10"/><path d="M81.5 264.5h433.001m-433-68.001h433m-433-67.998h433m-433-69.002h433" transform="scale(1.18874 1.19035)" fill="none" stroke="#ccc" stroke-miterlimit="10"/><g clip-path="url(#a)"><path d="M199.707 396.387h-48.738v-52.375a2.381 2.381 0 0 1 2.379-2.383h43.984a2.378 2.378 0 0 1 2.375 2.383zm153.348 0h-48.739V261.875a2.38 2.38 0 0 1 2.38-2.379h43.984a2.377 2.377 0 0 1 2.375 2.379zm153.347 0h-48.738v-59.52a2.38 2.38 0 0 1 2.379-2.379h43.984a2.377 2.377 0 0 1 2.375 2.38zm0 0" fill="#f90"/></g><g clip-path="url(#b)"><path d="M249.637 396.387h-48.739v-160.7a2.377 2.377 0 0 1 2.375-2.378h43.985a2.38 2.38 0 0 1 2.379 2.379zm153.347 0h-48.738V105.94a2.378 2.378 0 0 1 2.375-2.382h43.984a2.381 2.381 0 0 1 2.38 2.382zm153.348 0h-48.738V105.94a2.378 2.378 0 0 1 2.375-2.382h43.984a2.381 2.381 0 0 1 2.379 2.382zm0 0" fill="#1c4587"/></g><path d="M31.883 293.938c-.617-.086-1.07.238-1.356.968l-.37 1.004-.15.336c-.507 1.129-1.23 1.656-2.171 1.582a2.355 2.355 0 0 1-1.246-.465c-.36-.285-.63-.664-.817-1.136a3.495 3.495 0 0 1-.277-1.489c.012-.52.129-.98.352-1.375a2.18 2.18 0 0 1 .89-.914 2.49 2.49 0 0 1 1.32-.277v1.098c-.519-.036-.921.082-1.206.355-.286.27-.434.656-.446 1.152-.011.532.11.977.371 1.34.258.36.606.563 1.04.613.581.075 1.023-.28 1.32-1.062l.312-.875.188-.426c.496-1.09 1.238-1.597 2.23-1.523.48.047.899.215 1.242.5.348.273.614.652.801 1.136.184.47.27.977.258 1.524 0 .531-.11 1.023-.332 1.469a2.47 2.47 0 0 1-.91 1.004 2.372 2.372 0 0 1-1.32.296v-1.097c.507.039.91-.098 1.206-.406.297-.313.454-.747.465-1.301 0-.574-.125-1.04-.37-1.399a1.496 1.496 0 0 0-1.024-.632zm1.414-4.891a1.548 1.548 0 0 0-.317-1.004 1.548 1.548 0 0 0-.89-.594l-.02-1.004a2.37 2.37 0 0 1 1.094.48 2.7 2.7 0 0 1 .762.99c.176.382.258.78.242 1.19 0 .52-.129.965-.39 1.336-.27.36-.641.63-1.114.801a4.02 4.02 0 0 1-1.617.168l-.277-.035a4.287 4.287 0 0 1-1.618-.523 3.093 3.093 0 0 1-1.113-1.098 2.567 2.567 0 0 1-.371-1.488c.012-.657.234-1.184.668-1.579.422-.398.953-.597 1.598-.597v.988c-.407.012-.735.129-.985.352-.258.21-.394.5-.41.875a1.684 1.684 0 0 0 .613 1.375c.41.36.993.582 1.746.672l.149.015c.25.028.504.031.762.02.46-.024.82-.149 1.078-.371.261-.235.398-.559.41-.97zm-5.629-6.79c0-.519.145-.964.43-1.339.27-.383.652-.66 1.148-.836a3.419 3.419 0 0 1 1.598-.184l.133.016a4.338 4.338 0 0 1 1.652.54c.492.284.883.663 1.168 1.136.273.457.398.96.371 1.508 0 .52-.137.972-.406 1.355a2.498 2.498 0 0 1-1.153.82 3.689 3.689 0 0 1-1.578.184 4.105 4.105 0 0 1-1.765-.52 3.345 3.345 0 0 1-1.207-1.132 2.71 2.71 0 0 1-.391-1.547zm3.363 2.141c.246.036.5.036.758 0 .461-.039.824-.168 1.098-.39.261-.235.398-.551.41-.95a1.79 1.79 0 0 0-.242-.968c-.188-.297-.465-.543-.836-.742a3.64 3.64 0 0 0-1.246-.391 8.078 8.078 0 0 0-.891-.02c-.469.051-.84.192-1.113.43-.274.235-.414.551-.43.95-.012.53.2.992.633 1.374.433.383 1.012.622 1.726.707zm-2.304-9.691l-.04.504c0 .668.305 1.195.915 1.578l4.457.781v1.043l-6.278-1.078v-1.023l.723.148c-.582-.445-.867-.969-.856-1.562 0-.137.032-.305.094-.504zm5.441-2.379c-.012.781-.297 1.395-.852 1.84-.57.434-1.289.621-2.156.559l-.262-.036a4.189 4.189 0 0 1-1.687-.543c-.52-.308-.91-.68-1.172-1.113a2.704 2.704 0 0 1-.371-1.433c.012-.645.23-1.149.648-1.508.41-.371.97-.574 1.672-.614a5.74 5.74 0 0 1 .762.02l.465.074v4.11c.57.062 1.058-.032 1.469-.278.394-.261.601-.652.613-1.172.012-.62-.266-1.191-.836-1.71l.52-.614c.37.274.667.621.89 1.04.211.41.309.87.297 1.378zm-5.629-.672c-.012.438.137.813.445 1.137.301.32.75.582 1.36.781v-3.07l-.094-.02c-.484-.062-.887.02-1.207.243-.324.21-.488.523-.504.93zm2.121-5.543a10.659 10.659 0 0 1-2.62-.703c-.856-.348-1.58-.77-2.173-1.265a5.347 5.347 0 0 1-1.355-1.696l.722-.164c.457.617 1.055 1.145 1.786 1.578.714.434 1.582.77 2.597 1.008a12.3 12.3 0 0 0 2.953.332c.805 0 1.512-.101 2.117-.297.61-.21 1.09-.515 1.45-.91l.652.258c-.445.656-1.11 1.16-1.988 1.508-.88.336-1.89.484-3.028.445a7.01 7.01 0 0 1-1.058-.074zm-2.12-4.925c-.595-.56-.884-1.2-.872-1.918.012-.582.219-1.016.613-1.301.395-.285.946-.39 1.653-.317l4.125.688v1.043l-4.145-.688a1.654 1.654 0 0 0-.52 0c-.542.059-.824.375-.835.946-.012.644.328 1.203 1.023 1.675l4.477.782v1.039l-8.918-1.54v-1.062l3.402.652zm5.519-5.137v1.043l-6.278-1.078v-1.059zm-8.582-.871a.59.59 0 0 1 .164-.43.575.575 0 0 1 .449-.188c.183 0 .34.063.465.188.11.113.172.262.183.45 0 .171-.054.32-.164.445a.62.62 0 0 1-.449.167.684.684 0 0 1-.445-.187.637.637 0 0 1-.203-.445zm5.421-.672c-.68-.098-1.273-.285-1.78-.555-.509-.273-.88-.61-1.114-1.008a2.359 2.359 0 0 1-.356-1.32c.028-.719.305-1.266.836-1.637l-.703-.222v-.965l6.149 1.058c.8.11 1.441.438 1.91.985.484.535.715 1.191.687 1.972 0 .434-.097.848-.297 1.246a2.182 2.182 0 0 1-.8.91l-.63-.593c.56-.383.84-.887.856-1.508.024-.508-.113-.934-.41-1.281-.297-.348-.719-.578-1.262-.688l-.558-.113c.52.508.77 1.11.742 1.805a1.908 1.908 0 0 1-.316 1.023c-.196.285-.48.508-.852.668a4.189 4.189 0 0 1-1.266.262c-.234 0-.511-.012-.836-.04zm.598-1.024c.555.016.988-.078 1.3-.277.298-.21.45-.52.462-.93.023-.632-.278-1.172-.91-1.617l-2.899-.504c-.566.235-.863.656-.89 1.266-.012.57.222 1.039.707 1.414.484.36 1.132.57 1.949.633zm-2.957-7.773c-.594-.559-.883-1.195-.871-1.914.012-.586.219-1.02.613-1.3.395-.29.946-.395 1.653-.321l4.125.691v1.04l-4.145-.688a1.926 1.926 0 0 0-.52 0c-.542.062-.824.379-.835.949-.012.644.328 1.203 1.023 1.672l4.477.781v1.043l-8.918-1.543v-1.059l3.402.649zM34.168 239c-.012.777-.297 1.39-.852 1.84-.57.433-1.289.617-2.156.558l-.262-.039a4.125 4.125 0 0 1-1.687-.539c-.52-.308-.91-.683-1.172-1.117a2.681 2.681 0 0 1-.371-1.43c.012-.648.23-1.148.648-1.507.41-.371.97-.578 1.672-.614a5.73 5.73 0 0 1 .762.016l.465.078v4.11c.57.062 1.058-.032 1.469-.282.394-.258.601-.648.613-1.172.012-.617-.266-1.187-.836-1.707l.52-.617c.37.274.667.621.89 1.043.211.41.309.867.297 1.375zm-5.629-.672c-.012.434.137.813.445 1.133.301.324.75.582 1.36.781v-3.066l-.094-.02c-.484-.062-.887.02-1.207.242-.324.211-.488.52-.504.93zm.188-6.473l-.04.5c0 .672.305 1.2.915 1.583l4.457.78v1.044l-6.278-1.078v-1.024l.723.149c-.582-.446-.867-.97-.856-1.563 0-.137.032-.305.094-.504zm5.332-3.18v1.04l-6.278-1.078v-1.059zm-8.582-.874a.59.59 0 0 1 .164-.43.586.586 0 0 1 .449-.184c.183 0 .34.063.465.188a.66.66 0 0 1 .019.891.604.604 0 0 1-.449.168.665.665 0 0 1-.445-.188.63.63 0 0 1-.203-.445zm6.87-4.258c-.433-.063-.734.172-.91.707l-.316 1.094c-.32.918-.848 1.367-1.578 1.34-.555-.024-1.008-.27-1.355-.743-.36-.484-.532-1.054-.52-1.71 0-.633.187-1.149.559-1.543.359-.399.828-.59 1.41-.579l-.02 1.059a.96.96 0 0 0-.762.297c-.195.2-.3.472-.316.82 0 .36.094.668.281.93.172.25.403.39.688.43.36.046.617-.176.777-.672l.149-.52c.187-.719.43-1.226.726-1.523.297-.313.668-.453 1.113-.43.399.023.739.156 1.024.39.285.223.508.532.668.93.148.383.215.793.203 1.227 0 .672-.191 1.223-.574 1.656-.383.434-.875.64-1.469.613v-1.039c.348 0 .633-.113.855-.336.211-.222.317-.53.317-.93 0-.386-.082-.714-.242-.988-.172-.285-.41-.445-.707-.48zm-1.41-10.156a5.19 5.19 0 0 1 1.747.539c.507.273.89.605 1.152 1.004.246.382.363.82.352 1.3-.024.758-.31 1.32-.856 1.696l.727.203v.965l-8.918-1.54v-1.062l3.328.633c-.559-.496-.824-1.105-.801-1.824.012-.606.234-1.078.668-1.414.422-.348 1.008-.528 1.766-.54.246 0 .488.012.726.04zm-.593 1.004c-.57-.012-1.004.086-1.301.297-.297.199-.457.503-.484.91-.012.66.316 1.214.984 1.675l2.75.465c.633-.234.953-.668.965-1.3.023-.422-.094-.782-.352-1.079-.261-.312-.62-.547-1.078-.707a4.797 4.797 0 0 0-1.484-.261zm3.824-5.153c-.012.782-.297 1.395-.852 1.84-.57.438-1.289.621-2.156.559l-.262-.035a4.125 4.125 0 0 1-1.687-.54c-.52-.312-.91-.683-1.172-1.117a2.695 2.695 0 0 1-.371-1.433c.012-.645.23-1.145.648-1.504.41-.375.97-.578 1.672-.613.25-.016.504-.008.762.015l.465.074v4.114c.57.062 1.058-.032 1.469-.282.394-.261.601-.652.613-1.171.012-.618-.266-1.188-.836-1.711l.52-.614c.37.274.667.621.89 1.043.211.41.309.867.297 1.375zm-5.629-.668c-.012.434.137.813.445 1.133.301.324.75.582 1.36.781v-3.07l-.094-.016c-.484-.062-.887.016-1.207.239-.324.21-.488.523-.504.933zm-2.281-5.34l1.52.262v-1.137l.84.149v1.137l3.898.652c.097.012.191.012.28 0 .298-.027.446-.188.446-.484 0-.125-.02-.301-.058-.524l.875.094c.074.25.109.504.109.762-.012.422-.164.738-.461.949-.3.2-.703.281-1.21.242l-3.88-.652v1.117l-.836-.149v-1.097l-1.523-.278zm0-3.57l1.52.262v-1.137l.84.149v1.136l3.898.649a.85.85 0 0 0 .28 0c.298-.024.446-.184.446-.48 0-.126-.02-.302-.058-.524l.875.094c.074.25.109.504.109.761-.012.422-.164.739-.461.95-.3.199-.703.28-1.21.242l-3.88-.653v1.118l-.836-.149v-1.098l-1.523-.28zm7.91-3.515c-.012.78-.297 1.394-.852 1.84-.57.437-1.289.62-2.156.558l-.262-.035a4.125 4.125 0 0 1-1.687-.54c-.52-.312-.91-.683-1.172-1.116a2.695 2.695 0 0 1-.371-1.434c.012-.645.23-1.145.648-1.504.41-.375.97-.578 1.672-.613.25-.016.504-.008.762.015l.465.075v4.113c.57.062 1.058-.031 1.469-.281.394-.262.601-.653.613-1.172.012-.617-.266-1.188-.836-1.711l.52-.613c.37.273.667.62.89 1.043.211.41.309.867.297 1.375zm-5.629-.668c-.012.433.137.812.445 1.132.301.325.75.582 1.36.782v-3.07l-.094-.016c-.484-.063-.887.015-1.207.238-.324.21-.488.523-.504.934zm.188-6.473l-.04.5c0 .672.305 1.2.915 1.582l4.457.781v1.04l-6.278-1.079v-1.023l.723.152c-.582-.45-.867-.969-.856-1.562 0-.137.032-.305.094-.504zm1.933-2.66c.938.136 1.832.383 2.672.742.844.348 1.555.777 2.137 1.285.582.496 1.023 1.047 1.32 1.652l-.672.153c-.988-1.328-2.594-2.215-4.808-2.66a13.24 13.24 0 0 0-2.563-.262c-1.66.023-2.848.43-3.566 1.21l-.653-.26c.297-.434.7-.802 1.207-1.099.496-.308 1.078-.53 1.75-.667a7.913 7.913 0 0 1 2.059-.188c.371.012.727.035 1.059.074zm59.324 211.015c0 1.254-.218 2.192-.652 2.813-.418.605-1.086.91-2.004.91-.902 0-1.574-.297-2.008-.894-.433-.594-.656-1.489-.668-2.68v-1.43c0-1.254.211-2.176.633-2.773.434-.606 1.11-.91 2.024-.91.918 0 1.586.293 2.007.875.434.582.657 1.48.668 2.695zm-1.078-1.468c0-.918-.129-1.582-.39-1.989-.246-.422-.649-.632-1.207-.632-.543 0-.946.21-1.207.632-.247.407-.372 1.04-.372 1.895v1.73c0 .918.13 1.594.391 2.028.274.433.676.652 1.207.652s.922-.207 1.172-.613c.258-.41.395-1.055.406-1.934zM68.828 319.5h-5.535v-.781l2.918-3.254c.434-.485.73-.883.89-1.192.172-.308.258-.632.258-.968 0-.434-.132-.793-.406-1.078-.262-.286-.613-.43-1.058-.43-.536 0-.95.156-1.247.469-.296.296-.445.718-.445 1.265h-1.078c0-.785.25-1.41.742-1.879.508-.484 1.184-.726 2.028-.726.777 0 1.398.203 1.855.613.46.41.688.961.688 1.656 0 .828-.532 1.82-1.598 2.973l-2.246 2.457h4.234zm2.082-4.242l.445-4.223h4.325v.988h-3.414l-.262 2.305c.41-.234.879-.351 1.41-.351.77 0 1.379.253 1.824.761.457.508.684 1.196.684 2.067 0 .867-.234 1.554-.703 2.062-.473.496-1.13.742-1.969.742-.746 0-1.355-.203-1.84-.613-.472-.422-.738-.996-.8-1.73h1.023c.062.484.23.851.5 1.097.285.25.656.375 1.117.375.496 0 .883-.168 1.168-.504.285-.347.43-.82.43-1.414 0-.57-.157-1.023-.465-1.355-.297-.348-.707-.524-1.227-.524-.457 0-.824.102-1.097.297l-.278.242zm11.942.633c0 1.254-.215 2.187-.649 2.808-.422.61-1.09.91-2.008.91-.902 0-1.574-.296-2.004-.89-.433-.598-.66-1.489-.671-2.68v-1.43c0-1.254.21-2.175.632-2.77.434-.609 1.11-.913 2.024-.913.918 0 1.586.293 2.008.875.433.582.656 1.48.668 2.695zm-1.079-1.47c0-.917-.128-1.581-.386-1.987-.25-.422-.653-.633-1.211-.633-.543 0-.946.21-1.207.629-.246.41-.371 1.043-.371 1.898v1.73c0 .919.129 1.594.39 2.028.274.434.676.652 1.207.652.532 0 .922-.207 1.172-.617.258-.406.395-1.05.406-1.933zm8.211 1.47c0 1.254-.218 2.187-.652 2.808-.418.61-1.086.91-2.004.91-.902 0-1.574-.296-2.008-.89-.433-.598-.656-1.489-.668-2.68v-1.43c0-1.254.211-2.175.633-2.77.434-.609 1.11-.913 2.024-.913.918 0 1.586.293 2.007.875.434.582.657 1.48.668 2.695zm-1.078-1.47c0-.917-.129-1.581-.39-1.987-.246-.422-.649-.633-1.207-.633-.543 0-.946.21-1.207.629-.247.41-.372 1.043-.372 1.898v1.73c0 .919.13 1.594.391 2.028.274.434.676.652 1.207.652s.922-.207 1.172-.617c.258-.406.395-1.05.406-1.933zM63.777 233.79l.446-4.223h4.324v.985h-3.414l-.262 2.308c.41-.234.879-.351 1.41-.351.77 0 1.38.254 1.824.762.457.507.688 1.195.688 2.062 0 .871-.238 1.559-.707 2.066-.473.497-1.129.743-1.969.743-.742 0-1.355-.203-1.84-.614-.468-.422-.738-.996-.797-1.73h1.02c.063.484.23.851.5 1.098.285.25.66.37 1.117.37.496 0 .883-.163 1.168-.5.285-.347.43-.816.43-1.413 0-.57-.156-1.024-.465-1.36-.297-.344-.707-.52-1.227-.52-.457 0-.824.102-1.093.298l-.282.242zm11.942.633c0 1.254-.215 2.187-.649 2.808-.422.606-1.09.91-2.007.91-.903 0-1.57-.296-2.004-.89-.434-.598-.657-1.488-.672-2.68v-1.433c0-1.25.21-2.176.633-2.77.433-.605 1.109-.91 2.023-.91.918 0 1.586.29 2.008.871.433.586.656 1.484.668 2.7zm-1.078-1.469c0-.918-.13-1.582-.387-1.992-.25-.422-.652-.633-1.211-.633-.543 0-.945.211-1.207.633-.246.41-.371 1.043-.371 1.898v1.73c0 .919.133 1.595.39 2.028.274.434.676.649 1.207.649.532 0 .922-.203 1.172-.614.258-.406.395-1.05.407-1.933zm8.21 1.469c0 1.254-.214 2.187-.648 2.808-.422.606-1.09.91-2.008.91-.902 0-1.574-.296-2.004-.89-.433-.598-.66-1.488-.671-2.68v-1.433c0-1.25.21-2.176.632-2.77.434-.605 1.11-.91 2.024-.91.918 0 1.586.29 2.008.871.433.586.656 1.484.668 2.7zm-1.078-1.469c0-.918-.128-1.582-.386-1.992-.25-.422-.653-.633-1.211-.633-.543 0-.946.211-1.207.633-.246.41-.371 1.043-.371 1.898v1.73c0 .919.129 1.595.39 2.028.274.434.676.649 1.207.649.532 0 .922-.203 1.172-.614.258-.406.395-1.05.406-1.933zm8.211 1.469c0 1.254-.218 2.187-.652 2.808-.418.606-1.086.91-2.004.91-.902 0-1.574-.296-2.008-.89-.433-.598-.656-1.488-.668-2.68v-1.433c0-1.25.211-2.176.633-2.77.434-.605 1.11-.91 2.024-.91.918 0 1.586.29 2.007.871.434.586.657 1.484.668 2.7zm-1.078-1.469c0-.918-.129-1.582-.39-1.992-.246-.422-.649-.633-1.207-.633-.543 0-.946.211-1.207.633-.247.41-.372 1.043-.372 1.898v1.73c0 .919.13 1.595.391 2.028.274.434.676.649 1.207.649s.922-.203 1.172-.614c.258-.406.395-1.05.406-1.933zm-20.152-84.258l-3.512 7.868H64.13l3.473-7.59h-4.57v-.875h5.722zm2.156 3.625l.445-4.222h4.325v.988h-3.414l-.262 2.305c.41-.239.879-.356 1.41-.356.77 0 1.379.254 1.824.766.457.508.684 1.195.684 2.062 0 .867-.234 1.555-.703 2.067-.473.496-1.13.742-1.969.742-.746 0-1.355-.203-1.84-.613-.472-.422-.738-1-.8-1.73h1.023c.062.483.23.85.5 1.097.285.246.656.37 1.117.37.496 0 .883-.167 1.168-.5.285-.347.43-.82.43-1.413 0-.57-.157-1.024-.465-1.36-.297-.347-.707-.52-1.227-.52-.457 0-.824.099-1.097.298l-.278.242zm11.942.633c0 1.25-.215 2.188-.649 2.809-.422.605-1.09.91-2.008.91-.902 0-1.574-.297-2.004-.89-.433-.598-.66-1.489-.671-2.68v-1.434c0-1.25.21-2.176.632-2.77.434-.609 1.11-.91 2.024-.91.918 0 1.586.29 2.008.871.433.586.656 1.485.668 2.7zm-1.079-1.469c0-.918-.128-1.582-.386-1.992-.25-.422-.653-.629-1.211-.629-.543 0-.946.207-1.207.63-.246.41-.371 1.042-.371 1.898v1.73c0 .918.129 1.594.39 2.027.274.434.676.649 1.207.649.532 0 .922-.203 1.172-.613.258-.41.395-1.055.406-1.934zm8.211 1.47c0 1.25-.218 2.187-.652 2.808-.418.605-1.086.91-2.004.91-.902 0-1.574-.297-2.008-.89-.433-.598-.656-1.489-.668-2.68v-1.434c0-1.25.211-2.176.633-2.77.434-.609 1.11-.91 2.024-.91.918 0 1.586.29 2.007.871.434.586.657 1.485.668 2.7zm-1.078-1.47c0-.918-.129-1.582-.39-1.992-.246-.422-.649-.629-1.207-.629-.543 0-.946.207-1.207.63-.247.41-.372 1.042-.372 1.898v1.73c0 .918.13 1.594.391 2.027.274.434.676.649 1.207.649s.922-.203 1.172-.613c.258-.41.395-1.055.406-1.934zM59.687 75.09h-1.074v-7.16l-2.175.78v-.968l3.085-1.152h.164zm8.899-3.606c0 1.25-.215 2.188-.648 2.805-.422.61-1.09.914-2.008.914-.903 0-1.57-.297-2.004-.894-.434-.594-.656-1.489-.672-2.676v-1.434c0-1.25.21-2.176.633-2.77.433-.609 1.11-.913 2.027-.913.914 0 1.582.293 2.004.875.434.582.656 1.48.668 2.695zm-1.074-1.468c0-.918-.133-1.582-.39-1.993-.25-.421-.653-.632-1.208-.632-.547 0-.95.21-1.21.632-.247.41-.372 1.043-.372 1.899v1.73c0 .914.133 1.59.39 2.028.274.433.676.648 1.208.648.53 0 .922-.203 1.172-.613.257-.41.394-1.055.41-1.934zm8.207 1.468c0 1.25-.215 2.188-.649 2.809-.422.605-1.09.91-2.007.91-.903 0-1.57-.297-2.004-.894-.434-.594-.657-1.489-.672-2.676v-1.434c0-1.25.21-2.176.633-2.77.433-.609 1.109-.913 2.023-.913.918 0 1.586.293 2.008.875.433.582.656 1.48.668 2.695zm-1.078-1.468c0-.918-.13-1.582-.387-1.993-.25-.421-.652-.632-1.211-.632-.543 0-.945.21-1.207.632-.246.41-.371 1.043-.371 1.899v1.73c0 .914.133 1.59.39 2.028.274.433.676.648 1.207.648.532 0 .922-.203 1.172-.613.258-.41.395-1.055.407-1.934zm8.21 1.468c0 1.25-.214 2.188-.648 2.809-.422.605-1.09.91-2.008.91-.902 0-1.574-.297-2.004-.894-.433-.594-.66-1.489-.671-2.676v-1.434c0-1.25.21-2.176.632-2.77.434-.609 1.11-.913 2.024-.913.918 0 1.586.293 2.008.875.433.582.656 1.48.668 2.695zm-1.078-1.468c0-.918-.128-1.582-.386-1.993-.25-.421-.653-.632-1.211-.632-.543 0-.946.21-1.207.632-.246.41-.371 1.043-.371 1.899v1.73c0 .914.129 1.59.39 2.028.274.433.676.648 1.207.648.532 0 .922-.203 1.172-.613.258-.41.395-1.055.406-1.934zm8.211 1.468c0 1.25-.218 2.188-.652 2.809-.418.605-1.086.91-2.004.91-.902 0-1.574-.297-2.008-.894-.433-.594-.656-1.489-.668-2.676v-1.434c0-1.25.211-2.176.633-2.77.434-.609 1.11-.913 2.024-.913.918 0 1.586.293 2.007.875.434.582.657 1.48.668 2.695zm-1.078-1.468c0-.918-.129-1.582-.39-1.993-.246-.421-.649-.632-1.207-.632-.543 0-.946.21-1.207.632-.247.41-.372 1.043-.372 1.899v1.73c0 .914.13 1.59.391 2.028.274.433.676.648 1.207.648s.922-.203 1.172-.613c.258-.41.395-1.055.406-1.934zm0 0" fill="#b7b7b7"/><path d="M121.613 418.23v-10.156h3.325c1.101 0 1.925.23 2.468.688.559.445.836 1.117.836 2.008 0 .484-.137.914-.406 1.285-.262.36-.629.636-1.098.836.559.148.992.441 1.301.875.32.421.484.93.484 1.523 0 .918-.296 1.637-.894 2.16-.582.52-1.41.781-2.488.781zm1.336-4.742v3.645h2.211c.633 0 1.125-.164 1.485-.485.359-.324.539-.77.539-1.34 0-1.214-.668-1.82-2.004-1.82zm0-1.082h2.024c.582 0 1.047-.14 1.394-.426.36-.296.54-.703.54-1.21 0-.56-.16-.961-.485-1.207-.32-.262-.817-.391-1.484-.391h-1.989zm11.442 5.824c-.075-.152-.137-.418-.184-.8-.598.632-1.309.949-2.137.949-.742 0-1.355-.211-1.84-.633-.472-.422-.707-.96-.707-1.621 0-.777.297-1.387.891-1.82.598-.434 1.438-.653 2.527-.653h1.246v-.593c0-.446-.136-.801-.41-1.059-.257-.273-.656-.41-1.187-.41-.457 0-.844.117-1.153.351-.308.223-.464.504-.464.84h-1.301c0-.386.133-.75.39-1.097a2.748 2.748 0 0 1 1.098-.82 3.54 3.54 0 0 1 1.504-.317c.879 0 1.559.219 2.043.652.496.434.754 1.028.781 1.785v3.477c0 .695.086 1.246.258 1.656v.113zm-2.137-.988c.41 0 .793-.105 1.152-.316.36-.211.621-.48.781-.817v-1.543h-1.003c-1.586 0-2.375.465-2.375 1.395 0 .394.132.71.406.95.273.222.617.331 1.039.331zm12.184-2.695c0 1.152-.266 2.082-.797 2.789-.52.695-1.227 1.043-2.118 1.043-.953 0-1.691-.344-2.21-1.024l-.075.875h-1.168v-10.714h1.282v4c.52-.645 1.238-.97 2.152-.97.918 0 1.637.349 2.156 1.044.52.683.778 1.629.778 2.844zm-1.282-.149c0-.882-.172-1.558-.52-2.027-.331-.484-.816-.726-1.448-.726-.852 0-1.465.39-1.836 1.171v3.274c.394.793 1.007 1.191 1.835 1.191.622 0 1.106-.242 1.45-.726.347-.485.52-1.203.52-2.157zm6.356 3.98c-1.028 0-1.867-.335-2.508-1.003-.633-.684-.95-1.59-.95-2.719v-.222c0-.754.145-1.426.43-2.008.286-.594.68-1.055 1.188-1.375a3.027 3.027 0 0 1 1.672-.504c.976 0 1.738.324 2.285.969.543.644.816 1.566.816 2.77v.538h-5.11c.028.746.243 1.348.653 1.805.418.457.953.687 1.598.687.445 0 .824-.093 1.133-.277.32-.187.605-.434.851-.746l.782.617c-.63.977-1.579 1.469-2.84 1.469zm-.168-6.773c-.52 0-.961.196-1.32.579-.348.37-.555.898-.63 1.582h3.77v-.094c-.039-.656-.219-1.164-.539-1.524-.309-.359-.738-.539-1.281-.539zm5.57 6.625h-1.281v-10.714h1.281zm7.488-9.375v1.82h1.391v1.009h-1.39v4.668c0 .308.062.539.183.687.125.149.336.223.633.223.148 0 .351-.024.613-.075v1.043a3.521 3.521 0 0 1-.984.149c-.57 0-1.004-.176-1.301-.524-.297-.359-.445-.859-.445-1.503v-4.668h-1.375v-1.008h1.375v-1.82zm6.649 2.977a4.73 4.73 0 0 0-.633-.039c-.852 0-1.43.36-1.727 1.078v5.36h-1.28v-7.555h1.245l.016.875c.422-.668 1.023-1.004 1.8-1.004.25 0 .442.031.579.094zm5.758 6.398c-.075-.152-.137-.418-.188-.8-.594.632-1.305.949-2.133.949-.746 0-1.355-.211-1.84-.633-.472-.422-.707-.96-.707-1.621 0-.777.297-1.387.891-1.82.594-.434 1.438-.653 2.527-.653h1.246v-.593c0-.446-.136-.801-.41-1.059-.261-.273-.656-.41-1.187-.41-.461 0-.844.117-1.153.351-.308.223-.464.504-.464.84h-1.301c0-.386.129-.75.39-1.097a2.762 2.762 0 0 1 1.094-.82 3.556 3.556 0 0 1 1.508-.317c.879 0 1.559.219 2.043.652.496.434.754 1.028.777 1.785v3.477c0 .695.09 1.246.262 1.656v.113zm-2.137-.988c.41 0 .793-.105 1.152-.316.36-.211.617-.48.781-.817v-1.543h-1.003c-1.586 0-2.38.465-2.38 1.395 0 .394.137.71.41.95.274.222.618.331 1.04.331zm7.023-6.566l.035.949c.583-.719 1.336-1.078 2.266-1.078 1.598 0 2.402.898 2.414 2.7v4.983h-1.297v-5.003c0-.536-.125-.93-.375-1.192-.234-.262-.613-.39-1.133-.39-.417 0-.792.113-1.113.335-.308.223-.55.512-.726.872v5.378h-1.282v-7.554zm11.496 5.547c0-.348-.136-.618-.41-.801-.258-.2-.719-.367-1.375-.504-.644-.137-1.156-.305-1.539-.5-.387-.2-.672-.43-.855-.691-.176-.27-.262-.594-.262-.965 0-.621.262-1.14.781-1.563.52-.433 1.188-.652 2.008-.652.852 0 1.54.223 2.059.668.535.437.8.992.8 1.676h-1.28c0-.348-.157-.645-.466-.891-.297-.262-.668-.39-1.113-.39-.473 0-.844.105-1.117.312-.258.2-.39.46-.39.781 0 .313.124.547.374.707.246.164.692.317 1.336.465.645.137 1.164.305 1.559.504.398.2.687.441.875.726.199.286.297.625.297 1.024 0 .68-.274 1.226-.817 1.633-.535.41-1.226.617-2.082.617-.605 0-1.144-.106-1.617-.317a2.678 2.678 0 0 1-1.074-.91 2.18 2.18 0 0 1-.39-1.25h1.28c.024.438.2.782.52 1.043.32.246.75.371 1.281.371.485 0 .875-.097 1.172-.296.297-.2.445-.465.445-.797zm3.38 2.007v-6.546h-1.188v-1.008h1.187v-.762c0-.816.211-1.445.633-1.875.434-.45 1.047-.672 1.84-.672.297 0 .594.04.89.113l-.074 1.06a3.09 3.09 0 0 0-.687-.075c-.422 0-.75.125-.984.37-.223.25-.336.595-.336 1.044v.797h1.617v1.008h-1.617v6.546zm3.769-3.851c0-.73.144-1.395.43-1.988.296-.598.703-1.051 1.222-1.36a3.311 3.311 0 0 1 1.766-.484c1.027 0 1.86.355 2.492 1.058.64.707.965 1.657.965 2.848v.094c0 .73-.145 1.387-.43 1.973a3.305 3.305 0 0 1-1.207 1.375c-.52.32-1.121.484-1.8.484-1.016 0-1.844-.356-2.489-1.063-.633-.718-.95-1.668-.95-2.843zm1.3.168c0 .828.192 1.5.579 2.008.394.507.914.761 1.558.761.657 0 1.176-.253 1.559-.761.387-.52.578-1.246.578-2.176 0-.82-.2-1.48-.594-1.988-.382-.524-.906-.782-1.562-.782-.63 0-1.145.254-1.54.762-.386.496-.577 1.219-.577 2.176zm11.016-2.715a4.7 4.7 0 0 0-.629-.039c-.855 0-1.433.36-1.73 1.078v5.36h-1.281v-7.555h1.246l.015.875c.422-.668 1.024-1.004 1.805-1.004.246 0 .438.031.574.094zm2.324-1.156l.036.84c.543-.645 1.289-.97 2.23-.97 1.05 0 1.77.403 2.152 1.212.247-.36.57-.653.965-.875.41-.223.887-.336 1.43-.336 1.66 0 2.504.875 2.527 2.625v5.058h-1.28v-4.988c0-.531-.126-.926-.372-1.187-.246-.274-.664-.41-1.246-.41-.48 0-.883.144-1.207.43-.309.284-.488.667-.54 1.152v5.003h-1.28v-4.949c0-1.09-.54-1.636-1.614-1.636-.844 0-1.418.359-1.73 1.078v5.507h-1.301v-7.554zm14.989 7.703c-1.028 0-1.867-.336-2.508-1.004-.633-.684-.95-1.59-.95-2.719v-.222c0-.754.145-1.426.43-2.008.282-.594.68-1.055 1.188-1.375a3.027 3.027 0 0 1 1.672-.504c.976 0 1.738.324 2.285.969.543.644.816 1.566.816 2.77v.538h-5.109c.027.746.242 1.348.652 1.805.418.457.953.687 1.598.687.445 0 .824-.093 1.133-.277.32-.187.605-.434.851-.746l.782.617c-.63.977-1.579 1.469-2.84 1.469zm-.168-6.774c-.52 0-.961.196-1.32.579-.348.37-.555.898-.63 1.582h3.77v-.094c-.039-.656-.219-1.164-.539-1.524-.309-.359-.738-.539-1.281-.539zm3.863 2.793c0-1.168.274-2.097.816-2.789.547-.707 1.262-1.062 2.157-1.062.879 0 1.578.297 2.097.894v-3.925h1.282v10.714h-1.188l-.058-.82c-.52.645-1.235.969-2.153.969-.867 0-1.578-.36-2.137-1.078-.542-.719-.816-1.656-.816-2.813zm1.281.149c0 .855.172 1.523.52 2.008.36.484.847.726 1.469.726.816 0 1.418-.37 1.8-1.117v-3.46c-.382-.704-.976-1.06-1.78-1.06-.634 0-1.13.243-1.49.727-.347.484-.519 1.207-.519 2.176zm15.567 3.683c-.078-.152-.137-.418-.188-.8-.594.632-1.304.949-2.137.949-.742 0-1.355-.211-1.84-.633-.468-.422-.702-.96-.702-1.621 0-.777.296-1.387.89-1.82.594-.434 1.438-.653 2.528-.653h1.242v-.593c0-.446-.137-.801-.407-1.059-.261-.273-.656-.41-1.187-.41-.461 0-.844.117-1.156.351-.309.223-.461.504-.461.84h-1.301c0-.386.129-.75.39-1.097.27-.348.637-.622 1.094-.82a3.551 3.551 0 0 1 1.504-.317c.883 0 1.563.219 2.047.652.492.434.754 1.028.777 1.785v3.477c0 .695.086 1.246.262 1.656v.113zm-2.137-.988c.406 0 .793-.105 1.152-.316.36-.211.618-.48.778-.817v-1.543h-1c-1.586 0-2.38.465-2.38 1.395 0 .394.137.71.407.95.273.222.621.331 1.043.331zm10.195-1.023c0-.348-.136-.614-.406-.797-.262-.2-.719-.367-1.375-.504-.644-.137-1.16-.305-1.543-.5-.383-.2-.668-.43-.855-.691a1.763 1.763 0 0 1-.258-.965c0-.621.258-1.14.777-1.563.524-.433 1.192-.652 2.008-.652.855 0 1.543.223 2.062.668.532.437.797.992.797 1.676h-1.28c0-.348-.153-.645-.462-.891-.3-.262-.672-.39-1.117-.39-.469 0-.844.105-1.113.312-.262.2-.39.46-.39.781 0 .313.124.547.37.707.246.164.695.317 1.336.465.645.137 1.164.305 1.563.504.394.2.687.441.87.726.2.286.301.625.301 1.024 0 .68-.273 1.226-.82 1.633-.531.41-1.226.617-2.078.617-.61 0-1.148-.106-1.617-.317a2.717 2.717 0 0 1-1.078-.91 2.18 2.18 0 0 1-.39-1.25h1.28c.028.438.2.782.524 1.043.32.246.746.371 1.281.371.48 0 .871-.097 1.168-.296.297-.2.445-.465.445-.797zm5.203.113l1.762-5.656h1.375l-3.027 8.722c-.469 1.254-1.215 1.883-2.227 1.883l-.261-.02-.465-.093v-1.043l.336.02c.445 0 .785-.086 1.02-.262.25-.172.452-.496.612-.965l.278-.781-2.692-7.461h1.41zm5.887-5.656l.035.949c.582-.719 1.34-1.078 2.27-1.078 1.598 0 2.402.898 2.414 2.7v4.983h-1.3v-5.003c0-.536-.126-.93-.372-1.192-.234-.262-.613-.39-1.133-.39-.422 0-.793.113-1.117.335-.309.223-.55.512-.723.872v5.378h-1.28v-7.554zm10.121 6.64c.461 0 .864-.136 1.211-.406.344-.285.535-.64.574-1.062h1.227c-.023.433-.18.851-.465 1.246a2.948 2.948 0 0 1-1.098.93c-.445.238-.93.355-1.449.355-1.027 0-1.844-.344-2.449-1.024-.594-.695-.89-1.636-.89-2.828v-.222c0-.73.128-1.383.386-1.953a3.1 3.1 0 0 1 1.152-1.32c.508-.325 1.11-.485 1.801-.485.844 0 1.543.254 2.102.762.57.496.87 1.156.91 1.972h-1.227c-.039-.496-.222-.898-.558-1.207-.332-.312-.742-.465-1.223-.465-.656 0-1.168.235-1.523.704-.36.472-.54 1.156-.54 2.046v.243c0 .867.18 1.539.54 2.007.355.473.863.707 1.52.707zm48.61-3.066v3.98h-1.34v-10.156h3.754c1.101 0 1.968.285 2.601.856.63.558.946 1.308.946 2.25 0 .98-.309 1.738-.93 2.27-.606.53-1.485.8-2.637.8zm0-1.098h2.414c.718 0 1.261-.168 1.632-.504.387-.332.579-.816.579-1.449 0-.61-.192-1.094-.579-1.453-.37-.371-.89-.562-1.558-.574h-2.488zm11.625-1.32a4.684 4.684 0 0 0-.63-.039c-.855 0-1.433.36-1.73 1.078v5.36h-1.281v-7.555h1.246l.02.875c.418-.668 1.02-1.004 1.8-1.004.247 0 .438.031.575.094zm.761 2.547c0-.73.145-1.395.43-1.988.297-.598.703-1.051 1.223-1.36a3.311 3.311 0 0 1 1.765-.484c1.028 0 1.86.355 2.489 1.058.644.707.968 1.657.968 2.848v.094c0 .73-.144 1.387-.43 1.973a3.36 3.36 0 0 1-1.206 1.375c-.52.32-1.121.484-1.801.484-1.016 0-1.844-.356-2.488-1.063-.633-.718-.95-1.668-.95-2.843zm1.301.168c0 .828.192 1.5.574 2.008a1.89 1.89 0 0 0 1.563.761c.656 0 1.176-.253 1.558-.761.383-.52.579-1.246.579-2.176 0-.82-.2-1.48-.598-1.988-.383-.524-.902-.782-1.559-.782-.632 0-1.144.254-1.543.762-.382.496-.574 1.219-.574 2.176zm8.582-3.871l.035.84c.547-.645 1.29-.97 2.23-.97 1.052 0 1.77.403 2.153 1.212.25-.36.57-.653.969-.875.406-.223.883-.336 1.43-.336 1.66 0 2.5.875 2.527 2.625v5.058h-1.281v-4.988c0-.531-.125-.926-.375-1.187-.246-.274-.66-.41-1.243-.41-.484 0-.886.144-1.207.43-.308.284-.488.667-.539 1.152v5.003h-1.28v-4.949c0-1.09-.54-1.636-1.618-1.636-.84 0-1.418.359-1.727 1.078v5.507h-1.3v-7.554zm13.262 7.554h-1.281v-7.554h1.28zm-1.395-9.543c0-.21.063-.39.188-.539.137-.148.328-.222.574-.222.25 0 .434.074.559.222a.766.766 0 0 1 .203.54c0 .199-.067.37-.203.519-.125.137-.309.207-.559.207-.246 0-.437-.07-.574-.207a.78.78 0 0 1-.188-.52zm7.95 7.536c0-.348-.133-.618-.407-.801-.261-.2-.718-.367-1.375-.504-.644-.137-1.156-.305-1.543-.5-.382-.2-.668-.43-.851-.691-.176-.27-.262-.594-.262-.965 0-.621.262-1.14.781-1.563.52-.433 1.188-.652 2.004-.652.856 0 1.543.223 2.063.668.531.437.8.992.8 1.676h-1.285c0-.348-.152-.645-.46-.891-.301-.262-.672-.39-1.118-.39-.469 0-.84.105-1.113.312-.262.2-.39.46-.39.781 0 .313.124.547.37.707.25.164.696.317 1.34.465.64.137 1.16.305 1.559.504.394.2.687.441.87.726.2.286.298.625.298 1.024 0 .68-.27 1.226-.817 1.633-.53.41-1.226.617-2.078.617-.61 0-1.148-.106-1.617-.317a2.717 2.717 0 0 1-1.078-.91 2.21 2.21 0 0 1-.39-1.25h1.28c.028.438.2.782.524 1.043.32.246.746.371 1.281.371.485 0 .871-.097 1.168-.296.297-.2.446-.465.446-.797zm5.87 2.156c-1.027 0-1.863-.336-2.507-1.004-.633-.684-.945-1.59-.945-2.719v-.222c0-.754.14-1.426.425-2.008.285-.594.68-1.055 1.188-1.375a3.027 3.027 0 0 1 1.672-.504c.98 0 1.742.324 2.285.969.547.644.816 1.566.816 2.77v.538h-5.105c.023.746.242 1.348.648 1.805.422.457.953.687 1.598.687.445 0 .824-.093 1.133-.277.324-.187.61-.434.855-.746l.777.617c-.628.977-1.578 1.469-2.84 1.469zm-.167-6.774c-.52 0-.957.196-1.317.579-.347.37-.558.898-.633 1.582H376v-.094c-.035-.656-.215-1.164-.54-1.524-.308-.359-.733-.539-1.28-.539zm8.562 4.618c0-.348-.137-.618-.406-.801-.262-.2-.719-.367-1.375-.504-.645-.137-1.16-.305-1.543-.5-.383-.2-.668-.43-.856-.691a1.763 1.763 0 0 1-.257-.965c0-.621.257-1.14.777-1.563.523-.433 1.191-.652 2.008-.652.855 0 1.543.223 2.062.668.532.437.797.992.797 1.676h-1.281c0-.348-.152-.645-.461-.891-.3-.262-.672-.39-1.117-.39-.469 0-.844.105-1.113.312a.936.936 0 0 0-.391.781c0 .313.125.547.371.707.246.164.695.317 1.336.465.644.137 1.164.305 1.562.504.395.2.688.441.872.726.199.286.296.625.296 1.024 0 .68-.27 1.226-.816 1.633-.531.41-1.227.617-2.078.617-.61 0-1.149-.106-1.617-.317a2.69 2.69 0 0 1-1.078-.91 2.18 2.18 0 0 1-.391-1.25h1.281c.028.438.2.782.524 1.043.32.246.746.371 1.28.371.481 0 .872-.097 1.169-.296.297-.2.445-.465.445-.797zm90.77 2.007c-.075-.152-.137-.418-.184-.8-.594.632-1.308.949-2.137.949-.742 0-1.355-.211-1.84-.633-.468-.422-.706-.96-.706-1.621 0-.777.296-1.387.894-1.82.594-.434 1.434-.653 2.524-.653h1.246v-.593c0-.446-.137-.801-.41-1.059-.258-.273-.657-.41-1.188-.41-.457 0-.844.117-1.152.351-.309.223-.461.504-.461.84h-1.305c0-.386.133-.75.39-1.097a2.766 2.766 0 0 1 1.098-.82 3.54 3.54 0 0 1 1.504-.317c.88 0 1.563.219 2.043.652.496.434.758 1.028.781 1.785v3.477c0 .695.086 1.246.258 1.656v.113zm-2.137-.988c.41 0 .793-.105 1.152-.316.36-.211.621-.48.782-.817v-1.543h-1.004c-1.586 0-2.38.465-2.38 1.395 0 .394.137.71.41.95.274.222.622.331 1.04.331zm10.2-1.023c0-.348-.137-.614-.41-.797-.259-.2-.72-.367-1.376-.504-.64-.137-1.156-.305-1.539-.5-.387-.2-.668-.43-.855-.691a1.763 1.763 0 0 1-.258-.965c0-.621.258-1.14.777-1.563.52-.433 1.188-.652 2.008-.652.855 0 1.539.223 2.062.668.532.437.797.992.797 1.676H481.5c0-.348-.156-.645-.465-.891-.297-.262-.668-.39-1.113-.39-.473 0-.844.105-1.117.312a.943.943 0 0 0-.387.781c0 .313.121.547.371.707.246.164.691.317 1.336.465.645.137 1.164.305 1.559.504.398.2.687.441.875.726.199.286.296.625.296 1.024 0 .68-.273 1.226-.816 1.633-.535.41-1.226.617-2.082.617-.605 0-1.144-.106-1.617-.317a2.678 2.678 0 0 1-1.074-.91 2.18 2.18 0 0 1-.391-1.25h1.281c.024.438.2.782.52 1.043.324.246.75.371 1.281.371.484 0 .875-.097 1.172-.296.297-.2.445-.465.445-.797zm5.198.113l1.766-5.656h1.375l-3.027 8.722c-.473 1.254-1.215 1.883-2.23 1.883l-.259-.02-.464-.093v-1.043l.332.02c.449 0 .789-.086 1.023-.262.246-.172.453-.496.613-.965l.278-.781-2.692-7.461h1.41zm5.891-5.656l.035.949c.582-.719 1.336-1.078 2.266-1.078 1.598 0 2.402.898 2.414 2.7v4.983h-1.3v-5.003c0-.536-.122-.93-.372-1.192-.234-.262-.61-.39-1.133-.39-.418 0-.789.113-1.113.335-.309.223-.55.512-.723.872v5.378h-1.281v-7.554zm10.121 6.64c.457 0 .86-.136 1.207-.406.348-.285.54-.64.578-1.062h1.223a2.318 2.318 0 0 1-.461 1.246c-.273.386-.64.695-1.098.93-.445.238-.93.355-1.449.355-1.027 0-1.844-.344-2.45-1.024-.597-.695-.894-1.636-.894-2.828v-.222c0-.73.133-1.383.391-1.953.273-.57.656-1.012 1.152-1.32.508-.325 1.11-.485 1.801-.485.844 0 1.543.254 2.098.762.57.496.875 1.156.91 1.972h-1.223c-.039-.496-.226-.898-.558-1.207-.336-.312-.742-.465-1.227-.465-.656 0-1.164.235-1.523.704-.36.472-.54 1.156-.54 2.046v.243c0 .867.18 1.539.54 2.007.36.473.867.707 1.523.707zm4.367 1.786h-1.097l4.234-11.028h1.098zm10.344-.872c-.074-.152-.137-.418-.183-.8-.598.632-1.31.949-2.137.949-.746 0-1.36-.211-1.84-.633-.473-.422-.707-.96-.707-1.621 0-.777.297-1.387.89-1.82.598-.434 1.438-.653 2.528-.653h1.246v-.593c0-.446-.137-.801-.41-1.059-.262-.273-.656-.41-1.188-.41-.46 0-.843.117-1.152.351-.309.223-.465.504-.465.84h-1.3c0-.386.128-.75.39-1.097a2.748 2.748 0 0 1 1.098-.82 3.54 3.54 0 0 1 1.504-.317c.878 0 1.558.219 2.043.652.496.434.753 1.028.78 1.785v3.477c0 .695.087 1.246.259 1.656v.113zm-2.137-.988c.41 0 .793-.105 1.153-.316.36-.211.617-.48.781-.817v-1.543h-1.004c-1.586 0-2.379.465-2.379 1.395 0 .394.137.71.41.95.274.222.617.331 1.04.331zm12.48-.797l1.45-5.77h1.285l-2.195 7.555h-1.04l-1.839-5.73-1.781 5.73h-1.04l-2.19-7.554h1.28l1.485 5.656 1.766-5.656h1.02zm8.677 1.785c-.075-.152-.137-.418-.184-.8-.598.632-1.309.949-2.137.949-.746 0-1.355-.211-1.84-.633-.472-.422-.707-.96-.707-1.621 0-.777.297-1.387.891-1.82.598-.434 1.438-.653 2.527-.653h1.246v-.593c0-.446-.136-.801-.41-1.059-.257-.273-.656-.41-1.187-.41-.461 0-.844.117-1.153.351-.308.223-.464.504-.464.84h-1.301c0-.386.133-.75.39-1.097a2.748 2.748 0 0 1 1.098-.82 3.54 3.54 0 0 1 1.504-.317c.879 0 1.559.219 2.043.652.496.434.754 1.028.781 1.785v3.477c0 .695.086 1.246.258 1.656v.113zm-2.137-.988c.41 0 .793-.105 1.152-.316.36-.211.621-.48.782-.817v-1.543h-1.004c-1.586 0-2.38.465-2.38 1.395 0 .394.137.71.41.95.274.222.622.331 1.04.331zm7.207.988h-1.281v-7.554h1.28zm-1.39-9.543c0-.21.058-.39.183-.539.137-.148.328-.222.574-.222.25 0 .438.074.559.222a.766.766 0 0 1 .203.54c0 .199-.067.37-.203.519-.125.137-.309.207-.559.207-.246 0-.437-.07-.574-.207a.776.776 0 0 1-.184-.52zm5.312.168v1.82h1.39v1.009h-1.39v4.668c0 .308.058.539.183.687.125.149.336.223.633.223.149 0 .352-.024.614-.075v1.043a3.521 3.521 0 0 1-.985.149c-.57 0-1.004-.176-1.3-.524-.298-.359-.446-.859-.446-1.503v-4.668h-1.375v-1.008h1.375v-1.82zm0 0"/><path d="M635.203 65.566a1.19 1.19 0 0 1 1.192-1.187h11.886c.657 0 1.188.531 1.188 1.187v11.907c0 .656-.532 1.187-1.188 1.187h-11.886a1.19 1.19 0 0 1-1.192-1.187zm0 0" fill="#f90"/><path d="M663.14 74.645l2.657-7.68h1.336l-3.453 9.316h-1.078l-3.438-9.316h1.32zm10.567-5.247c0 .473-.125.887-.371 1.247a2.46 2.46 0 0 1-.984.855c.484.2.867.504 1.152.914.285.395.43.848.43 1.356 0 .808-.274 1.453-.82 1.933-.544.473-1.259.707-2.137.707-.903 0-1.622-.234-2.153-.707-.535-.48-.8-1.129-.8-1.933 0-.508.136-.961.41-1.356a2.54 2.54 0 0 1 1.132-.93 2.48 2.48 0 0 1-.984-.84 2.282 2.282 0 0 1-.352-1.246c0-.78.247-1.398.743-1.859.507-.457 1.175-.687 2.004-.687.82 0 1.476.23 1.968.687.508.461.762 1.078.762 1.86zm-.965 4.352c0-.52-.168-.941-.5-1.262-.324-.336-.75-.504-1.281-.504-.535 0-.961.16-1.285.485-.32.32-.48.75-.48 1.281 0 .523.152.938.464 1.246.32.3.762.45 1.317.45.546 0 .972-.15 1.28-.45.325-.308.485-.723.485-1.246zm-1.765-5.93c-.47 0-.848.14-1.133.426-.285.285-.426.676-.426 1.172 0 .473.14.855.426 1.152.285.285.664.43 1.133.43.472 0 .851-.145 1.132-.43.286-.297.43-.68.43-1.152 0-.469-.148-.856-.445-1.152a1.526 1.526 0 0 0-1.117-.446zm8.34 3.793l.464-4.648h4.774v1.097h-3.77l-.277 2.547c.457-.273.976-.41 1.558-.41.844 0 1.512.281 2.004.836.496.559.746 1.317.746 2.27 0 .968-.261 1.73-.78 2.289-.509.547-1.227.816-2.153.816-.82 0-1.488-.226-2.008-.687-.52-.457-.816-1.09-.89-1.895h1.113c.074.531.257.934.558 1.207.309.274.719.41 1.227.41.543 0 .969-.187 1.281-.558.32-.387.48-.907.48-1.563 0-.62-.171-1.117-.519-1.488-.332-.383-.781-.574-1.336-.574-.523 0-.922.11-1.207.332l-.316.261zm6.742 4.055c0-.211.054-.387.168-.52.125-.136.304-.207.539-.207.25 0 .433.07.558.207a.694.694 0 0 1 .203.52.658.658 0 0 1-.203.484c-.125.137-.308.203-.558.203-.235 0-.414-.066-.54-.203a.75.75 0 0 1-.163-.484zm8.043-8.703v1.004h-.223c-.914.011-1.645.285-2.192.816-.542.535-.859 1.278-.945 2.23.492-.554 1.164-.835 2.004-.835.817 0 1.469.285 1.95.86.484.565.726 1.304.726 2.21 0 .953-.266 1.723-.8 2.305-.52.57-1.212.855-2.079.855-.895 0-1.617-.34-2.176-1.023-.554-.68-.836-1.559-.836-2.637v-.469c0-1.71.367-3.02 1.098-3.922.73-.906 1.82-1.37 3.27-1.394zm-1.54 4.203c-.41 0-.789.121-1.132.371-.336.234-.57.531-.707.89v.45c0 .77.172 1.387.52 1.86.347.456.78.687 1.3.687.531 0 .945-.192 1.242-.578.309-.395.465-.91.465-1.543 0-.645-.156-1.16-.465-1.543a1.466 1.466 0 0 0-1.222-.594zm0 0" fill="#666"/><path d="M635.203 94.137c0-.657.535-1.192 1.192-1.192h11.886a1.19 1.19 0 0 1 1.188 1.192v11.902a1.19 1.19 0 0 1-1.188 1.191h-11.886a1.194 1.194 0 0 1-1.192-1.19zm0 0" fill="#1c4587"/><path d="M663.14 103.21l2.657-7.679h1.336l-3.453 9.317h-1.078l-3.438-9.317h1.32zm10.567-5.241c0 .469-.125.886-.371 1.246-.234.36-.563.644-.984.855.484.2.867.5 1.152.91.285.399.43.852.43 1.36 0 .805-.274 1.45-.82 1.933-.544.473-1.259.707-2.137.707-.903 0-1.622-.234-2.153-.707-.535-.484-.8-1.128-.8-1.933 0-.508.136-.961.41-1.36a2.566 2.566 0 0 1 1.132-.93 2.468 2.468 0 0 1-.984-.835 2.291 2.291 0 0 1-.352-1.246c0-.781.247-1.403.743-1.86.507-.46 1.175-.691 2.004-.691.82 0 1.476.23 1.968.691.508.457.762 1.079.762 1.86zm-.965 4.351c0-.52-.168-.941-.5-1.265-.324-.332-.75-.5-1.281-.5-.535 0-.961.16-1.285.48-.32.324-.48.75-.48 1.285 0 .52.152.938.464 1.246.32.297.762.446 1.317.446.546 0 .972-.149 1.28-.446.325-.308.485-.726.485-1.246zm-1.765-5.933c-.47 0-.848.144-1.133.43-.285.285-.426.675-.426 1.171 0 .469.14.852.426 1.153.285.285.664.425 1.133.425.472 0 .851-.14 1.132-.425.286-.301.43-.684.43-1.153 0-.472-.148-.855-.445-1.156a1.526 1.526 0 0 0-1.117-.445zm8.34 3.793l.464-4.649h4.774v1.098h-3.77l-.277 2.547c.457-.274.976-.406 1.558-.406.844 0 1.512.277 2.004.835.496.56.746 1.313.746 2.27 0 .965-.261 1.73-.78 2.285-.509.547-1.227.82-2.153.82-.82 0-1.488-.23-2.008-.687-.52-.461-.816-1.094-.89-1.898h1.113c.074.535.257.937.558 1.207.309.273.719.41 1.227.41.543 0 .969-.184 1.281-.559.32-.383.48-.902.48-1.558 0-.622-.171-1.118-.519-1.489-.332-.386-.781-.578-1.336-.578-.523 0-.922.113-1.207.332l-.316.262zm6.742 4.058c0-.215.054-.386.168-.523.125-.137.304-.203.539-.203.25 0 .433.066.558.203a.703.703 0 0 1 .203.523.656.656 0 0 1-.203.48c-.125.137-.308.208-.558.208-.235 0-.414-.07-.54-.207a.746.746 0 0 1-.163-.48zm9.418-8.035l-3.864 8.645h-1.226l3.828-8.332h-5.035v-.985h6.297zm0 0" fill="#666"/><path d="M32.125 39.293h-5.496l-1.059 3.145h-3.328l5.668-15.235h2.899l5.699 15.235h-3.344zm-4.66-2.531h3.805l-1.915-5.707zm16.25 2.55c0-.374-.184-.664-.555-.874-.36-.211-.941-.403-1.746-.579-2.687-.558-4.031-1.699-4.031-3.422 0-1.003.414-1.84 1.246-2.511.828-.68 1.918-1.02 3.266-1.02 1.437 0 2.582.34 3.437 1.02.855.672 1.281 1.547 1.281 2.625h-3.008c0-.422-.144-.778-.43-1.059-.269-.289-.702-.43-1.296-.43-.508 0-.906.118-1.191.352a1.072 1.072 0 0 0-.407.875c0 .336.153.61.461.82.324.196.863.371 1.617.52.758.148 1.387.316 1.895.5 1.598.598 2.398 1.613 2.398 3.05 0 1.032-.445 1.868-1.34 2.512-.878.633-2.019.95-3.417.95-.942 0-1.782-.168-2.524-.504-.73-.332-1.309-.793-1.726-1.375a3.332 3.332 0 0 1-.614-1.934h2.86c.023.547.222.961.593 1.246.371.285.868.426 1.485.426.57 0 1.004-.11 1.3-.332.297-.227.446-.512.446-.855zm8.805-1.156l2.082-7.047h3.25L53.3 44.203l-.262.594c-.668 1.476-1.781 2.215-3.344 2.215-.433 0-.879-.067-1.336-.203v-2.29l.465.02c.57 0 .996-.094 1.281-.281.286-.172.508-.457.668-.856l.352-.93-3.953-11.363h3.25zm9.25-7.047l.093 1.32c.805-1.015 1.887-1.523 3.25-1.523 1.203 0 2.094.352 2.676 1.059.582.707.879 1.758.89 3.16v7.313h-3.007v-7.239c0-.644-.145-1.11-.43-1.394-.27-.297-.73-.446-1.375-.446-.851 0-1.492.368-1.914 1.098v7.98H58.93V31.11zm13.82 9.094c.555 0 1.008-.148 1.355-.445.348-.309.528-.719.54-1.227h2.82c0 .754-.207 1.457-.63 2.102a4.211 4.211 0 0 1-1.69 1.488c-.704.348-1.493.52-2.36.52-1.61 0-2.883-.516-3.824-1.543-.93-1.032-1.395-2.45-1.395-4.262v-.203c0-1.735.465-3.125 1.395-4.168.93-1.04 2.195-1.559 3.808-1.559 1.41 0 2.543.403 3.399 1.207.855.805 1.285 1.88 1.297 3.219h-2.82c-.012-.582-.192-1.055-.54-1.414-.347-.371-.812-.559-1.394-.559-.692 0-1.219.254-1.578.762-.36.508-.54 1.34-.54 2.492v.317c0 1.168.176 2.004.524 2.511.356.508.902.762 1.633.762zm20.914-3.328c0 1.746-.399 3.148-1.188 4.203-.78 1.043-1.847 1.563-3.195 1.563-1.14 0-2.062-.399-2.77-1.192v5.34h-3.027V31.11h2.805l.113 1.118c.73-.883 1.684-1.325 2.86-1.325 1.386 0 2.464.524 3.23 1.563.781 1.031 1.172 2.45 1.172 4.262zm-3.008-.223c0-1.043-.187-1.847-.558-2.418-.372-.582-.918-.875-1.637-.875-.938 0-1.59.368-1.95 1.098v4.629c.372.746 1.028 1.117 1.97 1.117 1.449 0 2.175-1.183 2.175-3.55zm9.938 5.989c-1.66 0-3.012-.508-4.051-1.524-1.04-1.02-1.559-2.375-1.559-4.074v-.281c0-1.14.215-2.157.649-3.047.433-.906 1.05-1.602 1.855-2.086.809-.484 1.73-.727 2.77-.727 1.535 0 2.75.493 3.64 1.473.89.977 1.336 2.36 1.336 4.145v1.246h-7.207c.102.734.399 1.32.895 1.77.492.444 1.113.667 1.855.667 1.164 0 2.074-.422 2.73-1.266l1.489 1.676c-.461.633-1.074 1.13-1.84 1.489-.77.359-1.625.539-2.566.539zm-.356-9.282c-.594 0-1.082.203-1.469.614-.37.398-.605.972-.703 1.73h4.2v-.242c-.016-.668-.196-1.184-.54-1.543-.347-.371-.843-.559-1.488-.559zm13.375.594c-.41-.058-.77-.09-1.078-.09-1.14 0-1.887.39-2.246 1.168v7.407h-3.027v-11.33h2.859l.094 1.356c.593-1.04 1.43-1.559 2.507-1.559.333 0 .649.043.946.13zm2.805 8.484V33.34h-1.692v-2.23h1.692v-.95c0-1.277.36-2.262 1.074-2.957.734-.707 1.754-1.058 3.066-1.058.422 0 .938.066 1.543.203l-.039 2.343a3.768 3.768 0 0 0-.91-.093c-1.137 0-1.707.535-1.707 1.601v.91h2.246v2.23h-2.246v9.099zm5.832-5.769c0-1.125.215-2.125.648-2.992a4.821 4.821 0 0 1 1.86-2.047c.816-.484 1.761-.723 2.84-.723 1.523 0 2.769.469 3.734 1.41.965.93 1.504 2.196 1.617 3.797l.016.782c0 1.734-.489 3.128-1.465 4.183-.965 1.043-2.266 1.563-3.903 1.563-1.62 0-2.921-.52-3.898-1.563-.969-1.055-1.45-2.48-1.45-4.277zm3.027.227c0 1.066.2 1.882.594 2.453.41.57.992.855 1.746.855.73 0 1.3-.277 1.707-.836.41-.558.613-1.457.613-2.699 0-1.05-.203-1.863-.613-2.434-.406-.582-.984-.875-1.726-.875-.743 0-1.317.293-1.727.875-.395.57-.594 1.457-.594 2.66zm15.676-2.942a7.683 7.683 0 0 0-1.078-.09c-1.137 0-1.887.39-2.246 1.168v7.407h-3.028v-11.33h2.86l.094 1.356c.593-1.04 1.43-1.559 2.507-1.559.332 0 .649.043.946.13zm4.809-2.844l.097 1.266c.801-.98 1.887-1.469 3.25-1.469 1.446 0 2.446.574 2.988 1.727.793-1.153 1.926-1.727 3.399-1.727 1.226 0 2.137.36 2.73 1.078.606.707.91 1.778.91 3.215v7.239h-3.027v-7.22c0-.644-.129-1.116-.39-1.413-.246-.297-.688-.446-1.317-.446-.906 0-1.531.434-1.879 1.301v7.778h-3.008v-7.22c0-.644-.128-1.116-.39-1.413-.258-.297-.7-.446-1.317-.446-.855 0-1.476.36-1.859 1.078v8h-3.027V31.11zm22.738 11.328c-.137-.273-.235-.617-.3-1.023-.727.816-1.68 1.227-2.86 1.227-1.102 0-2.016-.317-2.746-.95-.73-.644-1.098-1.457-1.098-2.437 0-1.2.445-2.117 1.336-2.75.894-.645 2.176-.973 3.848-.984h1.39v-.653c0-.523-.137-.937-.406-1.246-.262-.324-.684-.484-1.266-.484-.504 0-.906.125-1.207.37-.285.25-.426.583-.426 1.005h-3.007c0-.657.195-1.262.593-1.82.407-.56.977-.993 1.707-1.305.747-.32 1.582-.48 2.508-.48 1.387 0 2.489.35 3.305 1.058.82.695 1.226 1.68 1.226 2.957v4.89c.016 1.083.165 1.891.45 2.438v.188zm-2.488-2.105a2.54 2.54 0 0 0 1.222-.297c.371-.2.653-.465.836-.8v-1.95h-1.133c-1.507 0-2.312.528-2.414 1.578v.168c0 .387.13.703.39.95.274.234.638.351 1.099.351zm10.605-9.223l.09 1.32c.805-1.015 1.89-1.523 3.25-1.523 1.203 0 2.094.352 2.676 1.059.582.707.879 1.758.89 3.16v7.313h-3.008v-7.239c0-.644-.14-1.11-.425-1.394-.274-.297-.73-.446-1.375-.446-.856 0-1.493.368-1.914 1.098v7.98h-3.028V31.11zm13.816 9.094c.559 0 1.012-.148 1.356-.445.348-.309.527-.719.539-1.227h2.824c0 .754-.21 1.457-.633 2.102-.406.633-.972 1.129-1.687 1.488-.707.348-1.492.52-2.36.52-1.609 0-2.886-.516-3.828-1.543-.93-1.032-1.39-2.45-1.39-4.262v-.203c0-1.735.46-3.125 1.39-4.168.93-1.04 2.2-1.559 3.809-1.559 1.41 0 2.543.403 3.398 1.207.856.805 1.29 1.88 1.301 3.219h-2.824c-.012-.582-.191-1.055-.54-1.414-.343-.371-.808-.559-1.39-.559-.695 0-1.222.254-1.578.762-.36.508-.539 1.34-.539 2.492v.317c0 1.168.172 2.004.52 2.511.359.508.902.762 1.632.762zm11.2 2.438c-1.657 0-3.008-.508-4.047-1.524-1.04-1.02-1.559-2.375-1.559-4.074v-.281c0-1.14.215-2.157.649-3.047.433-.906 1.05-1.602 1.855-2.086.809-.484 1.73-.727 2.77-.727 1.535 0 2.75.493 3.64 1.473.89.977 1.336 2.36 1.336 4.145v1.246h-7.207c.102.734.399 1.32.895 1.77.492.444 1.113.667 1.855.667 1.164 0 2.074-.422 2.73-1.266l1.489 1.676c-.461.633-1.074 1.13-1.84 1.489-.77.359-1.625.539-2.566.539zm-.352-9.282c-.594 0-1.082.203-1.465.614-.375.398-.61.972-.707 1.73h4.2v-.242c-.016-.668-.196-1.184-.54-1.543-.347-.371-.843-.559-1.488-.559zm14.973 9.078h-3.028V31.11h3.028zm-3.215-14.25c0-.457.148-.828.445-1.113.309-.297.723-.449 1.246-.449.52 0 .934.152 1.243.45.312.284.464.655.464 1.113 0 .46-.152.84-.464 1.136-.31.285-.723.426-1.243.426-.507 0-.918-.14-1.226-.426-.309-.297-.465-.676-.465-1.137zm8.805 2.922l.093 1.266c.805-.98 1.887-1.469 3.25-1.469 1.45 0 2.446.574 2.993 1.727.789-1.153 1.921-1.727 3.398-1.727 1.223 0 2.133.36 2.73 1.078.606.707.907 1.778.907 3.215v7.239h-3.024v-7.22c0-.644-.133-1.116-.394-1.413-.246-.297-.684-.446-1.317-.446-.902 0-1.527.434-1.875 1.301v7.778h-3.007v-7.22c0-.644-.133-1.116-.391-1.413-.262-.297-.703-.446-1.32-.446-.856 0-1.473.36-1.856 1.078v8h-3.031V31.11zm26.355 5.766c0 1.746-.394 3.148-1.187 4.203-.782 1.043-1.844 1.563-3.196 1.563-1.14 0-2.062-.399-2.765-1.192v5.34h-3.028V31.11h2.805l.11 1.118c.73-.883 1.683-1.325 2.859-1.325 1.386 0 2.465.524 3.234 1.563.777 1.031 1.168 2.45 1.168 4.262zm-3.008-.223c0-1.043-.187-1.847-.558-2.418-.371-.582-.914-.875-1.633-.875-.942 0-1.59.368-1.95 1.098v4.629c.372.746 1.028 1.117 1.97 1.117 1.445 0 2.171-1.183 2.171-3.55zm11.07-2.699a7.864 7.864 0 0 0-1.078-.09c-1.14 0-1.886.39-2.246 1.168v7.407h-3.027v-11.33h2.86l.093 1.356c.594-1.04 1.43-1.559 2.508-1.559.332 0 .648.043.945.13zm1.504 2.715c0-1.125.215-2.125.649-2.992a4.821 4.821 0 0 1 1.86-2.047c.816-.484 1.765-.723 2.84-.723 1.523 0 2.769.469 3.733 1.41.97.93 1.504 2.196 1.618 3.797l.02.782c0 1.734-.493 3.128-1.47 4.183-.964 1.043-2.265 1.563-3.898 1.563-1.625 0-2.926-.52-3.902-1.563-.965-1.055-1.45-2.48-1.45-4.277zm3.028.227c0 1.066.199 1.882.594 2.453.41.57.992.855 1.746.855.73 0 1.3-.277 1.71-.836.407-.558.614-1.457.614-2.699 0-1.05-.207-1.863-.613-2.434-.41-.582-.985-.875-1.73-.875-.743 0-1.317.293-1.727.875-.395.57-.594 1.457-.594 2.66zm13.558 1.84l2.102-7.626h3.156l-3.808 11.328h-2.88l-3.827-11.328h3.16zm11.684 3.906c-1.66 0-3.008-.508-4.05-1.524-1.04-1.02-1.56-2.375-1.56-4.074v-.281c0-1.14.22-2.157.653-3.047.43-.906 1.05-1.602 1.855-2.086.805-.484 1.727-.727 2.766-.727 1.54 0 2.75.493 3.645 1.473.89.977 1.336 2.36 1.336 4.145v1.246h-7.207c.097.734.394 1.32.89 1.77.496.444 1.113.667 1.86.667 1.164 0 2.074-.422 2.73-1.266l1.484 1.676c-.457.633-1.07 1.13-1.84 1.489-.765.359-1.62.539-2.562.539zm-.352-9.282c-.593 0-1.086.203-1.468.614-.371.398-.606.972-.707 1.73h4.199v-.242c-.012-.668-.192-1.184-.54-1.543-.347-.371-.839-.559-1.484-.559zm9.864-2.25l.093 1.266c.801-.98 1.887-1.469 3.25-1.469 1.446 0 2.446.574 2.989 1.727.793-1.153 1.926-1.727 3.398-1.727 1.227 0 2.137.36 2.73 1.078.61.707.91 1.778.91 3.215v7.239h-3.027v-7.22c0-.644-.128-1.116-.39-1.413-.246-.297-.688-.446-1.317-.446-.906 0-1.53.434-1.878 1.301v7.778h-3.008v-7.22c0-.644-.13-1.116-.39-1.413-.259-.297-.7-.446-1.317-.446-.856 0-1.477.36-1.86 1.078v8h-3.027V31.11zm21.394 11.532c-1.656 0-3.008-.508-4.047-1.524-1.039-1.02-1.562-2.375-1.562-4.074v-.281c0-1.14.219-2.157.652-3.047.434-.906 1.051-1.602 1.856-2.086.804-.484 1.73-.727 2.77-.727 1.534 0 2.75.493 3.64 1.473.89.977 1.336 2.36 1.336 4.145v1.246h-7.207c.097.734.398 1.32.89 1.77.496.444 1.118.667 1.86.667 1.164 0 2.074-.422 2.73-1.266l1.485 1.676c-.457.633-1.07 1.13-1.836 1.489-.77.359-1.625.539-2.567.539zm-.351-9.282c-.594 0-1.082.203-1.47.614-.37.398-.605.972-.702 1.73h4.195v-.242c-.012-.668-.191-1.184-.539-1.543-.344-.371-.84-.559-1.484-.559zm9.804-2.25l.098 1.32c.8-1.015 1.887-1.523 3.25-1.523 1.2 0 2.09.352 2.672 1.059.582.707.879 1.758.89 3.16v7.313h-3.007v-7.239c0-.644-.14-1.11-.426-1.394-.274-.297-.73-.446-1.375-.446-.856 0-1.492.368-1.914 1.098v7.98h-3.027V31.11zm12.727-2.773v2.773h1.93v2.23h-1.93v5.638c0 .421.078.726.242.91.16.175.469.261.926.261.336 0 .625-.023.875-.074v2.305a6.254 6.254 0 0 1-1.82.262c-2.118 0-3.196-1.067-3.235-3.2V33.34h-1.652v-2.23h1.652v-2.77h3.012zm9.64 10.977c0-.376-.187-.665-.558-.876-.36-.21-.941-.402-1.746-.578-2.688-.558-4.031-1.699-4.031-3.422 0-1.003.414-1.84 1.246-2.511.828-.68 1.918-1.02 3.27-1.02 1.433 0 2.577.34 3.433 1.02.855.672 1.281 1.547 1.281 2.625h-3.008c0-.422-.14-.778-.425-1.059-.274-.289-.708-.43-1.301-.43-.508 0-.903.118-1.188.352-.273.223-.41.516-.41.875 0 .336.156.61.465.82.32.196.86.371 1.617.52.754.148 1.383.316 1.89.5 1.598.598 2.4 1.613 2.4 3.05 0 1.032-.446 1.868-1.337 2.512-.883.633-2.02.95-3.418.95-.941 0-1.785-.168-2.527-.504-.73-.332-1.305-.793-1.727-1.375a3.332 3.332 0 0 1-.613-1.934h2.86c.023.547.222.961.593 1.246.371.285.867.426 1.488.426.567 0 1-.11 1.301-.332.297-.227.446-.512.446-.855zm12.516 3.124h-3.027V31.11h3.027zm-3.21-14.25c0-.457.148-.828.445-1.113.308-.297.722-.449 1.246-.449.52 0 .933.152 1.242.45.308.284.465.655.465 1.113 0 .46-.157.84-.465 1.136-.309.285-.723.426-1.242.426-.508 0-.918-.14-1.227-.426-.308-.297-.465-.676-.465-1.137zm8.75 2.922l.09 1.32c.804-1.015 1.89-1.523 3.25-1.523 1.202 0 2.093.352 2.675 1.059.582.707.879 1.758.89 3.16v7.313h-3.007v-7.239c0-.644-.14-1.11-.426-1.394-.274-.297-.73-.446-1.375-.446-.856 0-1.492.368-1.914 1.098v7.98h-3.027V31.11zm19.687 7.551l3.433-11.457h3.493l-5.293 15.235h-3.27l-5.273-15.235h3.472zm18.238-7.402c0 .73-.184 1.39-.559 1.972a3.966 3.966 0 0 1-1.52 1.356c.731.36 1.313.852 1.743 1.473.434.617.652 1.355.652 2.21 0 1.352-.464 2.419-1.394 3.2-.914.781-2.168 1.172-3.75 1.172-1.574 0-2.824-.391-3.754-1.172-.926-.793-1.39-1.86-1.39-3.2 0-.855.214-1.593.648-2.214a4.346 4.346 0 0 1 1.746-1.47 3.95 3.95 0 0 1-1.524-1.355 3.685 3.685 0 0 1-.539-1.972c0-1.301.43-2.336 1.282-3.106.867-.77 2.043-1.152 3.53-1.152 1.474 0 2.645.383 3.509 1.152.883.754 1.32 1.793 1.32 3.106zm-2.71 6.789c0-.668-.192-1.203-.579-1.598-.383-.398-.895-.597-1.54-.597-.644 0-1.16.199-1.542.597-.383.395-.574.93-.574 1.598 0 .644.183 1.164.554 1.562.387.395.91.594 1.582.594.657 0 1.168-.191 1.54-.574.37-.387.558-.914.558-1.582zm-.317-6.64c0-.595-.16-1.075-.48-1.434-.313-.36-.75-.54-1.321-.54-.559 0-.996.176-1.32.524-.309.348-.465.828-.465 1.45 0 .593.156 1.077.465 1.452.324.371.77.555 1.34.555.566 0 1.007-.184 1.316-.559.312-.37.465-.855.465-1.449zm0 0"/></svg>