<svg viewBox="0 0 1064.325 312.388" fill="none" stroke-linecap="square" stroke-miterlimit="10" xmlns="http://www.w3.org/2000/svg"><clipPath id="a"><path d="M0 0h1064.325v312.388H0V0z"/></clipPath><g clip-path="url(#a)"><path d="M0 0h1064.325v312.388H0z"/><path fill="#ead1dc" d="M8.161 20.194h1048v96h-1048z" fill-rule="evenodd"/><path stroke="#4c1130" stroke-linejoin="round" stroke-linecap="butt" d="M8.161 20.194h1048v96h-1048z"/><path fill="#d9ead3" d="M8.161 196.194h1048v96h-1048z" fill-rule="evenodd"/><path stroke="#274e13" stroke-linejoin="round" stroke-linecap="butt" d="M8.161 196.194h1048v96h-1048z"/><path d="M8.161 156.194h1048"/><path stroke="#b7b7b7" stroke-linejoin="round" stroke-linecap="butt" stroke-dasharray="4.0,3.0" d="M8.161 156.194h1048"/><path fill="#cfe2f3" d="M168.161 204.194h144v80h-144z" fill-rule="evenodd"/><path stroke="#000" stroke-linejoin="round" stroke-linecap="butt" d="M168.161 204.194h144v80h-144z"/><path fill="#000" d="M187.117 236.755q0-.61-.281-1.016-.281-.422-.719-.703-.437-.297-.969-.484-.515-.188-1-.344-.703-.234-1.422-.547-.718-.328-1.328-.781-.593-.469-.968-1.094-.375-.64-.375-1.5t.375-1.531q.375-.672.984-1.14.61-.47 1.375-.704.781-.25 1.578-.25.86 0 1.656.297.813.281 1.422.812.625.516 1 1.25.375.735.39 1.641h-1.734q-.078-.562-.28-1.031-.204-.469-.563-.813-.344-.343-.828-.515-.47-.188-1.063-.188-.484 0-.953.14-.453.126-.813.407-.359.266-.578.672-.218.39-.218.922.015.578.296.984.282.39.72.672.437.266.937.453.5.172.953.313.484.156.984.36.5.187.969.437t.86.578q.406.312.702.718.313.407.47.891.171.484.171 1.078 0 .89-.406 1.563-.39.672-1.016 1.11-.625.437-1.422.671-.781.219-1.578.219-.89 0-1.734-.266-.844-.281-1.516-.797-.672-.515-1.094-1.25-.406-.75-.437-1.703h1.719q.078.625.328 1.11.265.468.656.812.406.328.922.5.531.156 1.156.156.485 0 .969-.125t.844-.375q.375-.265.609-.656.25-.406.25-.953zm8.602 3.547q-1.031 0-1.906-.36-.875-.359-1.5-.984-.61-.64-.954-1.516-.343-.875-.343-1.906v-.39q0-1.188.375-2.126.39-.953 1.015-1.593.641-.657 1.438-1 .812-.344 1.656-.344 1.063 0 1.86.375.796.36 1.328 1.016.53.64.78 1.53.266.876.266 1.907v.75h-7.03q.015.688.25 1.281.234.578.64 1.032.406.437.969.703.562.25 1.25.25.906 0 1.593-.36.703-.375 1.172-.968l1.031.796q-.25.375-.625.72-.359.327-.843.593-.485.266-1.094.422-.61.172-1.328.172zm-.219-8.844q-.516 0-.969.187-.453.188-.812.547-.36.36-.625.891-.25.516-.344 1.203h5.297v-.125q-.016-.5-.188-.984-.156-.485-.468-.86-.297-.39-.766-.625-.469-.234-1.125-.234zm11.055-3.594v2.39h3.75v1.313h-3.75v5.344q0 .578.14.953.141.375.391.594.266.219.594.312.344.094.719.094.265 0 .547-.031.297-.031.578-.078.281-.047.515-.094.25-.047.407-.094l.234 1.203q-.219.125-.516.22-.296.093-.656.155-.344.079-.75.11-.39.047-.781.047-.656 0-1.234-.188-.563-.187-.985-.594-.422-.406-.672-1.046-.234-.641-.234-1.563v-5.344h-2.578v-1.312h2.578v-2.39h1.703zm7.196-1.015h8.015v1.468h-3.172v10.344h3.172v1.453h-8.015v-1.453h3.109v-10.344h-3.11v-1.468zm15.195 1.015v2.39h3.75v1.313h-3.75v5.344q0 .578.14.953.141.375.391.594.266.219.594.312.344.094.719.094.266 0 .547-.031.297-.031.578-.078.281-.047.516-.094.25-.047.406-.094l.234 1.203q-.219.125-.515.22-.297.093-.657.155-.343.079-.75.11-.39.047-.78.047-.657 0-1.235-.188-.563-.187-.985-.594-.422-.406-.672-1.046-.234-.641-.234-1.563v-5.344h-2.578v-1.312h2.578v-2.39h1.703zm11.555 12.438q-1.031 0-1.906-.36-.875-.359-1.5-.984-.61-.64-.953-1.516-.344-.875-.344-1.906v-.39q0-1.188.375-2.126.39-.953 1.016-1.593.64-.657 1.437-1 .813-.344 1.656-.344 1.063 0 1.86.375.797.36 1.328 1.016.531.64.781 1.53.266.876.266 1.907v.75h-7.031q.015.688.25 1.281.234.578.64 1.032.406.437.969.703.562.25 1.25.25.906 0 1.594-.36.703-.375 1.172-.968l1.03.796q-.25.375-.624.72-.36.327-.844.593-.484.266-1.094.422-.61.172-1.328.172zm-.219-8.844q-.515 0-.968.187-.453.188-.813.547-.36.36-.625.891-.25.516-.344 1.203h5.297v-.125q-.015-.5-.187-.984-.156-.485-.469-.86-.297-.39-.766-.625-.468-.234-1.125-.234zm13.524-1.375q.234 0 .484.016.266 0 .485.03.234.032.422.079.203.047.343.11l-.234 1.64q-.484-.11-.937-.156-.438-.047-.922-.047-1.188 0-1.922.547-.735.531-1.078 1.484v6.328h-1.688v-9.86h1.594l.094 1.563q.593-.797 1.437-1.265.844-.469 1.922-.469zm11.211 10.031q-.093-.187-.156-.469-.062-.296-.094-.609-.25.266-.562.5-.313.219-.703.39-.375.173-.813.266-.422.11-.89.11-.797 0-1.438-.219-.625-.234-1.062-.625-.438-.39-.688-.922-.234-.531-.234-1.156 0-.813.312-1.422.328-.61.922-1.016.594-.406 1.422-.593.844-.204 1.875-.204h1.828v-.78q0-.454-.172-.798-.156-.359-.453-.609-.297-.25-.734-.39-.422-.141-.97-.141-.5 0-.905.14-.391.125-.672.344-.266.203-.422.484-.14.282-.14.594h-1.688q0-.531.265-1.047.282-.53.782-.937.5-.422 1.218-.672.735-.25 1.657-.25.843 0 1.562.203.719.203 1.235.625.53.406.828 1.031.297.61.297 1.438v4.578q0 .5.093 1.047.094.547.25.969v.14h-1.75zm-2.984-1.281q.5 0 .922-.125.437-.14.781-.344.344-.203.594-.469.265-.28.406-.562v-2h-1.562q-1.47 0-2.297.437-.813.438-.813 1.375 0 .36.125.672.125.313.36.532.25.218.625.359.375.125.859.125zm11.695-10.969v2.39h3.75v1.313h-3.75v5.344q0 .578.141.953.14.375.39.594.266.219.594.312.344.094.72.094.265 0 .546-.031.297-.031.578-.078.281-.047.516-.094.25-.047.406-.094l.234 1.203q-.218.125-.515.22-.297.093-.656.155-.344.079-.75.11-.391.047-.782.047-.656 0-1.234-.188-.563-.187-.984-.594-.422-.406-.672-1.046-.235-.641-.235-1.563v-5.344h-2.578v-1.312h2.578v-2.39h1.703zm6.727 7.235q0-1.063.313-1.985.312-.922.89-1.594.579-.671 1.407-1.046.828-.391 1.859-.391 1.047 0 1.875.39.844.376 1.422 1.047.578.672.89 1.594.313.922.313 1.985v.203q0 1.062-.312 1.968-.313.907-.891 1.594-.578.672-1.406 1.063-.828.375-1.86.375-1.047 0-1.89-.375-.828-.39-1.407-1.063-.578-.687-.89-1.594-.313-.906-.313-1.968v-.203zm1.688.203q0 .718.172 1.39.172.657.515 1.157.36.5.89.796.532.282 1.235.282.688 0 1.203-.282.532-.296.875-.796.36-.5.532-1.157.172-.672.172-1.39v-.203q0-.72-.188-1.375-.172-.672-.531-1.172-.344-.5-.875-.797-.516-.297-1.219-.297-.703 0-1.219.297-.515.297-.875.797-.343.5-.515 1.172-.172.656-.172 1.375v.203zm16.445-5.219q.235 0 .485.016.265 0 .484.03.234.032.422.079.203.047.344.11l-.235 1.64q-.484-.11-.937-.156-.438-.047-.922-.047-1.188 0-1.922.547-.734.531-1.078 1.484v6.328h-1.687v-9.86h1.593l.094 1.563q.594-.797 1.437-1.265.844-.469 1.922-.469zm-82.123 32.031h-1.703l-5.156-9.906-.031 9.906h-1.703V248.85h1.718l5.141 9.89.031-9.89h1.703v13.265zm7.243.188q-1.031 0-1.906-.36-.875-.359-1.5-.984-.61-.64-.954-1.516-.343-.875-.343-1.906v-.39q0-1.188.375-2.126.39-.953 1.015-1.593.64-.657 1.438-1 .812-.344 1.656-.344 1.063 0 1.86.375.796.36 1.328 1.016.53.64.78 1.53.266.876.266 1.907v.75h-7.03q.015.688.25 1.281.234.578.64 1.032.406.437.969.703.562.25 1.25.25.906 0 1.593-.36.703-.375 1.172-.968l1.031.796q-.25.375-.625.72-.359.327-.843.593-.485.266-1.094.422-.61.172-1.328.172zm-.219-8.844q-.516 0-.969.187-.453.188-.812.547-.36.36-.625.891-.25.516-.344 1.203h5.297v-.125q-.016-.5-.188-.984-.156-.485-.468-.86-.297-.39-.766-.625-.469-.234-1.125-.234zm11.133 2.453l2.64-3.656h1.97l-3.672 4.875 3.765 4.984h-1.937l-2.735-3.75-2.718 3.75h-1.97l3.766-4.984-3.656-4.875h1.938l2.61 3.656zm11.118-6.047v2.39h3.75v1.313h-3.75v5.344q0 .578.14.953t.39.594q.266.219.595.312.343.094.718.094.266 0 .547-.031.297-.031.578-.078.282-.047.516-.094.25-.047.406-.094l.235 1.203q-.22.125-.516.22-.297.093-.656.155-.344.079-.75.11-.391.047-.782.047-.656 0-1.234-.188-.562-.187-.984-.594-.422-.406-.672-1.046-.235-.641-.235-1.563v-5.344h-2.578v-1.312h2.578v-2.39h1.704zm13.43-1.015h1.718v9.234q-.015.922-.36 1.703-.327.766-.905 1.328-.563.547-1.344.875-.781.313-1.703.313t-1.688-.282q-.765-.28-1.328-.812-.547-.531-.89-1.266-.344-.75-.422-1.656h1.718q.016.547.22 1.031.202.47.53.828.344.344.813.532.469.187 1.047.187.61 0 1.078-.219.469-.218.797-.593.343-.39.515-.89.172-.517.203-1.079v-9.234zm11.914 9.906q0-.61-.281-1.016-.282-.422-.72-.703-.437-.297-.968-.484-.516-.188-1-.344-.703-.234-1.422-.547-.719-.328-1.328-.781-.594-.469-.969-1.094-.375-.64-.375-1.5t.375-1.531q.375-.672.985-1.14.61-.47 1.375-.704.78-.25 1.578-.25.86 0 1.656.297.813.281 1.422.812.625.516 1 1.25.375.735.39 1.641h-1.734q-.078-.562-.281-1.031-.203-.469-.563-.813-.343-.343-.828-.515-.468-.188-1.062-.188-.485 0-.953.14-.453.126-.813.407-.36.266-.578.672-.219.39-.219.922.016.578.297.984.281.39.719.672.437.266.937.453.5.172.954.313.484.156.984.36.5.187.969.437.468.25.86.578.405.312.702.718.313.407.469.891.172.484.172 1.078 0 .89-.406 1.563-.391.672-1.016 1.11-.625.437-1.422.671-.781.219-1.578.219-.89 0-1.734-.266-.844-.281-1.516-.797-.672-.515-1.094-1.25-.406-.75-.437-1.703h1.718q.079.625.329 1.11.265.468.656.812.406.328.922.5.53.156 1.156.156.484 0 .969-.125.484-.125.843-.375.375-.265.61-.656.25-.406.25-.953z"/><path fill="#fce5cd" d="M368.161 204.194h136v80h-136z" fill-rule="evenodd"/><path stroke="#783f04" stroke-linejoin="round" stroke-linecap="butt" d="M368.161 204.194h136v80h-136z"/><path fill="#000" d="M390.355 247.13q-.109.922-.468 1.687-.36.766-.938 1.328-.562.547-1.344.86-.765.297-1.734.297-.812 0-1.484-.235-.672-.234-1.203-.64-.516-.422-.891-.969-.375-.563-.625-1.219-.25-.656-.375-1.375t-.14-1.453v-1.844q.015-.75.14-1.468.125-.72.375-1.375.25-.657.625-1.204.375-.562.89-.968.532-.422 1.188-.657.672-.234 1.5-.234 1 0 1.781.313.782.312 1.344.875.563.546.906 1.343.344.782.453 1.72h-1.687q-.078-.595-.281-1.11-.203-.532-.547-.922-.328-.39-.813-.61-.484-.218-1.156-.218-.594 0-1.062.203-.454.187-.797.531-.328.328-.547.781-.219.438-.36.938-.14.5-.203 1.031-.047.516-.047 1.016v1.86q0 .5.047 1.03.063.516.203 1.016.141.5.36.953.219.438.547.781.343.344.797.547.453.188 1.062.188.672 0 1.156-.203.485-.22.813-.594.344-.375.547-.89.203-.516.28-1.11h1.688zm9.9-2.14h-5.532v4.687h6.453v1.437h-8.14V237.85h8.062v1.437h-6.375v4.266h5.531v1.437zm5.413-3.735l.125 1.453q.532-.766 1.313-1.188.781-.437 1.75-.437.781 0 1.406.219.64.218 1.078.687.453.453.688 1.172.25.719.25 1.688v6.265h-1.688v-6.219q0-.656-.156-1.109-.14-.453-.422-.734-.281-.297-.703-.422-.406-.125-.953-.125-.844 0-1.484.422-.641.422-1.032 1.125v7.062h-1.687v-9.86h1.515zm13.68-2.39v2.39h3.75v1.312h-3.75v5.344q0 .578.141.953.14.375.39.594.266.219.594.312.344.094.72.094.265 0 .546-.031.297-.031.578-.078.281-.047.516-.094.25-.047.406-.094l.234 1.203q-.218.125-.515.22-.297.093-.656.155-.344.079-.75.11-.391.047-.782.047-.656 0-1.234-.188-.563-.187-.984-.594-.422-.406-.672-1.046-.235-.641-.235-1.563v-5.344h-2.578v-1.312h2.578v-2.39h1.703zm13.665 2.218q.234 0 .484.016.266 0 .484.03.235.032.422.079.203.047.344.11l-.234 1.64q-.485-.11-.938-.156-.437-.047-.922-.047-1.187 0-1.922.547-.734.531-1.078 1.484v6.328h-1.687v-9.86h1.594l.093 1.563q.594-.797 1.438-1.265.844-.469 1.922-.469zm8.352 6.531l.437 1.188 3.016-7.547h1.89l-5.015 11.375q-.172.39-.438.812-.265.438-.656.797-.375.36-.89.61-.5.25-1.173.25-.109 0-.265-.016-.14-.016-.297-.047-.14-.016-.266-.047-.125-.015-.203-.047l.266-1.375q.062 0 .172.016.109.016.218.016.125.015.235.015h.172q.359 0 .64-.187.282-.188.5-.453.235-.266.39-.547.157-.282.25-.469l.673-1.313-4.235-9.39h1.875l2.704 6.36zm14.523.14q0-.609-.281-1.015-.281-.422-.719-.703-.437-.297-.969-.484-.515-.188-1-.344-.703-.234-1.421-.547-.72-.328-1.329-.781-.593-.469-.968-1.094-.375-.64-.375-1.5t.375-1.531q.375-.672.984-1.14.61-.47 1.375-.704.781-.25 1.578-.25.86 0 1.656.297.813.281 1.422.812.625.516 1 1.25.375.735.391 1.641h-1.734q-.079-.562-.282-1.031-.203-.469-.562-.813-.344-.343-.828-.515-.469-.188-1.063-.188-.484 0-.953.14-.453.126-.812.407-.36.266-.579.672-.218.39-.218.922.015.578.297.984.28.39.718.672.438.266.938.453.5.172.953.313.484.156.984.36.5.187.97.437.468.25.858.578.407.312.704.718.312.407.468.891.172.484.172 1.078 0 .89-.406 1.563-.39.672-1.016 1.11-.625.437-1.422.671-.78.219-1.578.219-.89 0-1.734-.266-.844-.281-1.516-.797-.672-.515-1.093-1.25-.407-.75-.438-1.703h1.719q.078.625.328 1.11.266.468.656.812.406.328.922.5.531.156 1.156.156.485 0 .97-.125.483-.125.843-.375.375-.265.61-.656.25-.406.25-.953zm8.243-8.89v2.39h3.75v1.313h-3.75v5.344q0 .578.14.953t.39.594q.267.219.595.312.343.094.718.094.266 0 .547-.031.297-.031.578-.078.282-.047.516-.094.25-.047.406-.094l.235 1.203q-.22.125-.516.22-.297.093-.656.155-.344.079-.75.11-.39.047-.781.047-.657 0-1.235-.188-.562-.187-.984-.594-.422-.406-.672-1.046-.234-.641-.234-1.563v-5.344h-2.579v-1.312h2.579v-2.39h1.703zm13.602 10.89q-.5.735-1.235 1.141-.734.407-1.703.407-.781 0-1.406-.235-.625-.25-1.078-.765-.438-.516-.688-1.297-.234-.781-.234-1.89v-5.86h1.687v5.875q0 .812.125 1.344.125.515.375.828.266.312.625.453.375.125.86.125 1.03 0 1.656-.422.64-.422.953-1.125v-7.078h1.688v9.86h-1.532l-.093-1.36zm13.148-3.452q0 1.047-.265 1.968-.25.907-.75 1.594-.485.672-1.204 1.063-.718.375-1.656.375-.953 0-1.656-.328-.688-.344-1.188-.985l-.078 1.125h-1.547v-14h1.688v5.203q.484-.609 1.156-.922.688-.312 1.61-.312.937 0 1.656.375.734.36 1.219 1.031.5.656.75 1.594.265.922.265 2.016v.203zm-1.687-.203q0-.72-.14-1.36-.142-.656-.454-1.156-.313-.5-.813-.781-.5-.297-1.218-.297-.438 0-.813.125-.36.11-.656.312-.281.203-.5.485-.219.265-.375.593v4.313q.156.328.375.61.234.28.516.5.296.202.656.312.375.11.812.11.688 0 1.188-.282.5-.297.812-.781.313-.5.453-1.14.157-.642.157-1.36v-.203z"/><path fill="#d9d2e9" d="M368.161 28.194h328v80h-328z" fill-rule="evenodd"/><path stroke="#20124d" stroke-linejoin="round" stroke-linecap="butt" d="M368.161 28.194h328v80h-328z"/><path fill="#000" d="M409.381 69.708h-2.64v5.406h-1.672V61.85h3.875q.937.015 1.75.265.828.25 1.437.75.625.485.969 1.235.344.734.344 1.734 0 .64-.188 1.187-.172.532-.5.97-.328.437-.797.78-.453.329-1 .563l2.813 5.672v.11h-1.782l-2.609-5.407zm-2.64-1.39h2.25q.578-.016 1.078-.173.5-.171.875-.484.375-.328.593-.781.22-.469.22-1.063 0-.64-.22-1.109-.203-.484-.578-.813-.375-.328-.89-.484-.5-.172-1.125-.172h-2.204v5.078zm15.851 5.437q-.5.734-1.234 1.14-.734.407-1.703.407-.781 0-1.406-.235-.625-.25-1.079-.765-.437-.516-.687-1.297-.234-.781-.234-1.89v-5.86h1.687v5.875q0 .812.125 1.344.125.515.375.828.266.312.625.453.375.125.86.125 1.03 0 1.656-.422.64-.422.953-1.125v-7.078h1.687v9.86h-1.531l-.094-1.36zm6.305-8.5l.125 1.453q.531-.766 1.313-1.188.781-.437 1.75-.437.781 0 1.406.219.64.218 1.078.687.453.453.688 1.172.25.719.25 1.688v6.265h-1.688v-6.219q0-.656-.156-1.109-.14-.453-.422-.734-.281-.297-.703-.422-.406-.125-.953-.125-.844 0-1.485.422-.64.422-1.03 1.125v7.062h-1.688v-9.86h1.515zm13.68-2.39v2.39h3.75v1.312h-3.75v5.344q0 .578.14.953.141.375.391.594.266.219.594.312.344.094.719.094.266 0 .547-.031.297-.031.578-.078.281-.047.516-.094.25-.047.406-.094l.234 1.203q-.219.125-.515.22-.297.093-.657.155-.343.079-.75.11-.39.047-.78.047-.657 0-1.235-.188-.563-.187-.985-.594-.422-.406-.672-1.046-.234-.641-.234-1.563v-5.344h-2.578v-1.312h2.578v-2.39h1.703zm7.461 2.39h5.047v8.406h3.219v1.453h-8.266v-1.453h3.36v-6.937h-3.36v-1.47zm3.141-2.578q0-.422.25-.703.25-.297.766-.297.5 0 .75.297.25.28.25.703 0 .406-.25.687-.25.266-.75.266-.516 0-.766-.266-.25-.281-.25-.687zm8.57 2.578l.047.937q.297-.53.782-.812.5-.297 1.187-.297 1.36 0 1.813 1.047.297-.469.765-.75.485-.297 1.157-.297 1.093 0 1.671.672.579.656.579 2v7.36h-1.594v-7.376q0-1.25-1.14-1.234-.298 0-.516.094-.22.078-.375.218-.141.141-.22.328-.077.188-.109.375v7.594h-1.609v-7.39q0-.594-.266-.907-.265-.328-.828-.312-.53 0-.828.219-.281.203-.422.546v7.844h-1.61v-9.86h1.517zm14.774 10.047q-1.031 0-1.906-.36-.875-.359-1.5-.984-.61-.64-.953-1.516-.344-.875-.344-1.906v-.39q0-1.188.375-2.126.39-.953 1.016-1.593.64-.657 1.437-1 .813-.344 1.657-.344 1.062 0 1.859.375.797.36 1.328 1.016.531.64.781 1.53.266.876.266 1.907v.75h-7.031q.015.688.25 1.281.234.578.64 1.032.407.437.969.703.563.25 1.25.25.906 0 1.594-.36.703-.375 1.172-.968l1.03.796q-.25.375-.624.72-.36.327-.844.593-.484.266-1.094.422-.609.172-1.328.172zm-.218-8.844q-.516 0-.97.187-.452.188-.812.547-.36.36-.625.891-.25.516-.343 1.203h5.296v-.125q-.015-.5-.187-.984-.156-.485-.469-.86-.297-.39-.765-.625-.47-.234-1.125-.234zm15.242 10.031h-8.36v-1.375h8.36v1.375zm9.961-4.734q0-.61-.281-1.016-.281-.422-.719-.703-.437-.297-.969-.484-.515-.188-1-.344-.703-.234-1.421-.547-.72-.328-1.329-.781-.593-.469-.968-1.094-.375-.64-.375-1.5t.375-1.531q.375-.672.984-1.14.61-.47 1.375-.704.781-.25 1.578-.25.86 0 1.656.297.813.281 1.422.812.625.516 1 1.25.375.735.39 1.641h-1.733q-.079-.562-.282-1.031-.203-.469-.562-.813-.344-.343-.828-.515-.47-.188-1.063-.188-.484 0-.953.14-.453.126-.812.407-.36.266-.579.672-.218.39-.218.922.015.578.297.984.28.39.718.672.438.266.938.453.5.172.953.313.484.156.984.36.5.187.969.437t.86.578q.406.312.703.718.312.407.468.891.172.484.172 1.078 0 .89-.406 1.563-.39.672-1.016 1.11-.625.437-1.422.671-.78.219-1.578.219-.89 0-1.734-.266-.844-.281-1.516-.797-.672-.515-1.093-1.25-.407-.75-.438-1.703h1.719q.078.625.328 1.11.266.468.656.812.406.328.922.5.531.156 1.156.156.485 0 .969-.125t.844-.375q.375-.265.61-.656.25-.406.25-.953zm8.602 3.547q-1.031 0-1.906-.36-.875-.359-1.5-.984-.61-.64-.953-1.516-.344-.875-.344-1.906v-.39q0-1.188.375-2.126.39-.953 1.015-1.593.641-.657 1.438-1 .812-.344 1.656-.344 1.063 0 1.86.375.796.36 1.328 1.016.531.64.781 1.53.266.876.266 1.907v.75h-7.032q.016.688.25 1.281.235.578.641 1.032.406.437.969.703.562.25 1.25.25.906 0 1.593-.36.704-.375 1.172-.968l1.032.796q-.25.375-.625.72-.36.327-.844.593-.485.266-1.094.422-.61.172-1.328.172zm-.219-8.844q-.515 0-.969.187-.453.188-.812.547-.36.36-.625.891-.25.516-.344 1.203h5.297v-.125q-.016-.5-.187-.984-.157-.485-.47-.86-.296-.39-.765-.625-.469-.234-1.125-.234zm11.055-3.594v2.39h3.75v1.313h-3.75v5.344q0 .578.14.953.141.375.391.594.266.219.594.312.344.094.719.094.266 0 .547-.031.297-.031.578-.078.281-.047.516-.094.25-.047.406-.094l.234 1.203q-.219.125-.515.22-.297.093-.657.155-.343.079-.75.11-.39.047-.781.047-.656 0-1.234-.188-.563-.187-.985-.594-.422-.406-.672-1.046-.234-.641-.234-1.563v-5.344h-2.578v-1.312h2.578v-2.39h1.703zm7.196-1.015h8.015v1.468h-3.172v10.344h3.172v1.453h-8.015v-1.453h3.11V63.317h-3.11V61.85zm15.195 1.015v2.39h3.75v1.313h-3.75v5.344q0 .578.141.953.14.375.39.594.266.219.594.312.344.094.72.094.265 0 .546-.031.297-.031.578-.078.281-.047.516-.094.25-.047.406-.094l.234 1.203q-.218.125-.515.22-.297.093-.657.155-.343.079-.75.11-.39.047-.78.047-.657 0-1.235-.188-.563-.187-.985-.594-.421-.406-.671-1.046-.235-.641-.235-1.563v-5.344h-2.578v-1.312h2.578v-2.39h1.703zm11.555 12.438q-1.031 0-1.906-.36-.875-.359-1.5-.984-.61-.64-.953-1.516-.344-.875-.344-1.906v-.39q0-1.188.375-2.126.39-.953 1.016-1.593.64-.657 1.437-1 .813-.344 1.657-.344 1.062 0 1.859.375.797.36 1.328 1.016.531.64.781 1.53.266.876.266 1.907v.75h-7.031q.015.688.25 1.281.234.578.64 1.032.407.437.969.703.563.25 1.25.25.906 0 1.594-.36.703-.375 1.172-.968l1.03.796q-.25.375-.624.72-.36.327-.844.593-.484.266-1.094.422-.609.172-1.328.172zm-.218-8.844q-.516 0-.97.187-.452.188-.812.547-.36.36-.625.891-.25.516-.343 1.203h5.296v-.125q-.015-.5-.187-.984-.156-.485-.469-.86-.297-.39-.765-.625-.47-.234-1.125-.234zm13.523-1.375q.235 0 .485.016.265 0 .484.03.234.032.422.079.203.047.344.11l-.235 1.64q-.484-.11-.937-.156-.438-.047-.922-.047-1.188 0-1.922.547-.734.531-1.078 1.484v6.328h-1.688v-9.86h1.594l.094 1.563q.594-.797 1.437-1.265.844-.469 1.922-.469zm11.211 10.031q-.093-.187-.156-.469-.062-.296-.094-.609-.25.266-.562.5-.313.219-.703.39-.375.173-.813.266-.422.11-.89.11-.797 0-1.438-.219-.625-.234-1.062-.625-.438-.39-.688-.922-.234-.531-.234-1.156 0-.813.312-1.422.328-.61.922-1.016.594-.406 1.422-.593.844-.204 1.875-.204h1.828v-.78q0-.454-.172-.798-.156-.359-.453-.609-.297-.25-.734-.39-.422-.141-.969-.141-.5 0-.906.14-.39.125-.672.344-.266.203-.422.484-.14.282-.14.594h-1.688q0-.531.266-1.047.28-.53.78-.937.5-.422 1.22-.672.734-.25 1.656-.25.844 0 1.562.203.719.203 1.235.625.53.406.828 1.031.297.61.297 1.438v4.578q0 .5.093 1.047.094.547.25.969v.14h-1.75zm-2.984-1.281q.5 0 .922-.125.437-.14.781-.344.344-.203.594-.469.266-.28.406-.562v-2h-1.562q-1.47 0-2.297.437-.813.438-.813 1.375 0 .36.125.672.125.313.36.532.25.218.625.359.375.125.859.125zm11.696-10.969v2.39h3.75v1.313h-3.75v5.344q0 .578.14.953t.39.594q.267.219.595.312.343.094.718.094.266 0 .547-.031.297-.031.578-.078.282-.047.516-.094.25-.047.406-.094l.235 1.203q-.22.125-.516.22-.297.093-.656.155-.344.079-.75.11-.39.047-.781.047-.657 0-1.235-.188-.562-.187-.984-.594-.422-.406-.672-1.046-.234-.641-.234-1.563v-5.344h-2.579v-1.312h2.579v-2.39h1.703zm6.726 7.235q0-1.063.313-1.985.312-.922.89-1.594.579-.671 1.407-1.046.828-.391 1.86-.391 1.046 0 1.874.39.844.376 1.422 1.047.578.672.89 1.594.313.922.313 1.985v.203q0 1.062-.312 1.968-.313.907-.89 1.594-.58.672-1.407 1.063-.828.375-1.86.375-1.046 0-1.89-.375-.828-.39-1.406-1.063-.579-.687-.891-1.594-.313-.906-.313-1.968v-.203zm1.688.203q0 .718.172 1.39.172.657.515 1.157.36.5.891.796.531.282 1.234.282.688 0 1.204-.282.53-.296.875-.796.359-.5.53-1.157.173-.672.173-1.39v-.203q0-.72-.188-1.375-.172-.672-.531-1.172-.344-.5-.875-.797-.516-.297-1.219-.297-.703 0-1.219.297-.515.297-.875.797-.343.5-.515 1.172-.172.656-.172 1.375v.203zm16.445-5.219q.235 0 .485.016.265 0 .484.03.235.032.422.079.203.047.344.11l-.235 1.64q-.484-.11-.937-.156-.438-.047-.922-.047-1.187 0-1.922.547-.734.531-1.078 1.484v6.328h-1.687v-9.86h1.593l.094 1.563q.594-.797 1.438-1.265.843-.469 1.921-.469zm13.04 10.031h-1.703l-5.157-9.906-.03 9.906h-1.704V61.85h1.719l5.14 9.89.032-9.89h1.703v13.265zm7.242.188q-1.031 0-1.906-.36-.875-.359-1.5-.984-.61-.64-.953-1.516-.344-.875-.344-1.906v-.39q0-1.188.375-2.126.39-.953 1.016-1.593.64-.657 1.437-1 .813-.344 1.657-.344 1.062 0 1.859.375.797.36 1.328 1.016.531.64.781 1.53.266.876.266 1.907v.75h-7.031q.015.688.25 1.281.234.578.64 1.032.407.437.969.703.563.25 1.25.25.906 0 1.594-.36.703-.375 1.172-.968l1.03.796q-.25.375-.624.72-.36.327-.844.593-.484.266-1.094.422-.609.172-1.328.172zm-.218-8.844q-.516 0-.97.187-.452.188-.812.547-.36.36-.625.891-.25.516-.343 1.203h5.296v-.125q-.015-.5-.187-.984-.156-.485-.469-.86-.297-.39-.765-.625-.47-.234-1.125-.234zm11.133 2.453l2.64-3.656h1.969l-3.672 4.875 3.766 4.984h-1.938l-2.734-3.75-2.719 3.75h-1.969l3.766-4.984-3.656-4.875h1.937l2.61 3.656zm11.117-6.047v2.39h3.75v1.313h-3.75v5.344q0 .578.14.953.141.375.391.594.266.219.594.312.344.094.719.094.265 0 .547-.031.297-.031.578-.078.281-.047.515-.094.25-.047.407-.094l.234 1.203q-.219.125-.516.22-.296.093-.656.155-.344.079-.75.11-.39.047-.781.047-.656 0-1.234-.188-.563-.187-.985-.594-.422-.406-.672-1.046-.234-.641-.234-1.563v-5.344h-2.578v-1.312h2.578v-2.39h1.703z"/><path fill="#cfe2f3" d="M16.161 204.194h96v80h-96z" fill-rule="evenodd"/><path stroke="#000" stroke-linejoin="round" stroke-linecap="butt" d="M16.161 204.194h96v80h-96z"/><path fill="#000" d="M55.509 248.505q0-.313-.125-.547-.125-.234-.407-.438-.28-.203-.75-.375-.453-.171-1.14-.296-.86-.188-1.563-.422-.687-.25-1.187-.594-.485-.344-.766-.797-.265-.469-.265-1.078 0-.594.28-1.11.282-.53.782-.921.516-.39 1.219-.61.703-.234 1.562-.234.907 0 1.625.234.735.235 1.25.657.516.406.782.968.28.563.28 1.22H55.4q0-.329-.172-.626-.156-.312-.453-.547-.28-.234-.703-.375-.406-.156-.922-.156-.547 0-.953.125-.406.11-.672.312-.265.204-.406.47-.14.265-.14.546t.109.516q.11.234.375.422.281.171.734.328.453.14 1.14.265.907.203 1.626.453.719.25 1.203.61.5.344.75.812.266.453.266 1.063 0 .656-.297 1.203-.282.531-.813.922-.531.375-1.265.594-.735.203-1.61.203-1.015 0-1.797-.266-.78-.281-1.328-.719-.531-.437-.828-1.015-.281-.594-.281-1.219h1.687q.032.516.266.875.25.36.61.578.359.219.796.313.438.078.875.078 1.063 0 1.672-.39.625-.392.64-1.032zm11.039 1.25q-.5.734-1.234 1.14-.735.407-1.703.407-.782 0-1.407-.235-.625-.25-1.078-.765-.437-.516-.687-1.297-.235-.781-.235-1.89v-5.86h1.688v5.875q0 .812.125 1.344.125.515.375.828.265.312.625.453.375.125.86.125 1.03 0 1.655-.422.641-.422.954-1.125v-7.078h1.687v9.86h-1.531l-.094-1.36zm5.57-8.5l.047.937q.297-.53.782-.812.5-.297 1.187-.297 1.36 0 1.813 1.047.297-.469.765-.75.485-.297 1.157-.297 1.093 0 1.671.672.579.656.579 2v7.36h-1.594v-7.376q0-1.25-1.14-1.234-.298 0-.516.094-.22.078-.375.218-.141.141-.22.328-.077.188-.109.375v7.594h-1.609v-7.39q0-.594-.266-.907-.265-.328-.828-.312-.53 0-.828.219-.281.203-.422.546v7.844h-1.609v-9.86h1.516z"/><path fill="#6fa8dc" d="M120.161 232.194h20v-12l20 24-20 24v-12h-20z" fill-rule="evenodd"/><path stroke="#073763" stroke-linejoin="round" stroke-linecap="butt" d="M120.161 232.194h20v-12l20 24-20 24v-12h-20z"/><path fill="#6fa8dc" d="M320.161 232.194h20v-12l20 24-20 24v-12h-20z" fill-rule="evenodd"/><path stroke="#073763" stroke-linejoin="round" stroke-linecap="butt" d="M320.161 232.194h20v-12l20 24-20 24v-12h-20z"/><path fill="#fce5cd" d="M560.161 204.194h136v80h-136z" fill-rule="evenodd"/><path stroke="#783f04" stroke-linejoin="round" stroke-linecap="butt" d="M560.161 204.194h136v80h-136z"/><path fill="#000" d="M582.355 247.13q-.109.922-.468 1.687-.36.766-.938 1.328-.562.547-1.344.86-.765.297-1.734.297-.812 0-1.484-.235-.672-.234-1.203-.64-.516-.422-.891-.969-.375-.563-.625-1.219-.25-.656-.375-1.375t-.14-1.453v-1.844q.015-.75.14-1.468.125-.72.375-1.375.25-.657.625-1.204.375-.562.89-.968.532-.422 1.188-.657.672-.234 1.5-.234 1 0 1.781.313.782.312 1.344.875.563.546.906 1.343.344.782.453 1.72h-1.687q-.078-.595-.281-1.11-.203-.532-.547-.922-.328-.39-.813-.61-.484-.218-1.156-.218-.594 0-1.062.203-.454.187-.797.531-.328.328-.547.781-.219.438-.36.938-.14.5-.203 1.031-.047.516-.047 1.016v1.86q0 .5.047 1.03.063.516.203 1.016.141.5.36.953.219.438.547.781.343.344.797.547.453.188 1.062.188.672 0 1.156-.203.485-.22.813-.594.344-.375.547-.89.203-.516.28-1.11h1.688zm9.9-2.14h-5.532v4.687h6.453v1.437h-8.14V237.85h8.062v1.437h-6.375v4.266h5.531v1.437zm5.413-3.735l.125 1.453q.532-.766 1.313-1.188.781-.437 1.75-.437.781 0 1.406.219.64.218 1.078.687.453.453.688 1.172.25.719.25 1.688v6.265h-1.688v-6.219q0-.656-.156-1.109-.14-.453-.422-.734-.281-.297-.703-.422-.406-.125-.953-.125-.844 0-1.484.422-.641.422-1.032 1.125v7.062h-1.687v-9.86h1.515zm13.68-2.39v2.39h3.75v1.312h-3.75v5.344q0 .578.141.953.14.375.39.594.266.219.594.312.344.094.72.094.265 0 .546-.031.297-.031.578-.078.281-.047.516-.094.25-.047.406-.094l.234 1.203q-.218.125-.515.22-.297.093-.656.155-.344.079-.75.11-.391.047-.782.047-.656 0-1.234-.188-.563-.187-.984-.594-.422-.406-.672-1.046-.235-.641-.235-1.563v-5.344h-2.578v-1.312h2.578v-2.39h1.703zm13.665 2.218q.234 0 .484.016.266 0 .484.03.235.032.422.079.203.047.344.11l-.234 1.64q-.485-.11-.938-.156-.437-.047-.922-.047-1.187 0-1.922.547-.734.531-1.078 1.484v6.328h-1.687v-9.86h1.594l.093 1.563q.594-.797 1.438-1.265.844-.469 1.922-.469zm8.352 6.531l.437 1.188 3.016-7.547h1.89l-5.015 11.375q-.172.39-.438.812-.265.438-.656.797-.375.36-.89.61-.5.25-1.173.25-.109 0-.265-.016-.14-.016-.297-.047-.14-.016-.266-.047-.125-.015-.203-.047l.266-1.375q.062 0 .172.016.11.016.218.016.125.015.235.015h.172q.36 0 .64-.187.282-.188.5-.453.235-.266.39-.547.157-.282.25-.469l.673-1.313-4.235-9.39h1.875l2.704 6.36zm14.523.14q0-.609-.281-1.015-.281-.422-.719-.703-.437-.297-.969-.484-.515-.188-1-.344-.703-.234-1.421-.547-.72-.328-1.329-.781-.593-.469-.968-1.094-.375-.64-.375-1.5t.375-1.531q.375-.672.984-1.14.61-.47 1.375-.704.781-.25 1.578-.25.86 0 1.656.297.813.281 1.422.812.625.516 1 1.25.375.735.391 1.641h-1.734q-.079-.562-.282-1.031-.203-.469-.562-.813-.344-.343-.828-.515-.469-.188-1.063-.188-.484 0-.953.14-.453.126-.812.407-.36.266-.579.672-.218.39-.218.922.015.578.297.984.28.39.718.672.438.266.938.453.5.172.953.313.484.156.984.36.5.187.97.437.468.25.858.578.407.312.704.718.312.407.468.891.172.484.172 1.078 0 .89-.406 1.563-.39.672-1.016 1.11-.625.437-1.422.671-.78.219-1.578.219-.89 0-1.734-.266-.844-.281-1.516-.797-.672-.515-1.093-1.25-.407-.75-.438-1.703h1.719q.078.625.328 1.11.266.468.656.812.406.328.922.5.531.156 1.156.156.485 0 .97-.125.483-.125.843-.375.375-.265.61-.656.25-.406.25-.953zm8.243-8.89v2.39h3.75v1.313h-3.75v5.344q0 .578.14.953t.39.594q.267.219.595.312.343.094.718.094.266 0 .547-.031.297-.031.578-.078.282-.047.516-.094.25-.047.406-.094l.235 1.203q-.22.125-.516.22-.297.093-.656.155-.344.079-.75.11-.39.047-.781.047-.657 0-1.235-.188-.562-.187-.984-.594-.422-.406-.672-1.046-.234-.641-.234-1.563v-5.344h-2.579v-1.312h2.579v-2.39h1.703zm13.601 10.89q-.5.735-1.234 1.141-.734.407-1.703.407-.781 0-1.406-.235-.625-.25-1.078-.765-.438-.516-.688-1.297-.234-.781-.234-1.89v-5.86h1.687v5.875q0 .812.125 1.344.125.515.375.828.266.312.625.453.375.125.86.125 1.03 0 1.656-.422.64-.422.953-1.125v-7.078h1.687v9.86h-1.53l-.095-1.36zm13.15-3.452q0 1.047-.266 1.968-.25.907-.75 1.594-.485.672-1.204 1.063-.718.375-1.656.375-.953 0-1.656-.328-.688-.344-1.188-.985l-.078 1.125h-1.547v-14h1.688v5.203q.484-.609 1.156-.922.688-.312 1.61-.312.937 0 1.656.375.734.36 1.219 1.031.5.656.75 1.594.265.922.265 2.016v.203zm-1.688-.203q0-.72-.14-1.36-.142-.656-.454-1.156-.313-.5-.813-.781-.5-.297-1.218-.297-.438 0-.813.125-.36.11-.656.312-.281.203-.5.485-.219.265-.375.593v4.313q.156.328.375.61.234.28.516.5.296.202.656.312.375.11.812.11.688 0 1.188-.282.5-.297.812-.781.313-.5.453-1.14.157-.642.157-1.36v-.203z"/><path fill="#cfe2f3" d="M952.161 204.194h96v80h-96z" fill-rule="evenodd"/><path stroke="#000" stroke-linejoin="round" stroke-linecap="butt" d="M952.161 204.194h96v80h-96z"/><path fill="#000" d="M991.509 248.505q0-.313-.125-.547-.125-.234-.407-.438-.28-.203-.75-.375-.453-.171-1.14-.296-.86-.188-1.563-.422-.687-.25-1.187-.594-.485-.344-.766-.797-.265-.469-.265-1.078 0-.594.28-1.11.282-.53.782-.921.516-.39 1.219-.61.703-.234 1.562-.234.907 0 1.625.234.735.235 1.25.657.516.406.782.968.28.563.28 1.22H991.4q0-.329-.172-.626-.156-.312-.453-.547-.281-.234-.703-.375-.406-.156-.922-.156-.547 0-.953.125-.406.11-.672.312-.265.204-.406.47-.14.265-.14.546t.109.516q.11.234.375.422.281.171.734.328.453.14 1.14.265.907.203 1.626.453.719.25 1.203.61.5.344.75.812.266.453.266 1.063 0 .656-.297 1.203-.282.531-.813.922-.531.375-1.265.594-.735.203-1.61.203-1.015 0-1.797-.266-.781-.281-1.328-.719-.531-.437-.828-1.015-.281-.594-.281-1.219h1.687q.032.516.266.875.25.36.61.578.359.219.796.313.438.078.875.078 1.063 0 1.672-.39.625-.392.64-1.032zm11.039 1.25q-.5.734-1.234 1.14-.735.407-1.703.407-.782 0-1.407-.235-.625-.25-1.078-.765-.437-.516-.687-1.297-.235-.781-.235-1.89v-5.86h1.688v5.875q0 .812.125 1.344.125.515.375.828.265.312.625.453.375.125.86.125 1.03 0 1.655-.422.641-.422.954-1.125v-7.078h1.687v9.86h-1.531l-.094-1.36zm5.57-8.5l.047.937q.297-.53.782-.812.5-.297 1.187-.297 1.36 0 1.813 1.047.297-.469.765-.75.485-.297 1.157-.297 1.093 0 1.671.672.579.656.579 2v7.36h-1.594v-7.376q0-1.25-1.14-1.234-.298 0-.516.094-.22.078-.375.218-.141.141-.22.328-.077.188-.109.375v7.594h-1.609v-7.39q0-.594-.266-.907-.265-.328-.828-.312-.53 0-.828.219-.281.203-.422.546v7.844h-1.609v-9.86h1.516z"/><path fill="#cfe2f3" d="M752.161 204.194h144v80h-144z" fill-rule="evenodd"/><path stroke="#000" stroke-linejoin="round" stroke-linecap="butt" d="M752.161 204.194h144v80h-144z"/><path fill="#000" d="M771.117 236.755q0-.61-.281-1.016-.282-.422-.719-.703-.438-.297-.969-.484-.515-.188-1-.344-.703-.234-1.422-.547-.718-.328-1.328-.781-.594-.469-.969-1.094-.375-.64-.375-1.5t.375-1.531q.375-.672.985-1.14.61-.47 1.375-.704.781-.25 1.578-.25.86 0 1.656.297.813.281 1.422.812.625.516 1 1.25.375.735.39 1.641h-1.734q-.078-.562-.28-1.031-.204-.469-.563-.813-.344-.343-.829-.515-.468-.188-1.062-.188-.484 0-.953.14-.453.126-.813.407-.359.266-.578.672-.219.39-.219.922.016.578.297.984.282.39.72.672.437.266.937.453.5.172.953.313.484.156.984.36.5.187.969.437t.86.578q.405.312.702.718.313.407.47.891.171.484.171 1.078 0 .89-.406 1.563-.39.672-1.016 1.11-.625.437-1.422.671-.781.219-1.578.219-.89 0-1.734-.266-.844-.281-1.516-.797-.672-.515-1.094-1.25-.406-.75-.437-1.703h1.719q.078.625.328 1.11.265.468.656.812.406.328.922.5.531.156 1.156.156.484 0 .969-.125.484-.125.844-.375.375-.265.609-.656.25-.406.25-.953zm8.602 3.547q-1.031 0-1.906-.36-.875-.359-1.5-.984-.61-.64-.954-1.516-.343-.875-.343-1.906v-.39q0-1.188.375-2.126.39-.953 1.015-1.593.641-.657 1.438-1 .812-.344 1.656-.344 1.063 0 1.86.375.796.36 1.328 1.016.53.64.78 1.53.266.876.266 1.907v.75h-7.03q.015.688.25 1.281.234.578.64 1.032.406.437.969.703.562.25 1.25.25.906 0 1.593-.36.703-.375 1.172-.968l1.031.796q-.25.375-.625.72-.359.327-.843.593-.485.266-1.094.422-.61.172-1.328.172zm-.219-8.844q-.516 0-.969.187-.453.188-.812.547-.36.36-.625.891-.25.516-.344 1.203h5.297v-.125q-.016-.5-.188-.984-.156-.485-.468-.86-.297-.39-.766-.625-.469-.234-1.125-.234zm11.055-3.594v2.39h3.75v1.313h-3.75v5.344q0 .578.14.953.141.375.391.594.266.219.594.312.344.094.719.094.265 0 .547-.031.297-.031.578-.078.281-.047.515-.094.25-.047.407-.094l.234 1.203q-.219.125-.516.22-.296.093-.656.155-.344.079-.75.11-.39.047-.781.047-.656 0-1.234-.188-.563-.187-.985-.594-.422-.406-.672-1.046-.234-.641-.234-1.563v-5.344h-2.578v-1.312h2.578v-2.39h1.703zm7.196-1.015h8.015v1.468h-3.172v10.344h3.172v1.453h-8.015v-1.453h3.109v-10.344h-3.11v-1.468zm15.195 1.015v2.39h3.75v1.313h-3.75v5.344q0 .578.14.953.141.375.391.594.266.219.594.312.344.094.719.094.266 0 .547-.031.297-.031.578-.078.281-.047.516-.094.25-.047.406-.094l.234 1.203q-.219.125-.515.22-.297.093-.657.155-.343.079-.75.11-.39.047-.781.047-.656 0-1.234-.188-.563-.187-.985-.594-.422-.406-.672-1.046-.234-.641-.234-1.563v-5.344h-2.578v-1.312h2.578v-2.39h1.703zm11.555 12.438q-1.031 0-1.906-.36-.875-.359-1.5-.984-.61-.64-.953-1.516-.344-.875-.344-1.906v-.39q0-1.188.375-2.126.39-.953 1.016-1.593.64-.657 1.437-1 .813-.344 1.656-.344 1.063 0 1.86.375.797.36 1.328 1.016.531.64.781 1.53.266.876.266 1.907v.75h-7.031q.015.688.25 1.281.234.578.64 1.032.406.437.969.703.562.25 1.25.25.906 0 1.594-.36.703-.375 1.172-.968l1.03.796q-.25.375-.624.72-.36.327-.844.593-.484.266-1.094.422-.61.172-1.328.172zm-.219-8.844q-.515 0-.968.187-.453.188-.813.547-.36.36-.625.891-.25.516-.344 1.203h5.297v-.125q-.015-.5-.187-.984-.156-.485-.469-.86-.297-.39-.766-.625-.468-.234-1.125-.234zm13.524-1.375q.234 0 .484.016.266 0 .485.03.234.032.422.079.203.047.343.11l-.234 1.64q-.484-.11-.937-.156-.438-.047-.922-.047-1.188 0-1.922.547-.735.531-1.078 1.484v6.328h-1.688v-9.86h1.594l.094 1.563q.593-.797 1.437-1.265.844-.469 1.922-.469zm11.211 10.031q-.093-.187-.156-.469-.062-.296-.094-.609-.25.266-.562.5-.313.219-.703.39-.375.173-.813.266-.422.11-.89.11-.797 0-1.438-.219-.625-.234-1.062-.625-.438-.39-.688-.922-.234-.531-.234-1.156 0-.813.312-1.422.328-.61.922-1.016.594-.406 1.422-.593.844-.204 1.875-.204h1.828v-.78q0-.454-.172-.798-.156-.359-.453-.609-.297-.25-.734-.39-.422-.141-.97-.141-.5 0-.905.14-.391.125-.672.344-.266.203-.422.484-.14.282-.14.594h-1.688q0-.531.265-1.047.282-.53.782-.937.5-.422 1.218-.672.735-.25 1.657-.25.843 0 1.562.203.719.203 1.235.625.53.406.828 1.031.297.61.297 1.438v4.578q0 .5.093 1.047.094.547.25.969v.14h-1.75zm-2.984-1.281q.5 0 .922-.125.437-.14.781-.344.344-.203.594-.469.265-.28.406-.562v-2h-1.562q-1.47 0-2.297.437-.813.438-.813 1.375 0 .36.125.672.125.313.36.532.25.218.625.359.375.125.859.125zm11.695-10.969v2.39h3.75v1.313h-3.75v5.344q0 .578.141.953.14.375.39.594.266.219.594.312.344.094.72.094.265 0 .546-.031.297-.031.578-.078.281-.047.516-.094.25-.047.406-.094l.234 1.203q-.218.125-.515.22-.297.093-.656.155-.344.079-.75.11-.391.047-.782.047-.656 0-1.234-.188-.563-.187-.984-.594-.422-.406-.672-1.046-.235-.641-.235-1.563v-5.344h-2.578v-1.312h2.578v-2.39h1.703zm6.727 7.235q0-1.063.313-1.985.312-.922.89-1.594.579-.671 1.407-1.046.828-.391 1.86-.391 1.046 0 1.874.39.844.376 1.422 1.047.578.672.89 1.594.313.922.313 1.985v.203q0 1.062-.312 1.968-.313.907-.891 1.594-.578.672-1.406 1.063-.828.375-1.86.375-1.047 0-1.89-.375-.828-.39-1.407-1.063-.578-.687-.89-1.594-.313-.906-.313-1.968v-.203zm1.688.203q0 .718.172 1.39.172.657.515 1.157.36.5.89.796.532.282 1.235.282.688 0 1.203-.282.532-.296.875-.796.36-.5.532-1.157.172-.672.172-1.39v-.203q0-.72-.188-1.375-.172-.672-.531-1.172-.344-.5-.875-.797-.516-.297-1.219-.297-.703 0-1.219.297-.515.297-.875.797-.343.5-.515 1.172-.172.656-.172 1.375v.203zm16.445-5.219q.235 0 .485.016.265 0 .484.03.235.032.422.079.203.047.344.11l-.235 1.64q-.484-.11-.937-.156-.438-.047-.922-.047-1.187 0-1.922.547-.734.531-1.078 1.484v6.328h-1.687v-9.86h1.593l.094 1.563q.594-.797 1.438-1.265.843-.469 1.921-.469zm-82.123 32.031h-1.703l-5.156-9.906-.031 9.906h-1.703V248.85h1.718l5.141 9.89.031-9.89h1.703v13.265zm7.243.188q-1.031 0-1.906-.36-.875-.359-1.5-.984-.61-.64-.954-1.516-.343-.875-.343-1.906v-.39q0-1.188.375-2.126.39-.953 1.015-1.593.64-.657 1.438-1 .812-.344 1.656-.344 1.063 0 1.86.375.796.36 1.328 1.016.53.64.78 1.53.266.876.266 1.907v.75h-7.03q.015.688.25 1.281.234.578.64 1.032.406.437.969.703.562.25 1.25.25.906 0 1.593-.36.703-.375 1.172-.968l1.031.796q-.25.375-.625.72-.359.327-.843.593-.485.266-1.094.422-.61.172-1.328.172zm-.219-8.844q-.516 0-.969.187-.453.188-.812.547-.36.36-.625.891-.25.516-.344 1.203h5.297v-.125q-.016-.5-.188-.984-.156-.485-.468-.86-.297-.39-.766-.625-.469-.234-1.125-.234zm11.133 2.453l2.64-3.656h1.97l-3.672 4.875 3.765 4.984h-1.937l-2.735-3.75-2.718 3.75h-1.97l3.766-4.984-3.656-4.875h1.938l2.61 3.656zm11.118-6.047v2.39h3.75v1.313h-3.75v5.344q0 .578.14.953t.39.594q.266.219.595.312.343.094.718.094.266 0 .547-.031.297-.031.578-.078.282-.047.516-.094.25-.047.406-.094l.235 1.203q-.22.125-.516.22-.297.093-.656.155-.344.079-.75.11-.39.047-.782.047-.656 0-1.234-.188-.562-.187-.984-.594-.422-.406-.672-1.046-.235-.641-.235-1.563v-5.344h-2.578v-1.312h2.578v-2.39h1.704zm13.43-1.015h1.718v9.234q-.015.922-.36 1.703-.327.766-.905 1.328-.563.547-1.344.875-.781.313-1.703.313t-1.688-.282q-.765-.28-1.328-.812-.547-.531-.89-1.266-.344-.75-.422-1.656h1.718q.016.547.22 1.031.202.47.53.828.344.344.813.532.469.187 1.047.187.61 0 1.078-.219.469-.218.797-.593.343-.39.515-.89.172-.517.203-1.079v-9.234zm11.914 9.906q0-.61-.281-1.016-.282-.422-.72-.703-.437-.297-.968-.484-.516-.188-1-.344-.703-.234-1.422-.547-.719-.328-1.328-.781-.594-.469-.969-1.094-.375-.64-.375-1.5t.375-1.531q.375-.672.985-1.14.61-.47 1.375-.704.78-.25 1.578-.25.86 0 1.656.297.813.281 1.422.812.625.516 1 1.25.375.735.39 1.641h-1.734q-.078-.562-.281-1.031-.203-.469-.563-.813-.343-.343-.828-.515-.468-.188-1.062-.188-.485 0-.953.14-.453.126-.813.407-.36.266-.578.672-.219.39-.219.922.016.578.297.984.281.39.719.672.437.266.937.453.5.172.954.313.484.156.984.36.5.187.969.437.468.25.86.578.405.312.702.718.313.407.469.891.172.484.172 1.078 0 .89-.406 1.563-.391.672-1.016 1.11-.625.437-1.422.671-.781.219-1.578.219-.89 0-1.734-.266-.844-.281-1.516-.797-.672-.515-1.094-1.25-.406-.75-.437-1.703h1.718q.079.625.329 1.11.265.468.656.812.406.328.922.5.53.156 1.156.156.484 0 .969-.125.484-.125.843-.375.375-.265.61-.656.25-.406.25-.953z"/><path fill="#6fa8dc" d="M704.161 232.194h20v-12l20 24-20 24v-12h-20z" fill-rule="evenodd"/><path stroke="#073763" stroke-linejoin="round" stroke-linecap="butt" d="M704.161 232.194h20v-12l20 24-20 24v-12h-20z"/><path fill="#6fa8dc" d="M904.161 232.194h20v-12l20 24-20 24v-12h-20z" fill-rule="evenodd"/><path stroke="#073763" stroke-linejoin="round" stroke-linecap="butt" d="M904.161 232.194h20v-12l20 24-20 24v-12h-20z"/><path fill="#a64d79" d="M420.161 188.194v-1.5h24v1.5zm0-3v-3h24v3zm0-4.5v-32.5h-12l24-24 24 24h-12v32.5z" fill-rule="evenodd"/><path stroke="#4c1130" stroke-linejoin="round" stroke-linecap="butt" d="M420.161 188.194v-1.5h24v1.5zm0-3v-3h24v3zm0-4.5v-32.5h-12l24-24 24 24h-12v32.5z"/><path fill="#a64d79" d="M636.161 124.194v1.5h-24v-1.5zm0 3v3h-24v-3zm0 4.5v32.5h12l-24 24-24-24h12v-32.5z" fill-rule="evenodd"/><path stroke="#4c1130" stroke-linejoin="round" stroke-linecap="butt" d="M636.161 124.194v1.5h-24v-1.5zm0 3v3h-24v-3zm0 4.5v32.5h12l-24 24-24-24h12v-32.5z"/><path d="M8.161 156.194h184v40h-184z"/><path fill="#274e13" d="M23.693 169.849h2.734v9.187q0 1.266-.562 2.234-.563.97-1.579 1.5-1.015.532-2.312.532-2.094 0-3.281-1.063-1.172-1.078-1.172-3.047h2.75q0 .985.406 1.453.422.454 1.297.454.797 0 1.25-.532.469-.547.469-1.53v-9.188zM34.3 183.114q-.171-.36-.265-.89-.953 1.078-2.485 1.078-1.453 0-2.406-.844-.937-.844-.937-2.11 0-1.578 1.156-2.406 1.156-.843 3.36-.843h1.202v-.579q0-.671-.359-1.078-.344-.422-1.094-.422-.656 0-1.047.329-.375.312-.375.875h-2.625q0-.86.516-1.579.531-.734 1.5-1.14.969-.422 2.172-.422 1.812 0 2.875.922 1.078.906 1.078 2.562v4.266q.016 1.406.39 2.125v.156H34.3zm-2.171-1.828q.578 0 1.062-.25.5-.266.734-.703v-1.703h-.984q-1.969 0-2.094 1.375l-.015.156q0 .484.343.813.344.312.954.312zm10.158-1.39l1.828-6.641h2.75l-3.328 9.86h-2.516l-3.312-9.86h2.75l1.828 6.64zm11.444 3.218q-.172-.36-.266-.89-.953 1.078-2.484 1.078-1.453 0-2.406-.844-.938-.844-.938-2.11 0-1.578 1.156-2.406 1.157-.843 3.36-.843h1.203v-.579q0-.671-.36-1.078-.343-.422-1.093-.422-.656 0-1.047.329-.375.312-.375.875h-2.625q0-.86.516-1.579.53-.734 1.5-1.14.968-.422 2.171-.422 1.813 0 2.875.922 1.079.906 1.079 2.562v4.266q.015 1.406.39 2.125v.156h-2.656zm-2.172-1.828q.578 0 1.063-.25.5-.266.734-.703v-1.703h-.984q-1.97 0-2.094 1.375l-.016.156q0 .484.344.813.344.312.953.312zm13.518-1.656q0-.766-.547-1.172-.547-.422-1.969-.875-1.422-.469-2.25-.922-2.265-1.219-2.265-3.281 0-1.078.61-1.922.608-.844 1.733-1.313 1.141-.484 2.563-.484 1.406 0 2.516.516 1.125.515 1.734 1.453.61.937.61 2.14h-2.72q0-.906-.578-1.406-.578-.515-1.609-.515-1.016 0-1.578.421-.547.422-.547 1.11 0 .656.656 1.094.657.437 1.922.812 2.328.703 3.39 1.75 1.063 1.031 1.063 2.578 0 1.719-1.297 2.703-1.296.985-3.5.985-1.53 0-2.796-.563-1.25-.562-1.922-1.531-.657-.984-.657-2.266h2.75q0 2.188 2.625 2.188.97 0 1.516-.39.547-.391.547-1.11zm8.516 1.547q.734 0 1.187-.39.453-.407.469-1.079h2.469q0 1-.547 1.844-.531.828-1.469 1.297-.937.453-2.062.453-2.11 0-3.344-1.344-1.219-1.344-1.219-3.719v-.172q0-2.28 1.219-3.625 1.219-1.359 3.328-1.359 1.844 0 2.953 1.047 1.125 1.047 1.14 2.797H75.25q-.016-.766-.469-1.235-.453-.484-1.203-.484-.922 0-1.39.672-.47.672-.47 2.172v.265q0 1.532.454 2.203.469.657 1.422.657zm11.166-5.453q-.531-.063-.937-.063-1.5 0-1.97 1v6.453H79.23v-9.86h2.484l.078 1.173q.782-1.344 2.188-1.344.437 0 .828.11l-.047 2.53zm4.055 7.39h-2.656v-9.86h2.656v9.86zm-2.797-12.406q0-.594.39-.969.391-.39 1.079-.39.672 0 1.062.39.407.375.407.969t-.407.984q-.39.375-1.062.375t-1.078-.375q-.39-.39-.39-.984zm13.837 7.562q0 2.282-1.047 3.657-1.031 1.375-2.781 1.375-1.5 0-2.422-1.047v4.656H90.98v-13.656h2.438l.093.969q.954-1.141 2.5-1.141 1.813 0 2.829 1.344 1.015 1.343 1.015 3.718v.125zm-2.64-.187q0-1.375-.485-2.11-.484-.75-1.422-.75-1.234 0-1.703.938v4.031q.485.985 1.719.985 1.89 0 1.89-3.094zm7.409-7.25v2.422h1.688v1.937h-1.688v4.922q0 .547.203.781.219.235.813.235.437 0 .78-.063v2q-.78.235-1.593.235-2.781 0-2.828-2.797v-5.313h-1.437v-1.937h1.437v-2.422h2.625z"/><path d="M8.161 116.194h184v40h-184z"/><path fill="#4c1130" d="M28.755 138.692q-.156 2.141-1.578 3.375-1.422 1.235-3.75 1.235-2.562 0-4.031-1.719-1.453-1.719-1.453-4.719v-.812q0-1.907.672-3.36.671-1.468 1.921-2.25 1.266-.78 2.922-.78 2.297 0 3.688 1.233 1.406 1.235 1.625 3.454h-2.735q-.093-1.282-.718-1.86-.61-.578-1.86-.578-1.375 0-2.047.984-.671.97-.703 3.032v1q0 2.156.657 3.156.656.984 2.062.984 1.266 0 1.875-.578.625-.578.719-1.797h2.734zm6.941-3h3.282v2.375h-3.282v3.72h-2.515v-3.72h-3.297v-2.375h3.297v-3.562h2.515v3.562zm10.185 0h3.28v2.375h-3.28v3.72h-2.516v-3.72h-3.297v-2.375h3.297v-3.562h2.516v3.562z"/></g></svg>