<svg version="1.1" viewBox="0.0 0.0 745.2047244094488 166.43832020997377" fill="none" stroke="none" stroke-linecap="square" stroke-miterlimit="10" xmlns:xlink="http://www.w3.org/1999/xlink" xmlns="http://www.w3.org/2000/svg"><clipPath id="p.0"><path d="m0 0l745.2047 0l0 166.43832l-745.2047 0l0 -166.43832z" clip-rule="nonzero"/></clipPath><g clip-path="url(#p.0)"><path fill="#000000" fill-opacity="0.0" d="m0 0l745.2047 0l0 166.43832l-745.2047 0z" fill-rule="evenodd"/><path fill="#cfe2f3" d="m151.60236 15.217848l560.0 0l0 31.999998l-560.0 0z" fill-rule="evenodd"/><path stroke="#000000" stroke-width="1.0" stroke-linejoin="round" stroke-linecap="butt" d="m151.60236 15.217848l560.0 0l0 31.999998l-560.0 0z" fill-rule="evenodd"/><path fill="#cfe2f3" d="m151.60236 79.21785l560.0 0l0 32.0l-560.0 0z" fill-rule="evenodd"/><path stroke="#000000" stroke-width="1.0" stroke-linejoin="round" stroke-linecap="butt" d="m151.60236 79.21785l560.0 0l0 32.0l-560.0 0z" fill-rule="evenodd"/><path fill="#cfe2f3" d="m679.60236 79.21785l32.0 0l0 32.0l-32.0 0z" fill-rule="evenodd"/><path stroke="#000000" stroke-width="1.0" stroke-linejoin="round" stroke-linecap="butt" d="m679.60236 79.21785l32.0 0l0 32.0l-32.0 0z" fill-rule="evenodd"/><path fill="#000000" d="m697.05145 102.13785l-1.6875 0l0 -11.109375l-3.46875 1.3125l0 -1.53125l5.03125 -1.9375l0.125 0l0 13.265625z" fill-rule="nonzero"/><path fill="#fce5cd" d="m151.60236 79.21785l528.0 0l0 32.0l-528.0 0z" fill-rule="evenodd"/><path stroke="#000000" stroke-width="1.0" stroke-linejoin="round" stroke-linecap="butt" d="m151.60236 79.21785l528.0 0l0 32.0l-528.0 0z" fill-rule="evenodd"/><path fill="#000000" d="m384.33972 98.70035l-4.4375 0l-1.0625 3.4375l-1.6875 0l4.28125 -13.265625l1.421875 0l4.203125 13.265625l-1.671875 0l-1.046875 -3.4375zm-3.984375 -1.46875l3.53125 0l-1.75 -5.75l-1.78125 5.75zm8.523712 -0.109375q0 -1.09375 0.28125 -2.015625q0.28125 -0.9375 0.78125 -1.59375q0.515625 -0.671875 1.25 -1.03125q0.734375 -0.375 1.625 -0.375q0.890625 0 1.546875 0.296875q0.671875 0.28125 1.140625 0.859375l0 -5.125l1.6875 0l0 14.0l-1.546875 0l-0.0625 -1.03125q-0.5 0.59375 -1.1875 0.90625q-0.671875 0.3125 -1.59375 0.3125q-0.890625 0 -1.625 -0.375q-0.71875 -0.390625 -1.234375 -1.0625q-0.5 -0.6875 -0.78125 -1.59375q-0.28125 -0.921875 -0.28125 -1.96875l0 -0.203125zm1.6875 0.203125q0 0.71875 0.15625 1.359375q0.15625 0.640625 0.46875 1.140625q0.328125 0.484375 0.828125 0.78125q0.5 0.28125 1.203125 0.28125q0.4375 0 0.78125 -0.09375q0.34375 -0.109375 0.625 -0.296875q0.28125 -0.1875 0.5 -0.4375q0.21875 -0.265625 0.375 -0.578125l0 -4.578125q-0.328125 -0.59375 -0.890625 -0.984375q-0.546875 -0.390625 -1.375 -0.390625q-0.703125 0 -1.21875 0.296875q-0.5 0.28125 -0.828125 0.78125q-0.3125 0.5 -0.46875 1.15625q-0.15625 0.640625 -0.15625 1.359375l0 0.203125zm9.508057 -0.203125q0 -1.09375 0.28125 -2.015625q0.28125 -0.9375 0.78125 -1.59375q0.515625 -0.671875 1.25 -1.03125q0.734375 -0.375 1.625 -0.375q0.890625 0 1.546875 0.296875q0.671875 0.28125 1.140625 0.859375l0 -5.125l1.6875 0l0 14.0l-1.546875 0l-0.0625 -1.03125q-0.5 0.59375 -1.1875 0.90625q-0.671875 0.3125 -1.59375 0.3125q-0.890625 0 -1.625 -0.375q-0.71875 -0.390625 -1.234375 -1.0625q-0.5 -0.6875 -0.78125 -1.59375q-0.28125 -0.921875 -0.28125 -1.96875l0 -0.203125zm1.6875 0.203125q0 0.71875 0.15625 1.359375q0.15625 0.640625 0.46875 1.140625q0.328125 0.484375 0.828125 0.78125q0.5 0.28125 1.203125 0.28125q0.4375 0 0.78125 -0.09375q0.34375 -0.109375 0.625 -0.296875q0.28125 -0.1875 0.5 -0.4375q0.21875 -0.265625 0.375 -0.578125l0 -4.578125q-0.328125 -0.59375 -0.890625 -0.984375q-0.546875 -0.390625 -1.375 -0.390625q-0.703125 0 -1.21875 0.296875q-0.5 0.28125 -0.828125 0.78125q-0.3125 0.5 -0.46875 1.15625q-0.15625 0.640625 -0.15625 1.359375l0 0.203125zm16.289337 -5.21875q0.234375 0 0.484375 0.015625q0.265625 0 0.484375 0.03125q0.234375 0.03125 0.421875 0.078125q0.203125 0.046875 0.34375 0.109375l-0.234375 1.640625q-0.484375 -0.109375 -0.9375 -0.15625q-0.4375 -0.046875 -0.921875 -0.046875q-1.1875 0 -1.921875 0.546875q-0.734375 0.53125 -1.078125 1.484375l0 6.328125l-1.6875 0l0 -9.859375l1.59375 0l0.09375 1.5625q0.59375 -0.796875 1.4375 -1.265625q0.84375 -0.46875 1.921875 -0.46875zm9.086182 10.21875q-1.03125 0 -1.90625 -0.359375q-0.875 -0.359375 -1.5 -0.984375q-0.609375 -0.640625 -0.953125 -1.515625q-0.34375 -0.875 -0.34375 -1.90625l0 -0.390625q0 -1.1875 0.375 -2.125q0.390625 -0.953125 1.015625 -1.59375q0.640625 -0.65625 1.4375 -1.0q0.8125 -0.34375 1.65625 -0.34375q1.0625 0 1.859375 0.375q0.796875 0.359375 1.328125 1.015625q0.53125 0.640625 0.78125 1.53125q0.265625 0.875 0.265625 1.90625l0 0.75l-7.03125 0q0.015625 0.6875 0.25 1.28125q0.234375 0.578125 0.640625 1.03125q0.40625 0.4375 0.96875 0.703125q0.5625 0.25 1.25 0.25q0.90625 0 1.59375 -0.359375q0.703125 -0.375 1.171875 -0.96875l1.03125 0.796875q-0.25 0.375 -0.625 0.71875q-0.359375 0.328125 -0.84375 0.59375q-0.484375 0.265625 -1.09375 0.421875q-0.609375 0.171875 -1.328125 0.171875zm-0.21875 -8.84375q-0.515625 0 -0.96875 0.1875q-0.453125 0.1875 -0.8125 0.546875q-0.359375 0.359375 -0.625 0.890625q-0.25 0.515625 -0.34375 1.203125l5.296875 0l0 -0.125q-0.015625 -0.5 -0.1875 -0.984375q-0.15625 -0.484375 -0.46875 -0.859375q-0.296875 -0.390625 -0.765625 -0.625q-0.46875 -0.234375 -1.125 -0.234375zm13.617432 6.046875q0 -0.3125 -0.125 -0.546875q-0.125 -0.234375 -0.40625 -0.4375q-0.28125 -0.203125 -0.75 -0.375q-0.453125 -0.171875 -1.140625 -0.296875q-0.859375 -0.1875 -1.5625 -0.421875q-0.6875 -0.25 -1.1875 -0.59375q-0.484375 -0.34375 -0.765625 -0.796875q-0.265625 -0.46875 -0.265625 -1.078125q0 -0.59375 0.28125 -1.109375q0.28125 -0.53125 0.78125 -0.921875q0.515625 -0.390625 1.21875 -0.609375q0.703125 -0.234375 1.5625 -0.234375q0.90625 0 1.625 0.234375q0.734375 0.234375 1.25 0.65625q0.515625 0.40625 0.78125 0.96875q0.28125 0.5625 0.28125 1.21875l-1.6875 0q0 -0.328125 -0.171875 -0.625q-0.15625 -0.3125 -0.453125 -0.546875q-0.28125 -0.234375 -0.703125 -0.375q-0.40625 -0.15625 -0.921875 -0.15625q-0.546875 0 -0.953125 0.125q-0.40625 0.109375 -0.671875 0.3125q-0.265625 0.203125 -0.40625 0.46875q-0.140625 0.265625 -0.140625 0.546875q0 0.28125 0.109375 0.515625q0.109375 0.234375 0.375 0.421875q0.28125 0.171875 0.734375 0.328125q0.453125 0.140625 1.140625 0.265625q0.90625 0.203125 1.625 0.453125q0.71875 0.25 1.203125 0.609375q0.5 0.34375 0.75 0.8125q0.265625 0.453125 0.265625 1.0625q0 0.65625 -0.296875 1.203125q-0.28125 0.53125 -0.8125 0.921875q-0.53125 0.375 -1.265625 0.59375q-0.734375 0.203125 -1.609375 0.203125q-1.015625 0 -1.796875 -0.265625q-0.78125 -0.28125 -1.328125 -0.71875q-0.53125 -0.4375 -0.828125 -1.015625q-0.28125 -0.59375 -0.28125 -1.21875l1.6875 0q0.03125 0.515625 0.265625 0.875q0.25 0.359375 0.609375 0.578125q0.359375 0.21875 0.796875 0.3125q0.4375 0.078125 0.875 0.078125q1.0625 0 1.671875 -0.390625q0.625 -0.390625 0.640625 -1.03125zm11.195587 0q0 -0.3125 -0.125 -0.546875q-0.125 -0.234375 -0.40625 -0.4375q-0.28125 -0.203125 -0.75 -0.375q-0.453125 -0.171875 -1.140625 -0.296875q-0.859375 -0.1875 -1.5625 -0.421875q-0.6875 -0.25 -1.1875 -0.59375q-0.484375 -0.34375 -0.765625 -0.796875q-0.265625 -0.46875 -0.265625 -1.078125q0 -0.59375 0.28125 -1.109375q0.28125 -0.53125 0.78125 -0.921875q0.515625 -0.390625 1.21875 -0.609375q0.703125 -0.234375 1.5625 -0.234375q0.90625 0 1.625 0.234375q0.734375 0.234375 1.25 0.65625q0.515625 0.40625 0.78125 0.96875q0.28125 0.5625 0.28125 1.21875l-1.6875 0q0 -0.328125 -0.171875 -0.625q-0.15625 -0.3125 -0.453125 -0.546875q-0.28125 -0.234375 -0.703125 -0.375q-0.40625 -0.15625 -0.921875 -0.15625q-0.546875 0 -0.953125 0.125q-0.40625 0.109375 -0.671875 0.3125q-0.265625 0.203125 -0.40625 0.46875q-0.140625 0.265625 -0.140625 0.546875q0 0.28125 0.109375 0.515625q0.109375 0.234375 0.375 0.421875q0.28125 0.171875 0.734375 0.328125q0.453125 0.140625 1.140625 0.265625q0.90625 0.203125 1.625 0.453125q0.71875 0.25 1.203125 0.609375q0.5 0.34375 0.75 0.8125q0.265625 0.453125 0.265625 1.0625q0 0.65625 -0.296875 1.203125q-0.28125 0.53125 -0.8125 0.921875q-0.53125 0.375 -1.265625 0.59375q-0.734375 0.203125 -1.609375 0.203125q-1.015625 0 -1.796875 -0.265625q-0.78125 -0.28125 -1.328125 -0.71875q-0.53125 -0.4375 -0.828125 -1.015625q-0.28125 -0.59375 -0.28125 -1.21875l1.6875 0q0.03125 0.515625 0.265625 0.875q0.25 0.359375 0.609375 0.578125q0.359375 0.21875 0.796875 0.3125q0.4375 0.078125 0.875 0.078125q1.0625 0 1.671875 -0.390625q0.625 -0.390625 0.640625 -1.03125z" fill-rule="nonzero"/><path fill="#cfe2f3" d="m431.60236 15.217848l280.0 0l0 31.999998l-280.0 0z" fill-rule="evenodd"/><path stroke="#000000" stroke-width="1.0" stroke-linejoin="round" stroke-linecap="butt" d="m431.60236 15.217848l280.0 0l0 31.999998l-280.0 0z" fill-rule="evenodd"/><path fill="#000000" d="m475.15067 33.05972q0 1.265625 -0.296875 2.25q-0.28125 0.984375 -0.828125 1.65625q-0.546875 0.65625 -1.34375 1.015625q-0.78125 0.34375 -1.8125 0.34375q-1.0 0 -1.796875 -0.34375q-0.796875 -0.359375 -1.359375 -1.015625q-0.5625 -0.671875 -0.859375 -1.65625q-0.28125 -0.984375 -0.28125 -2.25l0 -3.109373q0 -1.265625 0.28125 -2.234375q0.296875 -0.984375 0.84375 -1.65625q0.546875 -0.671875 1.34375 -1.015625q0.796875 -0.359375 1.8125 -0.359375q1.015625 0 1.8125 0.359375q0.796875 0.34375 1.34375 1.015625q0.5625 0.671875 0.84375 1.65625q0.296875 0.96875 0.296875 2.234375l0 3.109373zm-6.890625 -0.328125l5.171875 -3.968748q-0.15625 -1.3125 -0.78125 -2.0q-0.625 -0.6875 -1.796875 -0.6875q-1.328125 0 -1.96875 0.890625q-0.625 0.890625 -0.625 2.625l0 3.140623zm5.203125 -2.359373l-5.15625 3.953123q0.15625 1.28125 0.78125 1.953125q0.640625 0.671875 1.78125 0.671875q1.34375 0 1.96875 -0.90625q0.625 -0.90625 0.625 -2.625l0 -3.046873zm12.883087 2.687498q0 1.265625 -0.296875 2.25q-0.28125 0.984375 -0.828125 1.65625q-0.546875 0.65625 -1.34375 1.015625q-0.78125 0.34375 -1.8125 0.34375q-1.0 0 -1.796875 -0.34375q-0.796875 -0.359375 -1.359375 -1.015625q-0.5625 -0.671875 -0.859375 -1.65625q-0.28125 -0.984375 -0.28125 -2.25l0 -3.109373q0 -1.265625 0.28125 -2.234375q0.296875 -0.984375 0.84375 -1.65625q0.546875 -0.671875 1.34375 -1.015625q0.796875 -0.359375 1.8125 -0.359375q1.015625 0 1.8125 0.359375q0.796875 0.34375 1.34375 1.015625q0.5625 0.671875 0.84375 1.65625q0.296875 0.96875 0.296875 2.234375l0 3.109373zm-6.890625 -0.328125l5.171875 -3.968748q-0.15625 -1.3125 -0.78125 -2.0q-0.625 -0.6875 -1.796875 -0.6875q-1.328125 0 -1.96875 0.890625q-0.625 0.890625 -0.625 2.625l0 3.140623zm5.203125 -2.359373l-5.15625 3.953123q0.15625 1.28125 0.78125 1.953125q0.640625 0.671875 1.78125 0.671875q1.34375 0 1.96875 -0.90625q0.625 -0.90625 0.625 -2.625l0 -3.046873zm12.883057 2.687498q0 1.265625 -0.296875 2.25q-0.28125 0.984375 -0.828125 1.65625q-0.546875 0.65625 -1.34375 1.015625q-0.78125 0.34375 -1.8125 0.34375q-1.0 0 -1.796875 -0.34375q-0.796875 -0.359375 -1.359375 -1.015625q-0.5625 -0.671875 -0.859375 -1.65625q-0.28125 -0.984375 -0.28125 -2.25l0 -3.109373q0 -1.265625 0.28125 -2.234375q0.296875 -0.984375 0.84375 -1.65625q0.546875 -0.671875 1.34375 -1.015625q0.796875 -0.359375 1.8125 -0.359375q1.015625 0 1.8125 0.359375q0.796875 0.34375 1.34375 1.015625q0.5625 0.671875 0.84375 1.65625q0.296875 0.96875 0.296875 2.234375l0 3.109373zm-6.890625 -0.328125l5.171875 -3.968748q-0.15625 -1.3125 -0.78125 -2.0q-0.625 -0.6875 -1.796875 -0.6875q-1.328125 0 -1.96875 0.890625q-0.625 0.890625 -0.625 2.625l0 3.140623zm5.203125 -2.359373l-5.15625 3.953123q0.15625 1.28125 0.78125 1.953125q0.640625 0.671875 1.78125 0.671875q1.34375 0 1.96875 -0.90625q0.625 -0.90625 0.625 -2.625l0 -3.046873zm12.883087 2.687498q0 1.265625 -0.296875 2.25q-0.28125 0.984375 -0.828125 1.65625q-0.546875 0.65625 -1.34375 1.015625q-0.78125 0.34375 -1.8125 0.34375q-1.0 0 -1.796875 -0.34375q-0.796875 -0.359375 -1.359375 -1.015625q-0.5625 -0.671875 -0.859375 -1.65625q-0.28125 -0.984375 -0.28125 -2.25l0 -3.109373q0 -1.265625 0.28125 -2.234375q0.296875 -0.984375 0.84375 -1.65625q0.546875 -0.671875 1.34375 -1.015625q0.796875 -0.359375 1.8125 -0.359375q1.015625 0 1.8125 0.359375q0.796875 0.34375 1.34375 1.015625q0.5625 0.671875 0.84375 1.65625q0.296875 0.96875 0.296875 2.234375l0 3.109373zm-6.890625 -0.328125l5.171875 -3.968748q-0.15625 -1.3125 -0.78125 -2.0q-0.625 -0.6875 -1.796875 -0.6875q-1.328125 0 -1.96875 0.890625q-0.625 0.890625 -0.625 2.625l0 3.140623zm5.203125 -2.359373l-5.15625 3.953123q0.15625 1.28125 0.78125 1.953125q0.640625 0.671875 1.78125 0.671875q1.34375 0 1.96875 -0.90625q0.625 -0.90625 0.625 -2.625l0 -3.046873zm12.883087 2.687498q0 1.265625 -0.296875 2.25q-0.28125 0.984375 -0.828125 1.65625q-0.546875 0.65625 -1.34375 1.015625q-0.78125 0.34375 -1.8125 0.34375q-1.0 0 -1.796875 -0.34375q-0.796875 -0.359375 -1.359375 -1.015625q-0.5625305 -0.671875 -0.8594055 -1.65625q-0.28125 -0.984375 -0.28125 -2.25l0 -3.109373q0 -1.265625 0.28125 -2.234375q0.296875 -0.984375 0.8437805 -1.65625q0.546875 -0.671875 1.34375 -1.015625q0.796875 -0.359375 1.8125 -0.359375q1.015625 0 1.8125 0.359375q0.796875 0.34375 1.34375 1.015625q0.5625 0.671875 0.84375 1.65625q0.296875 0.96875 0.296875 2.234375l0 3.109373zm-6.890625 -0.328125l5.171875 -3.968748q-0.15625 -1.3125 -0.78125 -2.0q-0.625 -0.6875 -1.796875 -0.6875q-1.328125 0 -1.96875 0.890625q-0.625 0.890625 -0.625 2.625l0 3.140623zm5.203125 -2.359373l-5.15625 3.953123q0.15625 1.28125 0.78125 1.953125q0.640625 0.671875 1.78125 0.671875q1.34375 0 1.96875 -0.90625q0.625 -0.90625 0.625 -2.625l0 -3.046873zm12.883057 2.687498q0 1.265625 -0.296875 2.25q-0.28125 0.984375 -0.828125 1.65625q-0.546875 0.65625 -1.34375 1.015625q-0.78125 0.34375 -1.8125 0.34375q-1.0 0 -1.796875 -0.34375q-0.796875 -0.359375 -1.359375 -1.015625q-0.5625 -0.671875 -0.859375 -1.65625q-0.28125 -0.984375 -0.28125 -2.25l0 -3.109373q0 -1.265625 0.28125 -2.234375q0.296875 -0.984375 0.84375 -1.65625q0.546875 -0.671875 1.34375 -1.015625q0.796875 -0.359375 1.8125 -0.359375q1.015625 0 1.8125 0.359375q0.796875 0.34375 1.34375 1.015625q0.5625 0.671875 0.84375 1.65625q0.296875 0.96875 0.296875 2.234375l0 3.109373zm-6.890625 -0.328125l5.171875 -3.968748q-0.15625 -1.3125 -0.78125 -2.0q-0.625 -0.6875 -1.796875 -0.6875q-1.328125 0 -1.96875 0.890625q-0.625 0.890625 -0.625 2.625l0 3.140623zm5.203125 -2.359373l-5.15625 3.953123q0.15625 1.28125 0.78125 1.953125q0.640625 0.671875 1.78125 0.671875q1.34375 0 1.96875 -0.90625q0.625 -0.90625 0.625 -2.625l0 -3.046873zm12.883057 2.687498q0 1.265625 -0.296875 2.25q-0.28125 0.984375 -0.828125 1.65625q-0.546875 0.65625 -1.34375 1.015625q-0.78125 0.34375 -1.8125 0.34375q-1.0 0 -1.796875 -0.34375q-0.796875 -0.359375 -1.359375 -1.015625q-0.5625 -0.671875 -0.859375 -1.65625q-0.28125 -0.984375 -0.28125 -2.25l0 -3.109373q0 -1.265625 0.28125 -2.234375q0.296875 -0.984375 0.84375 -1.65625q0.546875 -0.671875 1.34375 -1.015625q0.796875 -0.359375 1.8125 -0.359375q1.015625 0 1.8125 0.359375q0.796875 0.34375 1.34375 1.015625q0.5625 0.671875 0.84375 1.65625q0.296875 0.96875 0.296875 2.234375l0 3.109373zm-6.890625 -0.328125l5.171875 -3.968748q-0.15625 -1.3125 -0.78125 -2.0q-0.625 -0.6875 -1.796875 -0.6875q-1.328125 0 -1.96875 0.890625q-0.625 0.890625 -0.625 2.625l0 3.140623zm5.203125 -2.359373l-5.15625 3.953123q0.15625 1.28125 0.78125 1.953125q0.640625 0.671875 1.78125 0.671875q1.34375 0 1.96875 -0.90625q0.625 -0.90625 0.625 -2.625l0 -3.046873zm12.883057 2.687498q0 1.265625 -0.296875 2.25q-0.28125 0.984375 -0.828125 1.65625q-0.546875 0.65625 -1.34375 1.015625q-0.78125 0.34375 -1.8125 0.34375q-1.0 0 -1.796875 -0.34375q-0.796875 -0.359375 -1.359375 -1.015625q-0.5625 -0.671875 -0.859375 -1.65625q-0.28125 -0.984375 -0.28125 -2.25l0 -3.109373q0 -1.265625 0.28125 -2.234375q0.296875 -0.984375 0.84375 -1.65625q0.546875 -0.671875 1.34375 -1.015625q0.796875 -0.359375 1.8125 -0.359375q1.015625 0 1.8125 0.359375q0.796875 0.34375 1.34375 1.015625q0.5625 0.671875 0.84375 1.65625q0.296875 0.96875 0.296875 2.234375l0 3.109373zm-6.890625 -0.328125l5.171875 -3.968748q-0.15625 -1.3125 -0.78125 -2.0q-0.625 -0.6875 -1.796875 -0.6875q-1.328125 0 -1.96875 0.890625q-0.625 0.890625 -0.625 2.625l0 3.140623zm5.203125 -2.359373l-5.15625 3.953123q0.15625 1.28125 0.78125 1.953125q0.640625 0.671875 1.78125 0.671875q1.34375 0 1.96875 -0.90625q0.625 -0.90625 0.625 -2.625l0 -3.046873zm16.68805 6.671873q0 -0.265625 0.078125 -0.5q0.09375 -0.25 0.25 -0.421875q0.171875 -0.1875 0.421875 -0.28125q0.25 -0.09375 0.578125 -0.09375q0.328125 0 0.578125 0.09375q0.25 0.09375 0.40625 0.28125q0.171875 0.171875 0.25 0.421875q0.09375 0.234375 0.09375 0.5q0 0.265625 -0.09375 0.5q-0.078125 0.234375 -0.25 0.40625q-0.15625 0.171875 -0.40625 0.265625q-0.25 0.09375 -0.578125 0.09375q-0.328125 0 -0.578125 -0.09375q-0.25 -0.09375 -0.421875 -0.265625q-0.15625 -0.171875 -0.25 -0.40625q-0.078125 -0.234375 -0.078125 -0.5zm3.0 0q0 -0.265625 0.078125 -0.5q0.09375 -0.25 0.25 -0.421875q0.171875 -0.1875 0.421875 -0.28125q0.25 -0.09375 0.578125 -0.09375q0.328125 0 0.578125 0.09375q0.25 0.09375 0.40625 0.28125q0.171875 0.171875 0.25 0.421875q0.09375 0.234375 0.09375 0.5q0 0.265625 -0.09375 0.5q-0.078125 0.234375 -0.25 0.40625q-0.15625 0.171875 -0.40625 0.265625q-0.25 0.09375 -0.578125 0.09375q-0.328125 0 -0.578125 -0.09375q-0.25 -0.09375 -0.421875 -0.265625q-0.15625 -0.171875 -0.25 -0.40625q-0.078125 -0.234375 -0.078125 -0.5zm4.0 0q0 -0.265625 0.078125 -0.5q0.09375 -0.25 0.25 -0.421875q0.171875 -0.1875 0.421875 -0.28125q0.25 -0.09375 0.578125 -0.09375q0.328125 0 0.578125 0.09375q0.25 0.09375 0.40625 0.28125q0.171875 0.171875 0.25 0.421875q0.09375 0.234375 0.09375 0.5q0 0.265625 -0.09375 0.5q-0.078125 0.234375 -0.25 0.40625q-0.15625 0.171875 -0.40625 0.265625q-0.25 0.09375 -0.578125 0.09375q-0.328125 0 -0.578125 -0.09375q-0.25 -0.09375 -0.421875 -0.265625q-0.15625 -0.171875 -0.25 -0.40625q-0.078125 -0.234375 -0.078125 -0.5zm22.7818 -3.984375q0 1.265625 -0.296875 2.25q-0.28125 0.984375 -0.828125 1.65625q-0.546875 0.65625 -1.34375 1.015625q-0.78125 0.34375 -1.8125 0.34375q-1.0 0 -1.796875 -0.34375q-0.796875 -0.359375 -1.359375 -1.015625q-0.5625 -0.671875 -0.859375 -1.65625q-0.28125 -0.984375 -0.28125 -2.25l0 -3.109373q0 -1.265625 0.28125 -2.234375q0.296875 -0.984375 0.84375 -1.65625q0.546875 -0.671875 1.34375 -1.015625q0.796875 -0.359375 1.8125 -0.359375q1.015625 0 1.8125 0.359375q0.796875 0.34375 1.34375 1.015625q0.5625 0.671875 0.84375 1.65625q0.296875 0.96875 0.296875 2.234375l0 3.109373zm-6.890625 -0.328125l5.171875 -3.968748q-0.15625 -1.3125 -0.78125 -2.0q-0.625 -0.6875 -1.796875 -0.6875q-1.328125 0 -1.96875 0.890625q-0.625 0.890625 -0.625 2.625l0 3.140623zm5.203125 -2.359373l-5.15625 3.953123q0.15625 1.28125 0.78125 1.953125q0.640625 0.671875 1.78125 0.671875q1.34375 0 1.96875 -0.90625q0.625 -0.90625 0.625 -2.625l0 -3.046873zm12.883057 2.687498q0 1.265625 -0.296875 2.25q-0.28125 0.984375 -0.828125 1.65625q-0.546875 0.65625 -1.34375 1.015625q-0.78125 0.34375 -1.8125 0.34375q-1.0 0 -1.796875 -0.34375q-0.796875 -0.359375 -1.359375 -1.015625q-0.5625 -0.671875 -0.859375 -1.65625q-0.28125 -0.984375 -0.28125 -2.25l0 -3.109373q0 -1.265625 0.28125 -2.234375q0.296875 -0.984375 0.84375 -1.65625q0.546875 -0.671875 1.34375 -1.015625q0.796875 -0.359375 1.8125 -0.359375q1.015625 0 1.8125 0.359375q0.796875 0.34375 1.34375 1.015625q0.5625 0.671875 0.84375 1.65625q0.296875 0.96875 0.296875 2.234375l0 3.109373zm-6.890625 -0.328125l5.171875 -3.968748q-0.15625 -1.3125 -0.78125 -2.0q-0.625 -0.6875 -1.796875 -0.6875q-1.328125 0 -1.96875 0.890625q-0.625 0.890625 -0.625 2.625l0 3.140623zm5.203125 -2.359373l-5.15625 3.953123q0.15625 1.28125 0.78125 1.953125q0.640625 0.671875 1.78125 0.671875q1.34375 0 1.96875 -0.90625q0.625 -0.90625 0.625 -2.625l0 -3.046873zm12.883057 2.687498q0 1.265625 -0.296875 2.25q-0.28125 0.984375 -0.828125 1.65625q-0.546875 0.65625 -1.34375 1.015625q-0.78125 0.34375 -1.8125 0.34375q-1.0 0 -1.796875 -0.34375q-0.796875 -0.359375 -1.359375 -1.015625q-0.5625 -0.671875 -0.859375 -1.65625q-0.28125 -0.984375 -0.28125 -2.25l0 -3.109373q0 -1.265625 0.28125 -2.234375q0.296875 -0.984375 0.84375 -1.65625q0.546875 -0.671875 1.34375 -1.015625q0.796875 -0.359375 1.8125 -0.359375q1.015625 0 1.8125 0.359375q0.796875 0.34375 1.34375 1.015625q0.5625 0.671875 0.84375 1.65625q0.296875 0.96875 0.296875 2.234375l0 3.109373zm-6.890625 -0.328125l5.171875 -3.968748q-0.15625 -1.3125 -0.78125 -2.0q-0.625 -0.6875 -1.796875 -0.6875q-1.328125 0 -1.96875 0.890625q-0.625 0.890625 -0.625 2.625l0 3.140623zm5.203125 -2.359373l-5.15625 3.953123q0.15625 1.28125 0.78125 1.953125q0.640625 0.671875 1.78125 0.671875q1.34375 0 1.96875 -0.90625q0.625 -0.90625 0.625 -2.625l0 -3.046873zm12.883057 2.687498q0 1.265625 -0.296875 2.25q-0.28125 0.984375 -0.828125 1.65625q-0.546875 0.65625 -1.34375 1.015625q-0.78125 0.34375 -1.8125 0.34375q-1.0 0 -1.796875 -0.34375q-0.796875 -0.359375 -1.359375 -1.015625q-0.5625 -0.671875 -0.859375 -1.65625q-0.28125 -0.984375 -0.28125 -2.25l0 -3.109373q0 -1.265625 0.28125 -2.234375q0.296875 -0.984375 0.84375 -1.65625q0.546875 -0.671875 1.34375 -1.015625q0.796875 -0.359375 1.8125 -0.359375q1.015625 0 1.8125 0.359375q0.796875 0.34375 1.34375 1.015625q0.5625 0.671875 0.84375 1.65625q0.296875 0.96875 0.296875 2.234375l0 3.109373zm-6.890625 -0.328125l5.171875 -3.968748q-0.15625 -1.3125 -0.78125 -2.0q-0.625 -0.6875 -1.796875 -0.6875q-1.328125 0 -1.96875 0.890625q-0.625 0.890625 -0.625 2.625l0 3.140623zm5.203125 -2.359373l-5.15625 3.953123q0.15625 1.28125 0.78125 1.953125q0.640625 0.671875 1.78125 0.671875q1.34375 0 1.96875 -0.90625q0.625 -0.90625 0.625 -2.625l0 -3.046873zm12.883118 2.687498q0 1.265625 -0.296875 2.25q-0.28125 0.984375 -0.828125 1.65625q-0.546875 0.65625 -1.34375 1.015625q-0.78125 0.34375 -1.8125 0.34375q-1.0 0 -1.796875 -0.34375q-0.796875 -0.359375 -1.359375 -1.015625q-0.5625 -0.671875 -0.859375 -1.65625q-0.28125 -0.984375 -0.28125 -2.25l0 -3.109373q0 -1.265625 0.28125 -2.234375q0.296875 -0.984375 0.84375 -1.65625q0.546875 -0.671875 1.34375 -1.015625q0.796875 -0.359375 1.8125 -0.359375q1.015625 0 1.8125 0.359375q0.796875 0.34375 1.34375 1.015625q0.5625 0.671875 0.84375 1.65625q0.296875 0.96875 0.296875 2.234375l0 3.109373zm-6.890625 -0.328125l5.171875 -3.968748q-0.15625 -1.3125 -0.78125 -2.0q-0.625 -0.6875 -1.796875 -0.6875q-1.328125 0 -1.96875 0.890625q-0.625 0.890625 -0.625 2.625l0 3.140623zm5.203125 -2.359373l-5.15625 3.953123q0.15625 1.28125 0.78125 1.953125q0.640625 0.671875 1.78125 0.671875q1.34375 0 1.96875 -0.90625q0.625 -0.90625 0.625 -2.625l0 -3.046873zm12.883057 2.687498q0 1.265625 -0.296875 2.25q-0.28125 0.984375 -0.828125 1.65625q-0.546875 0.65625 -1.34375 1.015625q-0.78125 0.34375 -1.8125 0.34375q-1.0 0 -1.796875 -0.34375q-0.796875 -0.359375 -1.359375 -1.015625q-0.5625 -0.671875 -0.859375 -1.65625q-0.28125 -0.984375 -0.28125 -2.25l0 -3.109373q0 -1.265625 0.28125 -2.234375q0.296875 -0.984375 0.84375 -1.65625q0.546875 -0.671875 1.34375 -1.015625q0.796875 -0.359375 1.8125 -0.359375q1.015625 0 1.8125 0.359375q0.796875 0.34375 1.34375 1.015625q0.5625 0.671875 0.84375 1.65625q0.296875 0.96875 0.296875 2.234375l0 3.109373zm-6.890625 -0.328125l5.171875 -3.968748q-0.15625 -1.3125 -0.78125 -2.0q-0.625 -0.6875 -1.796875 -0.6875q-1.328125 0 -1.96875 0.890625q-0.625 0.890625 -0.625 2.625l0 3.140623zm5.203125 -2.359373l-5.15625 3.953123q0.15625 1.28125 0.78125 1.953125q0.640625 0.671875 1.78125 0.671875q1.34375 0 1.96875 -0.90625q0.625 -0.90625 0.625 -2.625l0 -3.046873zm12.883057 2.687498q0 1.265625 -0.296875 2.25q-0.28125 0.984375 -0.828125 1.65625q-0.546875 0.65625 -1.34375 1.015625q-0.78125 0.34375 -1.8125 0.34375q-1.0 0 -1.796875 -0.34375q-0.796875 -0.359375 -1.359375 -1.015625q-0.5625 -0.671875 -0.859375 -1.65625q-0.28125 -0.984375 -0.28125 -2.25l0 -3.109373q0 -1.265625 0.28125 -2.234375q0.296875 -0.984375 0.84375 -1.65625q0.546875 -0.671875 1.34375 -1.015625q0.796875 -0.359375 1.8125 -0.359375q1.015625 0 1.8125 0.359375q0.796875 0.34375 1.34375 1.015625q0.5625 0.671875 0.84375 1.65625q0.296875 0.96875 0.296875 2.234375l0 3.109373zm-6.890625 -0.328125l5.171875 -3.968748q-0.15625 -1.3125 -0.78125 -2.0q-0.625 -0.6875 -1.796875 -0.6875q-1.328125 0 -1.96875 0.890625q-0.625 0.890625 -0.625 2.625l0 3.140623zm5.203125 -2.359373l-5.15625 3.953123q0.15625 1.28125 0.78125 1.953125q0.640625 0.671875 1.78125 0.671875q1.34375 0 1.96875 -0.90625q0.625 -0.90625 0.625 -2.625l0 -3.046873zm12.883057 2.687498q0 1.265625 -0.296875 2.25q-0.28125 0.984375 -0.828125 1.65625q-0.546875 0.65625 -1.34375 1.015625q-0.78125 0.34375 -1.8125 0.34375q-1.0 0 -1.796875 -0.34375q-0.796875 -0.359375 -1.359375 -1.015625q-0.5625 -0.671875 -0.859375 -1.65625q-0.28125 -0.984375 -0.28125 -2.25l0 -3.109373q0 -1.265625 0.28125 -2.234375q0.296875 -0.984375 0.84375 -1.65625q0.546875 -0.671875 1.34375 -1.015625q0.796875 -0.359375 1.8125 -0.359375q1.015625 0 1.8125 0.359375q0.796875 0.34375 1.34375 1.015625q0.5625 0.671875 0.84375 1.65625q0.296875 0.96875 0.296875 2.234375l0 3.109373zm-6.890625 -0.328125l5.171875 -3.968748q-0.15625 -1.3125 -0.78125 -2.0q-0.625 -0.6875 -1.796875 -0.6875q-1.328125 0 -1.96875 0.890625q-0.625 0.890625 -0.625 2.625l0 3.140623zm5.203125 -2.359373l-5.15625 3.953123q0.15625 1.28125 0.78125 1.953125q0.640625 0.671875 1.78125 0.671875q1.34375 0 1.96875 -0.90625q0.625 -0.90625 0.625 -2.625l0 -3.046873z" fill-rule="nonzero"/><path fill="#fce5cd" d="m151.60236 15.217848l280.0 0l0 31.999998l-280.0 0z" fill-rule="evenodd"/><path stroke="#000000" stroke-width="1.0" stroke-linejoin="round" stroke-linecap="butt" d="m151.60236 15.217848l280.0 0l0 31.999998l-280.0 0z" fill-rule="evenodd"/><path fill="#000000" d="m193.77112 34.77847q0 -0.609375 -0.28125 -1.015625q-0.28125 -0.421875 -0.71875 -0.703125q-0.4375 -0.296875 -0.96875 -0.484375q-0.515625 -0.1875 -1.0 -0.34375q-0.703125 -0.2343731 -1.421875 -0.5468731q-0.71875 -0.328125 -1.328125 -0.78125q-0.59375 -0.46875 -0.96875 -1.09375q-0.375 -0.640625 -0.375 -1.5q0 -0.859375 0.375 -1.53125q0.375 -0.671875 0.984375 -1.140625q0.609375 -0.46875 1.375 -0.703125q0.78125 -0.25 1.578125 -0.25q0.859375 0 1.65625 0.296875q0.8125 0.28125 1.421875 0.8125q0.625 0.515625 1.0 1.25q0.375 0.734375 0.390625 1.640625l-1.734375 0q-0.078125 -0.5625 -0.28125 -1.03125q-0.203125 -0.46875 -0.5625 -0.8125q-0.34375 -0.34375 -0.828125 -0.515625q-0.46875 -0.1875 -1.0625 -0.1875q-0.484375 0 -0.953125 0.140625q-0.453125 0.125 -0.8125 0.40625q-0.359375 0.265625 -0.578125 0.671875q-0.21875 0.390625 -0.21875 0.921875q0.015625 0.578125 0.296875 0.984375q0.28125 0.390625 0.71875 0.671875q0.4375 0.265625 0.9375 0.453125q0.5 0.171875 0.953125 0.3125q0.484375 0.15625 0.984375 0.359375q0.5 0.1875 0.96875 0.4375q0.46875 0.25 0.859375 0.5781231q0.40625 0.3125 0.703125 0.71875q0.3125 0.40625 0.46875 0.890625q0.171875 0.484375 0.171875 1.078125q0 0.890625 -0.40625 1.5625q-0.390625 0.671875 -1.015625 1.109375q-0.625 0.4375 -1.421875 0.671875q-0.78125 0.21875 -1.578125 0.21875q-0.890625 0 -1.734375 -0.265625q-0.84375 -0.28125 -1.515625 -0.796875q-0.671875 -0.515625 -1.09375 -1.25q-0.40625 -0.75 -0.4375 -1.703125l1.71875 0q0.078125 0.625 0.328125 1.109375q0.265625 0.46875 0.65625 0.8125q0.40625 0.328125 0.921875 0.5q0.53125 0.15625 1.15625 0.15625q0.484375 0 0.96875 -0.125q0.484375 -0.125 0.84375 -0.375q0.375 -0.265625 0.609375 -0.65625q0.25 -0.40625 0.25 -0.953125zm4.508072 -6.499998l5.046875 0l0 8.406248l3.21875 0l0 1.453125l-8.265625 0l0 -1.453125l3.359375 0l0 -6.937498l-3.359375 0l0 -1.46875zm3.140625 -2.578125q0 -0.421875 0.25 -0.703125q0.25 -0.296875 0.765625 -0.296875q0.5 0 0.75 0.296875q0.25 0.28125 0.25 0.703125q0 0.40625 -0.25 0.6875q-0.25 0.265625 -0.75 0.265625q-0.515625 0 -0.765625 -0.265625q-0.25 -0.28125 -0.25 -0.6875zm7.492447 7.421873q0 -1.09375 0.265625 -2.015623q0.265625 -0.9375 0.765625 -1.59375q0.515625 -0.671875 1.25 -1.03125q0.734375 -0.375 1.640625 -0.375q0.921875 0 1.609375 0.328125q0.6875 0.3125 1.171875 0.921875l0.078125 -1.078125l1.53125 0l0 9.656248q0 0.96875 -0.3125 1.71875q-0.296875 0.765625 -0.859375 1.28125q-0.546875 0.53125 -1.3125 0.796875q-0.765625 0.28125 -1.6875 0.28125q-0.390625 0 -0.890625 -0.09375q-0.484375 -0.078125 -0.984375 -0.28125q-0.5 -0.1875 -0.96875 -0.515625q-0.46875 -0.328125 -0.8125 -0.8125l0.875 -1.0q0.3125 0.375 0.640625 0.625q0.328125 0.265625 0.65625 0.421875q0.34375 0.15625 0.671875 0.21875q0.34375 0.0625 0.6875 0.0625q0.59375 0 1.078125 -0.171875q0.484375 -0.171875 0.828125 -0.5q0.34375 -0.328125 0.515625 -0.828125q0.1875 -0.484375 0.1875 -1.125l0 -0.84375q-0.484375 0.5625 -1.15625 0.859375q-0.671875 0.296875 -1.5625 0.296875q-0.890625 0 -1.625 -0.375q-0.734375 -0.390625 -1.234375 -1.0625q-0.5 -0.6875 -0.78125 -1.59375q-0.265625 -0.921875 -0.265625 -1.96875l0 -0.203125zm1.671875 0.203125q0 0.71875 0.15625 1.359375q0.15625 0.640625 0.46875 1.140625q0.328125 0.484375 0.828125 0.78125q0.5 0.28125 1.203125 0.28125q0.4375 0 0.78125 -0.09375q0.359375 -0.109375 0.640625 -0.296875q0.28125 -0.203125 0.5 -0.46875q0.21875 -0.265625 0.375 -0.578125l0 -4.515623q-0.15625 -0.3125 -0.375 -0.5625q-0.21875 -0.265625 -0.515625 -0.453125q-0.28125 -0.1875 -0.625 -0.28125q-0.34375 -0.109375 -0.765625 -0.109375q-0.703125 0 -1.21875 0.296875q-0.5 0.28125 -0.828125 0.78125q-0.3125 0.5 -0.46875 1.15625q-0.15625 0.6406231 -0.15625 1.3593731l0 0.203125zm11.336197 -5.046873l0.125 1.453125q0.53125 -0.765625 1.3125 -1.1875q0.78125 -0.4375 1.75 -0.4375q0.78125 0 1.40625 0.21875q0.640625 0.21875 1.078125 0.6875q0.453125 0.453125 0.6875 1.171875q0.25 0.71875 0.25 1.6875l0 6.265623l-1.6875 0l0 -6.218748q0 -0.65625 -0.15625 -1.109375q-0.140625 -0.453125 -0.421875 -0.734375q-0.28125 -0.296875 -0.703125 -0.421875q-0.40625 -0.125 -0.953125 -0.125q-0.84375 0 -1.484375 0.421875q-0.640625 0.421875 -1.03125 1.125l0 7.062498l-1.6875 0l0 -9.859373l1.515625 0zm14.039322 10.046873q-1.03125 0 -1.90625 -0.359375q-0.875 -0.359375 -1.5 -0.984375q-0.609375 -0.640625 -0.953125 -1.515625q-0.34375 -0.875 -0.34375 -1.90625l0 -0.390625q0 -1.1874981 0.375 -2.124998q0.390625 -0.953125 1.015625 -1.59375q0.640625 -0.65625 1.4375 -1.0q0.8125 -0.34375 1.65625 -0.34375q1.0625 0 1.859375 0.375q0.796875 0.359375 1.328125 1.015625q0.53125 0.640625 0.78125 1.53125q0.265625 0.875 0.265625 1.9062481l0 0.75l-7.03125 0q0.015625 0.6875 0.25 1.28125q0.234375 0.578125 0.640625 1.03125q0.40625 0.4375 0.96875 0.703125q0.5625 0.25 1.25 0.25q0.90625 0 1.59375 -0.359375q0.703125 -0.375 1.171875 -0.96875l1.03125 0.796875q-0.25 0.375 -0.625 0.71875q-0.359375 0.328125 -0.84375 0.59375q-0.484375 0.265625 -1.09375 0.421875q-0.609375 0.171875 -1.328125 0.171875zm-0.21875 -8.843748q-0.515625 0 -0.96875 0.1875q-0.453125 0.1875 -0.8125 0.546875q-0.359375 0.359375 -0.625 0.890625q-0.25 0.515625 -0.34375 1.2031231l5.296875 0l0 -0.125q-0.015625 -0.4999981 -0.1875 -0.9843731q-0.15625 -0.484375 -0.46875 -0.859375q-0.296875 -0.390625 -0.765625 -0.625q-0.46875 -0.234375 -1.125 -0.234375zm6.742447 3.640623q0 -1.09375 0.28125 -2.015623q0.28125 -0.9375 0.78125 -1.59375q0.515625 -0.671875 1.25 -1.03125q0.734375 -0.375 1.625 -0.375q0.890625 0 1.546875 0.296875q0.671875 0.28125 1.140625 0.859375l0 -5.125l1.6875 0l0 13.999998l-1.546875 0l-0.0625 -1.03125q-0.5 0.59375 -1.1875 0.90625q-0.671875 0.3125 -1.59375 0.3125q-0.890625 0 -1.625 -0.375q-0.71875 -0.390625 -1.234375 -1.0625q-0.5 -0.6875 -0.78125 -1.59375q-0.28125 -0.921875 -0.28125 -1.96875l0 -0.203125zm1.6875 0.203125q0 0.71875 0.15625 1.359375q0.15625 0.640625 0.46875 1.140625q0.328125 0.484375 0.828125 0.78125q0.5 0.28125 1.203125 0.28125q0.4375 0 0.78125 -0.09375q0.34375 -0.109375 0.625 -0.296875q0.28125 -0.1875 0.5 -0.4375q0.21875 -0.265625 0.375 -0.578125l0 -4.578123q-0.328125 -0.59375 -0.890625 -0.984375q-0.546875 -0.390625 -1.375 -0.390625q-0.703125 0 -1.21875 0.296875q-0.5 0.28125 -0.828125 0.78125q-0.3125 0.5 -0.46875 1.15625q-0.15625 0.6406231 -0.15625 1.3593731l0 0.203125zm22.98491 -2.624998l1.203125 0q0.640625 0 1.125 -0.171875q0.5 -0.171875 0.828125 -0.46875q0.328125 -0.3125 0.5 -0.734375q0.171875 -0.421875 0.171875 -0.921875q0 -1.15625 -0.59375 -1.734375q-0.59375 -0.59375 -1.71875 -0.59375q-0.546875 0 -0.984375 0.171875q-0.4375 0.15625 -0.765625 0.453125q-0.3125 0.296875 -0.484375 0.71875q-0.171875 0.421875 -0.171875 0.9375l-1.6875 0q0 -0.765625 0.296875 -1.421875q0.296875 -0.671875 0.828125 -1.171875q0.53125 -0.5 1.28125 -0.78125q0.765625 -0.296875 1.6875 -0.296875q0.890625 0 1.625 0.25q0.734375 0.234375 1.265625 0.71875q0.53125 0.46875 0.8125 1.171875q0.296875 0.703125 0.296875 1.625q0 0.375 -0.125 0.796875q-0.109375 0.40625 -0.359375 0.796875q-0.25 0.375 -0.640625 0.71875q-0.375 0.34375 -0.921875 0.5625q0.65625 0.21875 1.078125 0.5625q0.4375 0.3281231 0.703125 0.7499981q0.265625 0.421875 0.359375 0.890625q0.109375 0.453125 0.109375 0.90625q0 0.9375 -0.328125 1.65625q-0.3125 0.71875 -0.875 1.21875q-0.5625 0.484375 -1.34375 0.75q-0.765625 0.265625 -1.65625 0.265625q-0.875 0 -1.640625 -0.25q-0.765625 -0.25 -1.34375 -0.71875q-0.5625 -0.46875 -0.890625 -1.15625q-0.328125 -0.6875 -0.328125 -1.5625l1.6875 0q0 0.515625 0.171875 0.953125q0.171875 0.421875 0.5 0.734375q0.328125 0.296875 0.796875 0.46875q0.46875 0.15625 1.046875 0.15625q0.578125 0 1.03125 -0.15625q0.46875 -0.15625 0.796875 -0.453125q0.328125 -0.3125 0.5 -0.765625q0.1875 -0.46875 0.1875 -1.09375q0 -0.625 -0.203125 -1.078125q-0.203125 -0.453125 -0.578125 -0.75q-0.359375 -0.296875 -0.890625 -0.4375q-0.515625 -0.15625 -1.15625 -0.15625l-1.203125 0l0 -1.3593731zm17.367432 7.437498l-8.6875 0l0 -1.21875l4.34375 -4.828125q0.578125 -0.6406231 0.96875 -1.1406231q0.390625 -0.5 0.625 -0.921875q0.25 -0.421875 0.34375 -0.796875q0.109375 -0.390625 0.109375 -0.78125q0 -0.5 -0.171875 -0.921875q-0.15625 -0.4375 -0.46875 -0.75q-0.296875 -0.328125 -0.734375 -0.515625q-0.421875 -0.1875 -0.96875 -0.1875q-0.671875 0 -1.15625 0.203125q-0.484375 0.1875 -0.8125 0.53125q-0.328125 0.34375 -0.484375 0.859375q-0.15625 0.5 -0.15625 1.109375l-1.6875 0q0 -0.828125 0.28125 -1.5625q0.296875 -0.75 0.84375 -1.3125q0.546875 -0.5625 1.34375 -0.890625q0.796875 -0.328125 1.828125 -0.328125q0.9375 0 1.6875 0.28125q0.75 0.28125 1.265625 0.78125q0.515625 0.484375 0.796875 1.15625q0.28125 0.671875 0.28125 1.46875q0 0.59375 -0.203125 1.171875q-0.203125 0.578125 -0.546875 1.140625q-0.328125 0.5625 -0.78125 1.125q-0.453125 0.5468731 -0.953125 1.0937481l-3.5625 3.859375l6.65625 0l0 1.375zm10.429962 -5.109375l-6.96875 0l0 -1.3906231l6.96875 0l0 1.3906231zm12.189056 0.296875q0 1.046875 -0.265625 1.96875q-0.25 0.90625 -0.75 1.59375q-0.484375 0.671875 -1.203125 1.0625q-0.71875 0.375 -1.65625 0.375q-0.953125 0 -1.65625 -0.328125q-0.6875 -0.34375 -1.1875 -0.984375l-0.078125 1.125l-1.546875 0l0 -13.999998l1.6875 0l0 5.203125q0.484375 -0.609375 1.15625 -0.921875q0.6875 -0.3125 1.609375 -0.3125q0.9375 0 1.65625 0.375q0.734375 0.359375 1.21875 1.03125q0.5 0.65625 0.75 1.59375q0.265625 0.9218731 0.265625 2.015623l0 0.203125zm-1.6875 -0.203125q0 -0.71875 -0.140625 -1.3593731q-0.140625 -0.65625 -0.453125 -1.15625q-0.3125 -0.5 -0.8125 -0.78125q-0.5 -0.296875 -1.21875 -0.296875q-0.4375 0 -0.8125 0.125q-0.359375 0.109375 -0.65625 0.3125q-0.28125 0.203125 -0.5 0.484375q-0.21875 0.265625 -0.375 0.59375l0 4.312498q0.15625 0.328125 0.375 0.609375q0.234375 0.28125 0.515625 0.5q0.296875 0.203125 0.65625 0.3125q0.375 0.109375 0.8125 0.109375q0.6875 0 1.1875 -0.28125q0.5 -0.296875 0.8125 -0.78125q0.3125 -0.5 0.453125 -1.140625q0.15625 -0.640625 0.15625 -1.359375l0 -0.203125zm4.7893066 -4.843748l5.046875 0l0 8.406248l3.21875 0l0 1.453125l-8.265625 0l0 -1.453125l3.359375 0l0 -6.937498l-3.359375 0l0 -1.46875zm3.140625 -2.578125q0 -0.421875 0.25 -0.703125q0.25 -0.296875 0.765625 -0.296875q0.5 0 0.75 0.296875q0.25 0.28125 0.25 0.703125q0 0.40625 -0.25 0.6875q-0.25 0.265625 -0.75 0.265625q-0.515625 0 -0.765625 -0.265625q-0.25 -0.28125 -0.25 -0.6875zm11.789337 0.1875l0 2.390625l3.75 0l0 1.3125l-3.75 0l0 5.343748q0 0.578125 0.140625 0.953125q0.140625 0.375 0.390625 0.59375q0.265625 0.21875 0.59375 0.3125q0.34375 0.09375 0.71875 0.09375q0.265625 0 0.546875 -0.03125q0.296875 -0.03125 0.578125 -0.078125q0.28125 -0.046875 0.515625 -0.09375q0.25 -0.046875 0.40625 -0.09375l0.234375 1.203125q-0.21875 0.125 -0.515625 0.21875q-0.296875 0.09375 -0.65625 0.15625q-0.34375 0.078125 -0.75 0.109375q-0.390625 0.046875 -0.78125 0.046875q-0.65625 0 -1.234375 -0.1875q-0.5625 -0.1875 -0.984375 -0.59375q-0.421875 -0.40625 -0.671875 -1.046875q-0.234375 -0.640625 -0.234375 -1.5625l0 -5.343748l-2.578125 0l0 -1.3125l2.578125 0l0 -2.390625l1.703125 0zm22.375519 9.531248l3.125 -10.546873l1.796875 0l-4.1875 13.265623l-1.453125 0l-4.203125 -13.265623l1.8125 0l3.109375 10.546873zm13.695557 2.71875q-0.09375 -0.1875 -0.15625 -0.46875q-0.0625 -0.296875 -0.09375 -0.609375q-0.25 0.265625 -0.5625 0.5q-0.3125 0.21875 -0.703125 0.390625q-0.375 0.171875 -0.8125 0.265625q-0.421875 0.109375 -0.890625 0.109375q-0.796875 0 -1.4375 -0.21875q-0.625 -0.234375 -1.0625 -0.625q-0.4375 -0.390625 -0.6875 -0.921875q-0.234375 -0.53125 -0.234375 -1.15625q0 -0.8125 0.3125 -1.421875q0.328125 -0.609375 0.921875 -1.015625q0.59375 -0.40625 1.421875 -0.59375q0.84375 -0.203125 1.875 -0.203125l1.828125 0l0 -0.7812481q0 -0.453125 -0.171875 -0.796875q-0.15625 -0.359375 -0.453125 -0.609375q-0.296875 -0.25 -0.734375 -0.390625q-0.421875 -0.140625 -0.96875 -0.140625q-0.5 0 -0.90625 0.140625q-0.390625 0.125 -0.671875 0.34375q-0.265625 0.203125 -0.421875 0.484375q-0.140625 0.28125 -0.140625 0.59375l-1.6875 0q0 -0.53125 0.265625 -1.046875q0.28125 -0.53125 0.78125 -0.9375q0.5 -0.421875 1.21875 -0.671875q0.734375 -0.25 1.65625 -0.25q0.84375 0 1.5625 0.203125q0.71875 0.203125 1.234375 0.625q0.53125 0.40625 0.828125 1.03125q0.296875 0.609375 0.296875 1.4375l0 4.578123q0 0.5 0.09375 1.046875q0.09375 0.546875 0.25 0.96875l0 0.140625l-1.75 0zm-2.984375 -1.28125q0.5 0 0.921875 -0.125q0.4375 -0.140625 0.78125 -0.34375q0.34375 -0.203125 0.59375 -0.46875q0.265625 -0.28125 0.40625 -0.5625l0 -2.0l-1.5625 0q-1.46875 0 -2.296875 0.4375q-0.8125 0.4375 -0.8125 1.375q0 0.359375 0.125 0.671875q0.125 0.3125 0.359375 0.53125q0.25 0.21875 0.625 0.359375q0.375 0.125 0.859375 0.125zm7.961212 -12.718748l5.046875 0l0 12.546873l3.21875 0l0 1.453125l-8.265625 0l0 -1.453125l3.359375 0l0 -11.078123l-3.359375 0l0 -1.46875zm17.336182 12.640623q-0.5 0.734375 -1.234375 1.140625q-0.734375 0.40625 -1.703125 0.40625q-0.78125 0 -1.40625 -0.234375q-0.625 -0.25 -1.078125 -0.765625q-0.4375 -0.515625 -0.6875 -1.296875q-0.234375 -0.78125 -0.234375 -1.890625l0 -5.859373l1.6875 0l0 5.874998q0 0.8125 0.125 1.34375q0.125 0.515625 0.375 0.828125q0.265625 0.3125 0.625 0.453125q0.375 0.125 0.859375 0.125q1.03125 0 1.65625 -0.421875q0.640625 -0.421875 0.953125 -1.125l0 -7.078123l1.6875 0l0 9.859373l-1.53125 0l-0.09375 -1.359375zm9.148712 1.546875q-1.03125 0 -1.90625 -0.359375q-0.875 -0.359375 -1.5 -0.984375q-0.609375 -0.640625 -0.953125 -1.515625q-0.34375 -0.875 -0.34375 -1.90625l0 -0.390625q0 -1.1874981 0.375 -2.124998q0.390625 -0.953125 1.015625 -1.59375q0.640625 -0.65625 1.4375 -1.0q0.8125 -0.34375 1.65625 -0.34375q1.0625 0 1.859375 0.375q0.796875 0.359375 1.328125 1.015625q0.53125 0.640625 0.78125 1.53125q0.265625 0.875 0.265625 1.9062481l0 0.75l-7.03125 0q0.015625 0.6875 0.25 1.28125q0.234375 0.578125 0.640625 1.03125q0.40625 0.4375 0.96875 0.703125q0.5625 0.25 1.25 0.25q0.90625 0 1.59375 -0.359375q0.703125 -0.375 1.171875 -0.96875l1.03125 0.796875q-0.25 0.375 -0.625 0.71875q-0.359375 0.328125 -0.84375 0.59375q-0.484375 0.265625 -1.09375 0.421875q-0.609375 0.171875 -1.328125 0.171875zm-0.21875 -8.843748q-0.515625 0 -0.96875 0.1875q-0.453125 0.1875 -0.8125 0.546875q-0.359375 0.359375 -0.625 0.890625q-0.25 0.515625 -0.34375 1.2031231l5.296875 0l0 -0.125q-0.015625 -0.4999981 -0.1875 -0.9843731q-0.15625 -0.484375 -0.46875 -0.859375q-0.296875 -0.390625 -0.765625 -0.625q-0.46875 -0.234375 -1.125 -0.234375z" fill-rule="nonzero"/><path fill="#000000" fill-opacity="0.0" d="m431.60236 111.21785l0 16.0" fill-rule="evenodd"/><path stroke="#000000" stroke-width="1.0" stroke-linejoin="round" stroke-linecap="butt" d="m431.60236 111.21785l0 16.0" fill-rule="evenodd"/><path fill="#000000" fill-opacity="0.0" d="m711.60236 111.21785l0 16.0" fill-rule="evenodd"/><path stroke="#000000" stroke-width="1.0" stroke-linejoin="round" stroke-linecap="butt" d="m711.60236 111.21785l0 16.0" fill-rule="evenodd"/><path fill="#000000" fill-opacity="0.0" d="m151.60236 111.21785l0 16.0" fill-rule="evenodd"/><path stroke="#000000" stroke-width="1.0" stroke-linejoin="round" stroke-linecap="butt" d="m151.60236 111.21785l0 16.0" fill-rule="evenodd"/><path fill="#000000" fill-opacity="0.0" d="m683.60236 119.21785l56.0 0l0 40.0l-56.0 0z" fill-rule="evenodd"/><path fill="#000000" d="m715.3016 139.21848q0 1.09375 -0.25 1.9375q-0.25 0.828125 -0.71875 1.40625q-0.46875 0.578125 -1.15625 0.875q-0.671875 0.296875 -1.546875 0.296875q-0.859375 0 -1.546875 -0.296875q-0.6875 -0.296875 -1.171875 -0.875q-0.46875 -0.578125 -0.71875 -1.40625q-0.25 -0.84375 -0.25 -1.9375l0 -2.65625q0 -1.09375 0.25 -1.921875q0.25 -0.84375 0.71875 -1.421875q0.46875 -0.578125 1.15625 -0.875q0.6875 -0.3125 1.546875 -0.3125q0.875 0 1.5625 0.3125q0.6875 0.296875 1.15625 0.875q0.46875 0.578125 0.71875 1.421875q0.25 0.828125 0.25 1.921875l0 2.65625zm-5.90625 -0.28125l4.421875 -3.40625q-0.125 -1.125 -0.65625 -1.71875q-0.53125 -0.59375 -1.546875 -0.59375q-1.140625 0 -1.6875 0.78125q-0.53125 0.765625 -0.53125 2.234375l0 2.703125zm4.453125 -2.015625l-4.421875 3.375q0.140625 1.109375 0.6875 1.6875q0.546875 0.578125 1.515625 0.578125q1.15625 0 1.6875 -0.78125q0.53125 -0.78125 0.53125 -2.25l0 -2.609375z" fill-rule="nonzero"/><path fill="#000000" fill-opacity="0.0" d="m404.60236 119.21785l56.0 0l0 40.0l-56.0 0z" fill-rule="evenodd"/><path fill="#000000" d="m426.04767 137.18723l1.03125 0q0.546875 0 0.96875 -0.140625q0.421875 -0.15625 0.703125 -0.40625q0.28125 -0.265625 0.421875 -0.625q0.15625 -0.359375 0.15625 -0.78125q0 -1.0 -0.515625 -1.5q-0.5 -0.5 -1.46875 -0.5q-0.46875 0 -0.84375 0.140625q-0.375 0.125 -0.65625 0.390625q-0.265625 0.25 -0.421875 0.609375q-0.140625 0.359375 -0.140625 0.8125l-1.453125 0q0 -0.65625 0.25 -1.21875q0.265625 -0.578125 0.71875 -1.0q0.46875 -0.4375 1.109375 -0.671875q0.640625 -0.25 1.4375 -0.25q0.765625 0 1.390625 0.203125q0.640625 0.203125 1.09375 0.609375q0.453125 0.40625 0.703125 1.015625q0.25 0.59375 0.25 1.390625q0 0.328125 -0.109375 0.6875q-0.09375 0.34375 -0.3125 0.671875q-0.203125 0.328125 -0.546875 0.625q-0.328125 0.296875 -0.78125 0.484375q0.546875 0.1875 0.921875 0.484375q0.375 0.28125 0.59375 0.640625q0.21875 0.359375 0.3125 0.765625q0.09375 0.390625 0.09375 0.78125q0 0.796875 -0.28125 1.421875q-0.265625 0.609375 -0.75 1.03125q-0.484375 0.421875 -1.15625 0.65625q-0.65625 0.21875 -1.421875 0.21875q-0.75 0 -1.40625 -0.203125q-0.65625 -0.21875 -1.140625 -0.625q-0.484375 -0.40625 -0.78125 -0.984375q-0.28125 -0.59375 -0.28125 -1.34375l1.453125 0q0 0.4375 0.140625 0.8125q0.15625 0.359375 0.4375 0.625q0.28125 0.25 0.6875 0.390625q0.40625 0.140625 0.890625 0.140625q0.5 0 0.890625 -0.125q0.40625 -0.125 0.6875 -0.390625q0.28125 -0.265625 0.421875 -0.65625q0.15625 -0.40625 0.15625 -0.9375q0 -0.53125 -0.171875 -0.921875q-0.171875 -0.390625 -0.5 -0.640625q-0.3125 -0.265625 -0.765625 -0.390625q-0.4375 -0.125 -0.984375 -0.125l-1.03125 0l0 -1.171875zm12.6015625 6.390625l-1.4375 0l0 -9.53125l-2.984375 1.125l0 -1.3125l4.3125 -1.65625l0.109375 0l0 11.375z" fill-rule="nonzero"/><path fill="#000000" fill-opacity="0.0" d="m123.60236 119.21785l55.999992 0l0 40.0l-55.999992 0z" fill-rule="evenodd"/><path fill="#000000" d="m148.6883 132.18723l0 1.296875l-0.125 0q-0.71875 0 -1.28125 0.15625q-0.5625 0.140625 -1.0 0.40625q-0.421875 0.25 -0.734375 0.609375q-0.3125 0.359375 -0.515625 0.78125q-0.203125 0.421875 -0.3125 0.890625q-0.109375 0.453125 -0.140625 0.921875q0.203125 -0.234375 0.46875 -0.4375q0.265625 -0.21875 0.578125 -0.359375q0.3125 -0.15625 0.65625 -0.25q0.359375 -0.09375 0.75 -0.09375q0.859375 0 1.46875 0.328125q0.625 0.328125 1.015625 0.859375q0.40625 0.53125 0.59375 1.203125q0.1875 0.671875 0.1875 1.359375q0 0.796875 -0.234375 1.5q-0.21875 0.703125 -0.671875 1.234375q-0.4375 0.53125 -1.09375 0.84375q-0.65625 0.296875 -1.53125 0.296875q-0.609375 0 -1.125 -0.171875q-0.515625 -0.1875 -0.921875 -0.5q-0.40625 -0.3125 -0.71875 -0.734375q-0.296875 -0.421875 -0.5 -0.90625q-0.1875 -0.484375 -0.296875 -1.0q-0.09375 -0.53125 -0.09375 -1.046875l0 -0.6875q0 -0.78125 0.09375 -1.5625q0.09375 -0.78125 0.328125 -1.5q0.234375 -0.71875 0.625 -1.34375q0.40625 -0.640625 1.015625 -1.09375q0.609375 -0.46875 1.4375 -0.734375q0.84375 -0.265625 1.953125 -0.265625l0.125 0zm-1.890625 5.125q-0.359375 0 -0.703125 0.125q-0.34375 0.109375 -0.640625 0.328125q-0.296875 0.203125 -0.53125 0.5q-0.21875 0.296875 -0.359375 0.65625l0 0.484375q0 0.75 0.171875 1.34375q0.1875 0.578125 0.484375 0.984375q0.3125 0.390625 0.703125 0.59375q0.40625 0.203125 0.84375 0.203125q0.515625 0 0.90625 -0.1875q0.390625 -0.203125 0.65625 -0.546875q0.265625 -0.34375 0.40625 -0.8125q0.140625 -0.484375 0.140625 -1.046875q0 -0.5 -0.125 -0.96875q-0.125 -0.484375 -0.390625 -0.84375q-0.25 -0.375 -0.640625 -0.59375q-0.390625 -0.21875 -0.921875 -0.21875zm7.8515625 -0.125l1.03125 0q0.546875 0 0.96875 -0.140625q0.421875 -0.15625 0.703125 -0.40625q0.28125 -0.265625 0.421875 -0.625q0.15625 -0.359375 0.15625 -0.78125q0 -1.0 -0.515625 -1.5q-0.5 -0.5 -1.46875 -0.5q-0.46875 0 -0.84375 0.140625q-0.375 0.125 -0.65625 0.390625q-0.265625 0.25 -0.421875 0.609375q-0.140625 0.359375 -0.140625 0.8125l-1.453125 0q0 -0.65625 0.25 -1.21875q0.265625 -0.578125 0.71875 -1.0q0.46875 -0.4375 1.109375 -0.671875q0.640625 -0.25 1.4375 -0.25q0.765625 0 1.390625 0.203125q0.640625 0.203125 1.09375 0.609375q0.453125 0.40625 0.703125 1.015625q0.25 0.59375 0.25 1.390625q0 0.328125 -0.109375 0.6875q-0.09375 0.34375 -0.3125 0.671875q-0.203125 0.328125 -0.546875 0.625q-0.328125 0.296875 -0.78125 0.484375q0.546875 0.1875 0.921875 0.484375q0.375 0.28125 0.59375 0.640625q0.21875 0.359375 0.3125 0.765625q0.09375 0.390625 0.09375 0.78125q0 0.796875 -0.28125 1.421875q-0.265625 0.609375 -0.75 1.03125q-0.484375 0.421875 -1.15625 0.65625q-0.65625 0.21875 -1.421875 0.21875q-0.75 0 -1.40625 -0.203125q-0.65625 -0.21875 -1.140625 -0.625q-0.484375 -0.40625 -0.78125 -0.984375q-0.28125 -0.59375 -0.28125 -1.34375l1.453125 0q0 0.4375 0.140625 0.8125q0.15625 0.359375 0.4375 0.625q0.28125 0.25 0.6875 0.390625q0.40625 0.140625 0.890625 0.140625q0.5 0 0.890625 -0.125q0.40625 -0.125 0.6875 -0.390625q0.28125 -0.265625 0.421875 -0.65625q0.15625 -0.40625 0.15625 -0.9375q0 -0.53125 -0.171875 -0.921875q-0.171875 -0.390625 -0.5 -0.640625q-0.3125 -0.265625 -0.765625 -0.390625q-0.4375 -0.125 -0.984375 -0.125l-1.03125 0l0 -1.171875z" fill-rule="nonzero"/><path fill="#000000" fill-opacity="0.0" d="m5.602362 71.21785l137.98425 0l0 48.0l-137.98425 0z" fill-rule="evenodd"/><path fill="#000000" d="m32.537148 102.13785l-1.5937519 0l0 -6.125l-5.4375 0l0 6.125l-1.59375 0l0 -13.265625l1.59375 0l0 5.703125l5.4375 0l0 -5.703125l1.5937519 0l0 13.265625zm7.226822 0.1875q-1.03125 0 -1.90625 -0.359375q-0.875 -0.359375 -1.5 -0.984375q-0.609375 -0.640625 -0.953125 -1.515625q-0.34375 -0.875 -0.34375 -1.90625l0 -0.390625q0 -1.1875 0.375 -2.125q0.390625 -0.953125 1.015625 -1.59375q0.640625 -0.65625 1.4375 -1.0q0.8125 -0.34375 1.65625 -0.34375q1.0625 0 1.859375 0.375q0.796875 0.359375 1.328125 1.015625q0.53125 0.640625 0.78125 1.53125q0.265625 0.875 0.265625 1.90625l0 0.75l-7.03125 0q0.015625 0.6875 0.25 1.28125q0.234375 0.578125 0.640625 1.03125q0.40625 0.4375 0.96875 0.703125q0.5625 0.25 1.25 0.25q0.90625 0 1.59375 -0.359375q0.703125 -0.375 1.171875 -0.96875l1.03125 0.796875q-0.25 0.375 -0.625 0.71875q-0.359375 0.328125 -0.84375 0.59375q-0.484375 0.265625 -1.09375 0.421875q-0.609375 0.171875 -1.328125 0.171875zm-0.21875 -8.84375q-0.515625 0 -0.96875 0.1875q-0.453125 0.1875 -0.8125 0.546875q-0.359375 0.359375 -0.625 0.890625q-0.25 0.515625 -0.34375 1.203125l5.296875 0l0 -0.125q-0.015625 -0.5 -0.1875 -0.984375q-0.15625 -0.484375 -0.46875 -0.859375q-0.296875 -0.390625 -0.765625 -0.625q-0.46875 -0.234375 -1.125 -0.234375zm13.539322 8.65625q-0.09375 -0.1875 -0.15625 -0.46875q-0.0625 -0.296875 -0.09375 -0.609375q-0.25 0.265625 -0.5625 0.5q-0.3125 0.21875 -0.703125 0.390625q-0.375 0.171875 -0.8125 0.265625q-0.421875 0.109375 -0.890625 0.109375q-0.796875 0 -1.4375 -0.21875q-0.625 -0.234375 -1.0625 -0.625q-0.4375 -0.390625 -0.6875 -0.921875q-0.234375 -0.53125 -0.234375 -1.15625q0 -0.8125 0.3125 -1.421875q0.328125 -0.609375 0.921875 -1.015625q0.59375 -0.40625 1.421875 -0.59375q0.84375 -0.203125 1.875 -0.203125l1.828125 0l0 -0.78125q0 -0.453125 -0.171875 -0.796875q-0.15625 -0.359375 -0.453125 -0.609375q-0.296875 -0.25 -0.734375 -0.390625q-0.421875 -0.140625 -0.96875 -0.140625q-0.5 0 -0.90625 0.140625q-0.390625 0.125 -0.671875 0.34375q-0.265625 0.203125 -0.421875 0.484375q-0.140625 0.28125 -0.140625 0.59375l-1.6875 0q0 -0.53125 0.265625 -1.046875q0.28125 -0.53125 0.78125 -0.9375q0.5 -0.421875 1.21875 -0.671875q0.734375 -0.25 1.65625 -0.25q0.84375 0 1.5625 0.203125q0.71875 0.203125 1.234375 0.625q0.53125 0.40625 0.828125 1.03125q0.296875 0.609375 0.296875 1.4375l0 4.578125q0 0.5 0.09375 1.046875q0.09375 0.546875 0.25 0.96875l0 0.140625l-1.75 0zm-2.984375 -1.28125q0.5 0 0.921875 -0.125q0.4375 -0.140625 0.78125 -0.34375q0.34375 -0.203125 0.59375 -0.46875q0.265625 -0.28125 0.40625 -0.5625l0 -2.0l-1.5625 0q-1.46875 0 -2.296875 0.4375q-0.8125 0.4375 -0.8125 1.375q0 0.359375 0.125 0.671875q0.125 0.3125 0.359375 0.53125q0.25 0.21875 0.625 0.359375q0.375 0.125 0.859375 0.125zm16.023697 -3.53125q0 1.046875 -0.265625 1.96875q-0.25 0.90625 -0.75 1.59375q-0.484375 0.671875 -1.21875 1.0625q-0.71875 0.375 -1.640625 0.375q-0.90625 0 -1.59375 -0.296875q-0.6875 -0.296875 -1.171875 -0.84375l0 4.75l-1.6875 0l0 -13.65625l1.53125 0l0.09375 1.078125q0.484375 -0.609375 1.171875 -0.921875q0.703125 -0.328125 1.625 -0.328125q0.953125 0 1.671875 0.375q0.734375 0.359375 1.21875 1.03125q0.5 0.65625 0.75 1.59375q0.265625 0.921875 0.265625 2.015625l0 0.203125zm-1.6875 -0.203125q0 -0.71875 -0.171875 -1.359375q-0.15625 -0.65625 -0.484375 -1.15625q-0.328125 -0.5 -0.84375 -0.78125q-0.5 -0.296875 -1.21875 -0.296875q-0.8125 0 -1.359375 0.375q-0.546875 0.375 -0.875 0.96875l0 4.75q0.328125 0.578125 0.875 0.953125q0.546875 0.375 1.375 0.375q0.703125 0 1.203125 -0.296875q0.515625 -0.296875 0.84375 -0.796875q0.328125 -0.5 0.484375 -1.15625q0.171875 -0.65625 0.171875 -1.375l0 -0.203125zm13.195572 -0.84375q-0.015625 0.703125 -0.140625 1.4375q-0.109375 0.71875 -0.34375 1.390625q-0.234375 0.671875 -0.609375 1.265625q-0.359375 0.578125 -0.875 1.015625q-0.5 0.4375 -1.171875 0.6875q-0.65625 0.25 -1.46875 0.25q-0.828125 0 -1.484375 -0.25q-0.65625 -0.25 -1.171875 -0.6875q-0.515625 -0.4375 -0.890625 -1.03125q-0.375 -0.59375 -0.609375 -1.265625q-0.234375 -0.671875 -0.359375 -1.390625q-0.125 -0.71875 -0.125 -1.421875l0 -1.515625q0 -0.71875 0.109375 -1.4375q0.125 -0.71875 0.359375 -1.390625q0.25 -0.6875 0.609375 -1.265625q0.375 -0.59375 0.875 -1.03125q0.515625 -0.4375 1.171875 -0.6875q0.671875 -0.265625 1.484375 -0.265625q0.828125 0 1.484375 0.265625q0.671875 0.25 1.171875 0.6875q0.515625 0.4375 0.875 1.03125q0.375 0.578125 0.609375 1.25q0.25 0.671875 0.359375 1.40625q0.125 0.71875 0.140625 1.4375l0 1.515625zm-1.671875 -1.53125q-0.015625 -0.484375 -0.078125 -1.0q-0.046875 -0.515625 -0.1875 -1.015625q-0.125 -0.5 -0.34375 -0.953125q-0.21875 -0.46875 -0.546875 -0.8125q-0.328125 -0.359375 -0.78125 -0.5625q-0.4375 -0.203125 -1.03125 -0.203125q-0.578125 0 -1.03125 0.203125q-0.4375 0.203125 -0.765625 0.5625q-0.328125 0.34375 -0.546875 0.8125q-0.21875 0.453125 -0.359375 0.96875q-0.125 0.5 -0.1875 1.015625q-0.0625 0.515625 -0.0625 0.984375l0 1.53125q0 0.453125 0.0625 0.984375q0.0625 0.515625 0.203125 1.015625q0.140625 0.5 0.359375 0.96875q0.21875 0.46875 0.546875 0.828125q0.328125 0.34375 0.765625 0.5625q0.453125 0.203125 1.046875 0.203125q0.578125 0 1.03125 -0.203125q0.453125 -0.21875 0.78125 -0.5625q0.328125 -0.359375 0.53125 -0.8125q0.21875 -0.46875 0.34375 -0.96875q0.140625 -0.515625 0.1875 -1.03125q0.046875 -0.515625 0.0625 -0.984375l0 -1.53125zm12.586197 2.578125q0 1.046875 -0.265625 1.96875q-0.25 0.90625 -0.75 1.59375q-0.484375 0.671875 -1.203125 1.0625q-0.71875 0.375 -1.65625 0.375q-0.953125 0 -1.65625 -0.328125q-0.6875 -0.34375 -1.1875 -0.984375l-0.078125 1.125l-1.546875 0l0 -14.0l1.6875 0l0 5.203125q0.484375 -0.609375 1.15625 -0.921875q0.6875 -0.3125 1.609375 -0.3125q0.9375 0 1.65625 0.375q0.734375 0.359375 1.21875 1.03125q0.5 0.65625 0.75 1.59375q0.265625 0.921875 0.265625 2.015625l0 0.203125zm-1.6875 -0.203125q0 -0.71875 -0.140625 -1.359375q-0.140625 -0.65625 -0.453125 -1.15625q-0.3125 -0.5 -0.8125 -0.78125q-0.5 -0.296875 -1.21875 -0.296875q-0.4375 0 -0.8125 0.125q-0.359375 0.109375 -0.65625 0.3125q-0.28125 0.203125 -0.5 0.484375q-0.21875 0.265625 -0.375 0.59375l0 4.3125q0.15625 0.328125 0.375 0.609375q0.234375 0.28125 0.515625 0.5q0.296875 0.203125 0.65625 0.3125q0.375 0.109375 0.8125 0.109375q0.6875 0 1.1875 -0.28125q0.5 -0.296875 0.8125 -0.78125q0.3125 -0.5 0.453125 -1.140625q0.15625 -0.640625 0.15625 -1.359375l0 -0.203125zm5.664322 -4.84375l4.984375 0l0 9.921875q0 0.953125 -0.265625 1.671875q-0.265625 0.734375 -0.765625 1.234375q-0.484375 0.5 -1.203125 0.75q-0.71875 0.265625 -1.625 0.265625q-0.515625 0 -0.96875 -0.03125q-0.453125 -0.03125 -0.953125 -0.125l0.125 -1.390625q0.15625 0.03125 0.390625 0.046875q0.234375 0.03125 0.46875 0.046875q0.25 0.015625 0.46875 0.015625q0.21875 0 0.34375 0q0.484375 0 0.890625 -0.125q0.421875 -0.109375 0.734375 -0.40625q0.3125 -0.296875 0.484375 -0.78125q0.1875 -0.46875 0.1875 -1.171875l0 -8.453125l-3.296875 0l0 -1.46875zm3.0625 -2.59375q0 -0.40625 0.234375 -0.6875q0.25 -0.296875 0.765625 -0.296875q0.5 0 0.75 0.296875q0.265625 0.28125 0.265625 0.6875q0 0.40625 -0.265625 0.6875q-0.25 0.28125 -0.75 0.28125q-0.515625 0 -0.765625 -0.28125q-0.234375 -0.28125 -0.234375 -0.6875zm11.351822 12.640625q-1.03125 0 -1.90625 -0.359375q-0.875 -0.359375 -1.5 -0.984375q-0.609375 -0.640625 -0.953125 -1.515625q-0.34375 -0.875 -0.34375 -1.90625l0 -0.390625q0 -1.1875 0.375 -2.125q0.390625 -0.953125 1.015625 -1.59375q0.640625 -0.65625 1.4375 -1.0q0.8125 -0.34375 1.65625 -0.34375q1.0625 0 1.859375 0.375q0.796875 0.359375 1.328125 1.015625q0.53125 0.640625 0.78125 1.53125q0.265625 0.875 0.265625 1.90625l0 0.75l-7.03125 0q0.015625 0.6875 0.25 1.28125q0.234375 0.578125 0.640625 1.03125q0.40625 0.4375 0.96875 0.703125q0.5625 0.25 1.25 0.25q0.90625 0 1.59375 -0.359375q0.703125 -0.375 1.171875 -0.96875l1.03125 0.796875q-0.25 0.375 -0.625 0.71875q-0.359375 0.328125 -0.84375 0.59375q-0.484375 0.265625 -1.09375 0.421875q-0.609375 0.171875 -1.328125 0.171875zm-0.21875 -8.84375q-0.515625 0 -0.96875 0.1875q-0.453125 0.1875 -0.8125 0.546875q-0.359375 0.359375 -0.625 0.890625q-0.25 0.515625 -0.34375 1.203125l5.296875 0l0 -0.125q-0.015625 -0.5 -0.1875 -0.984375q-0.15625 -0.484375 -0.46875 -0.859375q-0.296875 -0.390625 -0.765625 -0.625q-0.46875 -0.234375 -1.125 -0.234375zm11.258072 7.46875q0.453125 0 0.890625 -0.140625q0.4375 -0.140625 0.765625 -0.40625q0.34375 -0.265625 0.546875 -0.609375q0.203125 -0.359375 0.21875 -0.765625l1.59375 0q-0.015625 0.65625 -0.34375 1.265625q-0.328125 0.59375 -0.890625 1.046875q-0.5625 0.4375 -1.28125 0.71875q-0.71875 0.265625 -1.5 0.265625q-1.109375 0 -1.953125 -0.40625q-0.84375 -0.40625 -1.40625 -1.078125q-0.546875 -0.6875 -0.84375 -1.5625q-0.28125 -0.890625 -0.28125 -1.875l0 -0.390625q0 -0.96875 0.28125 -1.859375q0.296875 -0.890625 0.84375 -1.5625q0.5625 -0.6875 1.40625 -1.078125q0.84375 -0.40625 1.953125 -0.40625q0.875 0 1.609375 0.28125q0.734375 0.265625 1.265625 0.75q0.53125 0.46875 0.828125 1.125q0.3125 0.65625 0.3125 1.40625l-1.59375 0q-0.015625 -0.453125 -0.203125 -0.84375q-0.1875 -0.390625 -0.515625 -0.6875q-0.3125 -0.3125 -0.75 -0.484375q-0.4375 -0.171875 -0.953125 -0.171875q-0.78125 0 -1.3125 0.3125q-0.53125 0.3125 -0.859375 0.828125q-0.328125 0.5 -0.46875 1.140625q-0.140625 0.625 -0.140625 1.25l0 0.390625q0 0.640625 0.140625 1.28125q0.140625 0.625 0.453125 1.140625q0.328125 0.5 0.859375 0.8125q0.53125 0.3125 1.328125 0.3125zm10.992439 -11.0625l0 2.390625l3.75 0l0 1.3125l-3.75 0l0 5.34375q0 0.578125 0.140625 0.953125q0.140625 0.375 0.390625 0.59375q0.265625 0.21875 0.59375 0.3125q0.34375 0.09375 0.71875 0.09375q0.265625 0 0.546875 -0.03125q0.296875 -0.03125 0.578125 -0.078125q0.28125 -0.046875 0.515625 -0.09375q0.25 -0.046875 0.40625 -0.09375l0.234375 1.203125q-0.21875 0.125 -0.515625 0.21875q-0.296875 0.09375 -0.65625 0.15625q-0.34375 0.078125 -0.75 0.109375q-0.390625 0.046875 -0.78125 0.046875q-0.65625 0 -1.234375 -0.1875q-0.5625 -0.1875 -0.984375 -0.59375q-0.42186737 -0.40625 -0.6718674 -1.046875q-0.234375 -0.640625 -0.234375 -1.5625l0 -5.34375l-2.578125 0l0 -1.3125l2.578125 0l0 -2.390625l1.7031174 0z" fill-rule="nonzero"/><path fill="#000000" fill-opacity="0.0" d="m5.61811 7.217848l137.98425 0l0 48.0l-137.98425 0z" fill-rule="evenodd"/><path fill="#000000" d="m109.5469 34.77847q0 -0.609375 -0.28125 -1.015625q-0.28125 -0.421875 -0.71875 -0.703125q-0.4375 -0.296875 -0.96875 -0.484375q-0.515625 -0.1875 -1.0 -0.34375q-0.703125 -0.2343731 -1.421875 -0.5468731q-0.71875 -0.328125 -1.328125 -0.78125q-0.59375 -0.46875 -0.96875 -1.09375q-0.375 -0.640625 -0.375 -1.5q0 -0.859375 0.375 -1.53125q0.375 -0.671875 0.984375 -1.140625q0.609375 -0.46875 1.375 -0.703125q0.78125 -0.25 1.578125 -0.25q0.859375 0 1.65625 0.296875q0.8125 0.28125 1.421875 0.8125q0.625 0.515625 1.0 1.25q0.375 0.734375 0.390625 1.640625l-1.734375 0q-0.078125 -0.5625 -0.28125 -1.03125q-0.203125 -0.46875 -0.5625 -0.8125q-0.34375 -0.34375 -0.828125 -0.515625q-0.46875 -0.1875 -1.0625 -0.1875q-0.484375 0 -0.953125 0.140625q-0.453125 0.125 -0.8125 0.40625q-0.359375 0.265625 -0.578125 0.671875q-0.21875 0.390625 -0.21875 0.921875q0.015625 0.578125 0.296875 0.984375q0.28125 0.390625 0.71875 0.671875q0.4375 0.265625 0.9375 0.453125q0.5 0.171875 0.953125 0.3125q0.484375 0.15625 0.984375 0.359375q0.5 0.1875 0.96875 0.4375q0.46875 0.25 0.859375 0.5781231q0.40625 0.3125 0.703125 0.71875q0.3125 0.40625 0.46875 0.890625q0.171875 0.484375 0.171875 1.078125q0 0.890625 -0.40625 1.5625q-0.390625 0.671875 -1.015625 1.109375q-0.625 0.4375 -1.421875 0.671875q-0.78125 0.21875 -1.578125 0.21875q-0.890625 0 -1.734375 -0.265625q-0.84375 -0.28125 -1.515625 -0.796875q-0.671875 -0.515625 -1.09375 -1.25q-0.40625 -0.75 -0.4375 -1.703125l1.71875 0q0.078125 0.625 0.328125 1.109375q0.265625 0.46875 0.65625 0.8125q0.40625 0.328125 0.921875 0.5q0.53125 0.15625 1.15625 0.15625q0.484375 0 0.96875 -0.125q0.484375 -0.125 0.84375 -0.375q0.375 -0.265625 0.609375 -0.65625q0.25 -0.40625 0.25 -0.953125zm5.023697 -6.499998l0.046875 0.9375q0.296875 -0.53125 0.78125 -0.8125q0.5 -0.296875 1.1875 -0.296875q1.359375 0 1.8125 1.046875q0.296875 -0.46875 0.765625 -0.75q0.484375 -0.296875 1.15625 -0.296875q1.09375 0 1.671875 0.671875q0.578125 0.65625 0.578125 2.0l0 7.359373l-1.59375 0l0 -7.374998q0 -1.25 -1.140625 -1.234375q-0.296875 0 -0.515625 0.09375q-0.21875 0.078125 -0.375 0.21875q-0.140625 0.140625 -0.21875 0.328125q-0.078125 0.1875 -0.109375 0.375l0 7.593748l-1.609375 0l0 -7.390623q0 -0.59375 -0.265625 -0.90625q-0.265625 -0.328125 -0.828125 -0.3125q-0.53125 0 -0.828125 0.21875q-0.28125 0.203125 -0.421875 0.546875l0 7.843748l-1.609375 0l0 -9.859373l1.515625 0zm10.679947 0l5.0468674 0l0 8.406248l3.21875 0l0 1.453125l-8.265617 0l0 -1.453125l3.3593674 0l0 -6.937498l-3.3593674 0l0 -1.46875zm3.1406174 -2.578125q0 -0.421875 0.25 -0.703125q0.25 -0.296875 0.765625 -0.296875q0.5 0 0.75 0.296875q0.25 0.28125 0.25 0.703125q0 0.40625 -0.25 0.6875q-0.25 0.265625 -0.75 0.265625q-0.515625 0 -0.765625 -0.265625q-0.25 -0.28125 -0.25 -0.6875z" fill-rule="nonzero"/></g></svg>