<svg viewBox="0 0 745.205 166.438" fill="none" stroke-linecap="square" stroke-miterlimit="10" xmlns="http://www.w3.org/2000/svg"><clipPath id="a"><path d="M0 0h745.205v166.438H0V0z"/></clipPath><g clip-path="url(#a)"><path d="M0 0h745.205v166.438H0z"/><path fill="#cfe2f3" d="M151.602 15.218h560v32h-560z" fill-rule="evenodd"/><path stroke="#000" stroke-linejoin="round" stroke-linecap="butt" d="M151.602 15.218h560v32h-560z"/><path fill="#cfe2f3" d="M151.602 79.218h560v32h-560z" fill-rule="evenodd"/><path stroke="#000" stroke-linejoin="round" stroke-linecap="butt" d="M151.602 79.218h560v32h-560z"/><path fill="#cfe2f3" d="M679.602 79.218h32v32h-32z" fill-rule="evenodd"/><path stroke="#000" stroke-linejoin="round" stroke-linecap="butt" d="M679.602 79.218h32v32h-32z"/><path fill="#000" d="M697.051 102.138h-1.687v-11.11l-3.469 1.313V90.81l5.031-1.938h.125v13.266z"/><path fill="#fce5cd" d="M151.602 79.218h528v32h-528z" fill-rule="evenodd"/><path stroke="#000" stroke-linejoin="round" stroke-linecap="butt" d="M151.602 79.218h528v32h-528z"/><path fill="#000" d="M384.34 98.7h-4.438l-1.062 3.438h-1.688l4.281-13.266h1.422l4.203 13.266h-1.671L384.34 98.7zm-3.985-1.468h3.532l-1.75-5.75-1.782 5.75zm8.524-.11q0-1.094.281-2.015.282-.938.782-1.594.515-.672 1.25-1.031.734-.375 1.625-.375.89 0 1.546.296.672.282 1.141.86v-5.125h1.688v14h-1.547l-.063-1.031q-.5.593-1.187.906-.672.312-1.594.312-.89 0-1.625-.375-.719-.39-1.234-1.062-.5-.688-.782-1.594-.28-.922-.28-1.969v-.203zm1.688.203q0 .72.156 1.36.156.64.469 1.14.328.485.828.782.5.28 1.203.28.437 0 .781-.093.344-.11.625-.297t.5-.437q.219-.266.375-.578v-4.579q-.328-.593-.89-.984-.547-.39-1.376-.39-.703 0-1.218.296-.5.282-.828.782-.313.5-.47 1.156-.155.64-.155 1.36v.202zm9.508-.203q0-1.094.28-2.015.282-.938.782-1.594.516-.672 1.25-1.031.734-.375 1.625-.375.89 0 1.547.296.672.282 1.14.86v-5.125h1.688v14h-1.547l-.062-1.031q-.5.593-1.188.906-.672.312-1.594.312-.89 0-1.625-.375-.718-.39-1.234-1.062-.5-.688-.781-1.594-.281-.922-.281-1.969v-.203zm1.687.203q0 .72.156 1.36.157.64.47 1.14.327.485.827.782.5.28 1.203.28.438 0 .782-.093.343-.11.625-.297.28-.187.5-.437.218-.266.375-.578v-4.579q-.329-.593-.891-.984-.547-.39-1.375-.39-.703 0-1.219.296-.5.282-.828.782-.312.5-.469 1.156-.156.64-.156 1.36v.202zm16.29-5.218q.234 0 .484.015.265 0 .484.031.235.032.422.079.203.046.344.109l-.235 1.64q-.484-.109-.937-.156-.438-.047-.922-.047-1.187 0-1.922.547-.734.532-1.078 1.485v6.328h-1.687v-9.86h1.593l.094 1.563q.594-.797 1.438-1.266.843-.468 1.921-.468zm9.086 10.218q-1.032 0-1.907-.359-.875-.36-1.5-.984-.609-.641-.953-1.516-.343-.875-.343-1.906v-.39q0-1.188.375-2.126.39-.953 1.015-1.594.64-.656 1.438-1 .812-.343 1.656-.343 1.062 0 1.86.375.796.359 1.327 1.015.532.64.782 1.531.265.875.265 1.907v.75h-7.031q.016.687.25 1.281.234.578.64 1.031.407.438.97.703.562.25 1.25.25.906 0 1.593-.359.703-.375 1.172-.969l1.031.797q-.25.375-.625.719-.36.328-.843.594-.485.265-1.094.421-.61.172-1.328.172zm-.22-8.843q-.515 0-.968.187-.453.188-.812.547-.36.36-.625.89-.25.516-.344 1.204h5.297v-.125q-.016-.5-.188-.985-.156-.484-.468-.859-.297-.39-.766-.625-.469-.234-1.125-.234zm13.618 6.046q0-.312-.125-.546-.125-.235-.406-.438t-.75-.375q-.453-.172-1.14-.297-.86-.187-1.563-.422-.688-.25-1.188-.593-.484-.344-.765-.797-.266-.469-.266-1.078 0-.594.281-1.11.282-.531.782-.922.515-.39 1.218-.609.704-.234 1.563-.234.906 0 1.625.234.734.234 1.25.656.516.406.781.969.281.562.281 1.219h-1.687q0-.328-.172-.625-.156-.313-.453-.547-.281-.235-.703-.375-.406-.156-.922-.156-.547 0-.953.125-.406.109-.672.312t-.406.469q-.14.265-.14.547 0 .281.108.515.11.235.375.422.282.172.735.328.453.141 1.14.266.907.203 1.625.453.72.25 1.204.61.5.343.75.812.265.453.265 1.062 0 .657-.297 1.204-.28.53-.812.921-.531.375-1.266.594-.734.203-1.61.203-1.015 0-1.796-.265-.781-.282-1.328-.719-.531-.438-.828-1.016-.282-.593-.282-1.218h1.688q.031.515.266.875.25.359.609.578.36.218.797.312.437.078.875.078 1.062 0 1.672-.39.625-.39.64-1.032zm11.196 0q0-.312-.125-.546-.125-.235-.406-.438-.282-.203-.75-.375-.453-.172-1.141-.297-.86-.187-1.562-.422-.688-.25-1.188-.593-.484-.344-.766-.797-.265-.469-.265-1.078 0-.594.281-1.11.281-.531.781-.922.516-.39 1.219-.609.703-.234 1.563-.234.906 0 1.625.234.734.234 1.25.656.515.406.78.969.282.562.282 1.219h-1.687q0-.328-.172-.625-.157-.313-.453-.547-.282-.235-.704-.375-.406-.156-.921-.156-.547 0-.954.125-.406.109-.671.312-.266.203-.407.469-.14.265-.14.547 0 .281.109.515.11.235.375.422.281.172.734.328.454.141 1.141.266.906.203 1.625.453t1.203.61q.5.343.75.812.266.453.266 1.062 0 .657-.297 1.204-.281.53-.813.921-.53.375-1.265.594-.735.203-1.61.203-1.015 0-1.796-.265-.782-.282-1.329-.719-.53-.438-.828-1.016-.281-.593-.281-1.218h1.688q.03.515.265.875.25.359.61.578.359.218.796.312.438.078.875.078 1.063 0 1.672-.39.625-.39.64-1.032z"/><path fill="#cfe2f3" d="M431.602 15.218h280v32h-280z" fill-rule="evenodd"/><path stroke="#000" stroke-linejoin="round" stroke-linecap="butt" d="M431.602 15.218h280v32h-280z"/><path fill="#000" d="M475.15 33.06q0 1.265-.296 2.25-.281.984-.828 1.656-.547.656-1.344 1.016-.781.343-1.813.343-1 0-1.796-.343-.797-.36-1.36-1.016-.562-.672-.86-1.656-.28-.985-.28-2.25v-3.11q0-1.265.28-2.234.298-.984.845-1.656.546-.672 1.343-1.016.797-.36 1.813-.36 1.015 0 1.812.36.797.344 1.344 1.016.563.672.844 1.656.297.969.297 2.234v3.11zm-6.89-.328l5.172-3.97q-.156-1.312-.781-2-.625-.687-1.797-.687-1.328 0-1.969.891-.625.89-.625 2.625v3.14zm5.203-2.36l-5.156 3.953q.156 1.282.781 1.953.64.672 1.781.672 1.344 0 1.97-.906.624-.906.624-2.625v-3.047zm12.883 2.688q0 1.265-.297 2.25-.28.984-.828 1.656-.547.656-1.343 1.016-.782.343-1.813.343-1 0-1.797-.343-.797-.36-1.36-1.016-.562-.672-.859-1.656-.28-.985-.28-2.25v-3.11q0-1.265.28-2.234.297-.984.844-1.656.547-.672 1.344-1.016.797-.36 1.812-.36 1.016 0 1.813.36.797.344 1.344 1.016.562.672.843 1.656.297.969.297 2.234v3.11zm-6.89-.328l5.172-3.97q-.157-1.312-.782-2-.625-.687-1.797-.687-1.328 0-1.968.891-.625.89-.625 2.625v3.14zm5.203-2.36l-5.156 3.953q.156 1.282.78 1.953.641.672 1.782.672 1.344 0 1.969-.906t.625-2.625v-3.047zm12.883 2.688q0 1.265-.297 2.25-.281.984-.828 1.656-.547.656-1.344 1.016-.781.343-1.812.343-1 0-1.797-.343-.797-.36-1.36-1.016-.562-.672-.86-1.656-.28-.985-.28-2.25v-3.11q0-1.265.28-2.234.298-.984.845-1.656.547-.672 1.343-1.016.797-.36 1.813-.36t1.812.36q.797.344 1.344 1.016.563.672.844 1.656.297.969.297 2.234v3.11zm-6.89-.328l5.171-3.97q-.156-1.312-.781-2-.625-.687-1.797-.687-1.328 0-1.969.891-.625.89-.625 2.625v3.14zm5.202-2.36l-5.156 3.953q.156 1.282.781 1.953.64.672 1.782.672 1.343 0 1.968-.906t.625-2.625v-3.047zm12.883 2.688q0 1.265-.296 2.25-.282.984-.829 1.656-.546.656-1.343 1.016-.782.343-1.813.343-1 0-1.797-.343-.797-.36-1.36-1.016-.562-.672-.858-1.656-.282-.985-.282-2.25v-3.11q0-1.265.282-2.234.296-.984.843-1.656.547-.672 1.344-1.016.797-.36 1.813-.36 1.015 0 1.812.36.797.344 1.344 1.016.562.672.844 1.656.296.969.296 2.234v3.11zm-6.89-.328l5.172-3.97q-.157-1.312-.782-2-.625-.687-1.796-.687-1.329 0-1.97.891-.624.89-.624 2.625v3.14zm5.203-2.36l-5.156 3.953q.156 1.282.78 1.953.642.672 1.782.672 1.344 0 1.969-.906t.625-2.625v-3.047zm12.883 2.688q0 1.265-.297 2.25-.281.984-.828 1.656-.547.656-1.344 1.016-.781.343-1.812.343-1 0-1.797-.343-.797-.36-1.36-1.016-.562-.672-.859-1.656-.281-.985-.281-2.25v-3.11q0-1.265.281-2.234.297-.984.844-1.656.547-.672 1.344-1.016.796-.36 1.812-.36t1.813.36q.796.344 1.343 1.016.563.672.844 1.656.297.969.297 2.234v3.11zm-6.89-.328l5.171-3.97q-.156-1.312-.781-2-.625-.687-1.797-.687-1.328 0-1.969.891-.625.89-.625 2.625v3.14zm5.202-2.36l-5.156 3.953q.156 1.282.781 1.953.641.672 1.782.672 1.343 0 1.968-.906t.625-2.625v-3.047zm12.884 2.688q0 1.265-.297 2.25-.282.984-.828 1.656-.547.656-1.344 1.016-.781.343-1.813.343-1 0-1.797-.343-.796-.36-1.359-1.016-.562-.672-.86-1.656-.28-.985-.28-2.25v-3.11q0-1.265.28-2.234.298-.984.844-1.656.547-.672 1.344-1.016.797-.36 1.813-.36 1.015 0 1.812.36.797.344 1.344 1.016.562.672.844 1.656.297.969.297 2.234v3.11zm-6.891-.328l5.172-3.97q-.156-1.312-.781-2-.625-.687-1.797-.687-1.328 0-1.97.891-.624.89-.624 2.625v3.14zm5.203-2.36l-5.156 3.953q.156 1.282.781 1.953.64.672 1.781.672 1.344 0 1.969-.906t.625-2.625v-3.047zm12.883 2.688q0 1.265-.297 2.25-.281.984-.828 1.656-.547.656-1.344 1.016-.78.343-1.812.343-1 0-1.797-.343-.797-.36-1.36-1.016-.562-.672-.859-1.656-.281-.985-.281-2.25v-3.11q0-1.265.281-2.234.297-.984.844-1.656.547-.672 1.344-1.016.797-.36 1.812-.36 1.016 0 1.813.36.797.344 1.343 1.016.563.672.844 1.656.297.969.297 2.234v3.11zm-6.89-.328l5.171-3.97q-.156-1.312-.78-2-.626-.687-1.798-.687-1.328 0-1.969.891-.625.89-.625 2.625v3.14zm5.203-2.36l-5.157 3.953q.157 1.282.782 1.953.64.672 1.78.672 1.345 0 1.97-.906t.625-2.625v-3.047zm12.883 2.688q0 1.265-.297 2.25-.281.984-.828 1.656-.547.656-1.344 1.016-.781.343-1.813.343-1 0-1.796-.343-.797-.36-1.36-1.016-.562-.672-.86-1.656-.28-.985-.28-2.25v-3.11q0-1.265.28-2.234.298-.984.845-1.656.546-.672 1.343-1.016.797-.36 1.813-.36 1.015 0 1.812.36.797.344 1.344 1.016.563.672.844 1.656.297.969.297 2.234v3.11zm-6.891-.328l5.172-3.97q-.156-1.312-.781-2-.625-.687-1.797-.687-1.328 0-1.969.891-.625.89-.625 2.625v3.14zm5.203-2.36l-5.156 3.953q.156 1.282.781 1.953.64.672 1.781.672 1.344 0 1.97-.906.624-.906.624-2.625v-3.047zm16.688 6.672q0-.266.078-.5.094-.25.25-.422.172-.187.422-.281.25-.094.578-.094.328 0 .578.094.25.094.407.281.172.172.25.422.093.234.093.5t-.093.5q-.078.234-.25.406-.157.172-.407.266-.25.094-.578.094-.328 0-.578-.094-.25-.094-.422-.266-.156-.172-.25-.406-.078-.234-.078-.5zm3 0q0-.266.078-.5.094-.25.25-.422.172-.187.422-.281.25-.094.578-.094.328 0 .578.094.25.094.407.281.172.172.25.422.093.234.093.5t-.093.5q-.078.234-.25.406-.157.172-.407.266-.25.094-.578.094-.328 0-.578-.094-.25-.094-.422-.266-.156-.172-.25-.406-.078-.234-.078-.5zm4 0q0-.266.078-.5.094-.25.25-.422.172-.187.422-.281.25-.094.578-.094.328 0 .578.094.25.094.407.281.172.172.25.422.093.234.093.5t-.093.5q-.078.234-.25.406-.157.172-.407.266-.25.094-.578.094-.328 0-.578-.094-.25-.094-.422-.266-.156-.172-.25-.406-.078-.234-.078-.5zm22.782-3.984q0 1.265-.297 2.25-.281.984-.828 1.656-.547.656-1.344 1.016-.781.343-1.812.343-1 0-1.797-.343-.797-.36-1.36-1.016-.562-.672-.859-1.656-.281-.985-.281-2.25v-3.11q0-1.265.281-2.234.297-.984.844-1.656.547-.672 1.344-1.016.797-.36 1.812-.36 1.016 0 1.813.36.797.344 1.343 1.016.563.672.844 1.656.297.969.297 2.234v3.11zm-6.89-.328l5.171-3.97q-.156-1.312-.781-2-.625-.687-1.797-.687-1.328 0-1.969.891-.625.89-.625 2.625v3.14zm5.203-2.36l-5.157 3.953q.157 1.282.782 1.953.64.672 1.78.672 1.345 0 1.97-.906t.625-2.625v-3.047zm12.883 2.688q0 1.265-.297 2.25-.282.984-.828 1.656-.547.656-1.344 1.016-.781.343-1.813.343-1 0-1.797-.343-.796-.36-1.359-1.016-.562-.672-.86-1.656-.28-.985-.28-2.25v-3.11q0-1.265.28-2.234.298-.984.844-1.656.547-.672 1.344-1.016.797-.36 1.813-.36 1.015 0 1.812.36.797.344 1.344 1.016.562.672.844 1.656.297.969.297 2.234v3.11zm-6.891-.328l5.172-3.97q-.156-1.312-.781-2-.625-.687-1.797-.687-1.328 0-1.97.891-.624.89-.624 2.625v3.14zm5.203-2.36l-5.156 3.953q.156 1.282.781 1.953.64.672 1.781.672 1.344 0 1.97-.906.624-.906.624-2.625v-3.047zm12.883 2.688q0 1.265-.297 2.25-.281.984-.828 1.656-.547.656-1.344 1.016-.78.343-1.812.343-1 0-1.797-.343-.797-.36-1.36-1.016-.562-.672-.859-1.656-.281-.985-.281-2.25v-3.11q0-1.265.281-2.234.297-.984.844-1.656.547-.672 1.344-1.016.797-.36 1.812-.36 1.016 0 1.813.36.797.344 1.343 1.016.563.672.844 1.656.297.969.297 2.234v3.11zm-6.89-.328l5.171-3.97q-.156-1.312-.78-2-.626-.687-1.798-.687-1.328 0-1.969.891-.625.89-.625 2.625v3.14zm5.203-2.36l-5.157 3.953q.157 1.282.782 1.953.64.672 1.78.672 1.345 0 1.97-.906t.625-2.625v-3.047zm12.883 2.688q0 1.265-.297 2.25-.281.984-.828 1.656-.547.656-1.344 1.016-.781.343-1.813.343-1 0-1.796-.343-.797-.36-1.36-1.016-.562-.672-.86-1.656-.28-.985-.28-2.25v-3.11q0-1.265.28-2.234.298-.984.845-1.656.546-.672 1.343-1.016.797-.36 1.813-.36 1.015 0 1.812.36.797.344 1.344 1.016.563.672.844 1.656.297.969.297 2.234v3.11zm-6.89-.328l5.17-3.97q-.155-1.312-.78-2-.625-.687-1.797-.687-1.328 0-1.969.891-.625.89-.625 2.625v3.14zm5.202-2.36l-5.156 3.953q.156 1.282.781 1.953.64.672 1.781.672 1.344 0 1.97-.906.624-.906.624-2.625v-3.047zm12.883 2.688q0 1.265-.297 2.25-.28.984-.828 1.656-.547.656-1.343 1.016-.782.343-1.813.343-1 0-1.797-.343-.797-.36-1.36-1.016-.562-.672-.859-1.656-.28-.985-.28-2.25v-3.11q0-1.265.28-2.234.297-.984.844-1.656.547-.672 1.344-1.016.797-.36 1.812-.36 1.016 0 1.813.36.797.344 1.344 1.016.562.672.843 1.656.297.969.297 2.234v3.11zm-6.89-.328l5.172-3.97q-.157-1.312-.782-2-.625-.687-1.797-.687-1.328 0-1.968.891-.625.89-.625 2.625v3.14zm5.203-2.36l-5.156 3.953q.156 1.282.78 1.953.641.672 1.782.672 1.344 0 1.969-.906t.625-2.625v-3.047zm12.883 2.688q0 1.265-.297 2.25-.281.984-.828 1.656-.547.656-1.344 1.016-.781.343-1.812.343-1 0-1.797-.343-.797-.36-1.36-1.016-.562-.672-.859-1.656-.281-.985-.281-2.25v-3.11q0-1.265.281-2.234.297-.984.844-1.656.547-.672 1.343-1.016.797-.36 1.813-.36t1.812.36q.797.344 1.344 1.016.563.672.844 1.656.297.969.297 2.234v3.11zm-6.89-.328l5.171-3.97q-.156-1.312-.781-2-.625-.687-1.797-.687-1.328 0-1.969.891-.625.89-.625 2.625v3.14zm5.202-2.36l-5.156 3.953q.156 1.282.781 1.953.641.672 1.782.672 1.343 0 1.968-.906t.625-2.625v-3.047zm12.883 2.688q0 1.265-.296 2.25-.282.984-.829 1.656-.546.656-1.343 1.016-.782.343-1.813.343-1 0-1.797-.343-.797-.36-1.36-1.016-.562-.672-.858-1.656-.282-.985-.282-2.25v-3.11q0-1.265.282-2.234.296-.984.843-1.656.547-.672 1.344-1.016.797-.36 1.813-.36 1.015 0 1.812.36.797.344 1.344 1.016.562.672.844 1.656.296.969.296 2.234v3.11zm-6.89-.328l5.172-3.97q-.157-1.312-.782-2-.625-.687-1.796-.687-1.329 0-1.97.891-.624.89-.624 2.625v3.14zm5.203-2.36l-5.156 3.953q.156 1.282.78 1.953.642.672 1.782.672 1.344 0 1.969-.906t.625-2.625v-3.047zm12.883 2.688q0 1.265-.297 2.25-.281.984-.828 1.656-.547.656-1.344 1.016-.781.343-1.812.343-1 0-1.797-.343-.797-.36-1.36-1.016-.562-.672-.859-1.656-.281-.985-.281-2.25v-3.11q0-1.265.281-2.234.297-.984.844-1.656.547-.672 1.344-1.016.796-.36 1.812-.36t1.813.36q.796.344 1.343 1.016.563.672.844 1.656.297.969.297 2.234v3.11zm-6.89-.328l5.171-3.97q-.156-1.312-.781-2-.625-.687-1.797-.687-1.328 0-1.969.891-.625.89-.625 2.625v3.14zm5.202-2.36l-5.156 3.953q.156 1.282.781 1.953.641.672 1.782.672 1.343 0 1.968-.906t.625-2.625v-3.047z"/><path fill="#fce5cd" d="M151.602 15.218h280v32h-280z" fill-rule="evenodd"/><path stroke="#000" stroke-linejoin="round" stroke-linecap="butt" d="M151.602 15.218h280v32h-280z"/><path fill="#000" d="M193.771 34.778q0-.609-.281-1.015-.281-.422-.719-.703-.437-.297-.969-.485-.515-.187-1-.343-.703-.235-1.422-.547-.718-.328-1.328-.782-.593-.468-.968-1.093-.375-.64-.375-1.5t.375-1.532q.375-.671.984-1.14.61-.469 1.375-.703.781-.25 1.578-.25.86 0 1.656.297.813.28 1.422.812.625.516 1 1.25t.39 1.64h-1.734q-.078-.562-.28-1.03-.204-.47-.563-.813-.344-.344-.828-.516-.47-.187-1.063-.187-.484 0-.953.14-.453.125-.813.407-.359.265-.578.672-.218.39-.218.921.015.579.296.985.282.39.72.672.437.265.937.453.5.172.953.312.484.157.984.36.5.187.969.437t.86.578q.406.313.702.72.313.405.47.89.171.484.171 1.078 0 .89-.406 1.562-.39.672-1.016 1.11-.625.437-1.422.672-.78.218-1.578.218-.89 0-1.734-.265-.844-.282-1.516-.797-.672-.516-1.094-1.25-.406-.75-.437-1.703h1.719q.078.625.328 1.11.265.468.656.812.406.328.922.5.531.156 1.156.156.485 0 .969-.125t.844-.375q.375-.266.61-.656.25-.407.25-.954zm4.508-6.5h5.047v8.407h3.219v1.453h-8.266v-1.453h3.36v-6.938h-3.36v-1.469zm3.14-2.578q0-.422.25-.703.25-.297.766-.297.5 0 .75.297.25.281.25.703 0 .407-.25.688-.25.265-.75.265-.515 0-.765-.265-.25-.281-.25-.688zm7.493 7.422q0-1.094.266-2.015.266-.938.766-1.594.515-.672 1.25-1.031.734-.375 1.64-.375.922 0 1.61.328.687.312 1.171.922l.079-1.079h1.53v9.657q0 .968-.312 1.718-.297.766-.86 1.282-.546.531-1.312.797-.765.28-1.687.28-.39 0-.89-.093-.485-.078-.985-.281-.5-.188-.969-.516t-.812-.812l.875-1q.312.375.64.625.328.265.657.422.343.156.671.218.344.063.688.063.594 0 1.078-.172.484-.172.828-.5t.516-.828q.187-.485.187-1.125v-.844q-.484.563-1.156.86-.672.296-1.562.296-.891 0-1.625-.375-.735-.39-1.235-1.062-.5-.688-.781-1.594-.266-.922-.266-1.969v-.203zm1.672.203q0 .72.156 1.36.157.64.47 1.14.327.485.827.782.5.28 1.203.28.438 0 .782-.093.359-.11.64-.297.282-.203.5-.469.219-.265.375-.578v-4.515q-.156-.313-.375-.563-.218-.265-.515-.453-.282-.187-.625-.281-.344-.11-.766-.11-.703 0-1.219.297-.5.282-.828.782-.312.5-.469 1.156-.156.64-.156 1.36v.202zm11.336-5.047l.125 1.454q.532-.766 1.313-1.188.781-.437 1.75-.437.781 0 1.406.218.64.22 1.078.688.453.453.688 1.172.25.718.25 1.687v6.266h-1.688v-6.219q0-.656-.156-1.11-.14-.452-.422-.734-.281-.297-.703-.422-.406-.125-.953-.125-.844 0-1.485.422-.64.422-1.03 1.125v7.063h-1.688v-9.86h1.515zm14.04 10.047q-1.032 0-1.907-.359-.875-.36-1.5-.984-.609-.641-.953-1.516-.343-.875-.343-1.906v-.39q0-1.188.375-2.126.39-.953 1.015-1.594.64-.656 1.438-1 .812-.343 1.656-.343 1.062 0 1.86.375.796.359 1.327 1.015.532.64.782 1.531.265.875.265 1.907v.75h-7.031q.016.687.25 1.281.234.578.64 1.031.407.438.97.703.562.25 1.25.25.906 0 1.593-.359.703-.375 1.172-.969l1.031.797q-.25.375-.625.719-.36.328-.843.594-.485.265-1.094.421-.61.172-1.328.172zm-.22-8.843q-.515 0-.968.187-.453.188-.812.547-.36.36-.625.89-.25.516-.344 1.204h5.297v-.125q-.016-.5-.188-.985-.156-.484-.468-.859-.297-.39-.766-.625-.469-.234-1.125-.234zm6.743 3.64q0-1.094.282-2.015.28-.938.78-1.594.516-.672 1.25-1.031.735-.375 1.626-.375.89 0 1.547.296.672.282 1.14.86v-5.125h1.688v14h-1.547l-.063-1.031q-.5.593-1.187.906-.672.312-1.594.312-.89 0-1.625-.375-.719-.39-1.234-1.062-.5-.688-.781-1.594-.282-.922-.282-1.969v-.203zm1.688.203q0 .72.156 1.36.156.64.469 1.14.328.485.828.782.5.28 1.203.28.438 0 .781-.093.344-.11.625-.297.282-.187.5-.437.22-.266.375-.578v-4.579q-.328-.593-.89-.984-.547-.39-1.375-.39-.703 0-1.219.296-.5.282-.828.782-.313.5-.469 1.156-.156.64-.156 1.36v.202zm22.985-2.625h1.203q.64 0 1.125-.172.5-.171.828-.468.328-.313.5-.735t.172-.922q0-1.156-.594-1.734-.594-.594-1.719-.594-.546 0-.984.172-.437.156-.766.453-.312.297-.484.72-.172.421-.172.937h-1.687q0-.766.297-1.422.296-.672.828-1.172.53-.5 1.28-.781.767-.297 1.688-.297.891 0 1.625.25.735.234 1.266.718.531.47.813 1.172.296.703.296 1.625 0 .375-.125.797-.109.406-.359.797-.25.375-.64.719-.376.344-.922.562.656.22 1.078.563.437.328.703.75.265.422.36.89.109.454.109.907 0 .937-.329 1.656-.312.719-.875 1.219-.562.484-1.343.75-.766.265-1.657.265-.875 0-1.64-.25-.766-.25-1.344-.718-.562-.47-.89-1.157-.329-.687-.329-1.562h1.688q0 .515.172.953.172.422.5.734.328.297.797.47.468.155 1.046.155.579 0 1.032-.156.468-.156.797-.453.328-.313.5-.766.187-.468.187-1.093t-.203-1.079q-.203-.453-.578-.75-.36-.296-.89-.437-.516-.156-1.157-.156h-1.203V30.7zm17.367 7.438h-8.687v-1.219l4.343-4.828q.579-.64.97-1.14.39-.5.624-.923.25-.421.344-.796.11-.391.11-.782 0-.5-.173-.922-.156-.437-.468-.75-.297-.328-.735-.515-.422-.188-.968-.188-.672 0-1.157.203-.484.188-.812.532-.328.343-.485.86-.156.5-.156 1.108h-1.687q0-.828.28-1.562.298-.75.845-1.313.547-.562 1.343-.89.797-.328 1.829-.328.937 0 1.687.281t1.266.781q.515.485.797 1.156.28.672.28 1.47 0 .593-.202 1.171-.203.578-.547 1.14-.328.563-.781 1.126-.454.547-.954 1.093l-3.562 3.86h6.656v1.375zm10.43-5.11h-6.969v-1.39h6.97v1.39zm12.19.297q0 1.047-.266 1.97-.25.905-.75 1.593-.485.672-1.204 1.062-.718.375-1.656.375-.953 0-1.656-.328-.688-.344-1.188-.984l-.078 1.125h-1.547v-14h1.688v5.203q.484-.61 1.156-.922.688-.312 1.61-.312.937 0 1.656.375.734.359 1.219 1.03.5.657.75 1.595.265.921.265 2.015v.203zm-1.688-.203q0-.719-.14-1.36-.142-.655-.454-1.155-.313-.5-.813-.782-.5-.297-1.218-.297-.438 0-.813.125-.36.11-.656.313-.281.203-.5.484-.219.266-.375.594v4.313q.156.328.375.609.234.281.516.5.296.203.656.312.375.11.812.11.688 0 1.188-.281.5-.297.812-.782.313-.5.453-1.14.157-.64.157-1.36v-.203zm4.789-4.844h5.047v8.407h3.219v1.453h-8.266v-1.453h3.36v-6.938h-3.36v-1.469zm3.14-2.578q0-.422.25-.703.25-.297.766-.297.5 0 .75.297.25.281.25.703 0 .407-.25.688-.25.265-.75.265-.515 0-.765-.265-.25-.281-.25-.688zm11.79.188v2.39h3.75v1.313h-3.75v5.344q0 .578.14.953.141.375.391.594.266.218.594.312.344.094.719.094.265 0 .547-.031.296-.032.578-.079.281-.046.515-.093.25-.047.407-.094l.234 1.203q-.219.125-.516.219-.297.094-.656.156-.344.078-.75.11-.39.046-.781.046-.656 0-1.235-.187-.562-.188-.984-.594-.422-.406-.672-1.047-.234-.64-.234-1.562V29.59h-2.578v-1.313h2.578v-2.39h1.703zm22.376 9.531l3.125-10.547h1.796l-4.187 13.266h-1.453l-4.203-13.266h1.812l3.11 10.547zm13.695 2.719q-.094-.188-.156-.469-.063-.297-.094-.61-.25.266-.562.5-.313.22-.704.391-.375.172-.812.266-.422.11-.89.11-.798 0-1.438-.22-.625-.234-1.063-.624-.437-.391-.687-.922-.235-.532-.235-1.157 0-.812.313-1.421.328-.61.922-1.016.594-.406 1.422-.594.843-.203 1.875-.203h1.828v-.781q0-.453-.172-.797-.156-.36-.453-.61-.297-.25-.735-.39-.421-.14-.968-.14-.5 0-.907.14-.39.125-.671.344-.266.203-.422.484-.14.281-.14.594h-1.688q0-.531.265-1.047.281-.531.781-.938.5-.421 1.22-.671.734-.25 1.655-.25.844 0 1.563.203t1.234.625q.532.406.828 1.031.297.61.297 1.437v4.579q0 .5.094 1.046.094.547.25.97v.14h-1.75zm-2.984-1.281q.5 0 .922-.125.437-.141.78-.344.345-.203.595-.469.265-.281.406-.562v-2H359.4q-1.468 0-2.297.437-.812.438-.812 1.375 0 .36.125.672.125.312.36.531.25.219.624.36.375.125.86.125zm7.96-12.72h5.048v12.548h3.219v1.453h-8.266v-1.453h3.36V25.607h-3.36v-1.47zm17.337 12.641q-.5.735-1.234 1.141-.735.406-1.703.406-.782 0-1.407-.234-.625-.25-1.078-.766-.437-.515-.687-1.297-.235-.78-.235-1.89v-5.86h1.688v5.875q0 .813.125 1.344.125.516.375.828.265.313.625.453.375.125.86.125 1.03 0 1.655-.421.641-.422.954-1.125v-7.079h1.687v9.86h-1.531l-.094-1.36zm9.149 1.547q-1.031 0-1.906-.359-.875-.36-1.5-.984-.61-.641-.954-1.516-.343-.875-.343-1.906v-.39q0-1.188.375-2.126.39-.953 1.015-1.594.64-.656 1.438-1 .812-.343 1.656-.343 1.063 0 1.86.375.796.359 1.328 1.015.53.64.78 1.531.266.875.266 1.907v.75h-7.03q.015.687.25 1.281.234.578.64 1.031.406.438.969.703.562.25 1.25.25.906 0 1.593-.359.703-.375 1.172-.969l1.031.797q-.25.375-.625.719-.359.328-.843.594-.485.265-1.094.421-.61.172-1.328.172zm-.219-8.843q-.516 0-.969.187-.453.188-.812.547-.36.36-.625.89-.25.516-.344 1.204h5.297v-.125q-.016-.5-.188-.985-.156-.484-.468-.859-.297-.39-.766-.625-.469-.234-1.125-.234z"/><path d="M431.602 111.218v16"/><path stroke="#000" stroke-linejoin="round" stroke-linecap="butt" d="M431.602 111.218v16"/><path d="M711.602 111.218v16"/><path stroke="#000" stroke-linejoin="round" stroke-linecap="butt" d="M711.602 111.218v16"/><path d="M151.602 111.218v16"/><path stroke="#000" stroke-linejoin="round" stroke-linecap="butt" d="M151.602 111.218v16"/><path d="M683.602 119.218h56v40h-56z"/><path fill="#000" d="M715.302 139.218q0 1.094-.25 1.938-.25.828-.72 1.406-.468.578-1.155.875-.672.297-1.547.297-.86 0-1.547-.297-.688-.297-1.172-.875-.469-.578-.719-1.406-.25-.844-.25-1.938v-2.656q0-1.094.25-1.922.25-.843.719-1.422.469-.578 1.156-.875.688-.312 1.547-.312.875 0 1.563.312.687.297 1.156.875.469.579.719 1.422.25.828.25 1.922v2.656zm-5.907-.28l4.422-3.407q-.125-1.125-.656-1.719-.531-.594-1.547-.594-1.14 0-1.687.782-.532.765-.532 2.234v2.703zm4.453-2.016l-4.421 3.375q.14 1.109.687 1.687.547.578 1.516.578 1.156 0 1.687-.781.531-.781.531-2.25v-2.61z"/><path d="M404.602 119.218h56v40h-56z"/><path fill="#000" d="M426.048 137.187h1.03q.548 0 .97-.14.422-.157.703-.407.281-.265.422-.625.156-.359.156-.78 0-1-.516-1.5-.5-.5-1.468-.5-.47 0-.844.14-.375.125-.656.39-.266.25-.422.61-.141.36-.141.812h-1.453q0-.656.25-1.219.266-.578.719-1 .468-.437 1.109-.671.64-.25 1.438-.25.765 0 1.39.203.64.203 1.094.61.453.405.703 1.015.25.593.25 1.39 0 .328-.11.688-.093.344-.312.672-.203.328-.547.625-.328.297-.781.484.547.188.922.484.375.282.594.641.218.36.312.766.094.39.094.781 0 .797-.281 1.422-.266.61-.75 1.031-.485.422-1.157.656-.656.22-1.421.22-.75 0-1.407-.204-.656-.219-1.14-.625-.485-.406-.782-.984-.28-.594-.28-1.344h1.452q0 .437.14.812.157.36.438.625.282.25.688.391.406.14.89.14.5 0 .891-.124.406-.125.688-.391.28-.266.422-.656.156-.407.156-.938 0-.531-.172-.922-.172-.39-.5-.64-.313-.266-.766-.39-.437-.126-.984-.126h-1.031v-1.172zm12.601 6.39h-1.437v-9.53l-2.985 1.125v-1.313l4.313-1.656h.11v11.375z"/><path d="M123.602 119.218h56v40h-56z"/><path fill="#000" d="M148.688 132.187v1.297h-.125q-.718 0-1.28.156-.563.141-1 .407-.423.25-.735.609-.313.36-.516.781-.203.422-.312.89-.11.454-.141.923.203-.235.469-.438.265-.219.578-.36.312-.155.656-.25.36-.093.75-.093.86 0 1.469.328.625.328 1.015.86.407.53.594 1.203.188.672.188 1.36 0 .796-.235 1.5-.218.702-.672 1.233-.437.532-1.093.844-.657.297-1.532.297-.609 0-1.125-.172-.515-.187-.921-.5-.407-.312-.72-.734-.296-.422-.5-.906-.187-.485-.296-1-.094-.532-.094-1.047v-.688q0-.781.094-1.562.094-.782.328-1.5.234-.719.625-1.344.406-.64 1.016-1.094.609-.469 1.437-.734.844-.266 1.953-.266h.125zm-1.89 5.125q-.36 0-.703.125-.344.11-.641.328-.297.203-.531.5-.22.297-.36.657v.484q0 .75.172 1.344.188.578.485.984.312.39.703.594.406.203.843.203.516 0 .907-.188.39-.203.656-.546.266-.344.406-.813.14-.484.14-1.047 0-.5-.124-.969-.125-.484-.39-.843-.25-.375-.641-.594-.391-.219-.922-.219zm7.851-.125h1.031q.547 0 .97-.14.421-.157.702-.407.282-.265.422-.625.156-.359.156-.78 0-1-.515-1.5-.5-.5-1.469-.5-.469 0-.844.14-.375.125-.656.39-.266.25-.422.61-.14.36-.14.812h-1.454q0-.656.25-1.219.266-.578.72-1 .468-.437 1.109-.671.64-.25 1.437-.25.766 0 1.39.203.641.203 1.094.61.454.405.704 1.015.25.593.25 1.39 0 .328-.11.688-.094.344-.312.672-.203.328-.547.625-.328.297-.781.484.546.188.921.484.375.282.594.641.219.36.313.766.093.39.093.781 0 .797-.28 1.422-.266.61-.75 1.031-.485.422-1.157.656-.656.22-1.422.22-.75 0-1.406-.204-.656-.219-1.14-.625-.485-.406-.782-.984-.281-.594-.281-1.344h1.453q0 .437.14.812.157.36.438.625.281.25.687.391.407.14.891.14.5 0 .89-.124.407-.125.688-.391.281-.266.422-.656.156-.407.156-.938 0-.531-.172-.922-.171-.39-.5-.64-.312-.266-.765-.39-.438-.126-.985-.126h-1.03v-1.172z"/><path d="M5.602 71.218h137.985v48H5.602z"/><path fill="#000" d="M32.537 102.138h-1.594v-6.125h-5.437v6.125h-1.594V88.872h1.594v5.703h5.437v-5.703h1.594v13.266zm7.227.187q-1.031 0-1.906-.359-.875-.36-1.5-.984-.61-.641-.953-1.516-.344-.875-.344-1.906v-.39q0-1.188.375-2.126.39-.953 1.015-1.594.641-.656 1.438-1 .812-.343 1.656-.343 1.063 0 1.86.375.796.359 1.328 1.015.531.64.781 1.531.266.875.266 1.907v.75h-7.032q.016.687.25 1.281.235.578.641 1.031.406.438.969.703.562.25 1.25.25.906 0 1.593-.359.704-.375 1.172-.969l1.032.797q-.25.375-.625.719-.36.328-.844.594-.485.265-1.094.421-.61.172-1.328.172zm-.219-8.843q-.515 0-.969.187-.453.188-.812.547-.36.36-.625.89-.25.516-.344 1.204h5.297v-.125q-.016-.5-.187-.985-.157-.484-.47-.859-.296-.39-.765-.625-.469-.234-1.125-.234zm13.54 8.656q-.094-.188-.157-.469-.062-.297-.093-.61-.25.266-.563.5-.312.22-.703.391-.375.172-.813.266-.421.11-.89.11-.797 0-1.438-.22-.625-.234-1.062-.624-.438-.391-.688-.922-.234-.532-.234-1.157 0-.812.312-1.421.329-.61.922-1.016.594-.406 1.422-.594.844-.203 1.875-.203h1.828v-.781q0-.453-.172-.797-.156-.36-.453-.61-.297-.25-.734-.39-.422-.14-.969-.14-.5 0-.906.14-.39.125-.672.344-.266.203-.422.484-.14.281-.14.594h-1.688q0-.531.266-1.047.28-.531.78-.938.5-.421 1.22-.671.734-.25 1.656-.25.844 0 1.562.203.72.203 1.235.625.531.406.828 1.031.297.61.297 1.437v4.579q0 .5.094 1.046.093.547.25.97v.14h-1.75zm-2.985-1.281q.5 0 .922-.125.438-.141.781-.344.344-.203.594-.469.266-.281.406-.562v-2h-1.562q-1.469 0-2.297.437-.813.438-.813 1.375 0 .36.125.672.125.312.36.531.25.219.625.36.375.125.86.125zm16.024-3.532q0 1.047-.266 1.97-.25.905-.75 1.593-.484.672-1.219 1.062-.718.375-1.64.375-.906 0-1.594-.297-.687-.296-1.172-.843v4.75h-1.687V92.278h1.531l.094 1.079q.484-.61 1.172-.922.703-.328 1.625-.328.953 0 1.671.375.735.359 1.22 1.03.5.657.75 1.595.265.921.265 2.015v.203zm-1.688-.203q0-.719-.172-1.36-.156-.655-.484-1.155-.328-.5-.844-.782-.5-.297-1.218-.297-.813 0-1.36.375-.547.375-.875.97v4.75q.328.577.875.952.547.375 1.375.375.703 0 1.203-.297.516-.296.844-.796.328-.5.484-1.157.172-.656.172-1.375v-.203zm13.196-.844q-.016.704-.14 1.438-.11.719-.344 1.39-.235.672-.61 1.266-.36.578-.875 1.016-.5.437-1.172.687-.656.25-1.468.25-.829 0-1.485-.25-.656-.25-1.172-.687-.515-.438-.89-1.031-.375-.594-.61-1.266-.234-.672-.36-1.39-.124-.72-.124-1.423v-1.515q0-.719.11-1.438.124-.718.359-1.39.25-.688.61-1.266.374-.594.874-1.031.516-.438 1.172-.688.672-.265 1.484-.265.828 0 1.485.265.672.25 1.172.688.515.437.875 1.031.375.578.609 1.25.25.672.36 1.406.124.72.14 1.438v1.515zm-1.672-1.53q-.016-.485-.078-1-.047-.516-.188-1.016-.125-.5-.343-.954-.22-.468-.547-.812-.328-.36-.781-.563-.438-.203-1.032-.203-.578 0-1.03.203-.438.204-.767.563-.328.344-.546.812-.22.454-.36.97-.125.5-.187 1.015-.063.515-.063.984v1.531q0 .454.063.985.062.515.203 1.015.14.5.36.97.218.468.546.827.328.344.766.563.453.203 1.047.203.578 0 1.03-.203.454-.219.782-.563.328-.359.531-.812.22-.469.344-.969.14-.516.188-1.031.046-.516.062-.985v-1.53zm12.586 2.577q0 1.047-.265 1.97-.25.905-.75 1.593-.485.672-1.203 1.062-.72.375-1.657.375-.953 0-1.656-.328-.687-.344-1.187-.984l-.079 1.125h-1.546v-14h1.687v5.203q.484-.61 1.156-.922.688-.312 1.61-.312.937 0 1.656.375.734.359 1.219 1.03.5.657.75 1.595.265.921.265 2.015v.203zm-1.687-.203q0-.719-.14-1.36-.141-.655-.454-1.155-.312-.5-.812-.782-.5-.297-1.22-.297-.437 0-.812.125-.36.11-.656.313-.281.203-.5.484-.219.266-.375.594v4.313q.156.328.375.609.234.281.516.5.297.203.656.312.375.11.812.11.688 0 1.188-.281.5-.297.812-.782.313-.5.454-1.14.156-.64.156-1.36v-.203zm5.664-4.844h4.984v9.922q0 .953-.265 1.672-.266.735-.766 1.235-.484.5-1.203.75-.719.265-1.625.265-.516 0-.969-.031-.453-.031-.953-.125l.125-1.39q.156.03.39.046.235.031.47.047.25.016.468.016h.344q.484 0 .89-.125.423-.11.735-.407.313-.296.484-.78.188-.47.188-1.173v-8.453h-3.297v-1.469zm3.063-2.593q0-.407.234-.688.25-.297.766-.297.5 0 .75.297.265.281.265.688 0 .406-.265.687-.25.281-.75.281-.516 0-.766-.28-.234-.282-.234-.688zm11.351 12.64q-1.03 0-1.906-.359-.875-.36-1.5-.984-.61-.641-.953-1.516-.344-.875-.344-1.906v-.39q0-1.188.375-2.126.39-.953 1.016-1.594.64-.656 1.437-1 .813-.343 1.657-.343 1.062 0 1.859.375.797.359 1.328 1.015.531.64.781 1.531.266.875.266 1.907v.75h-7.031q.015.687.25 1.281.234.578.64 1.031.407.438.97.703.562.25 1.25.25.905 0 1.593-.359.703-.375 1.172-.969l1.031.797q-.25.375-.625.719-.36.328-.844.594-.484.265-1.093.421-.61.172-1.329.172zm-.218-8.843q-.516 0-.97.187-.452.188-.812.547-.359.36-.625.89-.25.516-.343 1.204h5.297v-.125q-.016-.5-.188-.985-.156-.484-.469-.859-.297-.39-.765-.625-.47-.234-1.125-.234zm11.258 7.468q.453 0 .89-.14.438-.14.766-.407.344-.265.547-.609.203-.36.219-.766h1.593q-.015.657-.343 1.266-.329.594-.891 1.047-.563.437-1.281.719-.719.265-1.5.265-1.11 0-1.953-.406-.844-.406-1.407-1.078-.547-.688-.843-1.563-.282-.89-.282-1.875v-.39q0-.969.282-1.86.296-.89.843-1.562.563-.688 1.407-1.078.843-.406 1.953-.406.875 0 1.61.28.733.266 1.265.75.531.47.828 1.126.312.656.312 1.406H120.4q-.016-.453-.204-.844-.187-.39-.515-.687-.313-.313-.75-.485-.438-.171-.953-.171-.782 0-1.313.312-.531.313-.86.828-.327.5-.468 1.14-.14.626-.14 1.25v.391q0 .641.14 1.282.14.625.453 1.14.328.5.86.813.53.312 1.328.312zm10.992-11.062v2.39h3.75v1.313h-3.75v5.344q0 .578.14.953.141.375.391.594.266.218.594.312.344.094.719.094.266 0 .547-.031.297-.032.578-.079.281-.046.516-.093.25-.047.406-.094l.234 1.203q-.219.125-.515.219-.297.094-.657.156-.343.078-.75.11-.39.046-.781.046-.656 0-1.234-.187-.563-.188-.985-.594-.422-.406-.672-1.047-.234-.64-.234-1.562V93.59h-2.578v-1.313h2.578v-2.39h1.703z"/><path d="M5.618 7.218h137.984v48H5.618z"/><path fill="#000" d="M109.547 34.778q0-.609-.281-1.015-.282-.422-.72-.703-.437-.297-.968-.485-.515-.187-1-.343-.703-.235-1.422-.547-.718-.328-1.328-.782-.594-.468-.969-1.093-.375-.64-.375-1.5t.375-1.532q.375-.671.985-1.14.61-.469 1.375-.703.781-.25 1.578-.25.86 0 1.656.297.813.28 1.422.812.625.516 1 1.25t.39 1.64h-1.734q-.078-.562-.281-1.03-.203-.47-.562-.813-.344-.344-.829-.516-.468-.187-1.062-.187-.484 0-.953.14-.453.125-.813.407-.36.265-.578.672-.219.39-.219.921.016.579.297.985.282.39.719.672.438.265.938.453.5.172.953.312.484.157.984.36.5.187.969.437t.86.578q.405.313.702.72.313.405.469.89.172.484.172 1.078 0 .89-.406 1.562-.391.672-1.016 1.11-.625.437-1.422.672-.781.218-1.578.218-.89 0-1.734-.265-.844-.282-1.516-.797-.672-.516-1.094-1.25-.406-.75-.437-1.703h1.719q.078.625.328 1.11.265.468.656.812.406.328.922.5.531.156 1.156.156.484 0 .969-.125.484-.125.844-.375.375-.266.609-.656.25-.407.25-.954zm5.024-6.5l.046.938q.297-.531.782-.813.5-.296 1.187-.296 1.36 0 1.813 1.046.297-.468.765-.75.485-.296 1.157-.296 1.093 0 1.671.671.579.657.579 2v7.36h-1.594v-7.375q0-1.25-1.14-1.235-.298 0-.516.094-.22.078-.375.219-.141.14-.22.328-.077.188-.109.375v7.594h-1.609v-7.39q0-.595-.266-.907-.265-.328-.828-.313-.53 0-.828.22-.281.202-.422.546v7.844h-1.609v-9.86h1.516zm10.68 0h5.046v8.407h3.22v1.453h-8.266v-1.453h3.359v-6.938h-3.36v-1.469zm3.14-2.578q0-.422.25-.703.25-.297.766-.297.5 0 .75.297.25.281.25.703 0 .407-.25.688-.25.265-.75.265-.516 0-.766-.265-.25-.281-.25-.688z"/></g></svg>