<svg viewBox="0 0 910.451 529.11" fill="none" stroke-linecap="square" stroke-miterlimit="10" xmlns="http://www.w3.org/2000/svg"><clipPath id="a"><path d="M0 0h910.451v529.11H0V0z"/></clipPath><g clip-path="url(#a)"><path d="M0 0h910.451v529.11H0z"/><path fill="#ead1dc" d="M47.537 127.11h91.734v51.502c-45.867 0-45.867 19.624-91.734 8.474z" fill-rule="evenodd"/><path stroke="#4c1130" stroke-linejoin="round" stroke-linecap="butt" d="M47.537 127.11h91.734v51.502c-45.867 0-45.867 19.624-91.734 8.474z"/><path fill="#4c1130" d="M66.196 157.661v-9.468h3.328q1.718 0 2.61.656.89.656.89 1.937 0 .688-.36 1.219-.36.531-1 .781.735.188 1.157.75.421.547.421 1.344 0 1.36-.875 2.063-.875.703-2.484.718h-3.687zm1.953-4.125v2.563h1.672q.687 0 1.078-.328.39-.328.39-.922 0-1.297-1.343-1.313h-1.797zm0-1.375h1.453q1.469-.031 1.469-1.187 0-.64-.375-.922-.375-.281-1.172-.281h-1.375v2.39zm9.052 2.844l1.313-4.39h2.015l-2.828 8.14-.156.375q-.64 1.375-2.094 1.375-.406 0-.828-.125v-1.422h.281q.547 0 .797-.172.266-.156.422-.531l.219-.578-2.469-7.063h2.031l1.297 4.391zm6.315-6.11v1.72h1.204v1.39h-1.204v3.516q0 .39.157.562.156.156.578.156.312 0 .547-.046v1.437q-.547.156-1.14.156-1.985 0-2.017-2v-3.781h-1.03v-1.39h1.03v-1.72h1.875zm5.504 8.891q-1.547 0-2.531-.937-.97-.953-.97-2.531v-.188q0-1.062.407-1.89.406-.844 1.156-1.297.766-.454 1.72-.454 1.452 0 2.28.922.829.907.829 2.578v.766h-4.485q.094.688.547 1.11.469.406 1.172.406 1.078 0 1.687-.782l.922 1.032q-.422.593-1.14.937-.72.328-1.594.328zm-.219-5.781q-.562 0-.906.39-.344.376-.453 1.079h2.625v-.156q-.016-.625-.344-.97-.328-.343-.922-.343zm7.11 4.266q.516 0 .844-.282.329-.28.329-.765h1.765q0 .719-.39 1.312-.375.594-1.047.922-.672.328-1.47.328-1.515 0-2.39-.953-.875-.969-.875-2.656v-.125q0-1.625.86-2.594.875-.969 2.39-.969 1.313 0 2.11.75.812.75.812 2h-1.765q0-.546-.329-.89-.328-.344-.859-.344-.656 0-1 .484-.328.485-.328 1.547v.203q0 1.079.328 1.563.328.469 1.016.469zm3.717-2.188q0-1.062.406-1.875.406-.828 1.156-1.265.766-.454 1.766-.454 1.437 0 2.328.875.906.875 1.016 2.36v.484q0 1.625-.907 2.61-.89.968-2.422.968-1.515 0-2.437-.968-.906-.985-.906-2.657v-.078zm1.89.125q0 1 .375 1.531.375.532 1.078.532.688 0 1.063-.516.39-.531.39-1.672 0-.984-.39-1.531-.375-.547-1.078-.547-.688 0-1.063.547-.375.531-.375 1.656zm5.646-.125q0-1.64.734-2.61.75-.984 2.031-.984 1.032 0 1.704.766v-3.594h1.89v10h-1.703l-.094-.75q-.703.875-1.812.875-1.235 0-2-.968-.75-.985-.75-2.735zm1.89.14q0 .985.344 1.516.344.532 1 .532.875 0 1.235-.735v-2.781q-.36-.734-1.22-.734-1.359 0-1.359 2.203zm9.167 3.563q-1.547 0-2.532-.937-.968-.953-.968-2.531v-.188q0-1.062.406-1.89.406-.844 1.156-1.297.766-.454 1.719-.454 1.453 0 2.281.922.828.907.828 2.578v.766h-4.484q.094.688.547 1.11.469.406 1.172.406 1.078 0 1.687-.782l.922 1.032q-.422.593-1.14.937-.72.328-1.594.328zm-.219-5.781q-.563 0-.906.39-.344.376-.453 1.079h2.625v-.156q-.016-.625-.344-.97-.328-.343-.922-.343z"/><path fill="#fce5cd" d="M209.834 135.808a9.418 9.418 0 0 1 9.417-9.418h86.677a9.417 9.417 0 0 1 9.418 9.418v37.669a9.418 9.418 0 0 1-9.418 9.417h-86.677a9.418 9.418 0 0 1-9.417-9.417z" fill-rule="evenodd"/><path fill="#5b0f00" d="M235.381 151.442v-9.469h3.328q1.719 0 2.61.657.89.656.89 1.937 0 .688-.36 1.219-.358.531-1 .781.735.188 1.157.75.422.547.422 1.344 0 1.36-.875 2.062-.875.703-2.484.72h-3.688zm1.953-4.125v2.563h1.672q.688 0 1.078-.329.39-.328.39-.921 0-1.297-1.343-1.313h-1.797zm0-1.375h1.453q1.47-.031 1.47-1.187 0-.641-.376-.922-.375-.282-1.172-.282h-1.375v2.391zm9.053 2.844l1.312-4.39h2.016l-2.828 8.14-.156.375q-.64 1.375-2.094 1.375-.406 0-.828-.125v-1.422h.281q.547 0 .797-.172.266-.156.422-.531l.219-.578-2.47-7.063h2.032l1.297 4.39zm6.315-6.11v1.72h1.203v1.39h-1.203v3.515q0 .391.156.563.157.156.578.156.313 0 .547-.047v1.438q-.547.156-1.14.156-1.985 0-2.016-2v-3.781h-1.031v-1.39h1.031v-1.72h1.875zm5.504 8.891q-1.547 0-2.532-.937-.968-.954-.968-2.532v-.187q0-1.063.406-1.89.406-.845 1.156-1.298.766-.453 1.719-.453 1.453 0 2.281.922.828.906.828 2.578v.766h-4.484q.094.687.547 1.11.468.405 1.172.405 1.078 0 1.687-.78l.922 1.03q-.422.594-1.14.938-.72.328-1.594.328zm-.22-5.781q-.562 0-.905.39-.344.375-.454 1.079h2.625v-.157q-.015-.625-.343-.968-.328-.344-.922-.344zm7.111 4.265q.516 0 .844-.28.328-.282.328-.766h1.766q0 .718-.39 1.312-.376.594-1.048.922-.672.328-1.469.328-1.515 0-2.39-.953-.875-.969-.875-2.656v-.125q0-1.625.86-2.594.874-.969 2.39-.969 1.312 0 2.11.75.812.75.812 2h-1.766q0-.547-.328-.89-.328-.344-.86-.344-.656 0-1 .484-.328.485-.328 1.547v.203q0 1.078.329 1.563.328.468 1.015.468zm3.716-2.187q0-1.063.407-1.875.406-.828 1.156-1.266.765-.453 1.765-.453 1.438 0 2.329.875.906.875 1.015 2.36v.484q0 1.625-.906 2.61-.89.968-2.422.968-1.516 0-2.437-.969-.907-.984-.907-2.656v-.078zm1.89.125q0 1 .376 1.531.375.531 1.078.531.688 0 1.063-.515.39-.531.39-1.672 0-.984-.39-1.531-.375-.547-1.079-.547-.687 0-1.062.547-.375.531-.375 1.656zm5.646-.125q0-1.64.735-2.61.75-.984 2.031-.984 1.031 0 1.703.766v-3.594h1.89v10h-1.702l-.094-.75q-.703.875-1.813.875-1.234 0-2-.969-.75-.984-.75-2.734zm1.891.14q0 .985.344 1.516.343.531 1 .531.875 0 1.234-.734v-2.781q-.36-.735-1.219-.735-1.359 0-1.359 2.204zm9.166 3.563q-1.547 0-2.53-.937-.97-.954-.97-2.532v-.187q0-1.063.407-1.89.406-.845 1.156-1.298.765-.453 1.719-.453 1.453 0 2.28.922.829.906.829 2.578v.766h-4.484q.093.687.546 1.11.47.405 1.172.405 1.078 0 1.688-.78l.922 1.03q-.422.594-1.14.938-.72.328-1.595.328zm-.218-5.781q-.563 0-.907.39-.343.375-.453 1.079h2.625v-.157q-.015-.625-.344-.968-.328-.344-.921-.344zm-55.582 20.453q-.531.64-1.5.984-.953.344-2.125.344-1.234 0-2.156-.531-.922-.531-1.438-1.547-.5-1.031-.515-2.406v-.657q0-1.421.469-2.453.484-1.03 1.39-1.578.906-.562 2.11-.562 1.687 0 2.64.812.953.797 1.125 2.328H229.7q-.125-.812-.578-1.187-.438-.375-1.219-.375-1 0-1.516.75-.515.75-.53 2.219v.609q0 1.484.562 2.25.578.766 1.672.766 1.093 0 1.562-.47v-1.64h-1.781v-1.437h3.734v3.78zm5.407-4.078q-.375-.047-.672-.047-1.063 0-1.39.719v4.61h-1.891v-7.048h1.781l.047.844q.578-.969 1.578-.969.312 0 .578.078l-.031 1.813zm4.986 5.281q-.125-.25-.187-.625-.672.75-1.766.75-1.047 0-1.734-.594-.672-.593-.672-1.515 0-1.11.828-1.703.844-.61 2.406-.61h.86v-.406q0-.484-.25-.781-.25-.297-.782-.297-.484 0-.75.234-.265.219-.265.625h-1.89q0-.61.374-1.125.39-.531 1.078-.828.688-.297 1.547-.297 1.297 0 2.063.656.765.657.765 1.844v3.047q.016 1 .282 1.516v.11h-1.907zm-1.547-1.312q.407 0 .75-.172.36-.188.532-.5v-1.22h-.703q-1.407 0-1.5.985v.11q0 .343.234.578.25.219.687.219zm10.959-2.141q0 1.625-.75 2.61-.735.968-1.985.968-1.062 0-1.719-.734v3.312h-1.89v-9.75h1.75l.062.688q.688-.813 1.782-.813 1.296 0 2.015.969.735.953.735 2.656v.094zm-1.875-.14q0-.985-.36-1.516-.344-.532-1.015-.532-.875 0-1.204.672v2.89q.344.688 1.22.688 1.359 0 1.359-2.203zm4.878-2.688q.75-.89 1.875-.89 2.297 0 2.328 2.655v4.516h-1.89v-4.453q0-.61-.266-.89-.25-.298-.86-.298-.828 0-1.187.641v5h-1.89v-10h1.89v3.719zm5.74 6.281v-9.469h3.328q1.718 0 2.609.657.89.656.89 1.937 0 .688-.359 1.219-.36.531-1 .781.735.188 1.156.75.422.547.422 1.344 0 1.36-.875 2.062-.875.703-2.484.72h-3.688zm1.953-4.125v2.563h1.671q.688 0 1.079-.329.39-.328.39-.921 0-1.297-1.344-1.313h-1.796zm0-1.375h1.453q1.468-.031 1.468-1.187 0-.641-.375-.922-.375-.282-1.171-.282h-1.375v2.391zm10.646 4.781q-.688.844-1.922.844-1.14 0-1.734-.64-.594-.657-.61-1.907v-4.625h1.89v4.547q0 1.11 1 1.11.954 0 1.313-.672v-4.985h1.891v7.047H272.8l-.047-.719zm5.224.72h-1.891v-7.048h1.89v7.047zm-2-8.86q0-.422.28-.688.298-.281.782-.281.484 0 .766.281.281.266.281.688 0 .422-.297.703-.281.265-.766.265-.468 0-.765-.265-.281-.281-.281-.703zm5.533 8.86h-1.89v-10h1.89v10zm1.253-3.58q0-1.64.734-2.608.75-.985 2.032-.985 1.03 0 1.703.766v-3.594h1.89v10h-1.703l-.094-.75q-.703.875-1.812.875-1.234 0-2-.969-.75-.984-.75-2.734zm1.89.142q0 .984.344 1.515.344.531 1 .531.875 0 1.235-.734v-2.781q-.36-.735-1.22-.735-1.358 0-1.358 2.204zm9.167 3.562q-1.547 0-2.531-.937-.97-.954-.97-2.532v-.187q0-1.063.407-1.89.406-.845 1.156-1.298.766-.453 1.72-.453 1.452 0 2.28.922.828.906.828 2.578v.766h-4.484q.094.687.547 1.11.469.405 1.172.405 1.078 0 1.687-.78l.922 1.03q-.422.594-1.14.938-.72.328-1.594.328zm-.219-5.781q-.562 0-.906.39-.344.375-.453 1.079h2.625v-.157q-.016-.625-.344-.968-.328-.344-.922-.344zm8.126.375q-.375-.047-.672-.047-1.062 0-1.39.719v4.61h-1.89v-7.048h1.78l.047.844q.578-.969 1.578-.969.313 0 .578.078l-.03 1.813z"/><path fill="#ead1dc" d="M385.908 122.531h111.748v51.503c-55.874 0-55.874 19.623-111.748 8.473z" fill-rule="evenodd"/><path stroke="#4c1130" stroke-linejoin="round" stroke-linecap="butt" d="M385.908 122.531h111.748v51.503c-55.874 0-55.874 19.623-111.748 8.473z"/><path fill="#4c1130" d="M399.183 134.864l.89.516q-.562.89-.578 1.796v1.094h-1.5v-.984q0-.61.344-1.297.344-.703.844-1.125zm2 0l.89.516q-.562.89-.578 1.796v1.094h-1.5v-.984q0-.61.344-1.297.344-.703.844-1.125zm7.314 7.734q0-.562-.39-.843-.391-.297-1.407-.625-1.016-.329-1.61-.657-1.624-.875-1.624-2.343 0-.766.437-1.36.438-.61 1.25-.953.813-.344 1.813-.344 1.015 0 1.812.375.797.36 1.235 1.032.437.671.437 1.53h-1.953q0-.655-.406-1.015-.407-.36-1.157-.36-.718 0-1.125.313-.39.297-.39.782 0 .468.469.78.468.313 1.375.579 1.671.5 2.421 1.25.766.734.766 1.844 0 1.234-.937 1.937-.922.688-2.5.688-1.094 0-2-.391-.891-.406-1.36-1.094-.469-.703-.469-1.625h1.954q0 1.578 1.875 1.578.703 0 1.093-.28.391-.298.391-.798zm6.396 2.61q-1.546 0-2.53-.938-.97-.953-.97-2.531v-.188q0-1.062.407-1.89.406-.844 1.156-1.297.766-.453 1.719-.453 1.453 0 2.281.922.828.906.828 2.578v.765H413.3q.093.688.547 1.11.468.406 1.171.406 1.079 0 1.688-.781l.922 1.031q-.422.594-1.14.938-.72.328-1.595.328zm-.218-5.782q-.563 0-.907.391-.343.375-.453 1.078h2.625v-.156q-.015-.625-.343-.969-.329-.344-.922-.344zm8.25 5.657q-.124-.25-.187-.625-.672.75-1.765.75-1.047 0-1.735-.594-.672-.594-.672-1.516 0-1.11.829-1.703.843-.61 2.406-.61h.86v-.405q0-.485-.25-.782-.25-.297-.782-.297-.484 0-.75.235-.266.219-.266.625h-1.89q0-.61.375-1.125.39-.531 1.078-.828.687-.297 1.547-.297 1.297 0 2.062.656.766.656.766 1.844v3.047q.015 1 .281 1.515v.11h-1.906zm-1.546-1.313q.406 0 .75-.172.36-.187.531-.5v-1.218h-.703q-1.406 0-1.5.984v.11q0 .343.234.577.25.22.688.22zm7.637-2.265q0-1.063.406-1.875.406-.829 1.156-1.266.766-.453 1.766-.453 1.437 0 2.328.875.906.875 1.015 2.36v.484q0 1.625-.906 2.609-.89.969-2.422.969-1.515 0-2.437-.97-.906-.983-.906-2.655v-.078zm1.89.125q0 1 .375 1.53.375.532 1.078.532.688 0 1.063-.516.39-.53.39-1.671 0-.985-.39-1.532-.375-.547-1.078-.547-.688 0-1.063.547-.375.532-.375 1.657zm6.458 3.453v-5.657h-1.047v-1.39h1.047v-.594q0-1.187.672-1.828.688-.656 1.906-.656.39 0 .969.125l-.031 1.453q-.235-.063-.563-.063-1.062 0-1.062 1v.563h1.39v1.39h-1.39v5.657h-1.89zm9.315-7.047l.062.812q.75-.937 2.016-.937 1.125 0 1.672.656.547.656.562 1.969v4.547h-1.89v-4.5q0-.61-.266-.875-.25-.266-.86-.266-.78 0-1.187.672v4.969h-1.875v-7.047h1.766zm5.433 3.469q0-1.063.406-1.875.406-.829 1.156-1.266.766-.453 1.766-.453 1.438 0 2.328.875.906.875 1.016 2.36v.484q0 1.625-.906 2.609-.891.969-2.422.969-1.516 0-2.438-.97-.906-.983-.906-2.655v-.078zm1.89.125q0 1 .376 1.53.375.532 1.078.532.687 0 1.062-.516.39-.53.39-1.671 0-.985-.39-1.532-.375-.547-1.078-.547-.687 0-1.062.547-.375.532-.375 1.657zm5.646-.125q0-1.641.734-2.61.75-.984 2.032-.984 1.03 0 1.703.765v-3.593h1.89v10h-1.703l-.093-.75q-.704.875-1.813.875-1.234 0-2-.97-.75-.983-.75-2.733zm1.89.14q0 .985.344 1.516t1 .531q.875 0 1.235-.734v-2.782q-.36-.734-1.219-.734-1.36 0-1.36 2.203zm9.167 3.563q-1.547 0-2.531-.938-.969-.953-.969-2.531v-.188q0-1.062.406-1.89.407-.844 1.157-1.297.765-.453 1.718-.453 1.453 0 2.282.922.828.906.828 2.578v.765h-4.485q.094.688.547 1.11.469.406 1.172.406 1.078 0 1.688-.781l.921 1.031q-.421.594-1.14.938-.719.328-1.594.328zm-.219-5.782q-.562 0-.906.391-.344.375-.453 1.078h2.625v-.156q-.016-.625-.344-.969-.328-.344-.922-.344zm7.986 3.704q0-.344-.344-.532-.328-.203-1.094-.36-2.515-.53-2.515-2.14 0-.937.78-1.562.782-.625 2.032-.625 1.344 0 2.14.64.813.625.813 1.625h-1.875q0-.39-.265-.656-.266-.265-.813-.265-.469 0-.734.218-.266.203-.266.547 0 .313.297.5.297.188 1 .328.703.14 1.188.313 1.484.547 1.484 1.89 0 .97-.828 1.563-.813.594-2.125.594-.89 0-1.578-.313-.688-.312-1.078-.86-.391-.546-.391-1.187h1.781q.031.5.375.766t.922.266q.547 0 .813-.204.28-.203.28-.546zm3.587-4.61l-.89-.515q.562-.875.577-1.813v-1.11h1.5v1.016q0 .578-.328 1.266-.328.687-.86 1.156zm2 0l-.89-.515q.562-.875.577-1.813v-1.11h1.5v1.016q0 .578-.328 1.266-.328.687-.86 1.156zm-59.112 18.985q0-1.61.765-2.594.766-1 2.079-1 1.156 0 1.812.797l.078-.672h1.703v6.812q0 .922-.422 1.61-.421.687-1.187 1.03-.766.36-1.781.36-.766 0-1.516-.312-.734-.297-1.11-.781l.844-1.157q.704.797 1.704.797.75 0 1.156-.406.422-.406.422-1.14v-.376q-.657.735-1.72.735-1.265 0-2.046-.985-.781-1-.781-2.64v-.078zm1.875.14q0 .953.375 1.5.39.547 1.062.547.86 0 1.235-.64v-2.97q-.375-.64-1.22-.64-.671 0-1.062.563-.39.546-.39 1.64zm9.951-1.844q-.375-.046-.672-.046-1.062 0-1.39.718v4.61h-1.89v-7.047h1.78l.047.844q.578-.97 1.578-.97.313 0 .578.079l-.03 1.812zm4.987 5.282q-.125-.25-.188-.625-.672.75-1.765.75-1.047 0-1.735-.594-.672-.594-.672-1.516 0-1.11.828-1.703.844-.61 2.407-.61h.859v-.405q0-.485-.25-.782-.25-.297-.781-.297-.485 0-.75.235-.266.219-.266.625h-1.89q0-.61.375-1.125.39-.531 1.078-.828.687-.297 1.547-.297 1.296 0 2.062.656.766.656.766 1.844v3.047q.015 1 .28 1.515v.11h-1.905zm-1.547-1.313q.406 0 .75-.172.36-.187.531-.5v-1.219h-.703q-1.406 0-1.5.985v.11q0 .343.234.577.25.22.688.22zm10.958-2.14q0 1.625-.75 2.609-.734.969-1.984.969-1.063 0-1.72-.735v3.313h-1.89v-9.75h1.75l.063.687q.687-.812 1.78-.812 1.298 0 2.017.969.734.953.734 2.656v.094zm-1.875-.141q0-.984-.36-1.516-.343-.531-1.015-.531-.875 0-1.203.672v2.89q.344.688 1.219.688 1.359 0 1.359-2.203zm4.878-2.688q.75-.89 1.875-.89 2.297 0 2.329 2.656v4.516h-1.891v-4.453q0-.61-.266-.891-.25-.297-.859-.297-.828 0-1.188.64v5h-1.89v-10h1.89v3.72z"/><path fill="#cfe2f3" d="M573.793 180.462h111.456a5.574 5.574 0 0 0 5.574-5.574v-27.872H568.218v27.872a5.574 5.574 0 0 0 5.575 5.574z" fill-rule="evenodd"/><path fill="#cfe2f3" d="M568.218 153.77a4.672 4.672 0 0 1 4.672-4.673h113.261a4.672 4.672 0 0 1 4.672 4.672v18.688a4.672 4.672 0 0 1-4.672 4.672h-113.26a4.672 4.672 0 0 1-4.673-4.672z" fill-rule="evenodd"/><path fill="#073763" d="M593.005 165.429q0-.563-.391-.844-.39-.297-1.406-.625t-1.61-.656q-1.625-.875-1.625-2.344 0-.766.438-1.36.437-.609 1.25-.953.812-.343 1.812-.343 1.016 0 1.813.375.797.359 1.234 1.03.438.673.438 1.532h-1.953q0-.656-.407-1.015-.406-.36-1.156-.36-.719 0-1.125.313-.39.297-.39.78 0 .47.468.782.469.313 1.375.578 1.672.5 2.422 1.25.766.735.766 1.844 0 1.234-.938 1.938-.922.687-2.5.687-1.093 0-2-.39-.89-.407-1.36-1.094-.468-.703-.468-1.625h1.953q0 1.578 1.875 1.578.703 0 1.094-.281.39-.297.39-.797zm9.49-.97q0 1.626-.75 2.61-.734.969-1.984.969-1.063 0-1.72-.734v3.312h-1.89v-9.75h1.75l.063.688q.687-.813 1.78-.813 1.298 0 2.017.969.734.953.734 2.656v.094zm-1.875-.14q0-.984-.36-1.515-.343-.532-1.015-.532-.875 0-1.203.672v2.89q.344.688 1.219.688 1.359 0 1.359-2.203zm6.285 3.719q-1.547 0-2.531-.937-.97-.954-.97-2.532v-.187q0-1.063.407-1.89.406-.845 1.156-1.298.766-.453 1.719-.453 1.453 0 2.281.922.828.906.828 2.578v.766h-4.484q.094.687.547 1.11.469.405 1.172.405 1.078 0 1.687-.78l.922 1.03q-.422.594-1.14.938-.72.328-1.594.328zm-.219-5.781q-.562 0-.906.39-.344.375-.453 1.079h2.625v-.157q-.016-.625-.344-.968-.328-.344-.922-.344zm7.11 4.265q.516 0 .844-.28.328-.282.328-.766h1.766q0 .718-.39 1.312-.376.594-1.047.922-.672.328-1.47.328-1.515 0-2.39-.953-.875-.969-.875-2.656v-.125q0-1.625.86-2.594.875-.969 2.39-.969 1.313 0 2.11.75.812.75.812 2h-1.766q0-.547-.328-.89-.328-.344-.86-.344-.655 0-1 .484-.327.485-.327 1.547v.203q0 1.078.328 1.563.328.468 1.016.468zm5.998 1.391h-1.89v-7.047h1.89v7.047zm-2-8.86q0-.421.281-.687.297-.281.781-.281.485 0 .766.281.281.266.281.688 0 .422-.297.703-.281.265-.765.265-.47 0-.766-.265-.281-.281-.281-.703zm7.627 8.86q-.125-.25-.187-.625-.672.75-1.766.75-1.047 0-1.734-.594-.672-.593-.672-1.515 0-1.11.828-1.703.844-.61 2.406-.61h.86v-.406q0-.484-.25-.781-.25-.297-.782-.297-.484 0-.75.234-.265.219-.265.625h-1.89q0-.61.374-1.125.39-.531 1.078-.828.688-.297 1.547-.297 1.297 0 2.063.656.765.657.765 1.844v3.047q.016 1 .282 1.516v.109h-1.907zm-1.547-1.312q.407 0 .75-.172.36-.188.532-.5v-1.22h-.703q-1.407 0-1.5.985v.11q0 .343.234.578.25.219.687.219zm6.6 1.312h-1.891v-10h1.89v10zm3.533 0h-1.89v-7.047h1.89v7.047zm-2-8.86q0-.421.281-.687.297-.281.781-.281.485 0 .766.281.281.266.281.688 0 .422-.297.703-.28.265-.765.265-.469 0-.766-.265-.281-.281-.281-.703zm5.721 7.344h3.438v1.516h-5.844v-1.14l3.313-4.376h-3.22v-1.53h5.641v1.124l-3.328 4.406zm8.688 1.516q-.125-.25-.188-.625-.672.75-1.765.75-1.047 0-1.735-.594-.672-.593-.672-1.515 0-1.11.828-1.703.844-.61 2.407-.61h.86v-.406q0-.484-.25-.781-.25-.297-.782-.297-.485 0-.75.234-.266.219-.266.625h-1.89q0-.61.375-1.125.39-.531 1.078-.828.687-.297 1.547-.297 1.296 0 2.062.656.766.657.766 1.844v3.047q.015 1 .281 1.516v.109h-1.906zm-1.547-1.312q.406 0 .75-.172.36-.188.531-.5v-1.22h-.703q-1.406 0-1.5.985v.11q0 .343.234.578.25.219.688.219zm6.864-7.454v1.72h1.203v1.39h-1.203v3.515q0 .391.156.563.157.156.579.156.312 0 .546-.047v1.438q-.546.156-1.14.156-1.985 0-2.016-2v-3.781h-1.031v-1.39h1.031v-1.72h1.875zm4.238 8.766h-1.89v-7.047h1.89v7.047zm-2-8.86q0-.421.281-.687.297-.281.782-.281.484 0 .765.281.281.266.281.688 0 .422-.296.703-.282.265-.766.265-.469 0-.766-.265-.28-.281-.28-.703zm3.253 5.282q0-1.063.406-1.875.406-.828 1.156-1.266.766-.453 1.766-.453 1.437 0 2.328.875.906.875 1.015 2.36v.484q0 1.625-.906 2.61-.89.968-2.422.968-1.515 0-2.437-.969-.906-.984-.906-2.656v-.078zm1.89.125q0 1 .375 1.531.375.531 1.078.531.688 0 1.063-.515.39-.531.39-1.672 0-.984-.39-1.531-.375-.547-1.078-.547-.688 0-1.063.547-.375.53-.375 1.656zm7.677-3.594l.062.813q.75-.938 2.016-.938 1.125 0 1.672.656.547.657.562 1.97v4.546h-1.89v-4.5q0-.61-.266-.875-.25-.266-.86-.266-.78 0-1.187.672v4.969h-1.875v-7.047h1.766z"/><path fill="#fce5cd" d="M572.89 123.587h113.261a4.672 4.672 0 0 1 4.672 4.672v23.36H568.218l-.001-.001v-23.359a4.672 4.672 0 0 1 4.673-4.672z" fill-rule="evenodd"/><path fill="#5b0f00" d="M610.199 143.087h-1.953v-9.469h1.953v9.47zm3.416-7.047l.063.813q.75-.938 2.016-.938 1.125 0 1.671.656.547.657.563 1.97v4.546h-1.89v-4.5q0-.61-.266-.875-.25-.266-.86-.266-.78 0-1.187.672v4.97h-1.875v-7.048h1.765zm7.715 7.047h-1.89v-10h1.89v10zm3.534 0h-1.89v-7.047h1.89v7.047zm-2-8.86q0-.421.281-.687.297-.281.781-.281.485 0 .766.281.281.266.281.688 0 .422-.297.703-.281.265-.765.265-.47 0-.766-.265-.281-.281-.281-.703zm5.284 1.813l.062.813q.75-.938 2.016-.938 1.125 0 1.672.656.546.657.562 1.97v4.546h-1.89v-4.5q0-.61-.266-.875-.25-.266-.86-.266-.78 0-1.187.672v4.97h-1.875v-7.048h1.766zm7.714 7.047h-1.89v-7.047h1.89v7.047zm-2-8.86q0-.421.281-.687.297-.281.782-.281.484 0 .765.281.281.266.281.688 0 .422-.296.703-.282.265-.766.265-.469 0-.766-.265-.28-.281-.28-.703zm5.284 1.813l.062.813q.75-.938 2.016-.938 1.125 0 1.672.656.547.657.562 1.97v4.546h-1.89v-4.5q0-.61-.266-.875-.25-.266-.86-.266-.78 0-1.187.672v4.97h-1.875v-7.048h1.766zm5.464 3.469q0-1.61.766-2.594.766-1 2.078-1 1.156 0 1.813.797l.078-.672h1.703v6.813q0 .922-.422 1.609-.422.688-1.187 1.031-.766.36-1.782.36-.765 0-1.515-.313-.735-.297-1.11-.781l.844-1.156q.703.797 1.703.797.75 0 1.156-.407.422-.406.422-1.14v-.375q-.656.734-1.718.734-1.266 0-2.047-.984-.782-1-.782-2.641v-.078zm1.875.14q0 .954.375 1.5.391.547 1.063.547.86 0 1.234-.64v-2.969q-.375-.64-1.218-.64-.672 0-1.063.562-.39.547-.39 1.64z"/><path fill="#f3f3f3" d="M185.088 168.139v-6.748h-34.567v-13.496h34.567v-6.748l13.496 13.496z" fill-rule="evenodd"/><path stroke="#666" stroke-linejoin="round" stroke-linecap="butt" d="M185.088 168.139v-6.748h-34.567v-13.496h34.567v-6.748l13.496 13.496z"/><path fill="#f3f3f3" d="M361.162 168.492v-6.749h-34.567v-13.496h34.567V141.5l13.496 13.496z" fill-rule="evenodd"/><path stroke="#666" stroke-linejoin="round" stroke-linecap="butt" d="M361.162 168.492v-6.749h-34.567v-13.496h34.567V141.5l13.496 13.496z"/><path fill="#f3f3f3" d="M543.471 165.522v-6.748h-34.567v-13.496h34.567v-6.748l13.496 13.496z" fill-rule="evenodd"/><path stroke="#666" stroke-linejoin="round" stroke-linecap="butt" d="M543.471 165.522v-6.748h-34.567v-13.496h34.567v-6.748l13.496 13.496z"/><path fill="#ead1dc" d="M593.528 20.729h76.815v46.93c-38.406 0-38.406 18.057-76.815 9.029zm6.328 0v-6.085h76.29V61.87c-2.899 0-5.803.327-5.803.327V20.729zm5.949-6.085V8.707h76.952v47.078c-3.305 0-6.61.246-6.61.246V14.644z" fill-rule="evenodd"/><path d="M593.528 20.729h76.815v46.93c-38.406 0-38.406 18.057-76.815 9.029zm6.328 0v-6.085h76.29V61.87c-2.899 0-5.803.327-5.803.327m-64.538-47.553V8.707h76.951v47.078c-3.304 0-6.61.246-6.61.246"/><path d="M593.528 76.688c38.41 9.028 38.41-9.028 76.815-9.028v-5.463s2.904-.327 5.804-.327v-5.84s3.305-.245 6.61-.245V8.707h-76.952v5.937h-5.949v6.085h-6.328z"/><path stroke="#4c1130" stroke-linejoin="round" stroke-linecap="butt" d="M593.528 20.729h76.815v46.93c-38.406 0-38.406 18.057-76.815 9.029zm6.328 0v-6.085h76.29V61.87c-2.899 0-5.803.327-5.803.327m-64.538-47.553V8.707h76.951v47.078c-3.304 0-6.61.246-6.61.246"/><path fill="#4c1130" d="M603.371 53.508V44.04h3.328q1.72 0 2.61.656.89.656.89 1.937 0 .688-.359 1.22-.36.53-1 .78.734.188 1.156.75.422.547.422 1.344 0 1.36-.875 2.063-.875.703-2.484.718h-3.688zm1.953-4.125v2.563h1.672q.688 0 1.078-.328.391-.328.391-.922 0-1.297-1.344-1.313h-1.797zm0-1.375h1.454q1.468-.03 1.468-1.187 0-.64-.375-.922-.375-.281-1.172-.281h-1.375v2.39zm9.053 2.844l1.313-4.39h2.015l-2.828 8.14-.156.375q-.64 1.375-2.094 1.375-.406 0-.828-.125v-1.422h.281q.547 0 .797-.172.266-.156.422-.53l.219-.579-2.469-7.063h2.031l1.297 4.391zm6.315-6.11v1.72h1.203v1.39h-1.203v3.516q0 .39.156.562.157.156.579.156.312 0 .546-.046v1.437q-.546.156-1.14.156-1.985 0-2.016-2v-3.78h-1.031V46.46h1.031v-1.718h1.875zm5.504 8.891q-1.547 0-2.532-.937-.968-.953-.968-2.531v-.188q0-1.062.406-1.89.406-.844 1.156-1.297.766-.454 1.719-.454 1.453 0 2.281.922.828.907.828 2.578v.766h-4.484q.094.688.547 1.11.469.406 1.172.406 1.078 0 1.687-.782l.922 1.032q-.422.593-1.14.937-.72.328-1.594.328zm-.22-5.78q-.562 0-.905.39-.344.375-.453 1.078h2.625v-.156q-.016-.625-.344-.97-.328-.343-.922-.343zm7.111 4.265q.516 0 .844-.282.328-.28.328-.765h1.766q0 .719-.39 1.312-.376.594-1.048.922-.672.328-1.468.328-1.516 0-2.391-.953-.875-.969-.875-2.656v-.125q0-1.625.86-2.594.874-.969 2.39-.969 1.312 0 2.11.75.812.75.812 2h-1.766q0-.546-.328-.89t-.86-.344q-.656 0-1 .484-.327.485-.327 1.547v.203q0 1.079.328 1.563.328.469 1.015.469zm3.716-2.188q0-1.062.407-1.875.406-.828 1.156-1.265.766-.454 1.766-.454 1.437 0 2.328.875.906.875 1.015 2.36v.484q0 1.625-.906 2.61-.89.968-2.422.968-1.515 0-2.437-.968-.907-.985-.907-2.657v-.078zm1.891.125q0 1 .375 1.531.375.532 1.078.532.688 0 1.063-.516.39-.531.39-1.672 0-.984-.39-1.531-.375-.547-1.078-.547-.688 0-1.063.547-.375.531-.375 1.656zm5.646-.125q0-1.64.734-2.61.75-.984 2.031-.984 1.031 0 1.703.766v-3.594h1.89v10h-1.702l-.094-.75q-.703.875-1.812.875-1.235 0-2-.968-.75-.985-.75-2.735zm1.89.14q0 .985.344 1.516.344.532 1 .532.875 0 1.234-.735v-2.78q-.36-.735-1.218-.735-1.36 0-1.36 2.203zm9.167 3.563q-1.547 0-2.532-.937-.968-.953-.968-2.531v-.188q0-1.062.406-1.89.406-.844 1.156-1.297.766-.454 1.719-.454 1.453 0 2.281.922.828.907.828 2.578v.766h-4.484q.094.688.547 1.11.468.406 1.172.406 1.078 0 1.687-.782l.922 1.032q-.422.593-1.14.937-.72.328-1.594.328zm-.22-5.78q-.562 0-.905.39-.344.375-.454 1.078h2.625v-.156q-.015-.625-.343-.97-.328-.343-.922-.343z"/><path fill="#ead1dc" d="M712.91 47.645h78.973v46.93c-39.484 0-39.484 18.057-78.972 9.029zm6.507 0V41.56h78.433v47.226c-2.981 0-5.967.327-5.967.327V47.645zm6.116-6.085v-5.937h79.113v47.078c-3.398 0-6.796.246-6.796.246V41.56z" fill-rule="evenodd"/><path d="M712.91 47.645h78.973v46.93c-39.484 0-39.484 18.057-78.972 9.029zm6.507 0V41.56h78.433v47.226c-2.981 0-5.967.327-5.967.327m-66.35-47.553v-5.937h79.113v47.078c-3.398 0-6.796.246-6.796.246"/><path d="M712.91 103.604c39.49 9.028 39.49-9.028 78.973-9.028v-5.463s2.986-.327 5.967-.327v-5.84s3.398-.245 6.796-.245V35.623h-79.113v5.937h-6.116v6.085h-6.506z"/><path stroke="#4c1130" stroke-linejoin="round" stroke-linecap="butt" d="M712.91 47.645h78.973v46.93c-39.484 0-39.484 18.057-78.972 9.029zm6.507 0V41.56h78.433v47.226c-2.981 0-5.967.327-5.967.327m-66.35-47.553v-5.937h79.113v47.078c-3.398 0-6.796.246-6.796.246"/><path fill="#4c1130" d="M724.708 69.08v3.344h-1.953v-9.468h3.703q1.062 0 1.875.39.812.39 1.25 1.11.437.718.437 1.625 0 1.39-.953 2.203-.953.797-2.64.797h-1.72zm0-1.578h1.75q.765 0 1.172-.359.406-.375.406-1.047 0-.687-.406-1.11-.407-.437-1.125-.452h-1.797v2.968zm10.472-.359q-.375-.047-.672-.047-1.063 0-1.391.719v4.61h-1.89v-7.048h1.78l.048.844q.578-.969 1.578-.969.312 0 .578.079l-.031 1.812zm.61 1.703q0-1.062.407-1.875.406-.828 1.156-1.265.766-.454 1.766-.454 1.438 0 2.328.875.906.875 1.016 2.36v.484q0 1.625-.906 2.61-.891.968-2.422.968-1.516 0-2.438-.968-.906-.985-.906-2.657v-.078zm1.892.125q0 1 .375 1.531.375.532 1.078.532.687 0 1.062-.516.39-.531.39-1.672 0-.984-.39-1.531-.375-.547-1.078-.547-.687 0-1.062.547-.375.531-.375 1.656zm6.458 3.453v-5.656h-1.047v-1.39h1.047v-.594q0-1.188.671-1.828.688-.657 1.907-.657.39 0 .968.125l-.03 1.453q-.235-.062-.563-.062-1.063 0-1.063 1v.562h1.39v1.391h-1.39v5.656h-1.89zm6.245 0h-1.89v-7.047h1.89v7.047zm-2-8.859q0-.422.281-.688.297-.28.782-.28.484 0 .765.28.281.266.281.688 0 .422-.296.703-.282.266-.766.266-.469 0-.766-.266-.28-.281-.28-.703zm5.534 8.86h-1.89v-10h1.89v10zm3.534 0h-1.891v-7.048h1.89v7.047zm-2-8.86q0-.422.28-.688.298-.28.782-.28.485 0 .766.28.281.266.281.688 0 .422-.297.703-.281.266-.765.266-.47 0-.766-.266-.281-.281-.281-.703zm5.283 1.812l.063.813q.75-.938 2.016-.938 1.125 0 1.671.657.547.656.563 1.968v4.547h-1.89v-4.5q0-.609-.266-.875-.25-.265-.86-.265-.781 0-1.187.672v4.968h-1.875v-7.047h1.765zm5.465 3.47q0-1.61.766-2.595.765-1 2.078-1 1.156 0 1.812.797l.078-.672h1.703v6.813q0 .922-.421 1.61-.422.687-1.188 1.03-.766.36-1.781.36-.766 0-1.516-.313-.734-.296-1.11-.78l.845-1.157q.703.797 1.703.797.75 0 1.156-.406.422-.407.422-1.141v-.375q-.656.734-1.719.734-1.266 0-2.047-.984-.781-1-.781-2.64v-.079zm1.875.14q0 .953.375 1.5.39.547 1.062.547.86 0 1.235-.64v-2.97q-.375-.64-1.219-.64-.672 0-1.062.562-.391.547-.391 1.64zM728.458 84.55h-3.75v3.874h-1.953v-9.468h6.171v1.578h-4.218v2.437h3.75v1.578zm4.723 4q-1.547 0-2.53-.938-.97-.953-.97-2.531v-.188q0-1.062.407-1.89.406-.844 1.156-1.297.765-.454 1.719-.454 1.453 0 2.28.922.829.907.829 2.578v.766h-4.484q.093.688.546 1.11.47.406 1.172.406 1.078 0 1.688-.782l.922 1.032q-.422.593-1.14.937-.72.328-1.595.328zm-.218-5.782q-.563 0-.907.39-.343.376-.453 1.079h2.625v-.156q-.015-.625-.344-.97-.328-.343-.921-.343zm7.423 5.781q-1.547 0-2.532-.937-.968-.953-.968-2.531v-.188q0-1.062.406-1.89.406-.844 1.156-1.297.766-.454 1.719-.454 1.453 0 2.281.922.828.907.828 2.578v.766h-4.484q.094.688.547 1.11.468.406 1.172.406 1.078 0 1.687-.782l.922 1.032q-.422.593-1.14.937-.72.328-1.594.328zm-.22-5.78q-.562 0-.905.39-.344.375-.454 1.078h2.625v-.156q-.015-.625-.343-.97-.328-.343-.922-.343zm3.877 2.077q0-1.64.734-2.61.75-.984 2.032-.984 1.03 0 1.703.766v-3.594h1.89v10H748.7l-.094-.75q-.703.875-1.812.875-1.234 0-2-.968-.75-.985-.75-2.735zm1.89.14q0 .985.344 1.516.344.532 1 .532.875 0 1.235-.735v-2.78q-.36-.735-1.22-.735-1.358 0-1.358 2.203zm12.26-.015q0 1.688-.718 2.64-.719.938-2.016.938-1.14 0-1.828-.875l-.078.75h-1.703v-10h1.89v3.594q.641-.766 1.704-.766 1.296 0 2.015.954.735.937.735 2.656v.11zm-1.874-.14q0-1.063-.344-1.547-.328-.5-1-.5-.906 0-1.235.734V86.3q.344.735 1.25.735.907 0 1.188-.89.14-.438.14-1.313zm7.113 3.593q-.125-.25-.188-.625-.672.75-1.766.75-1.046 0-1.734-.593-.672-.594-.672-1.516 0-1.11.828-1.703.844-.61 2.407-.61h.859v-.406q0-.484-.25-.781-.25-.297-.781-.297-.485 0-.75.234-.266.22-.266.625h-1.89q0-.609.374-1.125.391-.53 1.079-.828.687-.297 1.546-.297 1.297 0 2.063.657.766.656.766 1.843V86.8q.015 1 .28 1.516v.11h-1.905zm-1.547-1.312q.406 0 .75-.172.36-.188.531-.5v-1.219h-.703q-1.406 0-1.5.985v.109q0 .344.234.578.25.219.688.219zm7.552-.078q.515 0 .843-.282.328-.28.328-.765h1.766q0 .719-.39 1.312-.376.594-1.047.922-.672.328-1.47.328-1.515 0-2.39-.953-.875-.969-.875-2.656v-.125q0-1.625.86-2.594.875-.969 2.39-.969 1.313 0 2.11.75.812.75.812 2h-1.766q0-.546-.328-.89t-.859-.344q-.656 0-1 .484-.328.485-.328 1.547v.203q0 1.079.328 1.563.328.469 1.016.469zm6.575-1.438l-.672.688v2.14h-1.89v-10h1.89v5.547l.36-.469 1.796-2.125h2.266l-2.547 2.938 2.766 4.11h-2.156l-1.813-2.829z"/><path fill="#f3f3f3" d="M739.042 119.448v38.807h-24.646v-6.162l-12.323 12.323 12.323 12.323v-6.162h36.969v-51.13z" fill-rule="evenodd"/><path stroke="#666" stroke-linejoin="round" stroke-linecap="butt" d="M739.042 119.448v38.807h-24.646v-6.162l-12.323 12.323 12.323 12.323v-6.162h36.969v-51.13z"/><path fill="#f3f3f3" d="M624.646 103.384h6.748V86.266h13.496v17.118h6.748l-13.496 13.497z" fill-rule="evenodd"/><path stroke="#666" stroke-linejoin="round" stroke-linecap="butt" d="M624.646 103.384h6.748V86.266h13.496v17.118h6.748l-13.496 13.497z"/><path d="M773.759 134.594h111.748v40.095H773.759z"/><path fill="#34a853" d="M791.93 156.093h-5.25v5.421h-2.734V148.25h8.625v2.219h-5.89v3.421h5.25v2.204zm7.596-1.97q-.531-.062-.937-.062-1.5 0-1.969 1v6.453h-2.625v-9.859h2.484l.078 1.172q.782-1.344 2.188-1.344.437 0 .828.11l-.047 2.53zm.852 2.376q0-1.469.562-2.61.579-1.156 1.641-1.78 1.063-.626 2.453-.626 2 0 3.266 1.219 1.265 1.219 1.406 3.312l.016.672q0 2.266-1.266 3.641t-3.406 1.375q-2.125 0-3.406-1.36-1.266-1.374-1.266-3.734v-.11zm2.64.187q0 1.407.532 2.157.531.734 1.515.734.954 0 1.485-.734.547-.735.547-2.344 0-1.375-.547-2.125-.531-.766-1.516-.766-.953 0-1.484.75t-.531 2.328zm10.752-5.03l.079 1.14q1.062-1.313 2.828-1.313 1.578 0 2.343.922.766.906.782 2.734v6.375h-2.64v-6.296q0-.844-.36-1.22-.36-.374-1.219-.374-1.11 0-1.656.937v6.953h-2.64v-9.859h2.483zm11.168-2.423v2.422h1.687v1.938h-1.687v4.921q0 .547.203.782.219.234.812.234.438 0 .782-.062v2q-.782.234-1.594.234-2.781 0-2.828-2.797v-5.312h-1.438v-1.938h1.438v-2.422h2.625zm7.694 12.469q-2.172 0-3.531-1.328-1.36-1.344-1.36-3.547v-.266q0-1.484.563-2.64.578-1.172 1.625-1.797 1.063-.64 2.406-.64 2.032 0 3.188 1.28 1.156 1.266 1.156 3.61v1.062h-6.266q.125.97.766 1.563.64.578 1.625.578 1.516 0 2.375-1.11l1.297 1.454q-.594.843-1.61 1.312-1 .469-2.234.469zm-.297-8.094q-.78 0-1.28.531-.485.532-.61 1.516h3.656v-.219q-.016-.875-.484-1.343-.454-.485-1.282-.485zm8.272-1.953l.078 1.14q1.063-1.312 2.828-1.312 1.578 0 2.344.922.766.906.781 2.734v6.375h-2.64v-6.296q0-.844-.36-1.22-.36-.374-1.218-.374-1.11 0-1.657.937v6.953h-2.64v-9.859h2.484zm7.605 4.86q0-2.313 1.031-3.672 1.047-1.36 2.844-1.36 1.437 0 2.375 1.063v-5.032h2.64v14h-2.374l-.125-1.046q-.985 1.234-2.532 1.234-1.75 0-2.812-1.375-1.047-1.375-1.047-3.813zm2.64.187q0 1.39.485 2.125.484.734 1.406.734 1.219 0 1.719-1.03v-3.892q-.5-1.015-1.703-1.015-1.906 0-1.906 3.078z"/><path d="M4.659 210.766l708.252 2.11"/><path stroke="#34a853" stroke-width="2" stroke-linejoin="round" stroke-linecap="butt" stroke-dasharray="2.0,6.0" d="M4.659 210.766l708.252 2.11"/><path fill="#fce5cd" d="M571.8 252.6a9.418 9.418 0 0 1 9.418-9.418h103.055a9.418 9.418 0 0 1 9.417 9.418v37.669a9.417 9.417 0 0 1-9.417 9.417H581.218a9.418 9.418 0 0 1-9.417-9.417z" fill-rule="evenodd"/><path fill="#5b0f00" d="M622.153 260.344h-2.906v7.89h-1.953v-7.89h-2.86v-1.578h7.72v1.578zm3.605 5.234l1.313-4.39h2.015l-2.828 8.14-.156.375q-.64 1.375-2.094 1.375-.406 0-.828-.125v-1.422h.281q.547 0 .797-.172.266-.156.422-.53l.219-.579-2.47-7.063h2.032l1.297 4.391zm10.409-.797q0 1.625-.75 2.61-.735.968-1.985.968-1.062 0-1.718-.734v3.313h-1.89v-9.75h1.75l.062.687q.687-.813 1.78-.813 1.298 0 2.016.97.735.952.735 2.656v.093zm-1.875-.14q0-.985-.36-1.516-.343-.531-1.015-.531-.875 0-1.203.672v2.89q.343.688 1.218.688 1.36 0 1.36-2.203zm6.285 3.718q-1.547 0-2.532-.937-.968-.953-.968-2.531v-.188q0-1.062.406-1.89.406-.844 1.156-1.297.766-.454 1.719-.454 1.453 0 2.281.922.828.907.828 2.579v.765h-4.484q.094.688.547 1.11.469.406 1.172.406 1.078 0 1.687-.781l.922 1.03q-.422.594-1.14.938-.72.328-1.594.328zm-.219-5.78q-.563 0-.906.39-.344.375-.453 1.078h2.625v-.156q-.016-.625-.344-.97-.328-.343-.922-.343zm3.876 2.077q0-1.64.734-2.61.75-.983 2.032-.983 1.03 0 1.703.765v-3.594h1.89v10h-1.703l-.093-.75q-.704.875-1.813.875-1.234 0-2-.968-.75-.985-.75-2.735zm1.89.14q0 .985.344 1.517.344.53 1 .53.875 0 1.235-.734v-2.78q-.36-.735-1.219-.735-1.36 0-1.36 2.203zm-43.144 14.923q0 1.39-.5 2.453-.484 1.047-1.406 1.625-.922.562-2.109.562-1.188 0-2.11-.562-.921-.563-1.437-1.61-.5-1.062-.5-2.421v-.47q0-1.405.5-2.468.5-1.062 1.422-1.625.922-.578 2.11-.578 1.187 0 2.109.578.922.563 1.422 1.625.5 1.063.5 2.453v.438zm-1.968-.438q0-1.484-.547-2.25-.531-.781-1.516-.781-.984 0-1.515.766-.532.75-.547 2.234v.469q0 1.437.531 2.25.547.797 1.547.797.984 0 1.5-.766.531-.781.547-2.25v-.469zm9.608 1.5q0 1.625-.75 2.61-.734.968-1.984.968-1.063 0-1.719-.734v3.313h-1.89v-9.75h1.75l.062.687q.687-.813 1.781-.813 1.297 0 2.016.97.734.952.734 2.656v.093zm-1.875-.14q0-.985-.36-1.516-.343-.531-1.015-.531-.875 0-1.203.672v2.89q.344.688 1.219.688 1.36 0 1.36-2.203zm5.285-5.172v1.719h1.203v1.39h-1.203v3.516q0 .39.156.562.157.156.578.156.313 0 .547-.046v1.437q-.547.156-1.14.156-1.985 0-2.016-2v-3.78h-1.031v-1.392h1.031v-1.718h1.875zm4.238 8.765h-1.89v-7.046h1.89v7.046zm-2-8.859q0-.422.281-.688.297-.28.781-.28.485 0 .766.28.281.266.281.688 0 .422-.297.703-.28.266-.765.266-.469 0-.766-.266-.281-.281-.281-.703zm5.315 1.813l.062.796q.75-.921 2.016-.921 1.36 0 1.875 1.078.734-1.079 2.11-1.079 1.156 0 1.703.672.562.657.562 2v4.5h-1.89v-4.484q0-.61-.235-.875-.234-.281-.812-.281-.86 0-1.172.812v4.828h-1.875v-4.484q0-.61-.25-.875-.235-.281-.813-.281-.797 0-1.156.656v4.984h-1.89v-7.046h1.765zm11.757 7.046h-1.89v-7.046h1.89v7.046zm-2-8.859q0-.422.281-.688.297-.28.782-.28.484 0 .765.28.282.266.282.688 0 .422-.297.703-.282.266-.766.266-.469 0-.766-.266-.28-.281-.28-.703zm5.721 7.344h3.438v1.515h-5.844v-1.14l3.313-4.375h-3.22v-1.531h5.642v1.125l-3.329 4.406zm8.688 1.515q-.125-.25-.188-.625-.672.75-1.765.75-1.047 0-1.735-.593-.672-.594-.672-1.516 0-1.11.829-1.703.843-.61 2.406-.61h.86v-.406q0-.484-.25-.781-.25-.297-.782-.297-.484 0-.75.235-.266.218-.266.625h-1.89q0-.61.375-1.125.39-.532 1.078-.829.687-.296 1.547-.296 1.297 0 2.062.656.766.656.766 1.844v3.046q.015 1 .281 1.516v.11h-1.906zm-1.547-1.312q.406 0 .75-.172.36-.188.531-.5v-1.219h-.703q-1.406 0-1.5.985v.109q0 .344.234.578.25.219.688.219zm6.864-7.453v1.719h1.204v1.39h-1.204v3.516q0 .39.157.562.156.156.578.156.312 0 .547-.046v1.437q-.547.156-1.141.156-1.984 0-2.016-2v-3.78h-1.03v-1.392h1.03v-1.718h1.875zm4.238 8.765h-1.89v-7.046h1.89v7.046zm-2-8.859q0-.422.281-.688.297-.28.782-.28.484 0 .765.28.282.266.282.688 0 .422-.297.703-.282.266-.766.266-.469 0-.766-.266-.28-.281-.28-.703zm3.253 5.281q0-1.062.406-1.875.406-.828 1.156-1.265.766-.454 1.766-.454 1.437 0 2.328.875.906.875 1.016 2.36v.484q0 1.625-.907 2.61-.89.968-2.421.968-1.516 0-2.438-.968-.906-.985-.906-2.657v-.078zm1.89.125q0 1 .375 1.531.375.532 1.079.532.687 0 1.062-.516.39-.531.39-1.672 0-.984-.39-1.531-.375-.547-1.078-.547-.688 0-1.063.547-.375.531-.375 1.656zm7.677-3.594l.063.813q.75-.938 2.015-.938 1.125 0 1.672.657.547.656.563 1.969v4.546h-1.891v-4.5q0-.609-.266-.875-.25-.265-.859-.265-.781 0-1.188.672v4.968h-1.875v-7.046h1.766z"/><path fill="#fce5cd" d="M380.835 252.599a9.418 9.418 0 0 1 9.417-9.418h103.055a9.417 9.417 0 0 1 9.418 9.418v37.669a9.417 9.417 0 0 1-9.418 9.417H390.252a9.417 9.417 0 0 1-9.417-9.417z" fill-rule="evenodd"/><path fill="#5b0f00" d="M409.187 264.764h-1.562v3.469h-1.953v-9.469h3.515q1.688 0 2.594.75.922.735.922 2.11 0 .968-.422 1.625-.422.64-1.281 1.015l2.047 3.875v.094h-2.094l-1.766-3.469zm-1.562-1.578h1.578q.734 0 1.14-.375.407-.375.407-1.031 0-.672-.39-1.047-.376-.39-1.173-.39h-1.562v2.843zm9.677 5.172q-1.546 0-2.53-.937-.97-.954-.97-2.532v-.187q0-1.063.407-1.89.406-.845 1.156-1.298.766-.453 1.719-.453 1.453 0 2.281.922.828.906.828 2.578v.766h-4.484q.093.687.547 1.11.468.405 1.171.405 1.079 0 1.688-.78l.922 1.03q-.422.594-1.14.938-.72.328-1.595.328zm-.218-5.781q-.563 0-.907.39-.343.375-.453 1.079h2.625v-.157q-.015-.625-.343-.968-.329-.344-.922-.344zm3.876 2.078q0-1.64.734-2.61.75-.984 2.031-.984 1.032 0 1.704.766v-3.594h1.89v10h-1.703l-.094-.75q-.703.875-1.812.875-1.235 0-2-.969-.75-.984-.75-2.734zm1.89.14q0 .985.344 1.516t1 .531q.875 0 1.235-.734v-2.781q-.36-.735-1.22-.735-1.359 0-1.359 2.204zm10.136 2.72q-.688.843-1.922.843-1.14 0-1.735-.64-.593-.657-.61-1.907v-4.625h1.892v4.547q0 1.11 1 1.11.953 0 1.312-.672v-4.985h1.89v7.047h-1.78l-.047-.719zm4.973-6.329l.063.813q.75-.938 2.015-.938 1.125 0 1.672.656.547.657.563 1.97v4.546h-1.89v-4.5q0-.61-.267-.875-.25-.266-.859-.266-.781 0-1.187.672v4.969h-1.875v-7.047h1.765zm5.433 3.469q0-1.64.735-2.61.75-.984 2.031-.984 1.031 0 1.703.766v-3.594h1.89v10h-1.702l-.094-.75q-.703.875-1.813.875-1.234 0-2-.969-.75-.984-.75-2.734zm1.891.14q0 .985.344 1.516t1 .531q.875 0 1.234-.734v-2.781q-.36-.735-1.219-.735-1.359 0-1.359 2.204zm9.995 3.438q-.125-.25-.188-.625-.672.75-1.766.75-1.046 0-1.734-.594-.672-.593-.672-1.515 0-1.11.828-1.703.844-.61 2.407-.61h.859v-.406q0-.484-.25-.781-.25-.297-.781-.297-.485 0-.75.234-.266.219-.266.625h-1.89q0-.61.374-1.125.391-.531 1.079-.828.687-.297 1.546-.297 1.297 0 2.063.656.766.657.766 1.844v3.047q.015 1 .28 1.516v.109h-1.905zm-1.547-1.312q.406 0 .75-.172.36-.188.531-.5v-1.22h-.703q-1.406 0-1.5.985v.11q0 .343.234.578.25.219.688.219zm6.348-5.735l.063.813q.75-.938 2.016-.938 1.125 0 1.671.656.547.657.563 1.97v4.546h-1.89v-4.5q0-.61-.266-.875-.25-.266-.86-.266-.78 0-1.187.672v4.969h-1.875v-7.047h1.765zm8.668 5.656q.516 0 .844-.28.328-.282.328-.766h1.766q0 .718-.391 1.312-.375.594-1.047.922-.672.328-1.469.328-1.515 0-2.39-.953-.875-.969-.875-2.656v-.125q0-1.625.86-2.594.874-.969 2.39-.969 1.312 0 2.11.75.812.75.812 2h-1.766q0-.547-.328-.89-.328-.344-.86-.344-.656 0-1 .484-.328.485-.328 1.547v.203q0 1.078.329 1.563.328.468 1.015.468zm6.638-1.265l1.313-4.39h2.015l-2.828 8.14-.156.375q-.64 1.375-2.094 1.375-.406 0-.828-.125v-1.422h.281q.547 0 .797-.172.266-.156.422-.531l.219-.578-2.47-7.063h2.032l1.297 4.39zm-60.701 14.547h-3.75v2.547h4.406v1.562h-6.359v-9.469h6.344v1.578h-4.39v2.25h3.75v1.532zm3.653 4.11h-1.89v-10h1.89v10zm3.534 0h-1.89v-7.048h1.89v7.047zm-2-8.86q0-.422.281-.688.297-.281.782-.281.484 0 .765.281.282.266.282.688 0 .422-.297.703-.282.265-.766.265-.469 0-.766-.265-.28-.281-.28-.703zm5.315 1.812l.063.797q.75-.922 2.015-.922 1.36 0 1.875 1.078.735-1.078 2.11-1.078 1.156 0 1.703.672.562.656.562 2v4.5h-1.89v-4.484q0-.61-.235-.875-.234-.282-.812-.282-.86 0-1.172.813v4.828h-1.875v-4.484q0-.61-.25-.875-.234-.282-.813-.282-.796 0-1.156.657v4.984h-1.89v-7.047h1.765zm11.757 7.047h-1.89v-7.047h1.89v7.047zm-2-8.86q0-.421.282-.687.297-.281.78-.281.485 0 .767.281.28.266.28.688 0 .422-.296.703-.281.265-.766.265-.468 0-.765-.265-.282-.281-.282-.703zm5.284 1.813l.063.813q.75-.938 2.015-.938 1.125 0 1.672.656.547.657.563 1.97v4.546h-1.89v-4.5q0-.61-.267-.875-.25-.266-.859-.266-.781 0-1.187.672v4.97h-1.875v-7.048h1.765zm9.808 7.047q-.125-.25-.187-.625-.672.75-1.766.75-1.047 0-1.734-.594-.672-.593-.672-1.515 0-1.11.828-1.703.844-.61 2.406-.61h.86v-.406q0-.484-.25-.781-.25-.297-.781-.297-.485 0-.75.234-.266.219-.266.625h-1.89q0-.61.374-1.125.391-.531 1.078-.828.688-.297 1.547-.297 1.297 0 2.063.656.765.657.765 1.844v3.047q.016 1 .282 1.516v.11h-1.907zm-1.546-1.312q.406 0 .75-.172.359-.188.53-.5v-1.22h-.702q-1.407 0-1.5.985v.11q0 .343.234.578.25.219.688.219zm6.864-7.454v1.72h1.203v1.39h-1.203v3.515q0 .391.156.563.157.156.578.156.313 0 .547-.047v1.438q-.547.156-1.14.156-1.985 0-2.016-2v-3.781h-1.031v-1.39h1.031v-1.72h1.875zm4.238 8.766h-1.89v-7.047h1.89v7.047zm-2-8.86q0-.421.281-.687.297-.281.781-.281.485 0 .766.281.281.266.281.688 0 .422-.297.703-.28.265-.765.265-.469 0-.766-.265-.281-.281-.281-.703zm3.252 5.282q0-1.063.407-1.875.406-.828 1.156-1.266.766-.453 1.766-.453 1.437 0 2.328.875.906.875 1.015 2.36v.484q0 1.625-.906 2.61-.89.968-2.422.968-1.515 0-2.437-.969-.907-.984-.907-2.656v-.078zm1.891.125q0 1 .375 1.531.375.531 1.078.531.688 0 1.063-.515.39-.531.39-1.672 0-.984-.39-1.531-.375-.547-1.078-.547-.688 0-1.063.547-.375.53-.375 1.656zm7.677-3.594l.062.813q.75-.938 2.016-.938 1.125 0 1.672.656.547.657.562 1.97v4.546h-1.89v-4.5q0-.61-.266-.875-.25-.266-.86-.266-.78 0-1.187.672v4.97h-1.875v-7.048h1.766z"/><path fill="#fce5cd" d="M198.53 252.6a9.417 9.417 0 0 1 9.418-9.418h103.055a9.418 9.418 0 0 1 9.417 9.418v37.669a9.417 9.417 0 0 1-9.417 9.417H207.948a9.417 9.417 0 0 1-9.418-9.417z" fill-rule="evenodd"/><path fill="#5b0f00" d="M217.265 272.125h-3.75v2.547h4.406v1.562h-6.359v-9.468h6.344v1.578h-4.39v2.25h3.75v1.531zm5.482 2.156q0-.344-.344-.531-.328-.203-1.094-.36-2.516-.53-2.516-2.14 0-.938.782-1.563.78-.625 2.03-.625 1.345 0 2.142.641.812.625.812 1.625h-1.875q0-.39-.266-.656-.265-.266-.812-.266-.469 0-.734.219-.266.203-.266.547 0 .312.297.5.297.187 1 .328.703.14 1.187.313 1.485.546 1.485 1.89 0 .969-.828 1.563-.813.593-2.125.593-.891 0-1.579-.312-.687-.313-1.078-.86-.39-.546-.39-1.187h1.78q.032.5.376.766.344.265.922.265.547 0 .812-.203.282-.203.282-.547zm5.977.563q.516 0 .844-.281.328-.282.328-.766h1.766q0 .719-.39 1.312-.376.594-1.048.922-.672.328-1.468.328-1.516 0-2.391-.953-.875-.969-.875-2.656v-.125q0-1.625.86-2.594.874-.969 2.39-.969 1.312 0 2.11.75.812.75.812 2h-1.766q0-.546-.328-.89t-.86-.344q-.656 0-1 .485-.327.484-.327 1.546v.204q0 1.078.328 1.562.328.469 1.015.469zm8.091 1.39q-.125-.25-.187-.625-.672.75-1.766.75-1.047 0-1.734-.593-.672-.594-.672-1.516 0-1.11.828-1.703.844-.61 2.406-.61h.86v-.406q0-.484-.25-.781-.25-.297-.782-.297-.484 0-.75.235-.265.218-.265.625h-1.89q0-.61.374-1.125.39-.532 1.078-.829.688-.296 1.547-.296 1.297 0 2.063.656.765.656.765 1.844v3.046q.016 1 .282 1.516v.11h-1.907zm-1.547-1.312q.407 0 .75-.172.36-.188.532-.5v-1.219h-.703q-1.407 0-1.5.985v.109q0 .344.234.578.25.219.687.219zm10.959-2.14q0 1.624-.75 2.609-.735.968-1.985.968-1.062 0-1.718-.734v3.313h-1.891v-9.75h1.75l.062.687q.688-.813 1.782-.813 1.297 0 2.015.97.735.952.735 2.656v.093zm-1.875-.141q0-.985-.36-1.516-.343-.531-1.015-.531-.875 0-1.203.672v2.89q.343.688 1.218.688 1.36 0 1.36-2.203zm6.284 3.718q-1.546 0-2.53-.937-.97-.953-.97-2.531v-.188q0-1.062.407-1.89.406-.844 1.156-1.297.766-.454 1.719-.454 1.453 0 2.281.922.828.907.828 2.579v.765h-4.484q.093.688.547 1.11.468.406 1.171.406 1.079 0 1.688-.781l.922 1.03q-.422.594-1.14.938-.72.328-1.595.328zm-.218-5.78q-.563 0-.907.39-.343.375-.453 1.078h2.625v-.156q-.015-.625-.343-.97-.329-.343-.922-.343zm12.976 3.702h-3.437l-.641 1.953h-2.078l3.531-9.468h1.797l3.547 9.468h-2.063l-.656-1.953zm-2.906-1.578h2.375l-1.188-3.547-1.187 3.547zm8.124-3.515l.062.812q.75-.938 2.016-.938 1.125 0 1.672.657.547.656.562 1.969v4.546h-1.89v-4.5q0-.609-.266-.875-.25-.265-.86-.265-.78 0-1.187.672v4.968h-1.875v-7.046h1.766zm9.808 7.046q-.125-.25-.187-.625-.672.75-1.766.75-1.047 0-1.734-.593-.672-.594-.672-1.516 0-1.11.828-1.703.844-.61 2.406-.61h.86v-.406q0-.484-.25-.781-.25-.297-.782-.297-.484 0-.75.235-.265.218-.265.625h-1.89q0-.61.374-1.125.39-.532 1.078-.829.688-.296 1.547-.296 1.297 0 2.063.656.765.656.765 1.844v3.046q.016 1 .281 1.516v.11h-1.906zm-1.547-1.312q.407 0 .75-.172.36-.188.532-.5v-1.219h-.704q-1.406 0-1.5.985v.109q0 .344.235.578.25.219.687.219zm6.6 1.312h-1.892v-10h1.891v10zm4.174-2.656l1.312-4.39h2.016l-2.828 8.14-.157.375q-.64 1.375-2.093 1.375-.407 0-.829-.125v-1.422h.282q.547 0 .797-.172.265-.156.421-.53l.22-.579-2.47-7.063h2.032l1.297 4.391zm7.877.703q0-.344-.344-.531-.328-.203-1.093-.36-2.516-.53-2.516-2.14 0-.938.781-1.563t2.031-.625q1.344 0 2.141.641.813.625.813 1.625h-1.875q0-.39-.266-.656t-.813-.266q-.468 0-.734.219-.266.203-.266.547 0 .312.297.5.297.187 1 .328.703.14 1.188.313 1.484.546 1.484 1.89 0 .969-.828 1.563-.812.593-2.125.593-.89 0-1.578-.312-.688-.313-1.078-.86-.39-.546-.39-1.187h1.78q.032.5.375.766.344.265.922.265.547 0 .813-.203.281-.203.281-.547zm5.025 1.953h-1.89v-7.046h1.89v7.046zm-2-8.859q0-.422.281-.688.297-.28.781-.28.485 0 .766.28.281.266.281.688 0 .422-.297.703-.281.266-.765.266-.47 0-.766-.266-.281-.281-.281-.703zm7.362 6.906q0-.344-.344-.531-.328-.203-1.094-.36-2.515-.53-2.515-2.14 0-.938.78-1.563.782-.625 2.032-.625 1.344 0 2.14.641.813.625.813 1.625h-1.875q0-.39-.265-.656-.266-.266-.813-.266-.469 0-.734.219-.266.203-.266.547 0 .312.297.5.297.187 1 .328.703.14 1.187.313 1.485.546 1.485 1.89 0 .969-.828 1.563-.813.593-2.125.593-.89 0-1.578-.312-.688-.313-1.079-.86-.39-.546-.39-1.187h1.781q.031.5.375.766.344.265.922.265.547 0 .812-.203.282-.203.282-.547z"/><path fill="#fce5cd" d="M16.225 252.6a9.418 9.418 0 0 1 9.417-9.418h103.055a9.417 9.417 0 0 1 9.417 9.418v37.669a9.417 9.417 0 0 1-9.417 9.417H25.642a9.417 9.417 0 0 1-9.417-9.417z" fill-rule="evenodd"/><path fill="#5b0f00" d="M35.785 264.766h-1.563v3.468H32.27v-9.468h3.516q1.687 0 2.594.75.922.734.922 2.109 0 .969-.422 1.625-.422.64-1.282 1.016l2.047 3.875v.093h-2.093l-1.766-3.468zm-1.563-1.579h1.579q.734 0 1.14-.375.406-.375.406-1.03 0-.673-.39-1.048-.375-.39-1.172-.39h-1.563v2.843zm9.678 5.172q-1.547 0-2.531-.937-.969-.953-.969-2.531v-.188q0-1.062.406-1.89.407-.844 1.157-1.297.765-.454 1.718-.454 1.453 0 2.282.922.828.907.828 2.578v.766h-4.485q.094.688.547 1.11.469.406 1.172.406 1.078 0 1.688-.782l.921 1.032q-.421.593-1.14.937-.719.328-1.594.328zm-.219-5.78q-.562 0-.906.39-.344.375-.453 1.078h2.625v-.156q-.016-.625-.344-.97-.328-.343-.922-.343zm10.517 2.202q0 1.625-.75 2.61-.734.968-1.984.968-1.063 0-1.719-.734v3.312h-1.89v-9.75h1.75l.062.688q.687-.813 1.781-.813 1.297 0 2.016.97.734.952.734 2.655v.094zm-1.875-.14q0-.985-.36-1.516-.343-.531-1.015-.531-.875 0-1.203.672v2.89q.344.688 1.219.688 1.36 0 1.36-2.203zm6.988-1.688q-.375-.047-.672-.047-1.062 0-1.39.719v4.61h-1.891v-7.048h1.781l.047.844q.578-.969 1.578-.969.313 0 .578.079l-.031 1.812zm4.158 5.406q-1.547 0-2.53-.937-.97-.953-.97-2.531v-.188q0-1.062.407-1.89.406-.844 1.156-1.297.765-.454 1.719-.454 1.453 0 2.28.922.829.907.829 2.578v.766h-4.484q.093.688.546 1.11.47.406 1.172.406 1.078 0 1.688-.782l.922 1.032q-.422.593-1.14.937-.72.328-1.595.328zm-.218-5.78q-.563 0-.907.39-.343.375-.453 1.078h2.625v-.156q-.015-.625-.344-.97-.328-.343-.921-.343zm7.985 3.702q0-.344-.344-.531-.328-.203-1.093-.36-2.516-.53-2.516-2.14 0-.938.781-1.563t2.031-.625q1.344 0 2.141.641.813.625.813 1.625h-1.875q0-.39-.266-.656t-.813-.266q-.468 0-.734.219-.266.203-.266.547 0 .312.297.5.297.187 1 .328.703.14 1.188.312 1.484.547 1.484 1.891 0 .969-.828 1.563-.812.593-2.125.593-.89 0-1.578-.312-.688-.313-1.078-.86-.39-.546-.39-1.187h1.78q.032.5.375.766.344.265.922.265.547 0 .813-.203.281-.203.281-.547zm6.29 2.078q-1.547 0-2.53-.937-.97-.953-.97-2.531v-.188q0-1.062.407-1.89.406-.844 1.156-1.297.765-.454 1.719-.454 1.453 0 2.28.922.829.907.829 2.578v.766h-4.484q.093.688.546 1.11.47.406 1.172.406 1.078 0 1.688-.782l.922 1.032q-.422.593-1.14.937-.72.328-1.595.328zm-.218-5.78q-.563 0-.907.39-.343.375-.453 1.078h2.625v-.156q-.015-.625-.344-.97-.328-.343-.921-.343zm5.907-1.392l.062.813q.75-.938 2.016-.938 1.125 0 1.672.657.547.656.562 1.968v4.547h-1.89v-4.5q0-.609-.266-.875-.25-.265-.86-.265-.78 0-1.187.672v4.968H81.45v-7.047h1.766zm7.98-1.718v1.718h1.203v1.391h-1.203v3.516q0 .39.156.562.157.156.578.156.313 0 .547-.046v1.437q-.547.156-1.14.156-1.985 0-2.016-2v-3.78h-1.03v-1.392h1.031v-1.718h1.875zm6.332 8.765q-.125-.25-.188-.625-.672.75-1.765.75-1.047 0-1.735-.593-.672-.594-.672-1.516 0-1.11.828-1.703.844-.61 2.407-.61h.859v-.406q0-.484-.25-.781-.25-.297-.781-.297-.485 0-.75.234-.266.22-.266.625h-1.89q0-.609.375-1.125.39-.53 1.078-.828.687-.297 1.547-.297 1.296 0 2.062.657.766.656.766 1.843v3.047q.015 1 .28 1.516v.11h-1.905zm-1.547-1.312q.406 0 .75-.172.36-.188.531-.5v-1.219h-.703q-1.406 0-1.5.985v.109q0 .344.234.578.25.219.688.219zm6.864-7.453v1.718h1.203v1.391h-1.203v3.516q0 .39.156.562.157.156.579.156.312 0 .546-.046v1.437q-.546.156-1.14.156-1.985 0-2.016-2v-3.78h-1.031v-1.392h1.031v-1.718h1.875zm4.238 8.765h-1.89v-7.047h1.89v7.047zm-2-8.859q0-.422.281-.688.297-.28.781-.28.485 0 .766.28.281.266.281.688 0 .422-.297.703-.28.266-.765.266-.469 0-.766-.266-.281-.281-.281-.703zm3.253 5.281q0-1.062.406-1.875.406-.828 1.156-1.265.766-.454 1.766-.454 1.437 0 2.328.875.906.875 1.015 2.36v.484q0 1.625-.906 2.61-.89.968-2.422.968-1.515 0-2.437-.968-.906-.985-.906-2.657v-.078zm1.89.125q0 1 .375 1.531.375.532 1.078.532.688 0 1.063-.516.39-.531.39-1.672 0-.984-.39-1.531-.375-.547-1.078-.547-.688 0-1.063.547-.375.531-.375 1.656zm7.677-3.594l.062.813q.75-.938 2.016-.938 1.125 0 1.672.657.547.656.562 1.968v4.547h-1.89v-4.5q0-.609-.266-.875-.25-.265-.86-.265-.78 0-1.187.672v4.968h-1.875v-7.047h1.766zM54.873 281.75q0-.563-.39-.844-.391-.297-1.407-.625-1.015-.328-1.61-.656-1.624-.875-1.624-2.344 0-.765.437-1.36.438-.608 1.25-.952.813-.344 1.813-.344 1.015 0 1.812.375.797.36 1.235 1.031.437.672.437 1.531h-1.953q0-.656-.406-1.015-.406-.36-1.156-.36-.72 0-1.125.313-.391.297-.391.781 0 .469.469.781.468.313 1.375.579 1.672.5 2.422 1.25.765.734.765 1.843 0 1.235-.937 1.938-.922.687-2.5.687-1.094 0-2-.39-.89-.406-1.36-1.094-.468-.703-.468-1.625h1.953q0 1.578 1.875 1.578.703 0 1.093-.281.391-.297.391-.797zm6.397 2.61q-1.547 0-2.532-.938-.968-.953-.968-2.531v-.188q0-1.062.406-1.89.406-.844 1.156-1.297.766-.454 1.719-.454 1.453 0 2.281.922.828.907.828 2.579v.765h-4.484q.094.688.547 1.11.469.406 1.172.406 1.078 0 1.687-.781l.922 1.03q-.422.594-1.14.938-.72.328-1.594.328zm-.22-5.782q-.562 0-.905.39-.344.376-.453 1.079h2.625v-.156q-.016-.625-.344-.97-.328-.343-.922-.343zm6.158 5.656h-1.89v-10h1.89v10zm4.8.125q-1.547 0-2.532-.937-.968-.953-.968-2.531v-.188q0-1.062.406-1.89.406-.844 1.156-1.297.766-.454 1.719-.454 1.453 0 2.281.922.828.907.828 2.579v.765h-4.484q.094.688.547 1.11.469.406 1.172.406 1.078 0 1.687-.781l.922 1.03q-.422.594-1.14.938-.72.328-1.594.328zm-.22-5.78q-.562 0-.905.39-.344.375-.453 1.078h2.625v-.156q-.016-.625-.344-.97-.328-.343-.922-.343zm7.111 4.265q.516 0 .844-.281.328-.282.328-.766h1.766q0 .719-.39 1.312-.376.594-1.048.922-.672.328-1.468.328-1.516 0-2.391-.953-.875-.969-.875-2.656v-.125q0-1.625.86-2.594.874-.969 2.39-.969 1.312 0 2.11.75.812.75.812 2H80.07q0-.546-.328-.89t-.86-.344q-.656 0-1 .485-.327.484-.327 1.546v.204q0 1.078.328 1.562.328.469 1.015.469zm6.263-7.375v1.719h1.203v1.39h-1.203v3.516q0 .39.157.562.156.156.578.156.312 0 .547-.046v1.437q-.547.156-1.141.156-1.984 0-2.016-2v-3.78h-1.031v-1.392h1.031v-1.718h1.875zm4.238 8.765h-1.89v-7.046h1.89v7.046zm-2-8.859q0-.422.281-.688.297-.28.782-.28.484 0 .765.28.281.266.281.688 0 .422-.296.703-.282.266-.766.266-.469 0-.766-.266-.28-.281-.28-.703zm3.253 5.281q0-1.062.406-1.875.406-.828 1.156-1.265.766-.454 1.766-.454 1.437 0 2.328.875.906.875 1.016 2.36v.484q0 1.625-.907 2.61-.89.968-2.422.968-1.515 0-2.437-.968-.906-.985-.906-2.657v-.078zm1.89.125q0 1 .375 1.531.375.532 1.078.532.688 0 1.063-.516.39-.531.39-1.672 0-.984-.39-1.531-.375-.547-1.078-.547-.688 0-1.063.547-.375.531-.375 1.656zm7.677-3.594l.063.813q.75-.938 2.015-.938 1.125 0 1.672.657.547.656.563 1.969v4.546h-1.891v-4.5q0-.609-.266-.875-.25-.265-.86-.265-.78 0-1.187.672v4.968h-1.875v-7.046h1.766z"/><path fill="#f3f3f3" d="M619.25 218.925h6.747v-27.701h13.496v27.7h6.748l-13.496 13.497z" fill-rule="evenodd"/><path stroke="#666" stroke-linejoin="round" stroke-linecap="butt" d="M619.25 218.925h6.747v-27.701h13.496v27.7h6.748l-13.496 13.497z"/><path fill="#f3f3f3" d="M526.727 284.932v-6.748h34.567v-13.496h-34.567v-6.749l-13.496 13.497z" fill-rule="evenodd"/><path stroke="#666" stroke-linejoin="round" stroke-linecap="butt" d="M526.727 284.932v-6.748h34.567v-13.496h-34.567v-6.749l-13.496 13.497z"/><path fill="#f3f3f3" d="M340.092 284.932v-6.748h34.567v-13.496h-34.567v-6.749l-13.496 13.497z" fill-rule="evenodd"/><path stroke="#666" stroke-linejoin="round" stroke-linecap="butt" d="M340.092 284.932v-6.748h34.567v-13.496h-34.567v-6.749l-13.496 13.497z"/><path fill="#f3f3f3" d="M157.788 284.932v-6.748h34.566v-13.496h-34.566v-6.749l-13.497 13.497z" fill-rule="evenodd"/><path stroke="#666" stroke-linejoin="round" stroke-linecap="butt" d="M157.788 284.932v-6.748h34.566v-13.496h-34.566v-6.749l-13.497 13.497z"/><path d="M773.759 251.387H905.79v40.095H773.759z"/><path fill="#34a853" d="M794.837 271.979q0 1.953-.703 3.438-.688 1.468-1.985 2.28-1.281.798-2.937.798-1.657 0-2.953-.797-1.282-.797-2-2.266-.704-1.469-.72-3.39v-.657q0-1.953.704-3.437.719-1.485 2-2.281 1.281-.813 2.937-.813 1.672 0 2.954.813 1.296.796 2 2.28.703 1.485.703 3.438v.594zm-2.766-.61q0-2.078-.75-3.156-.75-1.093-2.125-1.093t-2.125 1.078q-.75 1.062-.766 3.125v.656q0 2.031.75 3.156.75 1.11 2.157 1.11 1.375 0 2.11-1.079.733-1.078.75-3.14v-.656zm13.459 2.094q0 2.282-1.047 3.657-1.031 1.375-2.781 1.375-1.5 0-2.422-1.047v4.656h-2.625v-13.656h2.437l.094.969q.953-1.141 2.5-1.141 1.813 0 2.828 1.344 1.016 1.343 1.016 3.718v.125zm-2.64-.187q0-1.375-.485-2.11-.484-.75-1.422-.75-1.234 0-1.703.938v4.031q.484.985 1.719.985 1.89 0 1.89-3.094zm7.409-7.25v2.422h1.687v1.937H810.3v4.922q0 .547.203.781.219.235.813.235.437 0 .78-.063v2q-.78.235-1.593.235-2.781 0-2.828-2.797v-5.313h-1.438v-1.937h1.438v-2.422h2.625zm5.944 12.281h-2.656v-9.86h2.656v9.86zm-2.797-12.406q0-.594.391-.969.39-.39 1.078-.39.672 0 1.063.39.406.375.406.969t-.406.984q-.39.375-1.063.375-.672 0-1.078-.375-.39-.39-.39-.984zm7.431 2.547l.078 1.11q1.047-1.282 2.828-1.282 1.907 0 2.625 1.5 1.032-1.5 2.954-1.5 1.609 0 2.39.937.781.922.781 2.797v6.297h-2.64v-6.281q0-.844-.328-1.219-.328-.39-1.157-.39-1.187 0-1.64 1.125v6.765h-2.625v-6.281q0-.844-.344-1.219-.328-.39-1.14-.39-1.126 0-1.626.921v6.97h-2.625v-9.86h2.47zm16.464 9.86h-2.656v-9.86h2.656v9.86zm-2.797-12.407q0-.594.39-.969.391-.39 1.079-.39.672 0 1.062.39.407.375.407.969t-.407.984q-.39.375-1.062.375t-1.078-.375q-.391-.39-.391-.984zm7.978 10.281h4.828v2.125h-8.188v-1.61l4.64-6.109h-4.5v-2.14h7.892v1.562l-4.672 6.172zm12.18 2.125q-.173-.36-.266-.89-.953 1.078-2.485 1.078-1.453 0-2.406-.844-.937-.844-.937-2.11 0-1.578 1.156-2.406 1.156-.844 3.36-.844h1.202v-.578q0-.672-.36-1.078-.343-.422-1.093-.422-.656 0-1.047.328-.375.313-.375.875h-2.625q0-.859.516-1.578.531-.734 1.5-1.14.969-.422 2.172-.422 1.812 0 2.875.922 1.078.906 1.078 2.562v4.266q.016 1.406.39 2.125v.156h-2.656zm-2.173-1.828q.579 0 1.063-.25.5-.266.734-.703v-1.703h-.984q-1.969 0-2.094 1.375l-.015.156q0 .484.343.813.344.312.953.312zm9.612-10.453v2.422h1.688v1.937h-1.688v4.922q0 .547.203.781.219.235.813.235.437 0 .78-.063v2q-.78.235-1.593.235-2.781 0-2.828-2.797v-5.313h-1.437v-1.937h1.437v-2.422h2.625zm5.944 12.281h-2.656v-9.86h2.656v9.86zm-2.796-12.406q0-.594.39-.969.39-.39 1.078-.39.672 0 1.063.39.406.375.406.969t-.406.984q-.39.375-1.063.375-.672 0-1.078-.375-.39-.39-.39-.984zm4.54 7.39q0-1.468.562-2.609.578-1.156 1.64-1.781 1.063-.625 2.454-.625 2 0 3.266 1.219 1.265 1.218 1.406 3.312l.016.672q0 2.266-1.266 3.64-1.266 1.376-3.406 1.376-2.125 0-3.407-1.36-1.265-1.375-1.265-3.734v-.11zm2.64.188q0 1.406.532 2.156.53.735 1.515.735.953 0 1.485-.735.547-.734.547-2.344 0-1.375-.547-2.125-.532-.765-1.516-.765-.953 0-1.484.75-.532.75-.532 2.328zm10.752-5.031l.078 1.14q1.063-1.312 2.829-1.312 1.578 0 2.343.922.766.906.782 2.734v6.375h-2.641v-6.297q0-.844-.36-1.219-.359-.375-1.218-.375-1.11 0-1.656.938v6.953h-2.641v-9.86h2.484z"/><path d="M4.659 332.241l708.252 2.11"/><path stroke="#34a853" stroke-width="2" stroke-linejoin="round" stroke-linecap="butt" stroke-dasharray="2.0,6.0" d="M4.659 332.241l708.252 2.11"/><path fill="#fce5cd" d="M16.226 380.185a9.417 9.417 0 0 1 9.417-9.417h103.055a9.418 9.418 0 0 1 9.418 9.417v37.67a9.418 9.418 0 0 1-9.418 9.417H25.643a9.418 9.418 0 0 1-9.417-9.418z" fill-rule="evenodd"/><path fill="#5b0f00" d="M38.156 386.35l2.438 6.86 2.421-6.86h2.563v9.47h-1.953v-2.594l.187-4.469-2.547 7.063h-1.343l-2.547-7.047.187 4.453v2.594H35.61v-9.47h2.547zm13.081 9.47q-.125-.25-.187-.625-.672.75-1.766.75-1.047 0-1.734-.594-.672-.594-.672-1.516 0-1.11.828-1.703.844-.61 2.406-.61h.86v-.405q0-.485-.25-.782-.25-.297-.781-.297-.485 0-.75.235-.266.219-.266.625h-1.89q0-.61.374-1.125.39-.531 1.078-.828.688-.297 1.547-.297 1.297 0 2.063.656.765.656.765 1.844v3.047q.016 1 .282 1.515v.11h-1.907zm-1.546-1.313q.406 0 .75-.172.359-.187.53-.5v-1.218h-.702q-1.407 0-1.5.984v.11q0 .343.234.577.25.22.688.22zm7.551-.078q.516 0 .844-.281.328-.281.328-.766h1.766q0 .719-.39 1.313-.376.593-1.048.922-.671.328-1.468.328-1.516 0-2.39-.953-.876-.97-.876-2.657v-.125q0-1.625.86-2.593.874-.97 2.39-.97 1.313 0 2.11.75.812.75.812 2h-1.766q0-.546-.328-.89t-.86-.344q-.655 0-1 .485-.327.484-.327 1.547v.203q0 1.078.328 1.562.328.469 1.015.469zm5.857-4.89q.75-.891 1.875-.891 2.297 0 2.328 2.656v4.516h-1.89v-4.453q0-.61-.266-.891-.25-.297-.86-.297-.828 0-1.187.64v5h-1.89v-10h1.89v3.72zm7.599 6.28h-1.89v-7.046h1.89v7.047zm-2-8.859q0-.422.281-.687.297-.281.781-.281.485 0 .766.28.281.266.281.688 0 .422-.297.703-.281.266-.765.266-.47 0-.766-.266-.281-.28-.281-.703zm5.284 1.813l.062.812q.75-.937 2.016-.937 1.125 0 1.672.656.546.656.562 1.969v4.547h-1.89v-4.5q0-.61-.266-.875-.25-.266-.86-.266-.78 0-1.187.672v4.969h-1.875v-7.047h1.766zm8.98 7.172q-1.547 0-2.532-.938-.968-.953-.968-2.531v-.188q0-1.062.406-1.89.406-.844 1.156-1.297.766-.453 1.719-.453 1.453 0 2.281.922.828.906.828 2.578v.765h-4.484q.094.688.547 1.11.469.406 1.172.406 1.078 0 1.687-.781l.922 1.031q-.422.594-1.14.938-.72.328-1.594.328zm-.22-5.782q-.562 0-.905.391-.344.375-.453 1.078h2.625v-.156q-.016-.625-.344-.969-.328-.344-.922-.344zm7.83 2.36h-3.656v-1.516h3.656v1.516zm3.496 3.297h-1.891v-10h1.89v10zm4.799.125q-1.547 0-2.531-.938-.97-.953-.97-2.531v-.188q0-1.062.407-1.89.406-.844 1.156-1.297.766-.453 1.72-.453 1.452 0 2.28.922.829.906.829 2.578v.765h-4.485q.094.688.547 1.11.469.406 1.172.406 1.078 0 1.687-.781l.922 1.031q-.422.594-1.14.938-.72.328-1.594.328zm-.219-5.782q-.562 0-.906.391-.344.375-.453 1.078h2.625v-.156q-.016-.625-.344-.969-.328-.344-.922-.344zm6.814 3.36l1.312-4.75h1.953l-2.375 7.047h-1.796l-2.375-7.047h1.968l1.313 4.75zm7.345 2.422q-1.547 0-2.531-.938-.97-.953-.97-2.531v-.188q0-1.062.407-1.89.406-.844 1.156-1.297.766-.453 1.72-.453 1.452 0 2.28.922.828.906.828 2.578v.765h-4.484q.094.688.547 1.11.469.406 1.172.406 1.078 0 1.687-.781l.922 1.031q-.422.594-1.14.938-.72.328-1.594.328zm-.219-5.782q-.562 0-.906.391-.344.375-.453 1.078h2.625v-.156q-.016-.625-.344-.969-.328-.344-.922-.344zm6.157 5.657h-1.89v-10h1.89v10zm-71.339 11.484q0 1.39-.5 2.453-.485 1.047-1.406 1.625-.922.563-2.11.563-1.187 0-2.11-.563-.921-.562-1.437-1.61-.5-1.062-.5-2.421v-.469q0-1.406.5-2.469.5-1.062 1.422-1.625.922-.578 2.11-.578 1.187 0 2.109.578.922.563 1.422 1.625.5 1.063.5 2.454v.437zm-1.969-.437q0-1.485-.547-2.25-.531-.782-1.515-.782-.985 0-1.516.766-.531.75-.547 2.234v.47q0 1.437.531 2.25.547.796 1.547.796.985 0 1.5-.766.531-.78.547-2.25v-.468zm9.608 1.5q0 1.625-.75 2.609-.734.969-1.984.969-1.062 0-1.719-.735v3.313h-1.89v-9.75h1.75l.062.687q.688-.812 1.781-.812 1.297 0 2.016.969.734.953.734 2.656v.094zm-1.875-.141q0-.984-.359-1.516-.344-.53-1.016-.53-.875 0-1.203.67v2.892q.344.687 1.219.687 1.36 0 1.36-2.203zm5.285-5.172v1.719h1.203v1.39h-1.203v3.516q0 .39.157.563.156.156.578.156.312 0 .547-.047v1.437q-.547.157-1.141.157-1.984 0-2.016-2v-3.782h-1.03v-1.39h1.031v-1.719h1.875zm4.238 8.766h-1.89v-7.047h1.89v7.047zm-2-8.86q0-.422.281-.687.297-.281.782-.281.484 0 .765.28.281.266.281.688 0 .422-.296.703-.282.266-.766.266-.469 0-.766-.266-.28-.28-.28-.703zm5.315 1.813l.063.797q.75-.922 2.015-.922 1.36 0 1.875 1.078.735-1.078 2.11-1.078 1.156 0 1.703.672.562.656.562 2v4.5h-1.89v-4.485q0-.61-.235-.875-.234-.28-.812-.28-.86 0-1.172.812v4.828h-1.875v-4.485q0-.61-.25-.875-.235-.28-.813-.28-.797 0-1.156.655v4.985h-1.89v-7.047h1.765zm11.757 7.047h-1.89v-7.047h1.89v7.047zm-2-8.86q0-.422.282-.687.296-.281.78-.281.485 0 .766.28.282.266.282.688 0 .422-.297.703-.281.266-.766.266-.469 0-.765-.266-.282-.28-.282-.703zm5.722 7.344h3.437v1.516H79.08v-1.14l3.313-4.376h-3.219v-1.531h5.64v1.125l-3.327 4.406zm8.687 1.516q-.125-.25-.187-.625-.672.75-1.766.75-1.047 0-1.734-.594-.672-.594-.672-1.516 0-1.11.828-1.703.844-.61 2.406-.61h.86v-.405q0-.485-.25-.782-.25-.297-.782-.297-.484 0-.75.235-.265.219-.265.625H85.97q0-.61.375-1.125.39-.531 1.078-.828.688-.297 1.547-.297 1.297 0 2.062.656.766.656.766 1.844v3.047q.016 1 .281 1.515v.11h-1.906zm-1.547-1.313q.406 0 .75-.172.36-.187.531-.5v-1.218h-.703q-1.406 0-1.5.984v.11q0 .343.235.577.25.22.687.22zm6.865-7.453v1.719h1.203v1.39h-1.203v3.516q0 .39.156.563.156.156.578.156.312 0 .547-.047v1.437q-.547.157-1.14.157-1.985 0-2.016-2v-3.782h-1.032v-1.39h1.032v-1.719h1.875zm4.237 8.766h-1.89v-7.047h1.89v7.047zm-2-8.86q0-.422.282-.687.297-.281.78-.281.485 0 .767.28.28.266.28.688 0 .422-.296.703-.281.266-.766.266-.468 0-.765-.266-.282-.28-.282-.703zm3.253 5.282q0-1.063.406-1.875.406-.829 1.156-1.266.766-.453 1.766-.453 1.438 0 2.328.875.906.875 1.016 2.36v.484q0 1.625-.906 2.609-.891.969-2.422.969-1.516 0-2.438-.97-.906-.983-.906-2.655v-.078zm1.89.125q0 1 .376 1.53.375.532 1.078.532.687 0 1.062-.516.39-.53.39-1.671 0-.985-.39-1.532-.375-.547-1.078-.547-.687 0-1.062.547-.375.532-.375 1.657zm7.677-3.594l.063.812q.75-.937 2.015-.937 1.125 0 1.672.656.547.656.563 1.969v4.547h-1.89v-4.5q0-.61-.266-.875-.25-.266-.86-.266-.781 0-1.187.672v4.969h-1.875v-7.047h1.765z"/><path fill="#fce5cd" d="M201.646 380.185a9.417 9.417 0 0 1 9.417-9.417h103.055a9.418 9.418 0 0 1 9.418 9.417v37.67a9.418 9.418 0 0 1-9.418 9.417H211.063a9.418 9.418 0 0 1-9.417-9.418z" fill-rule="evenodd"/><path fill="#5b0f00" d="M234.9 401.335q0-.562-.391-.843-.39-.297-1.407-.625-1.015-.329-1.609-.657-1.625-.875-1.625-2.343 0-.766.438-1.36.437-.61 1.25-.953.812-.344 1.812-.344 1.016 0 1.813.375.796.36 1.234 1.032.437.671.437 1.53H234.9q0-.655-.406-1.015-.406-.36-1.156-.36-.719 0-1.125.313-.39.297-.39.782 0 .468.468.78.469.313 1.375.579 1.672.5 2.422 1.25.765.734.765 1.844 0 1.234-.937 1.937-.922.688-2.5.688-1.094 0-2-.39-.89-.407-1.36-1.095-.468-.703-.468-1.625h1.953q0 1.578 1.875 1.578.703 0 1.094-.28.39-.298.39-.798zm6.083 1.094q.516 0 .844-.281.328-.281.328-.766h1.766q0 .719-.39 1.313-.376.593-1.048.922-.672.328-1.468.328-1.516 0-2.391-.953-.875-.97-.875-2.657v-.125q0-1.625.86-2.593.874-.97 2.39-.97 1.312 0 2.11.75.812.75.812 2h-1.766q0-.546-.328-.89t-.86-.344q-.656 0-1 .485-.327.484-.327 1.547v.203q0 1.078.328 1.562.328.47 1.015.47zm5.857-4.89q.75-.891 1.875-.891 2.297 0 2.328 2.656v4.516h-1.89v-4.453q0-.61-.266-.891-.25-.297-.86-.297-.828 0-1.187.64v5h-1.89v-10h1.89v3.72zm8.864 6.406q-1.547 0-2.531-.938-.969-.953-.969-2.531v-.188q0-1.062.407-1.89.406-.844 1.156-1.297.765-.453 1.719-.453 1.453 0 2.28.922.829.906.829 2.578v.765h-4.484q.093.688.546 1.11.47.406 1.172.406 1.078 0 1.688-.781l.922 1.031q-.422.594-1.14.938-.72.328-1.595.328zm-.218-5.782q-.563 0-.907.391-.343.375-.453 1.078h2.625v-.156q-.015-.625-.344-.969-.328-.344-.921-.344zm3.876 2.079q0-1.641.734-2.61.75-.984 2.031-.984 1.032 0 1.703.765v-3.593h1.891v10h-1.703l-.094-.75q-.703.875-1.812.875-1.235 0-2-.97-.75-.983-.75-2.733zm1.89.14q0 .985.344 1.516t1 .531q.875 0 1.234-.734v-2.782q-.359-.734-1.218-.734-1.36 0-1.36 2.203zm10.135 2.719q-.687.844-1.922.844-1.14 0-1.734-.64-.594-.657-.61-1.907v-4.625h1.891v4.547q0 1.11 1 1.11.953 0 1.313-.673v-4.984h1.89v7.047h-1.78l-.048-.72zm5.224.719h-1.89v-10h1.89v10zm3.534 0h-1.89v-7.047h1.89v7.047zm-2-8.86q0-.422.281-.687.297-.281.781-.281.485 0 .766.28.281.266.281.688 0 .422-.297.703-.281.266-.765.266-.47 0-.766-.266-.281-.28-.281-.703zm5.284 1.813l.062.812q.75-.937 2.016-.937 1.125 0 1.672.656.546.656.562 1.969v4.547h-1.89v-4.5q0-.61-.266-.875-.25-.266-.86-.266-.78 0-1.187.672v4.969h-1.875v-7.047h1.766zm5.464 3.469q0-1.61.766-2.594.765-1 2.078-1 1.156 0 1.812.797l.078-.672h1.704v6.812q0 .922-.422 1.61-.422.687-1.188 1.03-.765.36-1.781.36-.766 0-1.516-.312-.734-.297-1.109-.781l.844-1.157q.703.797 1.703.797.75 0 1.156-.406.422-.406.422-1.14v-.376q-.656.735-1.719.735-1.265 0-2.047-.985-.78-1-.78-2.64v-.078zm1.875.14q0 .953.375 1.5.39.547 1.063.547.859 0 1.234-.64v-2.97q-.375-.64-1.219-.64-.672 0-1.062.563-.39.546-.39 1.64z"/><path fill="#ead1dc" d="M387.068 366.91h111.748v51.502c-55.874 0-55.874 19.623-111.748 8.473z" fill-rule="evenodd"/><path stroke="#4c1130" stroke-linejoin="round" stroke-linecap="butt" d="M387.068 366.91h111.748v51.502c-55.874 0-55.874 19.623-111.748 8.473z"/><path fill="#4c1130" d="M414.665 386.304q-.11 1.532-1.125 2.407t-2.687.875q-1.813 0-2.86-1.22-1.047-1.234-1.047-3.374v-.578q0-1.36.47-2.407.484-1.046 1.374-1.593.906-.563 2.094-.563 1.64 0 2.64.89 1 .876 1.157 2.454h-1.953q-.063-.906-.516-1.313-.437-.421-1.328-.421-.984 0-1.469.703-.484.687-.5 2.156v.719q0 1.53.469 2.25.469.703 1.469.703.906 0 1.343-.406.454-.422.516-1.282h1.953zm.861-.422q0-1.062.407-1.875.406-.828 1.156-1.265.766-.453 1.766-.453 1.437 0 2.328.875.906.875 1.015 2.36v.483q0 1.625-.906 2.61-.89.969-2.422.969-1.515 0-2.437-.97-.907-.984-.907-2.655v-.079zm1.891.125q0 1 .375 1.532.375.53 1.078.53.688 0 1.063-.515.39-.53.39-1.672 0-.984-.39-1.53-.375-.548-1.078-.548-.688 0-1.063.547-.375.531-.375 1.656zm7.677-3.593l.062.812q.75-.937 2.016-.937 1.125 0 1.672.656.547.656.562 1.969v4.547h-1.89v-4.5q0-.61-.266-.875-.25-.266-.86-.266-.78 0-1.187.672v4.969h-1.875v-7.047h1.766zm7.98-1.72v1.72h1.203v1.39h-1.203v3.516q0 .39.156.562.156.157.578.157.313 0 .547-.047v1.437q-.547.157-1.14.157-1.985 0-2.016-2v-3.782h-1.031v-1.39h1.03v-1.72h1.876zm6.206 3.485q-.375-.047-.671-.047-1.063 0-1.391.72v4.609h-1.89v-7.047h1.78l.047.843q.579-.968 1.579-.968.312 0 .578.078l-.032 1.812zm.612 1.703q0-1.062.406-1.875.406-.828 1.156-1.265.766-.453 1.766-.453 1.438 0 2.328.875.906.875 1.016 2.36v.483q0 1.625-.906 2.61-.891.969-2.422.969-1.516 0-2.438-.97-.906-.984-.906-2.655v-.079zm1.89.125q0 1 .376 1.532.375.53 1.078.53.687 0 1.062-.515.39-.53.39-1.672 0-.984-.39-1.53-.375-.548-1.078-.548-.687 0-1.062.547-.375.531-.375 1.656zm7.927 3.454h-1.89v-10h1.89v10zm5.384 0v-5.657h-1.047v-1.39h1.047v-.594q0-1.188.672-1.828.688-.656 1.906-.656.391 0 .97.125l-.032 1.453q-.234-.063-.563-.063-1.062 0-1.062 1v.563h1.39v1.39h-1.39v5.657h-1.89zm6.246 0h-1.89v-10h1.89v10zm1.252-3.579q0-1.062.407-1.875.406-.828 1.156-1.265.765-.453 1.765-.453 1.438 0 2.329.875.906.875 1.015 2.36v.483q0 1.625-.906 2.61-.89.969-2.422.969-1.516 0-2.437-.97-.907-.984-.907-2.655v-.079zm1.891.125q0 1 .375 1.532.375.53 1.078.53.688 0 1.063-.515.39-.53.39-1.672 0-.984-.39-1.53-.375-.548-1.079-.548-.687 0-1.062.547-.375.531-.375 1.656zm12.067.891l.922-4.484h1.828l-1.797 7.047h-1.578l-1.343-4.438-1.329 4.438h-1.562l-1.797-7.047h1.813l.921 4.484 1.282-4.484h1.36l1.28 4.484zm-50.442 14.984q0-1.609.766-2.593.765-1 2.078-1 1.156 0 1.812.797l.078-.672h1.703v6.812q0 .922-.421 1.61-.422.687-1.188 1.03-.766.36-1.781.36-.766 0-1.516-.312-.734-.297-1.11-.782l.845-1.156q.703.797 1.703.797.75 0 1.156-.406.422-.406.422-1.14v-.376q-.656.735-1.719.735-1.266 0-2.047-.985-.781-1-.781-2.64v-.079zm1.875.141q0 .953.375 1.5.39.547 1.062.547.86 0 1.235-.64v-2.97q-.375-.64-1.219-.64-.672 0-1.062.562-.391.547-.391 1.641zm9.951-1.844q-.375-.047-.672-.047-1.062 0-1.39.72v4.609h-1.89v-7.047h1.78l.047.843q.578-.968 1.578-.968.313 0 .579.078l-.032 1.812zm4.987 5.282q-.125-.25-.188-.625-.672.75-1.765.75-1.047 0-1.735-.594-.672-.594-.672-1.516 0-1.11.828-1.703.844-.61 2.407-.61h.86v-.406q0-.484-.25-.78-.25-.298-.782-.298-.485 0-.75.235-.266.218-.266.625h-1.89q0-.61.375-1.125.39-.532 1.078-.828.687-.297 1.547-.297 1.296 0 2.062.656.766.656.766 1.844v3.047q.015 1 .281 1.515v.11h-1.906zm-1.547-1.313q.406 0 .75-.172.36-.187.531-.5v-1.219h-.703q-1.406 0-1.5.985v.11q0 .343.234.577.25.22.688.22zm10.958-2.14q0 1.624-.75 2.609-.734.969-1.984.969-1.063 0-1.72-.735v3.313h-1.89v-9.75h1.75l.063.687q.687-.812 1.781-.812 1.297 0 2.016.968.734.954.734 2.657v.093zm-1.875-.141q0-.985-.36-1.516-.343-.531-1.015-.531-.875 0-1.203.672v2.89q.344.688 1.219.688 1.359 0 1.359-2.203zm4.879-2.688q.75-.89 1.875-.89 2.296 0 2.328 2.656v4.516h-1.89v-4.454q0-.609-.267-.89-.25-.297-.859-.297-.828 0-1.187.64v5h-1.891v-10h1.89v3.72z"/><path fill="#fce5cd" d="M562.35 380.185a9.417 9.417 0 0 1 9.417-9.417H674.82a9.418 9.418 0 0 1 9.418 9.417v37.67a9.418 9.418 0 0 1-9.418 9.417H571.767a9.418 9.418 0 0 1-9.418-9.418z" fill-rule="evenodd"/><path fill="#5b0f00" d="M616.09 392.663q-.11 1.532-1.125 2.407-1.016.875-2.688.875-1.812 0-2.859-1.22-1.047-1.233-1.047-3.374v-.578q0-1.36.469-2.406.484-1.047 1.375-1.594.906-.563 2.094-.563 1.64 0 2.64.89 1 .876 1.156 2.454h-1.953q-.062-.906-.515-1.312-.438-.422-1.328-.422-.985 0-1.47.703-.484.687-.5 2.156v.719q0 1.531.47 2.25.468.703 1.468.703.907 0 1.344-.406.453-.422.516-1.282h1.953zm.861-.421q0-1.063.406-1.875.407-.829 1.157-1.266.765-.453 1.765-.453 1.438 0 2.328.875.907.875 1.016 2.36v.484q0 1.625-.906 2.609-.891.969-2.422.969-1.516 0-2.438-.97-.906-.983-.906-2.655v-.078zm1.89.125q0 1 .376 1.53.375.532 1.078.532.687 0 1.062-.516.39-.53.39-1.671 0-.985-.39-1.532-.375-.547-1.078-.547-.687 0-1.062.547-.375.532-.375 1.657zm5.646-.125q0-1.641.735-2.61.75-.984 2.03-.984 1.032 0 1.704.765v-3.593h1.89v10h-1.703l-.093-.75q-.703.875-1.813.875-1.234 0-2-.97-.75-.983-.75-2.733zm1.89.14q0 .985.345 1.516.343.531 1 .531.875 0 1.234-.734v-2.782q-.36-.734-1.219-.734-1.36 0-1.36 2.203zm9.167 3.563q-1.547 0-2.531-.938-.969-.953-.969-2.531v-.188q0-1.062.406-1.89.407-.844 1.157-1.297.765-.453 1.718-.453 1.454 0 2.282.922.828.906.828 2.578v.765h-4.485q.094.688.547 1.11.469.406 1.172.406 1.078 0 1.688-.781l.922 1.031q-.422.594-1.141.938-.719.328-1.594.328zm-.219-5.782q-.562 0-.906.391-.344.375-.453 1.078h2.625v-.156q-.016-.625-.344-.969-.328-.344-.922-.344zm-36.685 20.454q-.532.64-1.5.984-.953.344-2.125.344-1.235 0-2.157-.532-.921-.53-1.437-1.546-.5-1.032-.516-2.407v-.656q0-1.422.469-2.453.484-1.031 1.39-1.578.907-.563 2.11-.563 1.688 0 2.64.813.954.797 1.126 2.328h-1.907q-.125-.813-.578-1.188-.437-.375-1.218-.375-1 0-1.516.75t-.531 2.22v.609q0 1.484.562 2.25.578.765 1.672.765 1.094 0 1.563-.469v-1.64h-1.782v-1.438h3.735v3.782zm4.703 1.328q-1.547 0-2.531-.938-.969-.953-.969-2.531v-.188q0-1.062.406-1.89.407-.844 1.157-1.297.765-.453 1.718-.453 1.454 0 2.282.922.828.906.828 2.578v.765h-4.485q.094.688.547 1.11.469.406 1.172.406 1.078 0 1.688-.781l.922 1.031q-.422.594-1.141.938-.719.328-1.594.328zm-.219-5.782q-.562 0-.906.391-.344.375-.453 1.078h2.625v-.156q-.016-.625-.344-.969-.328-.344-.922-.344zm5.908-1.39l.062.812q.75-.937 2.016-.937 1.125 0 1.672.656.547.656.562 1.969v4.547h-1.89v-4.5q0-.61-.266-.875-.25-.266-.86-.266-.78 0-1.187.672v4.969h-1.875v-7.047h1.766zm8.98 7.172q-1.547 0-2.531-.938-.97-.953-.97-2.531v-.188q0-1.062.407-1.89.406-.844 1.156-1.297.766-.453 1.72-.453 1.452 0 2.28.922.829.906.829 2.578v.765h-4.485q.094.688.547 1.11.469.406 1.172.406 1.078 0 1.687-.781l.922 1.031q-.422.594-1.14.938-.72.328-1.594.328zm-.219-5.782q-.562 0-.906.391-.344.375-.453 1.078h2.625v-.156q-.016-.625-.344-.969-.328-.344-.922-.344zm8.126.375q-.375-.046-.672-.046-1.062 0-1.39.718v4.61h-1.89v-7.047h1.78l.047.844q.578-.97 1.578-.97.313 0 .579.079l-.032 1.812zm4.987 5.282q-.125-.25-.188-.625-.672.75-1.765.75-1.047 0-1.735-.594-.672-.594-.672-1.516 0-1.11.828-1.703.844-.61 2.407-.61h.859v-.405q0-.485-.25-.782-.25-.297-.781-.297-.485 0-.75.235-.266.219-.266.625h-1.89q0-.61.375-1.125.39-.531 1.078-.828.687-.297 1.547-.297 1.296 0 2.062.656.766.656.766 1.844v3.047q.015 1 .28 1.515v.11h-1.905zm-1.547-1.313q.406 0 .75-.172.36-.187.531-.5v-1.218h-.703q-1.406 0-1.5.984v.11q0 .343.234.577.25.22.688.22zm6.864-7.453v1.719h1.203v1.39h-1.203v3.516q0 .39.156.563.157.156.579.156.312 0 .546-.047v1.437q-.546.157-1.14.157-1.985 0-2.016-2v-3.782h-1.031v-1.39h1.031v-1.719h1.875zm4.238 8.766h-1.89v-7.047h1.89v7.047zm-2-8.86q0-.422.281-.687.297-.281.782-.281.484 0 .765.28.281.266.281.688 0 .422-.296.703-.282.266-.766.266-.469 0-.766-.266-.281-.28-.281-.703zm3.253 5.282q0-1.063.406-1.875.406-.829 1.156-1.266.766-.453 1.766-.453 1.437 0 2.328.875.906.875 1.015 2.36v.484q0 1.625-.906 2.609-.89.969-2.422.969-1.515 0-2.437-.97-.906-.983-.906-2.655v-.078zm1.89.125q0 1 .375 1.53.375.532 1.078.532.688 0 1.063-.516.39-.53.39-1.671 0-.985-.39-1.532-.375-.547-1.078-.547-.688 0-1.063.547-.375.532-.375 1.657zm7.677-3.594l.062.812q.75-.937 2.016-.937 1.125 0 1.672.656.547.656.562 1.969v4.547h-1.89v-4.5q0-.61-.266-.875-.25-.266-.86-.266-.78 0-1.187.672v4.969h-1.875v-7.047h1.766z"/><path fill="#ead1dc" d="M676.202 461.768h110.574V508.7c-55.284 0-55.284 18.057-110.574 9.028zm9.11 0v-6.084h109.82v47.225c-4.175 0-8.356.327-8.356.327v-41.468zm8.563-6.084v-5.937h110.77v47.078c-4.757 0-9.514.245-9.514.245v-41.386z" fill-rule="evenodd"/><path d="M676.202 461.768h110.574V508.7c-55.284 0-55.284 18.057-110.574 9.028zm9.11 0v-6.084h109.82v47.225c-4.175 0-8.356.327-8.356.327m-92.901-47.552v-5.937h110.77v47.078c-4.757 0-9.514.245-9.514.245"/><path d="M676.202 517.727c55.29 9.029 55.29-9.028 110.574-9.028v-5.463s4.18-.327 8.355-.327v-5.839s4.757-.245 9.514-.245v-47.078h-110.77v5.937h-8.563v6.084h-9.11z"/><path stroke="#4c1130" stroke-linejoin="round" stroke-linecap="butt" d="M676.202 461.768h110.574V508.7c-55.284 0-55.284 18.057-110.574 9.028zm9.11 0v-6.084h109.82v47.225c-4.175 0-8.356.327-8.356.327m-92.901-47.552v-5.937h110.77v47.078c-4.757 0-9.514.245-9.514.245"/><path fill="#4c1130" d="M688.124 478.548h-1.953v-9.469h1.953v9.469zm3.416-7.047l.063.812q.75-.937 2.016-.937 1.125 0 1.671.656.547.656.563 1.969v4.547h-1.89v-4.5q0-.61-.266-.875-.25-.266-.86-.266-.781 0-1.187.672v4.969h-1.875V471.5h1.765zm7.98-1.719v1.719h1.204v1.39h-1.203v3.516q0 .39.156.563.156.156.578.156.312 0 .547-.047v1.437q-.547.157-1.14.157-1.985 0-2.016-2v-3.782h-1.032v-1.39h1.032v-1.719h1.875zm5.504 8.89q-1.547 0-2.531-.937-.969-.953-.969-2.531v-.188q0-1.062.406-1.89.406-.844 1.156-1.297.766-.453 1.72-.453 1.452 0 2.28.922.829.906.829 2.578v.765h-4.485q.094.688.547 1.11.469.406 1.172.406 1.078 0 1.687-.781l.922 1.031q-.422.594-1.14.938-.719.328-1.594.328zm-.219-5.78q-.562 0-.906.39-.344.375-.453 1.078h2.625v-.156q-.016-.625-.344-.969-.328-.344-.922-.344zm6.158 5.656h-1.891v-10h1.89v10zm2.033 2.375l-.968-.516.234-.422q.422-.797.438-1.578v-1.453h1.593v1.297q-.015.719-.375 1.453-.36.734-.922 1.219zm11.573-4.328h-3.437l-.64 1.953h-2.079l3.531-9.469h1.797l3.547 9.469h-2.062l-.657-1.953zm-2.906-1.579h2.375l-1.187-3.546-1.188 3.546zm10.03.063h-1.562v3.469h-1.953v-9.469h3.515q1.688 0 2.594.75.922.734.922 2.11 0 .968-.422 1.624-.422.641-1.281 1.016l2.047 3.875v.094h-2.094l-1.766-3.469zm-1.562-1.578h1.578q.734 0 1.14-.375.407-.375.407-1.031 0-.672-.39-1.047-.376-.39-1.173-.39h-1.562v2.843zm9.1-4.422l2.437 6.86 2.422-6.86h2.562v9.469H744.7v-2.594l.188-4.469-2.547 7.063h-1.344l-2.547-7.047.188 4.453v2.594h-1.953v-9.469h2.546zm9.487 11.844l-.969-.516.235-.422q.422-.797.437-1.578v-1.453h1.594v1.297q-.016.719-.375 1.453-.36.734-.922 1.219zm-60.719 10.281v3.344h-1.953v-9.469h3.703q1.062 0 1.875.39.812.391 1.25 1.11.437.719.437 1.625 0 1.39-.953 2.203-.953.797-2.64.797h-1.72zm0-1.578h1.75q.766 0 1.172-.36.406-.375.406-1.046 0-.688-.406-1.11-.406-.437-1.125-.453h-1.797v2.969zm6.222 1.344q0-1.063.406-1.875.406-.829 1.156-1.266.766-.453 1.766-.453 1.437 0 2.328.875.906.875 1.016 2.36v.484q0 1.625-.907 2.609-.89.969-2.421.969-1.516 0-2.438-.969-.906-.984-.906-2.656v-.078zm1.89.125q0 1 .375 1.53.375.532 1.079.532.687 0 1.062-.516.39-.53.39-1.671 0-.985-.39-1.532-.375-.547-1.078-.547-.688 0-1.063.547-.375.532-.375 1.657zm12.068.89l.922-4.484h1.828l-1.797 7.047h-1.578l-1.344-4.438-1.328 4.438h-1.563l-1.796-7.047h1.812l.922 4.484 1.281-4.484h1.36l1.28 4.484zm6.92 2.688q-1.548 0-2.532-.938-.969-.953-.969-2.531v-.188q0-1.062.406-1.89.407-.844 1.157-1.297.765-.453 1.718-.453 1.454 0 2.282.922.828.906.828 2.578v.765h-4.485q.094.688.547 1.11.47.406 1.172.406 1.078 0 1.688-.781l.922 1.031q-.422.594-1.141.938-.719.328-1.594.328zm-.22-5.782q-.562 0-.906.391-.344.375-.453 1.078h2.625v-.156q-.016-.625-.344-.969-.328-.344-.922-.344zm8.127.375q-.375-.046-.672-.046-1.063 0-1.39.718v4.61h-1.892V487.5h1.782l.047.844q.578-.97 1.578-.97.312 0 .578.079l-.031 1.812zm2.986 1.938v3.344h-1.953v-9.469h3.703q1.062 0 1.875.39.812.391 1.25 1.11.437.719.437 1.625 0 1.39-.953 2.203-.953.797-2.64.797h-1.72zm0-1.578h1.75q.766 0 1.172-.36.406-.375.406-1.046 0-.688-.406-1.11-.406-.437-1.125-.453h-1.797v2.969zm14.081 1.765q-.11 1.532-1.125 2.407t-2.687.875q-1.813 0-2.86-1.219-1.047-1.234-1.047-3.375v-.578q0-1.36.47-2.406.484-1.047 1.374-1.594.906-.563 2.094-.563 1.64 0 2.64.891 1 .875 1.157 2.453h-1.953q-.063-.906-.516-1.312-.437-.422-1.328-.422-.984 0-1.469.703-.484.687-.5 2.156v.719q0 1.531.469 2.25.469.703 1.469.703.906 0 1.343-.406.454-.422.516-1.282h1.953zm1.643 5.532l-.97-.516.235-.422q.422-.797.438-1.578v-1.453h1.594v1.297q-.016.719-.375 1.453-.36.734-.922 1.219zm-53.123 4.156l2.437 6.86 2.422-6.86h2.563v9.469h-1.954v-2.594l.188-4.469-2.547 7.063h-1.344l-2.547-7.047.188 4.453v2.594h-1.953v-9.469h2.547zm11.206 9.469h-1.953v-9.469h1.953v9.469zm3.76-3.344v3.344h-1.953v-9.469h3.703q1.063 0 1.875.39.813.391 1.25 1.11.438.719.438 1.625 0 1.39-.953 2.203-.953.797-2.641.797h-1.719zm0-1.578h1.75q.766 0 1.172-.36.406-.375.406-1.046 0-.688-.406-1.11-.406-.437-1.125-.453h-1.797v2.969zm11.566 2.437q0-.562-.39-.843-.391-.297-1.407-.625-1.016-.329-1.61-.657-1.624-.875-1.624-2.343 0-.766.437-1.36.438-.61 1.25-.953.813-.344 1.813-.344 1.015 0 1.812.375.797.36 1.235 1.032.437.671.437 1.53h-1.953q0-.655-.406-1.015-.407-.36-1.157-.36-.718 0-1.125.313-.39.297-.39.782 0 .468.469.78.468.313 1.375.579 1.671.5 2.421 1.25.766.734.766 1.844 0 1.234-.937 1.937-.922.688-2.5.688-1.094 0-2-.39-.891-.407-1.36-1.095-.469-.703-.469-1.625h1.954q0 1.578 1.875 1.578.703 0 1.093-.28.39-.298.39-.798z"/><path fill="#f3f3f3" d="M63.675 342.329h6.748v-27.7h13.496v27.7h6.748L77.17 355.825z" fill-rule="evenodd"/><path stroke="#666" stroke-linejoin="round" stroke-linecap="butt" d="M63.675 342.329h6.748v-27.7h13.496v27.7h6.748L77.17 355.825z"/><path fill="#f3f3f3" d="M180.415 412.517v-6.748h-34.567v-13.496h34.567v-6.748l13.496 13.496z" fill-rule="evenodd"/><path stroke="#666" stroke-linejoin="round" stroke-linecap="butt" d="M180.415 412.517v-6.748h-34.567v-13.496h34.567v-6.748l13.496 13.496z"/><path fill="#f3f3f3" d="M365.837 412.517v-6.748H331.27v-13.496h34.567v-6.748l13.496 13.496z" fill-rule="evenodd"/><path stroke="#666" stroke-linejoin="round" stroke-linecap="butt" d="M365.837 412.517v-6.748H331.27v-13.496h34.567v-6.748l13.496 13.496z"/><path fill="#f3f3f3" d="M541.118 412.517v-6.748h-34.567v-13.496h34.567v-6.748l13.496 13.496z" fill-rule="evenodd"/><path stroke="#666" stroke-linejoin="round" stroke-linecap="butt" d="M541.118 412.517v-6.748h-34.567v-13.496h34.567v-6.748l13.496 13.496z"/><path fill="#f3f3f3" d="M691.974 404.167h38.807v24.645h-6.162l12.323 12.323 12.323-12.323h-6.161v-36.968h-51.13z" fill-rule="evenodd"/><path stroke="#666" stroke-linejoin="round" stroke-linecap="butt" d="M691.974 404.167h38.807v24.645h-6.162l12.323 12.323 12.323-12.323h-6.161v-36.968h-51.13z"/><path d="M773.759 378.972h111.748v40.095H773.759z"/><path fill="#34a853" d="M783.946 405.892v-13.265h4.64q2.423 0 3.657.922 1.25.922 1.25 2.718 0 .97-.5 1.72-.5.734-1.39 1.077 1.015.266 1.609 1.047.593.766.593 1.875 0 1.922-1.234 2.906-1.219.985-3.469 1h-5.156zm2.734-5.78v3.577h2.344q.953 0 1.5-.453t.547-1.265q0-1.829-1.89-1.86h-2.5zm0-1.923h2.016q2.063-.047 2.063-1.656 0-.89-.532-1.281-.515-.406-1.64-.406h-1.907v3.343zm14.703 7.703q-.171-.359-.265-.89-.953 1.078-2.485 1.078-1.453 0-2.406-.844-.937-.844-.937-2.11 0-1.577 1.156-2.405 1.156-.844 3.36-.844h1.202v-.578q0-.672-.359-1.078-.344-.422-1.094-.422-.656 0-1.047.328-.375.312-.375.875h-2.625q0-.86.516-1.578.531-.735 1.5-1.14.969-.423 2.172-.423 1.812 0 2.875.922 1.078.906 1.078 2.563v4.265q.016 1.406.39 2.125v.156h-2.656zm-2.171-1.828q.578 0 1.062-.25.5-.265.734-.703v-1.703h-.984q-1.969 0-2.094 1.375l-.015.156q0 .485.343.813.344.312.954.312zm10.564-.11q.735 0 1.188-.39.453-.406.468-1.078h2.47q0 1-.548 1.844-.53.828-1.468 1.297-.938.453-2.063.453-2.11 0-3.344-1.344-1.218-1.344-1.218-3.719v-.171q0-2.282 1.218-3.625 1.22-1.36 3.328-1.36 1.844 0 2.954 1.047 1.125 1.047 1.14 2.797h-2.469q-.015-.766-.468-1.234-.453-.485-1.203-.485-.922 0-1.391.672t-.469 2.172v.266q0 1.53.453 2.203.47.656 1.422.656zm9.214-2.015l-.954.953v3h-2.625v-14h2.625v7.766l.516-.656 2.516-2.969h3.172l-3.563 4.11 3.86 5.75h-3.016l-2.531-3.954zm10.919 4.14q-2.172 0-3.532-1.327-1.36-1.344-1.36-3.547v-.266q0-1.484.563-2.64.579-1.172 1.625-1.797 1.063-.64 2.407-.64 2.03 0 3.187 1.28 1.156 1.266 1.156 3.61v1.062h-6.265q.125.97.765 1.563.641.578 1.625.578 1.516 0 2.375-1.11l1.297 1.454q-.593.843-1.61 1.312-1 .469-2.233.469zm-.297-8.093q-.782 0-1.282.531-.484.532-.609 1.516h3.656v-.219q-.015-.875-.484-1.343-.453-.485-1.281-.485zm8.271-1.953l.078 1.14q1.063-1.312 2.829-1.312 1.578 0 2.343.922.766.906.782 2.734v6.375h-2.641v-6.296q0-.844-.36-1.22-.359-.374-1.218-.374-1.11 0-1.656.937v6.953h-2.641v-9.859h2.484zm7.605 4.86q0-2.313 1.031-3.672 1.047-1.36 2.844-1.36 1.438 0 2.375 1.063v-5.032h2.64v14h-2.374l-.125-1.046q-.985 1.234-2.531 1.234-1.75 0-2.813-1.375-1.047-1.375-1.047-3.813zm2.64.187q0 1.39.485 2.125.485.734 1.406.734 1.22 0 1.72-1.03v-3.892q-.5-1.015-1.704-1.015-1.906 0-1.906 3.078z"/></g></svg>