<svg fill="none" stroke-linecap="square" stroke-miterlimit="10" width="706" height="440" xmlns="http://www.w3.org/2000/svg"><path fill="#fff" d="M0 0h706v440H0V0z"/><path fill="#fff" d="M0 0h706v440H0V0z"/><path stroke="#333" stroke-linecap="butt" d="M106.5 367.5h578"/><path stroke="#ccc" stroke-linecap="butt" d="M106.5 254.5h578m-578-112h578m-578-113h578"/><clipPath id="a"><path d="M106 29.5h578v337.833H106V29.5z"/></clipPath><path fill="#0b5394" clip-path="url(#a)" d="M245 367h-52V55a2 2 0 0 1 2-2h48a2 2 0 0 1 2 2zm246 0h-52v-12a2 2 0 0 1 2-2h48a2 2 0 0 1 2 2z"/><path fill="#073763" clip-path="url(#a)" d="M298 367h-52V34a2 2 0 0 1 2-2h48a2 2 0 0 1 2 2zm246 0h-52v-3a2 2 0 0 1 2-2h48a2 2 0 0 1 2 2z"/><path fill="#e69138" clip-path="url(#a)" d="M351 367h-52v-3a2 2 0 0 1 2-2h48a2 2 0 0 1 2 2zm246 0h-52v-3a2 2 0 0 1 2-2h48a2 2 0 0 1 2 2z"/><path stroke="#0b5394" stroke-width="3" stroke-linejoin="round" stroke-linecap="round" d="M202.797 69.385h-5.594v-.781l2.953-3.281q.656-.75.906-1.203.25-.47.25-.97 0-.671-.406-1.093-.39-.437-1.078-.437-.797 0-1.25.468-.453.454-.453 1.282h-1.078q0-1.188.75-1.907.766-.734 2.031-.734 1.203 0 1.89.625.688.625.688 1.672 0 1.25-1.61 3l-2.28 2.469h4.28v.89zm6.922-7.922l-3.531 7.922h-1.141l3.516-7.64h-4.61v-.891h5.766v.61zm5.64 4.172q-.328.407-.812.657-.469.234-1.031.234-.735 0-1.282-.36-.547-.359-.843-1.015-.297-.672-.297-1.469 0-.844.312-1.531.328-.688.922-1.047.61-.375 1.406-.375 1.266 0 1.985.953.734.953.734 2.578v.313q0 2.5-.984 3.64-.985 1.141-2.969 1.172h-.219v-.906h.235q1.343-.031 2.062-.703.719-.672.781-2.14zm-1.672 0q.547 0 1-.328.47-.344.688-.828v-.437q0-1.063-.469-1.735-.469-.672-1.172-.672-.718 0-1.156.547-.422.547-.422 1.453 0 .875.406 1.438.422.562 1.125.562zm5.016-.531l.438-4.25h4.375v1h-3.453l-.266 2.328q.64-.375 1.437-.375 1.157 0 1.844.781.688.766.688 2.079 0 1.312-.72 2.078-.702.765-1.983.765-1.125 0-1.844-.625-.719-.64-.813-1.75h1.016q.11.735.531 1.11.422.375 1.11.375.75 0 1.187-.516.438-.516.438-1.422 0-.86-.47-1.375-.468-.515-1.25-.515-.702 0-1.109.296l-.28.235-.876-.219zm7.64-2.062l.032.703q.688-.813 1.875-.813 1.328 0 1.813 1.016.312-.453.812-.735.516-.28 1.203-.28 2.094 0 2.125 2.202v4.25h-1.078v-4.187q0-.672-.313-1-.312-.344-1.046-.344-.61 0-1.016.36-.39.359-.453.968v4.203h-1.078V65.23q0-1.375-1.36-1.375-1.062 0-1.453.906v4.625h-1.094v-6.343h1.032zm13.673 4.656q0-.438-.344-.672-.328-.25-1.156-.422-.813-.172-1.297-.422-.485-.25-.719-.578-.219-.344-.219-.812 0-.782.656-1.313.657-.547 1.688-.547 1.078 0 1.734.563.672.547.672 1.406h-1.078q0-.438-.39-.75-.375-.328-.938-.328-.594 0-.938.265-.328.25-.328.657 0 .39.313.593.312.204 1.125.391.812.172 1.312.422t.735.61q.25.359.25.859 0 .859-.688 1.375-.672.515-1.75.515-.765 0-1.36-.265-.577-.282-.905-.766-.328-.484-.328-1.047h1.078q.03.547.437.875.406.313 1.078.313.61 0 .985-.25t.375-.672z"/><path fill="#fff" d="M202.797 69.385h-5.594v-.781l2.953-3.281q.656-.75.906-1.203.25-.47.25-.97 0-.671-.406-1.093-.39-.437-1.078-.437-.797 0-1.25.468-.453.454-.453 1.282h-1.078q0-1.188.75-1.907.766-.734 2.031-.734 1.203 0 1.89.625.688.625.688 1.672 0 1.25-1.61 3l-2.28 2.469h4.28v.89zm6.922-7.922l-3.531 7.922h-1.141l3.516-7.64h-4.61v-.891h5.766v.61zm5.64 4.172q-.328.407-.812.657-.469.234-1.031.234-.735 0-1.282-.36-.547-.359-.843-1.015-.297-.672-.297-1.469 0-.844.312-1.531.328-.688.922-1.047.61-.375 1.406-.375 1.266 0 1.985.953.734.953.734 2.578v.313q0 2.5-.984 3.64-.985 1.141-2.969 1.172h-.219v-.906h.235q1.343-.031 2.062-.703.719-.672.781-2.14zm-1.672 0q.547 0 1-.328.47-.344.688-.828v-.437q0-1.063-.469-1.735-.469-.672-1.172-.672-.718 0-1.156.547-.422.547-.422 1.453 0 .875.406 1.438.422.562 1.125.562zm5.016-.531l.438-4.25h4.375v1h-3.453l-.266 2.328q.64-.375 1.437-.375 1.157 0 1.844.781.688.766.688 2.079 0 1.312-.72 2.078-.702.765-1.983.765-1.125 0-1.844-.625-.719-.64-.813-1.75h1.016q.11.735.531 1.11.422.375 1.11.375.75 0 1.187-.516.438-.516.438-1.422 0-.86-.47-1.375-.468-.515-1.25-.515-.702 0-1.109.296l-.28.235-.876-.219zm7.64-2.062l.032.703q.688-.813 1.875-.813 1.328 0 1.813 1.016.312-.453.812-.735.516-.28 1.203-.28 2.094 0 2.125 2.202v4.25h-1.078v-4.187q0-.672-.313-1-.312-.344-1.046-.344-.61 0-1.016.36-.39.359-.453.968v4.203h-1.078V65.23q0-1.375-1.36-1.375-1.062 0-1.453.906v4.625h-1.094v-6.343h1.032zm13.673 4.656q0-.438-.344-.672-.328-.25-1.156-.422-.813-.172-1.297-.422-.485-.25-.719-.578-.219-.344-.219-.812 0-.782.656-1.313.657-.547 1.688-.547 1.078 0 1.734.563.672.547.672 1.406h-1.078q0-.438-.39-.75-.375-.328-.938-.328-.594 0-.938.265-.328.25-.328.657 0 .39.313.593.312.204 1.125.391.812.172 1.312.422t.735.61q.25.359.25.859 0 .859-.688 1.375-.672.515-1.75.515-.765 0-1.36-.265-.577-.282-.905-.766-.328-.484-.328-1.047h1.078q.03.547.437.875.406.313 1.078.313.61 0 .985-.25t.375-.672z"/><path stroke="#fff" stroke-width="3" stroke-linejoin="round" stroke-linecap="round" d="M450.266 337.807h-1.079v-7.22l-2.187.798v-.985l3.11-1.172h.156v8.579zm9.03 0h-5.593v-.782l2.953-3.281q.656-.75.906-1.203.25-.469.25-.969 0-.672-.406-1.094-.39-.437-1.078-.437-.797 0-1.25.469-.453.453-.453 1.28h-1.078q0-1.187.75-1.905.765-.735 2.031-.735 1.203 0 1.89.625.688.625.688 1.672 0 1.25-1.61 3l-2.28 2.469h4.28v.89zm5.563-3.75q-.328.406-.812.656-.469.234-1.031.234-.735 0-1.282-.36-.546-.359-.843-1.015-.297-.672-.297-1.469 0-.843.312-1.53.328-.688.922-1.048.61-.375 1.406-.375 1.266 0 1.985.953.734.954.734 2.579v.312q0 2.5-.984 3.64-.985 1.141-2.969 1.173h-.219v-.907h.235q1.343-.031 2.062-.703.719-.672.781-2.14zm-1.671 0q.546 0 1-.329.468-.343.687-.828v-.437q0-1.063-.469-1.735-.469-.671-1.172-.671-.718 0-1.156.546-.422.547-.422 1.454 0 .875.406 1.437.422.563 1.125.563zm5.656-2.594l.031.703q.688-.813 1.875-.813 1.328 0 1.813 1.016.312-.453.812-.734.516-.282 1.203-.282 2.094 0 2.125 2.204v4.25h-1.078v-4.188q0-.672-.313-1-.312-.344-1.046-.344-.61 0-1.016.36-.39.359-.453.968v4.204h-1.078v-4.157q0-1.375-1.36-1.375-1.062 0-1.453.907v4.625h-1.094v-6.344h1.032zm13.672 4.656q0-.438-.344-.672-.328-.25-1.156-.422-.813-.172-1.297-.422-.485-.25-.719-.578-.219-.343-.219-.812 0-.781.656-1.313.657-.547 1.688-.547 1.078 0 1.734.563.672.547.672 1.406h-1.078q0-.437-.39-.75-.375-.328-.938-.328-.594 0-.938.266-.328.25-.328.656 0 .39.313.594.312.203 1.125.39.812.172 1.312.422t.735.61q.25.359.25.859 0 .86-.688 1.375-.672.516-1.75.516-.765 0-1.36-.266-.577-.281-.905-.766-.329-.484-.329-1.047h1.079q.03.547.437.875.406.313 1.078.313.61 0 .985-.25t.375-.672z"/><path fill="#0b5394" d="M450.266 337.807h-1.079v-7.22l-2.187.798v-.985l3.11-1.172h.156v8.579zm9.03 0h-5.593v-.782l2.953-3.281q.656-.75.906-1.203.25-.469.25-.969 0-.672-.406-1.094-.39-.437-1.078-.437-.797 0-1.25.469-.453.453-.453 1.28h-1.078q0-1.187.75-1.905.765-.735 2.031-.735 1.203 0 1.89.625.688.625.688 1.672 0 1.25-1.61 3l-2.28 2.469h4.28v.89zm5.563-3.75q-.328.406-.812.656-.469.234-1.031.234-.735 0-1.282-.36-.546-.359-.843-1.015-.297-.672-.297-1.469 0-.843.312-1.53.328-.688.922-1.048.61-.375 1.406-.375 1.266 0 1.985.953.734.954.734 2.579v.312q0 2.5-.984 3.64-.985 1.141-2.969 1.173h-.219v-.907h.235q1.343-.031 2.062-.703.719-.672.781-2.14zm-1.671 0q.546 0 1-.329.468-.343.687-.828v-.437q0-1.063-.469-1.735-.469-.671-1.172-.671-.718 0-1.156.546-.422.547-.422 1.454 0 .875.406 1.437.422.563 1.125.563zm5.656-2.594l.031.703q.688-.813 1.875-.813 1.328 0 1.813 1.016.312-.453.812-.734.516-.282 1.203-.282 2.094 0 2.125 2.204v4.25h-1.078v-4.188q0-.672-.313-1-.312-.344-1.046-.344-.61 0-1.016.36-.39.359-.453.968v4.204h-1.078v-4.157q0-1.375-1.36-1.375-1.062 0-1.453.907v4.625h-1.094v-6.344h1.032zm13.672 4.656q0-.438-.344-.672-.328-.25-1.156-.422-.813-.172-1.297-.422-.485-.25-.719-.578-.219-.343-.219-.812 0-.781.656-1.313.657-.547 1.688-.547 1.078 0 1.734.563.672.547.672 1.406h-1.078q0-.437-.39-.75-.375-.328-.938-.328-.594 0-.938.266-.328.25-.328.656 0 .39.313.594.312.203 1.125.39.812.172 1.312.422t.735.61q.25.359.25.859 0 .86-.688 1.375-.672.516-1.75.516-.765 0-1.36-.266-.577-.281-.905-.766-.329-.484-.329-1.047h1.079q.03.547.437.875.406.313 1.078.313.61 0 .985-.25t.375-.672z"/><path stroke="#073763" stroke-width="3" stroke-linejoin="round" stroke-linecap="round" d="M255.797 49.115h-5.594v-.781l2.953-3.281q.656-.75.906-1.203.25-.47.25-.97 0-.671-.406-1.093-.39-.437-1.078-.437-.797 0-1.25.468-.453.454-.453 1.282h-1.078q0-1.188.75-1.907.766-.734 2.031-.734 1.203 0 1.89.625.688.625.688 1.672 0 1.25-1.61 3l-2.28 2.469h4.28v.89zm5.562-3.75q-.328.407-.812.657-.469.234-1.031.234-.735 0-1.282-.36-.546-.359-.843-1.015-.297-.672-.297-1.469 0-.844.312-1.531.328-.688.922-1.047.61-.375 1.406-.375 1.266 0 1.985.953.734.953.734 2.578v.313q0 2.5-.984 3.64-.985 1.141-2.969 1.172h-.219v-.906h.235q1.343-.031 2.062-.703.719-.672.781-2.14zm-1.671 0q.546 0 1-.328.468-.344.687-.828v-.437q0-1.063-.469-1.735-.469-.672-1.172-.672-.718 0-1.156.547-.422.547-.422 1.453 0 .875.406 1.438.422.562 1.125.562zm10.03-4.172l-3.53 7.922h-1.141l3.515-7.64h-4.609v-.891h5.766v.61zm1.985 3.641l.438-4.25h4.375v1h-3.454l-.265 2.328q.64-.375 1.437-.375 1.157 0 1.844.781.688.766.688 2.079 0 1.312-.72 2.078-.702.765-1.983.765-1.125 0-1.844-.625-.719-.64-.813-1.75h1.016q.11.735.531 1.11.422.375 1.11.375.75 0 1.187-.516.438-.516.438-1.422 0-.86-.47-1.375-.468-.515-1.25-.515-.702 0-1.109.296l-.28.235-.876-.219zm7.64-2.062l.032.703q.688-.813 1.875-.813 1.328 0 1.813 1.016.312-.453.812-.735.516-.28 1.203-.28 2.094 0 2.125 2.202v4.25h-1.078v-4.187q0-.672-.313-1-.312-.344-1.046-.344-.61 0-1.016.36-.39.359-.453.968v4.203h-1.078V44.96q0-1.375-1.36-1.375-1.062 0-1.453.906v4.625h-1.094v-6.343h1.032zm13.673 4.656q0-.438-.344-.672-.328-.25-1.156-.422-.813-.172-1.297-.422-.485-.25-.719-.578-.219-.344-.219-.812 0-.782.656-1.313.657-.547 1.688-.547 1.078 0 1.734.563.672.547.672 1.406h-1.078q0-.438-.39-.75-.375-.328-.938-.328-.594 0-.938.265-.328.25-.328.657 0 .39.313.593.312.204 1.125.391.812.172 1.312.422t.735.61q.25.359.25.859 0 .859-.688 1.375-.672.515-1.75.515-.765 0-1.36-.265-.577-.282-.905-.766-.329-.484-.329-1.047h1.079q.03.547.437.875.406.313 1.078.313.61 0 .985-.25t.375-.672z"/><path fill="#fff" d="M255.797 49.115h-5.594v-.781l2.953-3.281q.656-.75.906-1.203.25-.47.25-.97 0-.671-.406-1.093-.39-.437-1.078-.437-.797 0-1.25.468-.453.454-.453 1.282h-1.078q0-1.188.75-1.907.766-.734 2.031-.734 1.203 0 1.89.625.688.625.688 1.672 0 1.25-1.61 3l-2.28 2.469h4.28v.89zm5.562-3.75q-.328.407-.812.657-.469.234-1.031.234-.735 0-1.282-.36-.546-.359-.843-1.015-.297-.672-.297-1.469 0-.844.312-1.531.328-.688.922-1.047.61-.375 1.406-.375 1.266 0 1.985.953.734.953.734 2.578v.313q0 2.5-.984 3.64-.985 1.141-2.969 1.172h-.219v-.906h.235q1.343-.031 2.062-.703.719-.672.781-2.14zm-1.671 0q.546 0 1-.328.468-.344.687-.828v-.437q0-1.063-.469-1.735-.469-.672-1.172-.672-.718 0-1.156.547-.422.547-.422 1.453 0 .875.406 1.438.422.562 1.125.562zm10.03-4.172l-3.53 7.922h-1.141l3.515-7.64h-4.609v-.891h5.766v.61zm1.985 3.641l.438-4.25h4.375v1h-3.454l-.265 2.328q.64-.375 1.437-.375 1.157 0 1.844.781.688.766.688 2.079 0 1.312-.72 2.078-.702.765-1.983.765-1.125 0-1.844-.625-.719-.64-.813-1.75h1.016q.11.735.531 1.11.422.375 1.11.375.75 0 1.187-.516.438-.516.438-1.422 0-.86-.47-1.375-.468-.515-1.25-.515-.702 0-1.109.296l-.28.235-.876-.219zm7.64-2.062l.032.703q.688-.813 1.875-.813 1.328 0 1.813 1.016.312-.453.812-.735.516-.28 1.203-.28 2.094 0 2.125 2.202v4.25h-1.078v-4.187q0-.672-.313-1-.312-.344-1.046-.344-.61 0-1.016.36-.39.359-.453.968v4.203h-1.078V44.96q0-1.375-1.36-1.375-1.062 0-1.453.906v4.625h-1.094v-6.343h1.032zm13.673 4.656q0-.438-.344-.672-.328-.25-1.156-.422-.813-.172-1.297-.422-.485-.25-.719-.578-.219-.344-.219-.812 0-.782.656-1.313.657-.547 1.688-.547 1.078 0 1.734.563.672.547.672 1.406h-1.078q0-.438-.39-.75-.375-.328-.938-.328-.594 0-.938.265-.328.25-.328.657 0 .39.313.593.312.204 1.125.391.812.172 1.312.422t.735.61q.25.359.25.859 0 .859-.688 1.375-.672.515-1.75.515-.765 0-1.36-.265-.577-.282-.905-.766-.329-.484-.329-1.047h1.079q.03.547.437.875.406.313 1.078.313.61 0 .985-.25t.375-.672z"/><path stroke="#fff" stroke-width="3" stroke-linejoin="round" stroke-linecap="round" d="M507.781 344.52h1.188v.874h-1.188v1.984h-1.078v-1.984h-3.89v-.64l3.812-5.907h1.156v5.672zm-3.734 0h2.656v-4.188l-.14.234-2.516 3.953zm10.734 0h1.188v.874h-1.188v1.984h-1.078v-1.984h-3.89v-.64l3.812-5.907h1.156v5.672zm-3.734 0h2.656v-4.188l-.14.234-2.516 3.953zm7.297-3.485l.031.703q.688-.813 1.875-.813 1.328 0 1.813 1.016.312-.453.812-.734.516-.282 1.203-.282 2.094 0 2.125 2.203v4.25h-1.078v-4.187q0-.672-.313-1-.312-.344-1.046-.344-.61 0-1.016.36-.39.359-.453.968v4.203h-1.078v-4.156q0-1.375-1.36-1.375-1.062 0-1.453.906v4.625h-1.093v-6.343h1.03zm13.672 4.656q0-.438-.344-.672-.328-.25-1.156-.422-.813-.172-1.297-.422-.485-.25-.719-.578-.219-.344-.219-.812 0-.782.657-1.313.656-.547 1.687-.547 1.078 0 1.734.563.672.547.672 1.406h-1.078q0-.437-.39-.75-.375-.328-.938-.328-.594 0-.938.266-.328.25-.328.656 0 .39.313.594.312.203 1.125.39.812.172 1.312.422t.735.61q.25.359.25.859 0 .86-.688 1.375-.672.515-1.75.515-.765 0-1.36-.265-.577-.281-.905-.766-.328-.484-.328-1.047h1.078q.03.547.437.875.406.313 1.078.313.61 0 .985-.25t.375-.672z"/><path fill="#073763" d="M507.781 344.52h1.188v.874h-1.188v1.984h-1.078v-1.984h-3.89v-.64l3.812-5.907h1.156v5.672zm-3.734 0h2.656v-4.188l-.14.234-2.516 3.953zm10.734 0h1.188v.874h-1.188v1.984h-1.078v-1.984h-3.89v-.64l3.812-5.907h1.156v5.672zm-3.734 0h2.656v-4.188l-.14.234-2.516 3.953zm7.297-3.485l.031.703q.688-.813 1.875-.813 1.328 0 1.813 1.016.312-.453.812-.734.516-.282 1.203-.282 2.094 0 2.125 2.203v4.25h-1.078v-4.187q0-.672-.313-1-.312-.344-1.046-.344-.61 0-1.016.36-.39.359-.453.968v4.203h-1.078v-4.156q0-1.375-1.36-1.375-1.062 0-1.453.906v4.625h-1.093v-6.343h1.03zm13.672 4.656q0-.438-.344-.672-.328-.25-1.156-.422-.813-.172-1.297-.422-.485-.25-.719-.578-.219-.344-.219-.812 0-.782.657-1.313.656-.547 1.687-.547 1.078 0 1.734.563.672.547.672 1.406h-1.078q0-.437-.39-.75-.375-.328-.938-.328-.594 0-.938.266-.328.25-.328.656 0 .39.313.594.312.203 1.125.39.812.172 1.312.422t.735.61q.25.359.25.859 0 .86-.688 1.375-.672.515-1.75.515-.765 0-1.36-.265-.577-.281-.905-.766-.328-.484-.328-1.047h1.078q.03.547.437.875.406.313 1.078.313.61 0 .985-.25t.375-.672z"/><path stroke="#fff" stroke-width="3" stroke-linejoin="round" stroke-linecap="round" d="M314.781 344.406h1.188v.875h-1.188v1.985h-1.078v-1.985h-3.89v-.64l3.812-5.906h1.156v5.671zm-3.734 0h2.656v-4.187l-.14.234-2.516 3.953zm6.656-1.421l.438-4.25h4.375v1h-3.454l-.265 2.328q.64-.375 1.437-.375 1.157 0 1.844.781.688.766.688 2.078 0 1.313-.72 2.078-.702.766-1.983.766-1.125 0-1.844-.625-.719-.64-.813-1.75h1.016q.11.734.531 1.11.422.374 1.11.374.75 0 1.187-.515.438-.516.438-1.422 0-.86-.47-1.375-.468-.516-1.25-.516-.702 0-1.109.297l-.28.234-.876-.218zm7.64-2.063l.032.703q.688-.812 1.875-.812 1.328 0 1.813 1.015.312-.453.812-.734.516-.281 1.203-.281 2.094 0 2.125 2.203v4.25h-1.078v-4.188q0-.672-.313-1-.312-.343-1.046-.343-.61 0-1.016.359-.39.36-.453.969v4.203h-1.078v-4.156q0-1.375-1.36-1.375-1.062 0-1.453.906v4.625h-1.094v-6.344h1.032zm13.673 4.656q0-.437-.344-.672-.328-.25-1.156-.421-.813-.172-1.297-.422-.485-.25-.719-.578-.219-.344-.219-.813 0-.781.656-1.312.657-.547 1.688-.547 1.078 0 1.734.562.672.547.672 1.406h-1.078q0-.437-.39-.75-.375-.328-.938-.328-.594 0-.938.266-.328.25-.328.656 0 .39.313.594.312.203 1.125.39.812.172 1.312.422t.735.61q.25.36.25.86 0 .859-.688 1.374-.672.516-1.75.516-.765 0-1.36-.266-.577-.281-.905-.765-.329-.485-.329-1.047h1.079q.03.547.437.875.406.312 1.078.312.61 0 .985-.25t.375-.672z"/><path fill="#e69138" d="M314.781 344.406h1.188v.875h-1.188v1.985h-1.078v-1.985h-3.89v-.64l3.812-5.906h1.156v5.671zm-3.734 0h2.656v-4.187l-.14.234-2.516 3.953zm6.656-1.421l.438-4.25h4.375v1h-3.454l-.265 2.328q.64-.375 1.437-.375 1.157 0 1.844.781.688.766.688 2.078 0 1.313-.72 2.078-.702.766-1.983.766-1.125 0-1.844-.625-.719-.64-.813-1.75h1.016q.11.734.531 1.11.422.374 1.11.374.75 0 1.187-.515.438-.516.438-1.422 0-.86-.47-1.375-.468-.516-1.25-.516-.702 0-1.109.297l-.28.234-.876-.218zm7.64-2.063l.032.703q.688-.812 1.875-.812 1.328 0 1.813 1.015.312-.453.812-.734.516-.281 1.203-.281 2.094 0 2.125 2.203v4.25h-1.078v-4.188q0-.672-.313-1-.312-.343-1.046-.343-.61 0-1.016.359-.39.36-.453.969v4.203h-1.078v-4.156q0-1.375-1.36-1.375-1.062 0-1.453.906v4.625h-1.094v-6.344h1.032zm13.673 4.656q0-.437-.344-.672-.328-.25-1.156-.421-.813-.172-1.297-.422-.485-.25-.719-.578-.219-.344-.219-.813 0-.781.656-1.312.657-.547 1.688-.547 1.078 0 1.734.562.672.547.672 1.406h-1.078q0-.437-.39-.75-.375-.328-.938-.328-.594 0-.938.266-.328.25-.328.656 0 .39.313.594.312.203 1.125.39.812.172 1.312.422t.735.61q.25.36.25.86 0 .859-.688 1.374-.672.516-1.75.516-.765 0-1.36-.266-.577-.281-.905-.765-.329-.485-.329-1.047h1.079q.03.547.437.875.406.312 1.078.312.61 0 .985-.25t.375-.672z"/><path stroke="#fff" stroke-width="3" stroke-linejoin="round" stroke-linecap="round" d="M560.781 344.294h1.188v.875h-1.188v1.984h-1.078v-1.984h-3.89v-.64l3.812-5.907h1.156v5.672zm-3.734 0h2.656v-4.188l-.14.235-2.516 3.953zm10.422-5.672v.906h-.203q-1.266.031-2.016.766-.75.719-.875 2.031.688-.766 1.844-.766 1.11 0 1.781.782.672.781.672 2.031 0 1.312-.719 2.11-.719.796-1.937.796-1.22 0-1.985-.937-.75-.953-.75-2.438v-.406q0-2.36 1-3.61t2.985-1.265h.203zm-1.422 3.844q-.563 0-1.031.328-.47.328-.657.844v.39q0 1.063.47 1.703.484.641 1.187.641.734 0 1.156-.531.422-.547.422-1.422 0-.875-.422-1.406-.422-.547-1.125-.547zm5.297-1.657l.031.704q.688-.813 1.875-.813 1.328 0 1.813 1.016.312-.453.812-.735.516-.28 1.203-.28 2.094 0 2.125 2.202v4.25h-1.078v-4.187q0-.672-.313-1-.312-.344-1.046-.344-.61 0-1.016.36-.39.359-.453.968v4.203h-1.078v-4.156q0-1.375-1.36-1.375-1.062 0-1.453.906v4.625h-1.093v-6.344h1.03zm13.672 4.657q0-.438-.344-.672-.328-.25-1.156-.422-.813-.172-1.297-.422-.485-.25-.719-.578-.219-.344-.219-.813 0-.78.657-1.312.656-.547 1.687-.547 1.078 0 1.734.563.672.546.672 1.406h-1.078q0-.438-.39-.75-.375-.328-.938-.328-.594 0-.938.265-.328.25-.328.657 0 .39.313.593.312.203 1.125.391.812.172 1.312.422t.735.61q.25.359.25.859 0 .859-.688 1.375-.672.515-1.75.515-.765 0-1.36-.265-.577-.282-.905-.766-.328-.484-.328-1.047h1.078q.03.547.437.875.406.313 1.078.313.61 0 .985-.25t.375-.672z"/><path fill="#e69138" d="M560.781 344.294h1.188v.875h-1.188v1.984h-1.078v-1.984h-3.89v-.64l3.812-5.907h1.156v5.672zm-3.734 0h2.656v-4.188l-.14.235-2.516 3.953zm10.422-5.672v.906h-.203q-1.266.031-2.016.766-.75.719-.875 2.031.688-.766 1.844-.766 1.11 0 1.781.782.672.781.672 2.031 0 1.312-.719 2.11-.719.796-1.937.796-1.22 0-1.985-.937-.75-.953-.75-2.438v-.406q0-2.36 1-3.61t2.985-1.265h.203zm-1.422 3.844q-.563 0-1.031.328-.47.328-.657.844v.39q0 1.063.47 1.703.484.641 1.187.641.734 0 1.156-.531.422-.547.422-1.422 0-.875-.422-1.406-.422-.547-1.125-.547zm5.297-1.657l.031.704q.688-.813 1.875-.813 1.328 0 1.813 1.016.312-.453.812-.735.516-.28 1.203-.28 2.094 0 2.125 2.202v4.25h-1.078v-4.187q0-.672-.313-1-.312-.344-1.046-.344-.61 0-1.016.36-.39.359-.453.968v4.203h-1.078v-4.156q0-1.375-1.36-1.375-1.062 0-1.453.906v4.625h-1.093v-6.344h1.03zm13.672 4.657q0-.438-.344-.672-.328-.25-1.156-.422-.813-.172-1.297-.422-.485-.25-.719-.578-.219-.344-.219-.813 0-.78.657-1.312.656-.547 1.687-.547 1.078 0 1.734.563.672.546.672 1.406h-1.078q0-.438-.39-.75-.375-.328-.938-.328-.594 0-.938.265-.328.25-.328.657 0 .39.313.593.312.203 1.125.391.812.172 1.312.422t.735.61q.25.359.25.859 0 .859-.688 1.375-.672.515-1.75.515-.765 0-1.36-.265-.577-.282-.905-.766-.328-.484-.328-1.047h1.078q.03.547.437.875.406.313 1.078.313.61 0 .985-.25t.375-.672z"/><path fill="#b7b7b7" d="M30.063 282.354v3.703h3.015v-4.297H34v5.422h-8.531v-5.375h.922v4.25h2.75v-3.703h.922zm-.094-4.14l-2.313-1.407v-1.265l3.14 2.078L34 275.48v1.25l-2.375 1.468L34 279.667v1.265l-3.203-2.14-3.14 2.062v-1.25l2.312-1.39zm4.156-6.5q0 1.296-.844 2.109-.86.797-2.281.797h-.187q-.954 0-1.688-.36-.75-.359-1.156-1-.422-.656-.422-1.406 0-1.234.812-1.922.813-.687 2.329-.687h.453v4.297q.937-.032 1.515-.547.578-.531.578-1.344 0-.562-.234-.953-.234-.406-.625-.719l.516-.656q1.234.797 1.234 2.39zm-5.687.14q0 .656.484 1.11.469.437 1.328.53v-3.171h-.078q-.828.047-1.281.453-.453.39-.453 1.078zm4.796-6.047q0-.578-.343-1.015-.36-.438-.891-.485v-1.03q.547.03 1.047.39.484.343.781.922.297.562.297 1.218 0 1.297-.86 2.063-.874.75-2.374.75h-.188q-.922 0-1.64-.328-.72-.344-1.11-.97-.406-.64-.406-1.515 0-1.062.64-1.765.626-.72 1.657-.766v1.031q-.625.047-1.016.47-.39.42-.39 1.03 0 .828.593 1.282.594.453 1.719.453h.203q1.094 0 1.688-.453.593-.454.593-1.282zm.141-7.375q.75.625.75 1.86 0 1.015-.594 1.547-.593.53-1.75.53h-4.125v-1.077h4.094q1.453 0 1.453-1.172 0-1.25-.937-1.656h-4.61v-1.094H34v1.031l-.625.031zm-7.25-4.562h1.531v-1.172h.844v1.172h3.922q.39 0 .578-.156.188-.157.188-.532 0-.187-.063-.515H34q.125.422.125.828 0 .719-.437 1.094-.454.375-1.266.375H28.5v1.156h-.844v-1.156h-1.531v-1.094zM34 250.167v1.078h-6.344v-1.078H34zm-8.016 1.172q-.265 0-.453-.157-.187-.172-.187-.484 0-.313.187-.469.188-.172.453-.172.25 0 .438.172.172.156.172.469 0 .312-.172.484-.188.157-.438.157zm4.782-2.704q-.922 0-1.672-.359-.75-.375-1.14-1.031-.407-.656-.407-1.485 0-1.296.89-2.093.891-.813 2.391-.813h.078q.922 0 1.657.36.734.359 1.156 1.015.406.656.406 1.516 0 1.281-.89 2.094-.907.796-2.391.796h-.078zm.14-1.093q1.047 0 1.688-.485.64-.5.64-1.312 0-.828-.64-1.313-.656-.484-1.828-.484-1.032 0-1.672.5-.656.484-.656 1.312 0 .797.64 1.297.625.485 1.828.485zm-3.25-7.22l.797-.03q-.906-.735-.906-1.907 0-2.015 2.266-2.03H34v1.093h-4.203q-.672 0-1 .312-.328.297-.328.954 0 .53.281.937.281.39.734.61H34v1.078h-6.344v-1.016zm-1.531-10.452h1.531v-1.172h.844v1.172h3.922q.39 0 .578-.156.188-.157.188-.532 0-.187-.063-.515H34q.125.422.125.828 0 .719-.437 1.094-.454.375-1.266.375H28.5v1.156h-.844v-1.156h-1.531v-1.094zM34 226.167v1.078h-6.344v-1.078H34zm-8.016 1.172q-.265 0-.453-.157-.187-.172-.187-.484 0-.313.187-.469.188-.172.453-.172.25 0 .438.172.172.156.172.469 0 .312-.172.484-.188.157-.438.157zm1.672-4.016l.703-.031q-.812-.688-.812-1.875 0-1.328 1.016-1.813-.454-.312-.735-.812-.281-.516-.281-1.203 0-2.094 2.203-2.125H34v1.078h-4.187q-.672 0-1 .312-.344.313-.344 1.047 0 .61.36 1.016.359.39.968.453H34v1.078h-4.156q-1.375 0-1.375 1.36 0 1.062.906 1.452H34v1.094h-6.344v-1.031zm6.469-12.61q0 1.297-.844 2.11-.86.797-2.281.797h-.187q-.954 0-1.688-.36-.75-.359-1.156-1-.422-.656-.422-1.406 0-1.234.812-1.922.813-.687 2.329-.687h.453v4.297q.937-.032 1.515-.547.578-.531.578-1.344 0-.562-.234-.953-.234-.406-.625-.719l.516-.656q1.234.797 1.234 2.39zm-5.687.141q0 .656.484 1.11.469.437 1.328.53v-3.171h-.078q-.828.047-1.281.453-.453.39-.453 1.078zm2.093-6.469q-1.312 0-2.531-.343-1.219-.36-2.219-1.063-1-.703-1.406-1.469l.719-.218q.656.859 2 1.406 1.344.547 3.015.594l.5.015q2.266 0 3.922-.828 1-.5 1.563-1.187l.656.218q-.422.782-1.453 1.5-1.984 1.375-4.766 1.375zM34 199.167v1.078h-9v-1.078h9zm-3.234-1.532q-.922 0-1.672-.359-.75-.375-1.14-1.031-.407-.656-.407-1.485 0-1.296.89-2.093.891-.813 2.391-.813h.078q.922 0 1.657.36.734.359 1.156 1.015.406.656.406 1.516 0 1.281-.89 2.094-.907.796-2.391.796h-.078zm.14-1.093q1.047 0 1.688-.485.64-.5.64-1.312 0-.828-.64-1.313-.656-.484-1.828-.484-1.032 0-1.672.5-.656.484-.656 1.312 0 .797.64 1.297.625.485 1.828.485zm1.594-11.813l-4.844-1.219v-1.078L34 184.276v.875l-4.812 1.547 4.812 1.5v.875l-6.344 1.844v-1.078l4.75-1.25-4.75-1.485v-.86l4.844-1.515zm1.625-6.015q0 1.296-.844 2.109-.86.797-2.281.797h-.187q-.954 0-1.688-.36-.75-.359-1.156-1-.422-.656-.422-1.406 0-1.234.812-1.922.813-.687 2.329-.687h.453v4.297q.937-.032 1.515-.547.578-.531.578-1.344 0-.562-.234-.953-.234-.406-.625-.719l.516-.656q1.234.797 1.234 2.39zm-5.687.14q0 .656.484 1.11.469.437 1.328.53v-3.171h-.078q-.828.047-1.281.453-.453.39-.453 1.078zm.187-6.578q-.031.25-.031.531 0 1.078.906 1.453H34v1.079h-6.344v-1.047l.735-.016q-.844-.531-.844-1.516 0-.312.078-.484h1zm5.375-5.11v1.079h-6.344v-1.078H34zm-8.016 1.173q-.265 0-.453-.157-.187-.172-.187-.484 0-.313.187-.469.188-.172.453-.172.25 0 .438.172.172.156.172.469 0 .312-.172.484-.188.157-.438.157zm6.329-6.688q-.438 0-.672.344-.25.328-.422 1.156-.172.813-.422 1.297t-.578.719q-.344.218-.813.218-.781 0-1.312-.656-.547-.656-.547-1.687 0-1.078.562-1.735.547-.672 1.407-.672v1.079q-.438 0-.75.39-.328.375-.328.938 0 .593.265.937.25.328.656.328.391 0 .594-.312.203-.313.39-1.125.173-.813.423-1.313t.609-.734q.36-.25.86-.25.859 0 1.374.687.516.672.516 1.75 0 .766-.266 1.36-.28.578-.765.906-.485.328-1.047.328v-1.078q.547-.031.875-.437.312-.407.312-1.079 0-.609-.25-.984t-.671-.375zm-1.407-10.672q1.453 0 2.344.672.875.656.875 1.781 0 1.203-.86 1.86l.735.062v.985h-9v-1.079h3.36q-.813-.656-.813-1.812 0-1.156.875-1.813.86-.656 2.39-.656h.094zm-.125 1.078q-1.11 0-1.703.438-.61.422-.61 1.219 0 1.078.985 1.546h2.75q1-.5 1-1.546 0-.782-.61-1.22-.609-.437-1.812-.437zm3.344-5.343q0 1.296-.844 2.109-.86.797-2.281.797h-.187q-.954 0-1.688-.36-.75-.359-1.156-1-.422-.656-.422-1.406 0-1.234.812-1.922.813-.687 2.329-.687h.453v4.297q.937-.032 1.515-.547.578-.531.578-1.344 0-.562-.234-.953-.234-.406-.625-.719l.516-.656q1.234.797 1.234 2.39zm-5.687.14q0 .656.484 1.11.469.437 1.328.53v-3.171h-.078q-.828.047-1.281.453-.453.39-.453 1.078zm-2.313-4.984h1.531v-1.172h.844v1.172h3.922q.39 0 .578-.156.188-.157.188-.532 0-.187-.063-.515H34q.125.422.125.828 0 .719-.437 1.094-.454.375-1.266.375H28.5v1.156h-.844v-1.156h-1.531v-1.094zm0-4h1.531v-1.172h.844v1.172h3.922q.39 0 .578-.156.188-.157.188-.532 0-.187-.063-.515H34q.125.422.125.828 0 .719-.437 1.094-.454.375-1.266.375H28.5v1.156h-.844v-1.156h-1.531v-1.094zm8-5.156q0 1.296-.844 2.109-.86.797-2.281.797h-.187q-.954 0-1.688-.36-.75-.359-1.156-1-.422-.656-.422-1.406 0-1.234.812-1.922.813-.687 2.329-.687h.453v4.297q.937-.032 1.515-.547.578-.531.578-1.344 0-.562-.234-.953-.234-.406-.625-.719l.516-.656q1.234.797 1.234 2.39zm-5.687.14q0 .656.484 1.11.469.437 1.328.53v-3.171h-.078q-.828.047-1.281.453-.453.39-.453 1.078zm.187-6.578q-.031.25-.031.531 0 1.078.906 1.453H34v1.079h-6.344v-1.047l.735-.016q-.844-.531-.844-1.516 0-.312.078-.484h1zm1.969-3.437q1.312 0 2.515.343 1.188.344 2.204 1.063 1.015.703 1.437 1.469l-.656.234q-.688-.906-2.14-1.453-1.47-.547-3.235-.563h-.188q-1.234 0-2.297.266-1.062.25-1.89.719-.844.453-1.313 1.03l-.656-.233q.422-.766 1.422-1.47 1-.702 2.219-1.046 1.203-.36 2.578-.36z"/><path fill="#757575" d="M82.063 368.193q0 1.906-.657 2.843-.64.922-2.031.922-1.36 0-2.016-.906-.656-.906-.687-2.719v-1.437q0-1.89.64-2.797.657-.922 2.047-.922 1.375 0 2.032.89.656.876.671 2.72v1.406zm-1.094-1.485q0-1.375-.39-2-.376-.64-1.22-.64-.828 0-1.218.64-.375.625-.375 1.922v1.735q0 1.375.39 2.046.406.657 1.219.657.797 0 1.188-.625.39-.625.406-1.953v-1.782zm3.875-1.218l.031.703q.688-.813 1.875-.813 1.328 0 1.813 1.016.312-.453.812-.735.516-.28 1.203-.28 2.094 0 2.125 2.202v4.25h-1.078v-4.187q0-.672-.313-1-.312-.344-1.046-.344-.61 0-1.016.36-.39.359-.453.968v4.203h-1.078v-4.156q0-1.375-1.36-1.375-1.062 0-1.453.906v4.625h-1.094v-6.343h1.032zm13.672 4.656q0-.438-.344-.672-.328-.25-1.156-.422-.813-.172-1.297-.422-.485-.25-.719-.578-.219-.344-.219-.812 0-.782.656-1.313.657-.547 1.688-.547 1.078 0 1.734.563.672.547.672 1.406h-1.078q0-.438-.39-.75-.376-.328-.938-.328-.594 0-.938.265-.328.25-.328.657 0 .39.313.593.312.204 1.125.391.812.172 1.312.422t.735.61q.25.359.25.859 0 .86-.688 1.375-.672.515-1.75.515-.765 0-1.36-.265-.577-.282-.905-.766-.329-.484-.329-1.047h1.079q.03.547.437.875.406.313 1.078.313.61 0 .985-.25t.375-.672zm-39.25-110.924h-1.078v-7.219L56 252.8v-.984l3.11-1.172h.156v8.578zm8.797-3.64q0 1.906-.657 2.843-.64.922-2.031.922-1.36 0-2.016-.906-.656-.906-.687-2.719v-1.437q0-1.89.64-2.797.657-.922 2.047-.922 1.375 0 2.032.89.656.876.671 2.72v1.406zm-1.094-1.485q0-1.375-.39-2-.376-.64-1.22-.64-.828 0-1.218.64-.375.625-.375 1.922v1.734q0 1.375.39 2.047.406.657 1.219.657.797 0 1.188-.625.39-.625.406-1.954v-1.78zm8.094 1.485q0 1.906-.657 2.843-.64.922-2.031.922-1.36 0-2.016-.906-.656-.906-.687-2.719v-1.437q0-1.89.64-2.797.657-.922 2.047-.922 1.375 0 2.032.89.656.876.671 2.72v1.406zm-1.094-1.485q0-1.375-.39-2-.376-.64-1.22-.64-.828 0-1.218.64-.375.625-.375 1.922v1.734q0 1.375.39 2.047.406.657 1.219.657.797 0 1.188-.625.39-.625.406-1.954v-1.78zm8.094 1.485q0 1.906-.657 2.843-.64.922-2.031.922-1.36 0-2.016-.906-.656-.906-.687-2.719v-1.437q0-1.89.64-2.797.657-.922 2.047-.922 1.375 0 2.032.89.656.876.671 2.72v1.406zm-1.094-1.485q0-1.375-.39-2-.376-.64-1.22-.64-.828 0-1.218.64-.375.625-.375 1.922v1.734q0 1.375.39 2.047.406.657 1.219.657.797 0 1.188-.625.39-.625.406-1.954v-1.78zm3.875-1.219l.031.704q.688-.813 1.875-.813 1.328 0 1.813 1.016.312-.453.812-.735.516-.28 1.203-.28 2.094 0 2.125 2.202v4.25h-1.078v-4.187q0-.672-.313-1-.312-.344-1.046-.344-.61 0-1.016.36-.39.359-.453.968v4.203h-1.078v-4.156q0-1.375-1.36-1.375-1.062 0-1.453.906v4.625h-1.094v-6.344h1.032zm13.672 4.657q0-.438-.344-.672-.328-.25-1.156-.422-.813-.172-1.297-.422-.485-.25-.719-.578-.219-.344-.219-.813 0-.78.656-1.312.657-.547 1.688-.547 1.078 0 1.734.563.672.546.672 1.406h-1.078q0-.438-.39-.75-.376-.328-.938-.328-.594 0-.938.265-.328.25-.328.657 0 .39.313.593.312.203 1.125.391.812.172 1.312.422t.735.61q.25.359.25.859 0 .859-.688 1.375-.672.515-1.75.515-.765 0-1.36-.265-.577-.282-.905-.766-.329-.484-.329-1.047h1.079q.03.547.437.875.406.313 1.078.313.61 0 .985-.25t.375-.672zM61.297 146.611h-5.594v-.781l2.953-3.281q.657-.75.907-1.204.25-.468.25-.968 0-.672-.407-1.094-.39-.438-1.078-.438-.797 0-1.25.47-.453.452-.453 1.28h-1.078q0-1.187.75-1.906.766-.734 2.031-.734 1.203 0 1.89.625.688.625.688 1.672 0 1.25-1.61 3l-2.28 2.468h4.28v.891zm6.766-3.64q0 1.906-.657 2.843-.64.922-2.031.922-1.36 0-2.016-.906-.656-.906-.687-2.719v-1.437q0-1.891.64-2.797.657-.922 2.047-.922 1.375 0 2.032.89.656.875.671 2.72v1.405zm-1.094-1.485q0-1.375-.39-2-.376-.64-1.22-.64-.828 0-1.218.64-.375.625-.375 1.922v1.734q0 1.375.39 2.047.406.656 1.219.656.797 0 1.188-.625.39-.625.406-1.953v-1.78zm8.094 1.484q0 1.907-.657 2.844-.64.922-2.031.922-1.36 0-2.016-.906-.656-.906-.687-2.719v-1.437q0-1.891.64-2.797.657-.922 2.047-.922 1.375 0 2.032.89.656.875.671 2.72v1.405zm-1.094-1.484q0-1.375-.39-2-.376-.64-1.22-.64-.828 0-1.218.64-.375.625-.375 1.922v1.734q0 1.375.39 2.047.406.656 1.219.656.797 0 1.188-.625.39-.625.406-1.953v-1.78zm8.094 1.484q0 1.907-.657 2.844-.64.922-2.031.922-1.36 0-2.016-.906-.656-.906-.687-2.719v-1.437q0-1.891.64-2.797.657-.922 2.047-.922 1.375 0 2.032.89.656.875.671 2.72v1.405zm-1.094-1.484q0-1.375-.39-2-.376-.64-1.22-.64-.828 0-1.218.64-.375.625-.375 1.922v1.734q0 1.375.39 2.047.406.656 1.219.656.797 0 1.188-.625.39-.625.406-1.953v-1.78zm3.875-1.219l.031.703q.688-.812 1.875-.812 1.328 0 1.813 1.016.312-.454.812-.735.516-.281 1.203-.281 2.094 0 2.125 2.203v4.25h-1.078v-4.187q0-.672-.313-1-.312-.344-1.046-.344-.61 0-1.016.36-.39.359-.453.968v4.203h-1.078v-4.156q0-1.375-1.36-1.375-1.062 0-1.453.906v4.625h-1.094v-6.344h1.032zm13.672 4.657q0-.438-.344-.672-.328-.25-1.156-.422-.813-.172-1.297-.422-.485-.25-.719-.578-.219-.344-.219-.813 0-.78.656-1.312.657-.547 1.688-.547 1.078 0 1.734.562.672.547.672 1.407h-1.078q0-.438-.39-.75-.376-.328-.938-.328-.594 0-.938.265-.328.25-.328.656 0 .391.313.594.312.203 1.125.39.812.173 1.312.423t.735.61q.25.358.25.858 0 .86-.688 1.375-.672.516-1.75.516-.765 0-1.36-.266-.577-.28-.905-.765-.329-.485-.329-1.047h1.079q.03.547.437.875.406.312 1.078.312.61 0 .985-.25t.375-.671zM57.281 29.203h.813q.781-.015 1.218-.406.438-.39.438-1.063 0-1.5-1.5-1.5-.703 0-1.125.407-.406.406-.406 1.062h-1.094q0-1.015.734-1.687.75-.672 1.891-.672 1.203 0 1.89.64.688.641.688 1.782 0 .562-.36 1.078-.359.515-.984.781.703.219 1.078.734.391.516.391 1.266 0 1.14-.75 1.828-.75.672-1.953.672-1.188 0-1.953-.656-.75-.657-.75-1.719h1.094q0 .672.437 1.078.438.406 1.188.406.78 0 1.187-.406.422-.422.422-1.187 0-.735-.453-1.125-.453-.407-1.328-.422h-.813v-.89zm10.782 1.156q0 1.907-.657 2.844-.64.922-2.031.922-1.36 0-2.016-.906-.656-.907-.687-2.719v-1.438q0-1.89.64-2.796.657-.922 2.047-.922 1.375 0 2.032.89.656.875.671 2.72v1.405zm-1.094-1.484q0-1.375-.39-2-.376-.64-1.22-.64-.828 0-1.218.64-.375.625-.375 1.922v1.734q0 1.375.39 2.047.406.656 1.219.656.797 0 1.188-.625.39-.625.406-1.953v-1.781zm8.094 1.484q0 1.907-.657 2.844-.64.922-2.031.922-1.36 0-2.016-.906-.656-.907-.687-2.719v-1.438q0-1.89.64-2.796.657-.922 2.047-.922 1.375 0 2.032.89.656.875.671 2.72v1.405zm-1.094-1.484q0-1.375-.39-2-.376-.64-1.22-.64-.828 0-1.218.64-.375.625-.375 1.922v1.734q0 1.375.39 2.047.406.656 1.219.656.797 0 1.188-.625.39-.625.406-1.953v-1.781zm8.094 1.484q0 1.907-.657 2.844-.64.922-2.031.922-1.36 0-2.016-.906-.656-.907-.687-2.719v-1.438q0-1.89.64-2.796.657-.922 2.047-.922 1.375 0 2.032.89.656.875.671 2.72v1.405zm-1.094-1.484q0-1.375-.39-2-.376-.64-1.22-.64-.828 0-1.218.64-.375.625-.375 1.922v1.734q0 1.375.39 2.047.406.656 1.219.656.797 0 1.188-.625.39-.625.406-1.953v-1.781zm3.875-1.219l.031.703q.688-.812 1.875-.812 1.328 0 1.813 1.015.312-.453.812-.734.516-.281 1.203-.281 2.094 0 2.125 2.203V34h-1.078v-4.188q0-.671-.313-1-.312-.343-1.046-.343-.61 0-1.016.36-.39.358-.453.968V34h-1.078v-4.156q0-1.375-1.36-1.375-1.062 0-1.453.906V34h-1.094v-6.344h1.032zm13.672 4.657q0-.438-.344-.672-.328-.25-1.156-.422-.813-.172-1.297-.422-.485-.25-.719-.578-.219-.344-.219-.813 0-.781.656-1.312.657-.547 1.688-.547 1.078 0 1.734.562.672.547.672 1.407h-1.078q0-.438-.39-.75-.376-.328-.938-.328-.594 0-.938.265-.328.25-.328.656 0 .391.313.594.312.203 1.125.39.812.173 1.312.423t.735.609q.25.36.25.86 0 .859-.688 1.374-.672.516-1.75.516-.765 0-1.36-.266-.577-.28-.905-.765-.329-.485-.329-1.047h1.079q.03.547.437.875.406.312 1.078.312.61 0 .985-.25t.375-.672zm149.24 353.02q-.094-.187-.157-.672-.75.797-1.796.797-.938 0-1.547-.53-.594-.532-.594-1.36 0-.985.75-1.532.75-.546 2.125-.546h1.047v-.5q0-.563-.344-.891-.328-.344-1-.344-.578 0-.969.297-.39.281-.39.703h-1.094q0-.484.328-.922.344-.437.922-.687.578-.266 1.266-.266 1.109 0 1.718.547.625.547.657 1.5v2.922q0 .875.218 1.39v.094h-1.14zm-1.797-.828q.515 0 .969-.265.453-.266.656-.688v-1.297h-.844q-2 0-2 1.172 0 .5.344.797.344.281.875.281zm7.953-4.547q-.25-.03-.531-.03-1.078 0-1.453.905v4.5h-1.079v-6.343h1.047l.016.734q.531-.844 1.516-.844.312 0 .484.078v1zm4 0q-.25-.03-.531-.03-1.078 0-1.453.905v4.5h-1.079v-6.343h1.047l.016.734q.531-.844 1.516-.844.312 0 .484.078v1zm3.172-3.484h-1.11v9.797h1.11v.89h-2.203v-11.578h2.203v.891zm1.937 8.86h-1.078v-6.344h1.078v6.343zm-1.172-8.016q0-.266.157-.453.172-.188.484-.188.313 0 .469.188.172.187.172.453 0 .25-.172.437-.156.172-.469.172-.312 0-.484-.172-.157-.187-.157-.437zm2.22-1.735h2.218v11.578h-2.219v-.89h1.14v-9.797h-1.14v-.89zm11.734 4.985h-4.891v-.953h4.89v.953zm0 2.422h-4.891v-.938h4.89v.938zm6.515-5.532v1.532h1.172v.843h-1.172v3.922q0 .39.156.578.157.188.532.188.187 0 .515-.063v.875q-.422.125-.828.125-.719 0-1.094-.437-.375-.453-.375-1.266v-3.922h-1.156v-.843h1.156v-1.532h1.094zm5.594 2.5q-.25-.03-.531-.03-1.078 0-1.453.905v4.5h-1.079v-6.343h1.047l.016.734q.531-.844 1.516-.844.312 0 .484.078v1zm4.844 4.75q-.625.75-1.86.75-1.015 0-1.547-.593-.53-.594-.53-1.75v-4.125h1.077v4.093q0 1.453 1.172 1.453 1.25 0 1.656-.937v-4.61h1.094v6.344h-1.031l-.031-.625zm5.718.75q-1.296 0-2.109-.843-.797-.86-.797-2.282v-.187q0-.953.36-1.688.359-.75 1-1.156.656-.422 1.406-.422 1.234 0 1.922.813.687.812.687 2.328v.453h-4.297q.032.937.547 1.516.531.578 1.344.578.562 0 .953-.235.406-.234.719-.625l.656.516q-.797 1.234-2.39 1.234zm-.14-5.687q-.656 0-1.11.484-.437.469-.53 1.328h3.171v-.078q-.047-.828-.453-1.281-.39-.453-1.078-.453zm202.379 5.562q-.094-.187-.156-.672-.75.797-1.797.797-.938 0-1.547-.53-.594-.532-.594-1.36 0-.985.75-1.532.75-.546 2.125-.546h1.047v-.5q0-.563-.344-.891-.328-.344-1-.344-.578 0-.968.297-.39.281-.39.703h-1.095q0-.484.328-.922.344-.437.922-.687.578-.266 1.266-.266 1.11 0 1.719.547.625.547.656 1.5v2.922q0 .875.219 1.39v.094h-1.14zm-1.797-.828q.516 0 .969-.265.453-.266.656-.688v-1.297h-.844q-2 0-2 1.172 0 .5.344.797.344.281.875.281zm7.953-4.547q-.25-.03-.53-.03-1.079 0-1.454.905v4.5h-1.078v-6.343h1.047l.015.734q.532-.844 1.516-.844.312 0 .484.078v1zm4 0q-.25-.03-.53-.03-1.079 0-1.454.905v4.5h-1.078v-6.343h1.047l.015.734q.532-.844 1.516-.844.312 0 .484.078v1zm3.172-3.484h-1.11v9.797h1.11v.89h-2.203v-11.578h2.203v.891zm1.938 8.86H514.9v-6.344h1.078v6.343zm-1.172-8.016q0-.266.156-.453.172-.188.485-.188.312 0 .468.188.172.187.172.453 0 .25-.172.437-.156.172-.469.172-.312 0-.484-.172-.156-.187-.156-.437zm2.219-1.735h2.218v11.578h-2.218v-.89h1.14v-9.797h-1.14v-.89zm11.734 4.985h-4.89v-.953h4.89v.953zm0 2.422h-4.89v-.938h4.89v.938zm8.484 2.343h-1.078v-7.218l-2.187.796v-.984l3.11-1.172h.155v8.578z"/><path fill="#0b5394" d="M217 405.5a1 1 0 0 1 1-1h10a1 1 0 0 1 1 1v10a1 1 0 0 1-1 1h-10a1 1 0 0 1-1-1z"/><path fill="#757575" d="M244.266 412.297q-.157 1.344-1 2.094-.844.734-2.235.734-1.515 0-2.422-1.078-.906-1.094-.906-2.922v-.813q0-1.187.422-2.093.422-.906 1.203-1.39.781-.485 1.797-.485 1.36 0 2.172.765.828.766.969 2.094h-1.125q-.157-1.015-.641-1.469-.484-.453-1.375-.453-1.078 0-1.688.797-.609.797-.609 2.266v.828q0 1.39.578 2.219.578.812 1.625.812.938 0 1.438-.422.5-.437.672-1.484h1.125zm2.64-2.875q.719-.875 1.875-.875 2.016 0 2.031 2.265V415h-1.093v-4.203q0-.672-.313-1-.297-.328-.953-.328-.531 0-.937.281-.391.281-.61.734V415h-1.078v-9h1.078v3.422zm8.985.203q-.25-.031-.532-.031-1.078 0-1.453.906v4.5h-1.078v-6.344h1.047l.016.735q.53-.844 1.515-.844.313 0 .485.078v1zm.64 2.14q0-.921.36-1.671.375-.75 1.03-1.14.657-.407 1.485-.407 1.297 0 2.094.89.813.891.813 2.391v.078q0 .922-.36 1.656-.36.735-1.015 1.157-.657.406-1.516.406-1.281 0-2.094-.89-.797-.907-.797-2.391v-.078zm1.094.141q0 1.047.484 1.688.5.64 1.313.64.828 0 1.312-.64.485-.656.485-1.828 0-1.032-.5-1.672-.485-.656-1.313-.656-.797 0-1.297.64-.484.625-.484 1.828zm7.219-3.25l.031.703q.688-.812 1.875-.812 1.328 0 1.813 1.015.312-.453.812-.734.516-.281 1.203-.281 2.094 0 2.125 2.203V415h-1.078v-4.188q0-.671-.313-1-.312-.343-1.046-.343-.61 0-1.016.36-.39.358-.453.968V415h-1.078v-4.156q0-1.375-1.36-1.375-1.062 0-1.453.906V415h-1.094v-6.344h1.032zm12.61 6.469q-1.298 0-2.11-.844-.797-.86-.797-2.281v-.188q0-.953.36-1.687.359-.75 1-1.156.656-.422 1.406-.422 1.234 0 1.921.812.688.813.688 2.329v.453h-4.297q.031.937.547 1.515.531.578 1.344.578.562 0 .953-.234.406-.234.719-.625l.656.516q-.797 1.234-2.39 1.234zm-.142-5.688q-.656 0-1.109.485-.437.469-.531 1.328h3.172v-.078q-.047-.828-.453-1.281-.391-.454-1.079-.454zm6.891 1.282l.438-4.25h4.375v1h-3.454l-.265 2.328q.64-.375 1.437-.375 1.157 0 1.844.781.688.766.688 2.078 0 1.313-.72 2.078-.702.766-1.983.766-1.125 0-1.844-.625-.719-.64-.813-1.75h1.016q.11.734.531 1.11.422.374 1.11.374.75 0 1.187-.515.438-.516.438-1.422 0-.86-.47-1.375-.468-.516-1.25-.516-.702 0-1.109.297l-.28.235-.876-.22zm11.688-2.031q0 .64-.344 1.14-.344.5-.906.781.656.282 1.046.844.391.547.391 1.25 0 1.094-.75 1.766-.734.656-1.953.656-1.234 0-1.984-.656-.735-.672-.735-1.766 0-.703.375-1.25.375-.562 1.047-.844-.562-.28-.89-.78-.329-.5-.329-1.142 0-1.078.688-1.703.687-.64 1.828-.64 1.125 0 1.813.64.703.625.703 1.704zm-.891 3.984q0-.719-.453-1.156-.453-.454-1.188-.454-.734 0-1.187.454-.438.437-.438 1.171 0 .72.438 1.141.437.406 1.203.406.75 0 1.188-.421.437-.422.437-1.141zm-1.625-5.438q-.64 0-1.047.407-.39.39-.39 1.078 0 .64.39 1.047.39.406 1.031.406.657 0 1.047-.406.39-.407.39-1.047 0-.656-.405-1.063-.407-.422-1.016-.422z"/><path fill="#073763" d="M313 405.5a1 1 0 0 1 1-1h10a1 1 0 0 1 1 1v10a1 1 0 0 1-1 1h-10a1 1 0 0 1-1-1z"/><path fill="#757575" d="M340.266 412.297q-.157 1.344-1 2.094-.844.734-2.235.734-1.515 0-2.422-1.078-.906-1.094-.906-2.922v-.813q0-1.187.422-2.093.422-.906 1.203-1.39.781-.485 1.797-.485 1.36 0 2.172.765.828.766.969 2.094h-1.125q-.157-1.015-.641-1.469-.484-.453-1.375-.453-1.078 0-1.688.797-.609.797-.609 2.266v.828q0 1.39.578 2.219.578.812 1.625.812.938 0 1.438-.422.5-.437.672-1.484h1.125zm2.64-2.875q.719-.875 1.875-.875 2.016 0 2.031 2.265V415h-1.093v-4.203q0-.672-.313-1-.297-.328-.953-.328-.531 0-.937.281-.391.281-.61.734V415h-1.078v-9h1.078v3.422zm8.985.203q-.25-.031-.532-.031-1.078 0-1.453.906v4.5h-1.078v-6.344h1.047l.016.735q.53-.844 1.515-.844.313 0 .485.078v1zm.64 2.14q0-.921.36-1.671.375-.75 1.03-1.14.657-.407 1.485-.407 1.297 0 2.094.89.813.891.813 2.391v.078q0 .922-.36 1.656-.36.735-1.015 1.157-.657.406-1.516.406-1.281 0-2.094-.89-.797-.907-.797-2.391v-.078zm1.094.141q0 1.047.484 1.688.5.64 1.313.64.828 0 1.312-.64.485-.656.485-1.828 0-1.032-.5-1.672-.485-.656-1.313-.656-.797 0-1.297.64-.484.625-.484 1.828zm7.219-3.25l.031.703q.688-.812 1.875-.812 1.328 0 1.813 1.015.312-.453.812-.734.516-.281 1.203-.281 2.094 0 2.125 2.203V415h-1.078v-4.188q0-.671-.313-1-.312-.343-1.046-.343-.61 0-1.016.36-.39.358-.453.968V415h-1.078v-4.156q0-1.375-1.36-1.375-1.062 0-1.453.906V415h-1.094v-6.344h1.032zm12.61 6.469q-1.298 0-2.11-.844-.797-.86-.797-2.281v-.188q0-.953.36-1.687.359-.75 1-1.156.656-.422 1.406-.422 1.234 0 1.921.812.688.813.688 2.329v.453h-4.297q.031.937.547 1.515.531.578 1.344.578.562 0 .953-.234.406-.234.719-.625l.656.516q-.797 1.234-2.39 1.234zm-.142-5.688q-.656 0-1.109.485-.437.469-.531 1.328h3.172v-.078q-.047-.828-.453-1.281-.391-.454-1.079-.454zm10.657-2.968v.906h-.203q-1.266.031-2.016.766-.75.718-.875 2.03.688-.765 1.844-.765 1.11 0 1.781.781.672.782.672 2.032 0 1.312-.719 2.11-.719.796-1.937.796-1.22 0-1.985-.938-.75-.953-.75-2.437v-.406q0-2.36 1-3.61t2.985-1.265h.203zm-1.422 3.844q-.563 0-1.031.328-.47.328-.657.843v.391q0 1.063.47 1.703.483.64 1.187.64.734 0 1.156-.53.422-.547.422-1.422 0-.875-.422-1.407-.422-.546-1.125-.546zm7.719 4.687h-1.079v-7.219l-2.187.797v-.984l3.11-1.172h.156V415z"/><path fill="#e69138" d="M409 405.5a1 1 0 0 1 1-1h10a1 1 0 0 1 1 1v10a1 1 0 0 1-1 1h-10a1 1 0 0 1-1-1z"/><path fill="#757575" d="M436.266 412.297q-.157 1.344-1 2.094-.844.734-2.235.734-1.515 0-2.422-1.078-.906-1.094-.906-2.922v-.813q0-1.187.422-2.093.422-.906 1.203-1.39.781-.485 1.797-.485 1.36 0 2.172.765.828.766.969 2.094h-1.125q-.157-1.015-.641-1.469-.484-.453-1.375-.453-1.078 0-1.688.797-.609.797-.609 2.266v.828q0 1.39.578 2.219.578.812 1.625.812.938 0 1.438-.422.5-.437.672-1.484h1.125zm2.64-2.875q.719-.875 1.875-.875 2.016 0 2.031 2.265V415h-1.093v-4.203q0-.672-.313-1-.297-.328-.953-.328-.531 0-.937.281-.391.281-.61.734V415h-1.078v-9h1.078v3.422zm8.985.203q-.25-.031-.532-.031-1.078 0-1.453.906v4.5h-1.078v-6.344h1.047l.016.735q.53-.844 1.515-.844.313 0 .485.078v1zm.64 2.14q0-.921.36-1.671.375-.75 1.03-1.14.657-.407 1.485-.407 1.297 0 2.094.89.813.891.813 2.391v.078q0 .922-.36 1.656-.36.735-1.015 1.157-.657.406-1.516.406-1.281 0-2.094-.89-.797-.907-.797-2.391v-.078zm1.094.141q0 1.047.484 1.688.5.64 1.313.64.828 0 1.312-.64.485-.656.485-1.828 0-1.032-.5-1.672-.485-.656-1.313-.656-.797 0-1.297.64-.484.625-.484 1.828zm7.219-3.25l.031.703q.688-.812 1.875-.812 1.328 0 1.813 1.015.312-.453.812-.734.516-.281 1.203-.281 2.094 0 2.125 2.203V415h-1.078v-4.188q0-.671-.313-1-.312-.343-1.046-.343-.61 0-1.016.36-.39.358-.453.968V415h-1.078v-4.156q0-1.375-1.36-1.375-1.062 0-1.453.906V415h-1.094v-6.344h1.032zm12.61 6.469q-1.298 0-2.11-.844-.797-.86-.797-2.281v-.188q0-.953.36-1.687.359-.75 1-1.156.656-.422 1.406-.422 1.234 0 1.921.812.688.813.688 2.329v.453h-4.297q.031.937.547 1.515.531.578 1.344.578.562 0 .953-.234.406-.234.719-.625l.656.516q-.797 1.234-2.39 1.234zm-.142-5.688q-.656 0-1.109.485-.437.469-.531 1.328h3.172v-.078q-.047-.828-.453-1.281-.391-.454-1.079-.454zm10.657-2.968v.906h-.203q-1.266.031-2.016.766-.75.718-.875 2.03.688-.765 1.844-.765 1.11 0 1.781.781.672.782.672 2.032 0 1.312-.719 2.11-.719.796-1.937.796-1.22 0-1.985-.938-.75-.953-.75-2.437v-.406q0-2.36 1-3.61t2.985-1.265h.203zm-1.422 3.844q-.563 0-1.031.328-.47.328-.657.843v.391q0 1.063.47 1.703.483.64 1.187.64.734 0 1.156-.53.422-.547.422-1.422 0-.875-.422-1.407-.422-.546-1.125-.546zm5.734-.11h.813q.781-.015 1.219-.406.437-.39.437-1.063 0-1.5-1.5-1.5-.703 0-1.125.407-.406.406-.406 1.062h-1.094q0-1.015.734-1.687.75-.672 1.891-.672 1.203 0 1.89.64.688.641.688 1.782 0 .562-.36 1.078-.359.515-.984.781.704.219 1.079.734.39.516.39 1.266 0 1.14-.75 1.828-.75.672-1.953.672-1.188 0-1.953-.656-.75-.656-.75-1.719h1.094q0 .672.437 1.078.438.406 1.188.406.78 0 1.187-.406.422-.422.422-1.187 0-.735-.453-1.125-.453-.407-1.328-.422h-.813v-.89z"/></svg>