<svg xmlns="http://www.w3.org/2000/svg" width="719pt" height="445pt" viewBox="0 0 719 445"><defs><clipPath id="a"><path d="M149 127h314v230.98H149zm0 0"/></clipPath><clipPath id="b"><path d="M173 273h314v84.98H173zm0 0"/></clipPath><clipPath id="c"><path d="M197 274h314v83.98H197zm0 0"/></clipPath><clipPath id="d"><path d="M221 322h314v35.98H221zm0 0"/></clipPath></defs><path fill="#fff" d="M0 0h719v445H0z"/><path d="M83.501 298.5h405" transform="scale(1.19833 1.19946)" fill="none" stroke="#333" stroke-miterlimit="10"/><path d="M83.501 240.499h405M83.5 182.5h405m-405-58.002h405M83.5 66.5h405" transform="scale(1.19833 1.19946)" fill="none" stroke="#ccc" stroke-miterlimit="10"/><g clip-path="url(#a)"><path d="M172.559 357.438h-22.766v-197.91a2.396 2.396 0 0 1 2.394-2.4h17.977a2.396 2.396 0 0 1 2.395 2.4zm145 0h-22.77V129.542a2.399 2.399 0 0 1 2.399-2.398h17.972a2.399 2.399 0 0 1 2.399 2.398zm145 0h-22.77V164.323a2.398 2.398 0 0 1 2.395-2.398h17.976a2.399 2.399 0 0 1 2.399 2.398zm0 0" fill="#0b5394"/></g><g clip-path="url(#b)"><path d="M196.527 357.438h-22.77V309.46a2.399 2.399 0 0 1 2.4-2.399h17.972a2.399 2.399 0 0 1 2.398 2.399zm144.996 0h-22.765v-81.563a2.396 2.396 0 0 1 2.394-2.398h17.977a2.396 2.396 0 0 1 2.394 2.398zm145 0h-22.77v-35.981a2.4 2.4 0 0 1 2.4-2.402h17.972a2.4 2.4 0 0 1 2.398 2.402zm0 0" fill="#3d85c6"/></g><g clip-path="url(#c)"><path d="M220.492 357.438h-22.765v-44.38a2.396 2.396 0 0 1 2.394-2.398h17.977a2.396 2.396 0 0 1 2.394 2.399zm145 0h-22.77v-80.364a2.399 2.399 0 0 1 2.4-2.398h17.972a2.399 2.399 0 0 1 2.398 2.398zm144.996 0h-22.765v-35.981a2.396 2.396 0 0 1 2.394-2.402h17.977a2.396 2.396 0 0 1 2.394 2.402zm0 0" fill="#6fa8dc"/></g><g clip-path="url(#d)"><path d="M244.46 357.438h-22.769v-19.192a2.399 2.399 0 0 1 2.399-2.398h17.972a2.399 2.399 0 0 1 2.399 2.398zm144.997 0h-22.766v-32.383a2.396 2.396 0 0 1 2.395-2.399h17.976a2.396 2.396 0 0 1 2.395 2.399zm145 0h-22.77V331.05a2.399 2.399 0 0 1 2.399-2.399h17.973a2.399 2.399 0 0 1 2.398 2.399zm0 0" fill="#9fc5e8"/></g><path d="M205.887 415.29c0-1.185.273-2.13.824-2.83.55-.698 1.273-1.05 2.172-1.05.926 0 1.648.324 2.172.977l.058-.844h1.196v7.422c0 .988-.293 1.762-.88 2.324-.585.574-1.367.86-2.34.86a3.84 3.84 0 0 1-1.609-.356c-.527-.238-.925-.555-1.199-.953l.672-.79c.55.688 1.23 1.032 2.043 1.032.625 0 1.11-.18 1.461-.543.36-.351.543-.851.543-1.5v-.656c-.523.613-1.238.918-2.137.918-.886 0-1.601-.356-2.152-1.067-.55-.726-.824-1.707-.824-2.945zm1.312.151c0 .848.172 1.524.524 2.024.347.488.843.73 1.48.73.809 0 1.41-.375 1.797-1.125v-3.465c-.402-.726-1-1.09-1.797-1.09-.625 0-1.117.247-1.48.735-.352.484-.524 1.215-.524 2.191zm8.801 3.711h-1.293v-7.609H216zm-1.406-9.617c0-.21.062-.39.187-.543.137-.148.332-.222.582-.222.246 0 .434.074.559.222a.785.785 0 0 1 .207.543c0 .203-.07.375-.207.527-.125.137-.313.208-.559.208-.25 0-.445-.07-.582-.207a.8.8 0 0 1-.187-.528zm5.355.172v1.836h1.406v1.012h-1.406v4.703c0 .312.063.543.188.695.125.149.336.223.636.223.149 0 .356-.024.618-.074v1.05a3.554 3.554 0 0 1-.993.149c-.574 0-1.011-.176-1.312-.524-.297-.363-.45-.87-.45-1.52v-4.702h-1.382v-1.012h1.383v-1.836zm4.324 2.754c.575-.7 1.325-1.05 2.247-1.05 1.613 0 2.421.905 2.433 2.718v5.023h-1.308v-5.043c0-.535-.125-.937-.375-1.199-.239-.262-.618-.394-1.141-.394-.426 0-.8.113-1.125.34a2.268 2.268 0 0 0-.73.878v5.418h-1.294v-10.797h1.293zm11.778 5.941c-.5.598-1.242.899-2.227.899-.812 0-1.43-.238-1.855-.711-.422-.477-.637-1.176-.637-2.102v-4.945h1.293v4.91c0 1.16.469 1.742 1.406 1.742.996 0 1.66-.375 1.985-1.125v-5.527h1.308v7.61h-1.234zm10.129-2.96c0 1.16-.266 2.097-.805 2.812-.523.7-1.234 1.047-2.133 1.047-.96 0-1.703-.344-2.23-1.031l-.075.882h-1.18v-10.797h1.294v4.032c.523-.649 1.25-.977 2.172-.977.925 0 1.648.352 2.172 1.05.523.688.785 1.645.785 2.868zm-1.29-.153c0-.887-.175-1.566-.523-2.043-.34-.484-.824-.73-1.46-.73-.864 0-1.481.394-1.856 1.183v3.297c.398.8 1.015 1.2 1.855 1.2.621 0 1.11-.243 1.461-.731.348-.488.524-1.211.524-2.176zm3.278 3.188a.87.87 0 0 1 .184-.563c.14-.148.34-.223.601-.223.274 0 .48.075.617.223.137.152.207.34.207.563a.78.78 0 0 1-.207.543c-.136.14-.343.207-.617.207-.262 0-.46-.067-.601-.207a.837.837 0 0 1-.184-.543zm6.605-.243c.465 0 .872-.14 1.22-.414.35-.285.542-.644.581-1.066h1.235c-.024.437-.18.855-.47 1.254-.273.387-.64.699-1.105.937a3.06 3.06 0 0 1-1.46.356c-1.036 0-1.86-.344-2.47-1.031-.597-.7-.898-1.649-.898-2.848v-.227c0-.734.13-1.39.39-1.965.278-.578.665-1.02 1.165-1.332.512-.324 1.117-.488 1.812-.488.852 0 1.555.258 2.118.77.574.5.882 1.164.918 1.988h-1.235c-.039-.5-.226-.906-.562-1.219-.336-.312-.75-.469-1.239-.469-.66 0-1.171.239-1.535.711-.36.477-.539 1.164-.539 2.063v.242c0 .875.18 1.55.54 2.027.363.473.874.711 1.534.711zm3.805-2.96c0-.739.14-1.407.43-2.008.3-.598.71-1.055 1.234-1.368a3.314 3.314 0 0 1 1.781-.488c1.036 0 1.872.356 2.508 1.07.649.711.973 1.668.973 2.868v.093c0 .739-.145 1.399-.43 1.989a3.42 3.42 0 0 1-1.219 1.386c-.523.325-1.128.485-1.816.485-1.023 0-1.86-.356-2.508-1.067-.636-.726-.953-1.68-.953-2.867zm1.309.167c0 .836.195 1.512.582 2.024.398.512.922.77 1.57.77.664 0 1.188-.258 1.574-.77.387-.524.582-1.254.582-2.192 0-.824-.199-1.496-.601-2.007-.387-.524-.91-.786-1.57-.786-.637 0-1.157.254-1.555.766-.387.5-.582 1.234-.582 2.195zm8.652-3.898l.035.844c.551-.653 1.301-.977 2.246-.977 1.063 0 1.785.406 2.172 1.219.25-.363.574-.656.977-.879.41-.227.89-.34 1.441-.34 1.672 0 2.52.883 2.547 2.645v5.097h-1.293v-5.023c0-.535-.125-.938-.375-1.2-.25-.273-.668-.413-1.254-.413-.488 0-.894.144-1.219.433-.308.285-.492.676-.543 1.16v5.043h-1.289v-4.984c0-1.102-.543-1.652-1.629-1.652-.851 0-1.43.363-1.742 1.09v5.546h-1.312v-7.609zm12.207 8.488h-1.105l4.27-11.113h1.105zm8.238-2.64l1.891-5.848h1.332l-2.738 7.61h-.992l-2.75-7.61h1.328zm10.766-5.809c0 .512-.137.965-.41 1.367a2.875 2.875 0 0 1-1.086.938 2.86 2.86 0 0 1 1.254 1.011c.312.438.469.938.469 1.497 0 .875-.301 1.582-.899 2.12-.59.524-1.367.786-2.344.786-.984 0-1.777-.262-2.375-.785-.59-.54-.882-1.246-.882-2.121 0-.56.152-1.06.449-1.497.3-.449.719-.789 1.258-1.011a2.704 2.704 0 0 1-1.067-.938 2.408 2.408 0 0 1-.394-1.367c0-.863.273-1.547.824-2.047.547-.512 1.277-.765 2.187-.765.903 0 1.625.253 2.172.765.563.5.844 1.184.844 2.047zm-1.066 4.777c0-.574-.18-1.039-.543-1.386-.364-.364-.836-.543-1.422-.543-.59 0-1.063.18-1.426.543-.348.347-.523.816-.523 1.406 0 .574.175 1.031.523 1.367.352.324.832.488 1.441.488.602 0 1.075-.168 1.426-.507.348-.336.524-.793.524-1.368zm-1.95-6.523c-.507 0-.93.164-1.254.488-.312.313-.464.742-.464 1.293 0 .512.152.93.464 1.258.313.324.723.484 1.239.484.523 0 .941-.16 1.254-.484.308-.328.464-.746.464-1.258 0-.523-.16-.949-.484-1.273-.324-.34-.73-.508-1.219-.508zm5.582 10.195h-1.105l4.27-11.113h1.105zm12.149-4.59c0 1.149-.262 2.079-.781 2.793-.528.711-1.247 1.067-2.157 1.067-.922 0-1.648-.293-2.172-.88v3.653h-1.293v-10.531h1.18l.059.844c.535-.653 1.273-.977 2.207-.977.91 0 1.629.344 2.156 1.031.535.688.805 1.645.805 2.868zm-1.29-.152c0-.86-.187-1.535-.562-2.023-.363-.5-.86-.75-1.5-.75-.785 0-1.37.343-1.758 1.035v3.633c.387.699.98 1.05 1.782 1.05.62 0 1.113-.246 1.476-.73.375-.5.563-1.238.563-2.215zm6.946-2.586c-.2-.023-.41-.035-.637-.035-.859 0-1.441.363-1.742 1.086v5.398h-1.289v-7.609h1.254l.02.883c.421-.676 1.027-1.016 1.816-1.016.25 0 .441.031.578.094zm.77 2.567c0-.735.144-1.403.43-2.004.3-.598.71-1.055 1.234-1.368a3.324 3.324 0 0 1 1.78-.488c1.036 0 1.872.356 2.509 1.07.648.711.972 1.668.972 2.868v.093c0 .739-.14 1.399-.43 1.989a3.391 3.391 0 0 1-1.218 1.386c-.523.325-1.129.485-1.813.485-1.023 0-1.859-.356-2.511-1.067-.637-.726-.953-1.68-.953-2.867zm1.308.171c0 .836.196 1.512.582 2.024a1.9 1.9 0 0 0 1.574.77c.66 0 1.184-.258 1.57-.77.387-.524.583-1.254.583-2.192 0-.824-.2-1.496-.598-2.007-.39-.524-.914-.786-1.574-.786-.637 0-1.156.254-1.555.766-.386.5-.582 1.234-.582 2.195zm8.653-3.898l.035.844c.55-.653 1.3-.977 2.25-.977 1.058 0 1.785.406 2.172 1.219.25-.363.574-.656.972-.879.41-.227.895-.34 1.442-.34 1.672 0 2.523.883 2.547 2.645v5.097h-1.293v-5.023c0-.535-.125-.938-.375-1.2-.25-.273-.668-.413-1.254-.413-.485 0-.891.144-1.215.433-.313.285-.492.676-.543 1.16v5.043h-1.293v-4.984c0-1.102-.543-1.652-1.629-1.652-.848 0-1.43.363-1.742 1.09v5.546h-1.313v-7.609zm13.367 7.61h-1.29v-7.61h1.29zm-1.403-9.618c0-.21.063-.39.188-.543.137-.148.328-.222.578-.222.25 0 .438.074.563.222a.785.785 0 0 1 .207.543c0 .203-.07.375-.207.527-.125.137-.313.208-.563.208-.25 0-.441-.07-.578-.207a.8.8 0 0 1-.188-.528zm8.012 7.594c0-.352-.137-.621-.41-.809-.262-.199-.723-.367-1.387-.504-.648-.136-1.168-.308-1.554-.507-.387-.2-.672-.43-.86-.692a1.781 1.781 0 0 1-.262-.976c0-.625.262-1.149.786-1.575.523-.437 1.199-.656 2.023-.656.86 0 1.555.227 2.078.676.535.437.805 1 .805 1.687h-1.293c0-.351-.156-.648-.465-.898-.3-.262-.676-.395-1.125-.395-.476 0-.851.106-1.125.317a.949.949 0 0 0-.394.789c0 .312.125.55.375.71.25.165.699.321 1.351.47.649.136 1.172.308 1.57.507.399.2.692.442.883.73.2.286.297.63.297 1.032 0 .688-.273 1.235-.824 1.649-.535.41-1.235.617-2.098.617-.61 0-1.152-.106-1.629-.317a2.758 2.758 0 0 1-1.086-.918 2.213 2.213 0 0 1-.39-1.257h1.293c.023.437.195.789.523 1.05.324.25.754.375 1.29.375.488 0 .882-.101 1.179-.3.3-.2.45-.47.45-.805zm5.918 2.172c-1.035 0-1.879-.336-2.527-1.012-.637-.687-.953-1.598-.953-2.734v-.227c0-.762.14-1.437.43-2.023a3.227 3.227 0 0 1 1.199-1.387 3.06 3.06 0 0 1 1.683-.508c.985 0 1.754.324 2.3.977.552.648.825 1.578.825 2.793v.543h-5.148c.027.75.246 1.355.656 1.816.426.461.96.695 1.61.695.449 0 .831-.093 1.144-.28a3.06 3.06 0 0 0 .86-.75l.788.616c-.636.989-1.593 1.48-2.867 1.48zm-.168-6.82c-.523 0-.969.19-1.328.582-.352.375-.563.902-.637 1.59h3.801v-.094c-.039-.66-.219-1.172-.543-1.536-.312-.363-.746-.543-1.293-.543zm6.91 2.847h-3.43v-1.047h3.43zm7.301.113c0 1.149-.262 2.079-.785 2.793-.524.711-1.242 1.067-2.152 1.067-.926 0-1.649-.293-2.176-.88v3.653h-1.29v-10.531h1.18l.055.844c.535-.653 1.274-.977 2.211-.977.91 0 1.629.344 2.152 1.031.536.688.805 1.645.805 2.868zm-1.293-.152c0-.86-.187-1.535-.562-2.023-.36-.5-.86-.75-1.497-.75-.785 0-1.37.343-1.761 1.035v3.633c.39.699.98 1.05 1.781 1.05.621 0 1.117-.246 1.48-.73.372-.5.56-1.238.56-2.215zm6.422 4.012c-1.035 0-1.879-.336-2.527-1.012-.637-.687-.954-1.598-.954-2.734v-.227c0-.762.145-1.437.43-2.023.29-.602.688-1.063 1.2-1.387a3.069 3.069 0 0 1 1.683-.508c.988 0 1.754.324 2.305.977.547.648.824 1.578.824 2.793v.543h-5.149c.024.75.243 1.355.653 1.816.426.461.96.695 1.613.695.45 0 .828-.093 1.14-.28.325-.188.614-.438.86-.75l.79.616c-.638.989-1.595 1.48-2.868 1.48zm-.168-6.82a1.74 1.74 0 0 0-1.328.582c-.348.375-.563.902-.637 1.59h3.8v-.094c-.034-.66-.218-1.172-.542-1.536-.313-.363-.742-.543-1.293-.543zm7.883.222c-.2-.023-.41-.035-.637-.035-.86 0-1.441.363-1.742 1.086v5.398h-1.29v-7.609h1.255l.02.883c.421-.676 1.027-1.016 1.816-1.016.25 0 .441.031.578.094zm1.762 6.45v-6.598h-1.2v-1.012h1.2v-.77c0-.824.21-1.453.636-1.89.438-.453 1.055-.676 1.852-.676.3 0 .601.035.898.113l-.074 1.067a3.1 3.1 0 0 0-.691-.075c-.426 0-.754.125-.993.375-.226.25-.34.598-.34 1.047v.809h1.633v1.012h-1.632v6.597zm3.8-3.88c0-.738.145-1.406.43-2.007.3-.598.71-1.055 1.234-1.368a3.324 3.324 0 0 1 1.782-.488c1.035 0 1.87.356 2.507 1.07.649.711.973 1.668.973 2.868v.093c0 .739-.14 1.399-.43 1.989a3.363 3.363 0 0 1-1.218 1.386c-.524.325-1.13.485-1.813.485-1.023 0-1.86-.356-2.512-1.067-.636-.726-.953-1.68-.953-2.867zm1.309.168c0 .836.195 1.512.582 2.024.398.512.922.77 1.574.77.66 0 1.184-.258 1.57-.77.387-.524.582-1.254.582-2.192 0-.824-.199-1.496-.597-2.007-.39-.524-.914-.786-1.574-.786-.637 0-1.157.254-1.555.766-.387.5-.582 1.234-.582 2.195zm11.105-2.738a5.49 5.49 0 0 0-.636-.035c-.864 0-1.442.363-1.743 1.086v5.398h-1.293v-7.609h1.258l.016.883c.426-.676 1.031-1.016 1.816-1.016.25 0 .446.031.582.094zm2.34-1.16l.035.844c.551-.653 1.301-.977 2.25-.977 1.059 0 1.786.406 2.172 1.219a2.85 2.85 0 0 1 .973-.879c.414-.227.894-.34 1.441-.34 1.672 0 2.524.883 2.547 2.645v5.097h-1.293v-5.023c0-.535-.125-.938-.375-1.2-.246-.273-.664-.413-1.254-.413-.484 0-.89.144-1.215.433-.312.285-.492.676-.543 1.16v5.043h-1.292v-4.984c0-1.102-.543-1.652-1.63-1.652-.847 0-1.43.363-1.742 1.09v5.546h-1.308v-7.609zm16.645 7.61c-.074-.15-.137-.419-.188-.81-.597.641-1.316.958-2.152.958-.75 0-1.367-.211-1.852-.637-.476-.426-.71-.969-.71-1.629 0-.789.296-1.398.898-1.836.598-.437 1.445-.66 2.547-.66h1.25v-.598c0-.449-.137-.804-.41-1.066-.262-.277-.66-.414-1.2-.414-.46 0-.847.117-1.16.355-.312.227-.469.508-.469.844h-1.308c0-.387.129-.754.394-1.105a2.77 2.77 0 0 1 1.102-.825c.465-.21.969-.32 1.516-.32.886 0 1.574.219 2.062.656.5.438.762 1.04.785 1.801v3.504c0 .7.086 1.258.262 1.668v.113zm-2.153-.993a2.3 2.3 0 0 0 1.164-.32c.36-.211.622-.488.782-.824v-1.555h-1.008c-1.598 0-2.399.469-2.399 1.406 0 .399.137.715.415.953.273.227.62.336 1.046.336zm7.079-6.617l.035.957c.59-.727 1.351-1.09 2.285-1.09 1.613 0 2.422.906 2.433 2.719v5.023h-1.308v-5.043c0-.535-.125-.937-.375-1.199-.238-.262-.617-.394-1.14-.394-.427 0-.802.113-1.126.34a2.268 2.268 0 0 0-.73.878v5.418H424.3v-7.609zm10.203 6.691c.46 0 .867-.14 1.218-.414.348-.285.543-.644.579-1.066h1.238a2.387 2.387 0 0 1-.469 1.254 3.017 3.017 0 0 1-1.105.937 3.06 3.06 0 0 1-1.461.356c-1.036 0-1.86-.344-2.47-1.031-.6-.7-.898-1.649-.898-2.848v-.227c0-.734.13-1.39.391-1.965.277-.578.664-1.02 1.16-1.332.512-.324 1.117-.488 1.817-.488.851 0 1.554.258 2.117.77.574.5.879 1.164.918 1.988h-1.238c-.036-.5-.223-.906-.56-1.219-.335-.312-.75-.469-1.237-.469-.66 0-1.172.239-1.536.711-.359.477-.542 1.164-.542 2.063v.242c0 .875.183 1.55.543 2.027.363.473.875.711 1.535.711zm7.304 1.067c-1.039 0-1.879-.336-2.53-1.012-.634-.687-.954-1.598-.954-2.734v-.227c0-.762.144-1.437.434-2.023.285-.602.683-1.063 1.195-1.387a3.069 3.069 0 0 1 1.683-.508c.989 0 1.758.324 2.305.977.55.648.824 1.578.824 2.793v.543h-5.148c.023.75.242 1.355.656 1.816.422.461.961.695 1.61.695.449 0 .828-.093 1.14-.28.324-.188.613-.438.863-.75l.786.616c-.637.989-1.59 1.48-2.864 1.48zm-.168-6.82c-.527 0-.968.19-1.332.582-.347.375-.558.902-.636 1.59h3.8v-.094c-.035-.66-.214-1.172-.543-1.536-.308-.363-.742-.543-1.293-.543zm6.907 2.847h-3.426v-1.047h3.426zm2.66-5.621v1.836h1.406v1.012h-1.406v4.703c0 .312.062.543.187.695.125.149.336.223.637.223.148 0 .355-.024.617-.074v1.05a3.554 3.554 0 0 1-.992.149c-.574 0-1.012-.176-1.313-.524-.296-.363-.449-.87-.449-1.52v-4.702h-1.383v-1.012h1.383v-1.836zm6.18 9.594c-1.036 0-1.88-.336-2.532-1.012-.633-.687-.953-1.598-.953-2.734v-.227c0-.762.145-1.437.434-2.023.285-.602.683-1.063 1.195-1.387a3.072 3.072 0 0 1 1.688-.508c.984 0 1.753.324 2.3.977.551.648.825 1.578.825 2.793v.543h-5.149c.024.75.242 1.355.656 1.816.422.461.961.695 1.61.695.449 0 .828-.093 1.14-.28.325-.188.614-.438.864-.75l.785.616c-.637.989-1.59 1.48-2.864 1.48zm-.168-6.82c-.528 0-.97.19-1.333.582-.347.375-.558.902-.636 1.59h3.8v-.094c-.035-.66-.214-1.172-.539-1.536-.312-.363-.746-.543-1.293-.543zm8.632 4.648c0-.352-.14-.621-.414-.809-.261-.199-.722-.367-1.386-.504-.649-.136-1.168-.308-1.555-.507-.387-.2-.672-.43-.86-.692a1.781 1.781 0 0 1-.261-.976c0-.625.261-1.149.785-1.575.523-.437 1.2-.656 2.023-.656.86 0 1.555.227 2.078.676.536.437.805 1 .805 1.687h-1.293c0-.351-.156-.648-.465-.898-.3-.262-.675-.395-1.125-.395-.476 0-.851.106-1.125.317a.949.949 0 0 0-.394.789c0 .312.125.55.375.71.25.165.699.321 1.351.47.649.136 1.172.308 1.57.507.4.2.692.442.884.73.199.286.296.63.296 1.032 0 .688-.273 1.235-.824 1.649-.535.41-1.234.617-2.098.617-.609 0-1.152-.106-1.628-.317a2.758 2.758 0 0 1-1.086-.918 2.213 2.213 0 0 1-.391-1.257h1.293c.023.437.195.789.523 1.05.325.25.754.375 1.29.375.488 0 .882-.101 1.18-.3.3-.2.452-.47.452-.805zm4.528-7.422v1.836h1.406v1.012h-1.406v4.703c0 .312.062.543.187.695.125.149.336.223.637.223.152 0 .355-.024.617-.074v1.05a3.554 3.554 0 0 1-.992.149c-.574 0-1.008-.176-1.309-.524-.3-.363-.449-.87-.449-1.52v-4.702h-1.387v-1.012h1.387v-1.836zm7.453 7.422c0-.352-.137-.621-.41-.809-.262-.199-.727-.367-1.387-.504-.649-.136-1.168-.308-1.555-.507-.387-.2-.676-.43-.863-.692a1.815 1.815 0 0 1-.262-.976c0-.625.266-1.149.79-1.575.523-.437 1.199-.656 2.023-.656.86 0 1.55.227 2.074.676.539.437.809 1 .809 1.687h-1.293c0-.351-.157-.648-.47-.898-.3-.262-.675-.395-1.12-.395-.477 0-.852.106-1.125.317a.949.949 0 0 0-.395.789c0 .312.125.55.375.71.25.165.7.321 1.348.47.648.136 1.176.308 1.574.507.399.2.691.442.879.73.2.286.3.63.3 1.032 0 .688-.273 1.235-.823 1.649-.54.41-1.239.617-2.098.617-.61 0-1.152-.106-1.629-.317a2.731 2.731 0 0 1-1.086-.918 2.217 2.217 0 0 1-.394-1.257h1.292c.024.437.2.789.524 1.05.324.25.758.375 1.293.375.488 0 .883-.101 1.18-.3.3-.2.449-.47.449-.805zm0 0" fill="#999"/><path d="M34.324 301.96c-.011.786-.3 1.403-.86 1.856-.573.438-1.3.625-2.171.559l-.266-.035a4.141 4.141 0 0 1-1.703-.543c-.523-.313-.914-.688-1.18-1.125a2.694 2.694 0 0 1-.374-1.445c.015-.649.234-1.153.656-1.516.414-.375.976-.582 1.687-.621.25-.012.504-.004.766.02l.469.074v4.144c.574.063 1.066-.031 1.48-.281.399-.262.606-.656.617-1.18.012-.625-.27-1.203-.843-1.726l.523-.618c.375.274.676.625.902 1.051.211.41.309.871.297 1.387zm-5.672-.675c-.011.438.137.817.45 1.14.296.329.753.59 1.367.79v-3.09l-.094-.02c-.488-.062-.895.016-1.219.243-.324.21-.492.523-.504.937zm1.535-5.305l-2.304-1.722v-1.293l3.183 2.531 3.145-1.539v1.145l-2.36 1.046 2.36 1.801v1.293l-3.258-2.625-3.07 1.5v-1.16zm4.137-6.015c-.011.785-.3 1.406-.86 1.855-.573.438-1.3.625-2.171.563l-.266-.035a4.204 4.204 0 0 1-1.703-.547c-.523-.313-.914-.688-1.18-1.125a2.69 2.69 0 0 1-.374-1.442c.015-.652.234-1.156.656-1.52.414-.374.976-.581 1.687-.616a4.94 4.94 0 0 1 .766.02l.469.073v4.141c.574.063 1.066-.031 1.48-.281.399-.262.606-.656.617-1.18.012-.625-.27-1.2-.843-1.723l.523-.62c.375.277.676.624.902 1.05.211.41.309.875.297 1.387zm-5.672-.676c-.011.438.137.82.45 1.145.296.324.753.586 1.367.789v-3.094l-.094-.02c-.488-.062-.895.02-1.219.243-.324.214-.492.527-.504.937zm4.793-5.266a1.551 1.551 0 0 0-.32-1.011 1.566 1.566 0 0 0-.898-.602l-.02-1.012c.402.063.77.227 1.105.489a2.731 2.731 0 0 1 1.012 2.195c0 .523-.129.973-.39 1.348-.278.363-.653.629-1.125.804-.489.164-1.032.22-1.63.168l-.28-.035a4.171 4.171 0 0 1-1.63-.527 3.057 3.057 0 0 1-1.124-1.106 2.607 2.607 0 0 1-.375-1.5c.015-.66.238-1.191.675-1.59.426-.402.961-.601 1.61-.601v.992c-.41.016-.742.133-.992.36-.262.21-.399.503-.41.878a1.688 1.688 0 0 0 .617 1.387c.41.363 1 .586 1.761.676l.149.02c.25.023.504.03.765.019.465-.027.825-.152 1.09-.379.262-.234.399-.558.41-.973zm.149-7.328c.511.489.758 1.118.73 1.895-.011.598-.222 1.047-.636 1.348-.422.289-1 .394-1.723.32l-4.082-.695v-1.051l4.101.675c.176.028.344.032.508.02.285-.023.508-.105.672-.242.148-.152.23-.363.242-.637.028-.75-.281-1.332-.914-1.746l-4.61-.805v-1.05l6.329 1.09v1.011zm-7.246-4.777l1.535.262v-1.145l.844.152v1.141l3.93.656c.1.012.195.012.284 0 .297-.023.45-.187.45-.488 0-.125-.02-.297-.059-.523l.879.093c.078.25.113.504.113.77-.011.422-.168.742-.465.953-.3.2-.707.281-1.218.246l-3.914-.656v1.125l-.844-.152v-1.106l-1.535-.281zm7.863-1.95v1.048l-6.328-1.086v-1.067zm-8.648-.882a.57.57 0 0 1 .167-.43.575.575 0 0 1 .45-.187c.187 0 .343.062.468.187a.66.66 0 0 1 .02.899.604.604 0 0 1-.45.168.66.66 0 0 1-.448-.188.626.626 0 0 1-.207-.45zm2.207-3.899c0-.523.144-.972.433-1.347.274-.387.66-.668 1.16-.844a3.42 3.42 0 0 1 1.61-.187l.132.02a4.31 4.31 0 0 1 1.665.542c.5.29.894.668 1.18 1.14.277.466.402.97.374 1.52 0 .524-.136.98-.41 1.367a2.5 2.5 0 0 1-1.164.829 3.728 3.728 0 0 1-1.59.183 4.106 4.106 0 0 1-1.777-.523c-.524-.301-.93-.68-1.219-1.145a2.7 2.7 0 0 1-.394-1.555zm3.39 2.157c.25.035.504.035.766 0 .465-.04.832-.168 1.11-.395.26-.238.398-.554.41-.957a1.772 1.772 0 0 0-.247-.972c-.183-.301-.465-.551-.84-.75a3.715 3.715 0 0 0-1.254-.395 8.23 8.23 0 0 0-.898-.02c-.477.051-.852.196-1.125.434s-.418.555-.43.953c-.011.54.2 1 .637 1.39.438.388 1.016.626 1.742.712zm-3.277-7.93l.789.152c-.625-.562-.926-1.21-.902-1.949.015-.586.222-1.023.62-1.312.4-.29.954-.395 1.665-.317l4.156.692v1.05l-4.172-.695a1.984 1.984 0 0 0-.527 0c-.547.063-.828.383-.84.957-.016.637.328 1.2 1.027 1.688l4.512.785v1.05l-6.328-1.085zm-1.535-9.086l1.535.262v-1.145l.844.153v1.14l3.93.657c.1.011.195.011.284 0 .297-.024.45-.188.45-.489 0-.125-.02-.3-.059-.523l.879.094c.078.25.113.503.113.765-.011.426-.168.746-.465.957-.3.2-.707.281-1.218.246l-3.914-.656v1.125l-.844-.152v-1.106l-1.535-.281zm7.863-1.95v1.048l-6.328-1.086v-1.067zm-8.648-.882a.57.57 0 0 1 .167-.43.575.575 0 0 1 .45-.187c.187 0 .343.062.468.187a.66.66 0 0 1 .02.899.604.604 0 0 1-.45.168.66.66 0 0 1-.448-.188.633.633 0 0 1-.207-.449zm2.32-2.453l.695.129c-.562-.535-.832-1.18-.808-1.93 0-.398.09-.738.265-1.012.172-.289.422-.48.746-.582-.699-.597-1.035-1.296-1.011-2.097.015-.637.226-1.106.636-1.406.403-.301.95-.415 1.649-.34l4.156.695v1.066l-4.172-.691a2.287 2.287 0 0 0-.566 0c-.524.074-.79.418-.801 1.031a1.6 1.6 0 0 0 .355 1.067c.246.312.575.511.973.601l4.21.711v1.07l-4.17-.695c-.427-.062-.759 0-.993.188-.238.187-.36.468-.36.843-.023.664.278 1.188.903 1.575l4.62.804v1.07l-6.327-1.105zm6.441-11.453c-.011.789-.3 1.406-.86 1.855-.573.438-1.3.625-2.171.563l-.266-.035a4.204 4.204 0 0 1-1.703-.547c-.523-.313-.914-.688-1.18-1.125a2.69 2.69 0 0 1-.374-1.442c.015-.648.234-1.156.656-1.52.414-.374.976-.577 1.687-.616a4.94 4.94 0 0 1 .766.02l.469.073v4.141c.574.063 1.066-.031 1.48-.281.399-.262.606-.656.617-1.18.012-.625-.27-1.2-.843-1.723l.523-.62c.375.277.676.624.902 1.05.211.414.309.875.297 1.387zm-5.672-.676c-.011.438.137.82.45 1.145.296.324.753.586 1.367.789v-3.094l-.094-.02c-.488-.062-.895.02-1.219.243-.324.214-.492.527-.504.937zm2.133-5.582a10.676 10.676 0 0 1-2.64-.715c-.86-.347-1.59-.773-2.192-1.273-.598-.512-1.055-1.082-1.363-1.707l.73-.168a5.986 5.986 0 0 0 1.797 1.594c.723.437 1.598.773 2.621 1.011 1.012.238 2.004.352 2.977.336.812 0 1.523-.097 2.133-.297.613-.215 1.101-.52 1.46-.918l.657.262c-.45.66-1.117 1.168-2.004 1.516-.887.34-1.902.488-3.05.449-.376 0-.731-.024-1.067-.074zm3.426-4.144v1.05l-8.984-1.554v-1.051zm-6.441-4.778c0-.527.144-.976.433-1.351.274-.387.66-.668 1.16-.844.489-.188 1.024-.25 1.61-.188l.132.02c.61.078 1.168.258 1.665.543.5.289.894.672 1.18 1.144.277.461.402.97.374 1.52 0 .523-.136.98-.41 1.367a2.488 2.488 0 0 1-1.164.824 3.668 3.668 0 0 1-1.59.188c-.66-.051-1.254-.223-1.777-.524-.524-.3-.93-.683-1.219-1.144a2.707 2.707 0 0 1-.394-1.555zm3.39 2.153c.25.039.504.039.766 0 .465-.036.832-.168 1.11-.391.26-.238.398-.559.41-.957a1.756 1.756 0 0 0-.247-.973c-.183-.3-.465-.55-.84-.75a3.715 3.715 0 0 0-1.254-.394 8.231 8.231 0 0 0-.898-.02c-.477.05-.852.195-1.125.434-.273.234-.418.554-.43.953-.011.539.2 1 .637 1.387.438.386 1.016.625 1.742.71zm1.555-11.504l-4.832-2.028v-1.086l6.328 2.887v.863l-4.793.657 4.793 2.265v.863l-6.328.692v-1.008l4.719-.398-4.72-2.246v-.844zm1.61-5.454c-.013.786-.302 1.403-.86 1.856-.574.437-1.3.621-2.172.559l-.266-.036a4.2 4.2 0 0 1-1.703-.543c-.523-.312-.914-.687-1.18-1.125a2.703 2.703 0 0 1-.374-1.445c.015-.648.234-1.152.656-1.516.414-.375.976-.582 1.687-.62a5.49 5.49 0 0 1 .766.019l.469.074v4.145c.574.062 1.066-.032 1.48-.282.399-.261.606-.656.617-1.18.012-.624-.27-1.202-.843-1.726l.523-.617c.375.273.676.625.902 1.05.211.41.309.872.297 1.387zm-5.673-.675c-.011.437.137.816.45 1.14.296.328.753.59 1.367.79v-3.094l-.094-.016c-.488-.063-.895.016-1.219.242-.324.211-.492.524-.504.938zm.188-6.524l-.04.508c0 .672.305 1.203.919 1.594l4.492.785v1.05l-6.328-1.09v-1.03l.73.152c-.586-.45-.875-.977-.86-1.574 0-.137.032-.309.095-.508zm5.37-3.203v1.047l-6.327-1.086v-1.066zm-8.648-.883a.57.57 0 0 1 .168-.43.575.575 0 0 1 .45-.187c.187 0 .343.063.468.188a.66.66 0 0 1 .02.898.604.604 0 0 1-.45.168.66.66 0 0 1-.448-.187.626.626 0 0 1-.207-.45zm6.93-4.293c-.437-.062-.746.176-.918.715l-.32 1.106c-.324.922-.856 1.375-1.59 1.347-.562-.023-1.02-.273-1.367-.75-.363-.484-.54-1.062-.527-1.722 0-.637.187-1.157.562-1.555.363-.398.836-.594 1.422-.582l-.016 1.07a.946.946 0 0 0-.77.297c-.198.2-.304.477-.316.824 0 .364.094.676.282.938.175.25.406.394.691.433.363.051.625-.175.785-.675l.152-.524c.188-.726.43-1.238.731-1.539.297-.312.672-.453 1.121-.43a1.74 1.74 0 0 1 1.031.395c.285.223.512.535.672.934.153.386.219.8.207 1.238 0 .676-.191 1.23-.582 1.668-.387.437-.879.644-1.476.617v-1.047c.347 0 .636-.113.859-.336.215-.226.32-.539.32-.937 0-.39-.082-.719-.246-.996-.172-.286-.41-.45-.707-.489zm-1.426-10.23c.649.086 1.239.27 1.762.543.512.273.899.613 1.16 1.012.25.386.367.824.356 1.312-.024.762-.313 1.332-.86 1.707l.727.203v.977l-8.984-1.555v-1.07l3.351.637c-.562-.5-.832-1.11-.808-1.836.015-.614.238-1.086.675-1.426.426-.348 1.016-.528 1.778-.543.25 0 .496.012.734.039zm-.597 1.012c-.574-.012-1.012.086-1.313.3-.3.2-.46.504-.484.918-.016.66.316 1.223.992 1.688l2.77.465c.636-.235.96-.672.972-1.309a1.455 1.455 0 0 0-.355-1.09c-.262-.312-.625-.547-1.086-.71a4.99 4.99 0 0 0-1.496-.262zm3.855-5.192c-.011.785-.3 1.406-.86 1.856-.573.437-1.3.625-2.171.562l-.266-.035a4.204 4.204 0 0 1-1.703-.547c-.523-.312-.914-.687-1.18-1.125a2.69 2.69 0 0 1-.374-1.441c.015-.653.234-1.157.656-1.52.414-.375.976-.582 1.687-.617a4.94 4.94 0 0 1 .766.02l.469.074v4.14c.574.063 1.066-.03 1.48-.28.399-.263.606-.657.617-1.18.012-.626-.27-1.2-.843-1.727l.523-.617c.375.277.676.625.902 1.05.211.41.309.875.297 1.387zm-5.672-.676c-.011.438.137.82.45 1.145.296.324.753.586 1.367.785v-3.09l-.094-.02c-.488-.062-.895.02-1.219.243-.324.215-.492.527-.504.937zm-2.304-5.379l1.535.266v-1.144l.844.148v1.145l3.93.656c.1.012.195.012.284 0 .297-.028.45-.188.45-.488 0-.125-.02-.301-.059-.524l.879.094c.078.25.113.504.113.765-.011.426-.168.747-.465.958-.3.199-.707.28-1.218.246l-3.914-.657v1.121l-.844-.148v-1.105l-1.535-.282zm0-3.597l1.535.262v-1.141l.844.148v1.145l3.93.656c.1.012.195.012.284 0 .297-.027.45-.191.45-.488 0-.125-.02-.3-.059-.527l.879.093c.078.25.113.508.113.77-.011.426-.168.742-.465.957-.3.2-.707.281-1.218.242l-3.914-.656v1.125l-.844-.149v-1.105l-1.535-.281zm7.976-3.543c-.011.789-.3 1.406-.86 1.855-.573.438-1.3.625-2.171.563l-.266-.035a4.145 4.145 0 0 1-1.703-.547c-.523-.309-.914-.684-1.18-1.121a2.712 2.712 0 0 1-.374-1.446c.015-.648.234-1.156.656-1.515.414-.375.976-.582 1.687-.621.25-.012.504-.004.766.02l.469.073v4.141c.574.066 1.066-.027 1.48-.277.399-.266.606-.657.617-1.184.012-.625-.27-1.2-.843-1.723l.523-.617c.375.274.676.621.902 1.047.211.414.309.875.297 1.387zm-5.672-.676c-.011.438.137.82.45 1.145.296.324.753.59 1.367.789v-3.094l-.094-.02c-.488-.062-.895.02-1.219.246-.324.211-.492.524-.504.934zm.188-6.52l-.04.508c0 .672.305 1.203.919 1.59l4.492.79v1.046l-6.328-1.086v-1.031l.73.152c-.586-.453-.875-.976-.86-1.574 0-.14.032-.309.095-.508zm1.945-2.68c.95.138 1.848.388 2.7.75.847.349 1.566.782 2.152 1.294.586.5 1.027 1.055 1.328 1.668l-.676.148c-.996-1.336-2.613-2.23-4.848-2.68a13.473 13.473 0 0 0-2.586-.261c-1.671.023-2.867.43-3.593 1.219l-.657-.262a3.76 3.76 0 0 1 1.22-1.11 5.342 5.342 0 0 1 1.76-.671 7.88 7.88 0 0 1 2.08-.188c.37.012.726.035 1.065.074zm45.426 207.997c0 1.262-.219 2.203-.656 2.828-.426.613-1.098.918-2.024.918-.91 0-1.582-.3-2.02-.898-.437-.602-.663-1.5-.675-2.7v-1.441c0-1.266.21-2.195.637-2.793.437-.613 1.117-.918 2.043-.918.921 0 1.597.293 2.02.879.437.586.663 1.492.675 2.719zm-1.086-1.484c0-.922-.133-1.59-.395-2.004-.25-.426-.656-.637-1.214-.637-.551 0-.957.21-1.22.637-.25.414-.374 1.05-.374 1.91v1.746c0 .926.133 1.605.394 2.043.274.437.68.656 1.215.656.54 0 .93-.207 1.18-.62.262-.411.402-1.063.414-1.95zm4.063-1.215l.035.691c.465-.535 1.09-.805 1.875-.805.886 0 1.492.336 1.816 1.012.2-.3.469-.543.805-.73.347-.188.75-.282 1.199-.282 1.394 0 2.11.73 2.133 2.192v4.254h-1.086V358c0-.453-.106-.79-.317-1.016-.199-.222-.543-.336-1.03-.336-.411 0-.75.122-1.013.356-.261.238-.418.562-.464.976v4.196h-1.09v-4.16c0-.91-.45-1.368-1.348-1.368-.71 0-1.195.301-1.46.899v4.629h-1.087v-6.332zm13.46 4.648c0-.289-.109-.515-.335-.676-.223-.164-.61-.3-1.16-.414-.536-.125-.97-.27-1.294-.43-.324-.163-.566-.355-.73-.581a1.42 1.42 0 0 1-.223-.805c0-.524.219-.961.653-1.313.449-.363 1.011-.543 1.687-.543.723 0 1.305.188 1.742.563.45.363.672.832.672 1.406h-1.086c0-.3-.125-.558-.375-.77-.25-.21-.566-.32-.953-.32s-.695.09-.918.266a.805.805 0 0 0-.336.672c0 .265.098.465.297.601.215.125.59.25 1.125.375.55.11.992.254 1.328.43.34.164.582.363.735.602.16.234.242.523.242.86 0 .573-.227 1.03-.676 1.366-.45.34-1.035.508-1.762.508-.496 0-.945-.086-1.347-.262a2.4 2.4 0 0 1-.918-.75 1.894 1.894 0 0 1-.317-1.05h1.086c.012.363.156.652.43.863.277.21.633.32 1.066.32.414 0 .746-.082.992-.246.25-.172.375-.398.375-.672zm-32.597-67.894h-1.086v-7.215l-2.192.785v-.973l3.11-1.16h.168zm8.969-3.637c0 1.266-.22 2.207-.657 2.832-.422.613-1.097.918-2.02.918-.913 0-1.585-.3-2.023-.899-.437-.601-.66-1.5-.675-2.699v-1.445c0-1.262.214-2.191.64-2.793.434-.61 1.117-.914 2.04-.914.921 0 1.597.293 2.023.879.433.586.66 1.492.672 2.719zm-1.086-1.48c0-.922-.13-1.59-.395-2.004-.246-.426-.652-.637-1.215-.637-.55 0-.957.21-1.219.637-.25.414-.37 1.05-.37 1.91v1.746c0 .922.128 1.605.39 2.043.277.437.68.652 1.219.652.535 0 .93-.203 1.18-.617.261-.41.398-1.063.41-1.95zm8.277 1.48c0 1.266-.219 2.207-.656 2.832-.426.613-1.098.918-2.024.918-.91 0-1.582-.3-2.02-.899-.437-.601-.663-1.5-.675-2.699v-1.445c0-1.262.21-2.191.637-2.793.437-.61 1.117-.914 2.043-.914.921 0 1.597.293 2.02.879.437.586.663 1.492.675 2.719zm-1.086-1.48c0-.922-.133-1.59-.395-2.004-.25-.426-.656-.637-1.214-.637-.551 0-.957.21-1.22.637-.25.414-.374 1.05-.374 1.91v1.746c0 .922.133 1.605.394 2.043.274.437.68.652 1.215.652.54 0 .93-.203 1.18-.617.262-.41.402-1.063.414-1.95zm4.063-1.22l.035.696c.465-.535 1.09-.805 1.875-.805.886 0 1.492.336 1.816 1.012.2-.3.469-.543.805-.73.347-.188.75-.282 1.199-.282 1.394 0 2.11.73 2.133 2.192v4.254h-1.086v-4.18c0-.45-.106-.785-.317-1.012-.199-.222-.543-.336-1.03-.336-.411 0-.75.118-1.013.356-.261.238-.418.562-.464.976v4.196h-1.09v-4.16c0-.915-.45-1.368-1.348-1.368-.71 0-1.195.301-1.46.899v4.629h-1.087v-6.336zm13.46 4.65a.776.776 0 0 0-.335-.673c-.223-.164-.61-.3-1.16-.414-.536-.125-.97-.27-1.294-.43-.324-.164-.566-.355-.73-.582a1.42 1.42 0 0 1-.223-.804c0-.528.219-.965.653-1.313.449-.363 1.011-.543 1.687-.543.723 0 1.305.188 1.742.563.45.363.672.828.672 1.402h-1.086c0-.297-.125-.555-.375-.765-.25-.215-.566-.32-.953-.32s-.695.09-.918.261a.817.817 0 0 0-.336.676c0 .261.098.46.297.601.215.125.59.25 1.125.375.55.11.992.254 1.328.43.34.164.582.363.735.602.16.234.242.523.242.859 0 .574-.227 1.031-.676 1.367-.45.34-1.035.508-1.762.508-.496 0-.945-.086-1.347-.262a2.4 2.4 0 0 1-.918-.75 1.894 1.894 0 0 1-.317-1.05h1.086c.012.363.156.652.43.863.277.21.633.316 1.066.316.414 0 .746-.078.992-.242.25-.176.375-.399.375-.676zM62.074 223.02h-5.578v-.786l2.938-3.28c.437-.49.738-.888.898-1.2a1.96 1.96 0 0 0 .262-.977c0-.437-.137-.797-.41-1.086-.262-.289-.618-.43-1.067-.43-.539 0-.957.157-1.258.47-.297.296-.449.722-.449 1.273h-1.086c0-.79.25-1.418.75-1.895.512-.484 1.192-.73 2.04-.73.788 0 1.413.207 1.874.621.461.41.692.965.692 1.664 0 .84-.535 1.84-1.61 3l-2.265 2.477h4.27zm6.946-3.633c0 1.258-.22 2.203-.657 2.828-.422.61-1.097.918-2.02.918-.913 0-1.585-.301-2.023-.899-.437-.601-.66-1.5-.675-2.699v-1.445c0-1.262.214-2.192.64-2.793.434-.61 1.117-.918 2.04-.918.921 0 1.597.293 2.023.883.433.586.66 1.492.672 2.715zm-1.086-1.485c0-.925-.13-1.593-.395-2.004-.246-.425-.652-.636-1.215-.636-.55 0-.957.21-1.219.636-.25.41-.37 1.051-.37 1.91v1.747c0 .922.128 1.601.39 2.039.277.437.68.656 1.219.656.535 0 .93-.203 1.18-.617.261-.414.398-1.063.41-1.95zm8.277 1.48c0 1.263-.219 2.208-.656 2.833-.426.613-1.098.918-2.024.918-.91 0-1.582-.301-2.02-.899-.437-.601-.663-1.5-.675-2.699v-1.445c0-1.262.21-2.192.637-2.793.437-.61 1.117-.918 2.043-.918.921 0 1.597.293 2.02.883.437.586.663 1.492.675 2.715zm-1.086-1.48c0-.925-.133-1.593-.395-2.004-.25-.425-.656-.636-1.214-.636-.551 0-.957.21-1.22.636-.25.41-.374 1.051-.374 1.91v1.747c0 .922.133 1.601.394 2.039.274.437.68.656 1.215.656.54 0 .93-.203 1.18-.617.262-.414.402-1.063.414-1.95zm4.063-1.218l.035.695c.465-.54 1.09-.809 1.875-.809.886 0 1.492.34 1.816 1.016.2-.3.469-.547.805-.734.347-.188.75-.282 1.199-.282 1.394 0 2.11.735 2.133 2.196v4.254h-1.086v-4.18c0-.45-.106-.785-.317-1.012-.199-.226-.543-.336-1.03-.336-.411 0-.75.117-1.013.356-.261.238-.418.562-.464.972v4.2h-1.09v-4.16c0-.915-.45-1.368-1.348-1.368-.71 0-1.195.297-1.46.899v4.629h-1.087v-6.336zm13.46 4.648a.776.776 0 0 0-.335-.672c-.223-.164-.61-.3-1.16-.414-.536-.125-.97-.27-1.294-.434-.324-.16-.566-.355-.73-.578a1.43 1.43 0 0 1-.223-.804c0-.528.219-.965.653-1.313.449-.363 1.011-.547 1.687-.547.723 0 1.305.192 1.742.567.45.36.672.828.672 1.402h-1.086c0-.297-.125-.555-.375-.766-.25-.214-.566-.32-.953-.32s-.695.09-.918.262a.817.817 0 0 0-.336.676c0 .261.098.46.297.601.215.121.59.246 1.125.371.55.114.992.258 1.328.434.34.16.582.363.735.598.16.238.242.527.242.863 0 .574-.227 1.031-.676 1.367-.45.34-1.035.508-1.762.508-.496 0-.945-.09-1.347-.262a2.4 2.4 0 0 1-.918-.75 1.894 1.894 0 0 1-.317-1.05h1.086c.012.363.156.648.43.863.277.21.633.316 1.066.316.414 0 .746-.078.992-.242.25-.176.375-.403.375-.676zm-34.582-72.687h.805c.512 0 .91-.133 1.2-.395.3-.262.449-.617.449-1.066 0-1-.5-1.5-1.497-1.5-.464 0-.84.136-1.125.41-.273.261-.41.613-.41 1.05h-1.086c0-.675.25-1.23.746-1.667.5-.45 1.125-.676 1.875-.676.809 0 1.442.21 1.891.637.461.425.691 1.011.691 1.761 0 .375-.117.738-.355 1.086a2.153 2.153 0 0 1-.992.79c.472.136.836.382 1.086.73.261.34.394.757.394 1.257 0 .762-.25 1.368-.75 1.817-.5.45-1.148.676-1.949.676-.797 0-1.453-.215-1.965-.637-.5-.438-.75-1.012-.75-1.727h1.106c0 .45.144.813.433 1.086.285.266.68.395 1.176.395.527 0 .926-.137 1.2-.41.273-.278.41-.668.41-1.184 0-.488-.153-.86-.465-1.121-.301-.277-.739-.414-1.313-.414h-.805zm10.954 1.16c0 1.261-.22 2.207-.657 2.832-.422.61-1.097.918-2.02.918-.913 0-1.585-.301-2.023-.903-.437-.597-.66-1.496-.675-2.695v-1.445c0-1.262.214-2.192.64-2.793.434-.61 1.117-.918 2.04-.918.921 0 1.597.293 2.023.883.433.586.66 1.492.672 2.714zm-1.086-1.48c0-.927-.13-1.595-.395-2.005-.246-.425-.652-.636-1.215-.636-.55 0-.957.21-1.219.636-.25.41-.37 1.047-.37 1.91v1.743c0 .925.128 1.605.39 2.043.277.437.68.656 1.219.656.535 0 .93-.207 1.18-.617.261-.414.398-1.063.41-1.95zm8.277 1.48c0 1.261-.219 2.207-.656 2.832-.426.61-1.098.918-2.024.918-.91 0-1.582-.301-2.02-.903-.437-.597-.663-1.496-.675-2.695v-1.445c0-1.262.21-2.192.637-2.793.437-.61 1.117-.918 2.043-.918.921 0 1.597.293 2.02.883.437.586.663 1.492.675 2.714zm-1.086-1.48c0-.927-.133-1.595-.395-2.005-.25-.425-.656-.636-1.214-.636-.551 0-.957.21-1.22.636-.25.41-.374 1.047-.374 1.91v1.743c0 .925.133 1.605.394 2.043.274.437.68.656 1.215.656.54 0 .93-.207 1.18-.617.262-.414.402-1.063.414-1.95zm4.063-1.22l.035.696c.465-.54 1.09-.809 1.875-.809.886 0 1.492.34 1.816 1.016.2-.301.469-.547.805-.735.347-.187.75-.28 1.199-.28 1.394 0 2.11.734 2.133 2.195v4.253h-1.086v-4.18c0-.448-.106-.788-.317-1.011-.199-.227-.543-.336-1.03-.336-.411 0-.75.117-1.013.356-.261.234-.418.562-.464.972v4.2h-1.09v-4.16c0-.915-.45-1.368-1.348-1.368-.71 0-1.195.297-1.46.899v4.628h-1.087v-6.336zm13.46 4.649a.782.782 0 0 0-.335-.676c-.223-.16-.61-.297-1.16-.41-.536-.125-.97-.27-1.294-.434-.324-.16-.566-.355-.73-.578a1.442 1.442 0 0 1-.223-.808c0-.524.219-.961.653-1.309.449-.363 1.011-.547 1.687-.547.723 0 1.305.188 1.742.563.45.363.672.832.672 1.406h-1.086c0-.297-.125-.555-.375-.766-.25-.215-.566-.32-.953-.32s-.695.086-.918.262a.817.817 0 0 0-.336.675c0 .262.098.461.297.598.215.125.59.25 1.125.375.55.113.992.258 1.328.434.34.16.582.363.735.597.16.239.242.524.242.864 0 .574-.227 1.03-.676 1.367-.45.336-1.035.508-1.762.508-.496 0-.945-.09-1.347-.262a2.4 2.4 0 0 1-.918-.75 1.903 1.903 0 0 1-.317-1.05h1.086c.012.362.156.648.43.862.277.211.633.317 1.066.317.414 0 .746-.082.992-.242.25-.176.375-.399.375-.676zM61.063 80.996h1.18v.879h-1.18v1.988h-1.086v-1.988h-3.875v-.637l3.8-5.902h1.16zm-3.747 0h2.66v-4.18l-.132.243zm11.704-.77c0 1.262-.22 2.208-.657 2.833-.422.609-1.097.914-2.02.914-.913 0-1.585-.297-2.023-.899-.437-.597-.66-1.5-.675-2.699v-1.441c0-1.262.214-2.192.64-2.793.434-.614 1.117-.918 2.04-.918.921 0 1.597.293 2.023.879.433.59.66 1.496.672 2.718zm-1.086-1.48c0-.926-.13-1.594-.395-2.004-.246-.426-.652-.64-1.215-.64-.55 0-.957.214-1.219.64-.25.41-.37 1.047-.37 1.91v1.743c0 .925.128 1.605.39 2.043.277.437.68.656 1.219.656.535 0 .93-.207 1.18-.617.261-.415.398-1.063.41-1.95zm8.277 1.48c0 1.262-.219 2.208-.656 2.833-.426.609-1.098.914-2.024.914-.91 0-1.582-.297-2.02-.899-.437-.597-.663-1.5-.675-2.699v-1.441c0-1.262.21-2.192.637-2.793.437-.614 1.117-.918 2.043-.918.921 0 1.597.293 2.02.879.437.59.663 1.496.675 2.718zm-1.086-1.48c0-.926-.133-1.594-.395-2.004-.25-.426-.656-.64-1.214-.64-.551 0-.957.214-1.22.64-.25.41-.374 1.047-.374 1.91v1.743c0 .925.133 1.605.394 2.043.274.437.68.656 1.215.656.54 0 .93-.207 1.18-.617.262-.415.402-1.063.414-1.95zm4.063-1.219l.035.696c.465-.54 1.09-.809 1.875-.809.886 0 1.492.34 1.816 1.012.2-.301.469-.543.805-.73.347-.188.75-.282 1.199-.282 1.394 0 2.11.73 2.133 2.195v4.254h-1.086v-4.18c0-.449-.106-.788-.317-1.011-.199-.227-.543-.34-1.03-.34-.411 0-.75.121-1.013.356-.261.238-.418.566-.464.976v4.2h-1.09v-4.165c0-.91-.45-1.367-1.348-1.367-.71 0-1.195.3-1.46.902v4.63h-1.087v-6.337zm13.46 4.649a.782.782 0 0 0-.335-.676c-.223-.16-.61-.3-1.16-.41-.536-.125-.97-.27-1.294-.434-.324-.16-.566-.355-.73-.582a1.42 1.42 0 0 1-.223-.804c0-.524.219-.961.653-1.313.449-.36 1.011-.543 1.687-.543.723 0 1.305.188 1.742.563.45.363.672.832.672 1.406h-1.086c0-.301-.125-.555-.375-.77-.25-.21-.566-.316-.953-.316s-.695.086-.918.262a.812.812 0 0 0-.336.675c0 .262.098.461.297.598.215.125.59.25 1.125.375.55.113.992.258 1.328.434.34.16.582.359.735.597.16.239.242.524.242.864 0 .574-.227 1.03-.676 1.367-.45.336-1.035.504-1.762.504-.496 0-.945-.086-1.347-.262a2.427 2.427 0 0 1-.918-.746 1.903 1.903 0 0 1-.317-1.05h1.086c.012.362.156.647.43.858.277.215.633.32 1.066.32.414 0 .746-.081.992-.241.25-.176.375-.403.375-.676zm0 0" fill="#b7b7b7"/><path d="M175.445 375.86c0 1.148-.261 2.077-.789 2.792-.523.711-1.242 1.067-2.152 1.067-.922 0-1.649-.293-2.172-.88v3.653h-1.293v-10.531h1.18l.058.844c.536-.653 1.274-.977 2.207-.977.91 0 1.63.344 2.157 1.031.535.688.804 1.645.804 2.868zm-1.293-.153c0-.86-.187-1.535-.562-2.023-.36-.5-.86-.75-1.496-.75-.79 0-1.375.343-1.762 1.03v3.638c.387.699.98 1.05 1.777 1.05.625 0 1.121-.246 1.48-.73.376-.5.563-1.238.563-2.215zm6.946-2.586c-.2-.023-.41-.035-.637-.035-.86 0-1.441.363-1.742 1.086v5.398h-1.29v-7.61h1.255l.02.88c.421-.672 1.026-1.012 1.816-1.012.246 0 .44.031.578.094zm.765 2.567c0-.735.145-1.403.434-2.004.3-.598.71-1.055 1.234-1.368a3.324 3.324 0 0 1 1.781-.488c1.036 0 1.872.356 2.508 1.07.649.711.973 1.668.973 2.868v.093c0 .735-.145 1.399-.43 1.989a3.356 3.356 0 0 1-1.218 1.382c-.524.329-1.13.489-1.813.489-1.027 0-1.863-.356-2.512-1.067-.636-.726-.953-1.683-.953-2.867zm1.313.171c0 .836.195 1.512.582 2.024.398.512.922.77 1.574.77.66 0 1.184-.258 1.57-.77.387-.524.582-1.254.582-2.192 0-.828-.203-1.496-.601-2.007-.387-.524-.91-.786-1.57-.786-.637 0-1.157.254-1.555.766-.387.5-.582 1.23-.582 2.195zm8.652-3.898l.035.844c.551-.653 1.301-.977 2.25-.977 1.059 0 1.785.406 2.172 1.219a2.85 2.85 0 0 1 .973-.879c.41-.227.89-.34 1.441-.34 1.672 0 2.524.883 2.547 2.645v5.097h-1.293v-5.023c0-.535-.125-.938-.375-1.2-.25-.273-.668-.413-1.254-.413-.488 0-.894.144-1.215.433-.312.285-.496.676-.543 1.16v5.043h-1.293v-4.984c0-1.102-.543-1.652-1.628-1.652-.848 0-1.43.363-1.743 1.09v5.546h-1.312v-7.61zm13.367 7.61h-1.289v-7.61h1.29zm-1.402-9.618c0-.21.062-.39.187-.543.137-.148.329-.223.579-.223.25 0 .437.075.562.223a.785.785 0 0 1 .207.543c0 .203-.07.375-.207.527-.125.137-.312.207-.562.207-.25 0-.442-.07-.579-.207a.8.8 0 0 1-.187-.527zm8.012 7.594c0-.352-.137-.621-.41-.809-.262-.199-.727-.367-1.387-.504-.649-.136-1.168-.308-1.555-.507-.387-.2-.672-.43-.86-.692a1.783 1.783 0 0 1-.265-.976c0-.625.266-1.149.79-1.575.523-.437 1.198-.656 2.023-.656.859 0 1.554.227 2.078.676.535.437.804 1 .804 1.687h-1.293c0-.351-.156-.652-.464-.898-.301-.266-.676-.395-1.125-.395-.477 0-.852.106-1.125.317a.949.949 0 0 0-.395.789c0 .312.125.55.375.71.25.165.7.321 1.352.47.648.136 1.172.308 1.57.507.398.2.691.442.879.73.2.286.3.63.3 1.032 0 .688-.273 1.235-.824 1.649-.535.41-1.234.617-2.097.617-.61 0-1.153-.106-1.63-.32a2.692 2.692 0 0 1-1.085-.915 2.213 2.213 0 0 1-.39-1.257h1.288c.028.437.203.789.528 1.05.324.25.754.375 1.289.375.488 0 .883-.101 1.18-.3.3-.2.449-.47.449-.805zm5.918 2.172c-1.036 0-1.88-.336-2.528-1.012-.636-.687-.953-1.602-.953-2.734v-.227c0-.762.14-1.437.43-2.023.285-.602.687-1.063 1.195-1.387a3.05 3.05 0 0 1 1.688-.508c.984 0 1.754.324 2.3.977.551.648.825 1.578.825 2.793v.543h-5.149c.024.75.242 1.355.656 1.816.422.461.961.695 1.61.695.45 0 .832-.093 1.14-.28a3.02 3.02 0 0 0 .864-.75l.785.616c-.637.989-1.59 1.48-2.863 1.48zm-.168-6.82c-.524 0-.97.19-1.328.581-.352.375-.563.903-.637 1.59h3.797v-.093c-.035-.66-.215-1.172-.543-1.536-.309-.363-.742-.543-1.29-.543zm8.629 4.648c0-.352-.137-.621-.41-.809-.262-.199-.723-.367-1.387-.504-.649-.136-1.164-.308-1.555-.507-.387-.2-.672-.43-.86-.692a1.781 1.781 0 0 1-.261-.976c0-.625.262-1.149.785-1.575.524-.437 1.2-.656 2.024-.656.863 0 1.554.227 2.078.676.535.437.804 1 .804 1.687h-1.293c0-.351-.152-.652-.464-.898-.301-.266-.676-.395-1.125-.395-.473 0-.848.106-1.125.317a.945.945 0 0 0-.391.789c0 .312.125.55.375.71.25.165.7.321 1.348.47.648.136 1.171.308 1.57.507.402.2.695.442.879.73.203.286.3.63.3 1.032 0 .688-.273 1.235-.824 1.649-.535.41-1.234.617-2.093.617-.614 0-1.157-.106-1.633-.32a2.692 2.692 0 0 1-1.086-.915 2.213 2.213 0 0 1-.39-1.257h1.288c.028.437.203.789.528 1.05.324.25.754.375 1.293.375.484 0 .879-.101 1.175-.3.301-.2.45-.47.45-.805zm57.8 2.023c-.074-.152-.136-.418-.187-.808-.598.64-1.317.957-2.152.957-.75 0-1.368-.211-1.856-.637-.473-.426-.71-.969-.71-1.633 0-.785.3-1.398.901-1.832.598-.437 1.446-.66 2.543-.66h1.254v-.598c0-.449-.136-.804-.41-1.066-.262-.277-.66-.414-1.199-.414-.461 0-.848.117-1.16.355-.313.227-.469.508-.469.844h-1.309c0-.387.13-.758.391-1.105a2.774 2.774 0 0 1 1.106-.825 3.55 3.55 0 0 1 1.515-.32c.887 0 1.574.219 2.063.656.496.438.761 1.04.785 1.801v3.504c0 .7.086 1.254.262 1.668v.113zm-2.152-.992c.41 0 .8-.11 1.16-.32.363-.211.625-.488.785-.824v-1.555h-1.007c-1.598 0-2.399.469-2.399 1.406 0 .399.137.715.41.953.278.227.625.336 1.051.336zm10.281-1.035a.922.922 0 0 0-.414-.805c-.262-.199-.722-.367-1.387-.504-.648-.136-1.164-.308-1.55-.507-.39-.2-.676-.43-.864-.692a1.781 1.781 0 0 1-.261-.976c0-.625.261-1.149.785-1.575.523-.437 1.2-.656 2.023-.656.86 0 1.555.227 2.078.676.536.437.805 1 .805 1.687h-1.293c0-.351-.156-.652-.465-.898-.3-.266-.675-.395-1.125-.395-.476 0-.851.106-1.125.317a.945.945 0 0 0-.39.789c0 .312.125.55.375.71.246.165.695.321 1.347.47.649.136 1.172.308 1.57.507.4.2.696.442.883.73.2.286.297.63.297 1.032 0 .688-.273 1.235-.824 1.649-.535.41-1.234.617-2.098.617-.609 0-1.152-.106-1.628-.32a2.68 2.68 0 0 1-1.082-.915 2.188 2.188 0 0 1-.395-1.257h1.293c.023.437.195.789.523 1.05.325.25.754.375 1.29.375.488 0 .882-.101 1.183-.3.297-.2.45-.47.45-.805zm5.242.113l1.778-5.695h1.387l-3.055 8.789c-.473 1.262-1.223 1.89-2.246 1.89l-.262-.015-.469-.094v-1.05l.336.019c.453 0 .797-.086 1.031-.262.25-.175.457-.5.618-.976l.28-.785-2.714-7.516h1.422zm5.934-5.695l.035.953c.59-.723 1.352-1.086 2.285-1.086 1.614 0 2.422.906 2.434 2.719v5.023h-1.309v-5.043c0-.535-.125-.937-.375-1.199-.238-.262-.617-.394-1.14-.394-.426 0-.801.113-1.125.34a2.268 2.268 0 0 0-.73.878v5.418h-1.29v-7.61zm10.203 6.691c.465 0 .867-.14 1.219-.414.348-.285.543-.644.582-1.066h1.234c-.023.437-.18.855-.468 1.254a2.996 2.996 0 0 1-1.106.937 3.06 3.06 0 0 1-1.46.356c-1.036 0-1.86-.344-2.47-1.031-.601-.7-.898-1.649-.898-2.848v-.227c0-.734.129-1.39.39-1.965.278-.578.665-1.02 1.165-1.332.507-.324 1.113-.488 1.812-.488.852 0 1.555.258 2.117.77.575.5.88 1.16.918 1.988h-1.234c-.04-.5-.227-.906-.563-1.219-.335-.312-.75-.469-1.238-.469-.66 0-1.172.239-1.535.711-.36.477-.543 1.164-.543 2.063v.242c0 .875.184 1.55.543 2.024.363.476.875.714 1.535.714zm4.403 1.797h-1.106l4.27-11.113h1.105zm10.43-.879c-.075-.152-.137-.418-.188-.808-.602.64-1.317.957-2.153.957-.75 0-1.367-.211-1.855-.637-.473-.426-.711-.969-.711-1.633 0-.785.3-1.398.898-1.832.602-.437 1.45-.66 2.547-.66h1.254v-.598c0-.449-.137-.804-.41-1.066-.262-.277-.664-.414-1.2-.414-.46 0-.847.117-1.163.355-.309.227-.465.508-.465.844h-1.313c0-.387.133-.758.395-1.105.273-.352.64-.625 1.105-.825.461-.214.965-.32 1.516-.32.887 0 1.574.219 2.059.656.5.438.761 1.04.789 1.801v3.504c0 .7.086 1.254.261 1.668v.113zm-2.157-.992c.414 0 .8-.11 1.164-.32.36-.211.621-.488.785-.824v-1.555h-1.012c-1.597 0-2.394.469-2.394 1.406 0 .399.137.715.41.953.274.227.625.336 1.047.336zm12.586-.808l1.46-5.81h1.29l-2.207 7.61h-1.05l-1.852-5.773-1.797 5.773h-1.051l-2.207-7.61h1.289l1.5 5.696 1.777-5.695h1.031zm8.742 1.8c-.074-.152-.137-.418-.187-.808-.598.64-1.317.957-2.153.957-.75 0-1.367-.211-1.855-.637-.473-.426-.711-.969-.711-1.633 0-.785.3-1.398.902-1.832.598-.437 1.445-.66 2.543-.66h1.254v-.598c0-.449-.137-.804-.41-1.066-.262-.277-.66-.414-1.2-.414-.46 0-.847.117-1.16.355-.312.227-.468.508-.468.844h-1.309c0-.387.13-.758.39-1.105a2.774 2.774 0 0 1 1.106-.825 3.55 3.55 0 0 1 1.516-.32c.887 0 1.574.219 2.062.656.497.438.762 1.04.786 1.801v3.504c0 .7.086 1.254.261 1.668v.113zm-2.152-.992c.41 0 .797-.11 1.16-.32.363-.211.625-.488.785-.824v-1.555h-1.008c-1.597 0-2.398.469-2.398 1.406 0 .399.137.715.41.953.277.227.625.336 1.05.336zm7.265.992h-1.293v-7.61h1.293zm-1.406-9.617c0-.21.063-.39.188-.543.136-.148.332-.223.582-.223.25 0 .437.075.558.223a.77.77 0 0 1 .207.543.744.744 0 0 1-.207.527c-.12.137-.308.207-.558.207-.25 0-.446-.07-.582-.207a.8.8 0 0 1-.188-.527zm5.356.172v1.836h1.406v1.012h-1.406v4.703c0 .312.062.543.187.695.125.149.336.223.637.223.148 0 .355-.024.617-.074v1.05a3.554 3.554 0 0 1-.992.149c-.574 0-1.012-.176-1.309-.524-.3-.363-.449-.87-.449-1.52v-4.702h-1.387v-1.012h1.387v-1.836zm6.574 5.285c0-1.05.137-2.062.41-3.039.289-.973.71-1.86 1.273-2.66s1.149-1.363 1.762-1.688l.262.864c-.688.523-1.25 1.324-1.688 2.398-.437 1.074-.672 2.281-.71 3.617l-.02.602c0 1.808.332 3.379.992 4.703.399.8.875 1.426 1.426 1.875l-.266.785c-.62-.336-1.222-.918-1.797-1.742-1.097-1.586-1.644-3.492-1.644-5.715zm11.27.45c0 1.16-.27 2.097-.805 2.808-.524.703-1.235 1.05-2.133 1.05-.965 0-1.707-.343-2.23-1.03l-.075.882h-1.18v-10.797h1.293v4.032c.524-.649 1.247-.977 2.172-.977.922 0 1.649.352 2.172 1.05.524.688.785 1.645.785 2.868zm-1.294-.153c0-.887-.171-1.566-.523-2.043-.336-.484-.824-.73-1.461-.73-.86 0-1.477.394-1.852 1.183v3.297c.399.8 1.016 1.2 1.852 1.2.625 0 1.113-.243 1.46-.731.353-.488.524-1.211.524-2.176zm7.942 3.863c-.074-.152-.137-.418-.188-.808-.601.64-1.316.957-2.152.957-.75 0-1.367-.211-1.856-.637-.472-.426-.71-.969-.71-1.633 0-.785.3-1.398.898-1.832.602-.437 1.45-.66 2.547-.66h1.254v-.598c0-.449-.137-.804-.41-1.066-.262-.277-.664-.414-1.2-.414-.46 0-.847.117-1.164.355-.308.227-.465.508-.465.844h-1.312c0-.387.133-.758.394-1.105.274-.352.641-.625 1.106-.825.46-.214.965-.32 1.516-.32.886 0 1.574.219 2.058.656.5.438.762 1.04.79 1.801v3.504c0 .7.085 1.254.261 1.668v.113zm-2.156-.992c.414 0 .8-.11 1.164-.32.359-.211.62-.488.785-.824v-1.555h-1.012c-1.598 0-2.394.469-2.394 1.406 0 .399.136.715.41.953.273.227.625.336 1.047.336zm12.285-2.719c0 1.16-.27 2.098-.805 2.809-.523.703-1.238 1.05-2.137 1.05-.96 0-1.703-.343-2.226-1.03l-.075.882h-1.18v-10.797h1.294v4.032c.523-.649 1.246-.977 2.172-.977.922 0 1.644.352 2.172 1.05.523.688.785 1.645.785 2.868zm-1.293-.152c0-.887-.176-1.566-.524-2.043-.336-.484-.824-.73-1.46-.73-.86 0-1.481.394-1.852 1.183v3.297c.398.8 1.015 1.2 1.851 1.2.625 0 1.114-.243 1.461-.731.348-.488.524-1.211.524-2.176zm6.406 4.012c-1.04 0-1.879-.336-2.531-1.012-.637-.687-.953-1.602-.953-2.734v-.227c0-.762.144-1.437.433-2.023.285-.602.684-1.063 1.195-1.387a3.037 3.037 0 0 1 1.684-.508c.988 0 1.754.324 2.305.977.55.648.824 1.578.824 2.789v.547h-5.148c.023.75.242 1.355.656 1.816.422.461.96.695 1.61.695.448 0 .827-.093 1.14-.28a3.04 3.04 0 0 0 .86-.75l.788.616c-.636.989-1.59 1.48-2.863 1.48zm-.168-6.82c-.527 0-.969.19-1.332.581-.348.375-.563.903-.637 1.59h3.801v-.093c-.035-.66-.219-1.172-.543-1.536-.312-.363-.742-.543-1.293-.543zm5.613 6.671h-1.289v-10.797h1.29zm5.188-4.086a10.98 10.98 0 0 1-.41 3.016 8.87 8.87 0 0 1-1.274 2.645c-.562.812-1.148 1.386-1.762 1.722l-.28-.785c.726-.55 1.304-1.406 1.741-2.566.438-1.176.66-2.47.676-3.883v-.223c0-.988-.11-1.906-.32-2.758-.2-.847-.485-1.605-.863-2.265-.36-.676-.77-1.2-1.235-1.575l.281-.789c.614.34 1.2.907 1.762 1.707.563.801.98 1.688 1.254 2.66.285.965.43 1.993.43 3.094zm20.277 4.086c-.074-.152-.137-.418-.187-.808-.598.64-1.317.957-2.153.957-.75 0-1.367-.211-1.855-.637-.473-.426-.711-.969-.711-1.633 0-.785.3-1.398.898-1.832.602-.437 1.45-.66 2.547-.66h1.254v-.598c0-.449-.137-.804-.41-1.066-.262-.277-.664-.414-1.2-.414-.46 0-.847.117-1.16.355-.312.227-.468.508-.468.844h-1.313c0-.387.133-.758.395-1.105.273-.352.644-.625 1.105-.825a3.55 3.55 0 0 1 1.516-.32c.887 0 1.574.219 2.062.656.497.438.758 1.04.786 1.801v3.504c0 .7.086 1.254.261 1.668v.113zm-2.152-.992c.41 0 .797-.11 1.16-.32.363-.211.625-.488.785-.824v-1.555h-1.012c-1.597 0-2.394.469-2.394 1.406 0 .399.137.715.41.953.277.227.625.336 1.05.336zm10.277-1.035c0-.348-.137-.617-.41-.805-.262-.199-.727-.367-1.387-.504-.648-.136-1.168-.308-1.554-.507-.387-.2-.672-.43-.86-.692a1.781 1.781 0 0 1-.262-.976c0-.625.262-1.149.786-1.575.523-.437 1.199-.656 2.023-.656.86 0 1.55.227 2.078.676.535.437.805 1 .805 1.687h-1.293c0-.351-.156-.652-.469-.898-.297-.266-.672-.395-1.12-.395-.478 0-.853.106-1.126.317a.945.945 0 0 0-.39.789c0 .312.12.55.37.71.25.165.7.321 1.348.47.653.136 1.176.308 1.574.507.399.2.692.442.88.73.199.286.3.63.3 1.032 0 .688-.273 1.235-.824 1.649-.535.41-1.235.617-2.098.617-.61 0-1.152-.106-1.629-.32a2.692 2.692 0 0 1-1.086-.915 2.213 2.213 0 0 1-.39-1.257h1.289c.027.437.199.789.523 1.05.328.25.758.375 1.293.375.488 0 .883-.101 1.18-.3.3-.2.45-.47.45-.805zm5.242.113l1.782-5.695h1.382l-3.05 8.789c-.473 1.262-1.223 1.89-2.247 1.89l-.261-.015-.469-.094v-1.05l.336.019c.45 0 .793-.086 1.031-.262.25-.175.453-.5.617-.976l.282-.785-2.715-7.516h1.422zm5.938-5.695l.035.953c.59-.723 1.352-1.086 2.285-1.086 1.61 0 2.422.906 2.434 2.719v5.023h-1.309v-5.043c0-.535-.125-.937-.375-1.199-.238-.262-.617-.394-1.144-.394-.422 0-.797.113-1.122.34a2.268 2.268 0 0 0-.73.878v5.418h-1.293v-7.61zm10.203 6.691c.465 0 .867-.14 1.219-.414.347-.285.543-.644.582-1.066h1.234a2.387 2.387 0 0 1-.469 1.254 3.017 3.017 0 0 1-1.105.937 3.06 3.06 0 0 1-1.461.356c-1.035 0-1.86-.344-2.473-1.031-.597-.7-.898-1.649-.898-2.848v-.227c0-.734.133-1.39.394-1.965.274-.578.66-1.02 1.16-1.332.512-.324 1.118-.488 1.817-.488.851 0 1.555.258 2.117.77.574.5.879 1.16.918 1.988h-1.234c-.04-.5-.227-.906-.567-1.219a1.745 1.745 0 0 0-1.234-.469c-.66 0-1.172.239-1.535.711-.363.477-.543 1.164-.543 2.063v.242c0 .875.18 1.55.543 2.024.363.476.875.714 1.535.714zm4.402 1.797h-1.105l4.27-11.113h1.105zm10.43-.879c-.078-.152-.14-.418-.188-.808-.601.64-1.32.957-2.156.957-.746 0-1.363-.211-1.851-.637-.473-.426-.711-.969-.711-1.633 0-.785.297-1.398.898-1.832.598-.437 1.45-.66 2.547-.66h1.254v-.598c0-.449-.137-.804-.414-1.066-.262-.277-.66-.414-1.195-.414-.465 0-.852.117-1.164.355-.31.227-.465.508-.465.844h-1.313c0-.387.133-.758.395-1.105.273-.352.64-.625 1.105-.825.461-.214.965-.32 1.516-.32.887 0 1.574.219 2.058.656.5.438.762 1.04.786 1.801v3.504c0 .7.09 1.254.265 1.668v.113zm-2.156-.992c.414 0 .8-.11 1.16-.32.363-.211.625-.488.789-.824v-1.555h-1.012c-1.597 0-2.398.469-2.398 1.406 0 .399.14.715.414.953.273.227.625.336 1.047.336zm12.586-.808l1.457-5.81h1.293l-2.207 7.61h-1.051l-1.852-5.773-1.8 5.773h-1.047l-2.211-7.61h1.293l1.496 5.696 1.781-5.695h1.027zm8.742 1.8c-.074-.152-.137-.418-.188-.808-.597.64-1.316.957-2.152.957-.75 0-1.367-.211-1.855-.637-.473-.426-.711-.969-.711-1.633 0-.785.3-1.398.898-1.832.602-.437 1.45-.66 2.547-.66h1.254v-.598c0-.449-.137-.804-.41-1.066-.262-.277-.664-.414-1.2-.414-.46 0-.847.117-1.16.355-.312.227-.468.508-.468.844h-1.313c0-.387.133-.758.395-1.105.273-.352.644-.625 1.105-.825a3.55 3.55 0 0 1 1.516-.32c.886 0 1.574.219 2.062.656.496.438.758 1.04.785 1.801v3.504c0 .7.086 1.254.262 1.668v.113zm-2.152-.992c.41 0 .796-.11 1.16-.32.363-.211.625-.488.785-.824v-1.555h-1.012c-1.598 0-2.394.469-2.394 1.406 0 .399.136.715.41.953.277.227.625.336 1.05.336zm7.261.992h-1.289v-7.61h1.29zm-1.402-9.617c0-.21.062-.39.187-.543.137-.148.332-.223.582-.223.247 0 .434.075.559.223a.77.77 0 0 1 .207.543.744.744 0 0 1-.207.527c-.125.137-.313.207-.563.207-.25 0-.44-.07-.578-.207a.8.8 0 0 1-.187-.527zm5.355.172v1.836h1.403v1.012h-1.403v4.703c0 .312.063.543.188.695.125.149.336.223.637.223.148 0 .355-.024.617-.074v1.05a3.554 3.554 0 0 1-.992.149c-.575 0-1.012-.176-1.313-.524-.297-.363-.45-.87-.45-1.52v-4.702h-1.382v-1.012h1.383v-1.836zm6.57 5.285c0-1.05.137-2.062.415-3.039.285-.973.71-1.86 1.273-2.66s1.149-1.363 1.758-1.688l.266.864c-.688.523-1.25 1.324-1.688 2.398-.437 1.074-.676 2.281-.71 3.617l-.02.602c0 1.808.332 3.379.992 4.703.402.8.875 1.426 1.422 1.875l-.262.785c-.621-.336-1.223-.918-1.797-1.742-1.098-1.586-1.648-3.492-1.648-5.715zm6.067-3.45l.04.954c.585-.723 1.347-1.086 2.284-1.086 1.61 0 2.422.906 2.434 2.719v5.023h-1.313v-5.043c0-.535-.125-.937-.375-1.199-.234-.262-.617-.394-1.14-.394-.426 0-.797.113-1.121.34a2.278 2.278 0 0 0-.735.878v5.418H511.2v-7.61zm11.852 7.61c-.075-.152-.137-.418-.184-.808-.602.64-1.32.957-2.156.957-.746 0-1.364-.211-1.852-.637-.472-.426-.71-.969-.71-1.633 0-.785.296-1.398.898-1.832.597-.437 1.449-.66 2.547-.66h1.254v-.598c0-.449-.137-.804-.415-1.066-.261-.277-.66-.414-1.195-.414-.465 0-.851.117-1.164.355-.309.227-.465.508-.465.844h-1.312c0-.387.133-.758.394-1.105.274-.352.64-.625 1.106-.825.46-.214.965-.32 1.515-.32.887 0 1.575.219 2.059.656.5.438.762 1.04.785 1.801v3.504c0 .7.09 1.254.266 1.668v.113zm-2.153-.992c.414 0 .801-.11 1.16-.32.364-.211.625-.488.79-.824v-1.555h-1.012c-1.598 0-2.399.469-2.399 1.406 0 .399.141.715.414.953.274.227.625.336 1.047.336zm7.621-8.453v1.836h1.407v1.012h-1.407v4.703c0 .312.063.543.188.695.125.149.34.223.637.223.152 0 .355-.024.617-.074v1.05a3.554 3.554 0 0 1-.992.149c-.575 0-1.012-.176-1.309-.524-.3-.363-.45-.87-.45-1.52v-4.702h-1.386v-1.012h1.387v-1.836zm4.438 9.445h-1.293v-7.61h1.293zm-1.402-9.617c0-.21.062-.39.187-.543.137-.148.328-.223.578-.223.25 0 .438.075.563.223a.785.785 0 0 1 .207.543c0 .203-.07.375-.207.527-.125.137-.313.207-.563.207-.25 0-.441-.07-.578-.207a.8.8 0 0 1-.187-.527zm6.082 7.856l1.894-5.848h1.328l-2.734 7.61h-.992l-2.75-7.61h1.328zm7.847 1.91c-1.035 0-1.879-.336-2.527-1.012-.637-.687-.957-1.602-.957-2.734v-.227c0-.762.144-1.437.433-2.023.286-.602.688-1.063 1.2-1.387a3.037 3.037 0 0 1 1.683-.508c.985 0 1.754.324 2.305.977.547.648.82 1.578.82 2.789v.547h-5.148c.023.75.242 1.355.656 1.816.426.461.961.695 1.61.695.449 0 .831-.093 1.144-.28a3.08 3.08 0 0 0 .86-.75l.784.616c-.636.989-1.59 1.48-2.863 1.48zm-.168-6.82c-.523 0-.968.19-1.332.581-.347.375-.558.903-.633 1.59h3.801v-.093c-.039-.66-.219-1.172-.543-1.536-.312-.363-.742-.543-1.293-.543zm7.207 2.585a10.98 10.98 0 0 1-.41 3.016c-.273.95-.7 1.832-1.273 2.645-.563.812-1.149 1.386-1.762 1.722l-.281-.785c.726-.55 1.304-1.406 1.742-2.566.437-1.176.664-2.47.676-3.883v-.223c0-.988-.106-1.906-.32-2.758-.2-.847-.485-1.605-.86-2.265-.363-.676-.773-1.2-1.238-1.575l.281-.789c.613.34 1.2.907 1.762 1.707.562.801.98 1.688 1.254 2.66.289.965.433 1.993.433 3.094zm0 0"/><path d="M609.293 74.266c0-.66.535-1.2 1.2-1.2h11.98a1.2 1.2 0 0 1 1.199 1.2v11.996c0 .664-.535 1.199-1.2 1.199h-11.98a1.197 1.197 0 0 1-1.199-1.2zm0 0" fill="#0b5394"/><path d="M641.555 85.063H640.3l-4.719-7.235v7.234h-1.234v-9.39h1.234l4.738 7.273v-7.273h1.235zm1.87-3.543c0-.688.134-1.301.395-1.836.274-.551.649-.977 1.121-1.274.489-.3 1.04-.453 1.649-.453.95 0 1.719.332 2.305.996.585.649.878 1.524.878 2.621v.078c0 .672-.132 1.285-.394 1.836a2.987 2.987 0 0 1-1.121 1.254c-.477.301-1.024.45-1.649.45-.949 0-1.714-.325-2.3-.973-.59-.664-.883-1.54-.883-2.625zm1.2.132c0 .774.18 1.399.543 1.871.363.465.844.696 1.441.696.602 0 1.075-.239 1.422-.711.364-.477.543-1.137.543-1.988 0-.774-.18-1.399-.543-1.875a1.72 1.72 0 0 0-1.441-.711c-.586 0-1.059.238-1.422.71-.363.465-.543 1.133-.543 2.008zm6.027-.132c0-1.075.25-1.938.75-2.586.512-.649 1.172-.977 1.985-.977.824 0 1.472.281 1.949.844v-3.633h1.2v9.894h-1.106l-.059-.75c-.473.586-1.137.88-1.984.88-.813 0-1.473-.329-1.985-.993-.5-.66-.75-1.523-.75-2.586zm1.18.132c0 .785.164 1.403.488 1.856.336.449.793.672 1.367.672.747 0 1.297-.336 1.649-1.012v-3.203c-.363-.664-.914-.992-1.649-.992-.574 0-1.03.222-1.367.672-.324.449-.488 1.12-.488 2.007zm9.176 3.54c-.938 0-1.703-.305-2.305-.919-.586-.62-.879-1.46-.879-2.511v-.203c0-.7.133-1.32.395-1.856a2.98 2.98 0 0 1 1.105-1.277 2.764 2.764 0 0 1 1.555-.469c.898 0 1.598.3 2.094.902.511.598.77 1.454.77 2.567v.488h-4.72c.012.688.207 1.242.579 1.668.39.426.882.637 1.48.637.426 0 .781-.086 1.066-.266.29-.172.547-.398.77-.672l.73.563c-.586.898-1.468 1.347-2.64 1.347zm-.133-6.258c-.484 0-.89.175-1.215.523-.324.352-.523.844-.597 1.48h3.48v-.093c-.035-.598-.203-1.067-.504-1.406-.289-.336-.676-.504-1.164-.504zm4.477 5.507c0-.21.054-.386.168-.523.125-.137.308-.207.543-.207.25 0 .437.07.562.207a.712.712 0 0 1 .207.523.67.67 0 0 1-.207.489c-.125.136-.313.207-.563.207-.234 0-.417-.07-.542-.207a.763.763 0 0 1-.168-.489zm4.793-6.351v7.777c0 1.336-.606 2.004-1.817 2.004-.262 0-.504-.035-.73-.11v-.956c.136.039.32.058.543.058.265 0 .464-.078.601-.226.137-.137.203-.387.203-.75V78.09zm-1.31-1.856a.67.67 0 0 1 .169-.468c.125-.137.297-.207.523-.207.223 0 .399.07.524.207a.662.662 0 0 1 .187.488.636.636 0 0 1-.187.469c-.125.125-.305.187-.543.187-.223 0-.39-.062-.504-.187a.7.7 0 0 1-.168-.489zm7.731 6.973a.842.842 0 0 0-.375-.73c-.234-.188-.66-.344-1.27-.47-.6-.136-1.073-.292-1.425-.468-.348-.176-.61-.387-.785-.637-.176-.25-.262-.55-.262-.902 0-.574.242-1.055.73-1.441.485-.399 1.106-.602 1.852-.602.79 0 1.426.207 1.91.621.5.399.75.918.75 1.555h-1.199c0-.324-.137-.606-.41-.844-.277-.238-.625-.355-1.05-.355-.434 0-.778.097-1.028.3a.883.883 0 0 0-.356.73c0 .286.11.505.336.657.223.137.637.274 1.235.41.601.137 1.082.301 1.441.489.375.175.653.394.824.656.176.261.262.582.262.957 0 .625-.25 1.125-.746 1.496-.488.375-1.133.562-1.93.562-.562 0-1.054-.097-1.48-.296a2.572 2.572 0 0 1-1.008-.825 2.005 2.005 0 0 1-.36-1.144h1.18c.028.386.188.699.489.937.3.239.691.356 1.18.356.449 0 .812-.086 1.085-.266a.854.854 0 0 0 .41-.746zm12.66-6.86l-3.894 8.716h-1.238l3.86-8.399h-5.075v-.992h6.348zm0 0" fill="#666"/><path d="M609.293 103.055c0-.664.535-1.2 1.2-1.2h11.98c.664 0 1.199.536 1.199 1.2v11.992a1.2 1.2 0 0 1-1.2 1.203h-11.98a1.2 1.2 0 0 1-1.199-1.203zm0 0" fill="#3d85c6"/><path d="M641.555 113.848H640.3l-4.719-7.235v7.235h-1.234v-9.387h1.234l4.738 7.27v-7.27h1.235zm1.87-3.54c0-.687.134-1.3.395-1.84a3.13 3.13 0 0 1 1.121-1.273c.489-.3 1.04-.449 1.649-.449.95 0 1.719.332 2.305.992.585.649.878 1.524.878 2.625v.075c0 .675-.132 1.289-.394 1.835-.262.54-.637.957-1.121 1.258-.477.297-1.024.45-1.649.45-.949 0-1.714-.325-2.3-.973-.59-.664-.883-1.54-.883-2.625zm1.2.13c0 .773.18 1.398.543 1.874.363.461.844.696 1.441.696.602 0 1.075-.238 1.422-.715.364-.473.543-1.137.543-1.984 0-.778-.18-1.403-.543-1.875a1.714 1.714 0 0 0-1.441-.715c-.586 0-1.059.238-1.422.715-.363.46-.543 1.129-.543 2.004zm6.027-.133c0-1.075.25-1.934.75-2.586.512-.649 1.172-.973 1.985-.973.824 0 1.472.281 1.949.844v-3.637h1.2v9.895h-1.106l-.059-.75c-.473.59-1.137.882-1.984.882-.813 0-1.473-.332-1.985-.992-.5-.664-.75-1.527-.75-2.586zm1.18.132c0 .79.164 1.407.488 1.856.336.45.793.676 1.367.676.747 0 1.297-.34 1.649-1.012v-3.207c-.363-.66-.914-.992-1.649-.992-.574 0-1.03.226-1.367.676-.324.449-.488 1.117-.488 2.004zm9.176 3.543c-.938 0-1.703-.308-2.305-.918-.586-.624-.879-1.46-.879-2.511v-.207c0-.7.133-1.317.395-1.856.261-.55.629-.972 1.105-1.273a2.764 2.764 0 0 1 1.555-.469c.898 0 1.598.3 2.094.899.511.601.77 1.457.77 2.566v.488h-4.72c.012.688.207 1.242.579 1.668.39.426.882.64 1.48.64.426 0 .781-.089 1.066-.265.29-.176.547-.398.77-.676l.73.563c-.586.902-1.468 1.351-2.64 1.351zm-.133-6.261c-.484 0-.89.176-1.215.527-.324.348-.523.844-.597 1.48h3.48v-.093c-.035-.602-.203-1.07-.504-1.406-.289-.336-.676-.508-1.164-.508zm4.477 5.511c0-.21.054-.386.168-.523.125-.137.308-.207.543-.207.25 0 .437.07.562.207a.712.712 0 0 1 .207.523c0 .188-.07.348-.207.489-.125.136-.313.203-.563.203-.234 0-.417-.067-.542-.203a.771.771 0 0 1-.168-.489zm4.793-6.355v7.781c0 1.336-.606 2.004-1.817 2.004-.262 0-.504-.039-.73-.113v-.953c.136.035.32.054.543.054.265 0 .464-.074.601-.226.137-.137.203-.387.203-.75v-7.797zm-1.31-1.855a.67.67 0 0 1 .169-.465c.125-.14.297-.207.523-.207.223 0 .399.066.524.207a.653.653 0 0 1 .187.484.636.636 0 0 1-.187.469c-.125.125-.305.187-.543.187-.223 0-.39-.062-.504-.187a.694.694 0 0 1-.168-.488zm7.731 6.972a.847.847 0 0 0-.375-.73c-.234-.188-.66-.344-1.27-.469-.6-.137-1.073-.293-1.425-.465-.348-.176-.61-.39-.785-.64a1.524 1.524 0 0 1-.262-.899c0-.574.242-1.055.73-1.441.485-.403 1.106-.602 1.852-.602.79 0 1.426.207 1.91.617.5.399.75.918.75 1.555h-1.199c0-.324-.137-.606-.41-.84-.277-.238-.625-.36-1.05-.36-.434 0-.778.102-1.028.302a.888.888 0 0 0-.356.73c0 .29.11.508.336.656.223.137.637.274 1.235.414.601.137 1.082.301 1.441.489.375.171.653.39.824.652.176.266.262.582.262.957 0 .625-.25 1.125-.746 1.5-.488.375-1.133.562-1.93.562-.562 0-1.054-.101-1.48-.3a2.507 2.507 0 0 1-1.008-.825 1.996 1.996 0 0 1-.36-1.144h1.18c.028.39.188.703.489.937.3.239.691.36 1.18.36.449 0 .812-.09 1.085-.266.274-.187.41-.437.41-.75zm12.286-5.078c0 .477-.125.895-.375 1.254-.239.363-.57.652-.993.863.489.2.875.508 1.16.918.29.403.434.856.434 1.371 0 .809-.277 1.461-.824 1.946-.55.476-1.27.714-2.156.714-.91 0-1.633-.238-2.172-.714-.535-.485-.805-1.137-.805-1.946 0-.515.137-.968.41-1.37.278-.41.657-.723 1.145-.938a2.49 2.49 0 0 1-.992-.844 2.279 2.279 0 0 1-.356-1.254c0-.785.25-1.41.746-1.875.512-.46 1.188-.691 2.024-.691.824 0 1.484.23 1.984.691.512.465.77 1.09.77 1.875zm-.977 4.387c0-.528-.168-.95-.504-1.278-.324-.335-.754-.503-1.293-.503-.535 0-.965.164-1.289.488-.324.324-.488.754-.488 1.293 0 .523.156.941.469 1.254.324.3.765.453 1.328.453.55 0 .98-.153 1.293-.453.324-.313.484-.73.484-1.254zm-1.777-5.98c-.473 0-.856.144-1.141.433-.289.285-.434.68-.434 1.18 0 .472.145.863.434 1.16.285.289.668.433 1.14.433.477 0 .856-.144 1.145-.433.285-.297.43-.688.43-1.16 0-.477-.149-.864-.45-1.164a1.54 1.54 0 0 0-1.124-.45zm0 0" fill="#666"/><path d="M609.293 131.84c0-.66.535-1.2 1.2-1.2h11.98a1.2 1.2 0 0 1 1.199 1.2v11.996c0 .664-.535 1.2-1.2 1.2h-11.98a1.198 1.198 0 0 1-1.199-1.2zm0 0" fill="#6fa8dc"/><path d="M641.555 142.637H640.3l-4.719-7.235v7.235h-1.234v-9.39h1.234l4.738 7.273v-7.274h1.235zm1.87-3.543c0-.688.134-1.301.395-1.836.274-.551.649-.977 1.121-1.274.489-.3 1.04-.453 1.649-.453.95 0 1.719.332 2.305.996.585.649.878 1.524.878 2.621v.079a4.22 4.22 0 0 1-.394 1.835 2.987 2.987 0 0 1-1.121 1.254c-.477.301-1.024.45-1.649.45-.949 0-1.714-.325-2.3-.973-.59-.664-.883-1.54-.883-2.625zm1.2.133c0 .773.18 1.398.543 1.87.363.465.844.696 1.441.696.602 0 1.075-.238 1.422-.711.364-.477.543-1.137.543-1.988 0-.774-.18-1.399-.543-1.875a1.72 1.72 0 0 0-1.441-.711c-.586 0-1.059.238-1.422.71-.363.466-.543 1.134-.543 2.009zm6.027-.133c0-1.074.25-1.938.75-2.586.512-.649 1.172-.977 1.985-.977.824 0 1.472.281 1.949.844v-3.633h1.2v9.895h-1.106l-.059-.75c-.473.586-1.137.879-1.984.879-.813 0-1.473-.328-1.985-.993-.5-.66-.75-1.523-.75-2.585zm1.18.133c0 .785.164 1.402.488 1.855.336.45.793.672 1.367.672.747 0 1.297-.336 1.649-1.012v-3.203c-.363-.664-.914-.992-1.649-.992-.574 0-1.03.223-1.367.672-.324.449-.488 1.12-.488 2.008zm9.176 3.539c-.938 0-1.703-.305-2.305-.918-.586-.625-.879-1.461-.879-2.512v-.203c0-.7.133-1.32.395-1.856a2.98 2.98 0 0 1 1.105-1.277 2.764 2.764 0 0 1 1.555-.469c.898 0 1.598.301 2.094.903.511.597.77 1.453.77 2.566v.488h-4.72c.012.688.207 1.242.579 1.668.39.426.882.637 1.48.637.426 0 .781-.086 1.066-.266.29-.172.547-.398.77-.672l.73.563c-.586.898-1.468 1.348-2.64 1.348zm-.133-6.258a1.6 1.6 0 0 0-1.215.523c-.324.352-.523.844-.597 1.48h3.48v-.093c-.035-.598-.203-1.066-.504-1.406-.289-.336-.676-.504-1.164-.504zm4.477 5.508c0-.211.054-.387.168-.524.125-.137.308-.207.543-.207.25 0 .437.07.562.207a.712.712 0 0 1 .207.524.67.67 0 0 1-.207.488c-.125.137-.313.207-.563.207-.234 0-.417-.07-.542-.207a.763.763 0 0 1-.168-.488zm4.793-6.352v7.777c0 1.336-.606 2.004-1.817 2.004-.262 0-.504-.035-.73-.11v-.956c.136.039.32.055.543.055.265 0 .464-.075.601-.223.137-.137.203-.387.203-.75v-7.797zm-1.31-1.855a.67.67 0 0 1 .169-.47c.125-.136.297-.206.523-.206.223 0 .399.07.524.207a.662.662 0 0 1 .187.488.636.636 0 0 1-.187.469c-.125.125-.305.187-.543.187-.223 0-.39-.062-.504-.187a.7.7 0 0 1-.168-.488zm7.731 6.972a.842.842 0 0 0-.375-.73c-.234-.188-.66-.344-1.27-.469-.6-.137-1.073-.293-1.425-.469-.348-.175-.61-.386-.785-.636-.176-.25-.262-.551-.262-.903 0-.574.242-1.054.73-1.441.485-.399 1.106-.602 1.852-.602.79 0 1.426.207 1.91.621.5.399.75.918.75 1.555h-1.199c0-.324-.137-.605-.41-.844-.277-.238-.625-.355-1.05-.355-.434 0-.778.097-1.028.3a.883.883 0 0 0-.356.731c0 .285.11.504.336.656.223.137.637.274 1.235.41.601.137 1.082.301 1.441.489.375.176.653.394.824.656.176.262.262.582.262.957 0 .625-.25 1.125-.746 1.496-.488.375-1.133.563-1.93.563-.562 0-1.054-.098-1.48-.297a2.572 2.572 0 0 1-1.008-.824 2.005 2.005 0 0 1-.36-1.145h1.18c.028.387.188.7.489.938.3.238.691.355 1.18.355.449 0 .812-.086 1.085-.266a.854.854 0 0 0 .41-.746zm11.16-2.265a3.09 3.09 0 0 1-.898.73c-.336.172-.71.258-1.121.258-.539 0-1.012-.129-1.426-.39a2.788 2.788 0 0 1-.933-1.126 3.953 3.953 0 0 1-.32-1.613c0-.625.117-1.184.355-1.684.25-.515.594-.902 1.031-1.164.438-.261.941-.394 1.516-.394.937 0 1.668.351 2.191 1.05.535.688.805 1.633.805 2.833v.336c0 1.824-.364 3.16-1.086 4.007-.711.84-1.797 1.266-3.258 1.278h-.227v-.992h.247c.984-.028 1.738-.286 2.265-.77.535-.5.824-1.29.86-2.363zm-1.835 0c.402 0 .77-.121 1.105-.36.34-.25.59-.554.75-.918v-.488c0-.773-.176-1.406-.523-1.89-.34-.489-.762-.735-1.274-.735-.523 0-.949.2-1.273.602-.313.398-.469.925-.469 1.574 0 .648.148 1.18.45 1.594.312.41.722.617 1.234.617zm0 0" fill="#666"/><path d="M609.293 160.629c0-.664.535-1.2 1.2-1.2h11.98c.664 0 1.199.536 1.199 1.2v11.992a1.2 1.2 0 0 1-1.2 1.203h-11.98a1.2 1.2 0 0 1-1.199-1.203zm0 0" fill="#9fc5e8"/><path d="M641.555 171.422H640.3l-4.719-7.234v7.234h-1.234v-9.387h1.234l4.738 7.27v-7.27h1.235zm1.87-3.54c0-.687.134-1.3.395-1.839a3.13 3.13 0 0 1 1.121-1.273 3.084 3.084 0 0 1 1.649-.45c.95 0 1.719.332 2.305.993.585.648.878 1.523.878 2.625v.074c0 .675-.132 1.289-.394 1.836a2.972 2.972 0 0 1-1.121 1.257c-.477.297-1.024.45-1.649.45-.949 0-1.714-.325-2.3-.973-.59-.664-.883-1.539-.883-2.625zm1.2.13c0 .773.18 1.398.543 1.875.363.46.844.695 1.441.695.602 0 1.075-.238 1.422-.715.364-.472.543-1.137.543-1.984 0-.778-.18-1.403-.543-1.875a1.714 1.714 0 0 0-1.441-.715c-.586 0-1.059.238-1.422.715-.363.46-.543 1.129-.543 2.004zm6.027-.133c0-1.074.25-1.934.75-2.586.512-.648 1.172-.973 1.985-.973.824 0 1.472.282 1.949.844v-3.637h1.2v9.895h-1.106l-.059-.75c-.473.59-1.137.883-1.984.883-.813 0-1.473-.332-1.985-.993-.5-.664-.75-1.527-.75-2.585zm1.18.133c0 .789.164 1.406.488 1.855.336.45.793.676 1.367.676.747 0 1.297-.34 1.649-1.012v-3.207c-.363-.66-.914-.992-1.649-.992-.574 0-1.03.227-1.367.676-.324.449-.488 1.117-.488 2.004zm9.176 3.543c-.938 0-1.703-.309-2.305-.918-.586-.625-.879-1.461-.879-2.512v-.207c0-.7.133-1.316.395-1.856.261-.55.629-.976 1.105-1.273a2.764 2.764 0 0 1 1.555-.469c.898 0 1.598.301 2.094.899.511.601.77 1.457.77 2.566v.488h-4.72c.012.688.207 1.247.579 1.668.39.426.882.641 1.48.641.426 0 .781-.09 1.066-.266.29-.175.547-.398.77-.675l.73.566c-.586.898-1.468 1.348-2.64 1.348zm-.133-6.262c-.484 0-.89.176-1.215.527-.324.348-.523.844-.597 1.48h3.48v-.093c-.035-.602-.203-1.07-.504-1.406-.289-.34-.676-.508-1.164-.508zm4.477 5.512c0-.215.054-.387.168-.524.125-.136.308-.207.543-.207.25 0 .437.07.562.207a.706.706 0 0 1 .207.524c0 .187-.07.347-.207.488-.125.137-.313.203-.563.203-.234 0-.417-.066-.542-.203a.771.771 0 0 1-.168-.488zm4.793-6.356v7.781c0 1.336-.606 2.004-1.817 2.004-.262 0-.504-.039-.73-.113v-.953c.136.035.32.055.543.055.265 0 .464-.075.601-.227.137-.137.203-.387.203-.75v-7.797zm-1.31-1.855a.67.67 0 0 1 .169-.465c.125-.14.297-.207.523-.207.223 0 .399.066.524.207a.653.653 0 0 1 .187.484.636.636 0 0 1-.187.469c-.125.125-.305.188-.543.188-.223 0-.39-.063-.504-.188a.694.694 0 0 1-.168-.488zm7.731 6.972a.847.847 0 0 0-.375-.73c-.234-.188-.66-.344-1.27-.469-.6-.137-1.073-.293-1.425-.465-.348-.175-.61-.39-.785-.64a1.524 1.524 0 0 1-.262-.899c0-.574.242-1.054.73-1.445.485-.398 1.106-.598 1.852-.598.79 0 1.426.207 1.91.618.5.398.75.917.75 1.554h-1.199c0-.324-.137-.605-.41-.844-.277-.234-.625-.355-1.05-.355-.434 0-.778.102-1.028.3a.888.888 0 0 0-.356.731c0 .29.11.508.336.656.223.137.637.274 1.235.415.601.136 1.082.3 1.441.488.375.172.653.39.824.652.176.266.262.582.262.957 0 .625-.25 1.125-.746 1.5-.488.375-1.133.563-1.93.563-.562 0-1.054-.098-1.48-.301a2.507 2.507 0 0 1-1.008-.824 1.996 1.996 0 0 1-.36-1.145h1.18c.028.387.188.703.489.938.3.238.691.359 1.18.359.449 0 .812-.09 1.085-.266.274-.187.41-.437.41-.75zm10.524 1.856h-1.2v-7.945l-2.413.878v-1.085l3.425-1.274h.188zm9.137-3.992c0 1.386-.235 2.425-.711 3.113-.473.672-1.22 1.012-2.227 1.012-1 0-1.742-.332-2.23-.993-.473-.664-.715-1.656-.73-2.98v-1.594c0-1.375.237-2.394.714-3.054.473-.676 1.215-1.012 2.227-1.012 1.011 0 1.753.324 2.226.973.477.636.719 1.632.73 2.98zm-1.176-1.63c0-1.01-.145-1.75-.434-2.21-.289-.465-.738-.695-1.347-.695-.598 0-1.043.23-1.332.695-.274.45-.415 1.156-.43 2.117v1.89c0 1.028.144 1.782.433 2.27.297.477.746.715 1.348.715.586 0 1.024-.227 1.309-.676.289-.465.437-1.183.449-2.156zM23.164 42.118c0-2.375.531-4.262 1.594-5.66 1.058-1.414 2.515-2.117 4.363-2.117 1.473 0 2.688.555 3.649 1.664v-7.758h4.082v21.59h-3.668l-.188-1.61c-1.012 1.262-2.316 1.891-3.914 1.891-1.785 0-3.223-.703-4.305-2.117-1.074-1.41-1.613-3.371-1.613-5.883zm4.047.297c0 1.426.25 2.52.746 3.281.5.75 1.227 1.125 2.176 1.125 1.246 0 2.125-.523 2.637-1.574V39.23c-.497-1.05-1.372-1.574-2.622-1.574-1.96 0-2.937 1.586-2.937 4.758zm12.73-.316c0-1.512.29-2.856.864-4.032.586-1.187 1.422-2.105 2.508-2.754 1.085-.648 2.355-.972 3.8-.972 2.047 0 3.719.629 5.02 1.89 1.297 1.25 2.02 2.958 2.172 5.118l.015 1.03c0 2.337-.648 4.212-1.945 5.622-1.3 1.414-3.047 2.117-5.242 2.117-2.184 0-3.934-.699-5.242-2.097-1.301-1.41-1.95-3.329-1.95-5.754zm4.043.28c0 1.45.27 2.556.809 3.317.547.762 1.328 1.145 2.34 1.145.984 0 1.754-.375 2.3-1.125.563-.762.844-1.969.844-3.617 0-1.426-.28-2.524-.843-3.297-.547-.778-1.32-1.164-2.32-1.164-1 0-1.774.386-2.321 1.164-.54.773-.809 1.965-.809 3.578zm19.137-3.206l2.566-4.55h4.344l-4.324 7.456 4.492 7.758h-4.344l-2.714-4.777-2.696 4.777h-4.363l4.512-7.758-4.324-7.46h4.363zm22.3 3.207c0 2.437-.523 4.336-1.57 5.695-1.038 1.364-2.484 2.043-4.347 2.043-1.645 0-2.965-.629-3.95-1.89l-.187 1.609h-3.652v-21.59h4.062v7.742c.938-1.101 2.168-1.648 3.692-1.648 1.86 0 3.312.687 4.363 2.058 1.059 1.364 1.59 3.282 1.59 5.754zm-4.062-.3c0-1.536-.242-2.657-.73-3.356-.488-.711-1.211-1.067-2.172-1.067-1.297 0-2.191.524-2.676 1.574v6.016c.496 1.063 1.395 1.594 2.696 1.594 1.308 0 2.171-.645 2.582-1.934.203-.62.3-1.566.3-2.828zm14.137 8.038c-2.234 0-4.05-.68-5.45-2.043-1.398-1.375-2.097-3.195-2.097-5.469v-.394c0-1.54.293-2.906.88-4.106.6-1.199 1.437-2.125 2.51-2.773 1.087-.664 2.321-.992 3.708-.992 2.07 0 3.707.652 4.906 1.965 1.195 1.312 1.797 3.175 1.797 5.586v1.668h-9.68c.125.988.516 1.78 1.18 2.379.66.601 1.496.902 2.508.902 1.558 0 2.785-.57 3.672-1.707l1.984 2.25c-.602.863-1.426 1.535-2.473 2.023-1.035.477-2.183.711-3.445.711zm-.469-12.48c-.797 0-1.453.273-1.965.824-.5.539-.82 1.312-.953 2.324h5.653v-.32c-.024-.899-.274-1.59-.75-2.078-.461-.5-1.121-.75-1.985-.75zm16.047 12.48c-2.234 0-4.05-.68-5.449-2.043-1.398-1.375-2.098-3.195-2.098-5.469v-.394c0-1.54.293-2.906.883-4.106.598-1.199 1.434-2.125 2.508-2.773 1.086-.664 2.32-.992 3.707-.992 2.07 0 3.707.652 4.906 1.965 1.196 1.312 1.797 3.175 1.797 5.586v1.668h-9.68c.125.988.516 1.78 1.18 2.379.66.601 1.496.902 2.508.902 1.559 0 2.785-.57 3.672-1.707l1.984 2.25c-.601.863-1.426 1.535-2.472 2.023-1.036.477-2.184.711-3.446.711zm-.469-12.48c-.796 0-1.453.273-1.964.824-.5.539-.817 1.312-.954 2.324h5.653v-.32c-.024-.899-.274-1.59-.75-2.078-.461-.5-1.121-.75-1.985-.75zm29.942 4.742c0 2.437-.527 4.336-1.574 5.695-1.036 1.364-2.485 2.043-4.344 2.043-1.649 0-2.965-.629-3.95-1.89l-.187 1.609h-3.652v-21.59h4.062v7.742c.938-1.101 2.168-1.648 3.692-1.648 1.86 0 3.312.687 4.36 2.058 1.062 1.364 1.593 3.282 1.593 5.754zm-4.063-.3c0-1.536-.246-2.657-.73-3.356-.488-.711-1.211-1.067-2.172-1.067-1.3 0-2.191.524-2.68 1.574v6.016c.5 1.063 1.399 1.594 2.7 1.594 1.308 0 2.168-.645 2.582-1.934.199-.62.3-1.566.3-2.828zm14.137 8.038c-2.234 0-4.05-.68-5.45-2.043-1.398-1.375-2.097-3.195-2.097-5.469v-.394c0-1.54.293-2.906.88-4.106.597-1.199 1.437-2.125 2.507-2.773 1.09-.664 2.324-.992 3.71-.992 2.071 0 3.704.652 4.903 1.965 1.2 1.312 1.797 3.175 1.797 5.586v1.668h-9.68c.125.988.52 1.78 1.18 2.379.664.601 1.5.902 2.512.902 1.558 0 2.781-.57 3.668-1.707l1.984 2.25c-.597.863-1.422 1.535-2.469 2.023-1.039.477-2.187.711-3.445.711zm-.469-12.48c-.8 0-1.457.273-1.964.824-.5.539-.82 1.312-.958 2.324h5.653v-.32c-.024-.899-.274-1.59-.746-2.078-.461-.5-1.125-.75-1.985-.75zm12.79-3.02l.128 1.766c1.086-1.363 2.54-2.043 4.364-2.043 1.609 0 2.808.472 3.593 1.422.79.949 1.188 2.367 1.2 4.258v9.816h-4.043V40.11c0-.859-.188-1.484-.563-1.87-.375-.391-1-.583-1.871-.583-1.148 0-2.004.489-2.566 1.461v10.719h-4.063v-15.22zm18.16 12.223c.75 0 1.355-.207 1.816-.621.477-.41.719-.961.73-1.649h3.82a5.204 5.204 0 0 1-.863 2.848c-.546.852-1.304 1.516-2.265 1.988-.95.477-2 .711-3.164.711-2.172 0-3.887-.687-5.149-2.058-1.246-1.387-1.87-3.301-1.87-5.739v-.277c0-2.34.616-4.207 1.85-5.605 1.25-1.399 2.962-2.098 5.134-2.098 1.894 0 3.418.543 4.566 1.629 1.148 1.086 1.734 2.531 1.762 4.328h-3.82c-.012-.785-.258-1.422-.731-1.91-.461-.5-1.078-.75-1.852-.75-.937 0-1.648.343-2.136 1.031-.489.687-.73 1.805-.73 3.355v.41c0 1.575.238 2.708.71 3.395.488.672 1.219 1.012 2.192 1.012zm13.218-10.55c1.075-1.302 2.43-1.95 4.063-1.95 3.297 0 4.965 1.918 5 5.754v9.742h-4.043v-9.633c0-.875-.188-1.516-.563-1.93-.375-.41-1-.617-1.87-.617-1.188 0-2.052.457-2.587 1.367v10.813h-4.062v-21.59h4.062zm15.43-1.669l.113 1.703c1.086-1.324 2.547-1.984 4.38-1.984 1.948 0 3.288.773 4.027 2.324 1.062-1.55 2.582-2.324 4.566-2.324 1.648 0 2.871.48 3.672 1.441.812.961 1.215 2.41 1.215 4.348v9.707h-4.082V40.13c0-.863-.168-1.484-.504-1.875-.336-.399-.93-.598-1.778-.598-1.222 0-2.066.582-2.53 1.742l.019 10.438h-4.063v-9.688c0-.875-.172-1.503-.523-1.894-.352-.399-.938-.598-1.762-.598-1.16 0-1.996.473-2.508 1.422v10.758h-4.062v-15.22zm30.164 15.215c-.187-.36-.324-.816-.41-1.367-.988 1.101-2.27 1.648-3.84 1.648-1.484 0-2.723-.43-3.707-1.293-.977-.86-1.46-1.949-1.46-3.261 0-1.61.589-2.848 1.776-3.708 1.2-.863 2.93-1.3 5.188-1.312h1.871v-.863c0-.711-.18-1.274-.543-1.688-.36-.426-.93-.637-1.703-.637-.688 0-1.223.165-1.61.489-.386.324-.581.773-.581 1.347h-4.063c0-.875.27-1.687.805-2.433.55-.75 1.32-1.34 2.304-1.762 1-.437 2.118-.656 3.352-.656 1.871 0 3.36.472 4.457 1.422 1.098.937 1.648 2.261 1.648 3.972v6.578c.012 1.45.215 2.543.618 3.282v.242zm-3.371-2.828c.602 0 1.148-.133 1.648-.395.512-.273.891-.636 1.141-1.086v-2.605h-1.516c-2.035 0-3.113.7-3.238 2.098l-.02.246c0 .511.176.93.524 1.254.363.324.852.488 1.461.488zm18.668-8.567a11.088 11.088 0 0 0-1.461-.113c-1.535 0-2.54.52-3.012 1.559v9.949h-4.066v-15.22h3.84l.113 1.82c.809-1.398 1.941-2.097 3.387-2.097.449 0 .867.062 1.258.183zm7.77 5.286l-1.458 1.464v4.645h-4.066v-21.59h4.063v11.957l.789-1.012 3.894-4.574h4.867l-5.484 6.356 5.973 8.863h-4.664zm0 0" fill="#666"/></svg>