<svg viewBox="0 0 706.879 470.457" fill="none" stroke-linecap="square" stroke-miterlimit="10" xmlns="http://www.w3.org/2000/svg"><clipPath id="a"><path d="M0 0h706.88v470.457H0V0z"/></clipPath><g clip-path="url(#a)"><path d="M0 0h706.88v470.457H0z"/><path fill="#ff9800" d="M378.704 182.067h223.45v85.524c-111.725 0-111.725 32.586-223.45 14.07z" fill-rule="evenodd"/><path stroke="#85200c" stroke-linejoin="round" stroke-linecap="butt" d="M378.704 182.067h223.45v85.524c-111.725 0-111.725 32.586-223.45 14.07z"/><path fill="#f3f3f3" d="M448.302 221.046q-1.734 0-2.812-.703-1.063-.72-1.5-1.844l2.187-.953q.297.672.844 1.015.547.344 1.281.344.672 0 1.11-.219.453-.218.453-.703 0-.469-.407-.687-.406-.235-1.234-.422l-1.11-.25q-1.156-.281-1.921-1.016-.766-.734-.766-1.844 0-.812.485-1.468.5-.656 1.343-1 .86-.36 1.875-.36 2.953 0 3.938 2.063l-2.078.922q-.563-1-1.797-1-.64 0-1.016.234-.36.219-.36.578 0 .672 1.266 1.016l1.391.328q1.422.36 2.14 1.094.72.719.72 1.781 0 .906-.532 1.61-.531.702-1.453 1.093-.922.39-2.047.39zm10.359 0q-1.484 0-2.64-.656-1.157-.672-1.797-1.813-.641-1.156-.641-2.578t.64-2.578q.641-1.156 1.797-1.813 1.157-.672 2.641-.672 1.453 0 2.61.672 1.156.656 1.796 1.813.64 1.156.64 2.578t-.64 2.578q-.64 1.14-1.797 1.813-1.156.656-2.609.656zm0-2.25q.703 0 1.297-.328.61-.344.953-.985.36-.64.36-1.484t-.36-1.469q-.344-.64-.953-.969-.594-.343-1.297-.343-.719 0-1.312.343-.594.328-.97.97-.359.624-.359 1.468 0 .828.36 1.484.375.64.969.985.593.328 1.312.328zm6.911-7.563h2.297v1.188h.156q.438-.688 1.188-1.078.765-.407 1.703-.407 1 0 1.75.485.75.469 1.062 1.187.47-.734 1.282-1.203.812-.469 1.906-.469 1.625 0 2.469 1 .859 1 .859 2.688v6.125h-2.422v-5.672q0-.89-.422-1.375-.422-.484-1.172-.484-.953 0-1.53.75-.563.75-.563 1.984v4.797h-2.438v-5.672q0-.89-.437-1.375-.438-.484-1.235-.484-.906 0-1.453.75t-.547 1.984v4.797h-2.453v-9.516zm21.465 9.813q-1.422 0-2.563-.64-1.14-.657-1.781-1.798-.64-1.156-.64-2.594 0-1.359.624-2.53.641-1.173 1.75-1.86 1.125-.688 2.516-.688 1.469 0 2.531.641 1.063.625 1.61 1.734.562 1.094.562 2.438 0 .422-.062.828h-7.141q.187 1.125.906 1.719.719.594 1.719.594.844 0 1.453-.36.61-.375.953-.984l1.985.969q-1.454 2.53-4.422 2.53zm2.25-6.203q-.032-.453-.328-.891-.282-.438-.797-.719-.516-.297-1.203-.297-.875 0-1.5.516-.625.5-.907 1.39h4.735zm3.17-3.61h2.75l1.64 6.172h.125l1.907-6.172h2.5l1.906 6.172h.125l1.64-6.172h2.704l-3.032 9.516h-2.64l-1.938-6.156h-.125l-1.922 6.156h-2.609l-3.031-9.516zm16.603-3.844h2.453v3.375l-.156 1.657h.156q.406-.672 1.187-1.078.782-.407 1.704-.407 1.734 0 2.656 1.032.922 1.03.922 2.875v5.906h-2.438v-5.61q0-.921-.5-1.421t-1.312-.5q-.969 0-1.594.78-.625.782-.625 1.923v4.828h-2.453v-13.36zm14.153 13.657q-1.516 0-2.485-.875-.968-.89-.968-2.328 0-.953.5-1.672.5-.735 1.375-1.125.89-.39 1.953-.39 1.469 0 2.515.421v-.406q0-.781-.593-1.266-.578-.484-1.578-.484-.672 0-1.297.312-.625.297-1.032.797l-1.562-1.234q.687-.89 1.734-1.375t2.266-.485q2.187 0 3.328 1.016 1.14 1 1.14 2.938v5.859h-2.406v-.969h-.156q-.422.563-1.125.922-.703.344-1.61.344zm.578-1.906q1.062 0 1.687-.672.625-.688.625-1.594-.953-.453-2-.453-1.906 0-1.906 1.422 0 .578.406.937.422.36 1.188.36zm11.107 1.765q-.703 0-1.297-.219-.594-.218-.969-.593-.875-.844-.875-2.391v-4.375h-1.672v-2.094h1.672v-2.687h2.438v2.687h2.328v2.094h-2.328v3.938q0 .718.312 1.046.266.297.906.297.344 0 .578-.094.235-.093.61-.328v2.391q-.797.328-1.703.328zm-108.587 22.141q-1.484 0-2.64-.656-1.157-.672-1.797-1.813-.641-1.156-.641-2.578t.64-2.578q.641-1.156 1.798-1.813 1.156-.672 2.64-.672 1.453 0 2.61.672 1.156.656 1.796 1.813.641 1.156.641 2.578t-.64 2.578q-.641 1.14-1.797 1.813-1.157.656-2.61.656zm0-2.25q.703 0 1.297-.328.61-.344.953-.985.36-.64.36-1.484t-.36-1.469q-.344-.64-.953-.969-.594-.343-1.297-.343-.719 0-1.312.343-.594.328-.97.97-.358.624-.358 1.468 0 .828.359 1.484.375.64.969.985.593.328 1.312.328zm6.849-7.563h2.297v1.156h.14q.39-.609 1.14-1.03.75-.423 1.72-.423 1.28 0 2.328.641 1.062.64 1.656 1.797.594 1.156.594 2.625t-.594 2.625q-.594 1.14-1.656 1.781-1.047.64-2.328.64-.97 0-1.735-.405-.75-.407-1.125-1.032h-.14l.14 1.344v3.828h-2.437v-13.547zm4.86 7.563q.687 0 1.28-.36.61-.359.953-.984.36-.64.36-1.453 0-.828-.36-1.453-.343-.64-.953-.985-.593-.343-1.28-.343-.673 0-1.267.343-.593.344-.953.985-.343.625-.343 1.453 0 .812.343 1.453.36.625.953.984.594.36 1.266.36zm11.04 2.11q-.703 0-1.297-.22-.593-.218-.968-.593-.875-.844-.875-2.391v-4.375h-1.672v-2.094h1.672v-2.687h2.437v2.687h2.328v2.094h-2.328v3.938q0 .718.313 1.046.265.297.906.297.344 0 .578-.094.234-.093.61-.328v2.391q-.797.328-1.704.328zm5.049-10.72q-.657 0-1.125-.468-.47-.47-.47-1.11 0-.656.47-1.11.468-.468 1.125-.468.656 0 1.109.469.453.453.453 1.11 0 .64-.453 1.109-.453.468-1.11.468zm-1.235 1.047h2.438v9.516h-2.438v-9.516zm4.974 0h2.297v1.188h.157q.437-.688 1.187-1.078.766-.407 1.703-.407 1 0 1.75.485.75.469 1.063 1.187.468-.734 1.281-1.203.812-.469 1.906-.469 1.625 0 2.469 1 .86 1 .86 2.688v6.125h-2.423v-5.672q0-.89-.421-1.375-.422-.484-1.172-.484-.953 0-1.532.75-.562.75-.562 1.984v4.797h-2.438v-5.672q0-.89-.437-1.375-.438-.484-1.234-.484-.907 0-1.454.75-.546.75-.546 1.984v4.797h-2.454v-9.516zm18.387-1.047q-.656 0-1.125-.468-.469-.47-.469-1.11 0-.656.469-1.11.469-.468 1.125-.468t1.11.469q.452.453.452 1.11 0 .64-.453 1.109-.453.468-1.11.468zM475 233.233h2.437v9.516H475v-9.516zm4.49 7.516l4.968-5.438h-4.812v-2.078h7.812v2l-4.953 5.438h5.11v2.078h-8.126v-2zm14.486 2.297q-1.422 0-2.563-.64-1.14-.657-1.78-1.798-.642-1.156-.642-2.594 0-1.359.625-2.53.641-1.173 1.75-1.86 1.125-.688 2.516-.688 1.469 0 2.531.641 1.063.625 1.61 1.734.562 1.094.562 2.438 0 .422-.062.828h-7.14q.187 1.125.905 1.719.72.594 1.72.594.843 0 1.452-.36.61-.375.953-.984l1.985.969q-1.453 2.53-4.422 2.53zm2.25-6.203q-.031-.453-.328-.891-.282-.438-.797-.719-.516-.297-1.203-.297-.875 0-1.5.516-.625.5-.907 1.39h4.735zm8.326 6.203q-1.281 0-2.344-.64-1.047-.642-1.656-1.782-.61-1.156-.61-2.625t.61-2.625q.61-1.156 1.656-1.797 1.063-.64 2.344-.64.969 0 1.719.421.75.422 1.14 1.031h.141l-.14-1.343v-3.656h2.421v13.359h-2.28v-1.14h-.142q-.375.624-1.14 1.03-.75.407-1.719.407zm.406-2.25q.688 0 1.282-.36.609-.359.953-.984.36-.64.36-1.453 0-.828-.36-1.453-.344-.64-.953-.985-.594-.343-1.282-.343-.672 0-1.265.343-.594.344-.953.985-.36.625-.36 1.453 0 .812.36 1.453.359.625.953.984.593.36 1.265.36zm6.085 1.953zm10.037.297q-1.437 0-2.578-.64-1.14-.642-1.781-1.798-.64-1.156-.64-2.61 0-1.468.64-2.608.64-1.141 1.781-1.797 1.14-.657 2.578-.657 1.578 0 2.72.688 1.14.672 1.64 1.922l-2.235.937q-.593-1.265-2.125-1.265-1.125 0-1.843.765-.72.766-.72 2.016 0 1.266.72 2.031.718.766 1.843.766 1.547 0 2.235-1.344l2.218.969q-.609 1.25-1.75 1.937-1.14.688-2.703.688zm10.769 0q-1.485 0-2.641-.656-1.156-.672-1.797-1.813-.64-1.156-.64-2.578t.64-2.578q.64-1.156 1.797-1.813 1.156-.672 2.64-.672 1.454 0 2.61.672 1.156.656 1.797 1.813.64 1.156.64 2.578t-.64 2.578q-.64 1.14-1.797 1.813-1.156.656-2.61.656zm0-2.25q.703 0 1.296-.328.61-.344.954-.985.359-.64.359-1.484t-.36-1.469q-.343-.64-.953-.969-.593-.343-1.296-.343-.72 0-1.313.343-.594.328-.969.97-.36.624-.36 1.468 0 .828.36 1.484.375.64.97.985.593.328 1.312.328zm11.004 2.25q-1.28 0-2.343-.64-1.047-.642-1.657-1.782-.609-1.156-.609-2.625t.61-2.625q.609-1.156 1.656-1.797 1.062-.64 2.343-.64.97 0 1.72.421.75.422 1.14 1.031h.14l-.14-1.343v-3.656h2.422v13.359h-2.282v-1.14h-.14q-.375.624-1.14 1.03-.75.407-1.72.407zm.407-2.25q.687 0 1.28-.36.61-.359.954-.984.36-.64.36-1.453 0-.828-.36-1.453-.344-.64-.953-.985-.594-.343-1.281-.343-.672 0-1.266.343-.594.344-.953.985-.36.625-.36 1.453 0 .812.36 1.453.36.625.953.984.594.36 1.266.36zm11.74 2.25q-1.421 0-2.562-.64-1.14-.657-1.781-1.798-.64-1.156-.64-2.594 0-1.359.624-2.53.64-1.173 1.75-1.86 1.125-.688 2.516-.688 1.468 0 2.531.641 1.062.625 1.61 1.734.562 1.094.562 2.438 0 .422-.063.828h-7.14q.187 1.125.906 1.719.719.594 1.719.594.843 0 1.453-.36.61-.375.953-.984l1.984.969q-1.453 2.53-4.422 2.53zm2.25-6.203q-.03-.453-.328-.891-.28-.438-.797-.719-.515-.297-1.203-.297-.875 0-1.5.516-.625.5-.906 1.39h4.734z"/><path fill="#ff9800" d="M97.917 206.953c0-7.851 6.364-14.215 14.215-14.215h149.774a14.215 14.215 0 0 1 14.215 14.215v56.86c0 7.851-6.364 14.216-14.215 14.216H112.132c-7.85 0-14.215-6.365-14.215-14.215z" fill-rule="evenodd"/><path stroke="#5b0f00" stroke-linejoin="round" stroke-linecap="butt" d="M97.917 206.953h0c0-7.851 6.364-14.215 14.215-14.215h149.774a14.215 14.215 0 0 1 14.215 14.215v56.86c0 7.851-6.364 14.216-14.215 14.216H112.132c-7.85 0-14.215-6.365-14.215-14.215z"/><path fill="#f3f3f3" d="M148.711 242.6q-1.75 0-3.093-.984-1.344-.985-1.891-2.797l2.375-.938q.281 1.063.953 1.703.672.625 1.672.625.844 0 1.437-.406.594-.422.594-1.172t-.578-1.218q-.562-.485-2.016-1.016l-.812-.313q-1.297-.437-2.219-1.359-.906-.922-.906-2.328 0-1.047.547-1.906.547-.86 1.531-1.344.984-.5 2.234-.5 1.813 0 2.86.86 1.047.843 1.437 1.968l-2.218.938q-.22-.61-.735-1.032-.5-.422-1.312-.422-.813 0-1.344.391-.531.375-.531.984 0 .61.5 1.032.5.406 1.656.797l.844.28q1.734.61 2.656 1.595.922.968.922 2.546 0 1.313-.672 2.22-.672.905-1.734 1.359-1.047.437-2.157.437zm8.005-10.86q-.657 0-1.125-.468-.47-.469-.47-1.11 0-.656.47-1.109.468-.469 1.125-.469.656 0 1.109.47.453.452.453 1.109 0 .64-.453 1.109t-1.11.469zm-1.235 1.048h2.438v9.515h-2.438v-9.515zm4.974 0h2.297v1.187h.156q.438-.687 1.188-1.078.766-.406 1.703-.406 1 0 1.75.484.75.469 1.063 1.188.468-.735 1.28-1.204.813-.468 1.907-.468 1.625 0 2.469 1 .86 1 .86 2.687v6.125h-2.423v-5.672q0-.89-.422-1.375-.421-.484-1.171-.484-.954 0-1.532.75-.562.75-.562 1.984v4.797h-2.438v-5.672q0-.89-.437-1.375-.438-.484-1.235-.484-.906 0-1.453.75t-.547 1.984v4.797h-2.453v-9.515zm16.934 0h2.297v1.156h.14q.39-.61 1.14-1.031.75-.422 1.72-.422 1.28 0 2.328.64 1.062.64 1.656 1.797.594 1.156.594 2.625t-.594 2.625q-.594 1.14-1.656 1.781-1.047.641-2.328.641-.97 0-1.735-.406-.75-.406-1.125-1.031h-.14l.14 1.343v3.828h-2.437v-13.546zm4.86 7.562q.687 0 1.28-.36.61-.359.953-.984.36-.64.36-1.453 0-.828-.36-1.453-.343-.64-.953-.984-.593-.344-1.28-.344-.673 0-1.267.344-.593.343-.953.984-.343.625-.343 1.453 0 .813.343 1.453.36.625.953.985.594.359 1.266.359zm6.9-11.406h2.453v13.36h-2.453v-13.36zm9.32 13.656q-1.423 0-2.563-.64-1.141-.657-1.782-1.797-.64-1.157-.64-2.594 0-1.36.625-2.531.64-1.172 1.75-1.86 1.125-.687 2.515-.687 1.47 0 2.532.64 1.062.625 1.609 1.735.562 1.093.562 2.437 0 .422-.062.828h-7.14q.187 1.125.906 1.72.718.593 1.718.593.844 0 1.453-.36.61-.375.954-.984l1.984.969q-1.453 2.531-4.422 2.531zm2.25-6.203q-.032-.453-.33-.89-.28-.438-.796-.72-.516-.296-1.203-.296-.875 0-1.5.515-.625.5-.906 1.39h4.734zm7.966 6.203q-1.578 0-2.766-.86-1.187-.874-1.656-2.359l2.313-.953q.25.875.78 1.328.548.453 1.329.453.86 0 1.344-.546.5-.563.5-1.579v-9.14h2.53v9.125q0 1.453-.577 2.469-.578 1.015-1.578 1.546-.985.516-2.22.516zm7.206-13.656h2.516v13.36h-2.516v-13.36zm8.263 2.39h-3.735v-2.39h9.985v2.39h-3.735v10.97h-2.515v-10.97z"/><path fill="#38761d" d="M99.462 53.759c0-6.866 5.566-12.43 12.43-12.43h161.345a12.43 12.43 0 0 1 12.43 12.43v49.721c0 6.865-5.565 12.43-12.43 12.43H111.893c-6.865 0-12.43-5.565-12.43-12.43z" fill-rule="evenodd"/><path stroke="#274e13" stroke-linejoin="round" stroke-linecap="butt" d="M99.462 53.759h0c0-6.866 5.566-12.43 12.43-12.43h161.345a12.43 12.43 0 0 1 12.43 12.43v49.721c0 6.865-5.565 12.43-12.43 12.43H111.893h0c-6.865 0-12.43-5.565-12.43-12.43z"/><path fill="#f3f3f3" d="M144.967 74.977q-.656 0-1.125-.469t-.469-1.11q0-.655.469-1.109.469-.468 1.125-.468t1.11.468q.453.454.453 1.11 0 .64-.454 1.11-.453.468-1.109.468zm-1.234 1.047h2.437v9.515h-2.437v-9.515zm4.974 0h2.297v1.187h.156q.422-.687 1.203-1.078.797-.406 1.703-.406 1.719 0 2.61 1.047.906 1.047.906 2.86v5.905h-2.453V79.93q0-.922-.469-1.422-.469-.5-1.297-.5-1 0-1.61.766-.593.765-.593 1.922v4.843h-2.453v-9.515zm15.316 9.672q-.704 0-1.297-.22-.594-.218-.97-.593-.874-.844-.874-2.39v-4.375h-1.672v-2.094h1.672v-2.688h2.437v2.688h2.329v2.094h-2.329v3.937q0 .719.313 1.047.266.297.906.297.344 0 .578-.094.235-.094.61-.328v2.39q-.797.329-1.703.329zm8.126.14q-1.422 0-2.563-.64-1.14-.657-1.78-1.797-.641-1.156-.641-2.594 0-1.36.625-2.531.64-1.172 1.75-1.86 1.125-.687 2.515-.687 1.469 0 2.531.64 1.063.626 1.61 1.735.562 1.094.562 2.437 0 .422-.062.829h-7.14q.187 1.125.905 1.718.72.594 1.72.594.843 0 1.452-.36.61-.374.953-.984l1.985.969q-1.453 2.531-4.422 2.531zm2.25-6.203q-.031-.453-.328-.89-.281-.438-.797-.72-.516-.296-1.203-.296-.875 0-1.5.516-.625.5-.906 1.39h4.734zm4.232-3.61h2.297v1.266h.157q.359-.671 1.093-1.109.75-.437 1.641-.437.656 0 1.203.203v2.453q-.5-.188-.86-.266-.343-.094-.734-.094-1.078 0-1.718.782-.625.78-.625 1.984v4.734h-2.454v-9.515zm7.904 0h2.297v1.157h.14q.391-.61 1.141-1.031.75-.422 1.72-.422 1.28 0 2.327.64 1.063.641 1.656 1.797.594 1.157.594 2.625 0 1.47-.594 2.625-.593 1.141-1.656 1.782-1.047.64-2.328.64-.969 0-1.734-.406-.75-.406-1.125-1.031h-.14l.14 1.344v3.828h-2.438V76.024zm4.86 7.563q.687 0 1.28-.36.61-.358.954-.983.36-.641.36-1.454 0-.828-.36-1.453-.344-.64-.953-.984-.594-.344-1.281-.344-.672 0-1.266.344t-.953.984q-.344.625-.344 1.453 0 .813.344 1.454.36.625.953.984.594.36 1.266.36zm6.9-7.562h2.297v1.265h.156q.36-.671 1.094-1.109.75-.437 1.64-.437.657 0 1.204.203v2.453q-.5-.188-.86-.266-.343-.094-.734-.094-1.078 0-1.719.782-.625.78-.625 1.984v4.734h-2.453v-9.515zm12.435 9.812q-1.422 0-2.562-.64-1.141-.657-1.782-1.797-.64-1.156-.64-2.594 0-1.36.625-2.531.64-1.172 1.75-1.86 1.125-.687 2.515-.687 1.47 0 2.532.64 1.062.626 1.609 1.735.562 1.094.562 2.437 0 .422-.062.829h-7.14q.187 1.125.906 1.718.718.594 1.718.594.844 0 1.453-.36.61-.374.954-.984l1.984.969q-1.453 2.531-4.422 2.531zm2.25-6.203q-.031-.453-.328-.89-.281-.438-.797-.72-.516-.296-1.203-.296-.875 0-1.5.516-.625.5-.906 1.39h4.734zm8.373 6.063q-.703 0-1.297-.22-.593-.218-.968-.593-.875-.844-.875-2.39v-4.375h-1.672v-2.094h1.672v-2.688h2.437v2.688h2.328v2.094h-2.328v3.937q0 .719.313 1.047.265.297.906.297.344 0 .578-.094.234-.094.61-.328v2.39q-.798.329-1.704.329zm8.127.14q-1.422 0-2.563-.64-1.14-.657-1.781-1.797-.64-1.156-.64-2.594 0-1.36.624-2.531.64-1.172 1.75-1.86 1.125-.687 2.516-.687 1.469 0 2.531.64 1.063.626 1.61 1.735.562 1.094.562 2.437 0 .422-.062.829h-7.141q.187 1.125.906 1.718.719.594 1.719.594.844 0 1.453-.36.61-.374.953-.984l1.985.969q-1.454 2.531-4.422 2.531zm2.25-6.203q-.032-.453-.328-.89-.282-.438-.797-.72-.516-.296-1.203-.296-.875 0-1.5.516-.625.5-.907 1.39h4.735zm4.232-3.61h2.297v1.266h.156q.36-.671 1.094-1.109.75-.437 1.64-.437.657 0 1.204.203v2.453q-.5-.188-.86-.266-.343-.094-.734-.094-1.078 0-1.719.782-.625.78-.625 1.984v4.734h-2.453v-9.515z"/><path fill="#6aa84f" d="M378.703 25.302h223.45v85.523c-111.725 0-111.725 32.586-223.45 14.072z" fill-rule="evenodd"/><path stroke="#38761d" stroke-linejoin="round" stroke-linecap="butt" d="M378.703 25.302h223.45v85.523c-111.725 0-111.725 32.586-223.45 14.072z"/><path fill="#fff" d="M453.832 75.28q-.984 0-1.734-.406t-1.125-1.031h-.157v1.14h-2.296V61.625h2.453v3.656l-.157 1.344h.157q.39-.61 1.125-1.031.75-.422 1.734-.422 1.281 0 2.328.64 1.063.641 1.656 1.798.594 1.156.594 2.625 0 1.468-.594 2.625-.593 1.14-1.656 1.78-1.047.641-2.328.641zm-.437-2.25q.687 0 1.28-.359.61-.36.954-.984.36-.64.36-1.453 0-.829-.36-1.454-.344-.64-.953-.984-.594-.344-1.281-.344-.672 0-1.266.344t-.953.984q-.36.625-.36 1.454 0 .812.36 1.453.36.625.953.984.594.36 1.266.36zm9.865 1.5l-4-9.062h2.766l2.469 5.922h.156l2.36-5.922h2.734l-5.89 13.547h-2.626l2.031-4.485zm11.956.61q-.704 0-1.297-.219-.594-.219-.97-.594-.874-.843-.874-2.39v-4.375h-1.672v-2.094h1.672V62.78h2.437v2.688h2.329v2.094h-2.329v3.937q0 .719.313 1.047.266.297.906.297.344 0 .578-.094.235-.094.61-.328v2.39q-.797.329-1.703.329zm8.126.14q-1.422 0-2.562-.64-1.141-.656-1.782-1.797-.64-1.156-.64-2.594 0-1.36.625-2.531.64-1.172 1.75-1.86 1.125-.687 2.515-.687 1.469 0 2.532.64 1.062.626 1.609 1.735.562 1.094.562 2.438 0 .421-.062.828h-7.14q.187 1.125.906 1.718.718.594 1.718.594.844 0 1.453-.36.61-.374.954-.984l1.984.97q-1.453 2.53-4.422 2.53zm2.25-6.203q-.031-.453-.328-.89-.281-.438-.797-.719-.516-.297-1.203-.297-.875 0-1.5.516-.625.5-.906 1.39h4.734zm8.717 6.203q-1.438 0-2.578-.64t-1.782-1.797q-.64-1.156-.64-2.61 0-1.468.64-2.609.641-1.14 1.782-1.797 1.14-.656 2.578-.656 1.578 0 2.719.688 1.14.671 1.64 1.921l-2.234.938q-.594-1.266-2.125-1.266-1.125 0-1.844.766-.719.766-.719 2.016 0 1.265.72 2.03.718.766 1.843.766 1.547 0 2.234-1.343l2.219.968q-.61 1.25-1.75 1.938-1.14.687-2.703.687zm10.768 0q-1.484 0-2.64-.656-1.157-.672-1.798-1.812-.64-1.157-.64-2.578 0-1.422.64-2.579.641-1.156 1.797-1.812 1.157-.672 2.641-.672 1.453 0 2.61.672 1.156.656 1.796 1.812.64 1.157.64 2.579 0 1.421-.64 2.578-.64 1.14-1.797 1.812-1.156.656-2.609.656zm0-2.25q.703 0 1.297-.328.61-.343.953-.984.36-.64.36-1.484t-.36-1.47q-.344-.64-.953-.968-.594-.344-1.297-.344-.719 0-1.313.344-.593.328-.968.969-.36.625-.36 1.469 0 .828.36 1.484.375.64.968.984.594.328 1.313.328zm11.005 2.25q-1.281 0-2.344-.64-1.047-.64-1.656-1.781-.61-1.157-.61-2.625 0-1.47.61-2.625.61-1.157 1.656-1.797 1.063-.64 2.344-.64.969 0 1.719.421.75.422 1.14 1.031h.14l-.14-1.344v-3.656h2.422v13.36h-2.281v-1.141h-.14q-.376.625-1.141 1.031-.75.406-1.72.406zm.406-2.25q.688 0 1.281-.359.61-.36.953-.984.36-.64.36-1.453 0-.829-.36-1.454-.343-.64-.953-.984-.593-.344-1.28-.344-.673 0-1.267.344-.593.344-.953.984-.359.625-.359 1.454 0 .812.36 1.453.359.625.952.984.594.36 1.266.36zm11.74 2.25q-1.42 0-2.562-.64-1.14-.656-1.78-1.797-.641-1.156-.641-2.594 0-1.36.625-2.531.64-1.172 1.75-1.86 1.125-.687 2.515-.687 1.469 0 2.531.64 1.063.626 1.61 1.735.562 1.094.562 2.438 0 .421-.062.828h-7.14q.187 1.125.905 1.718.72.594 1.72.594.843 0 1.452-.36.61-.374.953-.984l1.985.97q-1.453 2.53-4.422 2.53zm2.25-6.203q-.03-.453-.327-.89-.281-.438-.797-.719-.516-.297-1.203-.297-.875 0-1.5.516-.625.5-.906 1.39h4.734z"/><path d="M276.121 235.383h51.292v.063h51.291"/><path stroke="#666" stroke-width="2" stroke-linejoin="round" stroke-linecap="butt" d="M276.121 235.383h51.292v.063h39.291"/><path fill="#666" stroke="#666" stroke-width="2" stroke-linecap="butt" d="M366.704 238.75l9.076-3.304-9.076-3.303z" fill-rule="evenodd"/><path d="M285.667 78.62h46.518v.062h46.522"/><path stroke="#666" stroke-width="2" stroke-linejoin="round" stroke-linecap="butt" d="M285.667 78.62h46.518v.062h34.522"/><path fill="#666" stroke="#666" stroke-width="2" stroke-linecap="butt" d="M366.707 81.986l9.076-3.304-9.076-3.303z" fill-rule="evenodd"/><path d="M179.218 318.216L344.35 243.38l18.93 41.764-165.134 74.834z"/><path fill="#666" d="M241.303 316.87l-1.665.754.748 1.651-1.124.51-.749-1.651-1.65.748-.51-1.124 1.65-.748-.747-1.651 1.124-.51.748 1.651 1.665-.755.51 1.125zm1.542 1.788zm.61-6.246l1.195-.542.271.598.071-.032q.072-.41.36-.798.28-.401.793-.634.668-.303 1.364-.206.703.076 1.28.552.584.456.926 1.21.348.769.306 1.508-.028.733-.428 1.327-.393.572-1.062.875-.512.232-1.007.2-.481-.04-.829-.277l-.071.032.394.68.896 1.978-1.267.574-3.192-7.045zm4.313 2.78q.356-.161.585-.488.23-.327.266-.738.037-.411-.157-.838-.193-.427-.527-.67-.333-.244-.73-.287-.397-.043-.753.118-.356.161-.585.488-.215.32-.251.732-.037.41.156.838.194.427.527.67.334.244.716.293.397.043.753-.118zm1.815-5.557l1.196-.542.303.669.07-.032q.025-.44.306-.842.295-.408.75-.614.342-.155.672-.185l.58 1.281q-.315.023-.52.064-.19.035-.39.125-.568.258-.709.82-.146.546.137 1.172l1.116 2.462-1.266.574-2.245-4.952zm8.823 2.16q-.769.348-1.521.278-.76-.085-1.365-.514-.599-.45-.94-1.203-.336-.74-.28-1.487.071-.752.514-1.365.437-.626 1.205-.974.754-.342 1.513-.257.767.064 1.365.513.613.443.948 1.183.342.754.272 1.507-.063.732-.514 1.365-.443.612-1.197.954zm-.536-1.181q.37-.168.606-.48.236-.313.272-.724.03-.426-.17-.867t-.533-.684q-.333-.244-.724-.273-.396-.043-.767.125-.37.167-.599.494-.235.313-.272.724-.037.411.163.853.2.44.54.698.333.244.724.273.39.029.76-.139zm2.85-4.705l-.882.4-.497-1.096.882-.4-.122-.27q-.38-.84-.102-1.55.293-.716 1.104-1.083.47-.213.863-.254l.561 1.238q-.217.013-.379.034-.161.022-.346.106-.313.142-.429.417-.1.27.047.596l.084.185 1.21-.548.497 1.096-1.21.548 1.748 3.857-1.28.58-1.749-3.856zm3.452-3.537q-.342.154-.693.022-.352-.132-.507-.474-.154-.341-.016-.679.133-.351.474-.506.342-.155.68-.016.344.118.5.46.154.341.022.693-.118.345-.46.5zm-.395.83l1.266-.573 2.245 4.952-1.267.574-2.244-4.952zm1.695-3.17l1.266-.573 3.148 6.945-1.267.574-3.147-6.945zm3.893-.014q-.342.155-.693.023-.352-.132-.507-.474-.154-.341-.016-.679.132-.351.474-.506.342-.155.679-.016.345.118.5.46.155.34.022.692-.118.346-.46.5zm-.395.831l1.266-.574 2.245 4.953-1.267.574-2.244-4.953zm2.598-1.177l1.195-.542.284.626.071-.032q.066-.459.368-.853.316-.4.786-.613.896-.406 1.618-.064.714.328 1.14 1.267l1.393 3.074-1.28.58-1.323-2.917q-.22-.484-.577-.63-.365-.161-.806.039-.512.232-.645.772-.132.54.145 1.153l1.142 2.519-1.267.574-2.244-4.953zm11.355 3.534q-.94.426-1.76.283-.813-.129-1.297-.63l.976-1.026q.324.3.734.371.424.065.837-.122.598-.27.786-.802.188-.531-.115-1.2l-.18-.399-.072.033q-.094.437-.394.796-.293.338-.777.558-.612.277-1.28.202-.668-.074-1.254-.495-.577-.442-.926-1.21-.348-.769-.293-1.48.063-.732.448-1.283.378-.566.99-.844.484-.219.938-.202.461-.003.852.215l.07-.032-.238-.527 1.224-.555 2.09 4.611q.361.797.312 1.523-.048.725-.476 1.296-.427.571-1.195.92zm-1.528-3.407q.54-.245.743-.783.21-.558-.08-1.199-.303-.669-.855-.865-.538-.202-1.079.043-.54.245-.757.79-.202.537.1 1.206.298.655.835.857.552.196 1.093-.05zm3.662-.27zm5.089-2.118q-.67.304-1.373.228-.695-.097-1.28-.553-.583-.455-.932-1.224-.341-.754-.3-1.494.037-.754.429-1.326.4-.593 1.07-.896.497-.226.985-.172.495.032.836.255l.085-.038-.401-.66-.858-1.892 1.267-.574 3.148 6.945-1.182.535-.27-.597-.086.038q-.037.412-.338.806-.302.394-.8.62zm-.322-1.278q.356-.16.585-.488.23-.327.266-.738.036-.41-.157-.838-.194-.427-.527-.67-.333-.244-.73-.287-.397-.043-.753.118-.356.161-.585.488-.215.32-.252.732-.036.411.157.838.194.427.527.67.333.244.716.294.397.043.753-.119zm5.834-1.22q-.782.355-1.501.132-.711-.244-1.047-.984-.225-.498-.137-.984.096-.507.462-.913.358-.42.913-.671.769-.349 1.413-.366l-.097-.213q-.187-.413-.61-.513-.415-.12-.927.111-.356.162-.612.466-.257.305-.354.658l-1.102-.273q.15-.616.575-1.117.439-.508 1.079-.798 1.138-.516 1.96-.254.837.255 1.295 1.266l1.38 3.045-1.252.568-.226-.498-.085.039q-.085.381-.37.734-.287.352-.757.565zm-.152-1.131q.555-.252.727-.742.166-.504-.053-.988-.601-.002-1.142.243-.996.452-.66 1.192.135.299.432.387.297.088.696-.092zm6.2-1.712q-.37.168-.729.21-.365.028-.64-.087-.655-.235-1.017-1.032l-1.032-2.277-.868.393-.497-1.096.869-.393-.632-1.395 1.266-.574.632 1.395 1.21-.548.497 1.096-1.21.548.922 2.035q.174.384.423.477.199.099.526-.05.185-.083.28-.177.102-.115.25-.32l.56 1.239q-.341.343-.81.556zm3.455-1.463q-.783.355-1.502.131-.71-.243-1.046-.984-.226-.498-.137-.984.096-.507.46-.912.36-.42.915-.671.768-.349 1.412-.366l-.097-.214q-.187-.412-.61-.512-.414-.121-.927.111-.356.161-.612.466-.256.305-.354.658l-1.101-.273q.15-.616.574-1.118.439-.507 1.08-.798 1.138-.516 1.96-.253.836.255 1.294 1.266l1.38 3.045-1.252.568-.225-.498-.086.038q-.084.382-.37.734-.287.353-.756.566zm-.153-1.132q.555-.251.728-.741.166-.504-.054-.988-.6-.002-1.142.243-.996.451-.66 1.191.135.3.432.388.298.088.696-.093z"/><path fill="#ea4335" d="M378.704 338.832h223.45v85.524c-111.725 0-111.725 32.586-223.45 14.07z" fill-rule="evenodd"/><path stroke="#85200c" stroke-linejoin="round" stroke-linecap="butt" d="M378.704 338.832h223.45v85.524c-111.725 0-111.725 32.586-223.45 14.07z"/><path fill="#f3f3f3" d="M426.311 388.81q-1.484 0-2.64-.655-1.157-.672-1.797-1.813-.641-1.156-.641-2.578t.64-2.578q.641-1.156 1.798-1.813 1.156-.672 2.64-.672 1.453 0 2.61.672 1.156.657 1.796 1.813.641 1.156.641 2.578t-.64 2.578q-.641 1.14-1.797 1.813-1.157.656-2.61.656zm0-2.25q.703 0 1.297-.327.61-.344.953-.985.36-.64.36-1.484t-.36-1.469q-.344-.64-.953-.969-.594-.343-1.297-.343-.719 0-1.312.343-.594.329-.97.97-.358.624-.358 1.468 0 .828.359 1.484.375.64.969.985.593.328 1.312.328zm6.849-7.562h2.297v1.157h.14q.39-.61 1.14-1.032.75-.422 1.72-.422 1.28 0 2.328.641 1.062.64 1.656 1.797.594 1.156.594 2.625t-.594 2.625q-.594 1.14-1.656 1.781-1.047.64-2.328.64-.97 0-1.735-.405-.75-.407-1.125-1.032h-.14l.14 1.344v3.828h-2.437v-13.547zm4.86 7.563q.687 0 1.28-.36.61-.359.953-.984.36-.64.36-1.453 0-.828-.36-1.453-.343-.64-.953-.985-.593-.343-1.28-.343-.673 0-1.267.343-.593.344-.953.985-.343.625-.343 1.453 0 .812.343 1.453.36.625.953.984.594.36 1.266.36zm11.04 2.11q-.703 0-1.297-.22-.593-.218-.968-.593-.875-.844-.875-2.39v-4.376h-1.672v-2.094h1.672v-2.687h2.437v2.687h2.328v2.094h-2.328v3.938q0 .718.313 1.046.265.297.906.297.344 0 .578-.093.234-.094.61-.329v2.391q-.797.328-1.704.328zm5.049-10.72q-.657 0-1.125-.468-.47-.47-.47-1.11 0-.656.47-1.11.468-.468 1.125-.468.656 0 1.109.469.453.453.453 1.11 0 .64-.453 1.109-.453.468-1.11.468zm-1.235 1.047h2.438v9.516h-2.438v-9.516zm4.974 0h2.297v1.188h.157q.437-.688 1.187-1.078.766-.407 1.703-.407 1 0 1.75.485.75.469 1.063 1.187.468-.734 1.281-1.203.812-.469 1.906-.469 1.625 0 2.469 1 .86 1 .86 2.688v6.125h-2.423v-5.672q0-.89-.421-1.375-.422-.484-1.172-.484-.953 0-1.532.75-.562.75-.562 1.984v4.797h-2.438v-5.672q0-.89-.437-1.375-.438-.484-1.234-.484-.907 0-1.454.75-.546.75-.546 1.984v4.797h-2.454v-9.516zm18.387-1.047q-.656 0-1.125-.468-.469-.47-.469-1.11 0-.656.469-1.11.469-.468 1.125-.468t1.11.469q.452.453.452 1.11 0 .64-.453 1.109-.453.468-1.11.468zM475 378.998h2.437v9.516H475v-9.516zm4.49 7.516l4.968-5.438h-4.812v-2.078h7.812v2l-4.953 5.438h5.11v2.078h-8.126v-2zm14.486 2.297q-1.422 0-2.563-.64-1.14-.657-1.78-1.798-.642-1.156-.642-2.593 0-1.36.625-2.532.641-1.172 1.75-1.86 1.125-.687 2.516-.687 1.469 0 2.531.641 1.063.625 1.61 1.734.562 1.094.562 2.438 0 .422-.062.828h-7.14q.187 1.125.905 1.719.72.594 1.72.594.843 0 1.452-.36.61-.375.953-.984l1.985.969q-1.453 2.53-4.422 2.53zm2.25-6.203q-.031-.453-.328-.89-.282-.438-.797-.72-.516-.297-1.203-.297-.875 0-1.5.516-.625.5-.907 1.39h4.735zm8.326 6.203q-1.281 0-2.344-.64-1.047-.641-1.656-1.782-.61-1.156-.61-2.625t.61-2.625q.61-1.156 1.656-1.797 1.063-.64 2.344-.64.969 0 1.719.421.75.422 1.14 1.032h.141l-.14-1.344v-3.656h2.421v13.359h-2.28v-1.14h-.142q-.375.624-1.14 1.03-.75.407-1.719.407zm.406-2.25q.688 0 1.282-.36.609-.359.953-.984.36-.64.36-1.453 0-.828-.36-1.453-.344-.64-.953-.985-.594-.343-1.282-.343-.672 0-1.265.343-.594.344-.953.985-.36.625-.36 1.453 0 .812.36 1.453.359.625.953.984.593.36 1.265.36zm6.085 1.953zm10.037.297q-1.437 0-2.578-.64-1.14-.641-1.781-1.798-.64-1.156-.64-2.61 0-1.468.64-2.608.64-1.141 1.781-1.797 1.14-.657 2.578-.657 1.578 0 2.72.688 1.14.672 1.64 1.922l-2.235.937q-.593-1.265-2.125-1.265-1.125 0-1.843.765-.72.766-.72 2.016 0 1.266.72 2.031.718.766 1.843.766 1.547 0 2.235-1.344l2.218.969q-.609 1.25-1.75 1.937-1.14.688-2.703.688zm10.769 0q-1.485 0-2.641-.656-1.156-.672-1.797-1.813-.64-1.156-.64-2.578t.64-2.578q.64-1.156 1.797-1.813 1.156-.672 2.64-.672 1.454 0 2.61.672 1.156.657 1.797 1.813.64 1.156.64 2.578t-.64 2.578q-.64 1.14-1.797 1.813-1.156.656-2.61.656zm0-2.25q.703 0 1.296-.328.61-.344.954-.985.359-.64.359-1.484t-.36-1.469q-.343-.64-.953-.969-.593-.343-1.296-.343-.72 0-1.313.343-.594.329-.969.97-.36.624-.36 1.468 0 .828.36 1.484.375.64.97.985.593.328 1.312.328zm11.004 2.25q-1.28 0-2.343-.64-1.047-.641-1.657-1.782-.609-1.156-.609-2.625t.61-2.625q.609-1.156 1.656-1.797 1.062-.64 2.343-.64.97 0 1.72.421.75.422 1.14 1.032h.14l-.14-1.344v-3.656h2.422v13.359h-2.282v-1.14h-.14q-.375.624-1.14 1.03-.75.407-1.72.407zm.407-2.25q.687 0 1.28-.36.61-.359.954-.984.36-.64.36-1.453 0-.828-.36-1.453-.344-.64-.953-.985-.594-.343-1.281-.343-.672 0-1.266.343-.594.344-.953.985-.36.625-.36 1.453 0 .812.36 1.453.36.625.953.984.594.36 1.266.36zm11.74 2.25q-1.421 0-2.562-.64-1.14-.657-1.781-1.798-.64-1.156-.64-2.593 0-1.36.624-2.532.64-1.172 1.75-1.86 1.125-.687 2.516-.687 1.468 0 2.531.641 1.062.625 1.61 1.734.562 1.094.562 2.438 0 .422-.063.828h-7.14q.187 1.125.906 1.719.719.594 1.719.594.843 0 1.453-.36.61-.375.953-.984l1.984.969q-1.453 2.53-4.422 2.53zm2.25-6.203q-.03-.453-.328-.89-.28-.438-.797-.72-.515-.297-1.203-.297-.875 0-1.5.516-.625.5-.906 1.39h4.734z"/><path fill="#ea4335" d="M99.554 363.718c0-7.851 6.365-14.215 14.216-14.215h149.774a14.215 14.215 0 0 1 14.215 14.215v56.86c0 7.852-6.364 14.216-14.215 14.216H113.77c-7.851 0-14.216-6.364-14.216-14.215z" fill-rule="evenodd"/><path stroke="#5b0f00" stroke-linejoin="round" stroke-linecap="butt" d="M99.554 363.718h0c0-7.851 6.365-14.215 14.216-14.215h149.774a14.215 14.215 0 0 1 14.215 14.215v56.86c0 7.852-6.364 14.216-14.215 14.216H113.77c-7.851 0-14.216-6.364-14.216-14.215z"/><path fill="#f3f3f3" d="M160.842 385.709h8.469v2.39h-5.954v3.25h5.36v2.391h-5.36v5.328h-2.515v-13.36zm13.784 13.656q-1.72 0-2.61-1.062-.89-1.063-.89-2.97v-5.78h2.437v5.484q0 .969.469 1.531.469.547 1.234.547 1.047 0 1.656-.765.61-.766.61-1.954v-4.843h2.453v9.515h-2.297v-1.187h-.156q-.422.687-1.203 1.094-.766.39-1.703.39zm7.737-13.656h2.453v13.36h-2.453v-13.36zm4.85 0h2.454v13.36h-2.453v-13.36zm8.586 13.656q-1.578 0-2.766-.86-1.187-.874-1.656-2.359l2.312-.953q.25.875.782 1.328.547.454 1.328.454.86 0 1.344-.547.5-.563.5-1.578v-9.141h2.53v9.125q0 1.453-.577 2.469-.578 1.015-1.578 1.547-.985.515-2.22.515zm7.206-13.656h2.516v13.36h-2.516v-13.36zm8.263 2.39h-3.735v-2.39h9.985v2.39h-3.735v10.97h-2.515v-10.97z"/><path d="M409.05 286.76c-26.193 6.286-60.575 14.92-70.163 40.092-9.515 24.981 17.654 61.287-1.252 80.186-13.873 13.868-40.813-1.808-57.632-11.903"/><path stroke="#666" stroke-width="2" stroke-linejoin="round" stroke-linecap="butt" stroke-dasharray="8.0,6.0" d="M409.05 286.76c-26.193 6.286-60.575 14.92-70.163 40.092-9.515 24.981 17.654 61.287-1.252 80.186-6.937 6.934-17.14 6.482-27.711 3.035-5.286-1.724-10.664-4.197-15.771-6.87a184.866 184.866 0 0 1-3.775-2.032l-.003-.002"/><path fill="#666" stroke="#666" stroke-width="2" stroke-linecap="butt" d="M292.036 398.313l-9.506-1.708 6.184 7.42z" fill-rule="evenodd"/><path d="M496.126 126.387c-33.123 40.232-108.865 17.338-147.215 52.622-7.201 6.625-14.853 13.595-18.793 22.551-12.509 28.434 6.41 65.975-9.396 92.717-15.71 26.578-55.511 27.852-85.197 36.333-12.403 3.544-21.852 14.004-33.83 18.793"/><path stroke="#666" stroke-width="2" stroke-linejoin="round" stroke-linecap="butt" stroke-dasharray="8.0,6.0" d="M496.126 126.387c-33.123 40.232-108.865 17.338-147.215 52.622-7.201 6.625-14.853 13.595-18.793 22.551-12.509 28.434 6.41 65.975-9.396 92.717-15.71 26.578-55.511 27.852-85.197 36.333-6.202 1.772-11.665 5.273-17.074 8.93-1.353.914-2.702 1.838-4.058 2.747-.679.454-1.359.905-2.042 1.349l-.098.063"/><path fill="#666" stroke="#666" stroke-width="2" stroke-linecap="butt" d="M210.683 340.792l-6.415 7.221 9.555-1.408z" fill-rule="evenodd"/><path d="M236.31 400.856l181.26.094v45.858l-181.26-.094z"/><path fill="#666" d="M301.748 424.796l-1.36-.001v1.36l-.937-.001v-1.36h-1.36v-.922h1.36v-1.359h.938v1.36h1.359v.923zm.508 1.703zm2.356-4.077h.984v.5h.063q.172-.265.484-.437.328-.187.735-.187.547 0 1 .282.453.266.703.766.265.5.265 1.11 0 .64-.265 1.14-.25.484-.703.765-.453.266-1 .265-.407 0-.735-.172t-.484-.438h-.063l.063.579v1.64h-1.047v-5.813zm2.078 3.236q.297 0 .547-.14.266-.157.422-.422.156-.282.156-.641 0-.344-.156-.61-.156-.28-.422-.422-.25-.156-.547-.156-.281 0-.547.156-.25.14-.406.422-.14.265-.14.609 0 .36.14.64.156.266.406.423.266.14.547.14zm2.97-3.233h.984v.547h.062q.156-.297.469-.484.328-.187.703-.187.281 0 .516.094v1.047q-.22-.078-.375-.11-.141-.047-.313-.047-.453 0-.734.344-.266.328-.266.843v2.031h-1.047v-4.078zm5.368 4.206q-.64 0-1.14-.282-.485-.282-.766-.766-.281-.5-.281-1.125 0-.594.281-1.094.281-.5.766-.78.5-.282 1.14-.281.625 0 1.11.281.5.282.765.782.282.5.282 1.094 0 .625-.282 1.125-.265.484-.765.765-.485.281-1.11.28zm0-.97q.297.001.547-.14.266-.14.406-.405.157-.282.157-.657 0-.359-.157-.625-.14-.265-.406-.406-.25-.157-.547-.157-.312 0-.578.156-.25.14-.406.406-.14.266-.14.625 0 .36.14.64.156.282.406.423.266.14.578.14zm3.405-2.341h-.735v-.891h.735v-.218q0-.704.406-1.094.422-.406 1.094-.406.39 0 .672.094v1.016q-.157-.063-.282-.094-.11-.031-.265-.031-.266 0-.422.156-.156.156-.156.422v.156h1v.891h-1v3.187h-1.047v-3.188zm3.46-1.342q-.281 0-.485-.188-.203-.203-.203-.484 0-.281.203-.469.204-.203.485-.203t.469.204q.203.187.203.468 0 .282-.203.485-.188.187-.47.187zm-.531.453h1.046v4.079l-1.046-.001v-4.078zm2.137-1.655h1.047v5.735h-1.047v-5.735zm2.674 1.204q-.281 0-.485-.188-.203-.203-.203-.484 0-.281.203-.469.204-.203.485-.203t.469.204q.203.187.203.469 0 .281-.203.484-.188.187-.47.187zm-.531.453h1.046v4.079h-1.046v-4.079zm2.137.001h.984v.516h.063q.187-.296.516-.468.343-.172.734-.172.734 0 1.11.454.39.438.39 1.219v2.531h-1.047v-2.407q0-.39-.203-.609-.203-.219-.563-.219-.421 0-.687.328-.25.328-.25.828v2.078h-1.047v-4.079zm6.667 5.941q-.781 0-1.297-.36-.5-.344-.672-.828l.985-.406q.125.312.39.484.266.172.594.173.5 0 .781-.312.297-.297.297-.844v-.328h-.062q-.188.281-.5.421-.313.14-.72.14-.5 0-.937-.25-.437-.266-.703-.735-.265-.484-.265-1.125 0-.625.265-1.093.266-.485.703-.734.438-.266.938-.265.406 0 .719.14.312.141.5.423h.062v-.438h1.016v3.798q0 .656-.266 1.14-.25.484-.719.734-.468.265-1.109.265zm.016-2.812q.437 0 .75-.297.312-.312.312-.859 0-.547-.312-.844-.297-.297-.75-.297-.454 0-.766.312-.297.297-.297.828 0 .547.297.86.312.296.766.297zm2.585.954zm4.138.127q-.547 0-1-.266-.453-.281-.719-.766-.265-.5-.265-1.14 0-.61.265-1.11.266-.5.719-.765.453-.281 1-.28.422 0 .734.187.313.172.485.438h.062l-.062-.578v-1.578h1.047v5.734h-.985v-.484h-.062q-.157.265-.485.437-.312.172-.734.171zm.172-.968q.297 0 .547-.14.265-.157.406-.422.156-.282.156-.64 0-.345-.156-.61-.14-.282-.406-.422-.25-.157-.547-.157-.281 0-.547.156-.25.14-.406.422-.141.265-.141.609 0 .36.14.64.157.266.407.423.266.14.547.14zm4.376.97q-.656 0-1.078-.375-.407-.375-.407-1 0-.406.22-.719.218-.312.593-.468.375-.172.828-.172.625 0 1.078.173v-.172q0-.328-.25-.531-.25-.22-.672-.22-.297 0-.562.14-.266.126-.438.344l-.672-.531q.297-.39.735-.594.453-.203.984-.202.938 0 1.422.438.484.422.484 1.25v2.516h-1.03v-.423h-.063q-.188.25-.485.406-.297.14-.687.14zm.25-.812q.453 0 .719-.28.265-.297.265-.688-.406-.203-.86-.203-.812 0-.812.608 0 .25.172.407.188.156.516.156zm4.753.753q-.297 0-.562-.094-.25-.094-.406-.25-.375-.36-.375-1.016v-1.89l-.72-.001v-.89h.72v-1.157h1.046v1.157h1v.891h-1v1.687q0 .313.141.453.11.125.375.126.156 0 .25-.032.11-.046.266-.14v1.016q-.344.14-.735.14zm2.829.064q-.657 0-1.078-.376-.407-.375-.407-1 0-.406.22-.719.218-.312.593-.468.375-.172.828-.172.625 0 1.078.173v-.172q0-.328-.25-.531-.25-.22-.672-.22-.297 0-.562.14-.266.126-.438.344l-.672-.531q.297-.39.735-.594.453-.202.984-.202.938 0 1.422.438.484.422.484 1.25v2.516h-1.03v-.422h-.063q-.188.25-.485.405-.297.141-.687.14zm.25-.813q.453 0 .718-.28.266-.297.266-.688-.406-.203-.86-.203-.812 0-.812.609 0 .25.172.406.188.156.516.156z"/><path d="M602.154 392.155c12.5 0 24.992-78.386 25-156.772.007-78.386-12.469-156.771-24.938-156.771"/><path stroke="#ea4335" stroke-width="2" stroke-linejoin="round" stroke-linecap="butt" stroke-dasharray="8.0,6.0" d="M602.154 392.155c12.5 0 24.992-78.386 25-156.772.003-39.193-3.114-78.386-7.79-107.78-2.339-14.698-5.067-26.945-7.99-35.519a76.853 76.853 0 0 0-1.383-3.745l-.18-.437"/><path fill="#ea4335" stroke="#ea4335" stroke-width="2" stroke-linecap="butt" d="M612.369 85.811l-8.302-4.936 3.187 9.118z" fill-rule="evenodd"/><path d="M277.76 392.148h50.472v.063h50.472"/><path stroke="#666" stroke-width="2" stroke-linejoin="round" stroke-linecap="butt" d="M277.76 392.148h50.472v.063h38.472"/><path fill="#666" stroke="#666" stroke-width="2" stroke-linecap="butt" d="M366.704 395.515l9.076-3.304-9.076-3.303z" fill-rule="evenodd"/><path d="M697.762 23.65l.095 411.59h-47.685l-.095-411.59z"/><path fill="#ea4335" d="M666.131 177.496q0-1.47.734-2.672.734-1.203 2.047-1.907 1.312-.687 3-.687 1.671 0 2.984.687 1.328.704 2.063 1.907.735 1.203.735 2.672 0 1.109-.484 1.953-.469.86-1.172 1.312v.172l1.532-.172h4.172v2.781h-15.265l-.001-2.609h1.297v-.172q-.703-.422-1.172-1.297-.47-.86-.47-1.968zm2.579.468q0 .797.406 1.47.407.687 1.125 1.093.735.406 1.672.406.938 0 1.657-.406.734-.406 1.124-1.094.39-.672.39-1.469 0-.765-.39-1.453-.391-.672-1.126-1.078-.718-.406-1.656-.406-.937 0-1.672.406-.718.406-1.124 1.078-.407.688-.406 1.453zm-2.575 13.427q0-1.625.749-2.937.75-1.297 2.062-2.032 1.312-.734 2.953-.734 1.547 0 2.875.719 1.344.734 2.126 2.015.797 1.282.797 2.86 0 1.687-.734 2.89-.718 1.22-1.984 1.844-1.25.64-2.78.64-.5 0-.938-.062l-.002-8.172q-1.313.22-1.984 1.032-.656.828-.656 1.968 0 .97.407 1.657.422.687 1.125 1.093l-1.109 2.266q-2.907-1.656-2.907-5.047zm7.11 2.578q.5-.047 1-.375.515-.328.843-.922.328-.578.328-1.375 0-1-.594-1.718-.579-.703-1.579-1.032l.002 5.422zm-7.107 10.036q0-1.672.749-3 .765-1.329 2.077-2.063 1.313-.734 2.953-.734 1.625 0 2.938.734 1.328.734 2.079 2.063.766 1.328.766 3 0 1.671-.765 2.984-.75 1.328-2.078 2.062-1.312.735-2.937.735-1.64 0-2.953-.735-1.313-.734-2.079-2.062-.75-1.313-.75-2.984zm2.578 0q0 .812.375 1.5.39.687 1.11 1.093.734.407 1.718.407.97 0 1.688-.407.718-.406 1.093-1.093.39-.688.39-1.5 0-.797-.39-1.485-.376-.687-1.094-1.11-.72-.405-1.688-.405-.953 0-1.703.406-.734.422-1.125 1.11-.375.687-.374 1.484zm8.642 7.835v2.625h-1.312v.172q.703.438 1.172 1.297.485.86.485 1.969 0 1.468-.734 2.672-.734 1.203-2.062 1.875-1.312.687-2.984.687-1.687 0-3-.687-1.313-.672-2.047-1.875-.735-1.204-.735-2.672 0-1.11.468-1.985.469-.86 1.172-1.281v-.172l-1.532.172h-4.375v-2.797h15.484zm-8.64 5.563q0 .797.407 1.468.407.688 1.126 1.094.734.406 1.671.406.938 0 1.657-.406.734-.406 1.124-1.094.39-.671.39-1.468 0-.766-.39-1.453-.391-.672-1.125-1.079-.72-.406-1.657-.406t-1.672.406q-.718.407-1.124 1.079-.407.687-.406 1.453zm-2.403 12.622q0-.796.234-1.484.25-.687.688-1.11.953-1 2.718-1h5.016v-1.906h2.39v1.907h3.079v2.797h-3.078v2.656h-2.39v-2.656h-4.5q-.829 0-1.188.359-.344.297-.344 1.016 0 .406.11.671.11.266.36.704h-2.735q-.36-.922-.36-1.954zm12.252 5.76q0-.735.53-1.282.532-.531 1.282-.531.734 0 1.25.531.531.547.531 1.281 0 .75-.53 1.266-.516.531-1.25.531-.75 0-1.282-.531-.531-.516-.531-1.266zm-1.204-1.407v2.797H666.49v-2.797h10.874zm.001 5.694l.001 2.625h-1.36v.171q.782.516 1.235 1.375.47.875.47 1.938 0 1.14-.547 2-.546.86-1.374 1.219.859.53 1.39 1.453.532.937.532 2.187 0 1.86-1.14 2.828-1.14.97-3.078.97h-7v-2.766h6.484q1.016 0 1.562-.485.563-.484.563-1.328 0-1.094-.86-1.75-.86-.64-2.266-.64h-5.484v-2.797h6.484q1.015 0 1.562-.5.562-.5.562-1.422 0-1.016-.86-1.657-.86-.625-2.265-.625h-5.485v-2.796h10.874zm1.208 21.008q0-.735.531-1.282.532-.53 1.282-.53.734 0 1.25.53.531.547.531 1.282 0 .75-.53 1.265-.516.532-1.25.532-.75 0-1.282-.532-.531-.515-.532-1.265zm-1.203-1.407v2.797h-10.874l-.001-2.797h10.875zm-8.593 5.147l6.236 5.672-.001-5.5h2.36l.001 8.937h-2.28l-6.221-5.672.001 5.844h-2.375l-.002-9.281h2.281zm-2.62 16.555q-.001-1.625.749-2.938.75-1.296 2.062-2.03 1.312-.735 2.953-.735 1.546 0 2.875.719 1.344.734 2.125 2.015.797 1.281.798 2.86 0 1.687-.734 2.89-.718 1.219-1.984 1.844-1.25.64-2.781.64-.5 0-.938-.062l-.001-8.172q-1.313.219-1.985 1.031-.656.828-.655 1.97 0 .968.406 1.655.422.688 1.126 1.094l-1.11 2.266q-2.906-1.657-2.907-5.047zm7.11 2.578q.5-.047 1-.375.515-.328.843-.922.328-.578.327-1.375 0-1-.594-1.719-.578-.703-1.578-1.03l.001 5.421z"/><path d="M9.024 434.6l.094-409.071h45.795l-.094 409.07z"/><path fill="#34a853" d="M39.783 268.493q0 1.672-.75 3-.766 1.328-2.079 2.063-1.313.734-2.953.734-1.625 0-2.938-.734-1.327-.735-2.077-2.063-.766-1.328-.765-3 0-1.672.766-2.984.75-1.328 2.079-2.063 1.312-.734 2.937-.734 1.641 0 2.953.734 1.313.735 2.078 2.063.75 1.312.75 2.984zm-2.578 0q0-.812-.374-1.5-.39-.687-1.11-1.093-.734-.407-1.718-.407-.969 0-1.688.407-.719.406-1.094 1.093-.39.688-.39 1.5 0 .797.39 1.485.374.687 1.093 1.11.719.405 1.687.405.954 0 1.704-.406.734-.422 1.125-1.11.375-.687.375-1.484zm-8.639-7.835l.001-2.625h1.313v-.172q-.703-.438-1.172-1.297-.484-.86-.484-1.969 0-1.469.735-2.672t2.063-1.875q1.313-.687 2.985-.687 1.687 0 3 .687 1.312.672 2.046 1.875.734 1.203.734 2.672 0 1.11-.47 1.985-.469.859-1.172 1.28v.173l1.531-.172h4.375v2.797H28.566zm8.642-5.563q0-.797-.406-1.469-.406-.687-1.124-1.093-.735-.407-1.672-.407-.938 0-1.656.407-.735.406-1.126 1.093-.39.672-.39 1.47 0 .765.39 1.452.39.672 1.124 1.078.719.407 1.657.407.937 0 1.672-.407.718-.406 1.125-1.078.406-.687.406-1.453zm2.41-12.623q0 .797-.235 1.485-.25.687-.688 1.11-.953 1-2.719 1H30.96v1.905h-2.39v-1.906h-3.078v-2.797h3.078l.001-2.656h2.39v2.656h4.5q.828 0 1.188-.36.343-.296.344-1.015 0-.406-.11-.672-.109-.265-.359-.703h2.735q.359.922.359 1.953zm-12.25-5.759q0 .735-.53 1.282-.532.531-1.282.531-.734 0-1.25-.531-.531-.547-.53-1.282 0-.75.53-1.265.516-.531 1.25-.531.75 0 1.282.53.531.516.53 1.266zm1.204 1.407v-2.797h10.875v2.797H28.572zm.001-5.694v-2.625h1.36v-.172q-.781-.515-1.234-1.375-.469-.875-.468-1.937 0-1.14.547-2 .547-.86 1.375-1.219-.859-.531-1.39-1.453-.531-.937-.53-2.187 0-1.86 1.14-2.829 1.141-.968 3.079-.968h7v2.765h-6.485q-1.016 0-1.563.485-.562.484-.563 1.328 0 1.094.86 1.75.859.64 2.265.64h5.484v2.797h-6.485q-1.015 0-1.562.5-.563.5-.563 1.422 0 1.016.859 1.656.859.625 2.265.625h5.485l-.001 2.797H28.573zm-1.198-21.008q0 .735-.532 1.281-.531.532-1.281.532-.735 0-1.25-.532-.531-.546-.531-1.28 0-.75.531-1.266.516-.532 1.25-.532.75 0 1.282.532.53.515.53 1.265zm1.202 1.406l.001-2.796h10.875v2.796H28.576zm8.595-5.146l-6.233-5.672v5.5h-2.36l.002-8.937h2.281l6.217 5.671.002-5.843h2.375l-.002 9.281h-2.282zm2.63-16.555q-.001 1.625-.751 2.938-.75 1.296-2.063 2.03-1.313.735-2.954.735-1.547 0-2.875-.719-1.343-.734-2.124-2.015-.797-1.281-.796-2.86 0-1.687.735-2.89.719-1.219 1.985-1.844 1.25-.64 2.781-.64.5 0 .937.062l-.001 8.172q1.312-.219 1.984-1.031.657-.829.657-1.97 0-.968-.406-1.655-.422-.688-1.125-1.094l1.11-2.266q2.906 1.656 2.905 5.047zm-7.11-2.578q-.5.047-1 .375-.515.328-.844.922-.328.578-.328 1.375 0 1 .593 1.719.578.703 1.578 1.03l.001-5.421z"/><path d="M99.462 78.62c-13.272 0-26.352 39.188-26.545 78.377-.193 39.19 12.5 78.378 25.002 78.378"/><path stroke="#34a853" stroke-width="2" stroke-linejoin="round" stroke-linecap="butt" stroke-dasharray="8.0,6.0" d="M99.462 78.62c-13.272 0-26.352 39.188-26.545 78.377-.097 19.595 3.029 39.19 7.74 53.885 1.179 3.674 2.456 7.042 3.807 10.027a60.771 60.771 0 0 0 2.078 4.181 46.224 46.224 0 0 0 1.62 2.725l.2.304"/><path fill="#34a853" stroke="#34a853" stroke-width="2" stroke-linecap="butt" d="M86.364 230.75l9.226 2.857-5.231-8.119z" fill-rule="evenodd"/><path d="M97.917 235.383c-12.5 0-25.205 39.19-25 78.378.204 39.19 13.319 78.378 26.637 78.378"/><path stroke="#34a853" stroke-width="2" stroke-linejoin="round" stroke-linecap="butt" stroke-dasharray="8.0,6.0" d="M97.917 235.383c-12.5 0-25.205 39.19-25 78.378.102 19.595 3.432 39.19 8.4 53.885 1.243 3.674 2.588 7.042 4.01 10.027a59.452 59.452 0 0 0 2.189 4.18 45.524 45.524 0 0 0 1.706 2.725c.097.141.193.28.29.418l.199.28"/><path fill="#34a853" stroke="#34a853" stroke-width="2" stroke-linecap="butt" d="M87.822 387.986l9.334 2.48-5.556-7.9z" fill-rule="evenodd"/><path d="M99.462 78.62c-23.79 0-47.592 78.385-47.58 156.771.012 78.386 23.837 156.772 47.675 156.772"/><path stroke="#34a853" stroke-width="2" stroke-linejoin="round" stroke-linecap="butt" stroke-dasharray="8.0,6.0" d="M99.462 78.62c-23.79 0-47.592 78.385-47.58 156.771.006 39.193 5.965 78.386 14.903 107.78 4.469 14.698 9.682 26.946 15.268 35.52 1.396 2.142 2.816 4.056 4.253 5.721a36.095 36.095 0 0 0 2.169 2.309l.262.252"/><path fill="#34a853" stroke="#34a853" stroke-width="2" stroke-linecap="butt" d="M87.309 389.951l9.612.947-6.755-6.904z" fill-rule="evenodd"/></g></svg>