<svg viewBox="0 0 706.879 470.457" fill="none" stroke-linecap="square" stroke-miterlimit="10" xmlns="http://www.w3.org/2000/svg"><clipPath id="a"><path d="M0 0h706.88v470.457H0V0z"/></clipPath><g clip-path="url(#a)"><path d="M0 0h706.88v470.457H0z"/><path fill="#ff9800" d="M390.701 181.906h223.45v85.523c-111.725 0-111.725 32.586-223.45 14.071z" fill-rule="evenodd"/><path stroke="#85200c" stroke-linejoin="round" stroke-linecap="butt" d="M390.701 181.906h223.45v85.523c-111.725 0-111.725 32.586-223.45 14.071z"/><path fill="#f3f3f3" d="M460.3 220.884q-1.735 0-2.813-.703-1.062-.719-1.5-1.844l2.188-.953q.296.672.843 1.016.547.344 1.282.344.671 0 1.109-.22.453-.218.453-.702 0-.469-.406-.688-.406-.234-1.235-.422l-1.109-.25q-1.156-.28-1.922-1.015-.765-.735-.765-1.844 0-.812.484-1.469.5-.656 1.344-1 .859-.36 1.875-.36 2.953 0 3.937 2.063l-2.078.922q-.562-1-1.797-1-.64 0-1.015.235-.36.218-.36.578 0 .672 1.266 1.015l1.39.329q1.422.359 2.141 1.093.719.72.719 1.782 0 .906-.531 1.609-.532.703-1.454 1.094-.921.39-2.046.39zm10.358 0q-1.484 0-2.64-.656-1.156-.672-1.797-1.812-.64-1.157-.64-2.579 0-1.421.64-2.578.64-1.156 1.797-1.812 1.156-.672 2.64-.672 1.454 0 2.61.672 1.156.656 1.797 1.812.64 1.157.64 2.578 0 1.422-.64 2.579-.641 1.14-1.797 1.812-1.156.656-2.61.656zm0-2.25q.704 0 1.297-.328.61-.344.953-.984.36-.64.36-1.485 0-.843-.36-1.468-.343-.64-.953-.97-.593-.343-1.297-.343-.718 0-1.312.344-.594.328-.969.969-.36.625-.36 1.468 0 .829.36 1.485.375.64.969.984.594.328 1.312.328zm6.912-7.562h2.296v1.187h.157q.437-.687 1.187-1.078.766-.406 1.703-.406 1 0 1.75.484.75.47 1.063 1.188.469-.735 1.281-1.203.813-.47 1.906-.47 1.625 0 2.469 1 .86 1 .86 2.688v6.125h-2.422v-5.671q0-.891-.422-1.375-.422-.485-1.172-.485-.953 0-1.531.75-.563.75-.563 1.985v4.796h-2.437v-5.671q0-.891-.438-1.375-.437-.485-1.234-.485-.907 0-1.453.75-.547.75-.547 1.985v4.796h-2.453v-9.515zm21.464 9.812q-1.422 0-2.562-.64-1.141-.657-1.782-1.797-.64-1.156-.64-2.594 0-1.36.625-2.531.64-1.172 1.75-1.86 1.125-.687 2.515-.687 1.47 0 2.532.64 1.062.626 1.609 1.735.562 1.094.562 2.437 0 .422-.062.829h-7.14q.187 1.125.906 1.718.718.594 1.718.594.844 0 1.453-.36.61-.374.954-.984l1.984.97q-1.453 2.53-4.422 2.53zm2.25-6.203q-.031-.453-.328-.89-.281-.438-.797-.72-.516-.296-1.203-.296-.875 0-1.5.516-.625.5-.906 1.39h4.734zm3.17-3.61h2.75l1.64 6.173h.126l1.906-6.172h2.5l1.906 6.172h.125l1.64-6.172h2.704l-3.031 9.515h-2.64l-1.938-6.156h-.125l-1.922 6.156h-2.61l-3.03-9.515zm16.603-3.843h2.453v3.375l-.156 1.656h.156q.407-.672 1.188-1.078.781-.406 1.703-.406 1.734 0 2.656 1.031.922 1.031.922 2.875v5.906h-2.437v-5.609q0-.922-.5-1.422-.5-.5-1.313-.5-.969 0-1.594.781-.625.782-.625 1.922v4.828h-2.453v-13.359zm14.153 13.656q-1.515 0-2.484-.875-.969-.89-.969-2.328 0-.953.5-1.672.5-.734 1.375-1.125.89-.39 1.953-.39 1.469 0 2.516.422v-.407q0-.78-.594-1.265-.578-.485-1.578-.485-.672 0-1.297.313-.625.297-1.031.797l-1.563-1.235q.688-.89 1.735-1.375 1.047-.484 2.265-.484 2.188 0 3.328 1.016 1.141 1 1.141 2.937v5.86h-2.406v-.97h-.156q-.422.563-1.125.923-.704.343-1.61.343zm.578-1.906q1.063 0 1.688-.672.625-.687.625-1.594-.953-.453-2-.453-1.906 0-1.906 1.422 0 .578.406.938.422.36 1.187.36zm11.107 1.766q-.703 0-1.297-.22-.594-.218-.969-.593-.875-.844-.875-2.39v-4.375h-1.671v-2.094h1.671v-2.688h2.438v2.688h2.328v2.094h-2.328v3.937q0 .719.312 1.047.266.297.907.297.343 0 .578-.094.234-.094.61-.328v2.39q-.798.329-1.704.329zm-108.587 22.14q-1.484 0-2.64-.656-1.156-.672-1.797-1.812-.64-1.157-.64-2.579 0-1.421.64-2.578.64-1.156 1.797-1.812 1.156-.672 2.64-.672 1.454 0 2.61.672 1.156.656 1.797 1.812.64 1.157.64 2.578 0 1.422-.64 2.579-.64 1.14-1.797 1.812-1.156.656-2.61.656zm0-2.25q.704 0 1.297-.328.61-.344.953-.984.36-.64.36-1.485 0-.843-.36-1.468-.343-.64-.953-.97-.593-.343-1.297-.343-.718 0-1.312.344-.594.328-.969.969-.36.625-.36 1.468 0 .829.36 1.485.375.64.969.984.594.328 1.313.328zm6.85-7.562h2.296v1.156h.14q.391-.61 1.141-1.031.75-.422 1.719-.422 1.281 0 2.328.64 1.063.641 1.656 1.797.594 1.157.594 2.625 0 1.47-.594 2.625-.593 1.141-1.656 1.782-1.047.64-2.328.64-.969 0-1.734-.406-.75-.406-1.125-1.031h-.141l.14 1.344v3.828h-2.437v-13.547zm4.858 7.562q.688 0 1.282-.36.61-.358.953-.983.36-.641.36-1.454 0-.828-.36-1.453-.344-.64-.953-.984-.594-.344-1.282-.344-.671 0-1.265.344-.594.344-.953.984-.344.625-.344 1.453 0 .813.344 1.454.36.625.953.984.594.36 1.265.36zm11.042 2.11q-.703 0-1.297-.22-.594-.218-.969-.593-.875-.844-.875-2.39v-4.375h-1.672v-2.094h1.672v-2.688h2.438v2.688h2.328v2.094h-2.328v3.937q0 .719.312 1.047.266.297.906.297.344 0 .578-.094.235-.094.61-.328v2.39q-.797.329-1.703.329zm5.048-10.72q-.656 0-1.125-.468-.469-.469-.469-1.11 0-.655.469-1.109.469-.468 1.125-.468t1.11.468q.452.454.452 1.11 0 .64-.453 1.11-.453.468-1.109.468zm-1.234 1.048h2.437v9.515h-2.437v-9.515zm4.974 0h2.297v1.187h.156q.437-.687 1.187-1.078.766-.406 1.704-.406 1 0 1.75.484.75.47 1.062 1.188.469-.735 1.281-1.203.813-.47 1.907-.47 1.625 0 2.468 1 .86 1 .86 2.688v6.125h-2.422v-5.671q0-.891-.422-1.375-.422-.485-1.172-.485-.953 0-1.531.75-.563.75-.563 1.985v4.796h-2.437v-5.671q0-.891-.438-1.375-.437-.485-1.234-.485-.906 0-1.453.75t-.547 1.985v4.796h-2.453v-9.515zm18.386-1.047q-.656 0-1.125-.469-.468-.469-.468-1.11 0-.655.468-1.109.469-.468 1.125-.468.657 0 1.11.468.453.454.453 1.11 0 .64-.453 1.11-.453.468-1.11.468zm-1.234 1.047h2.437v9.515h-2.437v-9.515zm4.49 7.515l4.969-5.437h-4.813v-2.078h7.813v2l-4.954 5.437h5.11v2.078h-8.125v-2zm14.486 2.297q-1.422 0-2.562-.64-1.14-.657-1.782-1.797-.64-1.156-.64-2.594 0-1.36.625-2.531.64-1.172 1.75-1.86 1.125-.687 2.515-.687 1.47 0 2.532.64 1.062.626 1.61 1.735.562 1.094.562 2.437 0 .422-.063.829h-7.14q.187 1.125.906 1.718.718.594 1.718.594.844 0 1.454-.36.609-.374.953-.984l1.984.97q-1.453 2.53-4.422 2.53zm2.25-6.203q-.031-.453-.328-.89-.281-.438-.797-.72-.515-.296-1.203-.296-.875 0-1.5.516-.625.5-.906 1.39h4.734zm8.326 6.203q-1.28 0-2.343-.64-1.047-.64-1.657-1.782-.609-1.156-.609-2.625 0-1.468.61-2.625.609-1.156 1.656-1.796 1.062-.641 2.343-.641.97 0 1.72.422t1.14 1.031h.14l-.14-1.344v-3.656h2.422v13.36h-2.282v-1.141h-.14q-.375.625-1.14 1.031-.75.406-1.72.406zm.407-2.25q.687 0 1.281-.36.61-.358.953-.983.36-.641.36-1.454 0-.828-.36-1.453-.344-.64-.953-.984-.594-.344-1.281-.344-.672 0-1.266.344t-.953.984q-.36.625-.36 1.453 0 .813.36 1.454.36.625.953.984.594.36 1.266.36zm6.084 1.953zm10.038.297q-1.438 0-2.578-.64-1.141-.64-1.782-1.797-.64-1.156-.64-2.61 0-1.468.64-2.609.641-1.14 1.782-1.797 1.14-.656 2.578-.656 1.578 0 2.718.687 1.141.672 1.641 1.922l-2.234.938q-.594-1.266-2.125-1.266-1.125 0-1.844.766-.719.765-.719 2.015 0 1.266.719 2.032.719.765 1.844.765 1.547 0 2.234-1.343l2.219.968q-.61 1.25-1.75 1.938-1.14.687-2.703.687zm10.768 0q-1.484 0-2.64-.656-1.157-.672-1.798-1.812-.64-1.157-.64-2.579 0-1.421.64-2.578.641-1.156 1.797-1.812 1.157-.672 2.64-.672 1.454 0 2.61.672 1.157.656 1.797 1.812.64 1.157.64 2.578 0 1.422-.64 2.579-.64 1.14-1.797 1.812-1.156.656-2.61.656zm0-2.25q.703 0 1.297-.328.61-.344.953-.984.36-.64.36-1.485 0-.843-.36-1.468-.344-.64-.953-.97-.594-.343-1.297-.343-.719 0-1.313.344-.593.328-.968.969-.36.625-.36 1.468 0 .829.36 1.485.375.64.968.984.594.328 1.313.328zm11.005 2.25q-1.282 0-2.344-.64-1.047-.64-1.656-1.782-.61-1.156-.61-2.625 0-1.468.61-2.625.61-1.156 1.656-1.796 1.062-.641 2.344-.641.968 0 1.718.422t1.141 1.031h.14l-.14-1.344v-3.656h2.422v13.36h-2.281v-1.141h-.14q-.376.625-1.142 1.031-.75.406-1.718.406zm.406-2.25q.687 0 1.281-.36.61-.358.953-.983.36-.641.36-1.454 0-.828-.36-1.453-.343-.64-.953-.984-.594-.344-1.281-.344-.672 0-1.266.344-.593.344-.953.984-.36.625-.36 1.453 0 .813.36 1.454.36.625.953.984.594.36 1.266.36zm11.74 2.25q-1.421 0-2.562-.64-1.14-.657-1.78-1.797-.642-1.156-.642-2.594 0-1.36.625-2.531.641-1.172 1.75-1.86 1.125-.687 2.516-.687 1.469 0 2.531.64 1.063.626 1.61 1.735.562 1.094.562 2.437 0 .422-.062.829h-7.14q.187 1.125.905 1.718.72.594 1.72.594.843 0 1.452-.36.61-.374.953-.984l1.985.97q-1.453 2.53-4.422 2.53zm2.25-6.203q-.03-.453-.327-.89-.282-.438-.797-.72-.516-.296-1.203-.296-.875 0-1.5.516-.625.5-.907 1.39h4.735z"/><path fill="#ff9800" d="M109.914 206.791c0-7.85 6.364-14.215 14.215-14.215h149.775a14.215 14.215 0 0 1 14.215 14.215v56.861c0 7.851-6.365 14.215-14.215 14.215H124.129c-7.85 0-14.215-6.364-14.215-14.215z" fill-rule="evenodd"/><path stroke="#5b0f00" stroke-linejoin="round" stroke-linecap="butt" d="M109.914 206.791h0c0-7.85 6.364-14.215 14.215-14.215h149.775a14.215 14.215 0 0 1 14.215 14.215v56.861c0 7.851-6.365 14.215-14.215 14.215H124.129c-7.85 0-14.215-6.364-14.215-14.215z"/><path fill="#f3f3f3" d="M163.04 228.782h5.218q1.125 0 2.063.47.937.468 1.484 1.265.547.797.547 1.75 0 1.015-.5 1.75-.5.734-1.297 1.125v.156q1.047.375 1.656 1.188.625.812.625 1.937 0 1.11-.594 1.953-.578.844-1.578 1.313-1 .453-2.218.453h-5.407v-13.36zm5.03 5.454q.829 0 1.313-.454.5-.468.5-1.156 0-.672-.484-1.125-.47-.453-1.25-.453h-2.594v3.188h2.516zm.282 5.609q.922 0 1.422-.469.515-.484.515-1.25 0-.765-.515-1.25-.516-.484-1.5-.484h-2.72v3.453h2.798zm9.336 2.594q-1.516 0-2.484-.875-.97-.891-.97-2.328 0-.954.5-1.672.5-.735 1.376-1.125.89-.391 1.953-.391 1.469 0 2.516.422v-.406q0-.782-.594-1.266-.578-.484-1.578-.484-.672 0-1.297.312-.625.297-1.031.797l-1.563-1.234q.688-.891 1.735-1.375 1.046-.485 2.265-.485 2.188 0 3.328 1.016 1.14 1 1.14 2.937v5.86h-2.405v-.969h-.157q-.421.563-1.125.922-.703.344-1.609.344zm.578-1.907q1.063 0 1.688-.671.625-.688.625-1.594-.953-.453-2-.453-1.907 0-1.907 1.422 0 .578.407.937.422.36 1.187.36zm10.591 1.907q-1.734 0-2.812-.703-1.063-.72-1.5-1.844l2.187-.953q.297.672.844 1.015.547.344 1.281.344.672 0 1.11-.219.453-.218.453-.703 0-.469-.406-.687-.407-.235-1.235-.422l-1.11-.25q-1.155-.281-1.921-1.016-.766-.734-.766-1.844 0-.812.485-1.468.5-.657 1.343-1 .86-.36 1.875-.36 2.954 0 3.938 2.063l-2.078.922q-.563-1-1.797-1-.64 0-1.016.234-.36.219-.36.578 0 .672 1.267 1.016l1.39.328q1.422.36 2.14 1.094.72.718.72 1.78 0 .907-.532 1.61-.531.703-1.453 1.094-.922.39-2.047.39zm10.265 0q-1.421 0-2.562-.641-1.14-.656-1.781-1.797-.64-1.156-.64-2.594 0-1.359.624-2.53.64-1.173 1.75-1.86 1.125-.688 2.516-.688 1.468 0 2.531.64 1.062.626 1.61 1.735.562 1.094.562 2.438 0 .422-.063.828h-7.14q.187 1.125.906 1.719.719.593 1.719.593.843 0 1.453-.359.61-.375.953-.984l1.984.968q-1.453 2.532-4.422 2.532zm2.25-6.203q-.03-.454-.328-.891-.28-.438-.797-.719-.515-.297-1.203-.297-.875 0-1.5.516-.625.5-.906 1.39h4.734zm4.233-7.454h2.453v13.36h-2.453v-13.36zm6.241 2.797q-.656 0-1.125-.468-.469-.47-.469-1.11 0-.656.47-1.11.468-.468 1.124-.468.656 0 1.11.469.453.453.453 1.11 0 .64-.453 1.109-.454.468-1.11.468zm-1.234 1.047h2.437v9.516h-2.437v-9.516zm4.974 0h2.297v1.188h.156q.422-.688 1.203-1.078.797-.407 1.703-.407 1.72 0 2.61 1.047.906 1.047.906 2.86v5.906h-2.453v-5.61q0-.921-.469-1.421t-1.297-.5q-1 0-1.61.765-.593.766-.593 1.922v4.844h-2.453v-9.516zm15.644 9.813q-1.422 0-2.563-.641-1.14-.656-1.78-1.797-.642-1.156-.642-2.594 0-1.359.625-2.53.641-1.173 1.75-1.86 1.125-.688 2.516-.688 1.469 0 2.531.64 1.063.626 1.61 1.735.562 1.094.562 2.438 0 .422-.062.828h-7.14q.187 1.125.905 1.719.72.593 1.72.593.843 0 1.452-.359.61-.375.953-.984l1.985.968q-1.453 2.532-4.422 2.532zm2.25-6.203q-.031-.454-.328-.891-.282-.438-.797-.719-.516-.297-1.203-.297-.875 0-1.5.516-.625.5-.907 1.39h4.735z"/><path fill="#38761d" d="M111.46 53.597c0-6.865 5.565-12.43 12.43-12.43h161.344a12.43 12.43 0 0 1 12.43 12.43v49.722c0 6.865-5.565 12.43-12.43 12.43H123.89c-6.865 0-12.43-5.565-12.43-12.43z" fill-rule="evenodd"/><path stroke="#274e13" stroke-linejoin="round" stroke-linecap="butt" d="M111.46 53.597h0c0-6.865 5.565-12.43 12.43-12.43h161.344a12.43 12.43 0 0 1 12.43 12.43v49.722c0 6.865-5.565 12.43-12.43 12.43H123.89h0c-6.865 0-12.43-5.565-12.43-12.43z"/><path fill="#f3f3f3" d="M156.964 74.815q-.656 0-1.125-.468-.468-.469-.468-1.11 0-.656.468-1.109.47-.469 1.125-.469.657 0 1.11.469.453.453.453 1.11 0 .64-.453 1.109-.453.468-1.11.468zm-1.234 1.047h2.437v9.516h-2.437v-9.516zm4.974 0h2.297v1.188h.156q.422-.688 1.203-1.078.797-.407 1.704-.407 1.718 0 2.609 1.047.906 1.047.906 2.86v5.906h-2.453v-5.61q0-.921-.469-1.421-.468-.5-1.297-.5-1 0-1.609.765-.594.766-.594 1.922v4.844h-2.453v-9.516zm15.316 9.672q-.703 0-1.297-.219-.594-.218-.969-.593-.875-.844-.875-2.39v-4.376h-1.672v-2.094h1.672v-2.687h2.438v2.687h2.328v2.094h-2.328v3.938q0 .718.312 1.046.266.297.907.297.343 0 .578-.093.234-.094.61-.329v2.391q-.798.328-1.704.328zm8.126.14q-1.422 0-2.562-.64-1.14-.656-1.781-1.797-.641-1.156-.641-2.593 0-1.36.625-2.532.64-1.172 1.75-1.859 1.125-.688 2.516-.688 1.468 0 2.53.641 1.063.625 1.61 1.734.563 1.094.563 2.438 0 .422-.063.828h-7.14q.187 1.125.906 1.719.719.594 1.719.594.843 0 1.453-.36.61-.375.953-.984l1.984.969q-1.453 2.53-4.422 2.53zm2.25-6.202q-.03-.453-.328-.89-.281-.438-.797-.72-.515-.297-1.203-.297-.875 0-1.5.516-.625.5-.906 1.39h4.734zm4.233-3.61h2.297v1.266h.156q.36-.672 1.094-1.11.75-.437 1.64-.437.657 0 1.203.203v2.453q-.5-.187-.859-.265-.344-.094-.734-.094-1.078 0-1.719.781-.625.781-.625 1.985v4.734h-2.453v-9.516zm7.904 0h2.296v1.157h.141q.39-.61 1.14-1.032.75-.422 1.72-.422 1.28 0 2.328.641 1.062.64 1.656 1.797.594 1.156.594 2.625t-.594 2.625q-.594 1.14-1.656 1.781-1.047.64-2.329.64-.968 0-1.734-.405-.75-.407-1.125-1.032h-.14l.14 1.344v3.828h-2.437V75.862zm4.859 7.563q.687 0 1.281-.36.61-.359.953-.984.36-.64.36-1.453 0-.828-.36-1.453-.343-.64-.953-.985-.594-.343-1.281-.343-.672 0-1.266.343-.593.344-.953.985-.344.625-.344 1.453 0 .812.344 1.453.36.625.953.984.594.36 1.266.36zm6.9-7.563h2.297v1.266h.157q.359-.672 1.093-1.11.75-.437 1.641-.437.656 0 1.203.203v2.453q-.5-.187-.86-.265-.343-.094-.734-.094-1.078 0-1.718.781-.625.781-.625 1.985v4.734h-2.453v-9.516zm12.435 9.813q-1.421 0-2.562-.64-1.14-.657-1.781-1.798-.64-1.156-.64-2.593 0-1.36.624-2.532.64-1.172 1.75-1.859 1.125-.688 2.516-.688 1.468 0 2.531.641 1.062.625 1.61 1.734.562 1.094.562 2.438 0 .422-.063.828h-7.14q.187 1.125.906 1.719.719.594 1.719.594.843 0 1.453-.36.61-.375.953-.984l1.984.969q-1.453 2.53-4.422 2.53zm2.25-6.203q-.03-.453-.328-.89-.28-.438-.797-.72-.515-.297-1.203-.297-.875 0-1.5.516-.625.5-.906 1.39h4.734zm8.374 6.062q-.704 0-1.297-.219-.594-.218-.97-.593-.874-.844-.874-2.39v-4.376h-1.672v-2.094h1.672v-2.687h2.437v2.687h2.329v2.094h-2.329v3.938q0 .718.313 1.046.266.297.906.297.344 0 .578-.093.235-.094.61-.329v2.391q-.797.328-1.703.328zm8.126.14q-1.422 0-2.562-.64-1.141-.656-1.782-1.797-.64-1.156-.64-2.593 0-1.36.625-2.532.64-1.172 1.75-1.859 1.125-.688 2.515-.688 1.469 0 2.532.641 1.062.625 1.609 1.734.562 1.094.562 2.438 0 .422-.062.828h-7.14q.187 1.125.906 1.719.718.594 1.718.594.844 0 1.453-.36.61-.375.954-.984l1.984.969q-1.453 2.53-4.422 2.53zm2.25-6.202q-.031-.453-.328-.89-.281-.438-.797-.72-.516-.297-1.203-.297-.875 0-1.5.516-.625.5-.906 1.39h4.734zm4.232-3.61h2.297v1.266h.157q.359-.672 1.093-1.11.75-.437 1.641-.437.656 0 1.203.203v2.453q-.5-.187-.86-.265-.343-.094-.734-.094-1.078 0-1.718.781-.625.781-.625 1.985v4.734h-2.454v-9.516z"/><path fill="#6aa84f" d="M390.7 25.14h223.45v85.524c-111.725 0-111.725 32.586-223.45 14.071z" fill-rule="evenodd"/><path stroke="#38761d" stroke-linejoin="round" stroke-linecap="butt" d="M390.7 25.14h223.45v85.524c-111.725 0-111.725 32.586-223.45 14.071z"/><path fill="#fff" d="M465.83 75.12q-.985 0-1.735-.407-.75-.406-1.125-1.031h-.156v1.14h-2.297v-13.36h2.453v3.657l-.156 1.344h.156q.39-.61 1.125-1.031.75-.422 1.734-.422 1.282 0 2.329.64 1.062.64 1.656 1.797.594 1.156.594 2.625t-.594 2.625q-.594 1.14-1.656 1.781-1.047.641-2.329.641zm-.438-2.25q.687 0 1.281-.36.61-.36.953-.985.36-.64.36-1.453 0-.828-.36-1.453-.343-.64-.953-.984-.594-.344-1.281-.344-.672 0-1.266.344-.593.343-.953.984-.36.625-.36 1.453 0 .813.36 1.453.36.625.953.985.594.36 1.266.36zm9.866 1.5l-4-9.063h2.765l2.47 5.921h.155l2.36-5.921h2.734l-5.89 13.546h-2.626l2.032-4.484zm11.955.608q-.703 0-1.297-.218-.594-.22-.969-.594-.875-.844-.875-2.39V67.4H482.4v-2.093h1.672v-2.688h2.438v2.688h2.328V67.4h-2.328v3.938q0 .719.312 1.047.266.297.907.297.343 0 .578-.094.234-.094.61-.328v2.39q-.798.328-1.704.328zm8.126.141q-1.421 0-2.562-.64-1.14-.657-1.781-1.797-.641-1.157-.641-2.594 0-1.36.625-2.531.64-1.172 1.75-1.86 1.125-.687 2.516-.687 1.468 0 2.53.64 1.063.625 1.61 1.735.563 1.093.563 2.437 0 .422-.063.828h-7.14q.187 1.125.906 1.72.719.593 1.719.593.843 0 1.453-.36.61-.375.953-.984l1.984.969q-1.453 2.531-4.422 2.531zm2.25-6.203q-.03-.453-.328-.89-.281-.438-.797-.72-.515-.296-1.203-.296-.875 0-1.5.515-.625.5-.906 1.39h4.734zm8.717 6.203q-1.437 0-2.578-.64-1.14-.641-1.781-1.797-.64-1.157-.64-2.61 0-1.469.64-2.61.64-1.14 1.781-1.796 1.14-.656 2.578-.656 1.578 0 2.719.687 1.14.672 1.64 1.922l-2.234.938q-.594-1.266-2.125-1.266-1.125 0-1.844.766-.718.765-.718 2.015 0 1.266.718 2.031.72.766 1.844.766 1.547 0 2.235-1.344l2.218.97q-.609 1.25-1.75 1.937-1.14.687-2.703.687zm10.768 0q-1.484 0-2.64-.656-1.156-.672-1.797-1.813-.64-1.156-.64-2.578t.64-2.578q.64-1.156 1.797-1.812 1.156-.672 2.64-.672 1.454 0 2.61.672 1.156.656 1.797 1.812.64 1.156.64 2.578t-.64 2.578q-.641 1.14-1.797 1.813-1.156.656-2.61.656zm0-2.25q.704 0 1.297-.328.61-.344.953-.984.36-.641.36-1.485 0-.844-.36-1.469-.343-.64-.953-.968-.593-.344-1.297-.344-.718 0-1.312.344-.594.328-.969.968-.36.625-.36 1.47 0 .827.36 1.484.375.64.969.984.594.328 1.312.328zm11.005 2.25q-1.281 0-2.344-.64-1.046-.641-1.656-1.782-.61-1.156-.61-2.625t.61-2.625q.61-1.156 1.656-1.797 1.063-.64 2.344-.64.969 0 1.719.422.75.421 1.14 1.03h.141l-.14-1.343v-3.656h2.421v13.36h-2.28v-1.141h-.141q-.375.625-1.141 1.03-.75.407-1.719.407zm.406-2.25q.688 0 1.282-.36.61-.359.953-.984.36-.64.36-1.453 0-.828-.36-1.453-.344-.64-.953-.984-.594-.344-1.282-.344-.671 0-1.265.344-.594.343-.953.984-.36.625-.36 1.453 0 .813.36 1.453.36.625.953.985.594.36 1.265.36zm11.741 2.25q-1.422 0-2.562-.64-1.14-.657-1.781-1.797-.641-1.157-.641-2.594 0-1.36.625-2.531.64-1.172 1.75-1.86 1.125-.687 2.516-.687 1.468 0 2.53.64 1.063.625 1.61 1.735.563 1.093.563 2.437 0 .422-.063.828h-7.14q.187 1.125.906 1.72.719.593 1.719.593.843 0 1.453-.36.61-.375.953-.984l1.984.969q-1.453 2.531-4.422 2.531zm2.25-6.203q-.03-.453-.328-.89-.281-.438-.797-.72-.515-.296-1.203-.296-.875 0-1.5.515-.625.5-.906 1.39h4.734z"/><path d="M288.119 235.222h51.291v.063h51.291"/><path stroke="#666" stroke-width="2" stroke-linejoin="round" stroke-linecap="butt" d="M288.119 235.222h51.291v.063h39.291"/><path fill="#666" stroke="#666" stroke-width="2" stroke-linecap="butt" d="M378.701 238.588l9.077-3.303-9.077-3.304z" fill-rule="evenodd"/><path d="M297.665 78.458h46.517v.063h46.522"/><path stroke="#666" stroke-width="2" stroke-linejoin="round" stroke-linecap="butt" d="M297.665 78.458h46.517v.063h34.522"/><path fill="#666" stroke="#666" stroke-width="2" stroke-linecap="butt" d="M378.704 81.824l9.076-3.303-9.076-3.303z" fill-rule="evenodd"/><path d="M685.795 181.357l.063 253.732h-47.685l-.063-253.732z"/><path fill="#ea4335" d="M654.147 256.274q0-1.47.734-2.672.734-1.203 2.046-1.906 1.313-.688 3-.688 1.672 0 2.985.688 1.328.703 2.063 1.906.734 1.203.735 2.672 0 1.11-.484 1.953-.469.86-1.172 1.312v.172l1.531-.172h4.172l.001 2.782h-15.266v-2.61h1.297v-.172q-.704-.422-1.173-1.297-.469-.859-.469-1.968zm2.578.468q0 .797.407 1.47.406.687 1.125 1.093.735.406 1.672.406.938 0 1.656-.406.735-.406 1.125-1.094.39-.672.39-1.469 0-.765-.39-1.453-.391-.672-1.126-1.078-.719-.406-1.656-.406-.938 0-1.672.406-.719.406-1.125 1.078-.406.688-.406 1.453zm-2.574 13.427q0-1.625.749-2.937.75-1.297 2.062-2.031 1.312-.735 2.953-.735 1.547 0 2.875.719 1.344.734 2.125 2.016.798 1.28.798 2.859 0 1.687-.734 2.89-.718 1.22-1.984 1.844-1.25.64-2.78.64-.5 0-.938-.062l-.002-8.171q-1.313.218-1.984 1.03-.656.829-.656 1.97 0 .968.407 1.656.422.687 1.125 1.094l-1.109 2.265q-2.907-1.656-2.907-5.047zm7.11 2.578q.5-.046 1-.375.515-.328.843-.921.328-.579.328-1.375 0-1-.594-1.72-.579-.702-1.579-1.03l.002 5.421zm-7.107 10.036q0-1.672.749-3 .765-1.328 2.078-2.063 1.312-.734 2.952-.734 1.625 0 2.938.734 1.328.735 2.079 2.063.766 1.328.766 3t-.765 2.984q-.75 1.328-2.077 2.063-1.313.734-2.938.734-1.64 0-2.953-.734-1.313-.735-2.079-2.063-.75-1.312-.75-2.984zm2.578 0q0 .812.375 1.5.391.687 1.11 1.093.734.407 1.719.407.968 0 1.687-.407.719-.406 1.094-1.093.39-.688.39-1.5 0-.797-.391-1.485-.375-.687-1.094-1.11-.719-.405-1.688-.405-.953 0-1.703.406-.734.422-1.125 1.11-.374.687-.374 1.484zm8.642 7.835l.001 2.625h-1.312v.172q.703.438 1.172 1.297.484.86.485 1.969 0 1.469-.734 2.672t-2.062 1.875q-1.312.687-2.984.687-1.688 0-3-.687-1.313-.672-2.048-1.875-.735-1.203-.735-2.672 0-1.11.468-1.985.469-.859 1.172-1.28v-.173l-1.531.172h-4.375l-.001-2.797h15.484zm-8.639 5.563q0 .797.407 1.469.406.687 1.125 1.093.735.407 1.672.407.938 0 1.656-.407.734-.406 1.125-1.093.39-.672.39-1.47 0-.765-.39-1.452-.392-.672-1.126-1.078-.719-.407-1.656-.407-.938 0-1.672.407-.719.406-1.125 1.078-.406.687-.406 1.453zm-2.403 12.623q0-.797.234-1.485.25-.687.687-1.11.953-1 2.719-1h5.015v-1.905h2.39l.001 1.906h3.078v2.797h-3.077v2.656h-2.39v-2.656h-4.5q-.829 0-1.188.36-.344.296-.344 1.015 0 .406.11.672.11.265.36.703h-2.735q-.36-.922-.36-1.953zm12.251 5.758q0-.734.531-1.28.532-.532 1.282-.532.734 0 1.25.531.531.547.531 1.281 0 .75-.53 1.266-.516.531-1.25.531-.75 0-1.282-.53-.531-.517-.532-1.267zm-1.203-1.406v2.797h-10.874l-.001-2.797h10.875zm.001 5.694l.001 2.625h-1.36v.172q.782.515 1.235 1.375.47.875.47 1.937 0 1.14-.547 2-.546.86-1.374 1.219.86.531 1.39 1.453.532.937.532 2.187 0 1.86-1.14 2.829-1.14.968-3.077.968h-7l-.001-2.765h6.484q1.016 0 1.563-.485.562-.484.562-1.328 0-1.094-.86-1.75-.86-.64-2.266-.64h-5.484v-2.797h6.483q1.016 0 1.563-.5.562-.5.562-1.422 0-1.016-.86-1.656-.86-.625-2.266-.625h-5.484v-2.797h10.874zm1.209 21.008q0-.735.53-1.281.532-.532 1.282-.532.734 0 1.25.532.531.546.531 1.28 0 .75-.53 1.266-.516.532-1.25.532-.75 0-1.282-.532-.531-.515-.531-1.265zm-1.204-1.406l.001 2.796h-10.875v-2.796h10.874zm-8.592 5.146l6.236 5.672-.002-5.5h2.36l.002 8.937h-2.281l-6.22-5.671v5.843h-2.374l-.002-9.281h2.28zm-2.621 16.555q0-1.625.75-2.938.749-1.296 2.061-2.03 1.312-.735 2.953-.735 1.547 0 2.875.719 1.344.734 2.126 2.015.797 1.281.797 2.86 0 1.687-.733 2.89-.719 1.219-1.984 1.844-1.25.64-2.781.64-.5 0-.938-.062l-.002-8.172q-1.312.219-1.984 1.031-.656.829-.656 1.97 0 .968.407 1.655.422.688 1.125 1.094l-1.109 2.266q-2.906-1.656-2.907-5.047zm7.11 2.578q.5-.047 1-.375.515-.328.843-.922.328-.578.328-1.375 0-1-.594-1.719-.578-.703-1.578-1.03v5.421z"/><path d="M21.021 434.438l.094-409.07h45.796l-.095 409.07z"/><path fill="#34a853" d="M51.78 268.332q0 1.672-.75 3-.766 1.328-2.079 2.062-1.312.735-2.953.735-1.625 0-2.937-.735-1.328-.734-2.078-2.062-.765-1.328-.765-3t.767-2.984q.75-1.329 2.078-2.063 1.313-.734 2.938-.734 1.64 0 2.953.734 1.312.734 2.077 2.063.75 1.312.75 2.984zm-2.577 0q0-.813-.375-1.5-.39-.688-1.11-1.094-.733-.406-1.718-.406-.969 0-1.687.406-.72.406-1.094 1.094-.391.687-.391 1.5 0 .797.39 1.484.375.688 1.093 1.11.72.406 1.688.406.953 0 1.703-.406.735-.422 1.125-1.11.375-.687.376-1.484zm-8.64-7.836l.001-2.625h1.313v-.172q-.703-.437-1.172-1.296-.484-.86-.484-1.97 0-1.468.735-2.671.735-1.203 2.063-1.875 1.313-.688 2.985-.688 1.687 0 3 .688 1.312.672 2.046 1.875.734 1.203.734 2.672 0 1.11-.47 1.984-.468.86-1.171 1.281v.172l1.53-.172h4.376v2.797H40.563zm8.643-5.562q0-.797-.406-1.469-.406-.687-1.125-1.094-.734-.406-1.672-.406-.937 0-1.656.406-.735.407-1.125 1.094-.391.672-.391 1.469 0 .765.39 1.453.39.672 1.125 1.078.718.406 1.656.406.937 0 1.672-.406.719-.406 1.125-1.078.407-.688.407-1.453zm2.409-12.623q0 .797-.235 1.484-.25.688-.688 1.11-.953 1-2.719 1h-5.015v1.906h-2.391v-1.906H37.49v-2.797h3.079v-2.656h2.391v2.656h4.5q.828 0 1.187-.36.344-.296.344-1.015 0-.406-.11-.672-.109-.266-.358-.703h2.734q.36.922.359 1.953zm-12.249-5.759q0 .734-.531 1.281-.532.532-1.282.532-.734 0-1.25-.532-.53-.547-.53-1.28 0-.75.531-1.267.516-.53 1.25-.53.75 0 1.281.53.531.516.531 1.266zm1.203 1.406v-2.797h10.876l-.001 2.797H40.569zm.001-5.693v-2.625h1.36v-.172q-.78-.516-1.234-1.375-.468-.875-.468-1.937 0-1.141.547-2 .547-.86 1.376-1.22-.86-.53-1.39-1.452-.532-.938-.531-2.188 0-1.86 1.14-2.828 1.142-.969 3.08-.969h7l-.001 2.766h-6.485q-1.015 0-1.562.484-.563.485-.563 1.328 0 1.094.859 1.75.859.641 2.265.641h5.485l-.001 2.797h-6.484q-1.016 0-1.563.5-.563.5-.563 1.422 0 1.015.86 1.656.858.625 2.265.625h5.484v2.797H40.57zm-1.198-21.008q0 .734-.531 1.281-.532.531-1.282.531-.734 0-1.25-.531-.53-.547-.53-1.281 0-.75.53-1.266.517-.531 1.251-.531.75 0 1.281.531.531.516.531 1.266zm1.203 1.406v-2.797h10.876l-.001 2.797H40.575zm8.595-5.146l-6.233-5.672-.002 5.5h-2.359l.002-8.938h2.281l6.218 5.672.001-5.844h2.375l-.002 9.282H49.17zm2.629-16.555q0 1.625-.751 2.937-.75 1.297-2.063 2.031-1.313.735-2.953.735-1.547 0-2.875-.72-1.344-.733-2.125-2.015-.796-1.28-.796-2.86 0-1.687.735-2.89.72-1.218 1.985-1.843 1.25-.641 2.781-.641.5 0 .938.062l-.002 8.172q1.312-.218 1.985-1.03.656-.83.656-1.97 0-.968-.406-1.656-.421-.687-1.124-1.094l1.11-2.265q2.905 1.656 2.905 5.047zm-7.11-2.579q-.5.047-1 .375-.515.329-.843.922-.328.578-.329 1.375 0 1 .594 1.72.578.702 1.578 1.03v-5.422z"/><path d="M111.46 78.458c-13.273 0-26.353 39.189-26.546 78.378-.193 39.189 12.501 78.378 25.003 78.378"/><path stroke="#34a853" stroke-width="2" stroke-linejoin="round" stroke-linecap="butt" stroke-dasharray="8.0,6.0" d="M111.46 78.458c-13.273 0-26.353 39.189-26.546 78.378-.096 19.594 3.029 39.189 7.741 53.885 1.178 3.674 2.455 7.042 3.806 10.027a60.772 60.772 0 0 0 2.078 4.18 46.235 46.235 0 0 0 1.62 2.725l.2.305"/><path fill="#34a853" stroke="#34a853" stroke-width="2" stroke-linecap="butt" d="M98.361 230.589l9.227 2.857-5.232-8.12z" fill-rule="evenodd"/><path fill="#ea4335" d="M390.701 338.67h223.45v85.524c-111.725 0-111.725 32.586-223.45 14.071z" fill-rule="evenodd"/><path stroke="#85200c" stroke-linejoin="round" stroke-linecap="butt" d="M390.701 338.67h223.45v85.524c-111.725 0-111.725 32.586-223.45 14.071z"/><path fill="#f3f3f3" d="M438.308 388.65q-1.484 0-2.64-.657-1.156-.672-1.797-1.812-.64-1.157-.64-2.578 0-1.422.64-2.579.64-1.156 1.797-1.812 1.156-.672 2.64-.672 1.454 0 2.61.672 1.156.656 1.797 1.812.64 1.157.64 2.579 0 1.421-.64 2.578-.64 1.14-1.797 1.812-1.156.656-2.61.656zm0-2.25q.704 0 1.297-.329.61-.343.953-.984.36-.64.36-1.484t-.36-1.47q-.343-.64-.953-.968-.593-.344-1.297-.344-.718 0-1.312.344-.594.328-.969.969-.36.625-.36 1.469 0 .828.36 1.484.375.64.969.984.594.328 1.313.328zm6.85-7.563h2.296v1.156h.14q.391-.61 1.141-1.031.75-.422 1.719-.422 1.281 0 2.328.64 1.063.641 1.656 1.798.594 1.156.594 2.625 0 1.468-.594 2.625-.593 1.14-1.656 1.78-1.047.641-2.328.641-.969 0-1.734-.406-.75-.406-1.125-1.031h-.141l.14 1.344v3.828h-2.437v-13.547zm4.858 7.562q.688 0 1.282-.359.61-.36.953-.984.36-.641.36-1.453 0-.829-.36-1.454-.344-.64-.953-.984-.594-.344-1.282-.344-.671 0-1.265.344-.594.344-.953.984-.344.625-.344 1.454 0 .812.344 1.453.36.625.953.984.594.36 1.265.36zm11.042 2.11q-.703 0-1.297-.219t-.969-.594q-.875-.843-.875-2.39v-4.375h-1.672v-2.094h1.672v-2.688h2.438v2.688h2.328v2.094h-2.328v3.937q0 .719.312 1.047.266.297.906.297.344 0 .578-.094.235-.094.61-.328v2.39q-.797.329-1.703.329zm5.048-10.719q-.656 0-1.125-.469-.469-.468-.469-1.11 0-.655.469-1.108.469-.47 1.125-.47t1.11.47q.452.453.452 1.109 0 .64-.453 1.11-.453.468-1.109.468zm-1.234 1.047h2.437v9.516h-2.437v-9.516zm4.974 0h2.297v1.187h.156q.437-.687 1.187-1.078.766-.406 1.704-.406 1 0 1.75.484.75.47 1.062 1.188.469-.734 1.281-1.203.813-.469 1.907-.469 1.625 0 2.468 1 .86 1 .86 2.688v6.125h-2.422v-5.672q0-.891-.422-1.375-.422-.485-1.172-.485-.953 0-1.531.75-.563.75-.563 1.985v4.797h-2.437v-5.672q0-.891-.438-1.375-.437-.485-1.234-.485-.906 0-1.453.75t-.547 1.985v4.797h-2.453v-9.516zm18.386-1.047q-.656 0-1.125-.469-.468-.468-.468-1.11 0-.655.468-1.108.469-.47 1.125-.47.657 0 1.11.47.453.453.453 1.109 0 .64-.453 1.11-.453.468-1.11.468zm-1.234 1.047h2.437v9.516h-2.437v-9.516zm4.49 7.516l4.969-5.438h-4.813v-2.078h7.813v2l-4.954 5.437h5.11v2.079h-8.125v-2zm14.486 2.296q-1.422 0-2.562-.64-1.14-.656-1.782-1.797-.64-1.156-.64-2.594 0-1.36.625-2.531.64-1.172 1.75-1.86 1.125-.687 2.515-.687 1.47 0 2.532.64 1.062.626 1.61 1.735.562 1.094.562 2.438 0 .421-.063.828h-7.14q.187 1.125.906 1.718.718.594 1.718.594.844 0 1.454-.36.609-.374.953-.984l1.984.97q-1.453 2.53-4.422 2.53zm2.25-6.203q-.031-.453-.328-.89-.281-.438-.797-.72-.515-.296-1.203-.296-.875 0-1.5.516-.625.5-.906 1.39h4.734zm8.326 6.203q-1.28 0-2.343-.64-1.047-.64-1.657-1.781-.609-1.157-.609-2.625 0-1.47.61-2.625.609-1.157 1.656-1.797 1.062-.641 2.343-.641.97 0 1.72.422t1.14 1.031h.14l-.14-1.344v-3.656h2.422v13.36h-2.282v-1.141h-.14q-.375.625-1.14 1.031-.75.406-1.72.406zm.407-2.25q.687 0 1.281-.359.61-.36.953-.984.36-.641.36-1.453 0-.829-.36-1.454-.344-.64-.953-.984-.594-.344-1.281-.344-.672 0-1.266.344t-.953.984q-.36.625-.36 1.454 0 .812.36 1.453.36.625.953.984.594.36 1.266.36zm6.084 1.954zm10.038.296q-1.438 0-2.578-.64-1.141-.64-1.782-1.797-.64-1.156-.64-2.61 0-1.468.64-2.609.641-1.14 1.782-1.797 1.14-.656 2.578-.656 1.578 0 2.718.688 1.141.671 1.641 1.921l-2.234.938q-.594-1.266-2.125-1.266-1.125 0-1.844.766-.719.766-.719 2.016 0 1.265.719 2.03.719.766 1.844.766 1.547 0 2.234-1.343l2.219.968q-.61 1.25-1.75 1.938-1.14.687-2.703.687zm10.768 0q-1.484 0-2.64-.656-1.157-.672-1.798-1.812-.64-1.157-.64-2.578 0-1.422.64-2.579.641-1.156 1.797-1.812 1.157-.672 2.64-.672 1.454 0 2.61.672 1.157.656 1.797 1.812.64 1.157.64 2.579 0 1.421-.64 2.578-.64 1.14-1.797 1.812-1.156.656-2.61.656zm0-2.25q.703 0 1.297-.328.61-.343.953-.984.36-.64.36-1.484t-.36-1.47q-.344-.64-.953-.968-.594-.344-1.297-.344-.719 0-1.313.344-.593.328-.968.969-.36.625-.36 1.469 0 .828.36 1.484.375.64.968.984.594.328 1.313.328zm11.005 2.25q-1.282 0-2.344-.64-1.047-.64-1.656-1.781-.61-1.157-.61-2.625 0-1.47.61-2.625.61-1.157 1.656-1.797 1.062-.641 2.344-.641.968 0 1.718.422t1.141 1.031h.14l-.14-1.344v-3.656h2.422v13.36h-2.281v-1.141h-.14q-.376.625-1.142 1.031-.75.406-1.718.406zm.406-2.25q.687 0 1.281-.359.61-.36.953-.984.36-.641.36-1.453 0-.829-.36-1.454-.343-.64-.953-.984-.594-.344-1.281-.344-.672 0-1.266.344-.593.344-.953.984-.36.625-.36 1.454 0 .812.36 1.453.36.625.953.984.594.36 1.266.36zm11.74 2.25q-1.421 0-2.562-.64-1.14-.656-1.78-1.797-.642-1.156-.642-2.594 0-1.36.625-2.531.641-1.172 1.75-1.86 1.125-.687 2.516-.687 1.469 0 2.531.64 1.063.626 1.61 1.735.562 1.094.562 2.438 0 .421-.062.828h-7.14q.187 1.125.905 1.718.72.594 1.72.594.843 0 1.452-.36.61-.374.953-.984l1.985.97q-1.453 2.53-4.422 2.53zm2.25-6.203q-.03-.453-.327-.89-.282-.438-.797-.72-.516-.296-1.203-.296-.875 0-1.5.516-.625.5-.907 1.39h4.735z"/><path fill="#ea4335" d="M111.552 363.556c0-7.85 6.364-14.215 14.215-14.215h149.774a14.215 14.215 0 0 1 14.216 14.215v56.861c0 7.851-6.365 14.216-14.216 14.216H125.767c-7.85 0-14.215-6.365-14.215-14.216z" fill-rule="evenodd"/><path stroke="#5b0f00" stroke-linejoin="round" stroke-linecap="butt" d="M111.552 363.556h0c0-7.85 6.364-14.215 14.215-14.215h149.774a14.215 14.215 0 0 1 14.216 14.215v56.861c0 7.851-6.365 14.216-14.216 14.216H125.767c-7.85 0-14.215-6.365-14.215-14.216z"/><path fill="#f3f3f3" d="M152.28 385.548h2.516v13.359h-2.516v-13.36zm9.778 13.656q-1.484 0-2.64-.656-1.157-.672-1.797-1.813-.64-1.156-.64-2.578t.64-2.578q.64-1.156 1.797-1.813 1.156-.672 2.64-.672 1.453 0 2.61.672 1.156.656 1.797 1.813.64 1.156.64 2.578t-.64 2.578q-.641 1.14-1.797 1.813-1.157.656-2.61.656zm0-2.25q.703 0 1.297-.328.61-.344.953-.985.36-.64.36-1.484t-.36-1.469q-.343-.64-.953-.969-.594-.343-1.297-.343-.718 0-1.312.343-.594.329-.969.97-.36.624-.36 1.468 0 .828.36 1.484.375.64.969.985.594.328 1.312.328zm6.911-7.563h2.297v1.188h.157q.421-.688 1.203-1.078.797-.407 1.703-.407 1.719 0 2.61 1.047.905 1.047.905 2.86v5.906h-2.453v-5.61q0-.921-.468-1.421-.47-.5-1.297-.5-1 0-1.61.765-.593.766-.593 1.922v4.844h-2.454v-9.516zm11.52-3.844h3.25l3.546 9.391h.14l3.548-9.39h3.265v13.359h-2.5v-6.578l.14-2.235h-.14l-3.39 8.813h-1.97l-3.405-8.813h-.157l.157 2.235v6.578h-2.485v-13.36zm21.009 13.657q-1.485 0-2.641-.656-1.156-.672-1.797-1.813-.64-1.156-.64-2.578t.64-2.578q.64-1.156 1.797-1.813 1.156-.672 2.64-.672 1.454 0 2.61.672 1.156.656 1.797 1.813.64 1.156.64 2.578t-.64 2.578q-.64 1.14-1.797 1.813-1.156.656-2.61.656zm0-2.25q.703 0 1.297-.328.609-.344.953-.985.359-.64.359-1.484t-.36-1.469q-.343-.64-.952-.969-.594-.343-1.297-.343-.72 0-1.313.343-.594.329-.969.97-.359.624-.359 1.468 0 .828.36 1.484.374.64.968.985.594.328 1.313.328zm6.91-7.563h2.298v1.188h.156q.422-.688 1.203-1.078.797-.407 1.703-.407 1.719 0 2.61 1.047.906 1.047.906 2.86v5.906h-2.453v-5.61q0-.921-.47-1.421-.468-.5-1.296-.5-1 0-1.61.765-.593.766-.593 1.922v4.844h-2.453v-9.516zm11.176-3.844h2.453v7.282h.125l3.422-3.438h3v.156l-3.61 3.516 3.782 5.688v.156h-2.89l-2.595-4.156-1.234 1.203v2.953h-2.453v-13.36zm14.897 13.657q-1.421 0-2.562-.64-1.14-.657-1.781-1.798-.64-1.156-.64-2.594 0-1.359.624-2.53.64-1.173 1.75-1.86 1.125-.688 2.516-.688 1.468 0 2.53.641 1.063.625 1.61 1.734.563 1.094.563 2.438 0 .422-.063.828h-7.14q.187 1.125.906 1.719.719.594 1.719.594.843 0 1.453-.36.61-.375.953-.984l1.984.969q-1.453 2.53-4.422 2.53zm2.25-6.203q-.03-.453-.328-.891-.28-.438-.797-.719-.515-.297-1.203-.297-.875 0-1.5.516-.625.5-.906 1.39h4.734zm7.202 5.453l-4-9.063h2.765l2.469 5.922h.156l2.36-5.922h2.734l-5.89 13.547H241.9l2.032-4.484z"/><path d="M197.338 287.39l181.26.094v45.858l-181.26-.094z"/><path fill="#666" d="M246.012 312.3h-2.282v2.265l-1.546-.001v-2.266h-2.266v-1.548l2.266.001v-2.265h1.546v2.266l2.282.002v1.546zm.832 2.845zm3.916-6.795h1.64v.829h.11q.281-.438.813-.734.53-.312 1.218-.312.922 0 1.672.47.766.453 1.188 1.281.422.829.422 1.86 0 1.063-.422 1.89-.422.813-1.188 1.281-.75.453-1.672.452-.687 0-1.234-.297-.531-.297-.797-.735h-.11l.11.953v2.735l-1.75-.001v-9.672zm3.485 5.392q.484 0 .906-.25.437-.25.687-.702.25-.453.25-1.047 0-.578-.25-1.031-.25-.454-.687-.704-.422-.25-.906-.25-.485 0-.907.25-.422.25-.687.702-.25.453-.25 1.031 0 .594.25 1.047.265.453.687.704.422.25.907.25zm4.934-5.388l1.641.001v.906h.094q.265-.484.797-.796.53-.312 1.171-.312.47 0 .844.157v1.734q-.36-.125-.61-.188-.234-.062-.515-.063-.781 0-1.234.562-.453.563-.453 1.406v3.39h-1.735v-6.797zm8.941 7.02q-1.062 0-1.89-.47-.813-.484-1.281-1.297-.454-.828-.454-1.86 0-1 .454-1.827.468-.828 1.28-1.297.829-.484 1.891-.483 1.032 0 1.86.485.828.47 1.281 1.298.469.828.469 1.828 0 1.032-.469 1.86-.453.812-1.281 1.296-.828.468-1.86.467zm0-1.625q.5 0 .922-.234.438-.234.688-.687.25-.453.25-1.078 0-.593-.25-1.047-.25-.453-.688-.688-.422-.25-.922-.25-.515 0-.937.25-.422.234-.688.687-.265.453-.265 1.046 0 .61.265 1.079.266.453.688.688.422.234.937.234zm5.682-3.887h-1.22v-1.5h1.22v-.375q0-1.157.687-1.812.688-.672 1.813-.671.64 0 1.109.156v1.704q-.266-.11-.453-.157-.188-.062-.438-.063-.453 0-.718.266-.266.25-.266.687v.266h1.672v1.5h-1.672v5.297l-1.734-.001v-5.297zm5.754-2.247q-.469 0-.812-.329-.329-.328-.329-.797 0-.469.329-.797.343-.328.812-.327.469 0 .781.328.328.329.328.797 0 .47-.328.797-.312.328-.78.328zm-.89.75h1.75v6.797h-1.75v-6.798zm3.57-2.749l1.735.001v9.547l-1.734-.001v-9.547zm4.45 2.002q-.468 0-.812-.328-.328-.328-.328-.797 0-.469.328-.797.344-.328.813-.328.468 0 .78.329.329.328.329.797 0 .469-.328.797-.313.328-.781.327zm-.89.75h1.75v6.798l-1.75-.001v-6.797zm3.571.002h1.641v.86h.094q.312-.5.875-.78.562-.297 1.203-.297 1.234 0 1.875.751.64.75.64 2.047v4.219h-1.75v-4.017q0-.656-.343-1.015-.328-.36-.922-.36-.703 0-1.14.546-.438.547-.438 1.375v3.469l-1.735-.001v-6.797zm11.109 9.896q-1.297 0-2.156-.579-.844-.579-1.14-1.391l1.64-.671q.218.5.656.797.437.297 1 .297.828 0 1.312-.515.485-.5.485-1.437v-.531h-.11q-.312.453-.843.703-.516.234-1.172.233-.844 0-1.578-.422-.719-.438-1.157-1.235-.437-.797-.437-1.844 0-1.063.437-1.844.438-.796 1.157-1.234.734-.437 1.578-.436.656 0 1.172.25.531.235.843.688h.11v-.718h1.687v6.329q0 1.093-.437 1.89-.422.797-1.219 1.234-.781.437-1.828.436zm.031-4.687q.735 0 1.25-.5.516-.515.516-1.406 0-.921-.516-1.422-.5-.5-1.25-.5t-1.281.515q-.516.5-.516 1.406 0 .906.516 1.406.531.5 1.281.5zm4.301 1.596zm6.885.222q-.907 0-1.672-.454-.75-.469-1.188-1.282-.422-.828-.422-1.89 0-1.032.422-1.86.438-.828 1.188-1.28.765-.469 1.672-.468.703 0 1.234.313.531.297.813.735h.109l-.11-.97v-2.608h1.735v9.547h-1.625v-.813h-.11q-.265.437-.812.734-.531.296-1.234.296zm.297-1.625q.5 0 .921-.25.422-.249.672-.702.266-.453.266-1.047 0-.578-.266-1.031-.25-.453-.672-.704-.421-.25-.921-.25-.485 0-.907.25-.422.25-.687.702-.25.453-.25 1.031 0 .594.25 1.047.265.454.687.704.422.25.907.25zm7.285 1.63q-1.079-.001-1.782-.627-.687-.64-.687-1.672 0-.688.36-1.203.359-.515.984-.796t1.39-.28q1.047 0 1.797.313v-.297q0-.563-.422-.907-.422-.344-1.125-.344-.484 0-.937.218-.438.219-.735.578l-1.109-.876q.484-.64 1.234-.983.75-.36 1.625-.359 1.563 0 2.375.72.813.72.813 2.11v4.187h-1.719v-.688h-.11q-.312.39-.812.656-.5.25-1.14.25zm.406-1.36q.765 0 1.203-.484.453-.5.453-1.14-.687-.329-1.422-.33-1.36 0-1.36 1.016 0 .406.282.672.297.266.844.266zm7.946 1.254q-.5 0-.938-.157-.422-.156-.687-.422-.625-.594-.625-1.703v-3.125l-1.188-.001v-1.5h1.188v-1.921h1.75v1.923h1.656v1.5h-1.656v2.796q0 .532.218.75.188.22.641.22.25 0 .422-.063.172-.078.437-.234v1.703q-.578.234-1.218.234zm4.696.112q-1.078 0-1.781-.626-.688-.641-.688-1.672 0-.688.36-1.203.359-.516.984-.797.625-.28 1.39-.28 1.047 0 1.797.313v-.297q0-.562-.422-.906-.421-.344-1.125-.344-.484 0-.937.218-.438.218-.734.578l-1.11-.876q.485-.64 1.235-.984.75-.359 1.625-.358 1.562 0 2.375.72.812.719.812 2.11v4.187h-1.719v-.688h-.11q-.312.39-.812.655-.5.25-1.14.25zm.406-1.36q.766.001 1.203-.483.453-.5.453-1.14-.687-.329-1.422-.33-1.359 0-1.359 1.016 0 .406.281.672.297.265.844.266z"/><path d="M614.15 391.993c12.5 0 24.993-39.189 25-78.378.009-39.189-12.468-78.378-24.936-78.378"/><path stroke="#ea4335" stroke-width="2" stroke-linejoin="round" stroke-linecap="butt" stroke-dasharray="8.0,6.0" d="M614.15 391.993c12.5 0 24.993-39.189 25-78.378.005-19.594-3.112-39.189-7.789-53.884-1.17-3.674-2.436-7.042-3.775-10.027a60.898 60.898 0 0 0-2.062-4.181 46.257 46.257 0 0 0-1.607-2.725l-.174-.267"/><path fill="#ea4335" stroke="#ea4335" stroke-width="2" stroke-linecap="butt" d="M625.75 239.908l-9.214-2.893 5.2 8.14z" fill-rule="evenodd"/><path d="M289.757 391.987h50.472v.063h50.472"/><path stroke="#666" stroke-width="2" stroke-linejoin="round" stroke-linecap="butt" d="M289.757 391.987h50.472v.063h38.472"/><path fill="#666" stroke="#666" stroke-width="2" stroke-linecap="butt" d="M378.701 395.353l9.077-3.303-9.077-3.304z" fill-rule="evenodd"/><path d="M391.238 271.68c-34.201 10.526-68.751 25.73-104.515 24.517-24.947-.846-56.179-13.998-74.84 2.58-11.972 10.636 20.502 32.723 12.258 46.451"/><path stroke="#666" stroke-width="2" stroke-linejoin="round" stroke-linecap="butt" stroke-dasharray="8.0,6.0" d="M391.238 271.68c-34.201 10.526-68.752 25.73-104.515 24.517-24.947-.846-56.179-13.998-74.84 2.58-5.986 5.318-.86 13.498 4.731 22.066 1.398 2.142 2.825 4.308 4.114 6.459a63.016 63.016 0 0 1 1.811 3.211 42.195 42.195 0 0 1 1.148 2.377l.148.342"/><path fill="#666" stroke="#666" stroke-width="2" stroke-linecap="butt" d="M220.533 333.316l3.533 8.99 3.072-9.158z" fill-rule="evenodd"/><path d="M109.914 235.222c-12.5 0-25.205 39.189-25 78.378.205 39.189 13.319 78.378 26.638 78.378"/><path stroke="#34a853" stroke-width="2" stroke-linejoin="round" stroke-linecap="butt" stroke-dasharray="8.0,6.0" d="M109.914 235.222c-12.5 0-25.205 39.189-25 78.378.102 19.594 3.432 39.189 8.401 53.885 1.242 3.674 2.587 7.041 4.01 10.026a59.459 59.459 0 0 0 2.188 4.182 46.97 46.97 0 0 0 1.132 1.857 39.434 39.434 0 0 0 .864 1.285l.2.28"/><path fill="#34a853" stroke="#34a853" stroke-width="2" stroke-linecap="butt" d="M99.819 387.824l9.334 2.481-5.555-7.9z" fill-rule="evenodd"/></g></svg>