<svg viewBox="0 0 706.879 470.457" fill="none" stroke-linecap="square" stroke-miterlimit="10" xmlns="http://www.w3.org/2000/svg"><clipPath id="a"><path d="M0 0h706.88v470.457H0V0z"/></clipPath><g clip-path="url(#a)"><path d="M0 0h706.88v470.457H0z"/><path fill="#fbbc05" d="M381.16 126.906h223.45v68.396c-111.726 0-111.726 26.06-223.45 11.254z" fill-rule="evenodd"/><path stroke="#85200c" stroke-linejoin="round" stroke-linecap="butt" d="M381.16 126.906h223.45v68.396c-111.726 0-111.726 26.06-223.45 11.254z"/><path fill="#666" d="M450.758 157.32q-1.735 0-2.813-.702-1.062-.719-1.5-1.844l2.188-.953q.297.672.844 1.016.546.343 1.28.343.673 0 1.11-.218.453-.22.453-.704 0-.468-.406-.687-.406-.234-1.234-.422l-1.11-.25q-1.156-.281-1.922-1.016-.765-.734-.765-1.843 0-.813.484-1.47.5-.655 1.344-1 .86-.358 1.875-.358 2.953 0 3.937 2.062l-2.078.922q-.562-1-1.797-1-.64 0-1.015.234-.36.219-.36.578 0 .672 1.266 1.016l1.39.328q1.423.36 2.141 1.094.72.719.72 1.781 0 .906-.532 1.61-.531.703-1.453 1.093t-2.047.39zm10.359 0q-1.485 0-2.64-.655-1.157-.672-1.798-1.813-.64-1.156-.64-2.578t.64-2.578q.64-1.156 1.797-1.813 1.156-.671 2.64-.671 1.454 0 2.61.671 1.156.657 1.797 1.813.64 1.156.64 2.578t-.64 2.578q-.64 1.14-1.797 1.813-1.156.656-2.61.656zm0-2.25q.703 0 1.297-.327.609-.344.953-.985.36-.64.36-1.484t-.36-1.469q-.344-.64-.953-.968-.594-.344-1.297-.344-.719 0-1.313.344-.594.328-.969.968-.359.625-.359 1.469 0 .828.36 1.484.374.641.968.985.594.328 1.313.328zm6.91-7.562h2.298v1.188h.156q.437-.688 1.187-1.078.766-.406 1.704-.406 1 0 1.75.484.75.469 1.062 1.187.469-.734 1.281-1.203.813-.468 1.907-.468 1.625 0 2.468 1 .86 1 .86 2.687v6.125h-2.422v-5.672q0-.89-.422-1.375-.422-.484-1.172-.484-.953 0-1.531.75-.563.75-.563 1.984v4.797h-2.437v-5.672q0-.89-.438-1.375-.437-.484-1.234-.484-.906 0-1.453.75t-.547 1.984v4.797h-2.453v-9.516zm21.465 9.813q-1.421 0-2.562-.64-1.14-.657-1.781-1.798-.64-1.156-.64-2.593 0-1.36.624-2.532.64-1.171 1.75-1.859 1.125-.687 2.516-.687 1.468 0 2.53.64 1.063.625 1.61 1.735.563 1.093.563 2.437 0 .422-.063.828h-7.14q.187 1.125.906 1.719.719.594 1.719.594.843 0 1.453-.36.61-.375.953-.984l1.984.969q-1.453 2.53-4.422 2.53zm2.25-6.203q-.03-.453-.328-.89-.28-.438-.797-.72-.515-.296-1.203-.296-.875 0-1.5.515-.625.5-.906 1.39h4.734zm3.17-3.61h2.75l1.641 6.172h.125l1.906-6.172h2.5l1.907 6.172h.125l1.64-6.172h2.703l-3.031 9.516h-2.64l-1.938-6.156h-.125l-1.922 6.156h-2.61l-3.03-9.516zm16.604-3.843h2.453v3.375l-.157 1.656h.157q.406-.672 1.187-1.078t1.703-.406q1.735 0 2.657 1.03.921 1.032.921 2.876v5.906H518v-5.61q0-.921-.5-1.421t-1.313-.5q-.968 0-1.593.781t-.625 1.922v4.828h-2.453v-13.36zm14.153 13.656q-1.516 0-2.485-.875-.969-.89-.969-2.328 0-.953.5-1.672.5-.734 1.375-1.125.891-.39 1.954-.39 1.468 0 2.515.421v-.406q0-.781-.594-1.266-.578-.484-1.578-.484-.672 0-1.297.312-.625.297-1.03.797l-1.563-1.234q.687-.89 1.734-1.375 1.047-.484 2.266-.484 2.187 0 3.328 1.015 1.14 1 1.14 2.938v5.859h-2.406v-.969h-.156q-.422.563-1.125.922-.703.344-1.61.344zm.578-1.906q1.062 0 1.687-.672.625-.688.625-1.594-.953-.453-2-.453-1.906 0-1.906 1.422 0 .578.406.937.422.36 1.188.36zm11.106 1.765q-.703 0-1.296-.218-.594-.22-.97-.594-.874-.844-.874-2.39v-4.376h-1.672v-2.094h1.672v-2.687h2.437v2.687h2.328v2.094h-2.328v3.938q0 .718.313 1.047.265.296.906.296.344 0 .578-.093.235-.094.61-.328v2.39q-.797.328-1.704.328zm-108.586 22.14q-1.485 0-2.64-.655-1.157-.672-1.798-1.813-.64-1.156-.64-2.578t.64-2.578q.64-1.156 1.797-1.813 1.156-.671 2.64-.671 1.454 0 2.61.671 1.156.657 1.797 1.813.64 1.156.64 2.578t-.64 2.578q-.64 1.14-1.797 1.813-1.156.656-2.61.656zm0-2.25q.703 0 1.297-.327.609-.344.953-.985.36-.64.36-1.484t-.36-1.469q-.344-.64-.953-.968-.594-.344-1.297-.344-.719 0-1.313.344-.593.328-.968.968-.36.625-.36 1.469 0 .828.36 1.484.375.641.968.985.594.328 1.313.328zm6.848-7.562h2.297v1.157h.14q.392-.61 1.142-1.032.75-.421 1.718-.421 1.282 0 2.328.64 1.063.64 1.657 1.797.593 1.156.593 2.625t-.593 2.625q-.594 1.14-1.657 1.781-1.046.64-2.328.64-.968 0-1.734-.405-.75-.407-1.125-1.032h-.14l.14 1.344v3.828h-2.438v-13.547zm4.86 7.563q.687 0 1.281-.36.61-.359.953-.984.36-.64.36-1.453 0-.828-.36-1.453-.344-.64-.953-.984-.594-.344-1.281-.344-.672 0-1.266.344-.594.343-.953.984-.344.625-.344 1.453 0 .813.344 1.453.36.625.953.985.594.359 1.266.359zm11.041 2.11q-.703 0-1.297-.22-.594-.218-.969-.593-.875-.844-.875-2.39v-4.376h-1.672v-2.094h1.672v-2.687h2.438v2.687h2.328v2.094h-2.328v3.938q0 .718.312 1.047.266.296.907.296.343 0 .578-.093.234-.094.61-.328v2.39q-.798.328-1.704.328zm5.048-10.72q-.656 0-1.125-.468-.468-.469-.468-1.11 0-.656.468-1.109.469-.469 1.125-.469.657 0 1.11.469.453.453.453 1.11 0 .64-.453 1.109t-1.11.469zm-1.234 1.047h2.437v9.516h-2.437v-9.516zm4.974 0h2.297v1.188h.156q.438-.688 1.188-1.078.765-.406 1.703-.406 1 0 1.75.484.75.469 1.062 1.187.47-.734 1.282-1.203.812-.468 1.906-.468 1.625 0 2.469 1 .859 1 .859 2.687v6.125h-2.422v-5.672q0-.89-.422-1.375-.422-.484-1.172-.484-.953 0-1.53.75-.563.75-.563 1.984v4.797h-2.438v-5.672q0-.89-.437-1.375-.438-.484-1.235-.484-.906 0-1.453.75t-.547 1.984v4.797h-2.453v-9.516zm18.387-1.046q-.657 0-1.125-.47-.47-.468-.47-1.109 0-.656.47-1.109.468-.469 1.125-.469.656 0 1.109.469.453.453.453 1.11 0 .64-.453 1.109t-1.11.469zm-1.235 1.046h2.438v9.516h-2.438v-9.516zm4.49 7.516l4.969-5.437h-4.813v-2.079h7.813v2l-4.953 5.438h5.11v2.078h-8.126v-2zm14.487 2.297q-1.422 0-2.563-.64-1.14-.657-1.781-1.798-.64-1.156-.64-2.593 0-1.36.624-2.532.64-1.171 1.75-1.859 1.125-.687 2.516-.687 1.469 0 2.531.64 1.063.625 1.61 1.735.562 1.093.562 2.437 0 .422-.063.828h-7.14q.187 1.125.906 1.719.719.594 1.719.594.844 0 1.453-.36.61-.375.953-.984l1.984.969q-1.453 2.53-4.421 2.53zm2.25-6.203q-.032-.453-.329-.89-.28-.438-.796-.72-.516-.296-1.204-.296-.875 0-1.5.515-.625.5-.906 1.39h4.735zm8.326 6.203q-1.282 0-2.344-.64-1.047-.641-1.656-1.782-.61-1.156-.61-2.625t.61-2.625q.61-1.156 1.656-1.797 1.062-.64 2.344-.64.968 0 1.718.421.75.422 1.141 1.032h.14l-.14-1.344v-3.656h2.422v13.359h-2.281v-1.14h-.14q-.376.624-1.142 1.03-.75.407-1.718.407zm.406-2.25q.687 0 1.281-.36.61-.359.953-.984.36-.64.36-1.453 0-.828-.36-1.453-.343-.64-.953-.984-.594-.344-1.281-.344-.672 0-1.266.344-.593.343-.953.984-.36.625-.36 1.453 0 .813.36 1.453.36.625.953.985.594.359 1.266.359zm6.085 1.953zm10.037.297q-1.437 0-2.578-.64-1.14-.641-1.781-1.798-.641-1.156-.641-2.609 0-1.469.64-2.61.641-1.14 1.782-1.796 1.14-.656 2.578-.656 1.578 0 2.719.687 1.14.672 1.64 1.922l-2.234.937q-.594-1.265-2.125-1.265-1.125 0-1.844.765-.718.766-.718 2.016 0 1.266.718 2.031.719.766 1.844.766 1.547 0 2.234-1.344l2.22.969q-.61 1.25-1.75 1.937-1.141.688-2.704.688zm10.768 0q-1.484 0-2.64-.656-1.157-.672-1.797-1.813-.64-1.156-.64-2.578t.64-2.578q.64-1.156 1.797-1.813 1.156-.671 2.64-.671 1.453 0 2.61.671 1.156.657 1.796 1.813.641 1.156.641 2.578t-.64 2.578q-.641 1.14-1.797 1.813-1.157.656-2.61.656zm0-2.25q.703 0 1.297-.328.61-.344.953-.985.36-.64.36-1.484t-.36-1.469q-.344-.64-.953-.968-.594-.344-1.297-.344-.719 0-1.312.344-.594.328-.969.968-.36.625-.36 1.469 0 .828.36 1.484.375.641.969.985.593.328 1.312.328zm11.005 2.25q-1.281 0-2.344-.64-1.047-.641-1.656-1.782-.61-1.156-.61-2.625t.61-2.625q.61-1.156 1.656-1.797 1.063-.64 2.344-.64.969 0 1.719.421.75.422 1.14 1.032h.141l-.14-1.344v-3.656h2.421v13.359h-2.281v-1.14h-.14q-.376.624-1.141 1.03-.75.407-1.719.407zm.406-2.25q.688 0 1.282-.36.609-.359.953-.984.359-.64.359-1.453 0-.828-.36-1.453-.343-.64-.952-.984-.594-.344-1.282-.344-.672 0-1.265.344-.594.343-.953.984-.36.625-.36 1.453 0 .813.36 1.453.359.625.953.985.593.359 1.265.359zm11.741 2.25q-1.422 0-2.562-.64-1.141-.657-1.782-1.798-.64-1.156-.64-2.593 0-1.36.625-2.532.64-1.171 1.75-1.859 1.125-.687 2.515-.687 1.47 0 2.532.64 1.062.625 1.609 1.735.563 1.093.563 2.437 0 .422-.063.828h-7.14q.187 1.125.906 1.719.718.594 1.718.594.844 0 1.454-.36.609-.375.953-.984l1.984.969q-1.453 2.53-4.422 2.53zm2.25-6.203q-.031-.453-.328-.89-.281-.438-.797-.72-.515-.296-1.203-.296-.875 0-1.5.515-.625.5-.906 1.39h4.734z"/><path fill="#fbbc05" d="M100.373 146.79c0-6.279 5.09-11.37 11.37-11.37h155.464a11.37 11.37 0 0 1 11.37 11.37v45.48c0 6.28-5.09 11.37-11.37 11.37H111.743c-6.28 0-11.37-5.09-11.37-11.37z" fill-rule="evenodd"/><path stroke="#5b0f00" stroke-linejoin="round" stroke-linecap="butt" d="M100.373 146.79h0c0-6.279 5.09-11.37 11.37-11.37h155.464a11.37 11.37 0 0 1 11.37 11.37v45.48c0 6.28-5.09 11.37-11.37 11.37H111.743h0c-6.28 0-11.37-5.09-11.37-11.37z"/><path fill="#666" d="M153.498 163.091h5.219q1.125 0 2.062.47.938.468 1.485 1.265.546.797.546 1.75 0 1.015-.5 1.75-.5.734-1.296 1.125v.156q1.046.375 1.656 1.187.625.813.625 1.938 0 1.11-.594 1.953-.578.844-1.578 1.313-1 .453-2.219.453h-5.406v-13.36zm5.031 5.453q.828 0 1.313-.453.5-.468.5-1.156 0-.672-.485-1.125-.468-.453-1.25-.453h-2.593v3.187h2.515zm.281 5.61q.922 0 1.422-.469.516-.484.516-1.25t-.516-1.25q-.515-.484-1.5-.484h-2.718v3.453h2.796zm9.337 2.594q-1.516 0-2.485-.875-.968-.891-.968-2.329 0-.953.5-1.671.5-.735 1.375-1.125.89-.391 1.953-.391 1.468 0 2.515.422v-.406q0-.782-.593-1.266-.579-.484-1.579-.484-.671 0-1.296.312-.625.297-1.032.797l-1.562-1.234q.687-.891 1.734-1.375 1.047-.485 2.266-.485 2.187 0 3.328 1.016 1.14 1 1.14 2.937v5.86h-2.406v-.97h-.156q-.422.563-1.125.923-.703.344-1.61.344zm.578-1.907q1.062 0 1.687-.672.625-.687.625-1.593-.953-.453-2-.453-1.906 0-1.906 1.421 0 .579.406.938.422.36 1.188.36zm10.59 1.907q-1.733 0-2.812-.704-1.062-.718-1.5-1.843l2.188-.953q.297.671.844 1.015.547.344 1.28.344.673 0 1.11-.219.453-.219.453-.703 0-.469-.406-.687-.406-.235-1.234-.422l-1.11-.25q-1.156-.282-1.921-1.016-.766-.734-.766-1.844 0-.812.484-1.468.5-.657 1.344-1 .86-.36 1.875-.36 2.953 0 3.938 2.063l-2.079.922q-.562-1-1.796-1-.641 0-1.016.234-.36.219-.36.578 0 .672 1.266 1.016l1.39.328q1.423.36 2.141 1.094.72.718.72 1.78 0 .907-.532 1.61-.531.703-1.453 1.094-.922.39-2.047.39zm10.266 0q-1.422 0-2.562-.641-1.141-.656-1.782-1.797-.64-1.156-.64-2.594 0-1.36.625-2.53.64-1.173 1.75-1.86 1.125-.688 2.515-.688 1.47 0 2.532.64 1.062.626 1.609 1.735.562 1.094.562 2.438 0 .422-.062.828h-7.14q.187 1.125.906 1.719.718.593 1.718.593.844 0 1.453-.36.61-.374.954-.983l1.984.968q-1.453 2.532-4.422 2.532zm2.25-6.204q-.031-.453-.328-.89-.281-.438-.797-.719-.516-.297-1.203-.297-.875 0-1.5.516-.625.5-.906 1.39h4.734zm4.233-7.453h2.453v13.36h-2.453v-13.36zm6.24 2.797q-.655 0-1.124-.469-.469-.468-.469-1.109 0-.656.469-1.11.469-.468 1.125-.468t1.11.469q.452.453.452 1.11 0 .64-.453 1.108-.453.47-1.11.47zm-1.234 1.047h2.438v9.516h-2.438v-9.516zm4.975 0h2.297v1.188h.156q.422-.688 1.203-1.079.797-.406 1.703-.406 1.719 0 2.61 1.047.906 1.047.906 2.86v5.906h-2.453v-5.61q0-.922-.47-1.422-.468-.5-1.296-.5-1 0-1.61.766-.593.766-.593 1.922v4.844h-2.453v-9.516zm15.643 9.813q-1.421 0-2.562-.641-1.14-.656-1.781-1.797-.64-1.156-.64-2.594 0-1.36.624-2.53.64-1.173 1.75-1.86 1.125-.688 2.516-.688 1.468 0 2.531.64 1.062.626 1.61 1.735.562 1.094.562 2.438 0 .422-.063.828h-7.14q.187 1.125.906 1.719.719.593 1.719.593.843 0 1.453-.36.61-.374.953-.983l1.984.968q-1.453 2.532-4.422 2.532zm2.25-6.204q-.03-.453-.328-.89-.28-.438-.797-.719-.515-.297-1.203-.297-.875 0-1.5.516-.625.5-.906 1.39h4.734z"/><path fill="#38761d" d="M99.462 39.478c0-5.688 4.611-10.3 10.3-10.3h165.605a10.3 10.3 0 0 1 10.3 10.3v41.197c0 5.688-4.611 10.299-10.3 10.299H109.761c-5.688 0-10.3-4.611-10.3-10.3z" fill-rule="evenodd"/><path stroke="#274e13" stroke-linejoin="round" stroke-linecap="butt" d="M99.462 39.478h0c0-5.688 4.611-10.3 10.3-10.3h165.605a10.3 10.3 0 0 1 10.3 10.3v41.197c0 5.688-4.611 10.299-10.3 10.299H109.761c-5.688 0-10.3-4.611-10.3-10.3z"/><path fill="#f3f3f3" d="M171.55 53.637h2.515v10.969h5.656v2.39h-8.172V53.637zm10.28 0h2.515v10.969H190v2.39h-8.172V53.637zm10.279 0h2.515v13.36h-2.515v-13.36zm5.215 3.844h2.297v1.187h.157q.421-.687 1.203-1.078.797-.406 1.703-.406 1.719 0 2.61 1.047.905 1.047.905 2.86v5.905h-2.453v-5.609q0-.922-.468-1.422-.47-.5-1.297-.5-1 0-1.61.766-.593.765-.593 1.922v4.843h-2.454v-9.515zm15.316 9.672q-.703 0-1.297-.22-.593-.218-.968-.593-.875-.844-.875-2.39v-4.375h-1.672V57.48h1.672v-2.688h2.437v2.688h2.328v2.094h-2.328v3.937q0 .719.313 1.047.265.297.906.297.344 0 .578-.094.234-.094.61-.328v2.39q-.798.329-1.704.329z"/><path fill="#6aa84f" d="M378.703 15.9h223.45v70.861c-111.726 0-111.726 27-223.45 11.659z" fill-rule="evenodd"/><path stroke="#38761d" stroke-linejoin="round" stroke-linecap="butt" d="M378.703 15.9h223.45v70.861c-111.726 0-111.726 27-223.45 11.659z"/><path fill="#fff" d="M453.832 58.547q-.985 0-1.735-.406-.75-.406-1.125-1.031h-.156v1.14h-2.297V44.892h2.453v3.656l-.156 1.344h.156q.39-.61 1.125-1.031.75-.422 1.735-.422 1.28 0 2.328.64 1.062.641 1.656 1.798.594 1.156.594 2.625 0 1.468-.594 2.625-.594 1.14-1.656 1.78-1.047.641-2.328.641zm-.438-2.25q.688 0 1.281-.359.61-.36.953-.984.36-.64.36-1.453 0-.829-.36-1.454-.343-.64-.953-.984-.593-.344-1.281-.344-.672 0-1.266.344-.593.344-.953.984-.36.625-.36 1.454 0 .812.36 1.453.36.625.953.984.594.36 1.266.36zm9.866 1.5l-4-9.062h2.766l2.468 5.922h.157l2.359-5.922h2.734l-5.89 13.547h-2.625l2.03-4.485zm11.955.61q-.703 0-1.297-.219t-.969-.594q-.875-.843-.875-2.39v-4.375h-1.671v-2.094h1.671v-2.688h2.438v2.688h2.328v2.094h-2.328v3.937q0 .719.312 1.047.266.297.907.297.343 0 .578-.094.234-.094.61-.328v2.39q-.798.329-1.704.329zm8.126.14q-1.421 0-2.562-.64-1.14-.656-1.781-1.797-.64-1.156-.64-2.594 0-1.36.624-2.531.64-1.172 1.75-1.86 1.125-.687 2.516-.687 1.468 0 2.531.64 1.062.626 1.61 1.735.562 1.094.562 2.438 0 .421-.063.828h-7.14q.187 1.125.906 1.718.719.594 1.719.594.843 0 1.453-.36.61-.374.953-.984l1.984.97q-1.453 2.53-4.422 2.53zm2.25-6.203q-.03-.453-.328-.89-.28-.438-.797-.719-.515-.297-1.203-.297-.875 0-1.5.516-.625.5-.906 1.39h4.734zm8.717 6.203q-1.437 0-2.578-.64-1.14-.64-1.781-1.797-.64-1.156-.64-2.61 0-1.468.64-2.609.64-1.14 1.781-1.797 1.14-.656 2.578-.656 1.578 0 2.72.688 1.14.671 1.64 1.921l-2.235.938q-.593-1.266-2.125-1.266-1.125 0-1.843.766-.72.766-.72 2.016 0 1.265.72 2.03.718.766 1.843.766 1.547 0 2.235-1.343l2.218.968q-.609 1.25-1.75 1.938-1.14.687-2.703.687zm10.769 0q-1.485 0-2.641-.656-1.156-.672-1.797-1.812-.64-1.157-.64-2.578 0-1.422.64-2.579.64-1.156 1.797-1.812 1.156-.672 2.64-.672 1.454 0 2.61.672 1.156.656 1.797 1.812.64 1.157.64 2.579 0 1.421-.64 2.578-.64 1.14-1.797 1.812-1.156.656-2.61.656zm0-2.25q.703 0 1.296-.328.61-.343.954-.984.359-.64.359-1.484t-.36-1.47q-.343-.64-.953-.968-.593-.344-1.296-.344-.72 0-1.313.344-.594.328-.969.969-.36.625-.36 1.469 0 .828.36 1.484.375.64.969.984.594.328 1.313.328zm11.004 2.25q-1.28 0-2.343-.64-1.047-.64-1.657-1.781-.609-1.157-.609-2.625 0-1.47.61-2.625.609-1.157 1.656-1.797 1.062-.64 2.343-.64.97 0 1.72.421.75.422 1.14 1.031h.14l-.14-1.344v-3.656h2.422v13.36h-2.282V57.11h-.14q-.375.625-1.14 1.031-.75.406-1.72.406zm.407-2.25q.687 0 1.28-.359.61-.36.954-.984.36-.64.36-1.453 0-.829-.36-1.454-.344-.64-.953-.984-.594-.344-1.281-.344-.672 0-1.266.344t-.953.984q-.36.625-.36 1.454 0 .812.36 1.453.36.625.953.984.594.36 1.266.36zm11.74 2.25q-1.421 0-2.562-.64-1.14-.656-1.781-1.797-.64-1.156-.64-2.594 0-1.36.624-2.531.64-1.172 1.75-1.86 1.125-.687 2.516-.687 1.468 0 2.531.64 1.062.626 1.61 1.735.562 1.094.562 2.438 0 .421-.063.828h-7.14q.187 1.125.906 1.718.719.594 1.719.594.843 0 1.453-.36.61-.374.953-.984l1.984.97q-1.453 2.53-4.422 2.53zm2.25-6.203q-.03-.453-.328-.89-.28-.438-.797-.719-.515-.297-1.203-.297-.875 0-1.5.516-.625.5-.906 1.39h4.734z"/><path d="M278.577 169.53h51.292v.064h51.291"/><path stroke="#666" stroke-width="2" stroke-linejoin="round" stroke-linecap="butt" d="M278.577 169.53h51.292v.064h39.291"/><path fill="#666" stroke="#666" stroke-width="2" stroke-linecap="butt" d="M369.16 172.897l9.076-3.303-9.076-3.304z" fill-rule="evenodd"/><path d="M285.667 60.076h46.517v.063h46.522"/><path stroke="#666" stroke-width="2" stroke-linejoin="round" stroke-linecap="butt" d="M285.667 60.076h46.517v.063h34.522"/><path fill="#666" stroke="#666" stroke-width="2" stroke-linecap="butt" d="M366.706 63.443l9.076-3.304-9.076-3.303z" fill-rule="evenodd"/><path fill="#dd4a68" d="M381.16 246.739h223.45v68.396c-111.726 0-111.726 26.061-223.45 11.254z" fill-rule="evenodd"/><path stroke="#85200c" stroke-linejoin="round" stroke-linecap="butt" d="M381.16 246.739h223.45v68.396c-111.726 0-111.726 26.061-223.45 11.254z"/><path fill="#f3f3f3" d="M463.41 267.341h2.297v1.188h.157q.437-.688 1.187-1.078.766-.406 1.703-.406 1 0 1.75.484.75.469 1.063 1.187.468-.734 1.28-1.203.813-.468 1.907-.468 1.625 0 2.469 1 .86 1 .86 2.687v6.125h-2.423v-5.672q0-.89-.421-1.375-.422-.484-1.172-.484-.953 0-1.532.75-.562.75-.562 1.984v4.797h-2.438v-5.672q0-.89-.437-1.375-.438-.484-1.234-.484-.907 0-1.454.75-.546.75-.546 1.984v4.797h-2.454v-9.516zm21.559 9.813q-1.485 0-2.64-.656-1.157-.672-1.798-1.813-.64-1.156-.64-2.578t.64-2.578q.64-1.156 1.797-1.813 1.156-.671 2.64-.671 1.454 0 2.61.671 1.156.657 1.797 1.813.64 1.156.64 2.578t-.64 2.578q-.64 1.14-1.797 1.813-1.156.656-2.61.656zm0-2.25q.703 0 1.297-.328.609-.344.953-.985.36-.64.36-1.484t-.36-1.469q-.344-.64-.953-.968-.594-.344-1.297-.344-.719 0-1.313.344-.594.328-.969.968-.359.625-.359 1.47 0 .827.36 1.483.375.641.968.985.594.328 1.313.328zm10.536 2.25q-1.735 0-2.813-.703-1.062-.719-1.5-1.844l2.188-.953q.297.672.844 1.016.546.343 1.28.343.673 0 1.11-.218.453-.22.453-.704 0-.468-.406-.687-.406-.234-1.234-.422l-1.11-.25q-1.156-.281-1.922-1.016-.765-.734-.765-1.843 0-.813.484-1.47.5-.655 1.344-1 .86-.358 1.875-.358 2.953 0 3.937 2.062l-2.078.922q-.562-1-1.797-1-.64 0-1.015.234-.36.22-.36.578 0 .672 1.266 1.016l1.39.328q1.423.36 2.141 1.094.72.719.72 1.781 0 .906-.532 1.61-.531.703-1.453 1.093t-2.047.39zm9.937-.14q-.703 0-1.297-.22-.594-.218-.969-.593-.875-.844-.875-2.39v-4.376h-1.672v-2.094h1.672v-2.687h2.438v2.687h2.328v2.094h-2.328v3.938q0 .718.312 1.047.266.296.907.296.343 0 .578-.093.234-.094.609-.328v2.39q-.797.328-1.703.328zm3.658-13.516h2.453v13.36H509.1v-13.36zm7.819 12.906l-4-9.063h2.766l2.468 5.922h.157l2.359-5.922h2.734l-5.89 13.547h-2.625l2.03-4.484zm-88.152 22.75q-1.485 0-2.64-.656-1.157-.672-1.798-1.813-.64-1.156-.64-2.578t.64-2.578q.64-1.156 1.797-1.813 1.156-.671 2.64-.671 1.454 0 2.61.671 1.156.657 1.797 1.813.64 1.156.64 2.578t-.64 2.578q-.64 1.14-1.797 1.813-1.156.656-2.61.656zm0-2.25q.703 0 1.297-.328.609-.344.953-.985.36-.64.36-1.484t-.36-1.469q-.344-.64-.953-.968-.594-.344-1.297-.344-.719 0-1.313.344-.593.328-.968.968-.36.625-.36 1.47 0 .827.36 1.483.375.641.968.985.594.328 1.313.328zm6.848-7.563h2.297v1.157h.14q.392-.61 1.142-1.032.75-.421 1.718-.421 1.282 0 2.328.64 1.063.64 1.657 1.797.593 1.156.593 2.625t-.593 2.625q-.594 1.14-1.657 1.781-1.046.64-2.328.64-.968 0-1.734-.405-.75-.407-1.125-1.032h-.14l.14 1.344v3.828h-2.438v-13.547zm4.86 7.563q.687 0 1.281-.36.61-.359.953-.984.36-.64.36-1.453 0-.828-.36-1.453-.344-.64-.953-.984-.594-.344-1.281-.344-.672 0-1.266.344-.594.343-.953.984-.344.625-.344 1.453 0 .813.344 1.453.36.625.953.985.594.359 1.266.359zm11.041 2.11q-.703 0-1.297-.22-.594-.218-.969-.593-.875-.844-.875-2.39v-4.376h-1.672v-2.094h1.672v-2.687h2.438v2.687h2.328v2.094h-2.328v3.938q0 .718.312 1.047.266.296.907.296.343 0 .578-.093.234-.094.61-.328v2.39q-.798.328-1.704.328zm5.048-10.72q-.656 0-1.125-.468-.468-.469-.468-1.11 0-.656.468-1.109.469-.469 1.125-.469.657 0 1.11.47.453.452.453 1.108 0 .641-.453 1.11-.453.469-1.11.469zm-1.234 1.047h2.437v9.516h-2.437v-9.516zm4.974 0h2.297v1.188h.156q.438-.688 1.188-1.078.765-.406 1.703-.406 1 0 1.75.484.75.469 1.062 1.187.47-.734 1.282-1.203.812-.468 1.906-.468 1.625 0 2.469 1 .859 1 .859 2.687v6.125h-2.422v-5.672q0-.89-.422-1.375-.422-.484-1.172-.484-.953 0-1.53.75-.563.75-.563 1.984v4.797h-2.438v-5.672q0-.89-.437-1.375-.438-.484-1.235-.484-.906 0-1.453.75t-.547 1.984v4.797h-2.453v-9.516zm18.387-1.046q-.657 0-1.125-.47-.47-.468-.47-1.109 0-.656.47-1.109.468-.469 1.125-.469.656 0 1.109.47.453.452.453 1.108 0 .641-.453 1.11-.453.469-1.11.469zm-1.235 1.046h2.438v9.516h-2.438v-9.516zm4.49 7.516l4.969-5.437h-4.813v-2.079h7.813v2l-4.953 5.438h5.11v2.078h-8.126v-2zm14.487 2.297q-1.422 0-2.563-.64-1.14-.657-1.781-1.798-.64-1.156-.64-2.593 0-1.36.624-2.532.64-1.171 1.75-1.859 1.125-.687 2.516-.687 1.469 0 2.531.64 1.063.625 1.61 1.735.562 1.093.562 2.437 0 .422-.063.828h-7.14q.187 1.125.906 1.719.719.594 1.719.594.844 0 1.453-.36.61-.375.953-.984l1.984.969q-1.453 2.53-4.421 2.53zm2.25-6.203q-.032-.453-.329-.89-.28-.438-.796-.72-.516-.296-1.204-.296-.875 0-1.5.515-.625.5-.906 1.39h4.735zm8.326 6.203q-1.282 0-2.344-.64-1.047-.641-1.656-1.782-.61-1.156-.61-2.625t.61-2.625q.61-1.156 1.656-1.797 1.062-.64 2.344-.64.968 0 1.718.421.75.422 1.141 1.032h.14l-.14-1.344v-3.656h2.422v13.36h-2.281v-1.142h-.14q-.376.625-1.142 1.032-.75.406-1.718.406zm.406-2.25q.687 0 1.281-.36.61-.359.953-.984.36-.64.36-1.453 0-.828-.36-1.453-.343-.64-.953-.984-.594-.344-1.281-.344-.672 0-1.266.344-.593.343-.953.984-.36.625-.36 1.453 0 .813.36 1.453.36.625.953.985.594.359 1.266.359zm6.085 1.953zm10.037.297q-1.437 0-2.578-.64-1.14-.641-1.781-1.798-.641-1.156-.641-2.609 0-1.469.64-2.61.641-1.14 1.782-1.796 1.14-.656 2.578-.656 1.578 0 2.719.687 1.14.672 1.64 1.922l-2.234.937q-.594-1.265-2.125-1.265-1.125 0-1.844.765-.718.766-.718 2.016 0 1.266.718 2.031.719.766 1.844.766 1.547 0 2.234-1.344l2.22.969q-.61 1.25-1.75 1.937-1.141.688-2.704.688zm10.768 0q-1.484 0-2.64-.656-1.157-.672-1.797-1.813-.64-1.156-.64-2.578t.64-2.578q.64-1.156 1.797-1.813 1.156-.671 2.64-.671 1.453 0 2.61.671 1.156.657 1.796 1.813.641 1.156.641 2.578t-.64 2.578q-.641 1.14-1.797 1.813-1.157.656-2.61.656zm0-2.25q.703 0 1.297-.328.61-.344.953-.985.36-.64.36-1.484t-.36-1.469q-.344-.64-.953-.968-.594-.344-1.297-.344-.719 0-1.312.344-.594.328-.969.968-.36.625-.36 1.47 0 .827.36 1.483.375.641.969.985.593.328 1.312.328zm11.005 2.25q-1.281 0-2.344-.64-1.047-.641-1.656-1.782-.61-1.156-.61-2.625t.61-2.625q.61-1.156 1.656-1.797 1.063-.64 2.344-.64.969 0 1.719.421.75.422 1.14 1.032h.141l-.14-1.344v-3.656h2.421v13.36h-2.281v-1.142h-.14q-.376.625-1.141 1.032-.75.406-1.719.406zm.406-2.25q.688 0 1.282-.36.609-.359.953-.984.359-.64.359-1.453 0-.828-.36-1.453-.343-.64-.952-.984-.594-.344-1.282-.344-.672 0-1.265.344-.594.343-.953.984-.36.625-.36 1.453 0 .813.36 1.453.359.625.953.985.593.359 1.265.359zm11.741 2.25q-1.422 0-2.562-.64-1.141-.657-1.782-1.798-.64-1.156-.64-2.593 0-1.36.625-2.532.64-1.171 1.75-1.859 1.125-.687 2.515-.687 1.47 0 2.532.64 1.062.625 1.609 1.735.563 1.093.563 2.437 0 .422-.063.828h-7.14q.187 1.125.906 1.719.718.594 1.718.594.844 0 1.454-.36.609-.375.953-.984l1.984.969q-1.453 2.53-4.422 2.53zm2.25-6.203q-.031-.453-.328-.89-.281-.438-.797-.72-.515-.296-1.203-.296-.875 0-1.5.515-.625.5-.906 1.39h4.734z"/><path fill="#dd4a68" d="M99.479 266.642c0-6.28 5.09-11.37 11.37-11.37h155.465a11.37 11.37 0 0 1 11.37 11.37v45.48c0 6.28-5.09 11.37-11.37 11.37H110.849c-6.28 0-11.37-5.09-11.37-11.37z" fill-rule="evenodd"/><path stroke="#5b0f00" stroke-linejoin="round" stroke-linecap="butt" d="M99.479 266.642h0c0-6.28 5.09-11.37 11.37-11.37h155.465a11.37 11.37 0 0 1 11.37 11.37v45.48c0 6.28-5.09 11.37-11.37 11.37H110.849h0c-6.28 0-11.37-5.09-11.37-11.37z"/><path fill="#f3f3f3" d="M170.178 282.943h4.516q2.094 0 3.64.844 1.548.844 2.376 2.36.843 1.5.843 3.484 0 1.968-.843 3.484-.828 1.516-2.375 2.36-1.547.828-3.641.828h-4.516v-13.36zm4.407 10.969q2.156 0 3.297-1.14 1.14-1.157 1.14-3.141 0-2-1.14-3.14-1.141-1.157-3.297-1.157h-1.891v8.578h1.89zm9.362-10.969h8.468v2.39h-5.953v3.25h5.36v2.391h-5.36v5.329h-2.515v-13.36zm17.065 13.656q-1.922 0-3.532-.906-1.609-.906-2.562-2.5-.953-1.594-.953-3.562 0-1.985.953-3.578.953-1.594 2.562-2.5 1.61-.907 3.532-.907 1.578 0 2.875.547t2.218 1.563l-1.734 1.703q-.672-.719-1.484-1.063-.813-.36-1.89-.36-1.235 0-2.267.58-1.015.562-1.625 1.624-.609 1.047-.609 2.39 0 1.344.61 2.391.624 1.047 1.656 1.625 1.047.563 2.265.563 1.875 0 3.063-1.094.375-.344.656-.86.281-.53.406-1.14h-4.187v-2.14h6.547q.125.515.125 1.171 0 1.328-.407 2.47-.39 1.124-1.218 1.983-.89.97-2.157 1.485-1.265.515-2.843.515z"/><path d="M604.61 289.383c12.5 0 24.991-29.96 25-59.921.007-29.96-12.47-59.921-24.938-59.921"/><path stroke="#ea4335" stroke-width="2" stroke-linejoin="round" stroke-linecap="butt" stroke-dasharray="8.0,6.0" d="M604.61 289.383c12.5 0 24.991-29.96 25-59.921.003-14.98-3.114-29.96-7.79-41.196-1.17-2.809-2.437-5.384-3.776-7.666a43.284 43.284 0 0 0-2.062-3.196 34.437 34.437 0 0 0-1.066-1.42l-.067-.084"/><path fill="#ea4335" stroke="#ea4335" stroke-width="2" stroke-linecap="butt" d="M616.6 173.098l-9.448-2.008 5.946 7.611z" fill-rule="evenodd"/><path fill="#ea4335" d="M380.488 369.268h223.45v68.396c-111.725 0-111.725 26.06-223.45 11.254z" fill-rule="evenodd"/><path stroke="#85200c" stroke-linejoin="round" stroke-linecap="butt" d="M380.488 369.268h223.45v68.396c-111.725 0-111.725 26.06-223.45 11.254z"/><path fill="#f3f3f3" d="M428.095 410.683q-1.484 0-2.64-.656-1.157-.672-1.798-1.813-.64-1.156-.64-2.578t.64-2.578q.641-1.156 1.797-1.813 1.157-.672 2.64-.672 1.454 0 2.61.672 1.157.657 1.797 1.813.64 1.156.64 2.578t-.64 2.578q-.64 1.14-1.797 1.813-1.156.656-2.61.656zm0-2.25q.703 0 1.297-.328.61-.344.953-.985.36-.64.36-1.484t-.36-1.469q-.344-.64-.953-.969-.594-.343-1.297-.343-.719 0-1.313.343-.593.329-.968.97-.36.624-.36 1.468 0 .828.36 1.484.375.641.968.985.594.328 1.313.328zm6.848-7.563h2.297v1.157h.141q.39-.61 1.14-1.032.75-.422 1.72-.422 1.28 0 2.327.641 1.063.64 1.657 1.797.593 1.156.593 2.625t-.593 2.625q-.594 1.14-1.657 1.781-1.046.64-2.328.64-.968 0-1.734-.405-.75-.407-1.125-1.032h-.14l.14 1.344v3.828h-2.438V400.87zm4.86 7.563q.687 0 1.281-.36.61-.359.953-.984.36-.64.36-1.453 0-.828-.36-1.453-.344-.64-.953-.985-.594-.343-1.281-.343-.672 0-1.266.343-.594.344-.953.985-.344.625-.344 1.453 0 .812.344 1.453.36.625.953.984.594.36 1.266.36zm11.041 2.11q-.703 0-1.297-.22-.594-.218-.969-.593-.875-.844-.875-2.39v-4.376h-1.671v-2.094h1.671v-2.687h2.438v2.687h2.328v2.094h-2.328v3.938q0 .718.312 1.046.266.297.907.297.343 0 .578-.093.234-.094.61-.329v2.391q-.798.328-1.704.328zm5.048-10.72q-.656 0-1.125-.468-.468-.469-.468-1.11 0-.656.468-1.109.47-.469 1.125-.469.657 0 1.11.469.453.453.453 1.11 0 .64-.453 1.109-.453.468-1.11.468zm-1.234 1.047h2.438v9.516h-2.438v-9.516zm4.974 0h2.297v1.188h.156q.438-.688 1.188-1.078.765-.407 1.703-.407 1 0 1.75.485.75.469 1.062 1.187.47-.734 1.282-1.203.812-.469 1.906-.469 1.625 0 2.469 1 .86 1 .86 2.688v6.125h-2.423v-5.672q0-.89-.422-1.375-.422-.484-1.172-.484-.953 0-1.53.75-.563.75-.563 1.984v4.797h-2.438v-5.672q0-.89-.437-1.375-.438-.484-1.235-.484-.906 0-1.453.75t-.547 1.984v4.797h-2.453v-9.516zm18.387-1.047q-.657 0-1.125-.468-.469-.469-.469-1.11 0-.656.469-1.109.468-.469 1.125-.469.656 0 1.11.469.452.453.452 1.11 0 .64-.453 1.109-.453.468-1.11.468zm-1.235 1.047h2.438v9.516h-2.438v-9.516zm4.49 7.516l4.969-5.438h-4.813v-2.078h7.813v2l-4.953 5.438h5.11v2.078h-8.126v-2zm14.487 2.297q-1.422 0-2.563-.64-1.14-.657-1.781-1.798-.64-1.156-.64-2.593 0-1.36.624-2.532.64-1.172 1.75-1.859 1.125-.688 2.516-.688 1.469 0 2.531.641 1.063.625 1.61 1.734.562 1.094.562 2.438 0 .422-.063.828h-7.14q.187 1.125.906 1.719.719.594 1.719.594.844 0 1.453-.36.61-.375.953-.984l1.984.969q-1.453 2.53-4.421 2.53zm2.25-6.203q-.032-.453-.329-.89-.28-.438-.796-.72-.516-.297-1.204-.297-.875 0-1.5.516-.625.5-.906 1.39h4.735zm8.326 6.203q-1.281 0-2.344-.64-1.047-.641-1.656-1.782-.61-1.156-.61-2.625t.61-2.625q.61-1.156 1.656-1.797 1.063-.64 2.344-.64.969 0 1.719.421.75.422 1.14 1.032h.14l-.14-1.344v-3.656h2.422v13.359h-2.281v-1.14h-.14q-.376.624-1.141 1.03-.75.407-1.72.407zm.406-2.25q.688 0 1.281-.36.61-.359.953-.984.36-.64.36-1.453 0-.828-.36-1.453-.343-.64-.953-.985-.593-.343-1.28-.343-.673 0-1.267.343-.593.344-.953.985-.359.625-.359 1.453 0 .812.36 1.453.359.625.952.984.594.36 1.266.36zm6.085 1.953zm10.037.297q-1.437 0-2.578-.64-1.14-.641-1.781-1.798-.64-1.156-.64-2.609 0-1.469.64-2.61.64-1.14 1.781-1.796 1.14-.657 2.578-.657 1.578 0 2.719.688 1.14.672 1.64 1.922l-2.234.937q-.594-1.265-2.125-1.265-1.125 0-1.844.765-.718.766-.718 2.016 0 1.266.718 2.031.72.766 1.844.766 1.547 0 2.235-1.344l2.218.969q-.61 1.25-1.75 1.937-1.14.688-2.703.688zm10.768 0q-1.484 0-2.64-.656-1.157-.672-1.797-1.813-.64-1.156-.64-2.578t.64-2.578q.64-1.156 1.797-1.813 1.156-.672 2.64-.672 1.453 0 2.61.672 1.156.657 1.797 1.813.64 1.156.64 2.578t-.64 2.578q-.641 1.14-1.797 1.813-1.157.656-2.61.656zm0-2.25q.703 0 1.297-.328.61-.344.953-.985.36-.64.36-1.484t-.36-1.469q-.343-.64-.953-.969-.594-.343-1.297-.343-.718 0-1.312.343-.594.329-.969.97-.36.624-.36 1.468 0 .828.36 1.484.375.641.969.985.594.328 1.312.328zm11.005 2.25q-1.281 0-2.344-.64-1.046-.641-1.656-1.782-.61-1.156-.61-2.625t.61-2.625q.61-1.156 1.656-1.797 1.063-.64 2.344-.64.969 0 1.719.421.75.422 1.14 1.032h.141l-.14-1.344v-3.656h2.421v13.359h-2.28v-1.14h-.141q-.375.624-1.141 1.03-.75.407-1.719.407zm.406-2.25q.688 0 1.282-.36.61-.359.953-.984.36-.64.36-1.453 0-.828-.36-1.453-.344-.64-.953-.985-.594-.343-1.282-.343-.671 0-1.265.343-.594.344-.953.985-.36.625-.36 1.453 0 .812.36 1.453.36.625.953.984.594.36 1.265.36zm11.741 2.25q-1.422 0-2.562-.64-1.14-.657-1.781-1.798-.641-1.156-.641-2.593 0-1.36.625-2.532.64-1.172 1.75-1.859 1.125-.688 2.516-.688 1.468 0 2.53.641 1.063.625 1.61 1.734.563 1.094.563 2.438 0 .422-.063.828h-7.14q.187 1.125.906 1.719.719.594 1.719.594.843 0 1.453-.36.609-.375.953-.984l1.984.969q-1.453 2.53-4.422 2.53zm2.25-6.203q-.031-.453-.328-.89-.281-.438-.797-.72-.515-.297-1.203-.297-.875 0-1.5.516-.625.5-.906 1.39h4.734z"/><path fill="#ea4335" d="M102.932 389.146c0-6.28 5.09-11.37 11.37-11.37h155.464a11.37 11.37 0 0 1 11.37 11.37v45.48c0 6.28-5.09 11.37-11.37 11.37H114.302c-6.28 0-11.37-5.09-11.37-11.37z" fill-rule="evenodd"/><path stroke="#5b0f00" stroke-linejoin="round" stroke-linecap="butt" d="M102.932 389.146h0c0-6.28 5.09-11.37 11.37-11.37h155.464a11.37 11.37 0 0 1 11.37 11.37v45.48c0 6.28-5.09 11.37-11.37 11.37H114.302h0c-6.28 0-11.37-5.09-11.37-11.37z"/><path fill="#f3f3f3" d="M177.596 405.447h8.468v2.39h-5.953v3.25h5.36v2.391h-5.36v5.328h-2.515v-13.36zm13.393 2.39h-3.735v-2.39h9.985v2.39h-3.735v10.97h-2.515v-10.97zm8.267-2.39h2.515v10.968h5.656v2.391h-8.171v-13.36z"/><path d="M277.684 289.383h51.738v.063h51.726"/><path stroke="#666" stroke-width="2" stroke-linejoin="round" stroke-linecap="butt" d="M277.684 289.383h51.738v.063h39.726"/><path fill="#666" stroke="#666" stroke-width="2" stroke-linecap="butt" d="M369.148 292.749l9.077-3.303-9.077-3.304z" fill-rule="evenodd"/><path d="M281.136 411.886h49.676v.063h49.663"/><path stroke="#666" stroke-width="2" stroke-linejoin="round" stroke-linecap="butt" d="M281.136 411.886h49.676v.063h37.663"/><path fill="#666" stroke="#666" stroke-width="2" stroke-linecap="butt" d="M368.475 415.253l9.076-3.304-9.076-3.303z" fill-rule="evenodd"/><path d="M100.373 169.53c-12.947 0-25.784 29.961-25.894 59.922-.11 29.96 12.506 59.921 25.012 59.921"/><path stroke="#34a853" stroke-width="2" stroke-linejoin="round" stroke-linecap="butt" stroke-dasharray="8.0,6.0" d="M100.373 169.53c-12.947 0-25.784 29.961-25.894 59.922-.055 14.98 3.071 29.96 7.775 41.196 1.176 2.809 2.45 5.383 3.798 7.666a43.294 43.294 0 0 0 2.074 3.196c.354.494.711.967 1.072 1.42l.095.118"/><path fill="#34a853" stroke="#34a853" stroke-width="2" stroke-linecap="butt" d="M87.552 285.855l9.454 1.977-5.971-7.592z" fill-rule="evenodd"/><path d="M603.937 411.912c24.179 0 48.274-60.59 48.357-121.181.083-60.59-23.848-121.181-47.695-121.181"/><path stroke="#ea4335" stroke-width="2" stroke-linejoin="round" stroke-linecap="butt" stroke-dasharray="8.0,6.0" d="M603.937 411.912c24.179 0 48.274-60.59 48.357-121.181.041-30.295-5.92-60.59-14.874-83.312-4.476-11.36-9.7-20.828-15.297-27.455-1.399-1.657-2.82-3.136-4.26-4.423a34.238 34.238 0 0 0-1.627-1.366l-.432-.332"/><path fill="#ea4335" stroke="#ea4335" stroke-width="2" stroke-linecap="butt" d="M616.986 170.758l-9.657-.162 7.293 6.332z" fill-rule="evenodd"/><path d="M697.791 145.717l.063 280.126H650.17l-.063-280.126z"/><path fill="#ea4335" d="M666.145 233.83q0-1.469.734-2.672t2.046-1.906q1.312-.688 3-.688 1.672 0 2.984.688 1.329.703 2.063 1.906.735 1.203.735 2.672 0 1.11-.484 1.953-.468.86-1.171 1.313v.172l1.531-.172h4.172v2.781H666.49v-2.61h1.296v-.171q-.703-.422-1.172-1.297-.469-.86-.47-1.969zm2.578.469q0 .797.407 1.469.406.687 1.125 1.093.734.407 1.672.407.937 0 1.656-.407.734-.406 1.125-1.093.39-.672.39-1.47 0-.765-.39-1.452-.392-.672-1.126-1.078-.719-.407-1.656-.407-.938 0-1.672.407-.719.406-1.125 1.078-.406.687-.406 1.453zm-2.575 13.427q0-1.625.75-2.938.749-1.297 2.061-2.031 1.313-.734 2.953-.734 1.547 0 2.876.718 1.343.735 2.125 2.016.797 1.281.798 2.86 0 1.687-.734 2.89-.719 1.219-1.984 1.844-1.25.64-2.781.64-.5 0-.938-.062l-.002-8.172q-1.312.219-1.984 1.031-.656.828-.656 1.969 0 .969.407 1.656.422.688 1.125 1.094l-1.109 2.266q-2.906-1.657-2.907-5.047zm7.11 2.578q.5-.047 1-.375.515-.328.843-.922.328-.578.328-1.375 0-1-.594-1.719-.578-.703-1.578-1.031v5.422zm-7.107 10.035q0-1.672.75-3 .765-1.328 2.077-2.062 1.312-.735 2.953-.735 1.625 0 2.937.735 1.329.734 2.079 2.062.766 1.328.766 3t-.765 2.984q-.75 1.329-2.077 2.063-1.313.734-2.938.734-1.64 0-2.953-.734t-2.079-2.063q-.75-1.312-.75-2.984zm2.578 0q0 .813.375 1.5.391.688 1.11 1.094.734.406 1.719.406.969 0 1.687-.406.719-.406 1.094-1.094.39-.687.39-1.5 0-.797-.391-1.484-.375-.688-1.094-1.11-.719-.406-1.688-.406-.953 0-1.703.406-.734.422-1.124 1.11-.375.687-.375 1.484zm8.642 7.836l.001 2.625h-1.313v.172q.704.437 1.173 1.296.484.86.484 1.97 0 1.468-.733 2.671-.734 1.203-2.062 1.875-1.313.688-2.985.688-1.687 0-3-.688-1.312-.672-2.047-1.875-.735-1.203-.735-2.672 0-1.11.468-1.984.469-.86 1.172-1.281v-.172l-1.531.172h-4.375l-.001-2.797h15.484zm-8.639 5.562q0 .797.407 1.469.406.687 1.125 1.094.734.406 1.672.406.937 0 1.656-.406.734-.407 1.125-1.094.39-.672.39-1.469 0-.765-.391-1.453-.39-.672-1.125-1.078-.719-.406-1.657-.406-.937 0-1.671.406-.719.406-1.125 1.078-.406.688-.406 1.453zm-2.403 12.623q0-.797.234-1.484.25-.688.687-1.11.953-1 2.718-1h5.016v-1.906h2.39v1.906h3.079v2.797h-3.078v2.656h-2.39v-2.656h-4.5q-.829 0-1.188.36-.343.296-.343 1.015 0 .406.11.672.109.266.359.703h-2.735q-.36-.922-.36-1.953zm12.25 5.759q0-.734.532-1.281.531-.532 1.281-.532.734 0 1.25.532.531.547.532 1.28 0 .75-.531 1.267-.516.53-1.25.53-.75 0-1.282-.53-.531-.516-.531-1.266zm-1.203-1.406l.001 2.797h-10.875v-2.797h10.874zm.002 5.693v2.625h-1.36l.001.172q.781.516 1.235 1.375.469.875.469 1.937 0 1.141-.547 2-.546.86-1.374 1.22.86.53 1.39 1.452.532.938.532 2.188 0 1.86-1.14 2.828-1.14.969-3.078.969h-7v-2.766h6.484q1.016 0 1.563-.484.562-.485.562-1.328 0-1.094-.86-1.75-.86-.641-2.266-.641h-5.484v-2.797h6.484q1.015 0 1.562-.5.562-.5.562-1.422 0-1.015-.86-1.656-.859-.625-2.265-.625h-5.485v-2.797h10.875zm1.208 21.008q0-.734.53-1.281.532-.531 1.282-.531.734 0 1.25.53.531.548.531 1.282 0 .75-.53 1.266-.516.531-1.25.531-.75 0-1.282-.531-.531-.516-.531-1.266zm-1.204-1.406v2.797h-10.874v-2.797h10.874zm-8.592 5.146l6.235 5.672-.001-5.5h2.36l.001 8.938h-2.28l-6.221-5.672.001 5.844h-2.375l-.002-9.282h2.282zm-2.622 16.555q0-1.625.75-2.937.75-1.297 2.062-2.031 1.312-.735 2.953-.735 1.546 0 2.875.719 1.344.734 2.125 2.016.797 1.28.798 2.859 0 1.688-.734 2.89-.718 1.22-1.984 1.844-1.25.641-2.781.641-.5 0-.938-.062l-.001-8.172q-1.313.218-1.985 1.03-.656.829-.655 1.97 0 .968.406 1.656.422.687 1.126 1.094l-1.11 2.265q-2.906-1.656-2.907-5.047zm7.11 2.579q.5-.047 1-.375.516-.329.844-.922.328-.578.327-1.375 0-1-.594-1.72-.578-.702-1.578-1.03l.001 5.422z"/><path d="M9.024 425.197l.094-409.071h45.795l-.094 409.07z"/><path fill="#34a853" d="M39.783 259.09q0 1.672-.75 3-.766 1.329-2.079 2.063-1.313.734-2.953.734-1.625 0-2.938-.734-1.327-.734-2.077-2.063-.766-1.328-.765-3 0-1.671.766-2.984.75-1.328 2.079-2.062 1.312-.735 2.937-.735 1.641 0 2.953.735 1.313.734 2.078 2.062.75 1.313.75 2.984zm-2.578 0q0-.812-.374-1.5-.39-.687-1.11-1.093-.734-.407-1.718-.407-.969 0-1.688.407-.719.406-1.094 1.093-.39.688-.39 1.5 0 .797.39 1.485.374.687 1.093 1.11.719.405 1.687.405.954 0 1.704-.406.734-.422 1.125-1.11.375-.687.375-1.484zm-8.639-7.835l.001-2.625h1.313v-.172q-.703-.438-1.172-1.297-.484-.86-.484-1.969 0-1.468.735-2.672.735-1.203 2.063-1.875 1.313-.687 2.985-.687 1.687 0 3 .687 1.312.672 2.046 1.875.734 1.204.734 2.672 0 1.11-.47 1.985-.469.86-1.172 1.28v.173l1.531-.172h4.375v2.797H28.566zm8.642-5.563q0-.797-.406-1.468-.406-.688-1.124-1.094-.735-.406-1.672-.406-.938 0-1.656.406-.735.406-1.126 1.094-.39.671-.39 1.468 0 .766.39 1.453.39.672 1.124 1.079.719.406 1.657.406.937 0 1.672-.406.718-.407 1.125-1.079.406-.687.406-1.453zm2.41-12.622q0 .796-.235 1.484-.25.687-.688 1.11-.953 1-2.719 1H30.96v1.906h-2.39v-1.907h-3.078v-2.797h3.078l.001-2.656h2.39v2.656h4.5q.828 0 1.188-.359.343-.297.344-1.016 0-.406-.11-.671-.109-.266-.359-.704h2.735q.359.922.359 1.954zm-12.25-5.76q0 .735-.53 1.282-.532.531-1.282.531-.734 0-1.25-.531-.531-.547-.53-1.281 0-.75.53-1.266.516-.531 1.25-.531.75 0 1.282.531.531.516.53 1.266zm1.204 1.407v-2.797h10.875v2.797H28.572zm.001-5.694v-2.625h1.36v-.171q-.781-.516-1.234-1.375-.469-.875-.468-1.938 0-1.14.547-2 .547-.86 1.375-1.219-.859-.53-1.39-1.453-.531-.937-.53-2.187 0-1.86 1.14-2.828 1.141-.97 3.079-.97h7v2.766h-6.485q-1.016 0-1.563.485-.562.484-.563 1.328 0 1.094.86 1.75.859.64 2.265.64h5.484v2.797h-6.485q-1.015 0-1.562.5-.563.5-.563 1.422 0 1.016.859 1.657.859.625 2.265.625h5.485l-.001 2.796H28.573zm-1.198-21.008q0 .735-.532 1.282-.531.53-1.281.53-.735 0-1.25-.53-.531-.547-.531-1.282 0-.75.531-1.265.516-.532 1.25-.532.75 0 1.282.532.53.515.53 1.265zm1.202 1.407l.001-2.797h10.875v2.797H28.576zm8.595-5.147l-6.233-5.672v5.5h-2.36l.002-8.937h2.281l6.217 5.672.002-5.844h2.375l-.002 9.281h-2.282zm2.63-16.555q-.001 1.625-.751 2.938-.75 1.296-2.063 2.03-1.313.735-2.954.735-1.547 0-2.875-.719-1.343-.734-2.124-2.015-.797-1.281-.796-2.86 0-1.687.735-2.89.719-1.219 1.985-1.844 1.25-.64 2.781-.64.5 0 .937.062l-.001 8.172q1.312-.219 1.984-1.031.657-.829.657-1.97 0-.968-.406-1.655-.422-.688-1.125-1.094l1.11-2.266q2.906 1.656 2.905 5.047zm-7.11-2.578q-.5.047-1 .375-.515.328-.844.922-.328.578-.328 1.375 0 1 .593 1.719.578.703 1.578 1.03l.001-5.421z"/><path d="M99.479 289.383c-12.5 0-25.433 30.622-25 61.244.433 30.622 14.232 61.244 28.465 61.244"/><path stroke="#34a853" stroke-width="2" stroke-linejoin="round" stroke-linecap="butt" stroke-dasharray="8.0,6.0" d="M99.479 289.383c-12.5 0-25.433 30.622-25 61.244.217 15.31 3.775 30.622 9.058 42.105 1.32 2.87 2.749 5.502 4.26 7.835a43.91 43.91 0 0 0 2.325 3.267 35.592 35.592 0 0 0 1.814 2.129c.103.11.205.219.308.326l.05.052"/><path fill="#34a853" stroke="#34a853" stroke-width="2" stroke-linecap="butt" d="M90.771 409.273l9.578 1.25-6.533-7.114z" fill-rule="evenodd"/><path d="M99.462 60.076c-12.5 0-25.114 27.363-25 54.725.114 27.362 12.957 54.724 25.913 54.724"/><path stroke="#34a853" stroke-width="2" stroke-linejoin="round" stroke-linecap="butt" stroke-dasharray="8.0,6.0" d="M99.462 60.076c-12.5 0-25.114 27.363-25 54.725.057 13.68 3.296 27.362 8.14 37.623 1.212 2.565 2.523 4.916 3.91 7a39.33 39.33 0 0 0 2.135 2.92c.364.45.732.883 1.104 1.297l.103.113"/><path fill="#34a853" stroke="#34a853" stroke-width="2" stroke-linecap="butt" d="M88.265 166.65l9.547 1.47-6.37-7.262z" fill-rule="evenodd"/></g></svg>