<svg viewBox="0 0 706.879 470.457" fill="none" stroke-linecap="square" stroke-miterlimit="10" xmlns="http://www.w3.org/2000/svg"><clipPath id="a"><path d="M0 0h706.88v470.457H0V0z"/></clipPath><g clip-path="url(#a)"><path d="M0 0h706.88v470.457H0z"/><path fill="#ea4335" d="M381.165 313.415h223.45v85.523c-111.726 0-111.726 32.586-223.45 14.072z" fill-rule="evenodd"/><path stroke="#85200c" stroke-linejoin="round" stroke-linecap="butt" d="M381.165 313.415h223.45v85.523c-111.726 0-111.726 32.586-223.45 14.072z"/><path fill="#f3f3f3" d="M428.772 363.394q-1.485 0-2.64-.657-1.157-.672-1.798-1.812-.64-1.156-.64-2.578t.64-2.578q.64-1.157 1.797-1.813 1.156-.672 2.64-.672 1.454 0 2.61.672 1.156.656 1.797 1.813.64 1.156.64 2.578t-.64 2.578q-.64 1.14-1.797 1.812-1.156.657-2.61.657zm0-2.25q.703 0 1.297-.329.609-.343.953-.984.36-.64.36-1.484t-.36-1.47q-.344-.64-.953-.968-.594-.344-1.297-.344-.719 0-1.313.344-.593.328-.968.969-.36.625-.36 1.469 0 .828.36 1.484.375.64.968.984.594.329 1.313.329zm6.848-7.563h2.297v1.156h.14q.391-.61 1.141-1.031.75-.422 1.72-.422 1.28 0 2.327.64 1.063.641 1.657 1.798.593 1.156.593 2.625 0 1.468-.593 2.625-.594 1.14-1.657 1.78-1.047.642-2.328.642-.969 0-1.734-.407-.75-.406-1.125-1.031h-.14l.14 1.344v3.828h-2.438V353.58zm4.86 7.563q.687 0 1.281-.36.61-.36.953-.984.36-.64.36-1.453 0-.828-.36-1.453-.344-.641-.953-.985-.594-.344-1.281-.344-.672 0-1.266.344t-.953.985q-.344.625-.344 1.453 0 .812.344 1.453.36.625.953.984.594.36 1.266.36zm11.04 2.109q-.702 0-1.296-.219-.594-.219-.969-.594-.875-.843-.875-2.39v-4.375h-1.672v-2.094h1.672v-2.687h2.438v2.687h2.328v2.094h-2.328v3.937q0 .719.312 1.047.266.297.907.297.343 0 .578-.094.234-.093.61-.328v2.39q-.798.329-1.704.329zm5.05-10.719q-.657 0-1.126-.469-.469-.468-.469-1.109 0-.656.47-1.11.468-.468 1.124-.468.656 0 1.11.469.453.453.453 1.109 0 .64-.453 1.11-.454.468-1.11.468zm-1.235 1.047h2.437v9.516h-2.437v-9.516zm4.974 0h2.297v1.188h.156q.438-.688 1.188-1.079.765-.406 1.703-.406 1 0 1.75.485.75.468 1.062 1.187.47-.734 1.282-1.203.812-.469 1.906-.469 1.625 0 2.469 1 .859 1 .859 2.688v6.125h-2.422v-5.672q0-.89-.422-1.375t-1.172-.485q-.953 0-1.53.75-.563.75-.563 1.985v4.797h-2.438v-5.672q0-.89-.437-1.375-.438-.485-1.235-.485-.906 0-1.453.75t-.547 1.985v4.797h-2.453v-9.516zm18.387-1.047q-.657 0-1.125-.469-.47-.468-.47-1.109 0-.656.47-1.11.468-.468 1.125-.468.656 0 1.109.469.453.453.453 1.109 0 .64-.453 1.11-.453.468-1.11.468zm-1.235 1.047h2.438v9.516h-2.438v-9.516zm4.49 7.516l4.969-5.438h-4.813v-2.078h7.813v2l-4.953 5.438h5.109v2.078h-8.125v-2zm14.487 2.297q-1.422 0-2.563-.641-1.14-.656-1.781-1.797-.64-1.156-.64-2.594 0-1.36.624-2.531.64-1.172 1.75-1.86 1.125-.687 2.516-.687 1.469 0 2.531.64 1.063.626 1.61 1.735.562 1.094.562 2.438 0 .422-.063.828h-7.14q.187 1.125.906 1.719.719.593 1.719.593.844 0 1.453-.36.61-.374.953-.983l1.984.968q-1.453 2.532-4.421 2.532zm2.25-6.204q-.032-.453-.329-.89-.28-.438-.796-.719-.516-.297-1.204-.297-.875 0-1.5.516-.625.5-.906 1.39h4.735zm8.326 6.204q-1.282 0-2.344-.641-1.047-.64-1.656-1.781-.61-1.157-.61-2.625 0-1.47.61-2.625.61-1.157 1.656-1.797 1.062-.64 2.344-.64.968 0 1.718.421.75.422 1.141 1.031h.14l-.14-1.343v-3.657h2.422v13.36h-2.281v-1.141h-.14q-.376.625-1.142 1.031-.75.407-1.718.407zm.406-2.25q.687 0 1.281-.36.61-.36.953-.984.36-.64.36-1.453 0-.828-.36-1.453-.343-.641-.953-.985-.594-.344-1.281-.344-.672 0-1.266.344-.593.344-.953.985-.36.625-.36 1.453 0 .812.36 1.453.36.625.953.984.594.36 1.266.36zm6.085 1.953zm10.037.297q-1.438 0-2.578-.641-1.14-.64-1.781-1.797-.641-1.156-.641-2.61 0-1.468.64-2.609.641-1.14 1.782-1.797 1.14-.656 2.578-.656 1.578 0 2.719.688 1.14.672 1.64 1.922l-2.234.937q-.594-1.266-2.125-1.266-1.125 0-1.844.766-.719.766-.719 2.016 0 1.265.72 2.03.718.767 1.843.767 1.547 0 2.234-1.344l2.22.969q-.61 1.25-1.75 1.937-1.142.688-2.704.688zm10.768 0q-1.484 0-2.64-.657-1.157-.672-1.797-1.812-.64-1.156-.64-2.578t.64-2.578q.64-1.157 1.797-1.813 1.156-.672 2.64-.672 1.453 0 2.61.672 1.156.656 1.796 1.813.641 1.156.641 2.578t-.64 2.578q-.641 1.14-1.797 1.812-1.157.657-2.61.657zm0-2.25q.703 0 1.297-.329.61-.343.953-.984.36-.64.36-1.484t-.36-1.47q-.344-.64-.953-.968-.594-.344-1.297-.344-.719 0-1.312.344-.594.328-.97.969-.358.625-.358 1.469 0 .828.359 1.484.375.64.969.984.593.329 1.312.329zm11.005 2.25q-1.281 0-2.344-.641-1.047-.64-1.656-1.781-.61-1.157-.61-2.625 0-1.47.61-2.625.61-1.157 1.656-1.797 1.063-.64 2.344-.64.969 0 1.719.421.75.422 1.14 1.031h.141l-.14-1.343v-3.657h2.421v13.36h-2.281v-1.141h-.14q-.376.625-1.141 1.031-.75.407-1.719.407zm.406-2.25q.688 0 1.282-.36.609-.36.953-.984.359-.64.359-1.453 0-.828-.36-1.453-.343-.641-.952-.985-.594-.344-1.282-.344-.672 0-1.265.344-.594.344-.953.985-.36.625-.36 1.453 0 .812.36 1.453.359.625.953.984.593.36 1.265.36zm11.741 2.25q-1.422 0-2.562-.641-1.141-.656-1.782-1.797-.64-1.156-.64-2.594 0-1.36.625-2.531.64-1.172 1.75-1.86 1.125-.687 2.515-.687 1.47 0 2.532.64 1.062.626 1.609 1.735.562 1.094.562 2.438 0 .422-.062.828h-7.14q.187 1.125.906 1.719.718.593 1.718.593.844 0 1.453-.36.61-.374.954-.983l1.984.968q-1.453 2.532-4.422 2.532zm2.25-6.204q-.031-.453-.328-.89-.281-.438-.797-.719-.516-.297-1.203-.297-.875 0-1.5.516-.625.5-.906 1.39h4.734z"/><path fill="#ea4335" d="M95.463 338.3c0-7.85 6.365-14.215 14.215-14.215h174.468a14.215 14.215 0 0 1 14.215 14.216v56.86c0 7.851-6.365 14.216-14.215 14.216H109.678c-7.85 0-14.215-6.365-14.215-14.216z" fill-rule="evenodd"/><path stroke="#5b0f00" stroke-linejoin="round" stroke-linecap="butt" d="M95.463 338.3h0c0-7.85 6.365-14.215 14.215-14.215h174.468a14.215 14.215 0 0 1 14.215 14.216v56.86c0 7.851-6.365 14.216-14.215 14.216H109.678c-7.85 0-14.215-6.365-14.215-14.216z"/><path fill="#f3f3f3" d="M158.302 362.682h-3.734v-2.39h9.984v2.39h-3.734v10.969h-2.516v-10.969zm11.36 11.266q-1.718 0-2.609-1.063-.89-1.062-.89-2.968v-5.782h2.437v5.485q0 .968.469 1.531.469.547 1.234.547 1.047 0 1.657-.766.609-.765.609-1.953v-4.844h2.453v9.516h-2.297v-1.188h-.156q-.422.688-1.203 1.094-.766.39-1.703.39zm7.738-9.813h2.297v1.266h.157q.359-.672 1.093-1.11.75-.437 1.64-.437.657 0 1.204.203v2.453q-.5-.187-.86-.265-.343-.094-.734-.094-1.078 0-1.718.781-.625.781-.625 1.985v4.734H177.4v-9.516zm13.28 9.813q-.985 0-1.735-.406-.75-.407-1.125-1.032h-.157v1.141h-2.296v-13.36h2.453v3.657l-.157 1.344h.157q.39-.61 1.125-1.032.75-.422 1.734-.422 1.281 0 2.328.641 1.063.64 1.656 1.797.594 1.156.594 2.625t-.594 2.625q-.593 1.14-1.656 1.781-1.047.64-2.328.64zm-.438-2.25q.687 0 1.28-.36.61-.359.954-.984.36-.64.36-1.453 0-.828-.36-1.453-.344-.64-.953-.985-.594-.343-1.281-.343-.672 0-1.266.343-.594.344-.953.985-.36.625-.36 1.453 0 .812.36 1.453.36.625.953.984.594.36 1.266.36zm11.46 2.25q-1.485 0-2.641-.656-1.157-.672-1.797-1.813-.64-1.156-.64-2.578t.64-2.578q.64-1.156 1.797-1.813 1.156-.672 2.64-.672 1.453 0 2.61.672 1.156.657 1.796 1.813.641 1.156.641 2.578t-.64 2.578q-.641 1.14-1.797 1.813-1.157.656-2.61.656zm0-2.25q.702 0 1.296-.328.61-.344.953-.985.36-.64.36-1.484t-.36-1.469q-.344-.64-.953-.969-.594-.343-1.297-.343-.719 0-1.312.343-.594.329-.97.97-.358.624-.358 1.468 0 .828.359 1.484.375.641.969.985.593.328 1.312.328zm7.254-11.406h8.469v2.39h-5.953v3.25h5.359v2.39h-5.36v5.329h-2.515v-13.36zm13.268 13.656q-1.515 0-2.484-.875-.969-.89-.969-2.328 0-.953.5-1.672.5-.735 1.375-1.125.89-.39 1.953-.39 1.469 0 2.516.421v-.406q0-.781-.594-1.266-.578-.484-1.578-.484-.672 0-1.297.312-.625.297-1.031.797l-1.563-1.234q.688-.89 1.735-1.375 1.047-.485 2.265-.485 2.188 0 3.328 1.016 1.141 1 1.141 2.938v5.859h-2.406v-.969h-.156q-.422.563-1.125.922-.704.344-1.61.344zm.578-1.906q1.063 0 1.688-.672.625-.688.625-1.594-.953-.453-2-.453-1.906 0-1.906 1.422 0 .578.406.937.422.36 1.187.36zm6.966-7.907h2.297v1.188h.157q.421-.688 1.203-1.078.797-.407 1.703-.407 1.719 0 2.61 1.047.905 1.047.905 2.86v5.906h-2.453v-5.61q0-.921-.468-1.421-.47-.5-1.297-.5-1 0-1.61.765-.593.766-.593 1.922v4.844h-2.454v-9.516z"/><path fill="#38761d" d="M91.456 81.302c0-6.865 5.565-12.43 12.43-12.43H265.23a12.43 12.43 0 0 1 12.43 12.43v49.722c0 6.865-5.565 12.43-12.43 12.43H103.886c-6.865 0-12.43-5.565-12.43-12.43z" fill-rule="evenodd"/><path stroke="#274e13" stroke-linejoin="round" stroke-linecap="butt" d="M91.456 81.302h0c0-6.865 5.565-12.43 12.43-12.43H265.23a12.43 12.43 0 0 1 12.43 12.43v49.722c0 6.865-5.565 12.43-12.43 12.43H103.886h0c-6.865 0-12.43-5.565-12.43-12.43z"/><path fill="#f3f3f3" d="M151.547 99.723h2.516v13.36h-2.516v-13.36zm9.607 17.688q-1.813 0-3.016-.813-1.187-.812-1.593-1.953l2.296-.922q.297.703.907 1.11.625.422 1.406.422 1.156 0 1.828-.72.688-.702.688-2.015v-.75h-.141q-.453.64-1.188.985-.718.328-1.656.328-1.172 0-2.187-.61-1.016-.609-1.641-1.718-.61-1.11-.61-2.579 0-1.468.61-2.578.625-1.109 1.64-1.718 1.016-.61 2.188-.61.938 0 1.656.344.735.328 1.188.969h.14v-1.016h2.36v8.86q0 1.53-.61 2.64-.593 1.125-1.703 1.734-1.093.61-2.562.61zm.031-6.547q1.031 0 1.75-.719.735-.719.735-1.969 0-1.28-.72-1.984-.718-.703-1.765-.703-1.031 0-1.765.719-.735.703-.735 1.968 0 1.266.735 1.985.734.703 1.765.703zm7.22-7.297h2.297v1.188h.156q.422-.688 1.203-1.079.797-.406 1.703-.406 1.719 0 2.61 1.047.906 1.047.906 2.86v5.906h-2.453v-5.61q0-.922-.47-1.422-.468-.5-1.296-.5-1 0-1.61.766-.593.766-.593 1.922v4.844h-2.453v-9.516zm12.566-1.047q-.657 0-1.125-.469-.47-.468-.47-1.109 0-.656.47-1.11.468-.468 1.125-.468.656 0 1.109.469.453.453.453 1.11 0 .64-.453 1.108-.453.47-1.11.47zm-1.235 1.047h2.438v9.516h-2.438v-9.516zm9.115 9.672q-.703 0-1.297-.219t-.969-.594q-.875-.843-.875-2.39v-4.375h-1.672v-2.094h1.672v-2.687h2.438v2.687h2.328v2.094h-2.328v3.937q0 .72.312 1.047.266.297.907.297.343 0 .578-.094.234-.093.61-.328v2.39q-.798.329-1.704.329zm5.048-10.719q-.656 0-1.125-.469-.468-.468-.468-1.109 0-.656.468-1.11.469-.468 1.125-.468.657 0 1.11.469.453.453.453 1.11 0 .64-.453 1.108-.453.47-1.11.47zm-1.234 1.047h2.437v9.516h-2.437v-9.516zm9.537 9.813q-1.485 0-2.641-.657-1.156-.672-1.797-1.812-.64-1.156-.64-2.578t.64-2.578q.64-1.157 1.797-1.813 1.156-.672 2.64-.672 1.454 0 2.61.672 1.156.656 1.797 1.813.64 1.156.64 2.578t-.64 2.578q-.64 1.14-1.797 1.812-1.156.657-2.61.657zm0-2.25q.703 0 1.297-.329.609-.343.953-.984.359-.64.359-1.484t-.36-1.469q-.343-.64-.952-.969-.594-.344-1.297-.344-.72 0-1.313.344-.594.328-.969.969-.359.625-.359 1.469 0 .828.36 1.484.374.64.968.984.594.329 1.313.329zm6.91-7.563h2.298v1.188h.156q.422-.688 1.203-1.079.797-.406 1.703-.406 1.719 0 2.61 1.047.906 1.047.906 2.86v5.906h-2.453v-5.61q0-.922-.47-1.422-.468-.5-1.296-.5-1 0-1.61.766-.593.766-.593 1.922v4.844h-2.453v-9.516z"/><path fill="#6aa84f" d="M370.697 52.845h223.45v85.524c-111.726 0-111.726 32.586-223.45 14.07z" fill-rule="evenodd"/><path stroke="#38761d" stroke-linejoin="round" stroke-linecap="butt" d="M370.697 52.845h223.45v85.524c-111.726 0-111.726 32.586-223.45 14.07z"/><path fill="#fff" d="M445.825 102.824q-.984 0-1.734-.406-.75-.407-1.125-1.032h-.156v1.14h-2.297V89.169h2.453v3.656l-.156 1.344h.156q.39-.61 1.125-1.032.75-.422 1.734-.422 1.282 0 2.329.641 1.062.64 1.656 1.797.594 1.156.594 2.625t-.594 2.625q-.594 1.14-1.656 1.781-1.047.64-2.329.64zm-.437-2.25q.687 0 1.281-.36.61-.359.953-.984.36-.64.36-1.453 0-.828-.36-1.453-.343-.64-.953-.985-.594-.343-1.281-.343-.672 0-1.266.343-.593.344-.953.985-.36.625-.36 1.453 0 .812.36 1.453.36.625.953.984.594.36 1.266.36zm9.866 1.5l-4-9.063h2.765l2.47 5.922h.155l2.36-5.922h2.734l-5.89 13.547h-2.625l2.03-4.484zm11.955.61q-.703 0-1.297-.22-.594-.218-.969-.593-.875-.844-.875-2.391v-4.375h-1.671v-2.094h1.671v-2.687h2.438v2.687h2.328v2.094h-2.328v3.938q0 .718.312 1.046.266.297.907.297.343 0 .578-.093.234-.094.61-.329v2.391q-.798.328-1.704.328zm8.126.14q-1.421 0-2.562-.64-1.14-.657-1.781-1.798-.64-1.156-.64-2.593 0-1.36.624-2.532.64-1.172 1.75-1.86 1.125-.687 2.516-.687 1.468 0 2.53.641 1.063.625 1.61 1.734.563 1.094.563 2.438 0 .422-.063.828h-7.14q.187 1.125.906 1.719.719.594 1.719.594.843 0 1.453-.36.61-.375.953-.984l1.984.969q-1.453 2.53-4.422 2.53zm2.25-6.203q-.03-.453-.328-.891-.28-.437-.797-.719-.515-.297-1.203-.297-.875 0-1.5.516-.625.5-.906 1.39h4.734zm8.717 6.203q-1.437 0-2.578-.64-1.14-.641-1.781-1.798-.64-1.156-.64-2.61 0-1.468.64-2.608.64-1.141 1.781-1.797 1.14-.657 2.578-.657 1.578 0 2.719.688 1.14.672 1.64 1.922l-2.234.937q-.593-1.265-2.125-1.265-1.125 0-1.843.765-.72.766-.72 2.016 0 1.266.72 2.031.718.766 1.843.766 1.547 0 2.235-1.344l2.218.969q-.609 1.25-1.75 1.937-1.14.688-2.703.688zm10.768 0q-1.484 0-2.64-.656-1.156-.672-1.797-1.813-.64-1.156-.64-2.578t.64-2.578q.64-1.156 1.797-1.813 1.156-.672 2.64-.672 1.454 0 2.61.672 1.156.657 1.797 1.813.64 1.156.64 2.578t-.64 2.578q-.64 1.14-1.797 1.813-1.156.656-2.61.656zm0-2.25q.704 0 1.297-.328.61-.344.953-.985.36-.64.36-1.484t-.36-1.469q-.343-.64-.953-.969-.593-.343-1.297-.343-.718 0-1.312.343-.594.329-.969.97-.36.624-.36 1.468 0 .828.36 1.484.375.64.969.985.594.328 1.312.328zm11.005 2.25q-1.281 0-2.343-.64-1.047-.641-1.657-1.782-.61-1.156-.61-2.625t.61-2.625q.61-1.156 1.657-1.797 1.062-.64 2.343-.64.969 0 1.719.421.75.422 1.14 1.032h.141l-.14-1.344v-3.656h2.422v13.359h-2.282v-1.14h-.14q-.375.624-1.141 1.03-.75.407-1.719.407zm.407-2.25q.687 0 1.28-.36.61-.359.954-.984.36-.64.36-1.453 0-.828-.36-1.453-.344-.64-.953-.985-.594-.343-1.281-.343-.672 0-1.266.343-.594.344-.953.985-.36.625-.36 1.453 0 .812.36 1.453.36.625.953.984.594.36 1.266.36zm11.74 2.25q-1.421 0-2.562-.64-1.14-.657-1.781-1.798-.641-1.156-.641-2.593 0-1.36.625-2.532.64-1.172 1.75-1.86 1.125-.687 2.516-.687 1.468 0 2.53.641 1.063.625 1.61 1.734.563 1.094.563 2.438 0 .422-.063.828h-7.14q.187 1.125.906 1.719.719.594 1.719.594.843 0 1.453-.36.61-.375.953-.984l1.984.969q-1.453 2.53-4.422 2.53zm2.25-6.203q-.03-.453-.328-.891-.281-.437-.797-.719-.515-.297-1.203-.297-.875 0-1.5.516-.625.5-.906 1.39h4.734z"/><path d="M298.36 366.731h41.402v.063h41.402"/><path stroke="#666" stroke-width="2" stroke-linejoin="round" stroke-linecap="butt" d="M298.36 366.731h41.402v.063h29.402"/><path fill="#666" stroke="#666" stroke-width="2" stroke-linecap="butt" d="M369.164 370.097l9.076-3.303-9.076-3.303z" fill-rule="evenodd"/><path d="M277.66 106.163h46.518v.063H370.7"/><path stroke="#666" stroke-width="2" stroke-linejoin="round" stroke-linecap="butt" d="M277.66 106.163h46.518v.063H358.7"/><path fill="#666" stroke="#666" stroke-width="2" stroke-linecap="butt" d="M358.7 109.53l9.076-3.304-9.076-3.304z" fill-rule="evenodd"/><path d="M689.756 50.398l.095 355.18h-47.685l-.095-355.18z"/><path fill="#ea4335" d="M658.123 176.039q0-1.469.734-2.672t2.046-1.906q1.313-.688 3-.688 1.672 0 2.985.688 1.328.703 2.063 1.906.734 1.203.735 2.672 0 1.11-.484 1.953-.469.86-1.172 1.312v.172l1.532-.172h4.171l.001 2.782H658.47l-.001-2.61h1.297v-.172q-.704-.421-1.173-1.296-.469-.86-.469-1.97zm2.578.469q0 .796.407 1.468.406.688 1.125 1.094.735.406 1.672.406.938 0 1.656-.406.735-.406 1.125-1.094.39-.672.39-1.468 0-.766-.39-1.454-.391-.671-1.126-1.078-.719-.406-1.656-.406-.938 0-1.672.406-.719.407-1.125 1.078-.406.688-.406 1.454zm-2.574 13.426q0-1.625.75-2.937.749-1.297 2.061-2.031 1.312-.735 2.953-.735 1.547 0 2.875.719 1.344.734 2.126 2.016.797 1.28.797 2.859 0 1.688-.733 2.89-.719 1.22-1.984 1.844-1.25.641-2.781.641-.5 0-.938-.062l-.002-8.172q-1.312.218-1.984 1.03-.656.829-.656 1.97 0 .968.407 1.656.422.687 1.125 1.094l-1.109 2.265q-2.906-1.656-2.907-5.047zm7.11 2.579q.5-.047 1-.375.515-.329.843-.922.328-.578.328-1.375 0-1-.594-1.72-.578-.702-1.578-1.03v5.422zm-7.107 10.035q0-1.672.75-3 .765-1.328 2.077-2.063 1.312-.734 2.953-.734 1.625 0 2.938.734 1.328.735 2.078 2.063.766 1.328.767 3 0 1.672-.765 2.984-.75 1.328-2.078 2.063-1.312.734-2.937.734-1.64 0-2.953-.734-1.313-.735-2.079-2.063-.75-1.312-.75-2.984zm2.578 0q0 .812.376 1.5.39.687 1.11 1.094.734.406 1.718.406.969 0 1.688-.406.718-.407 1.093-1.094.39-.688.39-1.5 0-.797-.39-1.485-.376-.687-1.095-1.109-.719-.406-1.687-.406-.953 0-1.703.406-.735.422-1.125 1.11-.375.687-.375 1.484zm8.643 7.835v2.625h-1.312v.172q.704.438 1.173 1.297.484.86.484 1.969 0 1.469-.733 2.672-.734 1.203-2.062 1.875-1.313.687-2.984.687-1.688 0-3-.687-1.313-.672-2.048-1.875-.735-1.203-.735-2.672 0-1.11.468-1.984.469-.86 1.172-1.282v-.172l-1.532.172h-4.375v-2.797h15.484zm-8.64 5.563q.001.797.408 1.469.406.687 1.125 1.093.734.407 1.672.407.937 0 1.656-.407.734-.406 1.125-1.093.39-.672.39-1.47 0-.765-.391-1.452-.39-.672-1.125-1.078-.72-.407-1.657-.407t-1.671.407q-.72.406-1.125 1.078-.406.687-.406 1.453zm-2.402 12.623q0-.797.234-1.485.25-.687.687-1.11.953-1 2.719-1h5.015v-1.905h2.39l.001 1.906h3.078v2.797h-3.077v2.656h-2.39v-2.656h-4.5q-.83 0-1.188.36-.344.296-.344 1.015 0 .406.11.672.11.265.36.703h-2.735q-.36-.922-.36-1.953zm12.252 5.759q0-.735.53-1.282.532-.53 1.282-.53.734 0 1.25.53.531.547.531 1.282 0 .75-.53 1.265-.516.531-1.25.531-.75 0-1.282-.53-.531-.516-.531-1.266zm-1.204-1.407v2.797h-10.874v-2.797h10.874zm.002 5.694v2.625H668l.001.172q.781.515 1.235 1.375.469.875.469 1.937 0 1.14-.546 2-.547.86-1.375 1.219.86.531 1.39 1.453.532.938.533 2.188 0 1.859-1.14 2.828-1.14.968-3.078.968h-7v-2.765h6.484q1.015 0 1.562-.485.562-.484.562-1.328 0-1.093-.86-1.75-.86-.64-2.265-.64h-5.485v-2.797h6.484q1.015 0 1.562-.5.563-.5.562-1.422 0-1.016-.86-1.656-.859-.625-2.265-.625h-5.485v-2.797h10.875zm1.208 21.008q0-.734.531-1.281.531-.532 1.281-.532.735 0 1.25.532.532.547.532 1.28 0 .75-.53 1.267-.516.53-1.25.53-.75 0-1.282-.53-.532-.516-.532-1.266zm-1.203-1.406v2.797H658.49l-.001-2.797h10.875zm-8.593 5.146l6.236 5.672-.001-5.5h2.36l.002 8.938h-2.282l-6.22-5.672.002 5.843h-2.375l-.003-9.28h2.281zm-2.62 16.555q0-1.625.75-2.937.749-1.297 2.061-2.032 1.312-.734 2.953-.734 1.547 0 2.875.719 1.344.734 2.126 2.015.797 1.282.797 2.86 0 1.687-.733 2.89-.719 1.22-1.984 1.844-1.25.64-2.781.64-.5 0-.938-.062l-.002-8.172q-1.312.22-1.984 1.032-.656.828-.656 1.968 0 .97.407 1.657.422.687 1.125 1.093l-1.109 2.266q-2.906-1.656-2.907-5.047zm7.11 2.578q.5-.047 1-.375.515-.328.843-.922.328-.578.328-1.375 0-1-.594-1.718-.579-.704-1.579-1.032l.002 5.422z"/><path d="M482.421 152.44c0 44.334-71.378 67.21-142.755 88.667-71.378 21.457-142.756 41.493-142.756 82.986"/><path stroke="#666" stroke-width="2" stroke-linejoin="round" stroke-linecap="butt" stroke-dasharray="8.0,6.0" d="M482.421 152.44c0 44.334-71.378 67.21-142.755 88.667-35.69 10.729-71.378 21.102-98.145 33.98-13.384 6.439-24.536 13.504-32.343 21.552-3.904 4.025-6.97 8.295-9.062 12.856a36.796 36.796 0 0 0-1.072 2.596l-.066.182"/><path fill="#666" stroke="#666" stroke-width="2" stroke-linecap="butt" d="M195.724 311.704l1.69 9.51 4.818-8.372z" fill-rule="evenodd"/><path d="M17.028 413.111l.094-353.323h45.795l-.094 353.323z"/><path fill="#34a853" d="M47.786 274.88q0 1.671-.75 3-.767 1.327-2.08 2.062-1.312.734-2.953.734-1.625 0-2.937-.734-1.328-.735-2.078-2.063-.765-1.328-.765-3t.767-2.984q.75-1.328 2.079-2.063 1.312-.734 2.937-.734 1.64 0 2.953.734 1.312.735 2.078 2.063.75 1.312.749 2.984zm-2.578 0q0-.813-.375-1.5-.39-.688-1.109-1.094-.734-.407-1.719-.407-.968 0-1.687.407-.719.406-1.094 1.093-.391.688-.391 1.5 0 .797.39 1.485.375.687 1.093 1.109.72.406 1.688.406.953 0 1.703-.406.735-.422 1.125-1.11.376-.687.376-1.484zm-8.639-7.836l.001-2.625h1.312v-.172q-.703-.438-1.171-1.297-.484-.86-.484-1.969 0-1.469.735-2.672t2.063-1.875q1.313-.687 2.985-.687 1.687 0 3 .687 1.312.672 2.046 1.875.734 1.203.734 2.672 0 1.11-.47 1.985-.469.859-1.172 1.28v.173l1.531-.172h4.375v2.797H36.569zm8.642-5.563q0-.797-.405-1.469-.407-.687-1.125-1.093-.734-.407-1.672-.407-.937 0-1.656.407-.735.406-1.126 1.093-.39.672-.39 1.47 0 .765.39 1.452.39.672 1.124 1.078.719.407 1.656.407.938 0 1.672-.407.72-.406 1.126-1.078.406-.687.406-1.453zm2.41-12.623q0 .797-.235 1.485-.25.687-.688 1.11-.953 1-2.719 1h-5.015v1.905h-2.391v-1.906h-3.078v-2.797h3.079V247h2.391v2.656h4.5q.828 0 1.187-.36.344-.296.344-1.015 0-.406-.109-.672-.11-.265-.36-.703h2.735q.36.922.359 1.953zM35.373 243.1q0 .735-.532 1.282-.531.53-1.281.53-.735 0-1.25-.53-.531-.547-.531-1.282 0-.75.531-1.265.516-.531 1.25-.531.75 0 1.282.53.53.516.53 1.266zm1.202 1.407l.001-2.797h10.875v2.797H36.574zm.002-5.694v-2.625h1.36v-.172q-.781-.515-1.234-1.375-.469-.875-.468-1.937 0-1.14.547-2 .547-.86 1.375-1.219-.859-.531-1.39-1.453-.53-.937-.53-2.187 0-1.86 1.14-2.829 1.142-.968 3.08-.968h7l-.001 2.765H40.97q-1.015 0-1.562.485-.563.484-.563 1.328 0 1.094.859 1.75.859.64 2.265.64h5.484v2.797h-6.485q-1.015 0-1.562.5-.563.5-.563 1.422 0 1.016.859 1.656.859.625 2.265.625h5.485l-.001 2.797H36.577zm-1.198-21.008q0 .735-.531 1.281-.532.532-1.282.532-.734 0-1.25-.532-.53-.546-.53-1.28 0-.75.531-1.266.516-.532 1.25-.532.75 0 1.281.532.531.515.531 1.265zm1.203 1.406v-2.796h10.876l-.001 2.796H36.582zm8.595-5.146l-6.233-5.672-.001 5.5h-2.36l.003-8.937h2.281l6.217 5.671.002-5.843h2.375l-.003 9.28h-2.28zm2.63-16.555q0 1.625-.751 2.937-.75 1.297-2.063 2.032-1.313.734-2.954.734-1.546 0-2.874-.719-1.344-.734-2.125-2.015-.796-1.282-.796-2.86 0-1.687.735-2.89.72-1.219 1.985-1.844 1.25-.64 2.782-.64.5 0 .937.062l-.002 8.172q1.312-.219 1.984-1.032.657-.828.657-1.968 0-.969-.406-1.657-.421-.687-1.124-1.093l1.11-2.266q2.906 1.656 2.905 5.047zm-7.11-2.578q-.5.047-1 .375-.515.328-.843.922-.328.578-.329 1.375 0 1 .594 1.718.578.704 1.577 1.032l.002-5.422z"/><path d="M173.093 249.302l225.45-69.512 13.48 43.811-225.45 69.512z"/><path fill="#666" d="M229.253 259.04l-3.494 1.077 1.066 3.465-2.36.727-1.065-3.465-3.465 1.068-.726-2.36 3.465-1.067-1.067-3.465 2.36-.727 1.066 3.464 3.494-1.077.726 2.36zm2.618 3.95zm2.795-12.242l2.509-.773.386 1.254.164-.05q.211-.801.895-1.502.679-.717 1.739-1.043 1.403-.433 2.769-.086 1.366.348 2.398 1.42 1.043 1.051 1.535 2.649.496 1.613.225 3.07-.256 1.452-1.19 2.509-.933 1.056-2.337 1.489-1.06.327-2.034.136-.96-.194-1.57-.742l-.163.05.614 1.413 1.287 4.182-2.673.824-4.554-14.8zm7.857 6.62q.762-.235 1.284-.821.538-.59.714-1.398.173-.821-.103-1.717-.276-.896-.875-1.463-.604-.583-1.376-.753-.757-.176-1.519.059-.731.226-1.274.801-.527.572-.699 1.393-.177.807.099 1.703t.88 1.478q.6.568 1.36.758.777.186 1.509-.04zm4.997-10.583l2.509-.773.427 1.389.164-.05q.163-.852.823-1.579.67-.746 1.655-1.05.716-.22 1.368-.176l.822 2.673q-.612-.024-1.013.002-.405.01-.838.144-1.18.363-1.615 1.446-.425 1.063-.025 2.362l1.594 5.182-2.673.824-3.198-10.394zm16.974 6.507q-1.597.492-3.087.167-1.494-.34-2.582-1.379-1.088-1.038-1.57-2.606-.478-1.553-.162-3.024.31-1.486 1.36-2.594 1.043-1.123 2.641-1.616 1.598-.492 3.077-.147 1.49.325 2.582 1.378 1.088 1.038 1.566 2.592.482 1.568.167 3.038-.316 1.471-1.36 2.594-1.034 1.104-2.632 1.597zm-.758-2.465q.777-.239 1.323-.8.543-.576.72-1.383.172-.821-.118-1.762-.285-.926-.884-1.493-.6-.567-1.367-.723-.772-.171-1.549.068-.761.235-1.303.811-.547.561-.739 1.372-.176.807.108 1.733.28.91.89 1.508.619.578 1.39.748.768.156 1.53-.079zm6.845-8.65l-1.852.57-.703-2.284 1.851-.571-.174-.568q-.547-1.777.205-3.104.748-1.343 2.465-1.872.986-.304 1.756-.296l.8 2.598q-.434-.03-.756-.012-.311-.002-.7.118-.671.207-.97.724-.284.513-.077 1.185l.124.403 2.553-.787.703 2.285-2.553.787 2.495 8.109-2.672.824-2.495-8.11zm7.748-6.15q-.701.216-1.38-.13-.664-.352-.885-1.068-.216-.702.14-1.352.367-.669 1.069-.885.716-.22 1.365.135.66.336.875 1.038.221.717-.13 1.381-.337.66-1.054.881zm-.99 1.564l2.673-.824 3.198 10.394-2.672.824-3.199-10.394zm4.15-5.874l2.673-.824 4.489 14.59-2.673.825-4.49-14.59zm7.744.948q-.701.216-1.38-.13-.664-.352-.885-1.068-.216-.702.14-1.352.367-.669 1.069-.885.716-.22 1.365.135.66.336.876 1.038.22.717-.131 1.381-.337.66-1.054.88zm-.99 1.564l2.673-.824 3.198 10.394-2.672.824-3.199-10.394zm5.441-1.677l2.509-.774.4 1.3.164-.051q.248-.894.965-1.59.714-.71 1.714-1.019 1.881-.58 3.206.271 1.335.831 1.941 2.803l1.99 6.466-2.673.824-1.889-6.138q-.307-1-.98-1.382-.678-.396-1.604-.11-1.075.331-1.49 1.375-.404 1.024-.013 2.293l1.631 5.302-2.673.824-3.198-10.394zm21.656 9.886q-1.97.608-3.56.117-1.57-.48-2.4-1.582l2.192-1.804q.567.675 1.377.916.81.24 1.66-.022 1.27-.39 1.763-1.393.512-.992.07-2.426l-.252-.82-.164.05q-.262.849-.954 1.47-.68.603-1.696.916-1.284.396-2.606.084-1.312-.33-2.356-1.333-1.044-1.003-1.54-2.616-.497-1.613-.197-3.03.3-1.416 1.203-2.414.913-1.017 2.197-1.413 1.015-.313 1.921-.184.917.11 1.61.664l.165-.05-.34-1.105 2.568-.792 2.978 9.677q.514 1.673.234 3.1-.265 1.422-1.272 2.452-.988 1.04-2.6 1.538zm-2.156-7.167q1.12-.346 1.668-1.381.548-1.036.13-2.395-.432-1.403-1.458-1.921-1.016-.537-2.15-.187-1.15.354-1.702 1.375-.553 1.02-.126 2.41.428 1.388 1.458 1.92 1.03.533 2.18.179zm7.326.39zm10.634-2.92q-1.404.434-2.77.086-1.365-.347-2.423-1.395-1.043-1.051-1.54-2.664-.491-1.598-.22-3.055.281-1.477 1.215-2.533.934-1.057 2.337-1.49 1.06-.326 2.01-.112.958.195 1.598.733l.164-.05-.614-1.413-1.227-3.987 2.658-.82 4.489 14.59-2.494.77-.381-1.24-.164.05q-.197.797-.895 1.503-.683.701-1.743 1.028zm-.31-2.601q.76-.235 1.283-.821.538-.591.715-1.398.172-.822-.104-1.718-.275-.896-.875-1.463-.604-.582-1.376-.753-.757-.175-1.518.06-.732.225-1.274.801-.527.571-.7 1.393-.176.807.1 1.703.275.896.88 1.478.599.567 1.36.757.777.186 1.508-.04zm11.886-.968q-1.642.507-3.001-.137t-1.841-2.212q-.322-1.045-.028-2.002.309-.962 1.136-1.675.837-.732 2.002-1.092 1.597-.492 2.89-.384l-.138-.448q-.262-.85-1.065-1.176-.808-.34-1.883-.008-.746.23-1.327.786-.571.535-.85 1.226l-2.13-.815q.458-1.22 1.432-2.093.985-.892 2.329-1.306 2.374-.732 3.953-.01 1.59.704 2.242 2.825l1.971 6.407-2.627.81-.327-1.06-.164.05q-.274.755-.931 1.383-.642.623-1.643.931zm.004-2.273q1.15-.355 1.606-1.313.457-.959.15-1.96-1.197-.17-2.332.18-2.076.64-1.598 2.193.193.627.765.892.572.266 1.409.008zm12.723-1.83q-.761.234-1.487.213-.73-.037-1.262-.33-1.236-.617-1.755-2.304l-1.475-4.794-1.822.562-.703-2.285 1.821-.562-.905-2.942 2.673-.824.905 2.942 2.539-.783.703 2.285-2.539.783 1.324 4.3q.243.792.692 1.03.385.241 1.072.03.388-.12.61-.303.221-.183.566-.55l.804 2.613q-.775.615-1.76.918zm7.227-2.049q-1.643.507-3.002-.137-1.358-.644-1.841-2.212-.322-1.045-.028-2.003.31-.961 1.136-1.674.838-.733 2.002-1.092 1.598-.492 2.89-.384l-.138-.448q-.262-.851-1.065-1.176-.807-.34-1.882-.008-.747.23-1.328.785-.57.536-.849 1.227l-2.13-.815q.458-1.22 1.432-2.093.984-.892 2.328-1.306 2.374-.732 3.953-.01 1.59.704 2.243 2.825l1.97 6.407-2.627.81-.326-1.06-.165.05q-.274.755-.931 1.383-.642.623-1.642.931zm.003-2.273q1.15-.355 1.607-1.313.457-.959.149-1.96-1.197-.17-2.332.18-2.075.64-1.597 2.193.193.627.765.892.572.265 1.408.008z"/><path d="M604.614 366.737c12.5 0 26.307-65.141 25-130.283-1.307-65.142-17.728-130.283-35.457-130.283"/><path stroke="#ea4335" stroke-width="2" stroke-linejoin="round" stroke-linecap="butt" stroke-dasharray="8.0,6.0" d="M604.614 366.737c12.5 0 26.307-65.141 25-130.283-.653-32.57-5.086-65.142-11.57-89.57-3.243-12.214-6.998-22.392-11.051-29.517a50.067 50.067 0 0 0-1.534-2.527 40.984 40.984 0 0 0-1.166-1.7l-.19-.255"/><path fill="#ea4335" stroke="#ea4335" stroke-width="2" stroke-linecap="butt" d="M605.952 110.147l-9.371-2.34 5.674 7.816z" fill-rule="evenodd"/><path d="M91.456 106.163c-12.5 0-25.5 65.141-25 130.283.5 65.142 14.5 130.284 29 130.284"/><path stroke="#34a853" stroke-width="2" stroke-linejoin="round" stroke-linecap="butt" stroke-dasharray="8.0,6.0" d="M91.456 106.163c-12.5 0-25.5 65.141-25 130.283.25 32.571 3.875 65.142 9.25 89.57 2.687 12.214 5.812 22.393 9.172 29.517a53.346 53.346 0 0 0 1.59 3.113l.047.08"/><path fill="#34a853" stroke="#34a853" stroke-width="2" stroke-linecap="butt" d="M84.311 361.188l8.966 3.592-4.56-8.515z" fill-rule="evenodd"/></g></svg>