<svg viewBox="0 0 797.64 469.501" fill="none" stroke-linecap="square" stroke-miterlimit="10" xmlns="http://www.w3.org/2000/svg"><clipPath id="a"><path d="M0 0h797.64v469.501H0V0z"/></clipPath><g clip-path="url(#a)"><path d="M0 0h797.64v469.501H0z"/><path fill="#fbbc05" fill-opacity=".377" d="M315.835 217.926c0-25.826 20.936-46.762 46.762-46.762h375.357a46.762 46.762 0 0 1 46.763 46.762V404.97c0 25.826-20.937 46.762-46.763 46.762H362.597c-25.826 0-46.762-20.936-46.762-46.762z" fill-rule="evenodd"/><path fill="#ea4335" d="M573.677 369.02h149.256v57.126c-74.628 0-74.628 21.766-149.256 9.399z" fill-rule="evenodd"/><path stroke="#85200c" stroke-linejoin="round" stroke-linecap="butt" d="M573.677 369.02h149.256v57.126c-74.628 0-74.628 21.766-149.256 9.399z"/><path fill="#f3f3f3" d="M608.813 393.8q-1.484 0-2.64-.657-1.156-.671-1.797-1.812-.64-1.156-.64-2.578t.64-2.578q.64-1.157 1.797-1.813 1.156-.672 2.64-.672 1.454 0 2.61.672 1.156.656 1.797 1.813.64 1.156.64 2.578t-.64 2.578q-.64 1.14-1.797 1.812-1.156.657-2.61.657zm0-2.25q.704 0 1.297-.328.61-.344.953-.985.36-.64.36-1.484t-.36-1.469q-.343-.64-.953-.969-.593-.343-1.297-.343-.718 0-1.312.343-.594.328-.969.97-.36.624-.36 1.468 0 .828.36 1.484.375.64.969.985.594.328 1.313.328zm6.85-7.563h2.296v1.156h.14q.391-.609 1.141-1.03.75-.423 1.719-.423 1.281 0 2.328.64 1.063.642 1.656 1.798.594 1.156.594 2.625t-.594 2.625q-.593 1.14-1.656 1.781-1.047.64-2.328.64-.969 0-1.734-.406-.75-.406-1.125-1.03h-.141l.14 1.343v3.828h-2.437v-13.547zm4.859 7.563q.687 0 1.28-.36.61-.36.954-.984.36-.64.36-1.453 0-.828-.36-1.453-.344-.64-.953-.985-.594-.343-1.281-.343-.672 0-1.266.343-.594.344-.953.985-.344.625-.344 1.453 0 .812.344 1.453.36.625.953.984.594.36 1.266.36zm11.04 2.11q-.702 0-1.296-.22-.594-.218-.969-.593-.875-.844-.875-2.391v-4.375h-1.672v-2.094h1.672V381.3h2.438v2.687h2.328v2.094h-2.328v3.937q0 .72.312 1.047.266.297.906.297.344 0 .578-.094.235-.093.61-.328v2.39q-.797.33-1.703.33zm5.049-10.72q-.656 0-1.125-.468-.469-.47-.469-1.11 0-.656.469-1.11.469-.468 1.125-.468t1.11.469q.452.453.452 1.11 0 .64-.453 1.109-.453.468-1.109.468zm-1.234 1.047h2.437v9.516h-2.437v-9.516zm4.974 0h2.297v1.188h.156q.437-.688 1.187-1.078.766-.407 1.704-.407 1 0 1.75.485.75.468 1.062 1.187.469-.734 1.281-1.203.813-.469 1.907-.469 1.625 0 2.468 1 .86 1 .86 2.688v6.125H652.6v-5.672q0-.89-.422-1.375-.422-.484-1.172-.484-.953 0-1.531.75-.563.75-.563 1.984v4.797h-2.437v-5.672q0-.89-.438-1.375-.437-.484-1.234-.484-.906 0-1.453.75t-.547 1.984v4.797h-2.453v-9.516zm18.386-1.047q-.656 0-1.125-.468-.468-.47-.468-1.11 0-.656.468-1.11.47-.468 1.125-.468.657 0 1.11.469.453.453.453 1.11 0 .64-.453 1.109-.453.468-1.11.468zm-1.234 1.047h2.437v9.516h-2.437v-9.516zm4.49 7.516l4.969-5.438h-4.813v-2.078h7.813v2l-4.954 5.438h5.11v2.078h-8.125v-2zm14.486 2.297q-1.422 0-2.562-.64-1.14-.657-1.781-1.798-.641-1.156-.641-2.594 0-1.359.625-2.53.64-1.173 1.75-1.86 1.125-.688 2.516-.688 1.468 0 2.53.64 1.063.626 1.61 1.735.563 1.094.563 2.438 0 .422-.063.828h-7.14q.187 1.125.906 1.719.719.593 1.719.593.843 0 1.453-.359.609-.375.953-.984l1.984.968q-1.453 2.532-4.422 2.532zm2.25-6.203q-.031-.454-.328-.891-.281-.438-.797-.719-.515-.297-1.203-.297-.875 0-1.5.516-.625.5-.906 1.39h4.734zm8.326 6.203q-1.28 0-2.343-.64-1.047-.642-1.657-1.782-.609-1.156-.609-2.625t.61-2.625q.609-1.156 1.656-1.797 1.062-.64 2.343-.64.97 0 1.72.421.75.422 1.14 1.031h.14l-.14-1.343v-3.657h2.422v13.36h-2.282v-1.14h-.14q-.375.624-1.14 1.03-.75.407-1.72.407zm.407-2.25q.687 0 1.28-.36.61-.36.954-.984.36-.64.36-1.453 0-.828-.36-1.453-.344-.64-.953-.985-.594-.343-1.281-.343-.672 0-1.266.343-.594.344-.953.985-.36.625-.36 1.453 0 .812.36 1.453.36.625.953.984.594.36 1.266.36zm6.084 1.953zM631.533 415.8q-1.437 0-2.578-.64-1.14-.642-1.781-1.798-.64-1.156-.64-2.61 0-1.468.64-2.609.64-1.14 1.781-1.796 1.14-.657 2.578-.657 1.578 0 2.719.688 1.14.672 1.64 1.922l-2.234.937q-.593-1.265-2.125-1.265-1.125 0-1.843.765-.72.766-.72 2.016 0 1.265.72 2.031.718.766 1.843.766 1.547 0 2.235-1.344l2.218.969q-.609 1.25-1.75 1.937-1.14.688-2.703.688zm10.768 0q-1.484 0-2.64-.657-1.156-.671-1.797-1.812-.64-1.156-.64-2.578t.64-2.578q.64-1.157 1.797-1.813 1.156-.672 2.64-.672 1.454 0 2.61.672 1.156.656 1.797 1.813.64 1.156.64 2.578t-.64 2.578q-.64 1.14-1.797 1.812-1.156.657-2.61.657zm0-2.25q.704 0 1.297-.328.61-.344.953-.985.36-.64.36-1.484t-.36-1.469q-.343-.64-.953-.969-.593-.343-1.297-.343-.718 0-1.312.343-.594.328-.969.97-.36.624-.36 1.468 0 .828.36 1.484.375.64.969.985.594.328 1.312.328zm11.005 2.25q-1.281 0-2.343-.64-1.047-.642-1.657-1.782-.61-1.156-.61-2.625t.61-2.625q.61-1.156 1.657-1.797 1.062-.64 2.343-.64.969 0 1.719.421.75.422 1.14 1.031h.141l-.14-1.343v-3.657h2.422v13.36h-2.282v-1.14h-.14q-.375.624-1.141 1.03-.75.407-1.719.407zm.407-2.25q.687 0 1.28-.36.61-.36.954-.984.36-.64.36-1.453 0-.828-.36-1.453-.344-.64-.953-.985-.594-.343-1.281-.343-.672 0-1.266.343-.594.344-.953.985-.36.625-.36 1.453 0 .812.36 1.453.36.625.953.984.594.36 1.266.36zm11.74 2.25q-1.422 0-2.562-.64-1.14-.657-1.781-1.798-.641-1.156-.641-2.594 0-1.359.625-2.53.64-1.173 1.75-1.86 1.125-.688 2.516-.688 1.468 0 2.53.64 1.063.626 1.61 1.735.563 1.094.563 2.438 0 .422-.063.828h-7.14q.187 1.125.906 1.719.719.593 1.719.593.843 0 1.453-.359.61-.375.953-.984l1.984.968q-1.453 2.532-4.422 2.532zm2.25-6.203q-.03-.454-.328-.891-.281-.438-.797-.719-.515-.297-1.203-.297-.875 0-1.5.516-.625.5-.906 1.39h4.734z"/><path fill="#ea4335" d="M382.843 385.644a9.496 9.496 0 0 1 9.496-9.496h115.559a9.496 9.496 0 0 1 9.496 9.496v37.985a9.496 9.496 0 0 1-9.496 9.496h-115.56a9.496 9.496 0 0 1-9.495-9.496z" fill-rule="evenodd"/><path stroke="#5b0f00" stroke-linejoin="round" stroke-linecap="butt" d="M382.843 385.644h0a9.496 9.496 0 0 1 9.496-9.496h115.559a9.496 9.496 0 0 1 9.496 9.496v37.985a9.496 9.496 0 0 1-9.496 9.496h-115.56 0a9.496 9.496 0 0 1-9.495-9.496z"/><path fill="#f3f3f3" d="M408.015 400.853q-1.485 0-2.64-.656-1.157-.672-1.798-1.812-.64-1.157-.64-2.579 0-1.421.64-2.578.641-1.156 1.797-1.812 1.156-.672 2.64-.672 1.454 0 2.61.672 1.156.656 1.797 1.812.64 1.157.64 2.578 0 1.422-.64 2.579-.64 1.14-1.797 1.812-1.156.656-2.61.656zm0-2.25q.703 0 1.297-.328.61-.344.953-.984.36-.64.36-1.485 0-.843-.36-1.468-.344-.64-.953-.969-.594-.344-1.297-.344-.719 0-1.313.344-.593.328-.968.969-.36.625-.36 1.468 0 .829.36 1.485.375.64.968.984.594.328 1.313.328zm6.848-7.562h2.297v1.156h.14q.392-.61 1.142-1.031.75-.422 1.718-.422 1.282 0 2.328.64 1.063.641 1.657 1.797.593 1.157.593 2.625 0 1.47-.593 2.625-.594 1.141-1.657 1.782-1.046.64-2.328.64-.968 0-1.734-.406-.75-.406-1.125-1.031h-.14l.14 1.344v3.828h-2.438V391.04zm4.86 7.562q.687 0 1.281-.359.61-.36.953-.984.36-.641.36-1.454 0-.828-.36-1.453-.344-.64-.953-.984-.594-.344-1.281-.344-.672 0-1.266.344t-.953.984q-.344.625-.344 1.453 0 .813.344 1.454.36.625.953.984.594.36 1.266.36zm11.041 2.11q-.703 0-1.297-.219t-.969-.594q-.875-.844-.875-2.39v-4.375h-1.671v-2.094h1.671v-2.688h2.438v2.688h2.328v2.094h-2.328v3.937q0 .719.312 1.047.266.297.907.297.343 0 .578-.094.234-.094.61-.328v2.39q-.798.329-1.704.329zm5.048-10.719q-.656 0-1.125-.469-.468-.469-.468-1.11 0-.655.468-1.109.47-.468 1.125-.468.657 0 1.11.468.453.454.453 1.11 0 .64-.453 1.11-.453.468-1.11.468zm-1.234 1.047h2.437v9.515h-2.437v-9.515zm4.974 0h2.297v1.187h.156q.438-.687 1.188-1.078.765-.406 1.703-.406 1 0 1.75.484.75.47 1.062 1.188.47-.735 1.282-1.203.812-.469 1.906-.469 1.625 0 2.469 1 .859 1 .859 2.687v6.125h-2.422v-5.671q0-.891-.422-1.375-.422-.485-1.172-.485-.953 0-1.53.75-.563.75-.563 1.985v4.796h-2.438v-5.671q0-.891-.437-1.375-.438-.485-1.235-.485-.906 0-1.453.75t-.547 1.985v4.796h-2.453v-9.515zm18.387-1.047q-.657 0-1.125-.469-.47-.469-.47-1.11 0-.655.47-1.109.468-.468 1.125-.468.656 0 1.109.468.453.454.453 1.11 0 .64-.453 1.11-.453.468-1.11.468zm-1.235 1.047h2.438v9.515h-2.438v-9.515zm4.49 7.515l4.969-5.437h-4.813v-2.078h7.813v2l-4.953 5.437h5.11v2.078h-8.126v-2zm11.408-8.562q-.656 0-1.125-.469-.468-.469-.468-1.11 0-.655.468-1.109.47-.468 1.125-.468.657 0 1.11.468.453.454.453 1.11 0 .64-.453 1.11-.453.468-1.11.468zm-1.234 1.047h2.438v9.515h-2.438v-9.515zm4.974 0h2.297v1.187h.156q.422-.687 1.204-1.078.796-.406 1.703-.406 1.718 0 2.609 1.047.906 1.047.906 2.86v5.905h-2.453v-5.609q0-.922-.469-1.422-.468-.5-1.296-.5-1 0-1.61.766-.594.765-.594 1.922v4.843h-2.453v-9.515zm15.566 13.844q-1.813 0-3.016-.813-1.187-.812-1.593-1.953l2.296-.922q.297.703.907 1.11.625.421 1.406.421 1.156 0 1.828-.718.688-.704.688-2.016v-.75h-.141q-.453.64-1.188.984-.718.328-1.656.328-1.172 0-2.187-.609-1.016-.61-1.64-1.719-.61-1.109-.61-2.578 0-1.469.61-2.578.624-1.11 1.64-1.719 1.015-.609 2.187-.609.938 0 1.656.344.735.328 1.188.968h.14v-1.015h2.36v8.86q0 1.53-.61 2.64-.593 1.125-1.703 1.734-1.093.61-2.562.61zm.031-6.547q1.031 0 1.75-.719.735-.719.735-1.969 0-1.281-.72-1.984-.718-.703-1.765-.703-1.031 0-1.765.718-.735.704-.735 1.97 0 1.265.735 1.984.734.703 1.765.703zm6.032 2.218zm-82.059 22.297q-1.437 0-2.578-.64-1.14-.64-1.781-1.797-.64-1.156-.64-2.61 0-1.468.64-2.609.64-1.14 1.781-1.797 1.14-.656 2.578-.656 1.578 0 2.719.687 1.14.672 1.64 1.922l-2.234.938q-.593-1.266-2.125-1.266-1.125 0-1.843.766-.72.765-.72 2.015 0 1.266.72 2.032.718.765 1.843.765 1.547 0 2.235-1.343l2.218.968q-.609 1.25-1.75 1.938-1.14.687-2.703.687zm10.768 0q-1.484 0-2.64-.656-1.156-.672-1.797-1.812-.64-1.157-.64-2.579 0-1.421.64-2.578.64-1.156 1.797-1.812 1.156-.672 2.64-.672 1.454 0 2.61.672 1.156.656 1.797 1.812.64 1.157.64 2.578 0 1.422-.64 2.579-.641 1.14-1.797 1.812-1.156.656-2.61.656zm0-2.25q.704 0 1.297-.328.61-.344.953-.984.36-.64.36-1.485 0-.843-.36-1.468-.343-.64-.953-.969-.593-.344-1.297-.344-.718 0-1.312.344-.594.328-.969.969-.36.625-.36 1.468 0 .829.36 1.485.375.64.969.984.594.328 1.312.328zm6.912-7.562h2.296v1.187h.157q.437-.687 1.187-1.078.766-.406 1.703-.406 1 0 1.75.484.75.47 1.063 1.188.469-.735 1.281-1.203.813-.469 1.906-.469 1.625 0 2.469 1 .86 1 .86 2.687v6.125h-2.422v-5.671q0-.891-.422-1.375-.422-.485-1.172-.485-.953 0-1.531.75-.563.75-.563 1.985v4.796h-2.437v-5.671q0-.891-.438-1.375-.437-.485-1.234-.485-.907 0-1.453.75-.547.75-.547 1.985v4.796h-2.453v-9.515zm16.933 0h2.297v1.156h.14q.391-.61 1.141-1.031.75-.422 1.719-.422 1.281 0 2.328.64 1.062.641 1.656 1.797.594 1.157.594 2.625 0 1.47-.594 2.625-.594 1.141-1.656 1.782-1.047.64-2.328.64-.969 0-1.735-.406-.75-.406-1.125-1.031h-.14l.14 1.344v3.828h-2.437V413.04zm4.86 7.562q.687 0 1.28-.359.61-.36.954-.984.359-.641.359-1.454 0-.828-.36-1.453-.343-.64-.953-.984-.593-.344-1.28-.344-.673 0-1.266.344-.594.344-.954.984-.343.625-.343 1.453 0 .813.343 1.454.36.625.954.984.593.36 1.265.36zm8.29-8.609q-.656 0-1.125-.469-.468-.469-.468-1.11 0-.655.468-1.109.47-.468 1.125-.468.657 0 1.11.468.453.454.453 1.11 0 .64-.453 1.11-.453.468-1.11.468zm-1.234 1.047h2.438v9.515h-2.438v-9.515zm4.974-3.844h2.453v13.36h-2.453v-13.36zm9.32 13.656q-1.422 0-2.563-.64-1.14-.657-1.781-1.797-.64-1.156-.64-2.594 0-1.36.624-2.531.64-1.172 1.75-1.86 1.125-.687 2.516-.687 1.469 0 2.531.64 1.063.626 1.61 1.735.562 1.094.562 2.437 0 .422-.062.829h-7.141q.187 1.125.906 1.718.719.594 1.719.594.844 0 1.453-.36.61-.374.953-.984l1.985.97q-1.454 2.53-4.422 2.53zm2.25-6.203q-.032-.453-.328-.89-.282-.438-.797-.72-.516-.296-1.203-.296-.875 0-1.5.516-.625.5-.907 1.39h4.735zm4.232-3.61h2.297v1.266h.156q.36-.671 1.094-1.109.75-.437 1.64-.437.657 0 1.204.203v2.453q-.5-.188-.86-.266-.343-.094-.734-.094-1.078 0-1.719.782-.625.781-.625 1.984v4.734h-2.453v-9.515z"/><path fill="#0b5394" d="M205.65 36.778a8.304 8.304 0 0 1 8.305-8.304H316.37a8.304 8.304 0 0 1 8.305 8.304v33.218a8.304 8.304 0 0 1-8.305 8.304H213.955a8.304 8.304 0 0 1-8.304-8.304z" fill-rule="evenodd"/><path stroke="#073763" stroke-linejoin="round" stroke-linecap="butt" d="M205.65 36.778h0a8.304 8.304 0 0 1 8.305-8.304H316.37a8.304 8.304 0 0 1 8.305 8.304v33.218a8.304 8.304 0 0 1-8.305 8.304H213.955a8.304 8.304 0 0 1-8.304-8.304z"/><path fill="#f3f3f3" d="M237.053 50.791h2.297v1.157h.14q.392-.61 1.142-1.032.75-.421 1.718-.421 1.282 0 2.328.64 1.063.64 1.657 1.797.593 1.156.593 2.625t-.593 2.625q-.594 1.14-1.657 1.781-1.046.64-2.328.64-.968 0-1.734-.405-.75-.407-1.125-1.032h-.14l.14 1.344v3.828h-2.438V50.791zm4.86 7.563q.687 0 1.281-.36.61-.359.953-.984.36-.64.36-1.453 0-.828-.36-1.453-.344-.64-.953-.984-.594-.344-1.281-.344-.672 0-1.266.344-.594.343-.953.984-.344.625-.344 1.453 0 .813.344 1.453.36.625.953.985.594.359 1.266.359zm9.822 2.25q-1.515 0-2.484-.875-.969-.89-.969-2.328 0-.953.5-1.672.5-.734 1.375-1.125.89-.39 1.953-.39 1.469 0 2.516.421v-.406q0-.781-.594-1.266-.578-.484-1.578-.484-.672 0-1.297.312-.625.297-1.031.797l-1.563-1.234q.688-.89 1.735-1.375 1.047-.484 2.265-.484 2.188 0 3.328 1.015 1.141 1 1.141 2.938v5.859h-2.406v-.969h-.156q-.422.563-1.125.922-.704.344-1.61.344zm.578-1.906q1.063 0 1.688-.672.625-.688.625-1.594-.953-.453-2-.453-1.906 0-1.906 1.422 0 .578.406.937.422.36 1.187.36zm6.967-7.907h2.296v1.266h.157q.359-.672 1.093-1.11.75-.437 1.641-.437.656 0 1.203.203v2.453q-.5-.187-.86-.265-.343-.094-.734-.094-1.078 0-1.718.781-.625.782-.625 1.985v4.734h-2.453v-9.516zm11.59 9.813q-1.734 0-2.812-.703-1.062-.719-1.5-1.844l2.188-.953q.297.672.843 1.016.547.343 1.282.343.672 0 1.11-.218.452-.22.452-.704 0-.468-.406-.687-.406-.234-1.234-.422l-1.11-.25q-1.156-.281-1.922-1.016-.765-.734-.765-1.843 0-.813.484-1.47.5-.655 1.344-1 .86-.358 1.875-.358 2.953 0 3.937 2.062l-2.078.922q-.562-1-1.797-1-.64 0-1.015.234-.36.219-.36.578 0 .672 1.266 1.016l1.39.328q1.422.36 2.141 1.094.719.719.719 1.781 0 .906-.531 1.61-.532.703-1.453 1.093-.922.39-2.047.39zm10.266 0q-1.422 0-2.563-.64-1.14-.657-1.78-1.798-.641-1.156-.641-2.593 0-1.36.625-2.532.64-1.171 1.75-1.859 1.125-.687 2.515-.687 1.469 0 2.531.64 1.063.625 1.61 1.735.562 1.093.562 2.437 0 .422-.062.828h-7.14q.187 1.125.905 1.719.72.594 1.72.594.843 0 1.452-.36.61-.375.953-.984l1.985.969q-1.453 2.53-4.422 2.53zm2.25-6.203q-.031-.453-.328-.89-.281-.438-.797-.72-.516-.296-1.203-.296-.875 0-1.5.515-.625.5-.906 1.39h4.734zm4.232-3.61h2.297v1.266h.156q.36-.672 1.094-1.11.75-.437 1.64-.437.657 0 1.204.203v2.453q-.5-.187-.86-.265-.343-.094-.734-.094-1.078 0-1.719.781-.625.782-.625 1.985v4.734h-2.453v-9.516z"/><path fill="#3d85c6" d="M368.155 17.77H517.41v57.127c-74.627 0-74.627 21.766-149.255 9.399z" fill-rule="evenodd"/><path stroke="#0b5394" stroke-linejoin="round" stroke-linecap="butt" d="M368.155 17.77H517.41v57.127c-74.627 0-74.627 21.766-149.255 9.399z"/><path fill="#f3f3f3" d="M408.373 28.894h2.89l5.016 13.36h-2.781l-1.11-3.188h-5.125l-1.11 3.187h-2.78l5-13.359zm3.187 7.86l-1.172-3.36-.484-1.61h-.156l-.485 1.61-1.187 3.36h3.484zm11.501 5.796q-.984 0-1.734-.406t-1.125-1.031h-.156v1.14h-2.297V28.894h2.453v3.656l-.156 1.344h.156q.39-.61 1.125-1.031.75-.422 1.734-.422 1.281 0 2.328.64 1.063.641 1.657 1.797.593 1.157.593 2.625 0 1.47-.593 2.625-.594 1.141-1.657 1.782-1.047.64-2.328.64zm-.437-2.25q.687 0 1.281-.359.61-.36.953-.984.36-.641.36-1.454 0-.828-.36-1.453-.344-.64-.953-.984-.594-.344-1.281-.344-.672 0-1.266.344t-.953.984q-.36.625-.36 1.453 0 .813.36 1.454.36.625.953.984.594.36 1.266.36zm10.522 2.25q-1.735 0-2.813-.703-1.062-.719-1.5-1.844l2.188-.953q.297.672.844 1.016.546.344 1.28.344.673 0 1.11-.219.453-.219.453-.703 0-.469-.406-.688-.406-.234-1.234-.422l-1.11-.25q-1.156-.28-1.922-1.015-.765-.735-.765-1.844 0-.812.484-1.469.5-.656 1.344-1 .86-.359 1.875-.359 2.953 0 3.937 2.062l-2.078.922q-.562-1-1.797-1-.64 0-1.015.235-.36.218-.36.578 0 .672 1.266 1.015l1.39.329q1.423.359 2.141 1.093.72.72.72 1.782 0 .906-.532 1.609-.531.703-1.453 1.094-.922.39-2.047.39zm9.937-.14q-.703 0-1.297-.219t-.969-.594q-.875-.844-.875-2.39v-4.375h-1.672v-2.094h1.672V30.05h2.438v2.688h2.328v2.094h-2.328v3.937q0 .719.312 1.047.266.297.906.297.344 0 .579-.094.234-.094.609-.328v2.39q-.797.329-1.703.329zm3.658-9.672h2.296v1.265h.157q.359-.671 1.093-1.109.75-.437 1.641-.437.656 0 1.203.203v2.453q-.5-.188-.86-.266-.343-.094-.734-.094-1.078 0-1.718.782-.625.781-.625 1.984v4.734h-2.453v-9.515zm10.888 9.812q-1.516 0-2.485-.875-.968-.89-.968-2.328 0-.953.5-1.672.5-.734 1.375-1.125.89-.39 1.953-.39 1.468 0 2.515.422v-.407q0-.78-.593-1.265-.579-.485-1.579-.485-.671 0-1.296.313-.625.297-1.032.797l-1.562-1.235q.687-.89 1.734-1.375 1.047-.484 2.266-.484 2.187 0 3.328 1.016 1.14 1 1.14 2.937v5.86h-2.406v-.97h-.156q-.422.563-1.125.923-.703.343-1.61.343zm.578-1.906q1.062 0 1.687-.672.625-.687.625-1.594-.953-.453-2-.453-1.906 0-1.906 1.422 0 .578.406.938.422.36 1.188.36zm11.45 1.906q-1.437 0-2.578-.64-1.14-.64-1.781-1.797-.64-1.156-.64-2.61 0-1.468.64-2.609.64-1.14 1.781-1.797 1.14-.656 2.578-.656 1.578 0 2.719.687 1.14.672 1.64 1.922l-2.234.938q-.593-1.266-2.125-1.266-1.125 0-1.843.766-.72.765-.72 2.015 0 1.266.72 2.032.718.765 1.843.765 1.547 0 2.235-1.343l2.218.968q-.609 1.25-1.75 1.938-1.14.687-2.703.687zm10.347-.14q-.704 0-1.297-.219-.594-.219-.97-.594-.874-.844-.874-2.39v-4.375h-1.672v-2.094h1.672V30.05h2.437v2.688h2.329v2.094H479.3v3.937q0 .719.313 1.047.266.297.906.297.344 0 .578-.094.235-.094.61-.328v2.39q-.797.329-1.703.329zm2.47-.157zM395.137 64.55q-1.75 0-3.093-.984-1.344-.984-1.89-2.797l2.374-.937q.281 1.062.953 1.703.672.625 1.672.625.844 0 1.438-.407.593-.421.593-1.171t-.578-1.22q-.562-.484-2.015-1.015l-.813-.312q-1.297-.438-2.219-1.36-.906-.922-.906-2.328 0-1.047.547-1.906.547-.86 1.531-1.344.985-.5 2.235-.5 1.812 0 2.859.86 1.047.843 1.437 1.968l-2.218.938q-.219-.61-.735-1.031-.5-.422-1.312-.422-.813 0-1.344.39-.531.375-.531.985t.5 1.031q.5.406 1.656.797l.844.281q1.734.61 2.656 1.594.922.969.922 2.547 0 1.312-.672 2.218-.672.907-1.734 1.36-1.047.437-2.157.437zm9.583-.75l-4-9.062h2.765l2.47 5.922h.155l2.36-5.922h2.734l-5.89 13.547h-2.626l2.032-4.485zm7.814-9.062h2.297v1.187h.156q.422-.687 1.204-1.078.796-.406 1.703-.406 1.718 0 2.609 1.047.906 1.047.906 2.86v5.905h-2.453v-5.609q0-.922-.469-1.422-.468-.5-1.296-.5-1 0-1.61.766-.594.765-.594 1.922v4.843h-2.453v-9.515zm15.316 9.672q-.703 0-1.297-.219t-.969-.594q-.875-.844-.875-2.39v-4.375h-1.671v-2.094h1.671V52.05h2.438v2.688h2.328v2.094h-2.328v3.937q0 .719.312 1.047.266.297.907.297.343 0 .578-.094.234-.094.61-.328v2.39q-.798.329-1.704.329zm6.58.14q-1.516 0-2.485-.875-.969-.89-.969-2.328 0-.953.5-1.672.5-.734 1.375-1.125.891-.39 1.954-.39 1.468 0 2.515.422v-.407q0-.78-.594-1.265-.578-.485-1.578-.485-.672 0-1.297.313-.625.297-1.03.797l-1.563-1.235q.687-.89 1.734-1.375 1.047-.484 2.266-.484 2.187 0 3.328 1.016 1.14 1 1.14 2.937v5.86h-2.406v-.97h-.156q-.422.563-1.125.923-.703.343-1.61.343zm.578-1.906q1.062 0 1.687-.672.625-.687.625-1.594-.953-.453-2-.453-1.906 0-1.906 1.422 0 .578.406.938.422.36 1.188.36zm9.325-3.219l-3.281-4.687h2.89l1.813 2.719h.11l1.687-2.72h2.984l-3.328 4.688 3.328 4.828h-2.89l-1.828-2.78h-.11l-1.781 2.78h-2.89l3.296-4.828zm6.453 4.828zm8.6-10.968h-3.734v-2.39h9.984v2.39h-3.734v10.968h-2.516V53.285zm7.923 1.453h2.297v1.265h.156q.36-.671 1.094-1.109.75-.437 1.64-.437.657 0 1.204.203v2.453q-.5-.188-.86-.266-.343-.094-.734-.094-1.078 0-1.719.782-.625.781-.625 1.984v4.734h-2.453v-9.515zm12.435 9.812q-1.422 0-2.562-.64-1.141-.657-1.782-1.797-.64-1.156-.64-2.594 0-1.36.625-2.531.64-1.172 1.75-1.86 1.125-.687 2.515-.687 1.469 0 2.532.64 1.062.626 1.609 1.735.562 1.094.562 2.437 0 .422-.062.829h-7.14q.187 1.125.906 1.718.718.594 1.718.594.844 0 1.453-.36.61-.374.954-.984l1.984.97q-1.453 2.53-4.422 2.53zm2.25-6.203q-.031-.453-.328-.89-.281-.438-.797-.72-.516-.296-1.203-.296-.875 0-1.5.516-.625.5-.906 1.39h4.734zm8.701 6.203q-1.422 0-2.562-.64-1.14-.657-1.782-1.797-.64-1.156-.64-2.594 0-1.36.625-2.531.64-1.172 1.75-1.86 1.125-.687 2.515-.687 1.47 0 2.532.64 1.062.626 1.61 1.735.562 1.094.562 2.437 0 .422-.063.829h-7.14q.187 1.125.906 1.718.718.594 1.718.594.844 0 1.454-.36.609-.374.953-.984l1.984.97q-1.453 2.53-4.422 2.53zm2.25-6.203q-.031-.453-.328-.89-.281-.438-.797-.72-.515-.296-1.203-.296-.875 0-1.5.516-.625.5-.906 1.39h4.734z"/><path fill="#38761d" d="M380.165 213.98a8.304 8.304 0 0 1 8.305-8.304h107.769a8.305 8.305 0 0 1 8.304 8.304v33.218a8.304 8.304 0 0 1-8.304 8.305h-107.77a8.304 8.304 0 0 1-8.304-8.305z" fill-rule="evenodd"/><path stroke="#274e13" stroke-linejoin="round" stroke-linecap="butt" d="M380.165 213.98h0a8.304 8.304 0 0 1 8.305-8.304h107.769a8.305 8.305 0 0 1 8.304 8.304v33.218a8.304 8.304 0 0 1-8.304 8.305h-107.77 0a8.304 8.304 0 0 1-8.304-8.305z"/><path fill="#f3f3f3" d="M394.756 226.947q-.656 0-1.125-.469-.468-.469-.468-1.11 0-.656.468-1.109.47-.469 1.125-.469.657 0 1.11.47.453.452.453 1.109 0 .64-.453 1.109t-1.11.469zm-1.234 1.047h2.438v9.515h-2.438v-9.515zm4.974 0h2.297v1.187h.156q.422-.687 1.204-1.078.796-.406 1.703-.406 1.718 0 2.61 1.047.905 1.046.905 2.859v5.906h-2.453v-5.61q0-.921-.469-1.421-.468-.5-1.296-.5-1 0-1.61.766-.594.765-.594 1.921v4.844h-2.453v-9.515zm15.316 9.671q-.703 0-1.297-.218-.594-.219-.969-.594-.875-.844-.875-2.39v-4.376H409v-2.093h1.671v-2.688h2.438v2.688h2.328v2.093h-2.328v3.938q0 .719.312 1.047.266.297.907.297.343 0 .578-.094.234-.094.61-.328v2.39q-.798.328-1.704.328zm8.126.141q-1.421 0-2.562-.64-1.14-.657-1.781-1.797-.64-1.157-.64-2.594 0-1.36.624-2.531.64-1.172 1.75-1.86 1.125-.687 2.516-.687 1.468 0 2.531.64 1.062.625 1.61 1.735.562 1.093.562 2.437 0 .422-.063.828h-7.14q.187 1.125.906 1.72.719.593 1.719.593.843 0 1.453-.36.61-.375.953-.984l1.984.969q-1.453 2.531-4.422 2.531zm2.25-6.203q-.03-.453-.328-.89-.28-.438-.797-.72-.515-.296-1.203-.296-.875 0-1.5.515-.625.5-.906 1.391h4.734zm4.233-3.61h2.297v1.266h.156q.36-.672 1.094-1.11.75-.437 1.64-.437.657 0 1.204.203v2.454q-.5-.188-.86-.266-.344-.094-.734-.094-1.078 0-1.719.781-.625.782-.625 1.985v4.734h-2.453v-9.515zm7.904 0h2.297v1.157h.14q.39-.61 1.14-1.031.75-.422 1.72-.422 1.28 0 2.328.64 1.062.641 1.656 1.797.594 1.156.594 2.625t-.594 2.625q-.594 1.14-1.656 1.781-1.047.641-2.328.641-.97 0-1.735-.406-.75-.406-1.125-1.031h-.14l.14 1.343v3.828h-2.437v-13.546zm4.859 7.563q.688 0 1.281-.36.61-.359.953-.984.36-.64.36-1.453 0-.828-.36-1.453-.343-.64-.953-.984-.593-.344-1.281-.344-.672 0-1.266.344-.593.343-.953.984-.343.625-.343 1.453 0 .813.343 1.453.36.625.953.985.594.36 1.266.36zm6.9-7.562h2.298v1.265h.156q.36-.672 1.094-1.11.75-.437 1.64-.437.656 0 1.203.203v2.454q-.5-.188-.86-.266-.343-.094-.733-.094-1.079 0-1.72.781-.624.782-.624 1.985v4.734h-2.453v-9.515zm12.436 9.812q-1.422 0-2.563-.64-1.14-.657-1.781-1.797-.64-1.157-.64-2.594 0-1.36.624-2.531.64-1.172 1.75-1.86 1.125-.687 2.516-.687 1.469 0 2.531.64 1.063.625 1.61 1.735.562 1.093.562 2.437 0 .422-.063.828h-7.14q.187 1.125.906 1.72.719.593 1.719.593.844 0 1.453-.36.61-.375.953-.984l1.984.969q-1.453 2.531-4.421 2.531zm2.25-6.203q-.032-.453-.329-.89-.28-.438-.796-.72-.516-.296-1.204-.296-.875 0-1.5.515-.625.5-.906 1.391h4.735zm8.373 6.062q-.703 0-1.297-.218-.594-.219-.969-.594-.875-.844-.875-2.39v-4.376h-1.672v-2.093h1.672v-2.688h2.438v2.688h2.328v2.093h-2.328v3.938q0 .719.312 1.047.266.297.906.297.344 0 .578-.094.235-.094.61-.328v2.39q-.797.328-1.703.328zm8.126.141q-1.422 0-2.562-.64-1.141-.657-1.782-1.797-.64-1.157-.64-2.594 0-1.36.625-2.531.64-1.172 1.75-1.86 1.125-.687 2.515-.687 1.47 0 2.532.64 1.062.625 1.609 1.735.562 1.093.562 2.437 0 .422-.062.828h-7.14q.187 1.125.906 1.72.718.593 1.718.593.844 0 1.453-.36.61-.375.954-.984l1.984.969q-1.453 2.531-4.422 2.531zm2.25-6.203q-.031-.453-.328-.89-.281-.438-.797-.72-.516-.296-1.203-.296-.875 0-1.5.515-.625.5-.906 1.391h4.734zm4.233-3.61h2.296v1.266h.157q.36-.672 1.093-1.11.75-.437 1.641-.437.656 0 1.203.203v2.454q-.5-.188-.86-.266-.343-.094-.734-.094-1.078 0-1.718.781-.625.782-.625 1.985v4.734h-2.453v-9.515z"/><path fill="#6aa84f" d="M566.685 194.971H715.94v57.126c-74.627 0-74.627 21.766-149.255 9.4z" fill-rule="evenodd"/><path stroke="#38761d" stroke-linejoin="round" stroke-linecap="butt" d="M566.685 194.971H715.94v57.126c-74.627 0-74.627 21.766-149.255 9.4z"/><path fill="#fff" d="M604.717 230.751q-.985 0-1.735-.406-.75-.406-1.125-1.031h-.156v1.14h-2.297v-13.36h2.453v3.657l-.156 1.344h.156q.391-.61 1.125-1.031.75-.422 1.735-.422 1.281 0 2.328.64 1.062.641 1.656 1.797.594 1.156.594 2.625t-.594 2.625q-.594 1.14-1.656 1.781-1.047.641-2.328.641zm-.438-2.25q.688 0 1.282-.36.609-.359.953-.984.36-.64.36-1.453 0-.828-.36-1.453-.344-.64-.953-.984-.594-.344-1.282-.344-.672 0-1.265.344-.594.343-.953.984-.36.625-.36 1.453 0 .813.36 1.453.359.625.953.985.593.36 1.265.36zm9.866 1.5l-4-9.062h2.766l2.469 5.921h.156l2.36-5.921h2.734l-5.891 13.546h-2.625l2.031-4.484zm11.955.61q-.703 0-1.297-.22-.593-.218-.968-.593-.875-.844-.875-2.39v-4.376h-1.672v-2.093h1.672v-2.688h2.437v2.688h2.328v2.093h-2.328v3.938q0 .719.313 1.047.265.297.906.297.344 0 .578-.094.234-.094.61-.328v2.39q-.797.328-1.704.328zm8.127.14q-1.422 0-2.563-.64-1.14-.657-1.78-1.797-.642-1.157-.642-2.594 0-1.36.625-2.531.641-1.172 1.75-1.86 1.125-.687 2.516-.687 1.469 0 2.531.64 1.063.625 1.61 1.735.562 1.093.562 2.437 0 .422-.062.828h-7.14q.187 1.125.905 1.72.72.593 1.72.593.843 0 1.452-.36.61-.375.953-.984l1.985.969q-1.453 2.531-4.422 2.531zm2.25-6.203q-.031-.453-.328-.89-.282-.438-.797-.72-.516-.296-1.203-.296-.875 0-1.5.515-.625.5-.907 1.391h4.735zm8.717 6.203q-1.438 0-2.579-.64-1.14-.641-1.78-1.797-.641-1.157-.641-2.61 0-1.469.64-2.61.64-1.14 1.781-1.796 1.141-.656 2.579-.656 1.578 0 2.718.687 1.141.672 1.641 1.922l-2.234.938q-.594-1.266-2.125-1.266-1.125 0-1.844.766-.719.765-.719 2.015 0 1.266.719 2.031.719.766 1.844.766 1.546 0 2.234-1.344l2.219.97q-.61 1.25-1.75 1.937-1.14.687-2.703.687zm10.768 0q-1.485 0-2.64-.656-1.157-.672-1.798-1.813-.64-1.156-.64-2.578t.64-2.578q.64-1.156 1.797-1.812 1.156-.672 2.64-.672 1.454 0 2.61.672 1.156.656 1.797 1.812.64 1.156.64 2.578t-.64 2.578q-.64 1.141-1.797 1.813-1.156.656-2.61.656zm0-2.25q.703 0 1.297-.328.609-.344.953-.984.36-.641.36-1.485 0-.844-.36-1.469-.344-.64-.953-.968-.594-.344-1.297-.344-.719 0-1.313.344-.593.328-.968.968-.36.625-.36 1.47 0 .827.36 1.484.375.64.968.984.594.328 1.313.328zm11.005 2.25q-1.282 0-2.344-.64-1.047-.641-1.656-1.782-.61-1.156-.61-2.625t.61-2.625q.609-1.156 1.656-1.797 1.062-.64 2.344-.64.968 0 1.718.422.75.421 1.141 1.03h.14l-.14-1.343v-3.656h2.422v13.36h-2.281v-1.141h-.141q-.375.625-1.14 1.03-.75.407-1.72.407zm.406-2.25q.687 0 1.281-.36.61-.359.953-.984.36-.64.36-1.453 0-.828-.36-1.453-.344-.64-.953-.984-.594-.344-1.281-.344-.672 0-1.266.344-.594.343-.953.984-.36.625-.36 1.453 0 .813.36 1.453.36.625.953.985.594.36 1.266.36zm11.74 2.25q-1.421 0-2.562-.64-1.14-.657-1.781-1.797-.64-1.157-.64-2.594 0-1.36.624-2.531.641-1.172 1.75-1.86 1.125-.687 2.516-.687 1.469 0 2.531.64 1.063.625 1.61 1.735.562 1.093.562 2.437 0 .422-.062.828h-7.141q.187 1.125.906 1.72.719.593 1.719.593.844 0 1.453-.36.61-.375.953-.984l1.985.969q-1.454 2.531-4.422 2.531zm2.25-6.203q-.03-.453-.327-.89-.282-.438-.797-.72-.516-.296-1.203-.296-.875 0-1.5.515-.625.5-.907 1.391h4.735z"/><path d="M517.394 404.636h28.141v.063h28.142"/><path stroke="#666" stroke-width="2" stroke-linejoin="round" stroke-linecap="butt" d="M517.394 404.636h28.141v.063h16.142"/><path fill="#666" stroke="#666" stroke-width="2" stroke-linecap="butt" d="M561.677 408.003l9.076-3.304-9.076-3.303z" fill-rule="evenodd"/><path d="M504.543 230.59h31.071v.062h31.071"/><path stroke="#666" stroke-width="2" stroke-linejoin="round" stroke-linecap="butt" d="M504.543 230.59h31.071v.062h19.071"/><path fill="#666" stroke="#666" stroke-width="2" stroke-linecap="butt" d="M554.685 233.956l9.076-3.304-9.076-3.303z" fill-rule="evenodd"/><path d="M324.675 53.387h21.74v.063h21.756"/><path stroke="#666" stroke-width="2" stroke-linejoin="round" stroke-linecap="butt" d="M324.675 53.387h21.74v.063h9.756"/><path fill="#666" stroke="#666" stroke-width="2" stroke-linecap="butt" d="M356.17 56.753l9.077-3.303-9.076-3.303z" fill-rule="evenodd"/><path fill="#fbbc05" d="M12.924 17.769h149.255v57.126c-74.627 0-74.627 21.766-149.255 9.4z" fill-rule="evenodd"/><path stroke="#d5a6bd" stroke-linejoin="round" stroke-linecap="butt" d="M12.924 17.769h149.255v57.126c-74.627 0-74.627 21.766-149.255 9.4z"/><path fill="#434343" d="M44.182 42.549q-1.578 0-2.766-.86-1.187-.874-1.656-2.359l2.312-.953q.25.875.782 1.328.547.453 1.328.453.86 0 1.344-.546.5-.563.5-1.579v-9.14h2.53v9.125q0 1.453-.577 2.469-.578 1.015-1.578 1.546-.985.516-2.22.516zm9.784 0q-1.516 0-2.484-.875-.97-.89-.97-2.328 0-.953.5-1.672.5-.734 1.376-1.125.89-.39 1.953-.39 1.469 0 2.516.421v-.406q0-.781-.594-1.266-.578-.484-1.578-.484-.672 0-1.297.313-.625.296-1.031.796L50.794 34.3q.688-.89 1.735-1.375 1.046-.484 2.265-.484 2.188 0 3.328 1.015 1.14 1 1.14 2.938v5.86h-2.405v-.97H56.7q-.421.563-1.125.922-.703.344-1.609.344zm.578-1.906q1.063 0 1.688-.672.625-.688.625-1.594-.953-.453-2-.453-1.907 0-1.907 1.422 0 .578.407.937.422.36 1.187.36zm5.904-7.906h2.781l2.406 6.187h.157l2.437-6.187h2.75l-4.078 9.515h-2.422l-4.031-9.515zm14.767 9.812q-1.515 0-2.484-.875-.969-.89-.969-2.328 0-.953.5-1.672.5-.734 1.375-1.125.891-.39 1.953-.39 1.47 0 2.516.421v-.406q0-.781-.594-1.266-.578-.484-1.578-.484-.672 0-1.297.313-.625.296-1.03.796L72.043 34.3q.687-.89 1.734-1.375 1.047-.484 2.266-.484 2.187 0 3.328 1.015 1.14 1 1.14 2.938v5.86h-2.406v-.97h-.156q-.422.563-1.125.922-.703.344-1.61.344zm.579-1.906q1.062 0 1.687-.672.625-.688.625-1.594-.953-.453-2-.453-1.906 0-1.906 1.422 0 .578.406.937.422.36 1.188.36zm11.34 1.906q-1.75 0-3.093-.984-1.344-.985-1.89-2.797l2.374-.938q.282 1.063.954 1.703.671.625 1.671.625.844 0 1.438-.406.594-.422.594-1.172t-.578-1.218q-.563-.485-2.016-1.016l-.813-.313q-1.296-.437-2.218-1.359-.907-.922-.907-2.328 0-1.047.547-1.906.547-.86 1.532-1.344.984-.5 2.234-.5 1.812 0 2.86.86 1.046.843 1.437 1.968l-2.219.938q-.219-.61-.734-1.032-.5-.422-1.313-.422-.812 0-1.344.391-.53.375-.53.984 0 .61.5 1.032.5.406 1.655.797l.844.28q1.735.61 2.656 1.595.922.968.922 2.546 0 1.313-.672 2.22-.671.905-1.734 1.359-1.047.437-2.156.437zm11.099 0q-1.438 0-2.578-.64-1.141-.641-1.782-1.797-.64-1.157-.64-2.61 0-1.469.64-2.61.64-1.14 1.782-1.796 1.14-.656 2.578-.656 1.578 0 2.718.687 1.141.672 1.641 1.922l-2.234.938q-.594-1.266-2.125-1.266-1.125 0-1.844.766-.719.765-.719 2.015 0 1.266.719 2.031.719.766 1.844.766 1.547 0 2.234-1.344l2.219.969q-.61 1.25-1.75 1.938-1.14.687-2.703.687zm6.205-9.812h2.297v1.265h.156q.36-.672 1.094-1.11.75-.437 1.64-.437.657 0 1.204.203v2.454q-.5-.188-.86-.266-.343-.094-.734-.094-1.078 0-1.719.781-.625.782-.625 1.985v4.734h-2.453v-9.515zm9.357-1.047q-.656 0-1.125-.47-.469-.468-.469-1.108 0-.657.47-1.11.468-.469 1.124-.469.656 0 1.11.47.453.452.453 1.109 0 .64-.453 1.109-.454.469-1.11.469zm-1.234 1.047h2.437v9.515h-2.437v-9.515zm4.912 0h2.296v1.156h.141q.39-.61 1.14-1.031.75-.422 1.72-.422 1.28 0 2.328.64 1.062.64 1.656 1.797.594 1.156.594 2.625t-.594 2.625q-.594 1.14-1.656 1.781-1.047.641-2.329.641-.968 0-1.734-.406-.75-.406-1.125-1.031h-.14l.14 1.343v3.828h-2.437V32.737zm4.859 7.562q.687 0 1.281-.36.61-.359.953-.984.36-.64.36-1.453 0-.828-.36-1.453-.343-.64-.953-.984-.594-.344-1.281-.344-.672 0-1.266.344-.593.343-.953.984-.344.625-.344 1.453 0 .813.344 1.453.36.625.953.985.594.359 1.266.359zm11.041 2.11q-.703 0-1.297-.22-.594-.218-.969-.593-.875-.844-.875-2.39V34.83h-1.671v-2.093h1.671v-2.688h2.438v2.688h2.328v2.093h-2.328v3.938q0 .719.312 1.047.266.297.907.297.343 0 .578-.094.234-.094.61-.328v2.39q-.798.328-1.704.328zm2.47-.157zM36.9 64.549q-1.735 0-2.813-.703-1.063-.719-1.5-1.844l2.187-.953q.297.672.844 1.016.547.343 1.281.343.672 0 1.11-.218.453-.22.453-.703 0-.47-.407-.688-.406-.234-1.234-.422l-1.11-.25q-1.156-.281-1.921-1.015-.766-.735-.766-1.844 0-.813.484-1.469.5-.656 1.344-1 .86-.36 1.875-.36 2.953 0 3.938 2.063l-2.078.922q-.563-1-1.797-1-.64 0-1.016.234-.36.22-.36.579 0 .671 1.266 1.015l1.39.328q1.423.36 2.142 1.094.718.719.718 1.781 0 .907-.53 1.61-.532.703-1.454 1.093-.922.391-2.047.391zm10.358 0q-1.484 0-2.64-.656-1.157-.672-1.798-1.813-.64-1.156-.64-2.578t.64-2.578q.641-1.156 1.797-1.812 1.157-.672 2.641-.672 1.453 0 2.61.672 1.156.656 1.796 1.812.64 1.156.64 2.578t-.64 2.578q-.64 1.14-1.797 1.813-1.156.656-2.609.656zm0-2.25q.703 0 1.297-.328.61-.344.953-.984.36-.641.36-1.485 0-.844-.36-1.469-.344-.64-.953-.968-.594-.344-1.297-.344-.719 0-1.313.344-.593.328-.968.968-.36.625-.36 1.47 0 .827.36 1.484.375.64.968.984.594.328 1.313.328zm10.349 2.25q-1.72 0-2.61-1.062-.89-1.063-.89-2.97v-5.78h2.437v5.484q0 .969.469 1.531.469.547 1.234.547 1.047 0 1.656-.766.61-.765.61-1.953v-4.843h2.453v9.515h-2.297v-1.187h-.156q-.422.687-1.203 1.093-.766.391-1.703.391zm7.737-9.812h2.297v1.265h.156q.36-.672 1.094-1.11.75-.437 1.64-.437.657 0 1.204.203v2.454q-.5-.188-.86-.266-.343-.094-.734-.094-1.078 0-1.719.781-.625.782-.625 1.985v4.734h-2.453v-9.515zm12.45 9.812q-1.437 0-2.577-.64-1.141-.641-1.782-1.797-.64-1.157-.64-2.61 0-1.469.64-2.61.641-1.14 1.782-1.796 1.14-.656 2.578-.656 1.578 0 2.718.687 1.141.672 1.641 1.922l-2.234.938q-.594-1.266-2.125-1.266-1.125 0-1.844.766-.719.765-.719 2.015 0 1.266.719 2.031.719.766 1.844.766 1.547 0 2.234-1.344l2.219.969q-.61 1.25-1.75 1.938-1.14.687-2.703.687zm10.675 0q-1.422 0-2.562-.64-1.141-.657-1.782-1.797-.64-1.157-.64-2.594 0-1.36.625-2.531.64-1.172 1.75-1.86 1.125-.687 2.515-.687 1.47 0 2.532.64 1.062.625 1.609 1.735.563 1.093.563 2.437 0 .422-.063.828h-7.14q.187 1.125.906 1.719.718.594 1.718.594.844 0 1.454-.36.609-.375.953-.984l1.984.969q-1.453 2.531-4.422 2.531zm2.25-6.203q-.031-.453-.328-.89-.281-.438-.797-.72-.515-.296-1.203-.296-.875 0-1.5.515-.625.5-.906 1.39h4.734zm3.045 5.906zm10.038.297q-1.438 0-2.579-.64-1.14-.641-1.78-1.797-.641-1.157-.641-2.61 0-1.469.64-2.61.64-1.14 1.781-1.796 1.141-.656 2.579-.656 1.578 0 2.718.687 1.14.672 1.64 1.922l-2.233.938q-.594-1.266-2.125-1.266-1.125 0-1.844.766-.719.765-.719 2.015 0 1.266.719 2.031.719.766 1.844.766 1.546 0 2.234-1.344l2.219.969q-.61 1.25-1.75 1.938-1.14.687-2.703.687zm10.768 0q-1.485 0-2.64-.656-1.157-.672-1.798-1.813-.64-1.156-.64-2.578t.64-2.578q.64-1.156 1.797-1.812 1.156-.672 2.64-.672 1.454 0 2.61.672 1.156.656 1.797 1.812.64 1.156.64 2.578t-.64 2.578q-.64 1.14-1.797 1.813-1.156.656-2.61.656zm0-2.25q.703 0 1.297-.328.609-.344.953-.984.36-.641.36-1.485 0-.844-.36-1.469-.344-.64-.953-.968-.594-.344-1.297-.344-.719 0-1.313.344-.594.328-.969.968-.359.625-.359 1.47 0 .827.36 1.484.374.64.968.984.594.328 1.313.328zm11.005 2.25q-1.282 0-2.344-.64-1.047-.641-1.656-1.782-.61-1.156-.61-2.625t.61-2.625q.609-1.156 1.656-1.797 1.062-.64 2.344-.64.968 0 1.718.422.75.421 1.141 1.03h.14l-.14-1.343v-3.656h2.422v13.36h-2.281v-1.141h-.141q-.375.625-1.14 1.03-.75.407-1.72.407zm.406-2.25q.687 0 1.281-.36.61-.359.953-.984.36-.64.36-1.453 0-.828-.36-1.453-.344-.64-.953-.984-.594-.344-1.281-.344-.672 0-1.266.344-.594.343-.953.984-.36.625-.36 1.453 0 .813.36 1.453.36.625.953.985.594.359 1.266.359zm11.74 2.25q-1.421 0-2.562-.64-1.14-.657-1.781-1.797-.64-1.157-.64-2.594 0-1.36.624-2.531.64-1.172 1.75-1.86 1.125-.687 2.516-.687 1.469 0 2.531.64 1.063.625 1.61 1.735.562 1.093.562 2.437 0 .422-.062.828h-7.141q.187 1.125.906 1.719.719.594 1.719.594.844 0 1.453-.36.61-.375.953-.984l1.985.969q-1.454 2.531-4.422 2.531zm2.25-6.203q-.03-.453-.327-.89-.282-.438-.797-.72-.516-.296-1.203-.296-.875 0-1.5.515-.625.5-.907 1.39h4.735z"/><path d="M162.18 53.386c10.867 0 16.302.016 21.735.032s10.864.031 21.729.031"/><path stroke="#666" stroke-width="2" stroke-linejoin="round" stroke-linecap="butt" stroke-dasharray="8.0,6.0" d="M162.18 53.386c10.867 0 16.302.016 21.735.032 2.717.008 5.433.016 8.828.022h.9"/><path fill="#666" stroke="#666" stroke-width="2" stroke-linecap="butt" d="M193.642 56.744l9.078-3.297-9.074-3.31z" fill-rule="evenodd"/><path d="M442.783 84.296c0 31.295-.11 47.418-.22 62.591-.111 15.173-.221 29.397-.221 58.794"/><path stroke="#666" stroke-width="2" stroke-linejoin="round" stroke-linecap="butt" stroke-dasharray="16.0,6.0" d="M442.783 84.296c0 31.295-.11 47.418-.22 62.591-.056 7.587-.111 14.936-.152 24.063-.021 4.564-.038 9.572-.05 15.277l-.012 7.454"/><path fill="#666" stroke="#666" stroke-width="2" stroke-linecap="butt" d="M439.046 193.68l3.297 9.078 3.31-9.075z" fill-rule="evenodd"/><path d="M779.815 263.214l.032 111.213h-31.843l-.031-111.213z"/><path fill="#ea4335" d="M757.789 279.856q0-1.11.546-2.016.546-.906 1.53-1.422.985-.516 2.25-.516 1.25 0 2.235.516 1 .516 1.547 1.422.563.906.563 2.016 0 .828-.359 1.468t-.89.969v.14l1.14-.14h3.141l.001 2.094H758.04v-1.953h.968v-.141q-.516-.313-.875-.969-.344-.64-.344-1.469zm1.937.343q0 .594.297 1.11.297.515.844.812.547.313 1.25.313.704 0 1.25-.313.547-.297.844-.812.297-.516.296-1.11 0-.578-.297-1.094-.297-.5-.844-.812-.547-.297-1.25-.297t-1.25.297q-.547.313-.843.813-.297.515-.297 1.093zm-1.934 10.065q0-1.219.546-2.187.562-.97 1.546-1.532.984-.547 2.219-.547 1.172 0 2.172.532 1 .547 1.594 1.5.594.968.594 2.156 0 1.266-.546 2.172-.546.922-1.5 1.39-.937.47-2.093.47-.36 0-.703-.048l-.002-6.125q-.969.157-1.484.766-.5.625-.5 1.484 0 .719.313 1.235.313.53.844.828l-.827 1.703q-2.173-1.25-2.173-3.797zm5.328 1.938q.375-.032.75-.282.375-.25.625-.687.25-.438.25-1.031 0-.75-.438-1.297-.438-.532-1.188-.766l.001 4.063zm-5.326 7.532q0-1.265.562-2.25.562-.984 1.546-1.547.985-.547 2.22-.547 1.218 0 2.202.547 1 .563 1.563 1.547.579.985.58 2.25 0 1.25-.578 2.235-.563 1-1.562 1.546-.985.563-2.203.563-1.235 0-2.22-.563-.984-.546-1.547-1.546-.562-.985-.563-2.235zm1.938 0q0 .61.281 1.125.282.516.829.813.547.312 1.281.312.719 0 1.266-.312.546-.297.827-.813.297-.515.297-1.125t-.297-1.125q-.282-.5-.829-.812-.547-.313-1.265-.313-.72 0-1.281.313-.547.312-.828.812-.281.516-.281 1.125zm6.47 5.871v1.97h-.984v.14q.532.328.891.969.36.64.36 1.468 0 1.11-.562 2.016-.547.906-1.546 1.406-.985.516-2.235.516-1.265 0-2.25-.516-.984-.5-1.531-1.406-.548-.906-.548-2.016 0-.828.343-1.484.36-.64.875-.953v-.14l-1.14.14h-3.282v-2.11h11.61zm-6.467 4.188q0 .594.297 1.094.297.515.844.812.547.313 1.25.313t1.25-.313q.547-.297.843-.812.297-.5.297-1.094 0-.578-.297-1.094-.297-.515-.844-.828-.547-.297-1.25-.297-.704 0-1.25.297-.547.313-.844.828-.297.516-.296 1.094zm-1.81 9.47q0-.61.171-1.126.188-.515.516-.828.718-.75 2.046-.75h3.766v-1.422h1.78l.001 1.422h2.313v2.094h-2.312v2h-1.78l-.001-2h-3.391q-.61 0-.89.266-.25.234-.25.781 0 .297.078.5t.266.516h-2.047q-.266-.688-.266-1.454zm9.188 4.312q0-.562.39-.968.407-.39.97-.39.546 0 .937.39.406.406.407.968 0 .563-.406.954-.39.39-.938.39-.562 0-.969-.39-.39-.391-.39-.954zm-.906-1.046v2.093h-8.156v-2.093h8.156zm.001 4.275v1.953h-1.015v.14q.594.375.938 1.016.344.656.344 1.453 0 .875-.421 1.516-.406.64-1.031.906.64.406 1.047 1.094.406.703.407 1.64 0 1.391-.86 2.11-.858.734-2.312.734h-5.25v-2.078h4.86q.765 0 1.187-.36.421-.359.421-1 0-.812-.656-1.296-.641-.485-1.704-.485h-4.109v-2.109h4.859q.765 0 1.187-.375.422-.375.422-1.063 0-.765-.657-1.234-.64-.469-1.703-.469h-4.11v-2.093h8.156zm.91 15.747q0-.562.391-.968.406-.39.969-.39.547 0 .937.39.407.406.407.968 0 .563-.406.954-.39.39-.937.39-.563 0-.97-.39-.39-.391-.39-.954zm-.906-1.046v2.093h-8.155v-2.093h8.155zm-6.436 3.853l4.673 4.25-.001-4.125h1.765l.002 6.703h-1.703l-4.673-4.25.001 4.375h-1.78l-.003-6.953h1.719zm-1.965 12.41q0-1.219.546-2.187.562-.97 1.546-1.532.985-.546 2.219-.546 1.172 0 2.172.53 1 .548 1.594 1.5.594.97.595 2.157 0 1.266-.547 2.172-.546.922-1.5 1.39-.937.47-2.093.47-.36 0-.703-.048l-.002-6.125q-.969.157-1.484.766-.5.625-.5 1.484 0 .72.313 1.235.313.531.844.828l-.827 1.703q-2.173-1.25-2.173-3.797zm5.328 1.938q.375-.032.75-.282.375-.25.625-.687.25-.438.25-1.031 0-.75-.438-1.297-.438-.531-1.188-.766l.001 4.063z"/><path d="M641.313 261.496c0 29.614-47.796 44.897-95.59 59.227-47.796 14.331-95.591 27.71-95.591 55.419"/><path stroke="#666" stroke-width="2" stroke-linejoin="round" stroke-linecap="butt" stroke-dasharray="8.0,6.0" d="M641.313 261.496c0 29.614-47.796 44.897-95.59 59.227-23.898 7.166-47.796 14.093-65.72 22.693-8.96 4.3-16.429 9.018-21.657 14.392a35.28 35.28 0 0 0-3.489 4.158 29 29 0 0 0-1.407 2.179l-.228.402"/><path fill="#666" stroke="#666" stroke-width="2" stroke-linecap="butt" d="M450.03 363.696l.855 9.62 5.529-7.919z" fill-rule="evenodd"/><path d="M319.779 371.34l.031-105.04h30.583l-.032 105.04z"/><path fill="#34a853" d="M341.187 347.65q0 1.265-.563 2.25-.563.984-1.547 1.547-.985.546-2.22.546-1.218 0-2.202-.546-1-.563-1.562-1.547-.578-.985-.578-2.25 0-1.25.58-2.235.562-1 1.562-1.547.985-.562 2.203-.562 1.235 0 2.219.562.984.547 1.546 1.547.563.985.562 2.235zm-1.937 0q0-.61-.281-1.125-.281-.516-.828-.813-.547-.312-1.281-.312-.719 0-1.266.312-.547.297-.828.813-.297.515-.298 1.125 0 .61.297 1.125.281.5.828.812.547.313 1.265.313.72 0 1.282-.313.547-.312.828-.812.282-.516.282-1.125zm-6.467-5.872v-1.968h.985v-.14q-.531-.33-.89-.97-.36-.64-.36-1.468 0-1.11.564-2.016.547-.906 1.547-1.406.984-.516 2.234-.516 1.266 0 2.25.516.984.5 1.531 1.406.547.906.546 2.016 0 .828-.344 1.484-.36.64-.875.953v.14l1.14-.14h3.282v2.11h-11.61zm6.47-4.187q0-.594-.297-1.094-.297-.515-.843-.812-.547-.313-1.25-.313t-1.25.313q-.547.297-.844.812-.297.5-.298 1.094 0 .578.297 1.094.297.515.844.828.546.297 1.25.297.703 0 1.25-.297.546-.313.844-.828.297-.516.297-1.094zm1.815-9.47q0 .61-.172 1.125-.188.516-.516.829-.719.75-2.047.75h-3.766v1.421h-1.781v-1.421h-2.313l.001-2.094h2.313v-2h1.781v2h3.39q.61 0 .891-.266.25-.234.25-.781 0-.297-.078-.5t-.265-.516h2.047q.265.688.265 1.453zm-9.186-4.313q0 .563-.391.97-.406.39-.969.39-.547 0-.937-.39-.406-.407-.406-.97 0-.562.406-.953.391-.39.938-.39.562 0 .968.39.391.39.39.953zm.906 1.047v-2.093h8.157l-.001 2.093h-8.156zm.001-4.275v-1.953h1.016v-.14q-.593-.375-.937-1.016-.343-.656-.343-1.453 0-.875.422-1.516.407-.64 1.032-.906-.64-.406-1.047-1.094-.406-.703-.406-1.64 0-1.391.86-2.11.86-.734 2.313-.734h5.25v2.078h-4.86q-.766 0-1.188.36-.422.359-.422 1 0 .812.656 1.296.64.485 1.703.485h4.11l-.001 2.109h-4.86q-.765 0-1.187.375-.422.375-.422 1.062 0 .766.656 1.235.64.469 1.703.469h4.109v2.093h-8.157zm-.901-15.748q0 .563-.391.97-.407.39-.97.39-.546 0-.937-.39-.406-.407-.406-.97 0-.562.407-.953.39-.39.938-.39.562 0 .968.39.39.39.39.953zm.905 1.047l.001-2.094h8.156v2.094h-8.157zm6.44-3.853l-4.671-4.25-.002 4.125h-1.765l.002-6.703h1.703l4.67 4.25.002-4.375h1.78l-.001 6.953h-1.719zm1.972-12.41q0 1.218-.548 2.187-.563.969-1.547 1.531-.985.547-2.22.547-1.171 0-2.17-.53-1-.548-1.594-1.5-.594-.97-.593-2.157 0-1.266.547-2.172.547-.922 1.5-1.39.938-.47 2.095-.47.359 0 .703.047l-.002 6.125q.969-.156 1.484-.765.5-.625.5-1.485.001-.718-.311-1.234-.313-.531-.844-.828l.829-1.703q2.171 1.25 2.17 3.797zm-5.328-1.938q-.375.031-.75.281t-.625.688q-.25.437-.25 1.031 0 .75.437 1.297.437.531 1.187.766l.001-4.063z"/><path d="M434.695 326.195l150.583-46.425 9.008 29.26-150.583 46.425z"/><path fill="#666" d="M474.972 331.843l-2.18.672.667 2.166-1.479.456-.666-2.166-2.165.668-.455-1.479 2.165-.667-.667-2.165 1.478-.456.667 2.165 2.18-.672.455 1.478zm1.632 2.473zm1.742-7.65l1.568-.483.244.791.104-.032q.14-.5.56-.941.417-.455 1.074-.658.88-.271 1.735-.044.865.207 1.512.874t.95 1.653q.313 1.016.153 1.931-.164.901-.758 1.575-.583.654-1.464.925-.657.203-1.267.08-.595-.127-.977-.467l-.105.032.385.88.805 2.612-1.673.516-2.846-9.244zm4.916 4.126q.463-.143.793-.506.344-.368.45-.875.105-.506-.07-1.074-.17-.552-.542-.912t-.863-.47q-.477-.114-.94.029-.463.142-.792.506-.33.363-.45.874-.106.507.064 1.06.175.567.547.926.387.355.864.47.476.114.94-.028zm3.13-6.606l1.568-.484.266.867.09-.028q.111-.541.527-.996.416-.456 1.028-.644.448-.138.852-.1l.51 1.658q-.38-.014-.637 0-.242.01-.511.093-.747.23-1.014.9-.268.672-.02 1.478l.998 3.24-1.657.512-2-6.496zm10.608 4.07q-1.015.314-1.944.11-.92-.224-1.606-.862-.677-.658-.98-1.644-.294-.956-.105-1.88.204-.93.843-1.618.649-.706 1.664-1.02.985-.303 1.92-.084.929.204 1.605.862.692.653.986 1.609.303.985.1 1.915-.195.91-.844 1.617-.653.692-1.639.996zm-.478-1.552q.478-.148.812-.496.35-.353.455-.86.106-.506-.078-1.104-.175-.567-.547-.927-.372-.359-.86-.454-.476-.115-.954.033-.493.152-.822.515-.335.348-.455.86-.12.51.054 1.078.18.583.571.952.387.355.86.455.472.1.964-.052zm4.285-5.393l-1.165.36-.441-1.434 1.164-.36-.11-.358q-.34-1.105.124-1.934.459-.845 1.534-1.177.612-.188 1.106-.177l.501 1.628q-.286-.027-.479-.016-.197-.005-.436.069-.433.134-.609.466-.18.317-.052.735l.079.254 1.597-.493.442 1.434-1.598.492 1.558 5.063-1.657.51-1.558-5.062zm4.837-3.845q-.448.138-.873-.075-.41-.217-.548-.665-.138-.448.079-.858.232-.415.68-.553.448-.138.843.084.41.217.548.665.138.448-.08.858-.201.406-.65.544zm-.63.979l1.672-.516 2 6.496-1.673.516-2-6.496zm2.603-3.68l1.657-.512 2.81 9.125-1.658.51-2.809-9.124zm4.84.6q-.447.138-.872-.074-.41-.217-.548-.665-.138-.448.079-.859.232-.414.68-.553.448-.138.843.084.41.217.548.665.138.448-.08.858-.201.406-.65.544zm-.63.98l1.673-.517 2 6.496-1.673.516-2-6.496zm3.413-1.053l1.568-.484.253.822.09-.028q.15-.57.606-1.004.45-.45 1.062-.639 1.18-.363 2.013.165.832.528 1.214 1.767l1.241 4.032-1.672.516-1.182-3.838q-.193-.627-.627-.87-.42-.246-.987-.071-.671.207-.929.859-.257.651-.013 1.443l1.02 3.315-1.657.51-2-6.495zm13.526 6.18q-1.24.382-2.23.083-.977-.304-1.5-.993l1.37-1.126q.356.413.862.568.505.155 1.043-.01.791-.245 1.102-.88.316-.62.04-1.517l-.156-.507-.105.032q-.165.525-.6.92-.423.376-1.05.57-.806.248-1.632.061-.816-.206-1.468-.839-.653-.632-.961-1.633-.313-1.015-.124-1.89.183-.891.741-1.521.573-.635 1.38-.883.627-.194 1.193-.107.577.068 1.009.409l.104-.032-.211-.687 1.612-.498 1.862 6.048q.322 1.046.138 1.936-.168.886-.801 1.54-.618.647-1.618.956zm-1.35-4.49q.702-.216 1.048-.845.34-.645.079-1.496-.271-.881-.911-1.207-.625-.331-1.342-.11-.717.22-1.073.87-.345.63-.079 1.496.267.866.907 1.192.655.322 1.371.1zm4.58.257zm6.643-1.82q-.866.267-1.731.06-.855-.227-1.512-.875-.647-.667-.96-1.682-.303-.986-.143-1.902.174-.92.757-1.574.594-.674 1.46-.94.672-.208 1.272-.066.595.128.992.463l.105-.032-.39-.894-.768-2.494 1.658-.511 2.809 9.124-1.553.48-.24-.777-.104.032q-.125.496-.56.941-.42.44-1.092.647zm-.195-1.64q.478-.147.808-.51.33-.364.435-.87.12-.512-.054-1.08-.17-.552-.558-.907-.372-.36-.849-.474-.476-.114-.954.033-.463.143-.792.506-.33.363-.45.874-.106.507.064 1.06.175.567.547.927.387.354.864.469.476.115.94-.028zm7.44-.593q-1.03.317-1.886-.073-.845-.41-1.149-1.395-.202-.657-.01-1.256.191-.599.706-1.052.514-.453 1.246-.678 1-.309 1.809-.23l-.087-.285q-.166-.537-.67-.741-.504-.205-1.176.003-.463.142-.832.485-.354.338-.532.769l-1.317-.51q.274-.755.89-1.304.61-.565 1.447-.822 1.493-.46 2.481-.013.988.447 1.397 1.776l1.232 4.003-1.642.506-.203-.657-.104.032q-.184.465-.583.867-.405.386-1.017.575zm-.012-1.42q.732-.225 1.008-.817.285-.611.097-1.223-.754-.111-1.455.105-1.3.4-1 1.371.119.388.466.56.362.166.884.005zm7.961-1.146q-.478.148-.942.127-.449-.025-.78-.2-.773-.384-1.099-1.444l-.92-2.987-1.134.35-.442-1.433 1.135-.35-.565-1.837 1.672-.516.565 1.837 1.583-.488.442 1.434-1.583.488.823 2.673q.156.508.43.652.243.154.676.02.239-.073.385-.183.141-.126.349-.353l.501 1.627q-.484.395-1.096.583zm4.52-1.279q-1.03.318-1.886-.072-.845-.41-1.149-1.395-.202-.658-.01-1.256.191-.599.706-1.052.514-.453 1.246-.678 1-.309 1.809-.231l-.087-.284q-.166-.537-.67-.742-.504-.204-1.176.003-.463.143-.832.486-.354.338-.532.768l-1.317-.509q.274-.755.89-1.304.61-.565 1.447-.823 1.493-.46 2.481-.012.988.447 1.397 1.776l1.232 4.002-1.642.507-.203-.657-.104.032q-.184.465-.583.866-.405.387-1.017.575zm-.012-1.418q.732-.226 1.008-.818.286-.611.097-1.224-.753-.11-1.455.106-1.3.4-1 1.371.119.388.466.56.362.166.884.005z"/><path d="M722.933 404.637c12.5 0 25.874-43.512 25-87.024-.874-43.511-15.996-87.023-31.993-87.023"/><path stroke="#ea4335" stroke-width="2" stroke-linejoin="round" stroke-linecap="butt" stroke-dasharray="8.0,6.0" d="M722.933 404.637c12.5 0 25.874-43.512 25-87.024-.437-21.756-4.436-43.511-10.326-59.828-2.944-8.159-6.362-14.958-10.042-19.717a35.592 35.592 0 0 0-1.042-1.284l-.182-.209"/><path fill="#ea4335" stroke="#ea4335" stroke-width="2" stroke-linecap="butt" d="M727.989 233.712l-9.514-1.664 6.218 7.39z" fill-rule="evenodd"/><path d="M380.165 230.59c-12.5 0-25.334 43.511-25 87.023.335 43.512 13.839 87.023 27.678 87.023"/><path stroke="#34a853" stroke-width="2" stroke-linejoin="round" stroke-linecap="butt" stroke-dasharray="8.0,6.0" d="M380.165 230.59c-12.5 0-25.334 43.511-25 87.023.168 21.756 3.627 43.512 8.775 59.829 2.574 8.158 5.57 14.957 8.787 19.716.1.149.201.295.302.44l.047.066"/><path fill="#34a853" stroke="#34a853" stroke-width="2" stroke-linecap="butt" d="M371.157 400.353l9.306 2.585-5.468-7.963z" fill-rule="evenodd"/></g></svg>