<svg xmlns="http://www.w3.org/2000/svg" width="719pt" height="247pt" viewBox="0 0 719 247"><path d="M28.337 82.86H165.77l34.976 34.975-34.976 34.98H28.337l34.976-34.98zm0 0" transform="matrix(.8624 0 0 .8629 .519 0)" fill-rule="evenodd" fill="#3d85c6" stroke-linejoin="round" stroke="#3d85c6" stroke-miterlimit="10"/><path d="M233.444 71.208h563.402m-563.402 93.258h563.402M233.444 221.13h563.402" transform="matrix(.8624 0 0 .8629 .519 0)" fill="none" stroke-linejoin="round" stroke="#595959" stroke-miterlimit="10"/><path d="M360.93 173.067h47.093v32.888a6.574 6.574 0 0 1-6.576 6.573h-47.093v-32.883a6.575 6.575 0 0 1 6.577-6.578zm0 0" transform="matrix(.8624 0 0 .8629 .519 0)" fill-rule="evenodd" fill="#674ea7" stroke-linejoin="round" stroke="#38761d" stroke-miterlimit="10"/><path d="M425.73 173.067h47.087v32.888a6.574 6.574 0 0 1-6.576 6.573h-47.093v-32.883a6.582 6.582 0 0 1 6.581-6.578zm64.793 0h47.093v32.888a6.58 6.58 0 0 1-6.577 6.573h-47.093v-32.883a6.575 6.575 0 0 1 6.577-6.578zm162.1-.511h47.093v32.888a6.575 6.575 0 0 1-6.577 6.577h-47.092v-32.888a6.578 6.578 0 0 1 6.576-6.577zm64.799.507h47.088v32.888a6.575 6.575 0 0 1-6.577 6.577h-47.088V179.64a6.578 6.578 0 0 1 6.577-6.577zm0 0" transform="matrix(.8624 0 0 .8629 .519 0)" fill-rule="evenodd" fill="#674ea7" stroke-linejoin="round" stroke="#595959" stroke-miterlimit="10"/><path d="M61.125 94.754c-.879 0-1.617-.207-2.207-.621a3.418 3.418 0 0 1-1.254-1.574l1.227-.555c.195.496.496.879.902 1.148.402.27.848.403 1.332.403.512 0 .95-.102 1.309-.309.367-.219.55-.52.55-.906a.96.96 0 0 0-.43-.82c-.288-.215-.742-.395-1.359-.54l-1-.27c-.652-.163-1.191-.433-1.617-.808-.41-.386-.617-.89-.617-1.511 0-.465.137-.88.418-1.239a2.71 2.71 0 0 1 1.129-.824c.476-.2.988-.297 1.539-.297.719 0 1.355.156 1.914.473.562.305.965.738 1.195 1.293l-1.183.555c-.368-.73-1.016-1.094-1.942-1.094-.457 0-.855.105-1.199.312-.332.207-.496.473-.496.793 0 .305.117.555.348.742.242.18.597.329 1.066.446l1.2.312c.796.203 1.398.512 1.804.914.414.395.621.887.621 1.47 0 .503-.148.948-.445 1.335-.29.379-.68.668-1.172.875-.485.2-1.028.297-1.633.297zm8.395 0c-.782 0-1.485-.184-2.102-.55a3.979 3.979 0 0 1-1.457-1.552c-.352-.664-.527-1.41-.527-2.238 0-.8.164-1.531.488-2.2a4 4 0 0 1 1.398-1.589c.606-.395 1.301-.594 2.09-.594.8 0 1.496.18 2.09.54a3.527 3.527 0 0 1 1.36 1.495c.316.63.472 1.356.472 2.172 0 .153-.016.293-.039.418h-6.496c.035.621.187 1.145.457 1.578.27.422.61.743 1.023.957a2.77 2.77 0 0 0 1.293.325c1.051 0 1.86-.496 2.426-1.485l1.16.567a4.105 4.105 0 0 1-1.441 1.578c-.602.386-1.336.578-2.195.578zm2.37-5.23a2.75 2.75 0 0 0-.296-1.024 2.171 2.171 0 0 0-.809-.879c-.367-.23-.832-.348-1.39-.348-.645 0-1.192.207-1.641.618-.442.414-.734.96-.875 1.632zm6.188 5.109c-.332 0-.64-.055-.93-.16a2.216 2.216 0 0 1-.714-.446 1.975 1.975 0 0 1-.473-.703 2.698 2.698 0 0 1-.16-.98v-4.817h-1.442V86.29h1.442v-2.32h1.36v2.32h1.995v1.238H77.16v4.477c0 .45.086.781.258 1 .207.23.504.348.89.348.313 0 .614-.09.903-.27v1.336a2.569 2.569 0 0 1-1.133.215zm5.375-10.356H80.22v-1.304h7.816v1.304h-3.207V94.5h-1.375zm6.84.5c-.27 0-.5-.093-.7-.28a.996.996 0 0 1-.284-.704c0-.27.097-.5.285-.688a.984.984 0 0 1 .699-.28c.27 0 .5.093.687.28.2.188.297.418.297.688 0 .27-.093.504-.28.703a.96.96 0 0 1-.704.281zm-.672 1.512h1.348V94.5H89.62zm3.5 0h1.309V87.5h.066c.234-.422.586-.773 1.05-1.05a2.957 2.957 0 0 1 1.509-.419c.593 0 1.117.145 1.566.434.45.285.766.672.957 1.156a3.246 3.246 0 0 1 1.145-1.156c.484-.29 1.043-.434 1.672-.434.94 0 1.652.29 2.128.864.477.574.711 1.359.711 2.347V94.5h-1.347v-5.059c0-.761-.157-1.316-.469-1.656-.305-.344-.766-.512-1.375-.512-.414 0-.785.118-1.117.348a2.398 2.398 0 0 0-.785.961c-.18.395-.27.82-.27 1.277V94.5H98.5v-5.043c0-.773-.16-1.332-.473-1.672-.304-.344-.757-.512-1.363-.512-.402 0-.77.122-1.102.364a2.462 2.462 0 0 0-.78.968 2.946 2.946 0 0 0-.286 1.297V94.5h-1.375zm17.73 8.465c-.78 0-1.48-.184-2.101-.55a3.979 3.979 0 0 1-1.457-1.552c-.348-.664-.523-1.41-.523-2.238 0-.8.16-1.531.484-2.2.332-.663.8-1.194 1.402-1.589.602-.395 1.297-.594 2.086-.594.801 0 1.496.18 2.09.54a3.527 3.527 0 0 1 1.36 1.495c.316.63.472 1.356.472 2.172 0 .153-.012.293-.039.418h-6.496c.039.621.191 1.145.457 1.578a2.69 2.69 0 0 0 1.027.957 2.77 2.77 0 0 0 1.293.325c1.051 0 1.86-.496 2.426-1.485l1.156.567a4.046 4.046 0 0 1-1.441 1.578c-.602.386-1.332.578-2.195.578zm2.372-5.23a2.75 2.75 0 0 0-.297-1.024 2.119 2.119 0 0 0-.809-.879c-.367-.23-.828-.348-1.387-.348-.648 0-1.195.207-1.644.618-.438.414-.73.96-.875 1.632zm6.82 5.23c-.809 0-1.535-.192-2.18-.578a4.065 4.065 0 0 1-1.496-1.578 4.55 4.55 0 0 1-.539-2.2c0-.808.18-1.543.54-2.21a4.028 4.028 0 0 1 1.495-1.575c.645-.386 1.371-.582 2.18-.582.8 0 1.523.196 2.172.582a4.03 4.03 0 0 1 1.508 1.575c.359.667.539 1.402.539 2.21 0 .801-.18 1.536-.54 2.2a4.067 4.067 0 0 1-1.507 1.578 4.162 4.162 0 0 1-2.172.578zm0-1.238a2.71 2.71 0 0 0 1.402-.38c.442-.25.793-.609 1.051-1.077.262-.477.39-1.028.39-1.66 0-.637-.128-1.192-.39-1.657a2.728 2.728 0 0 0-1.05-1.094 2.743 2.743 0 0 0-1.403-.375c-.5 0-.973.125-1.414.375a2.863 2.863 0 0 0-1.063 1.094c-.261.469-.39 1.02-.39 1.656 0 .633.129 1.184.39 1.66a2.846 2.846 0 0 0 2.477 1.458zm8.781 1.238c-.988 0-1.742-.285-2.262-.863-.523-.582-.78-1.395-.78-2.438V86.29h1.374v4.961c0 .781.172 1.355.524 1.727.36.359.84.539 1.441.539.457 0 .867-.121 1.227-.364.359-.254.636-.578.836-.972.199-.395.296-.813.296-1.254V86.29h1.375v8.21h-1.308v-1.188h-.067c-.222.403-.582.747-1.078 1.024a3.14 3.14 0 0 1-1.578.418zm9.203-.121c-.332 0-.644-.051-.93-.16a2.216 2.216 0 0 1-.714-.446 1.988 1.988 0 0 1-.473-.703 2.698 2.698 0 0 1-.16-.98v-4.817h-1.441V86.29h1.441v-2.32h1.36v2.32h1.995v1.238h-1.996v4.477c0 .45.086.781.258 1 .207.23.504.348.89.348.313 0 .614-.09.903-.27v1.336a2.569 2.569 0 0 1-1.133.215zm2.547 1.199l.848-1.332a.91.91 0 0 1-.512-.313.89.89 0 0 1-.23-.617c0-.28.101-.52.297-.715.199-.199.445-.296.742-.296.289 0 .531.097.726.296a.96.96 0 0 1 .297.715c0 .18-.039.356-.12.524a3.6 3.6 0 0 1-.325.566l-1.063 1.606zm-79.449 17.906c-.879 0-1.617-.207-2.207-.62a3.418 3.418 0 0 1-1.254-1.575l1.227-.555c.195.496.496.875.902 1.145.402.27.848.406 1.332.406.512 0 .95-.105 1.309-.309.367-.218.55-.52.55-.906a.96.96 0 0 0-.43-.82c-.288-.215-.742-.395-1.359-.54l-1-.269c-.652-.164-1.191-.433-1.617-.808-.41-.387-.617-.89-.617-1.512 0-.469.137-.879.418-1.238.285-.36.664-.637 1.129-.825a3.945 3.945 0 0 1 1.539-.296c.719 0 1.355.156 1.914.472.562.305.965.735 1.195 1.293l-1.183.555c-.368-.73-1.016-1.094-1.942-1.094-.457 0-.855.106-1.199.309-.332.207-.496.472-.496.797 0 .304.117.554.348.742.242.18.597.328 1.066.445l1.2.309c.796.207 1.398.511 1.804.918.414.394.621.886.621 1.468 0 .504-.148.95-.445 1.336-.29.38-.68.668-1.172.875-.485.2-1.028.297-1.633.297zm8.395 0c-.782 0-1.485-.183-2.102-.55a3.979 3.979 0 0 1-1.457-1.551c-.352-.668-.527-1.414-.527-2.239 0-.8.164-1.53.488-2.199a4 4 0 0 1 1.398-1.59c.606-.394 1.301-.593 2.09-.593.8 0 1.496.18 2.09.539.594.36 1.047.86 1.36 1.496.316.629.472 1.355.472 2.172 0 .152-.016.293-.039.418h-6.496c.035.62.187 1.144.457 1.578.27.422.61.742 1.023.957a2.77 2.77 0 0 0 1.293.324c1.051 0 1.86-.496 2.426-1.484l1.16.566a4.105 4.105 0 0 1-1.441 1.578c-.602.387-1.336.578-2.195.578zm2.37-5.23a2.75 2.75 0 0 0-.296-1.024 2.171 2.171 0 0 0-.809-.879c-.367-.234-.832-.351-1.39-.351-.645 0-1.192.207-1.641.621-.442.414-.734.957-.875 1.633zm6.188 5.11a2.68 2.68 0 0 1-.93-.161 2.216 2.216 0 0 1-.714-.445 2.012 2.012 0 0 1-.473-.703 2.698 2.698 0 0 1-.16-.98v-4.817h-1.442v-1.239h1.442v-2.32h1.36v2.32h1.995v1.239H77.16v4.476c0 .45.086.782.258.996.207.235.504.352.89.352.313 0 .614-.09.903-.27v1.336c-.164.07-.328.125-.5.16a3.04 3.04 0 0 1-.633.055zm3.02-11.661h1.347v11.527h-1.347zm3.64 3.316h1.309v1.211h.066a2.83 2.83 0 0 1 1.051-1.05c.477-.278.98-.418 1.508-.418.594 0 1.117.144 1.566.43.45.288.766.675.957 1.16a3.29 3.29 0 0 1 1.145-1.16c.484-.286 1.043-.43 1.672-.43.941 0 1.652.289 2.129.863.476.574.714 1.355.714 2.344v5.261h-1.351v-5.058c0-.762-.156-1.317-.469-1.656-.305-.344-.765-.516-1.375-.516a1.89 1.89 0 0 0-1.117.351 2.371 2.371 0 0 0-.781.957c-.18.399-.27.825-.27 1.282v4.64h-1.375v-5.043c0-.773-.16-1.332-.472-1.671-.305-.344-.758-.516-1.364-.516-.402 0-.77.125-1.101.367a2.462 2.462 0 0 0-.782.969 2.946 2.946 0 0 0-.285 1.297v4.597h-1.375zm14.078 0h1.309v1.211h.066a2.83 2.83 0 0 1 1.051-1.05c.477-.278.98-.418 1.512-.418.59 0 1.113.144 1.562.43.45.288.766.675.957 1.16a3.29 3.29 0 0 1 1.145-1.16c.484-.286 1.043-.43 1.672-.43.941 0 1.652.289 2.129.863.476.574.71 1.355.71 2.344v5.261h-1.343v-5.058c0-.762-.16-1.317-.473-1.656-.304-.344-.765-.516-1.375-.516a1.89 1.89 0 0 0-1.117.351 2.371 2.371 0 0 0-.781.957 3.08 3.08 0 0 0-.274 1.282v4.64h-1.37v-5.043c0-.773-.157-1.332-.473-1.671-.305-.344-.758-.516-1.36-.516-.406 0-.773.125-1.105.367a2.462 2.462 0 0 0-.781.969 2.946 2.946 0 0 0-.286 1.297v4.597h-1.375zm17.73 8.465c-.78 0-1.48-.183-2.1-.55a3.979 3.979 0 0 1-1.458-1.551c-.347-.668-.523-1.414-.523-2.239 0-.8.16-1.53.484-2.199a4.01 4.01 0 0 1 1.403-1.59c.601-.394 1.296-.593 2.09-.593.796 0 1.492.18 2.085.539a3.57 3.57 0 0 1 1.364 1.496c.312.629.468 1.355.468 2.172 0 .152-.011.293-.039.418h-6.496c.04.62.192 1.144.457 1.578.274.422.614.742 1.028.957a2.77 2.77 0 0 0 1.293.324c1.05 0 1.859-.496 2.425-1.484l1.16.566a4.105 4.105 0 0 1-1.44 1.578c-.606.387-1.337.578-2.2.578zm2.372-5.23a2.75 2.75 0 0 0-.297-1.024 2.134 2.134 0 0 0-.805-.879c-.37-.234-.832-.351-1.39-.351-.649 0-1.196.207-1.645.621-.437.414-.73.957-.875 1.633zm6.512 5.23a3.75 3.75 0 0 1-1.993-.55 3.962 3.962 0 0 1-1.402-1.551c-.34-.668-.512-1.418-.512-2.254 0-.824.172-1.57.512-2.238a3.943 3.943 0 0 1 1.403-1.563 3.661 3.661 0 0 1 1.992-.566c.64 0 1.199.144 1.683.43.496.28.875.628 1.133 1.054h.066l-.066-1.148v-3.395h1.375v11.527h-1.309v-1.214h-.066c-.258.414-.637.765-1.133 1.05-.484.282-1.047.418-1.683.418zm.164-1.238c.484 0 .933-.129 1.347-.379.41-.262.743-.625.996-1.094.25-.476.376-1.023.376-1.644 0-.63-.125-1.176-.375-1.645-.254-.476-.586-.84-.997-1.09a2.477 2.477 0 0 0-2.683 0c-.422.25-.758.614-1.012 1.09-.25.477-.375 1.028-.375 1.645 0 .613.125 1.156.375 1.633.254.476.59.843 1.012 1.105.422.25.867.379 1.336.379zm6.855-8.738a.98.98 0 0 1-.703-.285.977.977 0 0 1-.281-.7c0-.27.094-.5.281-.687a.992.992 0 0 1 .703-.281c.27 0 .496.093.688.28a.922.922 0 0 1 .297.688.98.98 0 0 1-.286.7.94.94 0 0 1-.699.285zm-.676 1.511h1.348v8.211h-1.348zm6.13 8.465c-.602 0-1.141-.117-1.618-.351a2.655 2.655 0 0 1-1.09-.969 2.687 2.687 0 0 1-.379-1.414c0-.875.325-1.55.973-2.04.656-.484 1.48-.726 2.477-.726.496 0 .953.055 1.375.16.433.11.761.23.984.364v-.496c0-.614-.215-1.102-.648-1.47-.43-.37-.973-.554-1.63-.554-.456 0-.878.098-1.265.297-.387.2-.691.473-.918.82l-1.035-.765c.32-.496.766-.883 1.332-1.16a4.207 4.207 0 0 1 1.875-.418c1.113 0 1.988.293 2.625.875.64.586.957 1.382.957 2.386v5.207h-1.293v-1.175h-.066c-.235.394-.59.734-1.067 1.011-.465.282-.996.418-1.59.418zm.12-1.199c.47 0 .899-.117 1.293-.352.399-.242.711-.562.946-.957.242-.394.363-.832.363-1.308a3.62 3.62 0 0 0-.957-.418 4.373 4.373 0 0 0-1.184-.16c-.757 0-1.328.156-1.71.472a1.461 1.461 0 0 0-.567 1.2c0 .449.168.816.512 1.105.347.277.785.418 1.304.418zm8.95 1.078a2.7 2.7 0 0 1-.93-.16 2.216 2.216 0 0 1-.715-.445 2.012 2.012 0 0 1-.473-.703 2.698 2.698 0 0 1-.16-.98v-4.817h-1.441v-1.239h1.441v-2.32h1.36v2.32h1.996v1.239h-1.996v4.476c0 .45.086.782.257.996.208.235.504.352.891.352.313 0 .613-.09.902-.27v1.336c-.164.07-.328.125-.5.16a3.04 3.04 0 0 1-.632.055zm6.386.121c-.78 0-1.48-.183-2.101-.55a3.979 3.979 0 0 1-1.457-1.551c-.348-.668-.524-1.414-.524-2.239 0-.8.16-1.53.485-2.199.332-.664.8-1.195 1.402-1.59.602-.394 1.297-.593 2.086-.593.8 0 1.496.18 2.09.539.594.36 1.047.86 1.363 1.496.313.629.469 1.355.469 2.172 0 .152-.012.293-.04.418h-6.495c.039.62.191 1.144.46 1.578.27.422.61.742 1.024.957.41.215.844.324 1.293.324 1.05 0 1.86-.496 2.426-1.484l1.16.566a4.085 4.085 0 0 1-1.445 1.578c-.602.387-1.332.578-2.196.578zm2.371-5.23a2.75 2.75 0 0 0-.296-1.024 2.119 2.119 0 0 0-.809-.879c-.367-.234-.828-.351-1.387-.351-.648 0-1.195.207-1.644.621-.438.414-.73.957-.875 1.633zm0 0" fill="#fff"/><path d="M58.43 164.14h114.804l29.166 29.167-29.166 29.167H58.431l29.165-29.167zm0 0" transform="matrix(.8624 0 0 .8629 .519 0)" fill-rule="evenodd" fill="#674ea7" stroke-linejoin="round" stroke="#351c75" stroke-miterlimit="10"/><path d="M81.582 161.883c-.602 0-1.14-.117-1.617-.352a2.66 2.66 0 0 1-1.09-.969 2.656 2.656 0 0 1-.379-1.417c0-.872.324-1.551.969-2.036.656-.484 1.484-.726 2.48-.726.496 0 .953.05 1.375.16.43.11.758.23.985.363v-.496c0-.613-.22-1.101-.649-1.472-.43-.368-.972-.551-1.629-.551-.46 0-.882.097-1.265.297a2.308 2.308 0 0 0-.918.82l-1.04-.766c.325-.496.77-.883 1.337-1.16a4.15 4.15 0 0 1 1.87-.418c1.114 0 1.993.29 2.63.875.636.586.957 1.38.957 2.387v5.203h-1.293v-1.172h-.067c-.234.395-.59.734-1.066 1.012a3.057 3.057 0 0 1-1.59.418zm.121-1.2c.469 0 .899-.117 1.293-.351a2.77 2.77 0 0 0 .945-.957 2.45 2.45 0 0 0 .364-1.309 3.55 3.55 0 0 0-.957-.418 4.252 4.252 0 0 0-1.188-.16c-.754 0-1.324.157-1.71.473a1.472 1.472 0 0 0-.567 1.2c0 .448.172.816.512 1.105.351.277.789.418 1.308.418zm4.89-7.269h1.403l1.969 6.488h.012l2.062-6.488h1.414l2.074 6.473h.016l1.953-6.473h1.375l-2.656 8.211H94.84l-2.13-6.55-2.1 6.55h-1.376zm16.032 8.469c-.602 0-1.14-.117-1.617-.352a2.71 2.71 0 0 1-1.09-.969 2.691 2.691 0 0 1-.379-1.417c0-.872.324-1.551.973-2.036.656-.484 1.48-.726 2.48-.726.492 0 .95.05 1.371.16.434.11.762.23.985.363v-.496c0-.613-.215-1.101-.645-1.472-.433-.368-.976-.551-1.633-.551-.457 0-.879.097-1.265.297a2.334 2.334 0 0 0-.918.82l-1.035-.766a3.27 3.27 0 0 1 1.332-1.16 4.155 4.155 0 0 1 1.875-.418c1.113 0 1.988.29 2.629.875.636.586.957 1.38.957 2.387v5.203h-1.297v-1.172h-.067c-.234.395-.59.734-1.062 1.012-.469.277-1 .418-1.594.418zm.121-1.2c.469 0 .899-.117 1.293-.351.398-.242.711-.562.945-.957a2.45 2.45 0 0 0 .364-1.309 3.445 3.445 0 0 0-.957-.418 4.222 4.222 0 0 0-1.184-.16c-.754 0-1.324.157-1.71.473a1.461 1.461 0 0 0-.567 1.2c0 .448.168.816.511 1.105.352.277.786.418 1.309.418zm6.606-8.777a.964.964 0 0 1-.7-.285.964.964 0 0 1-.285-.7c0-.269.094-.5.285-.687a.964.964 0 0 1 .7-.285.93.93 0 0 1 .687.285.922.922 0 0 1 .297.688c0 .27-.094.504-.285.7a.94.94 0 0 1-.7.284zm-.676 1.508h1.347v8.211h-1.347zm6.656 8.348a2.67 2.67 0 0 1-.93-.16 2.216 2.216 0 0 1-.715-.446 2.012 2.012 0 0 1-.472-.703 2.706 2.706 0 0 1-.16-.984v-4.813h-1.442v-1.242h1.442v-2.316h1.36v2.316h1.995v1.242h-1.996v4.477c0 .449.086.781.258.996.207.234.504.351.887.351.316 0 .617-.09.906-.27v1.337c-.164.07-.328.125-.5.16a3.04 3.04 0 0 1-.633.055zm2.547 1.199l.848-1.336a.903.903 0 0 1-.512-.309.906.906 0 0 1-.23-.62c0-.278.1-.516.296-.716.2-.195.446-.296.742-.296a.99.99 0 0 1 .727.296c.2.2.297.438.297.715 0 .18-.04.356-.121.528-.07.16-.18.347-.324.566l-1.063 1.606zm-38.992 9.437h1.308v1.227h.067c.242-.422.61-.773 1.105-1.05a3.339 3.339 0 0 1 1.695-.434 3.67 3.67 0 0 1 1.997.57 3.887 3.887 0 0 1 1.414 1.562c.34.665.511 1.41.511 2.239 0 .836-.168 1.586-.511 2.25a3.906 3.906 0 0 1-1.414 1.55 3.757 3.757 0 0 1-1.996.555 3.45 3.45 0 0 1-1.696-.418c-.496-.289-.863-.64-1.105-1.05h-.067l.067 1.128v3.563h-1.375zm4.015 7.227a2.5 2.5 0 0 0 1.32-.375 2.817 2.817 0 0 0 1.012-1.11 3.37 3.37 0 0 0 .391-1.628c0-.621-.133-1.168-.39-1.645a2.746 2.746 0 0 0-1.012-1.094 2.454 2.454 0 0 0-1.32-.39c-.477 0-.926.133-1.348.39a2.739 2.739 0 0 0-.996 1.094c-.243.465-.364 1.016-.364 1.645 0 .62.121 1.168.364 1.644.25.469.582.832.996 1.094a2.6 2.6 0 0 0 1.347.375zm5.672-7.227h1.309v1.32h.066c.164-.448.473-.82.93-1.116a2.62 2.62 0 0 1 1.441-.446c.38 0 .703.055.973.16v1.485a2.558 2.558 0 0 0-1.16-.258 1.89 1.89 0 0 0-1.09.34 2.363 2.363 0 0 0-.797.914 2.65 2.65 0 0 0-.297 1.23v4.582h-1.375zm9.82 8.47a4.18 4.18 0 0 1-2.183-.583 4.083 4.083 0 0 1-1.496-1.574 4.56 4.56 0 0 1-.54-2.2c0-.808.18-1.546.54-2.21.36-.664.86-1.192 1.496-1.578a4.18 4.18 0 0 1 2.184-.582c.8 0 1.523.195 2.171.582a4.067 4.067 0 0 1 1.508 1.578c.36.664.54 1.402.54 2.21 0 .802-.18 1.532-.54 2.2a4.056 4.056 0 0 1-1.508 1.574 4.157 4.157 0 0 1-2.171.582zm0-1.243a2.774 2.774 0 0 0 2.453-1.457c.262-.473.391-1.027.391-1.656 0-.64-.129-1.192-.39-1.66a2.718 2.718 0 0 0-1.051-1.09 2.72 2.72 0 0 0-1.402-.38c-.504 0-.973.126-1.415.38a2.8 2.8 0 0 0-1.062 1.09c-.262.468-.39 1.02-.39 1.66 0 .629.128 1.183.39 1.656.27.469.621.828 1.062 1.082.442.25.91.375 1.415.375zm5.805-7.227h1.305v1.215h.07c.23-.422.582-.773 1.051-1.05a2.915 2.915 0 0 1 1.508-.422c.594 0 1.113.144 1.562.433.45.29.77.676.957 1.16.29-.484.668-.87 1.145-1.16.488-.289 1.043-.433 1.672-.433.945 0 1.652.289 2.129.863.476.578.715 1.36.715 2.348v5.257h-1.348v-5.054c0-.766-.156-1.317-.473-1.66-.305-.34-.762-.512-1.375-.512a1.9 1.9 0 0 0-1.117.351 2.347 2.347 0 0 0-.781.957c-.18.395-.27.82-.27 1.282v4.636h-1.375v-5.043c0-.773-.156-1.328-.472-1.671-.305-.34-.758-.512-1.36-.512-.402 0-.773.12-1.105.363a2.475 2.475 0 0 0-.782.973 2.982 2.982 0 0 0-.28 1.293v4.597h-1.376zm14.887-1.507a.996.996 0 0 1-.703-.286.983.983 0 0 1-.281-.699c0-.273.093-.5.28-.687a.98.98 0 0 1 .704-.285c.27 0 .496.093.687.285a.922.922 0 0 1 .297.687c0 .27-.097.5-.285.7a.955.955 0 0 1-.7.285zm-.676 1.507h1.348v8.211h-1.348zm6.371 8.47c-.879 0-1.613-.208-2.207-.622a3.447 3.447 0 0 1-1.254-1.578l1.227-.55c.195.491.496.874.902 1.144.403.27.848.406 1.332.406.512 0 .95-.106 1.309-.313.367-.214.55-.515.55-.902a.961.961 0 0 0-.43-.824c-.288-.215-.741-.395-1.358-.54l-1-.269c-.653-.16-1.192-.43-1.618-.808-.41-.387-.617-.89-.617-1.508 0-.469.137-.883.418-1.242a2.74 2.74 0 0 1 1.13-.825 4.016 4.016 0 0 1 1.538-.296c.719 0 1.356.16 1.914.472.563.309.965.739 1.2 1.297l-1.188.55c-.367-.726-1.016-1.089-1.942-1.089-.457 0-.855.102-1.199.309-.332.207-.496.472-.496.797 0 .304.113.55.348.742.242.18.597.324 1.066.441l1.2.313c.796.207 1.398.511 1.804.914.414.398.621.886.621 1.472 0 .504-.148.946-.445 1.332-.29.38-.68.672-1.172.88a4.342 4.342 0 0 1-1.633.296zm8.395 0c-.781 0-1.485-.184-2.102-.555a3.953 3.953 0 0 1-1.457-1.551c-.351-.664-.527-1.41-.527-2.239 0-.796.164-1.53.488-2.195a4.01 4.01 0 0 1 1.399-1.594c.605-.394 1.3-.593 2.09-.593.8 0 1.495.183 2.09.543.59.359 1.046.855 1.359 1.496.316.629.472 1.351.472 2.168 0 .156-.011.293-.039.422h-6.496c.035.617.188 1.144.457 1.574a2.705 2.705 0 0 0 2.317 1.281c1.054 0 1.863-.492 2.425-1.484l1.16.57a4.094 4.094 0 0 1-1.44 1.574c-.602.387-1.333.582-2.196.582zm2.37-5.235a2.772 2.772 0 0 0-.296-1.024 2.162 2.162 0 0 0-.809-.875c-.367-.234-.832-.351-1.386-.351-.649 0-1.196.207-1.645.62-.441.415-.734.958-.875 1.63zm5.907 5.234c-.883 0-1.617-.207-2.21-.62a3.447 3.447 0 0 1-1.255-1.579l1.227-.55c.195.491.5.874.902 1.144.403.27.848.406 1.336.406.512 0 .945-.106 1.305-.313.367-.214.554-.515.554-.902a.965.965 0 0 0-.433-.824c-.285-.215-.742-.395-1.36-.54l-.996-.269c-.656-.16-1.195-.43-1.617-.808-.414-.387-.62-.89-.62-1.508 0-.469.136-.883.417-1.242.285-.36.664-.633 1.133-.825a3.996 3.996 0 0 1 1.535-.296c.719 0 1.356.16 1.914.472.567.309.965.739 1.2 1.297l-1.188.55c-.367-.726-1.016-1.089-1.942-1.089-.457 0-.855.102-1.199.309-.332.207-.496.472-.496.797 0 .304.117.55.348.742.246.18.597.324 1.066.441l1.2.313c.8.207 1.402.511 1.804.914.414.398.621.886.621 1.472 0 .504-.148.946-.445 1.332-.29.38-.68.672-1.172.88a4.321 4.321 0 0 1-1.629.296zm0 0" fill="#fff"/><path d="M400.688 48.5c-1.008 0-1.91-.242-2.711-.73a5.079 5.079 0 0 1-1.872-1.993c-.449-.855-.671-1.812-.671-2.875 0-1.023.207-1.96.628-2.816a5.217 5.217 0 0 1 1.793-2.05c.774-.513 1.672-.766 2.696-.766 1.035 0 1.926.234 2.683.699a4.533 4.533 0 0 1 1.75 1.914c.407.808.606 1.742.606 2.793 0 .207-.016.386-.05.539h-8.345c.035.797.227 1.476.567 2.035.351.547.793.96 1.32 1.242.54.27 1.098.403 1.672.403 1.355 0 2.398-.633 3.125-1.903l1.496.73a5.434 5.434 0 0 1-1.86 2.036c-.78.496-1.726.742-2.827.742zm3.042-6.742a3.375 3.375 0 0 0-.375-1.32c-.214-.442-.562-.813-1.039-1.122-.476-.304-1.074-.457-1.793-.457-.824 0-1.527.27-2.101.809-.567.531-.938 1.227-1.117 2.09zm2.762-4.153h1.887l3.258 8.48h.043l3.312-8.48h1.848l-4.313 10.555h-1.777zM422.977 48.5c-1.004 0-1.907-.242-2.707-.73a5.088 5.088 0 0 1-1.875-1.993c-.45-.855-.672-1.812-.672-2.875 0-1.023.21-1.96.632-2.816a5.156 5.156 0 0 1 1.793-2.05c.774-.513 1.672-.766 2.696-.766 1.031 0 1.926.234 2.68.699a4.542 4.542 0 0 1 1.753 1.914c.403.808.606 1.742.606 2.793 0 .207-.02.386-.055.539h-8.34c.035.797.223 1.476.567 2.035.351.547.789.96 1.32 1.242.54.27 1.094.403 1.672.403 1.355 0 2.398-.633 3.125-1.903l1.496.73a5.466 5.466 0 0 1-1.86 2.036c-.78.496-1.726.742-2.831.742zm3.046-6.742a3.317 3.317 0 0 0-.378-1.32c-.215-.442-.56-.813-1.036-1.122-.476-.304-1.074-.457-1.793-.457-.828 0-1.527.27-2.101.809-.567.531-.942 1.227-1.117 2.09zm3.918-4.153h1.672v1.551h.082c.293-.531.758-.976 1.387-1.336a4.013 4.013 0 0 1 2.035-.55c1.266 0 2.23.367 2.895 1.105.675.734 1.011 1.742 1.011 3.02v6.765h-1.75v-6.496c0-.98-.238-1.691-.714-2.133-.47-.449-1.11-.672-1.926-.672-.567 0-1.074.16-1.524.485a3.277 3.277 0 0 0-1.039 1.254 3.638 3.638 0 0 0-.375 1.617v5.945h-1.754zm15.668 10.72a3.4 3.4 0 0 1-1.199-.204 2.639 2.639 0 0 1-1.539-1.469c-.133-.351-.2-.773-.2-1.265v-6.192h-1.847v-1.59h1.848V34.61h1.75v2.996h2.574v1.59h-2.574v5.758c0 .574.113 1 .34 1.281.258.305.636.457 1.129.457.406 0 .793-.117 1.16-.351v1.715a2.541 2.541 0 0 1-.633.203 4.094 4.094 0 0 1-.809.066zm8.32-14.993h1.75V48.16h-1.75zM463.16 48.5c-1.031 0-1.965-.25-2.8-.742a5.368 5.368 0 0 1-1.942-2.035c-.457-.856-.688-1.805-.688-2.848 0-1.031.23-1.977.688-2.828a5.227 5.227 0 0 1 1.941-2.024c.836-.503 1.77-.753 2.801-.753 1.035 0 1.965.25 2.79.753a5.116 5.116 0 0 1 1.929 2.024c.465.851.7 1.797.7 2.828 0 1.043-.235 1.992-.7 2.848a5.251 5.251 0 0 1-1.93 2.035c-.824.496-1.754.742-2.789.742zm0-1.605c.649 0 1.25-.16 1.809-.485a3.692 3.692 0 0 0 1.347-1.39c.34-.61.512-1.325.512-2.145 0-.809-.172-1.512-.512-2.113-.343-.614-.793-1.082-1.347-1.403a3.44 3.44 0 0 0-1.809-.5c-.644 0-1.25.164-1.816.5-.567.32-1.02.79-1.364 1.403-.34.601-.511 1.304-.511 2.113 0 .82.172 1.535.511 2.145a3.618 3.618 0 0 0 3.18 1.875zm12.336 1.605c-1.031 0-1.965-.25-2.8-.742a5.368 5.368 0 0 1-1.942-2.035c-.457-.856-.688-1.805-.688-2.848 0-1.031.23-1.977.688-2.828a5.227 5.227 0 0 1 1.941-2.024c.836-.503 1.77-.753 2.801-.753 1.035 0 1.965.25 2.79.753a5.116 5.116 0 0 1 1.929 2.024c.465.851.7 1.797.7 2.828 0 1.043-.235 1.992-.7 2.848a5.251 5.251 0 0 1-1.93 2.035c-.824.496-1.754.742-2.789.742zm0-1.605c.649 0 1.25-.16 1.809-.485a3.692 3.692 0 0 0 1.347-1.39c.34-.61.512-1.325.512-2.145 0-.809-.172-1.512-.512-2.113-.343-.614-.793-1.082-1.347-1.403a3.44 3.44 0 0 0-1.809-.5c-.644 0-1.25.164-1.816.5-.567.32-1.02.79-1.364 1.403-.34.601-.511 1.304-.511 2.113 0 .82.172 1.535.511 2.145a3.618 3.618 0 0 0 3.18 1.875zm7.395-9.29h1.668v1.563h.082c.324-.54.804-.988 1.441-1.348.637-.367 1.356-.55 2.156-.55a4.76 4.76 0 0 1 2.575.726c.773.484 1.378 1.156 1.82 2.008.437.855.66 1.812.66 2.871 0 1.082-.223 2.047-.664 2.902a5.032 5.032 0 0 1-1.817 1.993 4.726 4.726 0 0 1-2.574.73c-.8 0-1.52-.184-2.156-.555-.637-.367-1.117-.812-1.441-1.336h-.082l.082 1.446v4.582h-1.754zm5.144 9.29a3.2 3.2 0 0 0 1.711-.485c.54-.332.973-.805 1.293-1.414.336-.621.5-1.328.5-2.121 0-.781-.164-1.477-.5-2.09-.32-.617-.754-1.094-1.293-1.426a3.178 3.178 0 0 0-3.422 0c-.539.332-.969.801-1.293 1.414-.316.602-.472 1.305-.472 2.102 0 .8.156 1.508.472 2.117.324.613.754 1.086 1.293 1.418.54.324 1.11.485 1.711.485zM376.066 207.902h1.672v1.551h.078c.309-.539.762-.988 1.364-1.348a3.767 3.767 0 0 1 1.941-.539c.77 0 1.442.188 2.008.567.574.367.988.86 1.238 1.48a4.242 4.242 0 0 1 1.469-1.484c.621-.375 1.34-.563 2.156-.563 1.211 0 2.125.368 2.735 1.106.613.734.918 1.742.918 3.02v6.769h-1.739v-6.5c0-.98-.203-1.691-.605-2.129-.399-.453-.985-.676-1.766-.676-.531 0-1.012.153-1.441.457a3.14 3.14 0 0 0-1 1.227 3.848 3.848 0 0 0-.364 1.66v5.96h-1.75v-6.487c0-.989-.203-1.703-.605-2.141-.398-.453-.98-.676-1.754-.676a2.37 2.37 0 0 0-1.441.473 3.114 3.114 0 0 0-.996 1.238 3.871 3.871 0 0 0-.368 1.672v5.922h-1.75zm19.149-1.953c-.352 0-.652-.125-.902-.367a1.236 1.236 0 0 1-.364-.89 1.252 1.252 0 0 1 1.266-1.255c.34 0 .633.122.875.368.254.242.379.539.379.886 0 .344-.121.641-.364.891a1.19 1.19 0 0 1-.89.367zm-.875 1.953h1.738v10.559h-1.738zm9.297 10.895c-1.024 0-1.942-.242-2.762-.73a5.214 5.214 0 0 1-1.898-2.008c-.457-.852-.688-1.817-.688-2.883 0-1.063.23-2.02.688-2.875a5.108 5.108 0 0 1 1.898-2.008c.82-.484 1.738-.727 2.762-.727 1.14 0 2.105.266 2.886.793a4.356 4.356 0 0 1 1.668 2.133l-1.601.66c-.262-.648-.652-1.14-1.172-1.484-.512-.34-1.137-.512-1.875-.512-.617 0-1.2.172-1.738.512-.528.344-.961.82-1.293 1.43-.325.601-.485 1.293-.485 2.078 0 .789.16 1.492.485 2.101a3.873 3.873 0 0 0 1.293 1.414c.539.336 1.12.5 1.738.5.746 0 1.39-.171 1.93-.511.539-.344.937-.832 1.195-1.47l1.578.661a4.676 4.676 0 0 1-1.723 2.117c-.793.54-1.753.809-2.886.809zm6.52-10.895h1.671v1.7h.078c.207-.586.61-1.067 1.2-1.442a3.429 3.429 0 0 1 1.874-.566c.477 0 .891.066 1.239.199v1.902a3.355 3.355 0 0 0-1.496-.324c-.512 0-.98.145-1.414.434a3.157 3.157 0 0 0-1.024 1.172 3.397 3.397 0 0 0-.379 1.578v5.906h-1.75zm12.624 10.895c-1.031 0-1.965-.25-2.8-.742a5.339 5.339 0 0 1-1.942-2.035c-.457-.856-.687-1.805-.687-2.844 0-1.035.23-1.98.687-2.832a5.254 5.254 0 0 1 1.941-2.024c.836-.504 1.77-.754 2.801-.754 1.035 0 1.965.25 2.79.754a5.132 5.132 0 0 1 1.925 2.024c.469.851.703 1.797.703 2.832 0 1.039-.234 1.988-.703 2.844a5.242 5.242 0 0 1-1.926 2.035c-.824.496-1.754.742-2.789.742zm0-1.606c.649 0 1.25-.16 1.805-.484a3.608 3.608 0 0 0 1.348-1.39c.343-.61.515-1.325.515-2.141 0-.813-.172-1.516-.515-2.117-.34-.614-.79-1.082-1.348-1.403a3.417 3.417 0 0 0-1.805-.5 3.51 3.51 0 0 0-1.82.5c-.563.32-1.02.79-1.36 1.403-.34.601-.511 1.304-.511 2.117 0 .816.172 1.531.512 2.14a3.608 3.608 0 0 0 3.18 1.875zm11.528 1.43a3.42 3.42 0 0 1-1.2-.203 2.586 2.586 0 0 1-.914-.566 2.432 2.432 0 0 1-.62-.903c-.137-.351-.204-.773-.204-1.27v-6.187h-1.844v-1.59h1.844v-2.992h1.754v2.992h2.57v1.59h-2.57v5.758c0 .574.11 1.004.336 1.281.262.305.637.457 1.133.457a2.15 2.15 0 0 0 1.156-.347v1.71a2.541 2.541 0 0 1-.633.204 4.094 4.094 0 0 1-.808.066zm6.89.176c-.773 0-1.465-.152-2.078-.457a3.493 3.493 0 0 1-1.398-1.254c-.336-.531-.5-1.14-.5-1.824 0-1.114.422-1.985 1.265-2.614.844-.628 1.907-.945 3.18-.945.64 0 1.227.074 1.766.215.546.137.972.293 1.27.473v-.645c0-.785-.282-1.414-.84-1.89-.548-.473-1.243-.711-2.087-.711-.593 0-1.136.128-1.629.39a3.04 3.04 0 0 0-1.187 1.05l-1.32-.983a4.22 4.22 0 0 1 1.699-1.497c.726-.359 1.535-.539 2.422-.539 1.43 0 2.554.375 3.37 1.133.825.746 1.24 1.77 1.24 3.074v6.688h-1.669v-1.512h-.082c-.305.512-.766.95-1.375 1.309-.601.36-1.285.539-2.047.539zm.16-1.563c.594 0 1.145-.148 1.657-.445a3.491 3.491 0 0 0 1.226-1.23 3.202 3.202 0 0 0 .461-1.668 4.23 4.23 0 0 0-1.226-.543 5.52 5.52 0 0 0-1.54-.215c-.96 0-1.687.203-2.183.61-.484.394-.727.91-.727 1.546 0 .586.223 1.059.66 1.418.442.352 1 .527 1.672.527zm11.137 1.563c-1.129 0-2.078-.266-2.84-.797a4.399 4.399 0 0 1-1.605-2.05l1.578-.7c.258.64.644 1.129 1.156 1.469a3.055 3.055 0 0 0 1.711.515c.668 0 1.234-.136 1.7-.406.468-.27.702-.652.702-1.144 0-.442-.191-.797-.566-1.067-.371-.27-.953-.5-1.754-.687l-1.281-.336c-.844-.207-1.535-.559-2.074-1.055-.528-.504-.793-1.144-.793-1.926 0-.613.18-1.148.539-1.605a3.429 3.429 0 0 1 1.453-1.067 5.15 5.15 0 0 1 1.969-.375c.925 0 1.75.204 2.476.606.73.394 1.242.953 1.54 1.672l-1.524.703c-.465-.938-1.301-1.402-2.508-1.402-.582 0-1.09.132-1.52.402-.433.27-.648.613-.648 1.023 0 .387.148.703.445.946.305.242.762.437 1.375.578l1.536.406c1.03.262 1.808.652 2.332 1.172.52.512.78 1.14.78 1.887 0 .648-.183 1.218-.55 1.714-.371.485-.875.864-1.512 1.133a5.598 5.598 0 0 1-2.117.39zm6.113-15.168h1.75v9.316l4.973-5.043h2.238v.082l-4.136 4.18 4.242 6.215v.082h-2.102l-3.394-5.07-1.82 1.82v3.25h-1.75zm23.34 14.723l.082-1.442h-.082c-.332.52-.816.965-1.457 1.332-.629.371-1.347.555-2.156.555-.941 0-1.797-.242-2.559-.73-.765-.485-1.37-1.149-1.82-1.993-.437-.855-.66-1.82-.66-2.902 0-1.059.223-2.016.66-2.871.45-.852 1.055-1.524 1.82-2.008a4.674 4.674 0 0 1 2.559-.727c.809 0 1.527.184 2.156.551.64.36 1.125.809 1.457 1.348h.082v-1.563h1.684v15.032h-1.766zm-3.41-1.16a3.25 3.25 0 0 0 1.727-.485c.527-.332.957-.805 1.277-1.418.324-.61.488-1.316.488-2.113 0-.801-.164-1.504-.488-2.106a3.62 3.62 0 0 0-1.277-1.414 3.196 3.196 0 0 0-1.727-.5c-.61 0-1.184.164-1.723.5-.53.332-.96.809-1.296 1.43-.32.61-.485 1.305-.485 2.09 0 .789.164 1.496.485 2.113.335.613.765 1.086 1.296 1.418.54.324 1.114.484 1.723.484zm11.527 1.605c-1.265 0-2.234-.375-2.91-1.121-.664-.746-.996-1.79-.996-3.125v-6.649h1.75v6.375c0 1.008.23 1.746.688 2.215.46.465 1.074.7 1.847.7.594 0 1.118-.157 1.578-.473a3.154 3.154 0 0 0 1.079-1.239c.25-.511.375-1.05.375-1.62v-5.958h1.765v10.559h-1.672v-1.54h-.093c-.29.532-.75.977-1.387 1.337-.63.36-1.305.539-2.024.539zm12.477 0c-1.008 0-1.91-.242-2.711-.73a5.079 5.079 0 0 1-1.871-1.993c-.45-.855-.676-1.812-.676-2.875 0-1.023.211-1.96.633-2.816a5.156 5.156 0 0 1 1.793-2.051c.773-.512 1.672-.766 2.695-.766 1.035 0 1.93.235 2.684.7a4.558 4.558 0 0 1 1.75 1.914c.406.808.605 1.742.605 2.793 0 .207-.015.386-.054.539h-8.34c.035.797.226 1.476.566 2.035.352.547.79.96 1.32 1.242.54.27 1.098.402 1.672.402 1.356 0 2.399-.632 3.125-1.902l1.496.73a5.434 5.434 0 0 1-1.859 2.036c-.781.496-1.723.742-2.828.742zm3.043-6.742a3.356 3.356 0 0 0-.375-1.32c-.219-.442-.563-.813-1.04-1.122-.476-.304-1.073-.457-1.792-.457-.824 0-1.527.27-2.102.809-.566.531-.937 1.226-1.117 2.09zm7.746 6.742c-1.266 0-2.238-.375-2.91-1.121-.664-.746-.996-1.79-.996-3.125v-6.649h1.75v6.375c0 1.008.23 1.746.687 2.215.457.465 1.075.7 1.844.7.594 0 1.121-.157 1.578-.473a3.093 3.093 0 0 0 1.078-1.239c.254-.511.38-1.05.38-1.62v-5.958h1.765v10.559h-1.672v-1.54h-.094c-.289.532-.75.977-1.39 1.337-.63.36-1.301.539-2.02.539zm12.473 0c-1.004 0-1.907-.242-2.707-.73a5.024 5.024 0 0 1-1.871-1.993c-.454-.855-.676-1.812-.676-2.875 0-1.023.21-1.96.633-2.816a5.156 5.156 0 0 1 1.793-2.051c.773-.512 1.671-.766 2.695-.766 1.031 0 1.926.235 2.68.7a4.542 4.542 0 0 1 1.753 1.914c.403.808.606 1.742.606 2.793 0 .207-.02.386-.055.539h-8.34c.036.797.223 1.476.567 2.035.347.547.789.96 1.32 1.242.54.27 1.094.402 1.668.402 1.36 0 2.402-.632 3.129-1.902l1.496.73a5.434 5.434 0 0 1-1.86 2.036c-.78.496-1.726.742-2.831.742zm3.047-6.742a3.3 3.3 0 0 0-.38-1.32c-.214-.442-.558-.813-1.034-1.122-.477-.304-1.075-.457-1.793-.457-.829 0-1.528.27-2.102.809-.566.531-.941 1.226-1.121 2.09zm0 0" fill="#444"/><path d="M276.275 91.81c0-7.184 5.825-13.01 13.013-13.01h52.053c7.188 0 13.013 5.826 13.013 13.01v52.054c0 7.185-5.825 13.015-13.013 13.015h-52.053c-7.188 0-13.013-5.83-13.013-13.015zm283.558 0c0-7.184 5.83-13.01 13.013-13.01h52.053c7.188 0 13.013 5.826 13.013 13.01v52.054c0 7.185-5.825 13.015-13.013 13.015h-52.053c-7.184 0-13.013-5.83-13.013-13.015zm0 0" transform="matrix(.8624 0 0 .8629 .519 0)" fill-rule="evenodd" fill="#3d85c6" stroke-linejoin="round" stroke="#0b5394" stroke-miterlimit="10"/></svg>