<svg xmlns="http://www.w3.org/2000/svg" width="719pt" height="445pt" viewBox="0 0 719 445"><defs><clipPath id="a"><path d="M158 123h307v234.98H158zm0 0"/></clipPath><clipPath id="b"><path d="M180 277h308v80.98H180zm0 0"/></clipPath><clipPath id="c"><path d="M203 277h308v80.98H203zm0 0"/></clipPath><clipPath id="d"><path d="M226 328h308v29.98H226zm0 0"/></clipPath></defs><path fill="#fff" d="M0 0h719v445H0z"/><path d="M89.5 298.5h399" transform="scale(1.19833 1.19946)" fill="none" stroke="#333" stroke-miterlimit="10"/><path d="M89.5 252.5h399m-399-47h399m-399-46.001h399m-399-47h399M89.5 66.5h399" transform="scale(1.19833 1.19946)" fill="none" stroke="#ccc" stroke-miterlimit="10"/><g clip-path="url(#a)"><path d="M179.75 357.438h-21.57V190.714a2.399 2.399 0 0 1 2.398-2.399h16.774a2.399 2.399 0 0 1 2.398 2.399zm142.602 0h-21.57V125.945a2.4 2.4 0 0 1 2.398-2.402h16.773a2.4 2.4 0 0 1 2.399 2.402zm142.601 0h-21.57V149.934a2.399 2.399 0 0 1 2.398-2.399h16.778a2.398 2.398 0 0 1 2.394 2.399zm0 0" fill="#0b5394"/></g><g clip-path="url(#b)"><path d="M202.52 357.438h-21.57v-49.176a2.396 2.396 0 0 1 2.394-2.399h16.777a2.399 2.399 0 0 1 2.399 2.399zm142.601 0h-21.57v-77.965a2.396 2.396 0 0 1 2.394-2.399h16.778a2.399 2.399 0 0 1 2.398 2.399zm142.602 0h-21.57v-59.973a2.398 2.398 0 0 1 2.394-2.399h16.777a2.399 2.399 0 0 1 2.399 2.399zm0 0" fill="#3d85c6"/></g><g clip-path="url(#c)"><path d="M225.285 357.438h-21.57V310.66a2.399 2.399 0 0 1 2.398-2.398h16.778a2.396 2.396 0 0 1 2.394 2.398zm142.602 0h-21.57v-77.965a2.399 2.399 0 0 1 2.398-2.399h16.777a2.396 2.396 0 0 1 2.395 2.399zm142.601 0h-21.566v-59.973a2.396 2.396 0 0 1 2.394-2.399h16.778a2.396 2.396 0 0 1 2.394 2.399zm0 0" fill="#6fa8dc"/></g><g clip-path="url(#d)"><path d="M248.055 357.438h-21.57v-19.192a2.399 2.399 0 0 1 2.398-2.398h16.777a2.398 2.398 0 0 1 2.395 2.398zm142.601 0h-21.57V331.05a2.399 2.399 0 0 1 2.398-2.399h16.778a2.398 2.398 0 0 1 2.394 2.399zm142.602 0h-21.57v-20.391a2.399 2.399 0 0 1 2.398-2.399h16.777a2.398 2.398 0 0 1 2.395 2.399zm0 0" fill="#9fc5e8"/></g><path d="M209.48 415.29c0-1.185.278-2.13.825-2.83.55-.698 1.273-1.05 2.172-1.05.925 0 1.648.324 2.171.977l.059-.844h1.2v7.422c0 .988-.298 1.762-.884 2.324-.585.574-1.367.86-2.34.86a3.853 3.853 0 0 1-1.609-.356c-.523-.238-.926-.555-1.199-.953l.676-.79c.547.688 1.23 1.032 2.039 1.032.625 0 1.113-.18 1.46-.543.364-.351.544-.851.544-1.5v-.656c-.524.613-1.235.918-2.133.918-.887 0-1.606-.356-2.156-1.067-.547-.726-.825-1.707-.825-2.945zm1.313.151c0 .848.176 1.524.523 2.024.352.488.844.73 1.48.73.813 0 1.411-.375 1.798-1.125v-3.465c-.399-.726-1-1.09-1.797-1.09-.625 0-1.117.247-1.48.735-.348.484-.524 1.215-.524 2.191zm8.8 3.711h-1.292v-7.609h1.293zm-1.405-9.617c0-.21.062-.39.187-.543.137-.148.332-.222.582-.222.25 0 .438.074.563.222a.782.782 0 0 1 .203.543.757.757 0 0 1-.203.527c-.125.137-.313.208-.563.208-.25 0-.445-.07-.582-.207a.8.8 0 0 1-.188-.528zm5.355.172v1.836h1.406v1.012h-1.406v4.703c0 .312.062.543.187.695.125.149.336.223.637.223.153 0 .356-.024.617-.074v1.05a3.554 3.554 0 0 1-.992.149c-.574 0-1.012-.176-1.308-.524-.301-.363-.45-.87-.45-1.52v-4.702h-1.386v-1.012h1.386v-1.836zm4.328 2.754c.574-.7 1.32-1.05 2.246-1.05 1.61 0 2.422.905 2.434 2.718v5.023h-1.313v-5.043c0-.535-.125-.937-.375-1.199-.234-.262-.617-.394-1.14-.394-.426 0-.797.113-1.121.34a2.278 2.278 0 0 0-.735.878v5.418h-1.289v-10.797h1.29zm11.774 5.941c-.497.598-1.243.899-2.227.899-.813 0-1.43-.238-1.852-.711-.425-.477-.636-1.176-.636-2.102v-4.945h1.289v4.91c0 1.16.469 1.742 1.406 1.742 1 0 1.66-.375 1.984-1.125v-5.527h1.313v7.61h-1.238zm10.132-2.96c0 1.16-.27 2.097-.804 2.812-.528.7-1.239 1.047-2.137 1.047-.961 0-1.703-.344-2.23-1.031l-.075.882h-1.176v-10.797h1.29v4.032c.523-.649 1.25-.977 2.171-.977.926 0 1.649.352 2.172 1.05.528.688.79 1.645.79 2.868zm-1.293-.153c0-.887-.175-1.566-.523-2.043-.336-.484-.824-.73-1.461-.73-.863 0-1.48.394-1.855 1.183v3.297c.402.8 1.02 1.2 1.855 1.2.625 0 1.11-.243 1.46-.731.349-.488.524-1.211.524-2.176zm3.278 3.188a.85.85 0 0 1 .187-.563c.137-.148.336-.223.598-.223.277 0 .48.075.617.223.137.152.207.34.207.563a.78.78 0 0 1-.207.543c-.137.14-.34.207-.617.207-.262 0-.461-.067-.598-.207a.82.82 0 0 1-.187-.543zm6.61-.243c.46 0 .866-.14 1.214-.414.351-.285.543-.644.582-1.066h1.238a2.387 2.387 0 0 1-.469 1.254 3.05 3.05 0 0 1-1.105.937c-.45.239-.937.356-1.46.356-1.036 0-1.86-.344-2.474-1.031-.597-.7-.898-1.649-.898-2.848v-.227c0-.734.133-1.39.395-1.965a3.07 3.07 0 0 1 1.16-1.332c.511-.324 1.117-.488 1.816-.488.848 0 1.555.258 2.117.77.575.5.88 1.164.918 1.988h-1.238c-.04-.5-.227-.906-.563-1.219-.335-.312-.746-.469-1.234-.469-.664 0-1.176.239-1.535.711-.363.477-.543 1.164-.543 2.063v.242c0 .875.18 1.55.543 2.027.36.473.871.711 1.535.711zm3.8-2.96c0-.739.144-1.407.43-2.008.3-.598.71-1.055 1.234-1.368a3.334 3.334 0 0 1 1.781-.488c1.035 0 1.871.356 2.508 1.07.648.711.973 1.668.973 2.868v.093c0 .739-.141 1.399-.43 1.989a3.382 3.382 0 0 1-1.215 1.386c-.527.325-1.133.485-1.816.485-1.024 0-1.86-.356-2.512-1.067-.637-.726-.953-1.68-.953-2.867zm1.308.167c0 .836.196 1.512.582 2.024a1.9 1.9 0 0 0 1.575.77c.66 0 1.183-.258 1.57-.77.387-.524.582-1.254.582-2.192 0-.824-.2-1.496-.598-2.007-.39-.524-.914-.786-1.574-.786-.637 0-1.156.254-1.555.766-.386.5-.582 1.234-.582 2.195zm8.653-3.898l.035.844c.55-.653 1.3-.977 2.25-.977 1.059 0 1.785.406 2.172 1.219a2.85 2.85 0 0 1 .973-.879c.414-.227.894-.34 1.44-.34 1.673 0 2.524.883 2.548 2.645v5.097h-1.293v-5.023c0-.535-.125-.938-.375-1.2-.25-.273-.664-.413-1.254-.413-.484 0-.89.144-1.215.433-.312.285-.492.676-.543 1.16v5.043h-1.293v-4.984c0-1.102-.543-1.652-1.629-1.652-.847 0-1.43.363-1.742 1.09v5.546h-1.312v-7.609zm12.207 8.488h-1.106l4.27-11.113h1.105zm8.238-2.64l1.89-5.848h1.333l-2.735 7.61h-.992l-2.754-7.61h1.332zm10.77-5.809c0 .512-.141.965-.414 1.367a2.852 2.852 0 0 1-1.086.938 2.86 2.86 0 0 1 1.254 1.011c.312.438.468.938.468 1.497 0 .875-.3 1.582-.898 2.12-.586.524-1.367.786-2.34.786-.988 0-1.777-.262-2.379-.785-.586-.54-.879-1.246-.879-2.121 0-.56.149-1.06.45-1.497a2.685 2.685 0 0 1 1.253-1.011 2.704 2.704 0 0 1-1.066-.938 2.438 2.438 0 0 1-.395-1.367c0-.863.274-1.547.825-2.047.546-.512 1.277-.765 2.191-.765.898 0 1.621.253 2.172.765.562.5.844 1.184.844 2.047zm-1.07 4.777c0-.574-.18-1.039-.544-1.386-.359-.364-.836-.543-1.421-.543-.586 0-1.063.18-1.422.543-.352.347-.528.816-.528 1.406 0 .574.176 1.031.528 1.367.347.324.828.488 1.441.488.598 0 1.074-.168 1.422-.507.348-.336.523-.793.523-1.368zm-1.946-6.523c-.512 0-.93.164-1.254.488-.312.313-.469.742-.469 1.293 0 .512.157.93.47 1.258.308.324.722.484 1.233.484.524 0 .942-.16 1.254-.484.313-.328.47-.746.47-1.258 0-.523-.165-.949-.49-1.273a1.61 1.61 0 0 0-1.214-.508zm5.578 10.195h-1.105l4.27-11.113h1.105zm12.152-4.59c0 1.149-.261 2.079-.785 2.793-.527.711-1.242 1.067-2.152 1.067-.926 0-1.648-.293-2.176-.88v3.653h-1.289v-10.531h1.18l.055.844c.535-.653 1.273-.977 2.21-.977.91 0 1.63.344 2.153 1.031.535.688.805 1.645.805 2.868zm-1.292-.152c0-.86-.188-1.535-.563-2.023-.36-.5-.86-.75-1.496-.75-.785 0-1.371.343-1.762 1.035v3.633c.39.699.98 1.05 1.781 1.05.622 0 1.118-.246 1.48-.73.372-.5.56-1.238.56-2.215zm6.949-2.586a5.49 5.49 0 0 0-.637-.035c-.863 0-1.445.363-1.742 1.086v5.398h-1.293v-7.609h1.254l.02.883c.425-.676 1.03-1.016 1.816-1.016.25 0 .445.031.582.094zm.765 2.567c0-.735.145-1.403.434-2.004.297-.598.71-1.055 1.23-1.368a3.334 3.334 0 0 1 1.782-.488c1.035 0 1.87.356 2.507 1.07.653.711.977 1.668.977 2.868v.093c0 .739-.144 1.399-.434 1.989a3.382 3.382 0 0 1-1.214 1.386c-.524.325-1.13.485-1.817.485-1.023 0-1.86-.356-2.508-1.067-.636-.726-.957-1.68-.957-2.867zm1.313.171c0 .836.191 1.512.578 2.024.398.512.926.77 1.574.77.66 0 1.184-.258 1.57-.77.391-.524.583-1.254.583-2.192 0-.824-.2-1.496-.598-2.007-.387-.524-.914-.786-1.574-.786-.637 0-1.157.254-1.555.766-.387.5-.578 1.234-.578 2.195zm8.648-3.898l.035.844c.551-.653 1.301-.977 2.25-.977 1.063 0 1.786.406 2.172 1.219a2.86 2.86 0 0 1 .973-.879c.414-.227.895-.34 1.441-.34 1.676 0 2.524.883 2.547 2.645v5.097h-1.289v-5.023c0-.535-.125-.938-.379-1.2-.246-.273-.664-.413-1.25-.413-.488 0-.894.144-1.218.433-.313.285-.493.676-.543 1.16v5.043h-1.293v-4.984c0-1.102-.543-1.652-1.63-1.652-.847 0-1.429.363-1.741 1.09v5.546h-1.31v-7.609zm13.371 7.61h-1.293v-7.61h1.293zm-1.406-9.618c0-.21.063-.39.188-.543.136-.148.332-.222.582-.222.25 0 .433.074.558.222.14.153.207.332.207.543a.744.744 0 0 1-.207.527c-.125.137-.308.208-.558.208-.25 0-.446-.07-.582-.207a.8.8 0 0 1-.188-.528zm8.016 7.594c0-.352-.137-.621-.414-.809-.262-.199-.723-.367-1.383-.504-.652-.136-1.168-.308-1.555-.507-.387-.2-.676-.43-.863-.692a1.781 1.781 0 0 1-.262-.976c0-.625.262-1.149.785-1.575.528-.437 1.2-.656 2.024-.656.863 0 1.555.227 2.078.676.535.437.805 1 .805 1.687h-1.293c0-.351-.153-.648-.465-.898-.301-.262-.676-.395-1.125-.395-.473 0-.848.106-1.125.317a.945.945 0 0 0-.39.789c0 .312.124.55.374.71.25.165.7.321 1.348.47.648.136 1.172.308 1.57.507.402.2.695.442.883.73.2.286.3.63.3 1.032 0 .688-.277 1.235-.827 1.649-.536.41-1.235.617-2.094.617-.613 0-1.156-.106-1.633-.317a2.72 2.72 0 0 1-1.082-.918 2.188 2.188 0 0 1-.394-1.257h1.292c.024.437.2.789.524 1.05.324.25.754.375 1.293.375.484 0 .879-.101 1.18-.3.296-.2.449-.47.449-.805zm5.914 2.172c-1.035 0-1.88-.336-2.527-1.012-.637-.687-.954-1.598-.954-2.734v-.227c0-.762.145-1.437.43-2.023.29-.602.688-1.063 1.2-1.387a3.069 3.069 0 0 1 1.683-.508c.988 0 1.754.324 2.305.977.546.648.824 1.578.824 2.793v.543h-5.149c.024.75.243 1.355.653 1.816.425.461.96.695 1.613.695.45 0 .828-.093 1.14-.28a3.06 3.06 0 0 0 .86-.75l.789.616c-.637.989-1.594 1.48-2.867 1.48zm-.168-6.82a1.74 1.74 0 0 0-1.328.582c-.348.375-.563.902-.637 1.59h3.8v-.094c-.038-.66-.218-1.172-.542-1.536-.313-.363-.742-.543-1.293-.543zm6.91 2.847h-3.426v-1.047h3.426zm7.3.113c0 1.149-.26 2.079-.784 2.793-.524.711-1.243 1.067-2.153 1.067-.925 0-1.648-.293-2.172-.88v3.653h-1.293v-10.531h1.18l.055.844c.539-.653 1.273-.977 2.21-.977.91 0 1.63.344 2.153 1.031.54.688.805 1.645.805 2.868zm-1.288-.152c0-.86-.188-1.535-.563-2.023-.363-.5-.863-.75-1.5-.75-.785 0-1.37.343-1.758 1.035v3.633c.387.699.98 1.05 1.778 1.05.625 0 1.117-.246 1.48-.73.375-.5.563-1.238.563-2.215zm6.422 4.012c-1.04 0-1.88-.336-2.532-1.012-.632-.687-.953-1.598-.953-2.734v-.227c0-.762.145-1.437.434-2.023.285-.602.683-1.063 1.195-1.387a3.069 3.069 0 0 1 1.684-.508c.988 0 1.758.324 2.304.977.551.648.825 1.578.825 2.793v.543h-5.149c.024.75.242 1.355.656 1.816.422.461.961.695 1.61.695.45 0 .828-.093 1.14-.28.325-.188.614-.438.864-.75l.785.616c-.637.989-1.59 1.48-2.863 1.48zm-.168-6.82c-.528 0-.97.19-1.332.582-.348.375-.559.902-.637 1.59h3.8v-.094c-.034-.66-.214-1.172-.542-1.536-.309-.363-.742-.543-1.293-.543zm7.882.222a5.49 5.49 0 0 0-.636-.035c-.864 0-1.446.363-1.742 1.086v5.398h-1.293v-7.609h1.253l.02.883c.426-.676 1.031-1.016 1.816-1.016.25 0 .446.031.582.094zm1.758 6.45v-6.598h-1.199v-1.012h1.2v-.77c0-.824.21-1.453.636-1.89.438-.453 1.055-.676 1.855-.676.297 0 .598.035.899.113l-.074 1.067a3.16 3.16 0 0 0-.696-.075c-.421 0-.754.125-.992.375-.222.25-.336.598-.336 1.047v.809h1.63v1.012h-1.63v6.597zm3.801-3.88c0-.738.145-1.406.434-2.007.297-.598.71-1.055 1.234-1.368a3.31 3.31 0 0 1 1.777-.488c1.036 0 1.875.356 2.512 1.07.649.711.973 1.668.973 2.868v.093c0 .739-.145 1.399-.434 1.989a3.382 3.382 0 0 1-1.215 1.386c-.523.325-1.129.485-1.816.485-1.024 0-1.86-.356-2.508-1.067-.637-.726-.957-1.68-.957-2.867zm1.313.168c0 .836.191 1.512.578 2.024.402.512.925.77 1.574.77.66 0 1.187-.258 1.574-.77.387-.524.578-1.254.578-2.192 0-.824-.199-1.496-.597-2.007-.387-.524-.914-.786-1.575-.786-.636 0-1.152.254-1.554.766-.387.5-.578 1.234-.578 2.195zm11.101-2.738c-.2-.023-.41-.035-.637-.035-.859 0-1.441.363-1.742 1.086v5.398h-1.289v-7.609h1.254l.02.883c.421-.676 1.027-1.016 1.816-1.016.25 0 .441.031.578.094zm2.34-1.16l.039.844c.547-.653 1.297-.977 2.246-.977 1.063 0 1.785.406 2.172 1.219a2.85 2.85 0 0 1 .973-.879c.414-.227.894-.34 1.445-.34 1.672 0 2.52.883 2.543 2.645v5.097h-1.29v-5.023c0-.535-.124-.938-.374-1.2-.25-.273-.668-.413-1.254-.413-.488 0-.895.144-1.219.433-.312.285-.492.676-.543 1.16v5.043h-1.293v-4.984c0-1.102-.543-1.652-1.629-1.652-.847 0-1.43.363-1.742 1.09v5.546h-1.308v-7.609zm16.648 7.61c-.074-.15-.136-.419-.187-.81-.602.641-1.317.958-2.156.958-.746 0-1.364-.211-1.852-.637-.473-.426-.71-.969-.71-1.629 0-.789.3-1.398.898-1.836.597-.437 1.449-.66 2.546-.66h1.254v-.598c0-.449-.136-.804-.41-1.066-.265-.277-.664-.414-1.199-.414-.46 0-.852.117-1.164.355-.313.227-.465.508-.465.844h-1.312c0-.387.132-.754.394-1.105a2.76 2.76 0 0 1 1.106-.825c.46-.21.964-.32 1.515-.32.887 0 1.574.219 2.059.656.5.438.762 1.04.785 1.801v3.504c0 .7.09 1.258.266 1.668v.113zm-2.156-.993c.414 0 .8-.11 1.164-.32.36-.211.621-.488.785-.824v-1.555h-1.011c-1.598 0-2.395.469-2.395 1.406 0 .399.137.715.41.953.274.227.625.336 1.047.336zm7.078-6.617l.04.957c.585-.727 1.347-1.09 2.284-1.09 1.61 0 2.422.906 2.434 2.719v5.023h-1.312v-5.043c0-.535-.125-.937-.375-1.199-.235-.262-.618-.394-1.141-.394-.426 0-.797.113-1.121.34a2.278 2.278 0 0 0-.735.878v5.418h-1.289v-7.609zm10.207 6.691c.461 0 .868-.14 1.215-.414.352-.285.543-.644.582-1.066h1.235c-.024.437-.18.855-.47 1.254-.273.387-.64.699-1.1.937-.45.239-.938.356-1.462.356-1.039 0-1.863-.344-2.472-1.031-.598-.7-.899-1.649-.899-2.848v-.227c0-.734.13-1.39.395-1.965a3.07 3.07 0 0 1 1.16-1.332c.512-.324 1.117-.488 1.816-.488.848 0 1.555.258 2.114.77.574.5.882 1.164.918 1.988h-1.235c-.039-.5-.226-.906-.562-1.219a1.75 1.75 0 0 0-1.235-.469c-.664 0-1.175.239-1.535.711-.363.477-.543 1.164-.543 2.063v.242c0 .875.18 1.55.543 2.027.36.473.871.711 1.535.711zm7.301 1.067c-1.035 0-1.879-.336-2.527-1.012-.637-.687-.953-1.598-.953-2.734v-.227c0-.762.14-1.437.43-2.023a3.227 3.227 0 0 1 1.199-1.387 3.06 3.06 0 0 1 1.683-.508c.985 0 1.754.324 2.3.977.552.648.825 1.578.825 2.793v.543h-5.148c.027.75.246 1.355.656 1.816.426.461.96.695 1.61.695.449 0 .831-.093 1.144-.28a3.06 3.06 0 0 0 .86-.75l.788.616c-.636.989-1.593 1.48-2.867 1.48zm-.168-6.82c-.523 0-.969.19-1.328.582-.352.375-.563.902-.637 1.59h3.801v-.094c-.039-.66-.219-1.172-.543-1.536-.312-.363-.746-.543-1.293-.543zm6.91 2.847h-3.43v-1.047h3.43zm2.657-5.621v1.836h1.406v1.012h-1.406v4.703c0 .312.062.543.187.695.125.149.336.223.637.223.152 0 .355-.024.617-.074v1.05a3.554 3.554 0 0 1-.992.149c-.574 0-1.012-.176-1.309-.524-.3-.363-.45-.87-.45-1.52v-4.702h-1.386v-1.012h1.387v-1.836zm6.18 9.594c-1.036 0-1.88-.336-2.528-1.012-.637-.687-.953-1.598-.953-2.734v-.227c0-.762.14-1.437.43-2.023.285-.602.687-1.063 1.199-1.387a3.06 3.06 0 0 1 1.683-.508c.985 0 1.754.324 2.301.977.55.648.828 1.578.828 2.793v.543h-5.152c.027.75.246 1.355.656 1.816.426.461.961.695 1.61.695.449 0 .831-.093 1.144-.28a3.08 3.08 0 0 0 .86-.75l.788.616c-.636.989-1.593 1.48-2.867 1.48zm-.169-6.82c-.523 0-.969.19-1.328.582-.351.375-.562.902-.637 1.59h3.801v-.094c-.039-.66-.219-1.172-.543-1.536-.312-.363-.742-.543-1.293-.543zm8.633 4.648c0-.352-.137-.621-.414-.809-.262-.199-.723-.367-1.383-.504-.652-.136-1.168-.308-1.555-.507-.386-.2-.675-.43-.863-.692a1.781 1.781 0 0 1-.262-.976c0-.625.262-1.149.786-1.575.527-.437 1.199-.656 2.023-.656.863 0 1.555.227 2.078.676.535.437.805 1 .805 1.687h-1.29c0-.351-.155-.648-.468-.898-.3-.262-.676-.395-1.125-.395-.473 0-.848.106-1.125.317a.945.945 0 0 0-.39.789c0 .312.124.55.374.71.25.165.7.321 1.348.47.649.136 1.172.308 1.57.507.403.2.696.442.883.73.2.286.301.63.301 1.032 0 .688-.277 1.235-.828 1.649-.535.41-1.234.617-2.094.617-.613 0-1.156-.106-1.633-.317a2.72 2.72 0 0 1-1.082-.918 2.188 2.188 0 0 1-.394-1.257h1.293c.023.437.199.789.523 1.05.324.25.754.375 1.293.375.485 0 .88-.101 1.18-.3.297-.2.45-.47.45-.805zm4.527-7.422v1.836h1.407v1.012h-1.403v4.703c0 .312.063.543.188.695.12.149.336.223.633.223.152 0 .359-.024.62-.074v1.05c-.34.098-.667.149-.991.149-.575 0-1.012-.176-1.313-.524-.3-.363-.45-.87-.45-1.52v-4.702h-1.386v-1.012h1.387v-1.836zm7.457 7.422c0-.352-.14-.621-.414-.809-.261-.199-.722-.367-1.386-.504-.649-.136-1.164-.308-1.551-.507-.39-.2-.676-.43-.863-.692a1.781 1.781 0 0 1-.262-.976c0-.625.262-1.149.785-1.575.523-.437 1.2-.656 2.023-.656.86 0 1.555.227 2.079.676.535.437.804 1 .804 1.687h-1.293c0-.351-.156-.648-.465-.898-.3-.262-.675-.395-1.125-.395-.476 0-.851.106-1.125.317a.949.949 0 0 0-.394.789c0 .312.125.55.375.71.25.165.7.321 1.351.47.649.136 1.172.308 1.57.507.4.2.696.442.884.73.199.286.296.63.296 1.032 0 .688-.273 1.235-.824 1.649-.535.41-1.234.617-2.097.617-.61 0-1.153-.106-1.63-.317a2.72 2.72 0 0 1-1.081-.918 2.188 2.188 0 0 1-.395-1.257h1.293c.024.437.195.789.524 1.05.324.25.753.375 1.289.375.488 0 .882-.101 1.183-.3.297-.2.45-.47.45-.805zm0 0" fill="#999"/><path d="M34.324 301.96c-.011.786-.3 1.403-.86 1.856-.573.438-1.3.625-2.171.559l-.266-.035a4.141 4.141 0 0 1-1.703-.543c-.523-.313-.914-.688-1.18-1.125a2.694 2.694 0 0 1-.374-1.445c.015-.649.234-1.153.656-1.516.414-.375.976-.582 1.687-.621.25-.012.504-.004.766.02l.469.074v4.144c.574.063 1.066-.031 1.48-.281.399-.262.606-.656.617-1.18.012-.625-.27-1.203-.843-1.726l.523-.618c.375.274.676.625.902 1.051.211.41.309.871.297 1.387zm-5.672-.675c-.011.438.137.817.45 1.14.296.329.753.59 1.367.79v-3.09l-.094-.02c-.488-.062-.895.016-1.219.243-.324.21-.492.523-.504.937zm1.535-5.305l-2.304-1.722v-1.293l3.183 2.531 3.145-1.539v1.145l-2.36 1.046 2.36 1.801v1.293l-3.258-2.625-3.07 1.5v-1.16zm4.137-6.015c-.011.785-.3 1.406-.86 1.855-.573.438-1.3.625-2.171.563l-.266-.035a4.204 4.204 0 0 1-1.703-.547c-.523-.313-.914-.688-1.18-1.125a2.69 2.69 0 0 1-.374-1.442c.015-.652.234-1.156.656-1.52.414-.374.976-.581 1.687-.616a4.94 4.94 0 0 1 .766.02l.469.073v4.141c.574.063 1.066-.031 1.48-.281.399-.262.606-.656.617-1.18.012-.625-.27-1.2-.843-1.723l.523-.62c.375.277.676.624.902 1.05.211.41.309.875.297 1.387zm-5.672-.676c-.011.438.137.82.45 1.145.296.324.753.586 1.367.789v-3.094l-.094-.02c-.488-.062-.895.02-1.219.243-.324.214-.492.527-.504.937zm4.793-5.266a1.551 1.551 0 0 0-.32-1.011 1.566 1.566 0 0 0-.898-.602l-.02-1.012c.402.063.77.227 1.105.489a2.731 2.731 0 0 1 1.012 2.195c0 .523-.129.973-.39 1.348-.278.363-.653.629-1.125.804-.489.164-1.032.22-1.63.168l-.28-.035a4.171 4.171 0 0 1-1.63-.527 3.057 3.057 0 0 1-1.124-1.106 2.607 2.607 0 0 1-.375-1.5c.015-.66.238-1.191.675-1.59.426-.402.961-.601 1.61-.601v.992c-.41.016-.742.133-.992.36-.262.21-.399.503-.41.878a1.688 1.688 0 0 0 .617 1.387c.41.363 1 .586 1.761.676l.149.02c.25.023.504.03.765.019.465-.027.825-.152 1.09-.379.262-.234.399-.558.41-.973zm.149-7.328c.511.489.758 1.118.73 1.895-.011.598-.222 1.047-.636 1.348-.422.289-1 .394-1.723.32l-4.082-.695v-1.051l4.101.675c.176.028.344.032.508.02.285-.023.508-.105.672-.242.148-.152.23-.363.242-.637.028-.75-.281-1.332-.914-1.746l-4.61-.805v-1.05l6.329 1.09v1.011zm-7.246-4.777l1.535.262v-1.145l.844.152v1.141l3.93.656c.1.012.195.012.284 0 .297-.023.45-.187.45-.488 0-.125-.02-.297-.059-.523l.879.093c.078.25.113.504.113.77-.011.422-.168.742-.465.953-.3.2-.707.281-1.218.246l-3.914-.656v1.125l-.844-.152v-1.106l-1.535-.281zm7.863-1.95v1.048l-6.328-1.086v-1.067zm-8.648-.882a.57.57 0 0 1 .167-.43.575.575 0 0 1 .45-.187c.187 0 .343.062.468.187a.66.66 0 0 1 .02.899.604.604 0 0 1-.45.168.66.66 0 0 1-.448-.188.626.626 0 0 1-.207-.45zm2.207-3.899c0-.523.144-.972.433-1.347.274-.387.66-.668 1.16-.844a3.42 3.42 0 0 1 1.61-.187l.132.02a4.31 4.31 0 0 1 1.665.542c.5.29.894.668 1.18 1.14.277.466.402.97.374 1.52 0 .524-.136.98-.41 1.367a2.5 2.5 0 0 1-1.164.829 3.728 3.728 0 0 1-1.59.183 4.106 4.106 0 0 1-1.777-.523c-.524-.301-.93-.68-1.219-1.145a2.7 2.7 0 0 1-.394-1.555zm3.39 2.157c.25.035.504.035.766 0 .465-.04.832-.168 1.11-.395.26-.238.398-.554.41-.957a1.772 1.772 0 0 0-.247-.972c-.183-.301-.465-.551-.84-.75a3.715 3.715 0 0 0-1.254-.395 8.23 8.23 0 0 0-.898-.02c-.477.051-.852.196-1.125.434s-.418.555-.43.953c-.011.54.2 1 .637 1.39.438.388 1.016.626 1.742.712zm-3.277-7.93l.789.152c-.625-.562-.926-1.21-.902-1.949.015-.586.222-1.023.62-1.312.4-.29.954-.395 1.665-.317l4.156.692v1.05l-4.172-.695a1.984 1.984 0 0 0-.527 0c-.547.063-.828.383-.84.957-.016.637.328 1.2 1.027 1.688l4.512.785v1.05l-6.328-1.085zm-1.535-9.086l1.535.262v-1.145l.844.153v1.14l3.93.657c.1.011.195.011.284 0 .297-.024.45-.188.45-.489 0-.125-.02-.3-.059-.523l.879.094c.078.25.113.503.113.765-.011.426-.168.746-.465.957-.3.2-.707.281-1.218.246l-3.914-.656v1.125l-.844-.152v-1.106l-1.535-.281zm7.863-1.95v1.048l-6.328-1.086v-1.067zm-8.648-.882a.57.57 0 0 1 .167-.43.575.575 0 0 1 .45-.187c.187 0 .343.062.468.187a.66.66 0 0 1 .02.899.604.604 0 0 1-.45.168.66.66 0 0 1-.448-.188.633.633 0 0 1-.207-.449zm2.32-2.453l.695.129c-.562-.535-.832-1.18-.808-1.93 0-.398.09-.738.265-1.012.172-.289.422-.48.746-.582-.699-.597-1.035-1.296-1.011-2.097.015-.637.226-1.106.636-1.406.403-.301.95-.415 1.649-.34l4.156.695v1.066l-4.172-.691a2.287 2.287 0 0 0-.566 0c-.524.074-.79.418-.801 1.031a1.6 1.6 0 0 0 .355 1.067c.246.312.575.511.973.601l4.21.711v1.07l-4.17-.695c-.427-.062-.759 0-.993.188-.238.187-.36.468-.36.843-.023.664.278 1.188.903 1.575l4.62.804v1.07l-6.327-1.105zm6.441-11.453c-.011.789-.3 1.406-.86 1.855-.573.438-1.3.625-2.171.563l-.266-.035a4.204 4.204 0 0 1-1.703-.547c-.523-.313-.914-.688-1.18-1.125a2.69 2.69 0 0 1-.374-1.442c.015-.648.234-1.156.656-1.52.414-.374.976-.577 1.687-.616a4.94 4.94 0 0 1 .766.02l.469.073v4.141c.574.063 1.066-.031 1.48-.281.399-.262.606-.656.617-1.18.012-.625-.27-1.2-.843-1.723l.523-.62c.375.277.676.624.902 1.05.211.414.309.875.297 1.387zm-5.672-.676c-.011.438.137.82.45 1.145.296.324.753.586 1.367.789v-3.094l-.094-.02c-.488-.062-.895.02-1.219.243-.324.214-.492.527-.504.937zm2.133-5.582a10.676 10.676 0 0 1-2.64-.715c-.86-.347-1.59-.773-2.192-1.273-.598-.512-1.055-1.082-1.363-1.707l.73-.168a5.986 5.986 0 0 0 1.797 1.594c.723.437 1.598.773 2.621 1.011 1.012.238 2.004.352 2.977.336.812 0 1.523-.097 2.133-.297.613-.215 1.101-.52 1.46-.918l.657.262c-.45.66-1.117 1.168-2.004 1.516-.887.34-1.902.488-3.05.449-.376 0-.731-.024-1.067-.074zm3.426-4.144v1.05l-8.984-1.554v-1.051zm-6.441-4.778c0-.527.144-.976.433-1.351.274-.387.66-.668 1.16-.844.489-.188 1.024-.25 1.61-.188l.132.02c.61.078 1.168.258 1.665.543.5.289.894.672 1.18 1.144.277.461.402.97.374 1.52 0 .523-.136.98-.41 1.367a2.488 2.488 0 0 1-1.164.824 3.668 3.668 0 0 1-1.59.188c-.66-.051-1.254-.223-1.777-.524-.524-.3-.93-.683-1.219-1.144a2.707 2.707 0 0 1-.394-1.555zm3.39 2.153c.25.039.504.039.766 0 .465-.036.832-.168 1.11-.391.26-.238.398-.559.41-.957a1.756 1.756 0 0 0-.247-.973c-.183-.3-.465-.55-.84-.75a3.715 3.715 0 0 0-1.254-.394 8.231 8.231 0 0 0-.898-.02c-.477.05-.852.195-1.125.434-.273.234-.418.554-.43.953-.011.539.2 1 .637 1.387.438.386 1.016.625 1.742.71zm1.555-11.504l-4.832-2.028v-1.086l6.328 2.887v.863l-4.793.657 4.793 2.265v.863l-6.328.692v-1.008l4.719-.398-4.72-2.246v-.844zm1.61-5.454c-.013.786-.302 1.403-.86 1.856-.574.437-1.3.621-2.172.559l-.266-.036a4.2 4.2 0 0 1-1.703-.543c-.523-.312-.914-.687-1.18-1.125a2.703 2.703 0 0 1-.374-1.445c.015-.648.234-1.152.656-1.516.414-.375.976-.582 1.687-.62a5.49 5.49 0 0 1 .766.019l.469.074v4.145c.574.062 1.066-.032 1.48-.282.399-.261.606-.656.617-1.18.012-.624-.27-1.202-.843-1.726l.523-.617c.375.273.676.625.902 1.05.211.41.309.872.297 1.387zm-5.673-.675c-.011.437.137.816.45 1.14.296.328.753.59 1.367.79v-3.094l-.094-.016c-.488-.063-.895.016-1.219.242-.324.211-.492.524-.504.938zm.188-6.524l-.04.508c0 .672.305 1.203.919 1.594l4.492.785v1.05l-6.328-1.09v-1.03l.73.152c-.586-.45-.875-.977-.86-1.574 0-.137.032-.309.095-.508zm5.37-3.203v1.047l-6.327-1.086v-1.066zm-8.648-.883a.57.57 0 0 1 .168-.43.575.575 0 0 1 .45-.187c.187 0 .343.063.468.188a.66.66 0 0 1 .02.898.604.604 0 0 1-.45.168.66.66 0 0 1-.448-.187.626.626 0 0 1-.207-.45zm6.93-4.293c-.437-.062-.746.176-.918.715l-.32 1.106c-.324.922-.856 1.375-1.59 1.347-.562-.023-1.02-.273-1.367-.75-.363-.484-.54-1.062-.527-1.722 0-.637.187-1.157.562-1.555.363-.398.836-.594 1.422-.582l-.016 1.07a.946.946 0 0 0-.77.297c-.198.2-.304.477-.316.824 0 .364.094.676.282.938.175.25.406.394.691.433.363.051.625-.175.785-.675l.152-.524c.188-.726.43-1.238.731-1.539.297-.312.672-.453 1.121-.43a1.74 1.74 0 0 1 1.031.395c.285.223.512.535.672.934.153.386.219.8.207 1.238 0 .676-.191 1.23-.582 1.668-.387.437-.879.644-1.476.617v-1.047c.347 0 .636-.113.859-.336.215-.226.32-.539.32-.937 0-.39-.082-.719-.246-.996-.172-.286-.41-.45-.707-.489zm-1.426-10.23c.649.086 1.239.27 1.762.543.512.273.899.613 1.16 1.012.25.386.367.824.356 1.312-.024.762-.313 1.332-.86 1.707l.727.203v.977l-8.984-1.555v-1.07l3.351.637c-.562-.5-.832-1.11-.808-1.836.015-.614.238-1.086.675-1.426.426-.348 1.016-.528 1.778-.543.25 0 .496.012.734.039zm-.597 1.012c-.574-.012-1.012.086-1.313.3-.3.2-.46.504-.484.918-.016.66.316 1.223.992 1.688l2.77.465c.636-.235.96-.672.972-1.309a1.455 1.455 0 0 0-.355-1.09c-.262-.312-.625-.547-1.086-.71a4.99 4.99 0 0 0-1.496-.262zm3.855-5.192c-.011.785-.3 1.406-.86 1.856-.573.437-1.3.625-2.171.562l-.266-.035a4.204 4.204 0 0 1-1.703-.547c-.523-.312-.914-.687-1.18-1.125a2.69 2.69 0 0 1-.374-1.441c.015-.653.234-1.157.656-1.52.414-.375.976-.582 1.687-.617a4.94 4.94 0 0 1 .766.02l.469.074v4.14c.574.063 1.066-.03 1.48-.28.399-.263.606-.657.617-1.18.012-.626-.27-1.2-.843-1.727l.523-.617c.375.277.676.625.902 1.05.211.41.309.875.297 1.387zm-5.672-.676c-.011.438.137.82.45 1.145.296.324.753.586 1.367.785v-3.09l-.094-.02c-.488-.062-.895.02-1.219.243-.324.215-.492.527-.504.937zm-2.304-5.379l1.535.266v-1.144l.844.148v1.145l3.93.656c.1.012.195.012.284 0 .297-.028.45-.188.45-.488 0-.125-.02-.301-.059-.524l.879.094c.078.25.113.504.113.765-.011.426-.168.747-.465.958-.3.199-.707.28-1.218.246l-3.914-.657v1.121l-.844-.148v-1.105l-1.535-.282zm0-3.597l1.535.262v-1.141l.844.148v1.145l3.93.656c.1.012.195.012.284 0 .297-.027.45-.191.45-.488 0-.125-.02-.3-.059-.527l.879.093c.078.25.113.508.113.77-.011.426-.168.742-.465.957-.3.2-.707.281-1.218.242l-3.914-.656v1.125l-.844-.149v-1.105l-1.535-.281zm7.976-3.543c-.011.789-.3 1.406-.86 1.855-.573.438-1.3.625-2.171.563l-.266-.035a4.145 4.145 0 0 1-1.703-.547c-.523-.309-.914-.684-1.18-1.121a2.712 2.712 0 0 1-.374-1.446c.015-.648.234-1.156.656-1.515.414-.375.976-.582 1.687-.621.25-.012.504-.004.766.02l.469.073v4.141c.574.066 1.066-.027 1.48-.277.399-.266.606-.657.617-1.184.012-.625-.27-1.2-.843-1.723l.523-.617c.375.274.676.621.902 1.047.211.414.309.875.297 1.387zm-5.672-.676c-.011.438.137.82.45 1.145.296.324.753.59 1.367.789v-3.094l-.094-.02c-.488-.062-.895.02-1.219.246-.324.211-.492.524-.504.934zm.188-6.52l-.04.508c0 .672.305 1.203.919 1.59l4.492.79v1.046l-6.328-1.086v-1.031l.73.152c-.586-.453-.875-.976-.86-1.574 0-.14.032-.309.095-.508zm1.945-2.68c.95.138 1.848.388 2.7.75.847.349 1.566.782 2.152 1.294.586.5 1.027 1.055 1.328 1.668l-.676.148c-.996-1.336-2.613-2.23-4.848-2.68a13.473 13.473 0 0 0-2.586-.261c-1.671.023-2.867.43-3.593 1.219l-.657-.262a3.76 3.76 0 0 1 1.22-1.11 5.342 5.342 0 0 1 1.76-.671 7.88 7.88 0 0 1 2.08-.188c.37.012.726.035 1.065.074zm52.617 207.997c0 1.262-.218 2.203-.656 2.828-.426.613-1.101.918-2.023.918-.91 0-1.586-.3-2.024-.898-.437-.602-.66-1.5-.672-2.7v-1.441c0-1.266.211-2.195.637-2.793.438-.613 1.117-.918 2.04-.918.925 0 1.597.293 2.023.879.437.586.66 1.492.675 2.719zm-1.086-1.484c0-.922-.132-1.59-.394-2.004-.25-.426-.656-.637-1.219-.637-.547 0-.953.21-1.215.637-.25.414-.375 1.05-.375 1.91v1.746c0 .926.13 1.605.39 2.043.278.437.684.656 1.22.656.535 0 .93-.207 1.18-.62.261-.411.398-1.063.413-1.95zm4.063-1.215l.035.691c.461-.535 1.086-.805 1.875-.805.887 0 1.492.336 1.816 1.012.2-.3.465-.543.801-.73.352-.188.75-.282 1.2-.282 1.398 0 2.109.73 2.136 2.192v4.254h-1.086V358c0-.453-.105-.79-.32-1.016-.2-.222-.543-.336-1.027-.336-.414 0-.75.122-1.012.356-.262.238-.418.562-.469.976v4.196h-1.086v-4.16c0-.91-.449-1.368-1.347-1.368-.711 0-1.2.301-1.461.899v4.629h-1.086v-6.332zm13.46 4.648a.787.787 0 0 0-.335-.676c-.227-.164-.613-.3-1.16-.414-.54-.125-.969-.27-1.293-.43-.324-.163-.57-.355-.73-.581a1.422 1.422 0 0 1-.227-.805c0-.524.219-.961.656-1.313.45-.363 1.012-.543 1.688-.543.722 0 1.3.188 1.738.563.449.363.676.832.676 1.406h-1.086c0-.3-.125-.558-.375-.77-.25-.21-.567-.32-.954-.32-.39 0-.695.09-.917.266a.808.808 0 0 0-.34.672c0 .265.101.465.3.601.211.125.586.25 1.125.375.547.11.993.254 1.329.43.336.164.582.363.73.602.16.234.242.523.242.86 0 .573-.222 1.03-.672 1.366-.449.34-1.039.508-1.761.508-.5 0-.95-.086-1.348-.262a2.4 2.4 0 0 1-.918-.75 1.894 1.894 0 0 1-.316-1.05h1.086c.011.363.156.652.43.863.273.21.628.32 1.066.32.414 0 .742-.082.992-.246.25-.172.375-.398.375-.672zm-30.577-53.976h-5.578v-.79l2.941-3.277c.438-.488.734-.89.898-1.199a1.97 1.97 0 0 0 .262-.977c0-.437-.137-.8-.414-1.086-.262-.289-.617-.433-1.066-.433-.535 0-.953.156-1.254.469-.301.3-.45.726-.45 1.277h-1.085c0-.79.25-1.422.75-1.895.511-.488 1.191-.73 2.039-.73.789 0 1.41.207 1.875.617.46.414.691.969.691 1.668 0 .836-.539 1.836-1.61 3l-2.265 2.473h4.266zm2.097-4.274l.45-4.254h4.363v.992h-3.445l-.262 2.325c.414-.239.887-.356 1.422-.356.777 0 1.386.254 1.836.766.465.515.695 1.207.695 2.082 0 .875-.238 1.566-.715 2.078-.473.5-1.133.75-1.984.75-.746 0-1.367-.203-1.852-.617-.476-.426-.742-1.004-.805-1.742h1.028c.062.488.23.855.508 1.105.285.25.66.375 1.12.375.5 0 .895-.168 1.18-.508.29-.347.434-.824.434-1.422 0-.574-.156-1.03-.469-1.367-.3-.351-.71-.527-1.238-.527-.46 0-.828.101-1.102.3l-.28.243zm12.043.637c0 1.262-.218 2.203-.656 2.832-.426.61-1.101.914-2.023.914-.91 0-1.586-.297-2.024-.898-.437-.598-.66-1.5-.672-2.7v-1.441c0-1.262.211-2.191.637-2.793.438-.613 1.117-.918 2.04-.918.925 0 1.597.293 2.023.879.437.59.66 1.496.675 2.719zm-1.086-1.48c0-.926-.132-1.594-.394-2.004-.25-.426-.656-.641-1.219-.641-.547 0-.953.215-1.215.637-.25.414-.375 1.05-.375 1.914v1.742c0 .926.13 1.605.39 2.043.278.437.684.656 1.22.656.535 0 .93-.207 1.18-.617.261-.414.398-1.063.413-1.95zm4.063-1.22l.035.692c.461-.535 1.086-.805 1.875-.805.887 0 1.492.336 1.816 1.012.2-.3.465-.543.801-.73.352-.188.75-.282 1.2-.282 1.398 0 2.109.73 2.136 2.192v4.258h-1.086v-4.18c0-.453-.105-.79-.32-1.012-.2-.226-.543-.34-1.027-.34-.414 0-.75.121-1.012.356-.262.238-.418.562-.469.976v4.2h-1.086v-4.16c0-.915-.449-1.372-1.347-1.372-.711 0-1.2.301-1.461.903v4.629h-1.086v-6.336zm13.46 4.65a.792.792 0 0 0-.335-.677c-.227-.164-.613-.3-1.16-.41-.54-.125-.969-.27-1.293-.433-.324-.16-.57-.356-.73-.582a1.422 1.422 0 0 1-.227-.805c0-.524.219-.961.656-1.313.45-.363 1.012-.543 1.688-.543.722 0 1.3.188 1.738.563.449.363.676.832.676 1.406h-1.086c0-.3-.125-.555-.375-.77-.25-.21-.567-.316-.954-.316-.39 0-.695.086-.917.262a.815.815 0 0 0-.34.676c0 .261.101.46.3.597.211.125.586.25 1.125.375.547.114.993.258 1.329.43.336.164.582.363.73.602.16.238.242.523.242.863 0 .574-.222 1.027-.672 1.367-.449.336-1.039.504-1.761.504-.5 0-.95-.086-1.348-.262a2.4 2.4 0 0 1-.918-.75 1.881 1.881 0 0 1-.316-1.047h1.086c.011.36.156.649.43.864.273.21.628.316 1.066.316.414 0 .742-.082.992-.242.25-.176.375-.402.375-.676zm-35.667-58.25l.45-4.255h4.358v.992h-3.44l-.267 2.325c.415-.239.887-.356 1.426-.356.774 0 1.387.254 1.836.766.461.515.692 1.207.692 2.082 0 .875-.239 1.57-.711 2.082-.477.5-1.137.75-1.985.75-.75 0-1.367-.207-1.855-.621-.473-.422-.742-1.004-.805-1.742h1.031c.063.488.23.859.504 1.105.29.25.664.375 1.125.375.5 0 .89-.168 1.18-.504.285-.351.43-.824.43-1.426 0-.574-.157-1.03-.47-1.367-.3-.351-.71-.523-1.234-.523-.464 0-.832.097-1.105.297l-.281.246zm12.039.636c0 1.262-.219 2.207-.656 2.832-.426.61-1.098.918-2.024.918-.91 0-1.582-.3-2.02-.903-.437-.597-.663-1.5-.675-2.699v-1.441c0-1.262.21-2.192.637-2.793.437-.61 1.117-.918 2.043-.918.921 0 1.597.293 2.02.883.437.586.663 1.492.675 2.715zm-1.086-1.48c0-.926-.133-1.594-.395-2.005-.25-.425-.656-.636-1.214-.636-.551 0-.957.21-1.22.636-.25.41-.374 1.047-.374 1.91v1.743c0 .926.133 1.605.394 2.043.274.437.68.656 1.215.656.54 0 .93-.207 1.18-.617.262-.414.402-1.063.414-1.95zm8.277 1.48c0 1.262-.218 2.207-.656 2.832-.426.61-1.101.918-2.023.918-.91 0-1.586-.3-2.024-.903-.437-.597-.66-1.5-.672-2.699v-1.441c0-1.262.211-2.192.637-2.793.438-.61 1.117-.918 2.04-.918.925 0 1.597.293 2.023.883.437.586.66 1.492.675 2.715zm-1.086-1.48c0-.926-.132-1.594-.394-2.005-.25-.425-.656-.636-1.219-.636-.547 0-.953.21-1.215.636-.25.41-.375 1.047-.375 1.91v1.743c0 .926.13 1.605.39 2.043.278.437.684.656 1.22.656.535 0 .93-.207 1.18-.617.261-.414.398-1.063.413-1.95zm4.063-1.22l.035.696c.461-.54 1.086-.805 1.875-.805.887 0 1.492.336 1.816 1.008.2-.297.465-.543.801-.73a2.55 2.55 0 0 1 1.2-.278c1.398 0 2.109.73 2.136 2.192v4.254h-1.086v-4.18c0-.45-.105-.785-.32-1.012-.2-.226-.543-.34-1.027-.34-.414 0-.75.121-1.012.36-.262.234-.418.562-.469.972v4.2h-1.086v-4.16c0-.915-.449-1.372-1.347-1.372-.711 0-1.2.301-1.461.903v4.629h-1.086v-6.336zm13.46 4.65a.792.792 0 0 0-.335-.677c-.227-.16-.613-.297-1.16-.41-.54-.125-.969-.27-1.293-.433-.324-.16-.57-.356-.73-.579a1.431 1.431 0 0 1-.227-.804c0-.528.219-.965.656-1.313.45-.363 1.012-.543 1.688-.543.722 0 1.3.184 1.738.559.449.363.676.832.676 1.406h-1.086c0-.3-.125-.555-.375-.766-.25-.214-.567-.32-.954-.32-.39 0-.695.086-.917.262a.82.82 0 0 0-.34.676c0 .261.101.46.3.597.211.125.586.25 1.125.375.547.114.993.258 1.329.434.336.16.582.36.73.598.16.238.242.527.242.863 0 .574-.222 1.031-.672 1.367-.449.336-1.039.508-1.761.508-.5 0-.95-.09-1.348-.262a2.4 2.4 0 0 1-.918-.75 1.903 1.903 0 0 1-.316-1.05h1.086c.011.363.156.648.43.863.273.21.628.316 1.066.316.414 0 .742-.082.992-.242.25-.176.375-.403.375-.676zm-30.651-61.903l-3.54 7.925h-1.12l3.5-7.644h-4.606v-.883h5.766zm2.171 3.652l.45-4.254h4.363v.996h-3.445l-.262 2.32a2.834 2.834 0 0 1 1.422-.355c.777 0 1.386.258 1.836.77.465.511.695 1.203.695 2.078 0 .875-.238 1.57-.715 2.082-.473.5-1.133.75-1.984.75-.746 0-1.367-.207-1.852-.617-.476-.426-.742-1.008-.805-1.746h1.028c.062.488.23.859.508 1.109.285.246.66.371 1.12.371.5 0 .895-.168 1.18-.504.29-.351.434-.824.434-1.426 0-.574-.156-1.031-.469-1.367-.3-.348-.71-.523-1.238-.523-.46 0-.828.097-1.102.3l-.28.243zm12.043.637c0 1.265-.218 2.207-.656 2.832-.426.613-1.101.918-2.023.918-.91 0-1.586-.301-2.024-.899-.437-.601-.66-1.5-.672-2.699v-1.445c0-1.262.211-2.192.637-2.793.438-.61 1.117-.918 2.04-.918.925 0 1.597.297 2.023.883.437.586.66 1.492.675 2.718zm-1.086-1.48c0-.923-.132-1.59-.394-2.005-.25-.425-.656-.636-1.219-.636-.547 0-.953.21-1.215.636-.25.41-.375 1.051-.375 1.91v1.743c0 .926.13 1.61.39 2.047.278.433.684.652 1.22.652.535 0 .93-.203 1.18-.617.261-.41.398-1.063.413-1.95zm4.063-1.216l.035.692c.461-.535 1.086-.805 1.875-.805.887 0 1.492.336 1.816 1.012.2-.3.465-.543.801-.73.352-.188.75-.282 1.2-.282 1.398 0 2.109.73 2.136 2.192v4.254h-1.086v-4.18c0-.45-.105-.785-.32-1.012-.2-.223-.543-.336-1.027-.336-.414 0-.75.117-1.012.356-.262.238-.418.562-.469.972v4.2h-1.086v-4.16c0-.91-.449-1.368-1.347-1.368-.711 0-1.2.3-1.461.899v4.629h-1.086v-6.333zm13.46 4.645a.785.785 0 0 0-.335-.672c-.227-.164-.613-.3-1.16-.414-.54-.125-.969-.27-1.293-.43-.324-.164-.57-.355-.73-.582a1.431 1.431 0 0 1-.227-.804c0-.528.219-.961.656-1.313.45-.363 1.012-.543 1.688-.543.722 0 1.3.188 1.738.563.449.36.676.828.676 1.406h-1.086c0-.3-.125-.559-.375-.77-.25-.214-.567-.32-.954-.32-.39 0-.695.09-.917.266a.808.808 0 0 0-.34.672c0 .261.101.464.3.601.211.125.586.25 1.125.375.547.11.993.254 1.329.43.336.164.582.363.73.601.16.235.242.524.242.86 0 .574-.222 1.031-.672 1.367-.449.34-1.039.508-1.761.508-.5 0-.95-.086-1.348-.262a2.4 2.4 0 0 1-.918-.75 1.894 1.894 0 0 1-.316-1.05h1.086c.011.363.156.652.43.863.273.21.628.316 1.066.316.414 0 .742-.078.992-.242.25-.176.375-.399.375-.676zm-39.788-53.977h-1.086v-7.214l-2.192.789v-.977l3.11-1.16h.168zm8.969-3.632c0 1.261-.22 2.203-.657 2.828-.422.613-1.097.918-2.02.918-.913 0-1.585-.301-2.023-.899-.437-.601-.66-1.5-.675-2.699v-1.441c0-1.262.214-2.196.64-2.793.434-.614 1.117-.918 2.04-.918.921 0 1.597.293 2.023.879.433.59.66 1.492.672 2.718zm-1.086-1.48c0-.927-.13-1.595-.395-2.009-.246-.422-.652-.636-1.215-.636-.55 0-.957.214-1.219.636-.25.414-.37 1.051-.37 1.914v1.743c0 .925.128 1.605.39 2.043.277.437.68.656 1.219.656.535 0 .93-.207 1.18-.621.261-.41.398-1.063.41-1.95zm8.277 1.48c0 1.261-.219 2.203-.656 2.828-.426.613-1.098.918-2.024.918-.91 0-1.582-.301-2.02-.899-.437-.601-.663-1.5-.675-2.699v-1.441c0-1.262.21-2.196.637-2.793.437-.614 1.117-.918 2.043-.918.921 0 1.597.293 2.02.879.437.59.663 1.492.675 2.718zm-1.086-1.48c0-.927-.133-1.595-.395-2.009-.25-.422-.656-.636-1.214-.636-.551 0-.957.214-1.22.636-.25.414-.374 1.051-.374 1.914v1.743c0 .925.133 1.605.394 2.043.274.437.68.656 1.215.656.54 0 .93-.207 1.18-.621.262-.41.402-1.063.414-1.95zm8.277 1.48c0 1.261-.218 2.203-.656 2.828-.426.613-1.101.918-2.023.918-.91 0-1.586-.301-2.024-.899-.437-.601-.66-1.5-.672-2.699v-1.441c0-1.262.211-2.196.637-2.793.438-.614 1.117-.918 2.04-.918.925 0 1.597.293 2.023.879.437.59.66 1.492.675 2.718zm-1.086-1.48c0-.927-.132-1.595-.394-2.009-.25-.422-.656-.636-1.219-.636-.547 0-.953.214-1.215.636-.25.414-.375 1.051-.375 1.914v1.743c0 .925.13 1.605.39 2.043.278.437.684.656 1.22.656.535 0 .93-.207 1.18-.621.261-.41.398-1.063.413-1.95zm4.063-1.22l.035.692c.461-.535 1.086-.805 1.875-.805.887 0 1.492.336 1.816 1.012.2-.3.465-.543.801-.73.352-.188.75-.282 1.2-.282 1.398 0 2.109.73 2.136 2.192v4.253h-1.086v-4.175c0-.453-.105-.79-.32-1.016-.2-.223-.543-.336-1.027-.336-.414 0-.75.121-1.012.356-.262.238-.418.562-.469.976v4.195h-1.086v-4.16c0-.91-.449-1.367-1.347-1.367-.711 0-1.2.3-1.461.899v4.632h-1.086v-6.336zm13.46 4.649a.787.787 0 0 0-.335-.676c-.227-.164-.613-.3-1.16-.414-.54-.121-.969-.266-1.293-.43-.324-.164-.57-.355-.73-.582a1.422 1.422 0 0 1-.227-.804c0-.524.219-.961.656-1.313.45-.363 1.012-.543 1.688-.543.722 0 1.3.188 1.738.563.449.363.676.832.676 1.406h-1.086c0-.3-.125-.555-.375-.77-.25-.21-.567-.316-.954-.316-.39 0-.695.086-.917.262a.813.813 0 0 0-.34.672c0 .265.101.464.3.601.211.125.586.25 1.125.375.547.113.993.254 1.329.43.336.164.582.363.73.601.16.239.242.524.242.864 0 .574-.222 1.027-.672 1.367-.449.336-1.039.504-1.761.504-.5 0-.95-.086-1.348-.262a2.4 2.4 0 0 1-.918-.75 1.894 1.894 0 0 1-.316-1.05h1.086c.011.363.156.652.43.863.273.214.628.32 1.066.32.414 0 .742-.082.992-.242.25-.18.375-.403.375-.676zM60.052 83.863h-1.086v-7.218l-2.192.789v-.977l3.11-1.16h.168zm9.21 0h-5.577v-.789l2.941-3.277c.438-.488.734-.89.898-1.2a1.96 1.96 0 0 0 .262-.976c0-.437-.137-.8-.414-1.086-.262-.289-.617-.433-1.066-.433-.535 0-.953.156-1.254.472-.301.297-.45.723-.45 1.274h-1.085c0-.79.25-1.418.75-1.895.511-.488 1.191-.73 2.039-.73.789 0 1.41.207 1.875.617.46.414.691.969.691 1.668 0 .84-.539 1.836-1.61 3l-2.265 2.472h4.266zm2.098-4.273l.45-4.254h4.363v.992h-3.445l-.262 2.324c.414-.238.887-.355 1.422-.355.777 0 1.386.254 1.836.766.465.515.695 1.207.695 2.082 0 .875-.238 1.566-.715 2.078-.473.5-1.133.75-1.984.75-.746 0-1.367-.203-1.852-.618-.476-.421-.742-1.003-.805-1.742h1.028c.062.489.23.856.508 1.106.285.25.66.375 1.12.375.5 0 .895-.168 1.18-.508.29-.348.434-.824.434-1.422 0-.574-.156-1.031-.469-1.367-.3-.352-.71-.527-1.238-.527-.46 0-.828.101-1.102.3l-.28.246zm12.043.637c0 1.261-.218 2.207-.656 2.832-.426.609-1.101.914-2.023.914-.91 0-1.586-.297-2.024-.899-.437-.597-.66-1.5-.672-2.699v-1.441c0-1.262.211-2.192.637-2.793.438-.614 1.117-.918 2.04-.918.925 0 1.597.293 2.023.879.437.59.66 1.496.675 2.718zm-1.086-1.48c0-.927-.132-1.595-.394-2.005-.25-.426-.656-.64-1.219-.64-.547 0-.953.214-1.215.64-.25.41-.375 1.047-.375 1.91v1.743c0 .925.13 1.605.39 2.043.278.437.684.656 1.22.656.535 0 .93-.207 1.18-.617.261-.415.398-1.063.413-1.95zm4.063-1.22l.035.696c.461-.54 1.086-.809 1.875-.809.887 0 1.492.34 1.816 1.012.2-.301.465-.543.801-.73.352-.188.75-.282 1.2-.282 1.398 0 2.109.73 2.136 2.195v4.254h-1.086v-4.18c0-.449-.105-.788-.32-1.011-.2-.227-.543-.34-1.027-.34-.414 0-.75.121-1.012.356-.262.238-.418.566-.469.976v4.2h-1.086v-4.165c0-.91-.449-1.367-1.347-1.367-.711 0-1.2.3-1.461.902v4.63h-1.086v-6.337zm13.46 4.649a.792.792 0 0 0-.335-.676c-.227-.16-.613-.3-1.16-.41-.54-.125-.969-.27-1.293-.434-.324-.16-.57-.355-.73-.582a1.422 1.422 0 0 1-.227-.804c0-.524.219-.961.656-1.313.45-.36 1.012-.543 1.688-.543.722 0 1.3.188 1.738.563.449.363.676.832.676 1.406h-1.086c0-.301-.125-.555-.375-.77-.25-.21-.567-.316-.954-.316-.39 0-.695.086-.917.262a.815.815 0 0 0-.34.675c0 .262.101.461.3.598.211.125.586.25 1.125.375.547.113.993.258 1.329.434.336.16.582.359.73.597.16.239.242.524.242.864 0 .574-.222 1.03-.672 1.367-.449.336-1.039.504-1.761.504-.5 0-.95-.086-1.348-.262a2.427 2.427 0 0 1-.918-.746 1.903 1.903 0 0 1-.316-1.05h1.086c.011.362.156.647.43.858.273.215.628.32 1.066.32.414 0 .742-.081.992-.241.25-.176.375-.403.375-.676zm0 0" fill="#b7b7b7"/><path d="M181.188 375.86c0 1.148-.266 2.077-.79 2.792-.523.711-1.242 1.067-2.152 1.067-.926 0-1.648-.293-2.172-.88v3.653h-1.293v-10.531h1.18l.055.844c.539-.653 1.273-.977 2.21-.977.91 0 1.63.344 2.153 1.031.539.688.809 1.645.809 2.868zm-1.293-.153c0-.86-.188-1.535-.563-2.023-.363-.5-.863-.75-1.5-.75-.785 0-1.371.343-1.758 1.03v3.638c.387.699.98 1.05 1.778 1.05.625 0 1.117-.246 1.48-.73.375-.5.563-1.238.563-2.215zm6.945-2.586a5.49 5.49 0 0 0-.637-.035c-.86 0-1.441.363-1.742 1.086v5.398h-1.29v-7.61h1.255l.015.88c.426-.672 1.032-1.012 1.817-1.012.25 0 .445.031.582.094zm.765 2.567c0-.735.145-1.403.434-2.004.297-.598.711-1.055 1.234-1.368a3.31 3.31 0 0 1 1.778-.488c1.039 0 1.875.356 2.512 1.07.648.711.972 1.668.972 2.868v.093c0 .735-.144 1.399-.43 1.989a3.383 3.383 0 0 1-1.218 1.382c-.524.329-1.13.489-1.817.489-1.023 0-1.86-.356-2.507-1.067-.637-.726-.954-1.683-.954-2.867zm1.313.171c0 .836.195 1.512.582 2.024.398.512.922.77 1.57.77.664 0 1.188-.258 1.575-.77.386-.524.578-1.254.578-2.192 0-.828-.2-1.496-.598-2.007-.387-.524-.91-.786-1.574-.786-.637 0-1.153.254-1.551.766-.387.5-.582 1.23-.582 2.195zm8.648-3.898l.04.844c.55-.653 1.296-.977 2.246-.977 1.062 0 1.785.406 2.171 1.219.25-.363.575-.656.977-.879.41-.227.89-.34 1.441-.34 1.672 0 2.52.883 2.547 2.645v5.097h-1.293v-5.023c0-.535-.125-.938-.375-1.2-.25-.273-.668-.413-1.254-.413-.488 0-.894.144-1.218.433-.313.285-.493.676-.543 1.16v5.043h-1.293v-4.984c0-1.102-.543-1.652-1.63-1.652-.847 0-1.425.363-1.737 1.09v5.546h-1.313v-7.61zm13.371 7.61h-1.292v-7.61h1.292zm-1.402-9.618c0-.21.059-.39.184-.543.14-.148.332-.223.582-.223.25 0 .437.075.562.223a.785.785 0 0 1 .207.543c0 .203-.07.375-.207.527-.125.137-.312.207-.562.207-.25 0-.442-.07-.582-.207a.797.797 0 0 1-.184-.527zm8.012 7.594c0-.352-.137-.621-.41-.809-.266-.199-.727-.367-1.387-.504-.648-.136-1.168-.308-1.555-.507-.386-.2-.675-.43-.86-.692a1.783 1.783 0 0 1-.265-.976c0-.625.262-1.149.79-1.575.523-.437 1.195-.656 2.023-.656.86 0 1.55.227 2.074.676.54.437.809 1 .809 1.687h-1.293c0-.351-.157-.652-.47-.898-.3-.266-.675-.395-1.12-.395-.477 0-.852.106-1.125.317a.949.949 0 0 0-.395.789c0 .312.125.55.375.71.25.165.7.321 1.348.47.648.136 1.176.308 1.574.507.399.2.692.442.88.73.198.286.3.63.3 1.032 0 .688-.278 1.235-.824 1.649-.54.41-1.235.617-2.098.617-.613 0-1.156-.106-1.629-.32a2.692 2.692 0 0 1-1.086-.915 2.217 2.217 0 0 1-.394-1.257h1.293c.027.437.199.789.523 1.05.324.25.758.375 1.293.375.488 0 .879-.101 1.18-.3.3-.2.449-.47.449-.805zm5.918 2.172c-1.035 0-1.88-.336-2.531-1.012-.633-.687-.954-1.602-.954-2.734v-.227c0-.762.145-1.437.43-2.023.29-.602.688-1.063 1.2-1.387a3.04 3.04 0 0 1 1.687-.508c.984 0 1.754.324 2.3.977.551.648.825 1.578.825 2.793v.543h-5.149c.024.75.243 1.355.657 1.816.422.461.96.695 1.61.695.448 0 .827-.093 1.14-.28.324-.188.613-.438.863-.75l.785.616c-.637.989-1.59 1.48-2.863 1.48zm-.168-6.82c-.527 0-.969.19-1.332.581-.348.375-.563.903-.637 1.59h3.8v-.093c-.034-.66-.218-1.172-.542-1.536-.313-.363-.742-.543-1.29-.543zm8.629 4.648c0-.352-.137-.621-.41-.809-.262-.199-.727-.367-1.387-.504-.649-.136-1.168-.308-1.555-.507-.387-.2-.672-.43-.86-.692a1.783 1.783 0 0 1-.265-.976c0-.625.266-1.149.79-1.575.523-.437 1.198-.656 2.023-.656.86 0 1.554.227 2.078.676.535.437.805 1 .805 1.687h-1.293c0-.351-.157-.652-.465-.898-.301-.266-.676-.395-1.125-.395-.477 0-.852.106-1.125.317a.949.949 0 0 0-.395.789c0 .312.125.55.375.71.25.165.7.321 1.352.47.648.136 1.172.308 1.57.507.399.2.691.442.879.73.2.286.3.63.3 1.032 0 .688-.273 1.235-.823 1.649-.536.41-1.235.617-2.098.617-.61 0-1.152-.106-1.629-.32a2.692 2.692 0 0 1-1.086-.915 2.213 2.213 0 0 1-.39-1.257h1.288c.028.437.204.789.528 1.05.324.25.754.375 1.289.375.488 0 .883-.101 1.18-.3.3-.2.449-.47.449-.805zm55.652 2.023c-.074-.152-.137-.418-.183-.808-.602.64-1.32.957-2.157.957-.746 0-1.367-.211-1.851-.637-.477-.426-.711-.969-.711-1.633 0-.785.297-1.398.898-1.832.598-.437 1.45-.66 2.547-.66h1.254v-.598c0-.449-.137-.804-.414-1.066-.262-.277-.66-.414-1.195-.414-.465 0-.852.117-1.164.355-.313.227-.47.508-.47.844h-1.308c0-.387.133-.758.395-1.105.273-.352.64-.625 1.105-.825.461-.214.965-.32 1.516-.32.887 0 1.57.219 2.058.656.5.438.762 1.04.786 1.801v3.504c0 .7.09 1.254.261 1.668v.113zm-2.152-.992c.414 0 .8-.11 1.164-.32.36-.211.62-.488.785-.824v-1.555h-1.012c-1.597 0-2.398.469-2.398 1.406 0 .399.14.715.414.953.273.227.625.336 1.047.336zm10.281-1.035c0-.348-.137-.617-.414-.805-.262-.199-.723-.367-1.383-.504-.652-.136-1.168-.308-1.555-.507-.386-.2-.675-.43-.863-.692a1.781 1.781 0 0 1-.262-.976c0-.625.262-1.149.786-1.575.527-.437 1.199-.656 2.023-.656.863 0 1.555.227 2.078.676.54.437.805 1 .805 1.687h-1.29c0-.351-.155-.652-.468-.898-.3-.266-.676-.395-1.125-.395-.473 0-.848.106-1.125.317a.945.945 0 0 0-.39.789c0 .312.124.55.374.71.25.165.7.321 1.348.47.649.136 1.172.308 1.57.507.403.2.696.442.883.73.2.286.301.63.301 1.032 0 .688-.277 1.235-.824 1.649-.54.41-1.238.617-2.098.617-.613 0-1.156-.106-1.633-.32a2.68 2.68 0 0 1-1.082-.915 2.217 2.217 0 0 1-.394-1.257h1.293c.023.437.199.789.523 1.05.324.25.754.375 1.293.375.485 0 .879-.101 1.18-.3.3-.2.449-.47.449-.805zm5.242.113l1.778-5.695h1.386l-3.05 8.789c-.477 1.262-1.223 1.89-2.25 1.89l-.258-.015-.47-.094v-1.05l.337.019c.45 0 .793-.086 1.031-.262.246-.175.453-.5.617-.976l.282-.785-2.715-7.516h1.422zm5.938-5.695l.035.953c.586-.723 1.348-1.086 2.285-1.086 1.61 0 2.422.906 2.434 2.719v5.023h-1.313v-5.043c0-.535-.125-.937-.375-1.199-.234-.262-.617-.394-1.14-.394-.422 0-.797.113-1.122.34a2.235 2.235 0 0 0-.73.878v5.418h-1.293v-7.61zm10.203 6.691c.46 0 .867-.14 1.215-.414.351-.285.543-.644.582-1.066h1.234c-.023.437-.18.855-.469 1.254-.273.387-.64.699-1.101.937-.45.239-.938.356-1.461.356-1.04 0-1.86-.344-2.473-1.031-.597-.7-.898-1.649-.898-2.848v-.227c0-.734.133-1.39.394-1.965.274-.578.66-1.02 1.16-1.332.512-.324 1.118-.488 1.817-.488.848 0 1.555.258 2.113.77.574.5.883 1.16.918 1.988h-1.234c-.04-.5-.227-.906-.563-1.219a1.75 1.75 0 0 0-1.234-.469c-.664 0-1.176.239-1.535.711-.364.477-.543 1.164-.543 2.063v.242c0 .875.18 1.55.543 2.024.36.476.87.714 1.535.714zm4.398 1.797h-1.105l4.27-11.113h1.105zm10.43-.879c-.074-.152-.137-.418-.188-.808-.597.64-1.316.957-2.152.957-.75 0-1.367-.211-1.855-.637-.473-.426-.711-.969-.711-1.633 0-.785.3-1.398.898-1.832.602-.437 1.45-.66 2.547-.66h1.254v-.598c0-.449-.137-.804-.41-1.066-.262-.277-.66-.414-1.2-.414-.46 0-.847.117-1.16.355-.312.227-.468.508-.468.844h-1.309c0-.387.129-.758.39-1.105.274-.352.645-.625 1.106-.825a3.55 3.55 0 0 1 1.516-.32c.887 0 1.574.219 2.062.656.496.438.762 1.04.785 1.801v3.504c0 .7.086 1.254.262 1.668v.113zm-2.152-.992c.41 0 .796-.11 1.16-.32.363-.211.625-.488.785-.824v-1.555h-1.008c-1.598 0-2.398.469-2.398 1.406 0 .399.136.715.41.953.277.227.625.336 1.05.336zm12.582-.808l1.46-5.81h1.294l-2.211 7.61h-1.047l-1.856-5.773-1.797 5.773h-1.046l-2.211-7.61h1.293l1.496 5.696 1.777-5.695h1.031zm8.742 1.8c-.074-.152-.137-.418-.184-.808-.601.64-1.32.957-2.156.957-.746 0-1.367-.211-1.852-.637-.476-.426-.71-.969-.71-1.633 0-.785.296-1.398.898-1.832.598-.437 1.45-.66 2.547-.66h1.254v-.598c0-.449-.137-.804-.414-1.066-.262-.277-.66-.414-1.196-.414-.464 0-.851.117-1.164.355-.312.227-.468.508-.468.844h-1.31c0-.387.134-.758.395-1.105.274-.352.641-.625 1.106-.825.46-.214.965-.32 1.516-.32.886 0 1.57.219 2.058.656.5.438.762 1.04.785 1.801v3.504c0 .7.09 1.254.262 1.668v.113zm-2.152-.992c.414 0 .8-.11 1.164-.32.359-.211.62-.488.785-.824v-1.555h-1.012c-1.598 0-2.398.469-2.398 1.406 0 .399.14.715.414.953.273.227.625.336 1.046.336zm7.265.992h-1.293v-7.61h1.293zm-1.402-9.617c0-.21.058-.39.183-.543.141-.148.332-.223.582-.223.25 0 .438.075.563.223a.785.785 0 0 1 .207.543c0 .203-.07.375-.207.527-.125.137-.313.207-.563.207-.25 0-.441-.07-.582-.207a.797.797 0 0 1-.183-.527zm5.351.172v1.836h1.407v1.012h-1.407v4.703c0 .312.063.543.188.695.125.149.34.223.637.223.152 0 .355-.024.62-.074v1.05c-.34.098-.667.149-.992.149-.578 0-1.011-.176-1.312-.524-.3-.363-.45-.87-.45-1.52v-4.702h-1.386v-1.012h1.387v-1.836zm6.575 5.285c0-1.05.136-2.062.41-3.039a9.193 9.193 0 0 1 1.273-2.66c.563-.8 1.149-1.363 1.762-1.688l.262.864c-.688.523-1.25 1.324-1.684 2.398-.438 1.074-.676 2.281-.715 3.617l-.015.602c0 1.808.328 3.379.992 4.703.398.8.87 1.426 1.422 1.875l-.262.785c-.625-.336-1.223-.918-1.797-1.742-1.102-1.586-1.648-3.492-1.648-5.715zm11.27.45c0 1.16-.267 2.097-.802 2.808-.527.703-1.238 1.05-2.136 1.05-.961 0-1.704-.343-2.23-1.03l-.075.882h-1.18v-10.797h1.293v4.032c.524-.649 1.25-.977 2.172-.977.926 0 1.649.352 2.172 1.05.523.688.785 1.645.785 2.868zm-1.29-.153c0-.887-.176-1.566-.523-2.043-.34-.484-.825-.73-1.461-.73-.864 0-1.48.394-1.856 1.183v3.297c.399.8 1.02 1.2 1.856 1.2.62 0 1.109-.243 1.46-.731.348-.488.524-1.211.524-2.176zm7.938 3.863c-.075-.152-.137-.418-.188-.808-.598.64-1.316.957-2.152.957-.75 0-1.368-.211-1.856-.637-.472-.426-.71-.969-.71-1.633 0-.785.3-1.398.898-1.832.601-.437 1.449-.66 2.547-.66h1.253v-.598c0-.449-.136-.804-.41-1.066-.261-.277-.66-.414-1.199-.414-.46 0-.848.117-1.16.355-.313.227-.469.508-.469.844h-1.308c0-.387.129-.758.39-1.105a2.774 2.774 0 0 1 1.106-.825 3.55 3.55 0 0 1 1.515-.32c.887 0 1.575.219 2.063.656.496.438.762 1.04.785 1.801v3.504c0 .7.086 1.254.262 1.668v.113zm-2.153-.992c.41 0 .797-.11 1.16-.32.364-.211.625-.488.786-.824v-1.555h-1.008c-1.598 0-2.399.469-2.399 1.406 0 .399.137.715.41.953.278.227.625.336 1.051.336zm12.281-2.719c0 1.16-.265 2.098-.804 2.809-.524.703-1.235 1.05-2.133 1.05-.961 0-1.707-.343-2.23-1.03l-.075.882h-1.18v-10.797h1.294v4.032c.523-.649 1.246-.977 2.171-.977.922 0 1.649.352 2.172 1.05.524.688.785 1.645.785 2.868zm-1.293-.152c0-.887-.171-1.566-.523-2.043-.336-.484-.824-.73-1.46-.73-.86 0-1.477.394-1.852 1.183v3.297c.398.8 1.015 1.2 1.851 1.2.625 0 1.113-.243 1.461-.731.352-.488.523-1.211.523-2.176zm6.407 4.012c-1.035 0-1.88-.336-2.528-1.012-.636-.687-.957-1.602-.957-2.734v-.227c0-.762.145-1.437.434-2.023.285-.602.687-1.063 1.2-1.387a3.028 3.028 0 0 1 1.683-.508c.984 0 1.754.324 2.3.977.551.648.825 1.578.825 2.789v.547h-5.149c.024.75.243 1.355.657 1.816.421.461.96.695 1.609.695.45 0 .832-.093 1.144-.28.325-.188.61-.438.86-.75l.785.616c-.637.989-1.59 1.48-2.863 1.48zm-.168-6.82c-.524 0-.969.19-1.332.581-.348.375-.559.903-.633 1.59h3.8v-.093c-.038-.66-.218-1.172-.542-1.536-.313-.363-.746-.543-1.293-.543zm5.617 6.671h-1.293v-10.797h1.293zm5.184-4.086a10.98 10.98 0 0 1-.41 3.016c-.274.95-.7 1.832-1.274 2.645-.563.812-1.149 1.386-1.758 1.722l-.281-.785c.723-.55 1.305-1.406 1.738-2.566.438-1.176.664-2.47.676-3.883v-.223c0-.988-.106-1.906-.316-2.758-.204-.847-.489-1.605-.864-2.265-.363-.676-.773-1.2-1.234-1.575l.281-.789c.61.34 1.195.907 1.758 1.707.562.801.98 1.688 1.254 2.66.289.965.43 1.993.43 3.094zm18.132 4.086c-.074-.152-.136-.418-.187-.808-.602.64-1.317.957-2.152.957-.75 0-1.368-.211-1.856-.637-.473-.426-.71-.969-.71-1.633 0-.785.3-1.398.898-1.832.601-.437 1.449-.66 2.546-.66h1.254v-.598c0-.449-.136-.804-.41-1.066-.262-.277-.664-.414-1.2-.414-.46 0-.847.117-1.16.355-.312.227-.468.508-.468.844h-1.312c0-.387.132-.758.394-1.105.274-.352.645-.625 1.106-.825.46-.214.964-.32 1.515-.32.887 0 1.574.219 2.063.656.496.438.757 1.04.785 1.801v3.504c0 .7.086 1.254.262 1.668v.113zm-2.152-.992c.41 0 .797-.11 1.16-.32.36-.211.621-.488.785-.824v-1.555h-1.011c-1.598 0-2.395.469-2.395 1.406 0 .399.137.715.41.953.274.227.625.336 1.051.336zm10.277-1.035c0-.348-.136-.617-.41-.805-.262-.199-.726-.367-1.387-.504-.648-.136-1.168-.308-1.554-.507-.387-.2-.676-.43-.86-.692a1.783 1.783 0 0 1-.265-.976c0-.625.265-1.149.789-1.575.523-.437 1.2-.656 2.02-.656.863 0 1.554.227 2.077.676.54.437.81 1 .81 1.687h-1.294c0-.351-.156-.652-.469-.898-.296-.266-.671-.395-1.125-.395-.472 0-.847.106-1.12.317a.949.949 0 0 0-.395.789c0 .312.125.55.375.71.25.165.699.321 1.347.47.649.136 1.172.308 1.575.507.398.2.691.442.879.73.199.286.3.63.3 1.032 0 .688-.273 1.235-.824 1.649-.539.41-1.238.617-2.098.617-.609 0-1.152-.106-1.628-.32a2.692 2.692 0 0 1-1.086-.915 2.213 2.213 0 0 1-.391-1.257h1.289c.027.437.2.789.523 1.05.325.25.758.375 1.293.375.489 0 .88-.101 1.18-.3.3-.2.45-.47.45-.805zm5.243.113l1.78-5.695h1.384l-3.051 8.789c-.473 1.262-1.223 1.89-2.246 1.89l-.262-.015-.469-.094v-1.05l.336.019c.45 0 .793-.086 1.031-.262.25-.175.454-.5.618-.976l.28-.785-2.714-7.516h1.422zm5.937-5.695l.035.953c.586-.723 1.348-1.086 2.285-1.086 1.61 0 2.422.906 2.434 2.719v5.023h-1.309v-5.043c0-.535-.125-.937-.375-1.199-.238-.262-.617-.394-1.144-.394-.422 0-.797.113-1.121.34a2.268 2.268 0 0 0-.73.878v5.418h-1.294v-7.61zm10.203 6.691c.461 0 .867-.14 1.219-.414.348-.285.543-.644.578-1.066h1.238a2.387 2.387 0 0 1-.468 1.254 3.028 3.028 0 0 1-1.106.937c-.45.239-.937.356-1.46.356-1.036 0-1.86-.344-2.474-1.031-.597-.7-.898-1.649-.898-2.848v-.227c0-.734.133-1.39.395-1.965a3.07 3.07 0 0 1 1.16-1.332c.511-.324 1.117-.488 1.816-.488.848 0 1.555.258 2.117.77.575.5.88 1.16.918 1.988h-1.238c-.035-.5-.223-.906-.559-1.219a1.759 1.759 0 0 0-1.238-.469c-.66 0-1.172.239-1.535.711-.363.477-.543 1.164-.543 2.063v.242c0 .875.18 1.55.543 2.024.363.476.875.714 1.535.714zm4.399 1.797h-1.102l4.27-11.113h1.101zm10.43-.879c-.075-.152-.137-.418-.188-.808-.598.64-1.317.957-2.153.957-.746 0-1.367-.211-1.851-.637-.477-.426-.711-.969-.711-1.633 0-.785.297-1.398.898-1.832.598-.437 1.446-.66 2.547-.66h1.254v-.598c0-.449-.137-.804-.414-1.066-.262-.277-.66-.414-1.195-.414-.465 0-.852.117-1.164.355-.313.227-.465.508-.465.844h-1.313c0-.387.133-.758.395-1.105.273-.352.64-.625 1.101-.825.465-.214.97-.32 1.52-.32.887 0 1.57.219 2.059.656.5.438.761 1.04.785 1.801v3.504c0 .7.09 1.254.265 1.668v.113zm-2.153-.992c.414 0 .8-.11 1.16-.32.363-.211.625-.488.79-.824v-1.555h-1.013c-1.597 0-2.398.469-2.398 1.406 0 .399.14.715.414.953.274.227.625.336 1.047.336zm12.582-.808l1.46-5.81h1.294l-2.211 7.61h-1.047l-1.855-5.773-1.797 5.773h-1.047l-2.211-7.61h1.293l1.496 5.696 1.781-5.695h1.028zm8.746 1.8c-.074-.152-.137-.418-.187-.808-.602.64-1.317.957-2.153.957-.75 0-1.367-.211-1.855-.637-.473-.426-.711-.969-.711-1.633 0-.785.3-1.398.898-1.832.598-.437 1.45-.66 2.547-.66h1.254v-.598c0-.449-.137-.804-.41-1.066-.262-.277-.664-.414-1.2-.414-.46 0-.847.117-1.16.355-.312.227-.468.508-.468.844h-1.313c0-.387.133-.758.395-1.105.273-.352.644-.625 1.105-.825.461-.214.965-.32 1.516-.32.887 0 1.574.219 2.062.656.496.438.758 1.04.782 1.801v3.504c0 .7.09 1.254.265 1.668v.113zm-2.152-.992c.41 0 .797-.11 1.16-.32.36-.211.621-.488.785-.824v-1.555h-1.012c-1.597 0-2.394.469-2.394 1.406 0 .399.137.715.41.953.273.227.625.336 1.05.336zm7.261.992h-1.289v-7.61h1.29zm-1.402-9.617c0-.21.063-.39.188-.543.136-.148.328-.223.578-.223.25 0 .437.075.562.223a.785.785 0 0 1 .207.543c0 .203-.07.375-.207.527-.125.137-.312.207-.562.207-.25 0-.442-.07-.578-.207a.8.8 0 0 1-.188-.527zm5.356.172v1.836h1.402v1.012h-1.402v4.703c0 .312.062.543.187.695.125.149.336.223.637.223.148 0 .355-.024.617-.074v1.05a3.554 3.554 0 0 1-.992.149c-.574 0-1.012-.176-1.313-.524-.297-.363-.449-.87-.449-1.52v-4.702h-1.383v-1.012h1.383v-1.836zm6.57 5.285c0-1.05.137-2.062.414-3.039.285-.973.71-1.86 1.273-2.66s1.149-1.363 1.758-1.688l.266.864c-.688.523-1.25 1.324-1.688 2.398-.437 1.074-.675 2.281-.71 3.617l-.02.602c0 1.808.332 3.379.992 4.703.398.8.875 1.426 1.422 1.875l-.262.785c-.62-.336-1.222-.918-1.797-1.742-1.097-1.586-1.648-3.492-1.648-5.715zm6.066-3.45l.04.954c.585-.723 1.347-1.086 2.284-1.086 1.61 0 2.422.906 2.434 2.719v5.023h-1.312v-5.043c0-.535-.125-.937-.375-1.199-.235-.262-.618-.394-1.141-.394-.426 0-.8.113-1.125.34a2.303 2.303 0 0 0-.73.878v5.418h-1.29v-7.61zm11.852 7.61c-.074-.152-.137-.418-.188-.808-.597.64-1.316.957-2.152.957-.746 0-1.367-.211-1.852-.637-.476-.426-.71-.969-.71-1.633 0-.785.296-1.398.898-1.832.598-.437 1.445-.66 2.547-.66h1.254v-.598c0-.449-.137-.804-.414-1.066-.262-.277-.66-.414-1.196-.414-.465 0-.851.117-1.164.355-.308.227-.465.508-.465.844h-1.312c0-.387.133-.758.394-1.105.274-.352.641-.625 1.102-.825.465-.214.969-.32 1.52-.32.886 0 1.57.219 2.058.656.5.438.762 1.04.785 1.801v3.504c0 .7.09 1.254.266 1.668v.113zm-2.153-.992c.415 0 .801-.11 1.16-.32.364-.211.626-.488.79-.824v-1.555H524.5c-1.598 0-2.398.469-2.398 1.406 0 .399.14.715.414.953.273.227.625.336 1.047.336zm7.622-8.453v1.836h1.406v1.012h-1.406v4.703c0 .312.062.543.187.695.125.149.336.223.637.223.148 0 .355-.024.617-.074v1.05a3.554 3.554 0 0 1-.992.149c-.574 0-1.012-.176-1.309-.524-.3-.363-.453-.87-.453-1.52v-4.702h-1.383v-1.012h1.383v-1.836zm4.437 9.445h-1.293v-7.61h1.293zm-1.402-9.617c0-.21.062-.39.183-.543.141-.148.332-.223.582-.223.25 0 .438.075.563.223a.785.785 0 0 1 .207.543c0 .203-.07.375-.207.527-.125.137-.313.207-.563.207-.25 0-.441-.07-.582-.207a.818.818 0 0 1-.183-.527zm6.082 7.856l1.89-5.848h1.332l-2.734 7.61h-.992l-2.75-7.61h1.328zm7.847 1.91c-1.035 0-1.878-.336-2.527-1.012-.637-.687-.957-1.602-.957-2.734v-.227c0-.762.145-1.437.434-2.023.285-.602.683-1.063 1.199-1.387a3.028 3.028 0 0 1 1.683-.508c.985 0 1.754.324 2.301.977.551.648.824 1.578.824 2.789v.547h-5.148c.023.75.242 1.355.656 1.816.422.461.961.695 1.61.695.449 0 .832-.093 1.14-.28a3.02 3.02 0 0 0 .864-.75l.785.616c-.637.989-1.59 1.48-2.864 1.48zm-.168-6.82c-.527 0-.968.19-1.332.581-.347.375-.558.903-.636 1.59h3.804v-.093c-.039-.66-.218-1.172-.543-1.536-.312-.363-.742-.543-1.293-.543zm7.207 2.585a10.98 10.98 0 0 1-.41 3.016 8.844 8.844 0 0 1-1.273 2.645c-.563.812-1.149 1.386-1.762 1.722l-.281-.785c.726-.55 1.305-1.406 1.742-2.566.438-1.176.66-2.47.672-3.883v-.223c0-.988-.105-1.906-.316-2.758-.2-.847-.485-1.605-.86-2.265-.363-.676-.773-1.2-1.238-1.575l.281-.789c.613.34 1.2.907 1.762 1.707.562.801.98 1.688 1.254 2.66.289.965.43 1.993.43 3.094zm0 0"/><path d="M609.293 74.266c0-.66.535-1.2 1.2-1.2h11.98a1.2 1.2 0 0 1 1.199 1.2v11.996c0 .664-.535 1.199-1.2 1.199h-11.98a1.197 1.197 0 0 1-1.199-1.2zm0 0" fill="#0b5394"/><path d="M641.555 85.063H640.3l-4.719-7.235v7.234h-1.234v-9.39h1.234l4.738 7.273v-7.273h1.235zm1.87-3.543c0-.688.134-1.301.395-1.836.274-.551.649-.977 1.121-1.274.489-.3 1.04-.453 1.649-.453.95 0 1.719.332 2.305.996.585.649.878 1.524.878 2.621v.078c0 .672-.132 1.285-.394 1.836a2.987 2.987 0 0 1-1.121 1.254c-.477.301-1.024.45-1.649.45-.949 0-1.714-.325-2.3-.973-.59-.664-.883-1.54-.883-2.625zm1.2.132c0 .774.18 1.399.543 1.871.363.465.844.696 1.441.696.602 0 1.075-.239 1.422-.711.364-.477.543-1.137.543-1.988 0-.774-.18-1.399-.543-1.875a1.72 1.72 0 0 0-1.441-.711c-.586 0-1.059.238-1.422.71-.363.465-.543 1.133-.543 2.008zm6.027-.132c0-1.075.25-1.938.75-2.586.512-.649 1.172-.977 1.985-.977.824 0 1.472.281 1.949.844v-3.633h1.2v9.894h-1.106l-.059-.75c-.473.586-1.137.88-1.984.88-.813 0-1.473-.329-1.985-.993-.5-.66-.75-1.523-.75-2.586zm1.18.132c0 .785.164 1.403.488 1.856.336.449.793.672 1.367.672.747 0 1.297-.336 1.649-1.012v-3.203c-.363-.664-.914-.992-1.649-.992-.574 0-1.03.222-1.367.672-.324.449-.488 1.12-.488 2.007zm9.176 3.54c-.938 0-1.703-.305-2.305-.919-.586-.62-.879-1.46-.879-2.511v-.203c0-.7.133-1.32.395-1.856a2.98 2.98 0 0 1 1.105-1.277 2.764 2.764 0 0 1 1.555-.469c.898 0 1.598.3 2.094.902.511.598.77 1.454.77 2.567v.488h-4.72c.012.688.207 1.242.579 1.668.39.426.882.637 1.48.637.426 0 .781-.086 1.066-.266.29-.172.547-.398.77-.672l.73.563c-.586.898-1.468 1.347-2.64 1.347zm-.133-6.258c-.484 0-.89.175-1.215.523-.324.352-.523.844-.597 1.48h3.48v-.093c-.035-.598-.203-1.067-.504-1.406-.289-.336-.676-.504-1.164-.504zm4.477 5.507c0-.21.054-.386.168-.523.125-.137.308-.207.543-.207.25 0 .437.07.562.207a.712.712 0 0 1 .207.523.67.67 0 0 1-.207.489c-.125.136-.313.207-.563.207-.234 0-.417-.07-.542-.207a.763.763 0 0 1-.168-.489zm4.793-6.351v7.777c0 1.336-.606 2.004-1.817 2.004-.262 0-.504-.035-.73-.11v-.956c.136.039.32.058.543.058.265 0 .464-.078.601-.226.137-.137.203-.387.203-.75V78.09zm-1.31-1.856a.67.67 0 0 1 .169-.468c.125-.137.297-.207.523-.207.223 0 .399.07.524.207a.662.662 0 0 1 .187.488.636.636 0 0 1-.187.469c-.125.125-.305.187-.543.187-.223 0-.39-.062-.504-.187a.7.7 0 0 1-.168-.489zm7.731 6.973a.842.842 0 0 0-.375-.73c-.234-.188-.66-.344-1.27-.47-.6-.136-1.073-.292-1.425-.468-.348-.176-.61-.387-.785-.637-.176-.25-.262-.55-.262-.902 0-.574.242-1.055.73-1.441.485-.399 1.106-.602 1.852-.602.79 0 1.426.207 1.91.621.5.399.75.918.75 1.555h-1.199c0-.324-.137-.606-.41-.844-.277-.238-.625-.355-1.05-.355-.434 0-.778.097-1.028.3a.883.883 0 0 0-.356.73c0 .286.11.505.336.657.223.137.637.274 1.235.41.601.137 1.082.301 1.441.489.375.175.653.394.824.656.176.261.262.582.262.957 0 .625-.25 1.125-.746 1.496-.488.375-1.133.562-1.93.562-.562 0-1.054-.097-1.48-.296a2.572 2.572 0 0 1-1.008-.825 2.005 2.005 0 0 1-.36-1.144h1.18c.028.386.188.699.489.937.3.239.691.356 1.18.356.449 0 .812-.086 1.085-.266a.854.854 0 0 0 .41-.746zm12.66-6.86l-3.894 8.716h-1.238l3.86-8.399h-5.075v-.992h6.348zm0 0" fill="#666"/><path d="M609.293 103.055c0-.664.535-1.2 1.2-1.2h11.98c.664 0 1.199.536 1.199 1.2v11.992a1.2 1.2 0 0 1-1.2 1.203h-11.98a1.2 1.2 0 0 1-1.199-1.203zm0 0" fill="#3d85c6"/><path d="M641.555 113.848H640.3l-4.719-7.235v7.235h-1.234v-9.387h1.234l4.738 7.27v-7.27h1.235zm1.87-3.54c0-.687.134-1.3.395-1.84a3.13 3.13 0 0 1 1.121-1.273c.489-.3 1.04-.449 1.649-.449.95 0 1.719.332 2.305.992.585.649.878 1.524.878 2.625v.075c0 .675-.132 1.289-.394 1.835-.262.54-.637.957-1.121 1.258-.477.297-1.024.45-1.649.45-.949 0-1.714-.325-2.3-.973-.59-.664-.883-1.54-.883-2.625zm1.2.13c0 .773.18 1.398.543 1.874.363.461.844.696 1.441.696.602 0 1.075-.238 1.422-.715.364-.473.543-1.137.543-1.984 0-.778-.18-1.403-.543-1.875a1.714 1.714 0 0 0-1.441-.715c-.586 0-1.059.238-1.422.715-.363.46-.543 1.129-.543 2.004zm6.027-.133c0-1.075.25-1.934.75-2.586.512-.649 1.172-.973 1.985-.973.824 0 1.472.281 1.949.844v-3.637h1.2v9.895h-1.106l-.059-.75c-.473.59-1.137.882-1.984.882-.813 0-1.473-.332-1.985-.992-.5-.664-.75-1.527-.75-2.586zm1.18.132c0 .79.164 1.407.488 1.856.336.45.793.676 1.367.676.747 0 1.297-.34 1.649-1.012v-3.207c-.363-.66-.914-.992-1.649-.992-.574 0-1.03.226-1.367.676-.324.449-.488 1.117-.488 2.004zm9.176 3.543c-.938 0-1.703-.308-2.305-.918-.586-.624-.879-1.46-.879-2.511v-.207c0-.7.133-1.317.395-1.856.261-.55.629-.972 1.105-1.273a2.764 2.764 0 0 1 1.555-.469c.898 0 1.598.3 2.094.899.511.601.77 1.457.77 2.566v.488h-4.72c.012.688.207 1.242.579 1.668.39.426.882.64 1.48.64.426 0 .781-.089 1.066-.265.29-.176.547-.398.77-.676l.73.563c-.586.902-1.468 1.351-2.64 1.351zm-.133-6.261c-.484 0-.89.176-1.215.527-.324.348-.523.844-.597 1.48h3.48v-.093c-.035-.602-.203-1.07-.504-1.406-.289-.336-.676-.508-1.164-.508zm4.477 5.511c0-.21.054-.386.168-.523.125-.137.308-.207.543-.207.25 0 .437.07.562.207a.712.712 0 0 1 .207.523c0 .188-.07.348-.207.489-.125.136-.313.203-.563.203-.234 0-.417-.067-.542-.203a.771.771 0 0 1-.168-.489zm4.793-6.355v7.781c0 1.336-.606 2.004-1.817 2.004-.262 0-.504-.039-.73-.113v-.953c.136.035.32.054.543.054.265 0 .464-.074.601-.226.137-.137.203-.387.203-.75v-7.797zm-1.31-1.855a.67.67 0 0 1 .169-.465c.125-.14.297-.207.523-.207.223 0 .399.066.524.207a.653.653 0 0 1 .187.484.636.636 0 0 1-.187.469c-.125.125-.305.187-.543.187-.223 0-.39-.062-.504-.187a.694.694 0 0 1-.168-.488zm7.731 6.972a.847.847 0 0 0-.375-.73c-.234-.188-.66-.344-1.27-.469-.6-.137-1.073-.293-1.425-.465-.348-.176-.61-.39-.785-.64a1.524 1.524 0 0 1-.262-.899c0-.574.242-1.055.73-1.441.485-.403 1.106-.602 1.852-.602.79 0 1.426.207 1.91.617.5.399.75.918.75 1.555h-1.199c0-.324-.137-.606-.41-.84-.277-.238-.625-.36-1.05-.36-.434 0-.778.102-1.028.302a.888.888 0 0 0-.356.73c0 .29.11.508.336.656.223.137.637.274 1.235.414.601.137 1.082.301 1.441.489.375.171.653.39.824.652.176.266.262.582.262.957 0 .625-.25 1.125-.746 1.5-.488.375-1.133.562-1.93.562-.562 0-1.054-.101-1.48-.3a2.507 2.507 0 0 1-1.008-.825 1.996 1.996 0 0 1-.36-1.144h1.18c.028.39.188.703.489.937.3.239.691.36 1.18.36.449 0 .812-.09 1.085-.266.274-.187.41-.437.41-.75zm12.286-5.078c0 .477-.125.895-.375 1.254-.239.363-.57.652-.993.863.489.2.875.508 1.16.918.29.403.434.856.434 1.371 0 .809-.277 1.461-.824 1.946-.55.476-1.27.714-2.156.714-.91 0-1.633-.238-2.172-.714-.535-.485-.805-1.137-.805-1.946 0-.515.137-.968.41-1.37.278-.41.657-.723 1.145-.938a2.49 2.49 0 0 1-.992-.844 2.279 2.279 0 0 1-.356-1.254c0-.785.25-1.41.746-1.875.512-.46 1.188-.691 2.024-.691.824 0 1.484.23 1.984.691.512.465.77 1.09.77 1.875zm-.977 4.387c0-.528-.168-.95-.504-1.278-.324-.335-.754-.503-1.293-.503-.535 0-.965.164-1.289.488-.324.324-.488.754-.488 1.293 0 .523.156.941.469 1.254.324.3.765.453 1.328.453.55 0 .98-.153 1.293-.453.324-.313.484-.73.484-1.254zm-1.777-5.98c-.473 0-.856.144-1.141.433-.289.285-.434.68-.434 1.18 0 .472.145.863.434 1.16.285.289.668.433 1.14.433.477 0 .856-.144 1.145-.433.285-.297.43-.688.43-1.16 0-.477-.149-.864-.45-1.164a1.54 1.54 0 0 0-1.124-.45zm0 0" fill="#666"/><path d="M609.293 131.84c0-.66.535-1.2 1.2-1.2h11.98a1.2 1.2 0 0 1 1.199 1.2v11.996c0 .664-.535 1.2-1.2 1.2h-11.98a1.198 1.198 0 0 1-1.199-1.2zm0 0" fill="#6fa8dc"/><path d="M641.555 142.637H640.3l-4.719-7.235v7.235h-1.234v-9.39h1.234l4.738 7.273v-7.274h1.235zm1.87-3.543c0-.688.134-1.301.395-1.836.274-.551.649-.977 1.121-1.274.489-.3 1.04-.453 1.649-.453.95 0 1.719.332 2.305.996.585.649.878 1.524.878 2.621v.079a4.22 4.22 0 0 1-.394 1.835 2.987 2.987 0 0 1-1.121 1.254c-.477.301-1.024.45-1.649.45-.949 0-1.714-.325-2.3-.973-.59-.664-.883-1.54-.883-2.625zm1.2.133c0 .773.18 1.398.543 1.87.363.465.844.696 1.441.696.602 0 1.075-.238 1.422-.711.364-.477.543-1.137.543-1.988 0-.774-.18-1.399-.543-1.875a1.72 1.72 0 0 0-1.441-.711c-.586 0-1.059.238-1.422.71-.363.466-.543 1.134-.543 2.009zm6.027-.133c0-1.074.25-1.938.75-2.586.512-.649 1.172-.977 1.985-.977.824 0 1.472.281 1.949.844v-3.633h1.2v9.895h-1.106l-.059-.75c-.473.586-1.137.879-1.984.879-.813 0-1.473-.328-1.985-.993-.5-.66-.75-1.523-.75-2.585zm1.18.133c0 .785.164 1.402.488 1.855.336.45.793.672 1.367.672.747 0 1.297-.336 1.649-1.012v-3.203c-.363-.664-.914-.992-1.649-.992-.574 0-1.03.223-1.367.672-.324.449-.488 1.12-.488 2.008zm9.176 3.539c-.938 0-1.703-.305-2.305-.918-.586-.625-.879-1.461-.879-2.512v-.203c0-.7.133-1.32.395-1.856a2.98 2.98 0 0 1 1.105-1.277 2.764 2.764 0 0 1 1.555-.469c.898 0 1.598.301 2.094.903.511.597.77 1.453.77 2.566v.488h-4.72c.012.688.207 1.242.579 1.668.39.426.882.637 1.48.637.426 0 .781-.086 1.066-.266.29-.172.547-.398.77-.672l.73.563c-.586.898-1.468 1.348-2.64 1.348zm-.133-6.258a1.6 1.6 0 0 0-1.215.523c-.324.352-.523.844-.597 1.48h3.48v-.093c-.035-.598-.203-1.066-.504-1.406-.289-.336-.676-.504-1.164-.504zm4.477 5.508c0-.211.054-.387.168-.524.125-.137.308-.207.543-.207.25 0 .437.07.562.207a.712.712 0 0 1 .207.524.67.67 0 0 1-.207.488c-.125.137-.313.207-.563.207-.234 0-.417-.07-.542-.207a.763.763 0 0 1-.168-.488zm4.793-6.352v7.777c0 1.336-.606 2.004-1.817 2.004-.262 0-.504-.035-.73-.11v-.956c.136.039.32.055.543.055.265 0 .464-.075.601-.223.137-.137.203-.387.203-.75v-7.797zm-1.31-1.855a.67.67 0 0 1 .169-.47c.125-.136.297-.206.523-.206.223 0 .399.07.524.207a.662.662 0 0 1 .187.488.636.636 0 0 1-.187.469c-.125.125-.305.187-.543.187-.223 0-.39-.062-.504-.187a.7.7 0 0 1-.168-.488zm7.731 6.972a.842.842 0 0 0-.375-.73c-.234-.188-.66-.344-1.27-.469-.6-.137-1.073-.293-1.425-.469-.348-.175-.61-.386-.785-.636-.176-.25-.262-.551-.262-.903 0-.574.242-1.054.73-1.441.485-.399 1.106-.602 1.852-.602.79 0 1.426.207 1.91.621.5.399.75.918.75 1.555h-1.199c0-.324-.137-.605-.41-.844-.277-.238-.625-.355-1.05-.355-.434 0-.778.097-1.028.3a.883.883 0 0 0-.356.731c0 .285.11.504.336.656.223.137.637.274 1.235.41.601.137 1.082.301 1.441.489.375.176.653.394.824.656.176.262.262.582.262.957 0 .625-.25 1.125-.746 1.496-.488.375-1.133.563-1.93.563-.562 0-1.054-.098-1.48-.297a2.572 2.572 0 0 1-1.008-.824 2.005 2.005 0 0 1-.36-1.145h1.18c.028.387.188.7.489.938.3.238.691.355 1.18.355.449 0 .812-.086 1.085-.266a.854.854 0 0 0 .41-.746zm11.16-2.265a3.09 3.09 0 0 1-.898.73c-.336.172-.71.258-1.121.258-.539 0-1.012-.129-1.426-.39a2.788 2.788 0 0 1-.933-1.126 3.953 3.953 0 0 1-.32-1.613c0-.625.117-1.184.355-1.684.25-.515.594-.902 1.031-1.164.438-.261.941-.394 1.516-.394.937 0 1.668.351 2.191 1.05.535.688.805 1.633.805 2.833v.336c0 1.824-.364 3.16-1.086 4.007-.711.84-1.797 1.266-3.258 1.278h-.227v-.992h.247c.984-.028 1.738-.286 2.265-.77.535-.5.824-1.29.86-2.363zm-1.835 0c.402 0 .77-.121 1.105-.36.34-.25.59-.554.75-.918v-.488c0-.773-.176-1.406-.523-1.89-.34-.489-.762-.735-1.274-.735-.523 0-.949.2-1.273.602-.313.398-.469.925-.469 1.574 0 .648.148 1.18.45 1.594.312.41.722.617 1.234.617zm0 0" fill="#666"/><path d="M609.293 160.629c0-.664.535-1.2 1.2-1.2h11.98c.664 0 1.199.536 1.199 1.2v11.992a1.2 1.2 0 0 1-1.2 1.203h-11.98a1.2 1.2 0 0 1-1.199-1.203zm0 0" fill="#9fc5e8"/><path d="M641.555 171.422H640.3l-4.719-7.234v7.234h-1.234v-9.387h1.234l4.738 7.27v-7.27h1.235zm1.87-3.54c0-.687.134-1.3.395-1.839a3.13 3.13 0 0 1 1.121-1.273 3.084 3.084 0 0 1 1.649-.45c.95 0 1.719.332 2.305.993.585.648.878 1.523.878 2.625v.074c0 .675-.132 1.289-.394 1.836a2.972 2.972 0 0 1-1.121 1.257c-.477.297-1.024.45-1.649.45-.949 0-1.714-.325-2.3-.973-.59-.664-.883-1.539-.883-2.625zm1.2.13c0 .773.18 1.398.543 1.875.363.46.844.695 1.441.695.602 0 1.075-.238 1.422-.715.364-.472.543-1.137.543-1.984 0-.778-.18-1.403-.543-1.875a1.714 1.714 0 0 0-1.441-.715c-.586 0-1.059.238-1.422.715-.363.46-.543 1.129-.543 2.004zm6.027-.133c0-1.074.25-1.934.75-2.586.512-.648 1.172-.973 1.985-.973.824 0 1.472.282 1.949.844v-3.637h1.2v9.895h-1.106l-.059-.75c-.473.59-1.137.883-1.984.883-.813 0-1.473-.332-1.985-.993-.5-.664-.75-1.527-.75-2.585zm1.18.133c0 .789.164 1.406.488 1.855.336.45.793.676 1.367.676.747 0 1.297-.34 1.649-1.012v-3.207c-.363-.66-.914-.992-1.649-.992-.574 0-1.03.227-1.367.676-.324.449-.488 1.117-.488 2.004zm9.176 3.543c-.938 0-1.703-.309-2.305-.918-.586-.625-.879-1.461-.879-2.512v-.207c0-.7.133-1.316.395-1.856.261-.55.629-.976 1.105-1.273a2.764 2.764 0 0 1 1.555-.469c.898 0 1.598.301 2.094.899.511.601.77 1.457.77 2.566v.488h-4.72c.012.688.207 1.247.579 1.668.39.426.882.641 1.48.641.426 0 .781-.09 1.066-.266.29-.175.547-.398.77-.675l.73.566c-.586.898-1.468 1.348-2.64 1.348zm-.133-6.262c-.484 0-.89.176-1.215.527-.324.348-.523.844-.597 1.48h3.48v-.093c-.035-.602-.203-1.07-.504-1.406-.289-.34-.676-.508-1.164-.508zm4.477 5.512c0-.215.054-.387.168-.524.125-.136.308-.207.543-.207.25 0 .437.07.562.207a.706.706 0 0 1 .207.524c0 .187-.07.347-.207.488-.125.137-.313.203-.563.203-.234 0-.417-.066-.542-.203a.771.771 0 0 1-.168-.488zm4.793-6.356v7.781c0 1.336-.606 2.004-1.817 2.004-.262 0-.504-.039-.73-.113v-.953c.136.035.32.055.543.055.265 0 .464-.075.601-.227.137-.137.203-.387.203-.75v-7.797zm-1.31-1.855a.67.67 0 0 1 .169-.465c.125-.14.297-.207.523-.207.223 0 .399.066.524.207a.653.653 0 0 1 .187.484.636.636 0 0 1-.187.469c-.125.125-.305.188-.543.188-.223 0-.39-.063-.504-.188a.694.694 0 0 1-.168-.488zm7.731 6.972a.847.847 0 0 0-.375-.73c-.234-.188-.66-.344-1.27-.469-.6-.137-1.073-.293-1.425-.465-.348-.175-.61-.39-.785-.64a1.524 1.524 0 0 1-.262-.899c0-.574.242-1.054.73-1.445.485-.398 1.106-.598 1.852-.598.79 0 1.426.207 1.91.618.5.398.75.917.75 1.554h-1.199c0-.324-.137-.605-.41-.844-.277-.234-.625-.355-1.05-.355-.434 0-.778.102-1.028.3a.888.888 0 0 0-.356.731c0 .29.11.508.336.656.223.137.637.274 1.235.415.601.136 1.082.3 1.441.488.375.172.653.39.824.652.176.266.262.582.262.957 0 .625-.25 1.125-.746 1.5-.488.375-1.133.563-1.93.563-.562 0-1.054-.098-1.48-.301a2.507 2.507 0 0 1-1.008-.824 1.996 1.996 0 0 1-.36-1.145h1.18c.028.387.188.703.489.938.3.238.691.359 1.18.359.449 0 .812-.09 1.085-.266.274-.187.41-.437.41-.75zm10.524 1.856h-1.2v-7.945l-2.413.878v-1.085l3.425-1.274h.188zm9.137-3.992c0 1.386-.235 2.425-.711 3.113-.473.672-1.22 1.012-2.227 1.012-1 0-1.742-.332-2.23-.993-.473-.664-.715-1.656-.73-2.98v-1.594c0-1.375.237-2.394.714-3.054.473-.676 1.215-1.012 2.227-1.012 1.011 0 1.753.324 2.226.973.477.636.719 1.632.73 2.98zm-1.176-1.63c0-1.01-.145-1.75-.434-2.21-.289-.465-.738-.695-1.347-.695-.598 0-1.043.23-1.332.695-.274.45-.415 1.156-.43 2.117v1.89c0 1.028.144 1.782.433 2.27.297.477.746.715 1.348.715.586 0 1.024-.227 1.309-.676.289-.465.437-1.183.449-2.156zM37.469 42.38c0 2.336-.528 4.21-1.59 5.621-1.059 1.414-2.496 2.117-4.305 2.117-1.539 0-2.781-.535-3.73-1.61v7.177h-4.059V34.617h3.762l.148 1.5c.989-1.187 2.266-1.777 3.84-1.777 1.871 0 3.324.691 4.363 2.078 1.047 1.387 1.57 3.3 1.57 5.734zm-4.059-.3c0-1.411-.25-2.5-.754-3.263-.496-.773-1.226-1.16-2.187-1.16-1.274 0-2.149.489-2.625 1.461v6.223c.504 1 1.39 1.5 2.664 1.5 1.933 0 2.898-1.586 2.898-4.762zm15.969 7.757c-.188-.36-.324-.816-.414-1.367-.985 1.101-2.266 1.648-3.836 1.648-1.484 0-2.723-.43-3.707-1.293-.977-.86-1.461-1.949-1.461-3.261 0-1.61.594-2.848 1.777-3.708 1.2-.863 2.93-1.3 5.188-1.312h1.87v-.863c0-.711-.179-1.274-.542-1.688-.36-.426-.93-.637-1.703-.637-.688 0-1.223.165-1.61.489-.386.324-.582.773-.582 1.347h-4.062c0-.875.27-1.687.805-2.433.55-.75 1.32-1.34 2.304-1.762 1-.437 2.117-.656 3.352-.656 1.87 0 3.355.472 4.457 1.422 1.097.937 1.644 2.261 1.644 3.972v6.578c.016 1.45.22 2.543.621 3.282v.242zm-3.371-2.828a3.49 3.49 0 0 0 1.648-.395c.512-.273.89-.636 1.14-1.086v-2.605h-1.515c-2.035 0-3.113.7-3.238 2.098l-.02.246c0 .511.176.93.524 1.254.363.324.851.488 1.46.488zm18.668-8.567a11.088 11.088 0 0 0-1.461-.113c-1.535 0-2.54.52-3.016 1.559v9.949h-4.062v-15.22h3.84l.113 1.82c.808-1.398 1.941-2.097 3.387-2.097.449 0 .867.062 1.257.183zm11.066 11.395c-.187-.36-.324-.816-.414-1.367-.984 1.101-2.266 1.648-3.836 1.648-1.484 0-2.722-.43-3.707-1.293-.976-.86-1.46-1.949-1.46-3.261 0-1.61.593-2.848 1.777-3.708 1.199-.863 2.93-1.3 5.187-1.312h1.871v-.863c0-.711-.18-1.274-.543-1.688-.36-.426-.93-.637-1.703-.637-.687 0-1.223.165-1.61.489-.386.324-.581.773-.581 1.347H66.66c0-.875.27-1.687.805-2.433.55-.75 1.32-1.34 2.305-1.762 1-.437 2.117-.656 3.351-.656 1.871 0 3.356.472 4.457 1.422 1.098.937 1.649 2.261 1.649 3.972v6.578c.011 1.45.214 2.543.617 3.282v.242zm-3.37-2.828c.6 0 1.148-.133 1.648-.395.511-.273.89-.636 1.14-1.086v-2.605h-1.515c-2.036 0-3.114.7-3.239 2.098l-.02.246c0 .511.177.93.524 1.254.363.324.852.488 1.461.488zm14.417 2.828h-4.062v-21.59h4.062zm7.191 0h-4.062v-21.59h4.062zm9.903.281c-2.235 0-4.051-.68-5.445-2.043-1.399-1.375-2.098-3.195-2.098-5.469v-.394c0-1.54.293-2.906.879-4.106.597-1.199 1.433-2.125 2.508-2.773 1.085-.664 2.324-.992 3.707-.992 2.074 0 3.707.652 4.906 1.965 1.2 1.312 1.797 3.175 1.797 5.586v1.668h-9.68c.125.988.52 1.78 1.18 2.379.664.601 1.5.902 2.508.902 1.562 0 2.785-.57 3.671-1.707l1.985 2.25c-.598.863-1.422 1.535-2.473 2.023-1.035.477-2.183.711-3.445.711zm-.465-12.48c-.8 0-1.457.273-1.969.824-.5.539-.816 1.312-.953 2.324h5.652v-.32c-.023-.899-.273-1.59-.746-2.078-.465-.5-1.125-.75-1.984-.75zm13.328 12.199h-4.062v-21.59h4.062zm23.8-7.457c0 2.437-.523 4.336-1.573 5.695-1.036 1.364-2.485 2.043-4.344 2.043-1.649 0-2.965-.629-3.95-1.89l-.187 1.609h-3.652v-21.59h4.062v7.742c.938-1.101 2.168-1.648 3.692-1.648 1.86 0 3.312.687 4.36 2.058 1.062 1.364 1.593 3.282 1.593 5.754zm-4.062-.3c0-1.536-.246-2.657-.73-3.356-.488-.711-1.211-1.067-2.172-1.067-1.3 0-2.191.524-2.68 1.574v6.016c.5 1.063 1.399 1.594 2.7 1.594 1.308 0 2.168-.645 2.582-1.934.199-.62.3-1.566.3-2.828zm14.137 8.038c-2.234 0-4.05-.68-5.45-2.043-1.398-1.375-2.097-3.195-2.097-5.469v-.394c0-1.54.293-2.906.88-4.106.597-1.199 1.437-2.125 2.507-2.773 1.09-.664 2.324-.992 3.71-.992 2.071 0 3.704.652 4.903 1.965 1.2 1.312 1.797 3.175 1.797 5.586v1.668h-9.68c.125.988.52 1.78 1.18 2.379.664.601 1.5.902 2.512.902 1.558 0 2.781-.57 3.668-1.707l1.984 2.25c-.597.863-1.422 1.535-2.469 2.023-1.039.477-2.187.711-3.445.711zm-.469-12.48c-.8 0-1.457.273-1.964.824-.5.539-.82 1.312-.958 2.324h5.653v-.32c-.024-.899-.274-1.59-.746-2.078-.461-.5-1.125-.75-1.985-.75zm12.79-3.02l.128 1.766c1.086-1.363 2.54-2.043 4.364-2.043 1.609 0 2.808.472 3.593 1.422.79.949 1.188 2.367 1.2 4.258v9.816h-4.043V40.11c0-.859-.188-1.484-.563-1.87-.375-.391-1-.583-1.871-.583-1.148 0-2.004.489-2.566 1.461v10.719h-4.063v-15.22zm18.16 12.223c.75 0 1.355-.207 1.816-.621.477-.41.719-.961.73-1.649h3.82a5.204 5.204 0 0 1-.863 2.848c-.546.852-1.304 1.516-2.265 1.988-.95.477-2 .711-3.164.711-2.172 0-3.887-.687-5.149-2.058-1.246-1.387-1.87-3.301-1.87-5.739v-.277c0-2.34.616-4.207 1.85-5.605 1.25-1.399 2.962-2.098 5.134-2.098 1.894 0 3.418.543 4.566 1.629 1.148 1.086 1.734 2.531 1.762 4.328h-3.82c-.012-.785-.258-1.422-.731-1.91-.461-.5-1.078-.75-1.852-.75-.937 0-1.648.343-2.136 1.031-.489.687-.73 1.805-.73 3.355v.41c0 1.575.238 2.708.71 3.395.488.672 1.219 1.012 2.192 1.012zm13.218-10.55c1.075-1.302 2.43-1.95 4.063-1.95 3.297 0 4.965 1.918 5 5.754v9.742h-4.043v-9.633c0-.875-.188-1.516-.563-1.93-.375-.41-1-.617-1.87-.617-1.188 0-2.052.457-2.587 1.367v10.813h-4.062v-21.59h4.062zm15.43-1.669l.113 1.703c1.086-1.324 2.547-1.984 4.38-1.984 1.948 0 3.288.773 4.027 2.324 1.062-1.55 2.582-2.324 4.566-2.324 1.648 0 2.871.48 3.672 1.441.812.961 1.215 2.41 1.215 4.348v9.707h-4.082V40.13c0-.863-.168-1.484-.504-1.875-.336-.399-.93-.598-1.778-.598-1.222 0-2.066.582-2.53 1.742l.019 10.438h-4.063v-9.688c0-.875-.172-1.503-.523-1.894-.352-.399-.938-.598-1.762-.598-1.16 0-1.996.473-2.508 1.422v10.758h-4.062v-15.22zm30.164 15.215c-.187-.36-.324-.816-.41-1.367-.988 1.101-2.27 1.648-3.84 1.648-1.484 0-2.723-.43-3.707-1.293-.977-.86-1.46-1.949-1.46-3.261 0-1.61.589-2.848 1.776-3.708 1.2-.863 2.93-1.3 5.188-1.312h1.871v-.863c0-.711-.18-1.274-.543-1.688-.36-.426-.93-.637-1.703-.637-.688 0-1.223.165-1.61.489-.386.324-.581.773-.581 1.347h-4.063c0-.875.27-1.687.805-2.433.55-.75 1.32-1.34 2.304-1.762 1-.437 2.118-.656 3.352-.656 1.871 0 3.36.472 4.457 1.422 1.098.937 1.648 2.261 1.648 3.972v6.578c.012 1.45.215 2.543.618 3.282v.242zm-3.371-2.828c.602 0 1.148-.133 1.648-.395.512-.273.891-.636 1.141-1.086v-2.605h-1.516c-2.035 0-3.113.7-3.238 2.098l-.02.246c0 .511.176.93.524 1.254.363.324.852.488 1.461.488zm18.668-8.567a11.088 11.088 0 0 0-1.461-.113c-1.535 0-2.54.52-3.012 1.559v9.949h-4.066v-15.22h3.84l.113 1.82c.809-1.398 1.941-2.097 3.387-2.097.449 0 .867.062 1.258.183zm7.77 5.286l-1.458 1.464v4.645h-4.066v-21.59h4.063v11.957l.789-1.012 3.894-4.574h4.867l-5.484 6.356 5.973 8.863h-4.664zm0 0" fill="#666"/></svg>