<svg xmlns="http://www.w3.org/2000/svg" width="960" height="445pt" viewBox="0 0 720 445"><defs><clipPath id="a"><path d="M141 319h399v48.637H141zm0 0"/></clipPath><clipPath id="b"><path d="M162 315h398v52.637H162zm0 0"/></clipPath><clipPath id="c"><path d="M182 64h399v303.637H182zm0 0"/></clipPath><clipPath id="d"><path d="M107.898 265H615v102.637H107.898zm0 0"/></clipPath><clipPath id="e"><path d="M107.898 261H615v106.637H107.898zm0 0"/></clipPath><clipPath id="f"><path d="M107.898 29.906H615v337.73H107.898zm0 0"/></clipPath></defs><path fill="#fff" d="M0 0h720v445H0z"/><path d="M105.502 360.5h498" transform="scale(1.01983 1.02064)" fill="none" stroke="#333" stroke-miterlimit="10"/><path d="M105.502 294.499h498m-498-67h498m-498-66h498m-498-65.998h498m-498-66h498" transform="scale(1.01983 1.02064)" fill="none" stroke="#ccc" stroke-miterlimit="10"/><g clip-path="url(#a)"><path d="M161.133 367.43h-19.375v-1.532c0-.843.683-1.527 1.527-1.527h16.317c.847 0 1.53.684 1.53 1.527zm93.824 0h-19.375v-8.164c0-1.125.91-2.04 2.04-2.04h15.296a2.04 2.04 0 0 1 2.039 2.04zm94.844 0h-19.375v-17.348c0-1.129.914-2.043 2.039-2.043h15.297c1.125 0 2.039.914 2.039 2.043zm94.844 0H425.27v-29.598a2.04 2.04 0 0 1 2.039-2.039h15.296c1.13 0 2.04.914 2.04 2.039zm94.843 0h-19.375v-45.926c0-1.129.914-2.043 2.04-2.043h15.296c1.13 0 2.04.914 2.04 2.043zm0 0" fill="#6fa8dc"/></g><g clip-path="url(#b)"><path d="M181.531 367.43h-19.379v-2.04c0-1.128.914-2.042 2.04-2.042h15.296c1.13 0 2.043.914 2.043 2.043zm93.824 0h-19.378v-9.184c0-1.129.914-2.043 2.039-2.043h15.296c1.13 0 2.043.914 2.043 2.043zm94.844 0H350.82v-21.434a2.04 2.04 0 0 1 2.04-2.039h15.3a2.04 2.04 0 0 1 2.04 2.04zm94.844 0h-19.379v-31.637c0-1.129.914-2.043 2.043-2.043h15.297c1.125 0 2.039.914 2.039 2.043zm94.844 0h-19.375v-50.012c0-1.125.91-2.04 2.039-2.04h15.297a2.04 2.04 0 0 1 2.039 2.04zm0 0" fill="#0b5394"/></g><g clip-path="url(#c)"><path d="M201.926 367.43H182.55v-5.102c0-1.129.91-2.043 2.039-2.043h15.297c1.125 0 2.039.914 2.039 2.043zm93.824 0h-19.375v-22.453a2.04 2.04 0 0 1 2.04-2.04h15.296a2.04 2.04 0 0 1 2.039 2.04zm94.844 0h-19.375v-35.723a2.04 2.04 0 0 1 2.039-2.039h15.297c1.129 0 2.039.914 2.039 2.039zm94.844 0h-19.375V240.87a2.04 2.04 0 0 1 2.039-2.039h15.296c1.13 0 2.04.914 2.04 2.04zm94.847 0h-19.379V66.34a2.04 2.04 0 0 1 2.04-2.04h15.296c1.13 0 2.043.915 2.043 2.04zm0 0" fill="#e69138"/></g><g clip-path="url(#d)"><path d="M0 358.146l3.999-.05c10.667-.134 21.335-.279 32.002-.44 10.667-.16 21.33-.337 31.998-.528 9.335-.172 18.67-.356 28-.555a6852.808 6852.808 0 0 0 52-1.313c8.001-.237 16.003-.486 24-.757 8.002-.268 16.003-.56 24.001-.87a4775.17 4775.17 0 0 0 20.002-.83c6.665-.29 13.333-.604 19.998-.93 6.668-.333 13.333-.681 20.002-1.052 8.001-.444 15.999-.923 23.996-1.435 5.336-.341 10.672-.7 16.003-1.076 5.332-.379 10.668-.773 16-1.186a2034.577 2034.577 0 0 0 31.998-2.733 1722.064 1722.064 0 0 0 32.002-3.307 1412.62 1412.62 0 0 0 31.998-4 1130.567 1130.567 0 0 0 32.002-4.834 1035.12 1035.12 0 0 0 16-2.781A982.165 982.165 0 0 0 472 326.407a855.388 855.388 0 0 0 12-2.496 763.532 763.532 0 0 0 12-2.679c4.007-.926 8.01-1.883 12-2.874 4.007-.995 8.01-2.025 12-3.089a674.185 674.185 0 0 0 24.001-6.878c4.01-1.235 8.013-2.51 12-3.822a598.258 598.258 0 0 0 11.997-4.107 576.456 576.456 0 0 0 12-4.41c4.022-1.53 8.021-3.11 12-4.737a400.45 400.45 0 0 0 4.004-1.654 896.47 896.47 0 0 0 3.998-1.695" transform="scale(1.01983 1.02064)" fill="none" stroke-width="2" stroke="#6fa8dc" stroke-miterlimit="10"/></g><g clip-path="url(#e)"><path d="M0 357.488l3.999-.061A12747.8 12747.8 0 0 0 36 356.883a8393.639 8393.639 0 0 0 44-.915 6817.153 6817.153 0 0 0 52-1.416c10.667-.333 21.334-.7 32.002-1.094 9.334-.352 18.665-.727 28-1.133 6.664-.295 13.332-.601 19.997-.926 6.669-.326 13.333-.67 20.002-1.034a3165.587 3165.587 0 0 0 35.997-2.174 2494.896 2494.896 0 0 0 40.004-2.985A2049.853 2049.853 0 0 0 340 342.294c6.672-.666 13.337-1.367 20.002-2.101 5.335-.594 10.667-1.214 15.999-1.86 5.336-.647 10.671-1.325 16-2.029 5.338-.708 10.67-1.45 15.998-2.22a1191.354 1191.354 0 0 0 32.002-5.075c5.34-.926 10.672-1.89 16-2.897a990.823 990.823 0 0 0 12-2.346A950.05 950.05 0 0 0 484 320.383a880.1 880.1 0 0 0 16-3.697c4.01-.969 8.008-1.968 12-2.997a719.21 719.21 0 0 0 12-3.204 687.998 687.998 0 0 0 24-7.08 664.635 664.635 0 0 0 12-3.911 609.356 609.356 0 0 0 12.001-4.18 609.98 609.98 0 0 0 12-4.466 611.233 611.233 0 0 0 12-4.777c1.334-.55 4-1.664 4-1.664" transform="scale(1.01983 1.02064)" fill="none" stroke-width="2" stroke="#0b5394" stroke-miterlimit="10"/></g><g clip-path="url(#f)"><path d="M0 358.728l3.999-.061c6.668-.1 13.333-.21 20.002-.33 6.664-.122 13.333-.26 19.998-.405a3720.556 3720.556 0 0 0 36-.964 2779.723 2779.723 0 0 0 32.003-1.195 2236.87 2236.87 0 0 0 15.999-.758 1857.75 1857.75 0 0 0 15.999-.88c4.003-.24 8.001-.494 12-.761a1394.566 1394.566 0 0 0 24-1.814c4.004-.341 8.002-.7 12.001-1.084 4.003-.382 8.002-.788 12-1.217 4.003-.428 8.002-.888 12-1.37a742.154 742.154 0 0 0 23.997-3.276A631.624 631.624 0 0 0 260 341.23a627.26 627.26 0 0 0 7.998-1.554 511.504 511.504 0 0 0 16.003-3.494 439.273 439.273 0 0 0 16-4.095 411.17 411.17 0 0 0 8-2.3 371.046 371.046 0 0 0 16-5.179c2.677-.938 5.343-1.91 7.997-2.913a318.12 318.12 0 0 0 8.002-3.15 305.939 305.939 0 0 0 8.001-3.41 286.997 286.997 0 0 0 19.998-9.79 273.356 273.356 0 0 0 12-6.866A266.5 266.5 0 0 0 392 290.752a265.276 265.276 0 0 0 16-11.83 271.554 271.554 0 0 0 12-10.177 284.719 284.719 0 0 0 16-15.58 293.266 293.266 0 0 0 8-8.757 319.711 319.711 0 0 0 8.002-9.472 338.92 338.92 0 0 0 7.997-10.25 378.41 378.41 0 0 0 8.002-11.087 360.845 360.845 0 0 0 3.999-5.883 380.968 380.968 0 0 0 3.998-6.116 402.915 402.915 0 0 0 4.003-6.357 446.198 446.198 0 0 0 3.999-6.617 472.852 472.852 0 0 0 3.999-6.882 467.152 467.152 0 0 0 4.002-7.156 556.145 556.145 0 0 0 4-7.444 582.857 582.857 0 0 0 8.001-15.795A671.023 671.023 0 0 0 508 142.97a657.124 657.124 0 0 0 7.998-17.774 755.204 755.204 0 0 0 4.002-9.423 803.213 803.213 0 0 0 7.998-20.001A802.943 802.943 0 0 0 532 85.168a922.63 922.63 0 0 0 4-11.03 990.24 990.24 0 0 0 3.999-11.474c1.333-3.9 2.67-7.873 4.002-11.934A1141.715 1141.715 0 0 0 552 25.41c1.333-4.387 2.67-8.857 4.003-13.427A1459.955 1459.955 0 0 0 564-16.507a1715.842 1715.842 0 0 0 12-47.167 2143.083 2143.083 0 0 0 8-34.679 2494.195 2494.195 0 0 0 4-18.393 2675.262 2675.262 0 0 0 8.001-39.023c1.333-6.763 3.998-20.694 3.998-20.694" transform="scale(1.01983 1.02064)" fill="none" stroke-width="2" stroke="#e69138" stroke-miterlimit="10"/></g><path d="M212.172 416.164h-2.059v3.524h-1.144v-8.708h2.883c.976 0 1.726.223 2.246.672.53.446.797 1.094.797 1.946a2.34 2.34 0 0 1-.446 1.418c-.289.402-.691.707-1.21.91l2.038 3.683v.079h-1.226zm-2.059-.941h1.77c.574 0 1.027-.145 1.355-.43.34-.297.512-.695.512-1.195 0-.536-.16-.942-.48-1.23-.32-.286-.782-.434-1.387-.446h-1.77zm9.817 3.828c-.426.508-1.055.765-1.895.765-.691 0-1.219-.203-1.578-.605-.36-.406-.543-1-.543-1.79v-4.206h1.102v4.176c0 .988.398 1.484 1.195 1.484.848 0 1.41-.32 1.687-.957v-4.703h1.118v6.473h-1.051zm4.191-5.836l.031.812c.5-.617 1.149-.925 1.946-.925 1.37 0 2.062.77 2.07 2.312v4.274h-1.113v-4.29c0-.457-.106-.796-.32-1.02-.204-.222-.528-.335-.973-.335-.36 0-.68.094-.953.285a1.99 1.99 0 0 0-.625.75v4.61h-1.098v-6.473zm7.14 0l.032.812c.5-.617 1.144-.925 1.941-.925 1.371 0 2.063.77 2.075 2.312v4.274h-1.118v-4.29c0-.457-.105-.796-.316-1.02-.203-.222-.527-.335-.973-.335-.363 0-.68.094-.957.285a1.946 1.946 0 0 0-.62.75v4.61h-1.102v-6.473zm7.298 6.473h-1.098v-6.473h1.098zm-1.196-8.18c0-.18.055-.336.16-.465.118-.125.282-.191.493-.191.214 0 .37.066.48.191a.666.666 0 0 1 .172.465.639.639 0 0 1-.172.445c-.11.117-.266.176-.48.176-.211 0-.375-.059-.493-.176a.685.685 0 0 1-.16-.445zm4.098 1.707l.031.812c.496-.617 1.145-.925 1.942-.925 1.37 0 2.062.77 2.07 2.312v4.274h-1.113v-4.29c0-.457-.106-.796-.32-1.02-.2-.222-.524-.335-.97-.335-.363 0-.68.094-.956.285a1.946 1.946 0 0 0-.622.75v4.61h-1.101v-6.473zm5.828 3.187c0-1.007.234-1.812.703-2.41.469-.594 1.082-.89 1.848-.89.789 0 1.402.277 1.847.828l.051-.715h1.02v6.312c0 .84-.25 1.5-.75 1.977-.5.492-1.164.734-1.992.734-.47 0-.926-.101-1.371-.3-.446-.204-.786-.473-1.02-.813l.574-.672c.469.586 1.047.879 1.738.879.532 0 .946-.156 1.243-.465.308-.297.46-.722.46-1.273v-.559c-.445.52-1.05.781-1.816.781-.754 0-1.363-.304-1.832-.91-.469-.617-.703-1.449-.703-2.504zm1.117.13c0 .722.149 1.296.446 1.722.296.414.718.621 1.257.621.692 0 1.203-.32 1.532-.957v-2.95c-.34-.616-.848-.925-1.532-.925-.527 0-.949.207-1.257.621-.297.414-.446 1.035-.446 1.867zm15.074 1.624l1.243-4.941h1.101l-1.883 6.473h-.89l-1.578-4.91-1.528 4.91h-.894l-1.88-6.473h1.099l1.273 4.848 1.516-4.848h.875zm4.653 1.531h-1.098v-6.472h1.098zm-1.195-8.18a.71.71 0 0 1 .16-.464c.117-.125.28-.191.496-.191.21 0 .37.066.476.191a.67.67 0 0 1 .176.465.642.642 0 0 1-.176.445c-.105.117-.265.176-.476.176-.215 0-.38-.059-.496-.176a.685.685 0 0 1-.16-.445zm4.558.145v1.563h1.195v.86h-1.195v4.003c0 .266.055.461.16.59.106.129.285.191.54.191.128 0 .304-.023.527-.062v.89a2.914 2.914 0 0 1-.844.13c-.488 0-.86-.149-1.117-.45-.254-.308-.383-.738-.383-1.289v-4.004h-1.176v-.86h1.176v-1.562zm3.68 2.344c.488-.598 1.129-.894 1.914-.894 1.37 0 2.058.77 2.07 2.312v4.274h-1.113v-4.29c0-.457-.11-.796-.32-1.02-.204-.222-.528-.335-.973-.335-.36 0-.68.094-.957.285a1.946 1.946 0 0 0-.621.75v4.61h-1.098v-9.184h1.098zm11.219 4.195l1.609-4.976h1.133l-2.328 6.473h-.844l-2.344-6.473h1.133l1.64 4.973zm7.984 1.497c-.063-.13-.117-.356-.16-.684-.508.539-1.121.812-1.832.812-.637 0-1.164-.18-1.578-.543-.403-.359-.606-.824-.606-1.386 0-.672.254-1.192.766-1.563.511-.375 1.23-.558 2.168-.558h1.066v-.512c0-.383-.117-.684-.351-.906-.223-.235-.563-.352-1.02-.352-.39 0-.723.102-.988.3-.266.192-.399.43-.399.72h-1.113c0-.329.11-.645.332-.942.234-.297.547-.531.941-.703.395-.18.825-.27 1.29-.27.757 0 1.34.188 1.753.56.426.37.649.882.668 1.53v2.98c0 .599.079 1.071.227 1.423v.094zm-1.832-.844c.348 0 .68-.09.988-.274.309-.18.531-.414.668-.699v-1.324h-.86c-1.359 0-2.038.398-2.038 1.195 0 .34.113.613.347.813.235.191.532.289.895.289zm8.11-4.64a3.985 3.985 0 0 0-.544-.032c-.73 0-1.226.308-1.48.922v4.594h-1.098v-6.473h1.067l.015.75c.36-.574.875-.863 1.547-.863.211 0 .375.027.492.078zm2.152 5.483h-1.102v-6.472h1.102zm-1.196-8.18c0-.179.051-.335.16-.464.118-.125.282-.191.493-.191.214 0 .37.066.476.191a.67.67 0 0 1 .176.465.642.642 0 0 1-.176.445c-.105.117-.262.176-.476.176-.211 0-.375-.059-.493-.176a.665.665 0 0 1-.16-.445zm2.758 4.88c0-.625.121-1.196.367-1.707.254-.508.602-.899 1.047-1.164.45-.274.953-.414 1.516-.414.883 0 1.594.304 2.137.91.55.605.828 1.418.828 2.437v.082c0 .625-.121 1.192-.368 1.688-.246.5-.59.894-1.035 1.183-.445.274-.96.414-1.547.414-.87 0-1.582-.304-2.132-.91-.543-.617-.813-1.43-.813-2.437zm1.113.144c0 .711.164 1.285.496 1.723.34.433.786.652 1.336.652.563 0 1.012-.219 1.34-.652.328-.445.492-1.07.492-1.867 0-.703-.168-1.27-.507-1.707-.329-.446-.778-.668-1.34-.668-.543 0-.98.218-1.32.652-.333.426-.497 1.047-.497 1.867zm10.313 2.52c-.426.508-1.059.765-1.899.765-.691 0-1.214-.203-1.578-.605-.36-.406-.539-1-.539-1.79v-4.206h1.098v4.176c0 .988.398 1.484 1.195 1.484.852 0 1.414-.32 1.688-.957v-4.703h1.117v6.473h-1.05l-.036-.637zm6.914-1.086a.778.778 0 0 0-.352-.684c-.222-.172-.617-.316-1.18-.43-.55-.117-.991-.261-1.32-.433-.332-.168-.574-.367-.734-.59a1.509 1.509 0 0 1-.223-.828c0-.531.223-.98.668-1.34.446-.37 1.02-.558 1.723-.558.73 0 1.32.191 1.77.574.457.37.683.851.683 1.437h-1.098c0-.3-.132-.554-.398-.765-.258-.227-.574-.336-.957-.336-.406 0-.723.09-.957.27a.81.81 0 0 0-.336.671c0 .266.11.465.32.606.211.136.594.27 1.149.398.55.117.996.262 1.336.43.34.172.59.379.75.62.172.247.254.54.254.88 0 .586-.23 1.05-.7 1.402-.457.352-1.05.527-1.785.527-.52 0-.984-.09-1.387-.273a2.246 2.246 0 0 1-.921-.781 1.835 1.835 0 0 1-.336-1.067h1.097c.024.371.172.668.446.89.277.216.644.321 1.101.321.414 0 .75-.086 1.004-.254.254-.172.383-.398.383-.687zm5.144-1.563c0-1 .235-1.797.704-2.39.468-.606 1.082-.91 1.847-.91.754 0 1.356.253 1.801.765v-3.363h1.102v9.183h-1.02l-.05-.703c-.446.555-1.063.832-1.848.832-.743 0-1.356-.308-1.832-.925-.47-.618-.704-1.418-.704-2.41zm1.102.13c0 .734.148 1.308.445 1.722.309.414.727.621 1.258.621.703 0 1.219-.32 1.547-.957v-2.965c-.328-.61-.84-.91-1.527-.91-.543 0-.97.207-1.278.621-.297.414-.445 1.035-.445 1.867zm8.988 3.284c-.882 0-1.601-.289-2.152-.863-.543-.586-.813-1.36-.813-2.328v-.191c0-.649.122-1.223.368-1.723a2.796 2.796 0 0 1 1.02-1.18 2.61 2.61 0 0 1 1.433-.43c.84 0 1.492.278 1.96.829.466.554.7 1.347.7 2.379v.46h-4.383c.024.637.207 1.153.559 1.547.363.395.82.59 1.37.59.384 0 .708-.078.973-.238.278-.16.52-.371.73-.637l.673.524c-.543.84-1.356 1.261-2.438 1.261zm-.144-5.804c-.446 0-.824.164-1.133.492-.297.32-.477.773-.54 1.355h3.235v-.078c-.031-.562-.187-1-.46-1.308-.266-.309-.633-.461-1.102-.461zm3.316 2.39c0-1.007.23-1.812.7-2.41.468-.594 1.081-.89 1.847-.89.785 0 1.402.277 1.848.828l.05-.715h1.02v6.312c0 .84-.25 1.5-.75 1.977-.5.492-1.164.734-1.992.734a3.34 3.34 0 0 1-1.371-.3c-.446-.204-.785-.473-1.02-.813l.574-.672c.47.586 1.047.879 1.739.879.531 0 .945-.156 1.242-.465.308-.297.46-.722.46-1.273v-.559c-.444.52-1.05.781-1.816.781-.753 0-1.363-.304-1.832-.91-.468-.617-.703-1.449-.703-2.504zm1.113.13c0 .722.149 1.296.446 1.722.297.414.719.621 1.262.621.687 0 1.199-.32 1.527-.957v-2.95c-.34-.616-.848-.925-1.527-.925-.532 0-.954.207-1.262.621-.297.414-.446 1.035-.446 1.867zm9.418-2.329a3.986 3.986 0 0 0-.543-.031c-.73 0-1.226.308-1.48.922v4.594h-1.102v-6.473h1.07l.016.75c.36-.574.875-.863 1.543-.863.215 0 .38.027.496.078zm3.633 5.613c-.883 0-1.597-.289-2.152-.863-.54-.586-.813-1.36-.813-2.328v-.191c0-.649.125-1.223.368-1.723a2.824 2.824 0 0 1 1.02-1.18 2.62 2.62 0 0 1 1.433-.43c.84 0 1.492.278 1.96.829.47.554.704 1.347.704 2.379v.46h-4.383c.02.637.207 1.153.559 1.547.359.395.816.59 1.367.59.383 0 .707-.078.972-.238.278-.16.52-.371.735-.637l.668.524c-.54.84-1.352 1.261-2.438 1.261zm-.144-5.804c-.446 0-.825.164-1.13.492-.296.32-.48.773-.542 1.355h3.234v-.078c-.031-.562-.183-1-.46-1.308-.266-.309-.634-.461-1.102-.461zm6.261 5.804c-.878 0-1.597-.289-2.148-.863-.543-.586-.813-1.36-.813-2.328v-.191c0-.649.122-1.223.368-1.723a2.77 2.77 0 0 1 1.02-1.18 2.61 2.61 0 0 1 1.433-.43c.84 0 1.492.278 1.957.829.469.554.703 1.347.703 2.379v.46h-4.383c.024.637.207 1.153.559 1.547.36.395.816.59 1.37.59.384 0 .708-.078.974-.238.273-.16.519-.371.73-.637l.672.524c-.543.84-1.356 1.261-2.438 1.261zm-.14-5.804a1.5 1.5 0 0 0-1.133.492c-.297.32-.477.773-.543 1.355h3.238v-.078c-.035-.562-.187-1-.465-1.308-.265-.309-.632-.461-1.097-.461zm7.344 3.953c0-.297-.114-.524-.348-.684-.223-.172-.617-.316-1.18-.43-.554-.117-.996-.261-1.324-.433-.328-.168-.574-.367-.734-.59a1.509 1.509 0 0 1-.223-.828c0-.531.223-.98.672-1.34.445-.37 1.02-.558 1.719-.558.734 0 1.324.191 1.77.574.456.37.683.851.683 1.437h-1.098c0-.3-.133-.554-.398-.765-.254-.227-.575-.336-.957-.336-.403 0-.723.09-.957.27a.806.806 0 0 0-.332.671c0 .266.105.465.316.606.215.136.598.27 1.148.398.555.117 1 .262 1.34.43.34.172.59.379.75.62.168.247.254.54.254.88 0 .586-.234 1.05-.703 1.402-.457.352-1.05.527-1.785.527-.52 0-.98-.09-1.387-.273-.39-.188-.7-.45-.922-.781a1.864 1.864 0 0 1-.336-1.067h1.102c.02.371.168.668.445.89.278.216.64.321 1.098.321.418 0 .75-.086 1.008-.254.254-.172.379-.398.379-.687zm5.117-1.578c0-.625.12-1.196.367-1.707.254-.508.605-.899 1.05-1.164.446-.274.95-.414 1.512-.414.883 0 1.594.304 2.137.91.55.605.828 1.418.828 2.437v.082c0 .625-.12 1.192-.367 1.688-.242.5-.59.894-1.035 1.183-.445.274-.961.414-1.543.414-.871 0-1.586-.304-2.137-.91-.543-.617-.812-1.43-.812-2.437zm1.113.144c0 .711.164 1.285.496 1.723.34.433.785.652 1.34.652.562 0 1.008-.219 1.336-.652.328-.445.496-1.07.496-1.867 0-.703-.172-1.27-.512-1.707-.328-.446-.777-.668-1.34-.668-.539 0-.98.218-1.32.652-.332.426-.496 1.047-.496 1.867zm6.867 3.156v-5.613h-1.02v-.86h1.02v-.655c0-.7.184-1.239.543-1.61.371-.383.899-.574 1.578-.574.254 0 .512.031.766.094l-.063.91a2.7 2.7 0 0 0-.59-.063c-.363 0-.644.106-.843.317-.195.215-.29.512-.29.894v.688h1.387v.86h-1.386v5.613zm12.051-3.156c0 .977-.227 1.77-.672 2.375-.445.606-1.055.91-1.832.91-.785 0-1.402-.25-1.848-.75v3.11h-1.101v-8.961h1.004l.05.715c.454-.551 1.083-.828 1.88-.828.773 0 1.386.293 1.832.878.457.582.687 1.399.687 2.438zm-1.102-.129c0-.734-.16-1.308-.476-1.722-.309-.426-.735-.637-1.277-.637-.668 0-1.168.293-1.497.879v3.09c.329.597.832.894 1.512.894.531 0 .953-.207 1.262-.62.316-.427.476-1.056.476-1.884zm2.485-.015c0-.625.125-1.196.367-1.707.258-.508.605-.899 1.05-1.164.45-.274.954-.414 1.516-.414.883 0 1.594.304 2.137.91.55.605.828 1.418.828 2.437v.082a3.81 3.81 0 0 1-.367 1.688c-.246.5-.59.894-1.035 1.183-.45.274-.961.414-1.547.414-.871 0-1.582-.304-2.137-.91-.539-.617-.812-1.43-.812-2.437zm1.117.144c0 .711.164 1.285.492 1.723.34.433.79.652 1.34.652.563 0 1.008-.219 1.34-.652.328-.445.492-1.07.492-1.867 0-.703-.168-1.27-.508-1.707-.332-.446-.777-.668-1.34-.668-.543 0-.984.218-1.324.652-.328.426-.492 1.047-.492 1.867zm7.52 3.156h-1.098v-9.183h1.098zm3.968-1.625l1.516-4.847h1.176l-2.594 7.476c-.406 1.075-1.043 1.614-1.914 1.614l-.223-.016-.398-.082v-.89l.285.015c.383 0 .676-.074.879-.223.21-.152.387-.43.523-.832l.242-.668-2.312-6.394h1.21zm5.051-4.847l.031.715c.47-.551 1.106-.828 1.914-.828.903 0 1.52.343 1.848 1.035a2.46 2.46 0 0 1 .828-.75 2.573 2.573 0 0 1 1.227-.285c1.425 0 2.148.75 2.168 2.25v4.336h-1.098v-4.274c0-.457-.11-.797-.32-1.02-.211-.234-.567-.351-1.067-.351-.414 0-.761.121-1.035.367-.265.242-.422.574-.465.988v4.29h-1.097v-4.243c0-.933-.461-1.402-1.387-1.402-.723 0-1.215.309-1.48.926v4.719h-1.118v-6.473zm9.879 3.172c0-.625.125-1.196.367-1.707.258-.508.606-.899 1.05-1.164.45-.274.954-.414 1.517-.414.882 0 1.593.304 2.136.91.551.605.828 1.418.828 2.437v.082a3.81 3.81 0 0 1-.367 1.688c-.246.5-.59.894-1.035 1.183-.445.274-.96.414-1.547.414-.87 0-1.582-.304-2.137-.91-.539-.617-.812-1.43-.812-2.437zm1.117.144c0 .711.164 1.285.492 1.723.34.433.79.652 1.34.652.563 0 1.008-.219 1.34-.652.328-.445.492-1.07.492-1.867 0-.703-.168-1.27-.508-1.707-.332-.446-.777-.668-1.34-.668-.542 0-.984.218-1.324.652-.328.426-.492 1.047-.492 1.867zm9.45-2.328a3.986 3.986 0 0 0-.544-.031c-.73 0-1.226.308-1.48.922v4.594h-1.102v-6.473h1.07l.016.75c.36-.574.875-.863 1.547-.863.211 0 .375.027.492.078zm6.406 2.328c0 .977-.223 1.77-.668 2.375-.45.606-1.059.91-1.832.91-.79 0-1.407-.25-1.852-.75v3.11h-1.098v-8.961h1.004l.047.715c.457-.551 1.082-.828 1.88-.828.776 0 1.386.293 1.835.878.457.582.684 1.399.684 2.438zm-1.098-.129c0-.734-.16-1.308-.48-1.722-.31-.426-.735-.637-1.274-.637-.672 0-1.168.293-1.5.879v3.09c.332.597.836.894 1.516.894.53 0 .949-.207 1.257-.62.32-.427.481-1.056.481-1.884zm3.887-2.41c.488-.594 1.125-.89 1.91-.89 1.37 0 2.062.77 2.074 2.312v4.274h-1.117v-4.29c0-.457-.106-.796-.32-1.02-.2-.222-.524-.335-.97-.335-.362 0-.679.094-.956.285a1.946 1.946 0 0 0-.621.75v4.61h-1.102v-9.184h1.102v3.492zm7.234 5.695h-1.101v-6.472h1.101zm-1.195-8.18a.69.69 0 0 1 .16-.464c.117-.125.281-.191.492-.191.215 0 .371.066.477.191a.67.67 0 0 1 .175.465.642.642 0 0 1-.175.445c-.106.117-.262.176-.477.176-.21 0-.375-.059-.492-.176a.665.665 0 0 1-.16-.445zm6.82 6.458a.778.778 0 0 0-.351-.684c-.223-.172-.618-.316-1.18-.43-.551-.117-.992-.261-1.32-.433-.333-.168-.575-.367-.735-.59a1.509 1.509 0 0 1-.223-.828c0-.531.223-.98.668-1.34.446-.37 1.02-.558 1.723-.558.73 0 1.32.191 1.766.574.457.37.687.851.687 1.437h-1.101c0-.3-.13-.554-.395-.765-.258-.227-.574-.336-.957-.336-.406 0-.723.09-.957.27a.81.81 0 0 0-.336.671c0 .266.11.465.32.606.211.136.594.27 1.149.398.55.117.996.262 1.336.43.34.172.59.379.75.62.172.247.254.54.254.88 0 .586-.23 1.05-.7 1.402-.457.352-1.05.527-1.785.527-.52 0-.984-.09-1.386-.273-.395-.188-.7-.45-.922-.781a1.835 1.835 0 0 1-.336-1.067h1.097c.024.371.172.668.446.89.277.216.644.321 1.101.321.414 0 .75-.086 1.004-.254.254-.172.383-.398.383-.687zm3.395-4.75l.03.715c.466-.551 1.106-.828 1.911-.828.906 0 1.52.343 1.848 1.035.214-.309.492-.559.832-.75a2.562 2.562 0 0 1 1.226-.285c1.422 0 2.145.75 2.168 2.25v4.336h-1.101v-4.274c0-.457-.106-.797-.32-1.02-.212-.234-.567-.351-1.067-.351-.414 0-.758.121-1.035.367-.266.242-.418.574-.461.988v4.29h-1.102v-4.243c0-.933-.46-1.402-1.386-1.402-.723 0-1.215.309-1.48.926v4.719h-1.118v-6.473zm13.191 2.933c0-.894.117-1.753.352-2.586a7.755 7.755 0 0 1 1.082-2.261c.48-.684.98-1.16 1.5-1.438l.222.735c-.586.445-1.062 1.129-1.433 2.043-.371.914-.575 1.937-.606 3.074l-.015.512c0 1.543.28 2.875.843 4.003.34.68.743 1.211 1.211 1.594l-.222.672c-.532-.289-1.043-.781-1.532-1.484-.933-1.352-1.402-2.973-1.402-4.864zm7.172 2.008l2.484-7.176h1.262l-3.234 8.707h-1.004l-3.22-8.707h1.243zm10.277-4.91c0 .434-.117.824-.347 1.164-.235.34-.543.606-.926.797.445.191.8.477 1.066.86.266.374.399.8.399 1.277 0 .746-.254 1.344-.766 1.8-.496.45-1.16.672-1.988.672-.84 0-1.516-.222-2.024-.671-.5-.457-.75-1.055-.75-1.801 0-.477.125-.903.383-1.278.254-.382.61-.668 1.067-.859a2.275 2.275 0 0 1-.907-.797 2.053 2.053 0 0 1-.336-1.164c0-.734.235-1.312.7-1.738.468-.438 1.09-.656 1.867-.656.761 0 1.379.218 1.847.656.477.426.715 1.004.715 1.738zm-.906 4.067c0-.489-.156-.883-.465-1.18-.305-.309-.71-.465-1.21-.465-.497 0-.903.156-1.212.465-.297.297-.445.695-.445 1.195 0 .488.148.879.445 1.164.297.278.707.414 1.23.414.509 0 .91-.144 1.208-.43.3-.288.449-.675.449-1.163zm-1.656-5.551c-.438 0-.793.136-1.07.414-.266.265-.399.633-.399 1.101 0 .438.133.793.398 1.07.266.274.618.415 1.051.415.45 0 .805-.14 1.07-.414.266-.278.395-.633.395-1.07 0-.446-.137-.81-.41-1.087a1.391 1.391 0 0 0-1.035-.43zm11.82-.782v.926h-.207c-.86.02-1.543.281-2.055.781-.507.489-.808 1.18-.89 2.07.465-.519 1.093-.777 1.879-.777.753 0 1.359.266 1.816.797.457.532.684 1.223.684 2.075 0 .89-.243 1.609-.73 2.152-.49.539-1.15.812-1.977.812-.829 0-1.504-.32-2.024-.957-.512-.648-.765-1.48-.765-2.488v-.414c0-1.605.34-2.836 1.019-3.684.68-.851 1.695-1.28 3.043-1.293zm-1.45 3.926c-.382 0-.734.11-1.05.332-.32.223-.543.512-.672.86v.402c0 .723.16 1.3.48 1.738.329.434.735.653 1.212.653.5 0 .89-.18 1.18-.543.284-.371.429-.856.429-1.45 0-.597-.145-1.074-.43-1.437a1.38 1.38 0 0 0-1.148-.559zm4.384 4.207c0-.191.054-.351.16-.476.117-.13.285-.192.508-.192.234 0 .41.063.527.192a.671.671 0 0 1 .176.476.67.67 0 0 1-.176.465c-.117.113-.293.172-.527.172-.223 0-.391-.059-.508-.172a.715.715 0 0 1-.16-.465zm7.265-8.133v.926h-.207c-.86.02-1.547.281-2.054.781-.512.489-.81 1.18-.895 2.07.469-.519 1.094-.777 1.883-.777.754 0 1.36.266 1.816.797.457.532.684 1.223.684 2.075 0 .89-.242 1.609-.73 2.152-.493.539-1.15.812-1.977.812-.828 0-1.504-.32-2.024-.957-.511-.648-.765-1.48-.765-2.488v-.414c0-1.605.34-2.836 1.02-3.684.679-.851 1.695-1.28 3.042-1.293zm-1.449 3.922a1.79 1.79 0 0 0-1.05.336 1.784 1.784 0 0 0-.673.86v.402c0 .723.16 1.3.48 1.738.329.434.731.653 1.212.653.5 0 .89-.18 1.18-.543.285-.371.43-.856.43-1.45 0-.597-.145-1.074-.43-1.437a1.386 1.386 0 0 0-1.149-.559zm6.914 1.309c0 .894-.117 1.75-.351 2.566a7.392 7.392 0 0 1-1.082 2.25c-.477.692-.977 1.18-1.497 1.47l-.238-.673c.613-.469 1.11-1.195 1.48-2.183.372-1 .563-2.102.575-3.301v-.192a9.5 9.5 0 0 0-.274-2.343 7.286 7.286 0 0 0-.73-1.93c-.309-.574-.66-1.023-1.05-1.34l.237-.672c.52.29 1.02.774 1.497 1.453a7.33 7.33 0 0 1 1.07 2.266c.242.816.367 1.695.367 2.629zM30.457 284.44v3.778h3.074v-4.383h.938v5.531h-8.7v-5.484h.942v4.336h2.805v-3.778zm-.098-4.226L28 278.777v-1.289l3.203 2.121 3.266-2.187v1.277l-2.422 1.5 2.422 1.496v1.293l-3.266-2.183L28 282.91v-1.277zm4.239-6.633c0 .879-.285 1.598-.86 2.152-.586.54-1.363.813-2.328.813h-.191c-.649 0-1.223-.125-1.719-.367-.512-.246-.906-.586-1.18-1.024a2.578 2.578 0 0 1-.43-1.433c0-.84.274-1.493.829-1.961.55-.469 1.343-.703 2.375-.703h.46v4.386c.637-.02 1.153-.207 1.544-.558.394-.36.59-.817.59-1.371 0-.383-.079-.707-.239-.973a2.57 2.57 0 0 0-.636-.734l.527-.668c.84.543 1.258 1.355 1.258 2.437zm-5.801.14c0 .45.164.825.496 1.133.316.297.77.477 1.352.543v-3.238h-.079c-.562.031-1 .188-1.304.461-.309.27-.465.633-.465 1.102zm4.89-6.171c0-.395-.113-.738-.347-1.035-.246-.297-.547-.465-.91-.496v-1.051c.37.02.73.152 1.07.398.328.235.594.547.793.942.203.382.305.796.305 1.242 0 .883-.293 1.586-.88 2.105-.593.512-1.398.766-2.417.766h-.192c-.629 0-1.187-.11-1.675-.336a2.635 2.635 0 0 1-1.13-.988c-.277-.434-.413-.95-.413-1.547 0-.723.214-1.324.652-1.801.426-.488.988-.75 1.687-.781v1.05c-.421.032-.77.192-1.035.481a1.486 1.486 0 0 0-.398 1.05c0 .567.203 1 .605 1.31.403.308.989.46 1.754.46h.207c.742 0 1.317-.152 1.723-.46.402-.31.602-.743.602-1.31zm.145-7.528c.512.426.766 1.059.766 1.899 0 .691-.203 1.219-.606 1.578-.402.363-1 .543-1.785.543H28v-1.102h4.176c.988 0 1.48-.398 1.48-1.195 0-.851-.316-1.414-.953-1.691H28v-1.114h6.469v1.051zm-7.395-4.656H28v-1.195h.86v1.195h4c.265 0 .464-.05.59-.16.128-.105.19-.285.19-.539 0-.129-.019-.305-.062-.527h.89c.087.285.13.566.13.843 0 .489-.149.864-.446 1.118-.308.253-.738.382-1.293.382h-4v1.18H28v-1.18h-1.563zm8.032-3.777v1.097H28v-1.097zm-8.172 1.195a.707.707 0 0 1-.465-.16c-.125-.117-.187-.281-.187-.496 0-.211.062-.371.187-.477a.662.662 0 0 1 .465-.175c.168 0 .316.058.445.175.117.106.176.266.176.477 0 .215-.059.379-.176.496a.685.685 0 0 1-.445.16zm4.875-2.758a3.916 3.916 0 0 1-1.703-.367c-.512-.258-.899-.61-1.164-1.055a2.803 2.803 0 0 1-.414-1.515c0-.883.3-1.594.906-2.137.605-.55 1.418-.828 2.437-.828h.082c.625 0 1.188.121 1.688.367s.894.59 1.18 1.035c.277.45.414.965.414 1.547 0 .871-.301 1.586-.907 2.137-.617.543-1.43.816-2.441.816zm.144-1.117c.711 0 1.286-.164 1.72-.496a1.61 1.61 0 0 0 .651-1.34c0-.562-.214-1.008-.652-1.34-.445-.328-1.066-.492-1.863-.492-.703 0-1.27.168-1.703.508-.45.332-.672.777-.672 1.34 0 .543.219.984.652 1.324.426.332 1.047.496 1.867.496zM28 241.543l.813-.035c-.614-.496-.922-1.145-.922-1.946 0-1.37.77-2.062 2.308-2.07h4.27v1.113h-4.285c-.457 0-.797.11-1.02.32-.223.204-.336.528-.336.973 0 .364.098.68.29.957.19.266.44.473.745.622h4.606v1.101H28zm-1.563-10.672H28v-1.195h.86v1.195h4c.265 0 .464-.05.59-.156.128-.11.19-.29.19-.543 0-.129-.019-.305-.062-.527h.89c.087.285.13.57.13.843 0 .492-.149.864-.446 1.117-.308.258-.738.383-1.293.383h-4v1.18H28v-1.18h-1.563zm8.032-3.777v1.097H28v-1.097zm-8.172 1.195a.707.707 0 0 1-.465-.16c-.125-.117-.187-.281-.187-.492 0-.215.062-.375.187-.48a.662.662 0 0 1 .465-.177c.168 0 .316.06.445.176.117.106.176.266.176.48 0 .212-.059.376-.176.493a.685.685 0 0 1-.445.16zM28 224.191l.719-.03c-.555-.47-.828-1.11-.828-1.915 0-.906.343-1.523 1.035-1.851a2.432 2.432 0 0 1-.75-.829c-.192-.351-.285-.761-.285-1.23 0-1.422.746-2.145 2.246-2.168h4.332v1.102h-4.27c-.457 0-.797.105-1.02.32-.234.21-.35.566-.35 1.066 0 .414.124.762.366 1.035.246.266.575.422.989.465h4.285v1.098H30.23c-.933 0-1.402.465-1.402 1.39 0 .723.309 1.215.926 1.481h4.715v1.117H28zm6.598-12.87c0 .882-.285 1.6-.86 2.152-.586.543-1.363.812-2.328.812h-.191c-.649 0-1.223-.12-1.719-.367-.512-.242-.906-.582-1.18-1.02a2.578 2.578 0 0 1-.43-1.433c0-.84.274-1.496.829-1.961.55-.469 1.343-.703 2.375-.703h.46v4.387c.637-.024 1.153-.208 1.544-.56.394-.362.59-.82.59-1.37 0-.383-.079-.707-.239-.973a2.52 2.52 0 0 0-.636-.734l.527-.672c.84.543 1.258 1.355 1.258 2.441zm-5.801.144c0 .445.164.824.496 1.133.316.297.77.476 1.352.539v-3.235h-.079c-.562.032-1 .184-1.304.461-.309.266-.465.633-.465 1.102zm2.137-6.606a9.427 9.427 0 0 1-2.582-.347 7.666 7.666 0 0 1-2.262-1.086c-.68-.477-1.16-.977-1.434-1.496l.73-.227c.446.586 1.126 1.067 2.04 1.438.914.37 1.941.574 3.078.605l.508.016c1.539 0 2.875-.282 4-.844.68-.34 1.21-.746 1.593-1.215l.668.227c-.285.53-.78 1.039-1.48 1.527-1.348.938-2.969 1.406-4.86 1.406zm3.535-5.324v1.102h-9.176v-1.102zm-3.297-1.562a3.861 3.861 0 0 1-1.703-.368 2.726 2.726 0 0 1-1.164-1.05 2.822 2.822 0 0 1-.414-1.516c0-.883.3-1.594.906-2.137.605-.554 1.418-.832 2.437-.832h.082c.625 0 1.188.125 1.688.368.5.246.894.593 1.18 1.039.277.445.414.96.414 1.546 0 .872-.301 1.582-.907 2.137-.617.543-1.43.813-2.441.813zm.144-1.118c.711 0 1.286-.164 1.72-.492.437-.34.651-.789.651-1.34 0-.566-.214-1.011-.652-1.34-.445-.331-1.066-.495-1.863-.495-.703 0-1.27.171-1.703.511-.45.328-.672.778-.672 1.34 0 .543.219.984.652 1.324.426.328 1.047.492 1.867.492zm1.625-12.054L28 183.555v-1.098l6.469 1.879v.894l-4.907 1.579 4.907 1.53v.895L28 191.117v-1.101l4.844-1.278L28 187.223v-.875zm1.657-6.14c0 .882-.285 1.6-.86 2.151-.586.543-1.363.813-2.328.813h-.191c-.649 0-1.223-.121-1.719-.367-.512-.242-.906-.582-1.18-1.02a2.578 2.578 0 0 1-.43-1.433c0-.84.274-1.496.829-1.961.55-.469 1.343-.703 2.375-.703h.46v4.386c.637-.023 1.153-.207 1.544-.558.394-.364.59-.82.59-1.371 0-.383-.079-.707-.239-.973a2.52 2.52 0 0 0-.636-.734l.527-.672c.84.543 1.258 1.355 1.258 2.441zm-5.801.144c0 .445.164.824.496 1.132.316.297.77.477 1.352.54v-3.235h-.079c-.562.031-1 .184-1.304.461-.309.266-.465.633-.465 1.102zm.191-6.715a4.73 4.73 0 0 0-.031.543c0 .734.309 1.226.926 1.484h4.586v1.098H28v-1.067l.75-.02c-.574-.358-.86-.874-.86-1.542 0-.215.024-.379.079-.496zm5.48-5.215v1.102H28v-1.102zm-8.171 1.195a.687.687 0 0 1-.465-.16c-.125-.113-.187-.281-.187-.492 0-.215.062-.371.187-.48a.66.66 0 0 1 .465-.172c.168 0 .316.058.445.172.117.109.176.265.176.48 0 .21-.059.379-.176.492a.665.665 0 0 1-.445.16zm6.453-6.824c-.297 0-.527.117-.684.352-.171.222-.316.613-.433 1.18-.117.55-.258.992-.43 1.324-.168.328-.367.574-.59.73a1.478 1.478 0 0 1-.828.227c-.531 0-.976-.223-1.34-.672-.37-.446-.554-1.02-.554-1.723 0-.734.191-1.324.57-1.77a1.772 1.772 0 0 1 1.437-.683v1.098c-.3 0-.554.132-.765.398-.223.254-.336.574-.336.957 0 .406.09.723.27.957a.81.81 0 0 0 .671.336.676.676 0 0 0 .606-.32c.136-.211.27-.594.398-1.149.117-.55.262-.996.43-1.34.172-.34.379-.59.621-.75.246-.168.539-.253.879-.253.582 0 1.05.234 1.398.703.352.457.528 1.05.528 1.785 0 .52-.09.984-.27 1.387a2.31 2.31 0 0 1-.781.925 1.882 1.882 0 0 1-1.067.336v-1.101c.372-.02.668-.168.891-.446.211-.277.316-.644.316-1.101 0-.414-.082-.75-.253-1.004-.168-.258-.399-.383-.684-.383zm-1.434-10.894c.989 0 1.782.23 2.391.687.594.445.89 1.055.89 1.82 0 .817-.292 1.45-.878 1.895l.75.066v1.004h-9.176v-1.101h3.426c-.555-.446-.828-1.063-.828-1.852 0-.785.297-1.402.89-1.848.586-.445 1.399-.668 2.438-.668h.097zm-.128 1.101c-.754 0-1.333.149-1.739.445-.414.29-.62.704-.62 1.247 0 .734.335 1.257 1.003 1.578h2.805c.68-.34 1.02-.868 1.02-1.578 0-.532-.208-.946-.622-1.247-.414-.296-1.031-.445-1.847-.445zm3.41-5.453c0 .883-.285 1.602-.86 2.152-.586.543-1.363.813-2.328.813h-.191c-.649 0-1.223-.121-1.719-.367-.512-.243-.906-.582-1.18-1.02a2.587 2.587 0 0 1-.43-1.433c0-.84.274-1.497.829-1.961.55-.47 1.343-.704 2.375-.704h.46v4.387c.637-.023 1.153-.207 1.544-.558.394-.364.59-.82.59-1.375 0-.38-.079-.704-.239-.973a2.556 2.556 0 0 0-.636-.73l.527-.672c.84.543 1.258 1.355 1.258 2.441zm-5.801.145c0 .445.164.824.496 1.132.316.297.77.477 1.352.54v-3.235h-.079c-.562.031-1 .184-1.304.461-.309.266-.465.633-.465 1.102zm-2.36-5.09H28v-1.196h.86v1.196h4c.265 0 .464-.051.59-.157.128-.109.19-.289.19-.543 0-.128-.019-.304-.062-.527h.89c.087.285.13.57.13.844 0 .492-.149.863-.446 1.117-.308.254-.738.383-1.293.383h-4v1.18H28v-1.18h-1.563zm0-4.082H28v-1.196h.86v1.196h4c.265 0 .464-.051.59-.16.128-.106.19-.286.19-.54 0-.128-.019-.304-.062-.527h.89c.087.285.13.566.13.844 0 .488-.149.863-.446 1.117-.308.254-.738.383-1.293.383h-4v1.18H28v-1.18h-1.563zm8.16-5.262c0 .883-.285 1.601-.859 2.152-.586.543-1.363.813-2.328.813h-.191c-.649 0-1.223-.121-1.719-.367-.512-.243-.906-.582-1.18-1.02a2.587 2.587 0 0 1-.43-1.434c0-.84.274-1.496.829-1.96.55-.47 1.343-.704 2.375-.704h.46v4.387c.637-.023 1.153-.207 1.544-.558.394-.364.59-.82.59-1.372 0-.382-.079-.707-.239-.972a2.52 2.52 0 0 0-.636-.735l.527-.671c.84.542 1.258 1.355 1.258 2.44zm-5.8.144c0 .446.164.825.496 1.133.316.297.77.477 1.352.54v-3.235h-.079c-.562.031-1 .184-1.304.46-.309.267-.465.634-.465 1.102zm.191-6.714a4.73 4.73 0 0 0-.031.543c0 .734.309 1.226.926 1.48h4.586v1.102H28v-1.067l.75-.02c-.574-.359-.86-.874-.86-1.542 0-.215.024-.38.079-.496zm2.008-3.508c.895 0 1.746.117 2.567.351a7.38 7.38 0 0 1 2.246 1.082c.691.48 1.18.98 1.464 1.5l-.668.239c-.468-.618-1.195-1.11-2.183-1.485-.996-.37-2.098-.562-3.297-.57h-.191c-.84 0-1.622.09-2.344.27a7.13 7.13 0 0 0-1.926.734c-.574.308-1.023.656-1.34 1.05l-.668-.238c.285-.52.77-1.02 1.45-1.5a7.434 7.434 0 0 1 2.26-1.066 9.08 9.08 0 0 1 2.63-.367zm0 0" fill="#424242"/><path d="M83.484 368.512c0 1.297-.222 2.265-.668 2.902-.433.629-1.125.941-2.07.941-.926 0-1.61-.308-2.058-.925-.446-.614-.68-1.54-.7-2.774v-1.469c0-1.285.219-2.238.653-2.851.445-.629 1.144-.941 2.09-.941.933 0 1.624.3 2.07.906.445.597.676 1.523.683 2.777zm-1.113-1.516c0-.933-.133-1.613-.398-2.039-.254-.437-.672-.652-1.243-.652-.566 0-.98.215-1.242.652-.258.426-.383 1.078-.383 1.961v1.77c0 .937.133 1.632.395 2.09.277.445.691.667 1.246.667.54 0 .945-.21 1.211-.636.266-.426.402-1.09.414-1.993zm3.953-1.242l.031.719c.465-.555 1.106-.832 1.91-.832.903 0 1.52.347 1.852 1.039.211-.309.485-.559.824-.75a2.53 2.53 0 0 1 1.23-.29c1.423 0 2.145.75 2.165 2.25v4.337h-1.098v-4.274c0-.457-.105-.797-.32-1.02-.211-.234-.566-.351-1.066-.351-.415 0-.758.125-1.036.367-.265.246-.418.574-.46.988v4.29h-1.102v-4.239c0-.937-.461-1.406-1.387-1.406-.722 0-1.215.309-1.48.926v4.719H85.27v-6.473zm13.942 4.75a.778.778 0 0 0-.352-.684c-.223-.168-.617-.312-1.18-.43-.55-.117-.992-.261-1.32-.43-.332-.17-.574-.366-.734-.589a1.522 1.522 0 0 1-.223-.832c0-.531.223-.976.668-1.34.445-.37 1.02-.558 1.723-.558.73 0 1.32.191 1.77.574.456.37.683.851.683 1.437h-1.098c0-.297-.133-.554-.398-.765-.258-.223-.575-.336-.957-.336-.407 0-.723.09-.957.27a.81.81 0 0 0-.336.671c0 .266.11.469.32.606.21.136.594.27 1.148.398.551.117.997.262 1.336.43.34.172.59.379.75.625.172.242.254.535.254.875 0 .586-.23 1.054-.699 1.402-.457.352-1.05.527-1.785.527-.52 0-.984-.09-1.387-.27a2.298 2.298 0 0 1-.922-.78 1.856 1.856 0 0 1-.336-1.07h1.098c.023.37.172.671.445.894.278.21.645.316 1.102.316.414 0 .75-.082 1.004-.254.254-.171.383-.398.383-.687zm-36.012-70.192l.445-4.335h4.461v1.02h-3.523l-.27 2.374a2.866 2.866 0 0 1 1.465-.383c.79 0 1.414.266 1.883.797.469.524.7 1.23.7 2.121 0 .895-.243 1.602-.735 2.121-.477.524-1.149.782-2.024.782-.761 0-1.39-.211-1.879-.637-.488-.438-.765-1.031-.828-1.785h1.035c.075.5.258.875.543 1.133.285.253.664.378 1.133.378.508 0 .914-.171 1.211-.523.297-.352.445-.836.445-1.453 0-.582-.16-1.05-.48-1.402-.316-.352-.742-.528-1.273-.528-.477 0-.856.102-1.133.305l-.285.238zm12.094.653c0 1.297-.223 2.265-.672 2.902-.434.63-1.125.942-2.07.942-.926 0-1.61-.309-2.055-.922-.446-.617-.68-1.543-.7-2.778v-1.468c0-1.286.215-2.235.653-2.852.445-.629 1.14-.941 2.086-.941.933 0 1.625.3 2.074.906.445.598.672 1.523.684 2.777zm-1.118-1.512c0-.937-.132-1.617-.394-2.043-.258-.437-.672-.652-1.246-.652-.563 0-.977.215-1.242.652-.254.426-.383 1.078-.383 1.961v1.77c0 .937.133 1.632.398 2.09.278.445.692.667 1.242.667.543 0 .946-.21 1.211-.636.266-.426.407-1.09.414-1.992zm8.254 1.512c0 1.297-.222 2.265-.668 2.902-.433.63-1.125.942-2.07.942-.926 0-1.61-.309-2.058-.922-.446-.617-.68-1.543-.7-2.778v-1.468c0-1.286.219-2.235.653-2.852.445-.629 1.144-.941 2.09-.941.933 0 1.624.3 2.07.906.445.598.676 1.523.683 2.777zm-1.113-1.512c0-.937-.133-1.617-.398-2.043-.254-.437-.672-.652-1.243-.652-.566 0-.98.215-1.242.652-.258.426-.383 1.078-.383 1.961v1.77c0 .937.133 1.632.395 2.09.277.445.691.667 1.246.667.54 0 .945-.21 1.211-.636.266-.426.402-1.09.414-1.992zm3.953-1.246l.031.719c.465-.555 1.106-.828 1.91-.828.903 0 1.52.343 1.852 1.035.211-.309.485-.559.824-.75.352-.192.762-.285 1.23-.285 1.423 0 2.145.746 2.165 2.246v4.34h-1.098v-4.278c0-.457-.105-.797-.32-1.02-.211-.234-.566-.35-1.066-.35-.415 0-.758.124-1.036.37-.265.242-.418.57-.46.985v4.293h-1.102v-4.243c0-.937-.461-1.406-1.387-1.406-.722 0-1.215.309-1.48.926v4.723H85.27v-6.477zm13.942 4.754a.78.78 0 0 0-.352-.688c-.223-.168-.617-.312-1.18-.43-.55-.116-.992-.261-1.32-.429-.332-.172-.574-.367-.734-.59a1.522 1.522 0 0 1-.223-.832c0-.531.223-.976.668-1.34.445-.37 1.02-.554 1.723-.554.73 0 1.32.187 1.77.57.456.375.683.852.683 1.437h-1.098c0-.296-.133-.554-.398-.765-.258-.223-.575-.336-.957-.336-.407 0-.723.09-.957.273a.798.798 0 0 0-.336.668c0 .266.11.47.32.606.21.14.594.273 1.148.398.551.117.997.262 1.336.434.34.168.59.375.75.62.172.243.254.536.254.876 0 .586-.23 1.055-.699 1.402-.457.352-1.05.528-1.785.528-.52 0-.984-.09-1.387-.27a2.298 2.298 0 0 1-.922-.781 1.856 1.856 0 0 1-.336-1.07h1.098c.023.375.172.671.445.894.278.211.645.316 1.102.316.414 0 .75-.082 1.004-.253.254-.168.383-.399.383-.684zm-40.028-65.824h-1.101v-7.367l-2.23.812v-1.004l3.171-1.195h.16zm8.969-3.715c0 1.297-.223 2.262-.668 2.902-.434.625-1.125.938-2.07.938-.926 0-1.61-.305-2.059-.922-.445-.617-.68-1.543-.7-2.778v-1.464c0-1.29.22-2.239.653-2.856.446-.629 1.145-.941 2.086-.941.938 0 1.63.304 2.074.91.446.594.676 1.52.684 2.773zm-1.113-1.516c0-.937-.133-1.617-.399-2.043-.254-.433-.672-.652-1.246-.652-.562 0-.976.219-1.242.652-.254.426-.379 1.078-.379 1.961v1.77c0 .937.133 1.633.395 2.09.277.449.691.671 1.246.671.539 0 .945-.214 1.21-.64.266-.422.403-1.09.415-1.992zm8.254 1.512c0 1.3-.223 2.266-.672 2.906-.434.625-1.125.938-2.07.938-.926 0-1.61-.305-2.055-.922-.446-.617-.68-1.543-.7-2.778v-1.464c0-1.29.215-2.239.653-2.856.445-.629 1.14-.941 2.086-.941.933 0 1.625.304 2.074.91.445.594.672 1.52.684 2.773zm-1.118-1.512c0-.937-.132-1.617-.394-2.043-.258-.433-.672-.652-1.246-.652-.563 0-.977.219-1.242.652-.254.426-.383 1.078-.383 1.961v1.77c0 .937.133 1.633.398 2.09.278.449.692.671 1.242.671.543 0 .946-.214 1.211-.64.266-.422.407-1.09.414-1.992zm8.254 1.512c0 1.3-.222 2.266-.668 2.906-.433.625-1.125.938-2.07.938-.926 0-1.61-.305-2.058-.922-.446-.617-.68-1.543-.7-2.778v-1.464c0-1.29.219-2.239.653-2.856.445-.629 1.144-.941 2.09-.941.933 0 1.624.304 2.07.91.445.594.676 1.52.683 2.773zm-1.113-1.512c0-.937-.133-1.617-.398-2.043-.254-.433-.672-.652-1.243-.652-.566 0-.98.219-1.242.652-.258.426-.383 1.078-.383 1.961v1.77c0 .937.133 1.633.395 2.09.277.449.691.671 1.246.671.54 0 .945-.214 1.211-.64.266-.422.402-1.09.414-1.992zm3.953-1.246l.031.719c.465-.555 1.106-.828 1.91-.828.903 0 1.52.344 1.852 1.035.211-.309.485-.559.824-.75.352-.191.762-.285 1.23-.285 1.423 0 2.145.75 2.165 2.246v4.34h-1.098v-4.274c0-.457-.105-.797-.32-1.023-.211-.23-.566-.348-1.066-.348-.415 0-.758.121-1.036.367-.265.243-.418.57-.46.989v4.289h-1.102v-4.242c0-.938-.461-1.403-1.387-1.403-.722 0-1.215.309-1.48.922v4.723H85.27v-6.477zm13.942 4.754a.784.784 0 0 0-.352-.687c-.223-.168-.617-.313-1.18-.43-.55-.117-.992-.262-1.32-.43-.332-.172-.574-.367-.734-.59a1.522 1.522 0 0 1-.223-.832c0-.53.223-.976.668-1.336.445-.375 1.02-.558 1.723-.558.73 0 1.32.191 1.77.574.456.371.683.848.683 1.434h-1.098c0-.297-.133-.551-.398-.766-.258-.223-.575-.332-.957-.332-.407 0-.723.09-.957.27a.798.798 0 0 0-.336.667c0 .266.11.47.32.606.21.14.594.273 1.148.398.551.118.997.262 1.336.434.34.168.59.375.75.621.172.246.254.54.254.879 0 .582-.23 1.05-.699 1.402-.457.352-1.05.524-1.785.524-.52 0-.984-.09-1.387-.27a2.27 2.27 0 0 1-.922-.781 1.844 1.844 0 0 1-.336-1.066h1.098c.023.37.172.667.445.89.278.215.645.32 1.102.32.414 0 .75-.085 1.004-.257.254-.168.383-.399.383-.684zM60.238 169.59h-1.101v-7.367l-2.23.812v-1.004l3.171-1.195h.16zm4.016-4.371l.445-4.336h4.461v1.02h-3.523l-.27 2.378a2.828 2.828 0 0 1 1.465-.383c.79 0 1.414.266 1.883.797.469.52.7 1.227.7 2.121 0 .891-.243 1.598-.735 2.121-.477.52-1.149.782-2.024.782-.761 0-1.39-.215-1.879-.64-.488-.434-.765-1.032-.828-1.786h1.035c.075.5.258.879.543 1.133.285.254.664.383 1.133.383.508 0 .914-.176 1.211-.528.297-.351.445-.832.445-1.449 0-.586-.16-1.055-.48-1.406-.316-.348-.742-.524-1.273-.524-.477 0-.856.102-1.133.301l-.285.238zm12.094.656c0 1.297-.223 2.266-.672 2.902-.434.625-1.125.942-2.07.942-.926 0-1.61-.309-2.055-.926-.446-.617-.68-1.543-.7-2.773v-1.47c0-1.284.215-2.238.653-2.855.445-.625 1.14-.941 2.086-.941.933 0 1.625.305 2.074.91.445.594.672 1.52.684 2.777zm-1.118-1.516c0-.937-.132-1.617-.394-2.043-.258-.433-.672-.652-1.246-.652-.563 0-.977.219-1.242.652-.254.426-.383 1.082-.383 1.965v1.77c0 .933.133 1.629.398 2.086.278.449.692.672 1.242.672.543 0 .946-.215 1.211-.637.266-.426.407-1.09.414-1.996zm8.254 1.516c0 1.297-.222 2.266-.668 2.902-.433.625-1.125.942-2.07.942-.926 0-1.61-.309-2.058-.926-.446-.617-.68-1.543-.7-2.773v-1.47c0-1.284.219-2.238.653-2.855.445-.625 1.144-.941 2.09-.941.933 0 1.624.305 2.07.91.445.594.676 1.52.683 2.777zm-1.113-1.516c0-.937-.133-1.617-.398-2.043-.254-.433-.672-.652-1.243-.652-.566 0-.98.219-1.242.652-.258.426-.383 1.082-.383 1.965v1.77c0 .933.133 1.629.395 2.086.277.449.691.672 1.246.672.54 0 .945-.215 1.211-.637.266-.426.402-1.09.414-1.996zm3.953-1.246l.031.719c.465-.55 1.106-.828 1.91-.828.903 0 1.52.344 1.852 1.035.211-.309.485-.559.824-.75.352-.191.762-.285 1.23-.285 1.423 0 2.145.75 2.165 2.25v4.336h-1.098v-4.274c0-.457-.105-.796-.32-1.023-.211-.23-.566-.348-1.066-.348-.415 0-.758.121-1.036.368-.265.242-.418.574-.46.988v4.289h-1.102v-4.242c0-.934-.461-1.403-1.387-1.403-.722 0-1.215.309-1.48.926v4.719H85.27v-6.477zm13.942 4.754c0-.297-.118-.527-.352-.683-.223-.172-.617-.317-1.18-.434-.55-.117-.992-.258-1.32-.43-.332-.168-.574-.367-.734-.59a1.518 1.518 0 0 1-.223-.828c0-.53.223-.98.668-1.34.445-.37 1.02-.558 1.723-.558.73 0 1.32.191 1.77.574.456.371.683.852.683 1.434h-1.098c0-.297-.133-.551-.398-.766-.258-.223-.575-.332-.957-.332-.407 0-.723.09-.957.27a.808.808 0 0 0-.336.668c0 .27.11.468.32.609.21.137.594.27 1.148.394.551.122.997.262 1.336.434.34.172.59.379.75.621.172.246.254.54.254.88 0 .581-.23 1.05-.699 1.401-.457.352-1.05.528-1.785.528-.52 0-.984-.09-1.387-.274a2.276 2.276 0 0 1-.922-.78 1.835 1.835 0 0 1-.336-1.067h1.098c.023.37.172.668.445.89.278.215.645.32 1.102.32.414 0 .75-.085 1.004-.253.254-.172.383-.403.383-.688zm-37.957-65.824h-5.704v-.797l3.008-3.348c.45-.511.758-.921.926-1.23.172-.316.254-.648.254-.988 0-.457-.137-.828-.414-1.114-.266-.3-.629-.449-1.098-.449-.543 0-.968.16-1.273.48-.309.31-.465.743-.465 1.305h-1.098c0-.804.254-1.453.766-1.945.52-.5 1.21-.746 2.07-.746.817 0 1.461.21 1.926.637.469.425.703.992.703 1.707 0 .847-.547 1.87-1.64 3.062l-2.329 2.516h4.368zm6.898-3.715c0 1.297-.223 2.266-.668 2.902-.434.63-1.125.942-2.07.942-.926 0-1.61-.309-2.059-.926-.445-.617-.68-1.539-.7-2.773v-1.47c0-1.284.22-2.237.653-2.855.446-.625 1.145-.937 2.086-.937.938 0 1.63.3 2.074.906.446.594.676 1.52.684 2.778zm-1.113-1.516c0-.933-.133-1.617-.399-2.039-.254-.437-.672-.656-1.246-.656-.562 0-.976.219-1.242.656-.254.422-.379 1.079-.379 1.961v1.77c0 .933.133 1.633.395 2.09.277.445.691.668 1.246.668.539 0 .945-.211 1.21-.637.266-.426.403-1.09.415-1.996zm8.254 1.516c0 1.297-.223 2.266-.672 2.902-.434.63-1.125.942-2.07.942-.926 0-1.61-.309-2.055-.926-.446-.617-.68-1.539-.7-2.773v-1.47c0-1.284.215-2.237.653-2.855.445-.625 1.14-.937 2.086-.937.933 0 1.625.3 2.074.906.445.594.672 1.52.684 2.778zm-1.118-1.516c0-.933-.132-1.617-.394-2.039-.258-.437-.672-.656-1.246-.656-.563 0-.977.219-1.242.656-.254.422-.383 1.079-.383 1.961v1.77c0 .933.133 1.633.398 2.09.278.445.692.668 1.242.668.543 0 .946-.211 1.211-.637.266-.426.407-1.09.414-1.996zm8.254 1.516c0 1.297-.222 2.266-.668 2.902-.433.63-1.125.942-2.07.942-.926 0-1.61-.309-2.058-.926-.446-.617-.68-1.539-.7-2.773v-1.47c0-1.284.219-2.237.653-2.855.445-.625 1.144-.937 2.09-.937.933 0 1.624.3 2.07.906.445.594.676 1.52.683 2.778zm-1.113-1.516c0-.933-.133-1.617-.398-2.039-.254-.437-.672-.656-1.243-.656-.566 0-.98.219-1.242.656-.258.422-.383 1.079-.383 1.961v1.77c0 .933.133 1.633.395 2.09.277.445.691.668 1.246.668.54 0 .945-.211 1.211-.637.266-.426.402-1.09.414-1.996zm3.953-1.242l.031.715c.465-.55 1.106-.828 1.91-.828.903 0 1.52.348 1.852 1.04.211-.31.485-.56.824-.75a2.53 2.53 0 0 1 1.23-.29c1.423 0 2.145.75 2.165 2.25v4.336h-1.098V97.77c0-.457-.105-.797-.32-1.02-.211-.234-.566-.352-1.066-.352-.415 0-.758.122-1.036.368-.265.246-.418.574-.46.988v4.289h-1.102v-4.242c0-.934-.461-1.403-1.387-1.403-.722 0-1.215.309-1.48.926v4.719H85.27V95.57zm13.942 4.75a.778.778 0 0 0-.352-.683c-.223-.172-.617-.313-1.18-.43-.55-.117-.992-.262-1.32-.434-.332-.168-.574-.367-.734-.59a1.509 1.509 0 0 1-.223-.828c0-.53.223-.976.668-1.34.445-.37 1.02-.558 1.723-.558.73 0 1.32.191 1.77.574.456.371.683.852.683 1.438h-1.098c0-.301-.133-.555-.398-.766-.258-.223-.575-.336-.957-.336-.407 0-.723.09-.957.27a.81.81 0 0 0-.336.672c0 .265.11.464.32.605.21.137.594.27 1.148.398.551.118.997.262 1.336.43.34.172.59.38.75.621.172.246.254.54.254.88 0 .585-.23 1.05-.699 1.402-.457.351-1.05.527-1.785.527-.52 0-.984-.09-1.387-.274a2.246 2.246 0 0 1-.922-.78 1.835 1.835 0 0 1-.336-1.067h1.098c.023.37.172.668.445.894.278.211.645.317 1.102.317.414 0 .75-.086 1.004-.254.254-.172.383-.399.383-.688zM62.309 34.496h-5.704V33.7l3.008-3.347c.45-.512.758-.918.926-1.23.172-.317.254-.645.254-.985 0-.457-.137-.832-.414-1.117-.266-.301-.629-.45-1.098-.45-.543 0-.968.16-1.273.48-.309.31-.465.743-.465 1.31h-1.098c0-.81.254-1.458.766-1.946.52-.5 1.21-.75 2.07-.75.817 0 1.461.211 1.926.637.469.426.703.996.703 1.707 0 .851-.547 1.87-1.64 3.062l-2.329 2.52h4.368zm1.945-4.367l.445-4.34h4.461v1.023h-3.523l-.27 2.375a2.866 2.866 0 0 1 1.465-.382c.79 0 1.414.265 1.883.797.469.52.7 1.226.7 2.12 0 .895-.243 1.602-.735 2.122-.477.52-1.149.781-2.024.781-.761 0-1.39-.21-1.879-.637-.488-.437-.765-1.031-.828-1.785h1.035c.075.496.258.875.543 1.133.285.254.664.379 1.133.379.508 0 .914-.176 1.211-.524.297-.351.445-.836.445-1.453 0-.586-.16-1.05-.48-1.402-.316-.352-.742-.527-1.273-.527-.477 0-.856.101-1.133.304l-.285.239zm12.094.652c0 1.297-.223 2.266-.672 2.903-.434.629-1.125.941-2.07.941-.926 0-1.61-.309-2.055-.926-.446-.617-.68-1.539-.7-2.773v-1.469c0-1.285.215-2.238.653-2.852.445-.628 1.14-.94 2.086-.94.933 0 1.625.3 2.074.905.445.598.672 1.524.684 2.778zm-1.118-1.515c0-.934-.132-1.614-.394-2.04-.258-.437-.672-.652-1.246-.652-.563 0-.977.215-1.242.653-.254.425-.383 1.078-.383 1.96v1.77c0 .938.133 1.633.398 2.09.278.445.692.668 1.242.668.543 0 .946-.211 1.211-.637.266-.426.407-1.09.414-1.992zm8.254 1.515c0 1.297-.222 2.266-.668 2.903-.433.629-1.125.941-2.07.941-.926 0-1.61-.309-2.058-.926-.446-.617-.68-1.539-.7-2.773v-1.469c0-1.285.219-2.238.653-2.852.445-.628 1.144-.94 2.09-.94.933 0 1.624.3 2.07.905.445.598.676 1.524.683 2.778zm-1.113-1.515c0-.934-.133-1.614-.398-2.04-.254-.437-.672-.652-1.243-.652-.566 0-.98.215-1.242.653-.258.425-.383 1.078-.383 1.96v1.77c0 .938.133 1.633.395 2.09.277.445.691.668 1.246.668.54 0 .945-.211 1.211-.637.266-.426.402-1.09.414-1.992zm3.953-1.243l.031.72c.465-.555 1.106-.833 1.91-.833.903 0 1.52.348 1.852 1.04.211-.31.485-.56.824-.75a2.53 2.53 0 0 1 1.23-.29c1.423 0 2.145.75 2.165 2.25v4.336h-1.098v-4.273c0-.457-.105-.797-.32-1.02-.211-.234-.566-.351-1.066-.351-.415 0-.758.125-1.036.367-.265.246-.418.574-.46.988v4.29h-1.102v-4.24c0-.937-.461-1.405-1.387-1.405-.722 0-1.215.308-1.48.925v4.72H85.27v-6.474zm13.942 4.75a.778.778 0 0 0-.352-.683c-.223-.172-.617-.313-1.18-.43-.55-.117-.992-.262-1.32-.43-.332-.171-.574-.367-.734-.593a1.5 1.5 0 0 1-.223-.828c0-.532.223-.977.668-1.34.445-.371 1.02-.559 1.723-.559.73 0 1.32.192 1.77.574.456.371.683.852.683 1.438h-1.098c0-.297-.133-.555-.398-.766a1.414 1.414 0 0 0-.957-.336c-.407 0-.723.09-.957.27a.81.81 0 0 0-.336.672c0 .265.11.468.32.605.21.137.594.27 1.148.399.551.117.997.261 1.336.43.34.171.59.378.75.624.172.242.254.535.254.875 0 .586-.23 1.055-.699 1.403-.457.351-1.05.527-1.785.527-.52 0-.984-.09-1.387-.27a2.298 2.298 0 0 1-.922-.78 1.856 1.856 0 0 1-.336-1.071h1.098a1.2 1.2 0 0 0 .445.894c.278.211.645.317 1.102.317.414 0 .75-.086 1.004-.254.254-.172.383-.398.383-.688zm65.254 353.235h-1.098v-7.367l-2.23.812v-1.004l3.171-1.199h.157zm8.972-3.715c0 1.297-.222 2.262-.672 2.902-.433.625-1.125.938-2.07.938-.926 0-1.61-.305-2.055-.922-.445-.617-.68-1.543-.703-2.777v-1.465c0-1.29.219-2.239.656-2.856.446-.629 1.141-.941 2.086-.941.934 0 1.625.305 2.07.91.45.594.676 1.52.688 2.773zm-1.117-1.516c0-.937-.133-1.617-.398-2.043-.254-.433-.668-.652-1.243-.652-.562 0-.976.219-1.242.652-.254.426-.383 1.079-.383 1.961v1.77c0 .937.133 1.633.399 2.09.277.445.691.672 1.242.672.543 0 .945-.215 1.21-.641.267-.426.407-1.09.415-1.992zm8.254 1.512c0 1.3-.223 2.266-.668 2.906-.434.625-1.125.938-2.07.938-.926 0-1.61-.305-2.059-.922-.445-.617-.68-1.543-.7-2.777v-1.465c0-1.29.22-2.239.653-2.856.445-.629 1.145-.941 2.09-.941.934 0 1.625.305 2.07.91.446.594.676 1.52.684 2.773zm-1.113-1.512c0-.937-.133-1.617-.399-2.043-.258-.433-.672-.652-1.242-.652-.566 0-.98.219-1.242.652-.258.426-.383 1.079-.383 1.961v1.77c0 .937.133 1.633.395 2.09.277.445.69.672 1.246.672.539 0 .945-.215 1.21-.641.266-.426.403-1.09.415-1.992zm77.765.332h.828c.532-.007.946-.148 1.243-.414.296-.265.449-.625.449-1.082 0-1.023-.512-1.531-1.531-1.531-.477 0-.86.137-1.149.414-.273.277-.414.637-.414 1.082h-1.113c0-.691.25-1.262.746-1.719.512-.457 1.152-.687 1.93-.687.816 0 1.46.219 1.925.652.47.438.703 1.043.703 1.82 0 .383-.12.75-.367 1.102a2.301 2.301 0 0 1-1.004.797c.477.148.844.398 1.102.746.266.352.398.785.398 1.293 0 .777-.257 1.398-.765 1.867-.512.457-1.176.684-1.992.684-.81 0-1.473-.223-1.993-.668-.507-.445-.765-1.031-.765-1.754h1.117c0 .457.148.824.445 1.101.297.274.703.415 1.211.415.531 0 .934-.141 1.211-.414.285-.29.43-.692.43-1.215 0-.5-.153-.883-.461-1.149-.309-.273-.758-.418-1.356-.43h-.828zm10.996 1.18c0 1.3-.222 2.266-.672 2.906-.433.625-1.125.938-2.07.938-.926 0-1.61-.305-2.055-.922-.445-.617-.68-1.543-.703-2.777v-1.465c0-1.29.22-2.239.657-2.856.445-.629 1.14-.941 2.086-.941.933 0 1.625.305 2.07.91.45.594.676 1.52.687 2.773zm-1.117-1.512c0-.937-.133-1.617-.398-2.043-.254-.433-.668-.652-1.242-.652-.563 0-.977.219-1.243.652-.254.426-.382 1.079-.382 1.961v1.77c0 .937.132 1.633.398 2.09.277.445.691.672 1.242.672.543 0 .945-.215 1.211-.641.266-.426.402-1.09.414-1.992zm8.254 1.512c0 1.3-.223 2.266-.668 2.906-.433.625-1.125.938-2.07.938-.926 0-1.61-.305-2.059-.922-.445-.617-.68-1.543-.699-2.777v-1.465c0-1.29.219-2.239.652-2.856.446-.629 1.145-.941 2.086-.941.938 0 1.63.305 2.074.91.446.594.676 1.52.684 2.773zm-1.113-1.512c0-.937-.133-1.617-.399-2.043-.254-.433-.672-.652-1.246-.652-.562 0-.976.219-1.242.652-.254.426-.379 1.079-.379 1.961v1.77c0 .937.133 1.633.395 2.09.277.445.691.672 1.246.672.539 0 .945-.215 1.21-.641.266-.426.403-1.09.415-1.992zm76.668.86l.445-4.336h4.461v1.02h-3.52l-.273 2.374a2.866 2.866 0 0 1 1.465-.382c.789 0 1.414.265 1.883.796.465.524.699 1.23.699 2.121 0 .895-.242 1.602-.734 2.122-.477.523-1.149.78-2.02.78-.766 0-1.395-.21-1.883-.636-.488-.433-.765-1.031-.828-1.785h1.035c.074.5.258.875.543 1.133.285.254.664.383 1.133.383.508 0 .91-.176 1.21-.528.298-.351.446-.836.446-1.449 0-.586-.16-1.055-.48-1.406-.317-.352-.742-.528-1.274-.528-.476 0-.855.102-1.132.305l-.286.238zm12.094.652c0 1.3-.223 2.266-.672 2.906-.434.625-1.125.938-2.07.938-.926 0-1.61-.305-2.055-.922-.446-.617-.68-1.543-.704-2.777v-1.465c0-1.29.22-2.239.653-2.856.45-.629 1.144-.941 2.09-.941.933 0 1.625.305 2.07.91.45.594.676 1.52.688 2.773zm-1.118-1.512c0-.937-.132-1.617-.398-2.043-.254-.433-.668-.652-1.242-.652-.563 0-.977.219-1.243.652-.253.426-.382 1.079-.382 1.961v1.77c0 .937.132 1.633.398 2.09.277.445.692.672 1.242.672.543 0 .946-.215 1.211-.641.266-.426.403-1.09.414-1.992zm8.254 1.512c0 1.3-.222 2.266-.668 2.906-.437.625-1.125.938-2.07.938-.926 0-1.613-.305-2.059-.922-.445-.617-.68-1.543-.699-2.777v-1.465c0-1.29.219-2.239.652-2.856.446-.629 1.145-.941 2.086-.941.938 0 1.63.305 2.075.91.445.594.675 1.52.683 2.773zm-1.113-1.512c0-.937-.133-1.617-.399-2.043-.253-.433-.671-.652-1.246-.652-.562 0-.976.219-1.242.652-.254.426-.379 1.079-.379 1.961v1.77c0 .937.13 1.633.395 2.09.277.445.691.672 1.246.672.539 0 .945-.215 1.21-.641.267-.426.403-1.09.415-1.992zm81.781-2.855l-3.601 8.086h-1.164l3.586-7.797h-4.7v-.91h5.88zm6.98 4.367c0 1.3-.222 2.266-.671 2.906-.434.625-1.125.938-2.07.938-.922 0-1.61-.305-2.055-.922-.446-.617-.68-1.543-.703-2.777v-1.465c0-1.29.218-2.239.652-2.856.45-.629 1.145-.941 2.09-.941.933 0 1.625.305 2.07.91.45.594.676 1.52.688 2.773zm-1.117-1.512c0-.937-.132-1.617-.398-2.043-.254-.433-.668-.652-1.242-.652-.563 0-.977.219-1.242.652-.254.426-.383 1.079-.383 1.961v1.77c0 .937.133 1.633.398 2.09.278.445.692.672 1.242.672.543 0 .946-.215 1.211-.641.266-.426.403-1.09.414-1.992zm8.254 1.512c0 1.3-.222 2.266-.668 2.906-.437.625-1.125.938-2.07.938-.926 0-1.61-.305-2.058-.922-.446-.617-.68-1.543-.7-2.777v-1.465c0-1.29.219-2.239.653-2.856.445-.629 1.14-.941 2.086-.941.937 0 1.628.305 2.074.91.445.594.676 1.52.683 2.773zm-1.113-1.512c0-.937-.133-1.617-.398-2.043-.258-.433-.672-.652-1.246-.652-.563 0-.977.219-1.243.652-.254.426-.379 1.079-.379 1.961v1.77c0 .937.13 1.633.395 2.09.277.445.691.672 1.246.672.54 0 .945-.215 1.211-.641.266-.426.402-1.09.414-1.992zm80.395 1.403c-.223.277-.5.5-.828.668a2.31 2.31 0 0 1-1.051.242c-.5 0-.938-.125-1.309-.367a2.388 2.388 0 0 1-.86-1.04 3.652 3.652 0 0 1-.304-1.5c0-.57.11-1.093.32-1.558a2.43 2.43 0 0 1 .942-1.07c.414-.254.89-.383 1.433-.383.86 0 1.536.324 2.024.973.5.648.75 1.527.75 2.632v.317c0 1.703-.336 2.941-1.004 3.719-.672.773-1.68 1.171-3.027 1.195h-.227v-.926h.242c.91-.02 1.613-.262 2.102-.719.488-.457.754-1.183.797-2.183zm-1.703 0c.37 0 .71-.114 1.019-.336a2.15 2.15 0 0 0 .7-.844v-.45c0-.722-.16-1.312-.477-1.769-.32-.457-.72-.683-1.196-.683-.488 0-.882.183-1.18.558-.288.371-.429.867-.429 1.48 0 .598.137 1.087.414 1.47a1.36 1.36 0 0 0 1.149.574zm10.07.113c0 1.297-.223 2.262-.672 2.902-.434.625-1.125.938-2.07.938-.922 0-1.61-.305-2.055-.922-.445-.617-.68-1.543-.703-2.777v-1.465c0-1.29.219-2.239.652-2.856.45-.629 1.145-.941 2.09-.941.934 0 1.625.305 2.07.91.446.594.676 1.52.688 2.773zm-1.117-1.516c0-.937-.133-1.617-.399-2.043-.254-.433-.668-.652-1.242-.652-.563 0-.977.219-1.242.652-.254.426-.383 1.079-.383 1.961v1.77c0 .937.133 1.633.398 2.09.278.445.692.672 1.243.672.543 0 .945-.215 1.21-.641.266-.426.403-1.09.415-1.992zm8.254 1.512c0 1.3-.223 2.266-.668 2.906-.438.625-1.125.938-2.07.938-.927 0-1.61-.305-2.055-.922-.45-.617-.684-1.543-.704-2.777v-1.465c0-1.29.22-2.239.653-2.856.445-.629 1.144-.941 2.09-.941.933 0 1.625.305 2.07.91.445.594.676 1.52.684 2.773zm-1.114-1.512c0-.937-.133-1.617-.398-2.043-.258-.433-.672-.652-1.246-.652-.563 0-.977.219-1.242.652-.254.426-.383 1.079-.383 1.961v1.77c0 .937.133 1.633.398 2.09.278.445.692.672 1.246.672.54 0 .946-.215 1.211-.641.266-.426.403-1.09.414-1.992zm0 0" fill="#757575"/><path d="M641.676 24.8a1.02 1.02 0 0 1 1.02-1.019h10.199c.562 0 1.02.457 1.02 1.02v10.207a1.02 1.02 0 0 1-1.02 1.02h-10.2a1.02 1.02 0 0 1-1.02-1.02zm0 0" fill="#6fa8dc"/><path d="M668.383 31.34c0 .988-.227 1.785-.684 2.39-.445.598-1.05.895-1.816.895-.82 0-1.45-.293-1.899-.879l-.062.75h-1.004v-9.184h1.098v3.43c.449-.555 1.066-.832 1.851-.832.785 0 1.403.3 1.848.895.445.586.668 1.398.668 2.437zm-1.098-.13c0-.753-.148-1.331-.445-1.737-.29-.414-.703-.621-1.246-.621-.73 0-1.258.335-1.578 1.003v2.81c.34.679.867 1.019 1.578 1.019.531 0 .945-.207 1.246-.621.297-.415.445-1.032.445-1.852zm2.469-.015c0-.625.121-1.195.367-1.703a2.726 2.726 0 0 1 1.05-1.164 2.815 2.815 0 0 1 1.516-.418c.88 0 1.594.305 2.133.91.555.606.832 1.418.832 2.442v.078c0 .629-.125 1.191-.367 1.691-.246.5-.59.89-1.035 1.18-.45.277-.965.414-1.547.414-.871 0-1.582-.3-2.137-.906-.543-.617-.812-1.434-.812-2.442zm1.117.145c0 .71.164 1.285.492 1.723.34.437.785.652 1.34.652.563 0 1.008-.215 1.336-.653.332-.445.496-1.066.496-1.867 0-.699-.172-1.27-.512-1.703-.328-.449-.773-.672-1.336-.672-.542 0-.984.22-1.324.653-.328.425-.492 1.047-.492 1.867zm10.309 2.52c-.426.511-1.059.765-1.895.765-.691 0-1.219-.203-1.578-.605-.363-.407-.543-1-.543-1.786v-4.21h1.098v4.18c0 .987.398 1.48 1.195 1.48.852 0 1.414-.317 1.691-.957v-4.704h1.114v6.473h-1.051zm4.191-5.837l.031.813c.5-.617 1.149-.926 1.946-.926 1.367 0 2.058.774 2.07 2.313v4.273h-1.117v-4.289c0-.457-.106-.797-.317-1.02-.203-.222-.527-.335-.972-.335-.36 0-.68.097-.957.289a1.963 1.963 0 0 0-.621.746v4.61h-1.098v-6.474zm5.832 3.188c0-.996.235-1.793.7-2.39.468-.606 1.085-.91 1.85-.91.755 0 1.352.257 1.798.765v-3.363h1.101v9.183h-1.02l-.046-.7c-.45.552-1.063.829-1.852.829-.742 0-1.351-.309-1.832-.926-.465-.617-.699-1.418-.699-2.406zm1.098.129c0 .734.148 1.308.449 1.723.305.414.727.62 1.258.62.699 0 1.215-.316 1.543-.956v-2.965c-.328-.606-.836-.91-1.528-.91-.543 0-.968.207-1.273.625-.3.414-.45 1.035-.45 1.863zm0 0" fill="#757575"/><path d="M641.676 50.316c0-.562.457-1.02 1.02-1.02h10.199c.562 0 1.02.458 1.02 1.02v10.207a1.02 1.02 0 0 1-1.02 1.02h-10.2a1.02 1.02 0 0 1-1.02-1.02zm0 0" fill="#0b5394"/><path d="M665.5 59.23c.395 0 .738-.113 1.035-.347.297-.246.461-.551.492-.91h1.055a2.065 2.065 0 0 1-.398 1.07 2.585 2.585 0 0 1-.942.797c-.383.2-.797.3-1.242.3-.883 0-1.582-.292-2.105-.878-.508-.594-.762-1.403-.762-2.422v-.192c0-.628.11-1.183.332-1.671.234-.493.562-.872.988-1.133.438-.278.953-.418 1.547-.418.723 0 1.324.219 1.8.656.49.426.75.988.782 1.691h-1.055c-.03-.425-.187-.773-.476-1.039a1.486 1.486 0 0 0-1.051-.398c-.563 0-1 .203-1.305.605-.308.407-.465.989-.465 1.754v.207c0 .746.157 1.32.461 1.723.309.406.746.605 1.309.605zm7.52.786c-.063-.13-.118-.36-.157-.688-.511.543-1.12.813-1.836.813-.636 0-1.16-.18-1.578-.543-.402-.36-.601-.825-.601-1.387 0-.668.254-1.191.761-1.563.512-.37 1.235-.558 2.168-.558h1.07v-.508c0-.383-.117-.687-.35-.91-.224-.234-.563-.352-1.02-.352-.395 0-.723.102-.989.305-.265.191-.398.43-.398.715h-1.117c0-.328.113-.64.336-.942.234-.296.546-.53.941-.699.39-.18.82-.273 1.29-.273.753 0 1.339.187 1.753.558.422.375.648.883.668 1.532V58.5c0 .594.074 1.066.223 1.418v.098zm-1.832-.848c.351 0 .68-.09.988-.27.308-.18.531-.414.672-.703v-1.324h-.864c-1.359 0-2.039.399-2.039 1.2 0 .34.117.609.352.812.234.191.531.285.89.285zm6.183.848h-1.098v-9.188h1.098zm3.059 0h-1.098v-9.188h1.098zm0 0" fill="#757575"/><path d="M641.676 75.832c0-.562.457-1.02 1.02-1.02h10.199c.562 0 1.02.458 1.02 1.02v10.207c0 .566-.458 1.023-1.02 1.023h-10.2c-.562 0-1.02-.457-1.02-1.023zm0 0" fill="#e69138"/><path d="M663.953 79.055l.031.812c.5-.617 1.149-.922 1.946-.922 1.37 0 2.062.77 2.07 2.313v4.273h-1.113v-4.293c0-.457-.106-.797-.32-1.02-.204-.222-.524-.335-.973-.335-.36 0-.68.097-.953.289a1.99 1.99 0 0 0-.625.75v4.61h-1.098v-6.477zm10.086 6.476c-.062-.129-.113-.36-.156-.687-.512.543-1.121.812-1.836.812-.637 0-1.16-.18-1.574-.539-.407-.363-.606-.828-.606-1.39 0-.668.254-1.188.766-1.563.508-.371 1.23-.559 2.164-.559h1.07v-.507c0-.383-.117-.688-.351-.91-.223-.235-.563-.352-1.02-.352-.394 0-.723.102-.988.305-.266.191-.399.43-.399.714h-1.117c0-.328.113-.64.336-.937.235-.3.547-.535.942-.703.39-.18.82-.27 1.289-.27.754 0 1.34.184 1.754.555.425.375.648.883.667 1.531v2.985c0 .593.075 1.066.223 1.418v.097zm-1.832-.847c.352 0 .68-.09.988-.27.309-.18.532-.414.672-.703v-1.324h-.863c-1.36 0-2.04.398-2.04 1.199 0 .34.118.61.352.812.235.192.532.286.891.286zm6.184.847h-1.098v-6.476h1.098zm-1.196-8.183c0-.18.055-.332.16-.461.118-.13.282-.192.493-.192.215 0 .375.063.48.192a.66.66 0 0 1 .176.46.646.646 0 0 1-.176.45c-.105.117-.265.176-.48.176-.211 0-.375-.059-.493-.176a.688.688 0 0 1-.16-.45zm5.18 6.683l1.61-4.976h1.132l-2.328 6.476h-.844l-2.343-6.476h1.132zm6.676 1.625c-.883 0-1.598-.285-2.153-.86-.539-.585-.812-1.362-.812-2.327v-.192c0-.648.125-1.222.367-1.722a2.8 2.8 0 0 1 1.02-1.18 2.6 2.6 0 0 1 1.437-.43c.836 0 1.492.274 1.957.828.469.551.703 1.344.703 2.375v.465h-4.383c.02.637.208 1.153.56 1.543.358.395.816.59 1.37.59.38 0 .703-.078.969-.238a2.52 2.52 0 0 0 .734-.637l.668.527c-.539.84-1.351 1.258-2.437 1.258zm-.14-5.804c-.45 0-.825.164-1.134.496-.297.32-.48.77-.543 1.355h3.235v-.082c-.032-.562-.184-.996-.461-1.305-.266-.308-.633-.464-1.098-.464zm0 0" fill="#757575"/></svg>