<svg viewBox="0 0 602.21 327.378" fill="none" stroke-linecap="square" stroke-miterlimit="10" xmlns="http://www.w3.org/2000/svg"><clipPath id="a"><path d="M0 0h602.21v327.378H0V0z"/></clipPath><g clip-path="url(#a)"><path d="M0 0h602.21v327.378H0z"/><path d="M55.052 283.533l514.961.063v45.795l-514.96-.063z"/><path fill="#666" d="M227.32 314.275q-1.672 0-3-.75-1.328-.766-2.063-2.078-.734-1.313-.734-2.954 0-1.625.734-2.937.735-1.328 2.063-2.078 1.328-.765 3-.765t2.984.766q1.328.75 2.063 2.078.734 1.313.734 2.938 0 1.64-.734 2.953-.734 1.312-2.063 2.078-1.312.75-2.984.75zm0-2.578q.813 0 1.5-.375.688-.39 1.094-1.109.406-.734.406-1.719 0-.968-.406-1.687-.406-.719-1.094-1.094-.688-.39-1.5-.39-.797 0-1.484.39-.688.374-1.11 1.093-.406.719-.406 1.688 0 .953.406 1.703.422.734 1.11 1.125.687.375 1.484.375zm7.836-8.64h2.625v1.313h.171q.438-.703 1.297-1.171.86-.485 1.97-.485 1.468 0 2.671.735 1.203.735 1.875 2.063.687 1.312.687 2.984 0 1.688-.687 3-.672 1.313-1.875 2.047-1.203.734-2.672.734-1.11 0-1.984-.469-.86-.469-1.282-1.172h-.171l.171 1.531v4.375h-2.796v-15.485zm5.562 8.642q.797 0 1.469-.406.687-.406 1.094-1.125.406-.734.406-1.672 0-.937-.406-1.656-.407-.735-1.094-1.125-.672-.391-1.469-.391-.766 0-1.453.39-.672.39-1.078 1.125-.406.719-.406 1.656 0 .938.406 1.672.406.719 1.078 1.125.687.407 1.453.407zm12.623 2.408q-.797 0-1.484-.235-.688-.25-1.11-.688-1-.953-1-2.718v-5.016h-1.906v-2.391h1.906v-3.078h2.797v3.079h2.656v2.39h-2.656v4.5q0 .828.36 1.188.296.344 1.015.344.406 0 .672-.11.266-.109.703-.359v2.734q-.922.36-1.953.36zm5.759-12.25q-.735 0-1.281-.531-.532-.531-.532-1.281 0-.735.532-1.25.546-.532 1.28-.531.75 0 1.266.53.532.517.532 1.251 0 .75-.532 1.281-.515.531-1.265.531zm-1.406 1.203h2.796v10.876h-2.796V303.06zm5.693 0l2.625.001v1.36h.172q.515-.782 1.375-1.235.875-.468 1.937-.468 1.141 0 2 .547.86.547 1.22 1.375.53-.86 1.452-1.39.938-.531 2.188-.531 1.86 0 2.828 1.14.969 1.141.969 3.079v7h-2.766v-6.485q0-1.015-.484-1.562-.485-.563-1.329-.563-1.093 0-1.75.86-.64.859-.64 2.265v5.484h-2.797v-6.485q0-1.015-.5-1.562-.5-.563-1.422-.563-1.016 0-1.656.86-.625.859-.625 2.265v5.484h-2.797V303.06zm21.008-1.2q-.734 0-1.281-.531-.531-.531-.531-1.281 0-.735.53-1.25.548-.531 1.282-.531.75 0 1.266.531.531.516.531 1.25 0 .75-.531 1.281-.516.531-1.266.531zm-1.406 1.203h2.797v10.876h-2.797v-10.876zm5.146 8.595l5.672-6.234h-5.5v-2.36l8.938.001v2.281l-5.672 6.218 5.844.001v2.375l-9.282-.001v-2.281zm14.774 2.627q-1.719 0-2.828-1.016-1.11-1.016-1.11-2.657 0-1.094.563-1.922.578-.828 1.578-1.265 1.016-.453 2.235-.453 1.671 0 2.875.485v-.469q0-.89-.672-1.438-.672-.562-1.797-.562-.781 0-1.5.359-.703.344-1.172.922l-1.797-1.407q.797-1.03 1.984-1.578 1.204-.562 2.61-.562 2.484 0 3.781 1.157 1.313 1.14 1.313 3.36v6.702h-2.75v-1.11h-.172q-.485.641-1.297 1.047-.797.407-1.844.407zm.672-2.172q1.203 0 1.922-.781.719-.781.719-1.828-1.094-.516-2.282-.516-2.172 0-2.172 1.624 0 .657.47 1.079.468.422 1.343.422zm12.7 2.001q-.797 0-1.485-.234-.687-.25-1.11-.688-1-.953-1-2.719v-5.015h-1.906v-2.391h1.907v-3.078h2.797v3.078h2.656v2.391h-2.656v4.5q0 .828.359 1.187.297.344 1.016.344.406 0 .671-.109.266-.11.704-.36v2.735q-.922.36-1.954.36zm5.758-12.249q-.734 0-1.28-.531-.532-.532-.532-1.282 0-.734.531-1.25.547-.53 1.281-.53.75 0 1.266.53.531.516.531 1.25 0 .75-.531 1.282-.516.531-1.266.531zm-1.406 1.203h2.797v10.875h-2.797v-10.875zm10.897 11.22q-1.672 0-3-.75-1.328-.766-2.063-2.079-.734-1.312-.734-2.953 0-1.625.734-2.937.735-1.328 2.063-2.078 1.328-.766 3-.765 1.672 0 2.984.766 1.328.75 2.063 2.078.734 1.312.734 2.937 0 1.641-.734 2.954-.735 1.312-2.063 2.077-1.312.75-2.984.75zm0-2.578q.812 0 1.5-.375.687-.39 1.093-1.11.407-.733.407-1.718 0-.969-.407-1.687-.406-.72-1.093-1.094-.688-.391-1.5-.391-.797 0-1.485.39-.687.375-1.11 1.094-.405.719-.405 1.687 0 .954.406 1.704.422.734 1.11 1.125.687.375 1.484.375zm7.913-8.64h2.625v1.36h.172q.5-.781 1.39-1.234.892-.469 1.938-.469 1.97 0 2.985 1.204 1.031 1.187 1.031 3.25v6.765h-2.797v-6.422q0-1.047-.531-1.61-.531-.577-1.5-.577-1.125 0-1.828.874-.688.86-.688 2.188v5.547h-2.797V303.07zm11.417 10.877zm6.35-15.265h2.797v15.266h-2.797v-15.266zm10.654 15.61q-1.625 0-2.937-.75-1.297-.75-2.031-2.063-.735-1.312-.735-2.953 0-1.547.72-2.875.733-1.343 2.015-2.125 1.281-.796 2.86-.796 1.687 0 2.89.735 1.218.719 1.843 1.984.641 1.25.641 2.782 0 .5-.062.937h-8.172q.218 1.312 1.031 1.984.828.656 1.969.656.968 0 1.656-.406.687-.422 1.094-1.125l2.265 1.11q-1.656 2.906-5.047 2.905zm2.579-7.109q-.047-.5-.375-1-.329-.515-.922-.844-.578-.328-1.375-.328-1 0-1.719.594-.703.578-1.031 1.578h5.422zm3.629-4.109h3.172l2.75 7.08h.171l2.797-7.078h3.125l-4.64 10.874h-2.782l-4.593-10.876zm18.64 11.222q-1.625 0-2.938-.75-1.297-.751-2.03-2.064-.735-1.312-.735-2.953 0-1.547.718-2.875.735-1.343 2.016-2.124 1.281-.797 2.86-.797 1.687 0 2.89.735 1.219.719 1.844 1.984.64 1.25.64 2.782 0 .5-.062.937h-8.172q.219 1.312 1.031 1.984.828.656 1.97.656.968 0 1.655-.406.688-.422 1.094-1.125l2.266 1.11q-1.657 2.906-5.047 2.906zm2.578-7.11q-.047-.5-.375-1-.328-.515-.922-.843-.578-.329-1.375-.329-1 0-1.719.594-.703.578-1.03 1.578h5.421zm4.832-8.499h2.797v15.266h-2.797v-15.266z"/><path d="M0 292.436l.063-264.85h45.795l-.063 264.85z"/><path fill="#666" d="M19.516 234.782l.001-2.625h1.36v-.172q-.782-.515-1.235-1.375-.468-.875-.468-1.937 0-1.141.547-2 .547-.86 1.376-1.22-.86-.53-1.39-1.452-.532-.938-.531-2.188 0-1.86 1.141-2.828 1.14-.969 3.078-.969h7v2.766H23.91q-1.015 0-1.562.484-.563.485-.563 1.329 0 1.093.859 1.75.86.64 2.265.64h5.485l-.001 2.797h-6.484q-1.016 0-1.563.5-.563.5-.563 1.422 0 1.016.86 1.656.858.625 2.265.625h5.484v2.797H19.515zm11.225-24.54q0 1.626-.75 2.938-.751 1.297-2.064 2.031-1.312.735-2.953.735-1.547 0-2.875-.719-1.343-.734-2.124-2.016-.797-1.28-.797-2.859 0-1.687.735-2.89.72-1.22 1.985-1.844 1.25-.641 2.782-.641.5 0 .937.063l-.002 8.171q1.313-.218 1.985-1.03.656-.829.657-1.97 0-.968-.406-1.656-.422-.687-1.125-1.094l1.11-2.265q2.906 1.656 2.905 5.047zm-7.109-2.577q-.5.046-1 .375-.516.328-.844.921-.328.579-.328 1.375 0 1 .593 1.72.578.702 1.578 1.03l.001-5.421zm-4.108-4.833v-2.625h1.36v-.171q-.781-.516-1.234-1.375-.469-.875-.468-1.938 0-1.14.547-2 .547-.86 1.375-1.219-.859-.531-1.39-1.453-.531-.937-.53-2.187 0-1.86 1.14-2.828 1.141-.97 3.079-.97h7v2.766h-6.485q-1.016 0-1.563.485-.562.484-.563 1.328 0 1.094.86 1.75.859.64 2.265.64H30.4v2.797h-6.485q-1.015 0-1.562.5-.563.5-.563 1.422 0 1.016.859 1.657.859.625 2.265.625H30.4l-.001 2.796H19.524zM30.749 178.2q0 1.672-.751 3-.766 1.328-2.079 2.063-1.312.734-2.953.734-1.625 0-2.937-.734-1.328-.735-2.078-2.063-.765-1.328-.765-3t.766-2.984q.75-1.328 2.079-2.063 1.313-.734 2.938-.734 1.64 0 2.953.734 1.312.735 2.077 2.063.75 1.312.75 2.984zm-2.579 0q0-.812-.374-1.5-.39-.687-1.11-1.093-.734-.407-1.718-.407-.969 0-1.688.407-.718.406-1.094 1.093-.39.688-.39 1.5 0 .797.39 1.485.375.687 1.093 1.109.719.406 1.688.406.953 0 1.703-.406.734-.422 1.125-1.11.375-.687.375-1.484zm-8.638-7.913v-2.625h1.453v-.172q-.765-.407-1.265-1.25-.515-.86-.515-1.891 0-.75.235-1.36h2.797q-.204.579-.298.97-.109.39-.11.843 0 1.235.907 1.969.89.719 2.25.719h5.421v2.797H19.532zm10.362-12.498l-10.36 4.578v-3.172l6.767-2.812v-.172l-6.765-2.72v-3.108L35.02 157.1v3l-5.125-2.312zm.517-7.578zm.347-10.288q0 1.97-1.22 3-1.219 1.016-3.39 1.016h-6.61v-2.797h6.266q1.11 0 1.75-.531.625-.531.626-1.406 0-1.188-.875-1.891-.875-.703-2.218-.703H19.54v-2.797h10.875v2.625h-1.36v.172q.781.484 1.25 1.375.453.875.453 1.937zm.003-12.978q0 1.984-.814 3.218-.812 1.22-2.11 1.704l-1.092-2.5q.765-.329 1.172-.954.39-.64.39-1.468 0-.766-.25-1.282-.249-.515-.796-.515-.531 0-.797.469-.266.468-.485 1.406l-.281 1.281q-.313 1.328-1.157 2.203-.844.875-2.11.875-.937 0-1.671-.562-.75-.578-1.156-1.547-.406-.969-.406-2.14.001-3.376 2.376-4.5l1.031 2.39q-1.14.64-1.141 2.047 0 .718.265 1.156.266.422.672.422.766 0 1.14-1.453l.392-1.594q.407-1.625 1.235-2.438.828-.828 2.047-.828 1.047 0 1.86.61.796.609 1.249 1.672.437 1.046.437 2.328zm.002-9.959q0 1.72-1.016 2.829-1.016 1.109-2.657 1.109-1.093 0-1.921-.563-.828-.578-1.266-1.578-.453-1.015-.452-2.234 0-1.672.485-2.875h-.469q-.89 0-1.438.672-.562.672-.563 1.797 0 .78.36 1.5.343.703.921 1.172l-1.407 1.796q-1.03-.796-1.577-1.984-.562-1.203-.562-2.61 0-2.484 1.157-3.78 1.14-1.313 3.36-1.313h6.703v2.75h-1.11v.172q.64.484 1.046 1.297.406.797.406 1.843zm-2.172-.671q0-1.204-.78-1.922-.781-.72-1.828-.72-.516 1.095-.517 2.282 0 2.172 1.625 2.172.656 0 1.078-.469.422-.468.422-1.343zm6.785-12.981q0 2.062-.939 3.437-.922 1.36-2.219 1.828l-1.077-2.625q.812-.343 1.281-1.046.47-.704.47-1.594 0-1.328-.813-2.094-.796-.781-2.296-.781h-.86v.172q.735.5 1.125 1.343.375.829.374 1.891 0 1.344-.688 2.516-.703 1.156-1.969 1.859-1.266.703-2.953.703-1.688 0-2.953-.703-1.266-.703-1.953-1.86-.703-1.171-.702-2.515 0-1.062.39-1.89.376-.844 1.11-1.344v-.172h-1.156V97.77h10.126q1.75 0 3.031.688 1.281.672 1.968 1.937.703 1.25.703 2.938zm-7.485-.047q0-1.172-.827-2-.828-.828-2.25-.828-1.469 0-2.266.828-.813.812-.813 2 0 1.203.812 2.031.812.828 2.266.828 1.453 0 2.265-.828.813-.828.813-2.031zM30.77 89.93q0 1.625-.751 2.938-.75 1.297-2.063 2.031-1.313.734-2.953.734-1.547 0-2.875-.718-1.344-.735-2.125-2.016-.796-1.281-.796-2.86 0-1.687.735-2.89.72-1.219 1.985-1.844 1.25-.64 2.781-.64.5 0 .938.062l-.002 8.172q1.312-.219 1.984-1.031.657-.828.657-1.969 0-.969-.406-1.656-.421-.688-1.124-1.094l1.11-2.266q2.905 1.657 2.905 5.047zm-7.11-2.578q-.5.047-1 .375-.515.328-.843.922-.329.578-.329 1.375 0 1 .594 1.719.578.703 1.578 1.031v-5.422z"/><defs><linearGradient id="b" gradientUnits="userSpaceOnUse" gradientTransform="scale(-23.19973 23.19973)" spreadMethod="pad" x1="-13.472" y1="22.922" x2="2.933" y2="6.517"><stop offset="0" stop-color="#ea4335"/><stop offset="1" stop-color="#980000"/></linearGradient></defs><path fill="url(#b)" d="M570.021 274.294V28.089L55.061 274.294z" fill-rule="evenodd"/><path d="M45.06 286.388V11.238"/><path stroke="#666" stroke-width="2" stroke-linejoin="round" stroke-linecap="butt" d="M45.06 286.388V23.238"/><path fill="#666" stroke="#666" stroke-width="2" stroke-linecap="butt" d="M48.363 23.239l-3.304-9.076-3.303 9.076z" fill-rule="evenodd"/><path d="M44.857 285.36h546.299"/><path stroke="#666" stroke-width="2" stroke-linejoin="round" stroke-linecap="butt" d="M44.857 285.36h534.299"/><path fill="#666" stroke="#666" stroke-width="2" stroke-linecap="butt" d="M579.156 288.663l9.076-3.303-9.076-3.304z" fill-rule="evenodd"/></g></svg>